<svg width="358" height="290" viewBox="0 0 358 290" fill="none" xmlns="http://www.w3.org/2000/svg">
<path d="M15.5619 58.7223C20.1348 34.3003 34.3777 15.1065 54.7976 7.09482C62.7506 3.96102 71.3658 2.51814 80.2693 2.82877C106.727 3.77779 134.898 21.0753 152.429 47.2719C162.741 62.6634 170.043 81.3489 183.976 92.3418C202.089 106.602 224.174 102.52 243.205 97.7287C262.237 92.937 287.096 94.6553 305.815 107.736C323.265 119.939 342.889 146.262 347.914 160.479C367.089 214.7 326.669 257.008 296.663 269.288C266.658 281.568 242.422 283.547 208.827 282.776C161.761 281.695 111.488 251.644 72.8204 212.836C35.9768 175.854 11.6668 120.745 14.1207 70.7259C14.3336 66.638 14.8153 62.6261 15.5619 58.7223Z" fill="#007D5A" fill-opacity="0.08"/>
<g filter="url(#filter0_d_231_7127)">
<g filter="url(#filter1_di_231_7127)">
<path fill-rule="evenodd" clip-rule="evenodd" d="M304.514 48.674C305.853 48.674 307.07 49.3606 307.949 50.4844C308.806 51.5805 309.34 53.0937 309.34 54.767V231.361C309.34 233.035 309.34 235.889 309.34 237.454C307.683 237.454 305.853 237.454 304.515 237.454H53.426C52.0872 237.454 50.2571 237.454 48.6004 237.454C48.6009 235.889 48.6004 233.035 48.6004 231.361V54.767C48.6004 53.0937 48.3039 50.6967 49.1611 49.6006C50.04 48.4762 52.0872 48.674 53.4266 48.674H304.514Z" fill="white"/>
</g>
<path d="M121.902 73.9496C121.902 74.2215 121.838 74.478 121.709 74.7191C121.581 74.9603 121.376 75.1578 121.094 75.3117C120.811 75.4605 120.45 75.5349 120.009 75.5349L119.039 75.5349L119.039 77.7051L118.162 77.7051L118.162 72.3565L120.009 72.3565C120.419 72.3565 120.765 72.4284 121.047 72.572C121.335 72.7105 121.548 72.9004 121.686 73.1415C121.83 73.3826 121.902 73.652 121.902 73.9496ZM120.009 74.8192C120.342 74.8192 120.591 74.7448 120.755 74.596C120.919 74.4421 121.001 74.2266 121.001 73.9496C121.001 73.3647 120.67 73.0722 120.009 73.0722L119.039 73.0722L119.039 74.8192L120.009 74.8192ZM123.569 74.0804C123.697 73.8649 123.867 73.6982 124.077 73.5802C124.292 73.457 124.546 73.3955 124.839 73.3955L124.839 74.3036L124.616 74.3036C124.272 74.3036 124.01 74.3908 123.831 74.5652C123.656 74.7397 123.569 75.0423 123.569 75.4733L123.569 77.7051L122.692 77.7051L122.692 73.4647L123.569 73.4647L123.569 74.0804ZM127.438 77.7743C127.038 77.7743 126.676 77.6846 126.353 77.505C126.029 77.3203 125.775 77.0638 125.591 76.7354C125.406 76.4019 125.314 76.0171 125.314 75.5811C125.314 75.1501 125.409 74.7679 125.598 74.4344C125.788 74.1009 126.047 73.8444 126.376 73.6648C126.704 73.4852 127.071 73.3955 127.476 73.3955C127.882 73.3955 128.248 73.4852 128.577 73.6648C128.905 73.8444 129.164 74.1009 129.354 74.4344C129.544 74.7679 129.639 75.1501 129.639 75.5811C129.639 76.012 129.541 76.3942 129.346 76.7277C129.151 77.0612 128.885 77.3203 128.546 77.505C128.212 77.6846 127.843 77.7743 127.438 77.7743ZM127.438 77.0125C127.663 77.0125 127.874 76.9586 128.069 76.8509C128.269 76.7431 128.43 76.5815 128.554 76.366C128.677 76.1505 128.738 75.8889 128.738 75.5811C128.738 75.2732 128.679 75.0141 128.561 74.8038C128.443 74.5883 128.287 74.4267 128.092 74.3189C127.897 74.2112 127.687 74.1573 127.461 74.1573C127.235 74.1573 127.025 74.2112 126.83 74.3189C126.64 74.4267 126.489 74.5883 126.376 74.8038C126.263 75.0141 126.206 75.2732 126.206 75.5811C126.206 76.0377 126.322 76.3917 126.553 76.6431C126.789 76.8893 127.084 77.0125 127.438 77.0125ZM130.906 72.9029C130.747 72.9029 130.613 72.8491 130.505 72.7413C130.398 72.6336 130.344 72.5002 130.344 72.3411C130.344 72.1821 130.398 72.0487 130.505 71.941C130.613 71.8332 130.747 71.7794 130.906 71.7794C131.059 71.7794 131.19 71.8332 131.298 71.941C131.406 72.0487 131.46 72.1821 131.46 72.3411C131.46 72.5002 131.406 72.6336 131.298 72.7413C131.19 72.8491 131.059 72.9029 130.906 72.9029ZM131.337 78.5362C131.337 78.9518 131.231 79.2519 131.021 79.4366C130.816 79.6264 130.516 79.7214 130.121 79.7214L129.667 79.7214L129.667 78.9826L129.967 78.9826C130.146 78.9826 130.272 78.9467 130.344 78.8748C130.421 78.8081 130.459 78.6953 130.459 78.5362L130.459 73.4647L131.337 73.4647L131.337 78.5362ZM136.328 75.481C136.328 75.6401 136.318 75.7837 136.297 75.912L133.057 75.912C133.083 76.2506 133.209 76.5225 133.434 76.7277C133.66 76.9329 133.937 77.0355 134.265 77.0355C134.737 77.0355 135.071 76.838 135.266 76.443L136.212 76.443C136.084 76.8329 135.851 77.1535 135.512 77.4049C135.179 77.6512 134.763 77.7743 134.265 77.7743C133.86 77.7743 133.496 77.6846 133.173 77.505C132.855 77.3203 132.603 77.0638 132.418 76.7354C132.239 76.4019 132.149 76.0171 132.149 75.5811C132.149 75.145 132.236 74.7627 132.411 74.4344C132.59 74.1009 132.839 73.8444 133.157 73.6648C133.48 73.4852 133.85 73.3955 134.265 73.3955C134.666 73.3955 135.022 73.4827 135.335 73.6571C135.648 73.8316 135.892 74.0778 136.066 74.3959C136.241 74.7089 136.328 75.0706 136.328 75.481ZM135.412 75.204C135.407 74.8807 135.292 74.6216 135.066 74.4267C134.84 74.2317 134.56 74.1343 134.227 74.1343C133.924 74.1343 133.665 74.2317 133.45 74.4267C133.234 74.6165 133.106 74.8756 133.065 75.204L135.412 75.204ZM136.852 75.5811C136.852 75.145 136.939 74.7627 137.114 74.4344C137.293 74.1009 137.54 73.8444 137.853 73.6648C138.165 73.4852 138.525 73.3955 138.93 73.3955C139.443 73.3955 139.866 73.5186 140.2 73.7649C140.538 74.006 140.767 74.3523 140.885 74.8038L139.938 74.8038C139.861 74.5934 139.738 74.4293 139.569 74.3113C139.399 74.1933 139.186 74.1343 138.93 74.1343C138.571 74.1343 138.283 74.2625 138.068 74.519C137.858 74.7704 137.752 75.1244 137.752 75.5811C137.752 76.0377 137.858 76.3942 138.068 76.6508C138.283 76.9073 138.571 77.0355 138.93 77.0355C139.438 77.0355 139.774 76.8124 139.938 76.366L140.885 76.366C140.761 76.797 140.531 77.1407 140.192 77.3972C139.853 77.6486 139.433 77.7743 138.93 77.7743C138.525 77.7743 138.165 77.6846 137.853 77.505C137.54 77.3203 137.293 77.0638 137.114 76.7354C136.939 76.4019 136.852 76.0171 136.852 75.5811ZM142.736 74.1804L142.736 76.5276C142.736 76.6867 142.772 76.8021 142.843 76.8739C142.92 76.9406 143.049 76.974 143.228 76.974L143.767 76.974L143.767 77.7051L143.074 77.7051C142.679 77.7051 142.377 77.6127 142.166 77.428C141.956 77.2433 141.851 76.9432 141.851 76.5276L141.851 74.1804L141.35 74.1804L141.35 73.4647L141.851 73.4647L141.851 72.4104L142.736 72.4104L142.736 73.4647L143.767 73.4647L143.767 74.1804L142.736 74.1804ZM146.068 77.7743C145.734 77.7743 145.434 77.7153 145.167 77.5973C144.906 77.4742 144.698 77.31 144.544 77.1048C144.39 76.8945 144.308 76.661 144.298 76.4045L145.206 76.4045C145.221 76.5841 145.306 76.7354 145.46 76.8585C145.619 76.9765 145.816 77.0355 146.052 77.0355C146.299 77.0355 146.489 76.9894 146.622 76.897C146.76 76.7995 146.83 76.6764 146.83 76.5276C146.83 76.3686 146.753 76.2506 146.599 76.1736C146.45 76.0967 146.212 76.012 145.883 75.9197C145.565 75.8324 145.306 75.7478 145.106 75.6657C144.906 75.5836 144.731 75.4579 144.583 75.2886C144.439 75.1193 144.367 74.8961 144.367 74.6191C144.367 74.3933 144.434 74.1881 144.567 74.0034C144.701 73.8136 144.89 73.6648 145.137 73.5571C145.388 73.4493 145.675 73.3955 145.999 73.3955C146.481 73.3955 146.868 73.5186 147.161 73.7649C147.458 74.006 147.617 74.3369 147.638 74.7576L146.76 74.7576C146.745 74.5678 146.668 74.4164 146.53 74.3036C146.391 74.1907 146.204 74.1343 145.968 74.1343C145.737 74.1343 145.56 74.1779 145.437 74.2651C145.314 74.3523 145.252 74.4677 145.252 74.6114C145.252 74.7243 145.293 74.8192 145.375 74.8961C145.457 74.9731 145.557 75.0347 145.675 75.0808C145.793 75.1219 145.968 75.1757 146.199 75.2424C146.507 75.3245 146.758 75.4092 146.953 75.4964C147.153 75.5785 147.325 75.7016 147.469 75.8658C147.612 76.03 147.687 76.248 147.692 76.5199C147.692 76.7611 147.625 76.9765 147.492 77.1664C147.358 77.3562 147.168 77.505 146.922 77.6127C146.681 77.7205 146.396 77.7743 146.068 77.7743Z" fill="#68737D"/>
<path opacity="0.3" fill-rule="evenodd" clip-rule="evenodd" d="M48.6011 50.2628C48.6011 49.2393 49.4307 48.4097 50.4542 48.4097H306.426C307.449 48.4097 308.279 49.2393 308.279 50.2628V59.7931C308.279 60.8166 307.449 61.6462 306.426 61.6462H50.4542C49.4307 61.6462 48.6011 60.8166 48.6011 59.7931V50.2628Z" fill="#C6C3B3"/>
<path d="M276.976 58.0776C278.427 58.0776 279.604 56.9802 279.604 55.6265C279.604 54.2727 278.427 53.1753 276.976 53.1753C275.524 53.1753 274.348 54.2727 274.348 55.6265C274.348 56.9802 275.524 58.0776 276.976 58.0776Z" fill="#70C38A"/>
<path d="M295.898 58.0776C297.35 58.0776 298.526 56.9802 298.526 55.6265C298.526 54.2727 297.35 53.1753 295.898 53.1753C294.447 53.1753 293.27 54.2727 293.27 55.6265C293.27 56.9802 294.447 58.0776 295.898 58.0776Z" fill="url(#paint0_linear_231_7127)"/>
<path d="M286.437 58.0776C287.888 58.0776 289.065 56.9802 289.065 55.6265C289.065 54.2727 287.888 53.1753 286.437 53.1753C284.985 53.1753 283.809 54.2727 283.809 55.6265C283.809 56.9802 284.985 58.0776 286.437 58.0776Z" fill="#C57F12"/>
<path d="M256.277 52.1162H55.1715C54.3301 52.1162 53.648 52.5706 53.648 53.131V57.1902C53.648 57.7507 54.3301 58.205 55.1715 58.205H256.277C257.119 58.205 257.801 57.7507 257.801 57.1902V53.131C257.801 52.5706 257.119 52.1162 256.277 52.1162Z" fill="white"/>
<rect width="258.215" height="144.198" rx="1.88397" transform="matrix(0.999997 0.00237393 -0.00266382 0.999996 50.0375 93.6497)" fill="#F8F9F9"/>
<mask id="path-10-inside-1_231_7127" fill="white">
<path d="M48.955 93.678L106.103 93.8136L105.72 237.673L48.5718 237.537L48.955 93.678Z"/>
</mask>
<path d="M48.955 93.678L106.103 93.8136L105.72 237.673L48.5718 237.537L48.955 93.678Z" fill="white"/>
<path d="M105.839 93.813L105.455 237.672L105.985 237.673L106.368 93.8143L105.839 93.813Z" fill="#D8DCDE" mask="url(#path-10-inside-1_231_7127)"/>
<circle cx="57.0722" cy="105.722" r="1.85312" fill="#B0C2CB"/>
<rect x="60.6321" y="104.419" width="34.8896" height="2.56434" rx="1.28217" transform="rotate(-0.337597 60.6321 104.419)" fill="#D8DCDE"/>
<circle cx="57.0722" cy="119.218" r="1.85312" fill="#B0C2CB"/>
<rect x="60.6321" y="117.915" width="34.8896" height="2.56434" rx="1.28217" transform="rotate(-0.337597 60.6321 117.915)" fill="#D8DCDE"/>
<circle cx="57.0722" cy="132.714" r="1.85312" fill="#B0C2CB"/>
<rect x="60.6321" y="131.411" width="34.8896" height="2.56434" rx="1.28217" transform="rotate(-0.337597 60.6321 131.411)" fill="#D8DCDE"/>
<circle cx="105.629" cy="100.852" r="2.77968" fill="#B0C2CB"/>
<rect width="2.63979" height="2.6064" rx="1.3032" transform="matrix(0.999985 -0.00556232 0.00624152 0.999981 117.585 84.0618)" fill="#80D9C0"/>
<path d="M121.163 85.0353C121.163 84.8861 121.197 84.7522 121.266 84.6337C121.336 84.5152 121.43 84.4231 121.549 84.3573C121.669 84.29 121.8 84.2564 121.942 84.2564C122.104 84.2565 122.248 84.2968 122.374 84.3773C122.501 84.4563 122.594 84.569 122.651 84.7154L122.35 84.7153C122.311 84.6348 122.256 84.5748 122.185 84.5353C122.115 84.4957 122.034 84.4759 121.942 84.4759C121.841 84.4759 121.751 84.4985 121.672 84.5439C121.593 84.5892 121.531 84.6543 121.485 84.7391C121.441 84.824 121.42 84.9227 121.42 85.0354C121.42 85.1481 121.442 85.2468 121.486 85.3317C121.531 85.4166 121.593 85.4825 121.672 85.5293C121.751 85.5747 121.841 85.5974 121.942 85.5974C122.034 85.5975 122.116 85.5777 122.186 85.5383C122.256 85.4988 122.311 85.4388 122.35 85.3583L122.651 85.3584C122.594 85.5047 122.502 85.6174 122.375 85.6963C122.249 85.7753 122.105 85.8148 121.942 85.8147C121.799 85.8147 121.668 85.7817 121.549 85.7158C121.431 85.6485 121.336 85.5555 121.266 85.437C121.197 85.3185 121.163 85.1846 121.163 85.0353ZM123.434 85.8218C123.319 85.8217 123.216 85.7961 123.124 85.7449C123.032 85.6922 122.959 85.619 122.907 85.5253C122.854 85.4302 122.828 85.3205 122.828 85.1961C122.827 85.0732 122.855 84.9642 122.909 84.8691C122.963 84.774 123.037 84.7009 123.13 84.6497C123.224 84.5985 123.328 84.5729 123.444 84.573C123.56 84.573 123.664 84.5987 123.758 84.6499C123.852 84.7011 123.925 84.7743 123.98 84.8694C124.034 84.9646 124.061 85.0736 124.061 85.1965C124.061 85.3194 124.033 85.4284 123.978 85.5235C123.922 85.6186 123.846 85.6924 123.75 85.7451C123.654 85.7963 123.549 85.8218 123.434 85.8218ZM123.433 85.6045C123.498 85.6045 123.558 85.5892 123.613 85.5585C123.67 85.5278 123.717 85.4817 123.752 85.4203C123.787 85.3588 123.804 85.2842 123.804 85.1964C123.804 85.1086 123.787 85.0347 123.754 84.9747C123.72 84.9133 123.675 84.8671 123.62 84.8364C123.564 84.8057 123.504 84.7903 123.44 84.7903C123.375 84.7902 123.315 84.8056 123.26 84.8363C123.206 84.867 123.162 84.9131 123.13 84.9745C123.098 85.0345 123.082 85.1084 123.082 85.1962C123.082 85.3264 123.115 85.4274 123.181 85.4991C123.248 85.5693 123.332 85.6045 123.433 85.6045ZM125.737 84.5737C125.832 84.5738 125.917 84.5935 125.992 84.6331C126.068 84.6726 126.127 84.7312 126.169 84.8087C126.213 84.8863 126.235 84.9799 126.235 85.0897L126.236 85.803L125.988 85.8029L125.987 85.1269C125.987 85.0186 125.96 84.9359 125.906 84.8789C125.852 84.8203 125.778 84.791 125.684 84.791C125.591 84.791 125.516 84.8202 125.461 84.8787C125.406 84.9358 125.379 85.0184 125.379 85.1267L125.38 85.8027L125.132 85.8026L125.131 85.1266C125.131 85.0183 125.104 84.9357 125.05 84.8786C124.996 84.82 124.922 84.7907 124.828 84.7907C124.735 84.7907 124.66 84.8199 124.605 84.8784C124.55 84.9355 124.523 85.0181 124.523 85.1264L124.524 85.8024L124.274 85.8023L124.273 84.593L124.523 84.5931L124.523 84.7314C124.564 84.6816 124.616 84.6429 124.679 84.6151C124.742 84.5873 124.809 84.5734 124.881 84.5735C124.978 84.5735 125.064 84.594 125.14 84.635C125.216 84.676 125.275 84.7353 125.316 84.8128C125.352 84.7397 125.409 84.6819 125.487 84.6395C125.564 84.5956 125.648 84.5737 125.737 84.5737ZM126.769 84.7716C126.811 84.716 126.869 84.6692 126.942 84.6312C127.015 84.5932 127.098 84.5742 127.19 84.5742C127.295 84.5742 127.391 84.6006 127.478 84.6533C127.565 84.7046 127.634 84.777 127.684 84.8707C127.734 84.9643 127.759 85.0719 127.759 85.1933C127.759 85.3148 127.734 85.4238 127.684 85.5203C127.635 85.6154 127.566 85.69 127.478 85.7441C127.392 85.7968 127.296 85.8231 127.191 85.823C127.098 85.823 127.016 85.8047 126.945 85.7681C126.873 85.73 126.814 85.6832 126.769 85.6276L126.769 86.3782L126.519 86.3781L126.519 84.5937L126.769 84.5938L126.769 84.7716ZM127.504 85.1932C127.504 85.1098 127.487 85.0381 127.451 84.9781C127.418 84.9167 127.372 84.8706 127.315 84.8398C127.26 84.8076 127.2 84.7915 127.135 84.7915C127.072 84.7915 127.012 84.8075 126.955 84.8397C126.9 84.8719 126.854 84.9187 126.819 84.9801C126.786 85.0416 126.769 85.114 126.769 85.1974C126.769 85.2808 126.786 85.3539 126.82 85.4169C126.855 85.4783 126.9 85.5252 126.956 85.5574C127.013 85.5896 127.073 85.6057 127.136 85.6057C127.2 85.6057 127.26 85.5897 127.316 85.5575C127.373 85.5239 127.418 85.4756 127.452 85.4127C127.487 85.3498 127.504 85.2766 127.504 85.1932ZM128.221 84.1795L128.222 85.8036L127.971 85.8035L127.971 84.1794L128.221 84.1795ZM129.623 85.1698C129.623 85.2151 129.62 85.2561 129.614 85.2927L128.69 85.2924C128.698 85.389 128.734 85.4665 128.798 85.5251C128.862 85.5836 128.942 85.6129 129.035 85.6129C129.17 85.613 129.265 85.5567 129.32 85.444L129.59 85.4441C129.554 85.5553 129.487 85.6467 129.391 85.7184C129.296 85.7886 129.177 85.8237 129.035 85.8236C128.92 85.8236 128.816 85.798 128.724 85.7467C128.633 85.694 128.561 85.6208 128.508 85.5272C128.457 85.432 128.431 85.3223 128.431 85.1979C128.431 85.0736 128.456 84.9646 128.506 84.8709C128.557 84.7758 128.628 84.7027 128.719 84.6515C128.811 84.6004 128.916 84.5748 129.035 84.5748C129.149 84.5749 129.251 84.5998 129.34 84.6495C129.429 84.6993 129.499 84.7696 129.548 84.8603C129.598 84.9496 129.623 85.0527 129.623 85.1698ZM129.362 85.0907C129.36 84.9985 129.328 84.9246 129.263 84.869C129.199 84.8134 129.119 84.7855 129.024 84.7855C128.938 84.7855 128.864 84.8133 128.802 84.8688C128.741 84.923 128.704 84.9968 128.693 85.0905L129.362 85.0907ZM130.126 84.799L130.126 85.4684C130.126 85.5138 130.137 85.5467 130.157 85.5672C130.179 85.5862 130.216 85.5958 130.267 85.5958L130.421 85.5958L130.421 85.8043L130.223 85.8043C130.11 85.8042 130.024 85.7779 129.964 85.7252C129.904 85.6725 129.874 85.5869 129.874 85.4684L129.874 84.799L129.731 84.7989L129.731 84.5948L129.874 84.5948L129.874 84.2942L130.126 84.2943L130.126 84.5949L130.42 84.595L130.42 84.7991L130.126 84.799ZM131.724 85.1705C131.724 85.2158 131.721 85.2568 131.716 85.2934L130.792 85.2931C130.799 85.3897 130.835 85.4672 130.899 85.5258C130.964 85.5843 131.043 85.6136 131.136 85.6136C131.271 85.6137 131.366 85.5574 131.422 85.4447L131.691 85.4448C131.655 85.556 131.588 85.6474 131.492 85.7191C131.397 85.7893 131.278 85.8244 131.136 85.8243C131.021 85.8243 130.917 85.7986 130.825 85.7474C130.734 85.6947 130.662 85.6215 130.609 85.5279C130.558 85.4327 130.533 85.323 130.533 85.1986C130.533 85.0743 130.557 84.9653 130.607 84.8716C130.658 84.7765 130.729 84.7034 130.82 84.6522C130.912 84.601 131.017 84.5755 131.136 84.5755C131.25 84.5756 131.352 84.6005 131.441 84.6502C131.53 84.7 131.6 84.7703 131.65 84.861C131.699 84.9503 131.724 85.0534 131.724 85.1705ZM131.463 85.0914C131.462 84.9992 131.429 84.9253 131.364 84.8697C131.3 84.8141 131.22 84.7862 131.125 84.7862C131.039 84.7862 130.965 84.814 130.903 84.8695C130.842 84.9237 130.805 84.9975 130.794 85.0912L131.463 85.0914ZM131.852 85.1947C131.852 85.0732 131.877 84.9657 131.927 84.8721C131.978 84.7784 132.047 84.706 132.133 84.6549C132.221 84.6022 132.318 84.5759 132.425 84.5759C132.504 84.576 132.581 84.5935 132.657 84.6287C132.735 84.6624 132.796 84.7077 132.842 84.7648L132.842 84.181L133.094 84.1811L133.095 85.8052L132.842 85.8051L132.842 85.623C132.801 85.6815 132.744 85.7298 132.671 85.7678C132.599 85.8058 132.517 85.8248 132.423 85.8248C132.318 85.8247 132.221 85.7983 132.133 85.7456C132.047 85.6915 131.978 85.6168 131.927 85.5217C131.877 85.4251 131.852 85.3161 131.852 85.1947ZM132.842 85.1994C132.842 85.116 132.824 85.0436 132.789 84.9821C132.756 84.9206 132.711 84.8738 132.655 84.8416C132.6 84.8094 132.54 84.7933 132.475 84.7932C132.411 84.7932 132.351 84.8093 132.295 84.8415C132.24 84.8722 132.194 84.9182 132.159 84.9797C132.126 85.0397 132.109 85.1114 132.109 85.1948C132.109 85.2782 132.126 85.3513 132.159 85.4142C132.195 85.4772 132.24 85.5255 132.296 85.5591C132.353 85.5914 132.413 85.6075 132.476 85.6075C132.54 85.6075 132.6 85.5914 132.656 85.5593C132.711 85.5271 132.756 85.4803 132.789 85.4188C132.824 85.3559 132.842 85.2828 132.842 85.1994ZM134.921 84.4209L134.186 84.4207L134.186 84.8574C134.217 84.8165 134.262 84.7821 134.322 84.7543C134.384 84.7266 134.449 84.7127 134.518 84.7127C134.641 84.7127 134.74 84.7391 134.816 84.7918C134.894 84.8445 134.949 84.9111 134.981 84.9916C135.015 85.0721 135.031 85.1569 135.031 85.2462C135.031 85.3545 135.01 85.451 134.968 85.5359C134.927 85.6193 134.865 85.6851 134.781 85.7333C134.699 85.7816 134.599 85.8057 134.479 85.8057C134.319 85.8056 134.191 85.7661 134.094 85.687C133.998 85.608 133.94 85.5034 133.921 85.3731L134.165 85.3732C134.181 85.442 134.217 85.4969 134.272 85.5378C134.328 85.5774 134.397 85.5971 134.481 85.5972C134.585 85.5972 134.662 85.5658 134.713 85.5029C134.766 85.44 134.792 85.3566 134.792 85.2527C134.792 85.1474 134.766 85.0669 134.713 85.0113C134.66 84.9542 134.583 84.9256 134.48 84.9256C134.409 84.9256 134.348 84.9438 134.298 84.9804C134.25 85.0155 134.215 85.0638 134.193 85.1252L133.956 85.1251L133.956 84.2011L134.921 84.2015L134.921 84.4209Z" fill="#68737D"/>
<rect width="2.61" height="2.61" rx="1.305" transform="matrix(0.999985 -0.00556232 0.00624152 0.999981 140.398 83.9329)" fill="#FFD7A4"/>
<path d="M144.663 84.1234L144.663 85.6754L144.408 85.6753L144.408 84.1233L144.663 84.1234ZM145.582 84.4251C145.679 84.4252 145.765 84.4453 145.841 84.4855C145.919 84.5257 145.979 84.5853 146.022 84.6642C146.065 84.7432 146.087 84.8384 146.087 84.9501L146.087 85.6759L145.835 85.6758L145.835 84.988C145.835 84.8778 145.807 84.7937 145.752 84.7356C145.697 84.676 145.622 84.6462 145.526 84.6462C145.431 84.6462 145.355 84.6759 145.299 84.7355C145.243 84.7935 145.216 84.8776 145.216 84.9878L145.216 85.6756L144.962 85.6755L144.961 84.445L145.216 84.4451L145.216 84.5858C145.258 84.5352 145.31 84.4958 145.374 84.4675C145.44 84.4392 145.509 84.4251 145.582 84.4251ZM147.175 84.6267C147.218 84.5701 147.277 84.5225 147.351 84.4838C147.426 84.4451 147.51 84.4258 147.604 84.4258C147.711 84.4258 147.808 84.4527 147.896 84.5063C147.986 84.5584 148.056 84.6322 148.106 84.7275C148.157 84.8228 148.182 84.9322 148.182 85.0558C148.182 85.1793 148.157 85.2902 148.106 85.3885C148.056 85.4852 147.986 85.5611 147.897 85.6162C147.809 85.6698 147.711 85.6965 147.604 85.6965C147.51 85.6965 147.427 85.6778 147.354 85.6406C147.281 85.6018 147.221 85.5542 147.175 85.4976L147.176 86.2613L146.921 86.2613L146.92 84.4457L147.175 84.4458L147.175 84.6267ZM147.923 85.0557C147.923 84.9708 147.905 84.8979 147.87 84.8368C147.835 84.7743 147.789 84.7273 147.731 84.6961C147.674 84.6633 147.613 84.6469 147.548 84.6469C147.484 84.6469 147.423 84.6632 147.365 84.6959C147.308 84.7287 147.262 84.7763 147.226 84.8388C147.192 84.9013 147.175 84.975 147.175 85.0599C147.175 85.1448 147.192 85.2192 147.227 85.2832C147.262 85.3458 147.308 85.3934 147.365 85.4262C147.423 85.459 147.484 85.4754 147.548 85.4754C147.614 85.4754 147.675 85.4591 147.731 85.4263C147.789 85.3921 147.835 85.343 147.87 85.279C147.905 85.215 147.923 85.1405 147.923 85.0557ZM148.653 84.6249C148.69 84.5624 148.739 84.514 148.8 84.4798C148.863 84.4441 148.936 84.4262 149.021 84.4263L149.021 84.6898L148.957 84.6898C148.857 84.6897 148.781 84.715 148.729 84.7656C148.678 84.8162 148.653 84.9041 148.653 85.0291L148.653 85.6767L148.399 85.6767L148.398 84.4462L148.653 84.4463L148.653 84.6249ZM149.754 85.6972C149.638 85.6972 149.533 85.6711 149.439 85.6189C149.345 85.5653 149.271 85.4908 149.218 85.3955C149.164 85.2988 149.137 85.1871 149.137 85.0605C149.137 84.9355 149.165 84.8246 149.22 84.7278C149.275 84.6311 149.35 84.5567 149.445 84.5046C149.54 84.4525 149.647 84.4265 149.764 84.4265C149.882 84.4266 149.989 84.4526 150.084 84.5048C150.179 84.5569 150.254 84.6314 150.309 84.7282C150.365 84.825 150.392 84.9359 150.392 85.061C150.392 85.186 150.364 85.2969 150.307 85.3937C150.251 85.4904 150.174 85.5656 150.075 85.6191C149.979 85.6712 149.871 85.6972 149.754 85.6972ZM149.754 85.4761C149.819 85.4761 149.88 85.4605 149.937 85.4293C149.995 85.398 150.042 85.3511 150.077 85.2886C150.113 85.2261 150.131 85.1502 150.131 85.0609C150.131 84.9715 150.114 84.8963 150.08 84.8353C150.045 84.7728 150 84.7258 149.943 84.6946C149.887 84.6633 149.826 84.6476 149.76 84.6476C149.695 84.6476 149.634 84.6632 149.577 84.6944C149.522 84.7257 149.478 84.7726 149.445 84.8351C149.413 84.8961 149.396 84.9713 149.396 85.0606C149.396 85.1931 149.43 85.2959 149.497 85.3688C149.565 85.4403 149.651 85.4761 149.754 85.4761ZM151.104 84.427C151.199 84.427 151.283 84.4464 151.356 84.4851C151.431 84.5224 151.489 84.5693 151.53 84.6259L151.53 84.4472L151.787 84.4473L151.788 85.6979C151.788 85.811 151.764 85.9115 151.716 85.9993C151.669 86.0886 151.599 86.1586 151.509 86.2092C151.419 86.2598 151.312 86.285 151.187 86.285C151.02 86.2849 150.882 86.2454 150.772 86.1665C150.661 86.089 150.599 85.9833 150.584 85.8493L150.836 85.8494C150.856 85.9134 150.897 85.9648 150.959 86.0035C151.023 86.0438 151.099 86.0639 151.187 86.0639C151.29 86.0639 151.372 86.0327 151.435 85.9702C151.499 85.9077 151.531 85.8169 151.531 85.6978L151.531 85.4923C151.488 85.5504 151.429 85.5995 151.354 85.6397C151.281 85.6783 151.198 85.6977 151.104 85.6976C150.997 85.6976 150.899 85.6708 150.809 85.6172C150.722 85.562 150.652 85.4861 150.599 85.3893C150.549 85.291 150.523 85.1801 150.523 85.0565C150.523 84.933 150.549 84.8235 150.599 84.7283C150.651 84.633 150.721 84.5593 150.809 84.5073C150.898 84.4537 150.997 84.4269 151.104 84.427ZM151.531 85.0613C151.531 84.9765 151.513 84.9028 151.477 84.8402C151.443 84.7777 151.397 84.73 151.341 84.6973C151.284 84.6645 151.223 84.6481 151.157 84.6481C151.092 84.648 151.031 84.6644 150.974 84.6971C150.918 84.7284 150.872 84.7753 150.836 84.8378C150.802 84.8988 150.785 84.9718 150.785 85.0566C150.785 85.1415 150.802 85.2159 150.836 85.2799C150.872 85.344 150.918 85.3931 150.975 85.4274C151.033 85.4602 151.094 85.4766 151.158 85.4766C151.223 85.4766 151.284 85.4602 151.341 85.4275C151.397 85.3948 151.443 85.3471 151.477 85.2846C151.513 85.2206 151.531 85.1462 151.531 85.0613ZM152.341 84.6261C152.378 84.5636 152.427 84.5152 152.488 84.481C152.55 84.4453 152.624 84.4275 152.709 84.4275L152.709 84.691L152.644 84.691C152.545 84.691 152.469 84.7162 152.417 84.7668C152.366 84.8174 152.341 84.9053 152.341 85.0303L152.341 85.678L152.086 85.6779L152.086 84.4474L152.34 84.4475L152.341 84.6261ZM154.035 85.0331C154.035 85.0793 154.032 85.121 154.026 85.1582L153.086 85.1579C153.094 85.2561 153.13 85.335 153.196 85.3946C153.261 85.4542 153.342 85.484 153.437 85.484C153.574 85.4841 153.671 85.4268 153.727 85.3122L154.002 85.3123C153.965 85.4254 153.897 85.5184 153.799 85.5913C153.702 85.6628 153.581 85.6985 153.437 85.6984C153.319 85.6984 153.214 85.6723 153.12 85.6201C153.028 85.5665 152.955 85.4921 152.901 85.3968C152.849 85.3 152.823 85.1883 152.823 85.0618C152.823 84.9352 152.848 84.8243 152.899 84.729C152.951 84.6323 153.023 84.5579 153.115 84.5058C153.209 84.4537 153.316 84.4277 153.437 84.4277C153.553 84.4278 153.656 84.4531 153.747 84.5038C153.838 84.5544 153.909 84.6259 153.959 84.7182C154.01 84.8091 154.035 84.914 154.035 85.0331ZM153.77 84.9526C153.768 84.8588 153.734 84.7837 153.669 84.7271C153.603 84.6705 153.522 84.6421 153.426 84.6421C153.338 84.6421 153.262 84.6703 153.2 84.7269C153.137 84.782 153.1 84.8571 153.088 84.9524L153.77 84.9526ZM154.697 85.6988C154.6 85.6988 154.513 85.6816 154.436 85.6474C154.36 85.6116 154.3 85.564 154.255 85.5044C154.21 85.4433 154.186 85.3756 154.183 85.3012L154.447 85.3012C154.451 85.3533 154.476 85.3973 154.521 85.433C154.567 85.4673 154.624 85.4844 154.693 85.4844C154.764 85.4845 154.819 85.4711 154.858 85.4443C154.898 85.416 154.918 85.3803 154.918 85.3371C154.918 85.291 154.896 85.2567 154.851 85.2344C154.808 85.212 154.739 85.1874 154.643 85.1606C154.551 85.1353 154.476 85.1107 154.418 85.0868C154.36 85.063 154.309 85.0265 154.266 84.9774C154.224 84.9282 154.203 84.8635 154.203 84.7831C154.203 84.7176 154.223 84.658 154.261 84.6044C154.3 84.5494 154.355 84.5062 154.426 84.475C154.499 84.4437 154.583 84.4281 154.677 84.4281C154.816 84.4282 154.929 84.464 155.014 84.5354C155.1 84.6054 155.146 84.7015 155.152 84.8236L154.898 84.8235C154.893 84.7684 154.871 84.7245 154.831 84.6917C154.79 84.6589 154.736 84.6425 154.668 84.6425C154.601 84.6425 154.549 84.6551 154.514 84.6804C154.478 84.7057 154.46 84.7392 154.46 84.7809C154.46 84.8137 154.472 84.8412 154.496 84.8636C154.52 84.8859 154.549 84.9038 154.583 84.9172C154.617 84.9291 154.668 84.9447 154.735 84.9641C154.824 84.988 154.897 85.0126 154.954 85.0379C155.012 85.0617 155.062 85.0975 155.103 85.1451C155.145 85.1928 155.167 85.2561 155.168 85.335C155.168 85.4049 155.149 85.4675 155.11 85.5225C155.071 85.5776 155.016 85.6208 154.945 85.652C154.875 85.6833 154.792 85.6989 154.697 85.6988ZM155.854 85.6992C155.758 85.6992 155.67 85.682 155.593 85.6478C155.517 85.612 155.457 85.5643 155.412 85.5048C155.367 85.4437 155.344 85.376 155.341 85.3015L155.604 85.3016C155.609 85.3537 155.633 85.3977 155.678 85.4334C155.724 85.4677 155.781 85.4848 155.85 85.4848C155.921 85.4848 155.976 85.4715 156.015 85.4447C156.055 85.4164 156.075 85.3807 156.075 85.3375C156.075 85.2914 156.053 85.2571 156.008 85.2348C155.965 85.2124 155.896 85.1878 155.801 85.161C155.708 85.1357 155.633 85.1111 155.575 85.0872C155.517 85.0634 155.466 85.0269 155.423 84.9777C155.381 84.9286 155.361 84.8638 155.36 84.7834C155.36 84.7179 155.38 84.6584 155.418 84.6048C155.457 84.5497 155.512 84.5066 155.584 84.4753C155.657 84.4441 155.74 84.4285 155.834 84.4285C155.974 84.4286 156.086 84.4643 156.171 84.5358C156.257 84.6058 156.304 84.7019 156.31 84.824L156.055 84.8239C156.051 84.7688 156.028 84.7249 155.988 84.6921C155.948 84.6593 155.893 84.6429 155.825 84.6429C155.758 84.6429 155.707 84.6555 155.671 84.6808C155.635 84.7061 155.617 84.7396 155.617 84.7813C155.617 84.814 155.629 84.8416 155.653 84.8639C155.677 84.8863 155.706 84.9041 155.74 84.9176C155.774 84.9295 155.825 84.9451 155.892 84.9645C155.981 84.9884 156.054 85.0129 156.111 85.0383C156.169 85.0621 156.219 85.0979 156.261 85.1455C156.302 85.1932 156.324 85.2565 156.325 85.3354C156.325 85.4053 156.306 85.4679 156.267 85.5229C156.229 85.578 156.174 85.6212 156.102 85.6524C156.032 85.6836 155.95 85.6992 155.854 85.6992ZM157.217 85.3334C157.359 85.2099 157.472 85.1087 157.554 85.0298C157.637 84.9494 157.706 84.8661 157.761 84.7798C157.816 84.6934 157.844 84.6071 157.844 84.5207C157.844 84.4314 157.822 84.3614 157.779 84.3108C157.737 84.2602 157.671 84.2348 157.58 84.2348C157.492 84.2348 157.424 84.263 157.375 84.3196C157.327 84.3747 157.302 84.4491 157.299 84.5429L157.053 84.5428C157.058 84.3731 157.108 84.2436 157.205 84.1543C157.303 84.0635 157.427 84.0181 157.578 84.0182C157.74 84.0182 157.867 84.063 157.958 84.1523C158.05 84.2417 158.096 84.3608 158.096 84.5097C158.096 84.6169 158.069 84.7203 158.014 84.82C157.96 84.9183 157.895 85.0069 157.819 85.0857C157.745 85.1631 157.65 85.2532 157.534 85.3559L157.433 85.4451L158.141 85.4454L158.141 85.6575L157.056 85.6572L157.056 85.4718L157.217 85.3334Z" fill="#68737D"/>
<rect width="2.63979" height="2.6064" rx="1.3032" transform="matrix(0.999985 -0.00556232 0.00624152 0.999981 162.557 83.8118)" fill="#92C9EB"/>
<path d="M167.353 83.9714L167.354 85.5553L167.094 85.5552L167.093 83.9713L167.353 83.9714ZM168.292 84.2794C168.39 84.2794 168.479 84.2999 168.556 84.341C168.635 84.382 168.697 84.4428 168.741 84.5234C168.785 84.6039 168.807 84.7012 168.807 84.8151L168.807 85.5558L168.55 85.5557L168.549 84.8538C168.549 84.7413 168.521 84.6555 168.465 84.5962C168.409 84.5354 168.332 84.505 168.235 84.505C168.137 84.5049 168.06 84.5353 168.002 84.5961C167.946 84.6553 167.918 84.7411 167.918 84.8536L167.918 85.5555L167.659 85.5554L167.658 84.2997L167.918 84.2998L167.918 84.4433C167.96 84.3917 168.014 84.3514 168.08 84.3226C168.147 84.2938 168.217 84.2793 168.292 84.2794ZM169.015 84.9268C169.015 84.7977 169.041 84.6845 169.093 84.5873C169.146 84.4886 169.219 84.4126 169.311 84.3595C169.404 84.3063 169.51 84.2798 169.63 84.2798C169.782 84.2799 169.908 84.3164 170.007 84.3893C170.107 84.4608 170.174 84.5633 170.209 84.6971L169.929 84.697C169.906 84.6347 169.87 84.586 169.82 84.5511C169.77 84.5161 169.706 84.4986 169.631 84.4986C169.524 84.4986 169.439 84.5365 169.375 84.6125C169.313 84.6869 169.282 84.7917 169.282 84.9269C169.282 85.0622 169.313 85.1678 169.376 85.2437C169.439 85.3197 169.524 85.3577 169.631 85.3578C169.781 85.3578 169.881 85.2918 169.929 85.1596L170.21 85.1597C170.173 85.2873 170.105 85.3891 170.005 85.465C169.904 85.5394 169.78 85.5766 169.631 85.5766C169.511 85.5765 169.405 85.5499 169.312 85.4967C169.219 85.442 169.146 85.366 169.093 85.2687C169.041 85.1699 169.015 85.056 169.015 84.9268ZM170.977 85.577C170.858 85.577 170.751 85.5503 170.656 85.4971C170.56 85.4424 170.485 85.3664 170.43 85.2692C170.375 85.1704 170.348 85.0564 170.348 84.9273C170.348 84.7997 170.376 84.6865 170.432 84.5877C170.488 84.489 170.565 84.4131 170.662 84.3599C170.759 84.3068 170.868 84.2802 170.988 84.2803C171.108 84.2803 171.217 84.3069 171.314 84.3601C171.411 84.4133 171.488 84.4893 171.544 84.5881C171.6 84.6869 171.629 84.8001 171.629 84.9277C171.629 85.0553 171.6 85.1685 171.542 85.2673C171.484 85.366 171.405 85.4427 171.305 85.4974C171.206 85.5505 171.097 85.5771 170.977 85.577ZM170.977 85.3514C171.044 85.3514 171.106 85.3355 171.164 85.3036C171.223 85.2717 171.271 85.2239 171.307 85.1601C171.344 85.0963 171.362 85.0188 171.362 84.9276C171.362 84.8365 171.344 84.7597 171.309 84.6974C171.274 84.6336 171.228 84.5857 171.17 84.5538C171.113 84.5219 171.05 84.5059 170.983 84.5059C170.917 84.5059 170.854 84.5218 170.797 84.5537C170.74 84.5856 170.696 84.6334 170.662 84.6972C170.629 84.7595 170.612 84.8362 170.612 84.9274C170.612 85.0626 170.646 85.1674 170.715 85.2419C170.785 85.3149 170.872 85.3514 170.977 85.3514ZM173.369 84.281C173.468 84.2811 173.556 84.3016 173.633 84.3427C173.712 84.3837 173.774 84.4445 173.818 84.525C173.864 84.6056 173.886 84.7028 173.886 84.8168L173.887 85.5575L173.629 85.5574L173.629 84.8554C173.629 84.743 173.601 84.6572 173.545 84.5979C173.488 84.5371 173.412 84.5067 173.314 84.5066C173.217 84.5066 173.14 84.537 173.082 84.5977C173.026 84.657 172.998 84.7428 172.998 84.8552L172.998 85.5572L172.74 85.5571L172.74 84.8551C172.74 84.7427 172.712 84.6569 172.656 84.5976C172.599 84.5368 172.523 84.5064 172.425 84.5064C172.328 84.5063 172.251 84.5367 172.193 84.5974C172.137 84.6567 172.109 84.7425 172.109 84.8549L172.109 85.5569L171.849 85.5568L171.849 84.3011L172.109 84.3011L172.109 84.4447C172.151 84.3931 172.205 84.3528 172.27 84.324C172.336 84.2951 172.406 84.2807 172.48 84.2808C172.58 84.2808 172.67 84.3021 172.749 84.3447C172.828 84.3872 172.889 84.4488 172.931 84.5293C172.969 84.4534 173.029 84.3934 173.109 84.3493C173.19 84.3038 173.276 84.281 173.369 84.281ZM174.313 84.1355C174.266 84.1355 174.226 84.1195 174.194 84.0876C174.162 84.0557 174.146 84.0162 174.146 83.9691C174.146 83.922 174.162 83.8825 174.194 83.8506C174.226 83.8187 174.265 83.8027 174.312 83.8028C174.358 83.8028 174.397 83.8187 174.429 83.8507C174.461 83.8826 174.477 83.9221 174.477 83.9692C174.477 84.0163 174.461 84.0558 174.429 84.0877C174.397 84.1196 174.358 84.1355 174.313 84.1355ZM174.44 84.3019L174.441 85.5576L174.181 85.5576L174.18 84.3018L174.44 84.3019ZM175.379 84.2817C175.477 84.2817 175.565 84.3023 175.643 84.3433C175.722 84.3844 175.784 84.4452 175.828 84.5257C175.872 84.6062 175.894 84.7035 175.894 84.8174L175.894 85.5581L175.637 85.558L175.636 84.8561C175.636 84.7437 175.608 84.6578 175.552 84.5985C175.496 84.5378 175.419 84.5073 175.322 84.5073C175.224 84.5073 175.147 84.5376 175.089 84.5984C175.033 84.6576 175.005 84.7435 175.005 84.8559L175.005 85.5578L174.745 85.5577L174.745 84.302L175.005 84.3021L175.005 84.4457C175.047 84.394 175.101 84.3538 175.167 84.3249C175.233 84.2961 175.304 84.2817 175.379 84.2817ZM176.695 84.2821C176.792 84.2822 176.878 84.302 176.952 84.3415C177.028 84.3795 177.087 84.4274 177.13 84.4851L177.13 84.3028L177.392 84.3029L177.392 85.5791C177.392 85.6946 177.368 85.7971 177.32 85.8868C177.271 85.9779 177.2 86.0493 177.108 86.1009C177.017 86.1526 176.907 86.1783 176.78 86.1783C176.609 86.1782 176.468 86.1379 176.356 86.0574C176.243 85.9783 176.179 85.8704 176.164 85.7337L176.422 85.7338C176.441 85.7991 176.483 85.8515 176.547 85.8911C176.612 85.9321 176.69 85.9527 176.78 85.9527C176.884 85.9527 176.969 85.9208 177.032 85.857C177.098 85.7933 177.13 85.7006 177.13 85.579L177.13 85.3694C177.086 85.4286 177.026 85.4787 176.95 85.5197C176.876 85.5592 176.791 85.5789 176.695 85.5789C176.586 85.5789 176.485 85.5515 176.394 85.4968C176.305 85.4405 176.233 85.363 176.18 85.2642C176.128 85.1639 176.102 85.0507 176.102 84.9246C176.102 84.7985 176.128 84.6869 176.18 84.5896C176.233 84.4924 176.304 84.4172 176.394 84.3641C176.485 84.3094 176.585 84.2821 176.695 84.2821ZM177.13 84.9295C177.13 84.8429 177.112 84.7677 177.075 84.7039C177.04 84.6401 176.994 84.5914 176.936 84.558C176.879 84.5245 176.816 84.5078 176.749 84.5078C176.683 84.5078 176.62 84.5245 176.563 84.5579C176.505 84.5897 176.458 84.6376 176.421 84.7014C176.386 84.7637 176.369 84.8381 176.369 84.9247C176.369 85.0113 176.386 85.0873 176.421 85.1526C176.458 85.218 176.505 85.2681 176.563 85.3031C176.622 85.3365 176.684 85.3533 176.75 85.3533C176.817 85.3533 176.879 85.3366 176.937 85.3032C176.994 85.2698 177.041 85.2212 177.076 85.1574C177.112 85.0921 177.13 85.0161 177.13 84.9295ZM178.184 84.1345L178.184 83.8975L178.658 83.8976L178.659 85.559L178.397 85.5589L178.396 84.1346L178.184 84.1345Z" fill="#68737D"/>
<rect width="0.3258" height="5.0883" transform="matrix(0.999985 -0.00556232 0.00624152 0.999981 183.231 82.4556)" fill="#D8DCDE"/>
<rect width="2.63979" height="2.6064" rx="1.3032" transform="matrix(0.999985 -0.00556232 0.00624152 0.999981 187.875 83.6709)" fill="#547B8E"/>
<path d="M193.301 83.8853L193.301 84.0892L192.655 84.089L192.655 84.5383L193.159 84.5385L193.159 84.7424L192.655 84.7422L192.655 85.4086L192.405 85.4085L192.405 83.885L193.301 83.8853ZM194.592 84.2014L194.592 85.4092L194.342 85.4091L194.342 85.2666C194.303 85.3163 194.251 85.3558 194.187 85.385C194.124 85.4127 194.056 85.4266 193.985 85.4265C193.89 85.4265 193.804 85.4068 193.728 85.3673C193.654 85.3278 193.595 85.2693 193.551 85.1919C193.508 85.1144 193.487 85.0209 193.487 84.9113L193.487 84.201L193.735 84.2011L193.735 84.8741C193.735 84.9822 193.762 85.0655 193.816 85.124C193.87 85.181 193.944 85.2095 194.037 85.2096C194.131 85.2096 194.205 85.1811 194.259 85.1241C194.314 85.0657 194.342 84.9824 194.342 84.8743L194.342 84.2013L194.592 84.2014ZM195.496 84.182C195.591 84.182 195.676 84.2018 195.75 84.2412C195.826 84.2807 195.885 84.3392 195.928 84.4167C195.97 84.4941 195.991 84.5877 195.991 84.6973L195.992 85.4097L195.744 85.4096L195.744 84.7344C195.744 84.6263 195.717 84.5437 195.662 84.4867C195.608 84.4282 195.535 84.399 195.441 84.399C195.347 84.3989 195.273 84.4281 195.217 84.4866C195.163 84.5435 195.136 84.6261 195.136 84.7342L195.137 85.4094L194.887 85.4093L194.886 84.2015L195.136 84.2016L195.136 84.3397C195.177 84.29 195.229 84.2513 195.292 84.2235C195.356 84.1958 195.424 84.1819 195.496 84.182ZM196.192 84.8047C196.192 84.6805 196.217 84.5717 196.266 84.4781C196.317 84.3832 196.387 84.3101 196.477 84.259C196.566 84.2079 196.668 84.1824 196.783 84.1824C196.93 84.1824 197.05 84.2176 197.145 84.2877C197.242 84.3564 197.307 84.4551 197.34 84.5837L197.071 84.5836C197.049 84.5237 197.014 84.4769 196.966 84.4433C196.917 84.4097 196.857 84.3929 196.784 84.3928C196.681 84.3928 196.599 84.4293 196.538 84.5023C196.478 84.5739 196.448 84.6748 196.448 84.8048C196.448 84.9349 196.478 85.0365 196.538 85.1095C196.6 85.1826 196.682 85.2192 196.784 85.2192C196.929 85.2193 197.024 85.1557 197.071 85.0286L197.341 85.0287C197.306 85.1514 197.24 85.2493 197.143 85.3224C197.047 85.3939 196.927 85.4297 196.784 85.4297C196.668 85.4296 196.566 85.404 196.477 85.3528C196.388 85.3002 196.318 85.2271 196.266 85.1336C196.217 85.0386 196.192 84.929 196.192 84.8047ZM197.846 84.4063L197.846 85.0749C197.846 85.1202 197.856 85.1531 197.877 85.1736C197.899 85.1926 197.935 85.2021 197.986 85.2021L198.14 85.2021L198.14 85.4104L197.943 85.4103C197.83 85.4103 197.744 85.3839 197.684 85.3313C197.624 85.2787 197.594 85.1932 197.594 85.0748L197.594 84.4062L197.451 84.4062L197.451 84.2023L197.594 84.2024L197.594 83.9021L197.846 83.9022L197.846 84.2025L198.14 84.2026L198.14 84.4064L197.846 84.4063ZM198.462 84.0427C198.417 84.0426 198.379 84.0273 198.348 83.9966C198.317 83.9659 198.302 83.9279 198.302 83.8826C198.302 83.8373 198.317 83.7993 198.348 83.7686C198.379 83.7379 198.417 83.7226 198.462 83.7226C198.506 83.7226 198.543 83.738 198.574 83.7687C198.604 83.7994 198.62 83.8374 198.62 83.8827C198.62 83.928 198.604 83.966 198.574 83.9967C198.543 84.0273 198.506 84.0427 198.462 84.0427ZM198.585 84.2027L198.585 85.4105L198.335 85.4104L198.335 84.2026L198.585 84.2027ZM199.402 85.4305C199.288 85.4305 199.185 85.4049 199.093 85.3537C199.001 85.3011 198.929 85.228 198.876 85.1344C198.823 85.0394 198.797 84.9298 198.797 84.8056C198.797 84.6828 198.824 84.574 198.878 84.479C198.932 84.384 199.006 84.311 199.099 84.2599C199.193 84.2088 199.297 84.1832 199.413 84.1833C199.528 84.1833 199.633 84.2089 199.726 84.2601C199.82 84.3113 199.894 84.3844 199.948 84.4794C200.002 84.5744 200.029 84.6832 200.029 84.806C200.029 84.9288 200.001 85.0376 199.946 85.1326C199.89 85.2276 199.814 85.3013 199.718 85.3539C199.623 85.405 199.518 85.4306 199.402 85.4305ZM199.402 85.2135C199.466 85.2135 199.526 85.1982 199.582 85.1675C199.639 85.1369 199.685 85.0909 199.72 85.0295C199.755 84.9681 199.773 84.8936 199.772 84.8059C199.772 84.7182 199.756 84.6444 199.722 84.5845C199.688 84.5231 199.644 84.4771 199.588 84.4464C199.533 84.4157 199.473 84.4003 199.408 84.4003C199.344 84.4002 199.284 84.4156 199.229 84.4462C199.175 84.4769 199.132 84.5229 199.099 84.5843C199.067 84.6442 199.051 84.718 199.051 84.8057C199.051 84.9357 199.084 85.0366 199.15 85.1082C199.217 85.1784 199.301 85.2135 199.402 85.2135ZM200.85 84.1837C200.945 84.1838 201.03 84.2035 201.104 84.243C201.18 84.2825 201.24 84.341 201.282 84.4184C201.324 84.4959 201.346 84.5894 201.346 84.699L201.346 85.4114L201.098 85.4114L201.098 84.7362C201.098 84.6281 201.071 84.5455 201.017 84.4885C200.963 84.43 200.889 84.4008 200.795 84.4007C200.702 84.4007 200.627 84.4299 200.572 84.4883C200.518 84.5453 200.491 84.6279 200.491 84.736L200.491 85.4112L200.241 85.4111L200.241 84.2033L200.491 84.2033L200.491 84.3414C200.532 84.2918 200.583 84.2531 200.646 84.2253C200.711 84.1976 200.779 84.1837 200.85 84.1837ZM201.546 84.8021C201.546 84.6808 201.571 84.5734 201.621 84.4799C201.672 84.3864 201.74 84.3141 201.827 84.263C201.914 84.2104 202.011 84.1841 202.116 84.1841C202.211 84.1842 202.294 84.2032 202.364 84.2412C202.435 84.2778 202.492 84.3238 202.535 84.3794L202.535 84.204L202.787 84.2041L202.787 85.4119L202.535 85.4118L202.535 85.2321C202.493 85.2891 202.435 85.3365 202.362 85.3745C202.289 85.4125 202.206 85.4315 202.112 85.4314C202.008 85.4314 201.913 85.405 201.827 85.3524C201.741 85.2983 201.672 85.2238 201.621 85.1288C201.571 85.0323 201.546 84.9234 201.546 84.8021ZM202.535 84.8068C202.535 84.7235 202.517 84.6512 202.482 84.5898C202.449 84.5284 202.404 84.4816 202.348 84.4495C202.293 84.4173 202.233 84.4012 202.169 84.4012C202.104 84.4012 202.044 84.4172 201.989 84.4493C201.933 84.48 201.888 84.526 201.853 84.5874C201.819 84.6473 201.803 84.7189 201.803 84.8022C201.803 84.8855 201.82 84.9586 201.853 85.0214C201.888 85.0843 201.934 85.1325 201.989 85.1661C202.046 85.1983 202.106 85.2144 202.169 85.2144C202.233 85.2144 202.293 85.1984 202.349 85.1663C202.404 85.1341 202.449 85.0874 202.482 85.026C202.517 84.9632 202.535 84.8901 202.535 84.8068ZM203.33 83.79L203.33 85.4121L203.08 85.412L203.08 83.7899L203.33 83.79ZM204.12 84.2089C204.129 84.073 204.181 83.9671 204.276 83.8911C204.372 83.8152 204.495 83.7772 204.644 83.7773C204.746 83.7773 204.835 83.7956 204.909 83.8322C204.984 83.8687 205.04 83.9184 205.078 83.9813C205.116 84.0441 205.135 84.115 205.135 84.1939C205.135 84.2845 205.111 84.362 205.063 84.4262C205.015 84.4905 204.957 84.5336 204.89 84.5555L204.89 84.5643C204.976 84.5906 205.043 84.6389 205.091 84.709C205.14 84.7777 205.164 84.8661 205.164 84.9743C205.164 85.0605 205.144 85.1372 205.105 85.2044C205.065 85.2716 205.007 85.325 204.929 85.3644C204.852 85.4024 204.759 85.4213 204.651 85.4213C204.493 85.4212 204.363 85.381 204.261 85.3006C204.16 85.2187 204.106 85.1018 204.098 84.9498L204.34 84.9499C204.345 85.0274 204.375 85.0909 204.43 85.1406C204.484 85.1889 204.557 85.213 204.649 85.2131C204.738 85.2131 204.807 85.189 204.855 85.1408C204.903 85.0911 204.927 85.0276 204.927 84.9501C204.927 84.8478 204.894 84.7755 204.828 84.7331C204.764 84.6892 204.665 84.6672 204.53 84.6672L204.473 84.6672L204.473 84.4611L204.532 84.4611C204.651 84.4597 204.741 84.44 204.802 84.402C204.865 84.3641 204.896 84.3042 204.896 84.2223C204.896 84.1522 204.873 84.0966 204.828 84.0557C204.783 84.0133 204.718 83.9921 204.635 83.9921C204.553 83.9921 204.49 84.0132 204.445 84.0556C204.399 84.0965 204.372 84.1476 204.363 84.209L204.12 84.2089Z" fill="#68737D"/>
<rect width="2.63979" height="2.6064" rx="1.3032" transform="matrix(0.999985 -0.00556232 0.00624152 0.999981 210.557 83.5447)" fill="#006B4D" fill-opacity="0.51"/>
<path d="M215.316 84.0331L215.316 84.4577L215.815 84.4578L215.815 84.6514L215.316 84.6513L215.316 85.0946L215.878 85.0948L215.878 85.2884L215.079 85.2881L215.078 83.8394L215.878 83.8397L215.878 84.0332L215.316 84.0331ZM216.628 84.7079L216.999 85.2888L216.73 85.2887L216.483 84.8993L216.25 85.2885L216.002 85.2884L216.372 84.7245L216.001 84.1415L216.27 84.1416L216.518 84.5309L216.751 84.1418L216.998 84.1418L216.628 84.7079ZM217.38 84.3106C217.42 84.2579 217.475 84.2135 217.544 84.1774C217.613 84.1414 217.692 84.1233 217.779 84.1234C217.879 84.1234 217.97 84.1484 218.052 84.1984C218.135 84.247 218.2 84.3157 218.248 84.4045C218.295 84.4934 218.318 84.5954 218.319 84.7105C218.319 84.8257 218.295 84.9291 218.248 85.0207C218.201 85.1108 218.135 85.1816 218.052 85.2329C217.97 85.2828 217.88 85.3078 217.78 85.3077C217.692 85.3077 217.614 85.2903 217.546 85.2556C217.478 85.2195 217.423 85.1751 217.38 85.1224L217.38 85.8342L217.143 85.8342L217.142 84.1419L217.38 84.142L217.38 84.3106ZM218.077 84.7105C218.077 84.6314 218.06 84.5634 218.027 84.5065C217.995 84.4482 217.952 84.4044 217.898 84.3753C217.845 84.3447 217.788 84.3294 217.727 84.3294C217.668 84.3294 217.611 84.3446 217.557 84.3752C217.504 84.4057 217.461 84.4501 217.428 84.5083C217.396 84.5666 217.38 84.6353 217.38 84.7144C217.38 84.7935 217.396 84.8629 217.428 84.9226C217.461 84.9808 217.504 85.0253 217.557 85.0558C217.611 85.0864 217.668 85.1016 217.727 85.1017C217.789 85.1017 217.845 85.0864 217.898 85.0559C217.952 85.024 217.995 84.9782 218.027 84.9186C218.06 84.8589 218.077 84.7896 218.077 84.7105ZM219.571 84.6881C219.571 84.7311 219.568 84.7699 219.563 84.8046L218.686 84.8043C218.693 84.8959 218.727 84.9695 218.789 85.025C218.85 85.0805 218.925 85.1083 219.013 85.1083C219.141 85.1084 219.231 85.055 219.284 84.9481L219.54 84.9482C219.505 85.0537 219.442 85.1404 219.351 85.2084C219.26 85.2749 219.148 85.3082 219.013 85.3082C218.904 85.3081 218.805 85.2838 218.718 85.2352C218.632 85.1852 218.564 85.1158 218.514 85.027C218.465 84.9368 218.441 84.8327 218.441 84.7147C218.441 84.5968 218.464 84.4934 218.512 84.4046C218.56 84.3144 218.627 84.2451 218.713 84.1965C218.801 84.148 218.901 84.1237 219.013 84.1238C219.121 84.1238 219.218 84.1474 219.302 84.1946C219.387 84.2419 219.453 84.3085 219.5 84.3945C219.547 84.4792 219.571 84.577 219.571 84.6881ZM219.323 84.613C219.322 84.5256 219.291 84.4555 219.23 84.4028C219.169 84.35 219.093 84.3236 219.003 84.3236C218.921 84.3236 218.851 84.3499 218.793 84.4026C218.734 84.454 218.7 84.524 218.689 84.6128L219.323 84.613ZM220.009 84.3094C220.043 84.2511 220.089 84.206 220.146 84.1741C220.204 84.1408 220.273 84.1242 220.352 84.1242L220.352 84.3698L220.292 84.3698C220.199 84.3698 220.128 84.3934 220.079 84.4405C220.032 84.4877 220.009 84.5695 220.009 84.6861L220.009 85.2898L219.772 85.2897L219.771 84.1428L220.008 84.1428L220.009 84.3094ZM220.658 83.9911C220.614 83.9911 220.578 83.9765 220.549 83.9474C220.52 83.9182 220.506 83.8821 220.506 83.8391C220.505 83.7961 220.52 83.76 220.549 83.7309C220.578 83.7017 220.614 83.6872 220.657 83.6872C220.699 83.6872 220.734 83.7018 220.764 83.731C220.793 83.7601 220.807 83.7962 220.807 83.8392C220.807 83.8822 220.793 83.9183 220.764 83.9474C220.735 83.9766 220.699 83.9911 220.658 83.9911ZM220.774 84.1431L220.775 85.29L220.537 85.2899L220.537 84.143L220.774 84.1431ZM222.104 84.6889C222.104 84.7319 222.101 84.7708 222.096 84.8054L221.219 84.8052C221.226 84.8967 221.26 84.9703 221.321 85.0258C221.382 85.0814 221.457 85.1091 221.546 85.1092C221.674 85.1092 221.764 85.0558 221.817 84.949L222.073 84.9491C222.038 85.0545 221.975 85.1412 221.883 85.2092C221.793 85.2758 221.681 85.309 221.546 85.309C221.437 85.309 221.338 85.2846 221.251 85.236C221.165 85.1861 221.096 85.1167 221.047 85.0278C220.998 84.9376 220.974 84.8335 220.974 84.7156C220.974 84.5976 220.997 84.4942 221.044 84.4055C221.093 84.3153 221.16 84.2459 221.246 84.1974C221.333 84.1488 221.433 84.1246 221.546 84.1246C221.654 84.1246 221.75 84.1483 221.835 84.1955C221.92 84.2427 221.986 84.3093 222.033 84.3954C222.08 84.48 222.104 84.5779 222.104 84.6889ZM221.856 84.6139C221.855 84.5264 221.823 84.4564 221.762 84.4036C221.701 84.3509 221.626 84.3245 221.535 84.3244C221.454 84.3244 221.383 84.3508 221.325 84.4035C221.267 84.4548 221.232 84.5249 221.221 84.6137L221.856 84.6139ZM222.883 84.1251C222.973 84.1251 223.053 84.1438 223.124 84.1813C223.196 84.2188 223.252 84.2744 223.293 84.3479C223.333 84.4215 223.353 84.5103 223.353 84.6144L223.353 85.2909L223.118 85.2908L223.118 84.6497C223.118 84.547 223.092 84.4686 223.041 84.4144C222.989 84.3589 222.919 84.3311 222.831 84.3311C222.742 84.3311 222.671 84.3588 222.618 84.4143C222.567 84.4684 222.541 84.5468 222.541 84.6495L222.542 85.2906L222.304 85.2905L222.304 84.1436L222.541 84.1437L222.541 84.2748C222.58 84.2276 222.629 84.1909 222.689 84.1645C222.75 84.1382 222.815 84.125 222.883 84.1251ZM223.899 84.3377L223.9 84.9726C223.9 85.0156 223.909 85.0468 223.929 85.0662C223.95 85.0843 223.984 85.0933 224.033 85.0933L224.179 85.0934L224.179 85.2911L223.991 85.2911C223.884 85.291 223.803 85.266 223.746 85.216C223.689 85.1661 223.66 85.0849 223.66 84.9725L223.66 84.3376L223.525 84.3376L223.525 84.144L223.66 84.144L223.66 83.8589L223.899 83.859L223.899 84.1441L224.178 84.1442L224.178 84.3378L223.899 84.3377ZM224.484 83.9924C224.441 83.9924 224.405 83.9778 224.376 83.9486C224.347 83.9195 224.332 83.8834 224.332 83.8404C224.332 83.7973 224.347 83.7613 224.376 83.7321C224.405 83.703 224.441 83.6885 224.484 83.6885C224.526 83.6885 224.561 83.7031 224.59 83.7322C224.62 83.7614 224.634 83.7974 224.634 83.8405C224.634 83.8835 224.62 83.9196 224.591 83.9487C224.561 83.9778 224.526 83.9924 224.484 83.9924ZM224.601 84.1444L224.601 85.2913L224.364 85.2912L224.364 84.1443L224.601 84.1444ZM224.8 84.7127C224.8 84.5975 224.824 84.4955 224.871 84.4067C224.92 84.3179 224.985 84.2493 225.067 84.2007C225.15 84.1508 225.241 84.1258 225.341 84.1259C225.432 84.1259 225.51 84.144 225.577 84.1801C225.645 84.2148 225.699 84.2585 225.739 84.3113L225.739 84.1447L225.978 84.1448L225.979 85.2917L225.739 85.2916L225.739 85.121C225.699 85.1751 225.644 85.2201 225.575 85.2562C225.506 85.2923 225.426 85.3103 225.338 85.3102C225.239 85.3102 225.149 85.2852 225.067 85.2352C224.985 85.1838 224.92 85.1131 224.871 85.0228C224.824 84.9312 224.8 84.8278 224.8 84.7127ZM225.739 84.7171C225.739 84.638 225.722 84.5694 225.689 84.5111C225.657 84.4528 225.615 84.4083 225.562 84.3778C225.509 84.3473 225.452 84.332 225.391 84.332C225.33 84.3319 225.273 84.3472 225.221 84.3777C225.168 84.4068 225.125 84.4505 225.092 84.5088C225.06 84.5657 225.044 84.6337 225.044 84.7128C225.044 84.7919 225.06 84.8612 225.092 84.9209C225.125 84.9806 225.168 85.0264 225.221 85.0583C225.275 85.0889 225.332 85.1042 225.392 85.1042C225.453 85.1042 225.51 85.089 225.562 85.0585C225.615 85.0279 225.657 84.9836 225.689 84.9253C225.723 84.8656 225.739 84.7962 225.739 84.7171ZM226.494 83.7516L226.494 85.2919L226.257 85.2918L226.257 83.7515L226.494 83.7516Z" fill="#68737D"/>
<rect width="165.244" height="0.343143" rx="0.171572" transform="matrix(1 0.000885967 -0.000994155 0.999999 118.429 111.467)" fill="#D8DCDE"/>
<rect x="118.988" y="120.416" width="41.2981" height="8.01067" rx="4.00533" fill="white"/>
<rect x="118.988" y="120.416" width="41.2981" height="8.01067" rx="2.28876" fill="#E9EBED"/>
<g clip-path="url(#clip0_231_7127)">
<path fill-rule="evenodd" clip-rule="evenodd" d="M154.761 123.737C154.822 123.688 154.912 123.698 154.962 123.76C155.006 123.814 155.003 123.892 154.958 123.943L154.939 123.961L153.509 125.105C153.464 125.141 153.403 125.146 153.354 125.12L153.33 125.105L151.9 123.961C151.838 123.911 151.828 123.821 151.877 123.76C151.921 123.705 151.997 123.691 152.057 123.723L152.078 123.737L153.42 124.81L154.761 123.737Z" fill="#68737D" stroke="#68737D" stroke-width="0.286095"/>
</g>
<rect x="164.786" y="120.416" width="41.2981" height="8.01067" rx="4.00533" fill="white"/>
<rect x="164.786" y="120.416" width="41.2981" height="8.01067" rx="2.28876" fill="#E9EBED"/>
<g clip-path="url(#clip1_231_7127)">
<path fill-rule="evenodd" clip-rule="evenodd" d="M200.559 123.737C200.621 123.688 200.711 123.698 200.76 123.76C200.804 123.814 200.801 123.892 200.757 123.943L200.738 123.961L199.308 125.105C199.263 125.141 199.202 125.146 199.152 125.12L199.129 125.105L197.698 123.961C197.637 123.911 197.627 123.821 197.676 123.76C197.72 123.705 197.796 123.691 197.856 123.723L197.877 123.737L199.218 124.81L200.559 123.737Z" fill="#68737D" stroke="#68737D" stroke-width="0.286095"/>
</g>
<rect x="210.585" y="120.416" width="41.2981" height="8.01067" rx="4.00533" fill="white"/>
<rect x="210.585" y="120.416" width="41.2981" height="8.01067" rx="2.28876" fill="#E9EBED"/>
<g clip-path="url(#clip2_231_7127)">
<path fill-rule="evenodd" clip-rule="evenodd" d="M246.358 123.737C246.42 123.688 246.51 123.698 246.559 123.76C246.603 123.814 246.6 123.892 246.555 123.943L246.537 123.961L245.106 125.105C245.061 125.141 245 125.146 244.951 125.12L244.927 125.105L243.497 123.961C243.435 123.911 243.425 123.821 243.475 123.76C243.518 123.705 243.594 123.691 243.654 123.723L243.676 123.737L245.017 124.81L246.358 123.737Z" fill="#68737D" stroke="#68737D" stroke-width="0.286095"/>
</g>
</g>
<ellipse opacity="0.5" cx="288.352" cy="275.775" rx="41.1891" ry="2.3763" fill="#1466A9" fill-opacity="0.35"/>
<rect x="0.149548" y="-0.149548" width="86.8317" height="12.4623" transform="matrix(1 0 0 -1 134.983 172.407)" fill="white" stroke="#D8DCDE" stroke-width="0.299096"/>
<rect width="17.1684" height="2.10247" rx="1.05124" transform="matrix(0.99999 -0.00440534 -0.00440534 -0.99999 138.199 170.513)" fill="#B0C2CB"/>
<rect width="9.51316" height="1.46814" rx="0.734069" transform="matrix(0.99999 -0.00440534 -0.00440534 -0.99999 138.196 166.939)" fill="#E9EBED"/>
<rect width="12.1054" height="1.82835" rx="0.914174" transform="matrix(0.99999 -0.00440534 -0.00440534 -0.99999 138.198 164.034)" fill="#E9EBED"/>
<path d="M152.696 164.034V162.439" stroke="#D8DCDE" stroke-width="0.199398" stroke-linecap="round"/>
<rect width="12.1054" height="1.82835" rx="0.914174" transform="matrix(0.99999 -0.00440534 -0.00440534 -0.99999 155.096 164.034)" fill="#E9EBED"/>
<path d="M169.594 164.034V162.439" stroke="#D8DCDE" stroke-width="0.199398" stroke-linecap="round"/>
<rect width="12.1054" height="1.82835" rx="0.914174" transform="matrix(0.99999 -0.00440534 -0.00440534 -0.99999 171.995 164.034)" fill="#B3E8D9"/>
<rect width="12.1054" height="1.82835" rx="0.914174" transform="matrix(0.99999 -0.00440534 -0.00440534 -0.99999 186.501 164.034)" fill="#FFD7A4"/>
<rect width="12.1054" height="1.82835" rx="0.914174" transform="matrix(0.99999 -0.00440534 -0.00440534 -0.99999 201.008 164.034)" fill="#92C9EB"/>
<rect x="0.149548" y="-0.149548" width="97.393" height="12.4623" transform="matrix(1 0 0 -1 122.837 189.833)" fill="white" stroke="#D8DCDE" stroke-width="0.299096"/>
<rect width="17.1684" height="2.10247" rx="1.05124" transform="matrix(0.99999 -0.00440534 -0.00440534 -0.99999 126.441 187.939)" fill="#B0C2CB"/>
<rect width="9.51316" height="1.46814" rx="0.734069" transform="matrix(0.99999 -0.00440534 -0.00440534 -0.99999 126.438 184.365)" fill="#E9EBED"/>
<rect width="12.1054" height="1.82835" rx="0.914174" transform="matrix(0.99999 -0.00440534 -0.00440534 -0.99999 126.44 181.459)" fill="#E9EBED"/>
<path d="M140.938 181.459V179.864" stroke="#D8DCDE" stroke-width="0.199398" stroke-linecap="round"/>
<rect width="12.1054" height="1.82835" rx="0.914174" transform="matrix(0.99999 -0.00440534 -0.00440534 -0.99999 143.339 181.459)" fill="#E9EBED"/>
<path d="M157.837 181.459V179.864" stroke="#D8DCDE" stroke-width="0.199398" stroke-linecap="round"/>
<rect width="12.1054" height="1.82835" rx="0.914174" transform="matrix(0.99999 -0.00440534 -0.00440534 -0.99999 160.237 181.459)" fill="#B3E8D9"/>
<rect width="12.1054" height="1.82835" rx="0.914174" transform="matrix(0.99999 -0.00440534 -0.00440534 -0.99999 174.744 181.459)" fill="#FFD7A4"/>
<rect width="12.1054" height="1.82835" rx="0.914174" transform="matrix(0.99999 -0.00440534 -0.00440534 -0.99999 189.25 181.459)" fill="#92C9EB"/>
<rect x="0.149548" y="-0.149548" width="84.1914" height="12.4623" transform="matrix(1 0 0 -1 163.499 181.384)" fill="white" stroke="#D8DCDE" stroke-width="0.299096"/>
<rect width="17.1684" height="2.10247" rx="1.05124" transform="matrix(0.99999 -0.00440534 -0.00440534 -0.99999 166.617 179.49)" fill="#B0C2CB"/>
<rect width="9.51316" height="1.46814" rx="0.734069" transform="matrix(0.99999 -0.00440534 -0.00440534 -0.99999 166.614 175.916)" fill="#E9EBED"/>
<rect width="12.1054" height="1.82835" rx="0.914174" transform="matrix(0.99999 -0.00440534 -0.00440534 -0.99999 166.616 173.01)" fill="#E9EBED"/>
<path d="M181.114 173.01V171.415" stroke="#D8DCDE" stroke-width="0.199398" stroke-linecap="round"/>
<rect width="12.1054" height="1.82835" rx="0.914174" transform="matrix(0.99999 -0.00440534 -0.00440534 -0.99999 183.515 173.01)" fill="#E9EBED"/>
<path d="M198.013 173.01V171.415" stroke="#D8DCDE" stroke-width="0.199398" stroke-linecap="round"/>
<rect width="12.1054" height="1.82835" rx="0.914174" transform="matrix(0.99999 -0.00440534 -0.00440534 -0.99999 200.414 173.01)" fill="#B3E8D9"/>
<rect width="12.1054" height="1.82835" rx="0.914174" transform="matrix(0.99999 -0.00440534 -0.00440534 -0.99999 214.92 173.01)" fill="#FFD7A4"/>
<rect width="12.1054" height="1.82835" rx="0.914174" transform="matrix(0.99999 -0.00440534 -0.00440534 -0.99999 229.426 173.01)" fill="#92C9EB"/>
<path d="M285.472 188.902C284.72 188.291 278.899 190.845 278.972 191.733C279.046 192.622 274.911 201.239 274.911 201.239L267.765 195.543C267.701 195.337 267.023 193.122 266.99 192.726C266.956 192.31 265.748 191.584 265.188 191.689C264.628 191.794 265.667 192.5 265.735 192.628C265.922 192.98 265.202 193.112 265.202 193.112C265.202 193.112 263.162 192.458 263.118 191.792C263.073 191.126 261.678 192.957 261.849 193.212C262.019 193.467 265.344 196.147 265.824 196.729C265.824 196.729 275.068 207.294 275.724 207.57C276.302 207.813 278.361 204.172 280.306 201.755C282.252 199.337 287.824 190.815 285.472 188.902Z" fill="#E9F7FF"/>
<path d="M285.472 188.902C284.72 188.291 278.899 190.845 278.972 191.733C279.046 192.622 274.911 201.239 274.911 201.239L267.765 195.543C267.701 195.337 267.023 193.122 266.99 192.726C266.956 192.31 265.748 191.584 265.188 191.689C264.628 191.794 265.667 192.5 265.735 192.628C265.922 192.98 265.202 193.112 265.202 193.112C265.202 193.112 263.162 192.458 263.118 191.792C263.073 191.126 261.678 192.957 261.849 193.212C262.019 193.467 265.344 196.147 265.824 196.729C265.824 196.729 275.068 207.294 275.724 207.57C276.302 207.813 278.361 204.172 280.306 201.755C282.252 199.337 287.824 190.815 285.472 188.902Z" fill="url(#paint1_linear_231_7127)" fill-opacity="0.8" style="mix-blend-mode:color-burn"/>
<path d="M285.472 188.902C284.72 188.291 278.899 190.845 278.972 191.733C279.046 192.622 274.911 201.239 274.911 201.239L267.765 195.543C267.701 195.337 267.023 193.122 266.99 192.726C266.956 192.31 265.748 191.584 265.188 191.689C264.628 191.794 265.667 192.5 265.735 192.628C265.922 192.98 265.202 193.112 265.202 193.112C265.202 193.112 263.162 192.458 263.118 191.792C263.073 191.126 261.678 192.957 261.849 193.212C262.019 193.467 265.344 196.147 265.824 196.729C265.824 196.729 275.068 207.294 275.724 207.57C276.302 207.813 278.361 204.172 280.306 201.755C282.252 199.337 287.824 190.815 285.472 188.902Z" fill="#2F3941" fill-opacity="0.15" style="mix-blend-mode:multiply"/>
<path d="M304.123 266.576C304.123 266.576 305.392 267.816 305.423 268.27C305.453 268.724 305.534 273.6 305.017 274.052C304.499 274.503 302.974 274.828 303.464 275.341C303.834 275.722 306.682 275.644 308.569 275.54C309.12 275.51 309.811 271.116 310.029 270.464C310.345 269.526 311.115 267.419 310.827 266.76C310.688 266.442 310.016 265.787 309.069 265.175C308.074 264.533 307.122 263.102 307.122 263.102L304.123 266.576Z" fill="#E6EBEE"/>
<path d="M304.123 266.576C304.123 266.576 305.392 267.816 305.423 268.27C305.453 268.724 305.534 273.6 305.017 274.052C304.499 274.503 302.974 274.828 303.464 275.341C303.834 275.722 306.682 275.644 308.569 275.54C309.12 275.51 309.811 271.116 310.029 270.464C310.345 269.526 311.115 267.419 310.827 266.76C310.688 266.442 310.016 265.787 309.069 265.175C308.074 264.533 307.122 263.102 307.122 263.102L304.123 266.576Z" fill="url(#paint2_linear_231_7127)" fill-opacity="0.8" style="mix-blend-mode:color-burn"/>
<path d="M304.123 266.576C304.123 266.576 305.392 267.816 305.423 268.27C305.453 268.724 305.534 273.6 305.017 274.052C304.499 274.503 302.974 274.828 303.464 275.341C303.834 275.722 306.682 275.644 308.569 275.54C309.12 275.51 309.811 271.116 310.029 270.464C310.345 269.526 311.115 267.419 310.827 266.76C310.688 266.442 310.016 265.787 309.069 265.175C308.074 264.533 307.122 263.102 307.122 263.102L304.123 266.576Z" fill="#2F3941" fill-opacity="0.15" style="mix-blend-mode:multiply"/>
<path d="M290.966 269.461C290.966 269.461 292.108 272.671 292.108 272.68C292.193 273.188 292.526 274.445 292.526 274.907C292.526 276.645 284.69 273.433 286.446 272.663C286.605 272.594 287.103 272.037 287.155 271.446C287.237 270.534 286.495 269.392 286.495 269.392L290.966 269.461Z" fill="#E6EBEE"/>
<path d="M290.966 269.461C290.966 269.461 292.108 272.671 292.108 272.68C292.193 273.188 292.526 274.445 292.526 274.907C292.526 276.645 284.69 273.433 286.446 272.663C286.605 272.594 287.103 272.037 287.155 271.446C287.237 270.534 286.495 269.392 286.495 269.392L290.966 269.461Z" fill="url(#paint3_linear_231_7127)" fill-opacity="0.8" style="mix-blend-mode:color-burn"/>
<path d="M290.966 269.461C290.966 269.461 292.108 272.671 292.108 272.68C292.193 273.188 292.526 274.445 292.526 274.907C292.526 276.645 284.69 273.433 286.446 272.663C286.605 272.594 287.103 272.037 287.155 271.446C287.237 270.534 286.495 269.392 286.495 269.392L290.966 269.461Z" fill="#2F3941" fill-opacity="0.15" style="mix-blend-mode:multiply"/>
<path d="M278.672 209.69C278.672 209.69 278.101 215.445 278.101 215.528C278.101 224.838 276.256 243.023 276.606 244.774C277.463 249.043 286.68 270.821 286.68 270.821L291.662 270.226L286.315 243.912L287.559 233.659L290.94 212.913L278.672 209.69Z" fill="#0E4776"/>
<path d="M295.395 214.78L296.339 220.236L298.897 242.686L308.637 264.628C308.637 264.628 307.266 267.821 305.245 268.269L289.744 245.739L280.114 216.914L280.453 210.51L295.395 214.78Z" fill="#0E4776"/>
<path d="M276.688 195.987L283.595 196.691C283.595 196.691 283.912 191.029 283.912 188.329C283.912 185.052 283.633 180.831 283.237 180.923C282.126 181.177 280.63 181.791 279.74 183.014C276.659 187.247 276.688 195.987 276.688 195.987Z" fill="#63C8AC"/>
<path d="M309.009 265.149C309.009 265.149 306.081 273.389 304.936 273.787C304.632 273.893 303.171 274.167 302.895 274.802C302.813 274.996 302.895 275.646 302.895 275.646H308.998C308.998 275.646 309.77 272.014 310.074 270.419C310.074 270.419 311.69 266.52 311.51 266.166C311.33 265.812 309.009 265.149 309.009 265.149Z" fill="#2F3941"/>
<path d="M292.967 275.482L292.069 272.648C292.069 272.648 290.185 273.445 289.243 273.312C288.301 273.178 286.46 272.648 286.46 272.648C282.7 273.885 279.619 274.485 280.18 275.482H292.967Z" fill="#2F3941"/>
<path fill-rule="evenodd" clip-rule="evenodd" d="M285.973 175.149C285.916 175.168 285.86 175.186 285.804 175.205C284.435 175.655 283.457 175.977 282.85 175.634C282.208 175.271 282.136 173.735 282.057 172.068C282.035 171.603 282.012 171.127 281.977 170.664C281.956 170.394 281.695 170.233 281.438 170.075C281.16 169.904 280.889 169.737 280.937 169.438C281.37 166.783 283.531 164.278 284.79 162.935C287.346 160.209 296.471 161.168 295.223 167.591C294.79 169.82 293.35 171.527 291.569 172.758L291.508 173.26C291.605 173.259 291.658 173.259 291.658 173.259C291.658 173.259 291.645 183.305 291.086 184.174C290.503 185.079 286.703 183.492 284.968 182.706C284.727 182.597 284.533 182.402 284.421 182.157C284.308 181.912 284.284 181.631 284.352 181.366C284.768 179.758 285.603 176.529 285.973 175.149Z" fill="#E6EBEE"/>
<path fill-rule="evenodd" clip-rule="evenodd" d="M285.973 175.149C285.916 175.168 285.86 175.186 285.804 175.205C284.435 175.655 283.457 175.977 282.85 175.634C282.208 175.271 282.136 173.735 282.057 172.068C282.035 171.603 282.012 171.127 281.977 170.664C281.956 170.394 281.695 170.233 281.438 170.075C281.16 169.904 280.889 169.737 280.937 169.438C281.37 166.783 283.531 164.278 284.79 162.935C287.346 160.209 296.471 161.168 295.223 167.591C294.79 169.82 293.35 171.527 291.569 172.758L291.508 173.26C291.605 173.259 291.658 173.259 291.658 173.259C291.658 173.259 291.645 183.305 291.086 184.174C290.503 185.079 286.703 183.492 284.968 182.706C284.727 182.597 284.533 182.402 284.421 182.157C284.308 181.912 284.284 181.631 284.352 181.366C284.768 179.758 285.603 176.529 285.973 175.149Z" fill="url(#paint4_linear_231_7127)" fill-opacity="0.8" style="mix-blend-mode:color-burn"/>
<path fill-rule="evenodd" clip-rule="evenodd" d="M285.973 175.149C285.916 175.168 285.86 175.186 285.804 175.205C284.435 175.655 283.457 175.977 282.85 175.634C282.208 175.271 282.136 173.735 282.057 172.068C282.035 171.603 282.012 171.127 281.977 170.664C281.956 170.394 281.695 170.233 281.438 170.075C281.16 169.904 280.889 169.737 280.937 169.438C281.37 166.783 283.531 164.278 284.79 162.935C287.346 160.209 296.471 161.168 295.223 167.591C294.79 169.82 293.35 171.527 291.569 172.758L291.508 173.26C291.605 173.259 291.658 173.259 291.658 173.259C291.658 173.259 291.645 183.305 291.086 184.174C290.503 185.079 286.703 183.492 284.968 182.706C284.727 182.597 284.533 182.402 284.421 182.157C284.308 181.912 284.284 181.631 284.352 181.366C284.768 179.758 285.603 176.529 285.973 175.149Z" fill="#8BBDE5" fill-opacity="0.15" style="mix-blend-mode:multiply"/>
<path d="M287.168 165.883C286.6 165.942 286.032 165.781 285.579 165.433C285.84 165.997 286.65 166.224 287.168 165.883Z" fill="#2F3941"/>
<path d="M288.987 170.423C288.544 169.957 287.676 170.213 287.787 170.917C287.896 170.714 288.071 170.553 288.282 170.463C288.515 170.409 288.756 170.394 288.994 170.42L288.987 170.423Z" fill="#2F3941"/>
<path d="M288.983 170.412C289.5 170.364 290.127 169.399 289.804 168.974C289.782 169.222 289.691 169.498 289.547 169.754C289.374 170.002 289.182 170.227 288.979 170.42L288.983 170.412Z" fill="#2F3941"/>
<path fill-rule="evenodd" clip-rule="evenodd" d="M285.219 161.526C284.935 162.457 287.12 163.957 290.153 164.945C289.575 165.898 289.107 166.985 288.814 168.077C288.784 168.191 288.755 168.304 288.73 168.418C289.229 167.886 289.842 167.657 290.283 167.896C290.874 168.216 290.931 169.257 290.41 170.22C289.939 171.092 289.154 171.602 288.572 171.451C288.841 173.437 289.873 174.991 291.417 175.405C293.77 176.036 299.051 175.714 299.463 175.351C300.332 172.107 297.393 163.489 295.08 162.084C294.223 161.308 293.102 160.592 291.805 160.195C288.592 159.213 285.515 160.559 285.219 161.526Z" fill="#101030"/>
<path fill-rule="evenodd" clip-rule="evenodd" d="M292.064 179.593L292.165 181.085C292.51 181.311 292.843 181.548 293.164 181.796C294.166 181.597 295.274 181.57 296.497 181.873C296.953 182.004 297.154 183.989 297.211 186.408C306.193 201.434 295.518 231.63 294.215 233.195C293.25 234.595 278.576 224.987 273.828 221.495L273.828 221.494L273.82 221.489C273.506 221.258 273.243 221.064 273.036 220.913L272.887 220.804C270.18 218.822 271.134 217.216 273.083 213.935C273.424 213.36 273.797 212.733 274.185 212.044L274.235 211.743C275.604 203.442 278.384 186.591 280.952 183.127C281.258 182.715 281.488 182.393 281.673 182.132L281.673 182.132C282.079 181.562 282.271 181.291 282.585 181.033L282.915 178.933C285.731 180.236 288.046 180.829 289.474 180.573C289.543 180.554 289.616 180.537 289.694 180.524C289.928 180.484 290.142 180.452 290.337 180.424C291.24 180.292 291.749 180.217 292.064 179.593Z" fill="#66D1B3"/>
<g filter="url(#filter2_d_231_7127)">
<g filter="url(#filter3_d_231_7127)">
<path d="M267.215 188.166C267.745 187.576 268.238 186.969 268.694 186.351L279.415 195.978C280.075 196.569 279.909 197.828 279.045 198.787C278.181 199.747 276.948 200.048 276.288 199.456L265.568 189.83C266.129 189.312 266.684 188.757 267.215 188.166Z" fill="#849DAB"/>
</g>
<path opacity="0.71" d="M267.002 187.972C276.6 177.29 275.667 160.804 264.917 151.148C254.167 141.493 237.672 142.324 228.073 153.006C218.475 163.687 219.408 180.174 230.158 189.829C240.908 199.485 257.403 198.653 267.002 187.972Z" fill="white"/>
<g filter="url(#filter4_d_231_7127)">
<path d="M227.891 192.368C240.045 203.282 258.694 202.339 269.543 190.262C280.391 178.184 279.334 159.548 267.18 148.634C255.027 137.72 236.377 138.662 225.527 150.739C214.678 162.817 215.747 181.454 227.891 192.368ZM230.159 189.844C219.408 180.189 218.472 163.703 228.068 153.021C237.664 142.338 254.161 141.504 264.912 151.158C275.662 160.813 276.599 177.297 267.002 187.981C257.405 198.665 240.916 199.496 230.164 189.843L230.159 189.844Z" fill="#547B8D"/>
</g>
<g filter="url(#filter5_d_231_7127)">
<path d="M229.089 191.038C240.507 201.29 258.022 200.404 268.213 189.06C278.404 177.717 277.411 160.211 265.993 149.958C254.576 139.705 237.06 140.592 226.869 151.936C216.679 163.28 217.672 180.787 229.089 191.038ZM230.165 189.841C219.414 180.187 218.479 163.701 228.075 153.019C237.67 142.336 254.167 141.502 264.918 151.156C275.669 160.81 276.605 177.295 267.008 187.979C257.411 198.663 240.917 199.494 230.165 189.841Z" fill="#496B7B"/>
</g>
<path d="M284.122 194.162L284.122 194.162L284.119 194.159C282.997 193.165 281.526 192.657 280.029 192.747C278.533 192.837 277.133 193.517 276.138 194.639L276.138 194.639L274.606 196.367L274.606 196.367C273.611 197.489 273.103 198.96 273.193 200.456C273.283 201.952 273.963 203.351 275.084 204.345C275.084 204.346 275.085 204.346 275.085 204.347L306.027 231.928L306.03 231.93C306.585 232.423 307.233 232.801 307.935 233.044L308.361 231.811L307.935 233.044C308.636 233.286 309.379 233.388 310.12 233.343C310.862 233.299 311.587 233.109 312.255 232.784C312.922 232.459 313.52 232.006 314.012 231.45L315.543 229.724C316.036 229.169 316.414 228.522 316.657 227.82L315.261 227.338L316.657 227.82C316.899 227.118 317.001 226.376 316.957 225.635C316.912 224.893 316.722 224.168 316.397 223.501C316.073 222.834 315.62 222.237 315.065 221.745C315.064 221.745 315.064 221.744 315.063 221.744L284.122 194.162Z" fill="#547B8E" stroke="#547B8E" stroke-width="2.95372"/>
</g>
<path d="M309.256 216.196C309.263 216.138 309.263 216.079 309.256 216.021C309.071 214.14 307.508 198.346 307.246 197.675C307.008 197.068 300.003 187.051 300.003 187.051L296.56 191.746L303.297 200.732C303.448 201.303 305.879 211.964 305.879 211.964C305.879 211.964 306.377 213.908 306.6 215.072C306.498 215.352 306.398 215.617 306.31 215.833C306.107 216.244 305.864 216.635 305.584 216.999C305.283 217.403 304.785 218.285 304.724 218.522C304.653 218.796 304.523 219.366 304.451 219.71C304.378 220.054 304.278 220.455 304.262 220.641C304.216 220.821 304.142 220.992 304.043 221.149C304.014 221.201 304.001 221.262 304.006 221.322C304.012 221.382 304.035 221.439 304.073 221.486C304.112 221.533 304.163 221.567 304.221 221.584C304.279 221.601 304.341 221.6 304.399 221.581C304.644 221.5 304.834 221.184 304.951 220.986C305.283 220.429 305.459 219.411 305.542 219.463C305.626 219.516 305.915 221.24 305.961 221.438C306.007 221.636 306.356 223.637 306.553 224.004C306.749 224.371 307.01 224.308 307.078 224.08C307.138 223.882 306.861 221.078 306.861 221.078C306.861 221.078 306.827 220.72 306.988 220.831C307.149 220.943 307.401 223.489 307.51 223.862C307.619 224.235 307.868 224.432 308.078 224.132C308.332 223.768 307.894 221.067 307.894 221.067C307.894 221.067 307.845 220.729 307.989 220.76C308.134 220.792 308.316 222.961 308.429 223.149C308.542 223.336 308.827 223.402 308.963 223.092C309.123 222.722 308.709 220.316 308.709 220.316C308.709 220.316 308.729 220.125 308.821 220.189C308.912 220.254 309.202 222.093 309.384 222.262C309.403 222.281 309.425 222.297 309.45 222.307C309.475 222.318 309.502 222.323 309.528 222.323C309.555 222.323 309.582 222.318 309.607 222.307C309.632 222.297 309.654 222.281 309.673 222.262C310.016 222.027 309.49 220.278 309.495 219.409C309.5 218.54 309.098 217.563 309.217 216.527C309.221 216.456 309.242 216.296 309.256 216.196Z" fill="#E9F7FF"/>
<path d="M309.256 216.196C309.263 216.138 309.263 216.079 309.256 216.021C309.071 214.14 307.508 198.346 307.246 197.675C307.008 197.068 300.003 187.051 300.003 187.051L296.56 191.746L303.297 200.732C303.448 201.303 305.879 211.964 305.879 211.964C305.879 211.964 306.377 213.908 306.6 215.072C306.498 215.352 306.398 215.617 306.31 215.833C306.107 216.244 305.864 216.635 305.584 216.999C305.283 217.403 304.785 218.285 304.724 218.522C304.653 218.796 304.523 219.366 304.451 219.71C304.378 220.054 304.278 220.455 304.262 220.641C304.216 220.821 304.142 220.992 304.043 221.149C304.014 221.201 304.001 221.262 304.006 221.322C304.012 221.382 304.035 221.439 304.073 221.486C304.112 221.533 304.163 221.567 304.221 221.584C304.279 221.601 304.341 221.6 304.399 221.581C304.644 221.5 304.834 221.184 304.951 220.986C305.283 220.429 305.459 219.411 305.542 219.463C305.626 219.516 305.915 221.24 305.961 221.438C306.007 221.636 306.356 223.637 306.553 224.004C306.749 224.371 307.01 224.308 307.078 224.08C307.138 223.882 306.861 221.078 306.861 221.078C306.861 221.078 306.827 220.72 306.988 220.831C307.149 220.943 307.401 223.489 307.51 223.862C307.619 224.235 307.868 224.432 308.078 224.132C308.332 223.768 307.894 221.067 307.894 221.067C307.894 221.067 307.845 220.729 307.989 220.76C308.134 220.792 308.316 222.961 308.429 223.149C308.542 223.336 308.827 223.402 308.963 223.092C309.123 222.722 308.709 220.316 308.709 220.316C308.709 220.316 308.729 220.125 308.821 220.189C308.912 220.254 309.202 222.093 309.384 222.262C309.403 222.281 309.425 222.297 309.45 222.307C309.475 222.318 309.502 222.323 309.528 222.323C309.555 222.323 309.582 222.318 309.607 222.307C309.632 222.297 309.654 222.281 309.673 222.262C310.016 222.027 309.49 220.278 309.495 219.409C309.5 218.54 309.098 217.563 309.217 216.527C309.221 216.456 309.242 216.296 309.256 216.196Z" fill="url(#paint5_linear_231_7127)" fill-opacity="0.8" style="mix-blend-mode:color-burn"/>
<path d="M309.256 216.196C309.263 216.138 309.263 216.079 309.256 216.021C309.071 214.14 307.508 198.346 307.246 197.675C307.008 197.068 300.003 187.051 300.003 187.051L296.56 191.746L303.297 200.732C303.448 201.303 305.879 211.964 305.879 211.964C305.879 211.964 306.377 213.908 306.6 215.072C306.498 215.352 306.398 215.617 306.31 215.833C306.107 216.244 305.864 216.635 305.584 216.999C305.283 217.403 304.785 218.285 304.724 218.522C304.653 218.796 304.523 219.366 304.451 219.71C304.378 220.054 304.278 220.455 304.262 220.641C304.216 220.821 304.142 220.992 304.043 221.149C304.014 221.201 304.001 221.262 304.006 221.322C304.012 221.382 304.035 221.439 304.073 221.486C304.112 221.533 304.163 221.567 304.221 221.584C304.279 221.601 304.341 221.6 304.399 221.581C304.644 221.5 304.834 221.184 304.951 220.986C305.283 220.429 305.459 219.411 305.542 219.463C305.626 219.516 305.915 221.24 305.961 221.438C306.007 221.636 306.356 223.637 306.553 224.004C306.749 224.371 307.01 224.308 307.078 224.08C307.138 223.882 306.861 221.078 306.861 221.078C306.861 221.078 306.827 220.72 306.988 220.831C307.149 220.943 307.401 223.489 307.51 223.862C307.619 224.235 307.868 224.432 308.078 224.132C308.332 223.768 307.894 221.067 307.894 221.067C307.894 221.067 307.845 220.729 307.989 220.76C308.134 220.792 308.316 222.961 308.429 223.149C308.542 223.336 308.827 223.402 308.963 223.092C309.123 222.722 308.709 220.316 308.709 220.316C308.709 220.316 308.729 220.125 308.821 220.189C308.912 220.254 309.202 222.093 309.384 222.262C309.403 222.281 309.425 222.297 309.45 222.307C309.475 222.318 309.502 222.323 309.528 222.323C309.555 222.323 309.582 222.318 309.607 222.307C309.632 222.297 309.654 222.281 309.673 222.262C310.016 222.027 309.49 220.278 309.495 219.409C309.5 218.54 309.098 217.563 309.217 216.527C309.221 216.456 309.242 216.296 309.256 216.196Z" fill="#2F3941" fill-opacity="0.15" style="mix-blend-mode:multiply"/>
<path d="M305.48 193.396L299.495 197.413C299.495 197.413 296.12 192.39 294.31 190.613C292.042 188.376 295.136 181.521 296.595 181.908C299.866 182.771 305.48 193.396 305.48 193.396Z" fill="#63C8AC"/>
<path d="M202.319 152.079C202.409 152.065 202.444 151.985 202.532 151.787C202.69 151.433 202.847 151.079 203.017 150.731C203.043 150.676 203.132 150.624 203.196 150.619C203.573 150.594 203.952 150.592 204.328 150.563C204.445 150.555 204.506 150.568 204.567 150.676C204.812 151.105 205.069 151.528 205.318 151.949C205.76 151.865 206.765 151.391 207.052 151.127C206.888 150.685 206.728 150.231 206.55 149.783C206.494 149.644 206.509 149.575 206.622 149.465C206.885 149.212 207.125 148.934 207.359 148.652C207.453 148.538 207.526 148.478 207.686 148.523C208.1 148.64 208.521 148.731 208.938 148.841C209.05 148.87 209.121 148.852 209.16 148.741C209.345 148.222 209.529 147.702 209.713 147.182C209.758 147.054 209.653 147.03 209.579 146.995C209.202 146.815 208.825 146.633 208.441 146.466C208.298 146.403 208.253 146.326 208.255 146.166C208.26 145.744 208.237 145.321 208.224 144.866L209.576 144.052C209.4 143.432 209.122 142.868 208.744 142.33L207.293 142.865C206.912 142.536 206.566 142.223 206.203 141.932C206.098 141.848 206.083 141.785 206.114 141.666C206.222 141.255 206.318 140.84 206.424 140.428C206.446 140.339 206.453 140.273 206.357 140.223C205.872 139.969 205.372 139.76 204.83 139.661C204.709 139.639 204.659 139.68 204.613 139.78C204.43 140.177 204.239 140.571 204.057 140.97C204.013 141.066 203.969 141.106 203.85 141.109C203.434 141.123 203.019 141.154 202.606 141.197C202.5 141.207 202.461 141.172 202.415 141.095C202.161 140.671 201.904 140.248 201.642 139.814C201.033 140.003 200.465 140.253 199.937 140.623L200.492 142.139L199.434 143.315C199.066 143.225 198.644 143.118 198.221 143.018C197.873 142.937 197.921 142.888 197.759 143.235C197.743 143.269 197.716 143.296 197.694 143.326L197.369 144.262C197.357 144.336 197.357 144.413 197.332 144.482C197.267 144.661 197.304 144.764 197.494 144.845C197.89 145.012 198.276 145.204 198.662 145.395C198.712 145.42 198.763 145.498 198.767 145.555C198.798 145.927 198.797 146.302 198.848 146.671C198.872 146.852 198.82 146.925 198.677 147.008C198.272 147.242 197.877 147.493 197.437 147.761L198.245 149.478C198.358 149.439 198.423 149.417 198.487 149.393C198.885 149.247 199.285 149.103 199.68 148.949C199.792 148.906 199.853 148.933 199.94 149.012C200.237 149.285 200.551 149.539 200.85 149.81C200.896 149.852 200.926 149.953 200.912 150.015C200.838 150.356 200.746 150.693 200.665 151.033C200.6 151.308 200.576 151.41 200.663 151.501L202.319 152.079ZM202.385 149.593C201.522 149.334 200.775 148.782 200.272 148.032C199.769 147.282 199.541 146.38 199.626 145.48C199.711 144.58 200.105 143.737 200.74 143.095C201.375 142.453 202.212 142.052 203.108 141.96C204.004 141.868 204.905 142.091 205.656 142.591C206.407 143.09 206.961 143.836 207.226 144.7C207.49 145.565 207.448 146.494 207.106 147.331C206.764 148.168 206.144 148.86 205.35 149.289C204.901 149.534 204.407 149.687 203.898 149.739C203.389 149.791 202.875 149.742 202.385 149.593Z" fill="#C57F12"/>
<path d="M211.261 155.859C211.316 155.85 211.338 155.801 211.392 155.68C211.488 155.462 211.585 155.245 211.689 155.031C211.706 154.997 211.76 154.965 211.799 154.963C212.031 154.947 212.264 154.946 212.495 154.928C212.567 154.923 212.604 154.931 212.642 154.997C212.792 155.261 212.95 155.521 213.103 155.78C213.374 155.728 213.992 155.437 214.168 155.274C214.067 155.003 213.969 154.724 213.859 154.449C213.825 154.364 213.834 154.321 213.904 154.254C214.065 154.098 214.213 153.927 214.356 153.754C214.415 153.684 214.459 153.647 214.557 153.675C214.812 153.747 215.071 153.803 215.326 153.87C215.395 153.888 215.439 153.877 215.463 153.809C215.576 153.49 215.69 153.171 215.803 152.851C215.83 152.773 215.766 152.758 215.72 152.736C215.488 152.626 215.257 152.514 215.021 152.412C214.933 152.373 214.906 152.325 214.907 152.227C214.91 151.968 214.896 151.708 214.888 151.428L215.718 150.929C215.61 150.548 215.439 150.202 215.207 149.871L214.316 150.2C214.082 149.998 213.87 149.806 213.647 149.627C213.582 149.575 213.573 149.536 213.592 149.463C213.658 149.21 213.717 148.955 213.782 148.703C213.796 148.648 213.8 148.607 213.741 148.576C213.443 148.421 213.136 148.292 212.803 148.231C212.729 148.218 212.698 148.243 212.67 148.304C212.557 148.549 212.44 148.791 212.328 149.035C212.301 149.095 212.274 149.119 212.201 149.121C211.946 149.13 211.691 149.149 211.437 149.175C211.372 149.181 211.348 149.16 211.32 149.113C211.164 148.852 211.006 148.592 210.845 148.325C210.471 148.441 210.122 148.595 209.797 148.822L210.138 149.754L209.488 150.476C209.263 150.421 209.004 150.355 208.743 150.294C208.53 150.244 208.559 150.214 208.46 150.427C208.45 150.447 208.434 150.464 208.42 150.483L208.22 151.058C208.213 151.103 208.213 151.151 208.198 151.193C208.158 151.303 208.18 151.366 208.297 151.416C208.54 151.518 208.777 151.636 209.014 151.754C209.045 151.769 209.076 151.817 209.079 151.852C209.098 152.08 209.098 152.311 209.129 152.538C209.144 152.648 209.112 152.693 209.024 152.744C208.775 152.888 208.532 153.042 208.262 153.207L208.758 154.262C208.828 154.238 208.868 154.224 208.907 154.21C209.152 154.119 209.397 154.031 209.64 153.937C209.709 153.91 209.746 153.927 209.799 153.976C209.982 154.143 210.175 154.299 210.358 154.466C210.387 154.492 210.405 154.553 210.397 154.592C210.351 154.801 210.294 155.008 210.245 155.217C210.205 155.385 210.19 155.448 210.243 155.504L211.261 155.859ZM211.301 154.332C210.771 154.173 210.312 153.834 210.003 153.373C209.694 152.913 209.554 152.359 209.606 151.806C209.659 151.253 209.901 150.735 210.291 150.341C210.681 149.947 211.195 149.7 211.745 149.644C212.296 149.587 212.849 149.724 213.31 150.031C213.772 150.338 214.112 150.796 214.275 151.327C214.437 151.858 214.411 152.429 214.201 152.943C213.991 153.457 213.61 153.882 213.123 154.145C212.847 154.296 212.543 154.39 212.231 154.422C211.918 154.454 211.602 154.424 211.301 154.332Z" fill="#C57F12"/>
<defs>
<filter id="filter0_d_231_7127" x="40.2069" y="44.2377" width="277.477" height="206.734" filterUnits="userSpaceOnUse" color-interpolation-filters="sRGB">
<feFlood flood-opacity="0" result="BackgroundImageFix"/>
<feColorMatrix in="SourceAlpha" type="matrix" values="0 0 0 0 0 0 0 0 0 0 0 0 0 0 0 0 0 0 127 0" result="hardAlpha"/>
<feOffset dy="4.17192"/>
<feGaussianBlur stdDeviation="4.17192"/>
<feColorMatrix type="matrix" values="0 0 0 0 0.184314 0 0 0 0 0.223529 0 0 0 0 0.254902 0 0 0 0.15 0"/>
<feBlend mode="normal" in2="BackgroundImageFix" result="effect1_dropShadow_231_7127"/>
<feBlend mode="normal" in="SourceGraphic" in2="effect1_dropShadow_231_7127" result="shape"/>
</filter>
<filter id="filter1_di_231_7127" x="0.57365" y="0.683514" width="356.743" height="284.747" filterUnits="userSpaceOnUse" color-interpolation-filters="sRGB">
<feFlood flood-opacity="0" result="BackgroundImageFix"/>
<feColorMatrix in="SourceAlpha" type="matrix" values="0 0 0 0 0 0 0 0 0 0 0 0 0 0 0 0 0 0 127 0" result="hardAlpha"/>
<feOffset/>
<feGaussianBlur stdDeviation="23.9886"/>
<feComposite in2="hardAlpha" operator="out"/>
<feColorMatrix type="matrix" values="0 0 0 0 0 0 0 0 0 0 0 0 0 0 0 0 0 0 0.05 0"/>
<feBlend mode="normal" in2="BackgroundImageFix" result="effect1_dropShadow_231_7127"/>
<feBlend mode="normal" in="SourceGraphic" in2="effect1_dropShadow_231_7127" result="shape"/>
<feColorMatrix in="SourceAlpha" type="matrix" values="0 0 0 0 0 0 0 0 0 0 0 0 0 0 0 0 0 0 127 0" result="hardAlpha"/>
<feOffset dx="-1.19943"/>
<feComposite in2="hardAlpha" operator="arithmetic" k2="-1" k3="1"/>
<feColorMatrix type="matrix" values="0 0 0 0 0.913725 0 0 0 0 0.921569 0 0 0 0 0.929412 0 0 0 1 0"/>
<feBlend mode="normal" in2="shape" result="effect2_innerShadow_231_7127"/>
</filter>
<filter id="filter2_d_231_7127" x="205.25" y="134.633" width="125.983" height="119.381" filterUnits="userSpaceOnUse" color-interpolation-filters="sRGB">
<feFlood flood-opacity="0" result="BackgroundImageFix"/>
<feColorMatrix in="SourceAlpha" type="matrix" values="0 0 0 0 0 0 0 0 0 0 0 0 0 0 0 0 0 0 127 0" result="hardAlpha"/>
<feOffset dy="6.39434"/>
<feGaussianBlur stdDeviation="6.39434"/>
<feColorMatrix type="matrix" values="0 0 0 0 0.184314 0 0 0 0 0.223529 0 0 0 0 0.254902 0 0 0 0.15 0"/>
<feBlend mode="normal" in2="BackgroundImageFix" result="effect1_dropShadow_231_7127"/>
<feBlend mode="normal" in="SourceGraphic" in2="effect1_dropShadow_231_7127" result="shape"/>
</filter>
<filter id="filter3_d_231_7127" x="253.753" y="180.444" width="37.8812" height="37.0382" filterUnits="userSpaceOnUse" color-interpolation-filters="sRGB">
<feFlood flood-opacity="0" result="BackgroundImageFix"/>
<feColorMatrix in="SourceAlpha" type="matrix" values="0 0 0 0 0 0 0 0 0 0 0 0 0 0 0 0 0 0 127 0" result="hardAlpha"/>
<feOffset dy="5.90745"/>
<feGaussianBlur stdDeviation="5.90745"/>
<feColorMatrix type="matrix" values="0 0 0 0 0.184314 0 0 0 0 0.223529 0 0 0 0 0.254902 0 0 0 0.15 0"/>
<feBlend mode="normal" in2="BackgroundImageFix" result="effect1_dropShadow_231_7127"/>
<feBlend mode="normal" in="SourceGraphic" in2="effect1_dropShadow_231_7127" result="shape"/>
</filter>
<filter id="filter4_d_231_7127" x="206.224" y="135.119" width="82.6261" height="82.5773" filterUnits="userSpaceOnUse" color-interpolation-filters="sRGB">
<feFlood flood-opacity="0" result="BackgroundImageFix"/>
<feColorMatrix in="SourceAlpha" type="matrix" values="0 0 0 0 0 0 0 0 0 0 0 0 0 0 0 0 0 0 127 0" result="hardAlpha"/>
<feOffset dy="5.90745"/>
<feGaussianBlur stdDeviation="5.90745"/>
<feColorMatrix type="matrix" values="0 0 0 0 0.184314 0 0 0 0 0.223529 0 0 0 0 0.254902 0 0 0 0.15 0"/>
<feBlend mode="normal" in2="BackgroundImageFix" result="effect1_dropShadow_231_7127"/>
<feBlend mode="normal" in="SourceGraphic" in2="effect1_dropShadow_231_7127" result="shape"/>
</filter>
<filter id="filter5_d_231_7127" x="208.017" y="136.905" width="79.0491" height="79.0002" filterUnits="userSpaceOnUse" color-interpolation-filters="sRGB">
<feFlood flood-opacity="0" result="BackgroundImageFix"/>
<feColorMatrix in="SourceAlpha" type="matrix" values="0 0 0 0 0 0 0 0 0 0 0 0 0 0 0 0 0 0 127 0" result="hardAlpha"/>
<feOffset dy="5.90745"/>
<feGaussianBlur stdDeviation="5.90745"/>
<feColorMatrix type="matrix" values="0 0 0 0 0.184314 0 0 0 0 0.223529 0 0 0 0 0.254902 0 0 0 0.15 0"/>
<feBlend mode="normal" in2="BackgroundImageFix" result="effect1_dropShadow_231_7127"/>
<feBlend mode="normal" in="SourceGraphic" in2="effect1_dropShadow_231_7127" result="shape"/>
</filter>
<linearGradient id="paint0_linear_231_7127" x1="293.27" y1="53.1753" x2="298.599" y2="53.2561" gradientUnits="userSpaceOnUse">
<stop stop-color="#001825"/>
<stop offset="1" stop-color="#003A57"/>
</linearGradient>
<linearGradient id="paint1_linear_231_7127" x1="263.988" y1="204.753" x2="267.037" y2="188.603" gradientUnits="userSpaceOnUse">
<stop offset="0.213542" stop-color="#7075A0"/>
<stop offset="0.6875" stop-color="#B5CBDC" stop-opacity="0.291667"/>
<stop offset="1" stop-color="#2F3941" stop-opacity="0"/>
</linearGradient>
<linearGradient id="paint2_linear_231_7127" x1="304.038" y1="273.738" x2="307.922" y2="264.155" gradientUnits="userSpaceOnUse">
<stop offset="0.213542" stop-color="#323444"/>
<stop offset="0.6875" stop-color="#2F3941" stop-opacity="0.291667"/>
<stop offset="1" stop-color="#2F3941" stop-opacity="0"/>
</linearGradient>
<linearGradient id="paint3_linear_231_7127" x1="286.753" y1="274.508" x2="287.932" y2="269.414" gradientUnits="userSpaceOnUse">
<stop offset="0.213542" stop-color="#323444"/>
<stop offset="0.6875" stop-color="#2F3941" stop-opacity="0.291667"/>
<stop offset="1" stop-color="#2F3941" stop-opacity="0"/>
</linearGradient>
<linearGradient id="paint4_linear_231_7127" x1="280.125" y1="157.088" x2="296.044" y2="187.031" gradientUnits="userSpaceOnUse">
<stop offset="0.213542" stop-color="#7075A0"/>
<stop offset="0.6875" stop-color="#B5CBDC" stop-opacity="0.291667"/>
<stop offset="1" stop-color="#2F3941" stop-opacity="0"/>
</linearGradient>
<linearGradient id="paint5_linear_231_7127" x1="308.332" y1="172.958" x2="291.707" y2="201.646" gradientUnits="userSpaceOnUse">
<stop offset="0.213542" stop-color="#7075A0"/>
<stop offset="0.6875" stop-color="#B5CBDC" stop-opacity="0.291667"/>
<stop offset="1" stop-color="#8BBDE5" stop-opacity="0"/>
</linearGradient>
<clipPath id="clip0_231_7127">
<rect width="4.57752" height="5.72191" fill="white" transform="translate(151.131 121.56)"/>
</clipPath>
<clipPath id="clip1_231_7127">
<rect width="4.57752" height="5.72191" fill="white" transform="translate(196.929 121.56)"/>
</clipPath>
<clipPath id="clip2_231_7127">
<rect width="4.57752" height="5.72191" fill="white" transform="translate(242.728 121.56)"/>
</clipPath>
</defs>
</svg>
