<svg width="98" height="57" viewBox="0 0 98 57" fill="none" xmlns="http://www.w3.org/2000/svg">
<g opacity="0.3">
<path d="M59.2153 54.617L56.6703 59.0252L56.6151 58.9933C52.5391 65.1625 46.9129 66.7632 41.017 63.3591C34.7354 59.7325 33.0881 53.9324 36.3927 47.3179L36.3376 47.2861L38.8827 42.878L29.9562 37.7242L27.4111 42.1324L27.3793 42.1875C21.449 53.6044 24.839 65.0391 36.19 71.5926C47.4308 78.0825 58.5473 75.2435 65.5649 64.234L68.1418 59.7707L59.2153 54.617Z" fill="#003A57"/>
<path d="M51.9721 20.4597L42.9904 15.2742L37.8049 24.2558L46.7865 29.4413L51.9721 20.4597Z" fill="#ABEBDF"/>
<path d="M81.066 37.2571L71.9742 32.0079L66.725 41.0997L75.8168 46.3489L81.066 37.2571Z" fill="#003A57"/>
</g>
</svg>
