<svg width="16" height="16" viewBox="0 0 16 16" fill="none" xmlns="http://www.w3.org/2000/svg">
<g clip-path="url(#clip0_794_35149)">
<circle cx="8" cy="8.00024" r="8" fill="currentColor"/>
<path d="M10.9399 4.68846C11.0057 4.41211 11.3989 4.41211 11.4646 4.68846C11.6431 5.43676 12.2258 6.01948 12.972 6.1958C13.2483 6.26152 13.2483 6.65475 12.972 6.72047C12.2237 6.89894 11.6409 7.48167 11.4646 8.22781C11.3989 8.50416 11.0057 8.50416 10.9399 8.22781C10.7615 7.47952 10.1787 6.89679 9.4326 6.72047C9.15625 6.65475 9.15625 6.26152 9.4326 6.1958C10.1809 6.01733 10.7636 5.43461 10.9399 4.68846Z" fill="white"/>
<path d="M5.32455 7.63128C6.05244 7.63128 6.64251 7.04121 6.64251 6.31332C6.64251 5.58543 6.05244 4.99536 5.32455 4.99536C4.59666 4.99536 4.00659 5.58543 4.00659 6.31332C4.00659 7.04121 4.59666 7.63128 5.32455 7.63128Z" fill="white"/>
<path d="M7.90675 13.1799C9.34032 13.1799 10.603 12.451 11.3457 11.3424C11.5873 10.9818 11.2942 10.5439 10.8602 10.5439C10.6404 10.5439 10.441 10.6641 10.3093 10.8402C9.7625 11.5719 8.89367 12.0502 7.90675 12.0502C6.91877 12.0502 6.05504 11.5709 5.5044 10.8379C5.3729 10.6628 5.17406 10.5439 4.95512 10.5439C4.52024 10.5439 4.22659 10.9827 4.4688 11.3439C5.21166 12.4517 6.47383 13.1799 7.90675 13.1799Z" fill="white"/>
<path d="M9.13794 4.02319C9.15985 3.93107 9.29092 3.93107 9.31283 4.02319C9.37232 4.27262 9.56656 4.46686 9.81528 4.52564C9.90739 4.54754 9.90739 4.67862 9.81528 4.70052C9.56584 4.76002 9.3716 4.95426 9.31283 5.20297C9.29092 5.29509 9.15985 5.29509 9.13794 5.20297C9.07845 4.95354 8.88421 4.7593 8.63549 4.70052C8.54338 4.67862 8.54338 4.54754 8.63549 4.52564C8.88493 4.46615 9.07917 4.2719 9.13794 4.02319Z" fill="white"/>
</g>
<defs>
<clipPath id="clip0_794_35149">
<rect width="16" height="16" fill="white"/>
</clipPath>
</defs>
</svg>
