<svg width="323" height="73" viewBox="0 0 323 73" fill="none" xmlns="http://www.w3.org/2000/svg">
<g opacity="0.58">
<mask id="mask0_2919_63220" style="mask-type:alpha" maskUnits="userSpaceOnUse" x="107" y="22" width="32" height="32">
<circle cx="123.4" cy="37.9548" r="15.4009" fill="#794848"/>
</mask>
<g mask="url(#mask0_2919_63220)">
<rect x="101.839" y="17.7937" width="45.0825" height="40.3223" fill="#E3F2F9"/>
<path d="M114.133 52.4393L113.357 59.6533C113.357 59.6533 111.845 57.3689 110.822 58.3869C109.848 59.3584 108.126 66.4425 108.126 66.4425C108.126 66.4425 108.103 68.7526 109.331 69.3634C113.27 71.3256 117.659 67.6385 117.659 67.6385L117.033 46.9904C115.4 48.3649 114.361 50.3171 114.133 52.4393Z" fill="#206E6A"/>
<path d="M118.207 30.3851C119.818 29.6924 121.586 29.4426 123.326 29.6615C125.067 29.8805 126.717 30.5607 128.107 31.6312L128.527 31.9515L128.319 34.8549C128.765 34.7589 130.118 34.612 130.065 36.2523C130.008 38.012 128.411 37.7928 128.116 37.6957L127.422 47.4252L120.606 46.8812C120.565 46.0795 120.621 43.0062 120.621 43.0062C120.621 43.0062 117.785 42.5658 117.751 39.7318C117.717 36.8975 118.207 30.3851 118.207 30.3851Z" fill="#E6EBEE"/>
<path d="M118.207 30.3851C119.818 29.6924 121.586 29.4426 123.326 29.6615C125.067 29.8805 126.717 30.5607 128.107 31.6312L128.527 31.9515L128.319 34.8549C128.765 34.7589 130.118 34.612 130.065 36.2523C130.008 38.012 128.411 37.7928 128.116 37.6957L127.422 47.4252L120.606 46.8812C120.565 46.0795 120.621 43.0062 120.621 43.0062C120.621 43.0062 117.785 42.5658 117.751 39.7318C117.717 36.8975 118.207 30.3851 118.207 30.3851Z" fill="url(#paint0_linear_2919_63220)" fill-opacity="0.8" style="mix-blend-mode:color-burn"/>
<path d="M118.207 30.3851C119.818 29.6924 121.586 29.4426 123.326 29.6615C125.067 29.8805 126.717 30.5607 128.107 31.6312L128.527 31.9515L128.319 34.8549C128.765 34.7589 130.118 34.612 130.065 36.2523C130.008 38.012 128.411 37.7928 128.116 37.6957L127.422 47.4252L120.606 46.8812C120.565 46.0795 120.621 43.0062 120.621 43.0062C120.621 43.0062 117.785 42.5658 117.751 39.7318C117.717 36.8975 118.207 30.3851 118.207 30.3851Z" fill="#2F3941" fill-opacity="0.15" style="mix-blend-mode:multiply"/>
<path d="M120.616 42.9665C121.925 42.9913 123.212 42.6257 124.313 41.9165C124.313 41.9165 123.439 43.9557 120.609 43.7008L120.616 42.9665Z" fill="#E6EBEE"/>
<path d="M120.616 42.9665C121.925 42.9913 123.212 42.6257 124.313 41.9165C124.313 41.9165 123.439 43.9557 120.609 43.7008L120.616 42.9665Z" fill="url(#paint1_linear_2919_63220)" fill-opacity="0.8" style="mix-blend-mode:color-burn"/>
<path d="M120.616 42.9665C121.925 42.9913 123.212 42.6257 124.313 41.9165C124.313 41.9165 123.439 43.9557 120.609 43.7008L120.616 42.9665Z" fill="#2F3941" fill-opacity="0.15" style="mix-blend-mode:multiply"/>
<path d="M128.591 36.9259C128.601 36.9259 128.625 36.9499 128.681 36.9788C128.76 37.0158 128.85 37.0204 128.933 36.9916C129.141 36.9226 129.324 36.6036 129.345 36.2541C129.353 36.0899 129.326 35.9258 129.264 35.7732C129.248 35.712 129.218 35.6556 129.175 35.6089C129.132 35.5622 129.079 35.5267 129.019 35.5055C128.981 35.4937 128.939 35.4959 128.902 35.5117C128.865 35.5276 128.835 35.5561 128.817 35.5921C128.79 35.645 128.8 35.6834 128.79 35.6866C128.78 35.6899 128.75 35.653 128.767 35.5728C128.781 35.5257 128.809 35.4841 128.848 35.4542C128.902 35.4164 128.969 35.4009 129.035 35.4109C129.115 35.4303 129.189 35.47 129.249 35.5262C129.31 35.5823 129.355 35.653 129.38 35.7315C129.456 35.9022 129.49 36.0885 129.479 36.275C129.454 36.6645 129.242 37.0236 128.96 37.0958C128.907 37.1096 128.852 37.1113 128.799 37.1007C128.746 37.0902 128.695 37.0677 128.652 37.0349C128.594 36.9723 128.585 36.9291 128.591 36.9259Z" fill="#547B8E"/>
<path d="M118.832 34.7745C118.831 34.8801 118.871 34.982 118.944 35.0583C119.017 35.1347 119.117 35.1795 119.223 35.1833C119.274 35.1874 119.326 35.1812 119.375 35.1649C119.424 35.1487 119.47 35.1227 119.508 35.0886C119.547 35.0546 119.579 35.013 119.601 34.9665C119.624 34.92 119.637 34.8694 119.64 34.8178C119.64 34.7124 119.6 34.6107 119.528 34.5344C119.455 34.4581 119.355 34.4131 119.25 34.409C119.198 34.405 119.147 34.4114 119.098 34.4277C119.048 34.4441 119.003 34.47 118.964 34.504C118.925 34.538 118.893 34.5795 118.871 34.6259C118.848 34.6723 118.835 34.7228 118.832 34.7745Z" fill="#001825"/>
<path d="M118.743 34.3737C118.793 34.4266 119.101 34.1989 119.535 34.2005C119.97 34.2021 120.29 34.4201 120.337 34.3608C120.359 34.3368 120.308 34.2406 120.176 34.1396C119.988 34.0095 119.764 33.9406 119.535 33.9424C119.308 33.9416 119.087 34.0129 118.903 34.146C118.764 34.255 118.719 34.3496 118.743 34.3737Z" fill="#001825"/>
<path d="M123.099 34.9349C123.098 35.0403 123.138 35.1419 123.211 35.2182C123.284 35.2945 123.383 35.3395 123.489 35.3437C123.54 35.3476 123.592 35.3412 123.641 35.3249C123.69 35.3086 123.735 35.2826 123.774 35.2486C123.813 35.2146 123.845 35.1731 123.868 35.1267C123.891 35.0803 123.904 35.0298 123.907 34.9782C123.907 34.8726 123.867 34.771 123.794 34.6947C123.721 34.6185 123.621 34.5735 123.516 34.5694C123.464 34.5654 123.413 34.5718 123.364 34.5882C123.315 34.6045 123.269 34.6305 123.231 34.6645C123.192 34.6985 123.16 34.74 123.137 34.7864C123.115 34.8328 123.102 34.8833 123.099 34.9349Z" fill="#001825"/>
<path d="M123.025 34.4538C123.076 34.5067 123.383 34.2791 123.819 34.2807C124.255 34.2823 124.574 34.5003 124.62 34.441C124.644 34.4186 124.593 34.3224 124.46 34.2214C124.271 34.0912 124.048 34.0219 123.819 34.0226C123.592 34.0223 123.371 34.0935 123.187 34.2262C123.047 34.3368 123.001 34.4314 123.025 34.4538Z" fill="#001825"/>
<path d="M121.444 37.6858C121.444 37.6618 121.175 37.6153 120.737 37.5592C120.625 37.548 120.521 37.5255 120.502 37.4486C120.493 37.3341 120.519 37.2196 120.575 37.1199C120.682 36.8506 120.792 36.5679 120.904 36.2719C121.363 35.0664 121.693 34.074 121.643 34.0564C121.593 34.0388 121.185 35.0022 120.728 36.2078C120.619 36.5043 120.513 36.7881 120.407 37.0606C120.336 37.1943 120.316 37.3491 120.349 37.4967C120.365 37.5357 120.39 37.5705 120.422 37.5983C120.454 37.6262 120.491 37.6462 120.532 37.657C120.594 37.6745 120.657 37.6836 120.721 37.6842C121.169 37.7099 121.443 37.7115 121.444 37.6858Z" fill="#001825"/>
<path d="M122.913 32.7482C122.956 32.8669 123.394 32.8108 123.902 32.8717C124.41 32.9326 124.827 33.0721 124.894 32.9663C124.925 32.915 124.853 32.806 124.686 32.6889C124.463 32.55 124.211 32.4634 123.95 32.4356C123.689 32.4079 123.425 32.4397 123.178 32.5286C122.99 32.5992 122.895 32.6905 122.913 32.7482Z" fill="#001825"/>
<path d="M118.903 33.1136C118.98 33.2114 119.28 33.1136 119.641 33.104C120.001 33.0944 120.308 33.1713 120.378 33.0671C120.409 33.0174 120.36 32.918 120.227 32.8251C120.048 32.7121 119.84 32.6552 119.628 32.6615C119.416 32.6678 119.212 32.737 119.04 32.8603C118.911 32.9629 118.87 33.0639 118.903 33.1136Z" fill="#001825"/>
<path d="M116.826 28.596C116.806 28.42 116.831 28.2418 116.899 28.078C116.966 27.9143 117.074 27.7704 117.213 27.6598C117.355 27.5559 117.531 27.5061 117.707 27.5193C117.883 27.5325 118.049 27.6078 118.174 27.7319C118.148 27.6135 118.146 27.4909 118.17 27.3719C118.194 27.2529 118.242 27.1403 118.313 27.0413C118.383 26.9422 118.473 26.8591 118.577 26.7972C118.682 26.7353 118.798 26.696 118.918 26.6819C119.382 26.653 119.776 27.0025 120.222 27.1243C120.667 27.2461 121.126 27.1403 121.546 26.972C121.966 26.8037 122.357 26.5696 122.782 26.4141C123.679 26.0863 124.67 26.1261 125.539 26.5247C126.407 26.9234 127.083 27.6487 127.42 28.5431C128.04 28.3491 128.744 28.6649 129.127 29.1843C129.51 29.7037 129.608 30.3995 129.531 31.0439C129.471 31.4787 129.364 31.9056 129.21 32.3168C129.21 32.3537 129.21 32.3889 129.21 32.4258C129.18 33.984 129.003 35.8148 128.338 35.826C127.179 35.8436 127.456 33.6586 127.456 33.6586C126.033 33.1103 126.564 30.9782 126.208 30.6544C125.852 30.3305 125.108 29.5803 122.129 31.1016C120.972 31.6932 119.434 31.6756 118.594 31.4848L118.521 31.4688H118.503C118.495 31.466 118.487 31.4628 118.479 31.4591C118.209 31.3927 117.951 31.2845 117.714 31.1385C117.436 30.9778 117.216 30.7324 117.086 30.4379C117.023 30.2906 117.005 30.1283 117.034 29.9708C117.062 29.8133 117.136 29.6676 117.246 29.5514C117.016 29.2808 116.87 28.9486 116.826 28.596Z" fill="#001825"/>
<path d="M132.996 65.2161L133.209 69.2415L133.69 75.0127H115.474L116.266 66.4745L114.714 52.9843C114.849 48.2166 116.68 46.2352 120.424 45.7799L120.129 45.8168C120.646 45.7559 120.129 45.8168 120.424 45.7799C122.789 46.5269 125.327 46.5269 127.691 45.7799C128.813 45.828 129.745 46.1727 130.7 46.357C133.709 46.9325 136.186 49.2571 136.792 51.2818C137.288 52.9474 140.871 67.3947 140.871 67.3947H133.738L132.996 65.2161Z" fill="#206E6A"/>
<path d="M121.448 39.7954C121.617 39.8068 121.787 39.7861 121.948 39.7345C122.111 39.6702 122.245 39.5481 122.325 39.3914C122.369 39.2961 122.393 39.1925 122.395 39.0872C122.397 38.982 122.377 38.8775 122.336 38.7807C122.315 38.7306 122.288 38.6832 122.256 38.6396C122.217 38.6011 122.225 38.6027 122.185 38.6091C122.134 38.6259 122.084 38.6457 122.035 38.6684L121.874 38.731C121.674 38.8111 121.493 38.8817 121.34 38.9394C121.034 39.0532 120.84 39.1141 120.831 39.0997C120.821 39.0852 120.999 38.9794 121.294 38.8368C121.441 38.7662 121.614 38.6765 121.815 38.5947L121.966 38.5274C122.021 38.5009 122.079 38.4773 122.137 38.4568C122.182 38.4418 122.23 38.4418 122.275 38.4568C122.316 38.4739 122.352 38.5022 122.378 38.5386C122.421 38.5923 122.456 38.6516 122.483 38.7149C122.534 38.8341 122.558 38.963 122.553 39.0925C122.548 39.222 122.514 39.3487 122.455 39.4636C122.404 39.5563 122.335 39.6379 122.253 39.7037C122.17 39.7695 122.075 39.8182 121.974 39.8467C121.843 39.8897 121.702 39.8952 121.568 39.8628C121.488 39.8371 121.445 39.805 121.448 39.7954Z" fill="#001825"/>
<path d="M114.684 64.4113L110.394 51.2401L110.006 49.0294C110.006 49.0294 108.839 44.0982 108.786 43.6109C108.727 43.0466 108.44 42.9408 108.235 42.9696C107.914 43.0273 107.727 43.4506 107.763 43.9315C107.776 44.0918 108.084 46.7369 108.084 46.7369C107.904 46.5044 107.707 46.2847 107.496 46.0797C107.052 45.6276 106.104 45.4384 105.166 45.5747C104.229 45.711 103.977 45.8264 104.012 46.1935C104.022 46.2625 104.047 46.3284 104.086 46.3864C104.124 46.4444 104.175 46.493 104.235 46.5285C104.423 46.6552 104.652 46.7077 104.876 46.676C106.382 46.4853 106.874 47.2483 106.874 47.2483L106.925 47.5369C106.925 47.5369 105.938 46.9822 105.239 47.3365C105.135 47.3889 105.042 47.4607 104.966 47.5481C104.761 47.5713 104.565 47.6477 104.398 47.7699C104.231 47.892 104.099 48.0557 104.015 48.2446C103.931 48.4335 103.898 48.6411 103.919 48.8468C103.939 49.0525 104.014 49.2492 104.134 49.4174C104.249 49.5777 104.455 49.7219 104.639 49.6626C104.737 49.6208 104.823 49.5552 104.889 49.4719C104.927 49.4302 104.968 49.3921 105.013 49.358L105.267 50.1484C105.267 50.1484 105.938 51.8942 106.143 52.6861L108.227 65.9487C108.296 66.3854 108.451 66.8041 108.683 67.1803C108.916 67.5565 109.221 67.8827 109.58 68.1398C109.94 68.3969 110.348 68.5798 110.779 68.6778C111.21 68.7759 111.656 68.7871 112.092 68.7108C112.56 68.6284 113.006 68.4464 113.398 68.1773C113.79 67.9082 114.121 67.5582 114.366 67.1508C114.612 66.7434 114.767 66.2881 114.822 65.8155C114.877 65.3429 114.83 64.8641 114.684 64.4113Z" fill="#E6EBEE"/>
<path d="M114.684 64.4113L110.394 51.2401L110.006 49.0294C110.006 49.0294 108.839 44.0982 108.786 43.6109C108.727 43.0466 108.44 42.9408 108.235 42.9696C107.914 43.0273 107.727 43.4506 107.763 43.9315C107.776 44.0918 108.084 46.7369 108.084 46.7369C107.904 46.5044 107.707 46.2847 107.496 46.0797C107.052 45.6276 106.104 45.4384 105.166 45.5747C104.229 45.711 103.977 45.8264 104.012 46.1935C104.022 46.2625 104.047 46.3284 104.086 46.3864C104.124 46.4444 104.175 46.493 104.235 46.5285C104.423 46.6552 104.652 46.7077 104.876 46.676C106.382 46.4853 106.874 47.2483 106.874 47.2483L106.925 47.5369C106.925 47.5369 105.938 46.9822 105.239 47.3365C105.135 47.3889 105.042 47.4607 104.966 47.5481C104.761 47.5713 104.565 47.6477 104.398 47.7699C104.231 47.892 104.099 48.0557 104.015 48.2446C103.931 48.4335 103.898 48.6411 103.919 48.8468C103.939 49.0525 104.014 49.2492 104.134 49.4174C104.249 49.5777 104.455 49.7219 104.639 49.6626C104.737 49.6208 104.823 49.5552 104.889 49.4719C104.927 49.4302 104.968 49.3921 105.013 49.358L105.267 50.1484C105.267 50.1484 105.938 51.8942 106.143 52.6861L108.227 65.9487C108.296 66.3854 108.451 66.8041 108.683 67.1803C108.916 67.5565 109.221 67.8827 109.58 68.1398C109.94 68.3969 110.348 68.5798 110.779 68.6778C111.21 68.7759 111.656 68.7871 112.092 68.7108C112.56 68.6284 113.006 68.4464 113.398 68.1773C113.79 67.9082 114.121 67.5582 114.366 67.1508C114.612 66.7434 114.767 66.2881 114.822 65.8155C114.877 65.3429 114.83 64.8641 114.684 64.4113Z" fill="url(#paint2_linear_2919_63220)" fill-opacity="0.8" style="mix-blend-mode:color-burn"/>
<path d="M114.684 64.4113L110.394 51.2401L110.006 49.0294C110.006 49.0294 108.839 44.0982 108.786 43.6109C108.727 43.0466 108.44 42.9408 108.235 42.9696C107.914 43.0273 107.727 43.4506 107.763 43.9315C107.776 44.0918 108.084 46.7369 108.084 46.7369C107.904 46.5044 107.707 46.2847 107.496 46.0797C107.052 45.6276 106.104 45.4384 105.166 45.5747C104.229 45.711 103.977 45.8264 104.012 46.1935C104.022 46.2625 104.047 46.3284 104.086 46.3864C104.124 46.4444 104.175 46.493 104.235 46.5285C104.423 46.6552 104.652 46.7077 104.876 46.676C106.382 46.4853 106.874 47.2483 106.874 47.2483L106.925 47.5369C106.925 47.5369 105.938 46.9822 105.239 47.3365C105.135 47.3889 105.042 47.4607 104.966 47.5481C104.761 47.5713 104.565 47.6477 104.398 47.7699C104.231 47.892 104.099 48.0557 104.015 48.2446C103.931 48.4335 103.898 48.6411 103.919 48.8468C103.939 49.0525 104.014 49.2492 104.134 49.4174C104.249 49.5777 104.455 49.7219 104.639 49.6626C104.737 49.6208 104.823 49.5552 104.889 49.4719C104.927 49.4302 104.968 49.3921 105.013 49.358L105.267 50.1484C105.267 50.1484 105.938 51.8942 106.143 52.6861L108.227 65.9487C108.296 66.3854 108.451 66.8041 108.683 67.1803C108.916 67.5565 109.221 67.8827 109.58 68.1398C109.94 68.3969 110.348 68.5798 110.779 68.6778C111.21 68.7759 111.656 68.7871 112.092 68.7108C112.56 68.6284 113.006 68.4464 113.398 68.1773C113.79 67.9082 114.121 67.5582 114.366 67.1508C114.612 66.7434 114.767 66.2881 114.822 65.8155C114.877 65.3429 114.83 64.8641 114.684 64.4113Z" fill="#2F3941" fill-opacity="0.15" style="mix-blend-mode:multiply"/>
<path d="M109.793 49.116C109.709 49.055 109.617 49.0049 109.52 48.9669C109.341 48.8803 109.078 48.7617 108.752 48.6158L107.608 48.1156L107.274 47.973C107.149 47.8944 106.997 47.8684 106.853 47.9008C106.809 47.9205 106.772 47.9531 106.746 47.9944C106.721 48.0356 106.709 48.0834 106.712 48.1317C106.716 48.2106 106.738 48.2874 106.777 48.3561C106.849 48.4773 106.934 48.5902 107.031 48.6928C107.423 49.1032 107.898 49.334 108.254 49.6274C108.426 49.7582 108.577 49.9144 108.703 50.0907C108.817 50.251 108.895 50.4353 108.985 50.5925C109.045 50.7265 109.133 50.8458 109.244 50.9421C109.355 51.0385 109.485 51.1095 109.626 51.1503C109.838 51.1904 109.947 51.1087 109.937 51.1054C109.839 51.1184 109.739 51.113 109.642 51.0894C109.516 51.0412 109.401 50.9673 109.305 50.8724C109.209 50.7774 109.134 50.6635 109.084 50.5379C109.002 50.3776 108.924 50.1997 108.812 50.0153C108.683 49.8243 108.526 49.6545 108.345 49.512C107.98 49.2026 107.508 48.9621 107.148 48.5805C107.06 48.4885 106.982 48.3869 106.917 48.2776C106.858 48.175 106.853 48.0643 106.917 48.0467C106.981 48.0291 107.103 48.0675 107.215 48.1156L107.548 48.2535L108.708 48.7232C109.039 48.8531 109.309 48.9573 109.495 49.0262C109.589 49.0698 109.69 49.1001 109.793 49.116Z" fill="#547B8E"/>
<path d="M107.752 43.752C107.789 43.9246 107.81 44.0999 107.817 44.2762C107.85 44.6369 107.892 45.0665 107.938 45.541C107.985 46.0156 108.039 46.4436 108.08 46.8043C108.11 46.9779 108.126 47.1538 108.126 47.3301C108.067 47.1637 108.026 46.991 108.006 46.8155C107.95 46.4949 107.886 46.0476 107.834 45.5523C107.783 45.0569 107.752 44.6064 107.741 44.281C107.725 44.1048 107.729 43.9273 107.752 43.752Z" fill="#547B8E"/>
<path d="M107.023 50.7946C107.102 50.7607 107.19 50.7523 107.275 50.7705C107.495 50.7934 107.701 50.89 107.86 51.0446L107.775 51.0799C107.773 50.9599 107.78 50.8399 107.796 50.7208C107.874 50.0251 108.201 49.5425 108.22 49.5602C108.24 49.5778 107.975 50.0635 107.9 50.7336C107.886 50.8486 107.878 50.9641 107.876 51.0799V51.2001L107.792 51.1152C107.649 50.9722 107.467 50.8742 107.268 50.833C107.116 50.8058 107.023 50.8058 107.023 50.7946Z" fill="#547B8E"/>
<path d="M118.083 46.3041C118.083 46.3041 118.023 46.3682 117.922 46.4916C117.762 46.6655 117.636 46.8678 117.55 47.088C117.525 47.1629 117.511 47.2413 117.509 47.3205C117.509 47.4049 117.53 47.488 117.57 47.5625C117.679 47.7271 117.842 47.8484 118.031 47.9056C118.506 48.0544 119.001 48.1243 119.498 48.1124C119.774 48.1124 120.072 48.1284 120.377 48.1461L120.843 48.2006C121.004 48.2182 121.164 48.2615 121.324 48.2903C122.02 48.4324 122.677 48.7245 123.248 49.1464C123.559 49.3788 123.83 49.661 124.049 49.9816C124.105 50.0656 124.155 50.1522 124.202 50.2413C124.248 50.3359 124.28 50.4273 124.319 50.5203C124.39 50.7099 124.444 50.9058 124.479 51.1054C124.64 51.9456 124.507 52.8158 124.102 53.5694C123.684 54.3173 123.012 54.891 122.208 55.1869C121.83 55.3287 121.431 55.4078 121.028 55.421C120.643 55.4231 120.259 55.3768 119.886 55.2831C119.542 55.1945 119.191 55.1318 118.838 55.0956C118.511 55.064 118.182 55.1222 117.886 55.2639C117.613 55.41 117.371 55.6064 117.172 55.8426C116.972 56.067 116.802 56.3027 116.633 56.5255C116.302 56.9728 115.949 57.3672 115.539 57.574C115.35 57.6748 115.141 57.7297 114.928 57.7343C114.75 57.7364 114.573 57.7037 114.407 57.6381C114.275 57.5855 114.153 57.5088 114.049 57.412C113.974 57.3393 113.914 57.2534 113.87 57.1588C113.832 57.0819 113.813 56.9974 113.814 56.9119C113.825 56.9119 113.828 57.0001 113.9 57.1443C113.948 57.231 114.01 57.309 114.083 57.3752C114.185 57.4627 114.303 57.5312 114.429 57.5772C114.602 57.6412 114.788 57.6668 114.972 57.6521C115.156 57.6374 115.334 57.5829 115.495 57.4922C115.88 57.2886 116.215 56.9055 116.539 56.4566C116.699 56.2322 116.872 55.9917 117.076 55.7576C117.282 55.5041 117.534 55.2924 117.82 55.134C118.137 54.978 118.492 54.9115 118.844 54.9416C119.206 54.9767 119.564 55.0383 119.917 55.126C120.277 55.2152 120.648 55.2588 121.02 55.2559C121.403 55.2402 121.782 55.1633 122.142 55.0282C122.908 54.7437 123.549 54.1959 123.948 53.4828C124.335 52.7629 124.463 51.9323 124.311 51.1294C124.274 50.9386 124.22 50.7514 124.15 50.57C124.112 50.4802 124.08 50.3872 124.04 50.3071C123.998 50.223 123.951 50.1416 123.899 50.0634C123.692 49.7568 123.436 49.4861 123.142 49.2618C122.589 48.8497 121.954 48.562 121.279 48.4186C121.119 48.3881 120.959 48.3448 120.81 48.3272L120.351 48.2679C120.05 48.2471 119.761 48.2342 119.481 48.2246C118.972 48.229 118.466 48.1482 117.983 47.9857C117.783 47.9161 117.612 47.7797 117.499 47.5994C117.455 47.5126 117.433 47.4161 117.437 47.3188C117.441 47.2327 117.459 47.1478 117.49 47.0672C117.583 46.8419 117.722 46.6384 117.898 46.4692C117.952 46.4058 118.014 46.3502 118.083 46.3041Z" fill="#0C4D5E"/>
<path d="M130.278 56.9937C130.234 56.8781 130.208 56.7565 130.201 56.633C130.165 56.2966 130.187 55.9567 130.266 55.6278C130.384 55.138 130.596 54.6757 130.89 54.2668C131.248 53.765 131.706 53.3425 132.235 53.026C132.767 52.7206 133.345 52.504 133.947 52.3847C134.435 52.284 134.932 52.233 135.43 52.2324C135.764 52.2288 136.098 52.2453 136.43 52.2821C136.553 52.2871 136.674 52.3087 136.791 52.3463C136.791 52.3751 136.27 52.3174 135.432 52.3463C134.943 52.3643 134.457 52.4266 133.979 52.5322C133.396 52.6589 132.837 52.8753 132.32 53.1735C131.81 53.4786 131.366 53.8825 131.014 54.3614C130.724 54.7514 130.51 55.1917 130.382 55.6599C130.295 55.9762 130.256 56.3036 130.265 56.6314C130.278 56.7517 130.282 56.8728 130.278 56.9937Z" fill="#0C4D5E"/>
<path d="M135.025 48.6511C134.994 48.7677 134.939 48.8768 134.864 48.9717C134.682 49.2431 134.445 49.4736 134.169 49.6482C133.756 49.9082 133.287 50.0634 132.801 50.1003C132.21 50.1403 131.617 50.0646 131.055 49.8774C130.483 49.7109 129.959 49.4072 129.531 48.9925C129.347 48.8061 129.196 48.5892 129.087 48.3513C128.994 48.143 128.935 47.921 128.914 47.694C128.877 47.3653 128.94 47.0331 129.093 46.7402C129.117 46.6949 129.143 46.6515 129.173 46.6103C129.194 46.5785 129.217 46.549 129.244 46.5221C129.284 46.4788 129.308 46.4564 129.313 46.4612C129.318 46.466 129.241 46.567 129.152 46.769C129.03 47.0566 128.989 47.372 129.034 47.6812C129.061 47.8935 129.122 48.1002 129.213 48.2936C129.323 48.5134 129.468 48.7133 129.643 48.8851C130.058 49.2752 130.559 49.561 131.107 49.7187C131.649 49.9002 132.22 49.9779 132.791 49.948C133.256 49.9207 133.707 49.7839 134.108 49.5488C134.378 49.3894 134.617 49.1818 134.813 48.9364C134.879 48.8377 134.949 48.7425 135.025 48.6511Z" fill="#0C4D5E"/>
<path d="M132.83 65.8957C132.83 65.8957 132.822 65.8813 132.812 65.8509C132.802 65.8204 132.788 65.7723 132.77 65.7162C132.735 65.5928 132.684 65.4196 132.618 65.1984L132.073 63.2859C131.618 61.6651 130.993 59.4384 130.31 56.9696C129.967 55.7352 129.641 54.5649 129.348 53.4892C129.2 52.9834 129.086 52.4682 129.006 51.9471C128.939 51.4905 128.939 51.0265 129.006 50.57C129.102 49.9024 129.422 49.2873 129.914 48.8258C130.05 48.7061 130.202 48.6043 130.364 48.5228L130.494 48.4683C130.508 48.4606 130.523 48.4551 130.539 48.4523C130.319 48.5553 130.116 48.6891 129.934 48.8498C129.459 49.3128 129.153 49.922 129.066 50.5796C129.004 51.0305 129.009 51.488 129.08 51.9374C129.161 52.4549 129.277 52.9663 129.426 53.4684C129.724 54.5393 130.053 55.7128 130.398 56.9472C131.079 59.4144 131.696 61.6475 132.144 63.2698C132.363 64.0714 132.54 64.7303 132.665 65.1936C132.722 65.4164 132.769 65.5928 132.801 65.7178C132.815 65.7739 132.827 65.8188 132.835 65.8541C132.835 65.8681 132.833 65.8821 132.83 65.8957Z" fill="#001825"/>
<path d="M126.3 30.3948C126.313 30.2808 126.313 30.1657 126.3 30.0517C126.252 29.7408 126.095 29.457 125.858 29.2502C125.501 28.9487 125.041 28.7976 124.575 28.8285C124.051 28.8285 123.493 29.0049 122.916 29.1989C122.627 29.2934 122.341 29.3848 122.058 29.4473C121.786 29.5075 121.508 29.5414 121.23 29.5483C120.757 29.5607 120.285 29.499 119.832 29.3656C119.528 29.274 119.235 29.1493 118.958 28.9937C118.882 28.953 118.809 28.908 118.738 28.859C118.712 28.8438 118.688 28.8255 118.666 28.8045C118.666 28.8045 118.775 28.8654 118.974 28.9648C119.254 29.1076 119.547 29.222 119.849 29.3063C120.297 29.4297 120.762 29.4838 121.226 29.4666C121.5 29.4574 121.773 29.4231 122.041 29.364C122.318 29.3015 122.6 29.2037 122.89 29.1155C123.466 28.9215 124.035 28.7468 124.574 28.7468C125.056 28.7204 125.529 28.8838 125.891 29.2021C126.133 29.4186 126.288 29.7153 126.327 30.0373C126.346 30.1569 126.337 30.2794 126.3 30.3948Z" fill="#336179"/>
<path d="M128.506 35.1865C128.506 35.1865 128.49 35.1673 128.468 35.1272C128.445 35.0871 128.416 35.0262 128.379 34.946C128.281 34.7197 128.206 34.4839 128.155 34.2423C128.078 33.8822 128.053 33.5129 128.081 33.1457C128.135 32.7011 128.22 32.2608 128.335 31.828C128.446 31.4012 128.446 30.953 128.335 30.5262C128.281 30.3434 128.189 30.1744 128.064 30.0309C127.952 29.9099 127.812 29.8185 127.656 29.7648C127.43 29.6787 127.178 29.685 126.956 29.7824C126.879 29.8254 126.806 29.8764 126.739 29.9347C126.79 29.8579 126.86 29.7955 126.941 29.7535C127.055 29.6973 127.178 29.6644 127.304 29.6567C127.43 29.649 127.556 29.6666 127.676 29.7087C127.843 29.7625 127.994 29.8573 128.115 29.9844C128.249 30.1338 128.349 30.3105 128.408 30.5022C128.525 30.9424 128.525 31.4054 128.408 31.8456C128.294 32.2751 128.208 32.7115 128.15 33.1522C128.12 33.5121 128.138 33.8744 128.205 34.2294C128.25 34.4693 128.316 34.7048 128.402 34.9332C128.471 35.0951 128.512 35.1833 128.506 35.1865Z" fill="#336179"/>
<path d="M126.573 30.1655C126.569 30.1276 126.569 30.0895 126.573 30.0517C126.573 29.9699 126.573 29.8625 126.585 29.7311C126.603 29.3339 126.559 28.9363 126.454 28.5528C126.375 28.2922 126.247 28.0494 126.076 27.8378C125.882 27.5942 125.616 27.4185 125.316 27.336C124.98 27.2581 124.629 27.2725 124.301 27.3777C123.945 27.4898 123.605 27.6443 123.286 27.8378C122.963 28.0329 122.627 28.2053 122.279 28.354C121.948 28.4832 121.597 28.5537 121.242 28.5624C120.922 28.5705 120.602 28.5316 120.293 28.447C120.025 28.3692 119.767 28.2617 119.524 28.1263C119.172 27.9279 118.862 27.6633 118.611 27.3472C118.542 27.2626 118.48 27.1725 118.426 27.0779C118.404 27.0467 118.386 27.0134 118.371 26.9785C118.397 27.0058 118.42 27.0359 118.44 27.0683C118.499 27.1588 118.564 27.245 118.636 27.3264C118.893 27.6289 119.203 27.8821 119.551 28.0734C119.792 28.2022 120.047 28.3038 120.311 28.3764C120.614 28.456 120.927 28.4916 121.241 28.4822C121.586 28.4718 121.927 28.4019 122.249 28.2754C122.592 28.1266 122.925 27.9546 123.244 27.7608C123.569 27.5652 123.917 27.4091 124.279 27.2959C124.621 27.1884 124.986 27.1751 125.335 27.2575C125.65 27.3458 125.928 27.5329 126.128 27.7913C126.304 28.0107 126.434 28.2631 126.51 28.5335C126.613 28.9227 126.649 29.3265 126.617 29.7279C126.609 29.8705 126.598 29.9795 126.589 30.0485C126.588 30.088 126.583 30.1273 126.573 30.1655Z" fill="#336179"/>
</g>
</g>
<g opacity="0.58">
<mask id="mask1_2919_63220" style="mask-type:alpha" maskUnits="userSpaceOnUse" x="184" y="22" width="31" height="32">
<circle cx="199.6" cy="37.954" r="15.4001" fill="#794848"/>
</mask>
<g mask="url(#mask1_2919_63220)">
<rect x="178.04" y="17.7939" width="45.0802" height="40.3202" fill="#E3F2F9"/>
<g filter="url(#filter0_d_2919_63220)">
<path d="M218.295 47.2814L209.045 59.0106L211.163 63.9419C211.163 63.9419 213.7 63.3807 214.47 62.3126C215.24 61.2446 221.574 49.4832 221.574 49.4832L218.295 47.2814Z" fill="#E6EBEE"/>
<path d="M218.295 47.2814L209.045 59.0106L211.163 63.9419C211.163 63.9419 213.7 63.3807 214.47 62.3126C215.24 61.2446 221.574 49.4832 221.574 49.4832L218.295 47.2814Z" fill="url(#paint3_linear_2919_63220)" fill-opacity="0.8" style="mix-blend-mode:color-burn"/>
<path d="M218.295 47.2814L209.045 59.0106L211.163 63.9419C211.163 63.9419 213.7 63.3807 214.47 62.3126C215.24 61.2446 221.574 49.4832 221.574 49.4832L218.295 47.2814Z" fill="#2F3941" fill-opacity="0.15" style="mix-blend-mode:multiply"/>
<path d="M194.814 30.8724C194.148 31.4498 194.15 32.4665 194.227 33.3437C194.304 34.2209 194.363 35.22 193.755 35.8583C193.253 36.3843 192.344 36.6136 192.229 37.3304C192.201 37.4989 192.227 37.6716 192.302 37.825C192.376 37.9783 192.497 38.1047 192.646 38.1868C192.796 38.2689 192.967 38.3027 193.137 38.2834C193.306 38.2642 193.466 38.1929 193.593 38.0793C193.398 38.6454 193.532 39.3527 194.023 39.6959C194.514 40.039 195.336 39.8274 195.489 39.2484C195.464 39.3451 195.459 39.4458 195.475 39.5444C195.491 39.643 195.526 39.7372 195.58 39.8213C195.634 39.9054 195.705 39.9775 195.787 40.0331C195.87 40.0887 195.964 40.1267 196.062 40.1446C196.16 40.1625 196.261 40.1599 196.358 40.1371C196.455 40.1143 196.547 40.0717 196.627 40.012C196.707 39.9523 196.774 39.8768 196.823 39.7901C196.873 39.7034 196.904 39.6075 196.914 39.5082" fill="#263238"/>
<path d="M204.344 36.7933C204.434 37.0081 204.605 37.1786 204.82 37.2671C205.035 37.3557 205.277 37.3552 205.492 37.2656C205.706 37.1761 205.877 37.0049 205.965 36.7897C206.054 36.5745 206.053 36.333 205.964 36.1182C205.812 35.7846 205.451 35.5441 205.415 35.1784C205.374 34.7374 205.824 34.4215 206.217 34.2291C206.61 34.0366 207.085 33.7865 207.128 33.3438C207.171 32.9012 206.788 32.5853 206.469 32.2999C206.15 32.0144 205.828 31.5718 206.031 31.1917C206.132 30.9961 206.342 30.8854 206.479 30.7106C206.779 30.3289 206.621 29.7211 206.238 29.4277C205.855 29.1342 205.326 29.0877 204.848 29.1727C204.37 29.2577 203.921 29.4565 203.456 29.5961C202.685 29.8202 201.876 29.8821 201.08 29.7778C200.284 29.6734 199.518 29.4051 198.831 28.9899" fill="#263238"/>
<path d="M201.505 47.1354C200.676 47.3026 199.815 47.1373 199.108 46.6753C198.4 46.2132 197.902 45.4915 197.722 44.6657L195.446 34.2322C195.304 33.6297 195.284 33.0049 195.388 32.3947C195.492 31.7844 195.717 31.2011 196.05 30.6793C196.383 30.1575 196.817 29.7078 197.327 29.3567C197.836 29.0057 198.411 28.7604 199.018 28.6354L199.255 28.6001C200.414 28.4297 201.595 28.7022 202.563 29.3635C203.53 30.0248 204.213 31.0262 204.475 32.1683C204.982 34.3701 205.513 36.8093 205.673 38.0073C206.005 40.4881 203.588 41.2355 203.588 41.2355L204.023 43.3202C204.109 43.7356 204.112 44.1639 204.032 44.5805C203.952 44.9972 203.791 45.3939 203.557 45.748C203.324 46.1021 203.022 46.4065 202.671 46.6437C202.319 46.881 201.924 47.0464 201.508 47.1306L201.505 47.1354Z" fill="#E6EBEE"/>
<path d="M201.505 47.1354C200.676 47.3026 199.815 47.1373 199.108 46.6753C198.4 46.2132 197.902 45.4915 197.722 44.6657L195.446 34.2322C195.304 33.6297 195.284 33.0049 195.388 32.3947C195.492 31.7844 195.717 31.2011 196.05 30.6793C196.383 30.1575 196.817 29.7078 197.327 29.3567C197.836 29.0057 198.411 28.7604 199.018 28.6354L199.255 28.6001C200.414 28.4297 201.595 28.7022 202.563 29.3635C203.53 30.0248 204.213 31.0262 204.475 32.1683C204.982 34.3701 205.513 36.8093 205.673 38.0073C206.005 40.4881 203.588 41.2355 203.588 41.2355L204.023 43.3202C204.109 43.7356 204.112 44.1639 204.032 44.5805C203.952 44.9972 203.791 45.3939 203.557 45.748C203.324 46.1021 203.022 46.4065 202.671 46.6437C202.319 46.881 201.924 47.0464 201.508 47.1306L201.505 47.1354Z" fill="url(#paint4_linear_2919_63220)" fill-opacity="0.8" style="mix-blend-mode:color-burn"/>
<path d="M201.505 47.1354C200.676 47.3026 199.815 47.1373 199.108 46.6753C198.4 46.2132 197.902 45.4915 197.722 44.6657L195.446 34.2322C195.304 33.6297 195.284 33.0049 195.388 32.3947C195.492 31.7844 195.717 31.2011 196.05 30.6793C196.383 30.1575 196.817 29.7078 197.327 29.3567C197.836 29.0057 198.411 28.7604 199.018 28.6354L199.255 28.6001C200.414 28.4297 201.595 28.7022 202.563 29.3635C203.53 30.0248 204.213 31.0262 204.475 32.1683C204.982 34.3701 205.513 36.8093 205.673 38.0073C206.005 40.4881 203.588 41.2355 203.588 41.2355L204.023 43.3202C204.109 43.7356 204.112 44.1639 204.032 44.5805C203.952 44.9972 203.791 45.3939 203.557 45.748C203.324 46.1021 203.022 46.4065 202.671 46.6437C202.319 46.881 201.924 47.0464 201.508 47.1306L201.505 47.1354Z" fill="#2F3941" fill-opacity="0.15" style="mix-blend-mode:multiply"/>
<path d="M204.029 33.8105C204.043 33.9026 204.021 33.9965 203.967 34.0725C203.913 34.1485 203.832 34.2006 203.74 34.2179C203.696 34.228 203.65 34.2291 203.605 34.2212C203.56 34.2133 203.518 34.1966 203.479 34.1719C203.441 34.1473 203.408 34.1152 203.382 34.0777C203.357 34.0401 203.339 33.9978 203.33 33.9532C203.315 33.8613 203.336 33.7671 203.39 33.691C203.444 33.6148 203.525 33.5628 203.617 33.5459C203.661 33.5358 203.707 33.5346 203.752 33.5425C203.797 33.5504 203.84 33.5671 203.878 33.5917C203.917 33.6164 203.95 33.6484 203.976 33.686C204.002 33.7235 204.02 33.7659 204.029 33.8105Z" fill="#263238"/>
<path d="M204.121 33.4578C204.084 33.5107 203.787 33.3503 203.405 33.408C203.024 33.4658 202.775 33.6951 202.727 33.655C202.703 33.6374 202.737 33.5476 202.844 33.4417C202.992 33.3035 203.179 33.2144 203.38 33.1867C203.577 33.1569 203.78 33.1906 203.957 33.283C204.087 33.3567 204.138 33.4337 204.121 33.4578Z" fill="#263238"/>
<path d="M200.31 34.4198C200.324 34.512 200.302 34.6061 200.248 34.6822C200.195 34.7583 200.113 34.8103 200.021 34.8272C199.977 34.8373 199.931 34.8383 199.886 34.8303C199.841 34.8224 199.798 34.8055 199.76 34.7807C199.722 34.7558 199.689 34.7236 199.663 34.6859C199.638 34.6482 199.62 34.6057 199.611 34.561C199.596 34.469 199.618 34.3751 199.672 34.2992C199.726 34.2234 199.808 34.1717 199.899 34.1552C199.944 34.1449 199.99 34.1436 200.035 34.1514C200.08 34.1592 200.122 34.1759 200.161 34.2006C200.199 34.2253 200.232 34.2574 200.258 34.2951C200.283 34.3327 200.301 34.3752 200.31 34.4198Z" fill="#263238"/>
<path d="M200.39 34.0767C200.353 34.128 200.056 33.9692 199.676 34.0269C199.296 34.0847 199.045 34.314 198.996 34.2739C198.974 34.2563 199.006 34.1665 199.115 34.0606C199.263 33.9224 199.45 33.8333 199.651 33.8056C199.849 33.7758 200.051 33.8095 200.228 33.9019C200.352 33.9708 200.409 34.0526 200.39 34.0767Z" fill="#263238"/>
<path d="M202.184 36.6969C202.184 36.6745 202.41 36.5991 202.786 36.4948C202.882 36.4708 202.97 36.4371 202.977 36.3682C202.97 36.2671 202.933 36.1705 202.871 36.0907C202.743 35.8694 202.611 35.6369 202.475 35.3931C201.921 34.3972 201.512 33.5746 201.546 33.5521C201.58 33.5297 202.067 34.3187 202.621 35.3161L203.005 36.0186C203.083 36.1276 203.121 36.2602 203.111 36.3938C203.101 36.4292 203.084 36.462 203.06 36.4898C203.036 36.5175 203.005 36.5395 202.972 36.5542C202.92 36.5762 202.867 36.5918 202.811 36.6007C202.607 36.6587 202.397 36.691 202.184 36.6969Z" fill="#263238"/>
<path d="M200.271 32.5708C200.249 32.6798 199.861 32.6862 199.423 32.8049C198.985 32.9236 198.642 33.0984 198.568 33.015C198.536 32.9749 198.584 32.8675 198.714 32.7472C198.89 32.5958 199.099 32.4866 199.324 32.428C199.548 32.3693 199.784 32.3628 200.011 32.4088C200.191 32.4505 200.279 32.5275 200.271 32.5708Z" fill="#263238"/>
<path d="M203.819 32.3768C203.765 32.473 203.498 32.4217 203.178 32.4634C202.857 32.5051 202.603 32.6077 202.536 32.5259C202.502 32.4858 202.536 32.3928 202.636 32.2934C202.778 32.1724 202.953 32.0965 203.139 32.0754C203.324 32.0542 203.512 32.0888 203.678 32.1747C203.793 32.2469 203.843 32.3303 203.819 32.3768Z" fill="#263238"/>
<path d="M197.736 31.1226L197.725 31.1354C197.375 31.5042 197.182 31.9938 197.186 32.5017V32.5515C197.186 33.2731 197.316 33.9948 197.314 34.7084C197.312 35.422 197.175 36.1822 196.724 36.7435C196.539 36.976 196.18 37.1684 195.97 36.96C195.896 36.8713 195.849 36.7634 195.834 36.6488C195.452 34.9634 194.766 33.5201 194.508 31.7368C194.472 31.4981 194.493 31.2543 194.571 31.0256C194.648 30.7969 194.779 30.5899 194.952 30.4218C195.285 30.101 195.701 29.7547 196.145 29.891C196.589 30.0273 197.239 30.7249 197.609 31.0135" fill="#263238"/>
<path d="M196.444 35.2297C196.4 35.2169 194.669 34.9748 194.972 36.6602C195.275 38.3457 196.897 37.6946 196.897 37.6449C196.897 37.5952 196.444 35.2297 196.444 35.2297Z" fill="#E6EBEE"/>
<path d="M196.444 35.2297C196.4 35.2169 194.669 34.9748 194.972 36.6602C195.275 38.3457 196.897 37.6946 196.897 37.6449C196.897 37.5952 196.444 35.2297 196.444 35.2297Z" fill="url(#paint5_linear_2919_63220)" fill-opacity="0.8" style="mix-blend-mode:color-burn"/>
<path d="M196.444 35.2297C196.4 35.2169 194.669 34.9748 194.972 36.6602C195.275 38.3457 196.897 37.6946 196.897 37.6449C196.897 37.5952 196.444 35.2297 196.444 35.2297Z" fill="#2F3941" fill-opacity="0.15" style="mix-blend-mode:multiply"/>
<path d="M200.066 38.4914C200.15 38.4551 200.377 39.0194 201.018 39.2229C201.659 39.4264 202.237 39.1244 202.273 39.2017C202.289 39.237 202.184 39.3666 201.932 39.4738C201.604 39.612 201.238 39.6292 200.898 39.5224C200.573 39.4209 200.299 39.1964 200.136 38.8965C200.018 38.6695 200.026 38.5047 200.066 38.4914Z" fill="#001825"/>
<path d="M196.268 37.0996C196.268 37.0996 196.243 37.1252 196.198 37.1557C196.133 37.1985 196.054 37.2146 195.978 37.2006C195.789 37.1669 195.589 36.9119 195.526 36.6088C195.494 36.4658 195.494 36.3173 195.526 36.1742C195.533 36.1188 195.553 36.0658 195.584 36.0197C195.616 35.9736 195.658 35.9359 195.707 35.9096C195.739 35.8945 195.776 35.8912 195.81 35.9003C195.844 35.9094 195.874 35.9303 195.895 35.9594C195.925 36.001 195.92 36.0379 195.93 36.0379C195.94 36.0379 195.961 36.0043 195.93 35.9369C195.913 35.897 195.883 35.8641 195.845 35.8439C195.792 35.8171 195.731 35.8119 195.675 35.8295C195.608 35.8562 195.549 35.8997 195.503 35.9559C195.458 36.012 195.427 36.0789 195.415 36.1502C195.371 36.3068 195.365 36.4718 195.398 36.6313C195.47 36.9697 195.701 37.2551 195.956 37.2824C196.004 37.2874 196.052 37.2817 196.097 37.2656C196.142 37.2495 196.183 37.2235 196.217 37.1894C196.273 37.1397 196.275 37.1012 196.268 37.0996Z" fill="#263238"/>
<path d="M196.125 30.1622C195.609 29.5448 196.606 28.4062 197.408 28.0197C198.21 27.6333 199.365 27.8802 200.237 28.0342C200.787 28.132 201.345 28.2988 201.894 28.1945C202.258 28.1035 202.606 27.958 202.927 27.7632C203.248 27.5718 203.605 27.4469 203.975 27.3959C204.162 27.373 204.351 27.4013 204.522 27.4779C204.694 27.5545 204.841 27.6764 204.949 27.8305C205.14 28.1512 205.007 28.6532 204.647 28.7574C204.756 28.6752 204.882 28.6205 205.016 28.598C205.15 28.5755 205.288 28.5859 205.417 28.6282C205.546 28.6705 205.663 28.7435 205.758 28.8409C205.853 28.9384 205.922 29.0573 205.961 29.1876C206 29.3179 206.006 29.4557 205.98 29.5891C205.954 29.7224 205.895 29.8474 205.81 29.9534C205.725 30.0593 205.615 30.143 205.491 30.1972C205.366 30.2515 205.23 30.2747 205.095 30.2649C205.308 30.0468 205.722 30.2954 205.736 30.6C205.751 30.9047 205.51 31.1629 205.255 31.3249C204.596 31.7387 203.759 31.7595 202.992 31.6216C202.226 31.4837 201.491 31.1982 200.728 31.0411C199.965 30.8839 198.683 30.5856 197.994 30.9497C197.487 31.2159 197.208 31.9119 196.885 31.8172C196.733 31.761 196.595 31.67 196.484 31.5514C196.373 31.4328 196.291 31.2899 196.244 31.1341C196.157 30.8211 196.121 30.4963 196.137 30.1719" fill="#263238"/>
<path d="M192.827 37.98C192.796 37.9727 192.766 37.9597 192.739 37.9415C192.66 37.8905 192.596 37.8183 192.556 37.733C192.494 37.5965 192.475 37.4444 192.502 37.2968C192.543 37.1027 192.65 36.9286 192.803 36.8029C192.985 36.6528 193.191 36.5332 193.411 36.4485C193.659 36.3581 193.897 36.2431 194.121 36.1053C194.357 35.9398 194.536 35.7065 194.636 35.4365C194.746 35.1458 194.796 34.8362 194.785 34.5256C194.769 33.8842 194.591 33.2828 194.548 32.7167C194.505 32.1506 194.577 31.6198 194.817 31.2525C194.998 30.9572 195.285 30.7421 195.619 30.6512C195.709 30.6286 195.801 30.6194 195.893 30.6239C195.926 30.6244 195.957 30.6293 195.988 30.6383C195.866 30.6375 195.745 30.6526 195.627 30.6832C195.31 30.7837 195.04 30.9978 194.87 31.2846C194.647 31.6406 194.57 32.157 194.627 32.7103C194.683 33.2636 194.854 33.8649 194.874 34.524C194.884 34.8459 194.829 35.1666 194.713 35.467C194.606 35.7523 194.414 35.9979 194.163 36.171C193.933 36.3092 193.69 36.4242 193.437 36.5142C193.222 36.5937 193.021 36.7063 192.842 36.8478C192.695 36.9637 192.591 37.125 192.547 37.3064C192.517 37.4445 192.531 37.5883 192.585 37.7186C192.635 37.8301 192.72 37.922 192.827 37.98Z" fill="#455A64"/>
<path d="M204.702 28.7172C204.725 28.7003 204.75 28.6868 204.776 28.6771C204.806 28.6623 204.837 28.65 204.869 28.6402C204.914 28.625 204.959 28.6137 205.006 28.6065C205.158 28.5825 205.313 28.5934 205.46 28.6385C205.608 28.6835 205.743 28.7614 205.855 28.8663C205.97 29.0054 206.055 29.1657 206.107 29.338C206.159 29.5104 206.176 29.6913 206.157 29.8702C206.135 30.0925 206.07 30.3082 205.963 30.5046C205.857 30.701 205.712 30.8741 205.538 31.0136C205.137 31.3365 204.649 31.5325 204.136 31.5765C203.58 31.6244 203.019 31.5904 202.472 31.4755C201.604 31.3056 200.774 30.9842 200.018 30.5261C199.694 30.3257 199.355 30.1504 199.005 30.0017C198.699 29.8776 198.372 29.8107 198.042 29.8045C197.562 29.7941 197.087 29.9043 196.66 30.1252C196.506 30.2115 196.356 30.3063 196.213 30.409C196.341 30.2829 196.486 30.175 196.644 30.0883C197.072 29.8499 197.554 29.7267 198.044 29.7307C198.382 29.7333 198.717 29.798 199.032 29.9215C199.386 30.07 199.729 30.2454 200.057 30.4459C200.807 30.8945 201.63 31.2098 202.488 31.3777C203.027 31.4918 203.579 31.5269 204.128 31.4819C204.625 31.4407 205.099 31.2532 205.49 30.9431C205.658 30.8102 205.798 30.6452 205.901 30.4577C206.005 30.2702 206.07 30.0639 206.093 29.851C206.112 29.6803 206.098 29.5075 206.051 29.3424C206.003 29.1773 205.924 29.0231 205.817 28.8888C205.71 28.7867 205.582 28.7097 205.441 28.6634C205.301 28.6171 205.152 28.6026 205.006 28.6209C204.902 28.6437 204.8 28.6759 204.702 28.7172Z" fill="#455A64"/>
<path d="M203.765 27.314C203.77 27.4428 203.75 27.5715 203.705 27.6924C203.58 28.0266 203.346 28.309 203.041 28.4943C202.836 28.6278 202.609 28.7224 202.369 28.7733C202.095 28.8286 201.814 28.8432 201.535 28.8166C200.947 28.7733 200.331 28.5712 199.685 28.4045C199.038 28.2377 198.392 28.1495 197.834 28.2986C197.339 28.4299 196.898 28.7158 196.577 29.1149C196.356 29.3799 196.192 29.6879 196.096 30.0194C196.032 30.2551 196.024 30.393 196.012 30.3914C196.01 30.3583 196.01 30.3251 196.012 30.292C196.021 30.1974 196.037 30.1037 196.059 30.0113C196.144 29.6694 196.304 29.3503 196.526 29.0764C196.85 28.661 197.3 28.3612 197.808 28.2216C198.386 28.0613 199.05 28.1527 199.699 28.3211C200.349 28.4895 200.96 28.6915 201.535 28.738C201.807 28.7661 202.081 28.7547 202.348 28.7043C202.58 28.6572 202.802 28.5692 203.003 28.4446C203.3 28.2692 203.533 28.0026 203.667 27.6844C203.71 27.5639 203.742 27.44 203.765 27.314Z" fill="#455A64"/>
<path d="M203.584 41.2355C203.584 41.2355 201.968 41.8481 200.395 41.3958C200.395 41.3958 201.581 42.3917 203.746 42.01L203.584 41.2355Z" fill="#E6EBEE"/>
<path d="M203.584 41.2355C203.584 41.2355 201.968 41.8481 200.395 41.3958C200.395 41.3958 201.581 42.3917 203.746 42.01L203.584 41.2355Z" fill="url(#paint6_linear_2919_63220)" fill-opacity="0.8" style="mix-blend-mode:color-burn"/>
<path d="M203.584 41.2355C203.584 41.2355 201.968 41.8481 200.395 41.3958C200.395 41.3958 201.581 42.3917 203.746 42.01L203.584 41.2355Z" fill="#2F3941" fill-opacity="0.15" style="mix-blend-mode:multiply"/>
<path d="M210.543 55.9908L209.228 50.2929C208.725 48.1504 208.128 46.0913 207.126 45.8475V46.5099L207.556 62.7887C207.556 62.7887 210.236 65.8357 213.65 64.1455C214.718 63.6146 216.666 59.8861 216.666 59.8861C216.666 59.8861 221.2 51.7972 221.011 51.4299C220.821 51.0627 218.052 47.4929 217.77 47.3149L210.543 55.9908Z" fill="#D2353C"/>
<path d="M197.011 44.2344C194.397 44.7347 191.454 46.2598 190.099 50.168C189.605 51.5952 186.006 62.1169 186.006 62.1169L192.144 61.9886L193.135 59.8221L192.654 63.3421L192.223 68.623H207.736L207.627 61.0601L207.478 46.0177C207.478 46.0177 207.305 45.7899 204.632 44.3162C202.973 43.4005 197.011 44.2344 197.011 44.2344Z" fill="#D7444B"/>
<path d="M204.633 45.9438L204.582 45.6134L204.087 42.4445C204.072 42.3524 204.024 42.2691 203.951 42.2114C203.877 42.1537 203.785 42.1258 203.692 42.1334L197.59 42.6434C197.406 42.6585 197.235 42.7459 197.115 42.8865C196.995 43.0271 196.935 43.2095 196.949 43.3939L197.085 45.2349L198.99 47.7206L201.734 48.1488" fill="#D7444B"/>
<path d="M207.697 51.9015C207.673 51.9015 207.656 54.384 207.656 57.4454C207.656 60.5068 207.673 62.9893 207.697 62.9893C207.722 62.9893 207.739 60.5068 207.739 57.4454C207.739 54.384 207.72 51.9015 207.697 51.9015Z" fill="#263238"/>
<path d="M192.012 62.4984C192.012 62.4984 192.012 62.4872 192.031 62.4631C192.051 62.4391 192.062 62.399 192.083 62.3541L192.269 61.9323L192.938 60.3752L195.117 55.2258C195.54 54.2187 195.943 53.2597 196.308 52.3857C196.493 51.9763 196.626 51.5452 196.703 51.1027C196.771 50.7161 196.806 50.3245 196.809 49.932C196.829 49.3633 196.747 48.7956 196.565 48.2562L196.515 48.1231L196.459 48.0108C196.433 47.9511 196.401 47.8942 196.363 47.8408L196.296 47.7414C196.288 47.7301 196.279 47.7194 196.27 47.7094C196.375 47.8867 196.464 48.0735 196.535 48.2674C196.702 48.8056 196.775 49.3689 196.749 49.932C196.747 50.7683 196.573 51.5952 196.238 52.3616L195.04 55.1985L192.883 60.3575L192.242 61.9243L192.07 62.3525L192.027 62.4647C192.021 62.4755 192.016 62.4868 192.012 62.4984Z" fill="#263238"/>
<path d="M195.109 44.7941C195.165 44.851 195.225 44.9046 195.287 44.9544C195.467 45.0919 195.664 45.2067 195.872 45.296C196.202 45.4338 196.548 45.5307 196.902 45.5847C197.369 45.6573 197.84 45.7039 198.313 45.7242C198.839 45.7467 199.413 45.737 200.029 45.7483C200.683 45.7472 201.335 45.8269 201.97 45.9856C202.673 46.1517 203.309 46.5269 203.795 47.0617C204.036 47.3529 204.21 47.6949 204.301 48.0624C204.399 48.4392 204.393 48.8356 204.282 49.209C204.221 49.3932 204.13 49.5665 204.014 49.7222C203.897 49.8733 203.75 49.9979 203.581 50.0878C203.418 50.1773 203.231 50.2164 203.046 50.2001C202.864 50.1814 202.696 50.0956 202.574 49.9595C202.466 49.8163 202.389 49.652 202.348 49.4771C202.307 49.3023 202.303 49.1208 202.337 48.9444C202.363 48.7702 202.418 48.6013 202.497 48.444C202.576 48.2906 202.671 48.146 202.781 48.0126C203.21 47.5186 203.787 47.177 204.426 47.0392C204.98 46.9085 205.558 46.9151 206.109 47.0585C206.562 47.1757 206.994 47.3611 207.392 47.6085C207.694 47.7971 207.98 48.0118 208.245 48.25C208.464 48.4424 208.62 48.6092 208.726 48.7183L208.845 48.8466C208.857 48.8619 208.872 48.8759 208.888 48.8882C208.699 48.6497 208.49 48.4281 208.262 48.2259C208 47.983 207.715 47.7651 207.412 47.5748C207.011 47.3197 206.573 47.1282 206.113 47.0071C205.554 46.857 204.965 46.847 204.401 46.9783C203.745 47.1166 203.152 47.4651 202.712 47.9709C202.6 48.1048 202.502 48.2499 202.42 48.4039C202.339 48.5691 202.285 48.7461 202.26 48.9283C202.232 49.1141 202.235 49.3033 202.269 49.488C202.304 49.6803 202.389 49.8601 202.515 50.0092C202.65 50.1605 202.836 50.256 203.038 50.277C203.24 50.2962 203.443 50.2543 203.621 50.1568C203.8 50.0612 203.957 49.9289 204.082 49.7687C204.204 49.6054 204.299 49.4234 204.364 49.2298C204.479 48.8419 204.486 48.4298 204.383 48.0383C204.29 47.658 204.11 47.3042 203.859 47.0039C203.361 46.4583 202.711 46.0754 201.992 45.9054C201.35 45.7485 200.691 45.672 200.031 45.6777C199.413 45.6681 198.839 45.6777 198.316 45.6633C197.846 45.6468 197.376 45.6045 196.91 45.5366C196.558 45.4861 196.214 45.3946 195.884 45.2639C195.676 45.1798 195.479 45.0722 195.297 44.9432C195.232 44.8999 195.189 44.8598 195.157 44.8374C195.142 44.8214 195.126 44.8069 195.109 44.7941Z" fill="#FAFAFA"/>
<path d="M189.805 51.4684C189.828 51.4748 189.851 51.4785 189.874 51.4797C189.919 51.4797 189.985 51.4909 190.072 51.4941C190.314 51.5021 190.556 51.4962 190.798 51.4765C191.104 51.454 191.467 51.4075 191.868 51.3514C192.269 51.2953 192.708 51.2359 193.173 51.2119C193.608 51.1882 194.044 51.2211 194.47 51.3097C194.819 51.3806 195.154 51.5079 195.462 51.6865C195.74 51.8569 195.988 52.0739 196.193 52.328C196.184 52.3066 196.172 52.2866 196.158 52.2687C196.124 52.212 196.085 52.1584 196.042 52.1083C195.887 51.9185 195.701 51.7559 195.492 51.6272C195.182 51.438 194.843 51.3025 194.488 51.2263C194.055 51.1317 193.611 51.0961 193.168 51.1205C192.698 51.1445 192.257 51.2087 191.856 51.268C191.456 51.3273 191.096 51.3802 190.793 51.4091C190.49 51.438 190.242 51.4508 190.072 51.4524C189.983 51.4523 189.894 51.4576 189.805 51.4684Z" fill="#FAFAFA"/>
<path d="M197.069 44.4268C197.092 44.4368 197.117 44.4433 197.142 44.446L197.356 44.4845C197.542 44.515 197.811 44.5551 198.143 44.6C198.81 44.6898 199.734 44.7956 200.759 44.871C201.239 44.9148 201.72 44.9319 202.202 44.9223C202.599 44.9126 202.993 44.8451 203.371 44.7218C203.626 44.6391 203.867 44.5174 204.085 44.361C204.144 44.3191 204.201 44.2736 204.255 44.2247C204.29 44.1894 204.308 44.1718 204.306 44.1686C204.305 44.1654 204.223 44.2327 204.067 44.3289C203.846 44.4714 203.605 44.5825 203.354 44.6593C202.979 44.7733 202.59 44.8337 202.199 44.8389C201.717 44.844 201.235 44.8248 200.756 44.7812C199.734 44.7058 198.81 44.6112 198.143 44.5358L197.353 44.446C197.258 44.433 197.164 44.4265 197.069 44.4268Z" fill="#263238"/>
</g>
</g>
</g>
<mask id="mask2_2919_63220" style="mask-type:alpha" maskUnits="userSpaceOnUse" x="137" y="12" width="50" height="51">
<circle cx="161.917" cy="37.7747" r="24.917" fill="#794848"/>
</mask>
<g mask="url(#mask2_2919_63220)">
<rect opacity="0.6" x="127.033" y="5.15601" width="72.9389" height="65.2373" fill="#BBDDF2"/>
<path d="M154.613 83.6668C155.079 83.6668 151.045 94.5062 150.005 97.275C149.89 97.5814 149.811 97.8512 149.811 97.8512L178.055 97.8984L177.722 71.6172C177.723 71.5998 177.723 71.5823 177.722 71.5648L175.364 52.7675C175.353 52.6764 175.314 52.5907 175.254 52.5213C175.194 52.4519 175.115 52.4017 175.026 52.3772C173.908 52.0759 169.877 51.036 166.793 50.9208C163.181 50.7872 157.953 51.5049 157.953 51.5049C157.953 51.5049 153.256 51.9712 150.663 52.9142C150.562 52.95 150.478 53.0194 150.423 53.1106C150.368 53.2018 150.346 53.3091 150.361 53.4145L154.613 83.6668Z" fill="#D6AD13"/>
<path d="M158.641 23.8796C160.899 21.5797 164.462 20.2124 167.411 21.5221C169.397 22.3918 170.743 24.2542 172.485 25.5404C173.753 26.4781 175.32 27.2037 175.985 28.634C176.572 29.8939 176.289 31.3635 176.147 32.7465C176.006 34.1296 176.105 35.7249 177.177 36.6129C177.737 37.0765 178.487 37.2625 179.113 37.624C180.388 38.3548 181.145 39.7772 181.418 41.2205C181.69 42.6639 181.543 44.1517 181.397 45.616L175.317 46.7738L174.319 45.0947L173.976 47.7273L166.217 48.4267L158.641 23.8796Z" fill="#001825"/>
<path d="M157.638 26.389V28.0786L157.159 53.4377C157.117 56.3768 159.93 58.8784 163.079 58.8993C166.256 58.9203 167.553 56.5418 167.645 53.5635C167.739 50.4489 167.907 47.1693 167.907 47.1693C167.907 47.1693 171.938 46.614 172.915 41.4065C173.4 38.8132 173.386 34.5408 173.263 31.0438C173.237 30.2977 173.061 29.5644 172.744 28.8883C172.427 28.2122 171.977 27.6072 171.42 27.1097C170.863 26.6122 170.212 26.2325 169.504 25.9934C168.797 25.7543 168.048 25.6608 167.304 25.7185L157.638 26.389Z" fill="#E6EBEE"/>
<path d="M157.638 26.389V28.0786L157.159 53.4377C157.117 56.3768 159.93 58.8784 163.079 58.8993C166.256 58.9203 167.553 56.5418 167.645 53.5635C167.739 50.4489 167.907 47.1693 167.907 47.1693C167.907 47.1693 171.938 46.614 172.915 41.4065C173.4 38.8132 173.386 34.5408 173.263 31.0438C173.237 30.2977 173.061 29.5644 172.744 28.8883C172.427 28.2122 171.977 27.6072 171.42 27.1097C170.863 26.6122 170.212 26.2325 169.504 25.9934C168.797 25.7543 168.048 25.6608 167.304 25.7185L157.638 26.389Z" fill="url(#paint7_linear_2919_63220)" fill-opacity="0.8" style="mix-blend-mode:color-burn"/>
<path d="M157.638 26.389V28.0786L157.159 53.4377C157.117 56.3768 159.93 58.8784 163.079 58.8993C166.256 58.9203 167.553 56.5418 167.645 53.5635C167.739 50.4489 167.907 47.1693 167.907 47.1693C167.907 47.1693 171.938 46.614 172.915 41.4065C173.4 38.8132 173.386 34.5408 173.263 31.0438C173.237 30.2977 173.061 29.5644 172.744 28.8883C172.427 28.2122 171.977 27.6072 171.42 27.1097C170.863 26.6122 170.212 26.2325 169.504 25.9934C168.797 25.7543 168.048 25.6608 167.304 25.7185L157.638 26.389Z" fill="#2F3941" fill-opacity="0.15" style="mix-blend-mode:multiply"/>
<path d="M171.859 34.4049C171.857 34.5798 171.785 34.7466 171.661 34.8696C171.537 34.9925 171.369 35.0617 171.194 35.0624C171.108 35.067 171.023 35.0544 170.942 35.0253C170.862 34.9963 170.788 34.9514 170.725 34.8933C170.662 34.8352 170.611 34.765 170.575 34.687C170.54 34.609 170.521 34.5246 170.518 34.439C170.522 34.2641 170.593 34.0973 170.717 33.9741C170.841 33.8509 171.009 33.7809 171.184 33.7789C171.269 33.7743 171.355 33.787 171.436 33.8162C171.517 33.8454 171.591 33.8905 171.654 33.9489C171.717 34.0073 171.768 34.0778 171.803 34.1561C171.838 34.2344 171.857 34.319 171.859 34.4049Z" fill="#001825"/>
<path d="M172.255 33.2313C172.169 33.3178 171.671 32.9248 170.946 32.9091C170.22 32.8934 169.683 33.2366 169.607 33.1449C169.57 33.1056 169.659 32.951 169.895 32.7886C170.213 32.5791 170.589 32.4746 170.969 32.49C171.349 32.4962 171.716 32.6248 172.017 32.8567C172.226 33.0322 172.297 33.192 172.255 33.2313Z" fill="#001825"/>
<path d="M164.74 34.4049C164.736 34.5796 164.665 34.746 164.541 34.8688C164.416 34.9916 164.249 35.0611 164.074 35.0624C163.989 35.067 163.903 35.0544 163.822 35.0253C163.742 34.9963 163.668 34.9514 163.605 34.8933C163.542 34.8352 163.491 34.765 163.456 34.687C163.42 34.609 163.401 34.5246 163.398 34.439C163.402 34.2641 163.473 34.0973 163.597 33.9741C163.722 33.8509 163.889 33.7809 164.064 33.7789C164.15 33.7743 164.235 33.787 164.316 33.8162C164.397 33.8454 164.471 33.8905 164.534 33.9489C164.597 34.0073 164.648 34.0778 164.683 34.1561C164.718 34.2344 164.738 34.319 164.74 34.4049Z" fill="#001825"/>
<path d="M165.146 33.171C165.059 33.2548 164.561 32.8645 163.836 32.8462C163.11 32.8278 162.573 33.1762 162.497 33.0846C162.461 33.0453 162.55 32.8881 162.785 32.7283C163.103 32.5188 163.479 32.4135 163.859 32.4271C164.239 32.434 164.606 32.5626 164.907 32.7938C165.117 32.9719 165.187 33.1317 165.146 33.171Z" fill="#001825"/>
<path d="M167.621 38.6116C167.621 38.5697 168.071 38.5042 168.8 38.4308C168.986 38.4177 169.161 38.3863 169.195 38.2606C169.217 38.0705 169.179 37.8785 169.088 37.7105C168.928 37.2573 168.758 36.7858 168.58 36.2881C167.878 34.2685 167.375 32.6208 167.456 32.5789C167.537 32.537 168.174 34.1689 168.876 36.1912C169.046 36.6889 169.208 37.163 169.36 37.6188C169.472 37.8437 169.499 38.1012 169.436 38.3444C169.408 38.409 169.365 38.4662 169.311 38.5116C169.257 38.557 169.193 38.5894 169.124 38.6063C169.022 38.6318 168.916 38.6433 168.81 38.6404C168.077 38.6535 167.624 38.643 167.621 38.6116Z" fill="#001825"/>
<path d="M167.886 47.1695C165.418 47.1397 163.008 46.4251 160.923 45.1053C160.923 45.1053 162.524 48.749 167.781 48.4033L167.886 47.1695Z" fill="#E6EBEE"/>
<path d="M167.886 47.1695C165.418 47.1397 163.008 46.4251 160.923 45.1053C160.923 45.1053 162.524 48.749 167.781 48.4033L167.886 47.1695Z" fill="url(#paint8_linear_2919_63220)" fill-opacity="0.8" style="mix-blend-mode:color-burn"/>
<path d="M167.886 47.1695C165.418 47.1397 163.008 46.4251 160.923 45.1053C160.923 45.1053 162.524 48.749 167.781 48.4033L167.886 47.1695Z" fill="#2F3941" fill-opacity="0.15" style="mix-blend-mode:multiply"/>
<path d="M165.481 39.0438C165.599 39.0438 165.578 39.8297 166.233 40.4007C166.888 40.9717 167.729 40.9115 167.731 41.0215C167.731 41.0713 167.54 41.1708 167.186 41.1682C166.727 41.1633 166.284 40.9952 165.937 40.6941C165.603 40.4061 165.394 39.9992 165.355 39.5598C165.332 39.2298 165.426 39.0386 165.481 39.0438Z" fill="#001825"/>
<path d="M165.376 31.0678C165.298 31.2616 164.591 31.149 163.729 31.2275C162.867 31.3061 162.186 31.5183 162.079 31.3402C162.031 31.2537 162.155 31.0782 162.437 30.8896C162.813 30.6671 163.234 30.5328 163.67 30.4969C164.105 30.4611 164.542 30.5246 164.949 30.6827C165.256 30.8163 165.408 30.9761 165.376 31.0678Z" fill="#001825"/>
<path d="M172.281 31.7721C172.121 31.9319 171.522 31.7433 170.791 31.7144C170.06 31.6856 169.444 31.7878 169.305 31.6123C169.245 31.5285 169.347 31.366 169.622 31.2194C170.001 31.0346 170.421 30.9533 170.84 30.9836C171.258 30.9974 171.665 31.1222 172.019 31.3451C172.271 31.5206 172.352 31.6935 172.281 31.7721Z" fill="#001825"/>
<path d="M152.234 52.4346C152.234 52.4346 143.81 54.4097 142.175 62.3886C141.424 66.0558 140.373 87.1347 145.282 90.4169C151.619 94.6448 159.689 90.7994 159.689 90.7994L158.641 80.6044H153.402L152.698 69.435C152.902 70.3072 152.234 52.4346 152.234 52.4346Z" fill="#D6AD13"/>
<path d="M182.201 87.5198C183.854 87.3504 185.379 86.5561 186.465 85.2994C187.552 84.0427 188.117 82.4185 188.045 80.759L184.603 66.1345C184.603 66.1345 182.372 53.5872 175.317 52.4556L177.722 71.5777L177.491 75.6091C177.491 75.6091 177.602 78.2757 177.871 83.2737L182.201 87.5198Z" fill="#D6AD13"/>
<path d="M161.379 23.2956C162.327 24.5687 162.778 25.5458 163.346 27.8116C163.626 28.9197 162.723 29.7029 161.827 30.3813C161.73 30.4545 161.617 30.5023 161.498 30.5202C161.378 30.5381 161.256 30.5256 161.142 30.4839C161.029 30.4421 160.927 30.3724 160.848 30.2813C160.768 30.1901 160.713 30.0804 160.687 29.9622C160.687 29.9622 160.996 33.433 159.742 34.989C159.155 35.7198 159.129 36.655 159.267 37.4434C159.425 38.2454 159.815 38.9832 160.389 39.5652C161.845 41.095 162.248 43.5913 161.245 45.4669C160.954 45.9278 160.688 46.4034 160.446 46.8919C160.324 47.1833 160.268 47.4982 160.281 47.8139C160.297 47.9992 160.241 48.1834 160.126 48.3293C160.011 48.4752 159.844 48.5718 159.66 48.5998C155.35 49.2232 150.982 49.3542 146.642 48.9901C146.492 48.9781 146.351 48.9195 146.236 48.8227C146.122 48.7259 146.041 48.5957 146.005 48.4505C145.665 46.994 146.233 45.4223 146.959 44.1126C147.771 42.6326 148.792 41.2128 149.083 39.5495C149.345 37.9778 148.918 36.2961 149.547 34.8344C150.332 33.0453 152.428 32.1992 153.476 30.5568C154.469 29.0087 154.387 26.9786 155.275 25.3703C156.417 23.3009 159.223 22.3474 161.387 23.293" fill="#001825"/>
<path d="M161.62 25.2155C163.268 26.0642 164.03 28.0786 165.63 29.0112C167.087 29.8599 168.905 29.6372 170.573 29.3857C170.513 29.0164 170.45 28.6444 170.387 28.2751C170.537 28.6094 170.747 28.9138 171.006 29.1736C171.137 29.3017 171.301 29.3918 171.479 29.4343C171.658 29.4767 171.844 29.4699 172.019 29.4145C172.58 29.1893 172.653 28.4191 172.512 27.8429C172.256 26.9049 171.753 26.0528 171.055 25.3753C169.809 24.1108 168.15 23.337 166.38 23.1956C164.611 23.0542 162.849 23.5546 161.418 24.6052" fill="#001825"/>
<path d="M177.067 62.5038C177.079 62.5721 177.084 62.6414 177.083 62.7107C177.083 62.8574 177.083 63.0539 177.101 63.3001C177.101 63.824 177.138 64.5548 177.177 65.469C177.253 67.3027 177.423 69.8278 177.63 72.6176C177.837 75.4073 177.992 77.9377 178.042 79.7714C178.068 80.6882 178.081 81.4295 178.073 81.9429C178.073 82.1891 178.073 82.3856 178.073 82.5323C178.079 82.6011 178.079 82.6704 178.073 82.7392C178.061 82.6709 178.056 82.6016 178.057 82.5323C178.057 82.3856 178.057 82.1891 178.039 81.9429C178.039 81.419 178.002 80.6908 177.963 79.774C177.89 77.9403 177.717 75.4178 177.512 72.6254C177.308 69.8331 177.148 67.3079 177.099 65.4743C177.072 64.5575 177.062 63.8135 177.067 63.3001C177.067 63.0539 177.067 62.8574 177.067 62.7107C177.063 62.6418 177.063 62.5727 177.067 62.5038Z" fill="#001825"/>
<path d="M155.231 29.5013C155.483 28.883 155.544 28.2038 155.408 27.5504C155.271 26.8971 154.942 26.2995 154.464 25.834C153.972 25.3846 153.37 25.0736 152.719 24.9328C152.068 24.7919 151.391 24.8263 150.757 25.0324C150.18 25.2062 149.673 25.5583 149.309 26.0383C148.667 26.9237 148.785 28.2282 149.455 29.1005C149.806 29.5226 150.243 29.8651 150.737 30.105C151.231 30.3448 151.77 30.4766 152.318 30.4914C153.418 30.5134 154.508 30.2878 155.509 29.8313" fill="#001825"/>
<path d="M157.146 51.6775C157.146 51.6775 158.416 54.6716 163.001 54.4803C167.585 54.2891 167.731 50.7345 167.731 50.7345L170.799 53.9957L167.886 59.997L163.972 62.9177L158.642 60.7278L154.249 57.3225L157.146 51.6775Z" fill="#D6AD13"/>
<path d="M148.567 61.2466C148.543 61.3147 147.82 61.1104 147.037 60.6258C146.254 60.1412 145.743 59.5937 145.793 59.5413C145.843 59.489 146.419 59.9316 147.179 60.3953C147.938 60.8589 148.588 61.1733 148.567 61.2466Z" fill="#F6F6F8"/>
<path d="M152.496 61.5975C152.559 61.6446 151.972 62.4855 151.32 63.5542C150.668 64.623 150.162 65.5136 150.094 65.4796C150.026 65.4455 150.416 64.492 151.089 63.4102C151.763 62.3283 152.441 61.5503 152.496 61.5975Z" fill="#F6F6F8"/>
<g opacity="0.5">
<path d="M160.962 63.9132C160.921 63.9734 160.109 63.4731 159.218 62.7108C158.327 61.9486 157.704 61.2282 157.756 61.1784C157.809 61.1287 158.513 61.7521 159.396 62.5039C160.279 63.2557 161.007 63.8503 160.962 63.9132Z" fill="#F6F6F8"/>
</g>
<path d="M157.58 56.2591C157.638 56.3089 157.056 57.079 156.302 57.9801C155.548 58.8812 154.872 59.5701 154.814 59.523C154.757 59.4758 155.338 58.7031 156.092 57.802C156.847 56.9009 157.523 56.212 157.58 56.2591Z" fill="#F6F6F8"/>
<g opacity="0.5">
<path d="M153.706 55.4391C153.664 55.5072 153.08 55.206 152.318 54.9519C151.556 54.6978 150.924 54.5747 150.924 54.4961C150.924 54.4175 151.616 54.4228 152.412 54.6926C153.209 54.9624 153.746 55.3763 153.706 55.4391Z" fill="#F6F6F8"/>
</g>
<path d="M163.553 58.9677C163.482 58.9467 163.605 58.3102 163.831 57.5453C164.056 56.7804 164.297 56.1779 164.354 56.1989C164.412 56.2199 164.305 56.8564 164.093 57.6213C163.88 58.3862 163.626 58.9912 163.553 58.9677Z" fill="#F6F6F8"/>
<path d="M165.908 64.9976C165.832 64.9976 165.806 64.3689 165.85 63.6041C165.895 62.8392 165.992 62.2236 166.065 62.2262C166.139 62.2288 166.167 62.8549 166.123 63.6198C166.078 64.3847 165.981 65.0029 165.908 64.9976Z" fill="#F6F6F8"/>
<g opacity="0.5">
<path d="M172.006 60.2223C171.964 60.2852 171.317 59.929 170.62 59.3501C169.924 58.7712 169.452 58.2001 169.505 58.1503C169.557 58.1006 170.107 58.5721 170.793 59.1379C171.48 59.7037 172.048 60.1595 172.006 60.2223Z" fill="#F6F6F8"/>
</g>
<path d="M176.768 54.9049C176.829 54.9468 176.506 55.489 175.951 56.0129C175.396 56.5368 174.833 56.8249 174.793 56.7621C174.754 56.6992 175.225 56.322 175.762 55.8164C176.299 55.3109 176.705 54.8525 176.768 54.9049Z" fill="#F6F6F8"/>
<g opacity="0.5">
<path d="M173.494 54.4071C173.494 54.4804 172.648 54.4202 171.66 54.1661C170.673 53.912 169.897 53.5715 169.924 53.5007C169.95 53.43 170.744 53.6553 171.728 53.9015C172.713 54.1477 173.505 54.3285 173.494 54.4071Z" fill="#F6F6F8"/>
</g>
<g opacity="0.5">
<path d="M179.576 62.8733C179.505 62.8576 179.668 61.8255 180.042 60.6153C180.417 59.4051 180.849 58.4569 180.917 58.4831C180.985 58.5093 180.671 59.4863 180.304 60.6939C179.938 61.9015 179.652 62.889 179.576 62.8733Z" fill="#F6F6F8"/>
</g>
<path d="M153.437 29.5379C153.452 29.517 153.751 29.7737 154.299 30.0618C154.62 30.2353 154.956 30.3816 155.302 30.4993C155.728 30.637 156.167 30.7343 156.612 30.7901C157.056 30.8374 157.505 30.8418 157.95 30.8031C158.315 30.7698 158.676 30.7031 159.029 30.6041C159.632 30.4364 159.978 30.2557 159.991 30.2793C159.917 30.3349 159.837 30.3815 159.752 30.4181C159.657 30.4689 159.559 30.5136 159.459 30.5517C159.327 30.6076 159.192 30.6566 159.056 30.6984C158.7 30.8109 158.334 30.8881 157.963 30.9289C157.509 30.976 157.05 30.976 156.596 30.9289C156.143 30.8727 155.697 30.7691 155.265 30.6198C154.914 30.4958 154.575 30.3379 154.254 30.1483C154.115 30.0723 153.992 29.9859 153.895 29.9151C153.803 29.8547 153.716 29.7882 153.633 29.7161C153.502 29.6113 153.429 29.5458 153.437 29.5379Z" fill="#336179"/>
<path d="M160.203 32.553C160.111 32.5923 160.016 32.6213 159.917 32.6394C159.731 32.6865 159.462 32.7494 159.132 32.807C158.246 32.9801 157.336 32.9854 156.449 32.8228C155.555 32.6498 154.741 32.19 154.131 31.513C153.952 31.3045 153.804 31.0716 153.691 30.8215C153.645 30.7327 153.613 30.6372 153.597 30.5386C153.762 30.8654 153.966 31.1714 154.204 31.4502C154.815 32.0917 155.609 32.5282 156.478 32.6996C157.351 32.8564 158.243 32.8643 159.118 32.7232C159.456 32.6761 159.729 32.6289 159.904 32.5975C160.002 32.571 160.102 32.5561 160.203 32.553Z" fill="#336179"/>
<path d="M150.875 48.5839C150.862 48.5728 150.851 48.5605 150.841 48.5472C150.822 48.521 150.788 48.4843 150.752 48.4293C150.65 48.2694 150.58 48.0916 150.545 47.9054C150.492 47.5588 150.516 47.2049 150.615 46.8686C150.714 46.5323 150.886 46.2219 151.118 45.9592C151.438 45.5995 151.807 45.2881 152.216 45.0345C152.645 44.7516 153.127 44.4923 153.602 44.1727C154.104 43.8549 154.533 43.4344 154.862 42.9389C155.026 42.6759 155.133 42.3814 155.176 42.0745C155.217 41.7562 155.2 41.4333 155.126 41.121C154.954 40.5025 154.732 39.899 154.463 39.3162C154.209 38.7599 154.058 38.1614 154.021 37.5507C153.99 36.5103 154.306 35.4891 154.919 34.6483C155.318 34.0779 155.847 33.6109 156.462 33.2862L156.755 33.1447L156.981 33.0661C157.042 33.0421 157.105 33.0237 157.169 33.0111C157.112 33.0431 157.053 33.0703 156.991 33.0923L156.774 33.184L156.488 33.3333C155.893 33.6701 155.383 34.1387 154.998 34.7033C154.411 35.5322 154.112 36.5305 154.146 37.5454C154.186 38.1404 154.336 38.7229 154.586 39.2638C154.861 39.8555 155.086 40.4688 155.26 41.0974C155.335 41.4255 155.352 41.7642 155.309 42.0981C155.265 42.4237 155.151 42.7362 154.977 43.0149C154.635 43.5257 154.189 43.9579 153.667 44.2827C153.185 44.6023 152.7 44.859 152.273 45.1367C151.871 45.3796 151.506 45.6796 151.189 46.0273C150.962 46.2789 150.791 46.5762 150.688 46.8992C150.585 47.2222 150.552 47.5635 150.592 47.9002C150.639 48.1447 150.736 48.3772 150.875 48.5839Z" fill="#336179"/>
<path d="M157.853 48.6783C157.799 48.6555 157.748 48.6265 157.701 48.5919C157.565 48.4939 157.45 48.3691 157.363 48.2252C157.228 47.9949 157.148 47.7369 157.127 47.4708C157.1 47.1174 157.139 46.7619 157.243 46.423C157.455 45.6555 158.097 44.9561 158.579 44.0654C158.841 43.6119 158.978 43.0964 158.974 42.5723C158.947 42.0101 158.804 41.4597 158.552 40.9561C158.055 39.9083 157.29 39.0649 156.761 38.19C156.501 37.7809 156.293 37.3409 156.142 36.8802C156.016 36.4722 155.972 36.0428 156.014 35.6176C156.055 34.9953 156.328 34.4109 156.779 33.9805C156.905 33.8733 157.046 33.7851 157.198 33.7185C157.25 33.6934 157.304 33.6741 157.36 33.6609C157.163 33.7587 156.979 33.882 156.813 34.0276C156.392 34.4603 156.143 35.0308 156.111 35.6334C156.076 36.0456 156.124 36.4607 156.252 36.854C156.402 37.3073 156.609 37.7395 156.868 38.1402C157.13 38.5672 157.455 38.9941 157.777 39.4499C158.121 39.9112 158.422 40.4031 158.675 40.9194C158.937 41.4401 159.085 42.0109 159.108 42.5933C159.109 43.1388 158.965 43.6748 158.691 44.1466C158.188 45.0399 157.546 45.7183 157.334 46.4623C157.23 46.7878 157.186 47.1294 157.203 47.4708C157.218 47.7271 157.287 47.9773 157.408 48.2042C157.521 48.3919 157.673 48.5534 157.853 48.6783Z" fill="#336179"/>
<path d="M168.19 29.0139C168.19 29.0139 168.153 29.0139 168.09 28.972C167.999 28.9228 167.912 28.8677 167.828 28.807C167.528 28.5749 167.274 28.2899 167.076 27.9662C166.79 27.4878 166.547 26.9846 166.351 26.4626C166.23 26.1744 166.089 25.8732 165.942 25.5772C165.778 25.2714 165.585 24.9819 165.366 24.7128C164.584 23.7634 163.525 23.0812 162.338 22.7613C161.844 22.6422 161.339 22.5703 160.832 22.5465C160.967 22.5237 161.105 22.5158 161.243 22.5229C161.62 22.5325 161.994 22.5808 162.361 22.667C163.582 22.9668 164.673 23.6543 165.471 24.6263C165.697 24.9026 165.896 25.2 166.065 25.5143C166.225 25.8182 166.351 26.1247 166.469 26.4154C166.659 26.9334 166.89 27.4353 167.16 27.9164C167.348 28.2354 167.586 28.522 167.865 28.7651C168.067 28.9354 168.198 29.0035 168.19 29.0139Z" fill="#336179"/>
<path d="M171.844 28.993C171.796 28.9947 171.749 28.9894 171.702 28.9772C171.568 28.9564 171.437 28.9222 171.309 28.8751C170.838 28.7007 170.412 28.4243 170.06 28.0657C169.543 27.535 169.107 26.9313 168.766 26.2739C168.355 25.5536 167.957 24.7258 167.341 24.0055C166.754 23.3322 165.98 22.8497 165.117 22.6198C164.412 22.4324 163.686 22.3347 162.956 22.329C162.33 22.3159 161.824 22.329 161.473 22.3552L161.07 22.3709C161.023 22.3773 160.975 22.3773 160.929 22.3709C160.973 22.3565 161.02 22.3486 161.067 22.3474L161.471 22.3054C161.819 22.2766 162.327 22.2347 162.956 22.2373C163.696 22.2274 164.434 22.3154 165.151 22.4993C166.041 22.7293 166.841 23.2245 167.443 23.919C168.077 24.6603 168.473 25.4907 168.873 26.2163C169.206 26.8663 169.628 27.466 170.128 27.9976C170.465 28.3555 170.874 28.6384 171.328 28.8279C171.653 28.9537 171.846 28.9772 171.844 28.993Z" fill="#336179"/>
<path d="M178.028 45.993C178.015 45.993 178.097 45.807 178.183 45.4691C178.309 44.9872 178.362 44.4893 178.34 43.9917C178.315 43.2536 178.125 42.5305 177.785 41.8752C177.582 41.4908 177.33 41.1343 177.036 40.8143C176.732 40.4764 176.383 40.1568 176.035 39.8215C175.683 39.4991 175.358 39.1487 175.063 38.7737C174.792 38.4223 174.558 38.044 174.364 37.6447C174.037 36.9671 173.828 36.2391 173.746 35.4915C173.688 34.989 173.693 34.4813 173.761 33.9801C173.776 33.8443 173.8 33.7095 173.832 33.5767C173.839 33.5289 173.852 33.4822 173.871 33.4379C173.884 33.4379 173.843 33.6343 173.814 33.988C173.766 34.4842 173.775 34.9842 173.84 35.4784C173.938 36.2117 174.153 36.9245 174.476 37.5897C174.67 37.9793 174.902 38.3487 175.168 38.6925C175.461 39.0579 175.782 39.4003 176.127 39.7167C176.478 40.052 176.826 40.3742 177.135 40.72C177.435 41.0491 177.691 41.4164 177.895 41.8123C178.239 42.4854 178.424 43.2282 178.437 43.9839C178.45 44.49 178.382 44.9949 178.235 45.4796C178.197 45.6114 178.149 45.7402 178.091 45.8646C178.077 45.9104 178.056 45.9536 178.028 45.993Z" fill="#336179"/>
<path d="M149.332 28.786C149.331 28.6976 149.343 28.6095 149.366 28.5241C149.419 28.2964 149.503 28.077 149.615 27.8718C149.802 27.5238 150.061 27.2193 150.374 26.9783C150.687 26.7373 151.048 26.5652 151.432 26.4735C151.817 26.3817 152.216 26.3723 152.605 26.4458C152.993 26.5193 153.361 26.6741 153.686 26.9C153.882 27.0304 154.058 27.1883 154.209 27.3689C154.27 27.4319 154.32 27.5044 154.356 27.5837C154.135 27.3595 153.892 27.1578 153.631 26.9812C153.314 26.7751 152.958 26.6356 152.586 26.5713C152.213 26.507 151.832 26.5192 151.464 26.6072C151.096 26.6952 150.75 26.8571 150.447 27.0831C150.144 27.309 149.891 27.5944 149.701 27.9216C149.551 28.1972 149.427 28.4867 149.332 28.786Z" fill="#336179"/>
<path d="M151.87 29.8887C151.868 29.6881 151.893 29.4882 151.944 29.2941C152.024 28.8081 152.239 28.3544 152.564 27.9843C152.743 27.8059 152.966 27.6791 153.21 27.6173C153.455 27.5555 153.711 27.561 153.953 27.6333C154.098 27.6859 154.226 27.7763 154.325 27.8953C154.39 27.9791 154.409 28.0367 154.403 28.0394C154.27 27.9009 154.106 27.7959 153.924 27.7329C153.701 27.6797 153.467 27.6845 153.246 27.7468C153.025 27.8092 152.824 27.927 152.661 28.0891C152.355 28.4444 152.14 28.8701 152.038 29.3281C151.999 29.5197 151.943 29.7074 151.87 29.8887Z" fill="#336179"/>
<path d="M155.199 26.0511C154.937 26.5103 154.707 26.9874 154.511 27.4788C154.359 27.9849 154.24 28.5003 154.154 29.0216C154.096 27.9318 154.473 26.8635 155.202 26.0511H155.199Z" fill="#4CA4DE"/>
</g>
<defs>
<filter id="filter0_d_2919_63220" x="164.302" y="24.509" width="70.4505" height="60.9441" filterUnits="userSpaceOnUse" color-interpolation-filters="sRGB">
<feFlood flood-opacity="0" result="BackgroundImageFix"/>
<feColorMatrix in="SourceAlpha" type="matrix" values="0 0 0 0 0 0 0 0 0 0 0 0 0 0 0 0 0 0 127 0" result="hardAlpha"/>
<feOffset dy="7.01252"/>
<feGaussianBlur stdDeviation="4.90876"/>
<feColorMatrix type="matrix" values="0 0 0 0 0.184314 0 0 0 0 0.223529 0 0 0 0 0.254902 0 0 0 0.15 0"/>
<feBlend mode="normal" in2="BackgroundImageFix" result="effect1_dropShadow_2919_63220"/>
<feBlend mode="normal" in="SourceGraphic" in2="effect1_dropShadow_2919_63220" result="shape"/>
</filter>
<linearGradient id="paint0_linear_2919_63220" x1="130.16" y1="31.3016" x2="128.503" y2="40.237" gradientUnits="userSpaceOnUse">
<stop offset="0.213542" stop-color="#323444"/>
<stop offset="0.6875" stop-color="#2F3941" stop-opacity="0.291667"/>
<stop offset="1" stop-color="#2F3941" stop-opacity="0"/>
</linearGradient>
<linearGradient id="paint1_linear_2919_63220" x1="123.719" y1="41.5772" x2="123.285" y2="44.0113" gradientUnits="userSpaceOnUse">
<stop offset="0.213542" stop-color="#323444"/>
<stop offset="0.6875" stop-color="#2F3941" stop-opacity="0.291667"/>
<stop offset="1" stop-color="#2F3941" stop-opacity="0"/>
</linearGradient>
<linearGradient id="paint2_linear_2919_63220" x1="113.091" y1="38.1197" x2="95.3581" y2="58.7094" gradientUnits="userSpaceOnUse">
<stop offset="0.213542" stop-color="#323444"/>
<stop offset="0.6875" stop-color="#2F3941" stop-opacity="0.291667"/>
<stop offset="1" stop-color="#2F3941" stop-opacity="0"/>
</linearGradient>
<linearGradient id="paint3_linear_2919_63220" x1="211.054" y1="44.1517" x2="220.153" y2="62.8986" gradientUnits="userSpaceOnUse">
<stop offset="0.213542" stop-color="#323444"/>
<stop offset="0.6875" stop-color="#2F3941" stop-opacity="0.291667"/>
<stop offset="1" stop-color="#2F3941" stop-opacity="0"/>
</linearGradient>
<linearGradient id="paint4_linear_2919_63220" x1="196.987" y1="25.0474" x2="208.876" y2="43.1795" gradientUnits="userSpaceOnUse">
<stop offset="0.213542" stop-color="#323444"/>
<stop offset="0.6875" stop-color="#2F3941" stop-opacity="0.291667"/>
<stop offset="1" stop-color="#2F3941" stop-opacity="0"/>
</linearGradient>
<linearGradient id="paint5_linear_2919_63220" x1="195.251" y1="34.7225" x2="196.668" y2="37.65" gradientUnits="userSpaceOnUse">
<stop offset="0.213542" stop-color="#323444"/>
<stop offset="0.6875" stop-color="#2F3941" stop-opacity="0.291667"/>
<stop offset="1" stop-color="#2F3941" stop-opacity="0"/>
</linearGradient>
<linearGradient id="paint6_linear_2919_63220" x1="200.932" y1="41.0736" x2="201.044" y2="42.2612" gradientUnits="userSpaceOnUse">
<stop offset="0.213542" stop-color="#323444"/>
<stop offset="0.6875" stop-color="#2F3941" stop-opacity="0.291667"/>
<stop offset="1" stop-color="#2F3941" stop-opacity="0"/>
</linearGradient>
<linearGradient id="paint7_linear_2919_63220" x1="170.742" y1="19.4658" x2="148.596" y2="49.0321" gradientUnits="userSpaceOnUse">
<stop offset="0.213542" stop-color="#323444"/>
<stop offset="0.6875" stop-color="#2F3941" stop-opacity="0.291667"/>
<stop offset="1" stop-color="#2F3941" stop-opacity="0"/>
</linearGradient>
<linearGradient id="paint8_linear_2919_63220" x1="166.769" y1="44.4815" x2="165.989" y2="48.9628" gradientUnits="userSpaceOnUse">
<stop offset="0.213542" stop-color="#323444"/>
<stop offset="0.6875" stop-color="#2F3941" stop-opacity="0.291667"/>
<stop offset="1" stop-color="#2F3941" stop-opacity="0"/>
</linearGradient>
</defs>
</svg>
