<svg width="16" height="16" viewBox="0 0 16 16" fill="none" xmlns="http://www.w3.org/2000/svg">
<path d="M13.8333 4.65967C13.74 4.29301 13.3733 4.07967 13.0066 4.15967C11.42 4.51301 9.65331 4.66634 7.99998 4.66634C6.34664 4.66634 4.57998 4.51301 2.99331 4.15967C2.62664 4.07967 2.25998 4.29301 2.16664 4.65967C2.07331 5.03301 2.29998 5.41301 2.66664 5.49967C3.73998 5.73967 4.89998 5.90634 5.99998 5.99967V13.9997C5.99998 14.3663 6.29998 14.6663 6.66664 14.6663C7.03331 14.6663 7.33331 14.3663 7.33331 13.9997V10.6663H8.66664V13.9997C8.66664 14.3663 8.96664 14.6663 9.33331 14.6663C9.69998 14.6663 9.99998 14.3663 9.99998 13.9997V5.99967C11.1 5.90634 12.26 5.73967 13.3266 5.49967C13.7 5.41301 13.9266 5.03301 13.8333 4.65967ZM7.99998 3.99967C8.73331 3.99967 9.33331 3.39967 9.33331 2.66634C9.33331 1.93301 8.73331 1.33301 7.99998 1.33301C7.26664 1.33301 6.66664 1.93301 6.66664 2.66634C6.66664 3.39967 7.26664 3.99967 7.99998 3.99967Z" fill="currentColor"/>
</svg>
