<svg width="16" height="16" viewBox="0 0 16 16" fill="none" xmlns="http://www.w3.org/2000/svg">
<path fill-rule="evenodd" clip-rule="evenodd" d="M10.1711 2.57586L0.141837 12.606C0.0501124 12.7011 -0.000784821 12.8284 9.15144e-06 12.9606V15.4934C9.15144e-06 15.7771 0.222882 16 0.506538 16H3.03918C3.17088 16 3.30258 15.9493 3.39375 15.848L13.423 5.81792L10.1711 2.57586ZM15.7024 2.10981L13.889 0.296288C13.6997 0.106599 13.4428 0 13.1748 0C12.9069 0 12.6499 0.106599 12.4606 0.296288L10.9005 1.85653L14.1524 5.10872L15.7125 3.54848C16.0975 3.15335 16.0975 2.50494 15.7024 2.10981Z" fill="currentColor"/>
</svg>
