<svg width="16" height="16" viewBox="0 0 16 16" fill="none" xmlns="http://www.w3.org/2000/svg">
<path d="M8.30541 1.81951C8.3541 1.61445 8.6459 1.61445 8.69459 1.81951L9.18382 3.8799C9.64756 5.83075 11.1693 7.35244 13.1201 7.81618L15.1805 8.30541C15.3855 8.3541 15.3855 8.6459 15.1805 8.69459L13.1201 9.18382C11.1693 9.64756 9.64756 11.1693 9.18382 13.1201L8.69459 15.1805C8.6459 15.3855 8.3541 15.3855 8.30541 15.1805L7.81618 13.1201C7.35244 11.1693 5.83075 9.64756 3.8799 9.18382L1.81951 8.69459C1.61445 8.6459 1.61445 8.3541 1.81951 8.30541L3.8799 7.81618C5.83075 7.35244 7.35244 5.83075 7.81618 3.8799L8.30541 1.81951Z" fill="#17405C"/>
<path d="M2.90271 0.409083C2.92709 0.306598 3.07291 0.306598 3.09729 0.409083L3.27395 1.15195C3.46033 1.93338 4.06886 2.54192 4.84805 2.72605L5.59092 2.90271C5.6934 2.92709 5.6934 3.07291 5.59092 3.09729L4.84805 3.27395C4.06662 3.46033 3.45808 4.06886 3.27395 4.84805L3.09729 5.59092C3.07291 5.6934 2.92709 5.6934 2.90271 5.59092L2.72605 4.84805C2.53967 4.06662 1.93114 3.45808 1.15195 3.27395L0.409083 3.09729C0.306598 3.07291 0.306598 2.92709 0.409083 2.90271L1.15195 2.72605C1.93338 2.53967 2.54192 1.93114 2.72605 1.15195L2.90271 0.409083Z" fill="#17405C"/>
</svg>
