<svg width="16" height="16" viewBox="0 0 16 16" fill="none" xmlns="http://www.w3.org/2000/svg">
<path fill-rule="evenodd" clip-rule="evenodd" d="M15.5 3C15.7455 3 15.9496 3.17688 15.9919 3.41012L16 3.5V7.5C16 7.91576 15.5308 8.1378 15.2122 7.90947L15.1464 7.85355L13.854 6.561L9.70711 10.7071C9.34662 11.0676 8.77939 11.0953 8.3871 10.7903L8.29289 10.7071L6 8.415L1.70711 12.7071C1.34662 13.0676 0.779392 13.0953 0.387101 12.7903L0.292893 12.7071C-0.0675907 12.3466 -0.0953203 11.7794 0.209705 11.3871L0.292893 11.2929L5.29289 6.29289C5.65338 5.93241 6.22061 5.90468 6.6129 6.2097L6.70711 6.29289L9 8.585L12.439 5.146L11.1464 3.85355C10.8525 3.55957 11.0272 3.07082 11.414 3.00696L11.5 3H15.5Z" fill="currentColor"/>
</svg>
