<svg width="10" height="12" viewBox="0 0 10 12" fill="none" xmlns="http://www.w3.org/2000/svg">
<path fill-rule="evenodd" clip-rule="evenodd" d="M1 1.00003H6V3.00003C6 3.55617 6.44386 4.00003 7 4.00003H9V11H1V1.00003ZM10 11V3.52801C10.0013 3.50707 10.0013 3.486 10 3.46493V3.21003C10 2.92994 9.89131 2.67452 9.68448 2.48838L7.49355 0.296472C7.32673 0.11008 7.0626 2.58214e-05 6.79 2.58214e-05H6.53509C6.51402 -0.00131961 6.49295 -0.00130174 6.47202 2.58214e-05H1C0.443858 2.58214e-05 0 0.443883 0 1.00003V11C0 11.5562 0.443858 12 1 12H9C9.55614 12 10 11.5562 10 11ZM8.29289 3.00003H7V1.70713L8.29289 3.00003ZM4.47166 7.60992C4.3676 7.49429 4.22184 7.43852 4.07769 7.44487C3.94248 7.43894 3.80532 7.4876 3.70208 7.59084L2.14645 9.14647C1.95118 9.34173 1.95118 9.65832 2.14645 9.85358C2.34171 10.0488 2.65829 10.0488 2.85355 9.85358L4.05988 8.64725L5.12564 9.83149C5.12953 9.83587 5.1335 9.8402 5.13756 9.84447C5.23292 9.94491 5.36073 9.99728 5.48985 9.99992C5.56173 10.0014 5.63403 9.98746 5.70136 9.95784C5.75292 9.93517 5.80145 9.90337 5.84447 9.86244L5.85633 9.85081L6.5 9.20713L7.14645 9.85358C7.34171 10.0488 7.65829 10.0488 7.85355 9.85358C8.04882 9.65832 8.04882 9.34173 7.85355 9.14647L6.85355 8.14647C6.65829 7.95121 6.34171 7.95121 6.14645 8.14647L5.51911 8.77381L4.47166 7.60992ZM7 7.00003C7.55228 7.00003 8 6.55231 8 6.00003C8 5.44774 7.55228 5.00003 7 5.00003C6.44772 5.00003 6 5.44774 6 6.00003C6 6.55231 6.44772 7.00003 7 7.00003Z" fill="currentColor"/>
</svg>
