<svg width="64" height="64" viewBox="0 0 64 64" fill="none" xmlns="http://www.w3.org/2000/svg">
<g clip-path="url(#paint0_diamond_786_12701_clip_path)" data-figma-skip-parse="true"><g transform="matrix(8.22683e-10 -0.098 0.199972 1.57315e-09 32 72.5)"><rect x="0" y="0" width="746.743" height="163.427" fill="url(#paint0_diamond_786_12701)" opacity="1" shape-rendering="crispEdges"/><rect x="0" y="0" width="746.743" height="163.427" transform="scale(1 -1)" fill="url(#paint0_diamond_786_12701)" opacity="1" shape-rendering="crispEdges"/><rect x="0" y="0" width="746.743" height="163.427" transform="scale(-1 1)" fill="url(#paint0_diamond_786_12701)" opacity="1" shape-rendering="crispEdges"/><rect x="0" y="0" width="746.743" height="163.427" transform="scale(-1)" fill="url(#paint0_diamond_786_12701)" opacity="1" shape-rendering="crispEdges"/></g></g><rect width="64" height="64" rx="9.53191" data-figma-gradient-fill="{&#34;type&#34;:&#34;GRADIENT_DIAMOND&#34;,&#34;stops&#34;:[{&#34;color&#34;:{&#34;r&#34;:0.58747267723083496,&#34;g&#34;:0.80692964792251587,&#34;b&#34;:0.94247668981552124,&#34;a&#34;:1.0},&#34;position&#34;:0.0},{&#34;color&#34;:{&#34;r&#34;:1.0,&#34;g&#34;:1.0,&#34;b&#34;:1.0,&#34;a&#34;:1.0},&#34;position&#34;:1.0}],&#34;stopsVar&#34;:[{&#34;color&#34;:{&#34;r&#34;:0.58747267723083496,&#34;g&#34;:0.80692964792251587,&#34;b&#34;:0.94247668981552124,&#34;a&#34;:1.0},&#34;position&#34;:0.0},{&#34;color&#34;:{&#34;r&#34;:1.0,&#34;g&#34;:1.0,&#34;b&#34;:1.0,&#34;a&#34;:1.0},&#34;position&#34;:1.0}],&#34;transform&#34;:{&#34;m00&#34;:1.6453659554827027e-06,&#34;m01&#34;:399.94500732421875,&#34;m02&#34;:-167.97248840332031,&#34;m10&#34;:-195.99998474121094,&#34;m11&#34;:3.1462930110137677e-06,&#34;m12&#34;:170.49998474121094},&#34;opacity&#34;:1.0,&#34;blendMode&#34;:&#34;NORMAL&#34;,&#34;visible&#34;:true}"/>
<circle cx="33.5893" cy="32.3174" r="22.5674" fill="#0E4776"/>
<g filter="url(#filter0_d_786_12701)">
<path d="M21.3001 32.5983L25.8518 26.2448C26.1046 25.8918 26.4266 25.617 26.8177 25.4202C27.2087 25.2235 27.6291 25.1336 28.0787 25.1505L29.8357 25.236C28.8971 26.8146 28.1866 28.2227 27.704 29.4603C27.2214 30.6979 26.8011 32.1709 26.4431 33.8792L21.3001 32.5983ZM28.4896 34.4869C28.7246 32.843 29.1537 31.2571 29.7769 29.7292C30.4001 28.2013 31.2174 26.7314 32.2289 25.3195C33.8184 23.1008 35.7616 21.3216 38.0587 19.9817C40.3557 18.6419 42.601 17.9852 44.7947 18.0116C45.5254 20.0802 45.6313 22.4166 45.1124 25.0208C44.5936 27.6249 43.5394 30.0364 41.95 32.2551C40.9566 33.6418 39.8277 34.8885 38.5634 35.9953C37.2991 37.1021 35.9265 38.0311 34.4455 38.7824L28.4896 34.4869ZM36.8293 29.1303C37.4142 29.5493 38.0708 29.7002 38.7993 29.583C39.5278 29.4659 40.0997 29.1173 40.5152 28.5374C40.9306 27.9576 41.0766 27.3039 40.9532 26.5765C40.8298 25.849 40.4757 25.2758 39.8908 24.8568C39.306 24.4378 38.6493 24.2869 37.9208 24.404C37.1924 24.5212 36.6204 24.8697 36.205 25.4496C35.7895 26.0295 35.6435 26.6832 35.7669 27.4106C35.8903 28.1381 36.2444 28.7113 36.8293 29.1303ZM38.5735 44.9444L35.6738 40.4921C37.1761 39.6035 38.441 38.7309 39.4685 37.8741C40.496 37.0173 41.6061 35.8907 42.7989 34.4943L43.4124 36.1356C43.573 36.5559 43.624 36.9882 43.5654 37.4326C43.5068 37.8771 43.351 38.2758 43.0981 38.6287L38.5735 44.9444ZM24.5977 39.3959C25.2298 38.5135 26.0886 37.9794 27.1741 37.7937C28.2595 37.6079 29.2472 37.8339 30.1373 38.4715C31.0273 39.1091 31.5644 39.9707 31.7485 41.0565C31.9327 42.1422 31.7087 43.1263 31.0765 44.0088C30.625 44.6391 29.7963 45.252 28.5905 45.8474C27.3846 46.4429 25.6876 47.0728 23.4994 47.737C23.4244 45.4514 23.4759 43.6474 23.6537 42.325C23.8314 41.0026 24.1461 40.0262 24.5977 39.3959Z" fill="white"/>
</g>
<defs>
<clipPath id="paint0_diamond_786_12701_clip_path"><rect width="64" height="64" rx="9.53191"/></clipPath><filter id="filter0_d_786_12701" x="12.9264" y="13.8248" width="40.883" height="46.4724" filterUnits="userSpaceOnUse" color-interpolation-filters="sRGB">
<feFlood flood-opacity="0" result="BackgroundImageFix"/>
<feColorMatrix in="SourceAlpha" type="matrix" values="0 0 0 0 0 0 0 0 0 0 0 0 0 0 0 0 0 0 127 0" result="hardAlpha"/>
<feOffset dy="4.18695"/>
<feGaussianBlur stdDeviation="4.18695"/>
<feColorMatrix type="matrix" values="0 0 0 0 0.184314 0 0 0 0 0.223529 0 0 0 0 0.254902 0 0 0 0.15 0"/>
<feBlend mode="normal" in2="BackgroundImageFix" result="effect1_dropShadow_786_12701"/>
<feBlend mode="normal" in="SourceGraphic" in2="effect1_dropShadow_786_12701" result="shape"/>
</filter>
<linearGradient id="paint0_diamond_786_12701" x1="0" y1="0" x2="500" y2="500" gradientUnits="userSpaceOnUse">
<stop stop-color="#96CEF0"/>
<stop offset="1" stop-color="white"/>
</linearGradient>
</defs>
</svg>
