<svg width="16" height="16" viewBox="0 0 16 16" fill="none" xmlns="http://www.w3.org/2000/svg">
<path d="M3.47845 8.85C2.97845 9.15 2.37845 8.95 2.07845 8.45C1.77845 7.95 1.97845 7.45 2.47845 7.15L7.47845 4.15C7.77845 3.95 8.17845 3.95 8.47845 4.15L13.4785 7.15C13.9785 7.45 14.0785 8.05 13.7785 8.55C13.5785 8.95 12.9785 9.15 12.4785 8.85L7.97845 6.15L3.47845 8.85Z" fill="#800208"/>
<path d="M3.47845 13.15C2.97845 13.45 2.37845 13.35 2.07845 12.85C1.77845 12.35 1.97845 11.75 2.47845 11.45L7.47845 8.44999C7.77845 8.24999 8.17845 8.24999 8.47845 8.44999L13.4785 11.45C13.9785 11.75 14.0785 12.35 13.7785 12.85C13.4785 13.35 12.8785 13.45 12.3785 13.15L7.97845 10.45L3.47845 13.15Z" fill="#D22F37"/>
</svg>
