<svg width="16" height="16" viewBox="0 0 16 16" fill="none" xmlns="http://www.w3.org/2000/svg">
<path d="M12.5049 8.14541C13.0049 7.84541 13.6049 8.04541 13.9049 8.54541C14.2049 9.04541 14.0049 9.54541 13.5049 9.84541L8.50488 12.8454C8.20488 13.0454 7.80488 13.0454 7.50488 12.8454L2.50488 9.84541C2.00488 9.54541 1.90488 8.94541 2.20488 8.44541C2.40488 8.04541 3.00488 7.84541 3.50488 8.14541L8.00488 10.8454L12.5049 8.14541Z" fill="#024780"/>
<path d="M12.5049 3.84541C13.0049 3.54541 13.6049 3.64541 13.9049 4.14541C14.2049 4.64541 14.0049 5.24541 13.5049 5.54541L8.50488 8.54541C8.20488 8.74541 7.80488 8.74541 7.50488 8.54541L2.50488 5.54541C2.00488 5.24541 1.90488 4.64541 2.20488 4.14541C2.50488 3.64541 3.10488 3.54541 3.60488 3.84541L8.00488 6.54541L12.5049 3.84541Z" fill="#2F88D2"/>
</svg>
