<svg width="24" height="24" viewBox="0 0 24 24" fill="none" xmlns="http://www.w3.org/2000/svg">
<g opacity="0.3">
</g>
<g clip-path="url(#clip0_887_15360)">
<path d="M18.3868 12.9895C18.3752 13.4112 18.0186 13.7419 17.5968 13.7419H16.258V14.129C16.258 14.658 16.1399 15.1593 15.929 15.6083L17.3861 17.0655C17.6885 17.3678 17.6885 17.858 17.3861 18.1604C17.0838 18.4627 16.5936 18.4627 16.2912 18.1604L14.967 16.8361C14.3682 17.3217 13.6053 17.6129 12.7742 17.6129V11.7097C12.7742 11.5493 12.6442 11.4194 12.4839 11.4194H11.9032C11.7429 11.4194 11.6129 11.5493 11.6129 11.7097V17.6129C10.7818 17.6129 10.0189 17.3217 9.42008 16.8361L8.09582 18.1604C7.79345 18.4627 7.30327 18.4627 7.00092 18.1604C6.6986 17.858 6.6986 17.3678 7.00092 17.0655L8.45805 15.6083C8.24713 15.1593 8.12902 14.658 8.12902 14.129V13.7419H6.79029C6.36845 13.7419 6.01186 13.4112 6.0003 12.9895C5.98828 12.552 6.33937 12.1935 6.77418 12.1935H8.12902V10.7723L7.00092 9.6442C6.6986 9.34185 6.6986 8.85167 7.00092 8.54932C7.30329 8.24698 7.79345 8.24698 8.09582 8.54932L9.41744 9.87097H14.9696L16.2912 8.54935C16.5936 8.247 17.0837 8.247 17.3861 8.54935C17.6884 8.85169 17.6884 9.34188 17.3861 9.64423L16.258 10.7723V12.1935H17.6129C18.0477 12.1935 18.3988 12.552 18.3868 12.9895ZM12.2177 6C10.7212 6 9.50805 7.21316 9.50805 8.70968H14.9274C14.9274 7.21316 13.7142 6 12.2177 6Z" fill="currentColor"/>
</g>
<defs>
<clipPath id="clip0_887_15360">
<rect width="12.3871" height="12.3871" fill="currentColor" transform="translate(6 6)"/>
</clipPath>
</defs>
</svg>
