<svg width="16" height="16" viewBox="0 0 16 16" fill="none" xmlns="http://www.w3.org/2000/svg">
<g clip-path="url(#clip0_7218_85177)">
<path d="M13.9997 8.77109C13.9885 9.17961 13.6431 9.5 13.2344 9.5H11.9375V9.875C11.9375 10.3874 11.8231 10.8731 11.6187 11.3081L13.0303 12.7197C13.3232 13.0126 13.3232 13.4874 13.0303 13.7803C12.7374 14.0732 12.2625 14.0732 11.9696 13.7803L10.6868 12.4975C10.1067 12.9679 9.36759 13.25 8.56248 13.25V7.53125C8.56248 7.37593 8.43655 7.25 8.28123 7.25H7.71873C7.56341 7.25 7.43748 7.37593 7.43748 7.53125V13.25C6.63238 13.25 5.89328 12.9679 5.3132 12.4975L4.03033 13.7803C3.73741 14.0732 3.26254 14.0732 2.96964 13.7803C2.67677 13.4874 2.67677 13.0126 2.96964 12.7197L4.38124 11.3081C4.17691 10.8731 4.06249 10.3874 4.06249 9.875V9.5H2.7656C2.35694 9.5 2.01149 9.17961 2.00029 8.77109C1.98864 8.34725 2.32877 8 2.74999 8H4.06249V6.62316L2.96964 5.53032C2.67677 5.23742 2.67677 4.76255 2.96964 4.46966C3.26256 4.17676 3.73741 4.17676 4.03033 4.46966L5.31065 5.75H10.6893L11.9696 4.46968C12.2625 4.17678 12.7374 4.17678 13.0303 4.46968C13.3232 4.76258 13.3232 5.23745 13.0303 5.53034L11.9375 6.62316V8H13.25C13.6712 8 14.0113 8.34725 13.9997 8.77109ZM8.02342 2C6.57367 2 5.39842 3.17525 5.39842 4.625H10.6484C10.6484 3.17525 9.47317 2 8.02342 2Z" fill="currentColor"/>
</g>
<defs>
<clipPath id="clip0_7218_85177">
<rect width="12" height="12" fill="currentColor" transform="translate(2 2)"/>
</clipPath>
</defs>
</svg>
