<svg width="16" height="16" viewBox="0 0 16 16" fill="none" xmlns="http://www.w3.org/2000/svg">
<path d="M8.45333 4.41898C8.92 4.25898 9.26667 3.81898 9.32 3.32565C9.35333 3.01232 9.28667 2.71898 9.13333 2.47898L8.28 0.998984C8.15333 0.778984 7.83333 0.778984 7.7 0.998984L6.84667 2.47898C6.73333 2.67898 6.66667 2.91232 6.66667 3.16565C6.66667 4.04565 7.53333 4.73232 8.45333 4.41898ZM11.02 11.1123L10.3533 10.4457L9.63333 11.159C8.76667 12.0257 7.24667 12.0323 6.37333 11.159L5.66 10.4457L4.93333 11.159C4.5 11.5923 3.92 11.8323 3.30667 11.8323C2.82 11.8323 2.37333 11.679 2 11.4257V13.8323C2 14.5657 2.6 15.1657 3.33333 15.1657H12.6667C13.4 15.1657 14 14.5657 14 13.8323V11.4257C13.5 11.7657 12.86 11.9257 12.1733 11.7723C11.7333 11.679 11.34 11.4323 11.02 11.1123ZM12 6.49898H8.66667V5.83232C8.66667 5.46565 8.36667 5.16565 8 5.16565C7.63333 5.16565 7.33333 5.46565 7.33333 5.83232V6.49898H4C2.89333 6.49898 2 7.39232 2 8.49898V9.47232C2 10.039 2.33333 10.5857 2.87333 10.7657C3.36 10.9257 3.88667 10.8057 4.22667 10.459L5.65333 9.03899L7.07333 10.459C7.58 10.9657 8.41333 10.9657 8.92 10.459L10.3467 9.03899L11.7667 10.459C12.0533 10.7457 12.4533 10.879 12.8667 10.8257C13.5267 10.739 13.9933 10.119 13.9933 9.45232V8.50565C14 7.39232 13.1067 6.49898 12 6.49898Z" fill="currentColor"/>
</svg>
