<svg width="12" height="12" viewBox="0 0 12 12" fill="currentColor" xmlns="http://www.w3.org/2000/svg">
<path fill-rule="evenodd" clip-rule="evenodd" d="M7 1.00003H2V11H10V4.00003H8C7.44386 4.00003 7 3.55617 7 3.00003V1.00003ZM11 3.52801V11C11 11.5562 10.5561 12 10 12H2C1.44386 12 1 11.5562 1 11V1.00003C1 0.443883 1.44386 2.58214e-05 2 2.58214e-05H7.47202C7.49295 -0.00130174 7.51402 -0.00131961 7.53509 2.58214e-05H7.79C8.0626 2.58214e-05 8.32673 0.11008 8.49355 0.296472L10.6845 2.48838C10.8913 2.67452 11 2.92994 11 3.21003V3.46493C11.0013 3.486 11.0013 3.50707 11 3.52801ZM8 3.00003H9.29289L8 1.70713V3.00003ZM3.5 5.00003H8.5C9.16667 5.00003 9.16667 6.00003 8.5 6.00003H3.5C2.83333 6.00003 2.83333 5.00003 3.5 5.00003ZM3.5 7.00003H8.5C9.16667 7.00003 9.16667 8.00003 8.5 8.00003H3.5C2.83333 8.00003 2.83333 7.00003 3.5 7.00003ZM3.5 9.00003H8.5C9.16667 9.00003 9.16667 10 8.5 10H3.5C2.83333 10 2.83333 9.00003 3.5 9.00003Z" />
</svg>
