<svg width="24" height="24" viewBox="0 0 24 24" fill="none" xmlns="http://www.w3.org/2000/svg">
<path fill-rule="evenodd" clip-rule="evenodd" d="M3.96967 20.0306C4.26256 20.3235 4.73744 20.3235 5.03033 20.0306L12 13.0609L18.9697 20.0306C19.2626 20.3235 19.7374 20.3235 20.0303 20.0306C20.3232 19.7377 20.3232 19.2628 20.0303 18.9699L13.0607 12.0002L20.0303 5.03057C20.3232 4.73768 20.3232 4.26281 20.0303 3.96991C19.7374 3.67702 19.2626 3.67702 18.9697 3.96991L12 10.9396L5.03033 3.96991C4.73744 3.67702 4.26256 3.67702 3.96967 3.96991C3.67678 4.26281 3.67678 4.73768 3.96967 5.03057L10.9393 12.0002L3.96967 18.9699C3.67678 19.2628 3.67678 19.7377 3.96967 20.0306Z" fill="#D53032"/>
<mask id="mask0_312_15226" style="mask-type:alpha" maskUnits="userSpaceOnUse" x="3" y="3" width="18" height="18">
<path fill-rule="evenodd" clip-rule="evenodd" d="M3.96967 20.0306C4.26256 20.3235 4.73744 20.3235 5.03033 20.0306L12 13.0609L18.9697 20.0306C19.2626 20.3235 19.7374 20.3235 20.0303 20.0306C20.3232 19.7377 20.3232 19.2628 20.0303 18.9699L13.0607 12.0002L20.0303 5.03057C20.3232 4.73768 20.3232 4.26281 20.0303 3.96991C19.7374 3.67702 19.2626 3.67702 18.9697 3.96991L12 10.9396L5.03033 3.96991C4.73744 3.67702 4.26256 3.67702 3.96967 3.96991C3.67678 4.26281 3.67678 4.73768 3.96967 5.03057L10.9393 12.0002L3.96967 18.9699C3.67678 19.2628 3.67678 19.7377 3.96967 20.0306Z" fill="white"/>
</mask>
<g mask="url(#mask0_312_15226)">
</g>
</svg>
