<svg width="18" height="18" viewBox="0 0 18 18" fill="none" xmlns="http://www.w3.org/2000/svg">
<path d="M8.13579 10.5162C8.08868 10.63 8.06443 10.7519 8.06443 10.875C8.06443 11.1236 8.1632 11.3621 8.33902 11.5379C8.51483 11.7137 8.75329 11.8125 9.00193 11.8125C9.25057 11.8125 9.48903 11.7137 9.66484 11.5379C9.84066 11.3621 9.93943 11.1236 9.93943 10.875C9.93943 10.7519 9.91518 10.63 9.86807 10.5162C9.82095 10.4025 9.7519 10.2991 9.66484 10.2121C9.57779 10.125 9.47444 10.056 9.3607 10.0089C9.24695 9.96174 9.12504 9.9375 9.00193 9.9375C8.87882 9.9375 8.75691 9.96174 8.64316 10.0089C8.52942 10.056 8.42607 10.125 8.33902 10.2121C8.25196 10.2991 8.18291 10.4025 8.13579 10.5162Z" fill="#1371D6"/>
<path d="M8.19306 4.89433C8.15634 5.00746 8.14382 5.12703 8.15631 5.24531L8.48443 8.53312C8.49545 8.66228 8.55455 8.7826 8.65003 8.87028C8.74552 8.95796 8.87043 9.00661 9.00006 9.00661C9.12969 9.00661 9.2546 8.95796 9.35008 8.87028C9.44556 8.7826 9.50466 8.66228 9.51568 8.53312L9.84381 5.24531C9.85629 5.12703 9.84377 5.00746 9.80706 4.89433C9.77034 4.78121 9.71025 4.67707 9.63069 4.58867C9.55113 4.50027 9.45388 4.42958 9.34523 4.3812C9.23659 4.33281 9.11899 4.30781 9.00006 4.30781C8.88112 4.30781 8.76352 4.33281 8.65488 4.3812C8.54623 4.42958 8.44898 4.50027 8.36942 4.58867C8.28986 4.67707 8.22977 4.78121 8.19306 4.89433Z" fill="#1371D6"/>
<path fill-rule="evenodd" clip-rule="evenodd" d="M8.62007 16.0312C8.46726 16.0312 8.30788 15.9954 8.16819 15.8868C7.83444 15.6301 7.90194 15.2115 7.92819 15.0533L8.02757 14.4424C8.06413 14.1655 8.03788 14.0762 8.03319 14.0642C8.04058 14.0845 8.01378 14.0764 7.95313 14.058C7.90608 14.0438 7.83865 14.0235 7.75101 14.0054C4.14444 13.5362 1.49976 11.0208 1.49976 8.02984C1.49976 4.68833 4.86444 1.96875 8.99976 1.96875C13.1351 1.96875 16.4998 4.68833 16.4998 8.02984C16.4998 9.38043 15.9719 10.6041 14.8844 11.7716C13.3704 13.4791 10.0113 15.5611 9.18913 15.8969L9.18286 15.8995C9.08052 15.9412 8.85974 16.0312 8.62007 16.0312ZM8.99976 2.88877C5.38194 2.88877 2.43726 5.19434 2.43726 8.02984C2.43726 10.5544 4.73882 12.6851 7.90944 13.0982C8.45413 13.2105 8.77663 13.4175 8.90319 13.7202C8.99038 13.9354 9.00538 14.1977 8.95569 14.5749L8.88163 15.0247C9.72069 14.6521 12.8098 12.7109 14.1851 11.1597C15.1263 10.1468 15.5623 9.15502 15.5623 8.02984C15.5623 5.19434 12.6185 2.88877 8.99976 2.88877Z" fill="#1371D6"/>
</svg>
