<svg width="16" height="16" viewBox="0 0 16 16" fill="none" xmlns="http://www.w3.org/2000/svg">
    <path fill-rule="evenodd" clip-rule="evenodd" d="M11.5286 5.5286C11.7889 5.26825 12.2111 5.26825 12.4714 5.5286C12.7318 5.78895 12.7318 6.21106 12.4714 6.4714L7.80474 11.1381C7.54439 11.3984 7.12228 11.3984 6.86193 11.1381L4.19526 8.4714C3.93491 8.21105 3.93491 7.78894 4.19526 7.5286C4.45561 7.26825 4.87772 7.26825 5.13807 7.5286L7.33333 9.72386L11.5286 5.5286ZM8 16C3.58172 16 0 12.4183 0 8C0 3.58172 3.58172 0 8 0C12.4183 0 16 3.58172 16 8C16 12.4183 12.4183 16 8 16ZM8 14.6667C11.6819 14.6667 14.6667 11.6819 14.6667 8C14.6667 4.3181 11.6819 1.33333 8 1.33333C4.3181 1.33333 1.33333 4.3181 1.33333 8C1.33333 11.6819 4.3181 14.6667 8 14.6667Z" fill="white" />
</svg>
    