<svg width="16" height="16" viewBox="0 0 16 16" fill="none" xmlns="http://www.w3.org/2000/svg">
<path fill-rule="evenodd" clip-rule="evenodd" d="M3.18767 2.60958C2.97204 2.78208 2.93708 3.09673 3.10958 3.31236L6.85902 8.00001L3.10958 12.6877L3.05973 12.7629C2.94708 12.9715 2.996 13.2371 3.18767 13.3904C3.4033 13.563 3.71795 13.528 3.89045 13.3124L7.89045 8.31236L7.94412 8.22984C8.03356 8.05718 8.01567 7.84419 7.89045 7.68766L3.89045 2.68766L3.82802 2.62252C3.64925 2.46683 3.37934 2.45624 3.18767 2.60958ZM8.18767 2.60958C7.97204 2.78208 7.93708 3.09673 8.10958 3.31236L11.859 8.00001L8.10958 12.6877L8.05973 12.7629C7.94708 12.9715 7.996 13.2371 8.18767 13.3904C8.4033 13.563 8.71795 13.528 8.89045 13.3124L12.8905 8.31236L12.9441 8.22984C13.0336 8.05718 13.0157 7.84419 12.8905 7.68766L8.89045 2.68766L8.82802 2.62252C8.64925 2.46683 8.37934 2.45624 8.18767 2.60958Z" fill="currentColor"/>
</svg>
