<svg width="16" height="16" viewBox="0 0 16 16" fill="none" xmlns="http://www.w3.org/2000/svg">
<path fill-rule="evenodd" clip-rule="evenodd" d="M4 10C4 9.63181 3.70152 9.33333 3.33333 9.33333H1.33333V1.33333H9.33333V3.33333C9.33333 3.70152 9.63181 4 10 4C10.3682 4 10.6667 3.70152 10.6667 3.33333V1.33333C10.6667 0.596954 10.0697 0 9.33333 0H1.33333C0.596954 0 0 0.596954 0 1.33333V9.33333C0 10.0697 0.596954 10.6667 1.33333 10.6667H3.33333C3.70152 10.6667 4 10.3682 4 10ZM14.6667 5.33333H6.66667C5.93029 5.33333 5.33333 5.93029 5.33333 6.66667V14.6667C5.33333 15.403 5.93029 16 6.66667 16H14.6667C15.403 16 16 15.403 16 14.6667V6.66667C16 5.93029 15.403 5.33333 14.6667 5.33333ZM6.66667 14.6667V6.66667H14.6667V14.6667H6.66667Z" fill="currentColor"/>
<mask id="mask0_241_20883" style="mask-type:luminance" maskUnits="userSpaceOnUse" x="0" y="0" width="16" height="16">
<path fill-rule="evenodd" clip-rule="evenodd" d="M4 10C4 9.63181 3.70152 9.33333 3.33333 9.33333H1.33333V1.33333H9.33333V3.33333C9.33333 3.70152 9.63181 4 10 4C10.3682 4 10.6667 3.70152 10.6667 3.33333V1.33333C10.6667 0.596954 10.0697 0 9.33333 0H1.33333C0.596954 0 0 0.596954 0 1.33333V9.33333C0 10.0697 0.596954 10.6667 1.33333 10.6667H3.33333C3.70152 10.6667 4 10.3682 4 10ZM14.6667 5.33333H6.66667C5.93029 5.33333 5.33333 5.93029 5.33333 6.66667V14.6667C5.33333 15.403 5.93029 16 6.66667 16H14.6667C15.403 16 16 15.403 16 14.6667V6.66667C16 5.93029 15.403 5.33333 14.6667 5.33333ZM6.66667 14.6667V6.66667H14.6667V14.6667H6.66667Z" fill="none"/>
</mask>
<g mask="url(#mask0_241_20883)">
</g>
</svg>
