<svg width="16" height="17" viewBox="0 0 16 17" fill="none" xmlns="http://www.w3.org/2000/svg">
<path fill-rule="evenodd" clip-rule="evenodd" d="M4 10.3056H2C0.89543 10.3056 0 9.41282 0 8.31152V2.96634C0 1.86504 0.89543 0.97226 2 0.97226H10C11.1046 0.97226 12 1.86504 12 2.96634V7.66666H14.6667C15.403 7.66666 16 8.26361 16 8.99999V15.6667C16 16.403 15.403 17 14.6667 17H5.33333C4.59695 17 4 16.403 4 15.6667V10.3056ZM10.6667 7.66666V2.96634C10.6667 2.59924 10.3682 2.30164 10 2.30164H2C1.63181 2.30164 1.33333 2.59924 1.33333 2.96634V8.31152C1.33333 8.67862 1.63181 8.97621 2 8.97621H4.00021C4.01289 8.2508 4.6049 7.66666 5.33333 7.66666H10.6667ZM8.66667 3.66666H3.33333C2.44444 3.66666 2.44444 4.99999 3.33333 4.99999H8.66667C9.55556 4.99999 9.55556 3.66666 8.66667 3.66666ZM5.33333 15.6667V8.99999H14.6667V15.6667H5.33333Z" fill="#68737D"/>
<path fill-rule="evenodd" clip-rule="evenodd" d="M13.2362 10.0059C13.4247 10.0059 13.5814 10.1331 13.6139 10.301L13.62 10.3657L13.6139 12.1526C13.6139 12.3514 13.442 12.5124 13.23 12.5124C13.0416 12.5124 12.9114 12.3852 12.8789 12.2173L12.8728 12.1526L12.8789 11.2336L10.0056 13.7775C9.87234 13.9024 9.66554 13.9163 9.51594 13.8191L8.1343 12.689L6.65524 14.328C6.522 14.4529 6.3152 14.4668 6.16561 14.3696L6.11245 14.328C5.97922 14.2031 5.96441 14.0092 6.06804 13.8689L6.11245 13.8191L7.86291 11.9257C7.99615 11.8008 8.20295 11.7869 8.35254 11.8841L8.4344 11.9257L9.73418 13.0142L12.3089 10.7255L11.4451 10.7198C11.2567 10.7198 11.1 10.5926 11.0675 10.4247L11.0613 10.36C11.0613 10.1833 11.1971 10.0364 11.3761 10.0059L11.4451 10.0002L13.2362 10.0059Z" fill="#68737D" stroke="#68737D" stroke-width="0.15"/>
</svg>
