<svg width="12" height="12" viewBox="0 0 12 12" fill="none" xmlns="http://www.w3.org/2000/svg">
<path fill-rule="evenodd" clip-rule="evenodd" d="M2 3.5C2.55228 3.5 3 3.05228 3 2.5C3 1.94772 2.55228 1.5 2 1.5C1.44772 1.5 1 1.94772 1 2.5C1 3.05228 1.44772 3.5 2 3.5ZM4.5 2.5C4.5 2.77614 4.72386 3 5 3H10.5C10.7761 3 11 2.77614 11 2.5C11 2.22386 10.7761 2 10.5 2H5C4.72386 2 4.5 2.22386 4.5 2.5ZM4.5 6.5C4.5 6.77614 4.72386 7 5 7H10.5C10.7761 7 11 6.77614 11 6.5C11 6.22386 10.7761 6 10.5 6H5C4.72386 6 4.5 6.22386 4.5 6.5ZM5 11C4.72386 11 4.5 10.7761 4.5 10.5C4.5 10.2239 4.72386 10 5 10H10.5C10.7761 10 11 10.2239 11 10.5C11 10.7761 10.7761 11 10.5 11H5ZM3 6.5C3 7.05228 2.55228 7.5 2 7.5C1.44772 7.5 1 7.05228 1 6.5C1 5.94772 1.44772 5.5 2 5.5C2.55228 5.5 3 5.94772 3 6.5ZM2 11.5C2.55228 11.5 3 11.0523 3 10.5C3 9.94771 2.55228 9.5 2 9.5C1.44772 9.5 1 9.94771 1 10.5C1 11.0523 1.44772 11.5 2 11.5Z" fill="#68737D"/>
</svg>
