<svg width="12" height="12" viewBox="0 0 12 12" fill="none" xmlns="http://www.w3.org/2000/svg">
<path fill-rule="evenodd" clip-rule="evenodd" d="M5.65459 0.435114L11.6972 6.42678C12.1009 6.82705 12.1009 7.45143 11.6972 7.8517L7.81639 11.6998C7.41272 12.1001 6.78302 12.1001 6.37935 11.6998L0.102128 5.47555V5.26582C0.102128 5.29848 0.0953527 5.278 0.0830014 5.24064L0.0772681 5.22341C0.0166453 5.04307 0 4.98255 0 4.86076V1.01266C0 0.429223 0.432876 0 1.02128 0H4.90213C5.18323 0 5.51673 0.160156 5.65459 0.435114ZM4.08511 3.03797C4.08511 3.59725 3.62787 4.05063 3.06383 4.05063C2.49979 4.05063 2.04255 3.59725 2.04255 3.03797C2.04255 2.4787 2.49979 2.02532 3.06383 2.02532C3.62787 2.02532 4.08511 2.4787 4.08511 3.03797ZM1.02128 4.86076V1.01266H4.79274L10.9715 7.13924L7.09787 10.9801L1.08291 5.01594C1.07298 4.98369 1.06086 4.94696 1.04614 4.90318C1.04411 4.89715 1.0422 4.89137 1.0404 4.88594C1.02805 4.84859 1.02128 4.8281 1.02128 4.86076Z" fill="#68737D"/>
</svg>
