<svg width="14" height="13" viewBox="0 0 14 13" fill="none" xmlns="http://www.w3.org/2000/svg">
    <path fill-rule="evenodd" clip-rule="evenodd"
        d="M1.5 3C2.32843 3 3 2.32843 3 1.5C3 0.671573 2.32843 0 1.5 0C0.671573 0 0 0.671573 0 1.5C0 2.32843 0.671573 3 1.5 3ZM4 1.5C4 1.77614 4.22386 2 4.5 2H13.5C13.7761 2 14 1.77614 14 1.5C14 1.22386 13.7761 1 13.5 1H4.5C4.22386 1 4 1.22386 4 1.5ZM4 6.5C4 6.77614 4.22386 7 4.5 7H13.5C13.7761 7 14 6.77614 14 6.5C14 6.22386 13.7761 6 13.5 6H4.5C4.22386 6 4 6.22386 4 6.5ZM4 11.5C4 11.7761 4.22386 12 4.5 12H13.5C13.7761 12 14 11.7761 14 11.5C14 11.2239 13.7761 11 13.5 11H4.5C4.22386 11 4 11.2239 4 11.5ZM3 6.5C3 7.32843 2.32843 8 1.5 8C0.671573 8 0 7.32843 0 6.5C0 5.67157 0.671573 5 1.5 5C2.32843 5 3 5.67157 3 6.5ZM1.5 13C2.32843 13 3 12.3284 3 11.5C3 10.6716 2.32843 10 1.5 10C0.671573 10 0 10.6716 0 11.5C0 12.3284 0.671573 13 1.5 13Z"
        fill="#68737D" />
</svg>
    