<svg width="120" heigth="120" viewBox="0 0 120 120" fill="none" xmlns="http://www.w3.org/2000/svg">
    <path opacity="0.4" d="M95.4689 67.5738C93.5857 75.3749 87.1908 81.0818 80.1604 84.9654C73.3686 88.7172 65.5872 89.9376 58.0083 88.2672C50.1569 86.5368 42.7598 82.5645 38.4641 75.7757C34.0615 68.8182 32.7877 60.1116 35.2147 52.2459C37.5415 44.705 43.9283 39.4851 50.8405 35.6645C57.5002 31.9834 65.054 29.8288 72.4387 31.6707C79.8546 33.5204 85.5971 38.9338 89.7207 45.3623C94.0144 52.0559 97.3346 59.8455 95.4689 67.5738Z" fill="url(#paint0_radial_936_34191)" />
    <path d="M46 54C46 51.7909 47.7909 50 50 50H70C72.2091 50 74 51.7909 74 54V96C74 98.2091 72.2091 100 70 100H50C47.7909 100 46 98.2091 46 96V54Z" fill="#F8F9F9" />
    <path d="M62 94C62 95.1046 61.1046 96 60 96C58.8954 96 58 95.1046 58 94C58 92.8954 58.8954 92 60 92C61.1046 92 62 92.8954 62 94Z" fill="#F8F9F9" />
    <path d="M50 51H70V49H50V51ZM73 54V96H75V54H73ZM70 99H50V101H70V99ZM47 96V54H45V96H47ZM50 99C48.3431 99 47 97.6569 47 96H45C45 98.7614 47.2386 101 50 101V99ZM73 96C73 97.6569 71.6569 99 70 99V101C72.7614 101 75 98.7614 75 96H73ZM70 51C71.6569 51 73 52.3431 73 54H75C75 51.2386 72.7614 49 70 49V51ZM50 49C47.2386 49 45 51.2386 45 54H47C47 52.3431 48.3431 51 50 51V49ZM61 94C61 94.5523 60.5523 95 60 95V97C61.6569 97 63 95.6569 63 94H61ZM60 95C59.4477 95 59 94.5523 59 94H57C57 95.6569 58.3431 97 60 97V95ZM59 94C59 93.4477 59.4477 93 60 93V91C58.3431 91 57 92.3431 57 94H59ZM60 93C60.5523 93 61 93.4477 61 94H63C63 92.3431 61.6569 91 60 91V93Z" fill="#336179" />
    <g filter="url(#filter0_d_936_34191)">
        <path d="M50 59C50 57.8954 50.8954 57 52 57H68C69.1046 57 70 57.8954 70 59V71C70 72.1046 69.1046 73 68 73H52C50.8954 73 50 72.1046 50 71V59Z" fill="white" />
        <path d="M57.857 67.4995H53.5395C53.3095 67.4969 53.0886 67.4096 52.9189 67.2543C52.7492 67.0991 52.6426 66.8868 52.6195 66.658C52.6068 66.5504 52.6173 66.4413 52.6503 66.3381C52.6833 66.2348 52.7381 66.1399 52.8109 66.0596C52.8837 65.9794 52.9729 65.9157 53.0724 65.8728C53.172 65.83 53.2795 65.809 53.3879 65.8112H57.7107C57.9411 65.8152 58.1621 65.9036 58.3316 66.0597C58.5012 66.2158 58.6076 66.4287 58.6306 66.658C58.6417 66.7655 58.6299 66.8741 58.5959 66.9767C58.5619 67.0793 58.5065 67.1734 58.4334 67.253C58.3602 67.3326 58.271 67.3957 58.1717 67.4382C58.0723 67.4807 57.9651 67.5016 57.857 67.4995Z" fill="#70C38A" />
        <path d="M60.857 70.4995H53.5395C53.3095 70.4969 53.0886 70.4096 52.9189 70.2543C52.7492 70.0991 52.6426 69.8868 52.6195 69.658C52.6068 69.5504 52.6173 69.4413 52.6503 69.3381C52.6833 69.2348 52.7381 69.1399 52.8109 69.0596C52.8837 68.9794 52.9729 68.9157 53.0724 68.8728C53.172 68.83 53.2795 68.809 53.3879 68.8112H60.7107C60.9411 68.8152 61.1621 68.9036 61.3316 69.0597C61.5012 69.2158 61.6076 69.4287 61.6306 69.658C61.6417 69.7655 61.6299 69.8741 61.5959 69.9767C61.5619 70.0793 61.5065 70.1734 61.4334 70.253C61.3602 70.3326 61.271 70.3957 61.1717 70.4382C61.0723 70.4807 60.9651 70.5016 60.857 70.4995Z" fill="#2B8473" />
    </g>
    <path d="M51 79C51 78.4477 51.4477 78 52 78H68C68.5523 78 69 78.4477 69 79V86H51V79Z" fill="white" stroke="white" stroke-width="2" stroke-linejoin="round" />
    <defs>
        <filter id="filter0_d_936_34191" x="42" y="53" width="36" height="32" filterUnits="userSpaceOnUse" color-interpolation-filters="sRGB">
            <feFlood flood-opacity="0" result="BackgroundImageFix" />
            <feColorMatrix in="SourceAlpha" type="matrix" values="0 0 0 0 0 0 0 0 0 0 0 0 0 0 0 0 0 0 127 0" result="hardAlpha" />
            <feOffset dy="4" />
            <feGaussianBlur stdDeviation="4" />
            <feColorMatrix type="matrix" values="0 0 0 0 0.184314 0 0 0 0 0.223529 0 0 0 0 0.254902 0 0 0 0.15 0" />
            <feBlend mode="normal" in2="BackgroundImageFix" result="effect1_dropShadow_936_34191" />
            <feBlend mode="normal" in="SourceGraphic" in2="effect1_dropShadow_936_34191" result="shape" />
        </filter>
        <radialGradient id="paint0_radial_936_34191" cx="0" cy="0" r="1" gradientUnits="userSpaceOnUse" gradientTransform="translate(62.25 56.75) rotate(155.709) scale(30.994 28.9943)">
            <stop stop-color="#70C38A" stop-opacity="0.52" />
            <stop offset="1" stop-color="#F1F9F3" />
        </radialGradient>
    </defs>
</svg>