<svg width="120" heigth="120" viewBox="0 0 120 120" fill="none" xmlns="http://www.w3.org/2000/svg">
    <path opacity="0.4" d="M61.6488 89.0704C60.4035 93.778 56.1745 97.2218 51.5254 99.5653C47.0341 101.829 41.8883 102.566 36.8765 101.558C31.6844 100.514 26.7928 98.1165 23.952 94.0198C21.0406 89.8213 20.1983 84.5673 21.8033 79.8208C23.3419 75.2703 27.5655 72.1203 32.1365 69.8148C36.5405 67.5934 41.5357 66.2932 46.4191 67.4047C51.3232 68.5209 55.1207 71.7876 57.8476 75.6669C60.687 79.7062 62.8825 84.4068 61.6488 89.0704Z" fill="url(#paint0_radial_936_34224)" />
    <path d="M38 44C38 41.7909 39.7909 40 42 40H78C80.2091 40 82 41.7909 82 44V96C82 98.2091 80.2091 100 78 100H42C39.7909 100 38 98.2091 38 96V44Z" fill="#F8F9F9" />
    <path d="M62 94C62 95.1046 61.1046 96 60 96C58.8954 96 58 95.1046 58 94C58 92.8954 58.8954 92 60 92C61.1046 92 62 92.8954 62 94Z" fill="#F8F9F9" />
    <path d="M38 44C38 41.7909 39.7909 40 42 40H78C80.2091 40 82 41.7909 82 44V96C82 98.2091 80.2091 100 78 100H42C39.7909 100 38 98.2091 38 96V44Z" stroke="#336179" stroke-width="2" stroke-linecap="round" />
    <path d="M62 94C62 95.1046 61.1046 96 60 96C58.8954 96 58 95.1046 58 94C58 92.8954 58.8954 92 60 92C61.1046 92 62 92.8954 62 94Z" stroke="#336179" stroke-width="2" stroke-linecap="round" />
    <path d="M45.3913 53.7826C45.3913 53.0142 46.0142 52.3913 46.7826 52.3913H55.1304C55.8988 52.3913 56.5217 53.0142 56.5217 53.7826V62.1304C56.5217 62.8988 55.8988 63.5217 55.1304 63.5217H46.7826C46.0142 63.5217 45.3913 62.8988 45.3913 62.1304V53.7826ZM45.3913 71.8695C45.3913 71.1011 46.0142 70.4782 46.7826 70.4782H55.1304C55.8988 70.4782 56.5217 71.1011 56.5217 71.8695V80.2174C56.5217 80.9857 55.8988 81.6087 55.1304 81.6087H46.7826C46.0142 81.6087 45.3913 80.9857 45.3913 80.2173V71.8695ZM63.4782 71.8695C63.4782 71.1011 64.1011 70.4782 64.8695 70.4782H73.2174C73.9857 70.4782 74.6087 71.1011 74.6087 71.8695V80.2174C74.6087 80.9857 73.9857 81.6087 73.2173 81.6087H64.8695C64.1011 81.6087 63.4782 80.9857 63.4782 80.2173V71.8695Z" fill="white" stroke="white" stroke-width="2.78261" stroke-linejoin="round" />
    <g filter="url(#filter0_d_936_34224)">
        <path d="M62 51.6667C62 50.7462 62.7462 50 63.6667 50H75.3333C76.2538 50 77 50.7462 77 51.6667V63.3333C77 64.2538 76.2538 65 75.3333 65H63.6667C62.7462 65 62 64.2538 62 63.3333V51.6667Z" fill="white" />
        <path d="M69.857 59.4995H65.5395C65.3095 59.4969 65.0886 59.4096 64.9189 59.2543C64.7492 59.0991 64.6426 58.8868 64.6195 58.658C64.6068 58.5504 64.6173 58.4413 64.6503 58.3381C64.6833 58.2348 64.7381 58.1399 64.8109 58.0596C64.8837 57.9794 64.9729 57.9157 65.0724 57.8728C65.172 57.83 65.2795 57.809 65.3879 57.8112H69.7107C69.9411 57.8152 70.1621 57.9036 70.3316 58.0597C70.5012 58.2158 70.6076 58.4287 70.6306 58.658C70.6417 58.7655 70.6299 58.8741 70.5959 58.9767C70.5619 59.0793 70.5065 59.1734 70.4334 59.253C70.3602 59.3326 70.271 59.3957 70.1717 59.4382C70.0723 59.4807 69.9651 59.5016 69.857 59.4995Z" fill="#70C38A" />
        <path d="M72.857 62.4995H65.5395C65.3095 62.4969 65.0886 62.4096 64.9189 62.2543C64.7492 62.0991 64.6426 61.8868 64.6195 61.658C64.6068 61.5504 64.6173 61.4413 64.6503 61.3381C64.6833 61.2348 64.7381 61.1399 64.8109 61.0596C64.8837 60.9794 64.9729 60.9157 65.0724 60.8728C65.172 60.83 65.2795 60.809 65.3879 60.8112H72.7107C72.9411 60.8152 73.1621 60.9036 73.3316 61.0597C73.5012 61.2158 73.6076 61.4287 73.6306 61.658C73.6417 61.7655 73.6299 61.8741 73.5959 61.9767C73.5619 62.0793 73.5065 62.1734 73.4334 62.253C73.3602 62.3326 73.271 62.3957 73.1717 62.4382C73.0723 62.4807 72.9651 62.5016 72.857 62.4995Z" fill="#2B8473" />
    </g>
    <defs>
        <filter id="filter0_d_936_34224" x="54" y="46" width="31" height="31" filterUnits="userSpaceOnUse" color-interpolation-filters="sRGB">
            <feFlood flood-opacity="0" result="BackgroundImageFix" />
            <feColorMatrix in="SourceAlpha" type="matrix" values="0 0 0 0 0 0 0 0 0 0 0 0 0 0 0 0 0 0 127 0" result="hardAlpha" />
            <feOffset dy="4" />
            <feGaussianBlur stdDeviation="4" />
            <feColorMatrix type="matrix" values="0 0 0 0 0.184314 0 0 0 0 0.223529 0 0 0 0 0.254902 0 0 0 0.15 0" />
            <feBlend mode="normal" in2="BackgroundImageFix" result="effect1_dropShadow_936_34224" />
            <feBlend mode="normal" in="SourceGraphic" in2="effect1_dropShadow_936_34224" result="shape" />
        </filter>
        <radialGradient id="paint0_radial_936_34224" cx="0" cy="0" r="1" gradientUnits="userSpaceOnUse" gradientTransform="translate(39.6815 82.5388) rotate(157.616) scale(20.2038 17.7496)">
            <stop stop-color="#70C38A" stop-opacity="0.52" />
            <stop offset="1" stop-color="#F1F9F3" />
        </radialGradient>
    </defs>
</svg>