<svg width="120" heigth="120" viewBox="0 0 120 120" fill="none" xmlns="http://www.w3.org/2000/svg">
    <g opacity="0.4">
        <path d="M116.469 57.5738C114.586 65.3749 108.191 71.0818 101.16 74.9654C94.3686 78.7172 86.5872 79.9376 79.0083 78.2672C71.1569 76.5368 63.7598 72.5645 59.4641 65.7757C55.0615 58.8182 53.7877 50.1116 56.2147 42.2459C58.5415 34.705 64.9283 29.4851 71.8405 25.6645C78.5002 21.9834 86.054 19.8288 93.4387 21.6707C100.855 23.5204 106.597 28.9338 110.721 35.3623C115.014 42.0559 118.335 49.8455 116.469 57.5738Z" fill="#E6EBEE" />
        <path d="M116.469 57.5738C114.586 65.3749 108.191 71.0818 101.16 74.9654C94.3686 78.7172 86.5872 79.9376 79.0083 78.2672C71.1569 76.5368 63.7598 72.5645 59.4641 65.7757C55.0615 58.8182 53.7877 50.1116 56.2147 42.2459C58.5415 34.705 64.9283 29.4851 71.8405 25.6645C78.5002 21.9834 86.054 19.8288 93.4387 21.6707C100.855 23.5204 106.597 28.9338 110.721 35.3623C115.014 42.0559 118.335 49.8455 116.469 57.5738Z" fill="url(#paint0_linear_936_34219)" />
    </g>
    <path d="M23 42C23 39.7909 24.7909 38 27 38H93C95.2091 38 97 39.7909 97 42V92H23V42Z" fill="white" />
    <path d="M15 98C15 96.8954 15.8954 96 17 96H103C104.105 96 105 96.8954 105 98C105 99.1046 104.105 100 103 100H17C15.8954 100 15 99.1046 15 98Z" fill="white" />
    <path d="M15.9759 95.1483C15.5055 95.4378 15.3589 96.0537 15.6483 96.5241C15.9378 96.9945 16.5537 97.1411 17.0241 96.8517L15.9759 95.1483ZM102.976 96.8517C103.446 97.1411 104.062 96.9945 104.352 96.5241C104.641 96.0537 104.494 95.4378 104.024 95.1483L102.976 96.8517ZM27 39H93V37H27V39ZM96 42V92H98V42H96ZM97 91H23V93H97V91ZM24 92V42H22V92H24ZM93 39C94.6569 39 96 40.3431 96 42H98C98 39.2386 95.7614 37 93 37V39ZM27 37C24.2386 37 22 39.2386 22 42H24C24 40.3431 25.3431 39 27 39V37ZM17 97H103V95H17V97ZM103 99H17V101H103V99ZM17 99C16.4477 99 16 98.5523 16 98H14C14 99.6569 15.3431 101 17 101V99ZM104 98C104 98.5523 103.552 99 103 99V101C104.657 101 106 99.6569 106 98H104ZM103 97C103.552 97 104 97.4477 104 98H106C106 96.3431 104.657 95 103 95V97ZM17 95C15.3431 95 14 96.3431 14 98H16C16 97.4477 16.4477 97 17 97V95ZM22.4759 91.1483L15.9759 95.1483L17.0241 96.8517L23.5241 92.8517L22.4759 91.1483ZM96.4759 92.8517L102.976 96.8517L104.024 95.1483L97.5241 91.1483L96.4759 92.8517Z" fill="#87929D" />
    <defs>
        <linearGradient id="paint0_linear_936_34219" x1="42.8515" y1="64.1079" x2="90.0296" y2="5.86449" gradientUnits="userSpaceOnUse">
            <stop stop-color="white" stop-opacity="0" />
            <stop offset="1" stop-color="white" stop-opacity="0.8" />
        </linearGradient>
    </defs>
</svg>