<svg width="120" heigth="120" viewBox="0 0 120 120" fill="none" xmlns="http://www.w3.org/2000/svg">
    <g opacity="0.4">
        <path d="M95.4689 67.5738C93.5857 75.3749 87.1908 81.0818 80.1604 84.9654C73.3686 88.7172 65.5872 89.9376 58.0083 88.2672C50.1569 86.5368 42.7598 82.5645 38.4641 75.7757C34.0615 68.8182 32.7877 60.1116 35.2147 52.2459C37.5415 44.705 43.9283 39.4851 50.8405 35.6645C57.5002 31.9834 65.054 29.8288 72.4387 31.6707C79.8546 33.5204 85.5971 38.9338 89.7207 45.3623C94.0144 52.0559 97.3346 59.8455 95.4689 67.5738Z" fill="#E6EBEE" />
        <path d="M95.4689 67.5738C93.5857 75.3749 87.1908 81.0818 80.1604 84.9654C73.3686 88.7172 65.5872 89.9376 58.0083 88.2672C50.1569 86.5368 42.7598 82.5645 38.4641 75.7757C34.0615 68.8182 32.7877 60.1116 35.2147 52.2459C37.5415 44.705 43.9283 39.4851 50.8405 35.6645C57.5002 31.9834 65.054 29.8288 72.4387 31.6707C79.8546 33.5204 85.5971 38.9338 89.7207 45.3623C94.0144 52.0559 97.3346 59.8455 95.4689 67.5738Z" fill="url(#paint0_linear_936_34201)" />
    </g>
    <path d="M46 54C46 51.7909 47.7909 50 50 50H70C72.2091 50 74 51.7909 74 54V96C74 98.2091 72.2091 100 70 100H50C47.7909 100 46 98.2091 46 96V54Z" fill="white" />
    <path d="M62 94C62 95.1046 61.1046 96 60 96C58.8954 96 58 95.1046 58 94C58 92.8954 58.8954 92 60 92C61.1046 92 62 92.8954 62 94Z" fill="white" />
    <path d="M50 51H70V49H50V51ZM73 54V96H75V54H73ZM70 99H50V101H70V99ZM47 96V54H45V96H47ZM50 99C48.3431 99 47 97.6569 47 96H45C45 98.7614 47.2386 101 50 101V99ZM73 96C73 97.6569 71.6569 99 70 99V101C72.7614 101 75 98.7614 75 96H73ZM70 51C71.6569 51 73 52.3431 73 54H75C75 51.2386 72.7614 49 70 49V51ZM50 49C47.2386 49 45 51.2386 45 54H47C47 52.3431 48.3431 51 50 51V49ZM61 94C61 94.5523 60.5523 95 60 95V97C61.6569 97 63 95.6569 63 94H61ZM60 95C59.4477 95 59 94.5523 59 94H57C57 95.6569 58.3431 97 60 97V95ZM59 94C59 93.4477 59.4477 93 60 93V91C58.3431 91 57 92.3431 57 94H59ZM60 93C60.5523 93 61 93.4477 61 94H63C63 92.3431 61.6569 91 60 91V93Z" fill="#87929D" />
    <defs>
        <linearGradient id="paint0_linear_936_34201" x1="21.8515" y1="74.1079" x2="69.0296" y2="15.8645" gradientUnits="userSpaceOnUse">
            <stop stop-color="white" stop-opacity="0" />
            <stop offset="1" stop-color="white" stop-opacity="0.8" />
        </linearGradient>
    </defs>
</svg>