<svg width="120" heigth="120" viewBox="0 0 120 120" fill="none" xmlns="http://www.w3.org/2000/svg">
    <path opacity="0.4" d="M116.469 57.5738C114.586 65.3749 108.191 71.0818 101.16 74.9654C94.3686 78.7172 86.5872 79.9376 79.0083 78.2672C71.1569 76.5368 63.7598 72.5645 59.4641 65.7757C55.0615 58.8182 53.7877 50.1116 56.2147 42.2459C58.5415 34.705 64.9283 29.4851 71.8405 25.6645C78.5002 21.9834 86.054 19.8288 93.4387 21.6707C100.855 23.5204 106.597 28.9338 110.721 35.3623C115.014 42.0559 118.335 49.8455 116.469 57.5738Z" fill="url(#paint0_radial_936_34205)" />
    <path d="M23 42C23 39.7909 24.7909 38 27 38H93C95.2091 38 97 39.7909 97 42V92H23V42Z" fill="#F8F9F9" />
    <path d="M15 98C15 96.8954 15.8954 96 17 96H103C104.105 96 105 96.8954 105 98C105 99.1046 104.105 100 103 100H17C15.8954 100 15 99.1046 15 98Z" fill="#F8F9F9" />
    <path d="M15.9759 95.1483C15.5055 95.4378 15.3589 96.0537 15.6483 96.5241C15.9378 96.9945 16.5537 97.1411 17.0241 96.8517L15.9759 95.1483ZM102.976 96.8517C103.446 97.1411 104.062 96.9945 104.352 96.5241C104.641 96.0537 104.494 95.4378 104.024 95.1483L102.976 96.8517ZM27 39H93V37H27V39ZM96 42V92H98V42H96ZM97 91H23V93H97V91ZM24 92V42H22V92H24ZM93 39C94.6569 39 96 40.3431 96 42H98C98 39.2386 95.7614 37 93 37V39ZM27 37C24.2386 37 22 39.2386 22 42H24C24 40.3431 25.3431 39 27 39V37ZM17 97H103V95H17V97ZM103 99H17V101H103V99ZM17 99C16.4477 99 16 98.5523 16 98H14C14 99.6569 15.3431 101 17 101V99ZM104 98C104 98.5523 103.552 99 103 99V101C104.657 101 106 99.6569 106 98H104ZM103 97C103.552 97 104 97.4477 104 98H106C106 96.3431 104.657 95 103 95V97ZM17 95C15.3431 95 14 96.3431 14 98H16C16 97.4477 16.4477 97 17 97V95ZM22.4759 91.1483L15.9759 95.1483L17.0241 96.8517L23.5241 92.8517L22.4759 91.1483ZM96.4759 92.8517L102.976 96.8517L104.024 95.1483L97.5241 91.1483L96.4759 92.8517Z" fill="#336179" />
    <path d="M33 60C33 59.4477 33.4477 59 34 59H44C44.5523 59 45 59.4477 45 60V70C45 70.5523 44.5523 71 44 71H34C33.4477 71 33 70.5523 33 70V60ZM75 60C75 59.4477 75.4477 59 76 59H86C86.5523 59 87 59.4477 87 60V70C87 70.5523 86.5523 71 86 71H76C75.4477 71 75 70.5523 75 70V60Z" fill="white" stroke="white" stroke-width="2" stroke-linejoin="round" />
    <g filter="url(#filter0_d_936_34205)">
        <path d="M51 58C51 56.8954 51.8954 56 53 56H67C68.1046 56 69 56.8954 69 58V72C69 73.1046 68.1046 74 67 74H53C51.8954 74 51 73.1046 51 72V58Z" fill="white" />
        <path d="M59.857 67.4995H55.5395C55.3095 67.4969 55.0886 67.4096 54.9189 67.2543C54.7492 67.0991 54.6426 66.8868 54.6195 66.658C54.6068 66.5504 54.6173 66.4413 54.6503 66.3381C54.6833 66.2348 54.7381 66.1399 54.8109 66.0596C54.8837 65.9794 54.9729 65.9157 55.0724 65.8728C55.172 65.83 55.2795 65.809 55.3879 65.8112H59.7107C59.9411 65.8152 60.1621 65.9036 60.3316 66.0597C60.5012 66.2158 60.6076 66.4287 60.6306 66.658C60.6417 66.7655 60.6299 66.8741 60.5959 66.9767C60.5619 67.0793 60.5065 67.1734 60.4334 67.253C60.3602 67.3326 60.271 67.3957 60.1717 67.4382C60.0723 67.4807 59.9651 67.5016 59.857 67.4995Z" fill="#70C38A" />
        <path d="M62.857 70.4995H55.5395C55.3095 70.4969 55.0886 70.4096 54.9189 70.2543C54.7492 70.0991 54.6426 69.8868 54.6195 69.658C54.6068 69.5504 54.6173 69.4413 54.6503 69.3381C54.6833 69.2348 54.7381 69.1399 54.8109 69.0596C54.8837 68.9794 54.9729 68.9157 55.0724 68.8728C55.172 68.83 55.2795 68.809 55.3879 68.8112H62.7107C62.9411 68.8152 63.1621 68.9036 63.3316 69.0597C63.5012 69.2158 63.6076 69.4287 63.6306 69.658C63.6417 69.7655 63.6299 69.8741 63.5959 69.9767C63.5619 70.0793 63.5065 70.1734 63.4334 70.253C63.3602 70.3326 63.271 70.3957 63.1717 70.4382C63.0723 70.4807 62.9651 70.5016 62.857 70.4995Z" fill="#2B8473" />
    </g>
    <defs>
        <filter id="filter0_d_936_34205" x="43" y="52" width="34" height="34" filterUnits="userSpaceOnUse" color-interpolation-filters="sRGB">
            <feFlood flood-opacity="0" result="BackgroundImageFix" />
            <feColorMatrix in="SourceAlpha" type="matrix" values="0 0 0 0 0 0 0 0 0 0 0 0 0 0 0 0 0 0 127 0" result="hardAlpha" />
            <feOffset dy="4" />
            <feGaussianBlur stdDeviation="4" />
            <feColorMatrix type="matrix" values="0 0 0 0 0.184314 0 0 0 0 0.223529 0 0 0 0 0.254902 0 0 0 0.15 0" />
            <feBlend mode="normal" in2="BackgroundImageFix" result="effect1_dropShadow_936_34205" />
            <feBlend mode="normal" in="SourceGraphic" in2="effect1_dropShadow_936_34205" result="shape" />
        </filter>
        <radialGradient id="paint0_radial_936_34205" cx="0" cy="0" r="1" gradientUnits="userSpaceOnUse" gradientTransform="translate(83.25 46.75) rotate(155.709) scale(30.994 28.9943)">
            <stop stop-color="#70C38A" stop-opacity="0.52" />
            <stop offset="1" stop-color="#F1F9F3" />
        </radialGradient>
    </defs>
</svg>