<svg width="120" heigth="120" viewBox="0 0 120 120" fill="none" xmlns="http://www.w3.org/2000/svg">
    <rect width="44" height="60" transform="translate(38 40)" fill="white" />
    <g opacity="0.4">
        <path d="M61.6488 89.0704C60.4035 93.778 56.1745 97.2218 51.5254 99.5653C47.0341 101.829 41.8883 102.566 36.8765 101.558C31.6844 100.514 26.7928 98.1165 23.952 94.0198C21.0406 89.8213 20.1983 84.5673 21.8033 79.8208C23.3419 75.2703 27.5655 72.1203 32.1365 69.8148C36.5405 67.5934 41.5357 66.2932 46.4191 67.4047C51.3232 68.5209 55.1207 71.7876 57.8476 75.6669C60.687 79.7062 62.8825 84.4068 61.6488 89.0704Z" fill="#E6EBEE" />
        <path d="M61.6488 89.0704C60.4035 93.778 56.1745 97.2218 51.5254 99.5653C47.0341 101.829 41.8883 102.566 36.8765 101.558C31.6844 100.514 26.7928 98.1165 23.952 94.0198C21.0406 89.8213 20.1983 84.5673 21.8033 79.8208C23.3419 75.2703 27.5655 72.1203 32.1365 69.8148C36.5405 67.5934 41.5357 66.2932 46.4191 67.4047C51.3232 68.5209 55.1207 71.7876 57.8476 75.6669C60.687 79.7062 62.8825 84.4068 61.6488 89.0704Z" fill="url(#paint0_linear_936_34236)" />
    </g>
    <path d="M38 44C38 41.7909 39.7909 40 42 40H78C80.2091 40 82 41.7909 82 44V96C82 98.2091 80.2091 100 78 100H42C39.7909 100 38 98.2091 38 96V44Z" stroke="#87929D" stroke-width="2" stroke-linecap="round" />
    <path d="M62 94C62 95.1046 61.1046 96 60 96C58.8954 96 58 95.1046 58 94C58 92.8954 58.8954 92 60 92C61.1046 92 62 92.8954 62 94Z" stroke="#87929D" stroke-width="2" stroke-linecap="round" />
    <defs>
        <linearGradient id="paint0_linear_936_34236" x1="12.9663" y1="93.0134" x2="40.7897" y2="55.3718" gradientUnits="userSpaceOnUse">
            <stop stop-color="white" stop-opacity="0" />
            <stop offset="1" stop-color="white" stop-opacity="0.8" />
        </linearGradient>
    </defs>
</svg>