<svg width="16" height="17" viewBox="0 0 16 17" fill="none" xmlns="http://www.w3.org/2000/svg">
<path fill-rule="evenodd" clip-rule="evenodd" d="M9.33325 2.33345H2.66659V15.6668H13.3333V6.33345H10.6666C9.92506 6.33345 9.33325 5.74164 9.33325 5.00012V2.33345ZM14.6666 5.70408V15.6668C14.6666 16.4083 14.0748 17.0001 13.3333 17.0001H2.66659C1.92506 17.0001 1.33325 16.4083 1.33325 15.6668V2.33345C1.33325 1.59193 1.92506 1.00012 2.66659 1.00012H9.96261C9.99052 0.998346 10.0186 0.998322 10.0467 1.00012H10.3866C10.7501 1.00012 11.1022 1.14686 11.3247 1.39538L14.2459 4.31792C14.5217 4.56611 14.6666 4.90667 14.6666 5.28012V5.62C14.6684 5.64809 14.6684 5.67617 14.6666 5.70408ZM10.6666 5.00012H12.3904L10.6666 3.27626V5.00012ZM4.66659 7.66678H11.3333C12.2221 7.66678 12.2221 9.00012 11.3333 9.00012H4.66659C3.7777 9.00012 3.7777 7.66678 4.66659 7.66678ZM4.66659 10.3334H11.3333C12.2221 10.3334 12.2221 11.6668 11.3333 11.6668H4.66659C3.7777 11.6668 3.7777 10.3334 4.66659 10.3334ZM4.66659 13.0001H11.3333C12.2221 13.0001 12.2221 14.3334 11.3333 14.3334H4.66659C3.7777 14.3334 3.7777 13.0001 4.66659 13.0001Z" fill="#68737D"/>
</svg>
