<svg width="40" height="40" viewBox="0 0 40 40" fill="none" xmlns="http://www.w3.org/2000/svg">
<path fill-rule="evenodd" clip-rule="evenodd" d="M21.3333 14.6666C21.3333 15.403 20.7363 16 20 16C19.2636 16 18.6666 15.403 18.6666 14.6666C18.6666 13.9303 19.2636 13.3333 20 13.3333C20.7363 13.3333 21.3333 13.9303 21.3333 14.6666ZM21.3333 25.3333C21.3333 26.0697 20.7363 26.6666 20 26.6666C19.2636 26.6666 18.6666 26.0697 18.6666 25.3333C18.6666 24.5969 19.2636 24 20 24C20.7363 24 21.3333 24.5969 21.3333 25.3333ZM21.3333 20C21.3333 20.7364 20.7363 21.3333 20 21.3333C19.2636 21.3333 18.6666 20.7364 18.6666 20C18.6666 19.2636 19.2636 18.6666 20 18.6666C20.7363 18.6666 21.3333 19.2636 21.3333 20Z" fill="#68737D"/>
</svg>
