<svg width="16" height="20" viewBox="0 0 16 20" fill="none" xmlns="http://www.w3.org/2000/svg">
<path fill-rule="evenodd" clip-rule="evenodd" d="M8.5 13.6929L12.0464 10.1464C12.2417 9.95118 12.5583 9.95118 12.7536 10.1464C12.9488 10.3417 12.9488 10.6583 12.7536 10.8536L8.65355 14.9536C8.25829 15.3488 7.64171 15.3488 7.24645 14.9536L3.14645 10.8536C2.95118 10.6583 2.95118 10.3417 3.14645 10.1464C3.34171 9.95118 3.65829 9.95118 3.85355 10.1464L7.5 13.7929V2.5C7.5 2.22386 7.72386 2 8 2C8.27614 2 8.5 2.22386 8.5 2.5V13.6929ZM1.5 18C1.22386 18 1 17.7761 1 17.5C1 17.2239 1.22386 17 1.5 17H14.5C14.7761 17 15 17.2239 15 17.5C15 17.7761 14.7761 18 14.5 18H1.5Z" fill="#68737D"/>
</svg>
