<svg width="13" height="12" viewBox="0 0 13 12" xmlns="http://www.w3.org/2000/svg">
<path fill="currentColor" fill-rule="evenodd" clip-rule="evenodd" d="M6 7.79289V0.5C6 0.223858 6.22386 0 6.5 0C6.77614 0 7 0.223858 7 0.5V7.69289L9.54645 5.14645C9.74171 4.95118 10.0583 4.95118 10.2536 5.14645C10.4488 5.34171 10.4488 5.65829 10.2536 5.85355L7.15355 8.95355C6.75829 9.34882 6.14171 9.34882 5.74645 8.95355L2.64645 5.85355C2.45118 5.65829 2.45118 5.34171 2.64645 5.14645C2.84171 4.95118 3.15829 4.95118 3.35355 5.14645L6 7.79289ZM2 12C1.72386 12 1.5 11.7761 1.5 11.5C1.5 11.2239 1.72386 11 2 11H11C11.2761 11 11.5 11.2239 11.5 11.5C11.5 11.7761 11.2761 12 11 12H2Z" />
</svg>
