<svg width="16" height="20" viewBox="0 0 16 20" xmlns="http://www.w3.org/2000/svg">
    <path fill="currentColor" fill-rule="evenodd" clip-rule="evenodd" d="M10.5268 10.8997L7.51676 10.9997C7.22772 11.0093 6.99083 10.7724 7.00043 10.4834L7.10043 7.4734C7.10465 7.3466 7.1569 7.22615 7.24661 7.13645L12.2366 2.14645C12.4319 1.95118 12.7485 1.95118 12.9437 2.14645L15.8537 5.05645C16.049 5.25171 16.049 5.56829 15.8537 5.76355L10.8637 10.7536C10.774 10.8433 10.6536 10.8955 10.5268 10.8997ZM14.7931 5.41L12.5902 3.20711L8.09333 7.70394L8.01763 9.98253L10.2962 9.90683L14.7931 5.41ZM7.91016 3.5C7.91016 3.22386 7.6863 3 7.41016 3H2.09016C1.80595 2.99498 1.52354 3.10909 1.3164 3.31624C1.10925 3.52338 0.995139 3.80579 1.00023 4.0987L1.00016 15.91C0.995139 16.1942 1.10925 16.4766 1.3164 16.6838C1.52354 16.8909 1.80595 17.005 2.09886 16.9999L13.9102 17C14.1944 17.005 14.4768 16.8909 14.6839 16.6838C14.8911 16.4766 15.0052 16.1942 15.0001 15.9013L15.0002 10.59C15.0002 10.3139 14.7763 10.09 14.5002 10.09C14.224 10.09 14.0002 10.3139 14.0002 10.59V15.91C14.0006 15.9404 13.9922 15.9613 13.9768 15.9767C13.9615 15.992 13.9406 16.0005 13.9189 16.0001L2.09016 16C2.05977 16.0005 2.03885 15.992 2.0235 15.9767C2.00816 15.9613 1.99971 15.9404 2.00008 15.9187L2.00016 4.09C1.99971 4.05961 2.00816 4.03869 2.0235 4.02334C2.03885 4.008 2.05977 3.99955 2.08146 3.99992L7.41016 4C7.6863 4 7.91016 3.77614 7.91016 3.5Z" />
</svg>
    