<svg width="16" height="16" viewBox="0 0 16 16" fill="none" xmlns="http://www.w3.org/2000/svg">
<path fill-rule="evenodd" clip-rule="evenodd" d="M15 2H1C0.45 2 0 2.45 0 3V13C0 13.55 0.45 14 1 14H15C15.55 14 16 13.55 16 13V3C16 2.45 15.55 2 15 2ZM4.94 9.94L1.94 12.94C1.82 13.06 1.66 13.12 1.5 13.12C1.34 13.12 1.18 13.06 1.06 12.94C0.820119 12.6957 0.820119 12.3043 1.06 12.06L4.06 9.06C4.3 8.82 4.7 8.82 4.94 9.06C5.19 9.3 5.19 9.7 4.94 9.94ZM14.94 12.94C14.82 13.06 14.66 13.12 14.5 13.12C14.34 13.12 14.18 13.06 14.06 12.94L11.06 9.94C10.8201 9.69571 10.8201 9.30429 11.06 9.06C11.3 8.82 11.7 8.82 11.94 9.06L14.94 12.06C15.19 12.3 15.19 12.7 14.94 12.94ZM14.94 3.94L8.8 10.09C8.58 10.31 8.29 10.42 8 10.42C7.71 10.42 7.42 10.31 7.2 10.09L1.06 3.94C0.82 3.7 0.82 3.3 1.06 3.06C1.3 2.82 1.7 2.82 1.94 3.06L8 9.12L14.06 3.06C14.3 2.82 14.7 2.82 14.94 3.06C15.19 3.3 15.19 3.7 14.94 3.94Z" fill="#003A57"/>
</svg>
