<svg width="24" height="24" viewBox="0 0 24 24" fill="none" xmlns="http://www.w3.org/2000/svg">
<g opacity="0.3">
<path opacity="0.3" d="M12 24C18.6274 24 24 18.6274 24 12C24 5.37258 18.6274 0 12 0C5.37258 0 0 5.37258 0 12C0 18.6274 5.37258 24 12 24Z" fill="#028079"/>
</g>
<path d="M16.3725 8.71592L15.9 7.66592L14.85 7.19342C14.5575 7.05842 14.5575 6.64592 14.85 6.51092L15.9 6.03842L16.3725 4.98842C16.5075 4.69592 16.92 4.69592 17.055 4.98842L17.5275 6.03842L18.5775 6.51092C18.87 6.64592 18.87 7.05842 18.5775 7.19342L17.5275 7.66592L17.055 8.71592C16.9275 9.00842 16.5075 9.00842 16.3725 8.71592ZM18.8025 12.2634L18.5625 11.7234C18.4275 11.4309 18.015 11.4309 17.88 11.7234L17.64 12.2634L17.0925 12.5034C16.8 12.6384 16.8 13.0509 17.0925 13.1859L17.6325 13.4259L17.8725 13.9734C18.0075 14.2659 18.42 14.2659 18.555 13.9734L18.795 13.4334L19.3425 13.1934C19.635 13.0584 19.635 12.6459 19.3425 12.5109L18.8025 12.2634ZM15.0225 13.5009L15.945 14.1984C16.245 14.4234 16.3275 14.8434 16.14 15.1734L14.925 17.2734C14.7375 17.6034 14.3325 17.7384 13.9875 17.5884L12.915 17.1384C12.765 17.2359 12.6 17.3334 12.435 17.4159L12.2925 18.5709C12.2475 18.9459 11.925 19.2309 11.55 19.2309H9.12747C8.75247 19.2309 8.42997 18.9459 8.38497 18.5709L8.24247 17.4159C8.07747 17.3334 7.91997 17.2434 7.76247 17.1384L6.68997 17.5884C6.34497 17.7384 5.93997 17.6034 5.75247 17.2734L4.53747 15.1734C4.34997 14.8434 4.43247 14.4309 4.73247 14.1984L5.65497 13.5009C5.65497 13.4109 5.65497 13.3134 5.65497 13.2234C5.65497 13.1334 5.65497 13.0359 5.66247 12.9459L4.73997 12.2484C4.43997 12.0234 4.35747 11.6034 4.54497 11.2734L5.75997 9.17342C5.94747 8.84342 6.35247 8.70842 6.69747 8.85842L7.76997 9.30842C7.91997 9.21092 8.08497 9.11342 8.24997 9.03092L8.39247 7.87592C8.42997 7.50842 8.75247 7.22342 9.12747 7.22342H11.55C11.925 7.22342 12.2475 7.50842 12.2925 7.88342L12.435 9.03842C12.6 9.12092 12.7575 9.21092 12.915 9.31592L13.9875 8.86592C14.3325 8.71592 14.7375 8.85092 14.925 9.18092L16.14 11.2809C16.3275 11.6109 16.245 12.0234 15.945 12.2559L15.0225 12.9534C15.03 13.0434 15.03 13.1334 15.03 13.2309C15.03 13.3284 15.03 13.4109 15.0225 13.5009ZM12.5925 13.2234C12.5925 11.9784 11.5875 10.9734 10.3425 10.9734C9.09747 10.9734 8.09247 11.9784 8.09247 13.2234C8.09247 14.4684 9.09747 15.4734 10.3425 15.4734C11.5875 15.4734 12.5925 14.4684 12.5925 13.2234Z" fill="#028079"/>
</svg>
