<svg width="24" height="24" viewBox="0 0 24 24" fill="#D53032" xmlns="http://www.w3.org/2000/svg">
    <path fill-rule="evenodd" clip-rule="evenodd" d="M12 5.25C11.5858 5.25 11.25 5.58579 11.25 6V12.75C11.25 13.1642 11.5858 13.5 12 13.5C12.4142 13.5 12.75 13.1642 12.75 12.75V6C12.75 5.58579 12.4142 5.25 12 5.25ZM12 18.75C12.8284 18.75 13.5 18.0784 13.5 17.25C13.5 16.4216 12.8284 15.75 12 15.75C11.1716 15.75 10.5 16.4216 10.5 17.25C10.5 18.0784 11.1716 18.75 12 18.75ZM12 23.25C5.7868 23.25 0.75 18.2132 0.75 12C0.75 5.7868 5.7868 0.75 12 0.75C18.2132 0.75 23.25 5.7868 23.25 12C23.25 18.2132 18.2132 23.25 12 23.25ZM12 21.75C17.3848 21.75 21.75 17.3848 21.75 12C21.75 6.61522 17.3848 2.25 12 2.25C6.61522 2.25 2.25 6.61522 2.25 12C2.25 17.3848 6.61522 21.75 12 21.75Z" />
</svg>    