<svg width="16" height="16" viewBox="0 0 16 16" fill="none" xmlns="http://www.w3.org/2000/svg">
<path d="M4.69699 6.07415H0.920784C0.414218 6.07415 -0.000244141 5.65969 -0.000244141 5.15311C-0.000244141 4.64654 0.414218 4.23207 0.920784 4.23207H4.69699C5.20356 4.23207 5.61802 4.64654 5.61802 5.15311C5.61802 5.65969 5.20356 6.07415 4.69699 6.07415ZM7.57873 8.5526H0.920784C0.414218 8.5526 -0.000244141 8.96707 -0.000244141 9.47364C-0.000244141 9.98022 0.414218 10.3947 0.920784 10.3947H7.57873C8.08529 10.3947 8.49976 9.98022 8.49976 9.47364C8.49976 8.96707 8.08529 8.5526 7.57873 8.5526ZM0.920784 14.2846H10.3149C10.8214 14.2846 11.2359 13.8701 11.2359 13.3635C11.2359 12.857 10.8214 12.4425 10.3149 12.4425H0.920784C0.414218 12.4425 -0.000244141 12.857 -0.000244141 13.3635C-0.000244141 13.8701 0.414218 14.2846 0.920784 14.2846Z" fill="currentColor"/>
<path fill-rule="evenodd" clip-rule="evenodd" d="M13.6076 14.7312L10.5888 10.2679C9.67087 10.6277 8.63966 10.7286 7.60701 10.4565C5.39865 9.8925 3.84827 7.75753 4.00383 5.4844C4.24079 2.24714 7.50964 0.146131 10.5788 1.33915C12.3493 2.02852 13.5781 3.77335 13.6076 5.6727C13.6344 7.11043 13.0691 8.32777 12.1912 9.20591L15.2175 13.6805C15.5087 14.1232 15.3863 14.7159 14.9436 15.0071C14.5009 15.2982 13.8988 15.1739 13.6076 14.7312ZM11.6246 6.39143C11.9452 4.83907 10.9374 3.30664 9.38509 2.98604C7.83275 2.66544 6.30033 3.67324 5.97973 5.22561C5.65912 6.77798 6.66691 8.3104 8.21925 8.63101C9.7716 8.95161 11.304 7.9438 11.6246 6.39143Z" fill="currentColor"/>
</svg>
