<svg width="36" height="36" viewBox="0 0 36 36" fill="none" xmlns="http://www.w3.org/2000/svg">
<g opacity="0.3">
<path opacity="0.3" d="M18 36.001C27.9411 36.001 36 27.9421 36 18.001C36 8.05985 27.9411 0.000976562 18 0.000976562C8.05887 0.000976562 0 8.05985 0 18.001C0 27.9421 8.05887 36.001 18 36.001Z" fill="#105287"/>
</g>
<path d="M14.2843 15.8333H10.036C9.46615 15.8333 8.99988 15.367 8.99988 14.7971C8.99988 14.2272 9.46615 13.761 10.036 13.761H14.2843C14.8542 13.761 15.3204 14.2272 15.3204 14.7971C15.3204 15.367 14.8542 15.8333 14.2843 15.8333ZM17.5262 18.6216H10.036C9.46615 18.6216 8.99988 19.0878 8.99988 19.6577C8.99988 20.2276 9.46615 20.6939 10.036 20.6939H17.5262C18.0961 20.6939 18.5624 20.2276 18.5624 19.6577C18.5624 19.0878 18.0961 18.6216 17.5262 18.6216ZM10.036 25.07H20.6044C21.1743 25.07 21.6405 24.6038 21.6405 24.0339C21.6405 23.464 21.1743 22.9977 20.6044 22.9977H10.036C9.46615 22.9977 8.99988 23.464 8.99988 24.0339C8.99988 24.6038 9.46615 25.07 10.036 25.07Z" fill="#105287"/>
<path fill-rule="evenodd" clip-rule="evenodd" d="M24.3087 25.5725L20.9125 20.5513C19.8799 20.956 18.7198 21.0696 17.558 20.7634C15.0736 20.1289 13.3295 17.7271 13.5045 15.1698C13.771 11.5279 17.4485 9.16428 20.9013 10.5064C22.8931 11.282 24.2755 13.2449 24.3087 15.3817C24.3388 16.9991 23.7029 18.3686 22.7153 19.3565L26.1199 24.3905C26.4474 24.8885 26.3097 25.5553 25.8117 25.8829C25.3136 26.2104 24.6363 26.0705 24.3087 25.5725ZM22.0778 16.1902C22.4385 14.4438 21.3048 12.7198 19.5584 12.3592C17.812 11.9985 16.088 13.1323 15.7273 14.8787C15.3667 16.6251 16.5004 18.3491 18.2468 18.7098C19.9932 19.0704 21.7172 17.9367 22.0778 16.1902Z" fill="#105287"/>
</svg>
