<svg width="16" height="16" viewBox="0 0 16 16" fill="none" xmlns="http://www.w3.org/2000/svg">
<path fill-rule="evenodd" clip-rule="evenodd" d="M15 14V10.5C15 10.2239 14.7761 10 14.5 10C14.2239 10 14 10.2239 14 10.5V14H2V2H5.5C5.77614 2 6 1.77614 6 1.5C6 1.22386 5.77614 1 5.5 1H2C1.42386 1 1 1.42386 1 2V14C1 14.5761 1.42386 15 2 15H14C14.5761 15 15 14.5761 15 14ZM7.64645 7.64645C7.45118 7.84171 7.45118 8.15829 7.64645 8.35355C7.84171 8.54882 8.15829 8.54882 8.35355 8.35355L14 2.70711V7.5C14 7.77614 14.2239 8 14.5 8C14.7761 8 15 7.77614 15 7.5V1.50049V1.5C15 1.499 15 1.498 15 1.497C14.9996 1.4303 14.9861 1.36669 14.9621 1.30861C14.9377 1.24964 14.9015 1.19439 14.8536 1.14645C14.8056 1.09851 14.7504 1.06234 14.6914 1.03794C14.6324 1.01349 14.5678 1 14.5 1H8.5C8.22386 1 8 1.22386 8 1.5C8 1.77614 8.22386 2 8.5 2H13.2929L7.64645 7.64645Z" fill="currentColor"/>
</svg>
