<svg width="24" height="24" viewBox="0 0 24 24" fill="none" xmlns="http://www.w3.org/2000/svg">
<rect width="24" height="24" rx="2" fill="#535BFA"/>
<path d="M17 8.25H12L10.75 7H7C6.3125 7 5.75625 7.5625 5.75625 8.25L5.75 15.75C5.75 16.4375 6.3125 17 7 17H17C17.6875 17 18.25 16.4375 18.25 15.75V9.5C18.25 8.8125 17.6875 8.25 17 8.25ZM14.5 14.5H15.75V13.25H14.5V12H15.75V10.75H14.5V9.5H17V15.75H14.5V14.5ZM14.5 14.5H13.25V15.75H7V8.25H10.2313L11.4813 9.5H13.25V10.75H14.5V12H13.25V13.25H14.5V14.5Z" fill="white"/>
</svg>
