<svg width="24" height="24" viewBox="0 0 24 24" fill="none" xmlns="http://www.w3.org/2000/svg">
<rect width="24" height="24" rx="2" fill="#E34F32"/>
<path d="M17.625 4.5H6.375C5.34375 4.5 4.5 5.34375 4.5 6.375V17.625C4.5 18.6563 5.34375 19.5 6.375 19.5H17.625C18.6562 19.5 19.5 18.6563 19.5 17.625V6.375C19.5 5.34375 18.6562 4.5 17.625 4.5ZM17.625 17.625H6.375V6.375H17.625V17.625ZM13.875 13.875V11.0625C13.875 10.5469 13.4531 10.125 12.9375 10.125H11.0625V14.8125H12.9375C13.4531 14.8125 13.875 14.3906 13.875 13.875ZM12 11.0625H12.9375V13.875H12V11.0625ZM15.75 12.9375H16.6875V12H15.75V11.0625H16.6875V10.125H14.8125V14.8125H15.75V12.9375ZM8.25 12.9375H9.1875C9.70312 12.9375 10.125 12.5156 10.125 12V11.0625C10.125 10.5469 9.70312 10.125 9.1875 10.125H7.3125V14.8125H8.25V12.9375ZM8.25 11.0625H9.1875V12H8.25V11.0625Z" fill="white"/>
</svg>
