<svg width="16" height="16" viewBox="0 0 12 12" fill="none" xmlns="http://www.w3.org/2000/svg">
<path fill-rule="evenodd" clip-rule="evenodd" d="M11.8697 6.42551C10.5707 8.28355 8.59675 9.75 5.9997 9.75C3.40266 9.75 1.42868 8.28355 0.129731 6.42551C-0.0440356 6.16455 -0.0440356 5.83545 0.134532 5.56745C1.42868 3.71645 3.40266 2.25 5.9997 2.25C8.59675 2.25 10.5707 3.71645 11.8697 5.57449C12.0434 5.83545 12.0434 6.16455 11.8697 6.42551ZM6 3C3.70346 3 1.9184 4.32664 0.755437 5.99051C1.9184 7.67336 3.70346 9 6 9C8.29461 9 10.0786 7.67559 11.2464 6.00667C10.0816 4.32664 8.29654 3 6 3ZM6 8.25C4.75736 8.25 3.75 7.24264 3.75 6C3.75 4.75736 4.75736 3.75 6 3.75C7.24264 3.75 8.25 4.75736 8.25 6C8.25 7.24264 7.24264 8.25 6 8.25ZM6 7.5C6.82843 7.5 7.5 6.82843 7.5 6C7.5 5.17157 6.82843 4.5 6 4.5C5.17157 4.5 4.5 5.17157 4.5 6C4.5 6.82843 5.17157 7.5 6 7.5Z" fill="currentColor"/>
</svg>
