<svg width="16" height="16" viewBox="0 0 16 16" fill="none" xmlns="http://www.w3.org/2000/svg">
<path fill-rule="evenodd" clip-rule="evenodd" d="M12.4237 4.20605C13.7922 5.00981 14.9299 6.15078 15.8261 7.43262C16.0578 7.78057 16.0578 8.21943 15.8261 8.56738C14.0941 11.0448 11.4617 13 7.99893 13C7.39537 13 6.81727 12.9394 6.26456 12.8281L6.91104 11.9229C7.26369 11.9731 7.62674 12 7.99991 12C11.0593 12 13.438 10.234 14.995 8.00879C14.1687 6.81696 13.1086 5.75791 11.8358 5.02832L12.4237 4.20605ZM7.99893 3C8.75432 3 9.47079 3.09245 10.1464 3.26367L9.51358 4.15039C9.02948 4.05296 8.52481 4.00001 7.99991 4C4.93785 4 2.55736 5.7688 1.00674 7.9873C1.90501 9.28713 3.08239 10.4267 4.5087 11.1562L3.9169 11.9854C2.39493 11.1772 1.14252 9.95454 0.172759 8.56738C-0.0589289 8.21943 -0.0584945 7.78018 0.179595 7.42285C1.90505 4.95519 4.53666 3.00018 7.99893 3ZM10.6767 6.65137C10.8815 7.05717 10.9999 7.51438 10.9999 8C10.9999 9.65682 9.65671 10.9999 7.99991 11C7.86112 11 7.72451 10.9899 7.59073 10.9717L8.30362 9.97363C9.26375 9.82705 9.99991 9.0011 9.99991 8C9.99991 7.87919 9.98625 7.76139 9.96573 7.64648L10.6767 6.65137ZM7.99991 5C8.28557 5.00001 8.56142 5.04163 8.82315 5.11621L8.18545 6.00977C8.12432 6.00414 8.06251 6 7.99991 6C6.89534 6 5.99991 6.89543 5.99991 8C5.99991 8.29268 6.06467 8.56977 6.17764 8.82031L5.53897 9.71387C5.19986 9.22786 4.99991 8.63756 4.99991 8C4.99991 6.34315 6.34305 5 7.99991 5Z" fill="currentColor"/>
<path d="M3.65942 14.2444L12.5001 2.06744" stroke="currentColor" stroke-linecap="round"/>
</svg>
