<svg width="16" height="16" viewBox="0 0 16 16" fill="none" xmlns="http://www.w3.org/2000/svg">
<path fill-rule="evenodd" clip-rule="evenodd" d="M15.8127 7.42C15.0843 6.38 12.3703 3 8 3C3.62966 3 0.915666 6.38 0.187277 7.42C-0.0624256 7.76617 -0.0624256 8.23383 0.187277 8.58C0.915666 9.62 3.62966 13 8 13C12.3703 13 15.0843 9.62 15.8127 8.58C16.0624 8.23383 16.0624 7.76617 15.8127 7.42ZM10 8C10 9.10457 9.10457 10 8 10C6.89543 10 6 9.10457 6 8C6 6.89543 6.89543 6 8 6C9.10457 6 10 6.89543 10 8ZM4.9823 8C4.9823 9.65 6.3323 11 7.9823 11C9.6323 11 10.9823 9.65 10.9823 8C10.9823 6.35 9.6323 5 7.9823 5C6.3323 5 4.9823 6.35 4.9823 8Z" fill="currentColor"/>
</svg>
