<svg width="16" height="16" viewBox="0 0 16 16" fill="none" xmlns="http://www.w3.org/2000/svg">
<path fill-rule="evenodd" clip-rule="evenodd" d="M15.8262 8.56735C14.0943 11.0447 11.4623 13 7.9996 13C4.53688 13 1.9049 11.0447 0.172974 8.56735C-0.0587141 8.2194 -0.0587141 7.7806 0.179376 7.42327C1.9049 4.95527 4.53688 3 7.9996 3C11.4623 3 14.0943 4.95527 15.8262 7.43265C16.0579 7.7806 16.0579 8.2194 15.8262 8.56735ZM8 4C4.93794 4 2.55787 5.76885 1.00725 7.98735C2.55787 10.2311 4.93794 12 8 12C11.0595 12 13.4381 10.2341 14.9952 8.00889C13.4421 5.76885 11.0621 4 8 4ZM8 11C6.34315 11 5 9.65685 5 8C5 6.34315 6.34315 5 8 5C9.65685 5 11 6.34315 11 8C11 9.65685 9.65685 11 8 11ZM8 10C9.10457 10 10 9.10457 10 8C10 6.89543 9.10457 6 8 6C6.89543 6 6 6.89543 6 8C6 9.10457 6.89543 10 8 10Z" fill="currentColor"/>
<line x1="2.61665" y1="15.0119" x2="12.6167" y2="1.01189" stroke="#FFFEFE" stroke-width="3.4"/>
<path d="M2.59277 14.7095L12.5928 0.709473" stroke="currentColor"/>
</svg>
