<svg width="64" height="64" viewBox="0 0 64 64" fill="none" xmlns="http://www.w3.org/2000/svg">
<g clip-path="url(#clip0_118_13253)">
<path opacity="0.1" d="M18.0209 1.90109C25.9876 -1.56017 35.0913 0.135283 43.0354 3.54594C50.7098 6.84083 56.8442 12.6077 60.3499 20.0744C63.9817 27.8097 65.3807 36.6128 62.3227 44.6253C59.1885 52.8371 52.5011 59.5443 44.1236 62.5892C36.0922 65.5083 27.4143 63.5046 19.6018 60.1528C12.0746 56.9234 5.282 51.9529 2.05126 44.5387C-1.19314 37.0933 -0.267457 28.7517 2.59194 21.1174C5.56929 13.1681 10.1287 5.33004 18.0209 1.90109Z" fill="#158944"/>
<g clip-path="url(#clip1_118_13253)">
<g filter="url(#filter0_d_118_13253)">
<path d="M43.2524 18.2424C44.6906 18.3868 45.8184 19.3387 46.1005 20.7563C46.5181 22.8545 47 26.696 47 33.25C47 39.8041 46.518 43.6455 46.1005 45.7438C45.8184 47.1614 44.6906 48.1133 43.2524 48.2576C41.2956 48.454 37.8307 48.6667 32 48.6667C26.1693 48.6667 22.7044 48.454 20.7476 48.2576C19.3094 48.1133 18.1816 47.1614 17.8995 45.7438C17.482 43.6455 17 39.8041 17 33.25C17 26.696 17.482 22.8545 17.8995 20.7563C18.1816 19.3387 19.3094 18.3868 20.7476 18.2424C22.7044 18.046 26.1693 17.8334 32 17.8334C37.8307 17.8334 41.2956 18.046 43.2524 18.2424Z" fill="#158944"/>
<path d="M43.2524 18.2424C44.6906 18.3868 45.8184 19.3387 46.1005 20.7563C46.5181 22.8545 47 26.696 47 33.25C47 39.8041 46.518 43.6455 46.1005 45.7438C45.8184 47.1614 44.6906 48.1133 43.2524 48.2576C41.2956 48.454 37.8307 48.6667 32 48.6667C26.1693 48.6667 22.7044 48.454 20.7476 48.2576C19.3094 48.1133 18.1816 47.1614 17.8995 45.7438C17.482 43.6455 17 39.8041 17 33.25C17 26.696 17.482 22.8545 17.8995 20.7563C18.1816 19.3387 19.3094 18.3868 20.7476 18.2424C22.7044 18.046 26.1693 17.8334 32 17.8334C37.8307 17.8334 41.2956 18.046 43.2524 18.2424Z" stroke="#F6F6F8" stroke-width="1.6"/>
</g>
<path fill-rule="evenodd" clip-rule="evenodd" d="M39.4707 27.3781C40.3197 27.8682 40.5962 28.9902 40.0554 29.8212C37.1082 34.3501 34.4602 37.32 32.96 38.8507C32.204 39.622 31.0564 39.7229 30.2059 39.0632C28.8729 38.0291 26.8125 36.1937 24.8175 33.4654C24.3331 32.803 24.4156 31.8807 24.9787 31.2872L25.4314 30.8098C26.0657 30.1413 27.1019 30.1011 27.7492 30.7563C29.6934 32.7245 31.3738 34.8527 31.3738 34.8527C31.3738 34.8527 33.7355 31.3568 37.1495 27.5481C37.6754 26.9614 38.5268 26.8332 39.2039 27.2241L39.4707 27.3781Z" fill="white"/>
<path d="M35.881 15.3713C37.33 15.4014 38.4243 16.6764 38.2643 18.1169L38.0798 19.7761C37.9392 21.0422 36.869 22 35.5952 22H28.4037C27.1298 22 26.0597 21.0422 25.919 19.7761L25.7347 18.1169C25.5746 16.6764 26.6688 15.4014 28.1179 15.3713C29.2774 15.3472 30.5671 15.3334 31.9994 15.3334C33.4318 15.3334 34.7214 15.3472 35.881 15.3713Z" fill="white"/>
</g>
</g>
<defs>
<filter id="filter0_d_118_13253" x="8.19995" y="13.0333" width="47.6001" height="48.4333" filterUnits="userSpaceOnUse" color-interpolation-filters="sRGB">
<feFlood flood-opacity="0" result="BackgroundImageFix"/>
<feColorMatrix in="SourceAlpha" type="matrix" values="0 0 0 0 0 0 0 0 0 0 0 0 0 0 0 0 0 0 127 0" result="hardAlpha"/>
<feOffset dy="4"/>
<feGaussianBlur stdDeviation="4"/>
<feColorMatrix type="matrix" values="0 0 0 0 0.184314 0 0 0 0 0.223529 0 0 0 0 0.254902 0 0 0 0.15 0"/>
<feBlend mode="normal" in2="BackgroundImageFix" result="effect1_dropShadow_118_13253"/>
<feBlend mode="normal" in="SourceGraphic" in2="effect1_dropShadow_118_13253" result="shape"/>
</filter>
<clipPath id="clip0_118_13253">
<rect width="64" height="64" rx="16" fill="white"/>
</clipPath>
<clipPath id="clip1_118_13253">
<rect width="40" height="40" fill="white" transform="translate(12 12)"/>
</clipPath>
</defs>
</svg>
