<svg width="64" height="64" viewBox="0 0 64 64" fill="none" xmlns="http://www.w3.org/2000/svg">
<g clip-path="url(#clip0_5101_38289)">
<path opacity="0.1" d="M18.0209 1.90109C25.9876 -1.56017 35.0913 0.135283 43.0354 3.54594C50.7098 6.84083 56.8442 12.6077 60.3499 20.0744C63.9817 27.8097 65.3807 36.6128 62.3227 44.6253C59.1885 52.8371 52.5011 59.5443 44.1236 62.5892C36.0922 65.5083 27.4143 63.5046 19.6018 60.1528C12.0746 56.9234 5.282 51.9529 2.05126 44.5387C-1.19314 37.0933 -0.267457 28.7517 2.59194 21.1174C5.56929 13.1681 10.1287 5.33004 18.0209 1.90109Z" fill="#DE701D"/>
<g filter="url(#filter0_d_5101_38289)">
<path d="M29.75 16.0229C31.1711 16.0229 31.5263 16.0229 32.9474 16.0231L34.3684 16.0229C35.4342 16.0229 35.6239 16.0231 36.4488 16.0231H45.7944C48.0127 16.0231 49.8596 17.7541 49.93 20.01C49.973 21.386 50 23.0193 50 24.9512C50 30.0218 49.8139 33.0357 49.642 34.7383C49.5155 35.9902 48.6957 36.9669 47.4819 37.2093C45.6539 37.5744 42.2826 38 36.5 38C30.7174 38 27.3462 37.5744 25.5181 37.2093C24.3043 36.9669 23.4845 35.9902 23.358 34.7383C23.1861 33.0357 23 30.0218 23 24.9512C23 21.1163 23.1013 21.4755 23.3553 18.961C23.4817 17.7091 24.4854 16.0746 25.519 16.023C26.5526 15.9713 27.6184 16.0229 29.75 16.0229Z" fill="#DE701D"/>
<path d="M29.75 16.0229C31.1711 16.0229 31.5263 16.0229 32.9474 16.0231L34.3684 16.0229C35.4342 16.0229 35.6239 16.0231 36.4488 16.0231H45.7944C48.0127 16.0231 49.8596 17.7541 49.93 20.01C49.973 21.386 50 23.0193 50 24.9512C50 30.0218 49.8139 33.0357 49.642 34.7383C49.5155 35.9902 48.6957 36.9669 47.4819 37.2093C45.6539 37.5744 42.2826 38 36.5 38C30.7174 38 27.3462 37.5744 25.5181 37.2093C24.3043 36.9669 23.4845 35.9902 23.358 34.7383C23.1861 33.0357 23 30.0218 23 24.9512C23 21.1163 23.1013 21.4755 23.3553 18.961C23.4817 17.7091 24.4854 16.0746 25.519 16.023C26.5526 15.9713 27.6184 16.0229 29.75 16.0229Z" stroke="white" stroke-width="1.6"/>
</g>
<g filter="url(#filter1_d_5101_38289)">
<path d="M20.75 26.0229C22.1711 26.0229 22.5263 26.0229 23.9474 26.0231L25.3684 26.0229C26.4342 26.0229 26.6239 26.0231 27.4488 26.0231H36.7944C39.0127 26.0231 40.8596 27.7541 40.93 30.01C40.973 31.386 41 33.0193 41 34.9512C41 40.0218 40.8139 43.0357 40.642 44.7383C40.5155 45.9902 39.6957 46.9669 38.4819 47.2093C36.6539 47.5744 33.2826 48 27.5 48C21.7174 48 18.3462 47.5744 16.5181 47.2093C15.3043 46.9669 14.4845 45.9902 14.358 44.7383C14.1861 43.0357 14 40.0218 14 34.9512C14 31.1163 14.1013 31.4755 14.3553 28.961C14.4817 27.7091 15.4854 26.0746 16.519 26.023C17.5526 25.9713 18.6184 26.0229 20.75 26.0229Z" fill="white"/>
</g>
<path d="M25 40.1683V34.8317C25 34.0405 25.8752 33.5627 26.5408 33.9905L30.6915 36.6588C31.3038 37.0525 31.3038 37.9475 30.6915 38.3412L26.5408 41.0095C25.8752 41.4373 25 40.9595 25 40.1683Z" fill="#DE701D" stroke="#DE701D"/>
</g>
<defs>
<filter id="filter0_d_5101_38289" x="14.2" y="11.2002" width="44.6001" height="39.5999" filterUnits="userSpaceOnUse" color-interpolation-filters="sRGB">
<feFlood flood-opacity="0" result="BackgroundImageFix"/>
<feColorMatrix in="SourceAlpha" type="matrix" values="0 0 0 0 0 0 0 0 0 0 0 0 0 0 0 0 0 0 127 0" result="hardAlpha"/>
<feOffset dy="4"/>
<feGaussianBlur stdDeviation="4"/>
<feColorMatrix type="matrix" values="0 0 0 0 0.184314 0 0 0 0 0.223529 0 0 0 0 0.254902 0 0 0 0.15 0"/>
<feBlend mode="normal" in2="BackgroundImageFix" result="effect1_dropShadow_5101_38289"/>
<feBlend mode="normal" in="SourceGraphic" in2="effect1_dropShadow_5101_38289" result="shape"/>
</filter>
<filter id="filter1_d_5101_38289" x="6" y="22" width="43" height="38" filterUnits="userSpaceOnUse" color-interpolation-filters="sRGB">
<feFlood flood-opacity="0" result="BackgroundImageFix"/>
<feColorMatrix in="SourceAlpha" type="matrix" values="0 0 0 0 0 0 0 0 0 0 0 0 0 0 0 0 0 0 127 0" result="hardAlpha"/>
<feOffset dy="4"/>
<feGaussianBlur stdDeviation="4"/>
<feColorMatrix type="matrix" values="0 0 0 0 0.184314 0 0 0 0 0.223529 0 0 0 0 0.254902 0 0 0 0.15 0"/>
<feBlend mode="normal" in2="BackgroundImageFix" result="effect1_dropShadow_5101_38289"/>
<feBlend mode="normal" in="SourceGraphic" in2="effect1_dropShadow_5101_38289" result="shape"/>
</filter>
<clipPath id="clip0_5101_38289">
<rect width="64" height="64" fill="white"/>
</clipPath>
</defs>
</svg>
