<svg width="80" height="80" viewBox="0 0 80 80" fill="none" xmlns="http://www.w3.org/2000/svg">
<g opacity="0.3" filter="url(#filter0_d_118_10477)">
<path d="M26.0209 5.90109C33.9876 2.43983 43.0913 4.13528 51.0354 7.54594C58.7098 10.8408 64.8442 16.6077 68.3499 24.0744C71.9817 31.8097 73.3807 40.6128 70.3227 48.6253C67.1885 56.8371 60.5011 63.5443 52.1236 66.5892C44.0922 69.5083 35.4143 67.5046 27.6018 64.1528C20.0746 60.9234 13.282 55.9529 10.0513 48.5387C6.80686 41.0933 7.73254 32.7517 10.5919 25.1174C13.5693 17.1681 18.1287 9.33004 26.0209 5.90109Z" fill="#F3C5C4"/>
</g>
<g filter="url(#filter1_d_118_10477)">
<path d="M50.25 54.9605C48.1974 54.9605 47.6842 54.9605 45.6316 54.9602L43.5789 54.9605C42.0395 54.9605 41.7654 54.9602 40.574 54.9602L27.0748 54.9602C23.8705 54.9602 21.2028 51.9703 21.1011 48.0737C21.039 45.6969 21 42.8758 21 39.5388C21 30.7805 21.2688 25.5746 21.5172 22.6339C21.6998 20.4714 22.884 18.7845 24.6373 18.3658C27.2778 17.7351 32.1473 17 40.5 17C48.8527 17 53.7222 17.7351 56.3627 18.3658C58.116 18.7845 59.3002 20.4714 59.4828 22.6339C59.7312 25.5746 60 30.7805 60 39.5388C60 46.1627 59.8537 45.5423 59.4868 49.8855C59.3042 52.048 57.8545 54.8711 56.3615 54.9603C54.8684 55.0495 53.3289 54.9605 50.25 54.9605Z" fill="#A92329"/>
<path d="M50.25 54.9605C48.1974 54.9605 47.6842 54.9605 45.6316 54.9602L43.5789 54.9605C42.0395 54.9605 41.7654 54.9602 40.574 54.9602L27.0748 54.9602C23.8705 54.9602 21.2028 51.9703 21.1011 48.0737C21.039 45.6969 21 42.8758 21 39.5388C21 30.7805 21.2688 25.5746 21.5172 22.6339C21.6998 20.4714 22.884 18.7845 24.6373 18.3658C27.2778 17.7351 32.1473 17 40.5 17C48.8527 17 53.7222 17.7351 56.3627 18.3658C58.116 18.7845 59.3002 20.4714 59.4828 22.6339C59.7312 25.5746 60 30.7805 60 39.5388C60 46.1627 59.8537 45.5423 59.4868 49.8855C59.3042 52.048 57.8545 54.8711 56.3615 54.9603C54.8684 55.0495 53.3289 54.9605 50.25 54.9605Z" stroke="white" stroke-width="1.6"/>
</g>
<g filter="url(#filter2_d_118_10477)">
<path d="M39.8 40.1V33.6H42.1V40.1H39.8Z" fill="#A92329"/>
<path d="M31.6 35.95V33.6H34V35.95H31.6Z" fill="#A92329"/>
<path fill-rule="evenodd" clip-rule="evenodd" d="M34 37.8H31.6V41.05C31.6 41.25 31.4917 41.4584 31.275 41.675C31.0583 41.8917 30.85 42 30.65 42C30.3833 42 30.1667 41.9084 30 41.725C29.8333 41.5417 29.75 41.3334 29.75 41.1V32.7C29.75 32.4334 29.85 32.1917 30.05 31.975C30.25 31.7584 30.5 31.65 30.8 31.65H34C34.5 31.65 34.9417 31.8417 35.325 32.225C35.7083 32.6084 35.9 33.0667 35.9 33.6V35.95C35.9 36.45 35.7083 36.8834 35.325 37.25C34.9417 37.6167 34.5 37.8 34 37.8ZM43.45 41.45C43.05 41.8167 42.6 42 42.1 42H38.95C38.65 42 38.4 41.8917 38.2 41.675C38 41.4584 37.9 41.2167 37.9 40.95V32.7C37.9 32.4334 38 32.1917 38.2 31.975C38.4 31.7584 38.65 31.65 38.95 31.65H42.1C42.6 31.65 43.05 31.8417 43.45 32.225C43.85 32.6084 44.05 33.0667 44.05 33.6V40.1C44.05 40.6334 43.85 41.0834 43.45 41.45ZM49.65 37.8H48.2V41.05C48.2 41.25 48.1 41.4584 47.9 41.675C47.7 41.8917 47.4833 42 47.25 42C46.95 42 46.7167 41.9084 46.55 41.725C46.3833 41.5417 46.3 41.3334 46.3 41.1V32.7C46.3 32.4334 46.4083 32.1917 46.625 31.975C46.8417 31.7584 47.0833 31.65 47.35 31.65H49.65C49.8833 31.65 50.1083 31.7584 50.325 31.975C50.5417 32.1917 50.65 32.4167 50.65 32.65C50.65 32.8834 50.5417 33.1 50.325 33.3C50.1083 33.5 49.8833 33.6 49.65 33.6H48.2V35.95H49.65C49.8833 35.95 50.1083 36.0417 50.325 36.225C50.5417 36.4084 50.65 36.6167 50.65 36.85C50.65 37.0834 50.5417 37.3 50.325 37.5C50.1083 37.7 49.8833 37.8 49.65 37.8Z" fill="#A92329"/>
<path d="M48.2 37.8H49.65C49.8833 37.8 50.1083 37.7 50.325 37.5C50.5417 37.3 50.65 37.0834 50.65 36.85C50.65 36.6167 50.5417 36.4084 50.325 36.225C50.1083 36.0417 49.8833 35.95 49.65 35.95H48.2V33.6H49.65C49.8833 33.6 50.1083 33.5 50.325 33.3C50.5417 33.1 50.65 32.8834 50.65 32.65C50.65 32.4167 50.5417 32.1917 50.325 31.975C50.1083 31.7584 49.8833 31.65 49.65 31.65H47.35C47.0833 31.65 46.8417 31.7584 46.625 31.975C46.4083 32.1917 46.3 32.4334 46.3 32.7V41.1C46.3 41.3334 46.3833 41.5417 46.55 41.725C46.7167 41.9084 46.95 42 47.25 42C47.4833 42 47.7 41.8917 47.9 41.675C48.1 41.4584 48.2 41.25 48.2 41.05V37.8Z" fill="white"/>
<path fill-rule="evenodd" clip-rule="evenodd" d="M42.1 42C42.6 42 43.05 41.8167 43.45 41.45C43.85 41.0834 44.05 40.6334 44.05 40.1V33.6C44.05 33.0667 43.85 32.6084 43.45 32.225C43.05 31.8417 42.6 31.65 42.1 31.65H38.95C38.65 31.65 38.4 31.7584 38.2 31.975C38 32.1917 37.9 32.4334 37.9 32.7V40.95C37.9 41.2167 38 41.4584 38.2 41.675C38.4 41.8917 38.65 42 38.95 42H42.1ZM39.8 33.6V40.1H42.1V33.6H39.8Z" fill="white"/>
<path fill-rule="evenodd" clip-rule="evenodd" d="M39.8 33.6V40.1H42.1V33.6H39.8ZM31.6 35.95V33.6H34V35.95H31.6Z" fill="#A92329"/>
<path fill-rule="evenodd" clip-rule="evenodd" d="M31.6 37.8H34C34.5 37.8 34.9417 37.6167 35.325 37.25C35.7083 36.8834 35.9 36.45 35.9 35.95V33.6C35.9 33.0667 35.7083 32.6084 35.325 32.225C34.9417 31.8417 34.5 31.65 34 31.65H30.8C30.5 31.65 30.25 31.7584 30.05 31.975C29.85 32.1917 29.75 32.4334 29.75 32.7V41.1C29.75 41.3334 29.8333 41.5417 30 41.725C30.1667 41.9084 30.3833 42 30.65 42C30.85 42 31.0583 41.8917 31.275 41.675C31.4917 41.4584 31.6 41.25 31.6 41.05V37.8ZM31.6 33.6V35.95H34V33.6H31.6Z" fill="white"/>
</g>
<defs>
<filter id="filter0_d_118_10477" x="0.00012207" y="0" width="80" height="80" filterUnits="userSpaceOnUse" color-interpolation-filters="sRGB">
<feFlood flood-opacity="0" result="BackgroundImageFix"/>
<feColorMatrix in="SourceAlpha" type="matrix" values="0 0 0 0 0 0 0 0 0 0 0 0 0 0 0 0 0 0 127 0" result="hardAlpha"/>
<feOffset dy="4"/>
<feGaussianBlur stdDeviation="4"/>
<feColorMatrix type="matrix" values="0 0 0 0 0.184314 0 0 0 0 0.223529 0 0 0 0 0.254902 0 0 0 0.15 0"/>
<feBlend mode="normal" in2="BackgroundImageFix" result="effect1_dropShadow_118_10477"/>
<feBlend mode="normal" in="SourceGraphic" in2="effect1_dropShadow_118_10477" result="shape"/>
</filter>
<filter id="filter1_d_118_10477" x="12.2" y="12.2" width="56.6001" height="55.5997" filterUnits="userSpaceOnUse" color-interpolation-filters="sRGB">
<feFlood flood-opacity="0" result="BackgroundImageFix"/>
<feColorMatrix in="SourceAlpha" type="matrix" values="0 0 0 0 0 0 0 0 0 0 0 0 0 0 0 0 0 0 127 0" result="hardAlpha"/>
<feOffset dy="4"/>
<feGaussianBlur stdDeviation="4"/>
<feColorMatrix type="matrix" values="0 0 0 0 0.184314 0 0 0 0 0.223529 0 0 0 0 0.254902 0 0 0 0.15 0"/>
<feBlend mode="normal" in2="BackgroundImageFix" result="effect1_dropShadow_118_10477"/>
<feBlend mode="normal" in="SourceGraphic" in2="effect1_dropShadow_118_10477" result="shape"/>
</filter>
<filter id="filter2_d_118_10477" x="21.75" y="27.65" width="36.9" height="26.35" filterUnits="userSpaceOnUse" color-interpolation-filters="sRGB">
<feFlood flood-opacity="0" result="BackgroundImageFix"/>
<feColorMatrix in="SourceAlpha" type="matrix" values="0 0 0 0 0 0 0 0 0 0 0 0 0 0 0 0 0 0 127 0" result="hardAlpha"/>
<feOffset dy="4"/>
<feGaussianBlur stdDeviation="4"/>
<feColorMatrix type="matrix" values="0 0 0 0 0.184314 0 0 0 0 0.223529 0 0 0 0 0.254902 0 0 0 0.15 0"/>
<feBlend mode="normal" in2="BackgroundImageFix" result="effect1_dropShadow_118_10477"/>
<feBlend mode="normal" in="SourceGraphic" in2="effect1_dropShadow_118_10477" result="shape"/>
</filter>
</defs>
</svg>
