<svg width="64" height="64" viewBox="0 0 64 64" fill="none" xmlns="http://www.w3.org/2000/svg">
<g clip-path="url(#clip0_118_10415)">
<path opacity="0.3" d="M18.0208 1.90109C25.9875 -1.56017 35.0912 0.135283 43.0352 3.54594C50.7096 6.84083 56.8441 12.6077 60.3498 20.0744C63.9816 27.8097 65.3806 36.6128 62.3225 44.6253C59.1884 52.8371 52.501 59.5443 44.1235 62.5892C36.092 65.5083 27.4141 63.5046 19.6017 60.1528C12.0745 56.9234 5.28188 51.9529 2.05114 44.5387C-1.19326 37.0933 -0.267579 28.7517 2.59182 21.1174C5.56916 13.1681 10.1286 5.33004 18.0208 1.90109Z" fill="#FDEDCE"/>
<g filter="url(#filter0_d_118_10415)">
<path d="M22.75 14.0395C24.8026 14.0395 25.3158 14.0395 27.3684 14.0398L29.4211 14.0395C30.9605 14.0395 31.2346 14.0398 32.426 14.0398H45.9252C49.1295 14.0398 51.7972 17.0297 51.8989 20.9263C51.961 23.303 52 26.1242 52 29.4612C52 38.2195 51.7312 43.4254 51.4828 46.3661C51.3002 48.5286 50.116 50.2155 48.3627 50.6342C45.7222 51.2649 40.8527 52 32.5 52C24.1473 52 19.2778 51.2649 16.6373 50.6342C14.884 50.2155 13.6998 48.5286 13.5172 46.3661C13.2688 43.4254 13 38.2195 13 29.4612C13 22.8373 13.1464 23.4577 13.5132 19.1145C13.6958 16.952 15.1455 14.1289 16.6385 14.0397C18.1316 13.9505 19.6711 14.0395 22.75 14.0395Z" fill="#F4AC1A"/>
<path d="M22.75 14.0395C24.8026 14.0395 25.3158 14.0395 27.3684 14.0398L29.4211 14.0395C30.9605 14.0395 31.2346 14.0398 32.426 14.0398H45.9252C49.1295 14.0398 51.7972 17.0297 51.8989 20.9263C51.961 23.303 52 26.1242 52 29.4612C52 38.2195 51.7312 43.4254 51.4828 46.3661C51.3002 48.5286 50.116 50.2155 48.3627 50.6342C45.7222 51.2649 40.8527 52 32.5 52C24.1473 52 19.2778 51.2649 16.6373 50.6342C14.884 50.2155 13.6998 48.5286 13.5172 46.3661C13.2688 43.4254 13 38.2195 13 29.4612C13 22.8373 13.1464 23.4577 13.5132 19.1145C13.6958 16.952 15.1455 14.1289 16.6385 14.0397C18.1316 13.9505 19.6711 14.0395 22.75 14.0395Z" stroke="white" stroke-width="1.6"/>
</g>
<g filter="url(#filter1_d_118_10415)">
<path d="M18.25 36.5C18.25 37.0522 18.6977 37.5 19.25 37.5H30.8333V31.625C30.8333 31.1877 31.1878 30.8333 31.625 30.8333H36.6667V19.6666C36.6667 19.1143 36.219 18.6666 35.6667 18.6666H19.25C18.6977 18.6666 18.25 19.1143 18.25 19.6666V36.5Z" fill="#F4AC1A"/>
<path d="M35.7061 45.454C35.7061 46.0063 36.1538 46.454 36.7061 46.454H45.454C46.0063 46.454 46.454 46.0063 46.454 45.454V36.7061C46.454 36.1538 46.0063 35.7061 45.454 35.7061H36.7061C36.1538 35.7061 35.7061 36.1538 35.7061 36.7061V45.454Z" fill="#F7BF50"/>
<path fill-rule="evenodd" clip-rule="evenodd" d="M46.454 45.454C46.454 46.0063 46.0063 46.454 45.454 46.454H36.7061C36.1538 46.454 35.7061 46.0063 35.7061 45.454V36.7061C35.7061 36.1538 36.1538 35.7061 36.7061 35.7061H45.454C46.0063 35.7061 46.454 36.1538 46.454 36.7061V45.454ZM18.25 36.5C18.25 37.0522 18.6977 37.5 19.25 37.5H30.8333L36.6667 30.8333V19.6666C36.6667 19.1143 36.219 18.6666 35.6667 18.6666H19.25C18.6977 18.6666 18.25 19.1143 18.25 19.6666V36.5Z" fill="white"/>
<path d="M31.625 30.8333C31.1878 30.8333 30.8333 31.1877 30.8333 31.625V37.5L36.6667 30.8333H31.625Z" fill="#87929D"/>
</g>
</g>
<defs>
<filter id="filter0_d_118_10415" x="4.19995" y="9.20032" width="56.6001" height="55.5997" filterUnits="userSpaceOnUse" color-interpolation-filters="sRGB">
<feFlood flood-opacity="0" result="BackgroundImageFix"/>
<feColorMatrix in="SourceAlpha" type="matrix" values="0 0 0 0 0 0 0 0 0 0 0 0 0 0 0 0 0 0 127 0" result="hardAlpha"/>
<feOffset dy="4"/>
<feGaussianBlur stdDeviation="4"/>
<feColorMatrix type="matrix" values="0 0 0 0 0.184314 0 0 0 0 0.223529 0 0 0 0 0.254902 0 0 0 0.15 0"/>
<feBlend mode="normal" in2="BackgroundImageFix" result="effect1_dropShadow_118_10415"/>
<feBlend mode="normal" in="SourceGraphic" in2="effect1_dropShadow_118_10415" result="shape"/>
</filter>
<filter id="filter1_d_118_10415" x="11.9167" y="15.5" width="40.8708" height="40.454" filterUnits="userSpaceOnUse" color-interpolation-filters="sRGB">
<feFlood flood-opacity="0" result="BackgroundImageFix"/>
<feColorMatrix in="SourceAlpha" type="matrix" values="0 0 0 0 0 0 0 0 0 0 0 0 0 0 0 0 0 0 127 0" result="hardAlpha"/>
<feOffset dy="3.16667"/>
<feGaussianBlur stdDeviation="3.16667"/>
<feColorMatrix type="matrix" values="0 0 0 0 0.184314 0 0 0 0 0.223529 0 0 0 0 0.254902 0 0 0 0.15 0"/>
<feBlend mode="normal" in2="BackgroundImageFix" result="effect1_dropShadow_118_10415"/>
<feBlend mode="normal" in="SourceGraphic" in2="effect1_dropShadow_118_10415" result="shape"/>
</filter>
<clipPath id="clip0_118_10415">
<rect width="64" height="64" rx="32" fill="white"/>
</clipPath>
</defs>
</svg>
