<svg width="64" height="64" viewBox="0 0 64 64" fill="none" xmlns="http://www.w3.org/2000/svg">
<g clip-path="url(#clip0_5101_38297)">
<path opacity="0.3" d="M18.0209 1.90109C25.9876 -1.56017 35.0913 0.135283 43.0354 3.54594C50.7098 6.84083 56.8442 12.6077 60.3499 20.0744C63.9817 27.8097 65.3807 36.6128 62.3227 44.6253C59.1885 52.8371 52.5011 59.5443 44.1236 62.5892C36.0922 65.5083 27.4143 63.5046 19.6018 60.1528C12.0746 56.9234 5.282 51.9529 2.05126 44.5387C-1.19314 37.0933 -0.267457 28.7517 2.59194 21.1174C5.56929 13.1681 10.1287 5.33004 18.0209 1.90109Z" fill="#F6F6F8"/>
<g filter="url(#filter0_d_5101_38297)">
<path d="M25.7966 15.3864C25.7966 15.3864 23.7563 16.1667 20.0063 19.9167C16.2701 23.653 15.4866 25.6968 15.4809 25.7117C15.3898 27.4921 15.3333 29.5742 15.3333 32C15.3333 39.238 15.8362 43.4158 16.2597 45.6506C16.5317 47.0863 17.6519 48.0703 19.1047 48.227C21.0657 48.4386 24.5262 48.6667 30.3333 48.6667C36.1404 48.6667 39.6009 48.4386 41.5619 48.227C43.0147 48.0703 44.135 47.0863 44.407 45.6506C44.8304 43.4158 45.3333 39.238 45.3333 32C45.3333 24.7621 44.8304 20.5843 44.407 18.3495C44.135 16.9138 43.0147 15.9298 41.5619 15.773C39.6009 15.5614 36.1404 15.3334 30.3333 15.3334C28.6252 15.3334 27.1201 15.3531 25.7966 15.3864Z" fill="#87929D"/>
<path d="M25.7966 15.3864C25.7966 15.3864 23.7563 16.1667 20.0063 19.9167C16.2701 23.653 15.4866 25.6968 15.4809 25.7117C15.3898 27.4921 15.3333 29.5742 15.3333 32C15.3333 39.238 15.8362 43.4158 16.2597 45.6506C16.5317 47.0863 17.6519 48.0703 19.1047 48.227C21.0657 48.4386 24.5262 48.6667 30.3333 48.6667C36.1404 48.6667 39.6009 48.4386 41.5619 48.227C43.0147 48.0703 44.135 47.0863 44.407 45.6506C44.8304 43.4158 45.3333 39.238 45.3333 32C45.3333 24.7621 44.8304 20.5843 44.407 18.3495C44.135 16.9138 43.0147 15.9298 41.5619 15.773C39.6009 15.5614 36.1404 15.3334 30.3333 15.3334C28.6252 15.3334 27.1201 15.3531 25.7966 15.3864Z" stroke="white" stroke-width="1.6"/>
</g>
<path d="M15.4809 25.7116C17.8805 26.3152 20.7137 26.3552 23.1608 25.6077C24.1953 25.2916 25.002 24.4857 25.3512 23.4618C26.221 20.9112 26.4359 17.7893 25.7966 15.3862C25.7966 15.3862 23.7564 16.1666 20.0064 19.9166C16.2564 23.6666 15.4809 25.7116 15.4809 25.7116Z" fill="white"/>
<g filter="url(#filter1_d_5101_38297)">
<path d="M47.9763 32.4634C49.2781 31.1617 49.2781 29.0511 47.9763 27.7493L45.4176 25.1907C44.1158 23.8889 42.0052 23.8889 40.7035 25.1907L31.3096 34.5846C30.6845 35.2098 30.3333 36.0576 30.3333 36.9416V41.167C30.3333 42.0874 31.0795 42.8337 32 42.8337H36.2253C37.1094 42.8337 37.9572 42.4824 38.5823 41.8573L47.9763 32.4634Z" fill="white"/>
</g>
</g>
<defs>
<filter id="filter0_d_5101_38297" x="6.53333" y="10.5333" width="47.6" height="50.9333" filterUnits="userSpaceOnUse" color-interpolation-filters="sRGB">
<feFlood flood-opacity="0" result="BackgroundImageFix"/>
<feColorMatrix in="SourceAlpha" type="matrix" values="0 0 0 0 0 0 0 0 0 0 0 0 0 0 0 0 0 0 127 0" result="hardAlpha"/>
<feOffset dy="4"/>
<feGaussianBlur stdDeviation="4"/>
<feColorMatrix type="matrix" values="0 0 0 0 0.184314 0 0 0 0 0.223529 0 0 0 0 0.254902 0 0 0 0.15 0"/>
<feBlend mode="normal" in2="BackgroundImageFix" result="effect1_dropShadow_5101_38297"/>
<feBlend mode="normal" in="SourceGraphic" in2="effect1_dropShadow_5101_38297" result="shape"/>
</filter>
<filter id="filter1_d_5101_38297" x="22.3333" y="20.2144" width="34.6193" height="34.6193" filterUnits="userSpaceOnUse" color-interpolation-filters="sRGB">
<feFlood flood-opacity="0" result="BackgroundImageFix"/>
<feColorMatrix in="SourceAlpha" type="matrix" values="0 0 0 0 0 0 0 0 0 0 0 0 0 0 0 0 0 0 127 0" result="hardAlpha"/>
<feOffset dy="4"/>
<feGaussianBlur stdDeviation="4"/>
<feColorMatrix type="matrix" values="0 0 0 0 0.184314 0 0 0 0 0.223529 0 0 0 0 0.254902 0 0 0 0.15 0"/>
<feBlend mode="normal" in2="BackgroundImageFix" result="effect1_dropShadow_5101_38297"/>
<feBlend mode="normal" in="SourceGraphic" in2="effect1_dropShadow_5101_38297" result="shape"/>
</filter>
<clipPath id="clip0_5101_38297">
<rect width="64" height="64" fill="white"/>
</clipPath>
</defs>
</svg>
