<svg width="16" height="16" viewBox="0 0 16 16" fill="none" xmlns="http://www.w3.org/2000/svg">
<path fill-rule="evenodd" clip-rule="evenodd" d="M1.99992 16C2.36811 16 2.66659 15.7015 2.66659 15.3333V9.33333H13.0666C14.1826 9.33333 14.8429 8.01282 14.1333 7.06667L12.2891 5.32032L13.938 3.6714C14.7734 2.83597 14.1724 1.33333 12.9333 1.33333H2.66659V0.666667C2.66659 0.298477 2.36811 0 1.99992 0C1.63173 0 1.33325 0.298477 1.33325 0.666667V1.33333V9.33333V15.3333C1.33325 15.7015 1.63173 16 1.99992 16ZM2.66659 8H13.0666C13.0839 8 13.117 7.93384 13.143 7.95213L10.3759 5.34783L12.9952 2.7286C12.9978 2.72593 12.9741 2.66667 12.9333 2.66667H2.66659V8Z" fill="#68737D"/>
</svg>
