<svg width="16" height="16" viewBox="0 0 16 16" fill="currentColor" xmlns="http://www.w3.org/2000/svg">
<path fill-rule="evenodd" clip-rule="evenodd" d="M13.5 0C13.2239 0 13 0.223858 13 0.5V3.093C11.6801 1.77492 9.9077 1 8 1C4.12386 1 1 4.12386 1 8C1 11.8761 4.12386 15 8 15C10.1703 15 12.1394 14.0012 13.4904 12.3123C13.6629 12.0967 13.628 11.7821 13.4123 11.6096C13.1967 11.4371 12.8821 11.472 12.7096 11.6877C11.5436 13.1451 9.85829 14 8 14C4.67614 14 2 11.3239 2 8C2 4.67614 4.67614 2 8 2C9.72818 2 11.3296 2.74298 12.4847 4H9.5C9.22386 4 9 4.22386 9 4.5C9 4.77614 9.22386 5 9.5 5H13C13.5761 5 14 4.57614 14 4V0.5C14 0.223858 13.7761 0 13.5 0Z" />
<path d="M6 7.63073V7.07008H7.17566V11H6.52566V7.63073H6Z" />
<path d="M8.06085 8.98383C8.06085 8.36208 8.17013 7.87691 8.38868 7.5283C8.611 7.1761 8.99158 7 9.53042 7C10.0693 7 10.448 7.1761 10.6665 7.5283C10.8888 7.87691 11 8.36208 11 8.98383C11 9.61276 10.8888 10.1051 10.6665 10.4609C10.448 10.8131 10.0693 10.9892 9.53042 10.9892C8.99158 10.9892 8.611 10.8131 8.38868 10.4609C8.17013 10.1051 8.06085 9.61276 8.06085 8.98383ZM10.367 8.98383C10.367 8.69272 10.3462 8.44654 10.3048 8.24528C10.2671 8.04403 10.188 7.8805 10.0674 7.75472C9.9468 7.62534 9.76782 7.56065 9.53042 7.56065C9.29303 7.56065 9.11404 7.62534 8.99346 7.75472C8.87288 7.8805 8.79187 8.04403 8.75042 8.24528C8.71274 8.44654 8.6939 8.69272 8.6939 8.98383C8.6939 9.28571 8.71274 9.53908 8.75042 9.74394C8.7881 9.94879 8.86723 10.1141 8.98781 10.2399C9.11216 10.3657 9.29303 10.4286 9.53042 10.4286C9.76782 10.4286 9.9468 10.3657 10.0674 10.2399C10.1917 10.1141 10.2727 9.94879 10.3104 9.74394C10.3481 9.53908 10.367 9.28571 10.367 8.98383Z"/>
</svg>
