<svg width="16" height="20" viewBox="0 0 16 20" fill="none" xmlns="http://www.w3.org/2000/svg">
<path fill-rule="evenodd" clip-rule="evenodd" d="M4.12739 6.69777C3.90556 6.97507 3.55649 6.9964 3.31508 6.76176L3.25711 6.69777L1.41095 4.39008C1.18912 4.11278 1.17205 3.67645 1.35976 3.37469L1.41095 3.30222L3.25711 0.994529C3.47895 0.717233 3.82801 0.695903 4.06942 0.930537L4.12739 0.994529L5.79379 3.07692H11.6649L11.7996 3.0805C13.4515 3.16864 14.7692 4.8706 14.7692 6.95726C14.7692 9.04392 13.4515 10.7459 11.7996 10.834L11.6649 10.8376L10.0467 10.8369L8.43509 12.8516C8.21325 13.1289 7.86418 13.1502 7.62277 12.9156L7.5648 12.8516L5.95256 10.8369L4.28029 10.8376L4.17342 10.8415C3.21866 10.9106 2.46148 11.9003 2.46148 13.1111C2.46148 14.3219 3.21866 15.3116 4.17342 15.3808L4.28029 15.3846H11.6923V13.8461C11.6923 13.1906 12.2987 12.8481 12.6907 13.2437L12.7428 13.3022L14.5889 15.6099C14.8108 15.8872 14.8278 16.3235 14.6401 16.6253L14.5889 16.6978L12.7428 19.0055C12.372 19.469 11.7494 19.1751 11.6959 18.5489L11.6923 18.4615V16.9231H4.28029L4.148 16.9196C2.52514 16.833 1.23071 15.161 1.23071 13.1111C1.23071 11.0612 2.52514 9.38924 4.148 9.30266L4.28029 9.29914L5.84364 9.29846L7.5648 7.14837C7.78664 6.87108 8.1357 6.84975 8.37711 7.08438L8.43509 7.14837L10.1556 9.29846L11.6649 9.29914L11.775 9.29517C12.7585 9.22394 13.5384 8.20445 13.5384 6.95726C13.5384 5.71007 12.7585 4.69058 11.775 4.61936L11.6649 4.61538H5.79317L4.12739 6.69777Z" fill="#68737D"/>
</svg>
