<svg width="24" height="24" viewBox="0 0 24 24" fill="none" xmlns="http://www.w3.org/2000/svg">
<g opacity="0.3">
<path opacity="0.3" d="M12 24C18.6274 24 24 18.6274 24 12C24 5.37258 18.6274 0 12 0C5.37258 0 0 5.37258 0 12C0 18.6274 5.37258 24 12 24Z" fill="#003A57"/>
</g>
<path d="M17.9983 7.1668C17.5188 6.58542 17.1422 6.73015 17.1422 6.73015C17.1422 6.73015 16.406 7.02429 16.0401 7.16279C15.6742 7.30128 15.2408 7.17332 15.2408 7.17332L14.7579 6.88486C14.7579 6.88486 14.4296 6.5653 14.3656 6.18043C14.3123 5.78933 14.1888 5.00244 14.1888 5.00244C14.1888 5.00244 14.1356 4.61134 13.3938 4.47233C12.652 4.33331 12.4678 4.68691 12.4678 4.68691C12.4678 4.68691 12.0932 5.3832 11.9091 5.73679C11.7249 6.09038 11.3114 6.27093 11.3114 6.27093L10.7639 6.36883C10.7639 6.36883 10.3144 6.33747 10.0176 6.07246L9.12712 5.27745C9.12712 5.27745 8.8303 5.01243 8.18313 5.38608C7.53595 5.75972 7.61705 6.14929 7.61705 6.14929L7.86033 7.31795C7.94143 7.70752 7.74381 8.11251 7.74381 8.11251L7.38528 8.5377C7.38528 8.5377 7.02217 8.80552 6.62387 8.78821C6.22557 8.77089 5.43527 8.74716 5.43527 8.74716C5.43527 8.74716 5.03697 8.72984 4.78646 9.44177C4.53595 10.1537 4.84804 10.3953 4.84804 10.3953C4.84804 10.3953 5.46774 10.8958 5.77983 11.1374C6.09192 11.379 6.19373 11.8294 6.19373 11.8294L6.20207 12.3919C6.20207 12.3919 6.09618 12.8312 5.79331 13.0788C5.49043 13.3264 4.86759 13.8169 4.86759 13.8169C4.86759 13.8169 4.56471 14.0645 4.81769 14.7766C5.08144 15.4826 5.46713 15.4781 5.46713 15.4781C5.46713 15.4781 6.26012 15.4566 6.64582 15.4521C7.03152 15.4476 7.40116 15.7142 7.40116 15.7142L7.76458 16.1444C7.76458 16.1444 7.96976 16.5496 7.89441 16.9422C7.81907 17.3348 7.66208 18.1091 7.66208 18.1091C7.66208 18.1091 7.58674 18.5017 8.23785 18.8822C8.88895 19.2627 9.18553 19.0042 9.18553 19.0042C9.18553 19.0042 9.7724 18.4762 10.069 18.2177C10.3655 17.9592 10.8115 17.9345 10.8115 17.9345L11.3609 18.0391C11.3609 18.0391 11.77 18.2247 11.9608 18.5801C12.1516 18.9354 12.5268 19.6351 12.5268 19.6351C12.5268 19.6351 12.7176 19.9905 13.4583 19.8537C14.1946 19.7341 14.2529 19.3368 14.2529 19.3368C14.2529 19.3368 14.3586 18.5484 14.4232 18.1621C14.4814 17.7648 14.8086 17.4596 14.8086 17.4596L15.2939 17.1793C15.2939 17.1793 15.7281 17.0596 16.095 17.1968C16.4682 17.345 17.1975 17.6367 17.1975 17.6367C17.1975 17.6367 17.5707 17.7849 18.0424 17.2071C18.5142 16.6292 18.3189 16.291 18.3189 16.291C18.3189 16.291 17.9006 15.6162 17.6882 15.2733C17.4759 14.9305 17.5197 14.4833 17.5197 14.4833L17.7038 13.9552C17.7038 13.9552 17.9482 13.5814 18.3203 13.4538C18.6925 13.3262 19.4431 13.0819 19.4431 13.0819C19.4431 13.0819 19.8153 12.9543 19.8113 12.2002C19.8074 11.4461 19.4297 11.3151 19.4297 11.3151C19.4297 11.3151 18.6807 11.0639 18.303 10.9328C17.9253 10.8018 17.677 10.4215 17.677 10.4215L17.4861 9.89165C17.4861 9.89165 17.4293 9.44446 17.6368 9.10646C17.8443 8.76845 18.2486 8.09866 18.2486 8.09866C18.2486 8.09866 18.4778 7.74819 17.9983 7.16683L17.9983 7.1668ZM9.33902 8.38441L10.6176 10.599C10.0433 11.1487 9.82793 11.9713 10.0567 12.7411L7.86713 14.0052C6.98868 12.0104 7.60355 9.66262 9.33905 8.38432L9.33902 8.38441ZM13.9748 16.4137C11.9998 17.2776 9.65918 16.6361 8.37099 14.878L10.5605 13.6139C11.1128 14.1969 11.9329 14.4216 12.6961 14.1992L13.9748 16.4137ZM12.6552 13.1318C12.1159 13.4432 11.4325 13.2559 11.1176 12.7104C10.8027 12.1649 10.9822 11.4795 11.5215 11.1681C12.0608 10.8567 12.7441 11.044 13.0591 11.5895C13.374 12.135 13.1945 12.8204 12.6552 13.1318ZM14.8376 15.9155L13.5591 13.701C14.1333 13.1512 14.3487 12.3287 14.12 11.5589L16.3095 10.2948C17.188 12.2896 16.5731 14.6373 14.8376 15.9156L14.8376 15.9155ZM13.6161 10.6861C13.0638 10.1031 12.2437 9.87838 11.4805 10.1008L10.2019 7.88628C12.1769 7.02241 14.5112 7.6529 15.8057 9.42199L13.6161 10.6861Z" fill="#003A57"/>
</svg>
