<svg width="16" height="16" viewBox="0 0 16 16" fill="none" xmlns="http://www.w3.org/2000/svg">
<g clip-path="url(#clip0_5398_13247)">
<path d="M13.9997 8.77207C13.9885 9.18059 13.6431 9.50098 13.2344 9.50098H11.9375V9.87598C11.9375 10.3884 11.8231 10.874 11.6187 11.3091L13.0303 12.7207C13.3232 13.0136 13.3232 13.4884 13.0303 13.7813C12.7374 14.0742 12.2625 14.0742 11.9696 13.7813L10.6868 12.4984C10.1067 12.9689 9.36759 13.251 8.56248 13.251V7.53223C8.56248 7.37691 8.43655 7.25098 8.28123 7.25098H7.71873C7.56341 7.25098 7.43748 7.37691 7.43748 7.53223V13.251C6.63238 13.251 5.89328 12.9689 5.3132 12.4984L4.03033 13.7813C3.73741 14.0742 3.26254 14.0742 2.96964 13.7813C2.67677 13.4884 2.67677 13.0136 2.96964 12.7207L4.38124 11.3091C4.17691 10.874 4.06249 10.3884 4.06249 9.87598V9.50098H2.7656C2.35694 9.50098 2.01149 9.18059 2.00029 8.77207C1.98864 8.34823 2.32877 8.00098 2.74999 8.00098H4.06249V6.62414L2.96964 5.5313C2.67677 5.2384 2.67677 4.76353 2.96964 4.47063C3.26256 4.17773 3.73741 4.17773 4.03033 4.47063L5.31065 5.75098H10.6893L11.9696 4.47066C12.2625 4.17776 12.7374 4.17776 13.0303 4.47066C13.3232 4.76355 13.3232 5.23842 13.0303 5.53132L11.9375 6.62414V8.00098H13.25C13.6712 8.00098 14.0113 8.34823 13.9997 8.77207ZM8.02342 2.00098C6.57367 2.00098 5.39842 3.17623 5.39842 4.62598H10.6484C10.6484 3.17623 9.47317 2.00098 8.02342 2.00098Z" fill="currentColor"/>
</g>
<defs>
<clipPath id="clip0_5398_13247">
<rect width="12" height="12" fill="currentColor" transform="translate(2 2.00098)"/>
</clipPath>
</defs>
</svg>
