<svg width="36" height="36" viewBox="0 0 36 36" fill="none" xmlns="http://www.w3.org/2000/svg">
<g opacity="0.3">
<path opacity="0.3" d="M18 36.001C27.9411 36.001 36 27.9421 36 18.001C36 8.05985 27.9411 0.000976562 18 0.000976562C8.05887 0.000976562 0 8.05985 0 18.001C0 27.9421 8.05887 36.001 18 36.001Z" fill="#105287"/>
</g>
<g clip-path="url(#clip0_5182_6963)">
<path d="M27.5799 19.4853C27.5626 20.1178 27.0277 20.6139 26.395 20.6139H24.3868V21.1945C24.3868 21.988 24.2097 22.7399 23.8933 23.4135L26.079 25.5992C26.5325 26.0527 26.5325 26.788 26.079 27.2415C25.6254 27.695 24.8901 27.695 24.4366 27.2415L22.4502 25.2551C21.552 25.9836 20.4076 26.4203 19.161 26.4203V17.5655C19.161 17.325 18.966 17.13 18.7255 17.13H17.8546C17.6141 17.13 17.4191 17.325 17.4191 17.5655V26.4203C16.1725 26.4203 15.0281 25.9836 14.1299 25.2551L12.1435 27.2415C11.6899 27.695 10.9547 27.695 10.5011 27.2415C10.0477 26.788 10.0477 26.0527 10.5011 25.5992L12.6868 23.4135C12.3705 22.7399 12.1933 21.988 12.1933 21.1945V20.6139H10.1852C9.55244 20.6139 9.01755 20.1178 9.00021 19.4853C8.98217 18.829 9.50881 18.2913 10.161 18.2913H12.1933V16.1594L10.5011 14.4673C10.0477 14.0138 10.0477 13.2785 10.5011 12.825C10.9547 12.3714 11.6899 12.3714 12.1435 12.825L14.1259 14.8074H22.4542L24.4366 12.825C24.8901 12.3715 25.6254 12.3715 26.0789 12.825C26.5324 13.2785 26.5324 14.0138 26.0789 14.4673L24.3868 16.1594V18.2913H26.4191C27.0713 18.2913 27.5979 18.829 27.5799 19.4853ZM18.3263 9.00098C16.0816 9.00098 14.2618 10.8207 14.2618 13.0655H22.3909C22.3909 10.8207 20.5711 9.00098 18.3263 9.00098Z" fill="#105287"/>
</g>
<defs>
<clipPath id="clip0_5182_6963">
<rect width="18.5806" height="18.5806" fill="white" transform="translate(8.99976 9.00098)"/>
</clipPath>
</defs>
</svg>
