<svg width="16" height="16" viewBox="0 0 16 16" fill="none" xmlns="http://www.w3.org/2000/svg">
<path d="M12.988 8.40107C11.9413 5.68107 8.21464 5.5344 9.11464 1.58107C9.1813 1.28774 8.86797 1.06107 8.61464 1.2144C6.19464 2.64107 4.45464 5.50107 5.91464 9.24774C6.03464 9.5544 5.67464 9.84107 5.41464 9.64107C4.20797 8.72774 4.0813 7.4144 4.18797 6.4744C4.22797 6.12774 3.77464 5.96107 3.5813 6.24774C3.12797 6.94107 2.66797 8.06107 2.66797 9.74774C2.9213 13.4811 6.07464 14.6277 7.20797 14.7744C8.82797 14.9811 10.5813 14.6811 11.8413 13.5277C13.228 12.2411 13.7346 10.1877 12.988 8.40107ZM7.97333 12.3748C7.43964 12.2424 7.57231 11.5023 7.93728 11.091C8.17781 10.82 8.32414 10.508 8.38797 10.2144C8.58471 9.36187 7.91776 8.52533 8.18931 7.28046C8.21811 7.14845 8.42385 7.15226 8.48649 7.27197C9.01056 8.2734 10.508 9.01901 10.508 10.2077C10.5503 11.545 9.41078 12.7314 7.97333 12.3748Z" fill="currentColor"/>
<path d="M12.988 8.40107C11.9413 5.68107 8.21464 5.5344 9.11464 1.58107C9.1813 1.28774 8.86797 1.06107 8.61464 1.2144C6.19464 2.64107 4.45464 5.50107 5.91464 9.24774C6.03464 9.5544 5.67464 9.84107 5.41464 9.64107C4.20797 8.72774 4.0813 7.4144 4.18797 6.4744C4.22797 6.12774 3.77464 5.96107 3.5813 6.24774C3.12797 6.94107 2.66797 8.06107 2.66797 9.74774C2.9213 13.4811 6.07464 14.6277 7.20797 14.7744C8.82797 14.9811 10.5813 14.6811 11.8413 13.5277C13.228 12.2411 13.7346 10.1877 12.988 8.40107ZM7.97333 12.3748C7.43964 12.2424 7.57231 11.5023 7.93728 11.091C8.17781 10.82 8.32414 10.508 8.38797 10.2144C8.58471 9.36187 7.91776 8.52533 8.18931 7.28046C8.21811 7.14845 8.42385 7.15226 8.48649 7.27197C9.01056 8.2734 10.508 9.01901 10.508 10.2077C10.5503 11.545 9.41078 12.7314 7.97333 12.3748Z" fill="currentColor"/>
</svg>
