<svg width="16" height="20" viewBox="0 0 16 20" fill="none" xmlns="http://www.w3.org/2000/svg">
<path fill-rule="evenodd" clip-rule="evenodd" d="M8.00001 12.232C7.40816 12.2328 6.84024 11.9984 6.42128 11.5804C6.00232 11.1623 5.76665 10.5949 5.76616 10.0031C5.7665 8.7693 6.76623 7.76902 8.00001 7.768C9.23379 7.76902 10.2335 8.7693 10.2339 10.0031C10.2334 10.5949 9.9977 11.1623 9.57874 11.5804C9.15978 11.9984 8.59186 12.2328 8.00001 12.232M13.1046 9.21539H13.1009C12.5741 9.21533 12.0993 8.89786 11.8979 8.41108L11.8788 8.36492C11.6775 7.87829 11.7889 7.3183 12.1612 6.94585C12.2447 6.86547 12.2918 6.75461 12.2918 6.63877C12.2918 6.52293 12.2447 6.41208 12.1612 6.33169L11.6634 5.83385C11.4933 5.66611 11.22 5.66611 11.0499 5.83385C10.6793 6.20458 10.1219 6.31557 9.63755 6.11508L9.58832 6.09477C9.10342 5.89394 8.78721 5.42084 8.78709 4.896C8.78725 4.78083 8.74161 4.67032 8.66023 4.58883C8.57885 4.50733 8.46841 4.46154 8.35324 4.46154H7.64678C7.53161 4.46154 7.42117 4.50733 7.33979 4.58883C7.25841 4.67032 7.21277 4.78083 7.21293 4.896C7.21293 5.42216 6.89662 5.89785 6.40924 6.096C6.39632 6.10154 6.38278 6.10646 6.37047 6.11262C5.88442 6.31735 5.32277 6.20712 4.95016 5.83385C4.77803 5.66578 4.50322 5.66578 4.33109 5.83385L3.83262 6.33231C3.66422 6.50215 3.66422 6.776 3.83262 6.94585L3.83693 6.94954C4.20901 7.322 4.31936 7.88226 4.11632 8.368C4.11016 8.38154 4.10524 8.39569 4.09909 8.40862C3.90064 8.89677 3.42603 9.21585 2.89909 9.21539H2.89539C2.65569 9.21573 2.46155 9.41014 2.46155 9.64985V10.3502C2.46155 10.5902 2.65601 10.7846 2.89539 10.7846H2.89662C3.42274 10.7834 3.89709 11.1012 4.09601 11.5883L4.11386 11.6308C4.3186 12.1171 4.20866 12.679 3.8357 13.0523L3.83324 13.0542C3.66443 13.2241 3.66443 13.4984 3.83324 13.6683L4.33109 14.1662C4.50322 14.3342 4.77803 14.3342 4.95016 14.1662L4.95324 14.1631C5.32587 13.7903 5.88717 13.6803 6.37293 13.8849L6.40924 13.8997C6.89607 14.0992 7.21373 14.5736 7.21293 15.0997V15.104C7.21293 15.3471 7.40986 15.5385 7.64678 15.5385H8.35324C8.59016 15.5385 8.78709 15.3477 8.78709 15.104V15.0997C8.78709 14.5735 9.10339 14.0985 9.59078 13.8997L9.62709 13.8849C10.1128 13.6803 10.6741 13.7903 11.0468 14.1631L11.0499 14.1662C11.22 14.3339 11.4933 14.3339 11.6634 14.1662L12.1612 13.6677C12.2445 13.5873 12.2915 13.4766 12.2915 13.3609C12.2915 13.2452 12.2445 13.1345 12.1612 13.0542L12.1588 13.0523C11.7858 12.679 11.6759 12.1171 11.8806 11.6308L11.8985 11.5883C12.0976 11.1017 12.5714 10.784 13.0972 10.7846H13.1046C13.3443 10.7843 13.5385 10.5899 13.5385 10.3502V9.64985C13.5385 9.41014 13.3443 9.21573 13.1046 9.21539" fill="#68737D"/>
</svg>
