<svg width="16" height="16" viewBox="0 0 16 16" fill="none" xmlns="http://www.w3.org/2000/svg">
<path fill-rule="evenodd" clip-rule="evenodd" d="M5.86029 12.12C6.30029 14.44 7.09029 16 8.00029 16C8.91029 16 9.70029 14.44 10.1403 12.12H5.86029ZM10.1403 3.88C9.70029 1.56 8.91029 0 8.00029 0C7.09029 0 6.30029 1.56 5.86029 3.88H10.1403ZM15.4603 10.88C16.1755 9.0266 16.1755 6.9734 15.4603 5.12H11.5803C11.6915 6.076 11.7483 7.03755 11.7503 8C11.7483 8.96245 11.6915 9.924 11.5803 10.88H15.4603ZM10.3303 5.12H5.67029C5.44362 7.03331 5.44362 8.96669 5.67029 10.88H10.3303C10.445 9.92431 10.5018 8.96255 10.5003 8C10.5018 7.03745 10.445 6.07569 10.3303 5.12ZM4.25029 8C4.25228 7.03755 4.30904 6.076 4.42029 5.12H0.540288C-0.174888 6.9734 -0.174888 9.0266 0.540288 10.88H4.42029C4.30904 9.924 4.25228 8.96245 4.25029 8ZM11.4003 12.12C11.2176 13.3592 10.8289 14.5591 10.2503 15.67C12.1744 15.105 13.8161 13.838 14.8503 12.12H11.4003ZM11.4003 3.88H14.8503C13.8161 2.16196 12.1744 0.894986 10.2503 0.33C10.8289 1.44092 11.2176 2.64081 11.4003 3.88ZM4.60029 12.12H1.15029C2.1845 13.838 3.82622 15.105 5.75029 15.67C5.17166 14.5591 4.78296 13.3592 4.60029 12.12ZM4.60029 3.88C4.78296 2.64081 5.17166 1.44092 5.75029 0.33C3.82622 0.894986 2.1845 2.16196 1.15029 3.88H4.60029Z" fill="#68737D"/>
</svg>
