<svg width="16" height="16" viewBox="0 0 16 16" fill="currentColor" xmlns="http://www.w3.org/2000/svg">
<path d="M6.35857 6.83692C6.58269 7.06104 6.89441 7.22375 7.13611 7.02161C9.18835 5.33411 12.1678 5.33411 14.2245 7.01721C14.4706 7.21936 14.695 7.06104 14.9191 6.83692C15.1784 6.57764 15.2968 6.28772 15.0111 6.05481C12.5018 4.00256 8.87195 4.00256 6.35828 6.05481C6.07263 6.28333 6.0949 6.57325 6.35857 6.83692ZM9.72449 10.3878L10.3705 11.0338C10.5419 11.2052 10.8187 11.2052 10.9901 11.0338L11.6361 10.3878C11.8427 10.1813 11.8998 9.86173 11.6361 9.7255C11.1 9.44864 10.265 9.44864 9.72449 9.7255C9.474 9.86173 9.51794 10.1813 9.72449 10.3878ZM8.13806 8.57608C8.35339 8.79141 8.63904 8.98596 8.88953 8.80579C9.96179 8.04553 11.4032 8.04553 12.4755 8.80579C12.726 8.98157 13.0116 8.85776 13.2269 8.64243C13.4906 8.37875 13.5302 8.03235 13.2269 7.81702C11.7152 6.72278 9.65417 6.72278 8.13806 7.81702C7.83484 8.03674 7.87 8.30801 8.13806 8.57608Z" fill="currentColor"/>
<path d="M7.03058 1C7.2643 1 7.4889 1.09321 7.65372 1.25835L9.28176 2.88698C9.55837 3.16369 9.36239 3.63672 8.97112 3.63672C8.85467 3.63672 8.74299 3.59047 8.66062 3.50815L7.03058 1.87891L0.882533 8.02953C0.886821 8.02909 2.60552 8.02784 2.63176 8.02782V14.1836H5.27106V10.6663C5.27106 10.1808 5.66511 9.7867 6.15082 9.78649H7.91035C8.38625 9.78649 8.77352 10.1644 8.78926 10.6362V13.3047H8.79097V14.1836H11.4303V13.7446C11.4303 13.5016 11.6272 13.3047 11.8701 13.3047C12.1131 13.3047 12.31 13.5016 12.31 13.7446V14.1836C12.3098 14.6689 11.9159 15.0623 11.4303 15.0625H8.79097C8.30521 15.0625 7.91056 14.669 7.91035 14.1836V10.6663H6.15082V14.1836C6.15061 14.669 5.75682 15.0625 5.27106 15.0625H2.63176C2.14614 15.0623 1.75221 14.6689 1.752 14.1836V8.90672L0.951198 8.90586C0.588987 8.93673 0.245134 8.74113 0.0868827 8.41405C-0.0713311 8.08684 -0.0109304 7.69562 0.247386 7.42185L6.40831 1.25835C6.57326 1.09312 6.79706 1.00011 7.03058 1Z" fill="currentColor"/>
</svg>
