<svg width="24" height="24" viewBox="0 0 24 24" fill="none" xmlns="http://www.w3.org/2000/svg">
<g opacity="0.3">
<path opacity="0.3" d="M12 24C18.6274 24 24 18.6274 24 12C24 5.37258 18.6274 0 12 0C5.37258 0 0 5.37258 0 12C0 18.6274 5.37258 24 12 24Z" fill="#C57F12"/>
</g>
<path d="M10.4697 6.75C11.8403 6.7502 13.0132 7.59142 13.5039 8.78516C13.8704 8.68123 14.2574 8.62502 14.6572 8.625C16.987 8.62507 18.8758 10.514 18.876 12.8438C18.876 14.9069 17.3944 16.6221 15.4375 16.9883V17.0625H12.25V13.3604L13.6797 14.7891C13.8352 14.9446 14.0866 14.9444 14.2422 14.7891C14.3978 14.6335 14.3978 14.3822 14.2422 14.2266L12.3018 12.2852C12.0618 12.0458 11.6832 12.0456 11.4434 12.2852L9.50293 14.2266C9.34779 14.3821 9.34779 14.6336 9.50293 14.7891C9.65845 14.9446 9.91079 14.9444 10.0664 14.7891L11.4531 13.4023V17.0625H7.9375V17.0557C7.88573 17.0581 7.83362 17.0625 7.78125 17.0625C5.96915 17.0624 4.5 15.5934 4.5 13.7812C4.5 12.1579 5.67915 10.8101 7.22754 10.5469C7.20104 10.3789 7.18848 10.2066 7.18848 10.0312C7.18848 8.21913 8.65763 6.7501 10.4697 6.75Z" fill="#C57F12"/>
</svg>
