<svg width="15" height="16" viewBox="0 0 15 16" fill="#68737D" xmlns="http://www.w3.org/2000/svg">
<path fill-rule="evenodd" clip-rule="evenodd" d="M7.5 3.00195C7.22386 3.00195 7 3.22581 7 3.50195V8.00195C7 8.2781 7.22386 8.50195 7.5 8.50195C7.77614 8.50195 8 8.2781 8 8.00195V3.50195C8 3.22581 7.77614 3.00195 7.5 3.00195ZM7.5 12.002C8.05228 12.002 8.5 11.5542 8.5 11.002C8.5 10.4497 8.05228 10.002 7.5 10.002C6.94772 10.002 6.5 10.4497 6.5 11.002C6.5 11.5542 6.94772 12.002 7.5 12.002ZM7.5 15.002C3.35786 15.002 0 11.6441 0 7.50195C0 3.35982 3.35786 0.00195312 7.5 0.00195312C11.6421 0.00195312 15 3.35982 15 7.50195C15 11.6441 11.6421 15.002 7.5 15.002ZM7.5 14.002C11.0899 14.002 14 11.0918 14 7.50195C14 3.9121 11.0899 1.00195 7.5 1.00195C3.91015 1.00195 1 3.9121 1 7.50195C1 11.0918 3.91015 14.002 7.5 14.002Z" fill="auto"/>
</svg>
