<svg width="16" height="16" viewBox="0 0 16 16" fill="none" xmlns="http://www.w3.org/2000/svg">
<path d="M7.99617 4.47667C8.18102 4.47667 8.33724 4.41456 8.46484 4.29035C8.59245 4.16613 8.65625 4.01221 8.65625 3.8286C8.65625 3.64499 8.59372 3.4898 8.46867 3.36305C8.34362 3.2363 8.18867 3.17292 8.00383 3.17292C7.81898 3.17292 7.66276 3.23503 7.53516 3.35925C7.40755 3.48347 7.34375 3.63738 7.34375 3.82099C7.34375 4.00461 7.40628 4.15979 7.53133 4.28654C7.65638 4.4133 7.81133 4.47667 7.99617 4.47667ZM7.99617 10.1263C8.18102 10.1263 8.33724 10.0638 8.46484 9.93885C8.59245 9.81391 8.65625 9.65909 8.65625 9.47439V5.99772C8.65625 5.81302 8.59372 5.6582 8.46867 5.53326C8.34362 5.40831 8.18867 5.34584 8.00383 5.34584C7.81898 5.34584 7.66276 5.40831 7.53516 5.53326C7.40755 5.6582 7.34375 5.81302 7.34375 5.99772V9.47439C7.34375 9.65909 7.40628 9.81391 7.53133 9.93885C7.65638 10.0638 7.81133 10.1263 7.99617 10.1263ZM3.625 12.2992L2.11417 13.8C1.90611 14.0066 1.6684 14.0532 1.40104 13.9396C1.13368 13.8261 1 13.6233 1 13.3313V2.30375C1 1.94522 1.12852 1.6383 1.38555 1.38298C1.64258 1.12766 1.95156 1 2.3125 1H13.6875C14.0484 1 14.3574 1.12766 14.6145 1.38298C14.8715 1.6383 15 1.94522 15 2.30375V10.9954C15 11.354 14.8715 11.6609 14.6145 11.9162C14.3574 12.1715 14.0484 12.2992 13.6875 12.2992H3.625ZM3.07812 10.9954H13.6875V2.30375H2.3125V11.756L3.07812 10.9954Z" fill="currentColor"/>
</svg>
