<svg width="64" height="65" viewBox="0 0 64 65" fill="none" xmlns="http://www.w3.org/2000/svg">
<g clip-path="url(#clip0_791_68768)">
<path opacity="0.1" d="M18.0208 2.88836C25.9875 -0.572897 35.0912 1.12256 43.0352 4.53321C50.7096 7.82811 56.8441 13.595 60.3498 21.0617C63.9816 28.797 65.3806 37.6001 62.3225 45.6126C59.1884 53.8244 52.501 60.5316 44.1235 63.5765C36.092 66.4956 27.4141 64.4919 19.6017 61.14C12.0745 57.9106 5.28188 52.9401 2.05114 45.526C-1.19326 38.0805 -0.267579 29.739 2.59182 22.1047C5.56916 14.1554 10.1286 6.31731 18.0208 2.88836Z" fill="#E06D73"/>
<g filter="url(#filter0_d_791_68768)">
<rect x="14" y="14.9873" width="36" height="36" rx="18" fill="white"/>
<path fill-rule="evenodd" clip-rule="evenodd" d="M32 26.2373C31.5858 26.2373 31.25 26.5731 31.25 26.9873V33.7373C31.25 34.1515 31.5858 34.4873 32 34.4873C32.4142 34.4873 32.75 34.1515 32.75 33.7373V26.9873C32.75 26.5731 32.4142 26.2373 32 26.2373ZM32 39.7373C32.8284 39.7373 33.5 39.0657 33.5 38.2373C33.5 37.4089 32.8284 36.7373 32 36.7373C31.1716 36.7373 30.5 37.4089 30.5 38.2373C30.5 39.0657 31.1716 39.7373 32 39.7373ZM32 44.2373C25.7868 44.2373 20.75 39.2005 20.75 32.9873C20.75 26.7741 25.7868 21.7373 32 21.7373C38.2132 21.7373 43.25 26.7741 43.25 32.9873C43.25 39.2005 38.2132 44.2373 32 44.2373ZM32 42.7373C37.3848 42.7373 41.75 38.3721 41.75 32.9873C41.75 27.6025 37.3848 23.2373 32 23.2373C26.6152 23.2373 22.25 27.6025 22.25 32.9873C22.25 38.3721 26.6152 42.7373 32 42.7373Z" fill="#D22F37"/>
</g>
</g>
<defs>
<filter id="filter0_d_791_68768" x="6" y="10.9873" width="52" height="52" filterUnits="userSpaceOnUse" color-interpolation-filters="sRGB">
<feFlood flood-opacity="0" result="BackgroundImageFix"/>
<feColorMatrix in="SourceAlpha" type="matrix" values="0 0 0 0 0 0 0 0 0 0 0 0 0 0 0 0 0 0 127 0" result="hardAlpha"/>
<feOffset dy="4"/>
<feGaussianBlur stdDeviation="4"/>
<feColorMatrix type="matrix" values="0 0 0 0 0.184314 0 0 0 0 0.223529 0 0 0 0 0.254902 0 0 0 0.15 0"/>
<feBlend mode="normal" in2="BackgroundImageFix" result="effect1_dropShadow_791_68768"/>
<feBlend mode="normal" in="SourceGraphic" in2="effect1_dropShadow_791_68768" result="shape"/>
</filter>
<clipPath id="clip0_791_68768">
<rect width="64" height="64" fill="white" transform="translate(0 0.987305)"/>
</clipPath>
</defs>
</svg>
