<svg width="64" height="64" viewBox="0 0 64 64" fill="none" xmlns="http://www.w3.org/2000/svg">
<g clip-path="url(#clip0_442_68418)">
<path opacity="0.1" d="M18.0208 1.90109C25.9875 -1.56017 35.0912 0.135283 43.0352 3.54594C50.7096 6.84083 56.8441 12.6077 60.3498 20.0744C63.9816 27.8097 65.3806 36.6128 62.3225 44.6253C59.1884 52.8371 52.501 59.5443 44.1235 62.5892C36.092 65.5083 27.4141 63.5046 19.6017 60.1528C12.0745 56.9234 5.28188 51.9529 2.05114 44.5387C-1.19326 37.0933 -0.267579 28.7517 2.59182 21.1174C5.56916 13.1681 10.1286 5.33004 18.0208 1.90109Z" fill="#00B280"/>
<g filter="url(#filter0_d_442_68418)">
<rect x="14" y="14" width="36" height="36" rx="18" fill="white"/>
<path d="M41.6615 25.0434C42.0165 24.6884 42.0165 24.1128 41.6615 23.7577C41.3064 23.4027 40.7308 23.4027 40.3758 23.7577L31.8667 32.2668L29.8721 29.7331C29.5615 29.3386 28.99 29.2706 28.5955 29.5811C28.201 29.8917 28.1329 30.4633 28.4435 30.8578L31.0713 34.1959C31.2321 34.4 31.4725 34.5257 31.7318 34.541C31.9912 34.5564 32.2448 34.4601 32.4285 34.2764L41.6615 25.0434Z" fill="#00A073"/>
<path d="M22 32C22 26.4772 26.4772 22 32 22C33.5113 22 34.9468 22.3359 36.2335 22.9379C36.6883 23.1507 36.8845 23.6919 36.6717 24.1466C36.4589 24.6014 35.9178 24.7976 35.463 24.5848C34.4124 24.0932 33.2396 23.8182 32 23.8182C27.4813 23.8182 23.8182 27.4813 23.8182 32C23.8182 36.5187 27.4813 40.1818 32 40.1818C36.5187 40.1818 40.1818 36.5187 40.1818 32C40.1818 31.2923 40.0922 30.6069 39.9241 29.9538C39.799 29.4676 40.0917 28.972 40.578 28.8469C41.0642 28.7217 41.5598 29.0145 41.685 29.5007C41.8908 30.3005 42 31.1381 42 32C42 37.5228 37.5228 42 32 42C26.4772 42 22 37.5228 22 32Z" fill="#00A073"/>
<path d="M41.6615 25.0434C42.0165 24.6884 42.0165 24.1128 41.6615 23.7577C41.3064 23.4027 40.7308 23.4027 40.3758 23.7577L31.8667 32.2668L29.8721 29.7331C29.5615 29.3386 28.99 29.2706 28.5955 29.5811C28.201 29.8917 28.1329 30.4633 28.4435 30.8578L31.0713 34.1959C31.2321 34.4 31.4725 34.5257 31.7318 34.541C31.9912 34.5564 32.2448 34.4601 32.4285 34.2764L41.6615 25.0434Z" fill="#006B4D"/>
</g>
</g>
<defs>
<filter id="filter0_d_442_68418" x="-4" y="5" width="72" height="72" filterUnits="userSpaceOnUse" color-interpolation-filters="sRGB">
<feFlood flood-opacity="0" result="BackgroundImageFix"/>
<feColorMatrix in="SourceAlpha" type="matrix" values="0 0 0 0 0 0 0 0 0 0 0 0 0 0 0 0 0 0 127 0" result="hardAlpha"/>
<feOffset dy="9"/>
<feGaussianBlur stdDeviation="9"/>
<feColorMatrix type="matrix" values="0 0 0 0 0.184314 0 0 0 0 0.223529 0 0 0 0 0.254902 0 0 0 0.15 0"/>
<feBlend mode="normal" in2="BackgroundImageFix" result="effect1_dropShadow_442_68418"/>
<feBlend mode="normal" in="SourceGraphic" in2="effect1_dropShadow_442_68418" result="shape"/>
</filter>
<clipPath id="clip0_442_68418">
<rect width="64" height="64" fill="white"/>
</clipPath>
</defs>
</svg>
