<svg width="16" height="8" viewBox="0 0 16 8" fill="none" xmlns="http://www.w3.org/2000/svg">
<path d="M8.43341 2.66667C7.88675 1.11333 6.40675 0 4.66675 0C2.46008 0 0.666748 1.79333 0.666748 4C0.666748 6.20667 2.46008 8 4.66675 8C6.40675 8 7.88675 6.88667 8.43341 5.33333H11.3334V8H14.0001V5.33333H15.3334V2.66667H8.43341ZM4.66675 5.33333C3.93341 5.33333 3.33341 4.73333 3.33341 4C3.33341 3.26667 3.93341 2.66667 4.66675 2.66667C5.40008 2.66667 6.00008 3.26667 6.00008 4C6.00008 4.73333 5.40008 5.33333 4.66675 5.33333Z" fill="#003A57"/>
</svg>
