2<svg width="16" height="16" viewBox="0 0 16 16" fill="currentColor" xmlns="http://www.w3.org/2000/svg">
<path d="M1.436 14C1.02681 14 0.685185 13.8458 0.411111 13.5375C0.137037 13.2292 0 12.8448 0 12.3845V3.6155C0 3.15517 0.137037 2.77083 0.411111 2.4625C0.685185 2.15417 1.02681 2 1.436 2H14.564C14.9732 2 15.3148 2.15417 15.5889 2.4625C15.863 2.77083 16 3.15517 16 3.6155V12.3845C16 12.8448 15.863 13.2292 15.5889 13.5375C15.3148 13.8458 14.9732 14 14.564 14H1.436ZM1.436 13H14.564C14.7009 13 14.8263 12.9359 14.9402 12.8078C15.0541 12.6796 15.1111 12.5385 15.1111 12.3845V3.6155C15.1111 3.4615 15.0541 3.32042 14.9402 3.19225C14.8263 3.06408 14.7009 3 14.564 3H1.436C1.29911 3 1.1737 3.06408 1.05978 3.19225C0.945852 3.32042 0.888889 3.4615 0.888889 3.6155V12.3845C0.888889 12.5385 0.945852 12.6796 1.05978 12.8078C1.1737 12.9359 1.29911 13 1.436 13ZM4.64956 11.7692H11.3504V10.2308H4.64956V11.7692ZM1.98289 8.76925H3.35044V7.23075H1.98289V8.76925ZM4.64956 8.76925H6.01711V7.23075H4.64956V8.76925ZM7.31622 8.76925H8.68378V7.23075H7.31622V8.76925ZM9.98289 8.76925H11.3504V7.23075H9.98289V8.76925ZM12.6496 8.76925H14.0171V7.23075H12.6496V8.76925ZM1.98289 5.76925H3.35044V4.23075H1.98289V5.76925ZM4.64956 5.76925H6.01711V4.23075H4.64956V5.76925ZM7.31622 5.76925H8.68378V4.23075H7.31622V5.76925ZM9.98289 5.76925H11.3504V4.23075H9.98289V5.76925ZM12.6496 5.76925H14.0171V4.23075H12.6496V5.76925Z"/>
</svg>
