<svg width="16" height="16" viewBox="0 0 16 16" fill="none" xmlns="http://www.w3.org/2000/svg">
    <path
        d="M8.85033 14.6668C8.59477 14.6668 8.40866 14.5835 8.29199 14.4168C8.17533 14.2502 8.16144 14.0446 8.25033 13.8002L10.7003 7.30016C10.767 7.12239 10.8892 6.97238 11.067 6.85016C11.2448 6.72794 11.4281 6.66683 11.617 6.66683C11.8059 6.66683 11.992 6.72794 12.1753 6.85016C12.3587 6.97238 12.4837 7.12239 12.5503 7.30016L15.0503 13.7335C15.1503 13.9891 15.1392 14.2085 15.017 14.3918C14.8948 14.5752 14.6892 14.6668 14.4003 14.6668C14.2781 14.6668 14.1614 14.6279 14.0503 14.5502C13.9392 14.4724 13.8614 14.3724 13.817 14.2502L13.267 12.5668H10.067L9.43366 14.2668C9.38921 14.3779 9.31144 14.4724 9.20033 14.5502C9.08921 14.6279 8.97255 14.6668 8.85033 14.6668ZM10.4337 11.4002H12.8003L11.6337 8.16683H11.6003L10.4337 11.4002ZM4.81699 5.70016C4.98366 5.98905 5.16699 6.26961 5.36699 6.54183C5.56699 6.81405 5.78366 7.09461 6.01699 7.3835C6.51699 6.86127 6.93366 6.31961 7.26699 5.7585C7.60033 5.19739 7.88366 4.61127 8.11699 4.00016H1.33366C1.14477 4.00016 0.986437 3.93627 0.858659 3.8085C0.730881 3.68072 0.666992 3.52239 0.666992 3.3335C0.666992 3.14461 0.730881 2.98627 0.858659 2.8585C0.986437 2.73072 1.14477 2.66683 1.33366 2.66683H5.33366V2.00016C5.33366 1.81127 5.39755 1.65294 5.52533 1.52516C5.6531 1.39738 5.81144 1.3335 6.00033 1.3335C6.18921 1.3335 6.34755 1.39738 6.47533 1.52516C6.6031 1.65294 6.66699 1.81127 6.66699 2.00016V2.66683H10.667C10.8559 2.66683 11.0142 2.73072 11.142 2.8585C11.2698 2.98627 11.3337 3.14461 11.3337 3.3335C11.3337 3.52239 11.2698 3.68072 11.142 3.8085C11.0142 3.93627 10.8559 4.00016 10.667 4.00016H9.45033C9.20588 4.76683 8.88088 5.51961 8.47533 6.2585C8.06977 6.99739 7.57255 7.70016 6.98366 8.36683L8.61699 10.0168L8.11699 11.3668L6.00033 9.3335L3.11699 12.2168C2.99477 12.3391 2.84477 12.4002 2.66699 12.4002C2.48921 12.4002 2.33921 12.3335 2.21699 12.2002C2.08366 12.0779 2.01699 11.9279 2.01699 11.7502C2.01699 11.5724 2.08366 11.4168 2.21699 11.2835L5.15033 8.35016C4.86144 8.00572 4.58921 7.6585 4.33366 7.3085C4.0781 6.9585 3.84477 6.60016 3.63366 6.2335C3.50033 5.98905 3.48921 5.77794 3.60033 5.60016C3.71144 5.42238 3.91144 5.3335 4.20033 5.3335C4.32255 5.3335 4.44199 5.36961 4.55866 5.44183C4.67533 5.51405 4.76144 5.60016 4.81699 5.70016Z"
        fill="currentColor" />
</svg>