<svg width="16" height="16" viewBox="0 0 16 16" fill="none" xmlns="http://www.w3.org/2000/svg">
<path fill-rule="evenodd" clip-rule="evenodd" d="M5 11.3144C3.19014 10.3985 2 8.53966 2 6.45455C2 3.4398 4.46469 1 7.5 1C10.5353 1 13 3.4398 13 6.45455C13 8.53966 11.8099 10.3985 10 11.3144V13H5V11.3144ZM6 10.6556V12H9V10.6556C10.7478 10.0441 12 8.39408 12 6.45455C12 3.99437 9.98528 2 7.5 2C5.01472 2 3 3.99437 3 6.45455C3 8.39408 4.25221 10.0441 6 10.6556ZM8 8V10C8 10.6667 7 10.6667 7 10V8H6.5C5.83333 8 5.83333 7 6.5 7H8.5C9.16667 7 9.16667 8 8.5 8H8ZM5 14H10V14.7273C10 15.4302 9.43018 16 8.72727 16H6.27273C5.56982 16 5 15.4302 5 14.7273V14Z" fill="currentColor"/>
</svg>
