<svg width="16" height="16" viewBox="0 0 16 16" fill="none" xmlns="http://www.w3.org/2000/svg">
    <path fill-rule="evenodd" clip-rule="evenodd"
        d="M4.44133 7.3797L4.53553 7.46289L5.475 8.402L4.767 9.109L3.82843 8.17L1.82843 10.17L1.69611 10.3115C0.725775 11.4226 0.769881 13.1115 1.82843 14.17C2.88697 15.2285 4.57581 15.2727 5.68688 14.3023L5.82843 14.17L7.82843 12.17L6.889 11.231L7.596 10.523L8.53553 11.4629C8.89602 11.8234 8.92375 12.3906 8.61872 12.7829L8.53553 12.8771L6.53553 14.8771C5.04044 16.3722 2.61641 16.3722 1.12132 14.8771C-0.322218 13.4336 -0.371996 11.1241 0.971989 9.6208L1.12132 9.46289L3.12132 7.46289C3.45176 7.13245 3.95593 7.08161 4.33983 7.31038L4.44133 7.3797ZM11.8536 4.14645C12.0271 4.32001 12.0464 4.58944 11.9114 4.78431L11.8536 4.85355L4.85355 11.8536C4.65829 12.0488 4.34171 12.0488 4.14645 11.8536C3.97288 11.68 3.9536 11.4106 4.08859 11.2157L4.14645 11.1464L11.1464 4.14645C11.3417 3.95118 11.6583 3.95118 11.8536 4.14645ZM14.8771 1.12132C16.3206 2.56486 16.3704 4.87437 15.0264 6.37763L14.8771 6.53553L12.8771 8.53553C12.5166 8.89602 11.9494 8.92375 11.5571 8.61872L11.4629 8.53553L10.523 7.596L11.231 6.889L12.17 7.82843L14.17 5.82843L14.3023 5.68688C15.2727 4.57581 15.2285 2.88697 14.17 1.82843C13.1115 0.769881 11.4226 0.725775 10.3115 1.69611L10.17 1.82843L8.17 3.82843L9.109 4.767L8.402 5.475L7.46289 4.53553C7.10241 4.17505 7.07468 3.60782 7.3797 3.21553L7.46289 3.12132L9.46289 1.12132C10.958 -0.373773 13.382 -0.373773 14.8771 1.12132Z"
        fill="#68737D" />
</svg>
    