<?xml version="1.0" encoding="utf-8"?>
<svg viewBox="0.395 1.974 467.559 83.447" style="enable-background:new 0 0 479.4 154.1;" xmlns="http://www.w3.org/2000/svg">
  <defs>
    <style type="text/css">
	.st0{fill:#003A57;}
	.st1{fill:#54C38A;}
	.st2{fill:#B2C4CD;}
	.st3{fill:#809CAB;}
	.st4{fill:#CCEDDC;}
	.st5{fill:#CCD8DD;}
	.st6{fill:#E5EBEE;}
	.st7{fill:#A9E1C5;}
</style>
  </defs>
  <g>
    <g transform="matrix(1, 0, 0, 1, -13.419878, -39.47023)">
      <path class="st0" d="M157.6,115.2V90.6c0-6.8-3.7-10.7-10-10.7c-6,0-9.4,3.9-9.4,10.7v24.6h-8.6V90.6c0-11.5,6.9-18.7,18.1-18.7 c11.3,0,18.5,7.3,18.5,18.7v24.6H157.6z"/>
      <path class="st0" d="M214.6,116.4c-16.5,0-22.4-11.2-22.4-21.7c0-15.9,11.3-23,22.4-23c5.9,0,11.5,2.3,15.8,6.5l0.3,0.3l-5.5,5.7 l-0.3-0.3c-2.6-2.4-6.6-4-10.2-4c-8.1,0-13.8,6.1-13.8,14.8c0,6.5,3.6,13.4,13.8,13.4c3.5,0,6.1-0.9,8.9-3.1v-6.6h-10.6v-8h19.3 v17.5l-0.6,0.8C227.1,113.9,221.5,116.4,214.6,116.4z"/>
      <path class="st0" d="M277,115.2c-11.3,0-18.5-7.3-18.5-18.7V72h8.6v24.6c0,6.8,3.7,10.7,10,10.7c6,0,9.4-3.9,9.4-10.7V72h8.6v24.6 C295.1,108.1,288.2,115.2,277,115.2z"/>
      <polygon class="st0" points="321.1,115.2 321.1,72.2 354.9,72.2 354.9,80.7 329.6,80.7 329.6,90.1 350.8,90.1 350.8,98.2 &#10;&#9;&#9;&#9;329.6,98.2 329.6,106.7 354.9,106.7 354.9,115.2 &#9;&#9;"/>
      <path class="st0" d="M397.2,116.1c-9.4,0-15.3-3.4-18.2-10.3l-0.2-0.4l7.3-3.8l0.2,0.5c1.5,3.8,5.7,6.1,11,6.1 c2.1,0,8.9-0.4,8.9-5.6c0-3.1-2.9-4.9-9-5.5c-14.5-1.7-16.4-7.4-16.4-12.8c0-8.4,8.1-12.3,16.2-12.3c8.1,0,13.7,2.9,16.4,8.3 l0.2,0.4l-6.9,3.6l-0.2-0.4c-1.2-2.1-4.9-4.3-9.2-4.3c-4.9,0-7.9,1.9-7.9,4.9c0,3,3.4,4,8.6,4.6c8.7,1.1,16.8,3.4,16.8,13.4 C414.7,112.5,405.7,116.1,397.2,116.1z"/>
      <path class="st0" d="M457,116.3c-9.4,0-15.3-3.4-18.1-10.3l-0.2-0.4l7.2-3.8l0.2,0.5c1.5,3.8,5.7,6.1,11,6.1 c2.1,0,8.9-0.4,8.9-5.6c0-3-2.9-4.8-9-5.5c-14.4-1.7-16.4-7.4-16.4-12.8c0-8.4,8.1-12.3,16.2-12.3c8,0,13.7,2.9,16.4,8.3l0.2,0.4 l-6.9,3.6l-0.2-0.4c-1.2-2.1-4.9-4.3-9.2-4.3c-4.9,0-7.9,1.9-7.9,4.9c0,3,3.4,4,8.6,4.6c8.7,1.1,16.8,3.4,16.8,13.4 C474.6,112.7,465.5,116.3,457,116.3z"/>
      <g>
        <path class="st0" d="M94.6,93.6v4.2h0c-0.4,6.1-3.8,9.6-9.4,9.6c-6,0-9.6-3.5-10-9.6h0v-4.2h-8.6v4.2h0c0,0,0,0,0,0v0.1h0 c0.5,10.7,7.7,17.5,18.6,17.5c10.8,0,17.6-6.7,18.1-17.5h0v-4.3H94.6z"/>
        <rect x="66.6" y="72" class="st1" width="8.6" height="8.6"/>
        <rect x="94.4" y="72" class="st0" width="8.7" height="8.7"/>
        <rect x="43.3" y="51.1" transform="matrix(-1.836970e-16 1 -1 -1.836970e-16 103.0108 7.8599)" class="st2" width="8.6" height="8.6"/>
        <rect x="55.9" y="62.4" transform="matrix(-1.836970e-16 1 -1 -1.836970e-16 126.8956 6.4839)" class="st3" width="8.6" height="8.6"/>
        <rect x="27.5" y="58.9" transform="matrix(-1.836970e-16 1 -1 -1.836970e-16 94.995 31.3966)" class="st4" width="8.6" height="8.6"/>
        <rect x="14.3" y="41.4" transform="matrix(-1.836970e-16 1 -1 -1.836970e-16 64.3654 27.0906)" class="st5" width="8.6" height="8.6"/>
        <rect x="31.6" y="97.9" transform="matrix(-1.836970e-16 1 -1 -1.836970e-16 138.0759 66.2679)" class="st6" width="8.6" height="8.6"/>
        <rect x="46.7" y="82.5" transform="matrix(-1.836970e-16 1 -1 -1.836970e-16 137.8376 35.8559)" class="st7" width="8.6" height="8.6"/>
      </g>
    </g>
  </g>
</svg>