<svg width="519" height="509" viewBox="0 0 519 509" fill="none" xmlns="http://www.w3.org/2000/svg">
<path d="M350.995 3.93473C387.009 -3.86589 423.844 3.36487 450.817 24.5451C461.34 32.7867 470.154 42.7965 476.876 54.1402C496.816 87.8631 496.474 132.799 475.819 169.318C463.693 190.789 444.792 210.31 441.393 233.886C437.016 264.518 460.117 289.966 481.712 311.189C503.307 332.411 520.947 364.556 518.618 395.295C516.434 423.954 497.29 463.169 482.483 477.355C426.023 531.473 337.596 504.21 297.29 473.368C256.984 442.527 234.945 413.214 209.049 370.634C172.773 310.981 172.302 231.243 192.727 161.212C212.196 94.4819 265.717 33.43 333.94 8.78071C339.525 6.78165 345.226 5.16204 350.995 3.93473Z" fill="#007D5A" fill-opacity="0.08"/>
<path d="M320.604 170.932V172.495H320.585C320.448 174.761 319.197 176.051 317.107 176.051C314.88 176.051 313.552 174.761 313.415 172.495H313.395V170.932H310.23V172.495V172.515C310.406 176.461 313.063 178.981 317.088 178.981C321.073 178.981 323.593 176.519 323.769 172.515V170.932H320.604Z" fill="#003A57"/>
<path d="M313.435 162.962H310.25V166.146H313.435V162.962Z" fill="#ABEBDF"/>
<path d="M323.749 162.962H320.526V166.185H323.749V162.962Z" fill="#003A57"/>
<circle cx="216.859" cy="245.359" r="79.5518" stroke="#B3E8D9" stroke-width="1.45967"/>
<circle cx="216.859" cy="245.359" r="124.785" stroke="#80D9C0" stroke-width="1.26685"/>
<path fill-rule="evenodd" clip-rule="evenodd" d="M200.08 372H187.92C187.43 372 187.02 371.65 186.93 371.17L186.1 366.17C186.06 365.87 186.14 365.58 186.33 365.35C186.52 365.12 186.8 365 187.09 365H200.91C201.2 365 201.48 365.13 201.67 365.35C201.86 365.58 201.94 365.87 201.89 366.16L201.06 371.16C200.98 371.65 200.57 372 200.08 372ZM201 364V362C201 361.45 200.55 361 200 361H195V360.5C195 359.67 194.33 359 193.5 359H188.5C187.67 359 187 359.67 187 360.5V364H201Z" fill="#547B8E"/>
<path d="M296.114 337.202C298.261 338.1 300.48 338.836 302.638 339.724C304.796 340.613 306.954 341.685 308.948 342.961C309.244 343.145 309.52 342.675 309.224 342.492C305.266 339.99 300.726 338.111 296.145 337.089C296.073 337.069 296.053 337.171 296.114 337.202Z" fill="white"/>
<path d="M296.267 334.046C298.149 334.945 300.102 335.68 301.994 336.558C303.886 337.436 305.747 338.509 307.455 339.744C307.741 339.949 308.007 339.479 307.731 339.275C304.346 336.834 300.368 334.955 296.318 333.933C296.257 333.923 296.216 334.005 296.277 334.036L296.267 334.046Z" fill="white"/>
<path d="M303.865 365.204C305.256 365.837 306.708 366.317 308.099 366.94C309.49 367.563 310.931 368.278 312.302 369.023C313.672 369.769 314.94 370.525 316.218 371.342C316.852 371.75 317.476 372.158 318.1 372.577C318.724 372.996 319.358 373.517 320.043 373.874C320.217 373.966 320.411 373.741 320.258 373.588C319.204 372.557 317.783 371.781 316.556 370.984C315.247 370.136 313.917 369.34 312.557 368.584C311.197 367.828 309.786 367.124 308.344 366.501C306.902 365.878 305.481 365.255 303.957 364.959C303.824 364.928 303.722 365.122 303.865 365.183V365.204Z" fill="white"/>
<path d="M329.809 388.304C328.95 389.969 328.131 391.654 327.364 393.359C327.007 394.156 326.659 394.952 326.321 395.759C325.984 396.566 325.462 397.516 325.329 398.424C325.309 398.557 325.462 398.629 325.544 398.516C326.035 397.822 326.281 396.923 326.608 396.147C326.986 395.259 327.364 394.37 327.753 393.482C328.489 391.786 329.236 390.101 329.993 388.416C330.054 388.284 329.87 388.171 329.798 388.304H329.809Z" fill="white"/>
<path d="M341.18 326.325C339.268 334.597 337.98 343.023 336.936 351.448C335.362 364.172 334.441 376.989 334.206 389.805C334.053 398.026 334.114 406.288 334.799 414.488C334.82 414.764 335.239 414.764 335.229 414.488C334.983 407.146 334.758 399.803 334.84 392.45C334.912 385.638 335.188 378.837 335.648 372.046C336.405 360.853 337.642 349.691 339.401 338.611C340.045 334.546 340.761 330.482 341.661 326.458C341.732 326.142 341.242 325.999 341.17 326.325H341.18Z" fill="white"/>
<path d="M326.925 364.53C326.73 378.306 327.508 392.246 330.289 405.757C331.046 409.433 331.905 413.13 333.152 416.674C333.234 416.919 333.613 416.817 333.541 416.561C332.672 413.345 331.813 410.138 331.138 406.87C330.463 403.602 329.86 400.048 329.389 396.617C328.428 389.662 327.886 382.646 327.63 375.631C327.497 371.923 327.446 368.216 327.477 364.509C327.477 364.152 326.935 364.152 326.925 364.509V364.53Z" fill="white"/>
<path d="M345.465 368.574C341.415 370.453 337.846 373.271 335.034 376.744C334.789 377.04 335.218 377.469 335.454 377.162C338.204 373.69 341.732 370.943 345.577 368.778C345.71 368.696 345.598 368.512 345.455 368.574H345.465Z" fill="white"/>
<path d="M345.618 366.715C341.692 368.012 337.806 370.228 335.014 373.323C334.779 373.588 335.157 373.966 335.403 373.711C336.834 372.25 338.327 370.912 340.045 369.789C341.763 368.666 343.706 367.685 345.68 366.95C345.823 366.899 345.772 366.664 345.618 366.715Z" fill="white"/>
<path d="M349.105 348.578C344.504 350.671 339.953 353.092 336.394 356.738C336.108 357.034 336.558 357.483 336.844 357.187C340.403 353.592 344.841 351.192 349.279 348.864C349.474 348.762 349.3 348.486 349.105 348.578Z" fill="white"/>
<path d="M348.543 336.354C344.81 338.58 340.628 340.796 338.163 344.503C337.948 344.82 338.47 345.116 338.675 344.799C339.902 342.92 341.63 341.46 343.45 340.163C345.27 338.866 346.937 337.773 348.676 336.579C348.809 336.487 348.686 336.262 348.543 336.354Z" fill="white"/>
<path d="M348.032 334.403C344.452 336.068 341.027 337.988 338.46 341.041C338.255 341.287 338.613 341.644 338.818 341.399C340.035 339.908 341.466 338.631 343.062 337.559C344.657 336.487 346.426 335.537 348.144 334.577C348.257 334.516 348.154 334.352 348.042 334.403H348.032Z" fill="white"/>
<path d="M339.319 337.753C338.675 336.752 337.928 335.854 337.049 335.037C336.609 334.638 336.159 334.25 335.678 333.903C335.198 333.556 334.656 333.127 334.083 332.872C333.858 332.77 333.674 333.066 333.889 333.209C334.38 333.556 334.922 333.832 335.413 334.179C335.903 334.526 336.394 334.904 336.854 335.302C337.724 336.058 338.542 336.905 339.247 337.814C339.278 337.855 339.339 337.804 339.319 337.763V337.753Z" fill="white"/>
<path d="M337.601 350.62C337.581 349.834 336.957 349.17 336.477 348.598C335.935 347.945 335.341 347.332 334.718 346.75C333.46 345.575 332.049 344.554 330.556 343.696C330.31 343.553 330.085 343.931 330.331 344.074C331.752 344.881 333.081 345.831 334.288 346.934C334.861 347.455 335.403 348.006 335.914 348.588C336.425 349.17 337.1 349.854 337.325 350.661C337.366 350.814 337.601 350.784 337.601 350.62Z" fill="white"/>
<path d="M337.304 352.949C336.394 351.581 335.147 350.396 333.92 349.324C332.692 348.251 331.312 347.118 329.89 346.199C329.625 346.025 329.4 346.434 329.645 346.617C331.005 347.608 332.355 348.588 333.623 349.702C334.891 350.815 335.965 351.958 337.202 353.01C337.243 353.051 337.325 353 337.294 352.939L337.304 352.949Z" fill="white"/>
<path d="M335.975 365.673C335.842 364.867 335.003 364.274 334.441 363.743C333.715 363.059 332.968 362.385 332.212 361.731C330.719 360.445 329.174 359.219 327.559 358.096C327.262 357.892 326.986 358.372 327.272 358.576C328.816 359.679 330.34 360.812 331.802 362.028C332.498 362.599 333.173 363.192 333.848 363.794C334.523 364.397 335.31 364.989 335.75 365.765C335.821 365.888 335.985 365.796 335.965 365.673H335.975Z" fill="white"/>
<path d="M335.361 375.539C334.952 374.875 334.308 374.323 333.746 373.803C333.142 373.231 332.498 372.69 331.844 372.179C330.545 371.168 329.124 370.167 327.62 369.483C327.365 369.371 327.14 369.718 327.395 369.871C328.111 370.3 328.847 370.678 329.553 371.127C330.259 371.576 330.923 372.036 331.578 372.536C332.232 373.037 332.856 373.547 333.459 374.099C334.063 374.65 334.564 375.253 335.188 375.733C335.3 375.825 335.443 375.651 335.382 375.539H335.361Z" fill="white"/>
<path d="M334.145 388.028C333.235 386.772 332.253 385.587 331.169 384.474C330.085 383.361 328.878 382.258 327.61 381.329C327.385 381.166 327.089 381.543 327.314 381.717C328.52 382.718 329.727 383.698 330.862 384.781C331.997 385.863 333.03 386.956 334.022 388.13C334.083 388.202 334.216 388.11 334.155 388.028H334.145Z" fill="white"/>
<path d="M334.625 403.653C334.625 403.653 334.605 403.633 334.595 403.612C334.615 403.643 334.564 403.5 334.554 403.49C334.472 403.347 334.329 403.214 334.206 403.102C333.817 402.734 333.429 402.377 333.02 402.019C332.509 401.58 331.997 401.141 331.465 400.712C330.934 400.283 330.443 399.864 329.88 399.538C329.533 399.343 329.277 399.823 329.574 400.058C330.075 400.436 330.596 400.783 331.087 401.182C331.619 401.6 332.13 402.04 332.641 402.479C333.04 402.816 333.429 403.163 333.828 403.5C333.95 403.602 334.083 403.735 334.227 403.806C334.257 403.827 334.298 403.837 334.339 403.837C334.308 403.837 334.308 403.837 334.339 403.837C334.421 403.847 334.38 403.837 334.359 403.837C334.37 403.837 334.39 403.857 334.4 403.857C334.523 403.929 334.697 403.776 334.605 403.653H334.625Z" fill="white"/>
<path d="M347.224 371.699C348.052 373.292 348.666 375.018 349.167 376.744C349.78 378.817 350.251 381.033 350.016 383.208C349.975 383.596 350.588 383.596 350.619 383.208C350.823 380.992 350.322 378.715 349.678 376.601C349.146 374.875 348.502 373.057 347.469 371.556C347.367 371.403 347.122 371.535 347.214 371.709L347.224 371.699Z" fill="white"/>
<path d="M352.777 358.372C353.769 360.659 354.218 363.141 354.576 365.592C354.771 366.899 354.914 368.206 355.016 369.524C355.077 370.3 355.159 371.117 355.067 371.893C355.016 372.301 355.66 372.291 355.701 371.893C355.804 371.076 355.701 370.218 355.65 369.401C355.548 368.074 355.384 366.746 355.19 365.429C354.975 364.009 354.72 362.59 354.372 361.19C354.116 360.159 353.85 358.995 353.237 358.106C353.042 357.82 352.644 358.066 352.777 358.372Z" fill="white"/>
<path d="M354.945 354.317C355.732 356.748 356.09 359.352 356.335 361.885C356.581 364.417 356.734 366.766 356.683 369.207C356.683 369.36 356.939 369.411 356.969 369.248C357.419 366.807 357.174 364.162 356.898 361.711C356.622 359.26 356.315 356.513 355.262 354.195C355.18 354.021 354.893 354.144 354.945 354.327V354.317Z" fill="white"/>
<path d="M376.02 358.688C370.621 359.148 365.14 360.424 360.129 362.497C359.812 362.63 359.955 363.151 360.272 363.018C362.778 361.977 365.375 361.17 368.024 360.537C370.672 359.903 373.382 359.434 376.041 358.79C376.102 358.78 376.092 358.678 376.031 358.678L376.02 358.688Z" fill="white"/>
<path d="M379.262 348.19C374.895 348.609 370.488 349.855 366.52 351.723C366.203 351.877 366.479 352.336 366.796 352.193C368.801 351.243 370.887 350.508 373.024 349.916C375.161 349.324 377.217 348.905 379.282 348.302C379.344 348.282 379.333 348.19 379.272 348.19H379.262Z" fill="white"/>
<path d="M379.579 345.259C375.693 345.729 371.786 347.046 368.351 348.915C368.044 349.079 368.32 349.548 368.627 349.385C370.375 348.425 372.206 347.659 374.098 347.046C375.989 346.434 377.779 345.994 379.599 345.371C379.65 345.351 379.65 345.249 379.589 345.259H379.579Z" fill="white"/>
<path d="M368.637 373.108C367.195 373.21 365.774 373.619 364.393 374.007C362.9 374.415 361.438 374.905 359.986 375.447C358.636 375.947 357.296 376.499 355.977 377.091C355.292 377.397 354.607 377.724 353.932 378.051C353.257 378.378 352.51 378.694 351.917 379.154C351.774 379.266 351.846 379.552 352.06 379.481C353.349 379.031 354.566 378.245 355.803 377.683C357.214 377.04 358.656 376.448 360.119 375.906C361.499 375.396 362.89 374.936 364.301 374.517C365.712 374.099 367.236 373.803 368.678 373.333C368.801 373.292 368.79 373.077 368.647 373.088L368.637 373.108Z" fill="white"/>
<path d="M340.853 391.745C341.292 393.41 341.732 395.075 342.151 396.749C342.356 397.556 342.56 398.353 342.755 399.16C342.949 399.966 343.041 400.855 343.419 401.58C343.481 401.692 343.634 401.631 343.644 401.519C343.675 400.702 343.358 399.834 343.174 399.047C342.99 398.261 342.775 397.444 342.56 396.637C342.11 394.972 341.609 393.328 341.078 391.684C341.037 391.551 340.822 391.602 340.863 391.745H340.853Z" fill="white"/>
<path d="M300.562 369.207C299.304 368.523 297.801 368.155 296.431 367.746C294.969 367.307 293.496 366.919 292.003 366.592C290.51 366.266 289.099 365.99 287.626 365.765C286.931 365.663 286.235 365.561 285.53 365.479C284.886 365.398 283.955 365.122 283.341 365.367C283.229 365.408 283.198 365.561 283.311 365.632C283.791 365.939 284.497 365.867 285.059 365.929C285.878 366.021 286.685 366.133 287.493 366.255C288.956 366.48 290.418 366.756 291.87 367.083C293.322 367.409 294.682 367.757 296.063 368.155C297.443 368.553 298.957 369.197 300.429 369.503C300.593 369.534 300.716 369.309 300.552 369.217L300.562 369.207Z" fill="white"/>
<path d="M293.292 359.587C292.085 358.923 290.643 358.607 289.324 358.229C287.872 357.82 286.389 357.473 284.906 357.167C282.022 356.585 279.087 356.166 276.153 355.992C275.856 355.972 275.856 356.431 276.153 356.452C279.087 356.697 282.002 357.065 284.896 357.657C286.266 357.933 287.616 358.259 288.966 358.617C290.316 358.974 291.768 359.567 293.199 359.802C293.332 359.822 293.424 359.648 293.292 359.577V359.587Z" fill="white"/>
<path d="M290.07 356.115C288.884 355.584 287.524 355.339 286.277 355.022C284.927 354.675 283.577 354.348 282.217 354.062C279.548 353.511 276.848 353.122 274.128 353.02C273.852 353.02 273.852 353.429 274.128 353.439C276.899 353.541 279.64 353.95 282.34 354.522C283.618 354.787 284.896 355.093 286.164 355.41C287.432 355.727 288.71 356.196 290.009 356.329C290.122 356.339 290.173 356.156 290.07 356.115Z" fill="white"/>
<path d="M287.585 346.413C287.708 347.138 287.922 347.863 288.066 348.588C288.209 349.313 288.342 350.018 288.434 350.743C288.485 351.121 288.874 355.073 288.628 355.083C288.332 355.093 288.332 355.522 288.628 355.543C289.272 355.573 289.16 354.685 289.16 354.276C289.16 353.368 289.109 352.459 289.017 351.56C288.925 350.661 288.802 349.824 288.638 348.966C288.475 348.108 288.301 347.148 287.953 346.321C287.861 346.086 287.534 346.178 287.575 346.423L287.585 346.413Z" fill="white"/>
<path d="M298.415 353.878C298.241 354.787 298.425 355.798 298.476 356.717C298.527 357.739 298.568 358.75 298.599 359.771C298.65 361.813 298.732 364.05 298.231 366.041C298.179 366.256 298.507 366.307 298.527 366.082C298.619 365.071 298.824 364.07 298.905 363.059C298.987 362.048 299.028 360.955 299.018 359.893C299.008 358.831 298.967 357.861 298.895 356.84C298.834 355.89 298.885 354.797 298.558 353.889C298.537 353.827 298.425 353.807 298.415 353.889V353.878Z" fill="white"/>
<path d="M150.863 383.831C149.165 356.993 156.446 331.82 169.3 308.178C177.747 292.656 197.381 274.161 207.209 282.668C216.126 290.399 201.564 306.361 195.019 314.275C177.359 335.619 163.267 353.235 157.643 380.022" fill="#00B280"/>
<path d="M207.127 282.535C201.87 285.221 197.391 289.347 193.372 293.605C188.403 298.865 184.056 304.696 180.079 310.731C175.579 317.553 171.55 324.691 167.93 332.014C164.31 339.336 160.915 347.22 158.082 355.083C155.342 362.671 153.01 370.412 151.272 378.296C151.067 379.215 150.883 380.134 150.719 381.063C150.679 381.268 150.996 381.37 151.047 381.155C151.926 377.407 152.785 373.67 153.838 369.963C154.892 366.256 156.17 362.232 157.499 358.433C160.281 350.508 163.512 342.737 167.153 335.159C170.793 327.582 174.567 320.647 178.933 313.754C182.88 307.514 187.216 301.499 192.104 295.964C196.154 291.379 200.602 287.294 205.664 283.852C206.206 283.485 206.748 283.138 207.311 282.801C207.474 282.698 207.331 282.453 207.157 282.535H207.127Z" fill="white"/>
<path d="M177.645 315.368C179.403 314.867 181.101 314.071 182.839 313.489C184.578 312.906 186.337 312.386 188.106 311.936C189.875 311.487 191.654 311.099 193.454 310.782C194.313 310.629 195.172 310.496 196.031 310.374C196.553 310.302 197.084 310.231 197.606 310.17C197.974 310.129 198.301 310.149 198.618 309.935C198.731 309.863 198.7 309.72 198.588 309.669C198.199 309.516 197.78 309.639 197.371 309.69C196.962 309.741 196.542 309.792 196.133 309.853C195.233 309.976 194.334 310.118 193.444 310.272C191.613 310.598 189.783 310.987 187.983 311.446C186.183 311.906 184.455 312.426 182.717 313.019C180.978 313.611 179.127 314.173 177.532 315.082C177.379 315.174 177.481 315.419 177.655 315.368H177.645Z" fill="white"/>
<path d="M186.521 301.785C188.218 301.377 189.844 300.652 191.511 300.131C193.178 299.61 194.957 299.12 196.706 298.711C200.224 297.884 203.803 297.353 207.403 297.026C207.699 296.996 207.699 296.546 207.403 296.567C203.803 296.822 200.214 297.394 196.696 298.211C194.906 298.63 193.137 299.11 191.389 299.671C189.732 300.202 187.942 300.693 186.429 301.561C186.306 301.632 186.388 301.816 186.521 301.785Z" fill="white"/>
<path d="M190.468 296.884C192.053 296.608 193.618 296.005 195.162 295.556C196.706 295.107 198.373 294.657 199.999 294.269C203.251 293.493 206.554 292.931 209.898 292.788C210.174 292.778 210.174 292.349 209.898 292.37C206.554 292.502 203.251 293.054 199.999 293.83C198.373 294.218 196.767 294.657 195.172 295.127C193.577 295.597 191.889 295.985 190.376 296.669C190.243 296.73 190.345 296.904 190.468 296.884Z" fill="white"/>
<path d="M192.984 282.862C192.207 285.16 191.92 287.713 191.706 290.113C191.593 291.328 191.532 292.543 191.521 293.758C191.521 294.289 191.266 295.689 192.115 295.709C192.411 295.709 192.401 295.28 192.115 295.249C191.685 295.209 192.227 289.684 192.288 289.132C192.524 287.049 193.014 285.017 193.352 282.954C193.393 282.709 193.055 282.607 192.974 282.852L192.984 282.862Z" fill="white"/>
<path d="M179.966 293.483C179.608 294.79 179.659 296.261 179.588 297.598C179.506 299.049 179.445 300.499 179.434 301.949C179.424 303.399 179.455 304.767 179.557 306.167C179.659 307.647 179.895 309.128 180.038 310.609C180.058 310.823 180.386 310.783 180.334 310.568C179.741 307.739 179.813 304.706 179.864 301.826C179.895 300.417 179.946 299.008 180.007 297.598C180.068 296.189 180.304 294.81 180.12 293.483C180.109 293.401 179.987 293.411 179.976 293.483H179.966Z" fill="white"/>
<path d="M166.744 312.651C165.629 320.219 165.701 327.98 166.437 335.578C166.468 335.884 166.959 335.895 166.928 335.578C166.192 327.929 166.355 320.311 166.856 312.662C166.856 312.6 166.754 312.58 166.744 312.651Z" fill="white"/>
<path d="M167.909 332.994C170.486 331.503 173.411 330.543 176.213 329.583C177.634 329.093 179.066 328.644 180.508 328.225C181.244 328.011 181.991 327.806 182.737 327.602C183.484 327.398 184.22 327.296 184.895 327C185.069 326.928 184.977 326.632 184.803 326.642C184.067 326.693 183.33 326.959 182.625 327.153C181.837 327.357 181.06 327.582 180.283 327.806C178.759 328.256 177.256 328.736 175.763 329.256C174.27 329.777 172.777 330.329 171.304 330.921C170.077 331.421 168.727 331.85 167.797 332.831C167.725 332.912 167.817 333.045 167.92 332.984L167.909 332.994Z" fill="white"/>
<path d="M164.167 317.992C163.88 321.648 163.768 325.314 163.87 328.991C163.972 332.453 164.126 336.058 164.934 339.438C164.964 339.591 165.22 339.561 165.21 339.397C164.842 335.884 164.433 332.412 164.32 328.879C164.208 325.345 164.269 321.618 164.504 318.002C164.514 317.788 164.187 317.788 164.167 318.002V317.992Z" fill="white"/>
<path d="M161.058 347.914C163.154 346.76 165.21 345.555 167.357 344.483C169.505 343.411 171.836 342.481 174.106 341.542C174.331 341.45 174.239 341.093 174.004 341.174C171.734 341.94 169.515 342.982 167.377 344.044C165.24 345.106 162.991 346.331 160.986 347.782C160.915 347.833 160.986 347.955 161.058 347.904V347.914Z" fill="white"/>
<path d="M156.609 338.437C156.64 340.95 156.804 343.452 157.192 345.933C157.581 348.415 157.98 351.019 158.808 353.388C158.91 353.674 159.319 353.562 159.258 353.266C159.013 352.081 158.655 350.927 158.399 349.743C158.143 348.558 157.898 347.281 157.693 346.035C157.284 343.513 156.947 340.97 156.742 338.427C156.742 338.356 156.62 338.346 156.62 338.427L156.609 338.437Z" fill="white"/>
<path d="M156.466 359.985C156.466 359.985 156.486 359.965 156.466 359.965C156.446 359.965 156.446 359.985 156.466 359.985Z" fill="white"/>
<path d="M156.486 360.057C156.568 360.005 156.65 359.934 156.742 359.903C156.926 359.832 157.1 359.822 157.305 359.689C158.061 359.188 158.828 358.688 159.605 358.218C161.712 356.921 163.911 355.706 166.334 355.093C166.549 355.042 166.457 354.695 166.242 354.756C163.87 355.349 161.589 356.523 159.503 357.769C158.706 358.249 157.928 358.76 157.182 359.311C156.885 359.526 156.742 359.791 156.476 360.036C156.456 360.046 156.476 360.077 156.497 360.067L156.486 360.057Z" fill="white"/>
<path d="M147.805 375.692C152.581 354.369 158.164 335.486 166.703 316.338C175.242 297.18 182.932 276.684 180.917 255.83C180.559 252.123 179.506 247.895 176.142 246.251C171.693 244.065 166.652 247.844 163.502 251.653C152.366 265.082 147.764 279.992 143.94 296.965C138.622 320.545 134.031 354.624 135.841 376.478" fill="#00B280"/>
<path d="M172.624 252.256C169.453 258.751 166.6 265.399 164.023 272.149C161.17 279.594 158.624 287.161 156.323 294.8C153.869 302.939 151.681 311.16 149.779 319.453C147.876 327.745 146.107 336.783 144.727 345.535C143.346 354.287 142.252 363.345 141.526 372.301C141.434 373.435 141.393 374.558 141.342 375.692C141.332 375.968 141.741 375.957 141.761 375.692C142.262 371.219 142.651 366.746 143.172 362.273C143.694 357.8 144.308 353.296 144.972 348.823C146.281 340.071 147.887 331.36 149.758 322.721C151.629 314.081 153.613 306.197 155.955 298.048C158.174 290.348 160.659 282.709 163.43 275.193C165.977 268.299 168.748 261.477 171.836 254.799C172.204 254.012 172.572 253.226 172.941 252.45C173.043 252.235 172.726 252.041 172.613 252.256H172.624Z" fill="white"/>
<path d="M161.579 327.337C158.675 328.991 155.914 330.829 153.276 332.872C151.957 333.903 150.668 334.965 149.41 336.078C148.152 337.192 146.792 338.335 145.698 339.622C145.453 339.908 145.831 340.296 146.117 340.041C147.365 338.938 148.5 337.692 149.738 336.569C150.975 335.445 152.192 334.414 153.47 333.393C156.098 331.299 158.859 329.348 161.702 327.551C161.835 327.469 161.712 327.255 161.579 327.337Z" fill="white"/>
<path d="M164.821 320.607C163.124 321.413 161.498 322.241 159.892 323.231C158.287 324.222 156.835 325.223 155.383 326.305C152.468 328.47 149.728 330.86 147.202 333.464C146.936 333.74 147.355 334.169 147.621 333.883C152.703 328.674 158.573 324.344 164.893 320.739C164.985 320.688 164.903 320.556 164.811 320.607H164.821Z" fill="white"/>
<path d="M142.538 305.584C144.082 307.923 145.299 310.537 146.373 313.131C147.682 316.307 148.838 319.718 149.011 323.18C149.032 323.568 149.635 323.568 149.615 323.18C149.42 319.626 148.224 316.154 146.854 312.907C145.759 310.313 144.512 307.647 142.773 305.411C142.671 305.278 142.446 305.452 142.538 305.595V305.584Z" fill="white"/>
<path d="M149.86 276.724C151.783 282.841 153.296 289.122 154.37 295.443C154.615 296.914 154.84 298.385 154.994 299.865C155.014 300.049 155.28 300.049 155.28 299.865C155.28 297.047 154.738 294.218 154.206 291.461C153.552 288.07 152.723 284.71 151.783 281.391C151.322 279.778 150.811 278.185 150.198 276.632C150.116 276.428 149.799 276.51 149.87 276.724H149.86Z" fill="white"/>
<path d="M179.169 279.655C171.826 281.667 164.576 284.639 158.215 288.836C157.929 289.03 158.195 289.5 158.492 289.306C161.641 287.212 165.006 285.466 168.472 283.965C171.939 282.464 175.63 281.177 179.199 279.768C179.261 279.737 179.24 279.645 179.169 279.655Z" fill="white"/>
<path d="M181.296 262.509C175.405 264.245 169.638 266.931 164.678 270.587C164.402 270.791 164.678 271.261 164.954 271.057C167.45 269.208 170.139 267.646 172.941 266.298C175.743 264.95 178.555 263.867 181.347 262.611C181.408 262.58 181.367 262.488 181.306 262.509H181.296Z" fill="white"/>
<path d="M181.071 257.832C175.814 259.578 170.763 262.284 166.519 265.858C166.253 266.083 166.642 266.471 166.907 266.246C169.065 264.429 171.417 262.866 173.902 261.518C176.387 260.17 178.729 259.159 181.122 257.934C181.173 257.903 181.142 257.811 181.081 257.832H181.071Z" fill="white"/>
<path d="M171.366 303.828C169.413 304.369 167.552 305.278 165.742 306.197C163.932 307.116 162.163 308.148 160.445 309.24C158.727 310.333 157.05 311.518 155.413 312.733C154.616 313.335 153.818 313.948 153.041 314.561C152.264 315.174 151.343 315.827 150.638 316.583C150.505 316.726 150.679 316.981 150.853 316.869C151.681 316.338 152.417 315.643 153.194 315.031C154.002 314.387 154.83 313.754 155.659 313.141C157.295 311.926 158.972 310.752 160.7 309.659C162.428 308.566 164.187 307.545 165.987 306.605C167.787 305.666 169.638 304.92 171.458 304.052C171.591 303.991 171.499 303.787 171.366 303.828Z" fill="white"/>
<path d="M138.233 338.407C139.215 340.929 140.197 343.452 141.148 345.984C141.618 347.23 142.078 348.476 142.539 349.732C142.999 350.988 143.316 352.255 143.929 353.388C144.001 353.511 144.165 353.419 144.144 353.296C143.929 351.999 143.357 350.733 142.907 349.497C142.436 348.2 141.956 346.914 141.465 345.637C140.514 343.176 139.501 340.745 138.448 338.325C138.397 338.213 138.192 338.294 138.244 338.407H138.233Z" fill="white"/>
<path d="M176.858 289.367C172.45 300.672 167.899 311.926 163.543 323.252C159.361 334.107 155.413 345.075 152.213 356.268C150.392 362.651 148.746 369.105 147.662 375.651C147.631 375.835 147.907 375.916 147.948 375.733C149.268 369.942 150.607 364.172 152.192 358.453C153.777 352.735 155.505 347.302 157.387 341.797C161.191 330.676 165.517 319.739 169.802 308.791C172.317 302.367 174.792 295.934 177.134 289.449C177.195 289.265 176.919 289.194 176.847 289.367H176.858Z" fill="white"/>
<path d="M125.799 375.457C122.485 352.418 119.704 331.462 115.91 310.619C110.695 282.035 99.6095 250.377 114.335 223.396C123.569 206.484 133.172 230.524 136.178 240.716C139.44 251.796 141.628 263.183 142.774 274.672C145.116 298.15 141.792 347.128 135.83 376.478" fill="#00B280"/>
<path d="M120.604 218.279C121.82 224.56 122.833 230.881 123.753 237.203C125.031 246.036 126.126 254.891 127.077 263.765C128.222 274.529 129.142 285.323 129.838 296.128C130.625 308.342 131.136 320.566 131.331 332.8C131.545 345.933 131.412 359.076 130.901 372.199C130.84 373.874 130.778 375.559 130.717 377.234C130.707 377.51 131.126 377.51 131.147 377.234C132.006 363.999 132.2 350.713 132.077 337.457C131.965 325.039 131.525 312.631 130.789 300.233C130.134 289.234 129.255 278.246 128.13 267.288C127.189 258.158 126.095 249.049 124.786 239.97C123.815 233.312 122.751 226.653 121.483 220.046C121.36 219.413 121.238 218.78 121.115 218.147C121.053 217.82 120.563 217.963 120.624 218.279H120.604Z" fill="white"/>
<path d="M142.958 287.049C143.06 299.212 142.733 311.375 141.945 323.507C141.158 335.639 139.777 348.772 137.609 361.252C136.454 367.9 134.992 374.477 133.355 381.023C133.294 381.278 133.672 381.38 133.744 381.135C135.441 375.365 136.699 369.472 137.804 363.57C138.908 357.667 139.869 351.254 140.616 345.055C142.129 332.494 142.978 319.861 143.326 307.208C143.52 300.488 143.571 293.769 143.489 287.039C143.489 286.681 142.937 286.681 142.937 287.039L142.958 287.049Z" fill="white"/>
<path d="M117.75 318.687C120.45 320.188 122.966 322.016 125.215 324.12C126.32 325.151 127.363 326.264 128.334 327.428C128.825 328.021 129.296 328.623 129.746 329.246C130.155 329.818 130.513 330.604 131.065 331.043C131.228 331.176 131.494 331.054 131.443 330.829C131.269 330.155 130.666 329.512 130.247 328.96C129.797 328.358 129.337 327.776 128.856 327.204C127.833 325.999 126.729 324.855 125.553 323.793C123.232 321.689 120.644 319.932 117.842 318.523C117.73 318.472 117.638 318.625 117.75 318.687Z" fill="white"/>
<path d="M114.345 294.637C120.604 298.507 126.126 303.562 130.318 309.618C130.533 309.935 131.055 309.629 130.84 309.312C126.555 303.215 121.003 298.048 114.468 294.422C114.335 294.351 114.212 294.545 114.345 294.627V294.637Z" fill="white"/>
<path d="M114.171 291.307C117.331 292.625 120.338 294.33 123.078 296.373C125.819 298.415 128.212 300.836 130.441 303.45C130.676 303.726 131.044 303.338 130.83 303.062C126.596 297.68 120.593 293.544 114.233 291.073C114.079 291.011 114.018 291.246 114.171 291.307Z" fill="white"/>
<path d="M108.547 258.638C115.705 262.815 122.741 267.258 128.191 273.599C128.457 273.916 128.907 273.456 128.641 273.15C123.201 266.767 116.032 262.294 108.721 258.352C108.526 258.25 108.363 258.536 108.547 258.638Z" fill="white"/>
<path d="M109.488 236.508C112.351 238.704 115.276 240.828 118.047 243.126C120.818 245.424 123.497 248.099 125.328 251.316C125.512 251.643 126.033 251.347 125.839 251.02C122.137 244.596 115.531 240.471 109.621 236.284C109.477 236.181 109.355 236.406 109.488 236.508Z" fill="white"/>
<path d="M110.327 232.893C113.047 234.578 115.808 236.243 118.344 238.193C120.88 240.144 123.14 242.472 125.021 245.087C125.206 245.352 125.645 245.087 125.451 244.831C123.569 242.248 121.34 239.96 118.804 238.01C116.268 236.059 113.313 234.333 110.419 232.72C110.306 232.658 110.204 232.822 110.316 232.893H110.327Z" fill="white"/>
<path d="M124.265 238.775C125.359 237.111 126.627 235.548 128.028 234.139C128.703 233.465 129.408 232.811 130.145 232.209C130.952 231.555 131.811 230.983 132.64 230.371C132.834 230.228 132.67 229.901 132.445 230.034C130.728 231.035 129.163 232.474 127.803 233.914C126.443 235.354 125.216 236.988 124.193 238.735C124.162 238.786 124.234 238.827 124.265 238.775Z" fill="white"/>
<path d="M127.219 261.957C127.496 260.589 128.447 259.435 129.265 258.342C130.083 257.25 130.993 256.167 131.954 255.166C133.836 253.185 135.942 251.439 138.233 249.948C138.468 249.795 138.243 249.417 138.008 249.57C135.615 251.153 133.396 253.001 131.443 255.095C130.492 256.106 129.602 257.178 128.784 258.301C127.966 259.425 127.025 260.558 126.943 261.927C126.943 262.08 127.189 262.121 127.219 261.968V261.957Z" fill="white"/>
<path d="M127.455 266.216C129.336 264.163 131.126 262.029 133.1 260.058C135.073 258.087 137.19 256.269 139.358 254.502C139.573 254.329 139.286 253.951 139.061 254.125C136.822 255.82 134.726 257.74 132.752 259.731C130.778 261.722 128.876 263.826 127.363 266.165C127.332 266.216 127.404 266.277 127.455 266.236V266.216Z" fill="white"/>
<path d="M129.735 289.193C130.349 287.753 131.719 286.589 132.793 285.476C133.867 284.363 134.951 283.28 136.065 282.218C138.325 280.064 140.688 278.021 143.111 276.05C143.387 275.825 142.988 275.427 142.712 275.652C140.156 277.705 137.722 279.91 135.38 282.198C134.225 283.331 133.1 284.496 131.995 285.68C131.085 286.661 129.766 287.743 129.51 289.122C129.48 289.275 129.684 289.326 129.746 289.183L129.735 289.193Z" fill="white"/>
<path d="M130.697 307.137C131.627 306.197 132.435 305.145 133.345 304.185C134.255 303.225 135.258 302.265 136.28 301.367C138.356 299.549 140.585 298.037 142.876 296.526C143.111 296.373 142.907 295.995 142.651 296.138C140.279 297.445 138.049 299.181 136.035 300.968C135.022 301.867 134.041 302.817 133.11 303.807C132.179 304.798 131.198 305.809 130.472 306.963C130.39 307.096 130.584 307.249 130.686 307.137H130.697Z" fill="white"/>
<path d="M132.517 329.573C135.574 325.294 139.123 321.485 142.978 317.921C143.213 317.706 142.866 317.369 142.63 317.574C138.642 320.985 135.216 325.09 132.363 329.481C132.302 329.573 132.455 329.665 132.517 329.573Z" fill="white"/>
<path d="M131.873 357.902C132.036 357.759 132.251 357.636 132.425 357.483C132.854 357.085 133.263 356.646 133.683 356.227C134.869 355.032 136.065 353.848 137.323 352.724C138.019 352.101 138.734 351.519 139.45 350.937C139.706 350.723 139.368 350.273 139.082 350.467C137.691 351.438 136.454 352.683 135.237 353.858C134.184 354.879 133.141 355.921 132.149 357.003C131.944 357.228 131.801 357.483 131.627 357.728C131.515 357.871 131.74 358.014 131.862 357.912L131.873 357.902Z" fill="white"/>
<path d="M116.411 381.104C112.729 357.616 100.775 336.364 90.0888 315.092C79.4026 293.82 69.6162 270.985 70.8024 247.242C71.0172 243.014 71.9784 238.173 75.7109 236.131C80.6399 233.424 86.5506 237.448 90.324 241.594C103.659 256.239 109.651 272.905 114.877 291.951C122.137 318.401 125.655 351.601 124.755 376.468" fill="#00B280"/>
<path d="M105.397 264.47C107.934 270.301 109.938 276.377 111.738 282.464C113.885 289.725 115.726 297.078 117.321 304.482C119.029 312.437 120.46 320.443 121.626 328.491C122.792 336.538 123.651 344.565 124.224 352.643C124.745 359.996 125.011 367.369 124.735 374.732C124.704 375.569 124.663 376.407 124.612 377.234C124.612 377.377 124.827 377.377 124.837 377.234C125.328 369.983 125.257 362.702 124.94 355.451C124.582 347.435 123.723 339.428 122.649 331.473C121.575 323.517 120.154 315.143 118.466 307.065C116.892 299.529 115.112 292.012 112.914 284.629C111.063 278.399 108.977 272.252 106.389 266.288C106.113 265.644 105.827 265.011 105.541 264.378C105.5 264.286 105.367 264.368 105.408 264.46L105.397 264.47Z" fill="white"/>
<path d="M79.6682 242.983C83.5439 250.234 87.0719 257.668 90.3442 265.205C93.9541 273.518 97.2264 281.984 100.223 290.542C103.393 299.61 106.215 308.801 108.761 318.064C111.41 327.714 113.742 337.447 115.756 347.24C117.771 357.034 119.56 367.297 120.941 377.408C121.115 378.653 121.319 379.899 121.513 381.145C121.554 381.38 121.953 381.329 121.933 381.084C121.462 376.029 120.705 370.994 119.918 365.98C119.131 360.966 118.241 355.87 117.249 350.845C115.306 340.95 113.026 331.125 110.387 321.393C107.749 311.661 105.019 302.735 101.869 293.554C98.9137 284.966 95.7027 276.469 92.1543 268.105C88.8717 260.375 85.313 252.766 81.3657 245.342C80.9158 244.494 80.4556 243.637 79.9955 242.789C79.883 242.574 79.5557 242.769 79.6682 242.983Z" fill="white"/>
<path d="M96.3368 327.541C99.6091 329.389 102.789 331.421 105.847 333.617C107.401 334.74 108.915 335.905 110.387 337.12C111.86 338.335 113.2 339.683 114.672 340.868C114.958 341.103 115.357 340.735 115.091 340.449C113.813 339.081 112.259 337.886 110.796 336.711C109.334 335.537 107.831 334.383 106.297 333.29C103.158 331.064 99.8852 329.083 96.4595 327.326C96.3163 327.255 96.1936 327.459 96.3368 327.541Z" fill="white"/>
<path d="M92.3592 319.994C94.2101 320.933 96.0406 321.965 97.8404 323.006C99.6402 324.048 101.297 325.069 102.964 326.203C106.4 328.531 109.621 331.146 112.648 333.974C112.924 334.24 113.353 333.821 113.067 333.556C110.071 330.727 106.839 328.153 103.424 325.856C101.696 324.691 99.9163 323.589 98.096 322.578C96.2758 321.567 94.3737 320.698 92.441 319.871C92.349 319.83 92.2672 319.963 92.3592 320.004V319.994Z" fill="white"/>
<path d="M116.635 301.499C115.275 303.429 114.273 305.646 113.363 307.821C112.136 310.772 111.103 313.815 110.449 316.951C110.101 318.595 109.876 320.27 109.855 321.944C109.855 322.332 110.459 322.332 110.459 321.944C110.459 318.901 111.164 315.889 112.054 312.998C112.944 310.108 114.017 307.361 115.296 304.675C115.787 303.654 116.298 302.623 116.881 301.653C116.983 301.489 116.738 301.346 116.625 301.499H116.635Z" fill="white"/>
<path d="M109.938 276.551C109.109 277.745 108.608 279.185 108.128 280.544C107.504 282.331 106.982 284.149 106.512 285.987C105.561 289.663 104.774 293.391 104.201 297.149C104.017 298.374 103.792 299.63 103.812 300.866C103.812 301.275 104.457 301.275 104.446 300.866C104.426 299.835 104.6 298.793 104.743 297.772C104.988 296.087 105.285 294.412 105.612 292.747C106.359 288.959 107.238 285.17 108.445 281.493C108.966 279.89 109.57 278.307 110.377 276.816C110.541 276.51 110.112 276.275 109.917 276.551H109.938Z" fill="white"/>
<path d="M107.381 269.167C105.857 272.292 105.05 275.754 104.303 279.134C103.465 282.944 102.8 286.804 102.411 290.695C102.237 292.4 102.104 294.126 102.176 295.842C102.176 296.026 102.452 296.026 102.462 295.842C102.616 292.502 103.066 289.173 103.608 285.885C104.242 282.004 104.988 278.123 106.041 274.324C106.512 272.629 107.013 270.934 107.678 269.3C107.749 269.116 107.453 268.994 107.361 269.167H107.381Z" fill="white"/>
<path d="M74.0031 274.283C78.0834 275.652 82.1942 276.888 86.2233 278.399C90.2524 279.91 94.2508 281.759 97.9833 283.995C98.2799 284.179 98.556 283.709 98.2594 283.526C90.8148 279.083 82.4499 276.132 74.0338 274.171C73.9622 274.151 73.9316 274.253 74.0031 274.283Z" fill="white"/>
<path d="M70.6901 254.952C73.9625 256.208 77.2757 257.331 80.4969 258.7C83.7181 260.068 86.7962 261.692 89.6902 263.642C89.9765 263.836 90.2526 263.367 89.9663 263.173C84.1579 259.282 77.4802 256.565 70.7106 254.839C70.639 254.819 70.6185 254.921 70.6799 254.952H70.6901Z" fill="white"/>
<path d="M70.6798 249.631C73.5022 250.877 76.3859 251.99 79.1674 253.348C81.9489 254.707 84.7713 256.392 87.2971 258.332C87.5733 258.546 87.8494 258.077 87.5733 257.862C82.5932 254.043 76.7438 251.286 70.7207 249.529C70.6593 249.509 70.6184 249.6 70.6798 249.631Z" fill="white"/>
<path d="M83.1148 301.458C85.3134 302.357 87.5529 303.143 89.7311 304.103C91.9093 305.063 94.067 306.125 96.1633 307.259C98.2597 308.393 100.325 309.618 102.34 310.905C103.301 311.518 104.242 312.151 105.172 312.804C106.103 313.458 107.064 314.244 108.077 314.857C108.251 314.959 108.445 314.714 108.291 314.571C107.484 313.795 106.502 313.172 105.592 312.529C104.6 311.834 103.598 311.15 102.575 310.496C100.53 309.179 98.4437 307.933 96.3065 306.779C94.1692 305.625 91.9911 304.553 89.7618 303.593C87.5325 302.633 85.4361 301.765 83.1762 301.213C83.0126 301.172 82.9614 301.397 83.1148 301.448V301.458Z" fill="white"/>
<path d="M123.283 338.59C122.209 341.419 121.186 344.268 120.225 347.138C119.755 348.558 119.294 349.977 118.855 351.397C118.415 352.816 117.832 354.328 117.617 355.829C117.597 355.951 117.771 356.053 117.832 355.921C118.435 354.603 118.752 353.133 119.182 351.754C119.632 350.294 120.102 348.833 120.573 347.373C121.514 344.463 122.495 341.552 123.487 338.652C123.538 338.519 123.324 338.458 123.272 338.59H123.283Z" fill="white"/>
<path d="M102.861 367.083C102.861 367.083 104.129 439.56 121.851 453.612H154.012C171.734 439.56 173.002 367.083 173.002 367.083H102.861Z" fill="#80D9C0"/>
<path d="M228.192 322.598H203.68L213.865 280.043H238.377L228.192 322.598Z" fill="#336179"/>
<path d="M231.577 322.598H207.075L217.25 280.043H241.762L231.577 322.598Z" fill="#003A57"/>
<path d="M210.215 309.465L209.427 312.753L233.152 316.031L236.301 302.898L210.215 309.465Z" fill="#001825"/>
<path d="M300.112 191.891H134.736C132.093 191.891 129.95 194.03 129.95 196.67V306.524C129.95 309.163 132.093 311.303 134.736 311.303H300.112C302.755 311.303 304.898 309.163 304.898 306.524V196.67C304.898 194.03 302.755 191.891 300.112 191.891Z" fill="#B0C2CB"/>
<path d="M304.438 191.891H139.062C136.419 191.891 134.276 194.03 134.276 196.67V306.524C134.276 309.163 136.419 311.303 139.062 311.303H304.438C307.081 311.303 309.224 309.163 309.224 306.524V196.67C309.224 194.03 307.081 191.891 304.438 191.891Z" fill="#003A57"/>
<path d="M301.963 196.844H141.546V306.34H301.963V196.844Z" fill="white"/>
<path d="M290.07 199.714H149.585C148.02 199.714 146.752 200.98 146.752 202.542V290.287C146.752 291.849 148.02 293.115 149.585 293.115H290.07C291.635 293.115 292.903 291.849 292.903 290.287V202.542C292.903 200.98 291.635 199.714 290.07 199.714Z" stroke="#BBDDF2" stroke-width="0.516315" stroke-miterlimit="10"/>
<path d="M290.07 199.714H149.585C148.02 199.714 146.752 200.98 146.752 202.542V210.825H292.903V202.542C292.903 200.98 291.635 199.714 290.07 199.714Z" fill="#B3E8D9"/>
<path d="M295.244 206.055H154.758C153.194 206.055 151.926 207.322 151.926 208.884V296.628C151.926 298.191 153.194 299.457 154.758 299.457H295.244C296.809 299.457 298.077 298.191 298.077 296.628V208.884C298.077 207.322 296.809 206.055 295.244 206.055Z" fill="white" stroke="#B3E8D9" stroke-width="0.516315" stroke-miterlimit="10"/>
<g filter="url(#filter0_d_65_7439)">
<path d="M201.54 249.13C200.346 248.337 198.232 248.039 197.782 247.048C197.333 246.058 194.448 245.252 191.835 245.546C190.399 245.708 187.228 247.53 185.386 250.875C183.545 254.22 187.066 256.35 190.03 257.731C192.336 258.804 194.427 258.346 196.577 257.941C198.728 257.535 199.453 256.713 199.453 256.713C200.29 256.595 203.348 254.906 203.718 254.247C203.987 253.77 204.089 253.037 204.011 252.499C203.804 251.077 202.734 249.922 201.54 249.13Z" fill="#B3E8D9" fill-opacity="0.32" shape-rendering="crispEdges"/>
</g>
<g filter="url(#filter1_d_65_7439)">
<path d="M267.54 265.13C266.346 264.337 264.232 264.039 263.782 263.048C263.333 262.058 260.448 261.252 257.835 261.546C256.399 261.708 253.228 263.53 251.386 266.875C249.545 270.22 253.066 272.35 256.03 273.731C258.336 274.804 260.427 274.346 262.577 273.941C264.728 273.535 265.453 272.713 265.453 272.713C266.29 272.595 269.348 270.906 269.718 270.247C269.987 269.77 270.089 269.037 270.011 268.499C269.804 267.077 268.734 265.922 267.54 265.13Z" fill="#B3E8D9" fill-opacity="0.32" shape-rendering="crispEdges"/>
</g>
<g filter="url(#filter2_d_65_7439)">
<path d="M251.11 251.753C247.305 248.306 240.022 246.17 238.931 242.39C237.84 238.611 228.1 234.262 218.769 233.999C213.642 233.854 201.594 238.79 193.466 249.859C185.337 260.929 196.663 270.348 206.398 276.796C213.97 281.811 221.547 281.224 229.306 280.855C237.066 280.486 240.022 277.903 240.022 277.903C243.023 277.903 254.608 273.387 256.234 271.211C257.413 269.636 258.136 267.056 258.127 265.088C258.105 259.882 254.914 255.2 251.11 251.753Z" fill="#F0F6FF"/>
</g>
<path fill-rule="evenodd" clip-rule="evenodd" d="M227.313 264.585H217.111C216.7 264.585 216.356 264.292 216.28 263.889L215.584 259.694C215.551 259.442 215.618 259.199 215.777 259.006C215.936 258.813 216.171 258.712 216.415 258.712H228.01C228.253 258.712 228.488 258.821 228.648 259.006C228.807 259.199 228.874 259.442 228.832 259.685L228.136 263.88C228.069 264.292 227.725 264.585 227.313 264.585ZM228.085 257.873V256.195C228.085 255.734 227.708 255.356 227.246 255.356H223.051V254.937C223.051 254.24 222.489 253.678 221.793 253.678H217.598C216.901 253.678 216.339 254.24 216.339 254.937V257.873H228.085Z" fill="#003A57"/>
<path fill-rule="evenodd" clip-rule="evenodd" d="M217.375 250.5C217.375 250.369 217.362 250.241 217.334 250.119L217.778 249.794C217.834 249.753 217.859 249.678 217.834 249.612C217.737 249.362 217.603 249.131 217.437 248.928C217.392 248.875 217.317 248.857 217.253 248.884L216.75 249.106C216.559 248.934 216.334 248.803 216.087 248.722L216.025 248.169C216.018 248.099 215.965 248.043 215.897 248.031C215.769 248.012 215.634 248 215.5 248C215.365 248 215.234 248.009 215.106 248.031C215.037 248.041 214.984 248.1 214.978 248.169L214.915 248.719C214.665 248.8 214.444 248.931 214.253 249.103L213.75 248.881C213.685 248.853 213.609 248.869 213.562 248.922C213.397 249.125 213.262 249.356 213.165 249.606C213.14 249.672 213.165 249.747 213.222 249.787L213.665 250.112C213.64 250.237 213.625 250.369 213.625 250.5C213.625 250.631 213.637 250.759 213.665 250.881L213.222 251.206C213.165 251.247 213.14 251.322 213.165 251.387C213.262 251.637 213.397 251.869 213.562 252.072C213.606 252.125 213.684 252.144 213.747 252.116L214.25 251.894C214.44 252.066 214.665 252.197 214.912 252.278L214.972 252.828C214.978 252.897 215.031 252.956 215.1 252.966C215.362 253.01 215.631 253.011 215.894 252.969C215.962 252.959 216.015 252.9 216.022 252.831L216.084 252.281C216.334 252.2 216.556 252.069 216.747 251.897L217.25 252.119C217.312 252.147 217.39 252.131 217.434 252.078C217.6 251.875 217.734 251.644 217.831 251.394C217.856 251.328 217.831 251.253 217.775 251.212L217.331 250.887C217.359 250.762 217.375 250.631 217.375 250.5ZM215.5 251.125C215.156 251.125 214.875 250.844 214.875 250.5C214.875 250.156 215.156 249.875 215.5 249.875C215.844 249.875 216.125 250.156 216.125 250.5C216.125 250.844 215.844 251.125 215.5 251.125Z" fill="#B0C2CB"/>
<path fill-rule="evenodd" clip-rule="evenodd" d="M213.875 255.5C213.875 255.264 213.853 255.033 213.802 254.814L214.601 254.229C214.702 254.156 214.747 254.021 214.702 253.902C214.528 253.452 214.286 253.036 213.988 252.671C213.906 252.574 213.772 252.542 213.656 252.592L212.75 252.991C212.407 252.682 212.002 252.446 211.558 252.299L211.445 251.304C211.432 251.179 211.338 251.078 211.214 251.056C210.984 251.023 210.742 251 210.5 251C210.258 251 210.022 251.017 209.791 251.056C209.668 251.073 209.572 251.18 209.561 251.304L209.448 252.294C208.998 252.44 208.599 252.676 208.256 252.986L207.35 252.586C207.234 252.535 207.097 252.564 207.013 252.659C206.714 253.025 206.473 253.441 206.298 253.891C206.253 254.009 206.298 254.144 206.399 254.217L207.198 254.803C207.153 255.028 207.125 255.264 207.125 255.5C207.125 255.736 207.148 255.967 207.198 256.186L206.399 256.771C206.298 256.844 206.253 256.979 206.298 257.097C206.473 257.548 206.714 257.964 207.013 258.329C207.091 258.425 207.232 258.459 207.344 258.408L208.25 258.009C208.593 258.318 208.998 258.554 209.443 258.701L209.549 259.691C209.561 259.814 209.656 259.921 209.78 259.938C210.253 260.018 210.735 260.02 211.209 259.944C211.333 259.927 211.428 259.82 211.439 259.696L211.552 258.706C212.002 258.56 212.401 258.324 212.744 258.014L213.65 258.414C213.763 258.464 213.903 258.436 213.982 258.341C214.28 257.975 214.522 257.559 214.696 257.109C214.741 256.991 214.696 256.856 214.595 256.782L213.796 256.197C213.847 255.972 213.875 255.736 213.875 255.5ZM210.5 256.625C209.881 256.625 209.375 256.119 209.375 255.5C209.375 254.881 209.881 254.375 210.5 254.375C211.119 254.375 211.625 254.881 211.625 255.5C211.625 256.119 211.119 256.625 210.5 256.625Z" fill="#B0C2CB"/>
<path opacity="0.76" d="M295.245 206.055H154.749C153.184 206.055 151.916 207.322 151.916 208.884V217.177H298.067V208.884C298.067 207.322 296.799 206.055 295.235 206.055H295.245Z" fill="#00A073"/>
<path d="M161.089 211.611C161.089 212.785 160.138 213.725 158.972 213.725C157.806 213.725 156.855 212.775 156.855 211.611C156.855 210.446 157.806 209.497 158.972 209.497C160.138 209.497 161.089 210.446 161.089 211.611Z" fill="white"/>
<path d="M169.045 211.611C169.045 212.785 168.094 213.725 166.928 213.725C165.762 213.725 164.811 212.775 164.811 211.611C164.811 210.446 165.762 209.497 166.928 209.497C168.094 209.497 169.045 210.446 169.045 211.611Z" fill="white"/>
<path d="M177.01 211.611C177.01 212.785 176.059 213.725 174.894 213.725C173.728 213.725 172.777 212.775 172.777 211.611C172.777 210.446 173.728 209.497 174.894 209.497C176.059 209.497 177.01 210.446 177.01 211.611Z" fill="white"/>
<path d="M185.325 322.598H254.903C257.715 322.598 259.996 324.875 259.996 327.684V328.603H185.335V322.598H185.325Z" fill="#003A57"/>
<path d="M185.325 322.598H198.966C201.778 322.598 204.059 324.875 204.059 327.684V328.603H185.325V322.598Z" fill="#336179"/>
<path d="M154.309 454.398H151.395V330.625H162.49L154.309 454.398Z" stroke="#8AA4B2" stroke-width="0.774472" stroke-miterlimit="10"/>
<path d="M414.256 454.398H417.171V330.625H406.075L414.256 454.398Z" stroke="#8AA4B2" stroke-width="0.774472" stroke-miterlimit="10"/>
<path d="M442.909 328.358H125.665V334.015H442.909V328.358Z" fill="#B0C2CB"/>
<path d="M337.621 376.764L317.251 451.804C316.985 452.795 317.732 453.775 318.764 453.775C319.45 453.775 320.053 453.326 320.257 452.672L343.798 376.754H337.621V376.764Z" stroke="#8AA4B2" stroke-width="0.516315" stroke-miterlimit="10"/>
<path d="M384.968 376.764L405.338 451.804C405.604 452.795 404.858 453.775 403.825 453.775C403.14 453.775 402.536 453.326 402.332 452.672L378.792 376.754H384.968V376.764Z" stroke="#8AA4B2" stroke-width="0.516315" stroke-miterlimit="10"/>
<path d="M363.872 376.764L369.159 452.11C369.22 453.009 368.504 453.785 367.594 453.785H367.482C366.684 453.785 366.009 453.183 365.927 452.396L357.695 376.774H363.872V376.764Z" stroke="#8AA4B2" stroke-width="0.516315" stroke-miterlimit="10"/>
<path d="M333.592 350.692C333.592 350.692 294.018 357.831 294.018 370.3C294.018 382.769 331.742 382.463 360.998 382.759C393.333 383.086 418.08 372.516 422.109 346.852C428.01 309.241 418.96 249.151 388.22 241.87C324.737 226.827 333.592 350.692 333.592 350.692Z" fill="white"/>
<path d="M270.224 291.636L265.203 289.43C265.203 289.43 260.612 290.819 258.648 290.574C256.685 290.319 254.711 288.94 253.576 287.817C252.441 286.693 251.234 284.6 251.551 284.283C252.748 283.088 256.91 286.07 257.892 285.917C258.873 285.764 260.264 285.07 261.941 284.63C265.193 283.793 267.463 285.825 267.463 285.825L273.19 288.409" fill="#4A7488" fill-opacity="0.59"/>
<path d="M345.936 251C345.936 251 331.814 253.267 322.099 265.41C312.057 277.96 303.733 290.971 303.733 290.971L269.149 286.518L266.5 289.991C266.5 289.991 300.461 315.317 315.565 310.466C330.72 305.595 346.038 279.697 346.038 279.697" fill="#D9776F"/>
<path d="M300.368 292.186C300.368 292.186 308.007 291.92 309.336 295.893" stroke="#1C2472" stroke-width="0.258157" stroke-miterlimit="10"/>
<path d="M281.859 446.79C281.859 446.79 271.193 453.346 271.765 454.766C272.532 456.676 285.663 453.847 286.961 452.294C288.107 450.936 285.315 446.382 285.315 446.382L282.615 445.728" fill="#001825"/>
<path opacity="0.87" d="M280.243 442.072L280.949 447.546C280.949 447.546 281.685 447.75 283.086 447.464C284.497 447.178 285.305 446.402 285.305 446.402L288.209 436.414" fill="#4A7488" fill-opacity="0.6"/>
<path d="M337.048 329.43C337.048 329.43 290.949 333.678 279.516 348.721C268.043 363.825 280.508 444.4 280.508 444.4C282.339 444.462 286.143 443.542 286.143 443.542C286.143 443.542 300.02 413.59 300.02 391.204C300.02 379.848 298.895 372.679 298.087 368.972C297.77 367.522 299.018 366.205 300.49 366.429C311.902 368.227 350.23 373.537 358.37 365.408C369.874 353.919 363.657 329.41 363.657 329.41" fill="#125C98"/>
<path d="M347.781 444.682C347.781 444.682 338.332 451.494 339.038 452.852C339.978 454.68 352.792 450.677 353.947 449.012C354.96 447.552 351.585 442.915 351.585 442.915L349.018 442.874" fill="#001825"/>
<path opacity="0.87" d="M346.124 442.221L347.781 444.682C347.781 444.682 348.272 444.948 349.652 444.539C351.022 444.131 351.575 442.915 351.575 442.915L349.949 434" fill="#4A7488" fill-opacity="0.6"/>
<path d="M359.671 334.745C359.671 334.745 304.371 338.048 298.343 350.223C289.999 367.092 346.329 443 346.329 443C346.329 443 349.275 443 351.179 441.211C351.562 440.557 345.682 406.084 338.535 388.632C334.667 379.207 329.464 373.727 327.657 372.02C327.451 371.825 327.598 371.478 327.873 371.498C334.814 372.03 380.945 374.422 391.361 365.037C405.988 351.859 396.436 329 396.436 329" fill="#125C98"/>
<path d="M300.481 365.816C300.481 365.816 295.961 352.203 300.235 348.21C304.51 344.217 321.475 336.395 351.049 335.18" stroke="#374AAA" stroke-width="0.258157" stroke-miterlimit="10"/>
<path d="M338.296 265.08C334.91 279.083 332.887 321.112 331.866 322.28C330.855 323.447 329.5 324.645 329.5 328.372C329.5 332.099 342.694 334.13 352.08 335.48C361.465 336.831 387.765 335.511 394.301 331.967C397.819 330.058 396.06 327.235 396.06 327.235C396.06 327.235 395.225 326.219 391.952 305.921C386.041 269.213 375.389 254.722 375.389 254.722L364.5 248L344.867 251.249L338.296 265.07V265.08Z" fill="#D9776F"/>
<path d="M336.219 280C333.907 284.686 334.001 296.432 334.001 296.432" stroke="#1C2472" stroke-width="0.139347" stroke-miterlimit="10"/>
<path d="M421.398 256L422.346 250.89C422.346 250.89 426.31 250.116 427.54 249.03C428.771 247.944 429.377 246.266 429.494 244.911C429.577 243.877 428.82 240.991 428.455 241C427.59 241.026 426.734 245.006 425.994 245.354C425.255 245.702 422.612 245.702 421.323 246.31C420.035 246.91 419.412 249.708 419.412 249.708L417.5 254.809" fill="#4A7488" fill-opacity="0.59"/>
<path d="M376.667 275.308C387.032 285.51 401.867 302.874 412.836 298.225C424.006 293.49 422.423 251.634 422.423 251.634L418.976 250.429C413.422 260.742 405.366 275.136 405.366 275.136C405.366 275.136 395.911 258.211 385.405 253.184C378.653 249.947 372.11 247.726 364.5 248.027" fill="#D9776F"/>
<path d="M408.079 294.841C408.202 288.387 413.642 281.105 413.642 281.105" stroke="#1C2472" stroke-width="0.258157" stroke-miterlimit="10"/>
<path d="M385.5 283C385.5 283 387.237 285.377 388.5 287" stroke="#1C2472" stroke-width="0.258157" stroke-miterlimit="10"/>
<path d="M122.283 168H103.323C101.488 168 100 169.486 100 171.319V190.253C100 192.086 101.488 193.572 103.323 193.572H122.283C124.118 193.572 125.606 192.086 125.606 190.253V171.319C125.606 169.486 124.118 168 122.283 168Z" fill="#92C9EB"/>
<path d="M119.255 174.352L108.59 177.028L111.085 179.53L106.36 184.248L109.336 187.23L114.071 182.501L116.566 184.993L119.255 174.352Z" fill="white"/>
<path d="M220.369 137.661H245.338C247.751 137.661 249.707 135.708 249.707 133.298V108.363C249.707 105.953 247.751 104 245.338 104H220.369C217.956 104 216 105.953 216 108.363V133.298C216 135.708 217.956 137.661 220.369 137.661Z" fill="#FFD7A4"/>
<path d="M243.716 130.281C243.588 130.324 243.452 130.35 243.315 130.35H222.391C221.956 130.35 221.546 130.12 221.325 129.745C221.103 129.37 221.103 128.901 221.325 128.517L231.778 110.417C231.991 110.042 232.401 109.803 232.836 109.803C233.271 109.803 233.681 110.034 233.903 110.417L244.373 128.509C244.595 128.884 244.595 129.353 244.373 129.736C244.228 129.992 243.989 130.188 243.716 130.281ZM222.963 128.799H242.735L232.845 111.695L222.963 128.799Z" fill="white"/>
<path d="M232.845 125.202C232.452 125.202 232.119 124.887 232.102 124.495L231.676 117.371C231.65 116.706 232.171 116.161 232.836 116.161C233.502 116.161 234.031 116.715 233.997 117.371L233.579 124.495C233.562 124.887 233.237 125.202 232.836 125.202H232.845Z" fill="white"/>
<path d="M233.604 126.915C233.604 127.333 233.263 127.665 232.853 127.665C232.435 127.665 232.102 127.324 232.102 126.915C232.102 126.506 232.443 126.165 232.853 126.165C233.271 126.165 233.604 126.506 233.604 126.915Z" fill="white"/>
<path d="M407.59 220H422.41C423.841 220 425 218.841 425 217.41V202.59C425 201.159 423.841 200 422.41 200H407.59C406.159 200 405 201.159 405 202.59V217.41C405 218.841 406.159 220 407.59 220Z" fill="#F2C1C3"/>
<path d="M421.81 211.632C421.937 211.106 422 210.562 422 210C422 209.438 421.937 208.894 421.81 208.368L420.332 208.585C420.205 208.105 420.014 207.652 419.769 207.225L420.966 206.337C420.386 205.403 419.597 204.605 418.663 204.034L417.775 205.231C417.358 204.986 416.895 204.795 416.415 204.668L416.632 203.19C416.106 203.063 415.562 203 415 203C414.438 203 413.894 203.063 413.368 203.19L413.585 204.668C413.105 204.795 412.652 204.986 412.225 205.231L411.337 204.034C410.403 204.614 409.605 205.403 409.034 206.337L410.231 207.225C409.986 207.642 409.795 208.105 409.668 208.585L408.19 208.368C408.063 208.894 408 209.438 408 210C408 210.562 408.063 211.106 408.19 211.632L409.668 211.415C409.795 211.895 409.986 212.348 410.231 212.775L409.034 213.663C409.614 214.597 410.403 215.395 411.337 215.966L412.225 214.769C412.642 215.014 413.105 215.205 413.585 215.332L413.368 216.81C413.894 216.937 414.438 217 415 217C415.562 217 416.106 216.937 416.632 216.81L416.415 215.332C416.895 215.205 417.348 215.014 417.775 214.769L418.663 215.966C419.597 215.386 420.395 214.597 420.966 213.663L419.769 212.775C420.014 212.358 420.205 211.895 420.332 211.415L421.81 211.632ZM414.991 213.382C413.123 213.382 411.618 211.868 411.618 210.009C411.618 208.15 413.132 206.636 414.991 206.636C416.85 206.636 418.364 208.15 418.364 210.009C418.364 211.868 416.85 213.382 414.991 213.382Z" fill="white"/>
<path d="M121.708 276.683C121.708 277.521 121.033 278.195 120.195 278.195C119.356 278.195 118.681 277.521 118.681 276.683C118.681 275.846 119.356 275.172 120.195 275.172C121.033 275.172 121.708 275.846 121.708 276.683Z" stroke="#A8BBF4" stroke-width="0.516315" stroke-linecap="round" stroke-linejoin="round"/>
<path d="M190.438 401.59C190.438 402.428 189.763 403.102 188.924 403.102C188.086 403.102 187.411 402.428 187.411 401.59C187.411 400.753 188.086 400.079 188.924 400.079C189.763 400.079 190.438 400.753 190.438 401.59Z" stroke="#BBDDF2" stroke-width="0.516315" stroke-linecap="round" stroke-linejoin="round"/>
<path d="M405.952 259.384C405.952 260.221 405.277 260.895 404.439 260.895C403.6 260.895 402.925 260.221 402.925 259.384C402.925 258.547 403.6 257.872 404.439 257.872C405.277 257.872 405.952 258.547 405.952 259.384Z" stroke="#FFE7C9" stroke-width="0.516315" stroke-linecap="round" stroke-linejoin="round"/>
<path d="M321.454 210.385C321.454 211.223 320.779 211.897 319.941 211.897C319.102 211.897 318.427 211.223 318.427 210.385C318.427 209.548 319.102 208.874 319.941 208.874C320.779 208.874 321.454 209.548 321.454 210.385Z" stroke="#FFE7C9" stroke-width="0.516315" stroke-linecap="round" stroke-linejoin="round"/>
<path d="M181.162 164.103C181.162 164.94 180.487 165.614 179.649 165.614C178.81 165.614 178.135 164.94 178.135 164.103C178.135 163.266 178.81 162.592 179.649 162.592C180.487 162.592 181.162 163.266 181.162 164.103Z" stroke="#6FD1BE" stroke-width="0.516315" stroke-linecap="round" stroke-linejoin="round"/>
<path d="M205.534 239.197C205.534 240.035 204.859 240.709 204.021 240.709C203.182 240.709 202.507 240.035 202.507 239.197C202.507 238.36 203.182 237.686 204.021 237.686C204.859 237.686 205.534 238.36 205.534 239.197Z" stroke="#336179" stroke-width="0.516315" stroke-linecap="round" stroke-linejoin="round"/>
<path d="M201 236.5C201 238.439 199.439 240 197.5 240C195.561 240 194 238.439 194 236.5C194 234.561 195.561 233 197.5 233C199.439 233 201 234.561 201 236.5Z" stroke="#336179" stroke-width="0.516315" stroke-linecap="round" stroke-linejoin="round"/>
<path d="M86.8678 337.428C86.8678 339.881 84.8905 341.856 82.4339 341.856C79.9773 341.856 78 339.881 78 337.428C78 334.975 79.9773 333 82.4339 333C84.8905 333 86.8678 334.975 86.8678 337.428Z" stroke="#336179" stroke-width="0.516315" stroke-linecap="round" stroke-linejoin="round"/>
<path d="M244.434 276.214C244.434 277.441 243.445 278.428 242.217 278.428C240.989 278.428 240 277.441 240 276.214C240 274.987 240.989 274 242.217 274C243.445 274 244.434 274.987 244.434 276.214Z" stroke="#336179" stroke-width="0.516315" stroke-linecap="round" stroke-linejoin="round"/>
<path d="M220.328 377.438V382.105" stroke="#6FD1BE" stroke-width="0.516315" stroke-linecap="round" stroke-linejoin="round"/>
<path d="M222.67 379.777H217.987" stroke="#6FD1BE" stroke-width="0.516315" stroke-linecap="round" stroke-linejoin="round"/>
<path d="M237.948 175.337V180.014" stroke="#00293E" stroke-width="0.516315" stroke-linecap="round" stroke-linejoin="round"/>
<path d="M240.279 177.675H235.606" stroke="#00293E" stroke-width="0.516315" stroke-linecap="round" stroke-linejoin="round"/>
<path d="M102.851 215.165V219.842" stroke="#F2C1C3" stroke-width="0.516315" stroke-linecap="round" stroke-linejoin="round"/>
<path d="M105.193 217.503H100.509" stroke="#F2C1C3" stroke-width="0.516315" stroke-linecap="round" stroke-linejoin="round"/>
<path d="M444.985 355.471V360.149" stroke="#F2C1C3" stroke-width="0.516315" stroke-linecap="round" stroke-linejoin="round"/>
<path d="M447.327 357.81H442.643" stroke="#F2C1C3" stroke-width="0.516315" stroke-linecap="round" stroke-linejoin="round"/>
<path d="M322.78 264.719C322.78 264.719 322.63 264.884 322.375 265.202C321.971 265.649 321.653 266.17 321.436 266.736C321.372 266.929 321.336 267.131 321.331 267.334C321.331 267.551 321.384 267.765 321.485 267.957C321.761 268.38 322.173 268.692 322.65 268.84C323.848 269.222 325.099 269.402 326.354 269.372C327.051 269.372 327.804 269.413 328.573 269.458L329.751 269.598C330.156 269.644 330.56 269.755 330.965 269.829C332.722 270.195 334.38 270.946 335.823 272.032C336.609 272.63 337.293 273.356 337.847 274.181C337.986 274.397 338.114 274.62 338.231 274.849C338.349 275.092 338.43 275.327 338.527 275.566C338.707 276.054 338.843 276.558 338.932 277.072C339.339 279.233 339.003 281.472 337.98 283.411C336.924 285.335 335.227 286.811 333.196 287.572C332.241 287.937 331.235 288.141 330.216 288.175C329.245 288.18 328.276 288.061 327.334 287.82C326.465 287.592 325.58 287.431 324.687 287.337C323.861 287.256 323.03 287.406 322.282 287.77C321.595 288.146 320.983 288.652 320.481 289.259C319.975 289.837 319.546 290.443 319.121 291.016C318.283 292.167 317.392 293.182 316.356 293.714C315.881 293.973 315.352 294.114 314.813 294.126C314.363 294.132 313.916 294.047 313.498 293.879C313.164 293.743 312.858 293.546 312.595 293.297C312.406 293.11 312.253 292.889 312.142 292.645C312.047 292.448 311.999 292.23 312 292.01C312.028 292.01 312.036 292.237 312.219 292.608C312.339 292.831 312.495 293.032 312.68 293.202C312.939 293.428 313.235 293.604 313.554 293.722C313.992 293.887 314.459 293.952 314.924 293.915C315.389 293.877 315.84 293.737 316.246 293.503C317.218 292.98 318.064 291.994 318.882 290.839C319.287 290.262 319.724 289.643 320.238 289.041C320.757 288.389 321.395 287.844 322.116 287.436C322.918 287.035 323.812 286.864 324.703 286.941C325.616 287.032 326.521 287.19 327.411 287.416C328.322 287.645 329.258 287.757 330.196 287.75C331.165 287.71 332.122 287.512 333.03 287.164C334.965 286.432 336.582 285.023 337.592 283.188C338.567 281.336 338.89 279.199 338.507 277.134C338.413 276.643 338.278 276.161 338.102 275.694C338.005 275.463 337.924 275.224 337.823 275.018C337.716 274.802 337.598 274.592 337.466 274.391C336.944 273.602 336.298 272.906 335.556 272.329C334.16 271.268 332.555 270.528 330.852 270.159C330.447 270.081 330.042 269.97 329.666 269.924L328.508 269.772C327.747 269.718 327.018 269.685 326.31 269.66C325.025 269.672 323.747 269.464 322.529 269.046C322.022 268.867 321.591 268.516 321.306 268.052C321.195 267.829 321.141 267.58 321.149 267.33C321.16 267.108 321.205 266.89 321.282 266.682C321.519 266.103 321.87 265.579 322.314 265.144C322.449 264.981 322.606 264.838 322.78 264.719Z" fill="#0C4D5E"/>
<path d="M373.962 290.396C373.851 290.099 373.785 289.786 373.768 289.468C373.678 288.603 373.734 287.728 373.934 286.882C374.231 285.622 374.765 284.432 375.508 283.38C376.413 282.089 377.569 281.002 378.905 280.188C380.248 279.402 381.709 278.845 383.228 278.538C384.46 278.279 385.715 278.148 386.973 278.146C387.816 278.137 388.66 278.18 389.499 278.274C389.808 278.287 390.114 278.343 390.409 278.439C390.409 278.514 389.094 278.365 386.977 278.439C385.742 278.486 384.515 278.646 383.309 278.918C381.837 279.244 380.424 279.8 379.119 280.568C377.831 281.353 376.71 282.392 375.82 283.624C375.09 284.627 374.549 285.76 374.225 286.964C374.007 287.778 373.907 288.62 373.93 289.464C373.963 289.773 373.974 290.085 373.962 290.396Z" fill="#0C4D5E"/>
<path d="M393.362 317.012C393.238 317.277 393.077 317.522 392.884 317.738C392.402 318.36 391.86 318.931 391.265 319.442C390.378 320.207 389.397 320.85 388.346 321.355C385.754 322.625 382.822 322.987 380.007 322.382C378.868 322.146 377.764 321.758 376.724 321.227C376.025 320.877 375.361 320.456 374.745 319.97C374.506 319.807 374.293 319.608 374.113 319.38C374.162 319.314 375.085 320.135 376.854 320.955C379.149 322.041 381.696 322.452 384.209 322.143C386.721 321.835 389.099 320.817 391.075 319.207C392.593 317.973 393.297 316.951 393.362 317.012Z" fill="#0C4D5E"/>
<path d="M381.925 298C381.808 298.066 381.685 298.118 381.556 298.157C381.209 298.3 380.894 298.514 380.629 298.784C380.224 299.223 379.907 299.741 379.698 300.306C379.416 301.059 379.197 301.836 379.043 302.628C378.876 303.601 378.657 304.565 378.387 305.515C378.217 306.055 377.981 306.572 377.687 307.053C377.36 307.559 376.962 308.012 376.505 308.398C375.517 309.198 374.379 309.784 373.161 310.117C371.914 310.497 370.594 310.703 369.267 310.967C366.768 311.386 364.4 312.392 362.349 313.904C361.47 314.574 360.693 315.372 360.041 316.271C359.486 317.065 359.043 317.934 358.725 318.853C358.258 320.189 358.111 321.621 358.296 323.027C358.442 324.021 358.665 324.54 358.62 324.557C358.549 324.441 358.492 324.316 358.45 324.186C358.388 324.033 358.335 323.876 358.292 323.716C358.227 323.499 358.174 323.279 358.134 323.056C357.881 321.62 357.987 320.142 358.442 318.758C358.75 317.801 359.192 316.894 359.754 316.065C360.416 315.127 361.21 314.293 362.11 313.59C364.199 312.02 366.624 310.977 369.186 310.546C370.526 310.278 371.833 310.076 373.043 309.722C374.212 309.409 375.305 308.857 376.258 308.101C376.688 307.747 377.065 307.33 377.375 306.863C377.658 306.412 377.886 305.927 378.055 305.42C378.336 304.48 378.568 303.526 378.751 302.562C378.923 301.755 379.165 300.965 379.476 300.202C379.713 299.619 380.067 299.092 380.516 298.656C380.803 298.382 381.148 298.18 381.524 298.066C381.653 298.021 381.789 297.999 381.925 298Z" fill="#0C4D5E"/>
<path d="M356.998 288.576C357.137 288.835 357.21 289.126 357.208 289.422C357.248 290.234 357.02 291.037 356.56 291.703C356.251 292.172 355.834 292.558 355.346 292.829C355.071 292.982 354.775 293.091 354.468 293.154C354.142 293.216 353.809 293.23 353.48 293.196C352.772 293.117 352.099 292.84 351.537 292.396C350.919 291.92 350.477 291.246 350.282 290.482C350.158 289.985 350.151 289.465 350.262 288.964C350.381 288.489 350.602 288.047 350.909 287.669C351.172 287.311 351.469 286.981 351.796 286.683C351.954 286.535 352.126 286.404 352.31 286.291C352.5 286.163 352.718 286.085 352.946 286.065L352.998 286.432L352.8 286.481L352.699 286.126C353.435 285.913 354.22 285.957 354.929 286.25C355.47 286.462 355.953 286.802 356.338 287.244C356.584 287.522 356.779 287.844 356.913 288.193C356.998 288.436 357.018 288.572 357.002 288.576C356.782 288.148 356.51 287.751 356.192 287.393C355.809 287.007 355.345 286.714 354.836 286.535C354.185 286.294 353.475 286.275 352.812 286.481L352.711 286.126L352.909 286.069L352.966 286.44C352.619 286.525 352.304 286.711 352.059 286.976C351.761 287.264 351.49 287.581 351.249 287.921C350.968 288.257 350.772 288.658 350.678 289.089C350.583 289.521 350.593 289.969 350.707 290.395C350.881 291.065 351.267 291.658 351.804 292.082C352.306 292.482 352.905 292.737 353.537 292.82C353.829 292.855 354.125 292.848 354.415 292.8C354.688 292.748 354.952 292.658 355.2 292.532C355.65 292.297 356.04 291.958 356.338 291.542C356.788 290.936 357.042 290.202 357.062 289.442C357.05 288.886 356.957 288.589 356.998 288.576Z" fill="#0C4D5E"/>
<path d="M343.302 331C343.594 330.514 343.812 329.985 343.949 329.433C344.185 328.367 344.037 326.718 343.226 324.936C342.829 324.043 342.267 323.115 341.7 322.096C341.053 321.015 340.571 319.839 340.272 318.609C340.02 317.214 340.121 315.775 340.568 314.431C340.99 313.042 341.603 311.691 342.098 310.275C343.09 307.629 343.164 304.715 342.309 302.019C341.941 300.852 341.401 299.749 340.707 298.748C340.095 297.878 339.378 297.091 338.573 296.405C337.395 295.413 336.05 294.647 334.605 294.143C333.578 293.794 332.978 293.712 332.986 293.66C333.128 293.652 333.271 293.665 333.409 293.699C333.825 293.76 334.236 293.854 334.639 293.979C336.133 294.421 337.529 295.153 338.751 296.137C339.594 296.824 340.345 297.621 340.986 298.506C341.714 299.532 342.284 300.666 342.677 301.868C343.582 304.65 343.517 307.667 342.491 310.405C341.983 311.846 341.367 313.189 340.961 314.539C340.528 315.811 340.42 317.175 340.648 318.501C340.926 319.696 341.382 320.84 342 321.893C342.546 322.916 343.099 323.857 343.492 324.785C344.287 326.636 344.397 328.358 344.092 329.454C343.979 329.874 343.804 330.272 343.572 330.637C343.416 330.896 343.315 331.008 343.302 331Z" fill="#0C4D5E"/>
<path d="M381.554 257.636C381.475 257.936 381.337 258.216 381.149 258.46C380.688 259.159 380.09 259.752 379.392 260.201C378.351 260.87 377.166 261.269 375.939 261.364C374.447 261.467 372.949 261.272 371.531 260.791C370.085 260.362 368.763 259.581 367.681 258.514C367.216 258.035 366.837 257.476 366.56 256.864C366.325 256.328 366.177 255.757 366.122 255.173C366.03 254.328 366.188 253.473 366.576 252.719C366.635 252.603 366.703 252.491 366.778 252.385C366.83 252.304 366.889 252.228 366.956 252.158C367.057 252.047 367.118 251.989 367.13 252.002C367.142 252.014 366.948 252.274 366.726 252.794C366.418 253.533 366.314 254.345 366.426 255.14C366.495 255.687 366.648 256.218 366.879 256.716C367.155 257.281 367.522 257.796 367.964 258.238C369.012 259.241 370.279 259.976 371.66 260.382C373.029 260.849 374.473 261.049 375.915 260.972C377.086 260.902 378.225 260.55 379.238 259.945C379.921 259.535 380.525 259.001 381.019 258.37C381.185 258.116 381.363 257.871 381.554 257.636Z" fill="#0C4D5E"/>
<path d="M330.644 220.433C329.91 222.796 329.779 225.569 330.286 228.051C330.793 230.547 331.929 232.726 333.415 234.046C333.948 234.522 334.603 234.891 335.163 234.495C335.652 234.152 335.906 233.32 336.081 232.541C337.26 227.18 336.369 220.895 333.843 216.735" fill="#003A57"/>
<path d="M336.921 231.134C336.568 230.833 336.005 230.899 335.613 231.16C335.221 231.421 334.999 231.865 334.829 232.296C334.633 232.753 334.489 233.262 334.554 233.758C334.606 234.137 334.789 234.489 334.986 234.816C335.626 235.86 336.541 236.722 337.613 237.297C337.914 237.453 338.215 237.597 338.555 237.636C339.627 237.78 340.555 236.944 341.314 236.174" fill="#ADB2B8"/>
<path d="M348.662 243.294L347.5 250L347 251C347 251 347 251.5 355.5 250C363.5 248.463 362.979 248.463 362.979 248.463L358.938 235.065" fill="#003A57" fill-opacity="0.35"/>
<path d="M358.481 234.633L359.271 234.191L353.602 241.739L348.492 243.155L348.492 246.802C353.029 245.966 358.173 239.309 359.271 234.191C359.454 233.368 358.271 235.481 358.481 234.646V234.633Z" fill="#2F3941"/>
<path d="M333.312 222.621C334.672 226.851 336.045 231.095 337.928 235.129C339.863 239.268 343.275 243.668 347.838 243.342C353.29 242.963 356.951 239.908 358.86 234.946C360.834 229.815 361.069 223.613 357.958 218.873C355.696 215.413 352.022 212.802 347.995 211.849C343.968 210.896 331.77 216.549 333.312 222.634" fill="#E6EBEE" fill-opacity="0.88"/>
<path d="M333.312 222.621C334.672 226.851 336.045 231.095 337.928 235.129C339.863 239.268 343.275 243.668 347.838 243.342C353.29 242.963 356.951 239.908 358.86 234.946C360.834 229.815 361.069 223.613 357.958 218.873C355.696 215.413 352.022 212.802 347.995 211.849C343.968 210.896 331.77 216.549 333.312 222.634" fill="url(#paint0_linear_65_7439)" fill-opacity="0.18"/>
<path d="M333.312 222.621C334.672 226.851 336.045 231.095 337.928 235.129C339.863 239.268 343.275 243.668 347.838 243.342C353.29 242.963 356.951 239.908 358.86 234.946C360.834 229.815 361.069 223.613 357.958 218.873C355.696 215.413 352.022 212.802 347.995 211.849C343.968 210.896 331.77 216.549 333.312 222.634" fill="#2F3941" fill-opacity="0.15"/>
<path d="M360.219 230.925C359.304 231.486 358.127 229.645 357.644 227.191C357.421 226.042 357.042 224.984 356.872 223.835C356.545 221.511 355.029 219.618 352.989 218.521C350.322 217.085 348.034 217.607 345.314 218.704C342.791 219.709 340.385 220.989 337.81 221.876C335.247 222.764 332.436 223.234 329.808 222.568C327.677 222.033 325.323 220.623 323.951 218.873C322.329 216.797 322.905 214.63 324.748 212.972C325.99 211.862 327.481 210.922 328.187 209.407C329.22 207.187 328.239 204.367 329.481 202.265C330.475 200.594 332.593 199.928 334.541 200.006C335.6 200.045 336.646 200.267 337.627 200.659C338.842 201.142 340.333 202.2 341.706 201.912C342.621 201.717 343.235 200.829 344.138 200.515C346.243 199.771 349.211 200.006 350.557 201.991C351.028 202.683 351.263 203.518 351.799 204.171C355.682 208.846 360.611 205.608 362.743 213.35C363.671 216.732 362.481 219.67 362.795 223.704C363.174 228.575 361.514 230.141 360.206 230.938L360.219 230.925Z" fill="#003A57"/>
<path d="M357.265 228.588C356.899 225.389 361.527 224.632 361.854 228.627C362.155 232.4 358.964 236.787 357.278 232.975" fill="#A5B1B5"/>
<path d="M359.541 228.69C360.734 229.752 360.167 231.927 358.411 231.708C358.907 231.421 359.291 230.974 359.498 230.441C359.614 229.858 359.631 229.26 359.547 228.672L359.541 228.69Z" fill="#2F3941"/>
<path d="M337.502 234.721C336.25 234.916 335.204 233.472 336.224 232.508C336.15 232.956 336.23 233.416 336.452 233.812C336.75 234.177 337.108 234.489 337.51 234.734L337.502 234.721Z" fill="#2F3941"/>
<path d="M353.708 227.413C353.656 227.974 353.146 228.392 352.584 228.327C352.021 228.261 351.603 227.765 351.668 227.204C351.721 226.642 352.231 226.224 352.793 226.29C353.355 226.355 353.773 226.851 353.708 227.413Z" fill="#001825"/>
<path d="M348.805 223.352C349.668 222.973 350.57 222.621 351.512 222.529C352.453 222.438 353.46 222.66 354.166 223.286" fill="#001825"/>
<path d="M338.934 230.363C339.13 230.899 339.718 231.173 340.254 230.977C340.79 230.781 341.065 230.194 340.869 229.658C340.673 229.123 340.084 228.849 339.548 229.045C339.012 229.241 338.738 229.828 338.934 230.363Z" fill="#001825"/>
<path d="M341.156 224.84C340.215 224.84 339.247 224.893 338.358 225.206C337.469 225.519 336.633 226.12 336.253 226.982" fill="#001825"/>
<path d="M350.307 236.921C349.655 237.585 348.668 237.909 347.789 238.141C347.304 238.269 346.831 238.383 346.34 238.459C345.89 238.543 345.403 238.553 344.956 238.663C344.852 238.677 344.845 238.823 344.954 238.848C345.413 238.934 345.956 238.851 346.408 238.779C346.94 238.711 347.466 238.604 347.988 238.458C348.901 238.182 349.868 237.807 350.543 237.115C350.682 236.965 350.435 236.787 350.294 236.923L350.307 236.921Z" fill="#001825"/>
<path d="M347.415 233.215C347.403 233.18 346.83 233.302 345.91 233.529C345.676 233.592 345.452 233.632 345.374 233.533C345.297 233.372 345.291 233.186 345.357 232.999C345.437 232.529 345.516 232.037 345.594 231.524C345.914 229.433 346.081 227.745 345.971 227.754C345.86 227.763 345.518 229.464 345.202 231.554C345.131 232.066 345.06 232.557 344.983 233.031C344.907 233.277 344.944 233.519 345.088 233.711C345.14 233.757 345.209 233.791 345.288 233.809C345.366 233.827 345.453 233.83 345.542 233.817C345.676 233.799 345.811 233.768 345.941 233.724C346.865 233.445 347.425 233.254 347.415 233.215Z" fill="#001825"/>
<defs>
<filter id="filter0_d_65_7439" x="182.812" y="245.485" width="23.2897" height="17.0399" filterUnits="userSpaceOnUse" color-interpolation-filters="sRGB">
<feFlood flood-opacity="0" result="BackgroundImageFix"/>
<feColorMatrix in="SourceAlpha" type="matrix" values="0 0 0 0 0 0 0 0 0 0 0 0 0 0 0 0 0 0 127 0" result="hardAlpha"/>
<feOffset dy="2.06526"/>
<feGaussianBlur stdDeviation="1.03263"/>
<feComposite in2="hardAlpha" operator="out"/>
<feColorMatrix type="matrix" values="0 0 0 0 0 0 0 0 0 0 0 0 0 0 0 0 0 0 0.07 0"/>
<feBlend mode="normal" in2="BackgroundImageFix" result="effect1_dropShadow_65_7439"/>
<feBlend mode="normal" in="SourceGraphic" in2="effect1_dropShadow_65_7439" result="shape"/>
</filter>
<filter id="filter1_d_65_7439" x="248.812" y="261.485" width="23.2897" height="17.0399" filterUnits="userSpaceOnUse" color-interpolation-filters="sRGB">
<feFlood flood-opacity="0" result="BackgroundImageFix"/>
<feColorMatrix in="SourceAlpha" type="matrix" values="0 0 0 0 0 0 0 0 0 0 0 0 0 0 0 0 0 0 127 0" result="hardAlpha"/>
<feOffset dy="2.06526"/>
<feGaussianBlur stdDeviation="1.03263"/>
<feComposite in2="hardAlpha" operator="out"/>
<feColorMatrix type="matrix" values="0 0 0 0 0 0 0 0 0 0 0 0 0 0 0 0 0 0 0.07 0"/>
<feBlend mode="normal" in2="BackgroundImageFix" result="effect1_dropShadow_65_7439"/>
<feBlend mode="normal" in="SourceGraphic" in2="effect1_dropShadow_65_7439" result="shape"/>
</filter>
<filter id="filter2_d_65_7439" x="188.618" y="233.996" width="71.5739" height="51.2241" filterUnits="userSpaceOnUse" color-interpolation-filters="sRGB">
<feFlood flood-opacity="0" result="BackgroundImageFix"/>
<feColorMatrix in="SourceAlpha" type="matrix" values="0 0 0 0 0 0 0 0 0 0 0 0 0 0 0 0 0 0 127 0" result="hardAlpha"/>
<feOffset dy="2.06526"/>
<feGaussianBlur stdDeviation="1.03263"/>
<feComposite in2="hardAlpha" operator="out"/>
<feColorMatrix type="matrix" values="0 0 0 0 0 0 0 0 0 0 0 0 0 0 0 0 0 0 0.07 0"/>
<feBlend mode="normal" in2="BackgroundImageFix" result="effect1_dropShadow_65_7439"/>
<feBlend mode="normal" in="SourceGraphic" in2="effect1_dropShadow_65_7439" result="shape"/>
</filter>
<linearGradient id="paint0_linear_65_7439" x1="340.848" y1="221.925" x2="356.88" y2="245.534" gradientUnits="userSpaceOnUse">
<stop offset="0.39" stop-color="#323444"/>
<stop offset="0.865" stop-color="#2F3941" stop-opacity="0.29"/>
</linearGradient>
</defs>
</svg>
