<svg width="14" height="16" viewBox="0 0 14 16" fill="none" xmlns="http://www.w3.org/2000/svg">
    <path fill-rule="evenodd" clip-rule="evenodd"
        d="M1 1.00003C1 1.00003 6.77795 1.0004 9 1.00212V4.00003C9 4.55617 9.44386 5.00003 10 5.00003H13V15H1V1.00003ZM14 15V4.52801C14.0013 4.50707 14.0013 4.486 14 4.46493V4.20003C14 3.94504 13.9036 3.70662 13.7316 3.51554L10.5663 0.299267C10.3717 0.104624 10.1154 2.58214e-05 9.85 2.58214e-05H9.53509C9.51402 -0.00131961 9.49295 -0.00130174 9.47202 2.58214e-05H1C0.443858 2.58214e-05 0 0.443883 0 1.00003V15C0 15.5562 0.443858 16 1 16H13C13.5561 16 14 15.5562 14 15ZM10 4.00003V1.70713L12.2929 4.00003H10ZM11.5 14.12C11.66 14.12 11.82 14.06 11.94 13.94C12.19 13.7 12.19 13.3 11.94 13.06L10.29 11.41C9.85 10.97 9.14 10.97 8.7 11.41L8 12.12L6.31 10.41C5.87 9.97003 5.16 9.97003 4.72 10.41L2.07 13.06C1.83 13.3 1.83 13.7 2.07 13.94C2.31 14.18 2.71 14.18 2.95 13.94L5.51 11.38L7.21 13.09C7.65 13.53 8.36 13.53 8.8 13.09L9.5 12.38L11.06 13.94C11.18 14.06 11.34 14.12 11.5 14.12ZM9.5 10C10.3284 10 11 9.32845 11 8.50003C11 7.6716 10.3284 7.00003 9.5 7.00003C8.67157 7.00003 8 7.6716 8 8.50003C8 9.32845 8.67157 10 9.5 10Z"
        fill="#68737D" />
</svg>
    