<svg width="16" height="16" viewBox="0 0 16 16" fill="none" xmlns="http://www.w3.org/2000/svg">
<path d="M15 0C15.2652 0 15.5196 0.105357 15.7071 0.292893C15.8946 0.48043 16 0.734784 16 1V15C16 15.2652 15.8946 15.5196 15.7071 15.7071C15.5196 15.8946 15.2652 16 15 16H1C0.734784 16 0.48043 15.8946 0.292893 15.7071C0.105357 15.5196 0 15.2652 0 15V1C0 0.734784 0.105357 0.48043 0.292893 0.292893C0.48043 0.105357 0.734784 0 1 0L15 0ZM14.5 4H11.5L11.41 4.008C11.2949 4.02906 11.1908 4.08984 11.1159 4.17974C11.041 4.26964 11 4.38297 11 4.5L11.008 4.59C11.0291 4.70511 11.0898 4.80919 11.1797 4.88411C11.2696 4.95903 11.383 5.00004 11.5 5H13.69L13.464 5.3L13.226 5.597L12.948 5.935L12.63 6.311L12.273 6.722L11.878 7.166C11.8135 7.23788 11.7712 7.32691 11.7562 7.42233C11.7411 7.51774 11.7541 7.61547 11.7934 7.70368C11.8328 7.79189 11.8968 7.86682 11.9779 7.91941C12.0589 7.97199 12.1534 7.99998 12.25 8C13.447 8 13.862 8.398 13.969 9.25L13.986 9.423L13.998 9.725L14 10C14 10.117 13.965 10.327 13.865 10.526C13.713 10.831 13.46 11 13 11C12.276 11 12 10.724 12 10C12 9.86739 11.9473 9.74021 11.8536 9.64645C11.7598 9.55268 11.6326 9.5 11.5 9.5C11.3674 9.5 11.2402 9.55268 11.1464 9.64645C11.0527 9.74021 11 9.86739 11 10C11 11.276 11.724 12 13 12C13.853 12 14.443 11.606 14.76 10.974C14.9133 10.6719 14.9954 10.3387 15 10L14.998 9.692L14.99 9.449L14.973 9.234L14.961 9.125L14.937 8.961C14.779 8.048 14.287 7.414 13.376 7.144L13.26 7.113L13.368 6.991L13.719 6.578L14.026 6.204C14.074 6.145 14.119 6.088 14.163 6.031L14.405 5.711C14.809 5.156 15 4.77 15 4.5C15 4.36739 14.9473 4.24021 14.8536 4.14645C14.7598 4.05268 14.6326 4 14.5 4ZM9.5 6C9.5 3.333 5.5 3.333 5.5 6C5.5 6.13261 5.55268 6.25979 5.64645 6.35355C5.74021 6.44732 5.86739 6.5 6 6.5C6.13261 6.5 6.25979 6.44732 6.35355 6.35355C6.44732 6.25979 6.5 6.13261 6.5 6C6.5 4.667 8.5 4.667 8.5 6C8.5 6.567 8.26 7.064 7.698 7.768L7.632 7.848L6.874 8.758C6.109 9.706 5.703 10.436 5.51 11.402C5.49551 11.4745 5.49728 11.5493 5.51518 11.6211C5.53309 11.6928 5.56669 11.7597 5.61355 11.8169C5.66042 11.8741 5.71939 11.9202 5.78621 11.9518C5.85304 11.9835 5.92605 12 6 12H9L9.09 11.992C9.20511 11.9709 9.30919 11.9102 9.38411 11.8203C9.45903 11.7304 9.50004 11.617 9.5 11.5L9.492 11.41C9.47093 11.2949 9.41016 11.1908 9.32026 11.1159C9.23036 11.041 9.11703 11 9 11H6.658L6.713 10.861C6.91 10.388 7.212 9.931 7.663 9.371L8.445 8.433L8.644 8.18C9.223 7.413 9.5 6.773 9.5 6ZM2.502 4L2.458 4.002L2.426 4.005L2.372 4.017L2.309 4.037L2.25 4.067L2.188 4.109L2.146 4.146L1.146 5.146L1.089 5.216C1.01769 5.31866 0.987423 5.44431 1.00416 5.56818C1.0209 5.69206 1.08342 5.80517 1.17942 5.88522C1.27541 5.96528 1.39791 6.00648 1.52278 6.0007C1.64764 5.99492 1.76581 5.94258 1.854 5.854L2 5.706V11H1.5L1.41 11.008C1.28705 11.0303 1.1769 11.0977 1.10122 11.1972C1.02554 11.2966 0.989835 11.4207 1.00112 11.5452C1.01241 11.6696 1.06988 11.7853 1.16222 11.8695C1.25455 11.9537 1.37505 12.0002 1.5 12H3.5L3.59 11.992C3.71295 11.9697 3.8231 11.9023 3.89878 11.8028C3.97446 11.7034 4.01016 11.5793 3.99888 11.4548C3.98759 11.3304 3.93012 11.2147 3.83778 11.1305C3.74545 11.0463 3.62495 10.9998 3.5 11H3V4.5L2.998 4.454L2.983 4.372L2.963 4.309L2.933 4.25L2.891 4.188L2.854 4.146L2.822 4.118L2.767 4.078L2.691 4.038L2.628 4.017L2.567 4.005L2.502 4Z" fill="currentColor"/>
</svg>
