<svg width="16" height="16" viewBox="0 0 16 16" fill="none" xmlns="http://www.w3.org/2000/svg">
<path fill-rule="evenodd" clip-rule="evenodd" d="M15.5 2.5C15.2239 2.5 15 2.72386 15 3V6.28746C13.2777 4.22651 10.801 3 8.2 3C3.72386 3 0 6.72386 0 11.2C0 11.4761 0.223858 11.7 0.5 11.7C0.776142 11.7 1 11.4761 1 11.2C1 7.27614 4.27614 4 8.2 4C10.5257 4 12.752 5.11741 14.2916 7H11C10.7239 7 10.5 7.22386 10.5 7.5C10.5 7.77614 10.7239 8 11 8H15C15.5761 8 16 7.57614 16 7V3C16 2.72386 15.7761 2.5 15.5 2.5Z" fill="currentColor"/>
</svg>
