<svg width="16" height="16" viewBox="0 0 16 16" fill="currentColor" xmlns="http://www.w3.org/2000/svg">
<path fill-rule="evenodd" clip-rule="evenodd" d="M10.8619 10.4714C11.1223 10.7317 11.5444 10.7317 11.8047 10.4714L13.3333 8.94276L14.8619 10.4714C15.1223 10.7317 15.5444 10.7317 15.8047 10.4714C16.0651 10.211 16.0651 9.7889 15.8047 9.52855L14.2761 7.99995L15.8047 6.47136C16.0651 6.21101 16.0651 5.7889 15.8047 5.52855C15.5444 5.2682 15.1223 5.2682 14.8619 5.52855L13.3333 7.05714L11.8047 5.52855C11.5444 5.2682 11.1223 5.2682 10.8619 5.52855C10.6016 5.7889 10.6016 6.21101 10.8619 6.47136L12.3905 7.99995L10.8619 9.52855C10.6016 9.7889 10.6016 10.211 10.8619 10.4714ZM7.93807 3.00469L4.27614 6.66662H1.33333V9.33328H4.27614L7.93807 12.9952C7.93811 12.9952 8 12.9746 8 13.0666V2.93432C7.99846 2.93845 7.98871 2.95405 7.93807 3.00469ZM3.72386 10.6666H1.33333C0.565143 10.6666 0 10.1015 0 9.33329V6.66662C0 5.89843 0.565143 5.33329 1.33333 5.33329H3.72386L6.99526 2.06188C7.91223 1.14491 9.33333 1.75396 9.33333 2.93328V13.0666C9.33333 14.2253 7.79523 14.738 6.99526 13.938L3.72386 10.6666Z" />
</svg>
