<svg width="64" height="64" viewBox="0 0 64 64" fill="none" xmlns="http://www.w3.org/2000/svg">
<g clip-path="url(#paint0_diamond_786_12747_clip_path)" data-figma-skip-parse="true"><g transform="matrix(-0.0035 -0.1055 0.1055 -0.0035 35.5 66)"><rect x="0" y="0" width="642.716" height="342.155" fill="url(#paint0_diamond_786_12747)" opacity="1" shape-rendering="crispEdges"/><rect x="0" y="0" width="642.716" height="342.155" transform="scale(1 -1)" fill="url(#paint0_diamond_786_12747)" opacity="1" shape-rendering="crispEdges"/><rect x="0" y="0" width="642.716" height="342.155" transform="scale(-1 1)" fill="url(#paint0_diamond_786_12747)" opacity="1" shape-rendering="crispEdges"/><rect x="0" y="0" width="642.716" height="342.155" transform="scale(-1)" fill="url(#paint0_diamond_786_12747)" opacity="1" shape-rendering="crispEdges"/></g></g><rect width="64" height="64" rx="9.53191" data-figma-gradient-fill="{&#34;type&#34;:&#34;GRADIENT_DIAMOND&#34;,&#34;stops&#34;:[{&#34;color&#34;:{&#34;r&#34;:0.95475888252258301,&#34;g&#34;:0.76403504610061646,&#34;b&#34;:0.52563017606735229,&#34;a&#34;:1.0},&#34;position&#34;:0.0},{&#34;color&#34;:{&#34;r&#34;:1.0,&#34;g&#34;:1.0,&#34;b&#34;:1.0,&#34;a&#34;:1.0},&#34;position&#34;:1.0}],&#34;stopsVar&#34;:[{&#34;color&#34;:{&#34;r&#34;:0.95475888252258301,&#34;g&#34;:0.76403504610061646,&#34;b&#34;:0.52563017606735229,&#34;a&#34;:1.0},&#34;position&#34;:0.0},{&#34;color&#34;:{&#34;r&#34;:1.0,&#34;g&#34;:1.0,&#34;b&#34;:1.0,&#34;a&#34;:1.0},&#34;position&#34;:1.0}],&#34;transform&#34;:{&#34;m00&#34;:-7.0000090599060059,&#34;m01&#34;:210.99998474121094,&#34;m02&#34;:-66.499984741210938,&#34;m10&#34;:-210.99998474121094,&#34;m11&#34;:-7.0000090599060059,&#34;m12&#34;:174.99998474121094},&#34;opacity&#34;:1.0,&#34;blendMode&#34;:&#34;NORMAL&#34;,&#34;visible&#34;:true}"/>
<circle cx="33.5893" cy="32.3174" r="22.5674" fill="#C57F12"/>
<path d="M31.6191 23.834C33.7517 23.8342 35.5787 25.1425 36.3418 27C36.9114 26.8387 37.5126 26.751 38.1338 26.751C41.7578 26.7513 44.6962 29.6894 44.6963 33.3135C44.696 36.7737 42.0168 39.6063 38.6201 39.8555L38.6191 39.875L38.1709 39.875C38.1587 39.8751 38.146 39.876 38.1338 39.876C38.114 39.876 38.0939 39.8752 38.0742 39.875L34.3896 39.875L34.3896 34.1162L36.6123 36.3398C36.8543 36.5818 37.2472 36.5818 37.4893 36.3398C37.7313 36.0978 37.7312 35.7049 37.4893 35.4629L34.4707 32.4443C34.0975 32.0711 33.5081 32.0712 33.1348 32.4443L30.1162 35.4629C29.8742 35.7049 29.8742 36.0978 30.1162 36.3398C30.3582 36.5814 30.7503 36.5815 30.9922 36.3398L33.1494 34.1826L33.1494 39.875L27.6816 39.875L27.6816 39.8682C27.6012 39.8719 27.5199 39.875 27.4385 39.875C24.6198 39.875 22.3343 37.5901 22.334 34.7715C22.3341 32.2458 24.1688 30.1491 26.5781 29.7402C26.5369 29.4792 26.5157 29.2111 26.5156 28.9385C26.5157 26.1197 28.8004 23.8341 31.6191 23.834Z" fill="white"/>
<defs>
<clipPath id="paint0_diamond_786_12747_clip_path"><rect width="64" height="64" rx="9.53191"/></clipPath><linearGradient id="paint0_diamond_786_12747" x1="0" y1="0" x2="500" y2="500" gradientUnits="userSpaceOnUse">
<stop stop-color="#F3C386"/>
<stop offset="1" stop-color="white"/>
</linearGradient>
</defs>
</svg>
