<svg width="24" height="24" viewBox="0 0 24 24" fill="none" xmlns="http://www.w3.org/2000/svg">
    <g opacity="0.3">
        <path opacity="0.3"
            d="M12 24C18.6274 24 24 18.6274 24 12C24 5.37258 18.6274 0 12 0C5.37258 0 0 5.37258 0 12C0 18.6274 5.37258 24 12 24Z"
            fill="#5F8DCF" />
    </g>
    <path
        d="M6.75 6.15C6.75 5.65294 7.17736 5.25 7.70455 5.25H16.2955C16.8226 5.25 17.25 5.65294 17.25 6.15V17.85C17.25 18.3471 16.8226 18.75 16.2955 18.75H7.70455C7.17736 18.75 6.75 18.3471 6.75 17.85V6.15Z"
        stroke="#1371D6" stroke-width="1.4" />
    <path
        d="M12.4773 16.05C12.4773 16.2985 12.2636 16.5 12 16.5C11.7364 16.5 11.5227 16.2985 11.5227 16.05C11.5227 15.8015 11.7364 15.6 12 15.6C12.2636 15.6 12.4773 15.8015 12.4773 16.05Z"
        stroke="#1371D6" stroke-width="1.4" />
</svg>