<svg width="24" height="24" viewBox="0 0 32 32" fill="none" xmlns="http://www.w3.org/2000/svg">
<g opacity="0.3">
<path opacity="0.3" d="M16 32C24.8366 32 32 24.8366 32 16C32 7.16344 24.8366 0 16 0C7.16344 0 0 7.16344 0 16C0 24.8366 7.16344 32 16 32Z" fill="#70C38A"/>
</g>
<path d="M16.6494 4.26211C11.5734 4.26211 7.4653 8.37022 7.4653 13.4462C7.4653 13.6797 7.4653 13.9132 7.49922 14.1141C7.0648 14.9151 6.4308 16.0174 5.66241 16.6854C5.09493 17.1863 5.22799 17.7212 5.29451 17.9208C5.46149 18.3552 5.92851 18.7218 6.6969 18.9892C6.96433 19.0897 7.26438 19.1562 7.53182 19.2227L7.56573 22.4619C7.56573 23.7313 8.63416 24.8336 9.93743 24.8336L11.9073 24.1996L12.1082 25.3685C12.2413 26.1369 12.9092 26.7044 13.7115 26.7044C13.8119 26.7044 13.9124 26.7044 14.0115 26.6704L20.1899 25.5694C21.0913 25.4024 21.6588 24.5675 21.5258 23.666L21.0914 21.4953C23.9966 19.892 25.8333 16.7857 25.8333 13.446C25.8333 8.40381 21.6928 4.26196 16.6493 4.26196L16.6494 4.26211Z" fill="#70C38A" stroke="#70C38A"/>
<path fill-rule="evenodd" clip-rule="evenodd" d="M8.52454 14.3577V13.4954H10.7568V14.3577H8.52454Z" fill="#D3ECDB"/>
<path fill-rule="evenodd" clip-rule="evenodd" d="M9.73254 18.142L9.31482 17.3964L11.2465 16.246L11.6642 16.9915L9.73254 18.142Z" fill="#D3ECDB"/>
<path fill-rule="evenodd" clip-rule="evenodd" d="M11.2481 11.6054L9.31641 10.4569L9.73412 9.7113L11.6658 10.8598L11.2481 11.6054Z" fill="#D3ECDB"/>
<path fill-rule="evenodd" clip-rule="evenodd" d="M22.241 9.7113L22.6588 10.4569L20.727 11.6054L20.3093 10.8598L22.241 9.7113Z" fill="#D3ECDB"/>
<path fill-rule="evenodd" clip-rule="evenodd" d="M15.5693 6.24048H16.4067V8.53943H15.5693V6.24048Z" fill="#D3ECDB"/>
<path fill-rule="evenodd" clip-rule="evenodd" d="M12.6185 7.0542L13.7356 9.04364L13.0117 9.47384L11.8965 7.4844L12.6185 7.0542Z" fill="#D3ECDB"/>
<path fill-rule="evenodd" clip-rule="evenodd" d="M17.7368 17.3303V19.4969H16.9751L16.977 20.3339H14.9981L14.9962 19.4969H14.2382V17.3303C13.074 16.6743 12.333 15.4031 12.333 14.0327C12.333 11.9595 13.9736 10.2699 15.9866 10.2699C18.0034 10.2699 19.644 11.9595 19.644 14.0327C19.6421 15.4012 18.8993 16.6723 17.7369 17.3303H17.7368Z" fill="#D3ECDB"/>
<path fill-rule="evenodd" clip-rule="evenodd" d="M18.9657 9.47555L18.2418 9.04535L19.357 7.05591L20.0809 7.48611L18.9657 9.47555Z" fill="#D3ECDB"/>
<path fill-rule="evenodd" clip-rule="evenodd" d="M22.241 18.142L20.3093 16.9915L20.727 16.246L22.6588 17.3964L22.241 18.142Z" fill="#D3ECDB"/>
<path fill-rule="evenodd" clip-rule="evenodd" d="M23.4488 14.3578H21.2166V13.4955H23.4488V14.3578Z" fill="#D3ECDB"/>
</svg>
