<svg width="24" height="24" viewBox="0 0 24 24" fill="none" xmlns="http://www.w3.org/2000/svg">
    <g opacity="0.3">
        <path opacity="0.3"
            d="M12 24C18.6274 24 24 18.6274 24 12C24 5.37258 18.6274 0 12 0C5.37258 0 0 5.37258 0 12C0 18.6274 5.37258 24 12 24Z"
            fill="#5F8DCF" />
    </g>
    <path
        d="M8.25 6.96C8.25 6.42981 8.72969 6 9.32143 6H14.6786C15.2703 6 15.75 6.42981 15.75 6.96V17.04C15.75 17.5702 15.2703 18 14.6786 18H9.32143C8.72969 18 8.25 17.5702 8.25 17.04V6.96Z"
        stroke="#1371D6" stroke-width="1.4" />
    <path
        d="M12.5357 15.96C12.5357 16.2251 12.2959 16.44 12 16.44C11.7041 16.44 11.4643 16.2251 11.4643 15.96C11.4643 15.6949 11.7041 15.48 12 15.48C12.2959 15.48 12.5357 15.6949 12.5357 15.96Z"
        stroke="#1371D6" stroke-width="1.4" />
</svg>