<svg width="24" height="24" viewBox="0 0 24 24" fill="none" xmlns="http://www.w3.org/2000/svg">
    <g opacity="0.3">
        <path opacity="0.3" d="M12 24C18.6274 24 24 18.6274 24 12C24 5.37258 18.6274 0 12 0C5.37258 0 0 5.37258 0 12C0 18.6274 5.37258 24 12 24Z" fill="#003A57" />
    </g>
    <path
        d="M18.1667 15.8952V7.42742C18.1667 7.05329 17.8682 6.75 17.5 6.75H6.5C6.13181 6.75 5.83333 7.05329 5.83333 7.42742V15.8952M18.1667 15.8952H5.83333M18.1667 15.8952L19.25 16.5726M5.83333 15.8952L4.75 16.5726M4.83333 17.25H19.1667C19.3508 17.25 19.5 17.0984 19.5 16.9113C19.5 16.7242 19.3508 16.5726 19.1667 16.5726H4.83333C4.64924 16.5726 4.5 16.7242 4.5 16.9113C4.5 17.0984 4.64924 17.25 4.83333 17.25Z"
        stroke="#1371d6" stroke-width="1.4" stroke-linecap="round" />
</svg>