<svg width="32" height="32" viewBox="0 0 32 32" fill="none" xmlns="http://www.w3.org/2000/svg">
<g opacity="0.3">
<path opacity="0.3" d="M16 32C24.8366 32 32 24.8366 32 16C32 7.16344 24.8366 0 16 0C7.16344 0 0 7.16344 0 16C0 24.8366 7.16344 32 16 32Z" fill="#125C98"/>
</g>
<path d="M11 9.28C11 8.57308 11.6396 8 12.4286 8H19.5714C20.3604 8 21 8.57308 21 9.28V22.72C21 23.4269 20.3604 24 19.5714 24H12.4286C11.6396 24 11 23.4269 11 22.72V9.28Z" stroke="#1466A9" stroke-width="1.4" stroke-linecap="round" stroke-dasharray="3.8 3.8"/>
<path d="M16.7143 21.28C16.7143 21.6335 16.3945 21.92 16 21.92C15.6055 21.92 15.2857 21.6335 15.2857 21.28C15.2857 20.9265 15.6055 20.64 16 20.64C16.3945 20.64 16.7143 20.9265 16.7143 21.28Z" stroke="#1466A9" stroke-width="1.4" stroke-linecap="round" stroke-dasharray="3.8 3.8"/>
</svg>
