<svg width="16" height="16" viewBox="0 0 16 16" fill="none" xmlns="http://www.w3.org/2000/svg">
<rect width="16" height="16" rx="8" fill="#FDEDCE"/>
<path fill-rule="evenodd" clip-rule="evenodd" d="M8.64157 3.74132C8.52064 3.49287 8.27202 3.33331 8.00048 3.33331C7.73001 3.33331 7.48228 3.49163 7.35834 3.7434L4.08814 10.2179C3.82662 10.7203 4.17854 11.3333 4.72923 11.3333H11.2717C11.8224 11.3333 12.1743 10.7203 11.9107 10.2137L8.64157 3.74132ZM11.2688 10.5714H4.7321L8.00051 4.1005L11.2688 10.5714ZM8.36395 7.52358V5.99969C8.36395 5.49172 7.637 5.49172 7.637 5.99969V7.52358C7.637 8.03154 8.36395 8.03154 8.36395 7.52358ZM8.0005 9.65703C8.32169 9.65703 8.58206 9.38412 8.58206 9.04747C8.58206 8.71082 8.32169 8.43791 8.0005 8.43791C7.67932 8.43791 7.41895 8.71082 7.41895 9.04747C7.41895 9.38412 7.67932 9.65703 8.0005 9.65703Z" fill="#F4AC1A"/>
</svg>
