<svg width="32" height="32" viewBox="0 0 32 32" fill="none" xmlns="http://www.w3.org/2000/svg">
	<g opacity="0.3">
		<path opacity="0.3" d="M16 32C24.8366 32 32 24.8366 32 16C32 7.16344 24.8366 0 16 0C7.16344 0 0 7.16344 0 16C0 24.8366 7.16344 32 16 32Z" fill="#125C98" />
	</g>
	<path d="M22 22L23 23.5M10 22L9 23.5M23.3329 9H8.66623C8.17531 9 7.77734 9.40439 7.77734 9.90323V20.1935C7.77734 20.7458 8.22506 21.1935 8.77734 21.1935H23.2218C23.7741 21.1935 24.2218 20.7458 24.2218 20.1935V9.90323C24.2218 9.40439 23.8238 9 23.3329 9Z" stroke="#1466A9" stroke-width="1.4" stroke-linecap="round" />
</svg>
