<svg width="25" height="24" viewBox="0 0 25 24" fill="none" xmlns="http://www.w3.org/2000/svg">
    <g opacity="0.3">
        <path opacity="0.3"
            d="M12.6562 24C19.2837 24 24.6562 18.6274 24.6562 12C24.6562 5.37258 19.2837 0 12.6562 0C6.02883 0 0.65625 5.37258 0.65625 12C0.65625 18.6274 6.02883 24 12.6562 24Z"
            fill="#F6F6F8" />
    </g>
    <path
        d="M14.1585 4.125H11.1585C10.746 4.125 10.4085 4.4625 10.4085 4.875C10.4085 5.2875 10.746 5.625 11.1585 5.625H14.1585C14.571 5.625 14.9085 5.2875 14.9085 4.875C14.9085 4.4625 14.571 4.125 14.1585 4.125ZM12.6585 13.875C13.071 13.875 13.4085 13.5375 13.4085 13.125V10.125C13.4085 9.7125 13.071 9.375 12.6585 9.375C12.246 9.375 11.9085 9.7125 11.9085 10.125V13.125C11.9085 13.5375 12.246 13.875 12.6585 13.875ZM17.931 8.9175L18.4935 8.355C18.7785 8.07 18.786 7.5975 18.4935 7.305L18.486 7.2975C18.1935 7.005 17.7285 7.0125 17.436 7.2975L16.8735 7.86C15.711 6.93 14.2485 6.375 12.6585 6.375C9.05852 6.375 5.99852 9.345 5.90852 12.945C5.81102 16.755 8.86352 19.875 12.6585 19.875C16.3935 19.875 19.4085 16.8525 19.4085 13.125C19.4085 11.535 18.8535 10.0725 17.931 8.9175ZM12.6585 18.375C9.75602 18.375 7.40852 16.0275 7.40852 13.125C7.40852 10.2225 9.75602 7.875 12.6585 7.875C15.561 7.875 17.9085 10.2225 17.9085 13.125C17.9085 16.0275 15.561 18.375 12.6585 18.375Z"
        fill="#1371d6" />
</svg>