<svg width="24" height="24" viewBox="0 0 24 24" fill="none" xmlns="http://www.w3.org/2000/svg">
<path fill-rule="evenodd" clip-rule="evenodd" d="M11.25 1.5C5.04 1.5 0 6.54 0 12.75C0 18.96 5.04 24 11.25 24C17.46 24 22.5 18.96 22.5 12.75C22.5 6.54 17.46 1.5 11.25 1.5ZM17.25 13.5H12V18.75C12 19.17 11.67 19.5 11.25 19.5C10.83 19.5 10.5 19.17 10.5 18.75V13.5H5.25C4.83 13.5 4.5 13.17 4.5 12.75C4.5 12.33 4.83 12 5.25 12H10.5V6.75C10.5 6.33 10.83 6 11.25 6C11.67 6 12 6.33 12 6.75V12H17.25C17.67 12 18 12.33 18 12.75C18 13.17 17.67 13.5 17.25 13.5Z" fill="#2B8473"/>
</svg>
