<svg width="120" heigth="120" viewBox="0 0 120 120" fill="none" xmlns="http://www.w3.org/2000/svg">
    <g opacity="0.4">
        <path fill-rule="evenodd" clip-rule="evenodd" d="M9.49025 109.899C9.95158 106.495 51.9639 95.7945 60.1984 98.1489C68.4329 100.503 61.4143 107.179 44.9713 110.358C28.5282 113.538 9.02896 113.304 9.49025 109.899Z" fill="#E6EBEE" />
        <path fill-rule="evenodd" clip-rule="evenodd" d="M9.49025 109.899C9.95158 106.495 51.9639 95.7945 60.1984 98.1489C68.4329 100.503 61.4143 107.179 44.9713 110.358C28.5282 113.538 9.02896 113.304 9.49025 109.899Z" fill="url(#paint0_linear_936_34288)" />
    </g>
    <path d="M38.25 112.05H67.75" stroke="#87929D" stroke-width="2" stroke-linecap="round" stroke-linejoin="round" />
    <path d="M46.4316 111.785L52.3422 81.3843H67.5055L61.5949 111.785H46.4316Z" fill="white" stroke="#87929D" stroke-width="2" stroke-linecap="round" stroke-linejoin="round" />
    <path d="M20.8907 95.7985H97.3474C97.6783 95.8047 98.0072 95.7455 98.3152 95.6243C98.6232 95.5031 98.9043 95.3224 99.1423 95.0924C99.3803 94.8624 99.5706 94.5878 99.7023 94.2841C99.834 93.9805 99.9045 93.6538 99.9097 93.3229C99.9123 93.2123 99.9071 93.1017 99.8942 92.9918L95.0637 37.7512C94.988 36.9932 94.6368 36.2894 94.0766 35.7732C93.5165 35.257 92.7864 34.9643 92.0248 34.9506H15.5681C15.2371 34.9445 14.9083 35.0037 14.6003 35.1249C14.2923 35.246 14.0112 35.4268 13.7732 35.6567C13.5352 35.8867 13.3449 36.1614 13.2132 36.465C13.0815 36.7687 13.011 37.0953 13.0058 37.4263C12.9981 37.5365 12.9981 37.6471 13.0058 37.7574L17.8611 93.0011C17.934 93.7582 18.2832 94.4619 18.842 94.9779C19.4009 95.4939 20.1301 95.7861 20.8907 95.7985Z" fill="white" stroke="#87929D" stroke-width="2" stroke-linecap="round" stroke-linejoin="round" />
    <path d="M20.027 85.3387H96.3847C96.5638 85.3424 96.7418 85.3107 96.9086 85.2455C97.0754 85.1802 97.2277 85.0827 97.3568 84.9586C97.4859 84.8344 97.5892 84.6859 97.6608 84.5218C97.7324 84.3576 97.7709 84.1809 97.7741 84.0018C97.7788 83.9421 97.7788 83.8821 97.7741 83.8223L93.7729 38.1624C93.7312 37.7519 93.5402 37.371 93.2361 37.092C92.9321 36.813 92.5361 36.6555 92.1235 36.6492H15.7689C15.5897 36.6455 15.4115 36.6772 15.2445 36.7424C15.0775 36.8075 14.925 36.905 14.7957 37.0291C14.6663 37.1533 14.5627 37.3017 14.4908 37.4659C14.4189 37.6301 14.38 37.8068 14.3763 37.9861C14.3733 38.0448 14.3733 38.1037 14.3763 38.1624L18.3776 83.8316C18.4213 84.2408 18.6131 84.6199 18.9169 84.8974C19.2207 85.175 19.6155 85.3319 20.027 85.3387Z" fill="#F8F9F9" />
    <path d="M31.8731 55.5118H27.873C27.7149 55.5083 27.5636 55.4473 27.4472 55.3402C27.3309 55.2332 27.2576 55.0873 27.241 54.9301C27.2334 54.8561 27.2416 54.7813 27.2649 54.7107C27.2882 54.64 27.3262 54.5751 27.3764 54.5202C27.4266 54.4653 27.4878 54.4216 27.5561 54.3919C27.6243 54.3623 27.6981 54.3475 27.7725 54.3484H31.7869C31.9449 54.3512 32.0962 54.4121 32.2121 54.5194C32.328 54.6267 32.4003 54.7729 32.4153 54.9301C32.4237 55.0052 32.4157 55.0811 32.3919 55.1528C32.3682 55.2245 32.3293 55.2902 32.2778 55.3454C32.2263 55.4007 32.1635 55.4441 32.0936 55.4729C32.0238 55.5016 31.9486 55.5149 31.8731 55.5118Z" fill="#C2C8CC" />
    <path d="M41.7453 50.8646H38.7793C38.6213 50.8628 38.4695 50.8028 38.353 50.6962C38.2364 50.5895 38.1632 50.4437 38.1473 50.2865C38.1386 50.2126 38.1458 50.1376 38.1685 50.0667C38.1911 49.9958 38.2288 49.9306 38.2788 49.8755C38.3288 49.8204 38.3901 49.7766 38.4585 49.7471C38.5268 49.7177 38.6007 49.7033 38.6752 49.7048H41.6447C41.803 49.7075 41.9548 49.7683 42.0713 49.8755C42.1878 49.9827 42.2609 50.129 42.2767 50.2865C42.2843 50.3604 42.2762 50.435 42.2528 50.5054C42.2295 50.5759 42.1914 50.6406 42.1412 50.6953C42.0909 50.7499 42.0297 50.7933 41.9614 50.8225C41.8932 50.8517 41.8195 50.866 41.7453 50.8646Z" fill="#C2C8CC" />
    <path d="M74.3163 55.5118H70.3162C70.1583 55.509 70.007 55.4481 69.8911 55.3408C69.7752 55.2336 69.7028 55.0873 69.6878 54.9301C69.6797 54.8563 69.6873 54.7816 69.7102 54.7109C69.7331 54.6403 69.7708 54.5753 69.8207 54.5203C69.8706 54.4653 69.9316 54.4216 69.9997 54.3919C70.0678 54.3623 70.1414 54.3475 70.2157 54.3484H74.2158C74.3739 54.3519 74.5252 54.4129 74.6416 54.52C74.7579 54.6271 74.8312 54.7729 74.8478 54.9301C74.8554 55.0041 74.8472 55.0789 74.8239 55.1495C74.8006 55.2202 74.7626 55.2851 74.7124 55.34C74.6622 55.395 74.601 55.4387 74.5327 55.4683C74.4645 55.4979 74.3907 55.5127 74.3163 55.5118Z" fill="#C2C8CC" />
    <path d="M66.3197 55.5118H35.7372C35.5789 55.5091 35.4271 55.4483 35.3106 55.3411C35.1941 55.2339 35.121 55.0876 35.1052 54.9301C35.0971 54.8563 35.1047 54.7816 35.1276 54.7109C35.1505 54.6403 35.1882 54.5753 35.2381 54.5203C35.288 54.4653 35.349 54.4216 35.4171 54.3919C35.4852 54.3623 35.5588 54.3475 35.6331 54.3484H66.2084C66.3667 54.3511 66.5185 54.4119 66.635 54.5191C66.7515 54.6263 66.8246 54.7726 66.8404 54.9301C66.8484 55.0033 66.841 55.0774 66.8185 55.1476C66.796 55.2177 66.759 55.2823 66.7099 55.3372C66.6608 55.3921 66.6006 55.436 66.5334 55.4661C66.4662 55.4962 66.3934 55.5118 66.3197 55.5118Z" fill="#87929D" />
    <path d="M32.2212 59.5079H28.2247C28.0667 59.5061 27.915 59.4461 27.7984 59.3395C27.6818 59.2328 27.6086 59.087 27.5927 58.9298C27.584 58.8559 27.5912 58.7809 27.6139 58.71C27.6366 58.6391 27.6742 58.5739 27.7242 58.5188C27.7742 58.4637 27.8355 58.4199 27.9039 58.3905C27.9723 58.361 28.0461 58.3466 28.1206 58.3481H32.1207C32.279 58.3508 32.4308 58.4116 32.5473 58.5188C32.6638 58.626 32.7369 58.7723 32.7527 58.9298C32.7609 59.0038 32.7532 59.0786 32.7301 59.1494C32.7069 59.2201 32.6689 59.285 32.6185 59.3398C32.5682 59.3946 32.5066 59.438 32.4381 59.467C32.3696 59.496 32.2956 59.5099 32.2212 59.5079Z" fill="#C2C8CC" />
    <path d="M44.3551 59.5079H36.0964C35.9386 59.5052 35.7873 59.445 35.6709 59.3385C35.5545 59.232 35.481 59.0866 35.4644 58.9297C35.4568 58.8557 35.4649 58.781 35.4883 58.7103C35.5116 58.6397 35.5496 58.5748 35.5998 58.5198C35.6499 58.4649 35.7112 58.4212 35.7794 58.3916C35.8477 58.362 35.9214 58.3471 35.9958 58.348H44.2546C44.4131 58.35 44.5653 58.4105 44.682 58.5178C44.7987 58.6252 44.8715 58.7719 44.8865 58.9297C44.8948 59.0037 44.8871 59.0786 44.8639 59.1493C44.8408 59.22 44.8028 59.285 44.7524 59.3398C44.702 59.3945 44.6405 59.4379 44.572 59.4669C44.5035 59.4959 44.4295 59.5099 44.3551 59.5079Z" fill="#C2C8CC" />
    <path d="M59.185 59.5079H46.9298C46.772 59.5053 46.6207 59.4451 46.5043 59.3386C46.3878 59.2321 46.3144 59.0867 46.2978 58.9298C46.2896 58.8557 46.2973 58.7807 46.3204 58.7098C46.3435 58.6389 46.3815 58.5737 46.4318 58.5187C46.4821 58.4636 46.5436 58.4199 46.6121 58.3905C46.6806 58.3611 46.7547 58.3466 46.8292 58.3481H59.0773C59.2356 58.3508 59.3874 58.4116 59.5039 58.5188C59.6204 58.626 59.6935 58.7723 59.7093 58.9298C59.7174 59.0032 59.7099 59.0774 59.6872 59.1476C59.6645 59.2178 59.6271 59.2824 59.5775 59.3371C59.5279 59.3917 59.4673 59.4352 59.3996 59.4647C59.332 59.4941 59.2588 59.5089 59.185 59.5079Z" fill="#C2C8CC" />
    <path d="M32.5732 63.5082H28.5731C28.4154 63.5056 28.264 63.4454 28.1476 63.3389C28.0312 63.2324 27.9578 63.087 27.9411 62.9301C27.933 62.856 27.9407 62.781 27.9638 62.7101C27.9869 62.6392 28.0249 62.574 28.0752 62.519C28.1255 62.4639 28.1869 62.4202 28.2555 62.3908C28.324 62.3614 28.398 62.347 28.4726 62.3484H32.4727C32.6306 62.3512 32.782 62.4121 32.8979 62.5194C33.0138 62.6267 33.0861 62.7729 33.1011 62.9301C33.1093 63.0038 33.1016 63.0783 33.0787 63.1488C33.0558 63.2193 33.0181 63.284 32.9681 63.3387C32.9181 63.3935 32.8571 63.4369 32.789 63.4661C32.7209 63.4954 32.6473 63.5097 32.5732 63.5082Z" fill="#C2C8CC" />
    <path d="M52.8251 63.5082H36.4548C36.2968 63.5064 36.145 63.4464 36.0285 63.3398C35.9119 63.2332 35.8387 63.0873 35.8228 62.9301C35.8141 62.8562 35.8213 62.7813 35.8439 62.7104C35.8666 62.6395 35.9042 62.5742 35.9543 62.5191C36.0043 62.464 36.0656 62.4202 36.1339 62.3908C36.2023 62.3613 36.2762 62.3469 36.3506 62.3484H52.7353C52.8936 62.3512 53.0454 62.4119 53.1619 62.5191C53.2784 62.6263 53.3515 62.7726 53.3673 62.9301C53.3757 63.005 53.3677 63.0808 53.3439 63.1524C53.3202 63.2239 53.2812 63.2894 53.2296 63.3444C53.1781 63.3993 53.1152 63.4424 53.0453 63.4707C52.9755 63.499 52.9003 63.5118 52.8251 63.5082Z" fill="#87929D" />
    <path d="M32.9217 67.5086H28.9144C28.7565 67.5057 28.6051 67.4449 28.4892 67.3376C28.3733 67.2303 28.301 67.0841 28.286 66.9269C28.2778 66.8532 28.2854 66.7787 28.3084 66.7082C28.3313 66.6377 28.369 66.573 28.419 66.5182C28.4689 66.4635 28.53 66.4201 28.5981 66.3908C28.6662 66.3616 28.7397 66.3473 28.8138 66.3487H32.8139C32.9717 66.3514 33.123 66.4116 33.2394 66.5181C33.3558 66.6246 33.4293 66.77 33.4459 66.9269C33.454 67.0004 33.4465 67.0748 33.4238 67.1452C33.4011 67.2155 33.3638 67.2803 33.3143 67.3353C33.2647 67.3902 33.2042 67.4341 33.1365 67.4639C33.0688 67.4938 32.9956 67.509 32.9217 67.5086Z" fill="#C2C8CC" />
    <path d="M43.6942 67.5085H36.7927C36.6344 67.5058 36.4826 67.4451 36.3661 67.3379C36.2497 67.2306 36.1766 67.0844 36.1608 66.9268C36.1531 66.853 36.1612 66.7784 36.1846 66.7079C36.208 66.6374 36.246 66.5727 36.2963 66.5181C36.3465 66.4634 36.4078 66.4201 36.476 66.3909C36.5443 66.3617 36.618 66.3473 36.6922 66.3487H43.5936C43.7514 66.3514 43.9027 66.4116 44.0191 66.5181C44.1355 66.6246 44.209 66.77 44.2256 66.9268C44.2338 67.001 44.2261 67.076 44.203 67.1469C44.1799 67.2178 44.1419 67.2829 44.0916 67.338C44.0413 67.3931 43.9798 67.4367 43.9113 67.4662C43.8428 67.4956 43.7687 67.51 43.6942 67.5085Z" fill="#87929D" />
    <path d="M65.239 67.5086H47.6442C47.4859 67.5059 47.3341 67.4452 47.2177 67.3379C47.1012 67.2307 47.0281 67.0845 47.0123 66.9269C47.004 66.853 47.0117 66.7781 47.0349 66.7074C47.058 66.6367 47.0961 66.5717 47.1464 66.5169C47.1968 66.4621 47.2583 66.4188 47.3268 66.3898C47.3954 66.3608 47.4693 66.3468 47.5437 66.3488H65.1385C65.2962 66.3514 65.4475 66.4117 65.5639 66.5182C65.6804 66.6247 65.7538 66.77 65.7704 66.9269C65.778 67.0009 65.7699 67.0757 65.7465 67.1464C65.7232 67.217 65.6852 67.2819 65.635 67.3369C65.5849 67.3918 65.5236 67.4355 65.4554 67.4651C65.3871 67.4947 65.3134 67.5095 65.239 67.5086Z" fill="#87929D" />
    <path d="M35.9817 71.5084H29.2742C29.1161 71.5049 28.9647 71.4439 28.8484 71.3369C28.7321 71.2298 28.6587 71.084 28.6422 70.9267C28.634 70.8526 28.6417 70.7776 28.6648 70.7067C28.6879 70.6358 28.7259 70.5706 28.7762 70.5156C28.8265 70.4605 28.888 70.4168 28.9565 70.3874C29.025 70.358 29.0991 70.3436 29.1736 70.345H35.8812C36.0392 70.3485 36.1906 70.4095 36.3069 70.5166C36.4233 70.6237 36.4966 70.7695 36.5131 70.9267C36.5207 71.0007 36.5126 71.0755 36.4893 71.1462C36.4659 71.2168 36.4279 71.2817 36.3778 71.3367C36.3276 71.3916 36.2664 71.4353 36.1981 71.4649C36.1298 71.4945 36.0561 71.5093 35.9817 71.5084Z" fill="#87929D" />
    <path d="M42.4518 71.5084H38.8862C38.7279 71.5056 38.5761 71.4449 38.4596 71.3377C38.3431 71.2305 38.27 71.0842 38.2542 70.9267C38.2461 70.8529 38.2537 70.7781 38.2766 70.7075C38.2995 70.6369 38.3372 70.5719 38.3871 70.5169C38.437 70.4619 38.498 70.4181 38.5661 70.3885C38.6342 70.3588 38.7078 70.344 38.7821 70.345H42.3513C42.5093 70.3485 42.6607 70.4095 42.7771 70.5165C42.8934 70.6236 42.9667 70.7694 42.9832 70.9267C42.9908 71.0007 42.9827 71.0755 42.9594 71.1461C42.936 71.2167 42.898 71.2817 42.8479 71.3366C42.7977 71.3915 42.7365 71.4352 42.6682 71.4648C42.5999 71.4944 42.5262 71.5093 42.4518 71.5084Z" fill="#87929D" />
    <path d="M29.7362 48.0248L27.9659 48.6926L29.8511 49.3569C29.922 49.3824 29.9845 49.4272 30.0314 49.4861C30.0783 49.5451 30.1079 49.616 30.1168 49.6909C30.1229 49.7478 30.1139 49.8053 30.0907 49.8576C30.0676 49.91 30.0311 49.9553 29.9849 49.9891C29.9388 50.023 29.8845 50.044 29.8276 50.0503C29.7707 50.0566 29.7132 50.0478 29.6608 50.0248L27.4776 49.2241C27.3755 49.1853 27.286 49.1193 27.2189 49.0332C27.1518 48.9471 27.1096 48.8442 27.097 48.7357V48.6495C27.087 48.5473 27.1103 48.4446 27.1633 48.3566C27.2163 48.2686 27.2963 48.2001 27.3914 48.1612L29.4489 47.3533C29.5048 47.3339 29.5643 47.3276 29.6229 47.3347C29.6816 47.3419 29.7378 47.3624 29.7874 47.3946C29.8369 47.4268 29.8784 47.4699 29.9088 47.5206C29.9391 47.5714 29.9574 47.6283 29.9624 47.6872C29.9683 47.7608 29.9492 47.8341 29.9081 47.8954C29.8671 47.9567 29.8064 48.0023 29.7362 48.0248Z" fill="#87929D" />
    <path d="M32.2681 45.6475C32.3341 45.6482 32.3992 45.6635 32.4585 45.6924C32.5179 45.7213 32.5701 45.7631 32.6113 45.8146C32.6526 45.8662 32.6818 45.9263 32.697 45.9905C32.7122 46.0548 32.7128 46.1216 32.699 46.1862L31.3776 51.2132C31.3579 51.2929 31.3116 51.3634 31.2462 51.4131C31.1809 51.4627 31.1005 51.4885 31.0185 51.4861C30.9523 51.4849 30.8872 51.4691 30.8279 51.4398C30.7686 51.4105 30.7164 51.3684 30.6752 51.3166C30.6341 51.2648 30.6049 51.2045 30.5897 51.1401C30.5746 51.0756 30.5739 51.0087 30.5876 50.9439L31.909 45.9168C31.9294 45.8378 31.976 45.7681 32.0413 45.7192C32.1066 45.6702 32.1866 45.645 32.2681 45.6475Z" fill="#87929D" />
    <path d="M36.1606 48.6498V48.7359C36.1724 48.8384 36.1499 48.9419 36.0967 49.0303C36.0434 49.1187 35.9623 49.1869 35.8662 49.2243L33.8123 50.0322C33.7564 50.0516 33.6969 50.0579 33.6383 50.0507C33.5796 50.0436 33.5234 50.0231 33.4738 49.9909C33.4243 49.9587 33.3828 49.9156 33.3524 49.8648C33.3221 49.8141 33.3037 49.7572 33.2988 49.6983C33.291 49.6278 33.3069 49.5567 33.344 49.4963C33.381 49.4358 33.4371 49.3894 33.5035 49.3643L35.2737 48.7L33.385 48.0322C33.3142 48.0059 33.2522 47.9603 33.2059 47.9007C33.1596 47.8411 33.1308 47.7697 33.1229 47.6946C33.1168 47.6377 33.1258 47.5802 33.1489 47.5279C33.1721 47.4755 33.2085 47.4302 33.2547 47.3964C33.3009 47.3625 33.3551 47.3414 33.412 47.3352C33.4689 47.3289 33.5265 47.3377 33.5789 47.3607L35.7728 48.1686C35.8759 48.2046 35.9669 48.2688 36.0354 48.3538C36.1039 48.4389 36.1473 48.5414 36.1606 48.6498Z" fill="#87929D" />
    <defs>
        <linearGradient id="paint0_linear_936_34288" x1="24.1533" y1="115.301" x2="27.4195" y2="93.2474" gradientUnits="userSpaceOnUse">
            <stop stop-color="white" stop-opacity="0" />
            <stop offset="1" stop-color="white" stop-opacity="0.8" />
        </linearGradient>
    </defs>
</svg>