<svg width="120" heigth="120" viewBox="0 0 120 120" fill="none" xmlns="http://www.w3.org/2000/svg">
    <g opacity="0.4">
        <path fill-rule="evenodd" clip-rule="evenodd" d="M100.576 69.0514C97.9326 73.8897 28.825 65.8445 17.8318 57.5948C6.83868 49.3452 21.1859 43.3626 47.6554 48.0232C74.1248 52.6838 103.219 64.2123 100.576 69.0514Z" fill="#E6EBEE" />
        <path fill-rule="evenodd" clip-rule="evenodd" d="M100.576 69.0514C97.9326 73.8897 28.825 65.8445 17.8318 57.5948C6.83868 49.3452 21.1859 43.3626 47.6554 48.0232C74.1248 52.6838 103.219 64.2123 100.576 69.0514Z" fill="url(#paint0_linear_936_34268)" />
    </g>
    <g opacity="0.4">
        <path fill-rule="evenodd" clip-rule="evenodd" d="M25.186 106.578C26.297 103.327 69.5856 100.955 77.2093 104.857C84.8329 108.76 76.6557 113.952 59.9083 113.891C43.1608 113.83 24.0749 109.83 25.186 106.578Z" fill="#E6EBEE" />
        <path fill-rule="evenodd" clip-rule="evenodd" d="M25.186 106.578C26.297 103.327 69.5856 100.955 77.2093 104.857C84.8329 108.76 76.6557 113.952 59.9083 113.891C43.1608 113.83 24.0749 109.83 25.186 106.578Z" fill="url(#paint1_linear_936_34268)" />
    </g>
    <rect width="44" height="88" transform="matrix(1 0 -0.0660997 0.997813 48.2 24.9805)" fill="#E6EBEE" />
    <rect width="44" height="88" transform="matrix(1 0 -0.0660997 0.997813 48.2 24.9805)" fill="url(#paint2_linear_936_34268)" />
    <path d="M47.7347 32.0051C47.9917 28.1255 51.0142 24.9805 54.4857 24.9805H85.9143C89.3858 24.9805 91.9917 28.1255 91.7347 32.0051L86.8486 105.763C86.5916 109.643 83.569 112.788 80.0975 112.788H48.6689C45.1974 112.788 42.5916 109.643 42.8486 105.763L47.7347 32.0051Z" fill="white" />
    <path d="M68.2241 102.251C68.0956 104.191 66.5843 105.763 64.8486 105.763C63.1128 105.763 61.8099 104.191 61.9384 102.251C62.0669 100.311 63.5782 98.7388 65.3139 98.7388C67.0497 98.7388 68.3526 100.311 68.2241 102.251Z" fill="white" />
    <path d="M54.4196 25.9783H85.8482L85.9804 23.9827H54.5518L54.4196 25.9783ZM90.7347 32.0051L85.8486 105.763H87.8486L92.7347 32.0051H90.7347ZM80.1636 111.79H48.735L48.6028 113.786H80.0314L80.1636 111.79ZM43.8486 105.763L48.7347 32.0051H46.7347L41.8486 105.763H43.8486ZM48.735 111.79C45.9194 111.79 43.6208 109.201 43.8486 105.763H41.8486C41.5623 110.085 44.4755 113.786 48.6028 113.786L48.735 111.79ZM85.8486 105.763C85.6208 109.201 82.9793 111.79 80.1636 111.79L80.0314 113.786C84.1588 113.786 87.5623 110.085 87.8486 105.763H85.8486ZM85.8482 25.9783C88.6639 25.9783 90.9624 28.5672 90.7347 32.0051H92.7347C93.0209 27.6838 90.1077 23.9827 85.9804 23.9827L85.8482 25.9783ZM54.5518 23.9827C50.4245 23.9827 47.0209 27.6837 46.7347 32.0051H48.7347C48.9624 28.5672 51.604 25.9783 54.4196 25.9783L54.5518 23.9827ZM67.2241 102.251C67.1249 103.749 65.9946 104.766 64.9147 104.766L64.7825 106.761C67.1741 106.761 69.0663 104.633 69.2241 102.251H67.2241ZM64.9147 104.766C63.8348 104.766 62.8392 103.749 62.9384 102.251H60.9384C60.7806 104.633 62.3909 106.761 64.7825 106.761L64.9147 104.766ZM62.9384 102.251C63.0376 100.753 64.1679 99.7366 65.2478 99.7366L65.38 97.741C62.9884 97.741 61.0962 99.8696 60.9384 102.251H62.9384ZM65.2478 99.7366C66.3277 99.7366 67.3233 100.753 67.2241 102.251H69.2241C69.3819 99.8696 67.7716 97.741 65.38 97.741L65.2478 99.7366Z" fill="#87929D" />
    <g clip-path="url(#clip0_936_34268)">
        <path d="M48.1653 82.858C48.3113 80.6537 50.2205 78.8668 52.4297 78.8668H60.9297C63.1388 78.8668 64.8113 80.6537 64.6653 82.858L64.0043 92.8362C63.8582 95.0405 61.949 96.8274 59.7399 96.8274H51.2399C49.0307 96.8274 47.3582 95.0405 47.5043 92.8361L48.1653 82.858Z" fill="#F8F9F9" />
        <path d="M68.3313 82.858C68.4773 80.6537 70.3865 78.8668 72.5957 78.8668H81.0957C83.3048 78.8668 84.9773 80.6537 84.8313 82.858L84.1703 92.8361C84.0243 95.0405 82.115 96.8274 79.9059 96.8274H71.4059C69.1967 96.8274 67.5243 95.0404 67.6703 92.8361L68.3313 82.858Z" fill="#F8F9F9" />
        <path d="M51.0734 38.9542C51.2195 36.7499 53.1287 34.963 55.3378 34.963H63.8378C66.047 34.963 67.7195 36.7499 67.5734 38.9542L66.9124 48.9323C66.7664 51.1367 64.8572 52.9236 62.648 52.9236H54.148C51.9389 52.9236 50.2664 51.1367 50.4124 48.9323L51.0734 38.9542Z" fill="#F8F9F9" />
        <path d="M58.993 43.9433C60.1747 43.9433 61.2009 42.9014 61.2861 41.6151C61.3713 40.3287 60.4832 39.2868 59.3014 39.2868C58.1197 39.2868 57.0935 40.3287 57.0083 41.6151C56.9231 42.9014 57.8112 43.9433 58.993 43.9433ZM58.9159 45.1074C57.4881 45.1074 54.5864 45.8874 54.4838 47.4356L54.4453 48.0177C54.4241 48.3378 54.6474 48.5997 54.9414 48.5997H62.4276C62.7217 48.5997 62.9796 48.3378 63.0008 48.0177L63.0394 47.4356C63.142 45.8874 60.3436 45.1074 58.9159 45.1074Z" fill="#87929D" />
        <path d="M71.2405 38.9542C71.3865 36.7499 73.2957 34.963 75.5049 34.963H84.0049C86.214 34.963 87.8865 36.7499 87.7405 38.9542L87.0795 48.9323C86.9334 51.1367 85.0242 52.9236 82.8151 52.9236H74.3151C72.1059 52.9236 70.4334 51.1367 70.5795 48.9323L71.2405 38.9542Z" fill="#F8F9F9" />
        <path d="M83.7026 48.0177L84.2424 39.8689C84.2848 39.2286 83.8382 38.7048 83.25 38.7048H75.7639C75.1757 38.7048 74.6598 39.2286 74.6174 39.8689L74.0776 48.0177C74.0351 48.658 74.4817 49.1818 75.0699 49.1818H82.556C83.1442 49.1818 83.6601 48.658 83.7026 48.0177ZM77.426 45.0958L78.4513 46.5684L80.2628 44.246C80.3798 44.0946 80.5937 44.0946 80.6902 44.2518L82.3866 46.9758C82.5076 47.1679 82.3611 47.4415 82.1419 47.4415H75.7306C75.506 47.4415 75.4015 47.1621 75.5533 46.97L77.0081 45.1074C77.1197 44.9561 77.3233 44.9502 77.426 45.0958Z" fill="#C2C8CC" />
        <path d="M49.6194 60.9059C49.7654 58.7016 51.6746 56.9146 53.8838 56.9146H62.3838C64.5929 56.9146 66.2654 58.7016 66.1194 60.9059L65.4584 70.884C65.3123 73.0883 63.4031 74.8753 61.194 74.8753H52.694C50.4848 74.8753 48.8123 73.0883 48.9584 70.884L49.6194 60.9059Z" fill="#F8F9F9" />
        <path d="M57.9245 60.0744C54.9728 60.0744 52.4045 62.682 52.1916 65.8949C51.9788 69.1079 54.2016 71.7155 57.1533 71.7155C60.105 71.7155 62.6733 69.1079 62.8861 65.8949C63.0989 62.682 60.8761 60.0744 57.9245 60.0744ZM56.3345 67.9321L56.6044 63.8577C56.6202 63.6191 56.8808 63.4794 57.0476 63.6249L59.4098 65.6621C59.5464 65.7785 59.531 66.0114 59.3789 66.1278L56.7468 68.165C56.5607 68.3105 56.3187 68.1708 56.3345 67.9321Z" fill="#C2C8CC" />
        <path d="M69.7864 60.9059C69.9324 58.7016 71.8416 56.9146 74.0508 56.9146H82.5508C84.7599 56.9146 86.4324 58.7016 86.2864 60.9059L85.6254 70.884C85.4793 73.0883 83.5701 74.8753 81.361 74.8753H72.861C70.6518 74.8753 68.9793 73.0883 69.1254 70.884L69.7864 60.9059Z" fill="#F8F9F9" />
        <path d="M78.0852 60.1682C75.8394 60.1682 73.6833 62.0424 73.4913 64.9411C73.3687 66.792 74.5345 68.9689 76.9831 71.4776C77.1736 71.6697 77.4784 71.6697 77.6943 71.4776C80.4699 68.9689 81.9242 66.792 82.0468 64.9411C82.2388 62.0424 80.3311 60.1682 78.0852 60.1682ZM77.6996 65.9888C77.1115 65.9888 76.6649 65.4649 76.7073 64.8247C76.7497 64.1844 77.2657 63.6606 77.8539 63.6606C78.4421 63.6606 78.8886 64.1844 78.8462 64.8247C78.8038 65.4649 78.2878 65.9888 77.6996 65.9888Z" fill="#87929D" />
    </g>
    <defs>
        <linearGradient id="paint0_linear_936_34268" x1="81.6938" y1="52.5479" x2="64.1551" y2="83.7329" gradientUnits="userSpaceOnUse">
            <stop stop-color="white" stop-opacity="0" />
            <stop offset="1" stop-color="white" stop-opacity="0.8" />
        </linearGradient>
        <linearGradient id="paint1_linear_936_34268" x1="38.5273" y1="114.714" x2="45.9973" y2="93.7085" gradientUnits="userSpaceOnUse">
            <stop stop-color="white" stop-opacity="0" />
            <stop offset="1" stop-color="white" stop-opacity="0.8" />
        </linearGradient>
        <linearGradient id="paint2_linear_936_34268" x1="32.7026" y1="105.243" x2="-28.9221" y2="78.5633" gradientUnits="userSpaceOnUse">
            <stop stop-color="white" stop-opacity="0" />
            <stop offset="1" stop-color="white" stop-opacity="0.8" />
        </linearGradient>
        <clipPath id="clip0_936_34268">
            <rect width="36.6667" height="57" rx="4" transform="matrix(1 0 -0.0660997 0.997813 51.3379 32.963)" fill="white" />
        </clipPath>
    </defs>
</svg>