<svg width="120" heigth="120" viewBox="0 0 120 120" fill="none" xmlns="http://www.w3.org/2000/svg">
    <path opacity="0.4" fill-rule="evenodd" clip-rule="evenodd" d="M25.186 106.578C26.297 103.327 69.5856 100.955 77.2093 104.857C84.8329 108.76 76.6557 113.952 59.9083 113.891C43.1608 113.83 24.0749 109.83 25.186 106.578Z" fill="url(#paint0_radial_936_34317)" />
    <path opacity="0.4" fill-rule="evenodd" clip-rule="evenodd" d="M100.576 69.0514C97.9326 73.8897 28.825 65.8445 17.8318 57.5948C6.83868 49.3452 21.1859 43.3626 47.6554 48.0232C74.1248 52.6838 103.219 64.2123 100.576 69.0514Z" fill="url(#paint1_radial_936_34317)" />
    <path d="M47.7309 32.0065C47.9879 28.125 51.0105 24.9785 54.482 24.9785H85.9106C89.3821 24.9785 91.9879 28.125 91.7308 32.0065L86.8437 105.8C86.5867 109.681 83.5641 112.828 80.0926 112.828H48.664C45.1925 112.828 42.5867 109.681 42.8437 105.8L47.7309 32.0065Z" fill="white" />
    <path d="M68.2193 102.286C68.0908 104.227 66.5795 105.8 64.8437 105.8C63.108 105.8 61.8051 104.227 61.9336 102.286C62.0621 100.345 63.5734 98.772 65.3092 98.772C67.0449 98.772 68.3478 100.345 68.2193 102.286Z" fill="white" />
    <path d="M54.4159 25.9768H85.8445L85.9767 23.9802H54.5481L54.4159 25.9768ZM90.7308 32.0065L85.8437 105.8H87.8437L92.7308 32.0065H90.7308ZM80.1587 111.83H48.7301L48.5979 113.826H80.0265L80.1587 111.83ZM43.8437 105.8L48.7309 32.0065H46.7309L41.8437 105.8H43.8437ZM48.7301 111.83C45.9145 111.83 43.616 109.239 43.8437 105.8H41.8437C41.5574 110.123 44.4706 113.826 48.5979 113.826L48.7301 111.83ZM85.8437 105.8C85.616 109.239 82.9744 111.83 80.1587 111.83L80.0265 113.826C84.1538 113.826 87.5574 110.123 87.8437 105.8H85.8437ZM85.8445 25.9768C88.6601 25.9768 90.9586 28.567 90.7308 32.0065H92.7308C93.0172 27.6831 90.104 23.9802 85.9767 23.9802L85.8445 25.9768ZM54.5481 23.9802C50.4208 23.9802 47.0172 27.6831 46.7309 32.0065H48.7309C48.9586 28.567 51.6002 25.9768 54.4159 25.9768L54.5481 23.9802ZM67.2193 102.286C67.1201 103.785 65.9898 104.802 64.9099 104.802L64.7776 106.798C67.1692 106.798 69.0615 104.669 69.2193 102.286H67.2193ZM64.9099 104.802C63.8299 104.802 62.8343 103.785 62.9336 102.286H60.9336C60.7758 104.669 62.386 106.798 64.7776 106.798L64.9099 104.802ZM62.9336 102.286C63.0329 100.787 64.1631 99.7703 65.2431 99.7703L65.3753 97.7737C62.9837 97.7737 61.0914 99.9033 60.9336 102.286H62.9336ZM65.2431 99.7703C66.323 99.7703 67.3186 100.787 67.2193 102.286H69.2193C69.3771 99.9033 67.7669 97.7737 65.3753 97.7737L65.2431 99.7703Z" fill="#336179" />
    <g clip-path="url(#clip0_936_34317)">
        <path d="M47.877 82.8584C48.023 80.6541 49.9323 78.8672 52.1414 78.8672H60.6414C62.8505 78.8672 64.523 80.6541 64.377 82.8584L63.716 92.8366C63.57 95.0409 61.6607 96.8278 59.4516 96.8278H50.9516C48.7425 96.8278 47.07 95.0409 47.216 92.8366L47.877 82.8584Z" fill="#E6EBEE" />
        <path d="M47.877 82.8584C48.023 80.6541 49.9323 78.8672 52.1414 78.8672H60.6414C62.8505 78.8672 64.523 80.6541 64.377 82.8584L63.716 92.8366C63.57 95.0409 61.6607 96.8278 59.4516 96.8278H50.9516C48.7425 96.8278 47.07 95.0409 47.216 92.8366L47.877 82.8584Z" fill="url(#paint2_linear_936_34317)" />
        <path d="M68.043 82.8584C68.189 80.6541 70.0983 78.8672 72.3074 78.8672H80.8074C83.0165 78.8672 84.689 80.6541 84.543 82.8584L83.882 92.8366C83.736 95.0409 81.8268 96.8278 79.6176 96.8278H71.1176C68.9085 96.8278 67.236 95.0409 67.382 92.8366L68.043 82.8584Z" fill="#E6EBEE" />
        <path d="M68.043 82.8584C68.189 80.6541 70.0983 78.8672 72.3074 78.8672H80.8074C83.0165 78.8672 84.689 80.6541 84.543 82.8584L83.882 92.8366C83.736 95.0409 81.8268 96.8278 79.6176 96.8278H71.1176C68.9085 96.8278 67.236 95.0409 67.382 92.8366L68.043 82.8584Z" fill="url(#paint3_linear_936_34317)" />
        <path d="M50.7852 38.9541C50.9312 36.7498 52.8405 34.9629 55.0496 34.9629H63.5496C65.7587 34.9629 67.4312 36.7498 67.2852 38.9542L66.6242 48.9323C66.4782 51.1366 64.5689 52.9235 62.3598 52.9235H53.8598C51.6507 52.9235 49.9782 51.1366 50.1242 48.9323L50.7852 38.9541Z" fill="#E6EBEE" />
        <path d="M50.7852 38.9541C50.9312 36.7498 52.8405 34.9629 55.0496 34.9629H63.5496C65.7587 34.9629 67.4312 36.7498 67.2852 38.9542L66.6242 48.9323C66.4782 51.1366 64.5689 52.9235 62.3598 52.9235H53.8598C51.6507 52.9235 49.9782 51.1366 50.1242 48.9323L50.7852 38.9541Z" fill="url(#paint4_linear_936_34317)" />
        <path d="M70.9522 38.9541C71.0982 36.7498 73.0075 34.9629 75.2166 34.9629H83.7166C85.9257 34.9629 87.5982 36.7498 87.4522 38.9542L86.7912 48.9323C86.6452 51.1366 84.7359 52.9235 82.5268 52.9235H74.0268C71.8177 52.9235 70.1452 51.1366 70.2912 48.9323L70.9522 38.9541Z" fill="#E6EBEE" />
        <path d="M70.9522 38.9541C71.0982 36.7498 73.0075 34.9629 75.2166 34.9629H83.7166C85.9257 34.9629 87.5982 36.7498 87.4522 38.9542L86.7912 48.9323C86.6452 51.1366 84.7359 52.9235 82.5268 52.9235H74.0268C71.8177 52.9235 70.1452 51.1366 70.2912 48.9323L70.9522 38.9541Z" fill="url(#paint5_linear_936_34317)" />
        <path d="M49.3311 60.9063C49.4771 58.702 51.3864 56.915 53.5955 56.915H62.0955C64.3046 56.915 65.9771 58.702 65.8311 60.9063L65.1701 70.8844C65.0241 73.0887 63.1148 74.8757 60.9057 74.8757H52.4057C50.1966 74.8757 48.5241 73.0887 48.6701 70.8844L49.3311 60.9063Z" fill="#E6EBEE" />
        <path d="M49.3311 60.9063C49.4771 58.702 51.3864 56.915 53.5955 56.915H62.0955C64.3046 56.915 65.9771 58.702 65.8311 60.9063L65.1701 70.8844C65.0241 73.0887 63.1148 74.8757 60.9057 74.8757H52.4057C50.1966 74.8757 48.5241 73.0887 48.6701 70.8844L49.3311 60.9063Z" fill="url(#paint6_linear_936_34317)" />
        <path d="M69.4981 60.9063C69.6441 58.702 71.5534 56.915 73.7625 56.915H82.2625C84.4716 56.915 86.1441 58.702 85.9981 60.9063L85.3371 70.8844C85.1911 73.0887 83.2818 74.8757 81.0727 74.8757H72.5727C70.3636 74.8757 68.6911 73.0887 68.8371 70.8844L69.4981 60.9063Z" fill="#E6EBEE" />
        <path d="M69.4981 60.9063C69.6441 58.702 71.5534 56.915 73.7625 56.915H82.2625C84.4716 56.915 86.1441 58.702 85.9981 60.9063L85.3371 70.8844C85.1911 73.0887 83.2818 74.8757 81.0727 74.8757H72.5727C70.3636 74.8757 68.6911 73.0887 68.8371 70.8844L69.4981 60.9063Z" fill="url(#paint7_linear_936_34317)" />
    </g>
    <g filter="url(#filter0_d_936_34317)">
        <path d="M27.9275 13.8697C28.0195 12.2848 29.381 11 30.9685 11H43.7554C45.343 11 46.5555 12.2848 46.4635 13.8697L45.6254 28.3174C45.5335 29.9023 44.1719 31.1871 42.5844 31.1871H29.7975C28.2099 31.1871 26.9975 29.9023 27.0894 28.3174L27.9275 13.8697Z" fill="white" />
        <path d="M36.7758 21.0942C38.1033 21.0942 39.2465 19.9231 39.3304 18.4773C39.4143 17.0315 38.4069 15.8605 37.0794 15.8605C35.7518 15.8605 34.6086 17.0315 34.5248 18.4773C34.4409 19.9231 35.4482 21.0942 36.7758 21.0942ZM36.6999 22.4026C35.096 22.4026 31.8434 23.2792 31.7424 25.0194L31.7045 25.6736C31.6836 26.0335 31.9369 26.3279 32.2672 26.3279H40.6771C41.0075 26.3279 41.2949 26.0335 41.3157 25.6736L41.3537 25.0194C41.4546 23.2792 38.3038 22.4026 36.6999 22.4026Z" fill="#70C38A" />
        <path d="M24.3963 68.0973C24.4882 66.5124 25.8497 65.2275 27.4373 65.2275H69.3522C70.9397 65.2275 72.1522 66.5124 72.0602 68.0973L70.783 90.1151C70.691 91.7 69.3295 92.9848 67.742 92.9848H25.8271C24.2395 92.9848 23.0271 91.7 23.119 90.1151L24.3963 68.0973Z" fill="white" />
        <path d="M46.4939 76.2965C46.338 76.1588 46.097 76.291 46.0839 76.5168L45.8603 80.372C45.8472 80.5978 46.0729 80.73 46.2447 80.5923L48.6752 78.6647C48.8156 78.5546 48.8284 78.3343 48.7007 78.2241L46.4939 76.2965Z" fill="#0C4D5E" />
        <path fill-rule="evenodd" clip-rule="evenodd" d="M28.4932 67.8716C27.6994 67.8716 27.0186 68.514 26.9727 69.3064L25.8357 88.9069C25.7897 89.6994 26.3959 90.3418 27.1897 90.3418H66.6831C67.4769 90.3418 68.1576 89.6994 68.2036 88.9069L69.3406 69.3064C69.3866 68.514 68.7804 67.8716 67.9866 67.8716H28.4932ZM42.0001 78.4444C42.1765 75.4043 44.5439 72.937 47.2846 72.937C50.0253 72.937 52.1064 75.4043 51.9301 78.4444C51.7537 81.4845 49.3863 83.9518 46.6456 83.9518C43.9049 83.9518 41.8237 81.4845 42.0001 78.4444Z" fill="#0C4D5E" />
        <path d="M10.3338 39.7228C10.4257 38.1379 11.7872 36.853 13.3748 36.853H55.2896C56.8772 36.853 58.0897 38.1379 57.9977 39.7228L56.9505 57.7753C56.8586 59.3602 55.4971 60.645 53.9095 60.645H11.9946C10.4071 60.645 9.19461 59.3602 9.28655 57.7753L10.3338 39.7228Z" fill="white" />
        <path d="M17.9032 40.5088C17.7523 39.9071 17.2191 39.4966 16.5884 39.4966H14.4307C13.6369 39.4966 12.9561 40.139 12.9102 40.9315L12.6014 46.2539C12.5554 47.0464 13.1617 47.6888 13.9555 47.6888H17.7565C18.7238 47.6888 19.4692 46.7541 19.2378 45.8313L17.9032 40.5088Z" fill="#F1F9F3" />
        <path d="M21.253 39.4966C20.2857 39.4966 19.5403 40.4313 19.7717 41.3541L21.1063 46.6766C21.2572 47.2783 21.7904 47.6888 22.4211 47.6888H40.3645C41.3733 47.6888 42.1268 46.6785 41.8191 45.7386L41.1758 43.774L40.394 40.5218C40.2477 39.9135 39.7117 39.4966 39.076 39.4966H21.253Z" fill="#F1F9F3" />
        <path d="M42.776 39.4966C42.2992 39.4966 41.9307 39.9556 42.0415 40.4114C42.1844 40.9995 42.969 41.1015 43.3203 40.5777C43.6379 40.1043 43.3319 39.4966 42.776 39.4966Z" fill="#F1F9F3" />
        <path d="M46.7146 39.4966C46.2141 39.4966 45.7347 39.7564 45.4488 40.1826L43.3359 43.3318C43.0808 43.712 43.011 44.1787 43.1468 44.5949L44.0103 47.2392C44.1296 47.6048 44.3968 47.8971 44.7498 48.0484L52.6756 51.4456C53.5996 51.8417 54.6855 51.1473 54.745 50.1222L55.2781 40.9315C55.3241 40.139 54.7179 39.4966 53.9241 39.4966H46.7146Z" fill="#F1F9F3" />
        <path d="M54.4323 55.5128C54.4658 54.9344 54.1483 54.4126 53.6269 54.1892L43.6526 49.9162C43.4811 49.8427 43.2946 49.8049 43.104 49.8049H38.2299C37.0656 49.8049 36.3085 51.1146 36.9233 52.0653L40.3677 57.3921C40.6147 57.7741 41.0401 58.0015 41.5079 58.0015H52.8506C53.6444 58.0015 54.3252 57.3591 54.3711 56.5666L54.4323 55.5128Z" fill="#F1F9F3" />
        <path d="M36.0126 58.0015C37.1769 58.0015 37.934 56.6917 37.3192 55.741L33.8748 50.4142C33.6278 50.0322 33.2024 49.8049 32.7346 49.8049H23.836C22.8687 49.8049 22.1233 50.7396 22.3547 51.6624L23.6904 56.9893C23.8413 57.591 24.3745 58.0015 25.0052 58.0015H36.0126Z" fill="#F1F9F3" />
        <path d="M20.3445 58.0015C21.3118 58.0015 22.0572 57.0668 21.8258 56.1439L20.4901 50.8171C20.3392 50.2154 19.806 49.8049 19.1753 49.8049H13.8327C13.0389 49.8049 12.3582 50.4473 12.3122 51.2397L12.0032 56.5666C11.9572 57.3591 12.5634 58.0015 13.3572 58.0015H20.3445Z" fill="#F1F9F3" />
        <path d="M19.3184 40.8009C17.0014 40.8009 14.7928 42.7355 14.6192 45.7276C14.5084 47.6381 15.7296 49.8852 18.2771 52.4746C18.4752 52.6729 18.7897 52.6729 19.0108 52.4746C21.8531 49.8852 23.3351 47.6381 23.4459 45.7276C23.6195 42.7355 21.6354 40.8009 19.3184 40.8009ZM18.9698 46.809C18.363 46.809 17.8979 46.2683 17.9362 45.6074C17.9746 44.9465 18.5024 44.4058 19.1093 44.4058C19.7161 44.4058 20.1812 44.9465 20.1429 45.6074C20.1045 46.2683 19.5767 46.809 18.9698 46.809Z" fill="#2B8473" />
        <path d="M53.4294 22.8469C53.5138 21.3916 54.764 20.2119 56.2217 20.2119H72.8256C74.2833 20.2119 75.3966 21.3916 75.3121 22.8469L74.2354 41.4089C74.1509 42.8642 72.9008 44.0439 71.4431 44.0439H54.8392C53.3815 44.0439 52.2682 42.8642 52.3526 41.4089L53.4294 22.8469Z" fill="white" />
        <path d="M61.513 41.8337L58.1025 37.0572C57.7611 36.5853 57.0927 36.6041 56.7306 37.095L52.4706 42.5442C52.7844 43.4246 53.6174 44.044 54.6312 44.044H71.651C72.6899 44.044 73.6143 43.3936 74.0156 42.4784L68.7974 34.3198C68.4757 33.81 67.7733 33.81 67.3937 34.3009L61.513 41.8337Z" fill="#70C38A" />
        <path d="M62.6025 32.3484C62.5636 33.0187 61.9878 33.5621 61.3164 33.5621C60.6449 33.5621 60.1322 33.0187 60.1711 32.3484C60.2099 31.6781 60.7858 31.1348 61.4572 31.1348C62.1286 31.1348 62.6414 31.6781 62.6025 32.3484Z" fill="#0C4D5E" />
    </g>
    <defs>
        <filter id="filter0_d_936_34317" x="1.28165" y="7" width="82.035" height="97.9848" filterUnits="userSpaceOnUse" color-interpolation-filters="sRGB">
            <feFlood flood-opacity="0" result="BackgroundImageFix" />
            <feColorMatrix in="SourceAlpha" type="matrix" values="0 0 0 0 0 0 0 0 0 0 0 0 0 0 0 0 0 0 127 0" result="hardAlpha" />
            <feOffset dy="4" />
            <feGaussianBlur stdDeviation="4" />
            <feColorMatrix type="matrix" values="0 0 0 0 0.184314 0 0 0 0 0.223529 0 0 0 0 0.254902 0 0 0 0.15 0" />
            <feBlend mode="normal" in2="BackgroundImageFix" result="effect1_dropShadow_936_34317" />
            <feBlend mode="normal" in="SourceGraphic" in2="effect1_dropShadow_936_34317" result="shape" />
        </filter>
        <radialGradient id="paint0_radial_936_34317" cx="0" cy="0" r="1" gradientUnits="userSpaceOnUse" gradientTransform="translate(55.5952 108.498) rotate(161.065) scale(13.2268 12.3979)">
            <stop stop-color="#70C38A" stop-opacity="0.52" />
            <stop offset="1" stop-color="#F1F9F3" />
        </radialGradient>
        <radialGradient id="paint1_radial_936_34317" cx="0" cy="0" r="1" gradientUnits="userSpaceOnUse" gradientTransform="translate(53.0069 57.7268) rotate(-9.15775) scale(21.2264 19.8963)">
            <stop stop-color="#70C38A" stop-opacity="0.52" />
            <stop offset="1" stop-color="#F1F9F3" />
        </radialGradient>
        <linearGradient id="paint2_linear_936_34317" x1="77.1255" y1="108.95" x2="26.3102" y2="80.3202" gradientUnits="userSpaceOnUse">
            <stop stop-color="white" stop-opacity="0" />
            <stop offset="1" stop-color="white" stop-opacity="0.8" />
        </linearGradient>
        <linearGradient id="paint3_linear_936_34317" x1="77.1255" y1="108.95" x2="26.3102" y2="80.3202" gradientUnits="userSpaceOnUse">
            <stop stop-color="white" stop-opacity="0" />
            <stop offset="1" stop-color="white" stop-opacity="0.8" />
        </linearGradient>
        <linearGradient id="paint4_linear_936_34317" x1="77.1255" y1="108.95" x2="26.3102" y2="80.3202" gradientUnits="userSpaceOnUse">
            <stop stop-color="white" stop-opacity="0" />
            <stop offset="1" stop-color="white" stop-opacity="0.8" />
        </linearGradient>
        <linearGradient id="paint5_linear_936_34317" x1="77.1255" y1="108.95" x2="26.3102" y2="80.3202" gradientUnits="userSpaceOnUse">
            <stop stop-color="white" stop-opacity="0" />
            <stop offset="1" stop-color="white" stop-opacity="0.8" />
        </linearGradient>
        <linearGradient id="paint6_linear_936_34317" x1="77.1255" y1="108.95" x2="26.3102" y2="80.3202" gradientUnits="userSpaceOnUse">
            <stop stop-color="white" stop-opacity="0" />
            <stop offset="1" stop-color="white" stop-opacity="0.8" />
        </linearGradient>
        <linearGradient id="paint7_linear_936_34317" x1="77.1255" y1="108.95" x2="26.3102" y2="80.3202" gradientUnits="userSpaceOnUse">
            <stop stop-color="white" stop-opacity="0" />
            <stop offset="1" stop-color="white" stop-opacity="0.8" />
        </linearGradient>
        <clipPath id="clip0_936_34317">
            <rect width="36.6667" height="57" rx="4" transform="matrix(1 0 -0.0660997 0.997813 52.0496 32.9629)" fill="white" />
        </clipPath>
    </defs>
</svg>