<svg width="12" height="12" viewBox="0 0 12 12" fill="currentColor" xmlns="http://www.w3.org/2000/svg">
<path fill-rule="evenodd" clip-rule="evenodd" d="M10 4H7V3.5C7 2.62386 6.37614 2 5.5 2H2.5C1.62386 2 1 2.62386 1 3.5V6H0.500002C0.174717 6 -0.0639624 6.30569 0.0149309 6.62127L1.01493 10.6213C1.07058 10.8439 1.27057 11 1.5 11H10.5C10.7294 11 10.9294 10.8439 10.9851 10.6213L11.9851 6.62127C12.064 6.30569 11.8253 6 11.5 6H11V5C11 4.42386 10.5761 4 10 4ZM10.8596 7H1.14039L1.89039 10H10.1096L10.8596 7ZM2 6H10V5H6V3.5C6 3.17614 5.82386 3 5.5 3H2.5C2.17614 3 2 3.17614 2 3.5V6Z" />
</svg>
