<svg width="80" height="92" viewBox="0 0 80 92" fill="none" xmlns="http://www.w3.org/2000/svg">
<path d="M9.66699 10.1413C9.66699 6.19725 12.8642 3 16.8082 3H60.5257C64.4697 3 67.667 6.19725 67.667 10.1413V53.8587C67.667 57.8028 64.4697 61 60.5257 61H16.8082C12.8642 61 9.66699 57.8028 9.66699 53.8587V10.1413Z" fill="#E05B4B"/>
<g filter="url(#filter0_d_200_15198)">
<path d="M29.3333 43.875C28.9556 43.875 28.6389 43.7472 28.3833 43.4917C28.1278 43.2361 28 42.9194 28 42.5417V39.3083C28 38.9528 28.0667 38.6139 28.2 38.2917C28.3333 37.9694 28.5222 37.6861 28.7667 37.4417L45.5667 20.675C45.8333 20.4083 46.1333 20.2083 46.4667 20.075C46.8 19.9417 47.1333 19.875 47.4667 19.875C47.8222 19.875 48.1611 19.9417 48.4833 20.075C48.8056 20.2083 49.0889 20.4083 49.3333 20.675L51.2 22.5417C51.4667 22.7861 51.6667 23.0694 51.8 23.3917C51.9333 23.7139 52 24.0528 52 24.4083C52 24.7417 51.9333 25.075 51.8 25.4083C51.6667 25.7417 51.4667 26.0417 51.2 26.3083L34.4333 43.1083C34.1889 43.3528 33.9056 43.5417 33.5833 43.675C33.2611 43.8083 32.9222 43.875 32.5667 43.875H29.3333ZM30.6667 41.2083H32.5333L45.6333 28.1417L44.7 27.175L43.7333 26.2417L30.6667 39.3417V41.2083ZM44.7 27.175L43.7333 26.2417L45.6333 28.1417L44.7 27.175Z" fill="white"/>
</g>
<path d="M45.3698 38.2176C48.3686 40.5738 44.9343 42.5417 42.5069 42.5417M28.6212 30.1989C29.3725 30.9127 28.1069 29.9357 28.1069 29.5131C28.1069 26.9698 41.7876 24.7974 34.8269 19.656C33.2821 18.5149 25.4453 17.6833 25.9126 21.4217" stroke="#E9EBED" stroke-width="2" stroke-linecap="round" stroke-linejoin="round"/>
<defs>
<filter id="filter0_d_200_15198" x="0" y="11.875" width="80" height="80" filterUnits="userSpaceOnUse" color-interpolation-filters="sRGB">
<feFlood flood-opacity="0" result="BackgroundImageFix"/>
<feColorMatrix in="SourceAlpha" type="matrix" values="0 0 0 0 0 0 0 0 0 0 0 0 0 0 0 0 0 0 127 0" result="hardAlpha"/>
<feOffset dy="20"/>
<feGaussianBlur stdDeviation="14"/>
<feColorMatrix type="matrix" values="0 0 0 0 0.184314 0 0 0 0 0.223529 0 0 0 0 0.254902 0 0 0 0.35 0"/>
<feBlend mode="normal" in2="BackgroundImageFix" result="effect1_dropShadow_200_15198"/>
<feBlend mode="normal" in="SourceGraphic" in2="effect1_dropShadow_200_15198" result="shape"/>
</filter>
</defs>
</svg>
