<svg width="12" height="12" viewBox="0 0 12 12" fill="none" xmlns="http://www.w3.org/2000/svg">
<path fill-rule="evenodd" clip-rule="evenodd" d="M10.125 0C9.91789 0 9.75 0.167893 9.75 0.375V2.31975C8.76008 1.33119 7.43078 0.75 6 0.75C3.09289 0.75 0.75 3.09289 0.75 6C0.75 8.90711 3.09289 11.25 6 11.25C7.62771 11.25 9.10452 10.5009 10.1178 9.23426C10.2472 9.07254 10.221 8.83655 10.0593 8.70717C9.89754 8.5778 9.66155 8.60402 9.53217 8.76574C8.65768 9.85886 7.39372 10.5 6 10.5C3.50711 10.5 1.5 8.49289 1.5 6C1.5 3.50711 3.50711 1.5 6 1.5C7.29613 1.5 8.49719 2.05723 9.3635 3H7.125C6.91789 3 6.75 3.16789 6.75 3.375C6.75 3.58211 6.91789 3.75 7.125 3.75H9.75C10.1821 3.75 10.5 3.43211 10.5 3V0.375C10.5 0.167893 10.3321 0 10.125 0Z" fill="currentColor"/>
</svg>
