<svg width="16" height="16" viewBox="0 0 16 16" fill="currentColor" xmlns="http://www.w3.org/2000/svg">
<path fill-rule="evenodd" clip-rule="evenodd" d="M1.5 0C1.77614 0 2 0.223858 2 0.5V3.093C3.31989 1.77492 5.0923 1 7 1C10.8761 1 14 4.12386 14 8C14 11.8761 10.8761 15 7 15C4.82972 15 2.86064 14.0012 1.50957 12.3123C1.33706 12.0967 1.37202 11.7821 1.58765 11.6096C1.80328 11.4371 2.11793 11.472 2.29043 11.6877C3.45643 13.1451 5.14171 14 7 14C10.3239 14 13 11.3239 13 8C13 4.67614 10.3239 2 7 2C5.27182 2 3.67042 2.74298 2.51534 4H5.5C5.77614 4 6 4.22386 6 4.5C6 4.77614 5.77614 5 5.5 5H2C1.42386 5 1 4.57614 1 4V0.5C1 0.223858 1.22386 0 1.5 0Z" />
<path d="M4 7.63073V7.07008H5.17566V11H4.52566V7.63073H4Z" />
<path d="M6.06085 8.98383C6.06085 8.36208 6.17013 7.87691 6.38868 7.5283C6.611 7.1761 6.99158 7 7.53042 7C8.06927 7 8.44797 7.1761 8.66652 7.5283C8.88884 7.87691 9 8.36208 9 8.98383C9 9.61276 8.88884 10.1051 8.66652 10.4609C8.44797 10.8131 8.06927 10.9892 7.53042 10.9892C6.99158 10.9892 6.611 10.8131 6.38868 10.4609C6.17013 10.1051 6.06085 9.61276 6.06085 8.98383ZM8.36695 8.98383C8.36695 8.69272 8.34623 8.44654 8.30478 8.24528C8.2671 8.04403 8.18797 7.8805 8.06738 7.75472C7.9468 7.62534 7.76782 7.56065 7.53042 7.56065C7.29303 7.56065 7.11404 7.62534 6.99346 7.75472C6.87288 7.8805 6.79187 8.04403 6.75042 8.24528C6.71274 8.44654 6.6939 8.69272 6.6939 8.98383C6.6939 9.28571 6.71274 9.53908 6.75042 9.74394C6.7881 9.94879 6.86723 10.1141 6.98781 10.2399C7.11216 10.3657 7.29303 10.4286 7.53042 10.4286C7.76782 10.4286 7.9468 10.3657 8.06738 10.2399C8.19173 10.1141 8.27275 9.94879 8.31043 9.74394C8.34811 9.53908 8.36695 9.28571 8.36695 8.98383Z" />
</svg>
