<svg width="16" height="16" viewBox="0 0 16 16" fill="none" xmlns="http://www.w3.org/2000/svg">
<g opacity="0.3">
<path opacity="0.3" d="M8 16C12.4183 16 16 12.4183 16 8C16 3.58172 12.4183 0 8 0C3.58172 0 0 3.58172 0 8C0 12.4183 3.58172 16 8 16Z" fill="white"/>
</g>
<path fill-rule="evenodd" clip-rule="evenodd" d="M11.4457 3.01448C11.1134 3.03929 10.5837 3.11755 10.2689 3.18836C9.67024 3.32304 9.22622 3.47771 8.69892 3.73522C7.46356 4.33855 6.23771 5.53065 5.50379 6.84238L5.40094 7.02621L7.188 8.81329L8.97507 10.6004L9.20364 10.4725C10.4768 9.76007 11.6683 8.5278 12.2676 7.30371C12.5447 6.73783 12.7124 6.23695 12.8451 5.57898C12.9594 5.01243 12.996 4.63016 12.9981 3.98015L13 3.41319L12.9452 3.30168C12.8839 3.17685 12.8076 3.10353 12.6774 3.04457C12.5981 3.00864 12.5451 3.0043 12.1398 3.00048C11.8925 2.99816 11.5802 3.00445 11.4457 3.01448ZM10.2141 4.72613C10.7369 4.85446 11.1544 5.27536 11.283 5.80361C11.3316 6.00303 11.3267 6.32707 11.2724 6.52058C11.1336 7.01435 10.7641 7.398 10.2825 7.54842C10.0714 7.61433 9.74258 7.62377 9.53001 7.57002C9.23646 7.49579 8.98018 7.35055 8.79335 7.15255C8.12858 6.44801 8.32057 5.2963 9.17683 4.85212C9.50565 4.68154 9.85806 4.63874 10.2141 4.72613ZM9.66223 5.2911C9.34311 5.36846 9.0948 5.60602 9.01153 5.91368C8.86686 6.44813 9.24551 6.98117 9.79417 7.0154C10.2591 7.04441 10.644 6.73955 10.7253 6.278C10.8044 5.82934 10.4718 5.36623 10.0101 5.28189C9.86479 5.25534 9.80297 5.25698 9.66223 5.2911ZM5.06475 5.73075C4.61216 5.76774 4.50837 5.78584 4.3835 5.84954C4.22121 5.93233 4.13228 6.04563 3.61138 6.83305C3.32739 7.26238 3.07605 7.64948 3.05286 7.69327C3.02066 7.75407 3.01058 7.80762 3.01022 7.91955C3.00985 8.04582 3.01779 8.08062 3.06743 8.17026C3.13417 8.29073 3.23619 8.37859 3.35578 8.41853C3.42325 8.44109 4.16074 8.56471 4.22776 8.56471C4.23736 8.56471 4.27406 8.44375 4.30933 8.29589C4.5026 7.48553 4.85034 6.71663 5.37026 5.95006C5.55587 5.67638 5.54782 5.69038 5.51808 5.69329C5.50411 5.69466 5.30012 5.71151 5.06475 5.73075ZM5.06633 7.79966C4.91564 8.21923 4.78641 8.77511 4.80377 8.92914C4.82338 9.10316 4.86151 9.14686 5.87824 10.161C6.83517 11.1155 6.86418 11.1424 6.97437 11.1766C7.07548 11.2079 7.10545 11.209 7.25603 11.1872C7.48268 11.1545 7.88702 11.049 8.15965 10.9515C8.2824 10.9076 8.38759 10.8669 8.39341 10.8611C8.40438 10.8501 5.16993 7.60674 5.14802 7.60674C5.14121 7.60674 5.10446 7.69354 5.06633 7.79966ZM4.1437 9.72105C4.12219 9.73274 3.86467 9.98101 3.57144 10.2728C2.99208 10.8492 2.97695 10.8698 3.01906 11.0263C3.04409 11.1191 3.14886 11.2167 3.24242 11.2342C3.39196 11.2623 3.40905 11.2497 3.96506 10.6983C4.25445 10.4114 4.50242 10.1494 4.51736 10.1147C4.58121 9.96653 4.52536 9.80205 4.38768 9.73288C4.3112 9.69444 4.20239 9.68918 4.1437 9.72105ZM10.0869 10.6108C9.29146 11.1534 8.47996 11.517 7.62854 11.7125C7.5237 11.7365 7.43793 11.7644 7.43793 11.7743C7.43793 11.8417 7.56143 12.579 7.58411 12.6469C7.62405 12.7664 7.71191 12.8685 7.83238 12.9352C7.92201 12.9848 7.95681 12.9928 8.08309 12.9924C8.19548 12.9921 8.24852 12.982 8.31024 12.9493C8.35455 12.9259 8.74164 12.6746 9.17046 12.391C10.0726 11.7944 10.1396 11.7347 10.2127 11.4631C10.2303 11.3978 10.3147 10.4811 10.3044 10.4675C10.303 10.4657 10.2051 10.5302 10.0869 10.6108ZM5.00391 10.6087C4.9192 10.6522 3.0828 12.4902 3.03779 12.5766C3.01701 12.6165 3 12.6763 3 12.7094C3 12.8064 3.06915 12.919 3.15589 12.9633C3.25271 13.0127 3.33314 13.0132 3.426 12.965C3.46588 12.9443 3.92674 12.4978 4.45013 11.9728C5.47652 10.9433 5.44841 10.9772 5.41613 10.8052C5.38252 10.6261 5.16872 10.5242 5.00391 10.6087ZM5.86413 11.495C5.83187 11.5153 5.57531 11.7638 5.294 12.0473C4.86061 12.484 4.78047 12.5737 4.76913 12.6345C4.72848 12.8527 4.91967 13.0401 5.1261 12.9844C5.2311 12.956 6.27367 11.9109 6.29412 11.8134C6.32239 11.6788 6.26297 11.5471 6.14684 11.4871C6.06917 11.4469 5.9349 11.4507 5.86413 11.495Z" fill="white"/>
</svg>
