<svg width="10" height="11" viewBox="0 0 10 11" fill="none" xmlns="http://www.w3.org/2000/svg">
<path d="M7.28238 0.325493C7.02362 0.11495 6.70022 0 6.36663 0H1.14706C0.510442 0 0 0.525 0 1.16667V9.33333C0 9.975 0.510442 10.5 1.14706 10.5H8.60294C9.23382 10.5 9.75 9.975 9.75 9.33333V3.02331C9.75 2.58675 9.55343 2.17339 9.21481 1.89786L7.28238 0.325493ZM8.8897 9.625H0.860294V0.875H6.59559L8.8897 2.625V9.625ZM4.875 5.83333C4.30147 5.83333 3.72794 6.18486 3.72794 7C3.72794 7.81514 4.30147 8.16667 4.875 8.16667C5.44853 8.16667 6.02206 7.78465 6.02206 7C6.02206 6.21535 5.44853 5.83333 4.875 5.83333ZM1.72059 2.47547C1.72059 2.0748 2.04539 1.75 2.44606 1.75H5.58335C5.98402 1.75 6.30882 2.0748 6.30882 2.47547L6.30882 3.02453C6.30882 3.4252 5.98402 3.75 5.58335 3.75H2.44606C2.04539 3.75 1.72059 3.4252 1.72059 3.02453L1.72059 2.47547Z" fill="currentColor"/>
</svg>
