<svg width="12" height="16" viewBox="0 0 12 16" fill="none" xmlns="http://www.w3.org/2000/svg">
<path d="M8.84915 3.05779C8.5904 2.84725 8.26699 2.7323 7.9334 2.7323H2.71383C2.07721 2.7323 1.56677 3.2573 1.56677 3.89897V12.0656C1.56677 12.7073 2.07721 13.2323 2.71383 13.2323H10.1697C10.8006 13.2323 11.3168 12.7073 11.3168 12.0656V5.75561C11.3168 5.31905 11.1202 4.90569 10.7816 4.63016L8.84915 3.05779ZM10.4565 12.3573H2.42707V3.6073H8.16236L10.4565 5.3573V12.3573ZM6.44177 8.56563C5.86824 8.56563 5.29471 8.91716 5.29471 9.7323C5.29471 10.5474 5.86824 10.899 6.44177 10.899C7.0153 10.899 7.58883 10.5169 7.58883 9.7323C7.58883 8.94765 7.0153 8.56563 6.44177 8.56563ZM3.28736 5.20777C3.28736 4.8071 3.61216 4.4823 4.01283 4.4823H7.15013C7.55079 4.4823 7.8756 4.8071 7.8756 5.20777V5.75683C7.8756 6.1575 7.55079 6.4823 7.15013 6.4823H4.01283C3.61216 6.4823 3.28736 6.1575 3.28736 5.75683V5.20777Z" fill="#F6F6F8"/>
</svg>
