<svg width="16" height="16" viewBox="0 0 16 16" fill="none" xmlns="http://www.w3.org/2000/svg">
<path fill-rule="evenodd" clip-rule="evenodd" d="M8.85749 0.485504C8.46909 -0.161835 7.53091 -0.161835 7.14251 0.485504L4.14251 5.4855C3.74259 6.15203 4.22271 7 5 7H11C11.7773 7 12.2574 6.15203 11.8575 5.4855L8.85749 0.485504ZM12.25 16C14.3211 16 16 14.3211 16 12.25C16 10.1789 14.3211 8.5 12.25 8.5C10.1789 8.5 8.5 10.1789 8.5 12.25C8.5 14.3211 10.1789 16 12.25 16ZM0 10C0 9.44771 0.447715 9 1 9H6C6.55228 9 7 9.44771 7 10V15C7 15.5523 6.55228 16 6 16H1C0.447715 16 0 15.5523 0 15V10Z" fill="currentColor"/>
</svg>
