<svg width="16" height="16" viewBox="0 0 16 16" fill="none" xmlns="http://www.w3.org/2000/svg">
    <path d="M12.8588 16C12.202 16 11.6437 15.7668 11.184 15.3005C10.7242 14.8342 10.4943 14.2791 10.4943 13.6355C10.4943 13.5435 10.5042 13.4319 10.5239 13.3005C10.5436 13.1691 10.5731 13.0509 10.6125 12.9458L4.81944 9.57635C4.62239 9.81281 4.3728 10.0033 4.07067 10.1478C3.76854 10.2923 3.45983 10.3645 3.14456 10.3645C2.48775 10.3645 1.92945 10.1346 1.46968 9.67488C1.00991 9.21511 0.780029 8.65681 0.780029 8C0.780029 7.34319 1.00991 6.78489 1.46968 6.32512C1.92945 5.86535 2.48775 5.63547 3.14456 5.63547C3.45983 5.63547 3.76197 5.69787 4.05097 5.82266C4.33996 5.94746 4.59612 6.12808 4.81944 6.36453L10.6125 3.03448C10.5731 2.94253 10.5436 2.83415 10.5239 2.70936C10.5042 2.58456 10.4943 2.46962 10.4943 2.36453C10.4943 1.70772 10.7242 1.14943 11.184 0.689655C11.6437 0.229885 12.202 0 12.8588 0C13.5157 0 14.074 0.229885 14.5337 0.689655C14.9935 1.14943 15.2234 1.70772 15.2234 2.36453C15.2234 3.02135 14.9935 3.57964 14.5337 4.03941C14.074 4.49918 13.5157 4.72906 12.8588 4.72906C12.5436 4.72906 12.2382 4.67652 11.9426 4.57143C11.647 4.46634 11.4007 4.30213 11.2037 4.07882L5.41057 7.27094C5.43684 7.37603 5.45983 7.50082 5.47954 7.64532C5.49924 7.78982 5.50909 7.90805 5.50909 8C5.50909 8.09195 5.49924 8.19048 5.47954 8.29557C5.45983 8.40066 5.43684 8.51232 5.41057 8.63054L11.2037 11.9015C11.4007 11.7176 11.6372 11.5665 11.913 11.4483C12.1889 11.33 12.5042 11.2709 12.8588 11.2709C13.5157 11.2709 14.074 11.5008 14.5337 11.9606C14.9935 12.4204 15.2234 12.9787 15.2234 13.6355C15.2234 14.2923 14.9935 14.8506 14.5337 15.3103C14.074 15.7701 13.5157 16 12.8588 16ZM12.8588 3.42857C13.161 3.42857 13.4139 3.32677 13.6175 3.12315C13.8211 2.91954 13.9229 2.66667 13.9229 2.36453C13.9229 2.0624 13.8211 1.80952 13.6175 1.60591C13.4139 1.4023 13.161 1.30049 12.8588 1.30049C12.5567 1.30049 12.3038 1.4023 12.1002 1.60591C11.8966 1.80952 11.7948 2.0624 11.7948 2.36453C11.7948 2.66667 11.8966 2.91954 12.1002 3.12315C12.3038 3.32677 12.5567 3.42857 12.8588 3.42857ZM3.14456 9.06404C3.4467 9.06404 3.69957 8.96223 3.90318 8.75862C4.10679 8.55501 4.2086 8.30213 4.2086 8C4.2086 7.69787 4.10679 7.44499 3.90318 7.24138C3.69957 7.03777 3.4467 6.93596 3.14456 6.93596C2.84243 6.93596 2.58955 7.03777 2.38594 7.24138C2.18233 7.44499 2.08052 7.69787 2.08052 8C2.08052 8.30213 2.18233 8.55501 2.38594 8.75862C2.58955 8.96223 2.84243 9.06404 3.14456 9.06404ZM12.8588 14.6995C13.161 14.6995 13.4139 14.5977 13.6175 14.3941C13.8211 14.1905 13.9229 13.9376 13.9229 13.6355C13.9229 13.3333 13.8211 13.0805 13.6175 12.8768C13.4139 12.6732 13.161 12.5714 12.8588 12.5714C12.5567 12.5714 12.3038 12.6732 12.1002 12.8768C11.8966 13.0805 11.7948 13.3333 11.7948 13.6355C11.7948 13.9376 11.8966 14.1905 12.1002 14.3941C12.3038 14.5977 12.5567 14.6995 12.8588 14.6995Z" fill="currentColor"/>
</svg>
