<svg width="40" height="41" viewBox="0 0 40 41" fill="none" xmlns="http://www.w3.org/2000/svg">
<g clip-path="url(#clip0_1061_38343)">
<path d="M4.64542 25.7336C2.94863 21.9213 3.76282 17.5573 5.41422 13.7467C7.00957 10.0654 9.81133 7.11866 13.4447 5.42912C17.2088 3.67882 21.4961 2.99686 25.404 4.45141C29.409 5.94213 32.6857 9.13727 34.1801 13.147C35.6129 16.9911 34.6479 21.1515 33.025 24.899C31.4614 28.5096 29.0485 31.7707 25.4404 33.3284C21.817 34.8927 17.7516 34.4603 14.0282 33.1004C10.1512 31.6845 6.32638 29.5104 4.64542 25.7336Z" fill="#D3ECDB"/>
<path d="M28.1816 31.1216H10.1816V26.1216L28.1816 31.1216Z" fill="#2B8473" stroke="#2B8473" stroke-width="2" stroke-linecap="round" stroke-linejoin="round"/>
<g filter="url(#filter0_d_1061_38343)">
<rect x="9.98438" y="10.0215" width="2" height="19.7569" rx="1" transform="rotate(-11.5322 9.98438 10.0215)" fill="#70C38A"/>
<rect x="10.5742" y="10.4114" width="1" height="18.7569" rx="0.5" transform="rotate(-11.5322 10.5742 10.4114)" stroke="#70C38A" stroke-linejoin="round"/>
</g>
<g filter="url(#filter1_d_1061_38343)">
<mask id="path-5-inside-1_1061_38343" fill="white">
<path d="M27.613 7.73713C27.7446 7.71028 27.8648 7.81819 27.8521 7.9519L26.9927 17.0553C26.9869 17.117 27.0099 17.1779 27.0552 17.2202L30.1936 20.1561C30.3122 20.2671 30.2561 20.4657 30.097 20.4982L14.0156 23.7794C13.9074 23.8014 13.8017 23.7316 13.7797 23.6234L11.2607 11.2777C11.2386 11.1695 11.3084 11.0639 11.4167 11.0418L27.613 7.73713Z"/>
</mask>
<path d="M27.613 7.73713C27.7446 7.71028 27.8648 7.81819 27.8521 7.9519L26.9927 17.0553C26.9869 17.117 27.0099 17.1779 27.0552 17.2202L30.1936 20.1561C30.3122 20.2671 30.2561 20.4657 30.097 20.4982L14.0156 23.7794C13.9074 23.8014 13.8017 23.7316 13.7797 23.6234L11.2607 11.2777C11.2386 11.1695 11.3084 11.0639 11.4167 11.0418L27.613 7.73713Z" fill="white"/>
<path d="M30.1936 20.1561L31.5599 18.6956L30.1936 20.1561ZM27.8521 7.9519L29.8433 8.13988L27.8521 7.9519ZM26.9927 17.0553L28.9838 17.2433L26.9927 17.0553ZM27.0552 17.2202L25.6888 18.6807L27.0552 17.2202ZM28.9838 17.2433L29.8433 8.13988L25.861 7.76391L25.0015 16.8673L28.9838 17.2433ZM31.5599 18.6956L28.4215 15.7596L25.6888 18.6807L28.8273 21.6167L31.5599 18.6956ZM29.6971 18.5385L13.6158 21.8197L14.4154 25.739L30.4968 22.4578L29.6971 18.5385ZM15.7393 23.2236L13.2203 10.8779L9.30106 11.6776L11.82 24.0232L15.7393 23.2236ZM11.8165 13.0014L28.0129 9.69676L27.2132 5.77751L11.0168 9.08218L11.8165 13.0014ZM13.2203 10.8779C13.4191 11.852 12.7905 12.8027 11.8165 13.0014L11.0168 9.08218C9.82633 9.32508 9.05816 10.4871 9.30106 11.6776L13.2203 10.8779ZM13.6158 21.8197C14.5898 21.621 15.5405 22.2495 15.7393 23.2236L11.82 24.0232C12.0629 25.2137 13.225 25.9819 14.4154 25.739L13.6158 21.8197ZM28.8273 21.6167C27.7598 20.6181 28.2649 18.8308 29.6971 18.5385L30.4968 22.4578C32.2473 22.1006 32.8646 19.9161 31.5599 18.6956L28.8273 21.6167ZM29.8433 8.13988C29.9822 6.66909 28.6607 5.48217 27.2132 5.77751L28.0129 9.69676C26.8286 9.9384 25.7474 8.96729 25.861 7.76391L29.8433 8.13988ZM25.0015 16.8673C24.9375 17.5456 25.1913 18.2153 25.6888 18.6807L28.4215 15.7596C28.8285 16.1404 29.0362 16.6883 28.9838 17.2433L25.0015 16.8673Z" fill="white" mask="url(#path-5-inside-1_1061_38343)"/>
</g>
</g>
<defs>
<filter id="filter0_d_1061_38343" x="2.16406" y="5.80127" width="21.5508" height="35.3987" filterUnits="userSpaceOnUse" color-interpolation-filters="sRGB">
<feFlood flood-opacity="0" result="BackgroundImageFix"/>
<feColorMatrix in="SourceAlpha" type="matrix" values="0 0 0 0 0 0 0 0 0 0 0 0 0 0 0 0 0 0 127 0" result="hardAlpha"/>
<feOffset dy="4"/>
<feGaussianBlur stdDeviation="4"/>
<feColorMatrix type="matrix" values="0 0 0 0 0.184314 0 0 0 0 0.223529 0 0 0 0 0.254902 0 0 0 0.15 0"/>
<feBlend mode="normal" in2="BackgroundImageFix" result="effect1_dropShadow_1061_38343"/>
<feBlend mode="normal" in="SourceGraphic" in2="effect1_dropShadow_1061_38343" result="shape"/>
</filter>
<filter id="filter1_d_1061_38343" x="3.25586" y="3.73291" width="35.002" height="32.0505" filterUnits="userSpaceOnUse" color-interpolation-filters="sRGB">
<feFlood flood-opacity="0" result="BackgroundImageFix"/>
<feColorMatrix in="SourceAlpha" type="matrix" values="0 0 0 0 0 0 0 0 0 0 0 0 0 0 0 0 0 0 127 0" result="hardAlpha"/>
<feOffset dy="4"/>
<feGaussianBlur stdDeviation="4"/>
<feColorMatrix type="matrix" values="0 0 0 0 0.184314 0 0 0 0 0.223529 0 0 0 0 0.254902 0 0 0 0.15 0"/>
<feBlend mode="normal" in2="BackgroundImageFix" result="effect1_dropShadow_1061_38343"/>
<feBlend mode="normal" in="SourceGraphic" in2="effect1_dropShadow_1061_38343" result="shape"/>
</filter>
<clipPath id="clip0_1061_38343">
<rect width="40" height="40" fill="white" transform="translate(0 0.00195312)"/>
</clipPath>
</defs>
</svg>
