<svg width="40" height="40" viewBox="0 0 40 40" fill="none" xmlns="http://www.w3.org/2000/svg">
<g clip-path="url(#clip0_1061_38335)">
<path d="M13.0104 4.71226C16.9937 2.98163 21.5456 3.82936 25.5176 5.53469C29.3548 7.18214 32.422 10.0656 34.1749 13.7989C35.9908 17.6666 36.6903 22.0681 35.1613 26.0744C33.5942 30.1803 30.2505 33.5339 26.0618 35.0563C22.046 36.5159 17.7071 35.514 13.8008 33.8381C10.0372 32.2234 6.64094 29.7381 5.02557 26.0311C3.40337 22.3083 3.86621 18.1376 5.29591 14.3204C6.78458 10.3458 9.06428 6.42674 13.0104 4.71226Z" fill="#D3ECDB"/>
<circle opacity="0.4" cx="20" cy="20.001" r="12" fill="#D4A181"/>
<g filter="url(#filter0_d_1061_38335)">
<circle cx="20" cy="20.001" r="12" fill="white"/>
<circle cx="20" cy="20.001" r="11" stroke="white" stroke-width="2" stroke-linejoin="round"/>
</g>
<circle cx="20" cy="20.001" r="8" fill="white" stroke="#70C38A" stroke-width="2" stroke-linejoin="round"/>
<circle cx="20" cy="20.001" r="4" fill="#70C38A"/>
<path d="M27.5871 14.8489L30.6066 11.8294L27.9693 11.6383L27.7782 9.00098L24.7586 12.0205L24.9497 14.6578L27.5871 14.8489Z" fill="#2B8473"/>
<path d="M24.9497 14.6578L27.5871 14.8489L30.6066 11.8294L27.9693 11.6383L27.7782 9.00098L24.7586 12.0205L24.9497 14.6578ZM24.9497 14.6578L20 19.6076" stroke="#2B8473" stroke-width="2" stroke-linecap="round" stroke-linejoin="round"/>
</g>
<defs>
<filter id="filter0_d_1061_38335" x="0" y="4.00098" width="40" height="40" filterUnits="userSpaceOnUse" color-interpolation-filters="sRGB">
<feFlood flood-opacity="0" result="BackgroundImageFix"/>
<feColorMatrix in="SourceAlpha" type="matrix" values="0 0 0 0 0 0 0 0 0 0 0 0 0 0 0 0 0 0 127 0" result="hardAlpha"/>
<feOffset dy="4"/>
<feGaussianBlur stdDeviation="4"/>
<feColorMatrix type="matrix" values="0 0 0 0 0.184314 0 0 0 0 0.223529 0 0 0 0 0.254902 0 0 0 0.15 0"/>
<feBlend mode="normal" in2="BackgroundImageFix" result="effect1_dropShadow_1061_38335"/>
<feBlend mode="normal" in="SourceGraphic" in2="effect1_dropShadow_1061_38335" result="shape"/>
</filter>
<clipPath id="clip0_1061_38335">
<rect width="40" height="40" fill="white" transform="translate(0 0.000976562)"/>
</clipPath>
</defs>
</svg>
