<svg width="40" height="41" viewBox="0 0 40 41" fill="none" xmlns="http://www.w3.org/2000/svg">
<g clip-path="url(#clip0_1061_38349)">
<path d="M35.7259 24.0275C34.7539 28.0857 31.4533 31.0544 27.8247 33.0746C24.3193 35.0263 20.3031 35.6611 16.3914 34.7922C12.339 33.892 8.52121 31.8256 6.30403 28.2942C4.03172 24.6749 3.37431 20.1457 4.62695 16.054C5.82786 12.1313 9.1243 9.41588 12.6919 7.4284C16.1292 5.5135 20.0279 4.39268 23.8393 5.35084C27.6669 6.31307 30.6308 9.12907 32.7591 12.4732C34.9752 15.9552 36.6888 20.0073 35.7259 24.0275Z" fill="#D3ECDB"/>
<path d="M13.0276 22.1191C13.0334 22.119 13.0392 22.119 13.045 22.1188C13.0507 22.119 13.0565 22.119 13.0623 22.1191C13.1459 22.1194 13.2293 22.1217 13.3125 22.1261C13.4742 22.1347 13.5431 22.1842 13.5711 22.2109C13.603 22.2413 13.6359 22.2945 13.6465 22.3844C13.6684 22.5695 13.5807 22.8614 13.285 23.0721L13.283 23.0732C13.2383 23.0994 13.1941 23.1254 13.1502 23.1511C12.1168 23.7575 11.2978 24.2381 10.3921 24.2381H9.18929C9.31658 24.0474 9.44716 23.8613 9.58181 23.6854C9.90613 23.2619 10.2049 22.9652 10.469 22.8139C11.264 22.3585 12.141 22.122 13.0276 22.1191ZM12.9551 20.5575C12.9571 20.5691 12.9584 20.5799 12.9591 20.59C11.3931 20.5392 10.021 19.1 10.021 17.1786C10.021 15.6278 10.9145 14.3915 12.0827 13.9453C11.8316 14.6933 11.6952 15.4999 11.6952 16.3392C11.6952 17.8495 12.1369 19.2543 12.8938 20.4016C12.9256 20.4498 12.9463 20.5045 12.9551 20.5575Z" fill="#2B8473" stroke="#2B8473" stroke-width="1.52778" stroke-linejoin="round"/>
<path d="M30.8112 24.2381C30.684 24.0474 30.5534 23.8613 30.4187 23.6854C30.0944 23.2619 29.7956 22.9652 29.5315 22.8139C28.7367 22.3586 27.8599 22.1222 26.9735 22.1191C26.9677 22.119 26.9619 22.119 26.9561 22.1188C26.9504 22.119 26.9446 22.119 26.9388 22.1191C26.6685 22.12 26.3993 22.1426 26.1333 22.1864C26.0239 22.2044 25.9694 22.2437 25.9397 22.2744C25.9069 22.3083 25.8761 22.3617 25.8625 22.441C25.8342 22.6067 25.8915 22.8474 26.0979 23.0365M30.8112 24.2381L26.0979 23.0365M30.8112 24.2381H28.0681C27.7166 24.2381 27.3432 24.0698 27.0083 23.7528C26.7794 23.5361 26.5348 23.3359 26.2745 23.1672L25.859 23.8082M30.8112 24.2381L25.859 23.8082M26.0979 23.0365C26.1386 23.0738 26.1936 23.1148 26.2745 23.1672L25.859 23.8082M26.0979 23.0365L25.859 23.8082M26.9718 20.5913C26.9666 20.5913 26.9614 20.5914 26.9562 20.5915C26.9511 20.5914 26.9458 20.5913 26.9406 20.5913C26.9004 20.5911 26.8798 20.585 26.8729 20.5825C26.8665 20.5802 26.8645 20.5786 26.863 20.5773C26.8599 20.5747 26.8313 20.5483 26.808 20.4643C26.7569 20.2804 26.7787 19.9767 26.92 19.6972C27.4249 18.6986 27.7102 17.553 27.7102 16.3392C27.7102 15.4393 27.5534 14.5769 27.2665 13.7841C28.7373 13.9575 29.9806 15.3492 29.9806 17.1786C29.9806 19.1289 28.567 20.5823 26.9718 20.5913Z" fill="#70C38A" stroke="#70C38A" stroke-width="1.52778" stroke-linejoin="round"/>
<g filter="url(#filter0_d_1061_38349)">
<path d="M25.6953 17.002C25.6953 20.3157 23.009 23.002 19.6953 23.002C16.3816 23.002 13.6953 20.3157 13.6953 17.002C13.6953 13.6882 16.3816 11.002 19.6953 11.002C23.009 11.002 25.6953 13.6882 25.6953 17.002Z" fill="white"/>
<path d="M13.6297 28.002C12.8179 28.002 12.3276 27.0739 12.81 26.4209C13.4208 25.5941 14.1103 24.7782 14.8615 24.2842C14.9689 24.2137 15.0774 24.1497 15.1872 24.0931C16.5796 23.3762 18.1262 23.002 19.6953 23.002C21.0683 23.002 22.423 23.2885 23.6732 23.8404C23.8518 23.9193 24.0283 24.0035 24.2023 24.0931C25.0257 24.5171 25.7811 25.3615 26.4475 26.244C26.4919 26.3029 26.5359 26.3619 26.5796 26.4209C27.0619 27.0739 26.5717 28.002 25.7599 28.002L19.9371 27.2911C19.7762 27.2714 19.6134 27.2714 19.4524 27.2911L13.6297 28.002Z" fill="white"/>
<path d="M19.6953 24.002C20.9291 24.002 22.1463 24.2595 23.2694 24.7552C23.4298 24.8261 23.5882 24.9017 23.7446 24.9822L24.2023 24.0931L23.7446 24.9822C24.3506 25.2943 24.9907 25.9744 25.6494 26.8467L26.4475 26.244L25.6495 26.8467C25.6865 26.8957 25.7233 26.945 25.76 26.9945L20.0583 26.2984C19.8169 26.269 19.5727 26.269 19.3312 26.2984L13.6295 26.9945C14.2264 26.1887 14.823 25.5064 15.411 25.1198C15.4916 25.0667 15.5696 25.021 15.645 24.9822C16.8955 24.3384 18.2851 24.002 19.6953 24.002ZM26.5485 26.4439L25.797 26.9991L25.797 26.9991L26.5485 26.4439ZM25.7653 27.0016C25.7652 27.0016 25.7652 27.0016 25.7652 27.0016C25.7649 27.0017 25.7641 27.0018 25.7626 27.0019L25.7653 27.0016ZM24.6953 17.002C24.6953 19.7634 22.4567 22.002 19.6953 22.002C16.9339 22.002 14.6953 19.7634 14.6953 17.002C14.6953 14.2405 16.9339 12.002 19.6953 12.002C22.4567 12.002 24.6953 14.2405 24.6953 17.002Z" stroke="white" stroke-width="2" stroke-linejoin="round"/>
</g>
</g>
<defs>
<filter id="filter0_d_1061_38349" x="4.61914" y="7.00195" width="30.1504" height="33" filterUnits="userSpaceOnUse" color-interpolation-filters="sRGB">
<feFlood flood-opacity="0" result="BackgroundImageFix"/>
<feColorMatrix in="SourceAlpha" type="matrix" values="0 0 0 0 0 0 0 0 0 0 0 0 0 0 0 0 0 0 127 0" result="hardAlpha"/>
<feOffset dy="4"/>
<feGaussianBlur stdDeviation="4"/>
<feColorMatrix type="matrix" values="0 0 0 0 0.184314 0 0 0 0 0.223529 0 0 0 0 0.254902 0 0 0 0.15 0"/>
<feBlend mode="normal" in2="BackgroundImageFix" result="effect1_dropShadow_1061_38349"/>
<feBlend mode="normal" in="SourceGraphic" in2="effect1_dropShadow_1061_38349" result="shape"/>
</filter>
<clipPath id="clip0_1061_38349">
<rect width="40" height="40" fill="white" transform="translate(0 0.00195312)"/>
</clipPath>
</defs>
</svg>
