<svg width="36" height="36" viewBox="0 0 36 36" fill="none" xmlns="http://www.w3.org/2000/svg">
<g opacity="0.3">
<path opacity="0.3" d="M18 36.001C27.9411 36.001 36 27.9421 36 18.001C36 8.05985 27.9411 0.000976562 18 0.000976562C8.05887 0.000976562 0 8.05985 0 18.001C0 27.9421 8.05887 36.001 18 36.001Z" fill="#A81897"/>
</g>
<path fill-rule="evenodd" clip-rule="evenodd" d="M24.75 15.001H21.75C20.505 15.001 19.5 13.996 19.5 12.751V9.75098C19.5 9.33098 19.17 9.00098 18.75 9.00098H12C11.175 9.00098 10.5 9.67598 10.5 10.501V25.501C10.5 26.326 11.175 27.001 12 27.001H24C24.825 27.001 25.5 26.326 25.5 25.501V15.751C25.5 15.331 25.17 15.001 24.75 15.001ZM21.75 24.001H14.25C13.83 24.001 13.5 23.671 13.5 23.251C13.5 22.831 13.83 22.501 14.25 22.501H21.75C22.17 22.501 22.5 22.831 22.5 23.251C22.5 23.671 22.17 24.001 21.75 24.001ZM21.75 21.001H14.25C13.83 21.001 13.5 20.671 13.5 20.251C13.5 19.831 13.83 19.501 14.25 19.501H21.75C22.17 19.501 22.5 19.831 22.5 20.251C22.5 20.671 22.17 21.001 21.75 21.001ZM21.75 18.001H14.25C13.83 18.001 13.5 17.671 13.5 17.251C13.5 16.831 13.83 16.501 14.25 16.501H21.75C22.17 16.501 22.5 16.831 22.5 17.251C22.5 17.671 22.17 18.001 21.75 18.001ZM21 9.75098V12.001C21 12.826 21.675 13.501 22.5 13.501H24.75C25.425 13.501 25.755 12.691 25.275 12.226L22.275 9.22598C21.81 8.74598 21 9.09098 21 9.75098Z" fill="#A81897"/>
</svg>
