<svg width="16" height="16" viewBox="0 0 16 16" fill="none" xmlns="http://www.w3.org/2000/svg">
<path fill-rule="evenodd" clip-rule="evenodd" d="M9.71344 4.06348V1.43848C9.71344 1.19348 9.52489 1.00098 9.28492 1.00098H2.85705C2.38567 1.00098 2 1.39473 2 1.87598V14.126C2 14.6072 2.38567 15.001 2.85705 15.001H13.1416C13.613 15.001 13.9987 14.6072 13.9987 14.126V5.81348C13.9987 5.56848 13.8101 5.37598 13.5702 5.37598H10.999C10.2877 5.37598 9.71344 4.78973 9.71344 4.06348ZM10.999 12.376H4.99967C4.7597 12.376 4.57115 12.1835 4.57115 11.9385C4.57115 11.6935 4.7597 11.501 4.99967 11.501H10.999C11.239 11.501 11.4275 11.6935 11.4275 11.9385C11.4275 12.1835 11.239 12.376 10.999 12.376ZM10.999 10.626H4.99967C4.7597 10.626 4.57115 10.4335 4.57115 10.1885C4.57115 9.94348 4.7597 9.75098 4.99967 9.75098H10.999C11.239 9.75098 11.4275 9.94348 11.4275 10.1885C11.4275 10.4335 11.239 10.626 10.999 10.626ZM11.4275 8.43848C11.4275 8.68348 11.239 8.87598 10.999 8.87598H4.99967C4.7597 8.87598 4.57115 8.68348 4.57115 8.43848V7.56348C4.57115 7.31848 4.7597 7.12598 4.99967 7.12598H10.999C11.239 7.12598 11.4275 7.31848 11.4275 7.56348V8.43848ZM10.5705 1.43848V3.62598C10.5705 4.10723 10.9562 4.50098 11.4275 4.50098H13.5702C13.9558 4.50098 14.1444 4.02848 13.8701 3.75723L11.299 1.13223C11.0333 0.852227 10.5705 1.05348 10.5705 1.43848Z" fill="#A81897"/>
</svg>
