<svg width="12" height="12" viewBox="0 0 12 12" fill="none" xmlns="http://www.w3.org/2000/svg">
<path d="M6.18041 1.56951C6.2291 1.36445 6.5209 1.36445 6.56959 1.56951L6.88787 2.90992C7.23567 4.37306 8.37694 5.51433 9.84008 5.86214L11.1805 6.18041C11.3855 6.2291 11.3855 6.5209 11.1805 6.56959L9.84008 6.88787C8.37694 7.23567 7.23567 8.37694 6.88787 9.84008L6.56959 11.1805C6.5209 11.3855 6.2291 11.3855 6.18041 11.1805L5.86214 9.84008C5.51433 8.37694 4.37306 7.23567 2.90992 6.88787L1.56951 6.56959C1.36445 6.5209 1.36445 6.2291 1.56951 6.18041L2.90992 5.86214C4.37306 5.51433 5.51433 4.37306 5.86214 2.90992L6.18041 1.56951Z" fill="currentColor"/>
<path d="M2.15271 0.409083C2.17709 0.306598 2.32291 0.306598 2.34729 0.409083L2.45546 0.86396C2.59525 1.45004 3.05165 1.90644 3.63604 2.04454L4.09092 2.15271C4.1934 2.17709 4.1934 2.32291 4.09092 2.34729L3.63604 2.45546C3.04996 2.59525 2.59356 3.05165 2.45546 3.63604L2.34729 4.09092C2.32291 4.1934 2.17709 4.1934 2.15271 4.09092L2.04454 3.63604C1.90475 3.04996 1.44835 2.59356 0.86396 2.45546L0.409083 2.34729C0.306598 2.32291 0.306598 2.17709 0.409083 2.15271L0.86396 2.04454C1.45004 1.90475 1.90644 1.44835 2.04454 0.86396L2.15271 0.409083Z" fill="currentColor"/>
</svg>
