<svg width="21" height="21" viewBox="0 0 21 21" fill="currentColor" xmlns="http://www.w3.org/2000/svg">
<g clip-path="url(#clip0_126_555)">
<path d="M7.87503 16.4062C7.87503 16.2322 7.94417 16.0653 8.06724 15.9422C8.19031 15.8191 8.35723 15.75 8.53128 15.75H12.4688C12.6428 15.75 12.8097 15.8191 12.9328 15.9422C13.0559 16.0653 13.125 16.2322 13.125 16.4062C13.125 16.5803 13.0559 16.7472 12.9328 16.8703C12.8097 16.9934 12.6428 17.0625 12.4688 17.0625H8.53128C8.35723 17.0625 8.19031 16.9934 8.06724 16.8703C7.94417 16.7472 7.87503 16.5803 7.87503 16.4062ZM3.93753 10.5814C3.93753 8.87249 5.55847 7.56656 7.25816 7.72537C9.41473 7.92649 11.5853 7.92649 13.7419 7.72537C15.4416 7.56656 17.0625 8.87249 17.0625 10.5814V12.0999C17.0687 12.3905 16.971 12.6738 16.7869 12.8988C16.6028 13.1237 16.3445 13.2756 16.0585 13.3271C14.9494 13.5201 12.9872 13.7812 10.5 13.7812C8.01284 13.7812 6.05066 13.5187 4.94159 13.3271C4.65553 13.2756 4.39723 13.1237 4.21317 12.8988C4.02911 12.6738 3.93137 12.3905 3.93753 12.0999V10.5814ZM9.89891 9.49593C9.84776 9.48723 9.79527 9.49078 9.74576 9.5063C9.69625 9.52181 9.65113 9.54885 9.61409 9.58518L8.40659 10.7664C7.58531 10.7172 6.76617 10.6371 5.95091 10.5262C5.86643 10.5179 5.78198 10.5425 5.71531 10.5951C5.64864 10.6476 5.60494 10.724 5.59339 10.8081C5.58183 10.8922 5.60333 10.9775 5.65335 11.0461C5.70338 11.1147 5.77804 11.1612 5.86166 11.1759C6.58353 11.2757 7.47866 11.3715 8.51291 11.4292C8.55846 11.4318 8.60405 11.4249 8.64676 11.4088C8.68947 11.3928 8.72837 11.368 8.76097 11.3361L9.75059 10.3701L10.8623 12.6144C10.8857 12.6615 10.9201 12.7023 10.9626 12.7333C11.005 12.7643 11.0543 12.7847 11.1063 12.7926C11.1583 12.8006 11.2114 12.796 11.2612 12.7791C11.311 12.7623 11.3561 12.7337 11.3925 12.6958L12.6158 11.4227C13.4595 11.373 14.301 11.2906 15.1384 11.1759C15.222 11.1612 15.2967 11.1147 15.3467 11.0461C15.3967 10.9775 15.4182 10.8922 15.4067 10.8081C15.3951 10.724 15.3514 10.6476 15.2847 10.5951C15.2181 10.5425 15.1336 10.5179 15.0492 10.5262C14.343 10.6234 13.465 10.7166 12.4504 10.7743C12.3678 10.7789 12.29 10.8145 12.2325 10.8741L11.2429 11.9044L10.1378 9.67312C10.1147 9.62686 10.0811 9.5867 10.0396 9.55591C9.99806 9.52511 9.94986 9.50457 9.89891 9.49593Z" fill="currentColor"/>
<path d="M11.1562 2.44916C11.4065 2.3047 11.602 2.0817 11.7126 1.81477C11.8232 1.54784 11.8426 1.25188 11.7678 0.9728C11.693 0.693719 11.5282 0.447111 11.299 0.271224C11.0698 0.0953366 10.7889 0 10.5 0C10.2111 0 9.93022 0.0953366 9.701 0.271224C9.47178 0.447111 9.307 0.693719 9.23222 0.9728C9.15744 1.25188 9.17684 1.54784 9.28741 1.81477C9.39798 2.0817 9.59353 2.3047 9.84375 2.44916V3.93753H7.21875C5.65232 3.93753 4.15004 4.5598 3.0424 5.66743C1.93476 6.77507 1.3125 8.27735 1.3125 9.84378V10.5C0.964403 10.5 0.630564 10.6383 0.384422 10.8845C0.138281 11.1306 0 11.4644 0 11.8125L0 14.4375C0 14.7856 0.138281 15.1195 0.384422 15.3656C0.630564 15.6118 0.964403 15.75 1.3125 15.75V17.0625C1.3125 17.7587 1.58906 18.4264 2.08134 18.9187C2.57363 19.411 3.24131 19.6875 3.9375 19.6875H17.0625C17.7587 19.6875 18.4264 19.411 18.9187 18.9187C19.4109 18.4264 19.6875 17.7587 19.6875 17.0625V15.75C20.0356 15.75 20.3694 15.6118 20.6156 15.3656C20.8617 15.1195 21 14.7856 21 14.4375V11.8125C21 11.4644 20.8617 11.1306 20.6156 10.8845C20.3694 10.6383 20.0356 10.5 19.6875 10.5V9.84378C19.6875 8.27735 19.0652 6.77507 17.9576 5.66743C16.85 4.5598 15.3477 3.93753 13.7812 3.93753H11.1562V2.44916ZM18.375 9.84378V17.0625C18.375 17.4106 18.2367 17.7445 17.9906 17.9906C17.7444 18.2368 17.4106 18.375 17.0625 18.375H3.9375C3.5894 18.375 3.25556 18.2368 3.00942 17.9906C2.76328 17.7445 2.625 17.4106 2.625 17.0625V9.84378C2.625 8.62544 3.10898 7.45701 3.97048 6.59551C4.83197 5.73402 6.00041 5.25003 7.21875 5.25003H13.7812C14.9996 5.25003 16.168 5.73402 17.0295 6.59551C17.891 7.45701 18.375 8.62544 18.375 9.84378Z" fill="currentColor"/>
</g>
<defs>
<clipPath id="clip0_126_555">
<rect width="21" height="21" fill="currentColor"/>
</clipPath>
</defs>
</svg>
