<svg width="24" height="24" viewBox="0 0 24 24" fill="none" xmlns="http://www.w3.org/2000/svg">
<g opacity="0.3">
<path d="M12 24C18.6274 24 24 18.6274 24 12C24 5.37258 18.6274 0 12 0C5.37258 0 0 5.37258 0 12C0 18.6274 5.37258 24 12 24Z" fill="#FDEDCE"/>
</g>
<path d="M10.9125 12.75L12 11.9437L13.0687 12.75C13.1812 12.8375 13.2937 12.8437 13.4062 12.7687C13.5187 12.6937 13.5562 12.5875 13.5187 12.45L13.1062 11.1187L14.25 10.2375C14.35 10.15 14.3781 10.0437 14.3344 9.91875C14.2906 9.79375 14.2 9.73125 14.0625 9.73125H12.6937L12.2625 8.34375C12.225 8.20625 12.1406 8.1375 12.0094 8.1375C11.8781 8.1375 11.7875 8.20625 11.7375 8.34375L11.2875 9.73125H9.9375C9.8 9.73125 9.70937 9.79375 9.66562 9.91875C9.62187 10.0437 9.65 10.15 9.75 10.2375L10.8937 11.1187L10.4812 12.45C10.4437 12.5875 10.4812 12.6937 10.5937 12.7687C10.7062 12.8437 10.8125 12.8375 10.9125 12.75ZM8.325 20.0062C8.15 20.0687 7.98125 20.0437 7.81875 19.9312C7.65625 19.8187 7.575 19.6625 7.575 19.4625V14.55C7.0125 13.9625 6.60938 13.3187 6.36563 12.6187C6.12188 11.9187 6 11.2125 6 10.5C6 8.8 6.575 7.375 7.725 6.225C8.875 5.075 10.3 4.5 12 4.5C13.7 4.5 15.125 5.075 16.275 6.225C17.425 7.375 18 8.8 18 10.5C18 11.2125 17.8781 11.9187 17.6344 12.6187C17.3906 13.3187 16.9875 13.9625 16.425 14.55V19.4625C16.425 19.6625 16.3437 19.8187 16.1812 19.9312C16.0187 20.0437 15.85 20.0687 15.675 20.0062L12 18.7687L8.325 20.0062ZM12 15.375C13.3625 15.375 14.5156 14.9031 15.4594 13.9594C16.4031 13.0156 16.875 11.8625 16.875 10.5C16.875 9.1375 16.4031 7.98437 15.4594 7.04062C14.5156 6.09687 13.3625 5.625 12 5.625C10.6375 5.625 9.48437 6.09687 8.54062 7.04062C7.59687 7.98437 7.125 9.1375 7.125 10.5C7.125 11.8625 7.59687 13.0156 8.54062 13.9594C9.48437 14.9031 10.6375 15.375 12 15.375ZM8.7 18.675L12 17.6437L15.3 18.675V15.4687C14.8 15.8312 14.2625 16.0937 13.6875 16.2562C13.1125 16.4187 12.55 16.5 12 16.5C11.45 16.5 10.8875 16.4187 10.3125 16.2562C9.7375 16.0937 9.2 15.8312 8.7 15.4687V18.675Z" fill="#D1820A"/>
</svg>
