<svg width="16" height="16" viewBox="0 0 16 16" fill="none" xmlns="http://www.w3.org/2000/svg">
<path fill-rule="evenodd" clip-rule="evenodd" d="M13.4701 5.25681C14.3101 4.87014 14.8568 3.95014 14.6301 2.92347C14.4701 2.17681 13.8435 1.55014 13.0968 1.39014C12.0568 1.16347 11.1368 1.69681 10.7501 2.53681L8.36347 0.15014C8.26832 0.0540574 8.1387 0 8.00347 0C7.86825 0 7.73863 0.0540574 7.64347 0.15014L5.57681 2.21681C5.32347 2.47014 5.41681 2.89681 5.75014 3.04347C6.59044 3.41345 7.08299 4.29631 6.95645 5.20569C6.82992 6.11507 6.11507 6.82992 5.20569 6.95645C4.29631 7.08299 3.41345 6.59044 3.04347 5.75014C2.89681 5.41681 2.47014 5.32347 2.21681 5.57681L0.15014 7.64347C0.0540574 7.73863 0 7.86825 0 8.00347C0 8.1387 0.0540574 8.26832 0.15014 8.36347L2.53681 10.7501C1.69681 11.1368 1.16347 12.0568 1.37681 13.0835C1.53681 13.8301 2.16347 14.4568 2.91014 14.6168C3.93681 14.8435 4.85681 14.2968 5.24347 13.4568L7.63014 15.8435C7.83014 16.0435 8.15014 16.0435 8.35014 15.8435L10.4035 13.7901C10.6568 13.5368 10.5768 13.1101 10.2435 12.9635C9.53681 12.6435 9.03014 11.9235 9.03014 11.0835C9.02968 10.1119 9.7103 9.27291 10.6612 9.07307C11.612 8.87323 12.5728 9.3672 12.9635 10.2568C13.1101 10.5901 13.5368 10.6835 13.7901 10.4168L15.8435 8.36347C15.9396 8.26832 15.9936 8.1387 15.9936 8.00347C15.9936 7.86825 15.9396 7.73863 15.8435 7.64347L13.4701 5.25681Z" fill="currentColor"/>
</svg>
