<svg width="16" height="16" viewBox="0 0 16 16" fill="none" xmlns="http://www.w3.org/2000/svg">
<path fill-rule="evenodd" clip-rule="evenodd" d="M7.595 15.001C7.432 15.001 7.262 14.9627 7.113 14.8469C6.757 14.5731 6.829 14.1266 6.857 13.9578L6.963 13.3062C7.002 13.0108 6.974 12.9156 6.969 12.9028C6.97688 12.9244 6.9483 12.9158 6.8836 12.8962C6.83341 12.8811 6.76149 12.8593 6.668 12.84C2.821 12.3395 0 9.65652 0 6.46614C0 2.90186 3.589 0.000976562 8 0.000976562C12.411 0.000976562 16 2.90186 16 6.46614C16 7.90677 15.437 9.21197 14.277 10.4573C12.662 12.2787 9.079 14.4995 8.202 14.8577L8.19531 14.8604C8.08615 14.9049 7.85065 15.001 7.595 15.001ZM7.1348 3.12681C7.09564 3.24747 7.08228 3.37502 7.0956 3.50118L7.4456 7.00818C7.45736 7.14595 7.5204 7.27429 7.62225 7.36782C7.72409 7.46134 7.85733 7.51323 7.9956 7.51323C8.13387 7.51323 8.26711 7.46134 8.36896 7.36782C8.4708 7.27429 8.53384 7.14595 8.5456 7.00818L8.8956 3.50118C8.90892 3.37502 8.89556 3.24747 8.8564 3.12681C8.81724 3.00615 8.75315 2.89506 8.66828 2.80077C8.58342 2.70647 8.47968 2.63107 8.36379 2.57946C8.2479 2.52785 8.12246 2.50118 7.9956 2.50118C7.86874 2.50118 7.7433 2.52785 7.62741 2.57946C7.51152 2.63107 7.40778 2.70647 7.32292 2.80077C7.23806 2.89506 7.17396 3.00615 7.1348 3.12681ZM8.03999 10.2819C8.59227 10.2819 9.03999 9.83415 9.03999 9.28187C9.03999 8.72958 8.59227 8.28187 8.03999 8.28187C7.4877 8.28187 7.03999 8.72958 7.03999 9.28187C7.03999 9.83415 7.4877 10.2819 8.03999 10.2819Z" fill="currentColor"/>
</svg>
