<svg width="36" height="36" viewBox="0 0 36 36" fill="none" xmlns="http://www.w3.org/2000/svg">
<g opacity="0.3">
<path opacity="0.3" d="M18 36.001C27.9411 36.001 36 27.9421 36 18.001C36 8.05985 27.9411 0.000976562 18 0.000976562C8.05887 0.000976562 0 8.05985 0 18.001C0 27.9421 8.05887 36.001 18 36.001Z" fill="#02807A"/>
</g>
<path fill-rule="evenodd" clip-rule="evenodd" d="M17.5444 25.876C17.361 25.876 17.1698 25.8329 17.0021 25.7026C16.6016 25.3946 16.6826 24.8923 16.7141 24.7024L16.8334 23.9693C16.8772 23.637 16.8457 23.5299 16.8401 23.5156C16.849 23.5398 16.8168 23.5301 16.744 23.5081C16.6876 23.4911 16.6067 23.4666 16.5015 23.4449C12.1736 22.8819 9 19.8635 9 16.2743C9 12.2645 13.0376 9.00098 18 9.00098C22.9624 9.00098 27 12.2645 27 16.2743C27 17.895 26.3666 19.3633 25.0616 20.7643C23.2448 22.8134 19.2139 25.3118 18.2272 25.7148L18.2197 25.7179C18.0969 25.7679 17.832 25.876 17.5444 25.876ZM17.0266 12.5175C16.9826 12.6533 16.9676 12.7968 16.9826 12.9387L17.3763 16.8841C17.3895 17.0391 17.4604 17.1835 17.575 17.2887C17.6896 17.3939 17.8395 17.4523 17.9951 17.4523C18.1506 17.4523 18.3005 17.3939 18.4151 17.2887C18.5297 17.1835 18.6006 17.0391 18.6138 16.8841L19.0075 12.9387C19.0225 12.7968 19.0075 12.6533 18.9634 12.5175C18.9194 12.3818 18.8473 12.2568 18.7518 12.1507C18.6563 12.0447 18.5396 11.9598 18.4093 11.9018C18.2789 11.8437 18.1378 11.8137 17.9951 11.8137C17.8523 11.8137 17.7112 11.8437 17.5808 11.9018C17.4505 11.9598 17.3338 12.0447 17.2383 12.1507C17.1428 12.2568 17.0707 12.3818 17.0266 12.5175ZM18.045 20.567C18.6663 20.567 19.17 20.0633 19.17 19.442C19.17 18.8207 18.6663 18.317 18.045 18.317C17.4237 18.317 16.92 18.8207 16.92 19.442C16.92 20.0633 17.4237 20.567 18.045 20.567Z" fill="#02807A"/>
</svg>
