<svg width="16" height="16" viewBox="0 0 16 16" fill="none" xmlns="http://www.w3.org/2000/svg">
<path d="M2.78503 2C2.08046 2 1.5229 2.57815 1.5229 3.27441V11.6719L0.520255 12.2989L0.514681 12.3024C0.208156 12.4434 -0.000488281 12.7559 -0.000488281 13.1102C-0.000488281 13.5927 0.386551 13.9976 0.880787 13.9976H5.75317C6.24328 13.9976 6.64059 13.6003 6.64059 13.1102C6.64059 12.62 6.24327 12.2227 5.75317 12.2227H2.52376V3.27441C2.52376 3.11575 2.64825 3.00086 2.78503 3.00086H14.2819C14.4187 3.00086 14.5432 3.11575 14.5432 3.27441C14.5432 3.55079 14.7672 3.77484 15.0436 3.77484C15.32 3.77484 15.544 3.55079 15.544 3.27441C15.544 2.57815 14.9865 2 14.2819 2H2.78503Z" fill="#003A57"/>
<path d="M6.30322 8.90612C5.98087 9.16188 5.51251 9.1687 5.21814 8.88118V8.88118C4.91883 8.58883 4.9139 8.10514 5.23631 7.83849C5.83436 7.34386 6.5012 6.93937 7.23682 6.625C8.21182 6.20833 9.24932 6 10.3493 6C11.4493 6 12.4827 6.20833 13.4493 6.625C14.1785 6.93929 14.8412 7.34367 15.4376 7.83813C15.7597 8.10517 15.7548 8.58883 15.4555 8.88118V8.88118C15.1611 9.1687 14.6928 9.16184 14.37 8.90665C13.9182 8.5495 13.4155 8.25145 12.8618 8.0125C12.0701 7.67083 11.2243 7.5 10.3243 7.5C9.42432 7.5 8.58265 7.67083 7.79932 8.0125C7.25175 8.25133 6.75305 8.5492 6.30322 8.90612ZM8.46597 11.0502C8.11192 11.2758 7.63367 11.2844 7.33682 10.9875V10.9875C7.03996 10.6906 7.037 10.2036 7.37578 9.95566C7.68165 9.73181 8.0145 9.54242 8.37432 9.3875C8.97432 9.12917 9.62432 9 10.3243 9C11.0243 9 11.6785 9.12917 12.2868 9.3875C12.6552 9.54396 12.9946 9.73556 13.305 9.96232C13.6396 10.2068 13.6368 10.6876 13.3437 10.9806V10.9806C13.0453 11.279 12.5634 11.2628 12.2098 11.0326C12.0489 10.9279 11.8787 10.8379 11.6993 10.7625C11.2826 10.5875 10.8326 10.5 10.3493 10.5C9.86598 10.5 9.41182 10.5917 8.98682 10.775C8.80308 10.8543 8.62946 10.946 8.46597 11.0502ZM11.0462 13.3031C10.6603 13.689 10.0356 13.6917 9.64627 13.3093L9.47895 13.1449C9.17343 12.8447 9.17099 12.3377 9.56182 12.1625V12.1625C9.80348 12.0542 10.066 12 10.3493 12C10.6326 12 10.891 12.0542 11.1243 12.1625V12.1625C11.5085 12.3409 11.5065 12.8428 11.2071 13.1423L11.0462 13.3031Z" fill="currentColor"/>
</svg>
