<svg width="16" height="16" viewBox="0 0 16 16" fill="none" xmlns="http://www.w3.org/2000/svg">
<path d="M0.5 2.12C0.5 1.21582 1.2451 0.5 2.14286 0.5H10.8571C11.7549 0.5 12.5 1.21582 12.5 2.12H11.5C11.5 2.07916 11.4958 2.03901 11.4878 2H1.5122C1.50419 2.03901 1.5 2.07916 1.5 2.12V13.88C1.5 13.9208 1.50419 13.461 1.51221 13.5L12.4939 13.44C12.4939 13.9808 12.5019 13.901 12.4939 13.44L12.5 13.88C12.5 14.7842 11.7549 15.5 10.8571 15.5H2.14286C1.2451 15.5 0.5 14.7842 0.5 13.88V2.12Z" fill="currentColor"/>
<path d="M5.93736 7.06419C5.72954 7.24253 5.4174 7.24607 5.2215 7.05472L4.86192 6.7035C4.66273 6.50895 4.65985 6.18783 4.86866 6.00364C5.51533 5.43322 6.24661 4.97367 7.0625 4.625C8.0375 4.20833 9.075 4 10.175 4C11.275 4 12.3083 4.20833 13.275 4.625C14.0838 4.97364 14.811 5.43313 15.4565 6.00348C15.6651 6.18784 15.6623 6.50895 15.4631 6.7035L15.1035 7.05472C14.9076 7.24606 14.5955 7.24251 14.3874 7.06443C13.8874 6.63646 13.3208 6.28582 12.6875 6.0125C11.8958 5.67083 11.05 5.5 10.15 5.5C9.25 5.5 8.40833 5.67083 7.625 6.0125C6.99848 6.28577 6.43594 6.63633 5.93736 7.06419ZM8.07765 9.19796C7.85643 9.36325 7.54171 9.36671 7.34645 9.17145L6.97855 8.80355C6.78329 8.60829 6.78178 8.2894 6.99569 8.11477C7.3564 7.8203 7.75783 7.57788 8.2 7.3875C8.8 7.12917 9.45 7 10.15 7C10.85 7 11.5042 7.12917 12.1125 7.3875C12.561 7.57797 12.9665 7.82053 13.3289 8.11518C13.5432 8.28937 13.5417 8.60829 13.3464 8.80355L12.9877 9.16226C12.7889 9.36108 12.4675 9.35305 12.2449 9.18126C12.0243 9.01101 11.7843 8.87142 11.525 8.7625C11.1083 8.5875 10.6583 8.5 10.175 8.5C9.69167 8.5 9.2375 8.59167 8.8125 8.775C8.5463 8.88983 8.30135 9.03082 8.07765 9.19796ZM10.5254 11.6496C10.3314 11.8436 10.0172 11.845 9.82147 11.6527L9.10984 10.9535C8.91162 10.7588 8.90829 10.4335 9.1458 10.2892C9.22284 10.2424 9.3034 10.2002 9.3875 10.1625C9.62917 10.0542 9.89167 10 10.175 10C10.4583 10 10.7167 10.0542 10.95 10.1625C11.0312 10.2002 11.1095 10.2425 11.1846 10.2893C11.4191 10.4353 11.4167 10.7583 11.2214 10.9536L10.5254 11.6496Z" fill="currentColor"/>
</svg>
