<svg width="16" height="16" viewBox="0 0 16 16" fill="none" xmlns="http://www.w3.org/2000/svg">
<path fill-rule="evenodd" clip-rule="evenodd" d="M8 -1.38959e-06C6.30085 -0.026719 4.66083 0.623428 3.44151 1.80711C2.22219 2.99078 1.52369 4.6108 1.5 6.31C1.5 8.66 2.5 9.89 3.87 11.6C5 13.1 6.44 14.53 7.63 15.84C7.72454 15.941 7.85668 15.9983 7.995 15.9983C8.13332 15.9983 8.26546 15.941 8.36 15.84C9.55 14.53 11 13.1 12.12 11.6C13.46 9.89 14.5 8.66 14.5 6.31C14.2943 2.84076 11.4738 0.102674 8 -1.38959e-06ZM8 9C6.61929 9 5.5 7.88071 5.5 6.5C5.5 5.11929 6.61929 4 8 4C9.38071 4 10.5 5.11929 10.5 6.5C10.5 7.88071 9.38071 9 8 9Z" fill="currentColor"/>
</svg>
