<svg width="17" height="16" viewBox="0 0 17 16" fill="none" xmlns="http://www.w3.org/2000/svg">
<path d="M2 2.12C2 1.21582 2.7451 0.5 3.64286 0.5H9.35714C10.2549 0.5 11 1.21582 11 2.12H10C10 2.07916 9.99581 2.03901 9.98779 2H3.0122C3.00419 2.03901 3 2.07916 3 2.12V13.88C3 13.9208 3.00419 13.961 3.01221 14H9.98779C9.99581 13.961 10 13.9208 10 13.88H11C11 14.7842 10.2549 15.5 9.35714 15.5H3.64286C2.7451 15.5 2 14.7842 2 13.88V2.12Z" fill="#003A57"/>
<path d="M6.43736 7.06419C6.22954 7.24253 5.9174 7.24607 5.7215 7.05472L5.36192 6.7035C5.16273 6.50895 5.15985 6.18783 5.36866 6.00364C6.01533 5.43322 6.74661 4.97367 7.5625 4.625C8.5375 4.20833 9.575 4 10.675 4C11.775 4 12.8083 4.20833 13.775 4.625C14.5838 4.97364 15.311 5.43313 15.9565 6.00348C16.1651 6.18784 16.1623 6.50895 15.9631 6.7035L15.6035 7.05472C15.4076 7.24606 15.0955 7.24251 14.8874 7.06443C14.3874 6.63646 13.8208 6.28582 13.1875 6.0125C12.3958 5.67083 11.55 5.5 10.65 5.5C9.75 5.5 8.90833 5.67083 8.125 6.0125C7.49848 6.28577 6.93594 6.63633 6.43736 7.06419ZM8.57765 9.19796C8.35643 9.36325 8.04171 9.36671 7.84645 9.17145L7.47855 8.80355C7.28329 8.60829 7.28178 8.2894 7.49569 8.11477C7.8564 7.8203 8.25783 7.57788 8.7 7.3875C9.3 7.12917 9.95 7 10.65 7C11.35 7 12.0042 7.12917 12.6125 7.3875C13.061 7.57797 13.4665 7.82053 13.8289 8.11518C14.0432 8.28937 14.0417 8.60829 13.8464 8.80355L13.4877 9.16226C13.2889 9.36108 12.9675 9.35305 12.7449 9.18126C12.5243 9.01101 12.2843 8.87142 12.025 8.7625C11.6083 8.5875 11.1583 8.5 10.675 8.5C10.1917 8.5 9.7375 8.59167 9.3125 8.775C9.0463 8.88983 8.80135 9.03082 8.57765 9.19796ZM11.0254 11.6496C10.8314 11.8436 10.5172 11.845 10.3215 11.6527L9.60984 10.9535C9.41162 10.7588 9.4083 10.4335 9.6458 10.2892C9.72284 10.2424 9.8034 10.2002 9.8875 10.1625C10.1292 10.0542 10.3917 10 10.675 10C10.9583 10 11.2167 10.0542 11.45 10.1625C11.5312 10.2002 11.6095 10.2425 11.6846 10.2893C11.9191 10.4353 11.9167 10.7583 11.7214 10.9536L11.0254 11.6496Z" fill="currentColor"/>
</svg>
