<svg width="16" height="16" viewBox="0 0 16 16" fill="none" xmlns="http://www.w3.org/2000/svg">
<path fill-rule="evenodd" clip-rule="evenodd" d="M3.5 2.12C3.5 1.21582 4.2451 0.5 5.14286 0.5H10.8571C11.7549 0.5 12.5 1.21582 12.5 2.12V13.88C12.5 14.7842 11.7549 15.5 10.8571 15.5H5.14286C4.2451 15.5 3.5 14.7842 3.5 13.88V2.12ZM4.5 2.12C4.5 2.07916 4.50419 2.03901 4.5122 2H11.4878C11.4958 2.03901 11.5 2.07916 11.5 2.12V13.88C11.5 13.9208 11.4958 13.961 11.4878 14H4.51221C4.50419 13.961 4.5 13.9208 4.5 13.88V2.12Z" fill="currentColor"/>
</svg>
