<svg width="24" height="24" viewBox="0 0 24 24" fill="none" xmlns="http://www.w3.org/2000/svg">
    <g opacity="0.3">
        <path opacity="0.3" d="M12 24C18.6274 24 24 18.6274 24 12C24 5.37258 18.6274 0 12 0C5.37258 0 0 5.37258 0 12C0 18.6274 5.37258 24 12 24Z" fill="#B23A5D" />
    </g>
    <path d="M12.7969 18.25C12.5573 18.25 12.3828 18.1719 12.2734 18.0156C12.1641 17.8594 12.151 17.6667 12.2344 17.4375L14.5312 11.3437C14.5937 11.1771 14.7083 11.0365 14.875 10.9219C15.0417 10.8073 15.2135 10.75 15.3906 10.75C15.5677 10.75 15.7422 10.8073 15.9141 10.9219C16.0859 11.0365 16.2031 11.1771 16.2656 11.3437L18.6094 17.375C18.7031 17.6146 18.6927 17.8203 18.5781 17.9922C18.4635 18.1641 18.2708 18.25 18 18.25C17.8854 18.25 17.776 18.2135 17.6719 18.1406C17.5677 18.0677 17.4948 17.974 17.4531 17.8594L16.9375 16.2812H13.9375L13.3437 17.875C13.3021 17.9792 13.2292 18.0677 13.125 18.1406C13.0208 18.2135 12.9115 18.25 12.7969 18.25V18.25ZM14.2812 15.1875H16.5L15.4063 12.1562H15.375L14.2812 15.1875ZM9.01562 9.84375C9.17187 10.1146 9.34375 10.3776 9.53125 10.6328C9.71875 10.888 9.92187 11.151 10.1406 11.4219C10.6094 10.9323 11 10.4245 11.3125 9.89844C11.625 9.3724 11.8906 8.82292 12.1094 8.25H5.75C5.57292 8.25 5.42448 8.1901 5.30469 8.07031C5.1849 7.95052 5.125 7.80208 5.125 7.625C5.125 7.44792 5.1849 7.29948 5.30469 7.17969C5.42448 7.0599 5.57292 7 5.75 7H9.5V6.375C9.5 6.19792 9.5599 6.04948 9.67969 5.92969C9.79948 5.8099 9.94792 5.75 10.125 5.75C10.3021 5.75 10.4505 5.8099 10.5703 5.92969C10.6901 6.04948 10.75 6.19792 10.75 6.375V7H14.5C14.6771 7 14.8255 7.0599 14.9453 7.17969C15.0651 7.29948 15.125 7.44792 15.125 7.625C15.125 7.80208 15.0651 7.95052 14.9453 8.07031C14.8255 8.1901 14.6771 8.25 14.5 8.25H13.3594C13.1302 8.96875 12.8255 9.67448 12.4453 10.3672C12.0651 11.0599 11.599 11.7187 11.0469 12.3437L12.5781 13.8906L12.1094 15.1562L10.125 13.25L7.42188 15.9531C7.30729 16.0677 7.16667 16.125 7 16.125C6.83333 16.125 6.69271 16.0625 6.57813 15.9375C6.45313 15.8229 6.39063 15.6823 6.39063 15.5156C6.39063 15.349 6.45313 15.2031 6.57813 15.0781L9.32812 12.3281C9.05729 12.0052 8.80208 11.6797 8.5625 11.3516C8.32292 11.0234 8.10417 10.6875 7.90625 10.3437C7.78125 10.1146 7.77083 9.91667 7.875 9.75C7.97917 9.58333 8.16667 9.5 8.4375 9.5C8.55208 9.5 8.66406 9.53385 8.77344 9.60156C8.88281 9.66927 8.96354 9.75 9.01562 9.84375V9.84375Z" fill="#B23A5D" />
</svg>
    