<svg width="16" height="16" viewBox="0 0 16 16" xmlns="http://www.w3.org/2000/svg">
  <circle cx="8" cy="8" r="8" fill="currentColor" />
  <path fill-rule="evenodd" clip-rule="evenodd"
    d="M13.5 4C13.7455 4 13.9496 4.17688 13.9919 4.41012L14 4.5V7.5C14 7.77614 13.7761 8 13.5 8C13.2545 8 13.0504 7.82312 13.0081 7.58988L13 7.5V5.706L8.85355 9.85355C8.67999 10.0271 8.41056 10.0464 8.21569 9.91141L8.14645 9.85355L6.5 8.207L2.85355 11.8536C2.67999 12.0271 2.41056 12.0464 2.21569 11.9114L2.14645 11.8536C1.97288 11.68 1.9536 11.4106 2.08859 11.2157L2.14645 11.1464L6.14645 7.14645C6.32001 6.97288 6.58944 6.9536 6.78431 7.08859L6.85355 7.14645L8.5 8.793L12.292 5H10.5C10.2545 5 10.0504 4.82312 10.0081 4.58988L10 4.5C10 4.25454 10.1769 4.05039 10.4101 4.00806L10.5 4H13.5Z"
    fill="white" />
</svg>