<svg width="18" height="18" viewBox="0 0 18 18" fill="none" xmlns="http://www.w3.org/2000/svg">
<path fill-rule="evenodd" clip-rule="evenodd" d="M3.375 2.25H12.375C12.9937 2.25 13.5 2.75625 13.5 3.375V12.375C13.5 12.9937 12.9937 13.5 12.375 13.5H3.375C2.75625 13.5 2.25 12.9937 2.25 12.375V3.375C2.25 2.75625 2.75625 2.25 3.375 2.25ZM7.245 10.62L11.1825 6.6825C11.4637 6.4125 11.4637 5.9625 11.1825 5.6925C10.9125 5.4225 10.4625 5.4225 10.1925 5.6925L6.75 9.135L5.5575 7.9425C5.2875 7.6725 4.8375 7.6725 4.5675 7.9425C4.2975 8.2125 4.2975 8.6625 4.5675 8.9325L6.255 10.62C6.39 10.755 6.57 10.8225 6.75 10.8225C6.93 10.8225 7.11 10.755 7.245 10.62ZM4.5 15.1875C4.5 15.4982 4.75184 15.75 5.0625 15.75H14.625C15.2507 15.75 15.75 15.2507 15.75 14.625V5.0625C15.75 4.75184 15.4982 4.5 15.1875 4.5C14.8768 4.5 14.625 4.75184 14.625 5.0625V14.625H5.0625C4.75184 14.625 4.5 14.8768 4.5 15.1875Z" fill="#2B8473"/>
</svg>
