<svg width="16" height="15" viewBox="0 0 16 15" fill="none" xmlns="http://www.w3.org/2000/svg">
<path fill-rule="evenodd" clip-rule="evenodd" d="M12 3V0.5C12 0.223858 12.2239 0 12.5 0C12.7761 0 13 0.223858 13 0.5V3H15.5C15.7761 3 16 3.22386 16 3.5C16 3.77614 15.7761 4 15.5 4H13V6.5C13 6.77614 12.7761 7 12.5 7C12.2239 7 12 6.77614 12 6.5V4H9.5C9.22386 4 9 3.77614 9 3.5C9 3.22386 9.22386 3 9.5 3H12ZM2 6C2 7.65685 3.34315 9 5 9C6.65685 9 8 7.65685 8 6C8 4.34315 6.65685 3 5 3C3.34315 3 2 4.34315 2 6ZM0.124377 14.83C0.214377 14.94 0.354377 15 0.494377 15H9.41438C9.55438 15 9.70438 14.95 9.79438 14.84C9.88438 14.73 9.93438 14.59 9.91438 14.45C9.63438 11.91 7.50438 10 4.95438 10C2.40438 10 0.264377 11.91 0.00437746 14.44C-0.0156225 14.58 0.0343775 14.72 0.124377 14.83Z" fill="#932127"/>
</svg>
