<svg width="16" height="20" viewBox="0 0 16 20" fill="none" xmlns="http://www.w3.org/2000/svg">
<path fill-rule="evenodd" clip-rule="evenodd" d="M10.9999 11C9.34304 11 7.99989 9.65685 7.99989 8C7.99989 6.34315 9.34304 5 10.9999 5C12.6567 5 13.9999 6.34315 13.9999 8C13.9999 9.65685 12.6567 11 10.9999 11ZM10.9999 10C12.1045 10 12.9999 9.10457 12.9999 8C12.9999 6.89543 12.1045 6 10.9999 6C9.89532 6 8.99989 6.89543 8.99989 8C8.99989 9.10457 9.89532 10 10.9999 10ZM4.49989 8C3.11918 8 1.99989 6.88071 1.99989 5.5C1.99989 4.11929 3.11918 3 4.49989 3C5.8806 3 6.99989 4.11929 6.99989 5.5C6.99989 6.88071 5.8806 8 4.49989 8ZM4.49989 7C5.32832 7 5.99989 6.32843 5.99989 5.5C5.99989 4.67157 5.32832 4 4.49989 4C3.67146 4 2.99989 4.67157 2.99989 5.5C2.99989 6.32843 3.67146 7 4.49989 7ZM15.9978 16.4547C16.0228 16.7297 15.8202 16.9729 15.5452 16.9979C15.2702 17.0229 15.0269 16.8203 15.0019 16.5453C14.8248 14.597 13.0351 13 10.9999 13C8.96465 13 7.17496 14.597 6.99784 16.5453C6.97284 16.8203 6.72963 17.0229 6.45462 16.9979C6.17962 16.9729 5.97694 16.7297 6.00195 16.4547C6.22635 13.9863 8.45237 12 10.9999 12C13.5474 12 15.7734 13.9863 15.9978 16.4547ZM7.97423 11.3419C8.06156 11.6039 7.91998 11.887 7.65801 11.9743C7.39603 12.0617 7.11287 11.9201 7.02555 11.6581C6.70672 10.7016 5.62923 10 4.49989 10C3.37055 10 2.29307 10.7016 1.97423 11.6581C1.88691 11.9201 1.60375 12.0617 1.34178 11.9743C1.07981 11.887 0.938226 11.6039 1.02555 11.3419C1.48692 9.95779 2.9578 9 4.49989 9C6.04198 9 7.51287 9.95779 7.97423 11.3419Z" fill="#003A57"/>
</svg>
