
<svg width="24" height="24" viewBox="0 0 24 24" fill="none" xmlns="http://www.w3.org/2000/svg">
    <g opacity="0.3">
        <path opacity="0.3" d="M12 24C18.6274 24 24 18.6274 24 12C24 5.37258 18.6274 0 12 0C5.37258 0 0 5.37258 0 12C0 18.6274 5.37258 24 12 24Z" fill="#f1f5fb00" />
    </g>
    <path fill-rule="evenodd" clip-rule="evenodd" d="M7.87657 10.3238C9.27766 10.3238 10.4135 9.18799 10.4135 7.7869C10.4135 6.38581 9.27766 5.25 7.87657 5.25C6.47548 5.25 5.33967 6.38581 5.33967 7.7869C5.33967 9.18799 6.47548 10.3238 7.87657 10.3238ZM17.5168 10.3238C17.5168 12.0051 16.1538 13.3681 14.4725 13.3681C12.7912 13.3681 11.4282 12.0051 11.4282 10.3238C11.4282 8.64249 12.7912 7.27952 14.4725 7.27952C16.1538 7.27952 17.5168 8.64249 17.5168 10.3238ZM9.93653 19.4566C9.79446 19.4566 9.65239 19.3957 9.56107 19.2841C9.46974 19.1725 9.419 19.0304 9.43929 18.8884C9.70313 16.321 11.8747 14.3828 14.4624 14.3828C17.05 14.3828 19.2114 16.321 19.4956 18.8985C19.5159 19.0406 19.4651 19.1826 19.3738 19.2943C19.2825 19.4059 19.1302 19.4566 18.9882 19.4566H9.93653ZM10.7483 14.3828H5.0048C4.84244 14.3828 4.69022 14.3017 4.58875 14.1697C4.49782 14.0318 4.47537 13.8596 4.52786 13.7029C5.03276 12.2867 6.37302 11.3404 7.87657 11.3386C9.37841 11.3386 10.728 12.2924 11.2253 13.7131C11.276 13.8653 11.2557 14.0378 11.1644 14.1799C11.0731 14.3017 10.9107 14.3828 10.7483 14.3828Z" fill="currentColor" />
</svg>
    