<svg width="25" height="24" viewBox="0 0 17 16" fill="#F4AC1A" xmlns="http://www.w3.org/2000/svg">
    <path fill-rule="evenodd" clip-rule="evenodd" d="M9.50948 1.38142C9.28766 0.946667 8.83167 0.66745 8.33362 0.66745C7.83753 0.66745 7.38315 0.944486 7.15583 1.38507L1.15776 12.7148C0.678093 13.594 1.32357 14.6667 2.33362 14.6667H14.3336C15.3437 14.6667 15.9892 13.594 15.5056 12.7074L9.50948 1.38142ZM14.3283 13.3333H2.33887L8.33366 2.00996L14.3283 13.3333ZM9.00029 8.00001V5.33334C9.00029 4.44445 7.66695 4.44445 7.66695 5.33334V8.00001C7.66695 8.8889 9.00029 8.8889 9.00029 8.00001ZM8.33362 11.7333C8.92273 11.7333 9.40029 11.2558 9.40029 10.6667C9.40029 10.0776 8.92273 9.60001 8.33362 9.60001C7.74452 9.60001 7.26696 10.0776 7.26696 10.6667C7.26696 11.2558 7.74452 11.7333 8.33362 11.7333Z"/>
</svg>
    