<svg width="24" height="24" viewBox="0 0 24 24" fill="#F4AC1A" xmlns="http://www.w3.org/2000/svg">
    <path fill-rule="evenodd" clip-rule="evenodd" d="M11.9758 2.25449C11.9758 2.25449 21.2401 20.1144 21.2431 20.1144C21.2431 20.1144 2.70084 20.1129 2.70087 20.1128C2.70087 20.1128 11.9722 2.24773 11.9758 2.25449ZM10.6408 1.55435L1.36736 19.426C0.85606 20.4185 1.57574 21.6144 2.69409 21.6144H21.2491C22.3674 21.6144 23.0871 20.4185 22.5758 19.426L13.3048 1.55899C12.7359 0.481111 11.2072 0.481111 10.6408 1.55435ZM12.7141 13.3644V8.11442C12.7141 7.11442 11.2141 7.11442 11.2141 8.11442V13.3644C11.2141 14.3644 12.7141 14.3644 12.7141 13.3644ZM11.9641 18.6144C12.7925 18.6144 13.4641 17.9428 13.4641 17.1144C13.4641 16.286 12.7925 15.6144 11.9641 15.6144C11.1357 15.6144 10.4641 16.286 10.4641 17.1144C10.4641 17.9428 11.1357 18.6144 11.9641 18.6144Z" />
</svg>
    