<svg width="120" height="120" viewBox="0 0 120 120" fill="none" xmlns="http://www.w3.org/2000/svg">
<path opacity="0.4" fill-rule="evenodd" clip-rule="evenodd" d="M9.49025 109.899C9.95158 106.495 51.9639 95.7945 60.1984 98.1489C68.4329 100.503 61.4143 107.179 44.9713 110.358C28.5282 113.538 9.02896 113.304 9.49025 109.899Z" fill="url(#paint0_radial_936_34240)"/>
<path d="M46.4316 111.785L52.3422 81.3843H67.5055L61.5949 111.785H46.4316Z" fill="white" stroke="#336179" stroke-width="2" stroke-linecap="round" stroke-linejoin="round"/>
<path d="M20.8907 95.7985H97.3474C97.6783 95.8047 98.0072 95.7455 98.3152 95.6243C98.6232 95.5031 98.9043 95.3224 99.1423 95.0924C99.3803 94.8624 99.5706 94.5878 99.7023 94.2841C99.834 93.9805 99.9045 93.6538 99.9097 93.3229C99.9123 93.2123 99.9071 93.1017 99.8942 92.9918L95.0637 37.7512C94.988 36.9932 94.6368 36.2894 94.0766 35.7732C93.5165 35.257 92.7864 34.9643 92.0248 34.9506H15.5681C15.2371 34.9445 14.9083 35.0037 14.6003 35.1249C14.2923 35.246 14.0112 35.4268 13.7732 35.6567C13.5352 35.8867 13.3449 36.1614 13.2132 36.465C13.0815 36.7687 13.011 37.0953 13.0058 37.4263C12.9981 37.5365 12.9981 37.6471 13.0058 37.7574L17.8611 93.0011C17.934 93.7582 18.2832 94.4619 18.842 94.9779C19.4009 95.4939 20.1301 95.7861 20.8907 95.7985Z" fill="white" stroke="#336179" stroke-width="2" stroke-linecap="round" stroke-linejoin="round"/>
<path d="M20.027 85.3387H96.3847C96.5638 85.3424 96.7418 85.3107 96.9086 85.2455C97.0754 85.1802 97.2277 85.0827 97.3568 84.9586C97.4859 84.8344 97.5892 84.6859 97.6608 84.5218C97.7324 84.3576 97.7709 84.1809 97.7741 84.0018C97.7788 83.9421 97.7788 83.8821 97.7741 83.8223L93.7729 38.1624C93.7312 37.7519 93.5402 37.371 93.2361 37.092C92.9321 36.813 92.5361 36.6555 92.1235 36.6492H15.7689C15.5897 36.6455 15.4115 36.6772 15.2445 36.7424C15.0775 36.8075 14.925 36.905 14.7957 37.0291C14.6663 37.1533 14.5627 37.3017 14.4908 37.4659C14.4189 37.6301 14.38 37.8068 14.3763 37.9861C14.3733 38.0448 14.3733 38.1037 14.3763 38.1624L18.3776 83.8316C18.4213 84.2408 18.6131 84.6199 18.9169 84.8974C19.2207 85.175 19.6155 85.3319 20.027 85.3387Z" fill="#E6EBEE"/>
<path d="M20.027 85.3387H96.3847C96.5638 85.3424 96.7418 85.3107 96.9086 85.2455C97.0754 85.1802 97.2277 85.0827 97.3568 84.9586C97.4859 84.8344 97.5892 84.6859 97.6608 84.5218C97.7324 84.3576 97.7709 84.1809 97.7741 84.0018C97.7788 83.9421 97.7788 83.8821 97.7741 83.8223L93.7729 38.1624C93.7312 37.7519 93.5402 37.371 93.2361 37.092C92.9321 36.813 92.5361 36.6555 92.1235 36.6492H15.7689C15.5897 36.6455 15.4115 36.6772 15.2445 36.7424C15.0775 36.8075 14.925 36.905 14.7957 37.0291C14.6663 37.1533 14.5627 37.3017 14.4908 37.4659C14.4189 37.6301 14.38 37.8068 14.3763 37.9861C14.3733 38.0448 14.3733 38.1037 14.3763 38.1624L18.3776 83.8316C18.4213 84.2408 18.6131 84.6199 18.9169 84.8974C19.2207 85.175 19.6155 85.3319 20.027 85.3387Z" fill="url(#paint1_linear_936_34240)"/>
<g filter="url(#filter0_d_936_34240)">
<path d="M30.5959 72.9999H109.56C109.745 73.004 109.929 72.9688 110.101 72.8964C110.274 72.824 110.431 72.7158 110.565 72.5779C110.698 72.4401 110.805 72.2753 110.879 72.093C110.953 71.9108 110.993 71.7147 110.996 71.5159C111.001 71.4496 111.001 71.3829 110.996 71.3166L106.859 20.6303C106.815 20.1746 106.618 19.7517 106.303 19.442C105.989 19.1323 105.58 18.9574 105.153 18.9505H26.1925C26.0071 18.9464 25.8228 18.9815 25.6502 19.0539C25.4775 19.1263 25.3198 19.2345 25.186 19.3723C25.0523 19.5101 24.9452 19.6748 24.8708 19.8571C24.7964 20.0394 24.7561 20.2356 24.7524 20.4345C24.7492 20.4997 24.7492 20.5651 24.7524 20.6303L28.8902 71.3269C28.9354 71.7811 29.1338 72.2019 29.4479 72.5101C29.7621 72.8182 30.1704 72.9924 30.5959 72.9999Z" fill="white"/>
<path d="M39.4862 40.2634H33.6632C33.4331 40.2584 33.2128 40.1696 33.0434 40.0137C32.8741 39.8578 32.7674 39.6456 32.7433 39.4167C32.7322 39.3089 32.7441 39.2001 32.778 39.0972C32.812 38.9944 32.8673 38.8999 32.9403 38.8199C33.0134 38.74 33.1025 38.6764 33.2019 38.6333C33.3012 38.5902 33.4086 38.5686 33.5169 38.5699H39.3607C39.5906 38.574 39.8109 38.6626 39.9796 38.8188C40.1484 38.9749 40.2537 39.1878 40.2755 39.4167C40.2876 39.5259 40.276 39.6365 40.2414 39.7408C40.2069 39.8452 40.1502 39.9409 40.0752 40.0213C40.0003 40.1017 39.9088 40.1649 39.8072 40.2067C39.7055 40.2485 39.596 40.2679 39.4862 40.2634Z" fill="#70C38A"/>
<path d="M53.857 33.4995H49.5395C49.3095 33.4969 49.0886 33.4096 48.9189 33.2543C48.7492 33.0991 48.6426 32.8868 48.6195 32.658C48.6068 32.5504 48.6173 32.4413 48.6503 32.3381C48.6833 32.2348 48.7381 32.1399 48.8109 32.0596C48.8837 31.9794 48.9729 31.9157 49.0724 31.8728C49.172 31.83 49.2795 31.809 49.3879 31.8112H53.7107C53.9411 31.8152 54.1621 31.9036 54.3316 32.0597C54.5012 32.2158 54.6076 32.4287 54.6306 32.658C54.6417 32.7655 54.6299 32.8741 54.5959 32.9767C54.5619 33.0793 54.5065 33.1734 54.4334 33.253C54.3602 33.3326 54.271 33.3957 54.1717 33.4382C54.0723 33.4807 53.9651 33.5016 53.857 33.4995Z" fill="#70C38A"/>
<path d="M101.271 40.2635H95.4477C95.2178 40.2593 94.9975 40.1708 94.8287 40.0146C94.66 39.8584 94.5547 39.6455 94.5329 39.4167C94.5211 39.3092 94.5322 39.2005 94.5655 39.0976C94.5989 38.9948 94.6537 38.9002 94.7263 38.8201C94.799 38.7401 94.8878 38.6764 94.9869 38.6332C95.0861 38.5901 95.1932 38.5685 95.3013 38.5699H101.124C101.354 38.575 101.575 38.6638 101.744 38.8196C101.913 38.9755 102.02 39.1878 102.044 39.4167C102.055 39.5244 102.043 39.6333 102.009 39.7361C101.975 39.8389 101.92 39.9334 101.847 40.0134C101.774 40.0933 101.685 40.157 101.586 40.2001C101.486 40.2432 101.379 40.2648 101.271 40.2635Z" fill="#70C38A"/>
<path d="M89.63 40.2635H45.1111C44.8806 40.2595 44.6597 40.1711 44.4901 40.015C44.3205 39.8589 44.2141 39.646 44.1911 39.4167C44.1793 39.3092 44.1904 39.2005 44.2237 39.0976C44.2571 38.9948 44.3119 38.9002 44.3845 38.8201C44.4572 38.7401 44.546 38.6764 44.6451 38.6332C44.7442 38.5901 44.8514 38.5685 44.9595 38.5699H89.4679C89.6983 38.5739 89.9193 38.6623 90.0889 38.8184C90.2585 38.9744 90.3649 39.1873 90.3879 39.4167C90.3996 39.5232 90.3888 39.6311 90.3561 39.7332C90.3233 39.8353 90.2695 39.9294 90.198 40.0093C90.1265 40.0892 90.0389 40.1531 89.941 40.1969C89.8432 40.2407 89.7372 40.2634 89.63 40.2635Z" fill="#2B8473"/>
<path d="M39.9929 46.0811H34.1752C33.9452 46.0784 33.7243 45.9911 33.5546 45.8359C33.3849 45.6806 33.2784 45.4683 33.2552 45.2395C33.2425 45.1319 33.253 45.0228 33.286 44.9196C33.319 44.8164 33.3738 44.7214 33.4466 44.6412C33.5195 44.5609 33.6086 44.4972 33.7082 44.4544C33.8077 44.4115 33.9153 44.3905 34.0236 44.3927H39.8466C40.077 44.3967 40.298 44.4851 40.4676 44.6412C40.6371 44.7973 40.7435 45.0102 40.7665 45.2395C40.7785 45.3472 40.7673 45.4562 40.7336 45.5591C40.6999 45.6621 40.6446 45.7566 40.5713 45.8364C40.4979 45.9161 40.4084 45.9792 40.3086 46.0214C40.2089 46.0636 40.1012 46.084 39.9929 46.0811Z" fill="#70C38A"/>
<path d="M57.6562 46.081H45.6339C45.4043 46.0771 45.184 45.9895 45.0145 45.8345C44.8451 45.6794 44.7382 45.4678 44.714 45.2394C44.7029 45.1317 44.7148 45.0228 44.7487 44.92C44.7827 44.8172 44.838 44.7227 44.9111 44.6427C44.9841 44.5627 45.0732 44.4991 45.1726 44.456C45.2719 44.4129 45.3793 44.3913 45.4876 44.3926H57.5098C57.7406 44.3955 57.9622 44.4835 58.132 44.6398C58.3018 44.7961 58.4079 45.0097 58.4298 45.2394C58.4418 45.3471 58.4305 45.4561 58.3969 45.559C58.3632 45.662 58.3078 45.7565 58.2345 45.8363C58.1612 45.916 58.0716 45.9791 57.9719 46.0213C57.8721 46.0635 57.7645 46.0839 57.6562 46.081Z" fill="#70C38A"/>
<path d="M79.244 46.0811H61.4041C61.1744 46.0772 60.9541 45.9896 60.7847 45.8345C60.6152 45.6795 60.5083 45.4679 60.4841 45.2395C60.4722 45.1316 60.4834 45.0224 60.5171 44.9192C60.5507 44.816 60.606 44.7211 60.6792 44.641C60.7524 44.5608 60.8419 44.4972 60.9417 44.4544C61.0414 44.4116 61.1492 44.3906 61.2577 44.3927H79.0872C79.3177 44.3967 79.5386 44.4851 79.7082 44.6412C79.8778 44.7973 79.9842 45.0102 80.0072 45.2395C80.019 45.3463 80.0081 45.4543 79.975 45.5566C79.9419 45.6588 79.8875 45.7528 79.8153 45.8323C79.7432 45.9119 79.6549 45.9752 79.5564 46.0181C79.4579 46.061 79.3514 46.0825 79.244 46.0811Z" fill="#70C38A"/>
<path d="M40.5053 51.9043H34.6824C34.4528 51.9005 34.2325 51.8128 34.063 51.6578C33.8935 51.5028 33.7866 51.2911 33.7624 51.0628C33.7505 50.9548 33.7618 50.8456 33.7954 50.7424C33.829 50.6392 33.8843 50.5444 33.9575 50.4642C34.0308 50.3841 34.1202 50.3205 34.22 50.2777C34.3197 50.2349 34.4275 50.2138 34.536 50.216H40.359C40.5889 50.2201 40.8092 50.3087 40.9779 50.4648C41.1466 50.621 41.2519 50.8339 41.2737 51.0628C41.2856 51.17 41.2745 51.2785 41.2412 51.3811C41.2078 51.4836 41.1529 51.5779 41.0801 51.6576C41.0074 51.7372 40.9185 51.8005 40.8194 51.843C40.7203 51.8856 40.6132 51.9065 40.5053 51.9043Z" fill="#70C38A"/>
<path d="M69.9858 51.9043H46.1557C45.9257 51.9016 45.7048 51.8143 45.5351 51.6591C45.3654 51.5039 45.2588 51.2916 45.2357 51.0628C45.223 50.9551 45.2335 50.8461 45.2665 50.7428C45.2995 50.6396 45.3543 50.5447 45.4271 50.4644C45.4999 50.3842 45.5891 50.3205 45.6886 50.2776C45.7882 50.2348 45.8958 50.2137 46.0041 50.216H69.8552C70.0856 50.22 70.3066 50.3084 70.4762 50.4645C70.6457 50.6205 70.7521 50.8334 70.7751 51.0628C70.7874 51.1718 70.7758 51.2822 70.7412 51.3863C70.7066 51.4904 70.6498 51.5857 70.5748 51.6657C70.4997 51.7458 70.4082 51.8085 70.3065 51.8497C70.2048 51.8909 70.0954 51.9095 69.9858 51.9043Z" fill="#2B8473"/>
<path d="M41.0125 57.7271H35.1791C34.9493 57.723 34.729 57.6344 34.5602 57.4782C34.3915 57.322 34.2862 57.1092 34.2644 56.8803C34.2525 56.7731 34.2636 56.6645 34.297 56.562C34.3303 56.4594 34.3852 56.3651 34.458 56.2854C34.5307 56.2058 34.6196 56.1426 34.7187 56.1C34.8179 56.0575 34.9249 56.0366 35.0328 56.0387H40.8557C41.0854 56.0425 41.3057 56.1302 41.4751 56.2852C41.6446 56.4403 41.7515 56.6519 41.7757 56.8803C41.7875 56.9873 41.7765 57.0956 41.7435 57.1981C41.7105 57.3005 41.6561 57.3949 41.584 57.4748C41.512 57.5548 41.4238 57.6186 41.3253 57.6621C41.2268 57.7056 41.1202 57.7277 41.0125 57.7271Z" fill="#70C38A"/>
<path d="M56.6941 57.7271H46.6477C46.4172 57.7231 46.1962 57.6347 46.0267 57.4786C45.8571 57.3225 45.7507 57.1096 45.7277 56.8803C45.7166 56.7728 45.7284 56.6641 45.7624 56.5616C45.7964 56.459 45.8518 56.3648 45.925 56.2853C45.9981 56.2057 46.0873 56.1426 46.1866 56.1001C46.286 56.0576 46.3932 56.0367 46.5013 56.0387H56.5477C56.7773 56.0425 56.9976 56.1302 57.1671 56.2852C57.3366 56.4402 57.4435 56.6519 57.4677 56.8803C57.4796 56.9882 57.4683 57.0974 57.4347 57.2006C57.4011 57.3038 57.3458 57.3986 57.2726 57.4788C57.1993 57.5589 57.1099 57.6225 57.0101 57.6654C56.9103 57.7082 56.8026 57.7292 56.6941 57.7271Z" fill="#2B8473"/>
<path d="M88.0568 57.7272H62.4442C62.2137 57.7232 61.9927 57.6348 61.8232 57.4787C61.6536 57.3226 61.5472 57.1097 61.5242 56.8804C61.5122 56.7727 61.5234 56.6638 61.5571 56.5608C61.5908 56.4579 61.6462 56.3633 61.7195 56.2836C61.7928 56.2038 61.8823 56.1407 61.9821 56.0985C62.0819 56.0563 62.1895 56.0359 62.2978 56.0388H87.9104C88.14 56.0427 88.3603 56.1304 88.5298 56.2854C88.6992 56.4404 88.8062 56.652 88.8304 56.8804C88.8414 56.9881 88.8296 57.097 88.7956 57.1998C88.7616 57.3027 88.7063 57.3972 88.6333 57.4771C88.5602 57.5571 88.4711 57.6207 88.3718 57.6638C88.2724 57.7069 88.165 57.7285 88.0568 57.7272Z" fill="#2B8473"/>
<path d="M45.467 63.5502H35.7029C35.4728 63.5451 35.2524 63.4563 35.0831 63.3004C34.9137 63.1445 34.807 62.9323 34.7829 62.7034C34.771 62.5955 34.7823 62.4863 34.8159 62.3831C34.8495 62.2799 34.9048 62.185 34.978 62.1049C35.0513 62.0247 35.1407 61.9611 35.2405 61.9183C35.3403 61.8755 35.448 61.8545 35.5565 61.8566H45.3207C45.5508 61.8617 45.7711 61.9505 45.9405 62.1063C46.1098 62.2622 46.2165 62.4745 46.2407 62.7034C46.2517 62.8111 46.2399 62.92 46.2059 63.0228C46.1719 63.1256 46.1166 63.2201 46.0436 63.3001C45.9705 63.3801 45.8814 63.4437 45.782 63.4868C45.6827 63.5299 45.5753 63.5515 45.467 63.5502Z" fill="#2B8473"/>
<path d="M54.8855 63.5501H49.6951C49.4646 63.5461 49.2437 63.4577 49.0741 63.3016C48.9045 63.1455 48.7981 62.9326 48.7751 62.7033C48.7633 62.5958 48.7744 62.4871 48.8077 62.3842C48.841 62.2814 48.8959 62.1868 48.9685 62.1068C49.0411 62.0267 49.13 61.963 49.2291 61.9198C49.3282 61.8767 49.4354 61.8551 49.5435 61.8565H54.7392C54.9693 61.8616 55.1896 61.9504 55.359 62.1063C55.5283 62.2621 55.635 62.4744 55.6591 62.7033C55.6702 62.811 55.6584 62.9199 55.6244 63.0227C55.5904 63.1256 55.5351 63.2201 55.4621 63.3C55.389 63.38 55.2999 63.4436 55.2005 63.4867C55.1012 63.5298 54.9938 63.5514 54.8855 63.5501Z" fill="#2B8473"/>
<path d="M36.3754 29.3651L33.7985 30.3373L36.5427 31.3043C36.646 31.3414 36.7369 31.4065 36.8052 31.4924C36.8735 31.5783 36.9166 31.6815 36.9295 31.7904C36.9383 31.8733 36.9253 31.957 36.8916 32.0332C36.8579 32.1094 36.8048 32.1754 36.7376 32.2246C36.6703 32.2738 36.5914 32.3045 36.5086 32.3136C36.4257 32.3228 36.342 32.31 36.2657 32.2765L33.0876 31.1109C32.939 31.0545 32.8088 30.9584 32.7111 30.833C32.6133 30.7077 32.5519 30.5579 32.5336 30.4V30.2746C32.519 30.1257 32.5529 29.9762 32.6301 29.8481C32.7073 29.7201 32.8238 29.6203 32.9622 29.5637L35.9573 28.3876C36.0386 28.3594 36.1252 28.3502 36.2106 28.3606C36.296 28.371 36.3779 28.4008 36.45 28.4477C36.5221 28.4946 36.5825 28.5574 36.6267 28.6312C36.6708 28.705 36.6975 28.788 36.7047 28.8737C36.7134 28.9808 36.6855 29.0876 36.6258 29.1768C36.566 29.266 36.4777 29.3324 36.3754 29.3651Z" fill="#2B8473"/>
<path d="M40.0612 25.9046C40.1573 25.9055 40.252 25.9278 40.3384 25.9699C40.4248 26.012 40.5008 26.0727 40.5608 26.1478C40.6208 26.2228 40.6634 26.3103 40.6855 26.4038C40.7076 26.4974 40.7086 26.5946 40.6884 26.6886L38.7649 34.0065C38.7362 34.1225 38.6688 34.2252 38.5736 34.2974C38.4785 34.3697 38.3616 34.4072 38.2421 34.4038C38.1458 34.402 38.0511 34.379 37.9647 34.3363C37.8783 34.2937 37.8024 34.2324 37.7424 34.157C37.6825 34.0816 37.64 33.9938 37.6179 33.9C37.5959 33.8062 37.5948 33.7087 37.6149 33.6145L39.5385 26.2966C39.5681 26.1816 39.636 26.0801 39.731 26.0088C39.826 25.9376 39.9425 25.9008 40.0612 25.9046Z" fill="#2B8473"/>
<path d="M45.7275 30.2749V30.4003C45.7447 30.5495 45.7119 30.7002 45.6344 30.8288C45.5568 30.9574 45.4388 31.0567 45.2989 31.1112L42.309 32.2873C42.2277 32.3155 42.1411 32.3247 42.0557 32.3143C41.9703 32.3039 41.8884 32.2741 41.8163 32.2272C41.7442 32.1803 41.6838 32.1175 41.6396 32.0437C41.5954 31.9698 41.5687 31.8869 41.5615 31.8012C41.5502 31.6986 41.5734 31.5951 41.6273 31.5071C41.6813 31.4191 41.7629 31.3516 41.8595 31.3151L44.4364 30.3481L41.687 29.3758C41.584 29.3375 41.4937 29.2713 41.4263 29.1845C41.3589 29.0977 41.317 28.9938 41.3054 28.8845C41.2966 28.8016 41.3097 28.7179 41.3434 28.6417C41.377 28.5655 41.4302 28.4995 41.4974 28.4503C41.5646 28.4011 41.6436 28.3704 41.7264 28.3613C41.8092 28.3521 41.8929 28.3649 41.9693 28.3984L45.163 29.5745C45.3131 29.6269 45.4455 29.7203 45.5452 29.8441C45.645 29.9679 45.7081 30.1171 45.7275 30.2749Z" fill="#2B8473"/>
</g>
<path d="M38.25 112.05H67.75" stroke="#336179" stroke-width="2" stroke-linecap="round" stroke-linejoin="round"/>
<defs>
<filter id="filter0_d_936_34240" x="16.75" y="14.9502" width="102.25" height="70.05" filterUnits="userSpaceOnUse" color-interpolation-filters="sRGB">
<feFlood flood-opacity="0" result="BackgroundImageFix"/>
<feColorMatrix in="SourceAlpha" type="matrix" values="0 0 0 0 0 0 0 0 0 0 0 0 0 0 0 0 0 0 127 0" result="hardAlpha"/>
<feOffset dy="4"/>
<feGaussianBlur stdDeviation="4"/>
<feColorMatrix type="matrix" values="0 0 0 0 0.184314 0 0 0 0 0.223529 0 0 0 0 0.254902 0 0 0 0.15 0"/>
<feBlend mode="normal" in2="BackgroundImageFix" result="effect1_dropShadow_936_34240"/>
<feBlend mode="normal" in="SourceGraphic" in2="effect1_dropShadow_936_34240" result="shape"/>
</filter>
<radialGradient id="paint0_radial_936_34240" cx="0" cy="0" r="1" gradientUnits="userSpaceOnUse" gradientTransform="translate(39.6967 105.902) rotate(149.913) scale(13.2268 12.3979)">
<stop stop-color="#70C38A" stop-opacity="0.52"/>
<stop offset="1" stop-color="#F1F9F3"/>
</radialGradient>
<linearGradient id="paint1_linear_936_34240" x1="76.3629" y1="94.8794" x2="33.0158" y2="30.5867" gradientUnits="userSpaceOnUse">
<stop stop-color="white" stop-opacity="0"/>
<stop offset="1" stop-color="white" stop-opacity="0.8"/>
</linearGradient>
</defs>
</svg>
