<svg width="12" height="12" viewBox="0 0 12 12" fill="currentColor" xmlns="http://www.w3.org/2000/svg">
<path fill-rule="evenodd" clip-rule="evenodd" d="M6.83205 0.4453C6.43623 -0.148433 5.56377 -0.148433 5.16795 0.4453L3.16795 3.4453C2.72491 4.10985 3.2013 5 4 5H8C8.7987 5 9.27509 4.10985 8.83205 3.4453L6.83205 0.4453ZM4 4L6 1L8 4H4ZM1 7C0.447715 7 0 7.44772 0 8V11C0 11.5523 0.447715 12 1 12H4C4.55228 12 5 11.5523 5 11V8C5 7.44772 4.55228 7 4 7H1ZM1 11V8H4V11H1ZM9.25 12C10.7688 12 12 10.7688 12 9.25C12 7.73122 10.7688 6.5 9.25 6.5C7.73122 6.5 6.5 7.73122 6.5 9.25C6.5 10.7688 7.73122 12 9.25 12ZM9.25 11C8.2835 11 7.5 10.2165 7.5 9.25C7.5 8.2835 8.2835 7.5 9.25 7.5C10.2165 7.5 11 8.2835 11 9.25C11 10.2165 10.2165 11 9.25 11Z" />
</svg>
