<svg width="24" height="24" viewBox="0 0 24 24" fill="none" xmlns="http://www.w3.org/2000/svg">
    <g opacity="0.3">
        <path opacity="0.3" d="M12 24C18.6274 24 24 18.6274 24 12C24 5.37258 18.6274 0 12 0C5.37258 0 0 5.37258 0 12C0 18.6274 5.37258 24 12 24Z" fill="#E34F32" />
    </g>
    <path d="M11.5875 19.4813C10.6 19.4313 9.675 19.2 8.8125 18.7875C7.95 18.375 7.2 17.8344 6.5625 17.1656C5.925 16.4969 5.42187 15.7187 5.05312 14.8312C4.68437 13.9437 4.5 13 4.5 12C4.5 10.9625 4.69687 9.9875 5.09062 9.075C5.48437 8.1625 6.01875 7.36875 6.69375 6.69375C7.36875 6.01875 8.1625 5.48437 9.075 5.09062C9.9875 4.69687 10.9625 4.5 12 4.5C13.8625 4.5 15.4813 5.0875 16.8563 6.2625C18.2313 7.4375 19.075 8.9125 19.3875 10.6875H18.2438C18.0313 9.6375 17.5875 8.7 16.9125 7.875C16.2375 7.05 15.3938 6.43125 14.3813 6.01875V6.35625C14.3813 6.79375 14.2312 7.175 13.9312 7.5C13.6312 7.825 13.2625 7.9875 12.825 7.9875H11.1938V9.61875C11.1938 9.83125 11.1094 10.0062 10.9406 10.1437C10.7719 10.2812 10.5812 10.35 10.3687 10.35H8.8125V12H10.875V14.3438H9.61875L5.79375 10.5187C5.73125 10.7687 5.6875 11.0156 5.6625 11.2594C5.6375 11.5031 5.625 11.75 5.625 12C5.625 13.6875 6.19375 15.1438 7.33125 16.3688C8.46875 17.5938 9.8875 18.2563 11.5875 18.3563V19.4813ZM18.5438 18.5812L16.425 16.4813C16.1625 16.6688 15.8781 16.8125 15.5719 16.9125C15.2656 17.0125 14.95 17.0625 14.625 17.0625C13.7375 17.0625 12.9844 16.7531 12.3656 16.1344C11.7469 15.5156 11.4375 14.7625 11.4375 13.875C11.4375 12.9875 11.7469 12.2344 12.3656 11.6156C12.9844 10.9969 13.7375 10.6875 14.625 10.6875C15.5125 10.6875 16.2656 10.9969 16.8844 11.6156C17.5031 12.2344 17.8125 12.9875 17.8125 13.875C17.8125 14.2 17.7594 14.5156 17.6531 14.8219C17.5469 15.1281 17.4063 15.4187 17.2313 15.6937L19.3312 17.7938C19.4437 17.9063 19.5031 18.0375 19.5094 18.1875C19.5156 18.3375 19.4625 18.475 19.35 18.6C19.2375 18.7125 19.1031 18.7656 18.9469 18.7594C18.7906 18.7531 18.6563 18.6937 18.5438 18.5812V18.5812ZM14.625 15.9375C15.2 15.9375 15.6875 15.7375 16.0875 15.3375C16.4875 14.9375 16.6875 14.45 16.6875 13.875C16.6875 13.3 16.4875 12.8125 16.0875 12.4125C15.6875 12.0125 15.2 11.8125 14.625 11.8125C14.05 11.8125 13.5625 12.0125 13.1625 12.4125C12.7625 12.8125 12.5625 13.3 12.5625 13.875C12.5625 14.45 12.7625 14.9375 13.1625 15.3375C13.5625 15.7375 14.05 15.9375 14.625 15.9375Z" fill="#B24A3C" />
</svg>
    