<svg width="15" height="15" viewBox="0 0 15 15" fill="none" xmlns="http://www.w3.org/2000/svg">
<path fill-rule="evenodd" clip-rule="evenodd" d="M7.5 0C3.36 0 0 3.36 0 7.5C0 11.64 3.36 15 7.5 15C11.64 15 15 11.64 15 7.5C15 3.36 11.64 0 7.5 0ZM10.94 10.06C11.18 10.3 11.18 10.7 10.94 10.94C10.82 11.06 10.66 11.12 10.5 11.12C10.34 11.12 10.18 11.06 10.06 10.94L7.5 8.38L4.94 10.94C4.82 11.06 4.66 11.12 4.5 11.12C4.34 11.12 4.18 11.06 4.06 10.94C3.82012 10.6957 3.82012 10.3043 4.06 10.06L6.62 7.5L4.06 4.94C3.82 4.7 3.82 4.3 4.06 4.06C4.3 3.82 4.7 3.82 4.94 4.06L7.5 6.62L10.06 4.06C10.3 3.82 10.7 3.82 10.94 4.06C11.18 4.3 11.18 4.7 10.94 4.94L8.38 7.5L10.94 10.06Z" fill="currentColor"/>
</svg>
