<svg viewBox="0 0 13 12" xmlns="http://www.w3.org/2000/svg">
<path fill-rule="evenodd" clip-rule="evenodd" d="M3.16776 11.5854C2.58309 11.8777 1.89706 11.4028 2.0372 10.7053L2.87625 7.48898L0.259886 5.36517C-0.199147 4.90614 0.0291545 4.05 0.726659 4.05073L4.09228 3.84038L5.33625 0.809053C5.50273 0.143113 6.41587 0.143113 6.72585 0.767478L7.91526 3.9159L11.2501 4.125C11.9854 4.125 12.2884 5.03378 11.7112 5.46629L9.12389 7.56413L9.96386 10.7841C10.1234 11.4224 9.39854 11.8685 8.79568 11.5644L5.9999 9.74717L3.16776 11.5854ZM6.04713 1.04199L6.04103 1.05691C6.04366 1.05357 6.04726 1.04985 6.04713 1.04199ZM4.60811 4.55961L4.37344 4.57427L0.750051 4.8C0.765948 4.8 3.72389 7.21088 3.72389 7.21088L3.66291 7.44466L2.76777 10.8735C2.75912 10.9168 2.78798 10.9368 2.79568 10.9356L6.00005 8.85275L6.20442 8.98559L9.16776 10.9146C9.20587 10.9336 9.22457 10.9231 9.2364 10.9666L8.27621 7.28588L8.46388 7.13372L11.2501 4.875C11.2617 4.86623 7.38487 4.63416 7.38487 4.63416L7.29925 4.40753L6.03964 1.06771C6.03882 1.06607 4.60811 4.55961 4.60811 4.55961Z" fill="currentColor"/>
</svg>
