<svg width="13" height="13" viewBox="0 0 13 13" fill="none" xmlns="http://www.w3.org/2000/svg">
<path fill-rule="evenodd" clip-rule="evenodd" d="M3.32843 5.17645L4.001 5.849L3.3 6.564L2.97487 6.23834L1.57843 7.63355C0.807191 8.40479 0.807191 9.65521 1.57843 10.4264L1.68648 10.5268C2.46235 11.1961 3.63514 11.1626 4.37132 10.4264L5.76724 9.03071L5.422 8.685L6.122 7.97L6.82843 8.67645C7.02369 8.87171 7.02369 9.18829 6.82843 9.38355L5.07843 11.1336C3.91667 12.2953 2.03308 12.2953 0.87132 11.1336C-0.29044 9.97179 -0.29044 8.08821 0.87132 6.92645L2.62132 5.17645C2.81658 4.98118 3.13316 4.98118 3.32843 5.17645ZM8.21984 3.08575C8.41606 2.95272 8.68528 2.97472 8.85709 3.15002C9.0289 3.32532 9.04548 3.59492 8.90853 3.78843L8.84998 3.85709L6.32486 6.33196L3.85709 8.84998L3.78843 8.90853C3.59492 9.04548 3.32532 9.0289 3.15002 8.85709C2.97472 8.68528 2.95272 8.41606 3.08575 8.21984L3.14291 8.15002L5.61778 5.62489L8.15002 3.14291L8.21984 3.08575ZM11.1336 0.87132C12.2953 2.03308 12.2953 3.91667 11.1336 5.07843L9.38355 6.82843C9.18829 7.02369 8.87171 7.02369 8.67645 6.82843L7.971 6.123L8.686 5.422L9.03 5.76653L10.4264 4.37132C11.1977 3.60008 11.1977 2.34966 10.4264 1.57843L10.3184 1.47804C9.54253 0.808784 8.36973 0.842247 7.63355 1.57843L6.23764 2.97417L6.564 3.301L5.849 4.001L5.17645 3.32843C4.98118 3.13316 4.98118 2.81658 5.17645 2.62132L6.92645 0.87132C8.08821 -0.29044 9.97179 -0.29044 11.1336 0.87132Z" fill="currentColor"/>
</svg>
