<svg width="12" height="12" viewBox="0 0 12 12" fill="none" xmlns="http://www.w3.org/2000/svg">
<path d="M1 9C1 5.87581 1 4.12419 1 1H8" stroke="currentColor" stroke-linecap="round" stroke-linejoin="round"/>
<path fill-rule="evenodd" clip-rule="evenodd" d="M9.72332 11.7302C9.60673 11.7302 9.49013 11.6995 9.39195 11.632L7.09082 10.1409L4.78968 11.632C4.57491 11.7731 4.30491 11.7609 4.09627 11.6136C3.88828 11.4655 3.79511 11.2031 3.86309 10.957L4.56877 8.30608L2.43945 6.57563C2.24246 6.41711 2.16424 6.15315 2.24309 5.9129C2.32286 5.66744 2.53763 5.50176 2.79536 5.48949L5.53218 5.34222L6.52013 2.78335C6.61218 2.54403 6.83309 2.39062 7.09082 2.39062C7.34854 2.39062 7.56945 2.54403 7.6615 2.78335L8.64945 5.34222L11.3863 5.48949C11.644 5.50176 11.8588 5.66744 11.9385 5.9129C12.0183 6.15835 11.9385 6.41608 11.7422 6.58176L9.61286 8.31222L10.3185 10.9631C10.386 11.2086 10.294 11.4663 10.0854 11.6197C9.98104 11.6872 9.85218 11.7302 9.72332 11.7302Z" fill="currentColor"/>
</svg>
