<svg width="136" height="141" viewBox="0 0 136 141" fill="none" xmlns="http://www.w3.org/2000/svg">
    <path
        d="M28.2669 120.725C28.2158 120.717 28.1661 120.702 28.1196 120.679C27.9747 120.627 27.8366 120.558 27.7084 120.473C27.2138 120.149 26.8251 119.684 26.5914 119.137C26.2072 118.271 26.1041 117.305 26.2969 116.377C26.6027 115.171 27.1582 114.044 27.9267 113.072C28.7137 111.962 29.7139 110.836 30.3942 109.402C30.757 108.674 30.9596 107.874 30.9883 107.059C30.9589 106.193 30.7873 105.339 30.4805 104.53C30.1383 103.656 29.9576 102.726 29.9474 101.786C29.9966 100.78 30.2884 99.8011 30.7973 98.9357C31.3062 98.0702 32.0167 97.3441 32.8668 96.8207C33.7786 96.3171 34.7898 96.0257 35.8268 95.9675C36.8304 95.9177 37.8242 95.7451 38.7868 95.4536C39.6906 95.1072 40.4333 94.4305 40.8685 93.5571C41.2832 92.6978 41.6131 91.7991 41.8535 90.8742C42.1103 89.9869 42.4503 89.1264 42.8689 88.3045C43.6323 86.7462 44.7948 85.4239 46.2351 84.4755C47.5068 83.6661 48.9947 83.2747 50.4948 83.355C51.7373 83.4201 52.9209 83.9113 53.8509 84.7479C54.5441 85.3788 55.0608 86.1837 55.3486 87.0812C55.5357 87.6431 55.6065 88.2379 55.5568 88.8287C55.5464 89.0342 55.5124 89.2377 55.4552 89.4352C55.4552 89.4352 55.4908 89.2244 55.506 88.8235C55.5304 88.2419 55.4442 87.6609 55.2522 87.1121C54.9026 86.1021 54.261 85.2218 53.4108 84.5857C52.5606 83.9496 51.5411 83.5871 50.4847 83.5452C49.0261 83.4802 47.5831 83.8714 46.3518 84.6656C44.9503 85.598 43.8212 86.8936 43.0821 88.4175C42.672 89.2396 42.3421 90.1003 42.0972 90.9873C41.8492 91.9289 41.509 92.8432 41.0817 93.7164C40.8463 94.1683 40.5393 94.5781 40.1729 94.9294C39.7941 95.2844 39.3486 95.5588 38.863 95.7363C37.8738 96.0449 36.8505 96.2279 35.8167 96.2811C34.8172 96.3344 33.8422 96.6136 32.9633 97.0983C32.1506 97.5973 31.4709 98.29 30.9833 99.116C30.4957 99.9419 30.215 100.876 30.1657 101.837C30.1748 102.748 30.3468 103.65 30.6735 104.499C30.9966 105.332 31.1769 106.215 31.2066 107.11C31.1723 107.959 30.9576 108.79 30.577 109.546C29.8662 111.016 28.8558 112.116 28.0638 113.231C27.2993 114.176 26.7421 115.275 26.4289 116.454C26.2266 117.351 26.3102 118.29 26.6676 119.137C26.8872 119.676 27.2534 120.141 27.7236 120.478C28.0638 120.653 28.272 120.704 28.2669 120.725Z"
        fill="white" />
    <path
        d="M90.4803 75.5139L92.6067 95.2841C92.6067 95.2841 96.7497 89.0236 99.5526 91.8134C102.224 94.4758 106.942 113.89 106.942 113.89C106.942 113.89 107.004 120.221 103.638 121.895C92.8439 127.272 80.8149 117.168 80.8149 117.168L82.5327 60.5808C87.008 64.3478 89.8553 69.6978 90.4803 75.5139Z"
        fill="#2E8057" />
    <path fill-rule="evenodd" clip-rule="evenodd"
        d="M72.7402 60.2821L54.0639 61.7715L52.1581 35.1122C51.3424 35.3789 46.9742 35.9708 46.8188 31.1539C46.6739 26.6612 50.3762 27.0561 51.601 27.3192L51.0324 19.3665L52.1835 18.4879C55.9924 15.554 60.5158 13.6907 65.286 13.0905C70.0562 12.4904 74.9002 13.1752 79.3171 15.0742C79.3171 15.0742 80.657 32.9201 80.5648 40.6876C80.4725 48.4551 72.7006 49.6633 72.7006 49.6633C72.7006 49.6633 72.8544 58.0854 72.7402 60.2821Z"
        fill="#E6EBEE" />
    <path fill-rule="evenodd" clip-rule="evenodd"
        d="M72.7402 60.2821L54.0639 61.7715L52.1581 35.1122C51.3424 35.3789 46.9742 35.9708 46.8188 31.1539C46.6739 26.6612 50.3762 27.0561 51.601 27.3192L51.0324 19.3665L52.1835 18.4879C55.9924 15.554 60.5158 13.6907 65.286 13.0905C70.0562 12.4904 74.9002 13.1752 79.3171 15.0742C79.3171 15.0742 80.657 32.9201 80.5648 40.6876C80.4725 48.4551 72.7006 49.6633 72.7006 49.6633C72.7006 49.6633 72.8544 58.0854 72.7402 60.2821Z"
        fill="url(#paint0_linear_6872_733)" fill-opacity="0.8" style="mix-blend-mode:color-burn" />
    <path fill-rule="evenodd" clip-rule="evenodd"
        d="M72.7402 60.2821L54.0639 61.7715L52.1581 35.1122C51.3424 35.3789 46.9742 35.9708 46.8188 31.1539C46.6739 26.6612 50.3762 27.0561 51.601 27.3192L51.0324 19.3665L52.1835 18.4879C55.9924 15.554 60.5158 13.6907 65.286 13.0905C70.0562 12.4904 74.9002 13.1752 79.3171 15.0742C79.3171 15.0742 80.657 32.9201 80.5648 40.6876C80.4725 48.4551 72.7006 49.6633 72.7006 49.6633C72.7006 49.6633 72.8544 58.0854 72.7402 60.2821Z"
        fill="#2F3941" fill-opacity="0.15" style="mix-blend-mode:multiply" />
    <path
        d="M72.7139 49.5545C69.126 49.6222 65.5992 48.6205 62.5827 46.6768C62.5827 46.6768 64.9771 52.2652 72.7314 51.5667L72.7139 49.5545Z"
        fill="#E6EBEE" />
    <path
        d="M72.7139 49.5545C69.126 49.6222 65.5992 48.6205 62.5827 46.6768C62.5827 46.6768 64.9771 52.2652 72.7314 51.5667L72.7139 49.5545Z"
        fill="url(#paint1_linear_6872_733)" fill-opacity="0.8" style="mix-blend-mode:color-burn" />
    <path
        d="M72.7139 49.5545C69.126 49.6222 65.5992 48.6205 62.5827 46.6768C62.5827 46.6768 64.9771 52.2652 72.7314 51.5667L72.7139 49.5545Z"
        fill="#2F3941" fill-opacity="0.15" style="mix-blend-mode:multiply" />
    <path
        d="M50.8556 33.0009C50.8293 33.0009 50.7634 33.0668 50.6096 33.1459C50.3931 33.2473 50.1455 33.26 49.9198 33.181C49.3487 32.9921 48.8479 32.1178 48.7907 31.16C48.7673 30.71 48.8423 30.2602 49.0104 29.842C49.0541 29.6742 49.1382 29.5196 49.2554 29.3917C49.3725 29.2638 49.5192 29.1665 49.6826 29.1083C49.788 29.0759 49.9015 29.082 50.0029 29.1254C50.1043 29.1689 50.1869 29.2469 50.2362 29.3456C50.3108 29.4906 50.2845 29.596 50.3109 29.6048C50.3372 29.6136 50.4207 29.5125 50.3724 29.2929C50.336 29.1637 50.259 29.0497 50.1527 28.9677C50.0027 28.8642 49.8189 28.8218 49.6387 28.8491C49.4191 28.9024 49.2169 29.0111 49.0515 29.165C48.8861 29.3189 48.763 29.5127 48.6941 29.7278C48.4859 30.1954 48.3925 30.7061 48.4217 31.2172C48.492 32.2847 49.0719 33.2689 49.8452 33.4666C49.9892 33.5044 50.14 33.509 50.2861 33.4801C50.4322 33.4512 50.5699 33.3895 50.6887 33.2996C50.8468 33.1283 50.8732 33.0097 50.8556 33.0009Z"
        fill="#547B8E" />
    <path
        d="M77.6035 27.1063C77.6059 27.3959 77.4953 27.675 77.2951 27.8842C77.0949 28.0935 76.8209 28.2163 76.5315 28.2266C76.3903 28.238 76.2482 28.2209 76.1137 28.1763C75.9793 28.1318 75.8551 28.0607 75.7486 27.9673C75.642 27.8739 75.5553 27.76 75.4936 27.6325C75.4319 27.505 75.3964 27.3664 75.3892 27.2249C75.3867 26.9361 75.4967 26.6576 75.696 26.4485C75.8953 26.2393 76.1682 26.116 76.4568 26.1046C76.5981 26.0939 76.7402 26.1114 76.8746 26.1561C77.0091 26.2008 77.1334 26.2719 77.2401 26.3651C77.3468 26.4583 77.4339 26.5719 77.4963 26.6992C77.5587 26.8264 77.5951 26.9648 77.6035 27.1063Z"
        fill="#001825" />
    <path
        d="M77.8435 26.0073C77.7073 26.1522 76.8637 25.5284 75.6731 25.5328C74.4825 25.5372 73.6038 26.1347 73.4764 25.9721C73.4149 25.9062 73.5555 25.6426 73.9158 25.3658C74.432 25.0092 75.0457 24.8205 75.6731 24.8254C76.2947 24.8231 76.9009 25.0185 77.4041 25.3834C77.7864 25.6822 77.9094 25.9414 77.8435 26.0073Z"
        fill="#001825" />
    <path
        d="M65.9082 27.5435C65.9107 27.8324 65.8006 28.1109 65.6013 28.32C65.4021 28.5291 65.1292 28.6524 64.8406 28.6638C64.6993 28.6746 64.5572 28.6571 64.4227 28.6123C64.2882 28.5676 64.164 28.4966 64.0573 28.4033C63.9505 28.3101 63.8634 28.1965 63.801 28.0693C63.7387 27.942 63.7022 27.8036 63.6939 27.6621C63.6925 27.3729 63.8035 27.0944 64.0035 26.8854C64.2035 26.6764 64.4768 26.5532 64.7659 26.5418C64.907 26.5311 65.0488 26.5486 65.183 26.5934C65.3172 26.6382 65.4412 26.7093 65.5476 26.8026C65.6539 26.8959 65.7406 27.0095 65.8026 27.1367C65.8645 27.2639 65.9004 27.4022 65.9082 27.5435Z"
        fill="#001825" />
    <path
        d="M66.1094 26.2266C65.9688 26.3716 65.1297 25.7477 63.9347 25.7521C62.7397 25.7565 61.8654 26.354 61.738 26.1915C61.6721 26.13 61.8127 25.8664 62.1773 25.5896C62.6938 25.2329 63.307 25.0428 63.9347 25.0448C64.556 25.044 65.1618 25.2392 65.6657 25.6027C66.0479 25.9059 66.1753 26.1651 66.1094 26.2266Z"
        fill="#001825" />
    <path
        d="M70.4421 35.084C70.4421 35.0181 71.1802 34.8907 72.3796 34.7369C72.6871 34.7062 72.9727 34.6446 73.0254 34.4338C73.0497 34.1201 72.9793 33.8064 72.8233 33.5331C72.5304 32.795 72.2302 32.0203 71.9227 31.209C70.6662 27.9052 69.7611 25.1857 69.8973 25.1374C70.0335 25.089 71.1538 27.7295 72.406 31.0333C72.7047 31.8461 72.9947 32.6237 73.2846 33.3706C73.4792 33.737 73.5354 34.1612 73.4428 34.5656C73.399 34.6726 73.331 34.7679 73.2441 34.8442C73.1572 34.9204 73.0537 34.9754 72.942 35.0049C72.7733 35.0528 72.5989 35.078 72.4235 35.0796C71.1978 35.1499 70.4465 35.1543 70.4421 35.084Z"
        fill="#001825" />
    <path
        d="M66.4171 21.5511C66.2985 21.8762 65.0991 21.7224 63.7064 21.8894C62.3137 22.0563 61.1714 22.4385 60.9869 22.1486C60.9034 22.008 61.1011 21.7092 61.558 21.3885C62.1692 21.0078 62.8587 20.7705 63.5747 20.6944C64.2907 20.6183 65.0147 20.7054 65.6922 20.9492C66.2062 21.1425 66.4655 21.3929 66.4171 21.5511Z"
        fill="#001825" />
    <path
        d="M77.405 22.5534C77.1941 22.8214 76.3725 22.5534 75.384 22.5271C74.3955 22.5007 73.5564 22.7116 73.3631 22.426C73.2796 22.2898 73.4114 22.0174 73.776 21.7626C74.2668 21.4532 74.8386 21.2971 75.4185 21.3143C75.9984 21.3316 76.56 21.5213 77.0315 21.8593C77.383 22.1405 77.4972 22.4172 77.405 22.5534Z"
        fill="#001825" />
    <path
        d="M83.0997 10.1726C83.1547 9.69032 83.0864 9.20193 82.9012 8.7532C82.716 8.30446 82.42 7.91005 82.0409 7.6069C81.6493 7.32216 81.1694 7.18573 80.6866 7.22194C80.2038 7.25815 79.7496 7.46465 79.4049 7.80461C79.4779 7.48021 79.482 7.14407 79.4168 6.818C79.3516 6.49194 79.2185 6.18322 79.0263 5.91188C78.8341 5.64054 78.587 5.41263 78.301 5.24295C78.015 5.07327 77.6966 4.96561 77.3663 4.92694C76.0966 4.84786 75.0159 5.80561 73.7945 6.13951C72.5731 6.47341 71.3166 6.18344 70.1656 5.72214C69.0145 5.26083 67.9425 4.6194 66.7783 4.19324C64.3184 3.29488 61.6033 3.4038 59.2233 4.49633C56.8432 5.58886 54.9906 7.57667 54.0682 10.0277C52.368 9.49606 50.4393 10.3616 49.3892 11.785C48.3392 13.2085 48.0712 15.1152 48.2821 16.8813C48.4457 18.0729 48.7403 19.2428 49.1608 20.3697C49.1608 20.4707 49.1608 20.5674 49.1608 20.6684C49.2443 24.9388 49.7275 29.956 51.5508 29.9868C54.7272 30.0351 53.9672 24.0469 53.9672 24.0469C57.8685 22.5444 56.4143 16.7012 57.3896 15.8137C58.3649 14.9263 60.4035 12.8702 68.5664 17.0395C71.7384 18.6607 75.9517 18.6123 78.2538 18.0895L78.4559 18.0456H78.5042C78.5266 18.0379 78.5486 18.0291 78.5701 18.0192C79.3101 17.8371 80.0172 17.5407 80.6658 17.1405C81.4295 16.7001 82.0328 16.0275 82.388 15.2206C82.559 14.8168 82.6086 14.3719 82.5306 13.9404C82.4525 13.5088 82.2503 13.1094 81.9486 12.7911C82.5798 12.0494 82.9799 11.1391 83.0997 10.1726Z"
        fill="#001825" />
    <path
        d="M66.4354 37.9098C66.73 37.8442 67.0817 39.3895 68.9984 40.1172C70.9151 40.845 72.954 40.212 73.0237 40.4558C73.046 40.5558 72.6278 40.865 71.7553 41.0777C70.616 41.3487 69.4341 41.2905 68.4181 40.9131C67.4446 40.5471 66.7205 39.8716 66.3986 39.0292C66.1644 38.359 66.3028 37.9393 66.4354 37.9098Z"
        fill="#263238" />
    <path
        d="M38.7826 110.531L38.1983 121.563L36.8803 137.379H86.8023L84.632 113.98L88.8848 77.0092C88.5157 63.9433 83.4985 58.5131 73.2355 57.2654L74.0439 57.3664C72.6292 57.1995 74.0439 57.3664 73.2355 57.2654C66.755 59.3126 59.8009 59.3126 53.3203 57.2654C50.245 57.3972 47.6924 58.3417 45.0739 58.847C36.8276 60.4242 30.0398 66.7946 28.3791 72.3434C27.0215 76.9082 17.2023 116.501 17.2023 116.501H36.7485L38.7826 110.531Z"
        fill="#2E8057" />
    <path
        d="M88.9692 108.324L100.726 72.2275L101.789 66.169C101.789 66.169 104.987 52.6549 105.132 51.3193C105.295 49.7729 106.081 49.4829 106.644 49.562C107.522 49.7202 108.036 50.88 107.935 52.198C107.9 52.6374 107.057 59.8864 107.057 59.8864C107.551 59.249 108.09 58.6471 108.669 58.0852C109.886 56.8462 112.483 56.3278 115.053 56.7012C117.623 57.0747 118.313 57.391 118.216 58.3971C118.189 58.5861 118.121 58.7668 118.015 58.9257C117.909 59.0846 117.769 59.2178 117.605 59.3153C117.089 59.6624 116.463 59.8064 115.848 59.7195C111.723 59.1967 110.374 61.2879 110.374 61.2879L110.233 62.0787C110.233 62.0787 112.939 60.5586 114.855 61.5296C115.139 61.673 115.393 61.87 115.602 62.1095C116.165 62.1729 116.702 62.3824 117.159 62.7172C117.616 63.052 117.978 63.5004 118.208 64.0181C118.439 64.5358 118.53 65.1048 118.473 65.6686C118.415 66.2323 118.212 66.7714 117.882 67.2322C117.566 67.6715 117.003 68.0669 116.498 67.9044C116.23 67.7897 115.994 67.61 115.813 67.3816C115.71 67.2675 115.596 67.1631 115.474 67.0696L114.776 69.2356C114.776 69.2356 112.939 74.02 112.377 76.1903L106.666 112.537C106.477 113.734 106.052 114.881 105.415 115.912C104.778 116.943 103.942 117.837 102.956 118.542C101.97 119.246 100.854 119.747 99.672 120.016C98.4903 120.285 97.267 120.316 96.0733 120.107C94.7893 119.881 93.5686 119.382 92.4935 118.645C91.4184 117.907 90.5138 116.948 89.8406 115.831C89.1675 114.715 88.7414 113.467 88.5911 112.172C88.4407 110.877 88.5697 109.565 88.9692 108.324Z"
        fill="#E6EBEE" />
    <path
        d="M88.9692 108.324L100.726 72.2275L101.789 66.169C101.789 66.169 104.987 52.6549 105.132 51.3193C105.295 49.7729 106.081 49.4829 106.644 49.562C107.522 49.7202 108.036 50.88 107.935 52.198C107.9 52.6374 107.057 59.8864 107.057 59.8864C107.551 59.249 108.09 58.6471 108.669 58.0852C109.886 56.8462 112.483 56.3278 115.053 56.7012C117.623 57.0747 118.313 57.391 118.216 58.3971C118.189 58.5861 118.121 58.7668 118.015 58.9257C117.909 59.0846 117.769 59.2178 117.605 59.3153C117.089 59.6624 116.463 59.8064 115.848 59.7195C111.723 59.1967 110.374 61.2879 110.374 61.2879L110.233 62.0787C110.233 62.0787 112.939 60.5586 114.855 61.5296C115.139 61.673 115.393 61.87 115.602 62.1095C116.165 62.1729 116.702 62.3824 117.159 62.7172C117.616 63.052 117.978 63.5004 118.208 64.0181C118.439 64.5358 118.53 65.1048 118.473 65.6686C118.415 66.2323 118.212 66.7714 117.882 67.2322C117.566 67.6715 117.003 68.0669 116.498 67.9044C116.23 67.7897 115.994 67.61 115.813 67.3816C115.71 67.2675 115.596 67.1631 115.474 67.0696L114.776 69.2356C114.776 69.2356 112.939 74.02 112.377 76.1903L106.666 112.537C106.477 113.734 106.052 114.881 105.415 115.912C104.778 116.943 103.942 117.837 102.956 118.542C101.97 119.246 100.854 119.747 99.672 120.016C98.4903 120.285 97.267 120.316 96.0733 120.107C94.7893 119.881 93.5686 119.382 92.4935 118.645C91.4184 117.907 90.5138 116.948 89.8406 115.831C89.1675 114.715 88.7414 113.467 88.5911 112.172C88.4407 110.877 88.5697 109.565 88.9692 108.324Z"
        fill="url(#paint2_linear_6872_733)" fill-opacity="0.8" style="mix-blend-mode:color-burn" />
    <path
        d="M88.9692 108.324L100.726 72.2275L101.789 66.169C101.789 66.169 104.987 52.6549 105.132 51.3193C105.295 49.7729 106.081 49.4829 106.644 49.562C107.522 49.7202 108.036 50.88 107.935 52.198C107.9 52.6374 107.057 59.8864 107.057 59.8864C107.551 59.249 108.09 58.6471 108.669 58.0852C109.886 56.8462 112.483 56.3278 115.053 56.7012C117.623 57.0747 118.313 57.391 118.216 58.3971C118.189 58.5861 118.121 58.7668 118.015 58.9257C117.909 59.0846 117.769 59.2178 117.605 59.3153C117.089 59.6624 116.463 59.8064 115.848 59.7195C111.723 59.1967 110.374 61.2879 110.374 61.2879L110.233 62.0787C110.233 62.0787 112.939 60.5586 114.855 61.5296C115.139 61.673 115.393 61.87 115.602 62.1095C116.165 62.1729 116.702 62.3824 117.159 62.7172C117.616 63.052 117.978 63.5004 118.208 64.0181C118.439 64.5358 118.53 65.1048 118.473 65.6686C118.415 66.2323 118.212 66.7714 117.882 67.2322C117.566 67.6715 117.003 68.0669 116.498 67.9044C116.23 67.7897 115.994 67.61 115.813 67.3816C115.71 67.2675 115.596 67.1631 115.474 67.0696L114.776 69.2356C114.776 69.2356 112.939 74.02 112.377 76.1903L106.666 112.537C106.477 113.734 106.052 114.881 105.415 115.912C104.778 116.943 103.942 117.837 102.956 118.542C101.97 119.246 100.854 119.747 99.672 120.016C98.4903 120.285 97.267 120.316 96.0733 120.107C94.7893 119.881 93.5686 119.382 92.4935 118.645C91.4184 117.907 90.5138 116.948 89.8406 115.831C89.1675 114.715 88.7414 113.467 88.5911 112.172C88.4407 110.877 88.5697 109.565 88.9692 108.324Z"
        fill="#2F3941" fill-opacity="0.15" style="mix-blend-mode:multiply" />
    <path
        d="M102.373 66.4071C102.604 66.2401 102.855 66.1028 103.12 65.9985C103.612 65.7613 104.333 65.4361 105.225 65.0363L108.362 63.6656L109.275 63.2746C109.619 63.0592 110.035 62.9881 110.431 63.0769C110.552 63.1309 110.653 63.2203 110.722 63.3332C110.791 63.4462 110.824 63.5774 110.817 63.7095C110.806 63.9258 110.744 64.1363 110.637 64.3246C110.44 64.6566 110.208 64.966 109.943 65.2472C108.867 66.3719 107.566 67.0046 106.591 67.8086C106.119 68.1672 105.704 68.5953 105.361 69.0783C105.049 69.5176 104.834 70.0228 104.588 70.4534C104.423 70.8206 104.181 71.1477 103.878 71.4117C103.574 71.6757 103.217 71.8705 102.83 71.9823C102.25 72.0921 101.952 71.8681 101.978 71.8593C102.248 71.8948 102.522 71.8799 102.786 71.8153C103.132 71.6833 103.447 71.4808 103.71 71.2206C103.973 70.9604 104.179 70.6482 104.315 70.304C104.539 69.8647 104.755 69.377 105.062 68.8718C105.414 68.3483 105.845 67.8829 106.341 67.4922C107.342 66.6443 108.634 65.9853 109.622 64.9397C109.864 64.6874 110.076 64.4089 110.255 64.1093C110.418 63.8282 110.431 63.525 110.255 63.4767C110.079 63.4284 109.745 63.5338 109.438 63.6656L108.524 64.0434L105.348 65.3307C104.438 65.6866 103.7 65.9721 103.191 66.1611C102.931 66.2806 102.656 66.3634 102.373 66.4071Z"
        fill="#547B8E" />
    <path
        d="M110.137 62.1432C110.236 61.652 110.45 61.1913 110.761 60.7988C111.118 60.4 111.594 60.1273 112.119 60.0212C112.773 59.8945 113.443 59.8708 114.104 59.9509C114.788 60.0337 115.479 60.0469 116.165 59.9904C116.742 59.9357 117.295 59.7312 117.769 59.3973C117.928 59.2768 118.058 59.1216 118.148 58.9435C118.239 58.7654 118.288 58.5691 118.291 58.3693C118.301 58.2265 118.267 58.0841 118.195 57.9607C118.168 57.9607 118.195 58.1101 118.195 58.3649C118.175 58.5416 118.117 58.7119 118.024 58.8637C117.932 59.0155 117.807 59.1451 117.659 59.2436C117.205 59.5307 116.687 59.6999 116.152 59.7356C115.482 59.7756 114.81 59.7535 114.144 59.6697C113.452 59.5883 112.751 59.6239 112.07 59.7751C111.499 59.9055 110.988 60.2243 110.621 60.6802C110.381 60.9861 110.22 61.347 110.155 61.7302C110.114 61.8642 110.108 62.0063 110.137 62.1432Z"
        fill="#547B8E" />
    <path
        d="M107.966 51.7073C107.867 52.1803 107.808 52.6609 107.79 53.1439C107.698 54.1324 107.584 55.3099 107.457 56.6103C107.329 57.9107 107.18 59.0838 107.07 60.0723C106.985 60.548 106.943 61.0302 106.942 61.5133C107.105 61.0572 107.216 60.5841 107.272 60.103C107.426 59.2244 107.601 57.9986 107.742 56.6411C107.883 55.2835 107.966 54.0489 107.997 53.1571C108.041 52.6742 108.03 52.1879 107.966 51.7073Z"
        fill="#547B8E" />
    <path
        d="M111.594 63.9495C111.745 63.9272 111.892 63.8874 112.034 63.8309C112.214 63.7588 112.408 63.7273 112.601 63.7387C112.795 63.7501 112.984 63.8041 113.154 63.8968C113.257 63.9674 113.34 64.0638 113.394 64.1764C113.448 64.289 113.471 64.4138 113.462 64.5383C113.446 64.8532 113.39 65.1647 113.295 65.4653C113.168 65.8418 113.186 66.2517 113.343 66.6163C113.45 66.8059 113.599 66.9676 113.78 67.0883C113.961 67.2089 114.168 67.2851 114.384 67.3105C114.597 67.3322 114.811 67.3107 115.015 67.2473C115.219 67.1839 115.408 67.0798 115.57 66.9415C115.872 66.6946 116.095 66.3647 116.212 65.9925C116.359 65.3862 116.417 64.7615 116.383 64.1385C116.376 63.7174 116.294 63.3009 116.142 62.9083C116.093 62.759 116.005 62.6255 115.887 62.5217C115.887 62.5217 115.957 62.6711 116.036 62.961C116.139 63.3523 116.186 63.756 116.177 64.1604C116.182 64.7534 116.108 65.3444 115.957 65.9178C115.859 66.2464 115.655 66.5333 115.377 66.7343C115.099 66.9352 114.762 67.0389 114.419 67.0293C114.249 67.0086 114.087 66.9491 113.943 66.8554C113.8 66.7617 113.68 66.6363 113.593 66.4889C113.466 66.1848 113.452 65.8448 113.554 65.5312C113.645 65.2065 113.694 64.8712 113.699 64.5339C113.702 64.3732 113.663 64.2145 113.586 64.0735C113.509 63.9325 113.396 63.814 113.259 63.7299C113.064 63.63 112.848 63.5779 112.629 63.5779C112.41 63.5779 112.194 63.63 111.999 63.7299C111.722 63.8441 111.568 63.932 111.594 63.9495Z"
        fill="#547B8E" />
    <path
        d="M115.47 66.7079C115.47 66.7079 115.4 66.8529 115.47 67.1209C115.524 67.3091 115.621 67.4823 115.753 67.627C115.884 67.7718 116.048 67.8843 116.23 67.9556C116.508 68.049 116.805 68.0685 117.092 68.0123C117.379 67.956 117.647 67.826 117.869 67.6349C118.396 67.1652 118.721 66.5107 118.778 65.8073C118.854 65.1147 118.711 64.4158 118.37 63.8083C118.089 63.3178 117.68 62.9125 117.188 62.6353C116.864 62.447 116.508 62.3204 116.138 62.2618C116.003 62.2297 115.863 62.2297 115.729 62.2618C116.203 62.382 116.659 62.5667 117.082 62.811C117.574 63.1219 117.968 63.566 118.218 64.0917C118.467 64.6174 118.563 65.2032 118.493 65.7809C118.443 66.4127 118.159 67.0032 117.697 67.4372C117.511 67.6054 117.285 67.7238 117.041 67.7814C116.797 67.839 116.542 67.8339 116.3 67.7667C116.138 67.7119 115.99 67.6232 115.865 67.5065C115.74 67.3899 115.641 67.2479 115.575 67.0901C115.483 66.8573 115.496 66.7079 115.47 66.7079Z"
        fill="#547B8E" />
    <path
        d="M109.965 71.0073C109.747 70.9145 109.506 70.8915 109.275 70.9415C108.671 71.0043 108.106 71.269 107.671 71.6927L107.904 71.7894C107.908 71.4604 107.889 71.1316 107.847 70.8053C107.632 68.8985 106.736 67.5761 106.683 67.6245C106.63 67.6728 107.355 69.004 107.562 70.8404C107.6 71.1554 107.622 71.4721 107.628 71.7894V72.1189L107.856 71.886C108.25 71.4943 108.749 71.2256 109.293 71.1128C109.71 71.0381 109.965 71.0381 109.965 71.0073Z"
        fill="#547B8E" />
    <path
        d="M111.429 58.7046C111.359 58.731 111.583 59.2801 112.189 59.6184C112.795 59.9567 113.375 59.8776 113.362 59.8029C113.349 59.7283 112.852 59.6711 112.33 59.3636C111.807 59.0561 111.504 58.6607 111.429 58.7046Z"
        fill="#547B8E" />
    <path opacity="0.3"
        d="M79.6549 58.7012C79.6549 58.7012 79.8174 58.877 80.0942 59.2153C80.5328 59.6918 80.8785 60.2461 81.1135 60.8496C81.1834 61.055 81.222 61.2697 81.2277 61.4866C81.2272 61.7181 81.1698 61.9459 81.0608 62.15C80.7611 62.601 80.3137 62.9335 79.7955 63.0902C78.4956 63.498 77.1375 63.6895 75.7755 63.657C75.0199 63.657 74.2027 63.7009 73.3679 63.7492L72.0895 63.8986C71.6501 63.9469 71.2108 64.0655 70.7715 64.1446C68.8644 64.5339 67.0652 65.3346 65.4994 66.4907C64.6461 67.1275 63.9039 67.9009 63.3027 68.7796C63.1517 69.0097 63.0124 69.2473 62.8853 69.4914C62.7579 69.7506 62.6701 70.001 62.5646 70.2558C62.3687 70.7756 62.2216 71.3124 62.1253 71.8594C61.6832 74.1621 62.0478 76.5467 63.1577 78.612C64.3045 80.6618 66.1464 82.234 68.3507 83.045C69.3864 83.4336 70.4786 83.6503 71.5842 83.6864C72.6387 83.6923 73.6896 83.5654 74.7123 83.3086C75.6559 83.0658 76.6163 82.8939 77.5856 82.7946C78.4812 82.7081 79.3835 82.8676 80.1953 83.2559C80.9413 83.6563 81.6046 84.1945 82.1503 84.8419C82.6995 85.4569 83.1652 86.1028 83.6265 86.7134C84.5359 87.9392 85.5025 89.02 86.6272 89.5867C87.1427 89.863 87.7163 90.0135 88.3011 90.0261C88.7896 90.0318 89.2746 89.9422 89.7289 89.7625C90.0909 89.6183 90.4231 89.4082 90.7086 89.143C90.9137 88.9436 91.0804 88.7083 91.2007 88.4488C91.3034 88.2382 91.356 88.0066 91.3545 87.7723C91.3237 87.7723 91.3149 88.0139 91.1172 88.4093C90.9869 88.6468 90.8176 88.8606 90.6164 89.0419C90.3358 89.2819 90.0144 89.4694 89.6674 89.5955C89.1927 89.771 88.6855 89.841 88.181 89.8008C87.6765 89.7606 87.1867 89.6111 86.7458 89.3627C85.6914 88.8047 84.7732 87.7547 83.8857 86.5245C83.4464 85.9095 82.9719 85.2505 82.4139 84.609C81.8499 83.9143 81.1579 83.3341 80.3754 82.9C79.5049 82.4725 78.5343 82.2902 77.568 82.3728C76.5772 82.4688 75.5948 82.6377 74.6289 82.878C73.6401 83.1225 72.6247 83.242 71.6062 83.2339C70.5544 83.1909 69.5162 82.9803 68.5308 82.61C66.4303 81.8302 64.6754 80.3291 63.5795 78.3748C62.5206 76.4018 62.1701 74.1254 62.5866 71.9253C62.688 71.4024 62.835 70.8893 63.0259 70.392C63.1314 70.146 63.2192 69.8912 63.3291 69.6715C63.4441 69.4412 63.5732 69.2182 63.7157 69.0037C64.2829 68.1636 64.9833 67.4216 65.7894 66.807C67.3045 65.6775 69.046 64.8892 70.8945 64.4961C71.3338 64.4126 71.7732 64.294 72.1817 64.2457L73.4382 64.0831C74.2642 64.026 75.055 63.9909 75.8239 63.9645C77.2186 63.9764 78.6055 63.7552 79.9273 63.3099C80.4776 63.119 80.9458 62.7453 81.2541 62.2511C81.3751 62.0134 81.4341 61.7489 81.4254 61.4822C81.4134 61.2462 81.3645 61.0134 81.2804 60.7925C81.0234 60.1751 80.6421 59.6173 80.1601 59.1538C80.0137 58.98 79.8437 58.8277 79.6549 58.7012Z"
        fill="white" />
    <path opacity="0.3"
        d="M46.2341 87.996C46.3547 87.6792 46.4258 87.3458 46.445 87.0074C46.5428 86.0857 46.4818 85.154 46.2648 84.2528C45.9426 82.9103 45.3622 81.6434 44.5558 80.5228C43.5744 79.1476 42.3195 77.9899 40.8697 77.1223C39.4117 76.2853 37.8268 75.6917 36.1776 75.365C34.8406 75.0889 33.479 74.9491 32.1137 74.9476C31.198 74.9375 30.2825 74.983 29.3723 75.0838C29.0363 75.0975 28.7038 75.1566 28.3838 75.2595C28.3838 75.3386 29.8116 75.1804 32.1093 75.2595C33.4488 75.309 34.781 75.4796 36.0898 75.7692C37.6872 76.1164 39.2211 76.7093 40.6369 77.5265C42.035 78.3629 43.2523 79.4696 44.2175 80.782C45.0097 81.8509 45.5967 83.0576 45.9485 84.3407C46.1859 85.2075 46.2939 86.1046 46.2692 87.0031C46.2326 87.3327 46.2209 87.6646 46.2341 87.996Z"
        fill="white" />
    <path opacity="0.3"
        d="M22.2286 95.6421C22.3625 95.9239 22.5372 96.1845 22.747 96.4154C23.27 97.078 23.8588 97.6859 24.5044 98.2298C25.4664 99.0451 26.5314 99.7305 27.672 100.268C30.4855 101.621 33.6675 102.006 36.7224 101.362C37.959 101.111 39.157 100.697 40.2854 100.132C41.0448 99.759 41.7646 99.3101 42.4338 98.7922C42.6931 98.6192 42.9243 98.4073 43.1191 98.1639C43.0664 98.0936 42.0647 98.9679 40.1448 99.8422C37.6537 100.999 34.8893 101.437 32.1627 101.108C29.436 100.779 26.8553 99.6953 24.7109 97.9794C23.0633 96.6658 22.2989 95.5762 22.2286 95.6421Z"
        fill="white" />
    <path opacity="0.3"
        d="M44.2968 94.2276C44.4236 94.2978 44.5576 94.3538 44.6966 94.3946C45.0733 94.5477 45.4154 94.7747 45.7027 95.0624C46.1433 95.5307 46.4867 96.0817 46.7132 96.6835C47.0197 97.4865 47.2578 98.314 47.4249 99.157C47.6056 100.194 47.8432 101.221 48.1366 102.232C48.3215 102.808 48.5768 103.358 48.8967 103.871C49.2506 104.41 49.683 104.892 50.1796 105.303C51.251 106.156 52.4862 106.78 53.8085 107.135C55.1617 107.54 56.5939 107.759 58.0349 108.04C60.7464 108.487 63.3168 109.558 65.5432 111.169C66.4962 111.883 67.3398 112.732 68.0475 113.69C68.6501 114.536 69.1308 115.461 69.4753 116.441C69.9827 117.864 70.1424 119.389 69.941 120.887C69.7828 121.945 69.5412 122.499 69.5895 122.517C69.6672 122.393 69.7292 122.26 69.7741 122.121C69.842 121.958 69.8992 121.791 69.9454 121.62C70.0163 121.39 70.0735 121.155 70.1167 120.917C70.3917 119.388 70.2769 117.813 69.7829 116.34C69.4485 115.32 68.9691 114.354 68.3594 113.471C67.6408 112.471 66.7792 111.583 65.8024 110.835C63.5348 109.162 60.903 108.051 58.1228 107.592C56.6686 107.307 55.2495 107.091 53.9359 106.714C52.6681 106.381 51.4812 105.793 50.4476 104.987C49.9802 104.61 49.5715 104.166 49.235 103.669C48.9276 103.188 48.6798 102.672 48.4969 102.131C48.1923 101.13 47.94 100.114 47.7412 99.0867C47.5551 98.2271 47.2919 97.3861 46.9548 96.5737C46.6973 95.9519 46.3127 95.3907 45.8257 94.9262C45.5149 94.6346 45.1403 94.4195 44.7318 94.2979C44.5918 94.2503 44.4447 94.2265 44.2968 94.2276Z"
        fill="white" />
    <path opacity="0.3"
        d="M56.0675 92.3955C55.9158 92.6713 55.8371 92.9813 55.839 93.2961C55.7954 94.1617 56.0428 95.0171 56.542 95.7256C56.8784 96.2257 57.3305 96.6372 57.86 96.925C58.1585 97.0881 58.4799 97.2051 58.8134 97.2721C59.1668 97.3376 59.5277 97.3523 59.8853 97.316C60.6536 97.2324 61.3836 96.9374 61.9942 96.4637C62.6649 95.9571 63.1448 95.2388 63.3561 94.4252C63.4906 93.8955 63.4982 93.3416 63.3781 92.8084C63.2484 92.3024 63.0084 91.8313 62.6751 91.4289C62.3905 91.0475 62.0681 90.6957 61.713 90.3789C61.5417 90.2211 61.3548 90.0813 61.155 89.9615C60.9491 89.8243 60.7119 89.7411 60.4653 89.7199L60.4082 90.1109L60.6234 90.1636L60.7333 89.7858C59.9342 89.559 59.0822 89.6053 58.3125 89.9176C57.7253 90.1427 57.2009 90.5059 56.7836 90.9764C56.5163 91.2728 56.305 91.6151 56.1598 91.9869C56.0675 92.2461 56.0455 92.3911 56.0631 92.3955C56.3016 91.9397 56.5968 91.5161 56.9418 91.1346C57.3579 90.7237 57.8608 90.4115 58.4136 90.2207C59.1202 89.964 59.8912 89.9439 60.6103 90.1636L60.7201 89.7858L60.5048 89.7243L60.4433 90.1197C60.82 90.21 61.1621 90.4085 61.4274 90.6908C61.7513 90.9978 62.0455 91.3347 62.3061 91.6969C62.6111 92.0553 62.8241 92.4827 62.9267 92.9421C63.0293 93.4014 63.0183 93.8788 62.8948 94.3329C62.7057 95.0462 62.2874 95.6776 61.7042 96.1298C61.159 96.5554 60.5097 96.827 59.8238 96.9162C59.5066 96.9531 59.1857 96.9457 58.8705 96.8943C58.5743 96.8397 58.2874 96.7436 58.0182 96.6087C57.53 96.3584 57.1072 95.9973 56.7836 95.5543C56.2948 94.9091 56.0199 94.1272 55.9972 93.3181C56.0104 92.725 56.1114 92.4086 56.0675 92.3955Z"
        fill="white" />
    <path
        d="M84.4176 78.0681C84.4099 78.1073 84.4099 78.1476 84.4176 78.1867C84.4176 78.2746 84.4176 78.3888 84.4176 78.5294C84.4176 78.8501 84.4572 79.2939 84.4835 79.8474C84.5538 80.9985 84.6197 82.6636 84.712 84.7197C84.8833 88.8363 85.0547 94.5213 85.1865 100.808C85.3183 107.095 85.4017 112.785 85.4632 116.901C85.494 118.949 85.5204 120.609 85.5379 121.782C85.5379 122.34 85.5599 122.784 85.5643 123.1C85.5643 123.241 85.5643 123.355 85.5643 123.447C85.5586 123.487 85.5586 123.527 85.5643 123.566C85.571 123.527 85.571 123.487 85.5643 123.447C85.5643 123.355 85.5643 123.241 85.5643 123.1C85.5643 122.78 85.5643 122.336 85.5643 121.782V116.906C85.5643 112.785 85.4896 107.095 85.3534 100.804C85.2172 94.5126 85.0283 88.8319 84.813 84.7153C84.6988 82.6592 84.6065 80.9941 84.5099 79.8474C84.466 79.2851 84.4308 78.8413 84.4044 78.5294C84.4044 78.3888 84.3781 78.2746 84.3693 78.1823C84.3902 78.1465 84.4064 78.1081 84.4176 78.0681Z"
        fill="#001825" />
    <g opacity="0.2">
        <path
            d="M92.8125 118.895C90.361 120.068 87.1582 117.814 85.9061 115.406C85.9061 115.406 85.2515 110.09 85.3393 107.375C85.5107 102.349 85.1416 97.3715 85.313 92.3455C85.6978 95.3546 86.9426 98.1889 88.898 100.508C89.4384 101.145 90.0447 101.778 90.2468 102.586C90.607 104.036 89.4999 106.642 88.7882 107.955C86.5915 111.971 91.3803 118.939 92.6543 118.794"
            fill="#2F3941" />
    </g>
    <g opacity="0.2">
        <path
            d="M46.9326 86.0996C46.133 96.1165 45.3305 106.135 44.525 116.155C44.5015 117.104 44.3235 118.044 43.9978 118.936C43.8311 119.381 43.5609 119.781 43.2096 120.102C42.8583 120.423 42.4358 120.655 41.9769 120.781C40.5534 121.071 39.1695 119.845 38.7697 118.448C38.3699 117.051 38.6862 115.562 39.0377 114.151C39.6352 111.748 40.3074 109.367 40.984 106.986C42.9434 100.073 44.9043 93.1627 46.8667 86.2533"
            fill="#2F3941" />
    </g>
    <path opacity="0.3"
        d="M74.4719 137.409C74.1685 136.915 73.9419 136.377 73.7998 135.814C73.5537 134.729 73.7075 133.051 74.551 131.237C74.964 130.327 75.5483 129.383 76.137 128.346C76.8101 127.245 77.3109 126.048 77.622 124.796C77.8844 123.375 77.7785 121.911 77.3145 120.543C76.8751 119.128 76.2381 117.753 75.7241 116.312C74.6926 113.618 74.615 110.652 75.5044 107.908C75.8872 106.72 76.4487 105.597 77.1695 104.578C77.8058 103.692 78.5512 102.891 79.3881 102.192C80.6134 101.182 82.011 100.402 83.5135 99.8898C84.5811 99.5339 85.205 99.4504 85.1962 99.3977C85.0486 99.3892 84.9006 99.4025 84.7569 99.4373C84.3241 99.5 83.8967 99.5955 83.4784 99.7228C81.9249 100.172 80.4733 100.918 79.2036 101.92C78.327 102.619 77.5457 103.43 76.8795 104.331C76.1225 105.376 75.5299 106.53 75.1222 107.754C74.1804 110.586 74.2487 113.657 75.3155 116.444C75.8427 117.911 76.4841 119.278 76.9059 120.653C77.3561 121.948 77.468 123.336 77.231 124.686C76.942 125.902 76.4678 127.067 75.8251 128.139C75.2584 129.18 74.6828 130.138 74.2742 131.083C73.4483 132.968 73.3341 134.721 73.6504 135.836C73.7677 136.263 73.9499 136.669 74.1908 137.04C74.3533 137.304 74.4588 137.418 74.4719 137.409Z"
        fill="white" />
    <path opacity="0.3"
        d="M33.2255 65.1335C33.3107 65.4532 33.4602 65.7522 33.6649 66.0122C34.1645 66.7561 34.814 67.3876 35.5716 67.8662C36.701 68.5787 37.9876 69.0041 39.3191 69.1051C40.9385 69.2149 42.5637 69.0075 44.1036 68.4945C45.6728 68.0381 47.107 67.2056 48.2817 66.0693C48.7862 65.5585 49.1979 64.9639 49.4986 64.312C49.7532 63.7412 49.9134 63.1328 49.9731 62.5107C50.0733 61.6097 49.902 60.6994 49.481 59.8966C49.4168 59.7727 49.3434 59.6537 49.2614 59.5407C49.2055 59.4537 49.1407 59.3727 49.0681 59.2991C48.9582 59.1805 48.8923 59.119 48.8792 59.1322C48.866 59.1453 49.0769 59.4221 49.3185 59.9757C49.6527 60.7638 49.7651 61.6282 49.6436 62.4755C49.569 63.0574 49.403 63.6238 49.1515 64.1538C48.8523 64.7561 48.4544 65.3041 47.9741 65.775C46.8373 66.844 45.4624 67.6271 43.963 68.0595C42.4769 68.5567 40.9104 68.7699 39.3455 68.6878C38.0737 68.6129 36.8377 68.2381 35.7385 67.5938C34.9973 67.1569 34.3422 66.5881 33.8055 65.9155C33.6258 65.645 33.4322 65.384 33.2255 65.1335Z"
        fill="white" />
    <path
        d="M39.2409 112.394C39.2409 112.394 39.2628 112.355 39.2892 112.271C39.3156 112.188 39.3551 112.056 39.4034 111.902C39.5001 111.564 39.6407 111.09 39.8208 110.483L41.3145 105.242C42.5623 100.8 44.2757 94.6979 46.1473 87.9321C47.0874 84.5492 47.9793 81.342 48.7833 78.394C49.1892 77.0077 49.5019 75.5957 49.7191 74.1676C49.9035 72.9164 49.9035 71.6449 49.7191 70.3937C49.4571 68.5642 48.5801 66.8784 47.2324 65.6137C46.8577 65.2857 46.4429 65.0067 45.9979 64.7833L45.642 64.634C45.6037 64.6127 45.5621 64.5979 45.519 64.59C46.1203 64.8723 46.6781 65.2392 47.1753 65.6796C48.4777 66.9483 49.3163 68.6177 49.5565 70.42C49.725 71.6557 49.7117 72.9094 49.517 74.1412C49.294 75.5593 48.9769 76.9609 48.568 78.3369C47.7509 81.2717 46.8502 84.4877 45.9056 87.8706C44.0384 94.632 42.347 100.752 41.1212 105.198C40.5193 107.395 40.0361 109.2 39.6934 110.47C39.5352 111.081 39.4078 111.564 39.3199 111.907C39.2804 112.061 39.2496 112.184 39.2277 112.28C39.2275 112.319 39.2319 112.357 39.2409 112.394Z"
        fill="#001825" />
    <path
        d="M57.1344 15.1017C57.0983 14.7893 57.0983 14.4739 57.1344 14.1615C57.2678 13.3095 57.6971 12.5317 58.3469 11.9648C59.3245 11.1387 60.5846 10.7245 61.8616 10.8093C63.2983 10.8093 64.8272 11.2926 66.4088 11.8242C67.1996 12.0834 67.986 12.3339 68.7593 12.5052C69.5058 12.6701 70.2664 12.7628 71.0306 12.782C72.326 12.8157 73.6186 12.6468 74.8617 12.2811C75.6948 12.0302 76.4977 11.6884 77.2561 11.2619C77.4636 11.1504 77.6645 11.0272 77.858 10.8928C77.9297 10.8513 77.9961 10.8011 78.0557 10.7434C78.0557 10.7434 77.7569 10.9104 77.2121 11.1828C76.4458 11.5742 75.6422 11.8877 74.8133 12.1186C73.5852 12.4569 72.3125 12.6051 71.0394 12.5579C70.2884 12.5328 69.5414 12.4386 68.8076 12.2767C68.0475 12.1054 67.2743 11.8374 66.4791 11.5958C64.9019 11.0642 63.3422 10.5853 61.866 10.5853C60.5454 10.5129 59.249 10.9608 58.2547 11.833C57.5928 12.4265 57.1682 13.2396 57.0597 14.122C57.0076 14.4499 57.0332 14.7854 57.1344 15.1017Z"
        fill="#336179" />
    <path
        d="M51.0901 28.2347C51.0901 28.2347 51.1341 28.182 51.1956 28.0721C51.2571 27.9623 51.3362 27.7954 51.4372 27.5757C51.7075 26.9555 51.9136 26.3092 52.0523 25.647C52.2631 24.6601 52.3312 23.6481 52.2544 22.6419C52.1073 21.4234 51.8754 20.2167 51.5602 19.0306C51.2545 17.8611 51.2545 16.6326 51.5602 15.4631C51.7062 14.9621 51.9596 14.4988 52.3027 14.1056C52.6088 13.7741 52.9922 13.5235 53.4186 13.3763C54.0403 13.1404 54.7296 13.1578 55.3385 13.4246C55.5505 13.5424 55.7493 13.6823 55.9316 13.842C55.7931 13.6314 55.6024 13.4604 55.3781 13.3455C55.068 13.1914 54.7301 13.1011 54.3845 13.08C54.0388 13.0589 53.6925 13.1073 53.3659 13.2225C52.9079 13.3701 52.4941 13.6299 52.1621 13.9782C51.7949 14.3877 51.5207 14.8718 51.3581 15.3972C51.0389 16.6037 51.0389 17.8724 51.3581 19.0789C51.6714 20.2558 51.9076 21.4519 52.0655 22.6595C52.1485 23.6459 52.0983 24.6389 51.9161 25.6119C51.7923 26.2692 51.6114 26.9145 51.3757 27.5406C51.1868 27.9843 51.0726 28.2259 51.0901 28.2347Z"
        fill="#336179" />
    <path
        d="M56.3887 14.4749C56.3984 14.3711 56.3984 14.2667 56.3887 14.1629C56.3887 13.9389 56.3887 13.6445 56.3535 13.2843C56.3048 12.1957 56.4263 11.1062 56.7138 10.0551C56.9295 9.34108 57.2816 8.67564 57.7506 8.09567C58.2815 7.42821 59.0108 6.94668 59.8331 6.72054C60.7534 6.50707 61.7144 6.54653 62.6141 6.83477C63.5883 7.14206 64.522 7.5654 65.3951 8.09567C66.2811 8.63027 67.203 9.10295 68.1542 9.51034C69.0613 9.86446 70.0232 10.0577 70.9967 10.0815C71.8744 10.1037 72.7507 9.99712 73.5976 9.76516C74.3312 9.55211 75.0385 9.25737 75.7064 8.88648C76.6695 8.34253 77.5184 7.6175 78.2062 6.75129C78.3956 6.51933 78.566 6.27251 78.7159 6.01321C78.7747 5.92769 78.8248 5.83642 78.8652 5.74081C78.7935 5.81567 78.7301 5.89818 78.6763 5.98684C78.5144 6.23482 78.3353 6.47117 78.1403 6.69418C77.4354 7.52333 76.5853 8.21711 75.6317 8.7415C74.9704 9.0944 74.272 9.37289 73.5492 9.57185C72.7181 9.78991 71.86 9.88757 71.0011 9.86181C70.0542 9.83328 69.1193 9.64156 68.2376 9.29507C67.2974 8.88704 66.3859 8.41587 65.5093 7.88479C64.619 7.3486 63.6676 6.92087 62.6756 6.61071C61.7376 6.31597 60.7374 6.27954 59.7804 6.50527C58.9174 6.74733 58.1551 7.26019 57.6057 7.96826C57.1247 8.56966 56.7692 9.26132 56.56 10.0024C56.278 11.069 56.1785 12.1757 56.2657 13.2755C56.2876 13.6665 56.3184 13.9652 56.3447 14.1541C56.3458 14.2625 56.3606 14.3702 56.3887 14.4749Z"
        fill="#336179" />
    <path fill-rule="evenodd" clip-rule="evenodd"
        d="M68.9774 136.723L69.1055 136.761C71.4506 137.461 73.946 137.481 76.3019 136.818C77.7605 136.405 79.1356 135.979 79.3113 135.781C79.8135 135.007 80.2627 134.2 80.6557 133.365C80.6557 133.365 82.1714 132.807 82.3384 132.245C82.4624 131.711 82.5374 131.167 82.5625 130.619C82.5625 130.619 86.4198 129.284 87.4567 128.761C89.3195 127.825 89.5172 126.968 89.2492 126.349C88.9504 125.65 88.2299 125.602 87.5489 125.91L85.2951 126.819C84.6759 127.016 84.0361 127.141 83.3884 127.192L82.5097 127.17C80.7934 127.127 79.1624 126.413 77.967 125.18L77.6726 124.881C77.6726 124.881 83.3489 124.767 84.3198 124.231C85.2908 123.695 85.8531 122.188 85.8531 122.188L76.7193 121.723C74.4021 121.611 72.0923 122.063 69.9886 123.041C69.0872 123.458 68.1376 123.892 67.3537 124.234L35.1226 119.43L35.6498 116.504H17.9884L17.4744 121.003C17.0977 122.958 17.1553 124.973 17.6431 126.903C18.1309 128.834 19.0371 130.633 20.2974 132.175C21.5578 133.717 23.1415 134.962 24.9366 135.824C26.7316 136.686 28.6941 137.143 30.6853 137.162L68.9774 136.723Z"
        fill="#E6EBEE" />
    <path fill-rule="evenodd" clip-rule="evenodd"
        d="M68.9774 136.723L69.1055 136.761C71.4506 137.461 73.946 137.481 76.3019 136.818C77.7605 136.405 79.1356 135.979 79.3113 135.781C79.8135 135.007 80.2627 134.2 80.6557 133.365C80.6557 133.365 82.1714 132.807 82.3384 132.245C82.4624 131.711 82.5374 131.167 82.5625 130.619C82.5625 130.619 86.4198 129.284 87.4567 128.761C89.3195 127.825 89.5172 126.968 89.2492 126.349C88.9504 125.65 88.2299 125.602 87.5489 125.91L85.2951 126.819C84.6759 127.016 84.0361 127.141 83.3884 127.192L82.5097 127.17C80.7934 127.127 79.1624 126.413 77.967 125.18L77.6726 124.881C77.6726 124.881 83.3489 124.767 84.3198 124.231C85.2908 123.695 85.8531 122.188 85.8531 122.188L76.7193 121.723C74.4021 121.611 72.0923 122.063 69.9886 123.041C69.0872 123.458 68.1376 123.892 67.3537 124.234L35.1226 119.43L35.6498 116.504H17.9884L17.4744 121.003C17.0977 122.958 17.1553 124.973 17.6431 126.903C18.1309 128.834 19.0371 130.633 20.2974 132.175C21.5578 133.717 23.1415 134.962 24.9366 135.824C26.7316 136.686 28.6941 137.143 30.6853 137.162L68.9774 136.723Z"
        fill="url(#paint3_linear_6872_733)" fill-opacity="0.8" style="mix-blend-mode:color-burn" />
    <path fill-rule="evenodd" clip-rule="evenodd"
        d="M68.9774 136.723L69.1055 136.761C71.4506 137.461 73.946 137.481 76.3019 136.818C77.7605 136.405 79.1356 135.979 79.3113 135.781C79.8135 135.007 80.2627 134.2 80.6557 133.365C80.6557 133.365 82.1714 132.807 82.3384 132.245C82.4624 131.711 82.5374 131.167 82.5625 130.619C82.5625 130.619 86.4198 129.284 87.4567 128.761C89.3195 127.825 89.5172 126.968 89.2492 126.349C88.9504 125.65 88.2299 125.602 87.5489 125.91L85.2951 126.819C84.6759 127.016 84.0361 127.141 83.3884 127.192L82.5097 127.17C80.7934 127.127 79.1624 126.413 77.967 125.18L77.6726 124.881C77.6726 124.881 83.3489 124.767 84.3198 124.231C85.2908 123.695 85.8531 122.188 85.8531 122.188L76.7193 121.723C74.4021 121.611 72.0923 122.063 69.9886 123.041C69.0872 123.458 68.1376 123.892 67.3537 124.234L35.1226 119.43L35.6498 116.504H17.9884L17.4744 121.003C17.0977 122.958 17.1553 124.973 17.6431 126.903C18.1309 128.834 19.0371 130.633 20.2974 132.175C21.5578 133.717 23.1415 134.962 24.9366 135.824C26.7316 136.686 28.6941 137.143 30.6853 137.162L68.9774 136.723Z"
        fill="#2F3941" fill-opacity="0.15" style="mix-blend-mode:multiply" />
    <path
        d="M78.1179 131.822C79.7272 131.779 81.3049 131.364 82.7266 130.609C82.7002 130.548 81.7029 130.934 80.4332 131.264C79.1635 131.593 78.1091 131.756 78.1179 131.822Z"
        fill="#547B8E" />
    <path
        d="M78.4386 133.962C78.8663 134.054 79.3115 134.022 79.7215 133.87C80.1526 133.792 80.5531 133.594 80.877 133.299C80.4634 133.386 80.0566 133.504 79.66 133.65C79.2459 133.725 78.8378 133.829 78.4386 133.962Z"
        fill="#547B8E" />
    <path
        d="M26.4562 127.093C26.5001 127.093 26.7154 126.456 27.2426 125.494C27.5516 124.931 27.9041 124.394 28.297 123.886C28.7779 123.266 29.3115 122.688 29.8918 122.16C30.4809 121.64 31.1129 121.171 31.781 120.758C32.3276 120.422 32.8989 120.129 33.49 119.879C34.5049 119.462 35.1771 119.313 35.1639 119.269C35.001 119.282 34.8402 119.314 34.685 119.365C34.5004 119.402 34.3184 119.45 34.1402 119.51C33.9293 119.576 33.7009 119.642 33.4285 119.748C32.8193 119.977 32.2313 120.259 31.6711 120.591C30.9849 121.001 30.3378 121.473 29.738 122.001C29.1497 122.538 28.6101 123.126 28.1257 123.759C27.737 124.282 27.3945 124.837 27.102 125.419C26.9658 125.661 26.8779 125.898 26.7857 126.1C26.7085 126.272 26.6424 126.448 26.588 126.628C26.5249 126.777 26.4806 126.933 26.4562 127.093Z"
        fill="#547B8E" />
    <path
        d="M76.7689 124.077C76.9709 124.355 77.207 124.608 77.4719 124.828C78.0787 125.401 78.746 125.906 79.4621 126.335C80.187 126.757 80.9745 127.061 81.795 127.235C82.1296 127.326 82.4767 127.363 82.823 127.345C82.845 127.262 81.2414 127.117 79.5807 126.137C78.8767 125.714 78.2082 125.235 77.5817 124.705C77.3317 124.47 77.0595 124.259 76.7689 124.077Z"
        fill="#547B8E" />
    <defs>
        <linearGradient id="paint0_linear_6872_733" x1="46.5576" y1="17.5855" x2="51.0995"
            y2="42.0728" gradientUnits="userSpaceOnUse">
            <stop offset="0.213542" stop-color="#323444" />
            <stop offset="0.6875" stop-color="#2F3941" stop-opacity="0.291667" />
            <stop offset="1" stop-color="#2F3941" stop-opacity="0" />
        </linearGradient>
        <linearGradient id="paint1_linear_6872_733" x1="64.2101" y1="45.7469" x2="65.3977"
            y2="52.4177" gradientUnits="userSpaceOnUse">
            <stop offset="0.213542" stop-color="#323444" />
            <stop offset="0.6875" stop-color="#2F3941" stop-opacity="0.291667" />
            <stop offset="1" stop-color="#2F3941" stop-opacity="0" />
        </linearGradient>
        <linearGradient id="paint2_linear_6872_733" x1="93.3343" y1="36.2705" x2="141.933"
            y2="92.6973" gradientUnits="userSpaceOnUse">
            <stop offset="0.213542" stop-color="#323444" />
            <stop offset="0.6875" stop-color="#2F3941" stop-opacity="0.291667" />
            <stop offset="1" stop-color="#2F3941" stop-opacity="0" />
        </linearGradient>
        <linearGradient id="paint3_linear_6872_733" x1="28.7932" y1="112.598" x2="31.8031"
            y2="141.194" gradientUnits="userSpaceOnUse">
            <stop offset="0.213542" stop-color="#323444" />
            <stop offset="0.6875" stop-color="#2F3941" stop-opacity="0.291667" />
            <stop offset="1" stop-color="#2F3941" stop-opacity="0" />
        </linearGradient>
    </defs>
</svg>