<svg width="146" height="158" viewBox="0 0 146 158" fill="none" xmlns="http://www.w3.org/2000/svg">
    <g filter="url(#filter0_d_6872_232)">
        <path
            d="M70.1957 12.7446C69.5748 14.3547 70.6409 16.1078 71.8444 17.3497C73.0479 18.5917 74.4877 19.7677 74.8668 21.4493C75.1801 22.8616 74.658 24.3289 74.7844 25.7687C74.9108 27.2085 75.7076 28.5658 76.1583 29.9726C76.9771 32.5225 76.6474 35.3087 75.9165 37.886C75.3894 40.0277 74.3821 42.0215 72.9709 43.7166C72.2601 44.5562 71.3792 45.2352 70.3864 45.7089C69.3936 46.1826 68.3115 46.4401 67.2117 46.4643C66.9007 46.4838 66.5891 46.4393 66.296 46.3334C66.003 46.2275 65.7348 46.0626 65.5081 45.8488C65.1999 45.4042 65.0297 44.8785 65.019 44.3376C63.7606 33.2726 63.7606 22.1005 65.019 11.0355"
            fill="#263238" />
        <path
            d="M69.0346 48.4083C73.8156 48.1995 78.234 52.7771 77.8548 57.5471C82.6962 58.7286 86.0979 64.0537 85.1692 68.9446C84.8559 70.5602 84.136 72.0989 84.0371 73.7365C83.9272 75.528 84.5867 77.2701 84.9109 79.0286C85.5331 82.2336 85.2006 85.5508 83.9547 88.5686C83.2018 90.3876 81.795 92.267 79.8276 92.322C79.1611 92.2939 78.5117 92.1023 77.9366 91.764C77.3616 91.4257 76.8787 90.9511 76.5304 90.3821C75.8454 89.2302 75.3936 87.9549 75.2005 86.6287C74.3487 82.3313 74.1014 77.9185 72.9144 73.7036C71.7274 69.4886 69.4193 65.3341 65.611 63.1964C63.5062 62.0094 60.9783 61.4488 59.3022 59.7068C58.4591 58.756 57.8969 57.5895 57.6786 56.3376C57.4602 55.0858 57.5943 53.7978 58.0657 52.6178C58.5597 51.4483 59.2947 50.3961 60.2226 49.5297C61.1506 48.6633 62.2507 48.0022 63.4513 47.5895"
            fill="#263238" />
        <path
            d="M35.9435 16.6882C35.8886 14.6439 37.7735 13.0668 39.6749 12.2919C41.5763 11.5171 43.6921 11.2588 45.3846 10.0938C46.8904 9.08262 47.8961 7.50544 49.1655 6.24699C50.733 4.65738 52.6954 3.51357 54.8511 2.93301C57.0068 2.35246 59.2782 2.35607 61.432 2.94348C63.5858 3.53089 65.5446 4.68093 67.107 6.27552C68.6695 7.87012 69.7794 9.85182 70.3229 12.0172C71.0538 14.9242 70.5537 18.3643 68.2621 20.2987C65.6023 22.5408 61.6676 22.0407 58.2439 21.3428C54.8203 20.6449 50.9735 19.958 48.1269 21.9638C46.4123 23.1673 45.4231 25.1347 44.3735 26.9536C43.3239 28.7726 42.0105 30.6245 40.0266 31.3115C38.0428 31.9984 35.3445 30.8114 35.2676 28.7176"
            fill="#263238" />
        <path
            d="M43.9985 17.1043C43.1477 17.1963 42.3622 17.6042 41.7975 18.2472C41.2328 18.8903 40.9299 19.7218 40.9486 20.5774L42.9874 66.7387C43.0753 72.1901 51.0437 75.2511 56.8798 75.1137C62.7764 74.9763 62.9632 72.0857 63.0402 66.8981C63.1611 58.2374 63.1501 54.9841 63.1556 55.0335C63.1611 55.083 70.6019 53.7806 72.1241 44.0428C72.877 39.2123 72.6187 31.2879 72.1955 24.8089C71.8164 18.9783 67.9366 11.8343 62.1279 12.4607L43.9985 17.1043Z"
            fill="#E6EBEE" />
        <path
            d="M43.9985 17.1043C43.1477 17.1963 42.3622 17.6042 41.7975 18.2472C41.2328 18.8903 40.9299 19.7218 40.9486 20.5774L42.9874 66.7387C43.0753 72.1901 51.0437 75.2511 56.8798 75.1137C62.7764 74.9763 62.9632 72.0857 63.0402 66.8981C63.1611 58.2374 63.1501 54.9841 63.1556 55.0335C63.1611 55.083 70.6019 53.7806 72.1241 44.0428C72.877 39.2123 72.6187 31.2879 72.1955 24.8089C71.8164 18.9783 67.9366 11.8343 62.1279 12.4607L43.9985 17.1043Z"
            fill="url(#paint0_linear_6872_232)" fill-opacity="0.8" style="mix-blend-mode:color-burn" />
        <path
            d="M43.9985 17.1043C43.1477 17.1963 42.3622 17.6042 41.7975 18.2472C41.2328 18.8903 40.9299 19.7218 40.9486 20.5774L42.9874 66.7387C43.0753 72.1901 51.0437 75.2511 56.8798 75.1137C62.7764 74.9763 62.9632 72.0857 63.0402 66.8981C63.1611 58.2374 63.1501 54.9841 63.1556 55.0335C63.1611 55.083 70.6019 53.7806 72.1241 44.0428C72.877 39.2123 72.6187 31.2879 72.1955 24.8089C71.8164 18.9783 67.9366 11.8343 62.1279 12.4607L43.9985 17.1043Z"
            fill="#2F3941" fill-opacity="0.15" style="mix-blend-mode:multiply" />
        <path
            d="M70.5236 30.9342C70.5267 31.2586 70.4034 31.5714 70.1797 31.8063C69.9561 32.0413 69.6497 32.1798 69.3256 32.1927C69.1688 32.2062 69.0108 32.1884 68.8609 32.1402C68.711 32.0921 68.5722 32.0147 68.4525 31.9124C68.3328 31.8101 68.2347 31.685 68.1638 31.5445C68.093 31.4039 68.0508 31.2506 68.0397 31.0936C68.0352 30.7689 68.158 30.4553 68.382 30.22C68.6059 29.9848 68.9131 29.8466 69.2377 29.8352C69.3945 29.8216 69.5525 29.8395 69.7024 29.8876C69.8523 29.9357 69.9911 30.0132 70.1108 30.1155C70.2304 30.2177 70.3286 30.3428 70.3994 30.4834C70.4703 30.6239 70.5125 30.7772 70.5236 30.9342Z"
            fill="#263238" />
        <path
            d="M70.4899 28.9539C70.336 29.1187 69.3908 28.4043 68.0499 28.4043C66.709 28.4043 65.7254 29.0858 65.577 28.9209C65.5056 28.8495 65.6649 28.5527 66.0936 28.2395C66.6721 27.8366 67.3615 27.6235 68.0664 27.6295C68.7643 27.6254 69.4454 27.8428 70.0118 28.2505C70.424 28.5747 70.5668 28.8824 70.4899 28.9539Z"
            fill="#263238" />
        <path
            d="M57.6305 30.9342C57.6337 31.2586 57.5103 31.5714 57.2867 31.8063C57.063 32.0413 56.7566 32.1798 56.4325 32.1927C56.2757 32.2062 56.1177 32.1884 55.9678 32.1402C55.8179 32.0921 55.6791 32.0147 55.5594 31.9124C55.4398 31.8101 55.3416 31.685 55.2708 31.5445C55.1999 31.4039 55.1577 31.2506 55.1466 31.0936C55.1421 30.7689 55.265 30.4553 55.4889 30.22C55.7128 29.9848 56.02 29.8466 56.3446 29.8352C56.5015 29.8216 56.6594 29.8395 56.8093 29.8876C56.9592 29.9357 57.098 30.0132 57.2177 30.1155C57.3374 30.2177 57.4355 30.3428 57.5064 30.4834C57.5773 30.6239 57.6195 30.7772 57.6305 30.9342Z"
            fill="#263238" />
        <path
            d="M57.3334 29.2332C57.1795 29.398 56.2343 28.6836 54.8934 28.6836C53.5525 28.6836 52.5689 29.3651 52.426 29.2002C52.3545 29.1288 52.5084 28.832 52.937 28.5188C53.5154 28.115 54.2045 27.9 54.9099 27.9033C55.6083 27.9008 56.2895 28.1202 56.8553 28.5298C57.24 28.865 57.3828 29.1617 57.3334 29.2332Z"
            fill="#263238" />
        <path
            d="M62.1957 39.168C62.1957 39.0911 63.02 38.9482 64.3939 38.7723C64.7346 38.7339 65.0588 38.6624 65.1193 38.4316C65.1445 38.0774 65.0642 37.7236 64.8884 37.415L63.8663 34.8102C62.454 31.1008 61.4263 28.0508 61.5802 27.9959C61.7341 27.9409 62.998 30.9029 64.4103 34.5903L65.3885 37.2116C65.6016 37.6244 65.6656 38.098 65.5699 38.5525C65.5217 38.6724 65.4473 38.7799 65.3522 38.8674C65.2572 38.9549 65.1438 39.02 65.0203 39.0581C64.8413 39.1074 64.6565 39.1333 64.4708 39.135C63.042 39.2339 62.2012 39.2449 62.1957 39.168Z"
            fill="#263238" />
        <path
            d="M63.1575 55.041C58.5809 55.1199 54.0721 53.9271 50.1333 51.5954C50.1333 51.5954 53.3042 58.2668 63.0311 57.3326L63.1575 55.041Z"
            fill="#E6EBEE" />
        <path
            d="M63.1575 55.041C58.5809 55.1199 54.0721 53.9271 50.1333 51.5954C50.1333 51.5954 53.3042 58.2668 63.0311 57.3326L63.1575 55.041Z"
            fill="url(#paint1_linear_6872_232)" fill-opacity="0.8" style="mix-blend-mode:color-burn" />
        <path
            d="M63.1575 55.041C58.5809 55.1199 54.0721 53.9271 50.1333 51.5954C50.1333 51.5954 53.3042 58.2668 63.0311 57.3326L63.1575 55.041Z"
            fill="#2F3941" fill-opacity="0.15" style="mix-blend-mode:multiply" />
        <path
            d="M58.2485 40.1151C58.4683 40.1151 58.4738 41.5603 59.7213 42.588C60.9688 43.6156 62.5185 43.4562 62.5295 43.6871C62.5295 43.7805 62.1833 43.9728 61.5293 43.9893C60.6764 44.0048 59.8454 43.7187 59.1828 43.1815C58.5486 42.6627 58.1407 41.9179 58.0452 41.1042C57.9848 40.4613 58.1496 40.1151 58.2485 40.1151Z"
            fill="#263238" />
        <path
            d="M57.8816 26.8795C57.7497 27.2477 56.4089 27.0773 54.8372 27.2697C53.2655 27.462 51.9905 27.8961 51.7817 27.5664C51.6883 27.4126 51.9081 27.0663 52.4192 26.7146C53.1015 26.2761 53.8748 25.9986 54.6803 25.9034C55.4859 25.8082 56.3025 25.8977 57.0683 26.1651C57.6673 26.4234 57.9586 26.7091 57.8816 26.8795Z"
            fill="#263238" />
        <path
            d="M69.9696 25.0746C69.7333 25.3769 68.8101 25.0746 67.6945 25.0746C66.579 25.0746 65.6447 25.2834 65.4304 24.9647C65.3315 24.8108 65.4799 24.5086 65.892 24.2173C66.4435 23.8723 67.0848 23.6981 67.7351 23.7167C68.3853 23.7353 69.0156 23.9458 69.5465 24.3218C69.9696 24.613 70.085 24.9263 69.9696 25.0746Z"
            fill="#263238" />
        <path
            d="M63.1426 3.96497C63.276 3.97482 63.4055 4.01424 63.5218 4.08037C63.8516 4.2203 64.1604 4.40523 64.4395 4.62991C65.3969 5.37279 66.0312 6.45615 66.2103 7.65468C66.3894 8.85322 66.0996 10.0747 65.4012 11.065C65.1982 11.3602 64.9581 11.628 64.6868 11.8618C64.489 12.0267 64.3681 12.0981 64.3571 12.0817C64.667 11.7305 64.9586 11.3637 65.2308 10.9826C65.8502 10.0169 66.0984 8.85948 65.9297 7.72476C65.761 6.59003 65.1866 5.55493 64.3131 4.81126C63.9396 4.50685 63.5487 4.22428 63.1426 3.96497Z"
            fill="white" />
        <path
            d="M84.6686 70.6623C84.7845 70.3244 84.8781 69.9793 84.9488 69.6292C85.0776 68.6699 84.9109 67.6941 84.4707 66.832C83.7928 65.5666 82.7144 64.5616 81.4043 63.9744C80.6377 63.6118 79.8369 63.3265 79.0138 63.1227C78.1565 62.9028 77.2498 62.7215 76.343 62.4247C75.4306 62.1761 74.5892 61.7168 73.8866 61.0839C73.2572 60.4538 72.8502 59.6358 72.727 58.7538C72.5786 57.935 72.5292 57.1602 72.3478 56.4677C72.1853 55.8271 71.8832 55.2304 71.4631 54.7202C70.8484 53.9728 70.0321 53.4178 69.111 53.121C68.4571 52.9232 68.0669 52.9232 68.0669 52.8902C68.1601 52.881 68.254 52.881 68.3472 52.8902C68.616 52.9088 68.8826 52.9511 69.144 53.0166C70.1078 53.2824 70.9695 53.832 71.6169 54.5938C72.0695 55.1206 72.3981 55.7422 72.5786 56.4128C72.7765 57.1327 72.8369 57.9185 72.9908 58.7099C73.1038 59.544 73.4903 60.3171 74.0899 60.908C74.7638 61.5063 75.5669 61.9408 76.4364 62.1774C77.3212 62.4632 78.2279 62.6501 79.0907 62.8754C79.9249 63.0794 80.7353 63.3704 81.5087 63.7436C82.8622 64.3634 83.9662 65.4228 84.6411 66.7496C85.081 67.6511 85.2234 68.669 85.0478 69.6567C84.9954 69.9201 84.9124 70.1764 84.8005 70.4205C84.765 70.5055 84.7208 70.5865 84.6686 70.6623Z"
            fill="white" />
        <path
            d="M42.3995 53.4542C37.4536 52.1353 33.2222 47.3159 31.4966 42.5184C29.771 37.7209 29.771 32.4838 30.2162 27.4061C30.5349 23.7296 31.1834 19.8389 33.6233 17.0692C37.3053 12.8927 41.3169 10.7605 46.8563 10.9364"
            fill="#263238" />
        <path
            d="M71.1405 64.1712L66.5518 63.0172C67.052 62.6733 67.4167 62.1658 67.5832 61.5821C67.7497 60.9984 67.7076 60.3749 67.4641 59.8188C67.1736 59.1062 66.693 58.4869 66.0748 58.0285C65.4565 57.5702 64.7243 57.2904 63.958 57.2195L43.0424 54.8565C42.6767 54.8078 42.3053 54.883 41.9875 55.0703C41.6696 55.2576 41.4238 55.5461 41.2893 55.8896C40.3624 58.249 40.3313 60.1907 41.1959 61.7147H41.097L37.0634 62.5171L30.2271 122.824L75.0038 120.73L71.1405 64.1712Z"
            fill="#F5F5F5" />
        <path
            d="M64.5579 63.2442C64.2832 63.3245 64.0018 63.3797 63.7171 63.4091C63.1676 63.497 62.3818 63.5904 61.4036 63.6893C56.2843 64.1649 51.1234 63.9077 46.0768 62.9255C45.1096 62.7331 44.3348 62.5573 43.8017 62.4144C43.5217 62.3601 43.2475 62.2792 42.9829 62.1726C43.2667 62.1934 43.5481 62.2394 43.8237 62.31C44.3733 62.4144 45.1481 62.5628 46.1153 62.7276C51.1567 63.5951 56.2845 63.8498 61.3871 63.486C62.3653 63.4201 63.1566 63.3486 63.7062 63.2937C63.9883 63.2549 64.2731 63.2383 64.5579 63.2442Z"
            fill="#263238" />
        <path
            d="M44.3193 72.8287C44.7599 71.9139 45.2842 71.0419 45.8855 70.2239C46.4104 69.354 47.0158 68.5353 47.6935 67.7784C47.2523 68.6939 46.7261 69.566 46.1218 70.3832C45.5998 71.2536 44.9963 72.0724 44.3193 72.8287Z"
            fill="#E0E0E0" />
        <path
            d="M58.7504 73.8535C57.3537 72.4194 56.0968 70.8553 54.9971 69.1825C55.7292 69.8676 56.3953 70.6201 56.9864 71.4301C57.6514 72.179 58.2422 72.9906 58.7504 73.8535Z"
            fill="#E0E0E0" />
        <path
            d="M52.0437 81.5165C51.7277 80.5389 51.5015 79.5346 51.3677 78.516C51.139 77.5144 51.0083 76.493 50.9775 75.4661C51.2943 76.4434 51.5205 77.4478 51.6535 78.4665C51.876 79.4692 52.0066 80.4901 52.0437 81.5165Z"
            fill="#E0E0E0" />
        <path
            d="M63.0625 81.9906C62.2866 82.9555 61.4379 83.8594 60.5236 84.6943C59.6745 85.5984 58.7558 86.4344 57.7759 87.1947C58.5516 86.2297 59.4004 85.3257 60.3148 84.491C61.1674 83.5905 62.0858 82.7547 63.0625 81.9906Z"
            fill="#E0E0E0" />
        <path
            d="M48.285 92.2667C46.2601 91.0567 44.6107 89.3084 43.5205 87.2164C43.5974 87.1669 44.4382 88.4858 45.7626 89.8762C47.087 91.2665 48.34 92.1952 48.285 92.2667Z"
            fill="#E0E0E0" />
        <path
            d="M53.0338 100.2C53.0338 100.282 51.7808 100.684 50.33 101.458C48.8792 102.233 47.8186 103.047 47.7637 102.975C48.4554 102.235 49.2815 101.632 50.1981 101.2C51.0698 100.687 52.0328 100.347 53.0338 100.2Z"
            fill="#E0E0E0" />
        <path
            d="M60.7593 100.713C60.4317 100.436 60.1384 100.121 59.8855 99.7737C59.3799 99.1692 58.704 98.3064 58.0006 97.3227C57.2972 96.3391 56.7037 95.4213 56.2915 94.7399C56.0462 94.3876 55.8433 94.0076 55.687 93.6078C55.9793 93.9214 56.2389 94.2639 56.4619 94.63L58.2369 97.1579L60.0449 99.6528C60.3198 99.9801 60.5593 100.336 60.7593 100.713Z"
            fill="#E0E0E0" />
        <path
            d="M61.5305 107.484C60.4623 107.858 59.3568 108.116 58.2332 108.253C57.1218 108.485 55.9888 108.597 54.8535 108.588C55.9512 108.312 57.0654 108.107 58.1892 107.973C59.2923 107.744 60.408 107.58 61.5305 107.484Z"
            fill="#E0E0E0" />
        <path
            d="M49.0308 62.3908C48.9923 62.3908 49.2561 62.0611 49.4814 61.4785C49.7605 60.7163 49.8436 59.8962 49.7232 59.0935C49.5868 58.2846 49.3486 57.4962 49.0143 56.747C48.8524 56.4403 48.7269 56.1157 48.6406 55.7798C48.8701 56.0433 49.0557 56.3421 49.1902 56.6646C49.5899 57.4092 49.8629 58.2153 49.998 59.0496C50.1309 59.9015 50.0145 60.7737 49.6628 61.561C49.54 61.8946 49.3198 62.1837 49.0308 62.3908Z"
            fill="#E0E0E0" />
        <path
            d="M57.3911 57.8755C57.7829 58.415 58.063 59.0274 58.2149 59.6766C58.3669 60.3259 58.3876 60.9989 58.2758 61.6563C58.1934 61.6563 58.1824 60.7825 57.9351 59.7439C57.6878 58.7053 57.3306 57.9195 57.3911 57.8755Z"
            fill="#E0E0E0" />
        <path
            d="M95.1168 100.843L115.944 64.2598L118.456 57.9126C118.456 57.9126 124.951 43.9543 125.402 42.5255C125.924 40.8769 126.842 40.745 127.435 40.9758C128.359 41.344 128.655 42.7179 128.249 44.1412C128.106 44.6303 125.583 52.3018 125.583 52.3018C126.262 51.7171 126.982 51.1827 127.738 50.7027C129.337 49.6036 132.266 49.6585 134.981 50.6257C137.695 51.5929 138.366 52.104 138.042 53.1701C137.97 53.3702 137.854 53.5516 137.703 53.701C137.552 53.8503 137.369 53.9637 137.168 54.0329C136.529 54.2998 135.812 54.3155 135.162 54.0768C130.799 52.5931 128.864 54.5604 128.864 54.5604L128.54 55.3902C128.54 55.3902 131.837 54.3406 133.684 55.8244C133.959 56.0422 134.191 56.3108 134.365 56.6157C134.963 56.8109 135.499 57.1587 135.921 57.6248C136.343 58.0908 136.635 58.6589 136.77 59.2729C136.905 59.8869 136.877 60.5254 136.69 61.1254C136.502 61.7253 136.161 62.2659 135.7 62.6936C135.5 62.9219 135.235 63.084 134.941 63.1586C134.647 63.2332 134.337 63.2167 134.052 63.1113C133.785 62.9298 133.571 62.6815 133.431 62.3914C133.341 62.2461 133.24 62.1082 133.129 61.9792L131.887 64.1774C131.887 64.1774 128.826 68.9583 127.727 71.195L113.384 109.404C112.912 110.662 112.195 111.814 111.273 112.791C110.352 113.768 109.245 114.553 108.017 115.097C106.789 115.642 105.465 115.937 104.122 115.964C102.779 115.992 101.444 115.751 100.195 115.257C98.8467 114.725 97.6289 113.909 96.6235 112.866C95.6181 111.822 94.8487 110.575 94.3672 109.208C93.8858 107.841 93.7035 106.387 93.8328 104.944C93.9622 103.501 94.4 102.102 95.1168 100.843Z"
            fill="#E6EBEE" />
        <path
            d="M95.1168 100.843L115.944 64.2598L118.456 57.9126C118.456 57.9126 124.951 43.9543 125.402 42.5255C125.924 40.8769 126.842 40.745 127.435 40.9758C128.359 41.344 128.655 42.7179 128.249 44.1412C128.106 44.6303 125.583 52.3018 125.583 52.3018C126.262 51.7171 126.982 51.1827 127.738 50.7027C129.337 49.6036 132.266 49.6585 134.981 50.6257C137.695 51.5929 138.366 52.104 138.042 53.1701C137.97 53.3702 137.854 53.5516 137.703 53.701C137.552 53.8503 137.369 53.9637 137.168 54.0329C136.529 54.2998 135.812 54.3155 135.162 54.0768C130.799 52.5931 128.864 54.5604 128.864 54.5604L128.54 55.3902C128.54 55.3902 131.837 54.3406 133.684 55.8244C133.959 56.0422 134.191 56.3108 134.365 56.6157C134.963 56.8109 135.499 57.1587 135.921 57.6248C136.343 58.0908 136.635 58.6589 136.77 59.2729C136.905 59.8869 136.877 60.5254 136.69 61.1254C136.502 61.7253 136.161 62.2659 135.7 62.6936C135.5 62.9219 135.235 63.084 134.941 63.1586C134.647 63.2332 134.337 63.2167 134.052 63.1113C133.785 62.9298 133.571 62.6815 133.431 62.3914C133.341 62.2461 133.24 62.1082 133.129 61.9792L131.887 64.1774C131.887 64.1774 128.826 68.9583 127.727 71.195L113.384 109.404C112.912 110.662 112.195 111.814 111.273 112.791C110.352 113.768 109.245 114.553 108.017 115.097C106.789 115.642 105.465 115.937 104.122 115.964C102.779 115.992 101.444 115.751 100.195 115.257C98.8467 114.725 97.6289 113.909 96.6235 112.866C95.6181 111.822 94.8487 110.575 94.3672 109.208C93.8858 107.841 93.7035 106.387 93.8328 104.944C93.9622 103.501 94.4 102.102 95.1168 100.843Z"
            fill="url(#paint2_linear_6872_232)" fill-opacity="0.8" style="mix-blend-mode:color-burn" />
        <path
            d="M95.1168 100.843L115.944 64.2598L118.456 57.9126C118.456 57.9126 124.951 43.9543 125.402 42.5255C125.924 40.8769 126.842 40.745 127.435 40.9758C128.359 41.344 128.655 42.7179 128.249 44.1412C128.106 44.6303 125.583 52.3018 125.583 52.3018C126.262 51.7171 126.982 51.1827 127.738 50.7027C129.337 49.6036 132.266 49.6585 134.981 50.6257C137.695 51.5929 138.366 52.104 138.042 53.1701C137.97 53.3702 137.854 53.5516 137.703 53.701C137.552 53.8503 137.369 53.9637 137.168 54.0329C136.529 54.2998 135.812 54.3155 135.162 54.0768C130.799 52.5931 128.864 54.5604 128.864 54.5604L128.54 55.3902C128.54 55.3902 131.837 54.3406 133.684 55.8244C133.959 56.0422 134.191 56.3108 134.365 56.6157C134.963 56.8109 135.499 57.1587 135.921 57.6248C136.343 58.0908 136.635 58.6589 136.77 59.2729C136.905 59.8869 136.877 60.5254 136.69 61.1254C136.502 61.7253 136.161 62.2659 135.7 62.6936C135.5 62.9219 135.235 63.084 134.941 63.1586C134.647 63.2332 134.337 63.2167 134.052 63.1113C133.785 62.9298 133.571 62.6815 133.431 62.3914C133.341 62.2461 133.24 62.1082 133.129 61.9792L131.887 64.1774C131.887 64.1774 128.826 68.9583 127.727 71.195L113.384 109.404C112.912 110.662 112.195 111.814 111.273 112.791C110.352 113.768 109.245 114.553 108.017 115.097C106.789 115.642 105.465 115.937 104.122 115.964C102.779 115.992 101.444 115.751 100.195 115.257C98.8467 114.725 97.6289 113.909 96.6235 112.866C95.6181 111.822 94.8487 110.575 94.3672 109.208C93.8858 107.841 93.7035 106.387 93.8328 104.944C93.9622 103.501 94.4 102.102 95.1168 100.843Z"
            fill="#2F3941" fill-opacity="0.15" style="mix-blend-mode:multiply" />
        <path
            d="M117.379 64.1314C118.115 64.615 119.132 64.2852 119.791 63.7137C120.451 63.1422 120.89 62.3564 121.528 61.7354C123.38 59.8834 126.474 59.7076 128.249 57.7677C128.496 57.4984 128.716 57.0863 128.502 56.7895C128.287 56.4928 127.892 56.5477 127.562 56.6137L119.039 58.3008"
            fill="#E6EBEE" />
        <path
            d="M117.379 64.1314C118.115 64.615 119.132 64.2852 119.791 63.7137C120.451 63.1422 120.89 62.3564 121.528 61.7354C123.38 59.8834 126.474 59.7076 128.249 57.7677C128.496 57.4984 128.716 57.0863 128.502 56.7895C128.287 56.4928 127.892 56.5477 127.562 56.6137L119.039 58.3008"
            fill="url(#paint3_linear_6872_232)" fill-opacity="0.8" style="mix-blend-mode:color-burn" />
        <path
            d="M117.379 64.1314C118.115 64.615 119.132 64.2852 119.791 63.7137C120.451 63.1422 120.89 62.3564 121.528 61.7354C123.38 59.8834 126.474 59.7076 128.249 57.7677C128.496 57.4984 128.716 57.0863 128.502 56.7895C128.287 56.4928 127.892 56.5477 127.562 56.6137L119.039 58.3008"
            fill="#2F3941" fill-opacity="0.15" style="mix-blend-mode:multiply" />
        <path
            d="M119.038 58.3052C119.326 58.1751 119.629 58.0828 119.94 58.0305C120.528 57.8821 121.385 57.6897 122.44 57.4809L126.155 56.6951L127.254 56.4698C127.677 56.3148 128.144 56.3306 128.556 56.5137C128.674 56.6009 128.763 56.7212 128.812 56.8592C128.861 56.9973 128.868 57.1467 128.831 57.2886C128.774 57.5213 128.661 57.7365 128.501 57.9151C128.214 58.2329 127.892 58.5168 127.54 58.7613C126.122 59.745 124.567 60.1462 123.325 60.8001C122.732 61.0801 122.187 61.451 121.709 61.8992C121.269 62.3224 120.923 62.8059 120.561 63.2181C120.3 63.5817 119.962 63.8838 119.572 64.1031C119.182 64.3224 118.748 64.4536 118.302 64.4875C117.648 64.4875 117.379 64.1633 117.401 64.1578C117.687 64.256 117.988 64.3025 118.291 64.2952C118.696 64.2281 119.083 64.0777 119.428 63.8536C119.772 63.6294 120.066 63.3363 120.291 62.9928C120.643 62.5125 121.019 62.0503 121.418 61.608C121.916 61.1142 122.489 60.7025 123.116 60.388C124.396 59.6956 125.946 59.2889 127.254 58.3547C127.569 58.1309 127.86 57.8749 128.122 57.5908C128.364 57.3216 128.446 56.9973 128.276 56.9039C128.106 56.8105 127.727 56.8544 127.347 56.9314L126.248 57.1347L122.511 57.8216C121.445 58.0085 120.583 58.1514 119.984 58.2393C119.674 58.3106 119.355 58.3329 119.038 58.3052Z"
            fill="#E6EBEE" />
        <path
            d="M119.038 58.3052C119.326 58.1751 119.629 58.0828 119.94 58.0305C120.528 57.8821 121.385 57.6897 122.44 57.4809L126.155 56.6951L127.254 56.4698C127.677 56.3148 128.144 56.3306 128.556 56.5137C128.674 56.6009 128.763 56.7212 128.812 56.8592C128.861 56.9973 128.868 57.1467 128.831 57.2886C128.774 57.5213 128.661 57.7365 128.501 57.9151C128.214 58.2329 127.892 58.5168 127.54 58.7613C126.122 59.745 124.567 60.1462 123.325 60.8001C122.732 61.0801 122.187 61.451 121.709 61.8992C121.269 62.3224 120.923 62.8059 120.561 63.2181C120.3 63.5817 119.962 63.8838 119.572 64.1031C119.182 64.3224 118.748 64.4536 118.302 64.4875C117.648 64.4875 117.379 64.1633 117.401 64.1578C117.687 64.256 117.988 64.3025 118.291 64.2952C118.696 64.2281 119.083 64.0777 119.428 63.8536C119.772 63.6294 120.066 63.3363 120.291 62.9928C120.643 62.5125 121.019 62.0503 121.418 61.608C121.916 61.1142 122.489 60.7025 123.116 60.388C124.396 59.6956 125.946 59.2889 127.254 58.3547C127.569 58.1309 127.86 57.8749 128.122 57.5908C128.364 57.3216 128.446 56.9973 128.276 56.9039C128.106 56.8105 127.727 56.8544 127.347 56.9314L126.248 57.1347L122.511 57.8216C121.445 58.0085 120.583 58.1514 119.984 58.2393C119.674 58.3106 119.355 58.3329 119.038 58.3052Z"
            fill="url(#paint4_linear_6872_232)" fill-opacity="0.8" style="mix-blend-mode:color-burn" />
        <path
            d="M119.038 58.3052C119.326 58.1751 119.629 58.0828 119.94 58.0305C120.528 57.8821 121.385 57.6897 122.44 57.4809L126.155 56.6951L127.254 56.4698C127.677 56.3148 128.144 56.3306 128.556 56.5137C128.674 56.6009 128.763 56.7212 128.812 56.8592C128.861 56.9973 128.868 57.1467 128.831 57.2886C128.774 57.5213 128.661 57.7365 128.501 57.9151C128.214 58.2329 127.892 58.5168 127.54 58.7613C126.122 59.745 124.567 60.1462 123.325 60.8001C122.732 61.0801 122.187 61.451 121.709 61.8992C121.269 62.3224 120.923 62.8059 120.561 63.2181C120.3 63.5817 119.962 63.8838 119.572 64.1031C119.182 64.3224 118.748 64.4536 118.302 64.4875C117.648 64.4875 117.379 64.1633 117.401 64.1578C117.687 64.256 117.988 64.3025 118.291 64.2952C118.696 64.2281 119.083 64.0777 119.428 63.8536C119.772 63.6294 120.066 63.3363 120.291 62.9928C120.643 62.5125 121.019 62.0503 121.418 61.608C121.916 61.1142 122.489 60.7025 123.116 60.388C124.396 59.6956 125.946 59.2889 127.254 58.3547C127.569 58.1309 127.86 57.8749 128.122 57.5908C128.364 57.3216 128.446 56.9973 128.276 56.9039C128.106 56.8105 127.727 56.8544 127.347 56.9314L126.248 57.1347L122.511 57.8216C121.445 58.0085 120.583 58.1514 119.984 58.2393C119.674 58.3106 119.355 58.3329 119.038 58.3052Z"
            fill="#2F3941" fill-opacity="0.15" style="mix-blend-mode:multiply" />
        <path
            d="M128.424 55.4025C128.643 54.8924 128.978 54.4406 129.403 54.0836C129.878 53.7269 130.457 53.5341 131.051 53.5341C131.798 53.5385 132.54 53.6609 133.249 53.8967C133.974 54.1412 134.721 54.3106 135.48 54.4023C136.118 54.4755 136.763 54.3768 137.349 54.1166C137.551 54.0236 137.728 53.8847 137.866 53.711C138.004 53.5373 138.1 53.3337 138.146 53.1164C138.187 52.9635 138.187 52.8022 138.146 52.6493C138.113 52.6493 138.113 52.8142 138.03 53.0889C137.97 53.2741 137.87 53.4439 137.737 53.5863C137.604 53.7287 137.442 53.8403 137.261 53.9132C136.702 54.1211 136.1 54.189 135.508 54.1111C134.771 53.9951 134.046 53.8111 133.343 53.5615C132.609 53.32 131.84 53.2011 131.068 53.2098C130.419 53.225 129.794 53.4571 129.293 53.8693C128.96 54.146 128.705 54.5037 128.551 54.9079C128.413 55.2321 128.402 55.397 128.424 55.4025Z"
            fill="#E6EBEE" />
        <path
            d="M128.424 55.4025C128.643 54.8924 128.978 54.4406 129.403 54.0836C129.878 53.7269 130.457 53.5341 131.051 53.5341C131.798 53.5385 132.54 53.6609 133.249 53.8967C133.974 54.1412 134.721 54.3106 135.48 54.4023C136.118 54.4755 136.763 54.3768 137.349 54.1166C137.551 54.0236 137.728 53.8847 137.866 53.711C138.004 53.5373 138.1 53.3337 138.146 53.1164C138.187 52.9635 138.187 52.8022 138.146 52.6493C138.113 52.6493 138.113 52.8142 138.03 53.0889C137.97 53.2741 137.87 53.4439 137.737 53.5863C137.604 53.7287 137.442 53.8403 137.261 53.9132C136.702 54.1211 136.1 54.189 135.508 54.1111C134.771 53.9951 134.046 53.8111 133.343 53.5615C132.609 53.32 131.84 53.2011 131.068 53.2098C130.419 53.225 129.794 53.4571 129.293 53.8693C128.96 54.146 128.705 54.5037 128.551 54.9079C128.413 55.2321 128.402 55.397 128.424 55.4025Z"
            fill="url(#paint5_linear_6872_232)" fill-opacity="0.8" style="mix-blend-mode:color-burn" />
        <path
            d="M128.424 55.4025C128.643 54.8924 128.978 54.4406 129.403 54.0836C129.878 53.7269 130.457 53.5341 131.051 53.5341C131.798 53.5385 132.54 53.6609 133.249 53.8967C133.974 54.1412 134.721 54.3106 135.48 54.4023C136.118 54.4755 136.763 54.3768 137.349 54.1166C137.551 54.0236 137.728 53.8847 137.866 53.711C138.004 53.5373 138.1 53.3337 138.146 53.1164C138.187 52.9635 138.187 52.8022 138.146 52.6493C138.113 52.6493 138.113 52.8142 138.03 53.0889C137.97 53.2741 137.87 53.4439 137.737 53.5863C137.604 53.7287 137.442 53.8403 137.261 53.9132C136.702 54.1211 136.1 54.189 135.508 54.1111C134.771 53.9951 134.046 53.8111 133.343 53.5615C132.609 53.32 131.84 53.2011 131.068 53.2098C130.419 53.225 129.794 53.4571 129.293 53.8693C128.96 54.146 128.705 54.5037 128.551 54.9079C128.413 55.2321 128.402 55.397 128.424 55.4025Z"
            fill="#2F3941" fill-opacity="0.15" style="mix-blend-mode:multiply" />
        <path
            d="M128.4 43.594C128.185 44.0856 128.012 44.5949 127.884 45.1162C127.56 46.1713 127.175 47.4243 126.746 48.8091C126.318 50.194 125.895 51.4359 125.554 52.4855C125.355 52.9834 125.202 53.4985 125.098 54.0242C125.371 53.5613 125.595 53.0715 125.768 52.5625C126.131 51.6392 126.592 50.3643 127.054 48.908C127.516 47.4518 127.873 46.1603 128.104 45.1767C128.258 44.661 128.357 44.1305 128.4 43.594Z"
            fill="#E6EBEE" />
        <path
            d="M128.4 43.594C128.185 44.0856 128.012 44.5949 127.884 45.1162C127.56 46.1713 127.175 47.4243 126.746 48.8091C126.318 50.194 125.895 51.4359 125.554 52.4855C125.355 52.9834 125.202 53.4985 125.098 54.0242C125.371 53.5613 125.595 53.0715 125.768 52.5625C126.131 51.6392 126.592 50.3643 127.054 48.908C127.516 47.4518 127.873 46.1603 128.104 45.1767C128.258 44.661 128.357 44.1305 128.4 43.594Z"
            fill="url(#paint6_linear_6872_232)" fill-opacity="0.8" style="mix-blend-mode:color-burn" />
        <path
            d="M128.4 43.594C128.185 44.0856 128.012 44.5949 127.884 45.1162C127.56 46.1713 127.175 47.4243 126.746 48.8091C126.318 50.194 125.895 51.4359 125.554 52.4855C125.355 52.9834 125.202 53.4985 125.098 54.0242C125.371 53.5613 125.595 53.0715 125.768 52.5625C126.131 51.6392 126.592 50.3643 127.054 48.908C127.516 47.4518 127.873 46.1603 128.104 45.1767C128.258 44.661 128.357 44.1305 128.4 43.594Z"
            fill="#2F3941" fill-opacity="0.15" style="mix-blend-mode:multiply" />
        <path
            d="M129.603 57.6993C129.771 57.7234 129.941 57.7234 130.109 57.6993C130.319 57.6633 130.536 57.6731 130.742 57.7281C130.949 57.7831 131.142 57.882 131.307 58.0181C131.402 58.1189 131.47 58.2427 131.504 58.3775C131.537 58.5123 131.536 58.6535 131.499 58.7874C131.41 59.125 131.279 59.4499 131.109 59.7546C130.889 60.1368 130.816 60.5865 130.905 61.0185C130.98 61.2474 131.108 61.4556 131.278 61.6264C131.448 61.7972 131.655 61.9259 131.884 62.0022C132.109 62.0737 132.347 62.0984 132.582 62.0748C132.817 62.0511 133.045 61.9797 133.252 61.8648C133.637 61.6683 133.953 61.3598 134.159 60.9801C134.456 60.3538 134.66 59.6872 134.763 59.0017C134.843 58.5418 134.843 58.0714 134.763 57.6114C134.746 57.4386 134.679 57.2745 134.571 57.1388C134.543 57.1388 134.615 57.3146 134.642 57.6279C134.666 58.0762 134.627 58.5256 134.527 58.9633C134.397 59.6129 134.182 60.2428 133.889 60.8372C133.71 61.1718 133.426 61.4379 133.08 61.5939C132.734 61.75 132.346 61.7872 131.977 61.7C131.796 61.6415 131.631 61.5414 131.496 61.4078C131.36 61.2743 131.258 61.1108 131.197 60.9306C131.125 60.5717 131.185 60.1988 131.367 59.881C131.538 59.5483 131.667 59.1957 131.752 58.8314C131.789 58.6569 131.78 58.4759 131.727 58.3057C131.674 58.1354 131.579 57.9815 131.449 57.8587C131.258 57.7075 131.035 57.6029 130.796 57.5533C130.558 57.5037 130.311 57.5104 130.076 57.5729C129.912 57.5892 129.753 57.6319 129.603 57.6993Z"
            fill="#E6EBEE" />
        <path
            d="M129.603 57.6993C129.771 57.7234 129.941 57.7234 130.109 57.6993C130.319 57.6633 130.536 57.6731 130.742 57.7281C130.949 57.7831 131.142 57.882 131.307 58.0181C131.402 58.1189 131.47 58.2427 131.504 58.3775C131.537 58.5123 131.536 58.6535 131.499 58.7874C131.41 59.125 131.279 59.4499 131.109 59.7546C130.889 60.1368 130.816 60.5865 130.905 61.0185C130.98 61.2474 131.108 61.4556 131.278 61.6264C131.448 61.7972 131.655 61.9259 131.884 62.0022C132.109 62.0737 132.347 62.0984 132.582 62.0748C132.817 62.0511 133.045 61.9797 133.252 61.8648C133.637 61.6683 133.953 61.3598 134.159 60.9801C134.456 60.3538 134.66 59.6872 134.763 59.0017C134.843 58.5418 134.843 58.0714 134.763 57.6114C134.746 57.4386 134.679 57.2745 134.571 57.1388C134.543 57.1388 134.615 57.3146 134.642 57.6279C134.666 58.0762 134.627 58.5256 134.527 58.9633C134.397 59.6129 134.182 60.2428 133.889 60.8372C133.71 61.1718 133.426 61.4379 133.08 61.5939C132.734 61.75 132.346 61.7872 131.977 61.7C131.796 61.6415 131.631 61.5414 131.496 61.4078C131.36 61.2743 131.258 61.1108 131.197 60.9306C131.125 60.5717 131.185 60.1988 131.367 59.881C131.538 59.5483 131.667 59.1957 131.752 58.8314C131.789 58.6569 131.78 58.4759 131.727 58.3057C131.674 58.1354 131.579 57.9815 131.449 57.8587C131.258 57.7075 131.035 57.6029 130.796 57.5533C130.558 57.5037 130.311 57.5104 130.076 57.5729C129.912 57.5892 129.753 57.6319 129.603 57.6993Z"
            fill="url(#paint7_linear_6872_232)" fill-opacity="0.8" style="mix-blend-mode:color-burn" />
        <path
            d="M129.603 57.6993C129.771 57.7234 129.941 57.7234 130.109 57.6993C130.319 57.6633 130.536 57.6731 130.742 57.7281C130.949 57.7831 131.142 57.882 131.307 58.0181C131.402 58.1189 131.47 58.2427 131.504 58.3775C131.537 58.5123 131.536 58.6535 131.499 58.7874C131.41 59.125 131.279 59.4499 131.109 59.7546C130.889 60.1368 130.816 60.5865 130.905 61.0185C130.98 61.2474 131.108 61.4556 131.278 61.6264C131.448 61.7972 131.655 61.9259 131.884 62.0022C132.109 62.0737 132.347 62.0984 132.582 62.0748C132.817 62.0511 133.045 61.9797 133.252 61.8648C133.637 61.6683 133.953 61.3598 134.159 60.9801C134.456 60.3538 134.66 59.6872 134.763 59.0017C134.843 58.5418 134.843 58.0714 134.763 57.6114C134.746 57.4386 134.679 57.2745 134.571 57.1388C134.543 57.1388 134.615 57.3146 134.642 57.6279C134.666 58.0762 134.627 58.5256 134.527 58.9633C134.397 59.6129 134.182 60.2428 133.889 60.8372C133.71 61.1718 133.426 61.4379 133.08 61.5939C132.734 61.75 132.346 61.7872 131.977 61.7C131.796 61.6415 131.631 61.5414 131.496 61.4078C131.36 61.2743 131.258 61.1108 131.197 60.9306C131.125 60.5717 131.185 60.1988 131.367 59.881C131.538 59.5483 131.667 59.1957 131.752 58.8314C131.789 58.6569 131.78 58.4759 131.727 58.3057C131.674 58.1354 131.579 57.9815 131.449 57.8587C131.258 57.7075 131.035 57.6029 130.796 57.5533C130.558 57.5037 130.311 57.5104 130.076 57.5729C129.912 57.5892 129.753 57.6319 129.603 57.6993Z"
            fill="#2F3941" fill-opacity="0.15" style="mix-blend-mode:multiply" />
        <path
            d="M133.199 61.548C133.199 61.548 133.094 61.6909 133.105 61.9987C133.121 62.2146 133.187 62.4239 133.297 62.6099C133.408 62.796 133.56 62.9536 133.743 63.0703C134.024 63.2323 134.344 63.3175 134.669 63.3175C134.994 63.3175 135.313 63.2323 135.595 63.0703C136.273 62.6794 136.773 62.0413 136.991 61.2898C137.23 60.554 137.23 59.7614 136.991 59.0257C136.796 58.431 136.444 57.8996 135.974 57.4869C135.664 57.2094 135.304 56.9931 134.913 56.8495C134.774 56.7829 134.622 56.749 134.468 56.7506C134.958 56.9877 135.413 57.291 135.82 57.6518C136.281 58.1016 136.607 58.6716 136.76 59.2972C136.914 59.9227 136.889 60.5788 136.688 61.1908C136.492 61.8661 136.051 62.444 135.452 62.812C135.212 62.9525 134.941 63.0302 134.663 63.0379C134.386 63.0456 134.111 62.983 133.864 62.8559C133.7 62.7604 133.558 62.6312 133.448 62.4767C133.339 62.3223 133.263 62.1462 133.226 61.9602C133.171 61.7184 133.226 61.548 133.199 61.548Z"
            fill="#E6EBEE" />
        <path
            d="M133.199 61.548C133.199 61.548 133.094 61.6909 133.105 61.9987C133.121 62.2146 133.187 62.4239 133.297 62.6099C133.408 62.796 133.56 62.9536 133.743 63.0703C134.024 63.2323 134.344 63.3175 134.669 63.3175C134.994 63.3175 135.313 63.2323 135.595 63.0703C136.273 62.6794 136.773 62.0413 136.991 61.2898C137.23 60.554 137.23 59.7614 136.991 59.0257C136.796 58.431 136.444 57.8996 135.974 57.4869C135.664 57.2094 135.304 56.9931 134.913 56.8495C134.774 56.7829 134.622 56.749 134.468 56.7506C134.958 56.9877 135.413 57.291 135.82 57.6518C136.281 58.1016 136.607 58.6716 136.76 59.2972C136.914 59.9227 136.889 60.5788 136.688 61.1908C136.492 61.8661 136.051 62.444 135.452 62.812C135.212 62.9525 134.941 63.0302 134.663 63.0379C134.386 63.0456 134.111 62.983 133.864 62.8559C133.7 62.7604 133.558 62.6312 133.448 62.4767C133.339 62.3223 133.263 62.1462 133.226 61.9602C133.171 61.7184 133.226 61.548 133.199 61.548Z"
            fill="url(#paint8_linear_6872_232)" fill-opacity="0.8" style="mix-blend-mode:color-burn" />
        <path
            d="M133.199 61.548C133.199 61.548 133.094 61.6909 133.105 61.9987C133.121 62.2146 133.187 62.4239 133.297 62.6099C133.408 62.796 133.56 62.9536 133.743 63.0703C134.024 63.2323 134.344 63.3175 134.669 63.3175C134.994 63.3175 135.313 63.2323 135.595 63.0703C136.273 62.6794 136.773 62.0413 136.991 61.2898C137.23 60.554 137.23 59.7614 136.991 59.0257C136.796 58.431 136.444 57.8996 135.974 57.4869C135.664 57.2094 135.304 56.9931 134.913 56.8495C134.774 56.7829 134.622 56.749 134.468 56.7506C134.958 56.9877 135.413 57.291 135.82 57.6518C136.281 58.1016 136.607 58.6716 136.76 59.2972C136.914 59.9227 136.889 60.5788 136.688 61.1908C136.492 61.8661 136.051 62.444 135.452 62.812C135.212 62.9525 134.941 63.0302 134.663 63.0379C134.386 63.0456 134.111 62.983 133.864 62.8559C133.7 62.7604 133.558 62.6312 133.448 62.4767C133.339 62.3223 133.263 62.1462 133.226 61.9602C133.171 61.7184 133.226 61.548 133.199 61.548Z"
            fill="#2F3941" fill-opacity="0.15" style="mix-blend-mode:multiply" />
        <path
            d="M126.259 64.9991C126.042 64.8521 125.785 64.7736 125.523 64.7737C124.852 64.7084 124.179 64.869 123.611 65.2299L123.847 65.3892C123.921 65.0265 123.972 64.6594 124.001 64.2902C124.193 62.1689 123.517 60.5313 123.451 60.5753C123.663 61.7923 123.742 63.0286 123.687 64.2627C123.661 64.6148 123.615 64.9652 123.55 65.3123L123.484 65.6695L123.786 65.4662C124.301 65.1301 124.903 64.9506 125.517 64.9496C125.974 64.9606 126.248 65.0375 126.259 64.9991Z"
            fill="#E6EBEE" />
        <path
            d="M126.259 64.9991C126.042 64.8521 125.785 64.7736 125.523 64.7737C124.852 64.7084 124.179 64.869 123.611 65.2299L123.847 65.3892C123.921 65.0265 123.972 64.6594 124.001 64.2902C124.193 62.1689 123.517 60.5313 123.451 60.5753C123.663 61.7923 123.742 63.0286 123.687 64.2627C123.661 64.6148 123.615 64.9652 123.55 65.3123L123.484 65.6695L123.786 65.4662C124.301 65.1301 124.903 64.9506 125.517 64.9496C125.974 64.9606 126.248 65.0375 126.259 64.9991Z"
            fill="url(#paint9_linear_6872_232)" fill-opacity="0.8" style="mix-blend-mode:color-burn" />
        <path
            d="M126.259 64.9991C126.042 64.8521 125.785 64.7736 125.523 64.7737C124.852 64.7084 124.179 64.869 123.611 65.2299L123.847 65.3892C123.921 65.0265 123.972 64.6594 124.001 64.2902C124.193 62.1689 123.517 60.5313 123.451 60.5753C123.663 61.7923 123.742 63.0286 123.687 64.2627C123.661 64.6148 123.615 64.9652 123.55 65.3123L123.484 65.6695L123.786 65.4662C124.301 65.1301 124.903 64.9506 125.517 64.9496C125.974 64.9606 126.248 65.0375 126.259 64.9991Z"
            fill="#2F3941" fill-opacity="0.15" style="mix-blend-mode:multiply" />
        <path
            d="M130.598 51.9609C130.51 51.9609 130.631 52.6203 131.213 53.1259C131.796 53.6315 132.45 53.6755 132.45 53.582C132.45 53.4886 131.927 53.3293 131.427 52.8841C130.927 52.439 130.685 51.9279 130.598 51.9609Z"
            fill="#E6EBEE" />
        <path
            d="M130.598 51.9609C130.51 51.9609 130.631 52.6203 131.213 53.1259C131.796 53.6315 132.45 53.6755 132.45 53.582C132.45 53.4886 131.927 53.3293 131.427 52.8841C130.927 52.439 130.685 51.9279 130.598 51.9609Z"
            fill="url(#paint10_linear_6872_232)" fill-opacity="0.8"
            style="mix-blend-mode:color-burn" />
        <path
            d="M130.598 51.9609C130.51 51.9609 130.631 52.6203 131.213 53.1259C131.796 53.6315 132.45 53.6755 132.45 53.582C132.45 53.4886 131.927 53.3293 131.427 52.8841C130.927 52.439 130.685 51.9279 130.598 51.9609Z"
            fill="#2F3941" fill-opacity="0.15" style="mix-blend-mode:multiply" />
        <path
            d="M65.5762 131.204L87.3655 131.418L83.7111 115.608L84.9366 118.592C86.0661 121.347 87.9897 123.704 90.4626 125.362C92.9354 127.021 95.8458 127.906 98.8235 127.906C105.715 127.906 110.479 122.779 113.392 116.536C120.206 101.941 126.773 78.4368 126.773 78.4368L113.491 66.7646C103.874 84.9544 94.8393 100.748 94.8393 100.748C94.8393 100.748 92.229 92.8183 90.2121 85.7402C88.1953 78.6621 88.2118 74.9473 85.1179 71.4192C80.3534 65.9898 73.5775 64.6434 67.2688 63.0168L67.0325 92.3841L65.5762 131.204Z"
            fill="#C57F12" />
        <path
            d="M40.6415 109.357L80.3184 117.051L82.2473 132.295H21.413C19.7477 132.315 18.0965 131.988 16.5647 131.335C15.0329 130.681 13.6542 129.716 12.5165 128.499C11.3789 127.283 10.5073 125.843 9.95746 124.271C9.4076 122.699 9.19154 121.03 9.32306 119.37C10.1968 108.258 11.1475 94.5745 11.8729 88.7878C12.4225 84.2761 14.236 79.6105 16.3627 75.5989C19.4346 69.8177 29.6726 62.4099 38.6466 62.0253L40.3447 99.8171"
            fill="#C57F12" />
        <path
            d="M33.0872 108.225C33.073 108.105 33.073 107.983 33.0872 107.863C33.0872 107.593 33.0872 107.247 33.0872 106.824C33.0872 105.884 33.0872 104.587 33.0872 102.977C33.0872 99.7514 33.0268 95.2837 32.7795 90.3763C32.6531 87.9144 32.4937 85.5733 32.3234 83.4521C32.2436 81.5692 31.9767 79.6988 31.5265 77.8688C31.2122 76.6473 30.6134 75.5174 29.779 74.5715C29.4558 74.2414 29.1146 73.9296 28.7568 73.6373C29.1764 73.8532 29.5571 74.1373 29.8834 74.4781C30.7731 75.4171 31.4135 76.5639 31.7463 77.8138C32.2263 79.6586 32.5136 81.5481 32.6036 83.4521C32.7905 85.5788 32.9553 87.9199 33.0817 90.3818C33.3345 95.3276 33.362 99.7734 33.307 103.021C33.2741 104.637 33.2301 105.945 33.1916 106.868L33.1312 107.907C33.1291 108.014 33.1143 108.121 33.0872 108.225Z"
            fill="#263238" />
        <path
            d="M79.5493 118.149C79.1307 117.686 78.6432 117.291 78.104 116.978C77.4627 116.629 76.7819 116.357 76.0761 116.17C75.2573 115.934 74.2956 115.753 73.235 115.538C68.9925 114.67 63.1399 113.466 56.6553 112.241C50.1707 111.016 44.2686 110.043 39.9987 109.361L34.9374 108.554L33.5635 108.323C33.4017 108.303 33.2418 108.27 33.0854 108.224C33.2476 108.225 33.4094 108.239 33.569 108.268L34.9539 108.444C36.1519 108.603 37.8884 108.845 40.0262 109.164C44.3071 109.801 50.2147 110.746 56.7048 111.961C63.1949 113.175 69.0475 114.406 73.2735 115.318C74.3341 115.549 75.2958 115.747 76.1201 116C76.8337 116.202 77.5188 116.494 78.1589 116.868C78.5701 117.1 78.9412 117.397 79.258 117.747C79.3425 117.834 79.4197 117.928 79.4888 118.028C79.5273 118.094 79.5547 118.149 79.5493 118.149Z"
            fill="#263238" />
        <path
            d="M33.2069 108.224C33.2069 108.273 32.476 108.444 31.3439 108.905C30.683 109.178 30.0405 109.494 29.4205 109.851C28.6708 110.297 27.9562 110.801 27.2828 111.356C26.628 111.924 26.018 112.541 25.4583 113.203C24.9978 113.748 24.5755 114.325 24.1944 114.928C23.5459 115.967 23.2492 116.67 23.1997 116.648C23.2339 116.471 23.2912 116.299 23.3701 116.137C23.5573 115.686 23.7739 115.247 24.0185 114.824C24.3854 114.197 24.7987 113.598 25.255 113.032C26.3831 111.648 27.7629 110.491 29.3216 109.62C29.953 109.263 30.6129 108.96 31.2945 108.713C31.7529 108.542 32.223 108.404 32.7013 108.301C32.8654 108.252 33.0356 108.226 33.2069 108.224Z"
            fill="white" />
        <path
            d="M84.4446 117.721C84.4068 117.597 84.3792 117.47 84.3622 117.342C84.3182 117.067 84.2577 116.704 84.1863 116.243C84.0324 115.292 83.8291 113.918 83.5983 112.215C83.1367 108.813 82.5762 104.098 82.1035 98.8774C81.6309 93.6567 81.3507 88.9197 81.1968 85.4851C81.1199 83.7705 81.0759 82.3802 81.0539 81.4185C81.0539 80.9606 81.0539 80.5942 81.0539 80.3194C81.0419 80.1915 81.0419 80.0627 81.0539 79.9348C81.0836 80.0608 81.0984 80.1899 81.0979 80.3194L81.1693 81.4185C81.2298 82.4077 81.3067 83.787 81.4056 85.4741C81.6089 88.9032 81.9277 93.6348 82.3948 98.8499C82.8619 104.065 83.395 108.78 83.8071 112.187C84.0105 113.869 84.1808 115.237 84.3017 116.226C84.3512 116.682 84.3951 117.045 84.4281 117.325C84.4503 117.456 84.4559 117.589 84.4446 117.721Z"
            fill="white" />
        <path
            d="M97.5964 111.813C97.5964 111.813 97.47 111.692 97.2777 111.45C97.0113 111.099 96.7672 110.732 96.5468 110.351C95.0721 107.834 94.3922 104.93 94.5959 102.02C94.6236 101.582 94.6824 101.147 94.7718 100.717C94.7913 100.557 94.8319 100.4 94.8927 100.25C94.9421 100.25 94.8377 100.932 94.7992 102.031C94.7074 104.899 95.3707 107.742 96.7226 110.274C97.2392 111.225 97.6404 111.78 97.5964 111.813Z"
            fill="white" />
        <path
            d="M32.9267 87.803C32.9267 87.803 32.8553 87.8305 32.7234 87.847C32.5251 87.8788 32.3251 87.899 32.1244 87.9074C31.3872 87.9384 30.6491 87.8794 29.9262 87.7316C28.8526 87.5158 27.8045 87.1879 26.7993 86.7534C25.6618 86.2808 24.4528 85.6543 23.1888 85.0443C22.0056 84.4501 20.7805 83.9432 19.5234 83.5276C18.5032 83.185 17.4429 82.9763 16.369 82.9066C15.3743 82.8743 14.3801 82.9872 13.418 83.2418C13.477 83.2025 13.542 83.1729 13.6103 83.1539C13.7884 83.076 13.9721 83.0117 14.1599 82.9616C14.8762 82.7697 15.6169 82.6845 16.358 82.7088C17.4552 82.7431 18.5425 82.928 19.5893 83.2583C20.8627 83.668 22.1013 84.1789 23.2932 84.786C24.5627 85.4125 25.7607 86.028 26.8818 86.5061C27.8687 86.9446 28.8956 87.2869 29.9482 87.5283C30.928 87.7285 31.9268 87.8207 32.9267 87.803Z"
            fill="white" />
        <path
            d="M39.7454 86.468C38.6897 86.7893 37.6087 87.0209 36.5141 87.1604C35.4296 87.3965 34.326 87.5345 33.2168 87.5725C34.2725 87.2512 35.3534 87.0196 36.4481 86.8801C37.5325 86.6437 38.6361 86.5057 39.7454 86.468Z"
            fill="white" />
        <path
            d="M32.6802 98.262C32.4273 98.4047 32.1602 98.5207 31.8834 98.6082C31.3613 98.8116 30.5974 99.0863 29.6467 99.3941C27.1606 100.192 24.6232 100.82 22.0521 101.274C20.5463 101.537 19.101 101.73 17.7821 101.861C16.6123 102.013 15.4302 102.044 14.254 101.955C13.4562 101.89 12.6792 101.668 11.9679 101.301C11.7746 101.2 11.5906 101.083 11.4184 100.949C11.355 100.906 11.2977 100.854 11.248 100.795C11.248 100.795 11.5118 100.966 12.0119 101.202C12.7242 101.524 13.4901 101.71 14.2705 101.752C15.4323 101.812 16.5972 101.76 17.7491 101.598C19.0625 101.449 20.4968 101.252 21.9971 100.988C24.5562 100.534 27.0881 99.9377 29.5808 99.2017C30.537 98.916 31.3063 98.6522 31.8394 98.5038C32.1133 98.4026 32.3943 98.3218 32.6802 98.262Z"
            fill="white" />
        <path
            d="M39.5642 101.157C38.5741 101.314 37.5714 101.379 36.5692 101.349C35.5702 101.412 34.5674 101.381 33.5742 101.256C34.5644 101.099 35.5671 101.034 36.5692 101.064C37.5683 101.001 38.571 101.032 39.5642 101.157Z"
            fill="white" />
        <path
            d="M11.2861 126.193C11.2925 126.092 11.3128 125.992 11.3466 125.896C11.4015 125.676 11.4785 125.407 11.5664 125.072L11.7313 124.478C11.8027 124.264 11.8961 124.039 11.984 123.792C12.1817 123.23 12.4091 122.68 12.6655 122.143L13.1106 121.203C13.27 120.873 13.4733 120.555 13.6602 120.214C14.0746 119.493 14.5258 118.795 15.012 118.12C17.2571 115.016 20.1843 112.469 23.5684 110.674C24.3044 110.285 25.0601 109.935 25.8325 109.624C26.2007 109.487 26.5414 109.328 26.8876 109.218L27.8823 108.905C28.4522 108.723 29.032 108.574 29.6189 108.459C29.8772 108.404 30.1134 108.344 30.3333 108.306L30.9488 108.223L31.7951 108.119C31.8934 108.104 31.9934 108.104 32.0918 108.119C31.9981 108.155 31.9002 108.179 31.8005 108.19L30.9652 108.349L30.3607 108.454L29.6518 108.63C29.1463 108.767 28.5528 108.883 27.9428 109.113L26.9646 109.443C26.6239 109.558 26.2831 109.718 25.9259 109.861C25.1649 110.177 24.4202 110.531 23.6948 110.921C22.0423 111.835 20.4865 112.914 19.0512 114.142C17.6335 115.393 16.3448 116.783 15.2044 118.291C14.7098 119.005 14.2207 119.675 13.847 120.351C13.6547 120.687 13.4513 121 13.2975 121.324L12.8358 122.247C12.5226 122.83 12.3303 123.39 12.1214 123.896C12.028 124.138 11.9291 124.363 11.8522 124.572L11.6598 125.154L11.3905 125.962C11.3642 126.043 11.3292 126.12 11.2861 126.193Z"
            fill="white" />
        <path
            d="M38.8462 109.312C37.9271 110.111 37.1632 111.072 36.5931 112.148C35.9937 113.324 35.568 114.581 35.3292 115.879C35.045 117.476 34.8614 119.09 34.7796 120.71C34.7112 122.342 34.5275 123.967 34.2301 125.573C33.9609 126.89 33.496 128.159 32.8507 129.338C32.4198 130.128 31.863 130.842 31.2021 131.453C31.0221 131.62 30.8292 131.773 30.6251 131.909C30.4877 132.003 30.4108 132.052 30.4053 132.041C31.3411 131.261 32.1205 130.31 32.7024 129.239C33.3112 128.069 33.748 126.818 33.9993 125.524C34.2918 123.928 34.4754 122.314 34.5488 120.693C34.6202 119.06 34.8038 117.433 35.0984 115.824C35.3543 114.508 35.8063 113.237 36.4392 112.055C36.8712 111.257 37.4277 110.533 38.0879 109.911C38.2608 109.746 38.4444 109.592 38.6374 109.45C38.7009 109.395 38.7711 109.349 38.8462 109.312Z"
            fill="white" />
        <path
            d="M48.2266 132.386C48.1496 132.386 48.2266 127.649 48.4299 121.813C48.6332 115.977 48.8421 111.245 48.919 111.245C48.9959 111.245 48.919 115.982 48.7157 121.824C48.5123 127.665 48.3035 132.391 48.2266 132.386Z"
            fill="white" />
        <path
            d="M63.1418 131.575C63.0383 131.355 62.9573 131.125 62.9 130.888C62.8108 130.617 62.7356 130.342 62.6747 130.064C62.6032 129.74 62.5043 129.371 62.4439 128.965C62.2729 127.995 62.1756 127.014 62.1526 126.03C62.0986 123.612 62.4706 121.203 63.2517 118.914C63.5701 117.981 63.9576 117.074 64.4112 116.199C64.5926 115.82 64.7959 115.501 64.9608 115.215C65.1004 114.967 65.2545 114.726 65.4224 114.495C65.5449 114.286 65.6905 114.09 65.8565 113.913C65.906 113.94 65.307 114.792 64.5871 116.292C64.1599 117.168 63.7927 118.071 63.488 118.996C62.7352 121.262 62.3638 123.637 62.3889 126.025C62.4014 126.998 62.4766 127.969 62.6142 128.932C62.889 130.569 63.1967 131.559 63.1418 131.575Z"
            fill="white" />
        <path
            d="M37.8093 70.8375C37.8093 70.8815 36.941 70.5023 35.5122 70.0407C31.7907 68.8393 27.8466 68.4899 23.9718 69.0185C22.4881 69.2219 21.5813 69.4527 21.5703 69.4032C21.7674 69.3081 21.9762 69.2398 22.1913 69.1999C22.7663 69.0409 23.3497 68.9143 23.9388 68.8207C27.843 68.172 31.848 68.5256 35.5782 69.8483C36.1386 70.046 36.6888 70.2716 37.2268 70.5243C37.4331 70.6043 37.6288 70.7095 37.8093 70.8375Z"
            fill="white" />
        <path
            d="M81.2252 93.9682C80.5457 94.0036 79.8645 93.9926 79.1864 93.9353C77.9279 93.8858 76.1914 93.8198 74.2735 93.7759C72.3556 93.7319 70.619 93.7044 69.3606 93.6935C68.6802 93.7151 67.999 93.6912 67.3218 93.622C67.5019 93.5794 67.6862 93.5573 67.8713 93.5561C68.223 93.5561 68.7341 93.5066 69.3661 93.4901C70.6245 93.4517 72.3611 93.4407 74.2845 93.4901C76.2079 93.5396 77.9444 93.6385 79.2304 93.7429C79.8568 93.7924 80.3624 93.8363 80.7141 93.8803C80.8871 93.8913 81.0585 93.9208 81.2252 93.9682Z"
            fill="white" />
        <path
            d="M92.0759 91.8848C92.0759 91.9343 91.3889 92.1706 90.3173 92.6982C87.5141 94.0771 85.1394 96.1934 83.448 98.82C82.7996 99.8257 82.4863 100.496 82.4424 100.469C82.473 100.295 82.5324 100.128 82.6182 99.974C82.8108 99.5373 83.031 99.1133 83.2777 98.7046C84.0838 97.3458 85.096 96.1204 86.2782 95.0722C87.4571 94.0208 88.7895 93.1554 90.2294 92.5058C90.6638 92.3102 91.1098 92.1414 91.5648 92.0002C91.7294 91.9397 91.9012 91.9008 92.0759 91.8848Z"
            fill="white" />
        <path
            d="M86.7184 74.2717C85.7723 74.2393 84.8277 74.3713 83.9267 74.6619C82.9542 75.0014 82.0113 75.4205 81.1076 75.9148C79.9919 76.5332 78.8265 77.0571 77.6235 77.481C75.3998 78.1935 73.0346 78.3464 70.7377 77.9262C70.0474 77.8009 69.369 77.617 68.7099 77.3766C68.4634 77.2994 68.2257 77.1963 68.001 77.0689C68.001 77.0139 69.0341 77.4481 70.7487 77.7283C73.0136 78.0819 75.3297 77.9032 77.5136 77.2063C78.7029 76.7855 79.8584 76.2748 80.9702 75.6785C81.8901 75.1903 82.852 74.7857 83.8443 74.4696C84.5192 74.2553 85.2246 74.1532 85.9325 74.1673C86.1168 74.1727 86.3004 74.191 86.4821 74.2223C86.6524 74.2442 86.7239 74.2607 86.7184 74.2717Z"
            fill="white" />
        <path
            d="M83.9806 111.105C83.7814 111.232 83.5673 111.334 83.3432 111.408C83.1344 111.496 82.8761 111.6 82.5683 111.699C82.2606 111.798 81.9144 111.93 81.5242 112.029C80.604 112.285 79.6677 112.48 78.7215 112.611C77.5629 112.761 76.3944 112.822 75.2264 112.793C74.0588 112.749 72.8961 112.619 71.7478 112.402C70.8159 112.214 69.8979 111.963 69.0001 111.649C68.61 111.529 68.2747 111.38 67.978 111.259C67.6812 111.138 67.4284 111.023 67.2196 110.924C67.001 110.833 66.7928 110.719 66.5986 110.583C66.5986 110.534 67.5274 110.974 69.0661 111.457C69.9671 111.741 70.8847 111.968 71.8138 112.139C74.0868 112.559 76.4108 112.63 78.7051 112.347C79.6416 112.232 80.5703 112.06 81.4857 111.831C83.0354 111.435 83.9642 111.056 83.9806 111.105Z"
            fill="white" />
        <path
            d="M96.6081 127.37C96.5297 127.32 96.4577 127.261 96.3938 127.194C96.2674 127.067 96.0586 126.897 95.8442 126.644C95.1807 125.935 94.5982 125.153 94.1077 124.314C92.5218 121.504 91.6783 118.336 91.6567 115.109C91.6604 111.905 92.0797 108.715 92.9042 105.619C93.201 104.432 93.4538 103.476 93.6571 102.822C93.7505 102.52 93.8274 102.272 93.8879 102.069C93.9483 101.866 93.9758 101.805 93.9868 101.811C93.9857 101.902 93.9708 101.993 93.9428 102.08C93.8989 102.289 93.8384 102.542 93.767 102.849C93.6021 103.558 93.3768 104.498 93.102 105.668C92.3435 108.755 91.9579 111.921 91.9535 115.099C91.9712 118.273 92.7654 121.396 94.2671 124.193C94.7379 125.031 95.2901 125.821 95.9157 126.551C96.3498 127.078 96.6246 127.348 96.6081 127.37Z"
            fill="white" />
        <path
            d="M116.606 108.71C115.728 108.013 114.747 107.457 113.699 107.061C112.552 106.664 111.376 106.357 110.182 106.143C108.698 105.893 107.23 105.557 105.785 105.138C103.176 104.289 100.795 102.857 98.8225 100.95C98.2276 100.375 97.6765 99.7556 97.1739 99.0981C96.9926 98.8673 96.8717 98.6749 96.7838 98.5485C96.6958 98.4221 96.6573 98.3507 96.6683 98.3452C96.8808 98.5592 97.079 98.7869 97.2619 99.0267C97.7892 99.6542 98.3564 100.247 98.9599 100.802C100.941 102.64 103.298 104.026 105.868 104.863C107.298 105.28 108.749 105.621 110.215 105.885C111.419 106.116 112.603 106.445 113.754 106.869C114.531 107.162 115.261 107.57 115.919 108.078C116.099 108.213 116.268 108.361 116.424 108.523C116.562 108.644 116.617 108.704 116.606 108.71Z"
            fill="white" />
        <path
            d="M122.892 90.369C122.68 90.2176 122.483 90.0465 122.304 89.8579C122.122 89.6875 121.902 89.4787 121.628 89.2479C121.353 89.0171 121.078 88.7423 120.704 88.4785C119.893 87.8237 119.041 87.2199 118.154 86.6706C115.98 85.3258 113.616 84.3144 111.142 83.6701C110.131 83.4098 109.105 83.2098 108.07 83.0711C107.631 82.9996 107.23 82.9722 106.878 82.9392C106.526 82.9062 106.218 82.8787 105.971 82.8677C105.711 82.8666 105.452 82.8427 105.196 82.7963C105.453 82.7567 105.712 82.7438 105.971 82.7578C106.277 82.7425 106.583 82.7425 106.889 82.7578C107.241 82.7578 107.653 82.7853 108.098 82.8458C109.144 82.9602 110.181 83.1437 111.203 83.3953C112.455 83.7162 113.682 84.1276 114.874 84.6263C116.056 85.1418 117.199 85.7442 118.292 86.4288C119.181 86.9959 120.031 87.622 120.836 88.3027C121.188 88.5829 121.474 88.8522 121.738 89.116C121.963 89.3209 122.178 89.5373 122.38 89.7645C122.572 89.9471 122.743 90.1497 122.892 90.369Z"
            fill="white" />
        <path
            d="M74.8065 65.1476C74.4838 65.3629 74.1323 65.5313 73.7623 65.6477C72.8954 65.9877 72.0046 66.2632 71.0971 66.472C70.193 66.685 69.2747 66.8319 68.3494 66.9117C67.9669 66.9697 67.5778 66.9697 67.1953 66.9117C67.1953 66.8237 68.9374 66.6809 71.0421 66.1808C73.1469 65.6807 74.7735 65.0652 74.8065 65.1476Z"
            fill="white" />
        <path
            d="M94.299 142.545C94.3705 142.79 94.3793 143.049 94.3248 143.298C94.2702 143.548 94.154 143.78 93.9867 143.973C93.8194 144.166 93.6065 144.314 93.3673 144.403C93.1281 144.492 92.8703 144.52 92.6174 144.485C92.3243 144.443 92.0497 144.317 91.8272 144.122C91.6047 143.926 91.4438 143.671 91.3645 143.385L90.8974 141.66H90.9688C91.0165 141.909 91.0041 142.166 90.9329 142.409C90.8616 142.653 90.7334 142.876 90.5589 143.06C90.3845 143.244 90.1686 143.384 89.9294 143.469C89.6901 143.553 89.4342 143.579 89.1828 143.545C88.4629 143.545 87.8419 142.495 87.6331 141.94C87.0897 141.993 86.5422 141.896 86.0501 141.659C85.558 141.423 85.14 141.056 84.8414 140.599L81.6156 135.566L75.6421 131.197L79.2581 118.288L92.1119 126.608C92.6175 127.004 92.6944 127.158 93.4967 127.91L101.795 135.544C100.855 136.093 100.058 136.066 98.7503 135.544C97.4424 135.021 91.7162 131.147 91.7162 131.147L94.299 142.495"
            fill="#E6EBEE" />
        <path
            d="M94.299 142.545C94.3705 142.79 94.3793 143.049 94.3248 143.298C94.2702 143.548 94.154 143.78 93.9867 143.973C93.8194 144.166 93.6065 144.314 93.3673 144.403C93.1281 144.492 92.8703 144.52 92.6174 144.485C92.3243 144.443 92.0497 144.317 91.8272 144.122C91.6047 143.926 91.4438 143.671 91.3645 143.385L90.8974 141.66H90.9688C91.0165 141.909 91.0041 142.166 90.9329 142.409C90.8616 142.653 90.7334 142.876 90.5589 143.06C90.3845 143.244 90.1686 143.384 89.9294 143.469C89.6901 143.553 89.4342 143.579 89.1828 143.545C88.4629 143.545 87.8419 142.495 87.6331 141.94C87.0897 141.993 86.5422 141.896 86.0501 141.659C85.558 141.423 85.14 141.056 84.8414 140.599L81.6156 135.566L75.6421 131.197L79.2581 118.288L92.1119 126.608C92.6175 127.004 92.6944 127.158 93.4967 127.91L101.795 135.544C100.855 136.093 100.058 136.066 98.7503 135.544C97.4424 135.021 91.7162 131.147 91.7162 131.147L94.299 142.495"
            fill="url(#paint11_linear_6872_232)" fill-opacity="0.8"
            style="mix-blend-mode:color-burn" />
        <path
            d="M94.299 142.545C94.3705 142.79 94.3793 143.049 94.3248 143.298C94.2702 143.548 94.154 143.78 93.9867 143.973C93.8194 144.166 93.6065 144.314 93.3673 144.403C93.1281 144.492 92.8703 144.52 92.6174 144.485C92.3243 144.443 92.0497 144.317 91.8272 144.122C91.6047 143.926 91.4438 143.671 91.3645 143.385L90.8974 141.66H90.9688C91.0165 141.909 91.0041 142.166 90.9329 142.409C90.8616 142.653 90.7334 142.876 90.5589 143.06C90.3845 143.244 90.1686 143.384 89.9294 143.469C89.6901 143.553 89.4342 143.579 89.1828 143.545C88.4629 143.545 87.8419 142.495 87.6331 141.94C87.0897 141.993 86.5422 141.896 86.0501 141.659C85.558 141.423 85.14 141.056 84.8414 140.599L81.6156 135.566L75.6421 131.197L79.2581 118.288L92.1119 126.608C92.6175 127.004 92.6944 127.158 93.4967 127.91L101.795 135.544C100.855 136.093 100.058 136.066 98.7503 135.544C97.4424 135.021 91.7162 131.147 91.7162 131.147L94.299 142.495"
            fill="#2F3941" fill-opacity="0.15" style="mix-blend-mode:multiply" />
        <path
            d="M83.301 131.926C83.301 131.926 83.4494 131.992 83.6802 132.152L84.1089 132.448C84.3126 132.576 84.4975 132.731 84.6584 132.91C84.8487 133.129 84.9977 133.38 85.098 133.652C85.197 133.943 85.3014 134.24 85.4113 134.553L86.1147 136.619C86.6038 138.092 87.0324 139.422 87.3292 140.395C87.5169 140.911 87.6585 141.442 87.7523 141.983C87.5028 141.493 87.2969 140.982 87.1368 140.455C86.7906 139.499 86.329 138.18 85.8399 136.713C85.6036 135.982 85.3728 135.284 85.1585 134.641C85.0596 134.322 84.9661 134.02 84.8727 133.734C84.7905 133.483 84.666 133.247 84.5045 133.036C84.3654 132.865 84.2068 132.71 84.0319 132.575L83.6363 132.24C83.4 132.053 83.2901 131.943 83.301 131.926Z"
            fill="#E6EBEE" />
        <path
            d="M83.301 131.926C83.301 131.926 83.4494 131.992 83.6802 132.152L84.1089 132.448C84.3126 132.576 84.4975 132.731 84.6584 132.91C84.8487 133.129 84.9977 133.38 85.098 133.652C85.197 133.943 85.3014 134.24 85.4113 134.553L86.1147 136.619C86.6038 138.092 87.0324 139.422 87.3292 140.395C87.5169 140.911 87.6585 141.442 87.7523 141.983C87.5028 141.493 87.2969 140.982 87.1368 140.455C86.7906 139.499 86.329 138.18 85.8399 136.713C85.6036 135.982 85.3728 135.284 85.1585 134.641C85.0596 134.322 84.9661 134.02 84.8727 133.734C84.7905 133.483 84.666 133.247 84.5045 133.036C84.3654 132.865 84.2068 132.71 84.0319 132.575L83.6363 132.24C83.4 132.053 83.2901 131.943 83.301 131.926Z"
            fill="url(#paint12_linear_6872_232)" fill-opacity="0.8"
            style="mix-blend-mode:color-burn" />
        <path
            d="M83.301 131.926C83.301 131.926 83.4494 131.992 83.6802 132.152L84.1089 132.448C84.3126 132.576 84.4975 132.731 84.6584 132.91C84.8487 133.129 84.9977 133.38 85.098 133.652C85.197 133.943 85.3014 134.24 85.4113 134.553L86.1147 136.619C86.6038 138.092 87.0324 139.422 87.3292 140.395C87.5169 140.911 87.6585 141.442 87.7523 141.983C87.5028 141.493 87.2969 140.982 87.1368 140.455C86.7906 139.499 86.329 138.18 85.8399 136.713C85.6036 135.982 85.3728 135.284 85.1585 134.641C85.0596 134.322 84.9661 134.02 84.8727 133.734C84.7905 133.483 84.666 133.247 84.5045 133.036C84.3654 132.865 84.2068 132.71 84.0319 132.575L83.6363 132.24C83.4 132.053 83.2901 131.943 83.301 131.926Z"
            fill="#2F3941" fill-opacity="0.15" style="mix-blend-mode:multiply" />
        <path
            d="M91.0353 141.958C90.9535 141.783 90.8926 141.599 90.854 141.409L90.4418 139.936C90.0901 138.694 89.623 136.974 89.024 135.1C88.425 133.226 87.7986 131.556 87.0457 130.523C86.7648 130.11 86.4088 129.754 85.9961 129.473C85.6938 129.286 85.5015 129.231 85.507 129.198C85.5578 129.197 85.6083 129.206 85.6553 129.226C85.7922 129.261 85.9248 129.31 86.051 129.374C86.5073 129.629 86.9029 129.979 87.2105 130.402C88.0294 131.446 88.6888 133.149 89.2933 135.012C89.8978 136.875 90.3374 138.628 90.6342 139.887C90.7826 140.513 90.8925 141.024 90.9639 141.381C91.0167 141.569 91.0407 141.764 91.0353 141.958Z"
            fill="#E6EBEE" />
        <path
            d="M91.0353 141.958C90.9535 141.783 90.8926 141.599 90.854 141.409L90.4418 139.936C90.0901 138.694 89.623 136.974 89.024 135.1C88.425 133.226 87.7986 131.556 87.0457 130.523C86.7648 130.11 86.4088 129.754 85.9961 129.473C85.6938 129.286 85.5015 129.231 85.507 129.198C85.5578 129.197 85.6083 129.206 85.6553 129.226C85.7922 129.261 85.9248 129.31 86.051 129.374C86.5073 129.629 86.9029 129.979 87.2105 130.402C88.0294 131.446 88.6888 133.149 89.2933 135.012C89.8978 136.875 90.3374 138.628 90.6342 139.887C90.7826 140.513 90.8925 141.024 90.9639 141.381C91.0167 141.569 91.0407 141.764 91.0353 141.958Z"
            fill="url(#paint13_linear_6872_232)" fill-opacity="0.8"
            style="mix-blend-mode:color-burn" />
        <path
            d="M91.0353 141.958C90.9535 141.783 90.8926 141.599 90.854 141.409L90.4418 139.936C90.0901 138.694 89.623 136.974 89.024 135.1C88.425 133.226 87.7986 131.556 87.0457 130.523C86.7648 130.11 86.4088 129.754 85.9961 129.473C85.6938 129.286 85.5015 129.231 85.507 129.198C85.5578 129.197 85.6083 129.206 85.6553 129.226C85.7922 129.261 85.9248 129.31 86.051 129.374C86.5073 129.629 86.9029 129.979 87.2105 130.402C88.0294 131.446 88.6888 133.149 89.2933 135.012C89.8978 136.875 90.3374 138.628 90.6342 139.887C90.7826 140.513 90.8925 141.024 90.9639 141.381C91.0167 141.569 91.0407 141.764 91.0353 141.958Z"
            fill="#2F3941" fill-opacity="0.15" style="mix-blend-mode:multiply" />
        <path
            d="M94.3536 142.735C94.2544 142.553 94.1787 142.359 94.1283 142.158C93.9909 141.718 93.8205 141.185 93.6172 140.553C93.1996 139.196 92.6445 137.317 92.0455 135.239C91.4465 133.162 90.9464 131.338 90.5343 129.909C90.3923 129.379 90.0841 128.909 89.655 128.568C89.4811 128.456 89.2971 128.36 89.1055 128.282C89.1596 128.269 89.2161 128.269 89.2703 128.282C89.4245 128.317 89.5715 128.378 89.7045 128.464C90.1843 128.793 90.5387 129.275 90.7101 129.832C91.1607 131.189 91.6938 133.069 92.3038 135.146C92.9138 137.223 93.4304 139.119 93.7985 140.487C93.9634 141.125 94.1063 141.669 94.2162 142.136C94.2828 142.33 94.3288 142.531 94.3536 142.735Z"
            fill="#E6EBEE" />
        <path
            d="M94.3536 142.735C94.2544 142.553 94.1787 142.359 94.1283 142.158C93.9909 141.718 93.8205 141.185 93.6172 140.553C93.1996 139.196 92.6445 137.317 92.0455 135.239C91.4465 133.162 90.9464 131.338 90.5343 129.909C90.3923 129.379 90.0841 128.909 89.655 128.568C89.4811 128.456 89.2971 128.36 89.1055 128.282C89.1596 128.269 89.2161 128.269 89.2703 128.282C89.4245 128.317 89.5715 128.378 89.7045 128.464C90.1843 128.793 90.5387 129.275 90.7101 129.832C91.1607 131.189 91.6938 133.069 92.3038 135.146C92.9138 137.223 93.4304 139.119 93.7985 140.487C93.9634 141.125 94.1063 141.669 94.2162 142.136C94.2828 142.33 94.3288 142.531 94.3536 142.735Z"
            fill="url(#paint14_linear_6872_232)" fill-opacity="0.8"
            style="mix-blend-mode:color-burn" />
        <path
            d="M94.3536 142.735C94.2544 142.553 94.1787 142.359 94.1283 142.158C93.9909 141.718 93.8205 141.185 93.6172 140.553C93.1996 139.196 92.6445 137.317 92.0455 135.239C91.4465 133.162 90.9464 131.338 90.5343 129.909C90.3923 129.379 90.0841 128.909 89.655 128.568C89.4811 128.456 89.2971 128.36 89.1055 128.282C89.1596 128.269 89.2161 128.269 89.2703 128.282C89.4245 128.317 89.5715 128.378 89.7045 128.464C90.1843 128.793 90.5387 129.275 90.7101 129.832C91.1607 131.189 91.6938 133.069 92.3038 135.146C92.9138 137.223 93.4304 139.119 93.7985 140.487C93.9634 141.125 94.1063 141.669 94.2162 142.136C94.2828 142.33 94.3288 142.531 94.3536 142.735Z"
            fill="#2F3941" fill-opacity="0.15" style="mix-blend-mode:multiply" />
        <path
            d="M37.2126 49.0745C38.5525 49.3454 39.9377 49.2938 41.2537 48.924C42.5698 48.5542 43.7791 47.8768 44.7818 46.9476C45.7846 46.0184 46.552 44.8641 47.0208 43.58C47.4896 42.2958 47.6463 40.9186 47.478 39.562C47.1758 37.1715 45.8899 34.748 46.7197 32.4839C47.8187 29.4999 52.0008 28.5822 53.1108 25.5982C53.7538 23.8671 53.1768 21.8393 53.9077 20.1413C54.5946 18.5476 56.2762 17.6299 57.9138 17.0364C59.5515 16.4429 61.299 16.0362 62.6729 14.9701C64.0467 13.904 64.8985 11.8927 64.0138 10.3924C56.7559 11.2632 49.6275 12.9955 42.7794 15.5526C41.1913 16.1461 39.5261 16.8605 38.5864 18.2673C37.5973 19.7621 37.6467 21.6855 37.7291 23.477C38.1358 32.2036 36.8059 40.3753 37.2126 49.102"
            fill="#263238" />
    </g>
    <path
        d="M35.2501 43.5002C35.1944 43.492 35.1403 43.4753 35.0897 43.4507C34.9318 43.396 34.7813 43.3221 34.6416 43.2308C34.1027 42.8842 33.6792 42.3866 33.4246 41.8008C33.006 40.8749 32.8936 39.8408 33.1038 38.8474C33.4369 37.5568 34.0421 36.3514 34.8795 35.3111C35.7369 34.1231 36.8267 32.9186 37.5679 31.3842C37.9632 30.6045 38.184 29.7489 38.2152 28.8763C38.1832 27.95 37.9963 27.0356 37.662 26.1704C37.2891 25.2351 37.0923 24.2396 37.0811 23.2335C37.1347 22.157 37.4526 21.11 38.0071 20.1839C38.5616 19.2578 39.3357 18.4807 40.2619 17.9207C41.2553 17.3818 42.3571 17.0699 43.487 17.0077C44.5804 16.9544 45.6633 16.7698 46.7121 16.4578C47.6967 16.0871 48.506 15.363 48.9801 14.4283C49.432 13.5088 49.7914 12.5472 50.0533 11.5575C50.3332 10.6079 50.7036 9.68707 51.1596 8.80755C51.9914 7.1401 53.258 5.7251 54.8273 4.71021C56.2129 3.8441 57.834 3.42531 59.4685 3.51126C60.8222 3.58086 62.1117 4.1065 63.125 5.0017C63.8803 5.67685 64.4432 6.53811 64.7569 7.49861C64.9607 8.09985 65.0379 8.73635 64.9837 9.36853C64.9724 9.58841 64.9353 9.80621 64.873 10.0175C64.873 10.0175 64.9118 9.79202 64.9284 9.36303C64.9549 8.74058 64.861 8.11885 64.6518 7.5316C64.2709 6.4508 63.5719 5.50887 62.6456 4.82819C61.7192 4.14751 60.6084 3.75956 59.4574 3.71475C57.8682 3.64514 56.296 4.06376 54.9545 4.9137C53.4274 5.91139 52.1972 7.29777 51.392 8.92855C50.9451 9.80829 50.5857 10.7293 50.3188 11.6784C50.0486 12.6861 49.678 13.6644 49.2124 14.5988C48.956 15.0824 48.6215 15.5209 48.2222 15.8968C47.8095 16.2768 47.3241 16.5704 46.795 16.7603C45.7172 17.0905 44.6023 17.2863 43.4759 17.3432C42.387 17.4003 41.3247 17.6991 40.367 18.2177C39.4816 18.7518 38.741 19.493 38.2097 20.3768C37.6785 21.2607 37.3727 22.2603 37.319 23.2885C37.3289 24.2636 37.5163 25.2288 37.8722 26.1374C38.2242 27.0291 38.4207 27.9739 38.453 28.9313C38.4157 29.8392 38.1818 30.7284 37.7671 31.5382C36.9926 33.1111 35.8918 34.2881 35.0288 35.4815C34.1959 36.4925 33.5888 37.6679 33.2476 38.9299C33.0272 39.8902 33.1182 40.8951 33.5076 41.8008C33.7469 42.3778 34.1458 42.8756 34.6582 43.2363C35.0288 43.4232 35.2556 43.4782 35.2501 43.5002Z"
        fill="white" />
    <defs>
        <filter id="filter0_d_6872_232" x="0.0515895" y="0.279911" width="145.896" height="157.542"
            filterUnits="userSpaceOnUse" color-interpolation-filters="sRGB">
            <feFlood flood-opacity="0" result="BackgroundImageFix" />
            <feColorMatrix in="SourceAlpha" type="matrix"
                values="0 0 0 0 0 0 0 0 0 0 0 0 0 0 0 0 0 0 127 0" result="hardAlpha" />
            <feOffset dy="5.55083" />
            <feGaussianBlur stdDeviation="3.88558" />
            <feColorMatrix type="matrix"
                values="0 0 0 0 0.184314 0 0 0 0 0.223529 0 0 0 0 0.254902 0 0 0 0.15 0" />
            <feBlend mode="normal" in2="BackgroundImageFix" result="effect1_dropShadow_6872_232" />
            <feBlend mode="normal" in="SourceGraphic" in2="effect1_dropShadow_6872_232"
                result="shape" />
        </filter>
        <linearGradient id="paint0_linear_6872_232" x1="67.5274" y1="0.644851" x2="26.1432"
            y2="57.8931" gradientUnits="userSpaceOnUse">
            <stop offset="0.213542" stop-color="#323444" />
            <stop offset="0.6875" stop-color="#2F3941" stop-opacity="0.291667" />
            <stop offset="1" stop-color="#2F3941" stop-opacity="0" />
        </linearGradient>
        <linearGradient id="paint1_linear_6872_232" x1="61.069" y1="50.5008" x2="59.7805"
            y2="58.3914" gradientUnits="userSpaceOnUse">
            <stop offset="0.213542" stop-color="#323444" />
            <stop offset="0.6875" stop-color="#2F3941" stop-opacity="0.291667" />
            <stop offset="1" stop-color="#2F3941" stop-opacity="0" />
        </linearGradient>
        <linearGradient id="paint2_linear_6872_232" x1="131.009" y1="26.7847" x2="84.322" y2="102.3"
            gradientUnits="userSpaceOnUse">
            <stop offset="0.213542" stop-color="#323444" />
            <stop offset="0.6875" stop-color="#2F3941" stop-opacity="0.291667" />
            <stop offset="1" stop-color="#2F3941" stop-opacity="0" />
        </linearGradient>
        <linearGradient id="paint3_linear_6872_232" x1="126.791" y1="55.0957" x2="124.202"
            y2="65.2867" gradientUnits="userSpaceOnUse">
            <stop offset="0.213542" stop-color="#323444" />
            <stop offset="0.6875" stop-color="#2F3941" stop-opacity="0.291667" />
            <stop offset="1" stop-color="#2F3941" stop-opacity="0" />
        </linearGradient>
        <linearGradient id="paint4_linear_6872_232" x1="127.017" y1="54.8379" x2="124.278"
            y2="65.4228" gradientUnits="userSpaceOnUse">
            <stop offset="0.213542" stop-color="#323444" />
            <stop offset="0.6875" stop-color="#2F3941" stop-opacity="0.291667" />
            <stop offset="1" stop-color="#2F3941" stop-opacity="0" />
        </linearGradient>
        <linearGradient id="paint5_linear_6872_232" x1="136.612" y1="52.1321" x2="136.222"
            y2="55.9197" gradientUnits="userSpaceOnUse">
            <stop offset="0.213542" stop-color="#323444" />
            <stop offset="0.6875" stop-color="#2F3941" stop-opacity="0.291667" />
            <stop offset="1" stop-color="#2F3941" stop-opacity="0" />
        </linearGradient>
        <linearGradient id="paint6_linear_6872_232" x1="127.871" y1="41.6347" x2="120.693"
            y2="47.8618" gradientUnits="userSpaceOnUse">
            <stop offset="0.213542" stop-color="#323444" />
            <stop offset="0.6875" stop-color="#2F3941" stop-opacity="0.291667" />
            <stop offset="1" stop-color="#2F3941" stop-opacity="0" />
        </linearGradient>
        <linearGradient id="paint7_linear_6872_232" x1="133.986" y1="56.2099" x2="131.863"
            y2="62.3504" gradientUnits="userSpaceOnUse">
            <stop offset="0.213542" stop-color="#323444" />
            <stop offset="0.6875" stop-color="#2F3941" stop-opacity="0.291667" />
            <stop offset="1" stop-color="#2F3941" stop-opacity="0" />
        </linearGradient>
        <linearGradient id="paint8_linear_6872_232" x1="136.518" y1="55.5169" x2="132.524"
            y2="62.2919" gradientUnits="userSpaceOnUse">
            <stop offset="0.213542" stop-color="#323444" />
            <stop offset="0.6875" stop-color="#2F3941" stop-opacity="0.291667" />
            <stop offset="1" stop-color="#2F3941" stop-opacity="0" />
        </linearGradient>
        <linearGradient id="paint9_linear_6872_232" x1="125.809" y1="59.6173" x2="122.548"
            y2="64.5413" gradientUnits="userSpaceOnUse">
            <stop offset="0.213542" stop-color="#323444" />
            <stop offset="0.6875" stop-color="#2F3941" stop-opacity="0.291667" />
            <stop offset="1" stop-color="#2F3941" stop-opacity="0" />
        </linearGradient>
        <linearGradient id="paint10_linear_6872_232" x1="132.148" y1="51.6472" x2="131.472"
            y2="53.7394" gradientUnits="userSpaceOnUse">
            <stop offset="0.213542" stop-color="#323444" />
            <stop offset="0.6875" stop-color="#2F3941" stop-opacity="0.291667" />
            <stop offset="1" stop-color="#2F3941" stop-opacity="0" />
        </linearGradient>
        <linearGradient id="paint11_linear_6872_232" x1="97.6011" y1="113.364" x2="85.8435"
            y2="145.505" gradientUnits="userSpaceOnUse">
            <stop offset="0.213542" stop-color="#323444" />
            <stop offset="0.6875" stop-color="#2F3941" stop-opacity="0.291667" />
            <stop offset="1" stop-color="#2F3941" stop-opacity="0" />
        </linearGradient>
        <linearGradient id="paint12_linear_6872_232" x1="87.0384" y1="130.037" x2="80.1759"
            y2="138.361" gradientUnits="userSpaceOnUse">
            <stop offset="0.213542" stop-color="#323444" />
            <stop offset="0.6875" stop-color="#2F3941" stop-opacity="0.291667" />
            <stop offset="1" stop-color="#2F3941" stop-opacity="0" />
        </linearGradient>
        <linearGradient id="paint13_linear_6872_232" x1="90.1494" y1="126.801" x2="81.4082"
            y2="137.178" gradientUnits="userSpaceOnUse">
            <stop offset="0.213542" stop-color="#323444" />
            <stop offset="0.6875" stop-color="#2F3941" stop-opacity="0.291667" />
            <stop offset="1" stop-color="#2F3941" stop-opacity="0" />
        </linearGradient>
        <linearGradient id="paint14_linear_6872_232" x1="93.512" y1="125.556" x2="83.4587"
            y2="135.551" gradientUnits="userSpaceOnUse">
            <stop offset="0.213542" stop-color="#323444" />
            <stop offset="0.6875" stop-color="#2F3941" stop-opacity="0.291667" />
            <stop offset="1" stop-color="#2F3941" stop-opacity="0" />
        </linearGradient>
    </defs>
</svg>