<svg width="145" height="136" viewBox="0 0 145 136" fill="none" xmlns="http://www.w3.org/2000/svg">
    <g clip-path="url(#clip0_6803_68043)">
        <rect width="145" height="136" fill="white" />
        <g filter="url(#filter0_d_6803_68043)">
            <g clip-path="url(#clip1_6803_68043)">
                <path fill-rule="evenodd" clip-rule="evenodd"
                    d="M131.065 24C131.636 24 132.155 24.2951 132.529 24.7781C132.895 25.2492 133.122 25.8996 133.122 26.6189V102.522C133.122 102.687 133.122 102.878 133.122 103.084C133.122 104.22 132.201 105.141 131.065 105.141H24.0202C22.8841 105.141 21.963 104.219 21.9629 103.083C21.9629 102.878 21.9629 102.687 21.9629 102.522V26.6189C21.9629 25.8996 22.1904 25.2492 22.5559 24.7781C22.9305 24.2948 23.4494 24 24.0204 24H131.065Z"
                    fill="#E6EBEE" />
                <path fill-rule="evenodd" clip-rule="evenodd"
                    d="M131.065 24C131.636 24 132.155 24.2951 132.529 24.7781C132.895 25.2492 133.122 25.8996 133.122 26.6189V102.522C133.122 102.687 133.122 102.878 133.122 103.084C133.122 104.22 132.201 105.141 131.065 105.141H24.0202C22.8841 105.141 21.963 104.219 21.9629 103.083C21.9629 102.878 21.9629 102.687 21.9629 102.522V26.6189C21.9629 25.8996 22.1904 25.2492 22.5559 24.7781C22.9305 24.2948 23.4494 24 24.0204 24H131.065Z"
                    fill="url(#paint0_linear_6803_68043)" />
                <path opacity="0.3" fill-rule="evenodd" clip-rule="evenodd"
                    d="M21.9639 24H133.123V30.0747H21.9639V24Z" fill="#C6C3B3" />
                <path
                    d="M116.547 28.694C117.445 28.694 118.172 28.0759 118.172 27.3134C118.172 26.5509 117.445 25.9327 116.547 25.9327C115.649 25.9327 114.922 26.5509 114.922 27.3134C114.922 28.0759 115.649 28.694 116.547 28.694Z"
                    fill="#70C38A" />
                <path
                    d="M128.248 28.694C129.146 28.694 129.873 28.0759 129.873 27.3134C129.873 26.5509 129.146 25.9327 128.248 25.9327C127.351 25.9327 126.623 26.5509 126.623 27.3134C126.623 28.0759 127.351 28.694 128.248 28.694Z"
                    fill="url(#paint1_linear_6803_68043)" />
                <path
                    d="M122.398 28.694C123.295 28.694 124.023 28.0759 124.023 27.3134C124.023 26.5509 123.295 25.9327 122.398 25.9327C121.5 25.9327 120.772 26.5509 120.772 27.3134C120.772 28.0759 121.5 28.694 122.398 28.694Z"
                    fill="#C57F12" />
                <path
                    d="M110.544 25.5883H24.737C24.378 25.5883 24.0869 25.8355 24.0869 26.1405V28.3495C24.0869 28.6545 24.378 28.9017 24.737 28.9017H110.544C110.903 28.9017 111.194 28.6545 111.194 28.3495V26.1405C111.194 25.8355 110.903 25.5883 110.544 25.5883Z"
                    fill="white" />
            </g>
        </g>
        <g filter="url(#filter1_d_6803_68043)">
            <g clip-path="url(#clip2_6803_68043)">
                <path
                    d="M34.9355 42.7382C34.9355 41.2937 36.1066 40.1227 37.5511 40.1227H135.888C137.333 40.1227 138.504 41.2937 138.504 42.7382V64.0021C138.504 65.4467 137.333 66.6177 135.888 66.6177H37.5511C36.1066 66.6177 34.9355 65.4466 34.9355 64.0021V42.7382Z"
                    fill="white" />
                <g clip-path="url(#clip3_6803_68043)">
                    <rect x="38.8584" y="44.0459" width="43.8098" height="2.61551" rx="1.30776"
                        fill="#1466A9" />
                    <rect x="38.8584" y="50.5848" width="72.9074" height="2.61551" rx="1.30776"
                        fill="#003A57" />
                    <rect x="38.8584" y="55.8157" width="43.8098" height="2.61551" rx="1.30776"
                        fill="#003A57" />
                </g>
            </g>
        </g>
        <g filter="url(#filter2_d_6803_68043)">
            <g clip-path="url(#clip4_6803_68043)">
                <path
                    d="M6 72.9595C6 71.515 7.17101 70.344 8.61551 70.344H114.544C115.988 70.344 117.159 71.515 117.159 72.9595V86.9373C117.159 88.3818 115.988 89.5528 114.544 89.5528H8.61551C7.17101 89.5528 6 88.3818 6 86.9373V72.9595Z"
                    fill="white" />
                <g clip-path="url(#clip5_6803_68043)">
                    <rect x="9.92383" y="74.2672" width="43.8098" height="2.61551" rx="1.30776"
                        fill="#003A57" />
                    <rect x="9.92383" y="80.806" width="72.9074" height="2.61551" rx="1.30776"
                        fill="#003A57" />
                </g>
            </g>
        </g>
        <g filter="url(#filter3_d_6803_68043)">
            <g filter="url(#filter4_d_6803_68043)">
                <path
                    d="M85.5983 76.5518C85.1859 76.9683 84.7599 77.3568 84.3258 77.7175L91.5574 85.5508C92.0014 86.033 92.9068 85.8737 93.5775 85.1952C94.2482 84.5166 94.4343 83.5781 93.9894 83.096L86.7578 75.2636C86.3985 75.7015 86.0116 76.1354 85.5983 76.5518Z"
                    fill="#8AA4B2" />
            </g>
            <path opacity="0.8"
                d="M85.4541 76.3969C77.9866 83.932 66.053 83.6736 58.7995 75.8198C51.546 67.966 51.7195 55.4908 59.187 47.9557C66.6544 40.4206 78.5881 40.679 85.8416 48.5328C93.0951 56.3866 92.9216 68.8618 85.4541 76.3969Z"
                fill="white" />
            <g filter="url(#filter5_d_6803_68043)">
                <path
                    d="M87.6171 46.7527C95.816 55.6323 95.6177 69.7363 87.1742 78.2529C78.7307 86.7696 65.2407 86.476 57.0417 77.5964C48.8428 68.7168 49.0403 54.6128 57.4837 46.0952C65.9272 37.5776 79.4181 37.8807 87.6171 46.7527ZM85.8522 48.5328C78.5996 40.6783 66.666 40.4183 59.1977 47.9515C51.7294 55.4847 51.5541 67.9608 58.8067 75.8153C66.0592 83.6698 77.9919 83.9308 85.4611 76.3966C92.9303 68.8624 93.1038 56.3921 85.8522 48.5366L85.8522 48.5328Z"
                    fill="#547B8E" />
                <path
                    d="M86.3761 48.049L86.5671 48.2558L86.5671 48.2626C93.8801 56.4058 93.6428 69.1572 85.9678 76.899C78.2089 84.7253 65.8074 84.4484 58.2827 76.2991C50.7742 68.1674 50.9508 55.2566 58.691 47.4492C66.449 39.6238 78.8514 39.8997 86.3761 48.049ZM86.6675 77.7506C94.8391 69.5081 95.0361 55.8389 87.0931 47.2364C79.1659 38.6588 66.1439 38.3725 57.9905 46.5975C49.8188 54.8409 49.6227 68.5102 57.5657 77.1126C65.4924 85.6974 78.5136 85.9751 86.6675 77.7506Z"
                    stroke="#547B8E" stroke-width="1.42666" />
            </g>
            <g filter="url(#filter6_d_6803_68043)">
                <mask id="path-21-inside-1_6803_68043" fill="white">
                    <path
                        d="M86.688 47.6933C94.3891 56.0348 94.203 69.2817 86.2724 77.2819C78.3419 85.282 65.67 85.006 57.968 76.6645C50.2659 68.323 50.453 55.0761 58.3835 47.0759C66.314 39.0758 78.9868 39.3518 86.688 47.6933ZM85.8512 48.5376C78.5986 40.6831 66.6651 40.4232 59.1967 47.9564C51.7284 55.4896 51.5531 67.9656 58.8057 75.8201C66.0583 83.6747 77.9909 83.9356 85.4601 76.4014C92.9294 68.8673 93.1029 56.3931 85.8512 48.5376Z" />
                </mask>
                <path
                    d="M86.688 47.6933C94.3891 56.0348 94.203 69.2817 86.2724 77.2819C78.3419 85.282 65.67 85.006 57.968 76.6645C50.2659 68.323 50.453 55.0761 58.3835 47.0759C66.314 39.0758 78.9868 39.3518 86.688 47.6933ZM85.8512 48.5376C78.5986 40.6831 66.6651 40.4232 59.1967 47.9564C51.7284 55.4896 51.5531 67.9656 58.8057 75.8201C66.0583 83.6747 77.9909 83.9356 85.4601 76.4014C92.9294 68.8673 93.1029 56.3931 85.8512 48.5376Z"
                    fill="#547B8E" />
                <path
                    d="M87.736 46.7258C95.9489 55.6216 95.7601 69.7379 87.2859 78.2865L85.259 76.2772C92.6458 68.8255 92.8294 56.448 85.64 48.6608L87.736 46.7258ZM87.2859 78.2865C78.7761 86.8711 65.1664 86.5631 56.92 77.632L59.0159 75.6969C66.1736 83.4489 77.9078 83.693 85.259 76.2772L87.2859 78.2865ZM56.92 77.632C48.7061 68.7361 48.8959 54.6198 57.37 46.0713L59.397 48.0806C52.0101 55.5323 51.8258 67.9098 59.0159 75.6969L56.92 77.632ZM57.37 46.0713C65.8799 37.4867 79.4904 37.7946 87.736 46.7258L85.64 48.6608C78.4832 40.9089 66.7482 40.6648 59.397 48.0806L57.37 46.0713ZM84.8033 49.5052C78.0951 42.2402 67.0992 42.0122 60.2102 48.9611L58.1833 46.9517C66.2309 38.8341 79.1022 39.126 86.8991 47.5701L84.8033 49.5052ZM60.2102 48.9611C53.2856 55.9458 53.1129 67.5524 59.8536 74.8526L57.7577 76.7877C49.9933 68.3788 50.1713 55.0333 58.1833 46.9517L60.2102 48.9611ZM59.8536 74.8526C66.5619 82.1176 77.5568 82.3465 84.4467 75.3967L86.4735 77.4061C78.425 85.5247 65.5547 85.2317 57.7577 76.7877L59.8536 74.8526ZM84.4467 75.3967C91.3721 68.4112 91.5433 56.8064 84.8032 49.505L86.8992 47.5702C94.6625 55.9798 94.4867 69.3233 86.4735 77.4061L84.4467 75.3967Z"
                    fill="#547B8E" mask="url(#path-21-inside-1_6803_68043)" />
            </g>
            <path
                d="M90.0878 89.3449L90.0878 89.3449L110.813 111.955C110.814 111.956 110.814 111.957 110.815 111.957C111.214 112.395 111.695 112.75 112.232 112.998C112.77 113.247 113.352 113.384 113.945 113.399C114.537 113.414 115.126 113.307 115.675 113.085C116.224 112.863 116.722 112.532 117.142 112.114L90.0878 89.3449ZM90.0878 89.3449L90.085 89.3419C89.2798 88.4584 88.8532 87.2896 88.8808 86.0947C88.9085 84.8998 89.3888 83.7526 90.2354 82.9094L90.2355 82.9093L91.444 81.7058L91.4441 81.7057C92.293 80.8605 93.442 80.3907 94.6415 80.421C95.8401 80.4513 96.964 80.9779 97.7712 81.8625C97.7717 81.863 97.7722 81.8635 97.7727 81.8641L118.498 104.475L118.5 104.478C118.9 104.916 119.209 105.428 119.415 105.985C119.621 106.541 119.719 107.133 119.705 107.726C119.691 108.319 119.566 108.905 119.335 109.451C119.103 109.997 118.77 110.494 118.35 110.912C118.35 110.912 118.35 110.912 118.35 110.912L117.142 112.114L90.0878 89.3449Z"
                fill="#547B8E" stroke="#547B8E" stroke-width="2.85333" />
        </g>
    </g>
    <defs>
        <filter id="filter0_d_6803_68043" x="9.60643" y="17.8218" width="135.872" height="105.854"
            filterUnits="userSpaceOnUse" color-interpolation-filters="sRGB">
            <feFlood flood-opacity="0" result="BackgroundImageFix" />
            <feColorMatrix in="SourceAlpha" type="matrix"
                values="0 0 0 0 0 0 0 0 0 0 0 0 0 0 0 0 0 0 127 0" result="hardAlpha" />
            <feOffset dy="6.17823" />
            <feGaussianBlur stdDeviation="6.17823" />
            <feColorMatrix type="matrix"
                values="0 0 0 0 0.184314 0 0 0 0 0.223529 0 0 0 0 0.254902 0 0 0 0.15 0" />
            <feBlend mode="normal" in2="BackgroundImageFix" result="effect1_dropShadow_6803_68043" />
            <feBlend mode="normal" in="SourceGraphic" in2="effect1_dropShadow_6803_68043"
                result="shape" />
        </filter>
        <filter id="filter1_d_6803_68043" x="25.7813" y="37.5072" width="121.877" height="44.8036"
            filterUnits="userSpaceOnUse" color-interpolation-filters="sRGB">
            <feFlood flood-opacity="0" result="BackgroundImageFix" />
            <feColorMatrix in="SourceAlpha" type="matrix"
                values="0 0 0 0 0 0 0 0 0 0 0 0 0 0 0 0 0 0 127 0" result="hardAlpha" />
            <feOffset dy="6.53878" />
            <feGaussianBlur stdDeviation="4.57715" />
            <feColorMatrix type="matrix"
                values="0 0 0 0 0.184314 0 0 0 0 0.223529 0 0 0 0 0.254902 0 0 0 0.15 0" />
            <feBlend mode="normal" in2="BackgroundImageFix" result="effect1_dropShadow_6803_68043" />
            <feBlend mode="normal" in="SourceGraphic" in2="effect1_dropShadow_6803_68043"
                result="shape" />
        </filter>
        <filter id="filter2_d_6803_68043" x="-3.15429" y="67.7285" width="129.468" height="37.5175"
            filterUnits="userSpaceOnUse" color-interpolation-filters="sRGB">
            <feFlood flood-opacity="0" result="BackgroundImageFix" />
            <feColorMatrix in="SourceAlpha" type="matrix"
                values="0 0 0 0 0 0 0 0 0 0 0 0 0 0 0 0 0 0 127 0" result="hardAlpha" />
            <feOffset dy="6.53878" />
            <feGaussianBlur stdDeviation="4.57715" />
            <feColorMatrix type="matrix"
                values="0 0 0 0 0.184314 0 0 0 0 0.223529 0 0 0 0 0.254902 0 0 0 0.15 0" />
            <feBlend mode="normal" in2="BackgroundImageFix" result="effect1_dropShadow_6803_68043" />
            <feBlend mode="normal" in="SourceGraphic" in2="effect1_dropShadow_6803_68043"
                result="shape" />
        </filter>
        <filter id="filter3_d_6803_68043" x="38.6655" y="33.7208" width="94.8213" height="99.6374"
            filterUnits="userSpaceOnUse" color-interpolation-filters="sRGB">
            <feFlood flood-opacity="0" result="BackgroundImageFix" />
            <feColorMatrix in="SourceAlpha" type="matrix"
                values="0 0 0 0 0 0 0 0 0 0 0 0 0 0 0 0 0 0 127 0" result="hardAlpha" />
            <feOffset dy="6.177" />
            <feGaussianBlur stdDeviation="6.177" />
            <feColorMatrix type="matrix"
                values="0 0 0 0 0.184314 0 0 0 0 0.223529 0 0 0 0 0.254902 0 0 0 0.15 0" />
            <feBlend mode="normal" in2="BackgroundImageFix" result="effect1_dropShadow_6803_68043" />
            <feBlend mode="normal" in="SourceGraphic" in2="effect1_dropShadow_6803_68043"
                result="shape" />
        </filter>
        <filter id="filter4_d_6803_68043" x="72.9129" y="69.557" width="32.7319" height="33.3924"
            filterUnits="userSpaceOnUse" color-interpolation-filters="sRGB">
            <feFlood flood-opacity="0" result="BackgroundImageFix" />
            <feColorMatrix in="SourceAlpha" type="matrix"
                values="0 0 0 0 0 0 0 0 0 0 0 0 0 0 0 0 0 0 127 0" result="hardAlpha" />
            <feOffset dy="5.70665" />
            <feGaussianBlur stdDeviation="5.70665" />
            <feColorMatrix type="matrix"
                values="0 0 0 0 0.184314 0 0 0 0 0.223529 0 0 0 0 0.254902 0 0 0 0.15 0" />
            <feBlend mode="normal" in2="BackgroundImageFix" result="effect1_dropShadow_6803_68043" />
            <feBlend mode="normal" in="SourceGraphic" in2="effect1_dropShadow_6803_68043"
                result="shape" />
        </filter>
        <filter id="filter5_d_6803_68043" x="39.6062" y="34.1912" width="65.4458" height="67.3819"
            filterUnits="userSpaceOnUse" color-interpolation-filters="sRGB">
            <feFlood flood-opacity="0" result="BackgroundImageFix" />
            <feColorMatrix in="SourceAlpha" type="matrix"
                values="0 0 0 0 0 0 0 0 0 0 0 0 0 0 0 0 0 0 127 0" result="hardAlpha" />
            <feOffset dy="5.70665" />
            <feGaussianBlur stdDeviation="5.70665" />
            <feColorMatrix type="matrix"
                values="0 0 0 0 0.184314 0 0 0 0 0.223529 0 0 0 0 0.254902 0 0 0 0.15 0" />
            <feBlend mode="normal" in2="BackgroundImageFix" result="effect1_dropShadow_6803_68043" />
            <feBlend mode="normal" in="SourceGraphic" in2="effect1_dropShadow_6803_68043"
                result="shape" />
        </filter>
        <filter id="filter6_d_6803_68043" x="40.8982" y="35.5453" width="62.8598" height="64.6805"
            filterUnits="userSpaceOnUse" color-interpolation-filters="sRGB">
            <feFlood flood-opacity="0" result="BackgroundImageFix" />
            <feColorMatrix in="SourceAlpha" type="matrix"
                values="0 0 0 0 0 0 0 0 0 0 0 0 0 0 0 0 0 0 127 0" result="hardAlpha" />
            <feOffset dy="5.70665" />
            <feGaussianBlur stdDeviation="5.70665" />
            <feColorMatrix type="matrix"
                values="0 0 0 0 0.184314 0 0 0 0 0.223529 0 0 0 0 0.254902 0 0 0 0.15 0" />
            <feBlend mode="normal" in2="BackgroundImageFix" result="effect1_dropShadow_6803_68043" />
            <feBlend mode="normal" in="SourceGraphic" in2="effect1_dropShadow_6803_68043"
                result="shape" />
        </filter>
        <linearGradient id="paint0_linear_6803_68043" x1="104.581" y1="121.04" x2="27.7807"
            y2="29.9382" gradientUnits="userSpaceOnUse">
            <stop stop-color="white" stop-opacity="0" />
            <stop offset="1" stop-color="white" stop-opacity="0.8" />
        </linearGradient>
        <linearGradient id="paint1_linear_6803_68043" x1="126.623" y1="25.9327" x2="129.918"
            y2="25.9876" gradientUnits="userSpaceOnUse">
            <stop stop-color="#001825" />
            <stop offset="1" stop-color="#003A57" />
        </linearGradient>
        <clipPath id="clip0_6803_68043">
            <rect width="145" height="136" fill="white" />
        </clipPath>
        <clipPath id="clip1_6803_68043">
            <rect x="21.9629" y="24" width="111.159" height="81.1409" rx="6.17915" fill="white" />
        </clipPath>
        <clipPath id="clip2_6803_68043">
            <path
                d="M34.9355 42.7382C34.9355 41.2937 36.1066 40.1227 37.5511 40.1227H135.888C137.333 40.1227 138.504 41.2937 138.504 42.7382V64.0021C138.504 65.4467 137.333 66.6177 135.888 66.6177H37.5511C36.1066 66.6177 34.9355 65.4466 34.9355 64.0021V42.7382Z"
                fill="white" />
        </clipPath>
        <clipPath id="clip3_6803_68043">
            <rect x="34.9355" y="40.1227" width="103.568" height="26.1551" rx="7.84654" fill="white" />
        </clipPath>
        <clipPath id="clip4_6803_68043">
            <path
                d="M6 72.9595C6 71.515 7.17101 70.344 8.61551 70.344H114.544C115.988 70.344 117.159 71.515 117.159 72.9595V86.9373C117.159 88.3818 115.988 89.5528 114.544 89.5528H8.61551C7.17101 89.5528 6 88.3818 6 86.9373V72.9595Z"
                fill="white" />
        </clipPath>
        <clipPath id="clip5_6803_68043">
            <rect x="6" y="70.344" width="111.159" height="19.6163" rx="7.84654" fill="white" />
        </clipPath>
    </defs>
</svg>