<svg width="130" height="141" viewBox="0 0 130 141" fill="none" xmlns="http://www.w3.org/2000/svg">
<path d="M45.3965 8.44257C49.8713 3.87961 56.9312 1.16678 62.7764 3.76528C66.7113 5.49068 69.3796 9.18574 72.8317 11.7375C75.3442 13.598 78.4485 15.0376 79.7671 17.8751C80.9299 20.3749 80.3692 23.2904 80.0889 26.0344C79.8086 28.7784 80.0059 31.9433 82.129 33.7051C83.2399 34.625 84.7246 34.994 85.9653 35.7112C88.4934 37.1611 89.9936 39.9831 90.5335 42.8466C91.0734 45.7102 90.7827 48.6621 90.492 51.5672L78.4433 53.8643L76.4655 50.533L75.7855 55.756L60.4093 57.1436L45.3965 8.44257Z" fill="#001825"/>
<path d="M50.633 7.34041C52.5064 9.86329 53.3965 11.7996 54.5195 16.2899C55.2153 19.0493 52.2124 27.3556 52.2124 24.5098C52.2124 24.5098 49.8774 27.43 47.3986 30.5135C46.2394 31.9618 46.1876 33.815 46.4619 35.3775C46.773 36.9668 47.5433 38.4291 48.6768 39.5823C51.5542 42.6139 52.3511 47.5611 50.3691 51.2779C49.7949 52.1913 49.268 53.1339 48.7907 54.1018C48.5493 54.6794 48.438 55.3034 48.4647 55.9291C48.4951 56.2963 48.3853 56.6613 48.1576 56.9504C47.9299 57.2395 47.6013 57.4311 47.2382 57.4864C38.7219 58.722 30.093 58.9815 21.5182 58.2599C21.2234 58.2361 20.9435 58.1202 20.7178 57.9283C20.4922 57.7364 20.3323 57.4784 20.2607 57.1905C19.5879 54.3043 20.7109 51.1896 22.1444 48.5941C23.7487 45.6611 25.7669 42.8475 26.3414 39.5512C26.8589 36.4365 26.0153 33.1038 27.2573 30.2072C28.8099 26.6617 32.9499 24.985 35.0199 21.7301C36.9812 18.6622 36.8208 14.6391 38.5752 11.4518C40.8315 7.35079 46.3739 5.46124 50.6485 7.33523" fill="#001825"/>
<path d="M34.9328 19.6927C34.9642 19.6523 35.5601 20.1476 36.6527 20.7034C37.2947 21.038 37.9645 21.3203 38.655 21.5474C39.5062 21.813 40.3813 22.0008 41.2689 22.1083C42.1564 22.1996 43.051 22.208 43.9403 22.1336C44.6688 22.0691 45.3897 21.9406 46.0941 21.7495C47.2965 21.4261 47.9866 21.0774 48.0127 21.1229C47.8657 21.2302 47.706 21.3201 47.537 21.3907C47.3478 21.4888 47.1522 21.5749 46.9515 21.6484C46.6884 21.7563 46.4197 21.8508 46.1464 21.9314C45.4366 22.1486 44.7064 22.2975 43.9664 22.3761C43.0592 22.4671 42.1447 22.4671 41.2375 22.3761C40.3331 22.2678 39.443 22.0679 38.5818 21.7798C37.8802 21.5407 37.2043 21.2361 36.5639 20.8702C36.2868 20.7236 36.0411 20.5569 35.8476 20.4204C35.6647 20.3038 35.4901 20.1755 35.3249 20.0364C35.0635 19.8342 34.9171 19.7079 34.9328 19.6927Z" fill="#336179"/>
<path d="M48.2871 25.7969C48.1075 25.8758 47.9199 25.934 47.7277 25.9703C47.3633 26.0649 46.8347 26.191 46.1881 26.3066C44.4536 26.6538 42.671 26.6645 40.9327 26.3381C39.18 25.9911 37.5855 25.0687 36.3907 23.7107C36.0407 23.2923 35.7504 22.8252 35.5285 22.3234C35.4382 22.1453 35.3758 21.9538 35.3438 21.7559C35.6687 22.4114 36.0684 23.0253 36.5344 23.5846C37.7305 24.8716 39.2868 25.7473 40.9891 26.0911C42.6986 26.4056 44.4477 26.4216 46.1624 26.1384C46.8244 26.0439 47.3582 25.9493 47.702 25.8862C47.893 25.8331 48.0893 25.8031 48.2871 25.7969Z" fill="#336179"/>
<path d="M64.1224 18.5889C64.1224 18.5889 64.0496 18.5889 63.9249 18.5062C63.7448 18.4092 63.5712 18.3005 63.4054 18.1808C62.8108 17.723 62.3055 17.161 61.9142 16.5226C61.3458 15.5792 60.8641 14.5868 60.4749 13.5574C60.2359 12.9892 59.9553 12.3951 59.6644 11.8114C59.3388 11.2083 58.956 10.6375 58.5213 10.1067C56.9701 8.23443 54.8707 6.88924 52.5149 6.25824C51.5348 6.02349 50.5344 5.88165 49.5273 5.83464C49.7968 5.78978 50.0703 5.7742 50.3431 5.78815C51.0905 5.80704 51.8339 5.90225 52.5617 6.07227C54.9836 6.66354 57.1475 8.01927 58.7291 9.93624C59.1778 10.4811 59.5728 11.0675 59.9086 11.6874C60.2255 12.2867 60.4749 12.8911 60.7087 13.4644C61.086 14.4858 61.5447 15.4756 62.0804 16.4244C62.4525 17.0536 62.9245 17.6188 63.4781 18.0981C63.8782 18.4339 64.138 18.5682 64.1224 18.5889Z" fill="#336179"/>
<path d="M71.5595 18.5882C71.4651 18.5917 71.3707 18.5813 71.2794 18.5571C71.0139 18.516 70.7531 18.4483 70.5012 18.3552C69.5682 18.0105 68.7231 17.4641 68.0265 16.7552C67.0031 15.7061 66.1397 14.5128 65.4637 13.2133C64.6492 11.7894 63.8606 10.1531 62.6415 8.72913C61.4797 7.39828 59.9458 6.44438 58.2369 5.98992C56.8401 5.6196 55.4021 5.42649 53.9569 5.41516C52.7169 5.38927 51.7157 5.41516 51.0205 5.46694L50.2216 5.49801C50.1286 5.51065 50.0344 5.51065 49.9414 5.49801C50.0304 5.46954 50.123 5.45385 50.2164 5.45141L51.0153 5.36855C51.7053 5.3116 52.7118 5.22875 53.9569 5.23393C55.4226 5.2142 56.8844 5.38832 58.3044 5.75174C60.0675 6.20651 61.6505 7.18524 62.8438 8.55826C64.0993 10.0237 64.8827 11.6651 65.6764 13.0994C66.3342 14.3842 67.1708 15.5697 68.1614 16.6205C68.8292 17.3281 69.6388 17.8874 70.5375 18.262C71.1808 18.5105 71.5647 18.5571 71.5595 18.5882Z" fill="#336179"/>
<path d="M83.6906 52.3242C83.6647 52.3242 83.8253 51.955 83.9963 51.2843C84.2449 50.3277 84.3497 49.3392 84.3073 48.3515C84.258 46.8864 83.8826 45.4508 83.2086 44.1501C82.8068 43.3871 82.3086 42.6793 81.7264 42.0441C81.1252 41.3734 80.4359 40.739 79.7467 40.0734C79.0508 39.4334 78.4077 38.7378 77.824 37.9934C77.2876 37.2958 76.824 36.5448 76.4402 35.7523C75.7946 34.4072 75.381 32.9619 75.2171 31.478C75.103 30.4805 75.1134 29.4726 75.2482 28.4777C75.2778 28.2081 75.3246 27.9406 75.3882 27.677C75.4018 27.582 75.4279 27.4894 75.4659 27.4014C75.4918 27.4014 75.4089 27.7914 75.3519 28.4933C75.2578 29.4784 75.2752 30.4709 75.4037 31.452C75.5976 32.9076 76.0228 34.3226 76.6631 35.6431C77.0459 36.4164 77.5042 37.1497 78.0313 37.8323C78.611 38.5574 79.2451 39.2371 79.9281 39.8654C80.6225 40.531 81.3118 41.1706 81.9233 41.8569C82.5172 42.5102 83.0226 43.2393 83.4263 44.0253C84.1064 45.3614 84.4734 46.8358 84.499 48.3359C84.5239 49.3406 84.3892 50.3429 84.1 51.3051C84.0245 51.5668 83.9293 51.8223 83.815 52.0694C83.7866 52.1602 83.7446 52.2461 83.6906 52.3242Z" fill="#336179"/>
<path d="M68.2649 25.1528C65.7658 24.1517 65.0542 25.8287 64.191 25.7445C64.118 25.6836 64.0634 25.6643 64.0367 25.5628C63.9936 25.3962 64.0361 25.241 64.1154 25.0951C64.3998 24.5744 65.7188 24.2084 66.2444 24.1129C66.5142 24.0826 66.7821 24.0692 67.0531 24.0845C67.8529 24.1296 69.431 24.7262 69.9343 25.3745C69.9553 25.4013 69.9737 25.4297 69.994 25.4571C70.0816 25.5763 70.1749 25.6961 70.2409 25.8315C70.3171 25.9868 70.3387 26.076 70.2911 26.2418C69.8302 26.4101 69.238 25.724 68.8743 25.4759C68.6845 25.3461 68.4706 25.2508 68.2649 25.1528Z" fill="#001825"/>
<path d="M56.3536 25.1771C55.9806 25.3233 55.6106 25.4898 55.2763 25.7237C54.8925 25.9921 54.3393 26.7502 53.907 26.7903C53.7525 26.6957 53.6985 26.6354 53.6133 26.4666C53.6192 26.3478 53.6382 26.2822 53.7053 26.1863C54.4764 25.0863 55.9333 24.4117 57.1677 24.2603C57.6781 24.2243 58.1866 24.2854 58.6865 24.3988C59.2591 24.5288 60.199 24.7727 60.5318 25.3273C60.5377 25.4342 60.5663 25.5111 60.5072 25.6035C60.3857 25.7936 60.2706 25.7915 60.088 25.7257C58.4004 25.1182 58.2302 24.7197 56.3536 25.1771Z" fill="#001825"/>
<path d="M41.3764 27.5282C41.07 27.4759 40.7073 27.512 40.4609 27.2945C40.504 27.0887 40.574 27.0569 40.7162 26.9189C40.9248 26.9189 41.1321 26.9543 41.3306 27.0239C41.9316 27.2387 42.3921 27.9026 42.674 28.4889C43.1453 29.4687 43.8068 32.1442 43.5107 33.1587C43.3588 33.225 43.3541 33.2341 43.1986 33.1837C42.961 32.5637 43.0811 31.6902 42.9391 31.0131C42.8794 30.7286 42.8108 30.5831 42.5828 30.4252C42.448 30.4211 42.3498 30.4295 42.2294 30.4956C41.8176 30.7217 41.6161 31.0335 41.4707 31.4948L41.446 31.5759C41.3944 32.792 42.0331 33.3364 42.0217 33.6502L41.8724 33.7165C41.7232 33.7101 41.6259 33.6914 41.5057 33.5873C41.1914 33.315 41.0525 32.8 41.0015 32.3865C40.9237 31.7562 41.0346 31.043 41.4173 30.5432C41.7929 30.0525 42.1951 29.9725 42.747 29.9248C42.4871 28.9789 42.1203 28.133 41.3764 27.5282Z" fill="#001825"/>
<path d="M57.4799 32.4156C57.3601 32.4159 57.2462 32.4128 57.1329 32.3656C56.8034 32.2284 56.5393 31.9522 56.4011 31.5999C56.2023 31.0937 56.1971 30.4827 56.3858 29.9727C56.5591 29.5045 56.8104 29.312 57.2209 29.1084C57.6361 29.2148 57.9824 29.4382 58.2121 29.8389C58.4461 30.2471 58.491 30.7654 58.3765 31.2247C58.2336 31.7972 57.9448 32.1299 57.4799 32.4156Z" fill="#001825"/>
<path d="M67.0494 32.2564C66.9408 32.27 66.8253 32.2863 66.7161 32.2759C66.4419 32.2495 66.162 32.006 66.0166 31.7646C65.7532 31.3276 65.7107 30.7004 65.8262 30.204C65.9474 29.6835 66.1848 29.3895 66.5981 29.1126C66.7187 29.1033 66.8482 29.0917 66.9681 29.1111C67.21 29.1504 67.4563 29.371 67.5972 29.5774C67.8714 29.978 67.9431 30.5744 67.8524 31.0542C67.7432 31.631 67.4975 31.9468 67.0494 32.2564Z" fill="#001825"/>
<path d="M63.4839 37.9319C63.2803 36.6579 62.591 34.7304 62.2188 33.4133C62.0938 32.971 61.9345 32.5014 61.8726 32.0442C61.8437 31.8307 61.878 31.7898 61.9995 31.6211L62.197 31.7111C62.4619 32.1534 63.8826 37.4484 63.9079 37.9605C63.8343 38.0924 63.7759 38.1908 63.654 38.2758C63.0877 38.672 62.1479 38.4246 61.531 38.2902L61.3613 38.143L61.3703 37.9899C61.6984 37.7496 62.9888 37.979 63.4839 37.9319Z" fill="#001825"/>
<path d="M43.7282 36.3392L43.4761 36.2759C43.2245 35.9599 43.3636 34.7321 43.3726 34.3066L43.6395 34.3673C43.9141 34.7608 43.7553 35.8587 43.7282 36.3392Z" fill="#001825"/>
<path d="M65.2288 41.0084C64.7369 41.3274 64.2449 41.5956 63.7035 41.8034C61.6477 42.5986 59.3837 42.4658 57.4188 41.435C56.7618 41.0912 55.3509 40.1794 55.1538 39.394C55.124 39.2751 55.2251 39.1688 55.2824 39.0703C55.7329 39.3215 56.0278 39.8164 56.409 40.1695C56.7223 40.4598 57.1028 40.7087 57.4678 40.9151C58.749 41.6396 61.0784 42.1837 62.4761 41.6896C62.8482 41.5581 63.2262 41.4392 63.5899 41.2823C64.0488 41.0844 64.582 40.7271 65.0606 40.6301C65.2009 40.6017 65.2206 40.6271 65.3304 40.7096C65.3463 40.8766 65.3126 40.8757 65.2288 41.0084Z" fill="#001825"/>
<path fill-rule="evenodd" clip-rule="evenodd" d="M69.5236 15.0723C70.4612 16.5203 71.1093 18.3355 71.3626 20.0823C71.4534 20.7053 71.4686 21.35 71.5695 21.9677C71.5644 22.0008 71.5587 22.0338 71.5537 22.067C71.4838 22.5344 71.5327 23.0961 71.5339 23.5721C71.5359 24.8015 71.5707 26.0411 71.5199 27.2692C71.3067 32.4428 70.4161 37.3149 68.553 42.0913C67.9188 43.7209 67.1683 45.1536 66.2229 46.6227C64.5522 49.2202 61.9605 51.6281 58.9289 51.8535C58.8625 51.8583 58.796 51.863 58.7295 51.8672C57.7335 51.6507 56.7987 51.3635 55.8582 50.9434C55.4944 50.7808 54.5732 49.9823 54.2339 50.1323L54.1684 50.2709C54.3557 50.7652 55.6374 51.3032 56.0855 51.5083C56.8144 51.8419 57.598 52.1056 58.3897 52.1758C58.4321 54.0525 58.3988 55.9369 58.3952 57.8144C58.3891 58.6898 58.4463 59.6306 58.3101 60.4948L58.3198 60.5202C58.323 60.5287 58.3261 60.5372 58.3286 60.546C58.4774 61.0784 58.1778 64.6158 57.9067 65.0703C57.8058 65.2393 57.6818 65.3122 57.502 65.3442C54.7491 65.8345 51.8882 64.6994 49.6396 63.0033C48.7619 62.3413 47.9331 61.5242 47.1313 60.7561C46.3064 59.9658 45.5055 58.9848 44.5812 58.3393C44.3476 58.1761 44.1497 57.9339 43.9017 57.8058C43.7752 57.7406 43.618 57.6382 43.486 57.6931L43.5275 58.9817C43.5108 58.8236 43.4948 58.6755 43.4498 58.5227C43.4404 58.4909 43.4289 58.4599 43.4185 58.4284C43.2164 57.4788 43.3662 50.214 43.474 49.1256C43.3833 47.7773 43.4968 46.3213 43.52 44.9659L43.668 36.4742C42.2158 36.1836 40.9491 35.2943 40.0258 34.0519C38.8616 32.4853 38.1296 30.144 38.3353 28.1252C38.4542 26.9586 38.9736 26.2249 39.7885 25.5126C40.562 25.1204 41.2846 24.9714 42.1114 25.3198C44.0905 26.1538 44.4393 29.3268 45.2791 29.7137C45.5296 29.8291 45.789 29.6994 46.0258 29.6073C46.5961 29.4183 46.7744 28.3528 47.0905 27.8783C47.1995 27.7146 47.3283 27.6107 47.5176 27.5883C48.3401 27.4912 49.1588 27.2954 49.9024 26.8931C51.4326 26.0654 54.3919 23.7603 54.4573 21.5868C54.4879 20.5648 53.9977 19.3565 54.3654 18.3526C54.5964 17.722 56.4644 18.6236 56.9932 18.3487C57.0105 18.3397 57.0255 18.3264 57.0417 18.3154C61.4274 18.3996 65.7976 17.7919 69.5236 15.0723ZM53.6472 62.6507C53.7756 62.7153 53.9055 62.7774 54.0367 62.8373C53.8451 62.7498 53.6566 62.6574 53.4709 62.5602L53.6472 62.6507ZM48.2899 58.5594C48.3688 58.6412 48.4478 58.7233 48.5268 58.8056C48.3643 58.6363 48.202 58.468 48.0394 58.3007L48.2899 58.5594ZM45.1558 55.5281C45.1812 55.5515 45.2068 55.5747 45.2323 55.5979C45.1461 55.5196 45.061 55.4401 44.9763 55.3604L45.1558 55.5281ZM43.4872 53.7423C43.4941 53.8132 43.5019 53.8813 43.5109 53.9463C43.5139 53.968 43.5171 53.9893 43.5203 54.0103C43.5327 54.09 43.5471 54.1646 43.5635 54.2334C43.5298 54.092 43.505 53.9264 43.4872 53.7423ZM43.4908 49.3333C43.5201 49.8128 43.5027 50.456 43.4819 51.1315C43.4743 51.3772 43.4663 51.6271 43.4599 51.875C43.4552 52.0609 43.4513 52.2457 43.4492 52.4267C43.4485 52.487 43.4479 52.5469 43.4477 52.6062C43.4469 52.7844 43.4483 52.9578 43.4525 53.1239C43.4214 51.9062 43.5494 50.2923 43.4908 49.3333ZM55.2818 39.0705C55.2245 39.169 55.1234 39.2753 55.1531 39.3942C55.3502 40.1796 56.761 41.0915 57.4181 41.4353C59.3829 42.4661 61.6471 42.5989 63.7029 41.8037C64.2443 41.5959 64.7363 41.3276 65.2282 41.0086C65.312 40.876 65.3456 40.8768 65.3297 40.71C65.2199 40.6274 65.2002 40.602 65.06 40.6303C64.5813 40.7274 64.0481 41.0847 63.5892 41.2825C63.2256 41.4395 62.8475 41.5583 62.4754 41.6898C61.0777 42.1839 58.7484 41.6398 57.4672 40.9153C57.1022 40.7089 56.7217 40.46 56.4083 40.1697C56.0271 39.8166 55.7322 39.3217 55.2818 39.0705ZM61.9993 31.6209C61.8778 31.7896 61.8436 31.8305 61.8725 32.044C61.9344 32.5012 62.0937 32.9708 62.2188 33.4132C62.5909 34.7302 63.2802 36.6578 63.4838 37.9317C62.9887 37.9789 61.6985 37.7495 61.3703 37.9897L61.3612 38.1428L61.5309 38.2899C62.1478 38.4243 63.0876 38.6718 63.6539 38.2755C63.7758 38.1906 63.8342 38.0922 63.9078 37.9603C63.8824 37.4483 62.4619 32.1532 62.1969 31.7109L61.9993 31.6209ZM43.3729 34.3062C43.3639 34.7316 43.2248 35.9595 43.4764 36.2755L43.7285 36.3388C43.7556 35.8582 43.9144 34.7604 43.6398 34.367L43.3729 34.3062ZM40.7152 26.9192C40.573 27.0571 40.503 27.0889 40.4599 27.2947C40.7063 27.5122 41.069 27.4761 41.3754 27.5284C42.1193 28.1332 42.4861 28.9791 42.7461 29.9251C42.1941 29.9727 41.7919 30.0528 41.4163 30.5435C41.0337 31.0432 40.9227 31.7564 41.0005 32.3866C41.0515 32.8001 41.1904 33.3152 41.5047 33.5874C41.6249 33.6915 41.7223 33.7103 41.8714 33.7167L42.0207 33.6504C42.0321 33.3366 41.3933 32.7922 41.4449 31.5761L41.4697 31.495C41.6152 31.0337 41.8165 30.7218 42.2284 30.4958C42.3488 30.4297 42.447 30.4213 42.5818 30.4254C42.8098 30.5833 42.8785 30.7288 42.9381 31.0133C43.0802 31.6904 42.96 32.5639 43.1976 33.1839C43.3531 33.2343 43.3578 33.2251 43.5098 33.1589C43.8059 32.1443 43.1443 29.4689 42.6731 28.4891C42.3911 27.9029 41.9306 27.239 41.3295 27.0242C41.131 26.9546 40.9238 26.9192 40.7152 26.9192ZM57.2197 29.1082C56.8092 29.3118 56.558 29.5044 56.3847 29.9725C56.196 30.4825 56.2012 31.0935 56.4 31.5997C56.5382 31.952 56.8022 32.2283 57.1317 32.3655C57.245 32.4127 57.3589 32.4158 57.4787 32.4154C57.9436 32.1298 58.2325 31.797 58.3753 31.2246C58.4899 30.7653 58.4449 30.2469 58.2109 29.8387C57.9812 29.4381 57.6349 29.2146 57.2197 29.1082ZM66.9669 29.1106C66.8469 29.0912 66.7174 29.1028 66.5968 29.1121C66.1835 29.389 65.9461 29.683 65.8249 30.2036C65.7094 30.6999 65.7519 31.327 66.0153 31.7641C66.1607 32.0054 66.4406 32.2489 66.7148 32.2753C66.824 32.2858 66.9395 32.2696 67.0481 32.2559C67.4962 31.9463 67.7419 31.6306 67.8511 31.0538C67.9418 30.5739 67.87 29.9776 67.5958 29.5769C67.4549 29.3706 67.2087 29.1499 66.9669 29.1106ZM58.6869 24.3984C58.187 24.285 57.6784 24.2238 57.168 24.2598C55.9337 24.4112 54.4768 25.0859 53.7057 26.1859C53.6386 26.2817 53.6196 26.3473 53.6136 26.4662C53.6988 26.6349 53.7528 26.6952 53.9073 26.7898C54.3396 26.7497 54.8928 25.9917 55.2766 25.7232C55.611 25.4893 55.981 25.3228 56.354 25.1766C58.2305 24.7193 58.4007 25.1177 60.0883 25.7252C60.271 25.791 60.3861 25.7931 60.5075 25.603C60.5665 25.5106 60.5381 25.4337 60.5322 25.3268C60.1994 24.7722 59.2595 24.5284 58.6869 24.3984ZM67.0519 24.0845C66.7809 24.0692 66.513 24.0825 66.2432 24.1128C65.7176 24.2083 64.3985 24.5743 64.1141 25.095C64.0348 25.2408 63.9923 25.3961 64.0354 25.5627C64.0621 25.6642 64.1168 25.6836 64.1898 25.7445C65.053 25.8286 65.7646 24.1518 68.2637 25.1528C68.4693 25.2508 68.6832 25.346 68.873 25.4758C69.2367 25.7239 69.829 26.41 70.2898 26.2417C70.3374 26.0759 70.3158 25.9868 70.2396 25.8315C70.1736 25.6961 70.0804 25.5763 69.9928 25.4571C69.9725 25.4297 69.954 25.4012 69.933 25.3744C69.4296 24.7262 67.8517 24.1296 67.0519 24.0845Z" fill="#E6EBEE"/>
<path fill-rule="evenodd" clip-rule="evenodd" d="M69.5236 15.0723C70.4612 16.5203 71.1093 18.3355 71.3626 20.0823C71.4534 20.7053 71.4686 21.35 71.5695 21.9677C71.5644 22.0008 71.5587 22.0338 71.5537 22.067C71.4838 22.5344 71.5327 23.0961 71.5339 23.5721C71.5359 24.8015 71.5707 26.0411 71.5199 27.2692C71.3067 32.4428 70.4161 37.3149 68.553 42.0913C67.9188 43.7209 67.1683 45.1536 66.2229 46.6227C64.5522 49.2202 61.9605 51.6281 58.9289 51.8535C58.8625 51.8583 58.796 51.863 58.7295 51.8672C57.7335 51.6507 56.7987 51.3635 55.8582 50.9434C55.4944 50.7808 54.5732 49.9823 54.2339 50.1323L54.1684 50.2709C54.3557 50.7652 55.6374 51.3032 56.0855 51.5083C56.8144 51.8419 57.598 52.1056 58.3897 52.1758C58.4321 54.0525 58.3988 55.9369 58.3952 57.8144C58.3891 58.6898 58.4463 59.6306 58.3101 60.4948L58.3198 60.5202C58.323 60.5287 58.3261 60.5372 58.3286 60.546C58.4774 61.0784 58.1778 64.6158 57.9067 65.0703C57.8058 65.2393 57.6818 65.3122 57.502 65.3442C54.7491 65.8345 51.8882 64.6994 49.6396 63.0033C48.7619 62.3413 47.9331 61.5242 47.1313 60.7561C46.3064 59.9658 45.5055 58.9848 44.5812 58.3393C44.3476 58.1761 44.1497 57.9339 43.9017 57.8058C43.7752 57.7406 43.618 57.6382 43.486 57.6931L43.5275 58.9817C43.5108 58.8236 43.4948 58.6755 43.4498 58.5227C43.4404 58.4909 43.4289 58.4599 43.4185 58.4284C43.2164 57.4788 43.3662 50.214 43.474 49.1256C43.3833 47.7773 43.4968 46.3213 43.52 44.9659L43.668 36.4742C42.2158 36.1836 40.9491 35.2943 40.0258 34.0519C38.8616 32.4853 38.1296 30.144 38.3353 28.1252C38.4542 26.9586 38.9736 26.2249 39.7885 25.5126C40.562 25.1204 41.2846 24.9714 42.1114 25.3198C44.0905 26.1538 44.4393 29.3268 45.2791 29.7137C45.5296 29.8291 45.789 29.6994 46.0258 29.6073C46.5961 29.4183 46.7744 28.3528 47.0905 27.8783C47.1995 27.7146 47.3283 27.6107 47.5176 27.5883C48.3401 27.4912 49.1588 27.2954 49.9024 26.8931C51.4326 26.0654 54.3919 23.7603 54.4573 21.5868C54.4879 20.5648 53.9977 19.3565 54.3654 18.3526C54.5964 17.722 56.4644 18.6236 56.9932 18.3487C57.0105 18.3397 57.0255 18.3264 57.0417 18.3154C61.4274 18.3996 65.7976 17.7919 69.5236 15.0723ZM53.6472 62.6507C53.7756 62.7153 53.9055 62.7774 54.0367 62.8373C53.8451 62.7498 53.6566 62.6574 53.4709 62.5602L53.6472 62.6507ZM48.2899 58.5594C48.3688 58.6412 48.4478 58.7233 48.5268 58.8056C48.3643 58.6363 48.202 58.468 48.0394 58.3007L48.2899 58.5594ZM45.1558 55.5281C45.1812 55.5515 45.2068 55.5747 45.2323 55.5979C45.1461 55.5196 45.061 55.4401 44.9763 55.3604L45.1558 55.5281ZM43.4872 53.7423C43.4941 53.8132 43.5019 53.8813 43.5109 53.9463C43.5139 53.968 43.5171 53.9893 43.5203 54.0103C43.5327 54.09 43.5471 54.1646 43.5635 54.2334C43.5298 54.092 43.505 53.9264 43.4872 53.7423ZM43.4908 49.3333C43.5201 49.8128 43.5027 50.456 43.4819 51.1315C43.4743 51.3772 43.4663 51.6271 43.4599 51.875C43.4552 52.0609 43.4513 52.2457 43.4492 52.4267C43.4485 52.487 43.4479 52.5469 43.4477 52.6062C43.4469 52.7844 43.4483 52.9578 43.4525 53.1239C43.4214 51.9062 43.5494 50.2923 43.4908 49.3333ZM55.2818 39.0705C55.2245 39.169 55.1234 39.2753 55.1531 39.3942C55.3502 40.1796 56.761 41.0915 57.4181 41.4353C59.3829 42.4661 61.6471 42.5989 63.7029 41.8037C64.2443 41.5959 64.7363 41.3276 65.2282 41.0086C65.312 40.876 65.3456 40.8768 65.3297 40.71C65.2199 40.6274 65.2002 40.602 65.06 40.6303C64.5813 40.7274 64.0481 41.0847 63.5892 41.2825C63.2256 41.4395 62.8475 41.5583 62.4754 41.6898C61.0777 42.1839 58.7484 41.6398 57.4672 40.9153C57.1022 40.7089 56.7217 40.46 56.4083 40.1697C56.0271 39.8166 55.7322 39.3217 55.2818 39.0705ZM61.9993 31.6209C61.8778 31.7896 61.8436 31.8305 61.8725 32.044C61.9344 32.5012 62.0937 32.9708 62.2188 33.4132C62.5909 34.7302 63.2802 36.6578 63.4838 37.9317C62.9887 37.9789 61.6985 37.7495 61.3703 37.9897L61.3612 38.1428L61.5309 38.2899C62.1478 38.4243 63.0876 38.6718 63.6539 38.2755C63.7758 38.1906 63.8342 38.0922 63.9078 37.9603C63.8824 37.4483 62.4619 32.1532 62.1969 31.7109L61.9993 31.6209ZM43.3729 34.3062C43.3639 34.7316 43.2248 35.9595 43.4764 36.2755L43.7285 36.3388C43.7556 35.8582 43.9144 34.7604 43.6398 34.367L43.3729 34.3062ZM40.7152 26.9192C40.573 27.0571 40.503 27.0889 40.4599 27.2947C40.7063 27.5122 41.069 27.4761 41.3754 27.5284C42.1193 28.1332 42.4861 28.9791 42.7461 29.9251C42.1941 29.9727 41.7919 30.0528 41.4163 30.5435C41.0337 31.0432 40.9227 31.7564 41.0005 32.3866C41.0515 32.8001 41.1904 33.3152 41.5047 33.5874C41.6249 33.6915 41.7223 33.7103 41.8714 33.7167L42.0207 33.6504C42.0321 33.3366 41.3933 32.7922 41.4449 31.5761L41.4697 31.495C41.6152 31.0337 41.8165 30.7218 42.2284 30.4958C42.3488 30.4297 42.447 30.4213 42.5818 30.4254C42.8098 30.5833 42.8785 30.7288 42.9381 31.0133C43.0802 31.6904 42.96 32.5639 43.1976 33.1839C43.3531 33.2343 43.3578 33.2251 43.5098 33.1589C43.8059 32.1443 43.1443 29.4689 42.6731 28.4891C42.3911 27.9029 41.9306 27.239 41.3295 27.0242C41.131 26.9546 40.9238 26.9192 40.7152 26.9192ZM57.2197 29.1082C56.8092 29.3118 56.558 29.5044 56.3847 29.9725C56.196 30.4825 56.2012 31.0935 56.4 31.5997C56.5382 31.952 56.8022 32.2283 57.1317 32.3655C57.245 32.4127 57.3589 32.4158 57.4787 32.4154C57.9436 32.1298 58.2325 31.797 58.3753 31.2246C58.4899 30.7653 58.4449 30.2469 58.2109 29.8387C57.9812 29.4381 57.6349 29.2146 57.2197 29.1082ZM66.9669 29.1106C66.8469 29.0912 66.7174 29.1028 66.5968 29.1121C66.1835 29.389 65.9461 29.683 65.8249 30.2036C65.7094 30.6999 65.7519 31.327 66.0153 31.7641C66.1607 32.0054 66.4406 32.2489 66.7148 32.2753C66.824 32.2858 66.9395 32.2696 67.0481 32.2559C67.4962 31.9463 67.7419 31.6306 67.8511 31.0538C67.9418 30.5739 67.87 29.9776 67.5958 29.5769C67.4549 29.3706 67.2087 29.1499 66.9669 29.1106ZM58.6869 24.3984C58.187 24.285 57.6784 24.2238 57.168 24.2598C55.9337 24.4112 54.4768 25.0859 53.7057 26.1859C53.6386 26.2817 53.6196 26.3473 53.6136 26.4662C53.6988 26.6349 53.7528 26.6952 53.9073 26.7898C54.3396 26.7497 54.8928 25.9917 55.2766 25.7232C55.611 25.4893 55.981 25.3228 56.354 25.1766C58.2305 24.7193 58.4007 25.1177 60.0883 25.7252C60.271 25.791 60.3861 25.7931 60.5075 25.603C60.5665 25.5106 60.5381 25.4337 60.5322 25.3268C60.1994 24.7722 59.2595 24.5284 58.6869 24.3984ZM67.0519 24.0845C66.7809 24.0692 66.513 24.0825 66.2432 24.1128C65.7176 24.2083 64.3985 24.5743 64.1141 25.095C64.0348 25.2408 63.9923 25.3961 64.0354 25.5627C64.0621 25.6642 64.1168 25.6836 64.1898 25.7445C65.053 25.8286 65.7646 24.1518 68.2637 25.1528C68.4693 25.2508 68.6832 25.346 68.873 25.4758C69.2367 25.7239 69.829 26.41 70.2898 26.2417C70.3374 26.0759 70.3158 25.9868 70.2396 25.8315C70.1736 25.6961 70.0804 25.5763 69.9928 25.4571C69.9725 25.4297 69.954 25.4012 69.933 25.3744C69.4296 24.7262 67.8517 24.1296 67.0519 24.0845Z" fill="url(#paint0_linear_2216_23125)" fill-opacity="0.8" style="mix-blend-mode:color-burn"/>
<path fill-rule="evenodd" clip-rule="evenodd" d="M69.5236 15.0723C70.4612 16.5203 71.1093 18.3355 71.3626 20.0823C71.4534 20.7053 71.4686 21.35 71.5695 21.9677C71.5644 22.0008 71.5587 22.0338 71.5537 22.067C71.4838 22.5344 71.5327 23.0961 71.5339 23.5721C71.5359 24.8015 71.5707 26.0411 71.5199 27.2692C71.3067 32.4428 70.4161 37.3149 68.553 42.0913C67.9188 43.7209 67.1683 45.1536 66.2229 46.6227C64.5522 49.2202 61.9605 51.6281 58.9289 51.8535C58.8625 51.8583 58.796 51.863 58.7295 51.8672C57.7335 51.6507 56.7987 51.3635 55.8582 50.9434C55.4944 50.7808 54.5732 49.9823 54.2339 50.1323L54.1684 50.2709C54.3557 50.7652 55.6374 51.3032 56.0855 51.5083C56.8144 51.8419 57.598 52.1056 58.3897 52.1758C58.4321 54.0525 58.3988 55.9369 58.3952 57.8144C58.3891 58.6898 58.4463 59.6306 58.3101 60.4948L58.3198 60.5202C58.323 60.5287 58.3261 60.5372 58.3286 60.546C58.4774 61.0784 58.1778 64.6158 57.9067 65.0703C57.8058 65.2393 57.6818 65.3122 57.502 65.3442C54.7491 65.8345 51.8882 64.6994 49.6396 63.0033C48.7619 62.3413 47.9331 61.5242 47.1313 60.7561C46.3064 59.9658 45.5055 58.9848 44.5812 58.3393C44.3476 58.1761 44.1497 57.9339 43.9017 57.8058C43.7752 57.7406 43.618 57.6382 43.486 57.6931L43.5275 58.9817C43.5108 58.8236 43.4948 58.6755 43.4498 58.5227C43.4404 58.4909 43.4289 58.4599 43.4185 58.4284C43.2164 57.4788 43.3662 50.214 43.474 49.1256C43.3833 47.7773 43.4968 46.3213 43.52 44.9659L43.668 36.4742C42.2158 36.1836 40.9491 35.2943 40.0258 34.0519C38.8616 32.4853 38.1296 30.144 38.3353 28.1252C38.4542 26.9586 38.9736 26.2249 39.7885 25.5126C40.562 25.1204 41.2846 24.9714 42.1114 25.3198C44.0905 26.1538 44.4393 29.3268 45.2791 29.7137C45.5296 29.8291 45.789 29.6994 46.0258 29.6073C46.5961 29.4183 46.7744 28.3528 47.0905 27.8783C47.1995 27.7146 47.3283 27.6107 47.5176 27.5883C48.3401 27.4912 49.1588 27.2954 49.9024 26.8931C51.4326 26.0654 54.3919 23.7603 54.4573 21.5868C54.4879 20.5648 53.9977 19.3565 54.3654 18.3526C54.5964 17.722 56.4644 18.6236 56.9932 18.3487C57.0105 18.3397 57.0255 18.3264 57.0417 18.3154C61.4274 18.3996 65.7976 17.7919 69.5236 15.0723ZM53.6472 62.6507C53.7756 62.7153 53.9055 62.7774 54.0367 62.8373C53.8451 62.7498 53.6566 62.6574 53.4709 62.5602L53.6472 62.6507ZM48.2899 58.5594C48.3688 58.6412 48.4478 58.7233 48.5268 58.8056C48.3643 58.6363 48.202 58.468 48.0394 58.3007L48.2899 58.5594ZM45.1558 55.5281C45.1812 55.5515 45.2068 55.5747 45.2323 55.5979C45.1461 55.5196 45.061 55.4401 44.9763 55.3604L45.1558 55.5281ZM43.4872 53.7423C43.4941 53.8132 43.5019 53.8813 43.5109 53.9463C43.5139 53.968 43.5171 53.9893 43.5203 54.0103C43.5327 54.09 43.5471 54.1646 43.5635 54.2334C43.5298 54.092 43.505 53.9264 43.4872 53.7423ZM43.4908 49.3333C43.5201 49.8128 43.5027 50.456 43.4819 51.1315C43.4743 51.3772 43.4663 51.6271 43.4599 51.875C43.4552 52.0609 43.4513 52.2457 43.4492 52.4267C43.4485 52.487 43.4479 52.5469 43.4477 52.6062C43.4469 52.7844 43.4483 52.9578 43.4525 53.1239C43.4214 51.9062 43.5494 50.2923 43.4908 49.3333ZM55.2818 39.0705C55.2245 39.169 55.1234 39.2753 55.1531 39.3942C55.3502 40.1796 56.761 41.0915 57.4181 41.4353C59.3829 42.4661 61.6471 42.5989 63.7029 41.8037C64.2443 41.5959 64.7363 41.3276 65.2282 41.0086C65.312 40.876 65.3456 40.8768 65.3297 40.71C65.2199 40.6274 65.2002 40.602 65.06 40.6303C64.5813 40.7274 64.0481 41.0847 63.5892 41.2825C63.2256 41.4395 62.8475 41.5583 62.4754 41.6898C61.0777 42.1839 58.7484 41.6398 57.4672 40.9153C57.1022 40.7089 56.7217 40.46 56.4083 40.1697C56.0271 39.8166 55.7322 39.3217 55.2818 39.0705ZM61.9993 31.6209C61.8778 31.7896 61.8436 31.8305 61.8725 32.044C61.9344 32.5012 62.0937 32.9708 62.2188 33.4132C62.5909 34.7302 63.2802 36.6578 63.4838 37.9317C62.9887 37.9789 61.6985 37.7495 61.3703 37.9897L61.3612 38.1428L61.5309 38.2899C62.1478 38.4243 63.0876 38.6718 63.6539 38.2755C63.7758 38.1906 63.8342 38.0922 63.9078 37.9603C63.8824 37.4483 62.4619 32.1532 62.1969 31.7109L61.9993 31.6209ZM43.3729 34.3062C43.3639 34.7316 43.2248 35.9595 43.4764 36.2755L43.7285 36.3388C43.7556 35.8582 43.9144 34.7604 43.6398 34.367L43.3729 34.3062ZM40.7152 26.9192C40.573 27.0571 40.503 27.0889 40.4599 27.2947C40.7063 27.5122 41.069 27.4761 41.3754 27.5284C42.1193 28.1332 42.4861 28.9791 42.7461 29.9251C42.1941 29.9727 41.7919 30.0528 41.4163 30.5435C41.0337 31.0432 40.9227 31.7564 41.0005 32.3866C41.0515 32.8001 41.1904 33.3152 41.5047 33.5874C41.6249 33.6915 41.7223 33.7103 41.8714 33.7167L42.0207 33.6504C42.0321 33.3366 41.3933 32.7922 41.4449 31.5761L41.4697 31.495C41.6152 31.0337 41.8165 30.7218 42.2284 30.4958C42.3488 30.4297 42.447 30.4213 42.5818 30.4254C42.8098 30.5833 42.8785 30.7288 42.9381 31.0133C43.0802 31.6904 42.96 32.5639 43.1976 33.1839C43.3531 33.2343 43.3578 33.2251 43.5098 33.1589C43.8059 32.1443 43.1443 29.4689 42.6731 28.4891C42.3911 27.9029 41.9306 27.239 41.3295 27.0242C41.131 26.9546 40.9238 26.9192 40.7152 26.9192ZM57.2197 29.1082C56.8092 29.3118 56.558 29.5044 56.3847 29.9725C56.196 30.4825 56.2012 31.0935 56.4 31.5997C56.5382 31.952 56.8022 32.2283 57.1317 32.3655C57.245 32.4127 57.3589 32.4158 57.4787 32.4154C57.9436 32.1298 58.2325 31.797 58.3753 31.2246C58.4899 30.7653 58.4449 30.2469 58.2109 29.8387C57.9812 29.4381 57.6349 29.2146 57.2197 29.1082ZM66.9669 29.1106C66.8469 29.0912 66.7174 29.1028 66.5968 29.1121C66.1835 29.389 65.9461 29.683 65.8249 30.2036C65.7094 30.6999 65.7519 31.327 66.0153 31.7641C66.1607 32.0054 66.4406 32.2489 66.7148 32.2753C66.824 32.2858 66.9395 32.2696 67.0481 32.2559C67.4962 31.9463 67.7419 31.6306 67.8511 31.0538C67.9418 30.5739 67.87 29.9776 67.5958 29.5769C67.4549 29.3706 67.2087 29.1499 66.9669 29.1106ZM58.6869 24.3984C58.187 24.285 57.6784 24.2238 57.168 24.2598C55.9337 24.4112 54.4768 25.0859 53.7057 26.1859C53.6386 26.2817 53.6196 26.3473 53.6136 26.4662C53.6988 26.6349 53.7528 26.6952 53.9073 26.7898C54.3396 26.7497 54.8928 25.9917 55.2766 25.7232C55.611 25.4893 55.981 25.3228 56.354 25.1766C58.2305 24.7193 58.4007 25.1177 60.0883 25.7252C60.271 25.791 60.3861 25.7931 60.5075 25.603C60.5665 25.5106 60.5381 25.4337 60.5322 25.3268C60.1994 24.7722 59.2595 24.5284 58.6869 24.3984ZM67.0519 24.0845C66.7809 24.0692 66.513 24.0825 66.2432 24.1128C65.7176 24.2083 64.3985 24.5743 64.1141 25.095C64.0348 25.2408 63.9923 25.3961 64.0354 25.5627C64.0621 25.6642 64.1168 25.6836 64.1898 25.7445C65.053 25.8286 65.7646 24.1518 68.2637 25.1528C68.4693 25.2508 68.6832 25.346 68.873 25.4758C69.2367 25.7239 69.829 26.41 70.2898 26.2417C70.3374 26.0759 70.3158 25.9868 70.2396 25.8315C70.1736 25.6961 70.0804 25.5763 69.9928 25.4571C69.9725 25.4297 69.954 25.4012 69.933 25.3744C69.4296 24.7262 67.8517 24.1296 67.0519 24.0845Z" fill="#2F3941" fill-opacity="0.15" style="mix-blend-mode:multiply"/>
<path d="M58.3892 52.1764C57.5975 52.1062 56.814 51.8426 56.085 51.509C55.6369 51.3039 54.3552 50.7658 54.168 50.2715L54.2335 50.1329C54.5728 49.9829 55.4939 50.7815 55.8577 50.9441C56.7982 51.3643 57.7331 51.6514 58.7291 51.8678C58.6401 52.0816 58.5505 52.0484 58.3892 52.1764Z" fill="#E6EBEE"/>
<path d="M58.3892 52.1764C57.5975 52.1062 56.814 51.8426 56.085 51.509C55.6369 51.3039 54.3552 50.7658 54.168 50.2715L54.2335 50.1329C54.5728 49.9829 55.4939 50.7815 55.8577 50.9441C56.7982 51.3643 57.7331 51.6514 58.7291 51.8678C58.6401 52.0816 58.5505 52.0484 58.3892 52.1764Z" fill="url(#paint1_linear_2216_23125)" fill-opacity="0.8" style="mix-blend-mode:color-burn"/>
<path d="M58.3892 52.1764C57.5975 52.1062 56.814 51.8426 56.085 51.509C55.6369 51.3039 54.3552 50.7658 54.168 50.2715L54.2335 50.1329C54.5728 49.9829 55.4939 50.7815 55.8577 50.9441C56.7982 51.3643 57.7331 51.6514 58.7291 51.8678C58.6401 52.0816 58.5505 52.0484 58.3892 52.1764Z" fill="#2F3941" fill-opacity="0.15" style="mix-blend-mode:multiply"/>
<path d="M64.0516 61.5803C64.35 60.9405 64.5353 60.204 64.9016 59.6084C64.941 59.8765 64.2491 61.5367 64.1043 61.9162C63.9882 61.8696 63.5895 60.7221 63.4765 60.4923C63.4171 60.3398 63.3705 60.1905 63.3262 60.0326L63.3823 60.0248C63.6473 60.5208 63.8441 61.0541 64.0516 61.5803Z" fill="#A9BAC4"/>
<path d="M39.3755 63.1241C39.2269 62.293 38.7142 61.3432 38.4004 60.5615C38.7897 60.7453 39.2572 62.38 39.4267 62.8312C39.6649 62.1894 39.9071 61.3277 40.2745 60.771L40.3586 60.8232L40.3181 60.9022L40.3268 60.9533C40.0284 61.6815 39.7375 62.4306 39.3755 63.1241Z" fill="#A9BAC4"/>
<path d="M32.7598 61.2352C33.2688 60.9926 33.8072 60.7574 34.3547 60.6436L34.4058 60.7234C34.0209 61.3624 33.7285 62.1293 33.45 62.8286C33.2372 62.357 33.0989 61.5906 32.7598 61.2352Z" fill="#458CBD"/>
<path d="M33.45 62.8289C33.7285 62.1295 34.0209 61.3626 34.4058 60.7236C34.4916 61.1132 33.6116 62.7207 33.4259 63.2112C33.1997 62.6118 32.8213 61.8748 32.7598 61.2354C33.0989 61.5908 33.2372 62.3572 33.45 62.8289Z" fill="#A9BAC4"/>
<path d="M64.6833 64.6047C64.4592 65.2083 64.1755 65.8872 64.0352 66.5177C64.0047 66.6554 63.9711 66.7904 63.9362 66.9268L63.8778 66.9184C63.6912 65.9472 63.1221 65.1193 62.9453 64.1406C63.244 64.4103 63.7153 65.9744 63.9121 66.4411C64.1222 65.7632 64.3608 64.9774 64.6846 64.3522L64.7398 64.3881L64.6833 64.6047Z" fill="#A9BAC4"/>
<path d="M70.098 67.6715C70.0561 67.4435 69.8949 66.8919 69.9869 66.7046C70.0345 66.7918 70.0523 66.8199 70.1304 66.8821C70.3665 66.157 70.6103 65.4349 70.8623 64.7162L70.9181 64.6924L70.8661 64.923C70.722 65.5656 70.4459 66.142 70.2859 66.7714C70.2059 67.0833 70.2942 67.4852 70.1735 67.7602L70.098 67.6715Z" fill="#A9BAC4"/>
<path d="M33.5735 68.3859C33.8749 67.3545 34.3148 66.3325 34.7929 65.3828C34.8749 65.7004 33.695 68.2204 33.535 68.9252C33.3517 67.9076 32.8744 66.9269 32.4944 65.982C32.4293 65.8265 32.3956 65.6813 32.3594 65.516C32.8607 66.0774 33.2842 67.607 33.5735 68.3859Z" fill="#BAC5CC"/>
<path d="M39.5281 68.9183C39.7612 68.0494 40.1798 66.9716 40.6533 66.2207C40.6849 66.5491 39.6739 68.8359 39.5089 69.3369C39.277 68.5122 38.9122 67.7256 38.5783 66.9448L38.5156 66.7705L38.5611 66.7256C38.9061 67.0744 39.319 68.4035 39.5281 68.9183Z" fill="#A9BAC4"/>
<path d="M57.7748 69.6502C58.1952 69.1283 58.4019 67.7316 58.7715 67.3936C58.6873 68.0429 58.3422 68.7307 58.1328 69.3521C58.0371 69.6061 57.9389 69.8526 57.8214 70.0956L57.7727 70.1066C57.752 69.9421 57.753 69.814 57.7748 69.6502Z" fill="#BAC5CC"/>
<path d="M45.38 69.9592C45.1105 69.1083 44.7386 68.2961 44.4844 67.4404C44.8534 67.6637 45.2189 69.078 45.3831 69.5379C45.6403 68.9196 45.4478 68.2683 45.7549 67.6606C45.7326 67.836 45.7023 68.0086 45.7265 68.1856C45.7424 68.3016 45.774 68.2907 45.8569 68.3489L46.0541 67.836C46.0988 67.7414 46.1384 67.6879 46.2026 67.6095C46.2865 67.913 45.5184 69.5695 45.38 69.9592Z" fill="#A9BAC4"/>
<path d="M57.7314 69.58C57.5871 69.1593 57.051 68.0571 57.1264 67.6611C57.3578 67.8359 57.7222 69.0313 57.7456 69.37C57.7534 69.4829 57.7482 69.485 57.7314 69.58Z" fill="#A9BAC4"/>
<path d="M64.0415 73.0243C64.4224 72.0074 64.6452 70.9155 65.0864 69.9248L65.1257 69.9647C65.1778 70.1809 64.1425 73.0367 64.0733 73.7335C63.7851 72.625 63.3753 71.5703 62.9485 70.5183C62.8776 70.3833 62.8414 70.2986 62.8301 70.1431C63.1982 70.4715 63.8295 72.4515 64.0415 73.0243Z" fill="#A9BAC4"/>
<path d="M70.0508 72.3343C70.0641 71.9136 70.4488 70.3397 70.7211 70.0286C70.7363 70.0107 70.7554 69.9976 70.7725 69.9824C70.5687 70.726 70.3339 71.4627 70.1676 72.2165C70.1454 72.3191 70.1593 72.2799 70.099 72.368L70.0508 72.3343Z" fill="#A9BAC4"/>
<path d="M69.8231 72.0518L69.7514 72.0704C69.3883 71.4721 69.0798 70.6693 68.8418 69.998C69.2957 70.3554 69.6219 71.49 69.8231 72.0518Z" fill="#A9BAC4"/>
<path d="M26.7346 75.6172C26.1419 74.0172 25.7451 72.2616 25.3164 70.5996C25.3587 70.623 25.4595 70.6884 25.4825 70.7311C25.7658 71.2488 26.4313 74.2974 26.728 75.1869C27.219 73.6957 27.765 72.1446 28.3637 70.7029L28.4276 70.7201L28.3972 70.9301C27.8705 72.4929 27.1532 74.0186 26.7346 75.6172Z" fill="#BAC5CC"/>
<path d="M33.6031 75.8782C33.3577 74.6403 32.1938 71.715 32.2585 70.7607C32.3992 70.906 33.4857 74.8778 33.575 75.3901C33.8235 74.5591 34.1422 73.7542 34.4316 72.9391C34.6656 72.2802 34.8684 71.5738 35.1738 70.9501L35.2512 70.937L35.2158 71.2096C34.7615 72.4606 33.7606 74.6424 33.6031 75.8782Z" fill="#BAC5CC"/>
<path d="M39.5334 74.561C39.8455 73.7679 40.1411 72.9535 40.5365 72.2051L40.5807 72.254C40.5829 72.6209 39.7057 74.517 39.5128 74.9528C39.3733 74.1886 38.9657 73.3865 38.636 72.7001L38.5234 72.4261L38.5699 72.3861C39.0045 72.9018 39.2837 73.9056 39.5334 74.561Z" fill="#A9BAC4"/>
<path d="M70.2588 74.6415C70.2594 73.8753 69.9903 72.9926 69.8398 72.2422L70.0512 72.3338C69.9896 73.1957 70.5533 73.8415 70.3153 74.7014L70.2588 74.6415Z" fill="#A9BAC4"/>
<path d="M57.8038 76.5054C57.589 75.3873 57.2576 74.3085 56.8906 73.2393C57.2776 73.5401 57.6357 75.2827 57.7891 75.8438C58.0322 75.0403 58.2965 73.9208 58.7792 73.2585C58.8103 73.4348 58.7405 73.5525 58.6737 73.7088L58.6418 73.7811C58.3095 74.674 57.972 75.5553 57.8038 76.5054Z" fill="#A9BAC4"/>
<path d="M44.4862 73.7989L44.4355 73.6495L44.5161 73.6378C44.8514 74.126 45.0605 74.6657 45.2932 75.2165C45.4853 75.1201 45.3588 75.0155 45.4804 74.8365C45.4976 74.939 45.5179 75.0244 45.5472 75.1222C45.8834 74.5983 46.0922 73.9318 46.3885 73.3721C46.466 73.7301 45.5715 75.4286 45.4013 75.8857C45.1353 75.1676 44.8221 74.4805 44.4862 73.7989Z" fill="#A9BAC4"/>
<path d="M51.5989 75.4608C51.9105 74.8811 52.1544 74.2587 52.4117 73.6494L52.4347 73.6742C52.5005 73.9179 51.7294 75.5895 51.6366 76.0212C51.4277 75.4649 51.2247 74.91 51.0443 74.342L50.9375 74.0184L50.9798 73.9675C51.2203 74.4467 51.4047 74.9575 51.5989 75.4608Z" fill="#A9BAC4"/>
<path d="M51.743 74.7038L51.6941 74.6956C51.6859 74.6742 51.6755 74.6529 51.6696 74.6302C51.6049 74.3802 51.7155 74.142 51.8276 73.9307C51.9315 74.1386 51.7943 74.4718 51.743 74.7038Z" fill="#A9BAC4"/>
<path d="M71.7986 79.4573C71.7352 78.7861 71.4756 74.5561 71.5657 74.1209C71.678 73.9729 71.6755 73.9784 71.8507 73.9502C71.9542 74.0149 71.9821 73.9991 72.0157 74.1306C72.2277 74.9588 72.2893 78.4005 72.3439 79.4546L71.7986 79.4573Z" fill="#001825"/>
<path d="M62.9452 77.1645C62.8389 76.8306 62.6733 76.5015 62.5469 76.1731C62.7518 76.3645 62.8991 76.6784 63.0469 76.9242C63.1644 77.2416 63.3036 77.5438 63.4439 77.8495C63.5195 78.0175 63.5284 78.1311 63.6915 78.2089C63.8914 78.0299 63.9536 77.572 64.0247 77.3042C64.2006 76.8368 64.3637 76.3913 64.6335 75.9775C64.4132 76.5972 64.0527 77.4323 63.9137 78.054C63.8375 78.3941 63.9016 78.8836 63.793 79.1721L63.6921 79.0819C63.6204 78.6268 63.5182 78.235 63.2772 77.8495C63.2152 77.6244 63.0785 77.3462 62.9452 77.1645Z" fill="#A9BAC4"/>
<path d="M70.082 78.677L70.0547 78.5951L70.1975 78.6323C70.4933 78.3755 70.7085 76.5765 70.8761 76.5352C70.9262 76.8415 70.5136 78.5558 70.3346 78.7899C70.3232 78.8051 70.308 78.8168 70.294 78.8298L70.082 78.677Z" fill="#A9BAC4"/>
<path d="M63.4434 77.8493C63.616 77.7226 63.6021 77.6138 63.6833 77.4293C63.7493 77.2799 63.7861 77.2131 63.9385 77.167L64.0242 77.304C63.9531 77.5718 63.8909 78.0297 63.6909 78.2087C63.5278 78.1309 63.5189 78.0173 63.4434 77.8493Z" fill="#4CA4DD"/>
<path d="M39.5359 80.0109C39.8054 79.2254 40.0901 78.4529 40.4584 77.7148L40.4906 77.7486C40.531 78.0061 39.6442 80.0667 39.4948 80.5018C39.3138 79.7314 38.9614 78.963 38.6504 78.2436C38.5897 78.1107 38.5722 78.0247 38.5664 77.8773L38.6221 77.8808C38.9878 78.5575 39.1688 79.3341 39.5359 80.0109Z" fill="#A9BAC4"/>
<path d="M57.83 81.4238C58.1832 80.3539 58.5042 79.1959 58.9989 78.1914C59.0794 78.7642 58.026 80.8985 57.9009 81.6241C57.8752 81.7735 57.9123 81.7006 57.8093 81.8142C57.474 81.2152 57.35 80.3677 57.0525 79.7136L56.9984 79.5959C56.9331 79.4437 56.9066 79.4355 56.9306 79.2613C57.235 79.5436 57.6628 80.955 57.83 81.4238Z" fill="#A9BAC4"/>
<path d="M45.8603 79.6806C46.0069 79.2992 46.154 78.725 46.3905 78.4131L46.4513 78.451C46.2587 79.3143 45.7033 80.5233 45.3627 81.3556C45.2419 80.8868 44.3391 78.736 44.3497 78.546C44.8179 79.1959 45.1091 80.1618 45.3931 80.9329C45.537 80.5295 45.6647 80.0985 45.8402 79.7116L45.8603 79.6806Z" fill="#A9BAC4"/>
<path d="M70.0814 78.6768L70.2934 78.8296C70.282 79.083 70.2375 79.2275 70.3632 79.4458L70.6101 79.5725C70.5759 79.5917 70.5422 79.6117 70.5079 79.631C69.7278 80.0633 68.841 80.1935 68.3256 81.0699C67.43 82.5921 66.8669 84.473 66.241 86.1426C65.2584 88.7905 64.2618 91.4315 63.2498 94.0656L56.538 111.569C55.7512 113.64 54.7988 115.673 54.086 117.774C53.7837 118.513 53.4796 119.256 53.2415 120.023C48.7558 119.961 44.2677 120.061 39.7816 119.998C40.5424 119.762 41.6005 119.893 42.4038 119.893C42.4088 119.87 42.4165 119.847 42.4189 119.824C42.4715 119.309 41.8839 118.006 41.5443 117.671C41.2519 117.384 39.0408 117.522 38.5332 117.511C39.3491 117.432 40.1804 117.521 41 117.45L41.0763 117.442C41.7536 117.393 42.4594 117.435 43.1401 117.435H47.2534L50.4756 117.399C51.1801 117.389 51.9648 117.315 52.6561 117.468L56.3775 108.022C56.8228 106.872 57.4683 105.689 57.7431 104.482L57.8041 104.362C58.711 101.856 59.72 99.3868 60.6738 96.9C61.0758 95.8522 61.5391 94.7954 61.8655 93.7172C62.3168 92.7485 62.6434 91.6656 63.0108 90.6556C63.7413 88.6487 64.4599 86.6369 65.1664 84.6204C65.7434 83.326 66.203 81.3715 67.157 80.369C68.0609 79.4189 69.0258 79.4244 70.188 79.4602C70.1258 79.1959 70.096 78.9494 70.0814 78.6768Z" fill="url(#paint2_linear_2216_23125)"/>
<path d="M45.8416 79.7123C45.7447 79.7907 45.8012 79.7549 45.6677 79.8107C45.6543 79.7907 45.6387 79.7722 45.6276 79.7508C45.5112 79.525 45.5592 79.2179 45.6009 78.9756C45.6967 79.032 45.7288 79.5222 45.8617 79.6813L45.8416 79.7123Z" fill="#4CA4DD"/>
<path d="M51.7539 81.4617C51.8009 80.7601 52.1152 79.8073 52.4577 79.2207C52.5399 79.5691 51.9161 81.05 51.7539 81.4617Z" fill="#A9BAC4"/>
<path d="M35.1691 79.6083C34.7793 80.7615 34.3322 81.8892 33.9341 83.0383C33.8029 83.417 33.7423 83.8404 33.5999 84.2053H33.5998C33.4431 83.9622 32.165 79.7185 32.127 79.3047C32.4188 79.5849 33.3201 83.0266 33.5619 83.735C33.9372 82.7457 34.7083 80.0193 35.1943 79.3419L35.2341 79.4066L35.1691 79.6083Z" fill="#BAC5CC"/>
<path d="M51.721 82.1504C51.5436 81.9253 50.7516 79.579 50.7698 79.2939C50.7826 79.3063 50.7967 79.3167 50.8082 79.3297C51.0678 79.6341 51.7511 81.7029 51.721 82.1504Z" fill="#A9BAC4"/>
<path d="M82.1857 79.3748C82.3425 79.4788 82.5158 79.4526 82.6935 79.454L110.039 79.4912L119.575 79.4251C120.85 79.4189 122.142 79.3404 123.415 79.3865C123.878 79.6716 124.307 80.0158 124.473 80.5969C124.599 81.0368 124.516 81.3604 124.382 81.7762C123.867 83.3797 123.169 84.9467 122.537 86.4999L119.27 94.5062L115.816 103.228C115.373 104.342 114.979 105.501 114.487 106.59C113.526 109.191 112.436 111.752 111.393 114.317C110.889 115.556 110.199 117.567 109.534 118.629C109.168 119.214 108.602 119.699 108.033 120.033C109.47 120.031 110.976 119.925 112.404 120.026C112.27 120.106 58.9784 120.027 53.2422 120.024C53.4802 119.257 53.7843 118.514 54.0867 117.775C54.7995 115.673 55.7518 113.641 56.5386 111.569L63.2505 94.0662C64.2625 91.4321 65.2591 88.7911 66.2417 86.1432C66.8676 84.4737 67.4306 82.5928 68.3263 81.0705C68.8417 80.1941 69.7284 80.064 70.5086 79.6316C70.5429 79.6123 70.5765 79.5924 70.6108 79.5731C70.9808 79.4402 71.4131 79.4691 71.7991 79.4581L72.3443 79.4554C74.5787 79.3975 76.8131 79.4079 79.0481 79.4003C80.0885 79.3969 81.1479 79.4471 82.1857 79.3748ZM91.2572 90.7016C88.4464 90.9991 85.8959 93.1554 84.1598 95.4604C82.3901 97.8095 80.6947 101.507 80.9879 104.618C81.1212 106.026 81.6017 107.405 82.6351 108.32C83.4832 109.07 84.5172 109.321 85.5925 109.255C88.9466 108.574 91.5206 106.42 93.4293 103.395C94.9591 100.972 96.1055 97.4473 95.5837 94.4958C95.3616 93.2394 94.8201 92.0848 93.8254 91.3522C93.0205 90.7602 92.208 90.6424 91.2572 90.7016Z" fill="url(#paint3_linear_2216_23125)"/>
<path d="M26.5711 84.6203C26.2959 82.8489 25.6637 81.1594 25.2441 79.4258C25.6131 79.7466 26.414 83.3005 26.6088 84.0634C27.0669 82.7318 27.7924 80.7642 28.3843 79.5476L28.4632 79.5394L28.407 79.7425C27.7896 81.3542 27.089 82.9701 26.5711 84.6203Z" fill="#A9BAC4"/>
<path d="M62.5918 81.8703L62.6832 81.8496C63.2185 82.4451 63.3639 83.409 63.8755 83.9956L63.9587 83.9199L63.9638 83.7615C64.1707 83.2155 64.3523 82.4534 64.6779 81.9921L64.7033 82.1333C64.4303 82.8513 64.1802 83.5667 63.9562 84.304C64.0323 84.5188 64.1079 84.7336 64.1815 84.9491C64.2526 85.1584 64.3789 85.4435 64.2894 85.6534C64.0361 85.4813 63.906 84.5932 63.7613 84.2324C63.4382 83.4269 63.0397 82.6035 62.5918 81.8703Z" fill="#A9BAC4"/>
<path d="M39.5343 85.1282C39.727 84.4129 40.0584 83.6494 40.4243 83.0215L40.461 83.0662C40.4263 83.5186 39.7037 84.9348 39.4918 85.4539C39.2637 84.7771 39.0005 84.1148 38.7035 83.4697C38.6469 83.3616 38.6415 83.3148 38.654 83.1908L38.7302 83.217C39.0662 83.805 39.2655 84.499 39.5343 85.1282Z" fill="#A9BAC4"/>
<path d="M31.8442 105.41C32.5528 101.447 33.3942 97.5167 34.1812 93.5725C34.461 92.1707 35.814 84.8522 36.3067 83.993C36.3886 83.8505 36.3399 83.8877 36.4697 83.8525C36.5192 84.0556 36.4877 84.2429 36.4502 84.446C36.1686 85.9703 35.761 87.4967 35.4349 89.0141C34.8612 91.7211 34.3163 94.4351 33.8002 97.156L33.4604 98.9054L33.2944 99.7805C33.2358 100.003 33.1854 100.212 33.1614 100.443C33.0563 100.963 32.91 101.506 32.8557 102.034C32.5983 102.837 32.3047 105.617 31.9746 106.04C31.7485 106.062 31.8043 105.854 31.6243 105.794C31.199 105.655 30.4517 105.767 29.9909 105.771C29.2027 105.776 22.9453 105.922 22.6677 105.776C22.6251 105.606 22.6366 105.641 22.7026 105.5C23.421 105.345 24.5384 105.447 25.3095 105.44L31.8442 105.41Z" fill="#001825"/>
<path d="M42.5645 85.7791C42.6952 85.262 42.8278 84.3491 43.2776 84.0551C43.5394 83.8837 43.9714 83.8561 44.2758 83.8403C46.9998 83.6999 49.7656 83.788 52.4941 83.7956C54.656 83.8011 56.8267 83.7219 58.9862 83.7487C59.1674 83.7508 59.4055 83.7542 59.5748 83.8307C59.7384 83.9036 59.8167 84.0062 59.8773 84.1845C60.0268 84.6238 59.7107 85.3584 59.5634 85.7797C53.8971 85.7453 48.2308 85.7453 42.5645 85.7791Z" fill="#F0F5F7"/>
<path d="M42.5634 85.7791C48.2297 85.7454 53.8961 85.7454 59.5623 85.7798C59.2616 86.7533 59.0215 87.7509 58.7667 88.7396C53.1109 88.6652 47.4479 88.7588 41.791 88.7478C42.0925 87.7826 42.3481 86.7712 42.5634 85.7791Z" fill="#001825"/>
<path d="M20.0784 92.564C20.449 91.4157 21.1255 89.0487 21.6748 88.1055C21.7376 88.5654 20.2742 92.3313 20.059 92.9214C19.7002 91.7757 19.4124 90.606 19.0508 89.4618C19.0405 89.3289 19.0407 89.3027 19.077 89.185C19.3745 89.7062 19.8623 91.8198 20.0784 92.564Z" fill="#A9BAC4"/>
<path d="M33.7322 91.3892C33.4686 91.1641 32.8442 88.6587 32.7637 88.1768C33.1148 88.5224 33.6132 90.7826 33.7322 91.3892Z" fill="#A9BAC4"/>
<path d="M26.6691 93.2978C26.3319 91.6138 25.7517 89.9552 25.3203 88.2939C25.3715 88.3297 25.4321 88.3538 25.4739 88.402C25.5768 88.5205 26.5726 92.3966 26.7035 92.8771C27.165 91.5697 27.7996 89.5449 28.4356 88.3931L28.5038 88.4234L28.463 88.5528C27.892 90.1466 27.2372 91.7033 26.6691 93.2978Z" fill="#A9BAC4"/>
<path d="M38.8727 96.1146C38.8577 96.0237 38.852 96.0085 38.8516 95.9046C38.8471 94.8884 39.7152 94.9861 40.2573 94.4836L40.1949 94.3046C40.4162 93.7779 40.4473 93.1803 40.5908 92.6267C40.9195 91.3593 41.3064 89.9513 41.7918 88.7472C47.4487 88.7582 53.1116 88.6646 58.7675 88.7389C58.4272 90.2687 58.0352 91.7827 57.6581 93.3021C57.4632 94.087 57.3131 94.9579 57.0301 95.7084C57.0103 95.886 56.9863 96.0512 56.998 96.2302C56.5682 96.7087 54.7251 96.5827 54.1104 96.5924C53.4116 96.5986 52.7128 96.6013 52.014 96.5999C51.9671 96.3941 51.9073 96.2006 51.8205 96.0099C51.3094 94.8856 49.0101 91.941 47.9142 91.592C47.6636 91.5114 47.4852 91.5389 47.2372 91.6092C45.9902 91.961 44.2866 92.8574 43.0562 93.4047C41.9121 93.9142 40.5185 94.3961 39.454 95.0495C39.0723 95.2843 38.9922 95.6918 38.8727 96.1146Z" fill="#F0F5F7"/>
<path d="M39.5329 90.9207C39.704 90.2281 39.9558 89.5273 40.2056 88.8643L40.2791 88.9758C40.022 89.7379 39.7733 90.5035 39.533 91.2719L39.4747 91.2306C39.354 90.7314 39.1869 90.2433 39.0332 89.7552C39.0062 89.6939 38.9979 89.678 38.974 89.6051C38.9371 89.4928 38.8656 89.3187 38.9112 89.2106C39.1602 89.762 39.3416 90.3438 39.5329 90.9207Z" fill="#A9BAC4"/>
<path d="M85.591 109.254C84.5157 109.32 83.4816 109.07 82.6336 108.319C81.6002 107.404 81.1197 106.026 80.9864 104.617C80.6931 101.507 82.3886 97.809 84.1583 95.4599C85.8944 93.1549 88.4449 90.9986 91.2556 90.7012C92.2065 90.642 93.019 90.7597 93.8239 91.3518C94.8185 92.0843 95.36 93.2389 95.5822 94.4954C96.104 97.4469 94.9576 100.972 93.4278 103.395C91.519 106.419 88.9451 108.574 85.591 109.254ZM92.6794 96.3109C92.0256 96.8039 91.4752 97.502 90.8843 98.0824L87.1614 101.704C86.8751 101.052 86.2771 99.3347 85.6633 99.1137C85.5675 99.0793 85.478 99.0717 85.3802 99.113C85.2101 99.1846 85.0571 99.3987 85.0286 99.5929C84.9676 100.005 85.3517 100.52 85.5351 100.858C85.8766 101.571 86.2149 102.765 86.7881 103.27C87.0928 103.302 87.3778 103.055 87.6083 102.853C88.3433 102.206 93.2196 97.482 93.2957 96.8755C93.3154 96.7185 93.2634 96.576 93.1631 96.461C93.0209 96.2971 92.8679 96.3233 92.6794 96.3109Z" fill="url(#paint4_linear_2216_23125)"/>
<path d="M38.6816 96.2012C38.3614 95.9121 37.8729 94.3492 37.6621 93.8652L37.7997 93.932C38.2147 94.4532 38.4601 95.5417 38.6816 96.2012Z" fill="#71B5E2"/>
<path d="M57.6626 97.0905C57.6426 96.5742 58.2559 95.1222 58.5539 94.7188C58.5949 95.085 57.8554 96.683 57.6626 97.0905Z" fill="#A9BAC4"/>
<path d="M48.102 95.2734C49.1193 96.0129 50.3595 97.4277 50.8205 98.6697C50.8446 99.217 50.98 100.032 50.7976 100.544L50.7676 100.657C50.628 100.908 50.504 101.178 50.297 101.371L50.2283 101.269C50.1513 100.492 50.5934 99.8635 50.3721 99.0174C50.0828 97.911 48.8416 96.4129 47.9289 95.8407C47.0901 96.1788 41.9795 98.0377 41.5197 97.9853C41.4236 97.8456 41.4057 97.8477 41.4207 97.6769C41.5206 97.5385 41.632 97.4717 41.7797 97.407C42.0239 97.2996 42.2887 97.2487 42.5402 97.1647C43.194 96.9471 43.8421 96.6917 44.4946 96.4659C45.6703 96.059 46.8954 95.5378 48.102 95.2734Z" fill="#043E69"/>
<path d="M57.0293 95.709C57.2504 96.2336 57.5368 97.0494 57.6591 97.603L57.6104 97.7131C57.3078 97.2973 57.2919 96.6701 56.9972 96.2308C56.9855 96.0518 57.0095 95.8866 57.0293 95.709Z" fill="#BAC5CC"/>
<path d="M87.1627 101.703L90.8856 98.082C91.4766 97.5016 92.0269 96.8035 92.6807 96.3105C92.8693 96.3229 93.0222 96.2968 93.1644 96.4606C93.2647 96.5756 93.3168 96.7181 93.2971 96.8751C93.2209 97.4816 88.3447 102.205 87.6096 102.852C87.3792 103.055 87.0942 103.301 86.7895 103.27C86.2163 102.765 85.878 101.571 85.5365 100.857C85.353 100.519 84.969 100.004 85.0299 99.5925C85.0585 99.3984 85.2115 99.1842 85.3816 99.1126C85.4793 99.0713 85.5688 99.0789 85.6647 99.1133C86.2785 99.3343 86.8765 101.052 87.1627 101.703Z" fill="#105287"/>
<path d="M33.1361 98.2603C32.883 98.0255 32.8209 97.4672 32.7539 97.125C32.7805 97.1463 32.811 97.1629 32.8338 97.189C33.0265 97.4093 33.1103 97.9656 33.1361 98.2603Z" fill="#BAC5CC"/>
<path d="M26.7246 102.424C26.1878 100.718 25.7485 98.9633 25.2441 97.2441C25.3484 97.313 25.3799 97.3385 25.4381 97.4576C25.8228 98.2438 26.4312 100.928 26.7067 101.924C27.0102 101.064 27.3342 100.212 27.635 99.3509C27.8629 98.6975 28.0464 98.0517 28.3288 97.4204L28.4072 97.4087L28.3742 97.5815C27.8671 99.05 27.0349 100.941 26.7246 102.424Z" fill="#A9BAC4"/>
<path d="M20.1425 102.433C19.5744 100.956 19.0718 98.8887 18.707 97.3135C18.8146 97.3871 18.8461 97.4243 18.8962 97.5565C19.0701 98.0157 19.1745 98.5507 19.3057 99.0285C19.5923 100.062 19.8704 101.098 20.1402 102.137C20.3007 101.613 21.6122 97.7038 21.7596 97.6026L21.7733 97.794C21.1835 99.3094 20.6893 100.896 20.1425 102.433Z" fill="#A9BAC4"/>
<path d="M50.2052 105.883C50.3727 105.682 50.5266 105.461 50.6177 105.207C50.8918 104.441 50.6561 103.498 50.3773 102.769C50.0564 101.929 49.5427 100.963 48.7404 100.592C47.8201 100.167 44.1402 101.016 43.0233 101.23C42.5993 101.311 41.9865 101.516 41.5775 101.335C41.4956 101.189 41.481 101.223 41.5156 101.041C41.9217 100.711 47.2007 99.8915 48.0061 99.9005C48.9999 99.9108 49.5721 100.551 50.2268 101.269L50.2955 101.372C50.9208 102.501 51.4923 103.882 51.2081 105.228C51.1382 105.559 51.0143 105.844 50.8632 106.139C50.6584 106.177 50.4513 106.201 50.2605 106.294L50.2052 105.883Z" fill="url(#paint5_linear_2216_23125)"/>
<path fill-rule="evenodd" clip-rule="evenodd" d="M43.4863 57.6934C43.6183 57.6385 43.7756 57.7407 43.902 57.8059C44.1499 57.934 44.3479 58.1762 44.5815 58.3394C45.5058 58.9849 46.3067 59.966 47.1316 60.7563C47.9334 61.5244 48.7623 62.3416 49.6399 63.0035C51.8885 64.6996 54.7495 65.8347 57.5023 65.3445C57.6821 65.3125 57.8062 65.2395 57.907 65.0706C58.1781 64.6158 58.4776 61.0788 58.3289 60.5461C58.324 60.5286 58.3166 60.5119 58.3104 60.4949C58.4466 59.6308 58.3893 58.6899 58.3954 57.8145L59.1547 57.939L59.8082 58.0597C59.5976 58.8844 59.922 59.8307 60.0017 60.6696C60.046 61.1356 60.0381 61.6214 59.9847 62.1015L59.9943 62.0114C60.0389 61.5607 60.0432 61.1064 60.0017 60.6696C59.922 59.8307 59.5976 58.8844 59.8082 58.0597L63.8764 58.8992C67.5371 59.6307 70.2572 60.2948 72.9962 63.3121L73.0361 63.3207C75.5536 67.0781 77.6959 70.9853 79.8395 75.0018L81.3884 77.9133C81.6486 78.3973 81.9521 78.8759 82.1851 79.3743C81.1472 79.4466 80.0878 79.3963 79.0474 79.3997C76.8124 79.4073 74.5779 79.397 72.3436 79.4549C72.289 78.4007 72.2274 74.9592 72.0154 74.1309C71.9818 73.9995 71.9538 74.0152 71.8504 73.9506C71.6752 73.9788 71.6777 73.9733 71.5654 74.1212C71.4753 74.5567 71.7348 78.7858 71.7983 79.4576C71.4124 79.4686 70.9801 79.4397 70.61 79.5725L70.3632 79.4459C70.2376 79.2277 70.2819 79.083 70.2934 78.8297C70.3073 78.8167 70.3225 78.8049 70.3339 78.7898C70.5129 78.5555 70.9255 76.8416 70.8754 76.535C70.7079 76.5765 70.4925 78.3753 70.1968 78.6322L70.054 78.595L70.0814 78.6768C70.096 78.9494 70.1258 79.1961 70.188 79.4604C69.0258 79.4246 68.0609 79.4191 67.157 80.3691C66.203 81.3715 65.7432 83.3262 65.1663 84.6205C64.4598 86.637 63.7411 88.6489 63.0107 90.6558C62.6662 91.6026 62.3576 92.6137 61.9486 93.5345L61.8654 93.7174C61.5389 94.7955 61.0755 95.8524 60.6736 96.9002C59.7199 99.3869 58.7108 101.856 57.804 104.363C57.5034 103.618 57.2307 102.861 56.9253 102.117L56.8598 102.103C57.0353 102.851 57.3582 103.832 57.7429 104.482C57.4681 105.689 56.8226 106.872 56.3774 108.022L52.6559 117.468C51.9647 117.315 51.18 117.389 50.4755 117.399L47.2532 117.435H43.14C42.4593 117.435 41.7535 117.393 41.0762 117.442C39.8809 117.316 34.5677 117.635 33.9679 117.358C36.5357 116.218 39.245 115.39 41.8461 114.337C42.0333 114.434 42.2491 114.399 42.4486 114.364C43.4908 114.181 43.9644 113.084 44.5179 112.261C44.8033 112.999 44.9643 113.796 45.0882 114.582C45.4781 113.655 46.0072 112.578 46.1736 111.575L46.1295 111.588C45.7252 112.301 45.3645 113.361 45.1999 114.18C45.1943 114.208 45.1894 114.236 45.1842 114.264C45.0221 113.488 44.8313 112.723 44.6367 111.956C45.105 111.365 45.5444 109.114 45.868 108.248C47.0151 108.058 48.8232 108.082 49.7606 107.264C50.0366 107.023 50.2251 106.677 50.2612 106.293C50.4519 106.2 50.6589 106.176 50.8637 106.139C51.0147 105.844 51.1388 105.558 51.2087 105.227C51.4928 103.881 50.9213 102.5 50.2961 101.371C50.5031 101.178 50.6271 100.908 50.7666 100.657C50.944 100.992 51.5314 102.708 51.6227 102.794C51.8374 102.54 52.5042 100.98 52.5615 100.626C52.1771 101.218 51.927 101.881 51.6756 102.548C51.4838 101.958 51.2593 100.944 50.7966 100.544C50.979 100.032 50.8437 99.2169 50.8196 98.6696C51.0104 98.6317 51.161 98.5635 51.3163 98.4341C51.8153 98.0176 51.9196 97.2293 52.0136 96.6001C52.7124 96.6015 53.4113 96.5986 54.1101 96.5924C54.7248 96.5828 56.5679 96.7087 56.9977 96.2303C57.2923 96.6695 57.3083 97.2967 57.6108 97.7126L57.6597 97.6024C57.5373 97.0489 57.2509 96.233 57.0297 95.7084C57.3127 94.9581 57.463 94.0871 57.6578 93.3023C58.0349 91.7829 58.4269 90.2687 58.7672 88.739C59.0219 87.7504 59.2621 86.7527 59.5627 85.7793C59.7101 85.358 60.026 84.6232 59.8766 84.184C59.816 84.0058 59.7377 83.9032 59.5743 83.8302C59.4049 83.7538 59.1668 83.7504 58.9855 83.7483C56.8261 83.7215 54.6554 83.8006 52.4935 83.7951C49.765 83.7875 46.9992 83.6993 44.2752 83.8398C43.9708 83.8556 43.5388 83.8832 43.277 84.0546C42.8272 84.3486 42.6945 85.2615 42.5638 85.7785C42.3485 86.7705 42.0929 87.7821 41.7914 88.7473C41.3061 89.9514 40.9191 91.3594 40.5905 92.6268C40.447 93.1803 40.4159 93.778 40.1947 94.3046L40.257 94.4837C39.715 94.9862 38.8468 94.8886 38.8513 95.9046C38.8517 96.0085 38.8574 96.0239 38.8725 96.1147C38.4457 97.8812 37.8988 99.6288 37.401 101.373C36.9572 102.929 36.5607 104.578 35.969 106.073C35.8042 105.982 35.6212 106.034 35.4444 106.056C34.5126 105.987 33.528 106.206 32.5976 106.285C29.9565 106.509 27.2399 106.284 25.1233 108.331C25.1055 108.348 25.0884 108.367 25.0709 108.385C23.6944 109.576 23.1125 111.629 22.9257 113.457C22.7291 115.382 23.0548 117.263 24.2031 118.792C24.7105 119.467 25.3682 119.968 26.1861 120.049C27.0136 120.131 28.3326 120.133 29.1486 120.011C29.4996 120.014 29.858 120.001 30.208 120.021C30.0498 120.098 29.9489 120.109 29.7794 120.115L29.8369 120.178C29.8561 120.174 29.8753 120.17 29.8946 120.167C30.3911 120.074 30.8209 120.188 31.3103 120.189C31.6227 120.191 31.9367 120.13 32.2503 120.122C32.8547 120.106 33.4543 120.149 34.0579 120.16C36.7941 120.21 39.5461 120.138 42.2842 120.14C43.0533 120.14 43.8234 120.129 44.5924 120.14C45.2115 120.149 45.8015 120.224 46.4227 120.133C46.5151 120.119 46.4875 120.127 46.6064 120.159C46.4478 120.31 46.2852 120.337 46.082 120.366C44.0228 120.672 41.8135 120.519 39.7323 120.52L28.723 120.516C27.7418 120.516 25.4988 120.378 24.6553 120.611C20.446 120.723 16.2134 120.611 12.001 120.611C11.4511 120.611 11.1168 119.867 10.8126 119.37C10.3146 118.558 10.2533 117.422 10.3937 116.48C10.6731 114.604 11.6442 112.237 12.1886 110.361C12.9801 107.635 13.9085 104.966 14.7713 102.267L18.9383 89.0309L20.6029 83.8088C20.9483 82.7252 21.35 81.6256 21.586 80.5083C21.9661 79.7132 22.1838 78.6749 22.4501 77.8226C23.0833 75.7964 23.7123 73.7322 24.4382 71.7439C26.1444 67.0719 28.3348 63.3047 32.7601 61.2354C32.8217 61.8748 33.2 62.6119 33.4261 63.2111C33.6119 62.7206 34.4918 61.1133 34.4062 60.7236L34.355 60.6437C35.7076 59.8506 41.6199 58.7118 43.4188 58.4285C43.4292 58.4599 43.4407 58.4912 43.4501 58.5229C43.4951 58.6757 43.5111 58.8238 43.5278 58.982L43.4863 57.6934ZM18.8538 115.096C19.1029 116.818 19.8445 118.518 20.253 120.209C20.7597 118.639 21.3282 117.073 21.9256 115.542C21.9563 115.409 21.9902 115.392 21.9243 115.267C21.4181 116.039 20.6803 118.624 20.2978 119.665C19.9661 118.871 19.2053 115.365 18.8538 115.096ZM12.3875 115.074C12.4109 115.395 13.549 119.708 13.6754 119.984L13.7617 120.035C14.3048 119.067 15.0606 116.548 15.5044 115.353L15.4594 115.206C15.1982 115.421 14.0224 119.19 13.7667 119.853C13.4636 118.783 13.2096 117.696 12.9301 116.618C12.8219 116.201 12.7391 115.716 12.5861 115.318C12.5312 115.175 12.5022 115.154 12.3875 115.074ZM52.7148 112.058C52.3086 112.665 52.0601 113.489 51.7766 114.174C51.5467 113.507 51.3424 112.745 50.9847 112.147L50.9311 112.156C50.9334 112.301 50.9468 112.383 51.0058 112.514C51.3079 113.238 51.594 113.974 51.7943 114.739C51.9057 114.217 52.8037 112.332 52.7148 112.058ZM13.6548 110.971C13.4469 110.182 13.2171 109.372 13.0738 108.566L12.9983 108.515L13.0143 108.419L12.9578 108.426C12.9635 108.442 12.9735 108.456 12.975 108.473C12.9771 108.497 12.9705 108.522 12.9686 108.546C12.9617 108.635 12.969 108.699 12.9842 108.785L13.6196 111.489C13.8812 110.743 15.5216 106.87 15.3597 106.41L13.6548 110.971ZM18.5809 106.206C18.7152 107.455 19.586 110.023 20.0002 111.3C20.5445 109.791 21.0566 108.267 21.536 106.731L21.5582 106.57C21.4164 106.642 21.1886 107.367 21.1185 107.568C20.7326 108.674 20.3753 109.809 20.0053 110.923C19.8264 110.307 18.8488 106.448 18.5809 106.206ZM50.9695 106.567C51.1148 107.36 51.5893 108.207 51.8547 108.975C52.0166 108.218 52.2957 107.507 52.5974 106.803L52.6746 106.618L52.6185 106.58C52.3205 106.776 51.9454 108.049 51.8353 108.45C51.5842 107.846 51.3511 107.084 50.9695 106.567ZM36.469 83.8523C36.3393 83.8873 36.3877 83.8502 36.306 83.9926C35.8133 84.8522 34.4603 92.1702 34.1805 93.5721C33.3936 97.5163 32.5521 101.447 31.8435 105.41L25.3088 105.44C24.5377 105.447 23.4204 105.344 22.7019 105.499C22.636 105.641 22.6244 105.606 22.667 105.776C22.945 105.921 29.2018 105.776 29.9902 105.771C30.451 105.767 31.1982 105.654 31.6236 105.794C31.8035 105.853 31.7478 106.062 31.974 106.04C32.304 105.616 32.5976 102.837 32.855 102.034C32.9093 101.505 33.0556 100.962 33.1607 100.442L33.1709 100.357C33.1974 100.159 33.2423 99.9746 33.2936 99.7801L33.4596 98.905L33.7995 97.1557C34.3157 94.4349 34.8606 91.7207 35.4342 89.0137C35.7603 87.4963 36.168 85.9699 36.4496 84.4457C36.4871 84.2427 36.5184 84.0553 36.469 83.8523ZM58.0318 102.002C57.8687 102.451 57.5726 103.073 57.5919 103.563C57.7913 103.111 57.9886 102.639 58.0791 102.146L58.0318 102.002ZM18.707 97.3133C19.0717 98.8885 19.5745 100.956 20.1425 102.433C20.6893 100.896 21.1836 99.3092 21.7733 97.7939L21.7596 97.6024C21.6119 97.7046 20.3008 101.613 20.1402 102.137C19.8704 101.098 19.5923 100.062 19.3057 99.0283C19.1746 98.5506 19.0701 98.0155 18.8962 97.5563C18.8461 97.4242 18.8145 97.3869 18.707 97.3133ZM25.2434 97.2445C25.7477 98.9635 26.187 100.718 26.7238 102.424C27.0341 100.941 27.8663 99.0503 28.3734 97.5818L28.4063 97.4091L28.328 97.4208C28.0456 98.052 27.8621 98.6979 27.6341 99.3512C27.3334 100.212 27.0094 101.065 26.7059 101.925C26.4304 100.928 25.822 98.2442 25.4373 97.4579C25.3791 97.3389 25.3476 97.3133 25.2434 97.2445ZM32.7547 97.1247C32.8216 97.4668 32.8839 98.0252 33.1369 98.26C33.111 97.9653 33.0272 97.409 32.8345 97.1887C32.8118 97.1626 32.7812 97.146 32.7547 97.1247ZM58.5533 94.7192C58.2553 95.1226 57.6421 96.5745 57.662 97.0909C57.8549 96.6832 58.5941 95.0856 58.5533 94.7192ZM37.6624 93.8654C37.8733 94.3495 38.3618 95.9121 38.6819 96.2014C38.4605 95.5419 38.2149 94.4534 37.7999 93.9323L37.6624 93.8654ZM61.8809 93.4058L61.8754 93.4505C61.8775 93.4321 61.8798 93.4136 61.8823 93.3952C61.8819 93.3987 61.8813 93.4023 61.8809 93.4058ZM25.3196 88.2936C25.751 89.9548 26.3312 91.6135 26.6684 93.2974C27.2365 91.703 27.8914 90.1462 28.4623 88.5525L28.5031 88.423L28.4349 88.3927C27.7989 89.5445 27.1643 91.5694 26.7028 92.8768C26.5718 92.3959 25.5763 88.5211 25.4732 88.4017C25.4314 88.3536 25.3707 88.3294 25.3196 88.2936ZM21.6748 88.1056C21.1255 89.0489 20.449 91.4158 20.0784 92.5642C19.8623 91.8199 19.3745 89.7064 19.077 89.1851C19.0407 89.3027 19.0405 89.3292 19.0508 89.4619C19.4124 90.606 19.7003 91.7759 20.059 92.9215C20.2744 92.331 21.7374 88.5659 21.6748 88.1056ZM32.7628 88.1765C32.8434 88.6586 33.4677 91.1635 33.7314 91.3889C33.6123 90.7822 33.1139 88.5222 32.7628 88.1765ZM40.2046 88.8643C39.9548 89.5272 39.703 90.2283 39.5319 90.9208C39.3406 90.344 39.1593 89.7621 38.9103 89.2107C38.8648 89.3187 38.9361 89.4929 38.973 89.6051C38.9969 89.6779 39.0053 89.6941 39.0323 89.7553C39.186 90.2433 39.353 90.7316 39.4738 91.2307L39.532 91.2719C39.7723 90.5037 40.0211 89.738 40.2781 88.9759L40.2046 88.8643ZM63.0167 88.0957L63.02 88.0857C63.0211 88.082 63.0221 88.078 63.0232 88.0743C63.021 88.0814 63.0189 88.0886 63.0167 88.0957ZM62.5908 81.8701L62.6742 82.0086C63.0882 82.7061 63.4573 83.4771 63.7602 84.2323C63.9049 84.593 64.0351 85.4812 64.2884 85.6533C64.3778 85.4434 64.2515 85.1583 64.1804 84.949C64.1068 84.7335 64.0313 84.5187 63.9551 84.3039C64.1792 83.5666 64.4293 82.8511 64.7022 82.1331L64.6769 81.9919C64.3513 82.4532 64.1697 83.2154 63.9628 83.7614L63.9576 83.9196L63.8745 83.9955C63.363 83.4089 63.2174 82.445 62.6821 81.8495L62.5908 81.8701ZM40.4237 83.0212C40.0578 83.6491 39.7265 84.4127 39.5338 85.128C39.265 84.4987 39.0656 83.8047 38.7296 83.2168L38.6534 83.1905C38.6409 83.3144 38.6465 83.3614 38.703 83.4694C39 84.1145 39.2632 84.7769 39.4912 85.4536C39.7032 84.9345 40.4256 83.5185 40.4605 83.066L40.4237 83.0212ZM25.2432 79.4253C25.6628 81.1588 26.295 82.8484 26.5702 84.6198C27.0881 82.9696 27.7887 81.3536 28.406 79.742L28.4623 79.5389L28.3835 79.5471C27.7916 80.7636 27.066 82.7313 26.6078 84.0628C26.413 83.2997 25.6122 79.7463 25.2432 79.4253ZM32.1271 79.3041C32.1654 79.7185 33.443 83.9609 33.5999 84.2047L33.6257 84.1356C33.7502 83.7871 33.8113 83.3927 33.9343 83.0378C34.3323 81.8888 34.7794 80.7609 35.1691 79.6078L35.2342 79.4061L35.1944 79.3413C34.7085 80.0188 33.9373 82.7451 33.562 83.7345C33.3201 83.0258 32.419 79.5847 32.1271 79.3041ZM63.0089 83.6862L63.0538 83.6835C63.0614 83.6829 63.069 83.6821 63.0766 83.6813C63.0535 83.6838 63.0309 83.685 63.0089 83.6862ZM50.7695 79.2938C50.7514 79.5792 51.543 81.9246 51.7206 82.1503C51.7506 81.7026 51.0674 79.634 50.8078 79.3296C50.7963 79.3165 50.7822 79.3061 50.7695 79.2938ZM63.5243 81.7931C63.531 81.807 63.5378 81.8208 63.5444 81.8346C63.5321 81.8089 63.5195 81.7829 63.5069 81.7567L63.5243 81.7931ZM58.9994 78.1909C58.5047 79.1953 58.1835 80.3534 57.8304 81.4232C57.6631 80.9542 57.2354 79.543 56.931 79.2607C56.907 79.4348 56.9336 79.4434 56.9989 79.5954L57.0529 79.7131C57.3504 80.3671 57.4745 81.2146 57.8098 81.8136C57.9126 81.7002 57.8756 81.7728 57.9013 81.6236C58.0266 80.8979 59.0796 78.7638 58.9994 78.1909ZM52.4569 79.2208C52.1145 79.8073 51.8002 80.7603 51.7531 81.4618C51.9153 81.05 52.5391 79.5693 52.4569 79.2208ZM64.5329 81.4613L64.5082 81.4146C64.5064 81.4113 64.5044 81.4081 64.5026 81.4048C64.5129 81.4236 64.5232 81.4424 64.5329 81.4613ZM46.3912 78.4133C46.1548 78.7252 46.0076 79.2994 45.8611 79.6808C45.7283 79.5217 45.696 79.0316 45.6002 78.9751C45.5585 79.2174 45.5106 79.5245 45.6269 79.7503C45.638 79.7716 45.6538 79.7902 45.6671 79.8101C45.8005 79.7544 45.7441 79.7901 45.8409 79.7117C45.6654 80.0986 45.5377 80.5297 45.3938 80.9331C45.1099 80.162 44.8186 79.196 44.3504 78.5461C44.3402 78.7369 45.2426 80.8869 45.3634 81.3559C45.704 80.5235 46.2594 79.3144 46.4521 78.4511L46.3912 78.4133ZM40.4593 77.7145C40.091 78.4525 39.8062 79.225 39.5367 80.0105C39.1696 79.3338 38.9885 78.5571 38.6229 77.8804L38.5672 77.8769C38.573 78.0241 38.5906 78.1104 38.6513 78.2432C38.9622 78.9626 39.3146 79.7311 39.4956 80.5014C39.6451 80.0662 40.5315 78.0062 40.4915 77.7482L40.4593 77.7145ZM62.6666 79.7765L62.7152 79.9172C62.6975 79.8674 62.6806 79.818 62.6643 79.7694C62.6651 79.7717 62.6658 79.7742 62.6666 79.7765ZM64.6338 75.9774C64.3641 76.3911 64.2009 76.8367 64.0251 77.3041L63.9393 77.167C63.787 77.2132 63.7501 77.2801 63.6841 77.4294C63.6029 77.6138 63.6168 77.7227 63.4442 77.8493C63.3039 77.5437 63.1647 77.2414 63.0471 76.9241C63.0681 76.8463 63.0806 76.7642 63.0958 76.6851L62.9274 76.2266C62.984 76.3786 63.0396 76.5315 63.0958 76.6851C63.0806 76.7642 63.0681 76.8463 63.0471 76.9241C62.8994 76.6783 62.7519 76.3644 62.547 76.1731C62.6734 76.5014 62.8391 76.8305 62.9453 77.1644C63.0786 77.3461 63.2153 77.6242 63.2773 77.8493C63.5183 78.2349 63.6207 78.6267 63.6924 79.0817L63.7933 79.172L63.803 79.1443C63.8979 78.853 63.8402 78.3833 63.914 78.0539C64.053 77.4322 64.4135 76.597 64.6338 75.9774ZM56.89 73.2394C57.257 74.3085 57.5883 75.3875 57.8031 76.5055C57.9713 75.5554 58.3089 74.674 58.6412 73.7811L58.6731 73.7089C58.7399 73.5527 58.8096 73.4348 58.7786 73.2586C58.2959 73.9209 58.0316 75.0405 57.7885 75.8439C57.6351 75.2827 57.277 73.5404 56.89 73.2394ZM52.4117 73.649C52.1544 74.2582 51.9105 74.8807 51.5989 75.4604C51.4047 74.9572 51.2202 74.4462 50.9797 73.9671L50.9375 74.0181L51.0443 74.3416C51.2247 74.9095 51.4278 75.4646 51.6366 76.0208C51.7295 75.5891 52.5002 73.918 52.4346 73.6738L52.4117 73.649ZM46.3882 73.3715C46.092 73.9312 45.8832 74.5978 45.547 75.1216C45.5177 75.024 45.4975 74.9384 45.4802 74.8359C45.3587 75.0149 45.485 75.1195 45.293 75.2159C45.0603 74.6652 44.8512 74.1253 44.5159 73.6373L44.4353 73.649L44.486 73.7983C44.8219 74.4799 45.1352 75.1671 45.4011 75.8852C45.5714 75.4279 46.4656 73.7297 46.3882 73.3715ZM32.2583 70.7608C32.1937 71.7152 33.3574 74.6404 33.6029 75.8783C33.7604 74.6425 34.7613 72.4606 35.2156 71.2097L35.251 70.9371L35.1736 70.9502C34.8682 71.5739 34.6653 72.2804 34.4313 72.9392C34.142 73.7543 33.8233 74.5593 33.5748 75.3902C33.4854 74.8776 32.3991 70.9068 32.2583 70.7608ZM25.3167 70.5998C25.7454 72.2617 26.1422 74.0173 26.7349 75.6173C27.1536 74.0187 27.8709 72.4929 28.3976 70.9301L28.428 70.7202L28.364 70.703C27.7653 72.1446 27.2193 73.6958 26.7284 75.187C26.4317 74.2974 25.7662 71.2493 25.4829 70.7313C25.4598 70.6886 25.359 70.6232 25.3167 70.5998ZM40.5361 72.2045C40.1408 72.9528 39.845 73.7674 39.533 74.5605C39.2833 73.9051 39.004 72.9013 38.5695 72.3856L38.5231 72.4256L38.6355 72.6996C38.9652 73.386 39.3728 74.1881 39.5124 74.9522C39.7054 74.5162 40.5823 72.6206 40.5803 72.2534L40.5361 72.2045ZM51.8281 73.9305C51.716 74.1418 51.6054 74.3802 51.6701 74.63C51.676 74.6527 51.6864 74.6742 51.6946 74.6955L51.7435 74.7037C51.7948 74.4717 51.932 74.1384 51.8281 73.9305ZM70.7732 69.9821C70.7561 69.9972 70.737 70.0104 70.7218 70.0283C70.4495 70.3395 70.0649 71.9132 70.0515 72.334L69.8401 72.2424C69.9905 72.9928 70.2596 73.8755 70.259 74.6417L70.3156 74.7016C70.5535 73.8418 69.99 73.1959 70.0515 72.334L70.0997 72.3677C70.1599 72.2797 70.1461 72.3186 70.1683 72.2162C70.3346 71.4624 70.5694 70.7256 70.7732 69.9821ZM62.0259 74.2937C62.0547 74.3518 62.084 74.4096 62.1139 74.4672C62.1199 74.4786 62.126 74.49 62.1319 74.5013C62.0959 74.4325 62.0605 74.3633 62.0259 74.2937ZM65.0869 69.925C64.6458 70.9156 64.423 72.0077 64.0422 73.0245C63.8301 72.4516 63.1988 70.4717 62.8307 70.1432C62.842 70.2987 62.8783 70.3835 62.9492 70.5184C63.376 71.5703 63.7857 72.6253 64.0739 73.7337C64.1432 73.0369 65.178 70.1819 65.1263 69.9649L65.0869 69.925ZM68.8416 69.998C69.0796 70.6692 69.3882 71.4721 69.7512 72.0703L69.823 72.0517C69.6218 71.4899 69.2954 70.3554 68.8416 69.998ZM58.7706 67.3938C58.4011 67.7319 58.1942 69.1285 57.7738 69.6504C57.7521 69.8142 57.7512 69.9424 57.7719 70.1068L57.8206 70.0958C57.938 69.8528 58.0363 69.6061 58.1319 69.3522C58.3413 68.7309 58.6865 68.043 58.7706 67.3938ZM44.4842 67.4407C44.7384 68.2963 45.1104 69.1085 45.3798 69.9594C45.5183 69.5696 46.2862 67.9134 46.2024 67.6097C46.1383 67.688 46.0987 67.7418 46.054 67.8363L45.8567 68.349C45.774 68.2909 45.7423 68.3017 45.7264 68.1858C45.7022 68.0088 45.7325 67.8362 45.7548 67.6608C45.4477 68.2684 45.6401 68.9199 45.3829 69.5381C45.2187 69.0781 44.8532 67.664 44.4842 67.4407ZM57.1256 67.6606C57.0504 68.0565 57.5861 69.1582 57.7306 69.5791C57.7473 69.4845 57.7526 69.4822 57.7448 69.3695C57.7215 69.0307 57.357 67.8354 57.1256 67.6606ZM40.6532 66.2201C40.1797 66.971 39.761 68.049 39.5279 68.9178C39.3188 68.403 38.9059 67.074 38.5609 66.7251L38.5155 66.77L38.5781 66.9442C38.9121 67.7251 39.2768 68.5118 39.5087 69.3364C39.6738 68.8353 40.6846 66.5488 40.6532 66.2201ZM34.7919 65.3823C34.3137 66.3319 33.8739 67.3541 33.5724 68.3853C33.2831 67.6064 32.8596 66.0769 32.3583 65.5155C32.3945 65.6807 32.4283 65.826 32.4933 65.9814C32.8733 66.9263 33.3507 67.9072 33.534 68.9247C33.694 68.2199 34.8736 65.7002 34.7919 65.3823ZM70.8614 64.7156C70.6095 65.4342 70.3657 66.1564 70.1296 66.8814C70.0516 66.8193 70.0337 66.791 69.9861 66.7039C69.8942 66.8912 70.0553 67.4429 70.0972 67.6709L70.1727 67.7595C70.2932 67.4845 70.2051 67.0826 70.285 66.7708C70.445 66.1414 70.7212 65.5649 70.8653 64.9224L70.9173 64.6918L70.8614 64.7156ZM58.0744 65.8165L58.09 65.753C58.0848 65.7741 58.08 65.7955 58.0744 65.8165ZM62.9452 64.1409C63.122 65.1194 63.6911 65.9474 63.8778 66.9186L63.9362 66.927C63.9711 66.7906 64.0046 66.6555 64.0351 66.5178C64.1754 65.8874 64.4592 65.2084 64.6832 64.6049L64.7398 64.3883L64.6845 64.3524C64.3608 64.9775 64.1221 65.7635 63.912 66.4413C63.7152 65.9745 63.2439 64.4106 62.9452 64.1409ZM59.0509 64.4667C58.9689 64.6752 58.9664 64.9744 58.9494 65.2463L58.9547 65.1549C58.968 64.9091 58.978 64.652 59.0509 64.4667ZM38.4001 60.561C38.7139 61.3427 39.2266 62.2926 39.3753 63.1236C39.7373 62.4301 40.0282 61.6808 40.3265 60.9527L40.3178 60.9016L40.3583 60.8227L40.2743 60.7705C39.9069 61.3272 39.6646 62.1889 39.4264 62.8307C39.2569 62.3794 38.7894 60.7449 38.4001 60.561ZM64.9022 59.6082C64.536 60.2037 64.3506 60.9404 64.0523 61.58C63.8448 61.0539 63.6479 60.5206 63.383 60.0246L63.3268 60.0324C63.3712 60.1902 63.4177 60.3396 63.4772 60.4921C63.5902 60.7221 63.9888 61.8692 64.105 61.9159C64.2499 61.5362 64.9414 59.8765 64.9022 59.6082Z" fill="#125C98"/>
<path d="M50.7976 100.544C51.2603 100.944 51.4847 101.958 51.6766 102.548C51.928 101.881 52.178 101.218 52.5624 100.626C52.5052 100.98 51.8382 102.541 51.6236 102.794C51.5325 102.709 50.9449 100.992 50.7676 100.657L50.7976 100.544Z" fill="#BAC5CC"/>
<path d="M57.7425 104.483C57.3579 103.833 57.035 102.852 56.8594 102.104L56.9249 102.118C57.2303 102.862 57.503 103.618 57.8036 104.363L57.7425 104.483Z" fill="#A9BAC4"/>
<path d="M57.5927 103.563C57.5734 103.073 57.8695 102.452 58.0327 102.002L58.0799 102.146C57.9894 102.639 57.7922 103.111 57.5927 103.563Z" fill="#A9BAC4"/>
<path d="M48.3622 103.983C49.1999 104.423 49.6793 105.082 50.2054 105.882L50.2608 106.293C50.2247 106.677 50.0364 107.023 49.7603 107.264C48.8229 108.083 47.0148 108.058 45.8677 108.249C45.5441 109.114 45.1047 111.365 44.6363 111.957L44.5176 112.261C43.964 113.084 43.4906 114.181 42.4483 114.364C42.2487 114.399 42.033 114.434 41.8457 114.337C42.0028 114.259 42.1583 114.176 42.312 114.09C44.2727 112.973 44.8595 109.837 45.4595 107.703C46.5039 107.53 47.6065 107.52 48.6296 107.23C48.9844 107.128 49.4849 106.938 49.6473 106.543C49.7152 106.378 49.6965 106.21 49.6427 106.044C49.4127 105.337 48.7977 104.844 48.2027 104.533C47.0158 104.581 43.495 105.286 42.647 105.106C42.5387 104.963 42.5507 104.94 42.545 104.752C42.6543 104.62 42.7445 104.578 42.9072 104.547C43.5082 104.434 44.1672 104.422 44.7776 104.354C45.9701 104.221 47.1654 104.061 48.3622 103.983Z" fill="#043E69"/>
<path d="M35.4453 106.056C35.6222 106.034 35.8051 105.982 35.97 106.073C35.7076 106.855 35.1977 107.991 35.2242 108.814C35.2364 109.194 35.3331 109.606 35.3936 109.982C35.2771 110.115 35.278 110.109 35.1085 110.126C35.0385 110.084 34.9964 110.044 34.9553 109.969C34.3644 108.879 35.1466 107.133 35.4453 106.056Z" fill="#043E69"/>
<path d="M19.9995 111.301C19.5853 110.024 18.7143 107.455 18.5801 106.206C18.8478 106.448 19.8256 110.308 20.0045 110.923C20.3746 109.809 20.7318 108.675 21.1177 107.569C21.1877 107.368 21.4156 106.642 21.5575 106.57L21.5353 106.731C21.0559 108.267 20.5438 109.791 19.9995 111.301Z" fill="#A9BAC4"/>
<path d="M13.6541 110.971L15.3589 106.41C15.521 106.869 13.8803 110.743 13.6188 111.489L12.9834 108.785C12.9683 108.699 12.9609 108.635 12.9678 108.546C12.9697 108.522 12.9765 108.497 12.9743 108.473C12.9728 108.456 12.9627 108.442 12.957 108.426L13.0136 108.419L12.9976 108.516L13.0731 108.566C13.2165 109.372 13.4461 110.182 13.6541 110.971Z" fill="#A9BAC4"/>
<path d="M51.8539 108.976C51.5886 108.207 51.1141 107.36 50.9688 106.567C51.3504 107.084 51.5834 107.846 51.8345 108.45C51.9445 108.05 52.3197 106.776 52.6177 106.58L52.6739 106.618L52.5967 106.804C52.2949 107.507 52.0159 108.218 51.8539 108.976Z" fill="#BAC5CC"/>
<path d="M47.2383 91.6094C47.4862 91.5392 47.6645 91.5113 47.915 91.5918C49.0109 91.9408 51.3099 94.8853 51.8213 96.0098C51.9079 96.2003 51.9678 96.3939 52.0146 96.5996C51.9206 97.2289 51.8164 98.0171 51.3174 98.4336C51.1621 98.563 51.012 98.632 50.8213 98.6699C50.3603 97.428 49.1198 96.0129 48.1025 95.2734C46.896 95.5378 45.6708 96.0589 44.4951 96.4658C43.8428 96.6916 43.1946 96.9465 42.541 97.1641C42.2895 97.2481 42.0244 97.2998 41.7803 97.4072C41.6326 97.4719 41.5208 97.5384 41.4209 97.6768C41.4059 97.8475 41.4245 97.8456 41.5205 97.9854C41.9832 98.0364 47.0911 96.1788 47.9297 95.8408C48.8423 96.4131 50.0828 97.9113 50.3721 99.0176C50.5932 99.8636 50.1515 100.492 50.2285 101.269C49.5739 100.551 49.0016 99.9097 48.0078 99.8994C47.2017 99.8906 41.9239 100.71 41.5176 101.04C41.483 101.222 41.4972 101.189 41.5791 101.334C41.9881 101.516 42.6014 101.311 43.0254 101.229C44.1424 101.015 47.8218 100.166 48.7422 100.592C49.5443 100.963 50.058 101.928 50.3789 102.768C50.6578 103.497 50.8932 104.44 50.6191 105.206C50.5281 105.461 50.3745 105.682 50.207 105.882C49.681 105.081 49.2017 104.423 48.3643 103.983C47.1675 104.061 45.9718 104.221 44.7793 104.354C44.169 104.422 43.51 104.433 42.9092 104.546C42.7464 104.577 42.6562 104.62 42.5469 104.752C42.5526 104.94 42.5402 104.963 42.6484 105.106C43.4964 105.286 47.017 104.581 48.2041 104.533C48.7991 104.844 49.4145 105.337 49.6445 106.044C49.6982 106.21 49.7172 106.378 49.6494 106.543C49.487 106.938 48.9857 107.128 48.6309 107.229C47.6079 107.52 46.5053 107.53 45.4609 107.703C44.861 109.837 44.2741 112.972 42.3135 114.089C42.1599 114.176 42.0046 114.258 41.8477 114.337C39.2466 115.39 36.5366 116.218 33.9688 117.358C33.9515 117.364 33.9343 117.37 33.917 117.375C32.9931 117.643 30.6256 117 30.125 117.898C29.8669 118.362 29.9202 119.012 30.0635 119.509C30.1132 119.681 30.2008 119.847 30.2949 119.994L30.209 120.021C29.8592 120.001 29.5011 120.013 29.1504 120.011C28.3343 120.133 27.015 120.131 26.1875 120.049C25.3696 119.968 24.7115 119.467 24.2041 118.792C23.0558 117.263 22.7301 115.381 22.9268 113.457C23.1136 111.629 23.6959 109.576 25.0723 108.385C25.0898 108.367 25.1071 108.348 25.125 108.331C27.2415 106.284 29.9577 106.51 32.5986 106.285C33.529 106.206 34.5136 105.987 35.4453 106.056C35.1466 107.132 34.3653 108.878 34.9561 109.968C34.9971 110.044 35.0393 110.083 35.1094 110.125C35.2782 110.109 35.2775 110.115 35.3936 109.981C35.3331 109.606 35.2368 109.194 35.2246 108.813C35.1982 107.99 35.7083 106.854 35.9707 106.072C36.5623 104.578 36.9586 102.928 37.4023 101.373C37.9002 99.6285 38.4472 97.8808 38.874 96.1143C38.9935 95.6917 39.0735 95.2845 39.4551 95.0498C40.5196 94.3964 41.9135 93.9138 43.0576 93.4043C44.2879 92.8569 45.9914 91.9611 47.2383 91.6094Z" fill="#E6EBEE"/>
<path d="M47.2383 91.6094C47.4862 91.5392 47.6645 91.5113 47.915 91.5918C49.0109 91.9408 51.3099 94.8853 51.8213 96.0098C51.9079 96.2003 51.9678 96.3939 52.0146 96.5996C51.9206 97.2289 51.8164 98.0171 51.3174 98.4336C51.1621 98.563 51.012 98.632 50.8213 98.6699C50.3603 97.428 49.1198 96.0129 48.1025 95.2734C46.896 95.5378 45.6708 96.0589 44.4951 96.4658C43.8428 96.6916 43.1946 96.9465 42.541 97.1641C42.2895 97.2481 42.0244 97.2998 41.7803 97.4072C41.6326 97.4719 41.5208 97.5384 41.4209 97.6768C41.4059 97.8475 41.4245 97.8456 41.5205 97.9854C41.9832 98.0364 47.0911 96.1788 47.9297 95.8408C48.8423 96.4131 50.0828 97.9113 50.3721 99.0176C50.5932 99.8636 50.1515 100.492 50.2285 101.269C49.5739 100.551 49.0016 99.9097 48.0078 99.8994C47.2017 99.8906 41.9239 100.71 41.5176 101.04C41.483 101.222 41.4972 101.189 41.5791 101.334C41.9881 101.516 42.6014 101.311 43.0254 101.229C44.1424 101.015 47.8218 100.166 48.7422 100.592C49.5443 100.963 50.058 101.928 50.3789 102.768C50.6578 103.497 50.8932 104.44 50.6191 105.206C50.5281 105.461 50.3745 105.682 50.207 105.882C49.681 105.081 49.2017 104.423 48.3643 103.983C47.1675 104.061 45.9718 104.221 44.7793 104.354C44.169 104.422 43.51 104.433 42.9092 104.546C42.7464 104.577 42.6562 104.62 42.5469 104.752C42.5526 104.94 42.5402 104.963 42.6484 105.106C43.4964 105.286 47.017 104.581 48.2041 104.533C48.7991 104.844 49.4145 105.337 49.6445 106.044C49.6982 106.21 49.7172 106.378 49.6494 106.543C49.487 106.938 48.9857 107.128 48.6309 107.229C47.6079 107.52 46.5053 107.53 45.4609 107.703C44.861 109.837 44.2741 112.972 42.3135 114.089C42.1599 114.176 42.0046 114.258 41.8477 114.337C39.2466 115.39 36.5366 116.218 33.9688 117.358C33.9515 117.364 33.9343 117.37 33.917 117.375C32.9931 117.643 30.6256 117 30.125 117.898C29.8669 118.362 29.9202 119.012 30.0635 119.509C30.1132 119.681 30.2008 119.847 30.2949 119.994L30.209 120.021C29.8592 120.001 29.5011 120.013 29.1504 120.011C28.3343 120.133 27.015 120.131 26.1875 120.049C25.3696 119.968 24.7115 119.467 24.2041 118.792C23.0558 117.263 22.7301 115.381 22.9268 113.457C23.1136 111.629 23.6959 109.576 25.0723 108.385C25.0898 108.367 25.1071 108.348 25.125 108.331C27.2415 106.284 29.9577 106.51 32.5986 106.285C33.529 106.206 34.5136 105.987 35.4453 106.056C35.1466 107.132 34.3653 108.878 34.9561 109.968C34.9971 110.044 35.0393 110.083 35.1094 110.125C35.2782 110.109 35.2775 110.115 35.3936 109.981C35.3331 109.606 35.2368 109.194 35.2246 108.813C35.1982 107.99 35.7083 106.854 35.9707 106.072C36.5623 104.578 36.9586 102.928 37.4023 101.373C37.9002 99.6285 38.4472 97.8808 38.874 96.1143C38.9935 95.6917 39.0735 95.2845 39.4551 95.0498C40.5196 94.3964 41.9135 93.9138 43.0576 93.4043C44.2879 92.8569 45.9914 91.9611 47.2383 91.6094Z" fill="url(#paint6_linear_2216_23125)" fill-opacity="0.8" style="mix-blend-mode:color-burn"/>
<path d="M47.2383 91.6094C47.4862 91.5392 47.6645 91.5113 47.915 91.5918C49.0109 91.9408 51.3099 94.8853 51.8213 96.0098C51.9079 96.2003 51.9678 96.3939 52.0146 96.5996C51.9206 97.2289 51.8164 98.0171 51.3174 98.4336C51.1621 98.563 51.012 98.632 50.8213 98.6699C50.3603 97.428 49.1198 96.0129 48.1025 95.2734C46.896 95.5378 45.6708 96.0589 44.4951 96.4658C43.8428 96.6916 43.1946 96.9465 42.541 97.1641C42.2895 97.2481 42.0244 97.2998 41.7803 97.4072C41.6326 97.4719 41.5208 97.5384 41.4209 97.6768C41.4059 97.8475 41.4245 97.8456 41.5205 97.9854C41.9832 98.0364 47.0911 96.1788 47.9297 95.8408C48.8423 96.4131 50.0828 97.9113 50.3721 99.0176C50.5932 99.8636 50.1515 100.492 50.2285 101.269C49.5739 100.551 49.0016 99.9097 48.0078 99.8994C47.2017 99.8906 41.9239 100.71 41.5176 101.04C41.483 101.222 41.4972 101.189 41.5791 101.334C41.9881 101.516 42.6014 101.311 43.0254 101.229C44.1424 101.015 47.8218 100.166 48.7422 100.592C49.5443 100.963 50.058 101.928 50.3789 102.768C50.6578 103.497 50.8932 104.44 50.6191 105.206C50.5281 105.461 50.3745 105.682 50.207 105.882C49.681 105.081 49.2017 104.423 48.3643 103.983C47.1675 104.061 45.9718 104.221 44.7793 104.354C44.169 104.422 43.51 104.433 42.9092 104.546C42.7464 104.577 42.6562 104.62 42.5469 104.752C42.5526 104.94 42.5402 104.963 42.6484 105.106C43.4964 105.286 47.017 104.581 48.2041 104.533C48.7991 104.844 49.4145 105.337 49.6445 106.044C49.6982 106.21 49.7172 106.378 49.6494 106.543C49.487 106.938 48.9857 107.128 48.6309 107.229C47.6079 107.52 46.5053 107.53 45.4609 107.703C44.861 109.837 44.2741 112.972 42.3135 114.089C42.1599 114.176 42.0046 114.258 41.8477 114.337C39.2466 115.39 36.5366 116.218 33.9688 117.358C33.9515 117.364 33.9343 117.37 33.917 117.375C32.9931 117.643 30.6256 117 30.125 117.898C29.8669 118.362 29.9202 119.012 30.0635 119.509C30.1132 119.681 30.2008 119.847 30.2949 119.994L30.209 120.021C29.8592 120.001 29.5011 120.013 29.1504 120.011C28.3343 120.133 27.015 120.131 26.1875 120.049C25.3696 119.968 24.7115 119.467 24.2041 118.792C23.0558 117.263 22.7301 115.381 22.9268 113.457C23.1136 111.629 23.6959 109.576 25.0723 108.385C25.0898 108.367 25.1071 108.348 25.125 108.331C27.2415 106.284 29.9577 106.51 32.5986 106.285C33.529 106.206 34.5136 105.987 35.4453 106.056C35.1466 107.132 34.3653 108.878 34.9561 109.968C34.9971 110.044 35.0393 110.083 35.1094 110.125C35.2782 110.109 35.2775 110.115 35.3936 109.981C35.3331 109.606 35.2368 109.194 35.2246 108.813C35.1982 107.99 35.7083 106.854 35.9707 106.072C36.5623 104.578 36.9586 102.928 37.4023 101.373C37.9002 99.6285 38.4472 97.8808 38.874 96.1143C38.9935 95.6917 39.0735 95.2845 39.4551 95.0498C40.5196 94.3964 41.9135 93.9138 43.0576 93.4043C44.2879 92.8569 45.9914 91.9611 47.2383 91.6094Z" fill="#2F3941" fill-opacity="0.15" style="mix-blend-mode:multiply"/>
<path d="M44.6363 111.957C44.831 112.724 45.0218 113.488 45.1838 114.264C45.189 114.236 45.1939 114.208 45.1996 114.18C45.3642 113.361 45.7249 112.302 46.1292 111.588L46.1733 111.575C46.0069 112.578 45.4777 113.655 45.0879 114.582C44.9639 113.796 44.803 113 44.5176 112.261L44.6363 111.957Z" fill="#BAC5CC"/>
<path d="M51.777 114.174C52.0606 113.489 52.3091 112.665 52.7154 112.059C52.8045 112.332 51.9062 114.218 51.7949 114.74C51.5946 113.975 51.3085 113.238 51.0064 112.514C50.9473 112.384 50.9339 112.302 50.9316 112.156L50.9852 112.147C51.3429 112.745 51.5471 113.507 51.777 114.174Z" fill="#BAC5CC"/>
<path d="M15.5037 115.353C15.0598 116.548 14.3041 119.067 13.7609 120.035L13.6746 119.984C13.5485 119.709 12.4098 115.394 12.3867 115.074C12.5015 115.154 12.5304 115.175 12.5853 115.318C12.7384 115.716 12.8212 116.201 12.9294 116.618C13.2089 117.696 13.4629 118.783 13.7661 119.853C14.0216 119.191 15.1975 115.421 15.4587 115.206L15.5037 115.353Z" fill="#A9BAC4"/>
<path d="M20.2527 120.208C19.8442 118.517 19.1026 116.818 18.8535 115.096C19.205 115.364 19.9658 118.871 20.2974 119.664C20.68 118.623 21.4177 116.039 21.924 115.267C21.9899 115.392 21.9561 115.408 21.9253 115.542C21.328 117.073 20.7595 118.639 20.2527 120.208Z" fill="#A9BAC4"/>
<path d="M30.293 119.995C30.1988 119.847 30.1109 119.681 30.0611 119.509C29.9178 119.013 29.8647 118.363 30.1228 117.899C30.6231 117 32.9906 117.643 33.9146 117.375C33.9322 117.37 33.9496 117.364 33.9671 117.358C34.5667 117.635 39.8801 117.316 41.0754 117.442L40.9991 117.45C40.1795 117.522 39.3482 117.432 38.5323 117.511C39.0399 117.522 41.251 117.385 41.5435 117.672C41.883 118.006 42.4707 119.309 42.418 119.824C42.4156 119.847 42.4079 119.87 42.4029 119.893C41.5996 119.893 40.5415 119.762 39.7807 119.999C38.7496 120.136 37.5833 120.015 36.5346 120.012C34.4541 120.02 32.3734 120.015 30.293 119.995Z" fill="#8CA4B7"/>
<path d="M30.2089 120.021L30.2946 119.994C32.3751 120.014 34.4557 120.02 36.5363 120.011C37.5849 120.015 38.7512 120.136 39.7823 119.998C44.2685 120.061 48.7566 119.961 53.2423 120.023C58.9785 120.027 112.271 120.105 112.404 120.025L119.172 120.006C120.157 120.006 121.167 119.945 122.147 119.994C122.364 120.005 122.556 120.03 122.753 120.131L122.834 120.253C122.78 120.426 122.737 120.455 122.61 120.579C121.899 120.736 120.993 120.619 120.253 120.619L115.132 120.618L94.9878 120.628L48.5628 120.634L32.563 120.632C29.9367 120.628 27.2788 120.715 24.6562 120.61C25.4997 120.378 27.7427 120.516 28.7239 120.515L39.7331 120.52C41.8144 120.519 44.0237 120.672 46.0829 120.366C46.2861 120.336 46.4486 120.31 46.6073 120.159C46.4883 120.127 46.5161 120.119 46.4236 120.133C45.8024 120.223 45.2124 120.148 44.5934 120.139C43.8243 120.128 43.0542 120.139 42.285 120.139C39.5469 120.138 36.7951 120.21 34.0588 120.16C33.4552 120.149 32.8556 120.106 32.2512 120.122C31.9376 120.13 31.6236 120.19 31.3112 120.189C30.8217 120.188 30.392 120.074 29.8955 120.166C29.8762 120.17 29.8569 120.174 29.8377 120.178L29.7803 120.115C29.9498 120.109 30.0506 120.098 30.2089 120.021Z" fill="#043E69"/>
<path d="M45.5335 41.4785C44.4824 40.4125 43.7682 39.0608 43.4798 37.5918L27 41.4785C26.4674 44.5255 22.4197 47.0974 20.9322 49.8085C19.603 52.2077 18.5618 55.0867 19.1856 57.7546C19.252 58.0207 19.4003 58.2592 19.6095 58.4365C19.8186 58.6139 20.0782 58.7211 20.3516 58.743C28.3023 59.41 36.3031 59.1702 44.1995 58.0281C44.5362 57.977 44.841 57.7999 45.0521 57.5326C45.2632 57.2654 45.3649 56.928 45.3368 56.5886C45.312 56.0102 45.4153 55.4335 45.6391 54.8995C46.0817 54.0048 46.5701 53.1336 47.1026 52.2892C48.9403 48.8536 48.2014 44.2807 45.5335 41.4785Z" fill="#001825"/>
<path d="M23.8581 55.4189C23.8333 55.3969 23.8106 55.3726 23.7905 55.3463C23.754 55.2944 23.6863 55.2218 23.6135 55.1128C23.4117 54.796 23.2721 54.4439 23.2022 54.0752C23.0978 53.3887 23.1458 52.6877 23.3428 52.0216C23.5397 51.3556 23.8809 50.7407 24.3423 50.2204C24.9767 49.5081 25.7114 48.8912 26.5234 48.3889C27.3771 47.8286 28.3349 47.315 29.2772 46.682C30.2753 46.0526 31.1286 45.2198 31.7811 44.2384C32.1071 43.7175 32.3199 43.1343 32.4057 42.5263C32.4868 41.896 32.4533 41.2563 32.3068 40.6378C31.9651 39.4129 31.5246 38.2174 30.9898 37.0632C30.4834 35.9614 30.1851 34.7759 30.1101 33.5663C30.0482 31.5057 30.6764 29.4832 31.8956 27.8178C32.6876 26.6882 33.7388 25.7633 34.9617 25.12L35.5447 24.8398L35.9924 24.6842C36.1138 24.6367 36.2392 24.6002 36.3672 24.5752C36.2539 24.6385 36.1355 24.6923 36.0132 24.736L35.5811 24.9176L35.0137 25.2133C33.8314 25.8804 32.8181 26.8086 32.0517 27.9268C30.8858 29.5685 30.2916 31.5457 30.3599 33.5559C30.4394 34.7343 30.7359 35.888 31.2345 36.9594C31.7797 38.1313 32.2272 39.346 32.5723 40.5911C32.7219 41.2408 32.7554 41.9117 32.6712 42.573C32.5821 43.218 32.3567 43.8369 32.0101 44.3889C31.3314 45.4007 30.4441 46.2567 29.4073 46.8999C28.4495 47.5329 27.4864 48.0413 26.6379 48.5913C25.8379 49.0725 25.112 49.6667 24.4828 50.3553C24.0314 50.8537 23.692 51.4425 23.4873 52.0823C23.2826 52.722 23.2174 53.3979 23.2959 54.0648C23.3906 54.5491 23.5818 55.0096 23.8581 55.4189Z" fill="#336179"/>
<path d="M37.7231 55.5566C37.6158 55.5116 37.5142 55.4545 37.4203 55.3862C37.1485 55.193 36.9194 54.947 36.7468 54.6633C36.478 54.2094 36.3173 53.7007 36.277 53.1761C36.2216 52.4794 36.2995 51.7787 36.5067 51.1106C36.9296 49.5975 38.2086 48.2188 39.1691 46.4631C39.6922 45.5689 39.9644 44.5527 39.9574 43.5196C39.9041 42.4114 39.6178 41.3263 39.1169 40.3335C38.125 38.268 36.6007 36.6052 35.5462 34.8805C35.0281 34.0741 34.6142 33.2067 34.3141 32.2985C34.0614 31.4942 33.9744 30.6478 34.0583 29.8096C34.1392 28.5827 34.6833 27.4307 35.5827 26.5821C35.8344 26.3709 36.1157 26.197 36.418 26.0658C36.5213 26.0163 36.6298 25.9782 36.7416 25.9521C36.3476 26.1451 35.9808 26.3881 35.6506 26.6751C34.8124 27.5281 34.3153 28.6527 34.2515 29.8405C34.182 30.6532 34.2778 31.4715 34.5334 32.2469C34.8311 33.1404 35.2434 33.9925 35.7602 34.7824C36.2822 35.6241 36.9296 36.4658 37.5717 37.3643C38.2569 38.2737 38.8563 39.2434 39.3623 40.2612C39.8843 41.2877 40.178 42.4128 40.2236 43.561C40.2254 44.6363 39.939 45.6929 39.3936 46.6231C38.3913 48.384 37.1123 49.7215 36.6894 51.188C36.4821 51.8297 36.3936 52.5033 36.4284 53.1761C36.457 53.6815 36.5959 54.1747 36.8356 54.622C37.0615 54.9919 37.364 55.3104 37.7231 55.5566Z" fill="#336179"/>
<defs>
<linearGradient id="paint0_linear_2216_23125" x1="66.2346" y1="5.60713" x2="36.574" y2="59.2622" gradientUnits="userSpaceOnUse">
<stop offset="0.213542" stop-color="#323444"/>
<stop offset="0.6875" stop-color="#2F3941" stop-opacity="0.291667"/>
<stop offset="1" stop-color="#2F3941" stop-opacity="0"/>
</linearGradient>
<linearGradient id="paint1_linear_2216_23125" x1="57.9977" y1="49.7269" x2="57.5371" y2="52.5178" gradientUnits="userSpaceOnUse">
<stop offset="0.213542" stop-color="#323444"/>
<stop offset="0.6875" stop-color="#2F3941" stop-opacity="0.291667"/>
<stop offset="1" stop-color="#2F3941" stop-opacity="0"/>
</linearGradient>
<linearGradient id="paint2_linear_2216_23125" x1="46.5246" y1="96.8711" x2="64.9715" y2="101.404" gradientUnits="userSpaceOnUse">
<stop stop-color="#A3B0BC"/>
<stop offset="1" stop-color="#DDDEDE"/>
</linearGradient>
<linearGradient id="paint3_linear_2216_23125" x1="93.3589" y1="124.225" x2="82.8512" y2="76.8018" gradientUnits="userSpaceOnUse">
<stop stop-color="#626D74"/>
<stop offset="1" stop-color="#C4C8CB"/>
</linearGradient>
<linearGradient id="paint4_linear_2216_23125" x1="88.5147" y1="109.042" x2="88.0017" y2="90.83" gradientUnits="userSpaceOnUse">
<stop stop-color="#99A1A5"/>
<stop offset="1" stop-color="#B8BDBF"/>
</linearGradient>
<linearGradient id="paint5_linear_2216_23125" x1="46.0533" y1="100.21" x2="46.9736" y2="106.559" gradientUnits="userSpaceOnUse">
<stop stop-color="#022C58"/>
<stop offset="1" stop-color="#0E568F"/>
</linearGradient>
<linearGradient id="paint6_linear_2216_23125" x1="28.1431" y1="106.183" x2="20.5582" y2="117.31" gradientUnits="userSpaceOnUse">
<stop offset="0.213542" stop-color="#323444"/>
<stop offset="0.6875" stop-color="#2F3941" stop-opacity="0.291667"/>
<stop offset="1" stop-color="#2F3941" stop-opacity="0"/>
</linearGradient>
</defs>
</svg>
