<svg width="145" height="118" viewBox="0 0 145 118" fill="none" xmlns="http://www.w3.org/2000/svg">
<path opacity="0.8" d="M44 1.99998C74.5 -3 84.294 11.6685 101.5 18.5C118.122 25.0996 133.257 37.2488 139.264 47.8845C147.749 62.9088 146.602 74.0849 137.267 98.1383C117.48 132.092 77.4821 106.518 67 106C46.535 106 41 114.5 25.5 96C13.945 82.2085 3.72092 83.6652 1.00004 71.5C-2.66976 55.092 11 47.5 17.9308 41.4319C28.5 31.5 23 7.5 44 1.99998Z" fill="#FFE8CC"/>
<g opacity="0.87" filter="url(#filter0_d_2075_27070)">
<rect x="1.47968" y="28.5232" width="76.2486" height="67.186" rx="2.27608" transform="rotate(-11.7433 1.47968 28.5232)" fill="white"/>
<rect x="1.64791" y="28.6335" width="75.9641" height="66.9015" rx="2.13382" transform="rotate(-11.7433 1.64791 28.6335)" stroke="#D8DCDE" stroke-width="0.28451"/>
<g clip-path="url(#clip0_2075_27070)">
<path d="M12.7858 33.8418L13.0197 33.4851C13.1918 33.2227 13.1182 32.8689 12.8558 32.6968L12.3814 32.3857C12.119 32.2136 11.7652 32.2871 11.5931 32.5496L11.3592 32.9062L12.7858 33.8418ZM11.6869 34.4828L10.0977 36.9026L9.70493 36.9842L9.62329 36.5914L11.2098 34.1723L11.6869 34.4828ZM11.0453 33.3812L9.01812 36.4761L9.26364 37.6571L10.4447 37.4116L12.4725 34.3195L11.0453 33.3812ZM13.2393 35.8136C13.3661 36.4236 12.7344 36.9356 12.0492 37.0781C11.896 37.1099 11.7446 37.0106 11.7127 36.8574C11.6809 36.7042 11.7802 36.5528 11.9334 36.521C12.3623 36.4318 12.7268 36.1439 12.6822 35.9294C12.655 35.7985 12.4981 35.7149 12.2701 35.6664L12.5966 35.1684C12.9312 35.2819 13.1692 35.4766 13.2393 35.8136ZM8.98222 35.4926C8.67959 35.3928 8.4674 35.2248 8.40602 34.9295C8.30179 34.4281 8.7802 34.0874 9.20312 33.7874C9.46339 33.5996 9.82025 33.3453 9.78782 33.1893C9.76408 33.0751 9.51265 32.9559 9.17281 33.0265C8.82183 33.0995 8.70673 33.3007 8.70011 33.3108C8.62636 33.4453 8.45377 33.4957 8.31709 33.4253C8.18319 33.3543 8.12558 33.189 8.19539 33.0496C8.21793 33.0042 8.43304 32.5991 9.057 32.4694C9.68096 32.3397 10.2477 32.6055 10.3449 33.0735C10.4532 33.5944 9.96483 33.9429 9.53193 34.2508C9.29383 34.4195 8.93418 34.6744 8.96313 34.8137C8.98108 34.9 9.11766 34.9559 9.31099 34.9913L8.98222 35.4926Z" fill="#E34F32"/>
</g>
<rect opacity="0.35" width="34.5901" height="2.44263" rx="1.22132" transform="matrix(0.980208 -0.19797 0.200177 0.97976 16.2113 32.2499)" fill="#49545C"/>
<rect width="66.431" height="0.28451" transform="translate(9.37183 42.7242) rotate(-11.7433)" fill="#E6EBEE"/>
<path d="M11.7321 50.7205L11.9447 51.7433L13.1481 51.4932L13.245 51.9595L12.0417 52.2096L12.2637 53.2776L13.6174 52.9962L13.7144 53.4625L11.789 53.8627L11.0636 50.373L12.9889 49.9727L13.0859 50.439L11.7321 50.7205ZM15.3109 51.6712L16.4942 52.8846L15.8474 53.0191L15.0558 52.2055L14.6892 53.2598L14.0925 53.3839L14.7025 51.8395L13.5182 50.6212L14.165 50.4867L14.9566 51.3003L15.3232 50.2459L15.9199 50.1219L15.3109 51.6712ZM17.0022 50.3206C17.0728 50.1734 17.1826 50.039 17.3316 49.9173C17.4807 49.7957 17.6605 49.713 17.8711 49.6692C18.1118 49.6192 18.3432 49.6338 18.5655 49.7132C18.7903 49.7885 18.9818 49.9213 19.14 50.1116C19.2981 50.3019 19.406 50.5357 19.4637 50.8132C19.5213 51.0906 19.5163 51.3515 19.4485 51.5957C19.38 51.8366 19.2583 52.0397 19.0835 52.2051C18.9113 52.3664 18.7048 52.4721 18.4642 52.5222C18.2536 52.5659 18.0577 52.5631 17.8765 52.5135C17.6947 52.4607 17.5387 52.3815 17.4087 52.276L17.7652 53.9908L17.1936 54.1096L16.3462 50.0333L16.9178 49.9144L17.0022 50.3206ZM18.882 50.9341C18.8424 50.7436 18.7683 50.5881 18.6595 50.4677C18.5535 50.3433 18.428 50.2596 18.283 50.2165C18.1407 50.1693 17.996 50.1611 17.8489 50.1916C17.7052 50.2215 17.5758 50.2868 17.4607 50.3874C17.349 50.4874 17.2676 50.6159 17.2166 50.7729C17.1689 50.9293 17.1648 51.1028 17.2044 51.2933C17.244 51.4838 17.3172 51.643 17.424 51.7707C17.5334 51.8944 17.6592 51.9799 17.8016 52.027C17.9472 52.0734 18.0919 52.0817 18.2356 52.0518C18.3827 52.0213 18.5121 51.956 18.6238 51.8561C18.7382 51.7521 18.8189 51.6202 18.8659 51.4605C18.9163 51.3001 18.9216 51.1246 18.882 50.9341ZM22.5495 50.1142C22.571 50.2178 22.5838 50.3128 22.5878 50.3991L20.4769 50.8379C20.5395 51.0551 20.6582 51.2152 20.8331 51.3183C21.008 51.4215 21.2024 51.4508 21.4163 51.4063C21.7238 51.3424 21.9143 51.1685 21.9879 50.8848L22.6046 50.7566C22.5738 51.028 22.4652 51.2685 22.2786 51.4781C22.0947 51.6838 21.8406 51.8203 21.5164 51.8877C21.2523 51.9426 21.0028 51.9334 20.7679 51.8602C20.5356 51.7829 20.3371 51.6499 20.1723 51.4609C20.0101 51.268 19.8995 51.0294 19.8405 50.7453C19.7814 50.4612 19.7864 50.2004 19.8556 49.9628C19.9275 49.7212 20.0548 49.5204 20.2378 49.3603C20.424 49.1995 20.6525 49.091 20.9233 49.0347C21.184 48.9805 21.4281 48.989 21.6557 49.0603C21.8832 49.1316 22.0753 49.259 22.2321 49.4426C22.3881 49.6229 22.4939 49.8468 22.5495 50.1142ZM21.9153 50.0577C21.8682 49.8478 21.7579 49.6946 21.5844 49.5982C21.4109 49.5017 21.2155 49.4761 20.9983 49.5213C20.8011 49.5623 20.6455 49.6609 20.5315 49.8171C20.4168 49.9699 20.3683 50.1561 20.386 50.3756L21.9153 50.0577ZM23.4939 48.9659C23.5483 48.8081 23.636 48.6765 23.7571 48.5712C23.8808 48.4618 24.0379 48.3873 24.2284 48.3476L24.3514 48.9393L24.206 48.9695C23.9821 49.0161 23.8234 49.1083 23.73 49.2463C23.64 49.3836 23.6242 49.5926 23.6826 49.8734L23.9848 51.3275L23.4132 51.4463L22.8389 48.6836L23.4105 48.5647L23.4939 48.9659ZM24.978 47.8571C24.8743 47.8786 24.7801 47.8616 24.6953 47.806C24.6106 47.7504 24.5574 47.6708 24.5358 47.5671C24.5143 47.4635 24.5313 47.3693 24.5869 47.2845C24.6425 47.1997 24.7222 47.1466 24.8258 47.125C24.9261 47.1042 25.0186 47.1216 25.1034 47.1772C25.1882 47.2328 25.2413 47.3124 25.2629 47.416C25.2844 47.5196 25.2674 47.6138 25.2118 47.6986C25.1562 47.7834 25.0782 47.8362 24.978 47.8571ZM25.3348 48.1647L25.9091 50.9274L25.3375 51.0463L24.7632 48.2835L25.3348 48.1647ZM28.8904 48.796C28.912 48.8996 28.9247 48.9946 28.9287 49.081L26.8178 49.5198C26.8804 49.7369 26.9991 49.8971 27.174 50.0002C27.3489 50.1033 27.5433 50.1327 27.7572 50.0882C28.0647 50.0243 28.2553 49.8504 28.3288 49.5666L28.9455 49.4384C28.9147 49.7098 28.8061 49.9504 28.6195 50.16C28.4356 50.3656 28.1815 50.5021 27.8573 50.5695C27.5932 50.6244 27.3437 50.6153 27.1088 50.542C26.8766 50.4648 26.678 50.3317 26.5132 50.1428C26.3511 49.9498 26.2404 49.7113 26.1814 49.4272C26.1223 49.1431 26.1274 48.8822 26.1966 48.6447C26.2684 48.4031 26.3958 48.2022 26.5787 48.0422C26.7649 47.8814 26.9935 47.7729 27.2642 47.7166C27.5249 47.6624 27.7691 47.6709 27.9966 47.7422C28.2241 47.8134 28.4163 47.9409 28.573 48.1245C28.729 48.3048 28.8348 48.5286 28.8904 48.796ZM28.2562 48.7396C28.2091 48.5297 28.0988 48.3765 27.9253 48.28C27.7519 48.1836 27.5565 48.158 27.3392 48.2031C27.142 48.2441 26.9864 48.3427 26.8724 48.4989C26.7577 48.6518 26.7092 48.838 26.727 49.0575L28.2562 48.7396ZM30.5644 47.0305C30.7816 46.9854 30.9849 46.9902 31.1741 47.045C31.3667 47.0991 31.5299 47.2047 31.6636 47.3617C31.7974 47.5187 31.8903 47.7226 31.9425 47.9733L32.2812 49.6028L31.7146 49.7206L31.3936 48.1763C31.3422 47.9289 31.2411 47.7529 31.0903 47.6483C30.9388 47.5403 30.7561 47.5085 30.5422 47.553C30.3283 47.5975 30.1717 47.6997 30.0725 47.8599C29.9759 48.0159 29.9533 48.2176 30.0047 48.465L30.3257 50.0093L29.7542 50.1281L29.1798 47.3654L29.7514 47.2466L29.8171 47.5625C29.8871 47.4294 29.9873 47.3161 30.1179 47.2227C30.2517 47.1287 30.4006 47.0646 30.5644 47.0305ZM32.5321 48.107C32.473 47.8229 32.4781 47.562 32.5473 47.3245C32.6191 47.0829 32.7448 46.8824 32.9244 46.723C33.104 46.5636 33.3258 46.4565 33.5899 46.4016C33.9241 46.3321 34.2166 46.355 34.4672 46.4703C34.7205 46.5815 34.9161 46.7762 35.0542 47.0544L34.4374 47.1826C34.3588 47.056 34.2563 46.9657 34.1301 46.9118C34.0038 46.8578 33.8571 46.8482 33.6899 46.8829C33.4559 46.9316 33.2861 47.0541 33.1805 47.2504C33.0775 47.4427 33.0569 47.6875 33.1187 47.985C33.1806 48.2825 33.2974 48.5006 33.4692 48.6393C33.6443 48.7772 33.8489 48.8219 34.0829 48.7732C34.4138 48.7044 34.6025 48.5135 34.649 48.2005L35.2657 48.0723C35.2439 48.3697 35.14 48.6249 34.9542 48.8379C34.7676 49.0476 34.5105 49.1865 34.1829 49.2546C33.9189 49.3095 33.6727 49.2996 33.4445 49.225C33.2156 49.147 33.0204 49.0133 32.8589 48.8237C32.7001 48.63 32.5912 48.3911 32.5321 48.107ZM38.2476 46.8509C38.2691 46.9545 38.2819 47.0495 38.2859 47.1358L36.175 47.5746C36.2376 47.7918 36.3563 47.9519 36.5312 48.055C36.706 48.1582 36.9004 48.1875 37.1144 48.143C37.4219 48.0791 37.6124 47.9052 37.6859 47.6215L38.3027 47.4933C38.2719 47.7647 38.1632 48.0052 37.9767 48.2149C37.7927 48.4205 37.5387 48.557 37.2144 48.6244C36.9504 48.6793 36.7009 48.6701 36.466 48.5969C36.2337 48.5196 36.0352 48.3866 35.8704 48.1976C35.7082 48.0047 35.5976 47.7661 35.5385 47.482C35.4795 47.1979 35.4845 46.9371 35.5537 46.6995C35.6255 46.4579 35.7529 46.2571 35.9358 46.097C36.1221 45.9362 36.3506 45.8277 36.6214 45.7714C36.8821 45.7172 37.1262 45.7258 37.3537 45.797C37.5813 45.8683 37.7734 45.9957 37.9301 46.1793C38.0862 46.3596 38.192 46.5835 38.2476 46.8509ZM37.6134 46.7944C37.5663 46.5845 37.456 46.4313 37.2825 46.3349C37.109 46.2384 36.9136 46.2128 36.6964 46.258C36.4991 46.299 36.3435 46.3976 36.2295 46.5538C36.1149 46.7066 36.0664 46.8928 36.0841 47.1123L37.6134 46.7944Z" fill="#003A57"/>
<rect opacity="0.43" width="67.1413" height="3.14403" rx="1.57202" transform="matrix(0.980208 -0.19797 0.200177 0.97976 12.5254 59.2395)" fill="#BBCAD2"/>
<rect opacity="0.43" width="67.1413" height="3.14403" rx="1.57202" transform="matrix(0.980208 -0.19797 0.200177 0.97976 13.4745 63.8048)" fill="#BBCAD2"/>
<rect opacity="0.43" width="22.3059" height="3.14403" rx="1.57202" transform="matrix(0.980208 -0.19797 0.200177 0.97976 14.4235 68.3701)" fill="#BBCAD2"/>
<rect width="66.431" height="0.28451" transform="translate(17.0818 79.8127) rotate(-11.7433)" fill="#E6EBEE"/>
<rect opacity="0.6" width="19.9002" height="3.87049" rx="1.93524" transform="matrix(0.980208 -0.19797 0.200177 0.97976 17.7129 84.1814)" fill="#E9EBED"/>
<rect width="19.9002" height="3.87049" rx="1.93524" transform="matrix(0.980208 -0.19797 0.200177 0.97976 40.5519 79.4336)" fill="#E9EBED"/>
</g>
<g filter="url(#filter1_d_2075_27070)">
<rect x="36.6915" y="8.29089" width="106.671" height="93.9927" rx="3.18421" transform="rotate(4.21895 36.6915 8.29089)" fill="white"/>
<rect x="36.8753" y="8.50401" width="106.273" height="93.5947" rx="2.9852" transform="rotate(4.21895 36.8753 8.50401)" stroke="#D8DCDE" stroke-width="0.398027"/>
<path d="M49.8527 19.7943L50.3045 19.4046C50.637 19.1178 50.6742 18.6137 50.3874 18.2812L49.869 17.6802C49.5822 17.3478 49.0781 17.3106 48.7456 17.5974L48.2938 17.9871L49.8527 19.7943ZM48.1281 20.2338L45.0595 22.877L44.4998 22.8357L44.5411 22.276L47.6057 19.6325L48.1281 20.2338ZM47.6889 18.5052L43.7715 21.888L43.6474 23.5711L45.3304 23.6952L49.2475 20.3164L47.6889 18.5052ZM49.7041 22.621C49.6399 23.4903 48.5933 23.9359 47.6168 23.8639C47.3985 23.8478 47.2331 23.656 47.2492 23.4377C47.2653 23.2193 47.4571 23.0539 47.6754 23.07C48.2867 23.1151 48.8876 22.8681 48.9102 22.5624C48.9239 22.3759 48.7451 22.203 48.4571 22.0501L49.0879 21.5059C49.4942 21.7873 49.7395 22.1407 49.7041 22.621ZM44.1016 20.5514C43.733 20.3007 43.5122 19.9931 43.5432 19.5723C43.5959 18.8578 44.3705 18.5837 45.0548 18.3428C45.4771 18.1904 46.0549 17.9856 46.0713 17.7633C46.0833 17.6005 45.791 17.3435 45.3067 17.3078C44.8066 17.2709 44.5744 17.4972 44.5616 17.5082C44.4106 17.6607 44.1591 17.6621 44.0023 17.5149C43.8495 17.3679 43.8356 17.1234 43.9832 16.9627C44.031 16.9103 44.4761 16.4483 45.3653 16.5139C46.2545 16.5794 46.9144 17.155 46.8652 17.8218C46.8105 18.5641 46.0195 18.845 45.3187 19.0926C44.9336 19.2279 44.3518 19.4324 44.3371 19.6309C44.3281 19.7539 44.4903 19.8816 44.7367 20.0036L44.1016 20.5514Z" fill="#E34F32"/>
<path d="M58.903 19.2799L58.6588 22.5905L58.1158 22.5504L58.2831 20.283L57.106 22.4759L56.7297 22.4481L55.8823 20.1059L55.7151 22.3733L55.172 22.3332L55.4162 19.0227L56.0021 19.0659L56.9729 21.7477L58.3219 19.237L58.903 19.2799ZM61.9286 20.1928L60.034 23.9323L59.4719 23.8909L60.0996 22.6536L59.2564 19.9956L59.8613 20.0403L60.4521 22.0953L61.3665 20.1513L61.9286 20.1928ZM64.1763 20.804L64.0691 22.2568C64.0619 22.3552 64.0788 22.4283 64.12 22.4761C64.1646 22.5209 64.2425 22.5474 64.3536 22.5556L64.687 22.5802L64.6537 23.0327L64.225 23.0011C63.9804 22.983 63.7973 22.912 63.6755 22.7881C63.5538 22.6642 63.5024 22.4736 63.5213 22.2164L63.6285 20.7636L63.3189 20.7407L63.3516 20.2977L63.6612 20.3206L63.7093 19.668L64.2571 19.7084L64.209 20.361L64.8473 20.4081L64.8146 20.8511L64.1763 20.804ZM65.0707 21.732C65.0901 21.4684 65.1613 21.239 65.2843 21.0437C65.4104 20.8487 65.5712 20.7025 65.7668 20.6052C65.9658 20.5049 66.1796 20.4632 66.4082 20.4801C66.6146 20.4953 66.791 20.5498 66.9373 20.6437C67.0871 20.7345 67.2036 20.8437 67.2868 20.9712L67.3149 20.5901L67.8627 20.6305L67.669 23.2551L67.1213 23.2147L67.1501 22.8241C67.0488 22.9412 66.9158 23.0351 66.7509 23.106C66.586 23.1768 66.402 23.2048 66.1988 23.1898C65.9733 23.1731 65.7711 23.1007 65.5922 22.9726C65.4135 22.8413 65.2762 22.6683 65.1803 22.4537C65.0877 22.2362 65.0512 21.9956 65.0707 21.732ZM67.2182 21.9C67.2316 21.719 67.2051 21.559 67.1387 21.42C67.0755 21.2812 66.9861 21.1725 66.8706 21.0937C66.7551 21.015 66.6275 20.9704 66.4878 20.9601C66.348 20.9498 66.2153 20.9751 66.0894 21.0361C65.9638 21.0939 65.858 21.1866 65.772 21.3144C65.6893 21.4392 65.6413 21.5921 65.628 21.7731C65.6146 21.9541 65.6394 22.1156 65.7024 22.2575C65.7685 22.3997 65.8592 22.5118 65.9745 22.5937C66.0932 22.6727 66.2208 22.7173 66.3574 22.7273C66.4971 22.7376 66.6299 22.7123 66.7557 22.6513C66.8815 22.5904 66.9859 22.4959 67.0688 22.3679C67.1551 22.237 67.2049 22.081 67.2182 21.9ZM68.8777 20.3558C68.7792 20.3485 68.6991 20.3091 68.6373 20.2374C68.5756 20.1658 68.5483 20.0808 68.5556 19.9824C68.5628 19.8839 68.6023 19.8038 68.6739 19.7421C68.7455 19.6803 68.8305 19.653 68.929 19.6603C69.0242 19.6673 69.1027 19.7066 69.1645 19.7783C69.2263 19.8499 69.2535 19.9349 69.2463 20.0333C69.239 20.1318 69.1996 20.2119 69.128 20.2736C69.0564 20.3354 68.9729 20.3628 68.8777 20.3558ZM69.1188 20.7232L68.9251 23.3478L68.3821 23.3077L68.5757 20.6831L69.1188 20.7232ZM70.441 19.9155L70.1809 23.4404L69.6379 23.4004L69.8979 19.8755L70.441 19.9155ZM72.029 23.6198C71.7813 23.6016 71.5615 23.5295 71.3697 23.4036C71.178 23.2745 71.0326 23.1041 70.9332 22.8925C70.8341 22.6776 70.7945 22.4352 70.8144 22.1653C70.8341 21.8986 70.9103 21.6663 71.043 21.4686C71.1758 21.2708 71.3479 21.1239 71.5593 21.0277C71.7707 20.9316 72.0019 20.8927 72.2528 20.9112C72.5036 20.9297 72.7266 21.0021 72.9216 21.1282C73.1167 21.2543 73.2653 21.425 73.3676 21.64C73.4698 21.8551 73.5111 22.096 73.4915 22.3628C73.4718 22.6295 73.394 22.8617 73.2581 23.0592C73.1222 23.2567 72.9452 23.4049 72.7272 23.5037C72.5126 23.5996 72.2799 23.6384 72.029 23.6198ZM72.0638 23.1483C72.2035 23.1586 72.3362 23.1348 72.4618 23.0771C72.5905 23.0195 72.6979 22.9269 72.784 22.7991C72.87 22.6713 72.9201 22.5122 72.9342 22.3217C72.9482 22.1311 72.9235 21.9681 72.8601 21.8325C72.7969 21.6937 72.7074 21.5865 72.5917 21.511C72.4759 21.4354 72.3482 21.3924 72.2084 21.3821C72.0687 21.3718 71.9361 21.3955 71.8105 21.4533C71.688 21.5114 71.587 21.6045 71.5073 21.7327C71.4278 21.8577 71.3811 22.0155 71.367 22.2061C71.3462 22.4887 71.4014 22.7131 71.5329 22.8792C71.6677 23.0424 71.8447 23.1321 72.0638 23.1483ZM74.6397 21.5136C74.7289 21.386 74.8413 21.2906 74.9769 21.2271C75.1159 21.1608 75.2759 21.1343 75.4569 21.1476L75.4154 21.7097L75.2773 21.6995C75.0645 21.6838 74.8986 21.7258 74.7795 21.8256C74.6635 21.9256 74.5957 22.109 74.5761 22.3757L74.4742 23.7571L73.9311 23.7171L74.1247 21.0924L74.6678 21.1325L74.6397 21.5136ZM78.2661 22.6527C78.2589 22.7512 78.246 22.8396 78.2274 22.9181L76.222 22.7701C76.2224 22.9809 76.2878 23.155 76.4182 23.2923C76.5485 23.4296 76.7153 23.5058 76.9186 23.5208C77.2107 23.5423 77.4262 23.4353 77.5649 23.1997L78.1508 23.2429C78.0536 23.4784 77.8944 23.6662 77.6734 23.8063C77.4557 23.9435 77.1929 24.0008 76.8848 23.9781C76.634 23.9595 76.4126 23.8873 76.2207 23.7614C76.0323 23.6326 75.8884 23.4623 75.7891 23.2507C75.6932 23.0361 75.6552 22.7938 75.6751 22.5239C75.695 22.2539 75.7664 22.0213 75.8894 21.8261C76.0157 21.6278 76.1815 21.4804 76.3866 21.3838C76.5948 21.2874 76.8276 21.2487 77.0848 21.2677C77.3325 21.286 77.5492 21.3562 77.7349 21.4785C77.9207 21.6007 78.0603 21.7643 78.1537 21.9692C78.2474 22.1708 78.2849 22.3987 78.2661 22.6527ZM77.712 22.4394C77.7235 22.2391 77.6639 22.0735 77.5331 21.9425C77.4023 21.8115 77.2336 21.7384 77.0272 21.7232C76.8399 21.7094 76.6751 21.7579 76.5328 21.8687C76.3907 21.9764 76.2995 22.1309 76.2591 22.3323L77.712 22.4394ZM78.6155 22.7312C78.6349 22.4676 78.7061 22.2382 78.8291 22.0429C78.9552 21.8479 79.1161 21.7017 79.3116 21.6044C79.5106 21.5041 79.726 21.4625 79.9578 21.4796C80.1293 21.4923 80.2948 21.5428 80.4543 21.6312C80.6172 21.7167 80.7433 21.8249 80.8326 21.956L80.9261 20.689L81.4739 20.7294L81.2139 24.2543L80.6661 24.2139L80.6953 23.8185C80.597 23.939 80.4654 24.0346 80.3005 24.1055C80.1388 24.1766 79.9564 24.2046 79.7531 24.1896C79.5245 24.1728 79.3191 24.1002 79.137 23.9718C78.9583 23.8405 78.821 23.6675 78.7251 23.4529C78.6326 23.2353 78.5961 22.9948 78.6155 22.7312ZM80.7631 22.8992C80.7764 22.7182 80.7499 22.5582 80.6835 22.4192C80.6203 22.2804 80.531 22.1717 80.4155 22.0929C80.2999 22.0141 80.1723 21.9696 80.0326 21.9593C79.8929 21.949 79.7601 21.9743 79.6343 22.0353C79.5087 22.0931 79.4029 22.1858 79.3168 22.3136C79.2342 22.4384 79.1862 22.5913 79.1728 22.7723C79.1595 22.9533 79.1843 23.1148 79.2472 23.2567C79.3134 23.3989 79.4041 23.511 79.5194 23.5929C79.6381 23.6719 79.7657 23.7164 79.9022 23.7265C80.042 23.7368 80.1747 23.7115 80.3006 23.6505C80.4264 23.5896 80.5307 23.4951 80.6136 23.3671C80.6999 23.2362 80.7497 23.0802 80.7631 22.8992ZM83.0808 23.0606C83.1003 22.797 83.1715 22.5676 83.2944 22.3723C83.4206 22.1773 83.5814 22.0311 83.777 21.9338C83.9759 21.8335 84.1897 21.7918 84.4184 21.8087C84.6248 21.8239 84.8012 21.8784 84.9475 21.9722C85.0973 22.0631 85.2137 22.1723 85.2969 22.2997L85.325 21.9187L85.8728 21.9591L85.6792 24.5837L85.1314 24.5433L85.1602 24.1527C85.059 24.2697 84.926 24.3637 84.7611 24.4345C84.5962 24.5054 84.4122 24.5333 84.2089 24.5183C83.9835 24.5017 83.7813 24.4293 83.6023 24.3012C83.4236 24.1699 83.2863 23.9969 83.1904 23.7823C83.0979 23.5647 83.0614 23.3242 83.0808 23.0606ZM85.2284 23.2286C85.2418 23.0476 85.2152 22.8876 85.1489 22.7486C85.0857 22.6098 84.9963 22.5011 84.8808 22.4223C84.7653 22.3435 84.6377 22.299 84.4979 22.2887C84.3582 22.2784 84.2254 22.3037 84.0996 22.3647C83.974 22.4224 83.8682 22.5152 83.7821 22.643C83.6995 22.7678 83.6515 22.9207 83.6381 23.1017C83.6248 23.2827 83.6496 23.4442 83.7126 23.5861C83.7787 23.7283 83.8694 23.8403 83.9847 23.9223C84.1034 24.0013 84.231 24.0458 84.3676 24.0559C84.5073 24.0662 84.6401 24.0409 84.7659 23.9799C84.8917 23.919 84.9961 23.8245 85.0789 23.6965C85.1652 23.5656 85.2151 23.4096 85.2284 23.2286ZM86.3083 23.3082C86.3282 23.0383 86.3996 22.8057 86.5226 22.6105C86.6489 22.4122 86.8131 22.2647 87.015 22.1678C87.2169 22.071 87.4433 22.0318 87.6942 22.0503C88.0117 22.0737 88.2681 22.1693 88.4633 22.3369C88.6618 22.5017 88.7873 22.7264 88.8398 23.0113L88.2539 22.9681C88.2158 22.8343 88.1471 22.7271 88.0477 22.6463C87.9483 22.5656 87.8192 22.5193 87.6604 22.5076C87.4381 22.4912 87.2544 22.5575 87.1094 22.7064C86.9677 22.8524 86.8864 23.0667 86.8656 23.3494C86.8447 23.632 86.8935 23.8575 87.012 24.0259C87.1337 24.1945 87.3057 24.287 87.528 24.3034C87.8423 24.3266 88.0605 24.2038 88.1825 23.935L88.7684 23.9782C88.6725 24.2394 88.5139 24.4416 88.2926 24.5849C88.0716 24.725 87.8054 24.7836 87.4942 24.7607C87.2434 24.7422 87.0252 24.6702 86.8396 24.5448C86.6544 24.4162 86.5137 24.2461 86.4175 24.0347C86.3248 23.8203 86.2883 23.5782 86.3083 23.3082ZM90.0427 22.7121L89.9356 24.1649C89.9283 24.2634 89.9453 24.3364 89.9864 24.3842C90.031 24.429 90.1089 24.4555 90.22 24.4637L90.5535 24.4883L90.5201 24.9408L90.0914 24.9092C89.8469 24.8911 89.6637 24.8201 89.542 24.6962C89.4202 24.5723 89.3688 24.3817 89.3878 24.1245L89.495 22.6717L89.1853 22.6488L89.218 22.2058L89.5276 22.2287L89.5758 21.5761L90.1236 21.6165L90.0754 22.2691L90.7137 22.3162L90.681 22.7592L90.0427 22.7121ZM91.516 22.0257C91.4175 22.0185 91.3374 21.979 91.2756 21.9074C91.2139 21.8358 91.1866 21.7508 91.1939 21.6524C91.2011 21.5539 91.2406 21.4738 91.3122 21.412C91.3838 21.3503 91.4688 21.323 91.5673 21.3303C91.6625 21.3373 91.741 21.3766 91.8028 21.4482C91.8646 21.5198 91.8918 21.6049 91.8846 21.7033C91.8773 21.8017 91.8379 21.8819 91.7663 21.9436C91.6947 22.0054 91.6112 22.0328 91.516 22.0257ZM91.7571 22.3931L91.5634 25.0178L91.0204 24.9777L91.214 22.3531L91.7571 22.3931ZM93.3267 24.6593L94.2275 22.5754L94.8039 22.6179L93.61 25.1687L92.9621 25.1209L92.1602 22.4229L92.7413 22.4657L93.3267 24.6593ZM95.5161 22.3208C95.4177 22.3136 95.3376 22.2741 95.2758 22.2025C95.214 22.1309 95.1868 22.0459 95.194 21.9474C95.2013 21.849 95.2407 21.7689 95.3123 21.7071C95.3839 21.6454 95.469 21.6181 95.5674 21.6254C95.6627 21.6324 95.7412 21.6717 95.803 21.7433C95.8647 21.8149 95.892 21.8999 95.8847 21.9984C95.8775 22.0968 95.838 22.1769 95.7664 22.2387C95.6948 22.3005 95.6114 22.3278 95.5161 22.3208ZM95.7572 22.6882L95.5636 25.3128L95.0206 25.2728L95.2142 22.6482L95.7572 22.6882ZM97.0708 23.2305L96.9637 24.6834C96.9564 24.7818 96.9734 24.8549 97.0145 24.9026C97.0591 24.9474 97.137 24.9739 97.2481 24.9821L97.5816 25.0067L97.5482 25.4592L97.1195 25.4276C96.875 25.4096 96.6918 25.3386 96.5701 25.2147C96.4483 25.0907 96.3969 24.9002 96.4159 24.6429L96.523 23.1901L96.2134 23.1673L96.2461 22.7243L96.5557 22.7471L96.6039 22.0945L97.1517 22.135L97.1035 22.7875L97.7418 22.8346L97.7091 23.2776L97.0708 23.2305ZM100.605 23.0458L98.7101 26.7854L98.148 26.7439L98.7757 25.5067L97.9325 22.8487L98.5375 22.8933L99.1282 24.9484L100.043 23.0044L100.605 23.0458Z" fill="#2F3941"/>
<rect width="93.2039" height="0.398026" transform="translate(41.7991 31.0271) rotate(4.21895)" fill="#E6EBEE"/>
<path d="M44.0975 41.5942L44.0485 42.2587L41.9407 42.1032L41.8327 43.5679L43.476 43.6891L43.427 44.3536L41.7837 44.2324L41.6234 46.4045L40.8089 46.3444L41.1752 41.3786L44.0975 41.5942ZM48.3419 42.9418L48.0515 46.8787L47.2369 46.8186L47.2712 46.3542C47.1306 46.5066 46.9521 46.6228 46.7354 46.7026C46.5239 46.778 46.3015 46.8071 46.0681 46.7898C45.7585 46.767 45.4845 46.6821 45.2463 46.5353C45.0129 46.3887 44.834 46.184 44.7098 45.921C44.5902 45.6583 44.5437 45.3484 44.57 44.9911L44.7408 42.6761L45.5482 42.7357L45.3864 44.9292C45.3604 45.2817 45.4285 45.5597 45.5906 45.7632C45.7532 45.962 45.9869 46.0726 46.2917 46.0951C46.5966 46.1176 46.844 46.0425 47.0339 45.8697C47.229 45.6925 47.3395 45.4277 47.3655 45.0752L47.5274 42.8817L48.3419 42.9418ZM51.4077 43.1033C51.7173 43.1261 51.9888 43.2108 52.2223 43.3573C52.4605 43.5042 52.6393 43.709 52.7589 43.9716C52.8784 44.2343 52.925 44.5442 52.8986 44.9015L52.7273 47.2236L51.9199 47.1641L52.0823 44.9634C52.1083 44.6109 52.04 44.3353 51.8774 44.1365C51.7153 43.9329 51.4817 43.8199 51.1769 43.7974C50.872 43.775 50.6221 43.8523 50.427 44.0295C50.237 44.2023 50.1291 44.4649 50.1031 44.8174L49.9407 47.0181L49.1262 46.958L49.4166 43.021L50.2311 43.0811L50.1979 43.5313C50.3433 43.3791 50.5217 43.2654 50.7332 43.19C50.9494 43.115 51.1743 43.086 51.4077 43.1033ZM53.6403 45.3082C53.6701 44.9033 53.7773 44.5544 53.9617 44.2615C54.1513 43.9642 54.3975 43.7429 54.7004 43.5976C55.0032 43.4523 55.3428 43.3935 55.7191 43.4213C56.1954 43.4564 56.58 43.5998 56.8727 43.8512C57.1706 44.0983 57.3589 44.4355 57.4375 44.8627L56.5587 44.7979C56.5016 44.5973 56.3985 44.4365 56.2494 44.3153C56.1003 44.1942 55.9067 44.1248 55.6685 44.1072C55.3351 44.0826 55.0595 44.182 54.8419 44.4054C54.6294 44.6244 54.5075 44.9459 54.4762 45.3699C54.445 45.7938 54.5182 46.1321 54.6959 46.3846C54.8784 46.6376 55.1364 46.7763 55.4698 46.8009C55.9414 46.8357 56.2687 46.6515 56.4517 46.2483L57.3305 46.3132C57.1867 46.7049 56.9488 47.0082 56.6168 47.2232C56.2852 47.4334 55.886 47.5213 55.4192 47.4868C55.0429 47.4591 54.7156 47.3511 54.4373 47.163C54.1594 46.9701 53.9484 46.715 53.8041 46.3979C53.665 46.0763 53.6104 45.7131 53.6403 45.3082ZM59.2422 44.414L59.0815 46.5932C59.0706 46.7409 59.096 46.8505 59.1578 46.9221C59.2247 46.9893 59.3415 47.029 59.5082 47.0413L60.0083 47.0782L59.9583 47.757L59.3152 47.7096C58.9484 47.6825 58.6737 47.5761 58.4911 47.3902C58.3084 47.2043 58.2313 46.9184 58.2598 46.5326L58.4206 44.3533L57.9561 44.3191L58.0051 43.6546L58.4696 43.6889L58.5418 42.71L59.3635 42.7706L59.2913 43.7495L60.2487 43.8201L60.1997 44.4846L59.2422 44.414ZM61.4523 43.3845C61.3046 43.3736 61.1845 43.3144 61.0918 43.207C60.9992 43.0996 60.9583 42.9721 60.9692 42.8244C60.9801 42.6767 61.0392 42.5566 61.1467 42.4639C61.2541 42.3713 61.3816 42.3304 61.5293 42.3413C61.6722 42.3518 61.7899 42.4108 61.8826 42.5182C61.9752 42.6256 62.0161 42.7532 62.0052 42.9008C61.9943 43.0485 61.9352 43.1686 61.8278 43.2613C61.7204 43.3539 61.5952 43.395 61.4523 43.3845ZM61.814 43.9356L61.5235 47.8725L60.709 47.8124L60.9994 43.8755L61.814 43.9356ZM64.2959 48.1417C63.9243 48.1142 63.5947 48.0061 63.3069 47.8173C63.0194 47.6236 62.8012 47.3681 62.6522 47.0506C62.5036 46.7283 62.4442 46.3647 62.4741 45.9598C62.5036 45.5597 62.6179 45.2113 62.817 44.9147C63.016 44.6181 63.2742 44.3977 63.5913 44.2535C63.9085 44.1092 64.2552 44.051 64.6315 44.0788C65.0078 44.1065 65.3423 44.215 65.6348 44.4042C65.9274 44.5934 66.1503 44.8493 66.3038 45.1719C66.4572 45.4946 66.5191 45.8559 66.4896 46.2561C66.4601 46.6562 66.3434 47.0044 66.1395 47.3006C65.9357 47.5969 65.6702 47.8192 65.3432 47.9675C65.0213 48.1114 64.6722 48.1694 64.2959 48.1417ZM64.3481 47.4343C64.5576 47.4498 64.7566 47.4141 64.945 47.3275C65.1382 47.2411 65.2993 47.1022 65.4284 46.9105C65.5574 46.7189 65.6325 46.4802 65.6536 46.1944C65.6747 45.9086 65.6377 45.664 65.5425 45.4606C65.4477 45.2525 65.3135 45.0917 65.1399 44.9783C64.9662 44.8649 64.7746 44.8005 64.565 44.7851C64.3555 44.7696 64.1565 44.8052 63.9681 44.8919C63.7845 44.9789 63.6329 45.1186 63.5133 45.3109C63.3941 45.4985 63.324 45.7352 63.3029 46.021C63.2716 46.4449 63.3545 46.7815 63.5517 47.0307C63.7539 47.2755 64.0194 47.41 64.3481 47.4343ZM69.4308 44.4328C69.7404 44.4556 70.012 44.5403 70.2454 44.6868C70.4836 44.8337 70.6625 45.0385 70.782 45.3011C70.9015 45.5638 70.9481 45.8737 70.9217 46.231L70.7504 48.5531L69.943 48.4936L70.1054 46.2929C70.1314 45.9404 70.0631 45.6648 69.9006 45.466C69.7384 45.2625 69.5049 45.1495 69.2 45.127C68.8952 45.1045 68.6452 45.1818 68.4501 45.359C68.2602 45.5318 68.1522 45.7944 68.1262 46.1469L67.9639 48.3476L67.1493 48.2875L67.4397 44.3506L68.2543 44.4107L68.2211 44.8608C68.3664 44.7087 68.5448 44.5949 68.7563 44.5195C68.9726 44.4445 69.1974 44.4156 69.4308 44.4328ZM71.6644 46.6234C71.6936 46.2281 71.8004 45.8839 71.9849 45.591C72.1741 45.2985 72.4153 45.0792 72.7087 44.9332C73.0071 44.7828 73.3278 44.7203 73.6708 44.7456C73.9804 44.7684 74.245 44.8502 74.4645 44.9909C74.6891 45.1272 74.8638 45.2909 74.9886 45.4821L75.0308 44.9105L75.8524 44.9712L75.562 48.9081L74.7403 48.8475L74.7836 48.2616C74.6317 48.4372 74.4321 48.5781 74.1848 48.6844C73.9375 48.7906 73.6615 48.8325 73.3566 48.81C73.0184 48.7851 72.7151 48.6765 72.4467 48.4843C72.1787 48.2873 71.9727 48.0279 71.8288 47.706C71.6901 47.3796 71.6353 47.0188 71.6644 46.6234ZM74.8858 46.8754C74.9058 46.6039 74.8661 46.3639 74.7665 46.1554C74.6717 45.9473 74.5377 45.7841 74.3644 45.666C74.1911 45.5478 73.9997 45.481 73.7901 45.4656C73.5805 45.4501 73.3813 45.4881 73.1926 45.5795C73.0042 45.6662 72.8455 45.8054 72.7164 45.997C72.5924 46.1842 72.5204 46.4136 72.5004 46.6851C72.4804 46.9566 72.5176 47.1988 72.612 47.4117C72.7113 47.625 72.8473 47.7931 73.0202 47.916C73.1983 48.0345 73.3897 48.1013 73.5945 48.1164C73.8041 48.1319 74.0033 48.0939 74.192 48.0024C74.3808 47.911 74.5373 47.7693 74.6616 47.5773C74.7911 47.3809 74.8658 47.1469 74.8858 46.8754ZM77.8365 43.7597L77.4464 49.0471L76.6319 48.987L77.0219 43.6997L77.8365 43.7597ZM83.9463 44.5337L83.8973 45.1982L82.5755 45.1007L82.2582 49.402L81.4436 49.342L81.7609 45.0406L80.4319 44.9426L80.481 44.2781L83.9463 44.5337ZM88.1655 47.7617C88.1546 47.9093 88.1352 48.042 88.1074 48.1597L85.0993 47.9378C85.1 48.2539 85.198 48.515 85.3936 48.721C85.5891 48.927 85.8393 49.0412 86.1442 49.0637C86.5824 49.096 86.9055 48.9355 87.1136 48.5821L87.9924 48.6469C87.8467 49.0001 87.608 49.2818 87.2764 49.492C86.9499 49.6979 86.5556 49.7837 86.0936 49.7496C85.7173 49.7219 85.3852 49.6136 85.0974 49.4247C84.8147 49.2314 84.5989 48.9761 84.4499 48.6585C84.306 48.3366 84.249 47.9732 84.2789 47.5683C84.3088 47.1635 84.4159 46.8146 84.6004 46.5216C84.7899 46.2243 85.0385 46.0032 85.3461 45.8583C85.6585 45.7137 86.0076 45.6556 86.3935 45.6841C86.765 45.7115 87.0901 45.8169 87.3687 46.0003C87.6473 46.1837 87.8567 46.429 87.9969 46.7363C88.1374 47.0388 88.1936 47.3806 88.1655 47.7617ZM87.3342 47.4417C87.3516 47.1413 87.2622 46.8928 87.0659 46.6963C86.8697 46.4999 86.6168 46.3902 86.3071 46.3674C86.0261 46.3466 85.7789 46.4194 85.5655 46.5857C85.3524 46.7471 85.2156 46.9789 85.155 47.281L87.3342 47.4417ZM90.239 50.0554C89.9294 50.0326 89.6548 49.9573 89.4152 49.8294C89.1807 49.6972 88.999 49.5305 88.8702 49.3294C88.7417 49.1236 88.6814 48.9013 88.6895 48.6624L89.5326 48.7246C89.5346 48.8923 89.6028 49.0387 89.7373 49.1635C89.8769 49.284 90.0562 49.3523 90.2753 49.3684C90.504 49.3853 90.6834 49.3554 90.8136 49.2788C90.9488 49.1978 91.0216 49.0882 91.0318 48.9501C91.0427 48.8024 90.9793 48.6876 90.8417 48.6056C90.7088 48.524 90.4931 48.429 90.1946 48.3208C89.9052 48.2181 89.6705 48.1217 89.4903 48.0318C89.3102 47.9419 89.1568 47.8132 89.0303 47.6458C88.9085 47.4788 88.8571 47.2667 88.8761 47.0095C88.8915 46.7999 88.9675 46.6139 89.104 46.4516C89.2409 46.2845 89.4273 46.1593 89.6633 46.0762C89.9041 45.9933 90.1745 45.963 90.4746 45.9851C90.9224 46.0182 91.2736 46.159 91.5282 46.4077C91.788 46.652 91.913 46.9701 91.9032 47.3621L91.0887 47.302C91.0874 47.1247 91.0263 46.9789 90.9054 46.8646C90.7846 46.7503 90.6146 46.6851 90.3955 46.669C90.1811 46.6532 90.0138 46.6815 89.8935 46.7541C89.7732 46.8266 89.7081 46.9296 89.6983 47.0629C89.6906 47.1677 89.7222 47.2587 89.7931 47.3357C89.864 47.4128 89.9527 47.4768 90.0591 47.5278C90.1659 47.574 90.3241 47.6359 90.5339 47.7137C90.8141 47.811 91.0417 47.9068 91.2167 48.0011C91.3969 48.091 91.548 48.2171 91.6701 48.3794C91.7923 48.5416 91.8464 48.7492 91.8326 49.002C91.816 49.2259 91.7394 49.4214 91.6025 49.5885C91.4657 49.7556 91.2792 49.8807 91.0432 49.9639C90.8119 50.0474 90.5439 50.0779 90.239 50.0554ZM93.8232 46.9649L93.6624 49.1442C93.6516 49.2918 93.677 49.4015 93.7388 49.4731C93.8056 49.5403 93.9224 49.58 94.0892 49.5923L94.5893 49.6292L94.5392 50.308L93.8962 50.2606C93.5294 50.2335 93.2547 50.127 93.072 49.9411C92.8894 49.7552 92.8123 49.4694 92.8408 49.0836L93.0015 46.9043L92.5371 46.8701L92.5861 46.2056L93.0505 46.2398L93.1228 45.2609L93.9444 45.3216L93.8722 46.3004L94.8297 46.3711L94.7806 47.0356L93.8232 46.9649ZM99.0379 47.3496L98.3091 47.2958L98.0677 50.5683L97.246 50.5077L97.4874 47.2352L97.023 47.201L97.072 46.5365L97.5365 46.5707L97.557 46.2921C97.5904 45.8396 97.7337 45.5197 97.987 45.3324C98.2454 45.1407 98.6318 45.0639 99.1463 45.1018L99.0962 45.7806C98.8485 45.7623 98.6711 45.7972 98.5641 45.885C98.4574 45.9682 98.3956 46.1241 98.3787 46.3527L98.3581 46.6314L99.0869 46.6851L99.0379 47.3496ZM101.221 50.8656C100.85 50.8382 100.52 50.73 100.232 50.5412C99.9449 50.3476 99.7267 50.092 99.5777 49.7745C99.429 49.4522 99.3696 49.0886 99.3995 48.6838C99.429 48.2836 99.5433 47.9353 99.7424 47.6386C99.9415 47.342 100.2 47.1216 100.517 46.9774C100.834 46.8331 101.181 46.7749 101.557 46.8027C101.933 46.8304 102.268 46.9389 102.56 47.1281C102.853 47.3173 103.076 47.5732 103.229 47.8959C103.383 48.2185 103.445 48.5798 103.415 48.98C103.386 49.3801 103.269 49.7283 103.065 50.0246C102.861 50.3208 102.596 50.5431 102.269 50.6914C101.947 50.8353 101.598 50.8933 101.221 50.8656ZM101.274 50.1582C101.483 50.1737 101.682 50.1381 101.87 50.0514C102.064 49.9651 102.225 49.8261 102.354 49.6344C102.483 49.4428 102.558 49.2041 102.579 48.9183C102.6 48.6325 102.563 48.3879 102.468 48.1845C102.373 47.9764 102.239 47.8156 102.065 47.7022C101.892 47.5889 101.7 47.5244 101.49 47.509C101.281 47.4935 101.082 47.5291 100.894 47.6158C100.71 47.7028 100.558 47.8425 100.439 48.0348C100.32 48.2224 100.249 48.4591 100.228 48.7449C100.197 49.1688 100.28 49.5054 100.477 49.7546C100.679 49.9994 100.945 50.134 101.274 50.1582ZM105.138 47.7062C105.271 47.5149 105.44 47.3717 105.643 47.2765C105.852 47.177 106.092 47.1372 106.363 47.1572L106.301 48.0003L106.094 47.9851C105.775 47.9615 105.526 48.0246 105.347 48.1742C105.173 48.3242 105.072 48.5993 105.042 48.9994L104.889 51.0715L104.075 51.0114L104.365 47.0745L105.18 47.1346L105.138 47.7062ZM114.27 46.7706L113.903 51.7364L113.089 51.6763L113.34 48.2753L111.574 51.5646L111.009 51.523L109.738 48.0096L109.488 51.4107L108.673 51.3506L109.039 46.3848L109.918 46.4496L111.374 50.4723L113.398 46.7063L114.27 46.7706ZM116.677 52.0057C116.305 51.9783 115.975 51.8701 115.688 51.6813C115.4 51.4877 115.182 51.2321 115.033 50.9146C114.884 50.5923 114.825 50.2288 114.855 49.8239C114.884 49.4237 114.999 49.0754 115.198 48.7788C115.397 48.4821 115.655 48.2617 115.972 48.1175C116.289 47.9733 116.636 47.915 117.012 47.9428C117.389 47.9705 117.723 48.079 118.016 48.2682C118.308 48.4574 118.531 48.7133 118.685 49.036C118.838 49.3586 118.9 49.72 118.87 50.1201C118.841 50.5202 118.724 50.8684 118.52 51.1647C118.317 51.4609 118.051 51.6832 117.724 51.8315C117.402 51.9754 117.053 52.0334 116.677 52.0057ZM116.729 51.2983C116.938 51.3138 117.137 51.2782 117.326 51.1915C117.519 51.1052 117.68 50.9662 117.809 50.7746C117.938 50.5829 118.013 50.3442 118.034 50.0584C118.056 49.7726 118.018 49.528 117.923 49.3246C117.829 49.1165 117.694 48.9557 117.521 48.8424C117.347 48.729 117.155 48.6645 116.946 48.6491C116.736 48.6336 116.537 48.6692 116.349 48.7559C116.165 48.8429 116.014 48.9826 115.894 49.175C115.775 49.3625 115.705 49.5992 115.684 49.885C115.652 50.3089 115.735 50.6455 115.933 50.8947C116.135 51.1395 116.4 51.2741 116.729 51.2983ZM120.592 48.8606C120.744 48.6802 120.944 48.5393 121.191 48.4378C121.443 48.3319 121.716 48.2898 122.012 48.3116C122.359 48.3372 122.668 48.4438 122.936 48.6312C123.205 48.8187 123.409 49.0732 123.548 49.3947C123.688 49.7115 123.743 50.0676 123.714 50.463C123.684 50.8583 123.577 51.2072 123.392 51.5097C123.207 51.8074 122.966 52.0338 122.667 52.1889C122.373 52.3397 122.055 52.4024 121.712 52.3771C121.407 52.3546 121.14 52.275 120.91 52.1384C120.686 52.0021 120.511 51.836 120.387 51.64L120.345 52.2116L119.53 52.1515L119.92 46.8642L120.735 46.9243L120.592 48.8606ZM122.885 50.4018C122.905 50.1303 122.865 49.8927 122.765 49.689C122.67 49.4808 122.534 49.3199 122.355 49.2062C122.182 49.088 121.99 49.0212 121.781 49.0058C121.576 48.9906 121.377 49.0286 121.183 49.1197C120.995 49.2112 120.836 49.3527 120.707 49.5443C120.582 49.7363 120.51 49.9681 120.49 50.2396C120.47 50.5111 120.507 50.7533 120.602 50.9662C120.701 51.1747 120.838 51.338 121.011 51.4562C121.189 51.5747 121.381 51.6415 121.585 51.6566C121.795 51.672 121.994 51.634 122.183 51.5426C122.377 51.4467 122.536 51.3004 122.661 51.1037C122.79 50.9073 122.865 50.6734 122.885 50.4018ZM125.116 48.0808C124.968 48.0699 124.848 48.0107 124.755 47.9033C124.663 47.7959 124.622 47.6684 124.633 47.5207C124.644 47.3731 124.703 47.2529 124.81 47.1602C124.918 47.0676 125.045 47.0267 125.193 47.0376C125.336 47.0482 125.454 47.1071 125.546 47.2145C125.639 47.3219 125.68 47.4495 125.669 47.5971C125.658 47.7448 125.599 47.865 125.491 47.9576C125.384 48.0503 125.259 48.0913 125.116 48.0808ZM125.478 48.6319L125.187 52.5688L124.373 52.5087L124.663 48.5718L125.478 48.6319ZM127.461 47.4205L127.071 52.7078L126.257 52.6477L126.647 47.3604L127.461 47.4205ZM131.901 50.9879C131.89 51.1356 131.871 51.2683 131.843 51.386L128.835 51.1641C128.836 51.4802 128.934 51.7413 129.129 51.9473C129.325 52.1533 129.575 52.2675 129.88 52.29C130.318 52.3223 130.641 52.1618 130.849 51.8083L131.728 51.8732C131.582 52.2264 131.344 52.5081 131.012 52.7183C130.685 52.9241 130.291 53.01 129.829 52.9759C129.453 52.9481 129.121 52.8398 128.833 52.651C128.55 52.4577 128.334 52.2023 128.185 51.8848C128.042 51.5629 127.985 51.1995 128.014 50.7946C128.044 50.3897 128.151 50.0408 128.336 49.7479C128.525 49.4506 128.774 49.2295 129.082 49.0845C129.394 48.94 129.743 48.8819 130.129 48.9104C130.501 48.9378 130.826 49.0432 131.104 49.2266C131.383 49.41 131.592 49.6553 131.732 49.9626C131.873 50.2651 131.929 50.6069 131.901 50.9879ZM131.07 50.668C131.087 50.3675 130.998 50.1191 130.802 49.9226C130.605 49.7262 130.352 49.6165 130.043 49.5937C129.762 49.5729 129.514 49.6457 129.301 49.8119C129.088 49.9734 128.951 50.2052 128.891 50.5072L131.07 50.668ZM43.9101 56.6004L43.341 55.9406C43.0852 56.1612 42.8124 56.3206 42.5226 56.419C42.2332 56.5126 41.9146 56.5465 41.5668 56.5209C41.2143 56.4949 40.9069 56.4099 40.6445 56.2661C40.3822 56.1222 40.1856 55.9305 40.0548 55.691C39.9243 55.4467 39.8703 55.1721 39.8928 54.8672C39.9181 54.5243 40.0383 54.2266 40.2532 53.9743C40.4686 53.7172 40.7749 53.5242 41.1724 53.3955C41.0465 53.2186 40.9603 53.0566 40.9137 52.9095C40.8674 52.7576 40.8508 52.5935 40.8638 52.4173C40.88 52.1982 40.9491 52.0069 41.0713 51.8435C41.1983 51.6805 41.3703 51.5567 41.5873 51.4721C41.8042 51.3875 42.0508 51.3554 42.3271 51.3758C42.6082 51.3965 42.8423 51.4689 43.0295 51.5928C43.2218 51.7124 43.3588 51.8686 43.4403 52.0614C43.5267 52.2545 43.5519 52.4647 43.516 52.692L42.7014 52.6319C42.7192 52.456 42.6863 52.3171 42.6029 52.2151C42.5197 52.1084 42.3996 52.0493 42.2424 52.0377C42.0852 52.0261 41.9531 52.0642 41.846 52.1521C41.7441 52.2356 41.6882 52.344 41.6783 52.4774C41.6688 52.606 41.6951 52.7372 41.757 52.8711C41.8241 53.0006 41.9432 53.1722 42.1142 53.386L43.3324 54.7905L43.9014 53.9919L44.7802 54.0568L44.056 55.1097L43.8558 55.3894L44.9747 56.6789L43.9101 56.6004ZM41.618 55.8278C42.0657 55.8608 42.4746 55.7066 42.8446 55.3651L41.6274 53.9463C41.0488 54.1287 40.7429 54.4462 40.7095 54.8987C40.6916 55.1417 40.7669 55.3532 40.9357 55.5332C41.1047 55.7085 41.3322 55.8067 41.618 55.8278ZM54.1974 52.3664L52.3592 57.2236L51.4375 57.1556L50.6716 53.3204L49.2868 56.997L48.3717 56.9367L47.331 51.8599L48.1956 51.9236L48.9261 56.0436L50.3391 52.0818L51.2536 52.1492L51.9929 56.2483L53.3257 52.3021L54.1974 52.3664ZM58.2635 55.583C58.2526 55.7307 58.2332 55.8634 58.2054 55.981L55.1973 55.7591C55.1979 56.0753 55.296 56.3363 55.4915 56.5423C55.6871 56.7483 55.9373 56.8626 56.2421 56.8851C56.6804 56.9174 57.0035 56.7568 57.2116 56.4034L58.0904 56.4682C57.9446 56.8215 57.7059 57.1032 57.3743 57.3134C57.0478 57.5192 56.6536 57.6051 56.1915 57.571C55.8152 57.5432 55.4832 57.4349 55.1954 57.2461C54.9127 57.0528 54.6969 56.7974 54.5479 56.4799C54.404 56.158 54.347 55.7946 54.3768 55.3897C54.4067 54.9848 54.5139 54.6359 54.6983 54.343C54.8879 54.0457 55.1365 53.8246 55.4441 53.6796C55.7565 53.535 56.1056 53.477 56.4914 53.5054C56.863 53.5329 57.1881 53.6383 57.4667 53.8216C57.7453 54.005 57.9547 54.2504 58.0949 54.5576C58.2354 54.8602 58.2916 55.2019 58.2635 55.583ZM57.4322 55.2631C57.4496 54.9626 57.3601 54.7142 57.1639 54.5177C56.9677 54.3212 56.7147 54.2116 56.4051 54.1887C56.1241 54.168 55.8768 54.2408 55.6634 54.407C55.4504 54.5685 55.3135 54.8003 55.2529 55.1023L57.4322 55.2631ZM59.9745 54.4161C60.1267 54.2358 60.3262 54.0948 60.5732 53.9933C60.8253 53.8874 61.0989 53.8453 61.3943 53.8671C61.742 53.8928 62.0502 53.9993 62.319 54.1868C62.5877 54.3742 62.7916 54.6287 62.9308 54.9503C63.0702 55.2671 63.1254 55.6232 63.0962 56.0185C63.067 56.4139 62.9599 56.7628 62.7747 57.0652C62.59 57.3629 62.3482 57.5893 62.0493 57.7445C61.7557 57.8952 61.4373 57.958 61.0944 57.9327C60.7895 57.9102 60.5224 57.8306 60.293 57.6939C60.0684 57.5576 59.8939 57.3915 59.7694 57.1956L59.7273 57.7672L58.9127 57.7071L59.3028 52.4197L60.1173 52.4798L59.9745 54.4161ZM62.2674 55.9574C62.2874 55.6859 62.2475 55.4483 62.1476 55.2445C62.0528 55.0364 61.9162 54.8755 61.7378 54.7617C61.5645 54.6436 61.3731 54.5768 61.1635 54.5613C60.9586 54.5462 60.7595 54.5842 60.566 54.6753C60.3772 54.7667 60.2183 54.9083 60.0893 55.0999C59.9649 55.2919 59.8928 55.5236 59.8727 55.7951C59.8527 56.0666 59.8899 56.3088 59.9844 56.5217C60.0839 56.7302 60.2203 56.8936 60.3936 57.0117C60.5717 57.1302 60.7631 57.197 60.9679 57.2121C61.1775 57.2276 61.3767 57.1896 61.5654 57.0982C61.7593 57.0023 61.9185 56.856 62.0432 56.6593C62.1726 56.4629 62.2474 56.2289 62.2674 55.9574Z" fill="#003A57"/>
<rect opacity="0.23" width="93.9301" height="4.39848" rx="2.19924" transform="matrix(0.996857 0.0792244 -0.0769793 0.997033 38.9803 64.0344)" fill="#547B8E"/>
<rect opacity="0.23" width="93.9301" height="4.39848" rx="2.19924" transform="matrix(0.996857 0.0792244 -0.0769793 0.997033 38.5004 70.5402)" fill="#547B8E"/>
<rect opacity="0.23" width="60.6148" height="4.39848" rx="2.19924" transform="matrix(0.996857 0.0792244 -0.0769793 0.997033 38.0205 77.0459)" fill="#547B8E"/>
<rect width="93.2039" height="0.398026" transform="translate(37.9002 83.88) rotate(4.21895)" fill="#E6EBEE"/>
<rect opacity="0.28" width="27.8406" height="5.41483" rx="2.70742" transform="matrix(0.996857 0.0792244 -0.0769793 0.997033 37.1125 89.3995)" fill="#00A073"/>
<rect opacity="0.6" width="27.8406" height="5.41483" rx="2.70742" transform="matrix(0.996857 0.0792244 -0.0769793 0.997033 69.6591 91.8003)" fill="#E9EBED"/>
</g>
<defs>
<filter id="filter0_d_2075_27070" x="-0.796402" y="11.8665" width="92.879" height="85.8506" filterUnits="userSpaceOnUse" color-interpolation-filters="sRGB">
<feFlood flood-opacity="0" result="BackgroundImageFix"/>
<feColorMatrix in="SourceAlpha" type="matrix" values="0 0 0 0 0 0 0 0 0 0 0 0 0 0 0 0 0 0 127 0" result="hardAlpha"/>
<feOffset dy="1.13804"/>
<feGaussianBlur stdDeviation="1.13804"/>
<feColorMatrix type="matrix" values="0 0 0 0 0.184314 0 0 0 0 0.223529 0 0 0 0 0.254902 0 0 0 0.15 0"/>
<feBlend mode="normal" in2="BackgroundImageFix" result="effect1_dropShadow_2075_27070"/>
<feBlend mode="normal" in="SourceGraphic" in2="effect1_dropShadow_2075_27070" result="shape"/>
</filter>
<filter id="filter1_d_2075_27070" x="22.3193" y="5.63062" width="123.938" height="112.227" filterUnits="userSpaceOnUse" color-interpolation-filters="sRGB">
<feFlood flood-opacity="0" result="BackgroundImageFix"/>
<feColorMatrix in="SourceAlpha" type="matrix" values="0 0 0 0 0 0 0 0 0 0 0 0 0 0 0 0 0 0 127 0" result="hardAlpha"/>
<feOffset dx="-2.13677" dy="2.66027"/>
<feGaussianBlur stdDeviation="2.66027"/>
<feColorMatrix type="matrix" values="0 0 0 0 0.184314 0 0 0 0 0.223529 0 0 0 0 0.254902 0 0 0 0.14 0"/>
<feBlend mode="normal" in2="BackgroundImageFix" result="effect1_dropShadow_2075_27070"/>
<feBlend mode="normal" in="SourceGraphic" in2="effect1_dropShadow_2075_27070" result="shape"/>
</filter>
<clipPath id="clip0_2075_27070">
<rect width="6.82823" height="6.82823" fill="white" transform="translate(6.86307 32.0537) rotate(-11.7433)"/>
</clipPath>
</defs>
</svg>
