<svg width="130" height="141" viewBox="0 0 130 141" fill="none" xmlns="http://www.w3.org/2000/svg">
    <path
        d="M45.9478 114.851C46.8019 114.851 39.4124 134.707 37.5074 139.779C37.2963 140.34 37.1523 140.835 37.1523 140.835L88.8885 140.921L88.2791 92.7788C88.2812 92.7469 88.2812 92.7148 88.2791 92.6829L83.9605 58.2497C83.9393 58.0829 83.8692 57.926 83.759 57.7988C83.6489 57.6716 83.5037 57.5797 83.3416 57.5348C81.2926 56.983 73.9079 55.078 68.2602 54.8669C61.6433 54.6222 52.0657 55.9369 52.0657 55.9369C52.0657 55.9369 43.4622 56.791 38.7118 58.5185C38.5282 58.584 38.3729 58.7111 38.2723 58.8782C38.1717 59.0452 38.132 59.242 38.16 59.4349L45.9478 114.851Z"
        fill="#4CA4DE" />
    <path
        d="M69.8392 93.4949C69.7733 93.7122 69.6865 93.9227 69.5801 94.1234C69.4744 94.3664 69.3526 94.6021 69.2154 94.8288C69.0496 95.1376 68.8669 95.4372 68.6684 95.7261C68.4356 96.0841 68.1824 96.4286 67.9103 96.7577C67.6111 97.1416 67.2907 97.5085 66.9506 97.8566C66.1602 98.6529 65.2921 99.3682 64.3595 99.9919C63.4132 100.596 62.4105 101.107 61.3653 101.518C60.8855 101.686 60.4056 101.858 59.969 101.969C59.5587 102.085 59.1422 102.178 58.7214 102.247C58.3771 102.313 58.0295 102.361 57.6801 102.391C57.4162 102.427 57.15 102.445 56.8836 102.444C56.6588 102.469 56.4319 102.469 56.207 102.444C56.207 102.391 57.1667 102.396 58.6878 102.089C59.1006 102.007 59.509 101.905 59.9114 101.782C60.3528 101.666 60.8039 101.489 61.2789 101.302C62.3046 100.888 63.2894 100.378 64.2203 99.7807C65.1403 99.1679 65.9999 98.469 66.7875 97.6934C67.1377 97.324 67.4832 96.9833 67.7471 96.6234C68.0227 96.3051 68.2806 95.9719 68.5197 95.6253C69.4218 94.3634 69.7912 93.4709 69.8392 93.4949Z"
        fill="#001825" />
    <g opacity="0.2">
        <path
            d="M38.9092 136.01C41.3337 137.004 43.9736 137.355 46.5736 137.029C49.1736 136.704 51.6456 135.713 53.7506 134.153C55.6171 132.8 57.1814 131.029 59.1967 129.902C61.9894 128.347 65.3147 128.198 68.5056 127.982C72.7713 127.675 77.0755 127.152 81.0869 125.665C81.9239 125.42 82.6829 124.962 83.2894 124.335C83.8412 123.668 84.0283 122.618 83.4861 121.936C82.9439 121.255 81.9123 121.207 81.0246 121.236C67.6467 121.629 55.4204 122.699 42.3976 125.794"
            fill="#2F3941" />
    </g>
    <path
        d="M53.3286 5.33141C57.4648 1.11843 63.9906 -1.38632 69.3936 1.01287C73.0308 2.60593 75.4971 6.01758 78.6881 8.37358C81.0105 10.0914 83.8799 11.4205 85.0987 14.0405C86.1735 16.3485 85.6553 19.0404 85.3962 21.5739C85.1371 24.1075 85.3194 27.0297 87.282 28.6563C88.3088 29.5056 89.6812 29.8463 90.828 30.5085C93.1648 31.8472 94.5515 34.4528 95.0505 37.0967C95.5496 39.7406 95.2809 42.466 95.0122 45.1483L83.8751 47.2692L82.0469 44.1934L81.4183 49.0158L67.2055 50.297L53.3286 5.33141Z"
        fill="#001825" />
    <path
        d="M51.4903 9.92841V13.0234L50.6122 59.4764C50.5354 64.8602 55.6889 69.4427 61.4565 69.4811C67.2769 69.5195 69.6521 65.1625 69.8201 59.7068C69.9928 54.0015 70.2999 47.9939 70.2999 47.9939C70.2999 47.9939 77.6846 46.9767 79.4744 37.4375C80.3621 32.6871 80.3381 24.861 80.1126 18.4551C80.0649 17.0882 79.7412 15.7451 79.1608 14.5067C78.5805 13.2682 77.7556 12.1599 76.7358 11.2485C75.7159 10.3372 74.5222 9.64158 73.2265 9.2036C71.9308 8.76563 70.5599 8.59434 69.1963 8.70003L51.4903 9.92841Z"
        fill="#E6EBEE" />
    <path
        d="M51.4903 9.92841V13.0234L50.6122 59.4764C50.5354 64.8602 55.6889 69.4427 61.4565 69.4811C67.2769 69.5195 69.6521 65.1625 69.8201 59.7068C69.9928 54.0015 70.2999 47.9939 70.2999 47.9939C70.2999 47.9939 77.6846 46.9767 79.4744 37.4375C80.3621 32.6871 80.3381 24.861 80.1126 18.4551C80.0649 17.0882 79.7412 15.7451 79.1608 14.5067C78.5805 13.2682 77.7556 12.1599 76.7358 11.2485C75.7159 10.3372 74.5222 9.64158 73.2265 9.2036C71.9308 8.76563 70.5599 8.59434 69.1963 8.70003L51.4903 9.92841Z"
        fill="url(#paint0_linear_6856_1261)" fill-opacity="0.8" style="mix-blend-mode:color-burn" />
    <path
        d="M51.4903 9.92841V13.0234L50.6122 59.4764C50.5354 64.8602 55.6889 69.4427 61.4565 69.4811C67.2769 69.5195 69.6521 65.1625 69.8201 59.7068C69.9928 54.0015 70.2999 47.9939 70.2999 47.9939C70.2999 47.9939 77.6846 46.9767 79.4744 37.4375C80.3621 32.6871 80.3381 24.861 80.1126 18.4551C80.0649 17.0882 79.7412 15.7451 79.1608 14.5067C78.5805 13.2682 77.7556 12.1599 76.7358 11.2485C75.7159 10.3372 74.5222 9.64158 73.2265 9.2036C71.9308 8.76563 70.5599 8.59434 69.1963 8.70003L51.4903 9.92841Z"
        fill="#2F3941" fill-opacity="0.15" style="mix-blend-mode:multiply" />
    <path
        d="M77.5412 24.6085C77.5362 24.9289 77.4057 25.2345 77.1779 25.4597C76.95 25.6848 76.6428 25.8117 76.3225 25.8129C76.1657 25.8213 76.0088 25.7982 75.8611 25.745C75.7135 25.6918 75.5779 25.6095 75.4625 25.5031C75.3471 25.3966 75.2542 25.2682 75.1893 25.1252C75.1244 24.9823 75.0887 24.8278 75.0845 24.6709C75.0907 24.3505 75.2214 24.0451 75.4489 23.8194C75.6764 23.5937 75.9828 23.4654 76.3033 23.4617C76.4604 23.4533 76.6177 23.4765 76.7657 23.5301C76.9137 23.5836 77.0494 23.6662 77.1649 23.7732C77.2803 23.8801 77.3731 24.0092 77.4378 24.1527C77.5024 24.2962 77.5376 24.4512 77.5412 24.6085Z"
        fill="#001825" />
    <path
        d="M78.2647 22.463C78.1063 22.6213 77.1946 21.9016 75.8655 21.8728C74.5363 21.844 73.5527 22.4726 73.4135 22.3046C73.3463 22.2327 73.5095 21.9496 73.9413 21.6521C74.5236 21.2682 75.2118 21.0769 75.9087 21.105C76.6041 21.1164 77.2773 21.352 77.828 21.7768C78.2119 22.0983 78.3414 22.391 78.2647 22.463Z"
        fill="#001825" />
    <path
        d="M64.4988 24.6085C64.4925 24.9285 64.3617 25.2334 64.134 25.4583C63.9064 25.6832 63.6 25.8105 63.28 25.8129C63.1232 25.8213 62.9664 25.7982 62.8187 25.745C62.671 25.6918 62.5354 25.6095 62.4201 25.5031C62.3047 25.3966 62.2118 25.2682 62.1468 25.1252C62.0819 24.9823 62.0463 24.8278 62.042 24.6709C62.0482 24.3505 62.1789 24.0451 62.4064 23.8194C62.6339 23.5937 62.9403 23.4654 63.2608 23.4617C63.4179 23.4533 63.5752 23.4765 63.7232 23.5301C63.8712 23.5836 64.0069 23.6662 64.1224 23.7732C64.2378 23.8801 64.3306 24.0092 64.3953 24.1527C64.46 24.2962 64.4951 24.4512 64.4988 24.6085Z"
        fill="#001825" />
    <path
        d="M65.2422 22.3482C65.0839 22.5017 64.1722 21.7868 62.843 21.7532C61.5139 21.7196 60.5302 22.3578 60.391 22.1898C60.3239 22.1178 60.487 21.8299 60.9189 21.5372C61.5014 21.1535 62.189 20.9606 62.8862 20.9854C63.5814 20.9982 64.2542 21.2336 64.8056 21.6572C65.1894 21.9835 65.319 22.2762 65.2422 22.3482Z"
        fill="#001825" />
    <path
        d="M69.7775 32.3207C69.7775 32.2439 70.6028 32.124 71.9368 31.9896C72.2775 31.9656 72.599 31.9081 72.6614 31.6777C72.7007 31.3296 72.632 30.9778 72.4646 30.6701C72.1719 29.84 71.86 28.9763 71.5337 28.0646C70.2478 24.365 69.3265 21.3468 69.4752 21.2701C69.624 21.1933 70.79 24.1827 72.0759 27.887C72.3878 28.7987 72.6853 29.6672 72.9637 30.5021C73.1678 30.9142 73.2171 31.3859 73.1028 31.8313C73.0507 31.9496 72.9721 32.0545 72.8731 32.1377C72.7741 32.2208 72.6574 32.2802 72.5318 32.3111C72.3436 32.3579 72.1499 32.3788 71.956 32.3735C70.6124 32.3975 69.7823 32.3783 69.7775 32.3207Z"
        fill="#001825" />
    <path
        d="M70.2619 47.9914C65.7424 47.9369 61.3268 46.6278 57.5078 44.2102C57.5078 44.2102 60.4396 50.8848 70.07 50.2514L70.2619 47.9914Z"
        fill="#E6EBEE" />
    <path
        d="M70.2619 47.9914C65.7424 47.9369 61.3268 46.6278 57.5078 44.2102C57.5078 44.2102 60.4396 50.8848 70.07 50.2514L70.2619 47.9914Z"
        fill="url(#paint1_linear_6856_1261)" fill-opacity="0.8" style="mix-blend-mode:color-burn" />
    <path
        d="M70.2619 47.9914C65.7424 47.9369 61.3268 46.6278 57.5078 44.2102C57.5078 44.2102 60.4396 50.8848 70.07 50.2514L70.2619 47.9914Z"
        fill="#2F3941" fill-opacity="0.15" style="mix-blend-mode:multiply" />
    <path
        d="M65.8568 33.1116C66.0727 33.1116 66.0343 34.5511 67.2339 35.5971C68.4335 36.6432 69.9738 36.5328 69.9786 36.7343C69.9786 36.8255 69.6283 37.0078 68.9805 37.003C68.1387 36.994 67.3275 36.6862 66.6917 36.1345C66.0798 35.607 65.6976 34.8616 65.6264 34.0568C65.5832 33.4522 65.756 33.102 65.8568 33.1116Z"
        fill="#001825" />
    <path
        d="M65.6646 18.4989C65.5207 18.854 64.2251 18.6476 62.6464 18.7916C61.0678 18.9355 59.8202 19.3242 59.6235 18.9979C59.5371 18.8396 59.7626 18.5181 60.2808 18.1726C60.969 17.7649 61.7408 17.5189 62.538 17.4532C63.3352 17.3875 64.1369 17.5039 64.8825 17.7935C65.4439 18.0383 65.7222 18.331 65.6646 18.4989Z"
        fill="#001825" />
    <path
        d="M78.3131 19.7872C78.0204 20.0799 76.9216 19.7344 75.5828 19.6816C74.2441 19.6288 73.1164 19.816 72.8621 19.4945C72.7518 19.3409 72.9389 19.0434 73.4427 18.7747C74.1353 18.4364 74.9051 18.2874 75.674 18.3429C76.4397 18.3682 77.185 18.5967 77.8332 19.0051C78.2939 19.3265 78.4426 19.6432 78.3131 19.7872Z"
        fill="#001825" />
    <path
        d="M41.5912 57.6388C41.5912 57.6388 26.1596 61.2568 23.1654 75.8726C21.7883 82.5903 19.8641 121.203 28.8563 127.215C40.4636 134.96 55.2474 127.916 55.2474 127.916L53.3281 109.241H43.7313L42.4405 88.7803C42.8148 90.3781 41.5912 57.6388 41.5912 57.6388Z"
        fill="#4CA4DE" />
    <path
        d="M96.4847 121.91C99.5116 121.6 102.306 120.145 104.296 117.843C106.285 115.541 107.321 112.565 107.19 109.525L100.885 82.7362C100.885 82.7362 96.7966 59.7519 83.8745 57.679L88.2794 92.7072L87.8572 100.092C87.8572 100.092 88.0587 104.977 88.5529 114.132L96.4847 121.91Z"
        fill="#4CA4DE" />
    <path
        d="M98.1551 105.147C97.3758 105.176 96.5996 105.261 95.8327 105.401C93.981 105.778 92.2846 106.7 90.9623 108.05C89.64 109.399 88.7525 111.114 88.4144 112.973C88.2889 113.745 88.22 114.524 88.208 115.305C88.1576 115.098 88.1334 114.885 88.1361 114.672C88.1103 114.092 88.1457 113.512 88.2416 112.94C88.5484 111.03 89.4424 109.264 90.7994 107.887C92.1565 106.509 93.909 105.588 95.8135 105.253C96.3847 105.148 96.9649 105.099 97.5457 105.109C97.7496 105.097 97.9543 105.11 98.1551 105.147Z"
        fill="#001825" />
    <path
        d="M58.3424 4.26246C60.0794 6.59447 60.9047 8.38427 61.946 12.5349C62.4594 14.5646 60.804 15.9993 59.1629 17.2421C58.9865 17.3761 58.7791 17.4636 58.56 17.4965C58.3408 17.5293 58.117 17.5064 57.909 17.4299C57.701 17.3534 57.5157 17.2258 57.37 17.0588C57.2244 16.8918 57.1231 16.6908 57.0756 16.4743C57.0756 16.4743 57.6418 22.8322 55.3434 25.6824C54.2686 27.0212 54.2206 28.7342 54.4749 30.1785C54.7633 31.6475 55.4775 32.9992 56.5286 34.0652C59.1965 36.8674 59.9355 41.4403 58.0977 44.8759C57.5653 45.7203 57.0768 46.5915 56.6342 47.4862C56.4104 48.0201 56.3072 48.5969 56.3319 49.1753C56.3601 49.5147 56.2583 49.8521 56.0472 50.1193C55.8361 50.3865 55.5314 50.5636 55.1947 50.6148C47.2982 51.7569 39.2974 51.9967 31.3467 51.3297C31.0733 51.3078 30.8138 51.2006 30.6046 51.0232C30.3954 50.8459 30.2471 50.6073 30.1807 50.3413C29.5569 47.6734 30.5982 44.7943 31.9273 42.3952C33.4148 39.6841 35.2862 37.0834 35.8188 34.0364C36.2986 31.1574 35.5165 28.0768 36.6681 25.3993C38.1076 22.122 41.9463 20.5721 43.8657 17.5636C45.6843 14.7277 45.5355 11.009 47.1622 8.06278C49.2543 4.27206 54.3933 2.52545 58.3568 4.25767"
        fill="#001825" />
    <path
        d="M58.7835 7.77973C61.8017 9.33441 63.1981 13.0244 66.1299 14.7326C68.7978 16.2873 72.1278 15.8794 75.1844 15.4187C75.074 14.7422 74.9589 14.0608 74.8437 13.3842C75.1188 13.9967 75.5024 14.5543 75.9761 15.0301C76.2167 15.2648 76.5165 15.4299 76.8436 15.5077C77.1706 15.5854 77.5126 15.5729 77.8331 15.4715C78.86 15.0589 78.9943 13.6481 78.7352 12.5925C78.266 10.8744 77.3447 9.31353 76.0673 8.07243C73.785 5.75602 70.745 4.33867 67.5034 4.07963C64.2618 3.82058 61.0353 4.73716 58.4141 6.66171"
        fill="#001825" />
    <path
        d="M87.0795 76.0838C87.1016 76.2089 87.1112 76.3359 87.1083 76.4629C87.1083 76.7316 87.1083 77.0915 87.1419 77.5425C87.1419 78.5022 87.209 79.8409 87.281 81.5156C87.4202 84.8744 87.7321 89.5001 88.1111 94.6103C88.4902 99.7206 88.7733 104.356 88.8645 107.715C88.9125 109.394 88.9365 110.752 88.9221 111.693C88.9221 112.144 88.9221 112.503 88.9221 112.772C88.9335 112.898 88.9335 113.025 88.9221 113.151C88.8999 113.026 88.8903 112.899 88.8933 112.772C88.8933 112.503 88.8933 112.144 88.8597 111.693C88.8597 110.733 88.7925 109.399 88.7205 107.72C88.5862 104.361 88.2695 99.7398 87.8952 94.6247C87.5209 89.5097 87.2282 84.884 87.1371 81.5252C87.0891 79.8457 87.0699 78.483 87.0795 77.5425C87.0795 77.0915 87.0795 76.7316 87.0795 76.4629C87.0712 76.3367 87.0712 76.21 87.0795 76.0838Z"
        fill="#001825" />
    <path
        d="M43.746 109.246C43.7242 109.158 43.7129 109.068 43.7124 108.978C43.7124 108.771 43.6836 108.498 43.6596 108.205C43.6213 107.5 43.5685 106.545 43.5061 105.374C43.3669 102.975 43.1558 99.6784 42.9063 96.0268C42.6568 92.3753 42.4265 89.1076 42.2585 86.6844C42.1817 85.5184 42.1194 84.5587 42.0714 83.8533C42.0714 83.5414 42.0426 83.2871 42.033 83.0856C42.0216 82.9948 42.0216 82.9029 42.033 82.8121C42.0564 82.9 42.0709 82.99 42.0762 83.0808C42.0762 83.2823 42.129 83.5367 42.1626 83.8486C42.2297 84.5491 42.3209 85.504 42.4313 86.6748C42.6424 89.074 42.9111 92.3609 43.151 96.0124C43.3909 99.664 43.5829 102.97 43.674 105.364C43.7172 106.564 43.7508 107.533 43.7556 108.2V108.973C43.7648 109.064 43.7615 109.156 43.746 109.246Z"
        fill="#001825" />
    <path
        d="M43.7456 109.245C43.7456 109.289 43.2658 109.313 42.4884 109.567C41.5048 109.892 40.631 110.485 39.9642 111.278C39.2975 112.071 38.864 113.033 38.7121 114.058C38.5921 114.845 38.6545 115.344 38.6113 115.349C38.5681 115.354 38.5633 115.229 38.5346 115.003C38.4989 114.685 38.4989 114.363 38.5346 114.044C38.6468 112.968 39.0779 111.951 39.7725 111.122C40.4752 110.301 41.4026 109.704 42.4404 109.404C42.7538 109.316 43.0754 109.262 43.4001 109.241C43.6208 109.217 43.7456 109.226 43.7456 109.245Z"
        fill="#001825" />
    <path
        d="M55.224 127.92C55.1937 127.824 55.1744 127.724 55.1664 127.623C55.1376 127.402 55.104 127.119 55.0561 126.769C54.9697 125.996 54.8497 124.936 54.701 123.631C54.4179 120.953 54.034 117.301 53.6117 113.271C53.4726 111.87 53.3334 110.512 53.2087 109.255L53.3286 109.365L45.6512 109.317L43.42 109.283H42.825C42.7564 109.291 42.6872 109.291 42.6187 109.283C42.6859 109.265 42.7554 109.257 42.825 109.259H43.42L45.6512 109.226L53.3286 109.183H53.4342V109.293L53.8469 113.304C54.2403 117.34 54.5954 120.982 54.8593 123.679C54.9745 124.984 55.0704 126.049 55.1376 126.821C55.1664 127.172 55.1856 127.46 55.2048 127.68C55.2179 127.76 55.2243 127.84 55.224 127.92Z"
        fill="#001825" />
    <path
        d="M55.2236 127.921C55.1049 127.972 54.9831 128.015 54.8589 128.05L53.8081 128.386C52.8916 128.674 51.5624 129.077 49.9022 129.519C47.9589 130.05 45.9846 130.46 43.9906 130.747C41.533 131.079 39.0353 130.961 36.6203 130.397C35.3688 130.127 34.1349 129.78 32.9255 129.36C32.3449 129.149 31.7739 128.938 31.2221 128.708C30.9486 128.592 30.6751 128.482 30.416 128.343L30.0225 128.146L29.653 127.911C28.7509 127.301 27.9673 126.532 27.3402 125.641C26.7886 124.875 26.3068 124.061 25.9007 123.209C25.3305 121.976 24.8494 120.705 24.4612 119.404C24.3172 118.924 24.2117 118.588 24.1493 118.343C24.1102 118.219 24.0797 118.092 24.0581 117.964C24.1155 118.081 24.1621 118.203 24.1973 118.329L24.5523 119.375C24.9781 120.656 25.4845 121.91 26.0686 123.127C26.4778 123.967 26.9594 124.77 27.5081 125.526C28.1274 126.39 28.898 127.135 29.7826 127.724L30.1377 127.949L30.5167 128.141C30.7662 128.276 31.0398 128.381 31.3133 128.496C31.8603 128.722 32.4265 128.933 33.0071 129.135C34.2071 129.551 35.4314 129.894 36.6731 130.162C39.061 130.719 41.5297 130.844 43.9618 130.531C45.9484 130.254 47.9174 129.863 49.859 129.36C51.5192 128.938 52.8532 128.559 53.7793 128.305L54.8445 128.012C54.9675 127.969 55.0945 127.938 55.2236 127.921Z"
        fill="#001825" />
    <path
        d="M47.0805 15.6312C47.5414 14.4987 47.6538 13.2544 47.4034 12.0576C47.1529 10.8608 46.5509 9.76607 45.6745 8.91346C44.7737 8.09017 43.6707 7.5205 42.4779 7.26255C41.2852 7.00461 40.0453 7.06763 38.8848 7.44516C37.8278 7.76336 36.8988 8.40844 36.2313 9.28773C35.0557 10.9096 35.2717 13.2992 36.5 14.897C37.1427 15.6703 37.943 16.2976 38.8474 16.737C39.7518 17.1764 40.7395 17.4178 41.7447 17.445C43.7588 17.4852 45.7562 17.0719 47.5891 16.2358"
        fill="#001825" />
    <path
        d="M63.0353 91.7293C66.3942 94.498 74.2923 101.053 74.2923 101.053L78.7116 100.266L65.3146 88.9943C64.9674 88.7038 64.5226 88.5565 64.0706 88.5824C63.6187 88.6082 63.1936 88.8053 62.8818 89.1334C62.7125 89.3095 62.5815 89.5187 62.497 89.7478C62.4125 89.977 62.3764 90.2212 62.3908 90.465C62.4052 90.7088 62.4699 90.947 62.5808 91.1646C62.6918 91.3822 62.8465 91.5744 63.0353 91.7293Z"
        fill="#336179" />
    <path
        d="M62.7043 90.2923L60.9673 88.7232C60.804 88.5751 60.7042 88.3695 60.689 88.1495C60.6738 87.9295 60.7443 87.7121 60.8858 87.5429C60.9601 87.456 61.0511 87.3849 61.1534 87.3338C61.2557 87.2828 61.3672 87.2528 61.4813 87.2456C61.5954 87.2385 61.7098 87.2543 61.8177 87.2922C61.9256 87.33 62.0247 87.3892 62.1093 87.4661L63.784 89.0016L62.7043 90.2923Z"
        fill="#336179" />
    <path
        d="M67.8583 91.1332C67.5641 91.6229 67.2005 92.0674 66.7787 92.4527C66.4153 92.8933 65.9921 93.2809 65.5215 93.6044C65.8162 93.1136 66.1798 92.6676 66.6011 92.28C66.9621 91.8386 67.3857 91.4522 67.8583 91.1332Z"
        fill="#001825" />
    <path
        d="M67.9824 96.6529C67.5097 96.4045 67.0615 96.1121 66.6437 95.7796C65.8471 95.2038 64.7675 94.3689 63.6303 93.3804C63.0479 92.9466 62.5666 92.3916 62.2196 91.7538C61.974 91.1953 61.9584 90.5626 62.1764 89.9928C62.322 89.6145 62.5674 89.2829 62.8865 89.0331C63.1121 88.8651 63.2608 88.8124 63.2656 88.8268C63.2704 88.8411 63.1456 88.9227 62.9489 89.1099C62.6701 89.374 62.4621 89.704 62.3443 90.0695C62.1663 90.5967 62.1972 91.172 62.4307 91.677C62.777 92.2754 63.2425 92.7964 63.7982 93.2077C64.9258 94.1913 65.9815 95.0454 66.754 95.6548C67.1838 95.9617 67.5941 96.295 67.9824 96.6529Z"
        fill="#001825" />
    <path
        d="M84.8142 107.088C84.8954 107.22 85.0028 107.335 85.13 107.424C85.2571 107.513 85.4012 107.575 85.5533 107.606C85.7054 107.637 85.8622 107.636 86.0141 107.604C86.166 107.572 86.3096 107.509 86.4361 107.419C86.6825 107.223 86.8707 106.963 86.9806 106.668C87.0905 106.373 87.1179 106.054 87.0599 105.744C86.9343 105.125 86.661 104.546 86.2634 104.055C85.5624 103.148 84.7923 102.296 83.9601 101.507L81.417 103.647L84.8142 107.088Z"
        fill="#E6EBEE" />
    <path
        d="M84.8142 107.088C84.8954 107.22 85.0028 107.335 85.13 107.424C85.2571 107.513 85.4012 107.575 85.5533 107.606C85.7054 107.637 85.8622 107.636 86.0141 107.604C86.166 107.572 86.3096 107.509 86.4361 107.419C86.6825 107.223 86.8707 106.963 86.9806 106.668C87.0905 106.373 87.1179 106.054 87.0599 105.744C86.9343 105.125 86.661 104.546 86.2634 104.055C85.5624 103.148 84.7923 102.296 83.9601 101.507L81.417 103.647L84.8142 107.088Z"
        fill="url(#paint2_linear_6856_1261)" fill-opacity="0.8" style="mix-blend-mode:color-burn" />
    <path
        d="M84.8142 107.088C84.8954 107.22 85.0028 107.335 85.13 107.424C85.2571 107.513 85.4012 107.575 85.5533 107.606C85.7054 107.637 85.8622 107.636 86.0141 107.604C86.166 107.572 86.3096 107.509 86.4361 107.419C86.6825 107.223 86.8707 106.963 86.9806 106.668C87.0905 106.373 87.1179 106.054 87.0599 105.744C86.9343 105.125 86.661 104.546 86.2634 104.055C85.5624 103.148 84.7923 102.296 83.9601 101.507L81.417 103.647L84.8142 107.088Z"
        fill="#2F3941" fill-opacity="0.15" style="mix-blend-mode:multiply" />
    <path
        d="M53.4766 110.739C56.6627 109.674 60.0407 110.394 63.2221 109.324C64.3144 109.037 65.3376 108.532 66.2307 107.841C67.2431 106.944 67.7565 105.624 68.5627 104.54C70.9619 101.296 75.4675 100.624 79.4886 100.221C80.421 100.071 81.3724 100.084 82.3004 100.26C82.7643 100.353 83.1962 100.565 83.5543 100.874C83.9124 101.184 84.1846 101.58 84.3445 102.025C84.6037 102.932 84.0183 104.065 83.0778 104.161C83.9607 104.199 84.5749 105.092 84.738 105.96C84.9012 106.829 84.738 107.721 84.8724 108.594C85.0355 109.823 85.7073 110.97 85.6689 112.208C85.6161 113.901 84.2294 115.298 82.6459 115.95C81.0625 116.603 79.3494 116.689 77.6748 116.91C69.4216 118.071 63.1837 122.75 55.2232 126.286"
        fill="#E6EBEE" />
    <path
        d="M53.4766 110.739C56.6627 109.674 60.0407 110.394 63.2221 109.324C64.3144 109.037 65.3376 108.532 66.2307 107.841C67.2431 106.944 67.7565 105.624 68.5627 104.54C70.9619 101.296 75.4675 100.624 79.4886 100.221C80.421 100.071 81.3724 100.084 82.3004 100.26C82.7643 100.353 83.1962 100.565 83.5543 100.874C83.9124 101.184 84.1846 101.58 84.3445 102.025C84.6037 102.932 84.0183 104.065 83.0778 104.161C83.9607 104.199 84.5749 105.092 84.738 105.96C84.9012 106.829 84.738 107.721 84.8724 108.594C85.0355 109.823 85.7073 110.97 85.6689 112.208C85.6161 113.901 84.2294 115.298 82.6459 115.95C81.0625 116.603 79.3494 116.689 77.6748 116.91C69.4216 118.071 63.1837 122.75 55.2232 126.286"
        fill="url(#paint3_linear_6856_1261)" fill-opacity="0.8" style="mix-blend-mode:color-burn" />
    <path
        d="M53.4766 110.739C56.6627 109.674 60.0407 110.394 63.2221 109.324C64.3144 109.037 65.3376 108.532 66.2307 107.841C67.2431 106.944 67.7565 105.624 68.5627 104.54C70.9619 101.296 75.4675 100.624 79.4886 100.221C80.421 100.071 81.3724 100.084 82.3004 100.26C82.7643 100.353 83.1962 100.565 83.5543 100.874C83.9124 101.184 84.1846 101.58 84.3445 102.025C84.6037 102.932 84.0183 104.065 83.0778 104.161C83.9607 104.199 84.5749 105.092 84.738 105.96C84.9012 106.829 84.738 107.721 84.8724 108.594C85.0355 109.823 85.7073 110.97 85.6689 112.208C85.6161 113.901 84.2294 115.298 82.6459 115.95C81.0625 116.603 79.3494 116.689 77.6748 116.91C69.4216 118.071 63.1837 122.75 55.2232 126.286"
        fill="#2F3941" fill-opacity="0.15" style="mix-blend-mode:multiply" />
    <path
        d="M83.8748 104.294C83.8748 104.376 82.3105 104.246 80.4248 104.539C78.539 104.832 77.0659 105.398 77.0659 105.326C77.3531 105.137 77.6668 104.991 77.9968 104.894C78.7758 104.618 79.5791 104.416 80.396 104.29C81.2135 104.166 82.0412 104.122 82.8672 104.16C83.2078 104.156 83.5472 104.201 83.8748 104.294Z"
        fill="#547B8E" />
    <path
        d="M84.9973 109.295C84.9973 109.372 83.6873 109.103 82.0702 109.151C80.4532 109.199 79.1672 109.516 79.1528 109.439C81.0363 108.772 83.0833 108.722 84.9973 109.295Z"
        fill="#547B8E" />
    <path
        d="M84.7286 107.816C84.6854 107.816 84.7286 107.442 84.6566 106.856C84.5644 106.097 84.3002 105.368 83.8841 104.726C83.7843 104.571 83.6753 104.422 83.5578 104.28L83.4858 104.188L83.5626 104.112C83.7815 103.889 83.9534 103.625 84.068 103.335C84.1826 103.045 84.2376 102.735 84.2296 102.423C84.2296 101.943 84.0856 101.674 84.1192 101.66C84.2907 101.874 84.3853 102.139 84.3879 102.413C84.4247 102.755 84.3852 103.1 84.2724 103.424C84.1595 103.749 83.9761 104.044 83.7354 104.289V104.121C83.8613 104.274 83.9783 104.435 84.0856 104.601C84.5239 105.276 84.7786 106.053 84.8246 106.856C84.8626 107.179 84.8299 107.507 84.7286 107.816Z"
        fill="#547B8E" />
    <path
        d="M84.8189 106.813L89.0031 110.738L89.5357 113.07L85.6682 112.196C85.1116 110.229 84.7037 108.353 84.8189 106.813Z"
        fill="#336179" />
    <path
        d="M79.1533 111.811C79.0669 111.964 56.5625 123.058 56.5625 123.058V125.457L79.5275 113.509L108.016 112.449V110.76L79.1533 111.811Z"
        fill="#F6F6F8" />
    <path
        d="M56.5635 125.791C56.7218 125.685 81.4095 123.459 81.4095 123.459L108.016 112.422L79.5285 113.497L56.5635 125.445V125.791Z"
        fill="#001825" />
    <path
        d="M80.1984 119.882C80.0017 118.586 81.2397 117.483 82.5017 117.133C83.7636 116.782 85.112 116.926 86.3884 116.653C87.1983 116.43 87.9906 116.148 88.7588 115.808C92.6934 114.301 97.012 114.22 101.235 114.162C101.48 114.734 101.518 115.374 101.343 115.971C101.168 116.568 100.79 117.086 100.275 117.435C100.624 118.467 100.577 119.592 100.145 120.592C99.7101 121.583 99.1152 122.496 98.3843 123.294C97.8326 124.024 97.1222 124.62 96.3066 125.035C95.4534 125.348 94.5465 125.488 93.6387 125.448C90.8077 125.506 87.7751 125.51 85.4383 123.922C83.6197 122.684 82.3625 120.563 80.256 119.94H80.7359"
        fill="#E6EBEE" />
    <path
        d="M80.1984 119.882C80.0017 118.586 81.2397 117.483 82.5017 117.133C83.7636 116.782 85.112 116.926 86.3884 116.653C87.1983 116.43 87.9906 116.148 88.7588 115.808C92.6934 114.301 97.012 114.22 101.235 114.162C101.48 114.734 101.518 115.374 101.343 115.971C101.168 116.568 100.79 117.086 100.275 117.435C100.624 118.467 100.577 119.592 100.145 120.592C99.7101 121.583 99.1152 122.496 98.3843 123.294C97.8326 124.024 97.1222 124.62 96.3066 125.035C95.4534 125.348 94.5465 125.488 93.6387 125.448C90.8077 125.506 87.7751 125.51 85.4383 123.922C83.6197 122.684 82.3625 120.563 80.256 119.94H80.7359"
        fill="url(#paint4_linear_6856_1261)" fill-opacity="0.8" style="mix-blend-mode:color-burn" />
    <path
        d="M80.1984 119.882C80.0017 118.586 81.2397 117.483 82.5017 117.133C83.7636 116.782 85.112 116.926 86.3884 116.653C87.1983 116.43 87.9906 116.148 88.7588 115.808C92.6934 114.301 97.012 114.22 101.235 114.162C101.48 114.734 101.518 115.374 101.343 115.971C101.168 116.568 100.79 117.086 100.275 117.435C100.624 118.467 100.577 119.592 100.145 120.592C99.7101 121.583 99.1152 122.496 98.3843 123.294C97.8326 124.024 97.1222 124.62 96.3066 125.035C95.4534 125.348 94.5465 125.488 93.6387 125.448C90.8077 125.506 87.7751 125.51 85.4383 123.922C83.6197 122.684 82.3625 120.563 80.256 119.94H80.7359"
        fill="#2F3941" fill-opacity="0.15" style="mix-blend-mode:multiply" />
    <path
        d="M99.0565 118.313C98.8803 118.353 98.6997 118.371 98.5191 118.366L97.0412 118.414C95.7936 118.443 94.071 118.462 92.1709 118.471H89.4838C89.0817 118.477 88.6813 118.417 88.2986 118.294C87.9568 118.173 87.6581 117.955 87.4397 117.665C87.348 117.546 87.2812 117.409 87.2433 117.263C87.2054 117.117 87.1971 116.965 87.2189 116.816C87.2549 116.593 87.3588 116.387 87.5164 116.226C87.5752 116.157 87.6489 116.102 87.7321 116.065C87.8152 116.028 87.9055 116.011 87.9963 116.015C87.8322 116.072 87.6841 116.167 87.5644 116.293C87.4106 116.468 87.3257 116.693 87.3257 116.926C87.3257 117.159 87.4106 117.385 87.5644 117.56C87.7677 117.811 88.0394 117.997 88.3466 118.097C88.711 118.204 89.0899 118.252 89.4694 118.241H92.1517C94.071 118.241 95.7744 118.241 97.022 118.241L98.4999 118.27C98.6866 118.26 98.8737 118.274 99.0565 118.313Z"
        fill="#547B8E" />
    <path
        d="M97.6076 120.685C97.3864 120.748 97.16 120.791 96.9311 120.814C96.4896 120.886 95.8514 120.978 95.0597 121.054C94.127 121.148 93.1885 121.169 92.2526 121.117C91.1095 121.024 89.9763 120.834 88.865 120.551C86.8589 120.061 84.8024 119.808 82.7375 119.797C81.9457 119.797 81.2979 119.826 80.8613 119.85C80.6298 119.87 80.397 119.87 80.1655 119.85C80.3899 119.789 80.6198 119.751 80.8517 119.735C81.476 119.658 82.1038 119.613 82.7327 119.6C84.8155 119.557 86.895 119.788 88.9178 120.287C90.0207 120.568 91.1437 120.763 92.2766 120.872C93.2016 120.935 94.1299 120.935 95.0549 120.872C95.8466 120.819 96.4944 120.752 96.9263 120.714C97.1519 120.681 97.3801 120.672 97.6076 120.685Z"
        fill="#547B8E" />
    <path
        d="M95.2614 123.219C95.0882 123.272 94.9095 123.304 94.7288 123.315C94.3881 123.363 93.889 123.425 93.2892 123.478C91.6774 123.647 90.0498 123.594 88.4525 123.319C86.5571 122.96 85.0936 121.99 83.9564 121.544C83.343 121.295 82.7087 121.101 82.061 120.963C82.2405 120.941 82.4224 120.951 82.5985 120.992C83.0916 121.066 83.5746 121.197 84.038 121.381C85.2136 121.798 86.6771 122.724 88.5197 123.075C90.1042 123.343 91.7153 123.418 93.318 123.3L94.7576 123.219C94.925 123.2 95.094 123.2 95.2614 123.219Z"
        fill="#547B8E" />
    <g opacity="0.2">
        <path
            d="M88.8784 110.332C89.0628 108.573 89.5362 106.856 90.2795 105.251C91.0315 103.646 92.3052 102.343 93.8927 101.556C94.6903 101.175 95.5717 101.003 96.454 101.057C97.3363 101.11 98.1904 101.388 98.9358 101.863C99.3859 102.153 99.7373 102.573 99.9435 103.067C100.044 103.314 100.075 103.583 100.031 103.846C99.9882 104.108 99.8731 104.354 99.6988 104.555C99.1709 105.121 98.2593 105.035 97.5011 104.996C95.7317 104.948 93.9854 105.407 92.4691 106.321C90.9528 107.234 89.73 108.563 88.9456 110.15"
            fill="#2F3941" />
    </g>
    <g opacity="0.2">
        <path
            d="M47.2101 108.876C49.1295 105.436 48.4385 101.122 46.975 97.4753C45.5115 93.8285 43.3282 90.4696 42.2102 86.6981C41.9998 94.3487 43.1118 101.978 45.4971 109.25"
            fill="#2F3941" />
    </g>
    <path
        d="M50.5878 56.2524C50.5878 56.2524 52.915 61.7369 61.3122 61.3866C69.7093 61.0364 69.978 54.525 69.978 54.525L75.5969 60.4989L70.2611 71.492L63.0924 76.8422L53.3276 72.8308L45.2808 66.5929L50.5878 56.2524Z"
        fill="#4CA4DE" />
    <g opacity="0.5">
        <path
            d="M30.9237 79.6973C31.0101 79.8029 29.9161 80.8298 28.4718 81.9862C27.0275 83.1426 25.7943 83.9919 25.7079 83.8815C25.6215 83.7712 26.7156 82.7539 28.1551 81.5975C29.5946 80.4411 30.8374 79.587 30.9237 79.6973Z"
            fill="#F6F6F8" />
    </g>
    <path
        d="M34.8728 73.7805C34.8296 73.9053 33.5052 73.531 32.0705 72.6433C30.6358 71.7556 29.7001 70.7528 29.7913 70.6568C29.8824 70.5608 30.9381 71.3718 32.3296 72.2211C33.7211 73.0704 34.9111 73.6462 34.8728 73.7805Z"
        fill="#F6F6F8" />
    <path
        d="M42.0714 74.423C42.1865 74.5093 41.1117 76.0496 39.9169 78.0074C38.7221 79.9651 37.796 81.5965 37.6713 81.5342C37.5465 81.4718 38.2615 79.7252 39.4946 77.7435C40.7278 75.7617 41.9706 74.3366 42.0714 74.423Z"
        fill="#F6F6F8" />
    <path
        d="M35.91 91.0971C35.814 91.1835 34.7056 90.051 33.7363 88.3764C32.767 86.7018 32.3256 85.1807 32.4504 85.1375C32.5751 85.0943 33.2133 86.4954 34.1682 88.1221C35.1231 89.7487 36.0204 91.0011 35.91 91.0971Z"
        fill="#F6F6F8" />
    <path
        d="M29.4704 99.1646C29.336 99.1646 29.0529 97.965 28.8466 96.4391C28.6403 94.9132 28.5827 93.6608 28.717 93.6416C28.8514 93.6224 29.1345 94.846 29.3408 96.3719C29.5472 97.8978 29.5951 99.1454 29.4704 99.1646Z"
        fill="#F6F6F8" />
    <g opacity="0.5">
        <path
            d="M35.5362 101.36C35.4163 101.293 36.0161 100.007 36.9134 98.4813C37.8107 96.9554 38.6024 95.7894 38.7224 95.8566C38.8423 95.9238 38.2425 97.2145 37.3452 98.7356C36.4479 100.257 35.6562 101.413 35.5362 101.36Z"
            fill="#F6F6F8" />
    </g>
    <path
        d="M28.4911 109.713C28.3903 109.805 27.3203 108.754 26.2791 107.237C25.2378 105.721 24.6476 104.358 24.7628 104.286C24.8779 104.214 25.6697 105.467 26.6821 106.954C27.6946 108.442 28.5967 109.622 28.4911 109.713Z"
        fill="#F6F6F8" />
    <path
        d="M38.0644 108.338C38.1604 108.434 37.0567 109.705 35.6028 111.174C34.1489 112.642 32.8869 113.76 32.7862 113.664C32.6854 113.568 33.789 112.296 35.2477 110.823C36.7064 109.35 37.9636 108.242 38.0644 108.338Z"
        fill="#F6F6F8" />
    <g opacity="0.5">
        <path
            d="M32.6234 125.579C32.5322 125.675 31.4669 124.792 30.4977 123.4C29.5284 122.009 29.0582 120.713 29.1733 120.66C29.2885 120.608 29.9651 121.774 30.9103 123.112C31.8556 124.451 32.7241 125.478 32.6234 125.579Z"
            fill="#F6F6F8" />
    </g>
    <path
        d="M44.9737 122.091C45.0409 122.211 43.8605 123.012 42.3394 123.88C40.8183 124.749 39.5228 125.358 39.4604 125.238C39.398 125.118 40.5736 124.317 42.0947 123.449C43.6158 122.58 44.9065 121.971 44.9737 122.091Z"
        fill="#F6F6F8" />
    <path
        d="M49.7865 118.118C49.7001 118.218 48.5821 117.364 47.5648 115.968C46.5475 114.572 46.0725 113.247 46.1973 113.199C46.322 113.151 46.9842 114.332 47.9679 115.675C48.9515 117.019 49.8872 118.012 49.7865 118.118Z"
        fill="#F6F6F8" />
    <path
        d="M58.275 90.4834C58.3614 90.5937 57.0898 91.6878 55.4392 92.921C53.7885 94.1541 52.3874 95.0658 52.301 94.9555C52.2146 94.8451 53.491 93.7559 55.1417 92.5227C56.7923 91.2895 58.1934 90.3778 58.275 90.4834Z"
        fill="#F6F6F8" />
    <path
        d="M49.3307 89.8967C49.1916 89.8967 49.2156 88.5676 49.3787 86.9601C49.5418 85.3527 49.7866 84.0811 49.9257 84.0811C50.0649 84.0811 50.0409 85.4102 49.8777 87.0177C49.7146 88.6251 49.4651 89.9207 49.3307 89.8967Z"
        fill="#F6F6F8" />
    <g opacity="0.5">
        <path
            d="M57.5786 78.6656C57.5018 78.776 56.0143 77.8595 54.3828 76.4632C52.7514 75.0668 51.6094 73.7473 51.7053 73.6561C51.8013 73.5649 53.0921 74.707 54.7091 76.0841C56.3262 77.4612 57.6601 78.5505 57.5786 78.6656Z"
            fill="#F6F6F8" />
    </g>
    <path
        d="M51.3844 64.6443C51.4899 64.7355 50.4247 66.1462 49.0428 67.7969C47.6608 69.4475 46.4228 70.7095 46.3173 70.6231C46.2117 70.5367 47.277 69.1212 48.6589 67.4706C50.0408 65.8199 51.2788 64.5579 51.3844 64.6443Z"
        fill="#F6F6F8" />
    <g opacity="0.5">
        <path
            d="M44.2868 63.1427C44.21 63.2675 43.14 62.7157 41.7437 62.2502C40.3473 61.7848 39.1909 61.5593 39.1909 61.4153C39.1909 61.2714 40.4577 61.281 41.9164 61.7752C43.3751 62.2694 44.3588 63.0276 44.2868 63.1427Z"
            fill="#F6F6F8" />
    </g>
    <path
        d="M62.3251 69.6062C62.1956 69.5678 62.4211 68.4018 62.8337 67.0007C63.2464 65.5996 63.6879 64.4959 63.7934 64.5343C63.899 64.5727 63.7023 65.7387 63.3136 67.1398C62.9249 68.541 62.4595 69.6494 62.3251 69.6062Z"
        fill="#F6F6F8" />
    <path
        d="M66.639 80.6512C66.4999 80.6512 66.4519 79.4996 66.5335 78.0984C66.615 76.6973 66.7926 75.5697 66.9269 75.5745C67.0613 75.5793 67.1141 76.7261 67.0325 78.1272C66.9509 79.5283 66.7734 80.6608 66.639 80.6512Z"
        fill="#F6F6F8" />
    <path
        d="M73.7411 88.9391C73.6547 89.0495 72.6039 88.3489 71.3947 87.3749C70.1855 86.4008 69.2738 85.5275 69.3602 85.4219C69.4465 85.3164 70.4974 86.0121 71.7066 86.9862C72.9158 87.9603 73.8131 88.8336 73.7411 88.9391Z"
        fill="#F6F6F8" />
    <path
        d="M81.2785 77.369C81.3696 77.4698 80.4339 78.4487 79.1864 79.5475C77.9388 80.6463 76.8544 81.4669 76.7872 81.3517C76.72 81.2365 77.6317 80.2721 78.8793 79.1732C80.1269 78.0744 81.1873 77.2635 81.2785 77.369Z"
        fill="#F6F6F8" />
    <g opacity="0.5">
        <path
            d="M77.8104 71.9064C77.7336 72.0215 76.5485 71.369 75.2721 70.3085C73.9957 69.2481 73.132 68.202 73.228 68.1109C73.3239 68.0197 74.3316 68.8834 75.5888 69.9198C76.846 70.9563 77.8872 71.7912 77.8104 71.9064Z"
            fill="#F6F6F8" />
    </g>
    <path
        d="M86.5333 62.1622C86.6437 62.2389 86.0535 63.2322 85.0362 64.1919C84.019 65.1515 82.9873 65.6794 82.9153 65.5642C82.8434 65.449 83.7071 64.7581 84.6907 63.832C85.6744 62.9059 86.4182 62.0662 86.5333 62.1622Z"
        fill="#F6F6F8" />
    <g opacity="0.5">
        <path
            d="M80.534 61.253C80.534 61.3873 78.9842 61.277 77.1752 60.8116C75.3662 60.3461 73.9459 59.7223 73.9939 59.5928C74.0418 59.4632 75.4957 59.8759 77.2999 60.3269C79.1041 60.778 80.5532 61.109 80.534 61.253Z"
            fill="#F6F6F8" />
    </g>
    <g opacity="0.5">
        <path
            d="M91.6766 76.7592C91.547 76.7304 91.8445 74.8399 92.5307 72.623C93.2169 70.4062 94.0086 68.6692 94.1334 68.7172C94.2581 68.7651 93.6823 70.5549 93.0105 72.767C92.3388 74.979 91.8157 76.788 91.6766 76.7592Z"
            fill="#F6F6F8" />
    </g>
    <path
        d="M94.1478 87.345C94.0471 87.4362 92.8619 86.3469 91.4991 84.9026C90.1364 83.4583 89.0999 82.2155 89.2199 82.1196C89.3399 82.0236 90.5011 83.1176 91.8638 84.5619C93.2266 86.0063 94.2486 87.249 94.1478 87.345Z"
        fill="#F6F6F8" />
    <g opacity="0.5">
        <path
            d="M97.9731 93.3392C97.834 93.3392 97.7476 91.7653 97.7812 89.8268C97.8148 87.8883 97.9539 86.324 98.0931 86.324C98.2322 86.324 98.3138 87.8978 98.2802 89.8364C98.2466 91.7749 98.1075 93.344 97.9731 93.3392Z"
            fill="#F6F6F8" />
    </g>
    <path
        d="M94.0897 103.213C93.9794 103.29 92.9525 102.033 92.0024 100.277C91.0524 98.5204 90.5629 96.9705 90.6829 96.9177C90.8029 96.8649 91.5034 98.3092 92.4439 100.032C93.3844 101.754 94.2049 103.132 94.0897 103.213Z"
        fill="#F6F6F8" />
    <path
        d="M104 105.017C104.1 105.113 103.433 105.919 102.517 106.816C101.6 107.713 100.775 108.356 100.679 108.256C100.583 108.155 101.25 107.349 102.167 106.452C103.083 105.554 103.904 104.916 104 105.017Z"
        fill="#F6F6F8" />
    <g opacity="0.5">
        <path
            d="M79.872 93.7659C79.7473 93.7275 80.1887 92.1536 81.3115 90.5126C82.4344 88.8715 83.7539 87.8974 83.8355 88.003C83.9171 88.1086 82.8086 89.2122 81.7242 90.8005C80.6398 92.3887 80.0064 93.8186 79.872 93.7659Z"
            fill="#F6F6F8" />
    </g>
    <path
        d="M51.8938 106.925C51.7594 106.891 51.9945 105.485 52.4168 103.739C52.8391 101.992 53.2997 100.634 53.4341 100.668C53.5684 100.701 53.3285 102.131 52.9062 103.859C52.484 105.586 52.0233 106.959 51.8938 106.925Z"
        fill="#F6F6F8" />
    <path
        d="M63.6643 108.103C63.5875 108.218 62.3927 107.57 60.9964 106.663C59.6 105.756 58.5252 104.921 58.5972 104.806C58.6691 104.691 59.8639 105.334 61.2651 106.246C62.6662 107.157 63.7554 107.987 63.6643 108.103Z"
        fill="#F6F6F8" />
    <path
        d="M63.0878 99.6016C62.9727 99.6784 62.4112 99.0402 61.8306 98.1621C61.25 97.284 60.871 96.5355 60.9909 96.4587C61.1109 96.3819 61.6675 97.0201 62.2481 97.8982C62.8287 98.7763 63.1838 99.5249 63.0878 99.6016Z"
        fill="#F6F6F8" />
    <path
        d="M68.2851 101.536C68.3619 101.647 67.8581 102.136 67.1575 102.63C66.4569 103.125 65.8236 103.432 65.742 103.321C65.6604 103.211 66.169 102.717 66.8696 102.223C67.5702 101.728 68.2036 101.412 68.2851 101.536Z"
        fill="#F6F6F8" />
    <g opacity="0.5">
        <path
            d="M54.7159 136.033C54.5768 135.99 54.8023 134.901 54.999 133.558C55.1958 132.214 55.3061 131.106 55.4501 131.106C55.594 131.106 55.6996 132.243 55.4933 133.63C55.287 135.016 54.8407 136.077 54.7159 136.033Z"
            fill="#F6F6F8" />
    </g>
    <g opacity="0.5">
        <path
            d="M66.6732 132.122C66.5532 132.189 65.6415 130.812 64.6387 129.051C63.6358 127.29 62.9161 125.798 63.036 125.731C63.156 125.663 64.0677 127.036 65.0705 128.802C66.0734 130.567 66.7931 132.069 66.6732 132.122Z"
            fill="#F6F6F8" />
    </g>
    <g opacity="0.5">
        <path
            d="M79.3543 126.794C79.4646 126.876 78.265 128.632 76.672 130.714C75.0789 132.797 73.697 134.414 73.5866 134.332C73.4762 134.251 74.6806 132.494 76.2737 130.412C77.8668 128.329 79.2487 126.708 79.3543 126.794Z"
            fill="#F6F6F8" />
    </g>
    <g opacity="0.5">
        <path
            d="M82.9298 136.978C82.9298 137.112 81.3607 137.458 79.3838 137.741C77.4068 138.024 75.785 138.149 75.7658 138.015C75.7466 137.88 77.3301 137.535 79.3118 137.247C81.2935 136.959 82.9106 136.839 82.9298 136.978Z"
            fill="#F6F6F8" />
    </g>
    <path
        d="M83.4811 131.844C83.3419 131.811 83.4811 130.789 83.5147 129.532C83.5483 128.274 83.5147 127.243 83.6826 127.224C83.8506 127.204 84.0761 128.241 84.0137 129.551C83.9513 130.861 83.6106 131.878 83.4811 131.844Z"
        fill="#F6F6F8" />
    <path
        d="M66.3558 137.824C66.3079 137.943 65.0075 137.516 63.6543 136.538C62.3012 135.559 61.4759 134.474 61.5766 134.393C61.6774 134.311 62.6371 135.199 63.947 136.13C65.257 137.061 66.4134 137.689 66.3558 137.824Z"
        fill="#F6F6F8" />
    <path
        d="M46.0057 137.066C45.8714 137.032 46.0058 135.933 46.3608 134.619C46.7159 133.304 47.071 132.258 47.2053 132.291C47.3397 132.325 47.1766 133.419 46.8455 134.738C46.5144 136.058 46.1401 137.099 46.0057 137.066Z"
        fill="#F6F6F8" />
    <path
        d="M43.794 15.6942C43.8228 15.6559 44.3698 16.1261 45.3727 16.6539C45.962 16.9716 46.5767 17.2396 47.2105 17.4552C47.9918 17.7075 48.795 17.8858 49.6097 17.9879C50.4243 18.0745 51.2454 18.0826 52.0616 18.0119C52.7303 17.9507 53.392 17.8286 54.0386 17.6472C55.1422 17.3401 55.7756 17.009 55.7996 17.0522C55.6647 17.1541 55.5181 17.2394 55.3629 17.3065C55.1893 17.3997 55.0098 17.4814 54.8255 17.5512C54.5841 17.6537 54.3374 17.7434 54.0865 17.8199C53.4351 18.0261 52.7649 18.1675 52.0856 18.2422C51.2529 18.3285 50.4136 18.3285 49.5809 18.2422C48.7508 18.1393 47.9338 17.9495 47.1433 17.676C46.4993 17.4489 45.879 17.1597 45.2911 16.8123C45.0368 16.6731 44.8113 16.5148 44.6337 16.3852C44.4658 16.2745 44.3055 16.1526 44.1539 16.0205C43.914 15.8286 43.7796 15.7086 43.794 15.6942Z"
        fill="#336179" />
    <path
        d="M56.1884 21.2199C56.0205 21.2919 55.8451 21.345 55.6654 21.3782C55.3247 21.4646 54.8305 21.5797 54.2259 21.6853C52.6043 22.0023 50.9376 22.0121 49.3124 21.7141C47.6737 21.3972 46.1829 20.555 45.0658 19.3149C44.7386 18.9329 44.4671 18.5064 44.2597 18.0481C44.1752 17.8856 44.1169 17.7107 44.0869 17.5299C44.3907 18.1285 44.7644 18.6891 45.2001 19.1997C46.3184 20.375 47.7736 21.1746 49.3651 21.4886C50.9634 21.7757 52.5988 21.7903 54.2019 21.5318C54.8209 21.4454 55.3199 21.359 55.6414 21.3014C55.8199 21.2529 56.0035 21.2256 56.1884 21.2199Z"
        fill="#336179" />
    <path
        d="M39.101 50.5861C39.0781 50.5657 39.0572 50.5432 39.0386 50.5189C39.005 50.4709 38.9426 50.4038 38.8754 50.303C38.6894 50.01 38.5608 49.6843 38.4964 49.3433C38.4001 48.7084 38.4443 48.06 38.6259 47.444C38.8075 46.828 39.122 46.2594 39.5472 45.7781C40.132 45.1193 40.8092 44.5488 41.5577 44.0843C42.3447 43.5661 43.2276 43.091 44.0961 42.5056C45.0162 41.9235 45.8027 41.1533 46.4041 40.2456C46.7047 39.7639 46.9008 39.2244 46.9799 38.6621C47.0546 38.0792 47.0237 37.4875 46.8887 36.9155C46.5737 35.7826 46.1677 34.677 45.6747 33.6094C45.2079 32.5904 44.933 31.4941 44.8638 30.3753C44.8068 28.4695 45.3858 26.599 46.5097 25.0587C47.2398 24.014 48.2087 23.1585 49.3359 22.5636L49.8733 22.3045L50.286 22.1605C50.3979 22.1166 50.5135 22.0829 50.6315 22.0598C50.527 22.1183 50.4179 22.1681 50.3052 22.2085L49.9069 22.3764L49.3839 22.65C48.294 23.2669 47.36 24.1254 46.6536 25.1595C45.5789 26.6779 45.0311 28.5065 45.0941 30.3657C45.1674 31.4556 45.4407 32.5226 45.9003 33.5135C46.4029 34.5973 46.8153 35.7208 47.1334 36.8723C47.2713 37.4732 47.3022 38.0937 47.2246 38.7053C47.1424 39.3019 46.9347 39.8743 46.6152 40.3847C45.9896 41.3205 45.1717 42.1123 44.216 42.7072C43.3331 43.2926 42.4454 43.7628 41.6633 44.2714C40.9258 44.7165 40.2567 45.266 39.6768 45.9029C39.2607 46.3639 38.9478 46.9085 38.7592 47.5001C38.5705 48.0918 38.5103 48.7169 38.5827 49.3337C38.67 49.7816 38.8462 50.2075 39.101 50.5861Z"
        fill="#336179" />
    <path
        d="M51.8833 50.7556C51.7847 50.7138 51.6913 50.6606 51.605 50.5972C51.3552 50.4177 51.1445 50.1891 50.986 49.9255C50.7388 49.5036 50.5911 49.031 50.5541 48.5435C50.5032 47.8962 50.5748 47.245 50.7653 46.6242C51.1539 45.2183 52.3295 43.9371 53.2124 42.3056C53.6933 41.4748 53.9434 40.5305 53.937 39.5706C53.888 38.5407 53.6249 37.5324 53.1645 36.61C52.2528 34.6906 50.8516 33.1455 49.8824 31.5429C49.4062 30.7936 49.0257 29.9876 48.7499 29.1437C48.5176 28.3962 48.4377 27.6098 48.5148 26.8309C48.5891 25.6908 49.0892 24.6204 49.9159 23.8319C50.1473 23.6356 50.4059 23.474 50.6837 23.3521C50.7787 23.3061 50.8785 23.2707 50.9812 23.2465C50.619 23.4257 50.2819 23.6516 49.9783 23.9183C49.2079 24.7109 48.751 25.7559 48.6924 26.8597C48.6285 27.6148 48.7166 28.3752 48.9515 29.0957C49.2251 29.926 49.6041 30.7178 50.0791 31.4517C50.5589 32.2338 51.1539 33.016 51.7441 33.8509C52.374 34.6959 52.9249 35.597 53.39 36.5428C53.8698 37.4966 54.1398 38.5421 54.1817 39.6089C54.1834 40.6082 53.9201 41.59 53.4188 42.4544C52.4975 44.0906 51.3219 45.3334 50.9332 46.6962C50.7426 47.2925 50.6613 47.9183 50.6933 48.5435C50.7196 49.0131 50.8473 49.4715 51.0676 49.8871C51.2752 50.2308 51.5532 50.5268 51.8833 50.7556Z"
        fill="#336179" />
    <path
        d="M70.818 14.7343C70.818 14.7343 70.7508 14.7343 70.6357 14.6575C70.4693 14.5674 70.309 14.4664 70.1558 14.3553C69.6068 13.93 69.1401 13.408 68.7787 12.815C68.2538 11.9387 67.8089 11.0169 67.4495 10.0607C67.2288 9.53288 66.9697 8.98108 66.701 8.43886C66.4003 7.87865 66.0468 7.34842 65.6453 6.85539C64.2128 5.11626 62.274 3.86674 60.0984 3.28061C59.1932 3.06255 58.2694 2.9308 57.3394 2.88713C57.5882 2.84547 57.8408 2.83099 58.0927 2.84395C58.7829 2.8615 59.4695 2.94993 60.1416 3.10786C62.3782 3.65709 64.3766 4.9164 65.8373 6.69705C66.2516 7.20311 66.6164 7.74783 66.9265 8.3237C67.2192 8.88031 67.4495 9.44172 67.6655 9.97434C68.0139 10.9231 68.4375 11.8425 68.9322 12.7238C69.2758 13.3082 69.7117 13.8333 70.223 14.2785C70.5925 14.5904 70.8324 14.7151 70.818 14.7343Z"
        fill="#336179" />
    <path
        d="M77.511 14.7011C77.4236 14.7044 77.3363 14.6947 77.2518 14.6724C77.0063 14.6342 76.7651 14.5716 76.5321 14.4852C75.6691 14.1658 74.8875 13.6595 74.2433 13.0025C73.2967 12.0304 72.4981 10.9246 71.8729 9.72042C71.1195 8.40087 70.3902 6.88459 69.2625 5.56504C68.188 4.33177 66.7693 3.44783 65.1887 3.02669C63.8968 2.68352 62.5667 2.50457 61.2301 2.49407C60.0832 2.47008 59.1572 2.49407 58.5142 2.54206L57.7752 2.57085C57.6892 2.58256 57.6021 2.58256 57.5161 2.57085C57.5984 2.54447 57.684 2.52993 57.7704 2.52766L58.5094 2.45089C59.1476 2.39811 60.0784 2.32133 61.2301 2.32613C62.5857 2.30786 63.9378 2.4692 65.2511 2.80597C66.8818 3.2274 68.346 4.13436 69.4497 5.40669C70.6109 6.76463 71.3354 8.28571 72.0696 9.61486C72.678 10.8055 73.4518 11.904 74.368 12.8778C74.9857 13.5334 75.7345 14.0517 76.5657 14.3988C77.1607 14.6292 77.5158 14.6724 77.511 14.7011Z"
        fill="#336179" />
    <path
        d="M88.8414 45.839C88.8174 45.839 88.9661 45.4984 89.1245 44.8794C89.3546 43.9966 89.4516 43.0845 89.4124 42.1731C89.3667 40.821 89.0191 39.4963 88.3951 38.296C88.0231 37.5919 87.5619 36.9387 87.0228 36.3527C86.4662 35.7337 85.828 35.1483 85.1898 34.5341C84.5455 33.9435 83.9501 33.3016 83.4096 32.6147C82.913 31.9709 82.4837 31.2779 82.1284 30.5466C81.5306 29.3053 81.1477 27.9717 80.996 26.6023C80.8903 25.6819 80.9 24.7518 81.0248 23.8337C81.0522 23.5849 81.0955 23.338 81.1543 23.0947C81.167 23.0071 81.1912 22.9216 81.2263 22.8404C81.2503 22.8404 81.1735 23.2003 81.1208 23.8481C81.0336 24.7571 81.0497 25.673 81.1687 26.5784C81.3483 27.9215 81.7419 29.2273 82.3347 30.4459C82.6892 31.1594 83.1135 31.8361 83.6015 32.466C84.1383 33.1352 84.7254 33.7624 85.3577 34.3421C86.0007 34.9563 86.6389 35.5465 87.2051 36.1799C87.755 36.7827 88.2229 37.4555 88.5966 38.1808C89.2264 39.4138 89.5661 40.7744 89.5899 42.1587C89.6129 43.0858 89.4882 44.0107 89.2204 44.8986C89.1506 45.1401 89.0624 45.3759 88.9565 45.6039C88.9302 45.6877 88.8914 45.7669 88.8414 45.839Z"
        fill="#336179" />
    <path
        d="M36.2745 14.317C36.2733 14.155 36.2943 13.9935 36.3368 13.8372C36.4338 13.4201 36.5872 13.0181 36.7927 12.6424C37.1357 12.0048 37.6096 11.447 38.1834 11.0055C38.7572 10.5641 39.4178 10.2489 40.122 10.0808C40.8262 9.91269 41.5579 9.8954 42.2692 10.0301C42.9806 10.1647 43.6554 10.4483 44.2494 10.8622C44.6088 11.1009 44.932 11.3902 45.209 11.7211C45.3198 11.8364 45.4107 11.9694 45.4777 12.1145C45.072 11.7039 44.6268 11.3343 44.1486 11.0109C43.5682 10.6333 42.917 10.3778 42.2346 10.26C41.5523 10.1422 40.8531 10.1646 40.1797 10.3258C39.5063 10.4869 38.8727 10.7835 38.3176 11.1975C37.7626 11.6114 37.2976 12.1341 36.951 12.7335C36.6749 13.2383 36.4483 13.7686 36.2745 14.317Z"
        fill="#336179" />
    <path
        d="M40.9245 16.3409C40.9211 15.9735 40.9663 15.6073 41.0588 15.2517C41.2065 14.3615 41.6004 13.5303 42.1961 12.8525C42.5224 12.5257 42.9312 12.2933 43.3789 12.1801C43.8267 12.0669 44.2967 12.0771 44.7392 12.2095C45.0051 12.3058 45.2404 12.4714 45.4206 12.6894C45.5405 12.8429 45.5741 12.9485 45.5645 12.9533C45.32 12.6997 45.0192 12.5074 44.6864 12.3919C44.2773 12.2944 43.85 12.3032 43.4452 12.4174C43.0404 12.5316 42.6715 12.7475 42.3736 13.0444C41.8117 13.6953 41.4194 14.475 41.2316 15.3141C41.1607 15.665 41.0579 16.0087 40.9245 16.3409Z"
        fill="#336179" />
    <path
        d="M47.0229 9.30682C46.5417 10.148 46.12 11.0218 45.7609 11.9219C45.4833 12.8491 45.2654 13.7932 45.1083 14.7482C45.0022 12.7518 45.6925 10.7948 47.0277 9.30682H47.0229Z"
        fill="#4CA4DE" />
    <defs>
        <linearGradient id="paint0_linear_6856_1261" x1="75.493" y1="-2.75372" x2="34.9265"
            y2="51.4062" gradientUnits="userSpaceOnUse">
            <stop offset="0.213542" stop-color="#323444" />
            <stop offset="0.6875" stop-color="#2F3941" stop-opacity="0.291667" />
            <stop offset="1" stop-color="#2F3941" stop-opacity="0" />
        </linearGradient>
        <linearGradient id="paint1_linear_6856_1261" x1="68.2167" y1="43.0674" x2="66.7876"
            y2="51.2764" gradientUnits="userSpaceOnUse">
            <stop offset="0.213542" stop-color="#323444" />
            <stop offset="0.6875" stop-color="#2F3941" stop-opacity="0.291667" />
            <stop offset="1" stop-color="#2F3941" stop-opacity="0" />
        </linearGradient>
        <linearGradient id="paint2_linear_6856_1261" x1="86.1799" y1="100.358" x2="83.2783"
            y2="107.725" gradientUnits="userSpaceOnUse">
            <stop offset="0.213542" stop-color="#323444" />
            <stop offset="0.6875" stop-color="#2F3941" stop-opacity="0.291667" />
            <stop offset="1" stop-color="#2F3941" stop-opacity="0" />
        </linearGradient>
        <linearGradient id="paint3_linear_6856_1261" x1="80.508" y1="95.2019" x2="70.5876"
            y2="128.64" gradientUnits="userSpaceOnUse">
            <stop offset="0.213542" stop-color="#323444" />
            <stop offset="0.6875" stop-color="#2F3941" stop-opacity="0.291667" />
            <stop offset="1" stop-color="#2F3941" stop-opacity="0" />
        </linearGradient>
        <linearGradient id="paint4_linear_6856_1261" x1="98.04" y1="112.039" x2="95.103"
            y2="127.184" gradientUnits="userSpaceOnUse">
            <stop offset="0.213542" stop-color="#323444" />
            <stop offset="0.6875" stop-color="#2F3941" stop-opacity="0.291667" />
            <stop offset="1" stop-color="#2F3941" stop-opacity="0" />
        </linearGradient>
    </defs>
</svg>