<svg width="24" height="24" viewBox="0 0 24 24" xmlns="http://www.w3.org/2000/svg">
<rect width="24" height="24" rx="2" fill="currentColor"/>
<path  fill="none"  d="M5 15.9091C5 11.6488 5 9.26027 5 5H14.5455" stroke="white" stroke-width="1.2" stroke-linecap="round" stroke-linejoin="round"/>
<path d="M16.8955 19.6318C16.7365 19.6318 16.5775 19.5899 16.4436 19.4979L13.3057 17.4645L10.1678 19.4979C9.87491 19.6903 9.50673 19.6736 9.22222 19.4728C8.9386 19.2708 8.81155 18.913 8.90425 18.5774L9.86654 14.9625L6.96292 12.6028C6.69429 12.3867 6.58764 12.0267 6.69515 11.6991C6.80394 11.3644 7.09681 11.1385 7.44826 11.1217L11.1803 10.9209L12.5275 7.43153C12.653 7.10519 12.9543 6.896 13.3057 6.896C13.6571 6.896 13.9584 7.10519 14.0839 7.43153L15.4311 10.9209L19.1631 11.1217C19.5146 11.1385 19.8075 11.3644 19.9162 11.6991C20.025 12.0338 19.9162 12.3853 19.6485 12.6112L16.7449 14.9709L17.7072 18.5858C17.7992 18.9205 17.6737 19.2719 17.3892 19.4811C17.2469 19.5732 17.0712 19.6318 16.8955 19.6318Z" fill="white"/>
</svg>
