<svg width="118" height="112" viewBox="0 0 118 112" fill="none" xmlns="http://www.w3.org/2000/svg">
<path d="M72.701 2.30836C77.5431 3.40184 81.0852 7.11505 83.4958 11.1972C85.8245 15.1408 86.5819 19.6591 85.5452 24.0597C84.4711 28.6186 82.0055 32.9136 77.7918 35.408C73.4733 37.9643 68.0693 38.7039 63.1871 37.2947C58.5066 35.9437 55.2666 32.2352 52.8952 28.2216C50.6104 24.3547 49.273 19.9686 50.4163 15.6808C51.5644 11.3748 54.9244 8.04039 58.9145 5.64603C63.0692 3.15292 67.9041 1.22509 72.701 2.30836Z" fill="#F6F6F8"/>
<path fill-rule="evenodd" clip-rule="evenodd" d="M68.5196 1.51948C68.5196 1.23258 68.287 1 68.0001 1C67.7132 1 67.4807 1.23258 67.4807 1.51948V5.50216C67.4807 5.78907 67.7132 6.02164 68.0001 6.02164C68.287 6.02164 68.5196 5.78907 68.5196 5.50216V1.51948ZM68.5196 36.4978C68.5196 36.2109 68.287 35.9784 68.0001 35.9784C67.7132 35.9784 67.4807 36.2109 67.4807 36.4978V40.4805C67.4807 40.7674 67.7132 41 68.0001 41C68.287 41 68.5196 40.7674 68.5196 40.4805V36.4978ZM88.0001 21C88.0001 21.2869 87.7675 21.5194 87.4806 21.5194H83.4979C83.211 21.5194 82.9784 21.2869 82.9784 21C82.9784 20.7131 83.211 20.4805 83.4979 20.4805H87.4806C87.7675 20.4805 88.0001 20.7131 88.0001 21ZM52.5022 21.5194C52.7891 21.5194 53.0216 21.2869 53.0216 21C53.0216 20.7131 52.7891 20.4805 52.5022 20.4805H48.5195C48.2326 20.4805 48 20.7131 48 21C48 21.2869 48.2326 21.5194 48.5195 21.5194H52.5022ZM81.9182 5.36733C82.1211 5.5702 82.1211 5.89911 81.9182 6.10198L79.102 8.91817C78.8992 9.12104 78.5702 9.12104 78.3674 8.91817C78.1645 8.7153 78.1645 8.38638 78.3674 8.18351L81.1835 5.36733C81.3864 5.16446 81.7153 5.16446 81.9182 5.36733ZM57.409 32.3259C57.6119 32.1231 57.6119 31.7941 57.409 31.5913C57.2062 31.3884 56.8773 31.3884 56.6744 31.5913L53.8582 34.4074C53.6553 34.6103 53.6553 34.9392 53.8582 35.1421C54.0611 35.345 54.39 35.345 54.5929 35.1421L57.409 32.3259ZM82.1425 35.1422C81.9396 35.345 81.6107 35.345 81.4078 35.1422L78.5916 32.326C78.3888 32.1231 78.3888 31.7942 78.5916 31.5913C78.7945 31.3885 79.1234 31.3885 79.3263 31.5913L82.1425 34.4075C82.3453 34.6104 82.3453 34.9393 82.1425 35.1422ZM56.6743 10.4087C56.8772 10.6116 57.2061 10.6116 57.409 10.4087C57.6119 10.2058 57.6119 9.87691 57.409 9.67404L54.5928 6.85786C54.3899 6.65499 54.061 6.65499 53.8582 6.85786C53.6553 7.06073 53.6553 7.38964 53.8582 7.59251L56.6743 10.4087Z" fill="#02807A"/>
<path d="M74.8498 5.19111L76.4816 1M60.5184 42L62.1502 37.8089M84.8089 27.8498L89 29.4816M48 13.5184L52.1911 15.1502M84.5221 14.4579L88.6396 12.6482M48.3605 30.3519L52.4779 28.5422M75.5422 37.5221L77.3519 41.6395M59.6481 1.36046L61.4578 5.47787" stroke="#14A9A2" stroke-linecap="round" stroke-linejoin="round"/>
<circle cx="63.0933" cy="66.0005" r="39.0005" fill="url(#paint0_linear_1552_48276)"/>
<path d="M38.3613 96.1576C45.0918 101.684 53.7052 105.001 63.0933 105.001C72.4815 105.001 81.0949 101.684 87.8254 96.1576H38.3613Z" fill="#E9EBF8"/>
<path d="M38.3613 96.1576C45.0918 101.684 53.7052 105.001 63.0933 105.001C72.4815 105.001 81.0949 101.684 87.8254 96.1576H38.3613Z" fill="url(#paint1_linear_1552_48276)"/>
<g style="mix-blend-mode:soft-light">
<path fill-rule="evenodd" clip-rule="evenodd" d="M116.591 74.9802C116.711 75.0165 116.821 75.0781 116.916 75.1607C117.01 75.2434 117.085 75.3452 117.137 75.4593C117.188 75.5735 117.215 75.6974 117.215 75.8227C117.215 75.948 117.187 76.0718 117.136 76.1858C116.88 76.7918 116.281 76.703 115.75 76.6012C114.14 76.367 112.505 76.356 110.892 76.5685C107.482 76.9627 104.284 78.0627 100.986 78.8324C97.7479 79.7269 94.3209 79.6743 91.1114 78.6808C88.0512 77.6295 85.1297 76.2401 82.0618 75.1628C79.3681 74.2274 76.5436 73.2324 73.6398 73.7854C70.8675 74.306 68.4484 75.9344 65.8604 76.9995C60.5422 79.1039 54.786 79.8598 49.1048 79.1999C46.4416 79.0153 43.8142 78.4814 41.2901 77.6121C39.8439 77.0719 37.8921 76.3516 37.0235 74.9607C36.6261 74.3177 36.5953 73.2968 37.358 72.8988C38.1208 72.5008 39.0491 73.0551 39.7327 73.2877C42.6987 74.2641 45.777 74.8589 48.8933 75.0577C51.9038 75.3546 54.9404 75.2488 57.9229 74.7429C60.6521 74.1727 63.29 73.23 65.7624 71.9412C68.329 70.6637 70.9125 69.3248 73.802 69.0301C76.6915 68.7355 79.562 69.625 82.2634 70.7275C85.1222 71.8604 87.8566 73.214 90.5884 74.5826C93.1176 75.9623 95.9824 76.6067 98.8588 76.443C104.798 76.081 110.612 73.8441 116.591 74.9802Z" fill="#E6EBEE"/>
<path fill-rule="evenodd" clip-rule="evenodd" d="M116.591 74.9802C116.711 75.0165 116.821 75.0781 116.916 75.1607C117.01 75.2434 117.085 75.3452 117.137 75.4593C117.188 75.5735 117.215 75.6974 117.215 75.8227C117.215 75.948 117.187 76.0718 117.136 76.1858C116.88 76.7918 116.281 76.703 115.75 76.6012C114.14 76.367 112.505 76.356 110.892 76.5685C107.482 76.9627 104.284 78.0627 100.986 78.8324C97.7479 79.7269 94.3209 79.6743 91.1114 78.6808C88.0512 77.6295 85.1297 76.2401 82.0618 75.1628C79.3681 74.2274 76.5436 73.2324 73.6398 73.7854C70.8675 74.306 68.4484 75.9344 65.8604 76.9995C60.5422 79.1039 54.786 79.8598 49.1048 79.1999C46.4416 79.0153 43.8142 78.4814 41.2901 77.6121C39.8439 77.0719 37.8921 76.3516 37.0235 74.9607C36.6261 74.3177 36.5953 73.2968 37.358 72.8988C38.1208 72.5008 39.0491 73.0551 39.7327 73.2877C42.6987 74.2641 45.777 74.8589 48.8933 75.0577C51.9038 75.3546 54.9404 75.2488 57.9229 74.7429C60.6521 74.1727 63.29 73.23 65.7624 71.9412C68.329 70.6637 70.9125 69.3248 73.802 69.0301C76.6915 68.7355 79.562 69.625 82.2634 70.7275C85.1222 71.8604 87.8566 73.214 90.5884 74.5826C93.1176 75.9623 95.9824 76.6067 98.8588 76.443C104.798 76.081 110.612 73.8441 116.591 74.9802Z" fill="url(#paint2_linear_1552_48276)" fill-opacity="0.8" style="mix-blend-mode:color-burn"/>
<path fill-rule="evenodd" clip-rule="evenodd" d="M116.591 74.9802C116.711 75.0165 116.821 75.0781 116.916 75.1607C117.01 75.2434 117.085 75.3452 117.137 75.4593C117.188 75.5735 117.215 75.6974 117.215 75.8227C117.215 75.948 117.187 76.0718 117.136 76.1858C116.88 76.7918 116.281 76.703 115.75 76.6012C114.14 76.367 112.505 76.356 110.892 76.5685C107.482 76.9627 104.284 78.0627 100.986 78.8324C97.7479 79.7269 94.3209 79.6743 91.1114 78.6808C88.0512 77.6295 85.1297 76.2401 82.0618 75.1628C79.3681 74.2274 76.5436 73.2324 73.6398 73.7854C70.8675 74.306 68.4484 75.9344 65.8604 76.9995C60.5422 79.1039 54.786 79.8598 49.1048 79.1999C46.4416 79.0153 43.8142 78.4814 41.2901 77.6121C39.8439 77.0719 37.8921 76.3516 37.0235 74.9607C36.6261 74.3177 36.5953 73.2968 37.358 72.8988C38.1208 72.5008 39.0491 73.0551 39.7327 73.2877C42.6987 74.2641 45.777 74.8589 48.8933 75.0577C51.9038 75.3546 54.9404 75.2488 57.9229 74.7429C60.6521 74.1727 63.29 73.23 65.7624 71.9412C68.329 70.6637 70.9125 69.3248 73.802 69.0301C76.6915 68.7355 79.562 69.625 82.2634 70.7275C85.1222 71.8604 87.8566 73.214 90.5884 74.5826C93.1176 75.9623 95.9824 76.6067 98.8588 76.443C104.798 76.081 110.612 73.8441 116.591 74.9802Z" fill="#2F3941" fill-opacity="0.15" style="mix-blend-mode:multiply"/>
</g>
<g style="mix-blend-mode:soft-light">
<path fill-rule="evenodd" clip-rule="evenodd" d="M93.5906 87.9802C93.7105 88.0165 93.8213 88.0781 93.9155 88.1607C94.0097 88.2434 94.0851 88.3452 94.1367 88.4593C94.1883 88.5735 94.2149 88.6974 94.2147 88.8227C94.2145 88.948 94.1875 89.0718 94.1355 89.1858C93.8797 89.7918 93.2814 89.703 92.7499 89.6012C91.14 89.367 89.5054 89.356 87.8924 89.5685C84.4823 89.9627 81.2839 91.0627 77.9864 91.8324C74.7479 92.7269 71.3209 92.6743 68.1114 91.6808C65.0512 90.6295 62.1297 89.2401 59.0618 88.1628C56.3681 87.2274 53.5436 86.2324 50.6398 86.7854C47.8675 87.306 45.4484 88.9344 42.8604 89.9995C37.5422 92.1039 31.786 92.8598 26.1048 92.1999C23.4416 92.0153 20.8142 91.4814 18.2901 90.6121C16.8439 90.0719 14.8921 89.3516 14.0235 87.9607C13.6261 87.3177 13.5953 86.2968 14.358 85.8988C15.1208 85.5008 16.0491 86.0551 16.7327 86.2877C19.6987 87.2641 22.777 87.8589 25.8933 88.0577C28.9038 88.3546 31.9404 88.2488 34.9229 87.7429C37.6521 87.1727 40.29 86.23 42.7624 84.9412C45.329 83.6637 47.9125 82.3248 50.802 82.0301C53.6915 81.7355 56.562 82.625 59.2634 83.7275C62.1222 84.8604 64.8566 86.214 67.5884 87.5826C70.1176 88.9623 72.9824 89.6067 75.8588 89.443C81.7977 89.081 87.6119 86.8441 93.5906 87.9802Z" fill="#E6EBEE"/>
<path fill-rule="evenodd" clip-rule="evenodd" d="M93.5906 87.9802C93.7105 88.0165 93.8213 88.0781 93.9155 88.1607C94.0097 88.2434 94.0851 88.3452 94.1367 88.4593C94.1883 88.5735 94.2149 88.6974 94.2147 88.8227C94.2145 88.948 94.1875 89.0718 94.1355 89.1858C93.8797 89.7918 93.2814 89.703 92.7499 89.6012C91.14 89.367 89.5054 89.356 87.8924 89.5685C84.4823 89.9627 81.2839 91.0627 77.9864 91.8324C74.7479 92.7269 71.3209 92.6743 68.1114 91.6808C65.0512 90.6295 62.1297 89.2401 59.0618 88.1628C56.3681 87.2274 53.5436 86.2324 50.6398 86.7854C47.8675 87.306 45.4484 88.9344 42.8604 89.9995C37.5422 92.1039 31.786 92.8598 26.1048 92.1999C23.4416 92.0153 20.8142 91.4814 18.2901 90.6121C16.8439 90.0719 14.8921 89.3516 14.0235 87.9607C13.6261 87.3177 13.5953 86.2968 14.358 85.8988C15.1208 85.5008 16.0491 86.0551 16.7327 86.2877C19.6987 87.2641 22.777 87.8589 25.8933 88.0577C28.9038 88.3546 31.9404 88.2488 34.9229 87.7429C37.6521 87.1727 40.29 86.23 42.7624 84.9412C45.329 83.6637 47.9125 82.3248 50.802 82.0301C53.6915 81.7355 56.562 82.625 59.2634 83.7275C62.1222 84.8604 64.8566 86.214 67.5884 87.5826C70.1176 88.9623 72.9824 89.6067 75.8588 89.443C81.7977 89.081 87.6119 86.8441 93.5906 87.9802Z" fill="url(#paint3_linear_1552_48276)" fill-opacity="0.8" style="mix-blend-mode:color-burn"/>
<path fill-rule="evenodd" clip-rule="evenodd" d="M93.5906 87.9802C93.7105 88.0165 93.8213 88.0781 93.9155 88.1607C94.0097 88.2434 94.0851 88.3452 94.1367 88.4593C94.1883 88.5735 94.2149 88.6974 94.2147 88.8227C94.2145 88.948 94.1875 89.0718 94.1355 89.1858C93.8797 89.7918 93.2814 89.703 92.7499 89.6012C91.14 89.367 89.5054 89.356 87.8924 89.5685C84.4823 89.9627 81.2839 91.0627 77.9864 91.8324C74.7479 92.7269 71.3209 92.6743 68.1114 91.6808C65.0512 90.6295 62.1297 89.2401 59.0618 88.1628C56.3681 87.2274 53.5436 86.2324 50.6398 86.7854C47.8675 87.306 45.4484 88.9344 42.8604 89.9995C37.5422 92.1039 31.786 92.8598 26.1048 92.1999C23.4416 92.0153 20.8142 91.4814 18.2901 90.6121C16.8439 90.0719 14.8921 89.3516 14.0235 87.9607C13.6261 87.3177 13.5953 86.2968 14.358 85.8988C15.1208 85.5008 16.0491 86.0551 16.7327 86.2877C19.6987 87.2641 22.777 87.8589 25.8933 88.0577C28.9038 88.3546 31.9404 88.2488 34.9229 87.7429C37.6521 87.1727 40.29 86.23 42.7624 84.9412C45.329 83.6637 47.9125 82.3248 50.802 82.0301C53.6915 81.7355 56.562 82.625 59.2634 83.7275C62.1222 84.8604 64.8566 86.214 67.5884 87.5826C70.1176 88.9623 72.9824 89.6067 75.8588 89.443C81.7977 89.081 87.6119 86.8441 93.5906 87.9802Z" fill="#2F3941" fill-opacity="0.15" style="mix-blend-mode:multiply"/>
</g>
<g filter="url(#filter0_d_1552_48276)">
<circle cx="98.902" cy="51.8097" r="6.90298" fill="white"/>
<path d="M97.7546 61.9821C97.8969 61.9524 97.9454 61.8225 98.0682 61.5014C98.2883 60.9275 98.5081 60.3531 98.7479 59.7874C98.7856 59.6984 98.9224 59.6083 99.0226 59.5963C99.6181 59.525 100.218 59.4898 100.813 59.4122C100.997 59.3892 101.095 59.4052 101.201 59.5707C101.625 60.2314 102.067 60.8804 102.497 61.5265C103.19 61.3567 104.744 60.5207 105.176 60.0782C104.88 59.3913 104.587 58.6849 104.268 57.9909C104.169 57.7749 104.186 57.6639 104.357 57.4812C104.752 57.0577 105.109 56.5963 105.456 56.1306C105.596 55.9419 105.707 55.8411 105.964 55.899C106.63 56.0492 107.305 56.1593 107.974 56.2977C108.154 56.3351 108.265 56.2997 108.318 56.1215C108.568 55.2825 108.816 54.4436 109.064 53.6045C109.125 53.3983 108.957 53.3684 108.836 53.3184C108.223 53.0649 107.611 52.8081 106.989 52.5757C106.757 52.4884 106.678 52.369 106.669 52.1158C106.641 51.4459 106.57 50.7777 106.511 50.0575L108.585 48.6548C108.255 47.6873 107.767 46.8173 107.123 45.9955L104.869 46.9646C104.238 46.4752 103.663 46.0086 103.063 45.5773C102.889 45.4525 102.86 45.3534 102.9 45.1628C103.037 44.5017 103.154 43.836 103.287 43.1746C103.316 43.0316 103.32 42.9266 103.164 42.855C102.374 42.4937 101.565 42.2037 100.697 42.0923C100.504 42.0675 100.428 42.1373 100.364 42.2984C100.106 42.9439 99.8362 43.5846 99.5812 44.2313C99.5197 44.3879 99.4539 44.4538 99.2646 44.4699C98.6075 44.526 97.952 44.6104 97.3003 44.7118C97.1338 44.7376 97.0687 44.6851 96.9898 44.5673C96.552 43.9154 96.1097 43.2678 95.6577 42.6004C94.7088 42.9509 93.8293 43.3945 93.0226 44.025L94.0291 46.3822L92.4501 48.3341C91.8601 48.2221 91.1831 48.088 90.5034 47.9653C89.9454 47.8656 90.0178 47.784 89.789 48.3479C89.767 48.4018 89.7269 48.4476 89.6936 48.4967L89.2568 50.0077C89.2448 50.1252 89.2509 50.2482 89.2172 50.3592C89.1293 50.6476 89.1962 50.8088 89.5043 50.9202C90.146 51.1522 90.7735 51.4247 91.4006 51.6954C91.4826 51.7311 91.5692 51.8494 91.5815 51.9394C91.6617 52.5263 91.6915 53.1218 91.8019 53.702C91.856 53.986 91.7798 54.1064 91.5603 54.2493C90.9376 54.654 90.3316 55.0854 89.6575 55.547L91.0814 58.201C91.2571 58.1292 91.3589 58.0898 91.4584 58.0465C92.0766 57.7804 92.6977 57.5199 93.3112 57.2429C93.4854 57.1642 93.5842 57.2022 93.7278 57.3211C94.2213 57.7292 94.741 58.1054 95.2373 58.5101C95.3143 58.5726 95.3696 58.7293 95.3534 58.8293C95.2647 59.3759 95.1459 59.9177 95.0462 60.4627C94.9657 60.9036 94.9373 61.0677 95.082 61.2055L97.7546 61.9821ZM97.6521 58.0375C96.2625 57.6986 95.0329 56.8867 94.1729 55.74C93.3129 54.5933 92.8756 53.1828 92.9356 51.7489C92.9955 50.315 93.549 48.9463 94.5018 47.8762C95.4545 46.806 96.7475 46.1005 98.1604 45.8799C99.5734 45.6593 101.019 45.9372 102.251 46.6663C103.482 47.3955 104.424 48.5307 104.915 49.8785C105.407 51.2264 105.417 52.7035 104.945 54.0581C104.473 55.4128 103.547 56.5612 102.326 57.3077C101.634 57.7335 100.864 58.0173 100.062 58.1425C99.2597 58.2678 98.4406 58.2321 97.6521 58.0375Z" fill="#02807A"/>
</g>
<g filter="url(#filter1_d_1552_48276)">
<path d="M33.4466 33.2482L24.7518 37.9846C23.9361 38.4289 23.6351 39.4503 24.0794 40.2659L28.6097 48.5824C29.054 49.398 30.0754 49.6991 30.891 49.2548L39.5859 44.5184C40.4015 44.0741 40.7025 43.0527 40.2582 42.237L35.7279 33.9205C35.2836 33.1049 34.2622 32.8039 33.4466 33.2482Z" fill="white" stroke="#F6F6F8" stroke-width="0.351132" stroke-miterlimit="10"/>
<path d="M29.7927 48.6013L29.855 41.0464L34.5093 43.3185L35.0404 40.4775L39.6334 43.2407L29.7927 48.6013Z" fill="#AC1961"/>
<path d="M33.0002 37.8714C33.0905 38.0372 33.1297 38.2262 33.1126 38.4143C33.0956 38.6024 33.0232 38.7812 32.9045 38.9281C32.7859 39.0751 32.6263 39.1835 32.446 39.2398C32.2657 39.296 32.0728 39.2976 31.8916 39.2442C31.7105 39.1908 31.5492 39.0849 31.4282 38.9398C31.3073 38.7948 31.232 38.6171 31.212 38.4293C31.192 38.2415 31.2282 38.052 31.3159 37.8847C31.4036 37.7175 31.5389 37.58 31.7048 37.4896C31.9273 37.3691 32.1885 37.3415 32.4313 37.4131C32.6741 37.4846 32.8786 37.6494 33.0002 37.8714Z" fill="#336179"/>
<path d="M18.8452 36.891L9.07158 45.5761C8.37729 46.1931 8.3146 47.2561 8.93157 47.9504L17.262 57.3248C17.879 58.0191 18.942 58.0818 19.6362 57.4648L29.4098 48.7797C30.1041 48.1628 30.1668 47.0998 29.5498 46.4055L21.2194 37.031C20.6024 36.3367 19.5394 36.274 18.8452 36.891Z" fill="#AC1961"/>
<path d="M18.4315 56.7133L16.3932 47.5751L22.6478 49.0161L22.4942 45.4376L28.8123 47.4886L18.4315 56.7133Z" fill="white"/>
<path d="M19.3004 42.8632C19.4559 43.0382 19.556 43.2553 19.5881 43.4872C19.6202 43.719 19.5828 43.9551 19.4806 44.1657C19.3785 44.3763 19.2162 44.5519 19.0142 44.6703C18.8123 44.7886 18.5798 44.8444 18.3462 44.8306C18.1125 44.8169 17.8882 44.7341 17.7016 44.5929C17.515 44.4516 17.3744 44.2582 17.2977 44.037C17.221 43.8159 17.2116 43.577 17.2707 43.3505C17.3298 43.124 17.4548 42.9202 17.6297 42.7647C17.8647 42.5569 18.1723 42.4506 18.4854 42.4691C18.7985 42.4875 19.0916 42.6293 19.3004 42.8632Z" fill="white"/>
</g>
<g filter="url(#filter2_d_1552_48276)">
<rect x="14.6133" y="51.1326" width="59.2081" height="58.1778" rx="13.4282" transform="rotate(-25 14.6133 51.1326)" fill="#F1F9F3"/>
<rect x="14.6133" y="51.1326" width="59.2081" height="58.1778" rx="13.4282" transform="rotate(-25 14.6133 51.1326)" stroke="white" stroke-width="3.35705"/>
</g>
<g filter="url(#filter3_d_1552_48276)">
<path fill-rule="evenodd" clip-rule="evenodd" d="M78.1041 38.3203C81.2692 40.4085 82.1423 44.6671 80.0542 47.8322L59.8118 78.5146C57.7236 81.6797 53.465 82.5527 50.2999 80.4646L34.6693 70.1524C31.5042 68.0643 30.6311 63.8057 32.7193 60.6406C34.8074 57.4755 39.066 56.6024 42.2311 58.6906L50.5548 64.182C51.4252 64.7563 52.5963 64.5162 53.1706 63.6458L68.5923 40.2704C70.6804 37.1052 74.939 36.2322 78.1041 38.3203Z" fill="#79C62F"/>
<path fill-rule="evenodd" clip-rule="evenodd" d="M78.1041 38.3203C81.2692 40.4085 82.1423 44.6671 80.0542 47.8322L59.8118 78.5146C57.7236 81.6797 53.465 82.5527 50.2999 80.4646L34.6693 70.1524C31.5042 68.0643 30.6311 63.8057 32.7193 60.6406C34.8074 57.4755 39.066 56.6024 42.2311 58.6906L50.5548 64.182C51.4252 64.7563 52.5963 64.5162 53.1706 63.6458L68.5923 40.2704C70.6804 37.1052 74.939 36.2322 78.1041 38.3203Z" stroke="white" stroke-width="1.88809" stroke-linejoin="round"/>
</g>
<mask id="path-18-outside-1_1552_48276" maskUnits="userSpaceOnUse" x="75.6378" y="75.5297" width="16.1609" height="16.1609" fill="black">
<rect fill="white" x="75.6378" y="75.5297" width="16.1609" height="16.1609"/>
<path d="M87.0597 85.928C86.9279 86.1677 86.6242 86.2526 86.381 86.1274L85.6091 85.7302L85.4943 85.9534C85.3373 86.2584 85.1205 86.5124 84.8657 86.7087L85.2735 87.9811C85.3581 88.2451 85.2126 88.5278 84.9486 88.6124C84.6846 88.697 84.402 88.5516 84.3174 88.2876L83.9467 87.1312C83.4574 87.2335 82.9312 87.175 82.452 86.9284L84.2034 83.5249C84.251 83.4325 84.2146 83.319 84.1222 83.2714L83.7874 83.0991C83.6949 83.0515 83.5814 83.0879 83.5339 83.1804L81.7824 86.5839C81.3033 86.3373 80.9498 85.9431 80.7486 85.4855L79.5922 85.8561C79.3282 85.9407 79.0456 85.7952 78.961 85.5312C78.8764 85.2672 79.0218 84.9846 79.2858 84.9L80.5582 84.4922C80.5699 84.1707 80.6505 83.8466 80.8074 83.5416L80.9223 83.3185L80.1504 82.9213C79.9072 82.7961 79.7997 82.4996 79.9182 82.2531C80.041 81.9973 80.3498 81.8948 80.6005 82.0238L81.3817 82.4257L81.8033 81.6063L81.4876 80.6212C81.403 80.3572 81.5484 80.0746 81.8124 79.9899C82.0765 79.9053 82.3591 80.0507 82.4437 80.3148L82.8136 81.4689L86.0147 83.1161L87.1688 82.7463C87.4328 82.6616 87.7154 82.8071 87.8001 83.0711C87.8847 83.3351 87.7393 83.6177 87.4752 83.7024L86.4902 84.0181L86.0685 84.8375L86.8496 85.2395C87.1003 85.3685 87.1964 85.6793 87.0597 85.928ZM85.5766 80.0679C84.7137 79.6239 83.6544 79.9634 83.2104 80.8262L86.3349 82.4341C86.7789 81.5712 86.4394 80.5119 85.5766 80.0679Z"/>
</mask>
<path d="M87.0597 85.928C86.9279 86.1677 86.6242 86.2526 86.381 86.1274L85.6091 85.7302L85.4943 85.9534C85.3373 86.2584 85.1205 86.5124 84.8657 86.7087L85.2735 87.9811C85.3581 88.2451 85.2126 88.5278 84.9486 88.6124C84.6846 88.697 84.402 88.5516 84.3174 88.2876L83.9467 87.1312C83.4574 87.2335 82.9312 87.175 82.452 86.9284L84.2034 83.5249C84.251 83.4325 84.2146 83.319 84.1222 83.2714L83.7874 83.0991C83.6949 83.0515 83.5814 83.0879 83.5339 83.1804L81.7824 86.5839C81.3033 86.3373 80.9498 85.9431 80.7486 85.4855L79.5922 85.8561C79.3282 85.9407 79.0456 85.7952 78.961 85.5312C78.8764 85.2672 79.0218 84.9846 79.2858 84.9L80.5582 84.4922C80.5699 84.1707 80.6505 83.8466 80.8074 83.5416L80.9223 83.3185L80.1504 82.9213C79.9072 82.7961 79.7997 82.4996 79.9182 82.2531C80.041 81.9973 80.3498 81.8948 80.6005 82.0238L81.3817 82.4257L81.8033 81.6063L81.4876 80.6212C81.403 80.3572 81.5484 80.0746 81.8124 79.9899C82.0765 79.9053 82.3591 80.0507 82.4437 80.3148L82.8136 81.4689L86.0147 83.1161L87.1688 82.7463C87.4328 82.6616 87.7154 82.8071 87.8001 83.0711C87.8847 83.3351 87.7393 83.6177 87.4752 83.7024L86.4902 84.0181L86.0685 84.8375L86.8496 85.2395C87.1003 85.3685 87.1964 85.6793 87.0597 85.928ZM85.5766 80.0679C84.7137 79.6239 83.6544 79.9634 83.2104 80.8262L86.3349 82.4341C86.7789 81.5712 86.4394 80.5119 85.5766 80.0679Z" fill="#AC1961"/>
<path d="M87.0597 85.928L85.4405 85.0378L85.4405 85.0378L87.0597 85.928ZM85.6091 85.7302L86.4545 84.0873L84.8116 83.2419L83.9662 84.8848L85.6091 85.7302ZM84.8657 86.7087L83.738 85.245L82.7101 86.0369L83.1061 87.2726L84.8657 86.7087ZM85.2735 87.9811L87.033 87.4173L87.033 87.4172L85.2735 87.9811ZM84.9486 88.6124L85.5125 90.372L85.5126 90.3719L84.9486 88.6124ZM84.3174 88.2876L82.5578 88.8515L82.5578 88.8515L84.3174 88.2876ZM83.9467 87.1312L85.7063 86.5672L85.1981 84.9817L83.5685 85.3226L83.9467 87.1312ZM82.452 86.9284L80.809 86.083L79.9636 87.726L81.6066 88.5714L82.452 86.9284ZM81.7824 86.5839L80.937 88.2269L82.58 89.0723L83.4254 87.4293L81.7824 86.5839ZM80.7486 85.4855L82.4402 84.742L81.7702 83.2178L80.1847 83.7259L80.7486 85.4855ZM79.5922 85.8561L80.1561 87.6157L80.1562 87.6156L79.5922 85.8561ZM78.961 85.5312L77.2014 86.0951L77.2014 86.0952L78.961 85.5312ZM79.2858 84.9L78.7219 83.1404L78.7218 83.1404L79.2858 84.9ZM80.5582 84.4922L81.1222 86.2517L82.3579 85.8557L82.4047 84.5589L80.5582 84.4922ZM80.9223 83.3185L82.5652 84.1639L83.4106 82.5209L81.7677 81.6755L80.9223 83.3185ZM79.9182 82.2531L81.5837 83.0532L81.5837 83.0531L79.9182 82.2531ZM81.3817 82.4257L80.5362 84.0687L82.1792 84.9141L83.0246 83.2712L81.3817 82.4257ZM81.8033 81.6063L83.4463 82.4517L83.7965 81.7712L83.5629 81.0424L81.8033 81.6063ZM81.4876 80.6212L79.728 81.185L79.728 81.1851L81.4876 80.6212ZM81.8124 79.9899L81.2486 78.2304L81.2484 78.2304L81.8124 79.9899ZM82.4437 80.3148L84.2033 79.7509L84.2032 79.7508L82.4437 80.3148ZM82.8136 81.4689L81.054 82.0328L81.2876 82.7616L81.9681 83.1118L82.8136 81.4689ZM86.0147 83.1161L85.1693 84.7591L85.8498 85.1093L86.5786 84.8757L86.0147 83.1161ZM87.1688 82.7463L86.605 80.9867L86.6049 80.9867L87.1688 82.7463ZM87.8001 83.0711L89.5597 82.5072L89.5596 82.5071L87.8001 83.0711ZM87.4752 83.7024L88.0392 85.4619L88.0392 85.4619L87.4752 83.7024ZM86.4902 84.0181L85.9262 82.2585L85.1974 82.4921L84.8472 83.1726L86.4902 84.0181ZM86.0685 84.8375L84.4255 83.9921L83.5801 85.635L85.2231 86.4805L86.0685 84.8375ZM83.2104 80.8262L81.5674 79.9808L80.722 81.6237L82.3649 82.4692L83.2104 80.8262ZM86.3349 82.4341L85.4895 84.077L87.1324 84.9225L87.9779 83.2795L86.3349 82.4341ZM85.4405 85.0378C85.8151 84.3565 86.6252 84.1751 87.2264 84.4845L85.5355 87.7704C86.6232 88.3301 88.0407 87.9788 88.6788 86.8182L85.4405 85.0378ZM87.2264 84.4845L86.4545 84.0873L84.7637 87.3732L85.5355 87.7704L87.2264 84.4845ZM83.9662 84.8848L83.8513 85.108L87.1372 86.7989L87.2521 86.5757L83.9662 84.8848ZM83.8513 85.108C83.8215 85.166 83.7827 85.2105 83.738 85.245L85.9933 88.1724C86.4583 87.8142 86.8532 87.3508 87.1372 86.7989L83.8513 85.108ZM83.1061 87.2726L83.5139 88.5451L87.033 87.4172L86.6252 86.1448L83.1061 87.2726ZM83.5139 88.545C83.2871 87.8373 83.6769 87.0797 84.3846 86.8529L85.5126 90.3719C86.7483 89.9758 87.429 88.653 87.033 87.4173L83.5139 88.545ZM84.3848 86.8528C85.0925 86.626 85.8501 87.0159 86.0769 87.7236L82.5578 88.8515C82.9539 90.0872 84.2767 90.768 85.5125 90.372L84.3848 86.8528ZM86.0769 87.7236L85.7063 86.5672L82.1872 87.6951L82.5578 88.8515L86.0769 87.7236ZM83.5685 85.3226C83.4785 85.3414 83.3859 85.331 83.2974 85.2855L81.6066 88.5714C82.4764 89.019 83.4364 89.1256 84.325 88.9397L83.5685 85.3226ZM84.0949 87.7739L85.8464 84.3703L82.5605 82.6795L80.809 86.083L84.0949 87.7739ZM85.8464 84.3703C86.3608 83.3705 85.9674 82.1429 84.9676 81.6284L83.2767 84.9143C82.4618 84.495 82.1411 83.4944 82.5605 82.6795L85.8464 84.3703ZM84.9676 81.6284L84.6328 81.4562L82.9419 84.7421L83.2767 84.9143L84.9676 81.6284ZM84.6328 81.4562C83.633 80.9417 82.4054 81.3351 81.8909 82.3349L85.1768 84.0258C84.7575 84.8407 83.7569 85.1614 82.9419 84.7421L84.6328 81.4562ZM81.8909 82.3349L80.1395 85.7385L83.4254 87.4293L85.1768 84.0258L81.8909 82.3349ZM82.6279 84.941C82.5394 84.8954 82.4772 84.8261 82.4402 84.742L79.0571 86.2289C79.4224 87.0601 80.0672 87.7792 80.937 88.2269L82.6279 84.941ZM80.1847 83.7259L79.0283 84.0965L80.1562 87.6156L81.3126 87.245L80.1847 83.7259ZM79.0284 84.0965C79.7361 83.8697 80.4937 84.2596 80.7205 84.9672L77.2014 86.0952C77.5975 87.3309 78.9203 88.0117 80.1561 87.6157L79.0284 84.0965ZM80.7205 84.9674C80.9473 85.6751 80.5575 86.4327 79.8498 86.6595L78.7218 83.1404C77.4861 83.5365 76.8054 84.8593 77.2014 86.0951L80.7205 84.9674ZM79.8497 86.6595L81.1222 86.2517L79.9943 82.7326L78.7219 83.1404L79.8497 86.6595ZM82.4047 84.5589C82.4068 84.5025 82.4205 84.4451 82.4504 84.3871L79.1645 82.6962C78.8804 83.2482 78.7329 83.8389 78.7117 84.4254L82.4047 84.5589ZM82.4504 84.3871L82.5652 84.1639L79.2793 82.473L79.1645 82.6962L82.4504 84.3871ZM81.7677 81.6755L80.9959 81.2783L79.305 84.5642L80.0768 84.9614L81.7677 81.6755ZM80.9959 81.2783C81.5971 81.5877 81.9203 82.3524 81.5837 83.0532L78.2527 81.453C77.6791 82.6469 78.2173 84.0045 79.305 84.5642L80.9959 81.2783ZM81.5837 83.0531C81.2549 83.7376 80.4269 84.0124 79.7551 83.6667L81.4459 80.3808C80.2728 79.7771 78.8272 80.2569 78.2526 81.4531L81.5837 83.0531ZM79.7551 83.6667L80.5362 84.0687L82.2271 80.7828L81.4459 80.3808L79.7551 83.6667ZM83.0246 83.2712L83.4463 82.4517L80.1604 80.7609L79.7387 81.5803L83.0246 83.2712ZM83.5629 81.0424L83.2472 80.0573L79.728 81.1851L80.0438 82.1702L83.5629 81.0424ZM83.2472 80.0573C83.474 80.7651 83.0841 81.5226 82.3764 81.7495L81.2484 78.2304C80.0127 78.6265 79.332 79.9493 79.728 81.185L83.2472 80.0573ZM82.3763 81.7495C81.6686 81.9763 80.911 81.5865 80.6842 80.8788L84.2032 79.7508C83.8071 78.515 82.4843 77.8344 81.2486 78.2304L82.3763 81.7495ZM80.6841 80.8787L81.054 82.0328L84.5731 80.905L84.2033 79.7509L80.6841 80.8787ZM81.9681 83.1118L85.1693 84.7591L86.8601 81.4732L83.659 79.8259L81.9681 83.1118ZM86.5786 84.8757L87.7327 84.5058L86.6049 80.9867L85.4508 81.3566L86.5786 84.8757ZM87.7327 84.5058C87.025 84.7326 86.2674 84.3428 86.0405 83.6351L89.5596 82.5071C89.1635 81.2714 87.8407 80.5907 86.605 80.9867L87.7327 84.5058ZM86.0405 83.635C85.8137 82.9272 86.2035 82.1697 86.9112 81.9428L88.0392 85.4619C89.275 85.0658 89.9557 83.743 89.5597 82.5072L86.0405 83.635ZM86.9113 81.9428L85.9262 82.2585L87.0541 85.7776L88.0392 85.4619L86.9113 81.9428ZM84.8472 83.1726L84.4255 83.9921L87.7114 85.6829L88.1331 84.8635L84.8472 83.1726ZM85.2231 86.4805L86.0042 86.8824L87.6951 83.5965L86.9139 83.1946L85.2231 86.4805ZM86.0042 86.8824C85.3324 86.5367 85.0747 85.7032 85.4405 85.0378L88.6788 86.8182C89.3181 85.6554 88.8683 84.2002 87.6951 83.5965L86.0042 86.8824ZM86.422 78.4249C84.6518 77.514 82.4783 78.2106 81.5674 79.9808L84.8533 81.6717C84.8304 81.7162 84.7757 81.7337 84.7311 81.7108L86.422 78.4249ZM82.3649 82.4692L85.4895 84.077L87.1804 80.7911L84.0558 79.1833L82.3649 82.4692ZM87.9779 83.2795C88.8888 81.5093 88.1922 79.3358 86.422 78.4249L84.7311 81.7108C84.6866 81.6879 84.669 81.6332 84.692 81.5886L87.9779 83.2795Z" fill="white" mask="url(#path-18-outside-1_1552_48276)"/>
<path d="M50.8225 32.725C50.8225 32.725 49.6802 34.0002 49.6791 34.0025C49.5967 34.1229 48.9772 34.9466 49.0673 34.7524C48.86 35.1994 51.4978 35.0809 51.1381 34.6733C51.1054 34.6368 51.0435 34.4339 51.1007 34.2756C51.1884 34.0314 51.5154 33.826 51.5154 33.826L50.8225 32.725Z" fill="#E6EBEE"/>
<path d="M50.8225 32.725C50.8225 32.725 49.6802 34.0002 49.6791 34.0025C49.5967 34.1229 48.9772 34.9466 49.0673 34.7524C48.86 35.1994 51.4978 35.0809 51.1381 34.6733C51.1054 34.6368 51.0435 34.4339 51.1007 34.2756C51.1884 34.0314 51.5154 33.826 51.5154 33.826L50.8225 32.725Z" fill="url(#paint4_linear_1552_48276)" fill-opacity="0.8" style="mix-blend-mode:color-burn"/>
<path d="M50.8225 32.725C50.8225 32.725 49.6802 34.0002 49.6791 34.0025C49.5967 34.1229 48.9772 34.9466 49.0673 34.7524C48.86 35.1994 51.4978 35.0809 51.1381 34.6733C51.1054 34.6368 51.0435 34.4339 51.1007 34.2756C51.1884 34.0314 51.5154 33.826 51.5154 33.826L50.8225 32.725Z" fill="#2F3941" fill-opacity="0.15" style="mix-blend-mode:multiply"/>
<path d="M49.9862 34.6528C50.2796 34.6753 50.7719 34.6634 51.0462 34.524C51.1048 34.4624 51.2247 34.4475 51.2352 34.8803L47.7061 35.9888C47.4717 35.7648 48.7492 34.8453 49.1766 34.7021C49.604 34.5589 49.6929 34.6302 49.9862 34.6528Z" fill="#2F3941"/>
<path d="M68.3643 27.4931C68.4394 26.4321 67.5228 25.5687 66.4682 25.707C65.7616 25.7998 65.1409 25.8814 65.1311 25.8834C62.5444 26.4135 57.3873 26.9361 56.9207 27.1331C55.9542 27.542 52.1031 31.3848 50.9692 32.5289C50.7738 32.726 50.7085 33.0143 50.796 33.2776C50.9502 33.7413 51.5034 33.931 51.9097 33.6595L57.3501 30.0237C57.588 29.8647 57.8625 29.7691 58.1477 29.7458L60.6323 29.5431L66.7376 29.2961C67.5935 29.2614 68.2866 28.589 68.3472 27.7345L68.3643 27.4931Z" fill="#AC1961"/>
<path d="M60.1957 41.9541C60.1957 41.9541 59.8582 43.6325 59.8584 43.635C59.8485 43.7806 59.7325 44.8047 59.7116 44.5917C59.7597 45.082 61.9728 43.6418 61.456 43.473C61.4094 43.4581 61.2531 43.3147 61.222 43.1492C61.1739 42.8943 61.3514 42.5514 61.3514 42.5514L60.1957 41.9541Z" fill="#E6EBEE"/>
<path d="M60.1957 41.9541C60.1957 41.9541 59.8582 43.6325 59.8584 43.635C59.8485 43.7806 59.7325 44.8047 59.7116 44.5917C59.7597 45.082 61.9728 43.6418 61.456 43.473C61.4094 43.4581 61.2531 43.3147 61.222 43.1492C61.1739 42.8943 61.3514 42.5514 61.3514 42.5514L60.1957 41.9541Z" fill="url(#paint5_linear_1552_48276)" fill-opacity="0.8" style="mix-blend-mode:color-burn"/>
<path d="M60.1957 41.9541C60.1957 41.9541 59.8582 43.6325 59.8584 43.635C59.8485 43.7806 59.7325 44.8047 59.7116 44.5917C59.7597 45.082 61.9728 43.6418 61.456 43.473C61.4094 43.4581 61.2531 43.3147 61.222 43.1492C61.1739 42.8943 61.3514 42.5514 61.3514 42.5514L60.1957 41.9541Z" fill="#2F3941" fill-opacity="0.15" style="mix-blend-mode:multiply"/>
<path d="M60.4847 44.2192C60.7217 44.0448 61.2477 43.5803 61.3645 43.2956C61.7295 43.4672 61.7295 43.4672 61.7339 43.6476L59.2412 46.9113C58.9174 46.8946 59.402 45.1686 59.6323 44.7812C59.8039 44.4162 60.2477 44.3936 60.4847 44.2192Z" fill="#2F3941"/>
<path d="M71.0668 29.4835C71.0974 29.9616 70.8887 30.4238 70.5098 30.717L69.9122 31.1795L65.3446 34.6758C65.1565 34.8198 65.0068 35.0078 64.9086 35.2232L61.4543 42.8021C61.4543 42.8021 60.4849 42.9791 60.0621 42.5719L62.8166 33.1113C62.8667 32.9391 62.9484 32.7779 63.0576 32.6357L68.1624 25.9892L70.8849 26.6449L71.0668 29.4835Z" fill="#CE2A7A"/>
<path fill-rule="evenodd" clip-rule="evenodd" d="M68.3689 16.2789C68.3526 16.2832 68.3366 16.2874 68.3207 16.2916C67.9254 16.3958 67.6428 16.4703 67.477 16.3628C67.3015 16.2491 67.3072 15.8129 67.3134 15.3397C67.3152 15.2076 67.3169 15.0726 67.3148 14.9409C67.3136 14.864 67.2422 14.8139 67.1724 14.7649C67.0966 14.7118 67.0226 14.6599 67.0414 14.5762C67.2091 13.832 67.8639 13.1596 68.2432 12.801C69.0132 12.0731 71.58 12.5004 71.117 14.2972C70.9563 14.9208 70.5195 15.3795 69.9944 15.6974L69.9685 15.8384C69.9957 15.8396 70.0107 15.8406 70.0107 15.8406C70.0107 15.8406 69.8353 18.6844 69.6621 18.9207C69.4817 19.1669 68.433 18.6528 67.9554 18.4006C67.8891 18.3656 67.8375 18.3073 67.8098 18.2359C67.7821 18.1645 67.78 18.0847 67.804 18.0107C67.9491 17.5629 68.2406 16.6635 68.3689 16.2789Z" fill="#E6EBEE"/>
<path fill-rule="evenodd" clip-rule="evenodd" d="M68.3689 16.2789C68.3526 16.2832 68.3366 16.2874 68.3207 16.2916C67.9254 16.3958 67.6428 16.4703 67.477 16.3628C67.3015 16.2491 67.3072 15.8129 67.3134 15.3397C67.3152 15.2076 67.3169 15.0726 67.3148 14.9409C67.3136 14.864 67.2422 14.8139 67.1724 14.7649C67.0966 14.7118 67.0226 14.6599 67.0414 14.5762C67.2091 13.832 67.8639 13.1596 68.2432 12.801C69.0132 12.0731 71.58 12.5004 71.117 14.2972C70.9563 14.9208 70.5195 15.3795 69.9944 15.6974L69.9685 15.8384C69.9957 15.8396 70.0107 15.8406 70.0107 15.8406C70.0107 15.8406 69.8353 18.6844 69.6621 18.9207C69.4817 19.1669 68.433 18.6528 67.9554 18.4006C67.8891 18.3656 67.8375 18.3073 67.8098 18.2359C67.7821 18.1645 67.78 18.0847 67.804 18.0107C67.9491 17.5629 68.2406 16.6635 68.3689 16.2789Z" fill="url(#paint6_linear_1552_48276)" fill-opacity="0.8" style="mix-blend-mode:color-burn"/>
<path fill-rule="evenodd" clip-rule="evenodd" d="M68.3689 16.2789C68.3526 16.2832 68.3366 16.2874 68.3207 16.2916C67.9254 16.3958 67.6428 16.4703 67.477 16.3628C67.3015 16.2491 67.3072 15.8129 67.3134 15.3397C67.3152 15.2076 67.3169 15.0726 67.3148 14.9409C67.3136 14.864 67.2422 14.8139 67.1724 14.7649C67.0966 14.7118 67.0226 14.6599 67.0414 14.5762C67.2091 13.832 67.8639 13.1596 68.2432 12.801C69.0132 12.0731 71.58 12.5004 71.117 14.2972C70.9563 14.9208 70.5195 15.3795 69.9944 15.6974L69.9685 15.8384C69.9957 15.8396 70.0107 15.8406 70.0107 15.8406C70.0107 15.8406 69.8353 18.6844 69.6621 18.9207C69.4817 19.1669 68.433 18.6528 67.9554 18.4006C67.8891 18.3656 67.8375 18.3073 67.8098 18.2359C67.7821 18.1645 67.78 18.0847 67.804 18.0107C67.9491 17.5629 68.2406 16.6635 68.3689 16.2789Z" fill="#2F3941" fill-opacity="0.15" style="mix-blend-mode:multiply"/>
<path d="M68.8655 13.6755C68.7038 13.6825 68.5457 13.6272 68.4236 13.5209C68.4876 13.6851 68.7133 13.7629 68.8655 13.6755Z" fill="#2F3941"/>
<path d="M69.303 14.9919C69.1856 14.8524 68.9355 14.9101 68.955 15.1113C68.9893 15.0556 69.0415 15.0132 69.103 14.9912C69.1699 14.9798 69.2382 14.9798 69.3051 14.9912L69.303 14.9919Z" fill="#2F3941"/>
<path d="M69.3023 14.9886C69.4493 14.9839 69.6432 14.7215 69.5591 14.5956C69.5485 14.6656 69.5182 14.742 69.4731 14.8121C69.4199 14.8794 69.3616 14.9399 69.3007 14.991L69.3023 14.9886Z" fill="#2F3941"/>
<path d="M68.3881 12.4089C68.2917 12.6676 68.8845 13.1297 69.7263 13.461C69.5464 13.721 69.3953 14.0207 69.2938 14.3248C69.2833 14.3564 69.2734 14.388 69.2641 14.4196C69.4145 14.2777 69.592 14.2234 69.7127 14.2985C69.8745 14.3993 69.8728 14.6948 69.709 14.9585C69.5605 15.1974 69.3299 15.3283 69.1675 15.2758C69.2097 15.8425 69.4755 16.3003 69.9055 16.4438C70.5608 16.6625 72.0611 16.6616 72.184 16.5658C72.4854 15.6626 71.8007 13.1728 71.1699 12.7354C70.9407 12.501 70.6356 12.2793 70.2751 12.1448C69.3823 11.8117 68.4883 12.1403 68.3881 12.4089Z" fill="url(#paint7_linear_1552_48276)"/>
<path d="M57.6559 17.8815C57.927 17.8817 58.1118 18.0636 58.1118 18.0636L61.328 19.4787L64.7774 19.7996L65.4508 18.3537C65.4508 18.3537 61.7634 18.3945 61.5864 18.4474L57.7293 17.1707L57.5408 17.0247C57.4013 16.9808 57.277 16.9082 57.1581 16.8388C57.0583 16.7805 56.9623 16.7245 56.8644 16.6896C56.7753 16.6578 56.6593 16.5926 56.5446 16.5282C56.3606 16.4249 56.1803 16.3236 56.1212 16.3661C56.1142 16.3691 56.1079 16.3736 56.1027 16.3792C56.0975 16.3848 56.0935 16.3913 56.0909 16.3985C56.0882 16.4057 56.0871 16.4133 56.0875 16.421C56.088 16.4286 56.0899 16.436 56.0933 16.4429C56.1091 16.4805 56.2707 16.5819 56.4056 16.6665C56.5037 16.7281 56.5876 16.7808 56.5912 16.7937C56.5996 16.8243 56.5465 16.8112 56.5465 16.8112C56.5465 16.8112 55.9452 16.468 55.8313 16.4749C55.7353 16.481 55.7252 16.5635 55.7644 16.6118C55.7816 16.6331 55.9005 16.6953 56.0274 16.7618C56.188 16.8459 56.3616 16.9368 56.3585 16.96C56.3529 17.0017 56.2674 16.9557 56.2674 16.9557C56.2674 16.9557 55.5899 16.5776 55.4683 16.61C55.3681 16.6372 55.3964 16.7225 55.4853 16.7877C55.5198 16.813 55.6394 16.8757 55.7737 16.9461C55.9856 17.0571 56.2339 17.1872 56.2426 17.2201C56.2568 17.2739 56.1647 17.2301 56.1647 17.2301C56.1647 17.2301 55.4439 16.8849 55.3854 16.8816C55.3178 16.8778 55.2761 16.9411 55.3548 17.0291C55.4177 17.0994 55.7495 17.2966 55.9049 17.389C55.9439 17.4122 55.9718 17.4288 55.9815 17.4351C55.9942 17.4433 56.0334 17.4663 56.0844 17.4961C56.2273 17.5798 56.4631 17.7177 56.4673 17.7379C56.4698 17.7498 56.4165 17.7467 56.3405 17.7423C56.2422 17.7365 56.1061 17.7286 56.0041 17.7482C55.9401 17.7601 55.8374 17.7803 55.792 17.8377C55.7815 17.8513 55.7753 17.8676 55.7742 17.8848C55.7731 17.9019 55.7772 17.9189 55.786 17.9336C55.7947 17.9484 55.8077 17.9602 55.8232 17.9674C55.8387 17.9747 55.8561 17.9771 55.873 17.9744C55.9243 17.9631 55.9771 17.9601 56.0294 17.9653C56.0655 17.9749 56.1338 17.9837 56.2055 17.993C56.2358 17.9969 56.2667 18.0009 56.296 18.005C56.3947 18.019 56.5591 18.0397 56.6391 18.0473C56.7082 18.054 56.9916 18.0064 57.1283 17.9653C57.2524 17.926 57.38 17.899 57.5094 17.8846C57.553 17.883 57.6028 17.882 57.6559 17.8815Z" fill="#E6EBEE"/>
<path d="M57.6559 17.8815C57.927 17.8817 58.1118 18.0636 58.1118 18.0636L61.328 19.4787L64.7774 19.7996L65.4508 18.3537C65.4508 18.3537 61.7634 18.3945 61.5864 18.4474L57.7293 17.1707L57.5408 17.0247C57.4013 16.9808 57.277 16.9082 57.1581 16.8388C57.0583 16.7805 56.9623 16.7245 56.8644 16.6896C56.7753 16.6578 56.6593 16.5926 56.5446 16.5282C56.3606 16.4249 56.1803 16.3236 56.1212 16.3661C56.1142 16.3691 56.1079 16.3736 56.1027 16.3792C56.0975 16.3848 56.0935 16.3913 56.0909 16.3985C56.0882 16.4057 56.0871 16.4133 56.0875 16.421C56.088 16.4286 56.0899 16.436 56.0933 16.4429C56.1091 16.4805 56.2707 16.5819 56.4056 16.6665C56.5037 16.7281 56.5876 16.7808 56.5912 16.7937C56.5996 16.8243 56.5465 16.8112 56.5465 16.8112C56.5465 16.8112 55.9452 16.468 55.8313 16.4749C55.7353 16.481 55.7252 16.5635 55.7644 16.6118C55.7816 16.6331 55.9005 16.6953 56.0274 16.7618C56.188 16.8459 56.3616 16.9368 56.3585 16.96C56.3529 17.0017 56.2674 16.9557 56.2674 16.9557C56.2674 16.9557 55.5899 16.5776 55.4683 16.61C55.3681 16.6372 55.3964 16.7225 55.4853 16.7877C55.5198 16.813 55.6394 16.8757 55.7737 16.9461C55.9856 17.0571 56.2339 17.1872 56.2426 17.2201C56.2568 17.2739 56.1647 17.2301 56.1647 17.2301C56.1647 17.2301 55.4439 16.8849 55.3854 16.8816C55.3178 16.8778 55.2761 16.9411 55.3548 17.0291C55.4177 17.0994 55.7495 17.2966 55.9049 17.389C55.9439 17.4122 55.9718 17.4288 55.9815 17.4351C55.9942 17.4433 56.0334 17.4663 56.0844 17.4961C56.2273 17.5798 56.4631 17.7177 56.4673 17.7379C56.4698 17.7498 56.4165 17.7467 56.3405 17.7423C56.2422 17.7365 56.1061 17.7286 56.0041 17.7482C55.9401 17.7601 55.8374 17.7803 55.792 17.8377C55.7815 17.8513 55.7753 17.8676 55.7742 17.8848C55.7731 17.9019 55.7772 17.9189 55.786 17.9336C55.7947 17.9484 55.8077 17.9602 55.8232 17.9674C55.8387 17.9747 55.8561 17.9771 55.873 17.9744C55.9243 17.9631 55.9771 17.9601 56.0294 17.9653C56.0655 17.9749 56.1338 17.9837 56.2055 17.993C56.2358 17.9969 56.2667 18.0009 56.296 18.005C56.3947 18.019 56.5591 18.0397 56.6391 18.0473C56.7082 18.054 56.9916 18.0064 57.1283 17.9653C57.2524 17.926 57.38 17.899 57.5094 17.8846C57.553 17.883 57.6028 17.882 57.6559 17.8815Z" fill="url(#paint8_linear_1552_48276)" fill-opacity="0.8" style="mix-blend-mode:color-burn"/>
<path d="M57.6559 17.8815C57.927 17.8817 58.1118 18.0636 58.1118 18.0636L61.328 19.4787L64.7774 19.7996L65.4508 18.3537C65.4508 18.3537 61.7634 18.3945 61.5864 18.4474L57.7293 17.1707L57.5408 17.0247C57.4013 16.9808 57.277 16.9082 57.1581 16.8388C57.0583 16.7805 56.9623 16.7245 56.8644 16.6896C56.7753 16.6578 56.6593 16.5926 56.5446 16.5282C56.3606 16.4249 56.1803 16.3236 56.1212 16.3661C56.1142 16.3691 56.1079 16.3736 56.1027 16.3792C56.0975 16.3848 56.0935 16.3913 56.0909 16.3985C56.0882 16.4057 56.0871 16.4133 56.0875 16.421C56.088 16.4286 56.0899 16.436 56.0933 16.4429C56.1091 16.4805 56.2707 16.5819 56.4056 16.6665C56.5037 16.7281 56.5876 16.7808 56.5912 16.7937C56.5996 16.8243 56.5465 16.8112 56.5465 16.8112C56.5465 16.8112 55.9452 16.468 55.8313 16.4749C55.7353 16.481 55.7252 16.5635 55.7644 16.6118C55.7816 16.6331 55.9005 16.6953 56.0274 16.7618C56.188 16.8459 56.3616 16.9368 56.3585 16.96C56.3529 17.0017 56.2674 16.9557 56.2674 16.9557C56.2674 16.9557 55.5899 16.5776 55.4683 16.61C55.3681 16.6372 55.3964 16.7225 55.4853 16.7877C55.5198 16.813 55.6394 16.8757 55.7737 16.9461C55.9856 17.0571 56.2339 17.1872 56.2426 17.2201C56.2568 17.2739 56.1647 17.2301 56.1647 17.2301C56.1647 17.2301 55.4439 16.8849 55.3854 16.8816C55.3178 16.8778 55.2761 16.9411 55.3548 17.0291C55.4177 17.0994 55.7495 17.2966 55.9049 17.389C55.9439 17.4122 55.9718 17.4288 55.9815 17.4351C55.9942 17.4433 56.0334 17.4663 56.0844 17.4961C56.2273 17.5798 56.4631 17.7177 56.4673 17.7379C56.4698 17.7498 56.4165 17.7467 56.3405 17.7423C56.2422 17.7365 56.1061 17.7286 56.0041 17.7482C55.9401 17.7601 55.8374 17.7803 55.792 17.8377C55.7815 17.8513 55.7753 17.8676 55.7742 17.8848C55.7731 17.9019 55.7772 17.9189 55.786 17.9336C55.7947 17.9484 55.8077 17.9602 55.8232 17.9674C55.8387 17.9747 55.8561 17.9771 55.873 17.9744C55.9243 17.9631 55.9771 17.9601 56.0294 17.9653C56.0655 17.9749 56.1338 17.9837 56.2055 17.993C56.2358 17.9969 56.2667 18.0009 56.296 18.005C56.3947 18.019 56.5591 18.0397 56.6391 18.0473C56.7082 18.054 56.9916 18.0064 57.1283 17.9653C57.2524 17.926 57.38 17.899 57.5094 17.8846C57.553 17.883 57.6028 17.882 57.6559 17.8815Z" fill="#2F3941" fill-opacity="0.15" style="mix-blend-mode:multiply"/>
<path d="M77.4382 15.8455C77.5081 15.717 77.6032 15.609 77.6942 15.5057L77.6942 15.5056C77.7706 15.4189 77.844 15.3355 77.8971 15.2462C77.9454 15.1648 78.0317 15.0635 78.1169 14.9634C78.2538 14.8027 78.3878 14.6452 78.3575 14.5791C78.3558 14.5716 78.3527 14.5646 78.3482 14.5584C78.3437 14.5522 78.338 14.547 78.3315 14.543C78.325 14.5391 78.3177 14.5365 78.3101 14.5355C78.3026 14.5344 78.2949 14.5349 78.2875 14.5369C78.2475 14.5452 78.1169 14.6842 78.0079 14.8003L78.0079 14.8003C77.9287 14.8847 77.8608 14.957 77.8475 14.958C77.8158 14.9604 77.8389 14.9108 77.8389 14.9108C77.8389 14.9108 78.2913 14.3868 78.3065 14.2736C78.319 14.1782 78.2399 14.1525 78.185 14.1816C78.1608 14.1945 78.0768 14.2991 77.9872 14.4109L77.9872 14.4109C77.8738 14.5523 77.7512 14.7052 77.729 14.6977C77.6892 14.6842 77.7508 14.6091 77.7508 14.6091C77.7508 14.6091 78.2521 14.017 78.2437 13.8914C78.2363 13.7878 78.1471 13.7992 78.066 13.8739C78.0346 13.9029 77.9501 14.0082 77.8552 14.1265C77.7055 14.313 77.53 14.5317 77.4961 14.5339C77.4406 14.5375 77.5012 14.4555 77.5012 14.4555C77.5012 14.4555 77.9786 13.8146 77.9931 13.7578C78.0098 13.6923 77.9557 13.6391 77.8543 13.6994C77.7732 13.7476 77.5158 14.0353 77.3953 14.17L77.395 14.1703C77.3649 14.204 77.3433 14.2281 77.3353 14.2364C77.3248 14.2472 77.2948 14.2812 77.2557 14.3255L77.2557 14.3256L77.2557 14.3256C77.146 14.4498 76.9653 14.6546 76.9447 14.6549C76.9325 14.655 76.9459 14.6033 76.9648 14.5296L76.9648 14.5296C76.9894 14.4342 77.0234 14.3021 77.0237 14.1984C77.0243 14.1332 77.0243 14.0285 76.9766 13.973C76.9654 13.96 76.9505 13.9508 76.9339 13.9464C76.9173 13.9421 76.8998 13.9428 76.8837 13.9486C76.8675 13.9543 76.8535 13.9648 76.8434 13.9786C76.8332 13.9925 76.8275 14.009 76.827 14.0261C76.8281 14.0787 76.821 14.1311 76.8058 14.1814C76.7894 14.215 76.7676 14.2803 76.7448 14.3488L76.7448 14.3488C76.7351 14.3778 76.7252 14.4074 76.7155 14.4354C76.6828 14.5295 76.6309 14.6869 76.6081 14.7639C76.5882 14.8305 76.5804 15.1177 76.5945 15.2598C76.6091 15.3891 76.6111 15.5196 76.6003 15.6493L76.5936 15.6902L75.1058 18.9681C75.1058 18.9681 72.0708 18.5453 71.8764 18.3838C71.682 18.2222 70.1419 19.1591 70.1616 19.4335C70.2233 20.2909 73.1096 20.3824 73.9877 20.3235C74.3204 20.3012 74.6965 20.3037 75.0374 20.3059L75.0374 20.3059L75.0374 20.3059C75.5963 20.3096 76.0607 20.3126 76.084 20.2048L77.4382 15.8455Z" fill="#E6EBEE"/>
<path d="M77.4382 15.8455C77.5081 15.717 77.6032 15.609 77.6942 15.5057L77.6942 15.5056C77.7706 15.4189 77.844 15.3355 77.8971 15.2462C77.9454 15.1648 78.0317 15.0635 78.1169 14.9634C78.2538 14.8027 78.3878 14.6452 78.3575 14.5791C78.3558 14.5716 78.3527 14.5646 78.3482 14.5584C78.3437 14.5522 78.338 14.547 78.3315 14.543C78.325 14.5391 78.3177 14.5365 78.3101 14.5355C78.3026 14.5344 78.2949 14.5349 78.2875 14.5369C78.2475 14.5452 78.1169 14.6842 78.0079 14.8003L78.0079 14.8003C77.9287 14.8847 77.8608 14.957 77.8475 14.958C77.8158 14.9604 77.8389 14.9108 77.8389 14.9108C77.8389 14.9108 78.2913 14.3868 78.3065 14.2736C78.319 14.1782 78.2399 14.1525 78.185 14.1816C78.1608 14.1945 78.0768 14.2991 77.9872 14.4109L77.9872 14.4109C77.8738 14.5523 77.7512 14.7052 77.729 14.6977C77.6892 14.6842 77.7508 14.6091 77.7508 14.6091C77.7508 14.6091 78.2521 14.017 78.2437 13.8914C78.2363 13.7878 78.1471 13.7992 78.066 13.8739C78.0346 13.9029 77.9501 14.0082 77.8552 14.1265C77.7055 14.313 77.53 14.5317 77.4961 14.5339C77.4406 14.5375 77.5012 14.4555 77.5012 14.4555C77.5012 14.4555 77.9786 13.8146 77.9931 13.7578C78.0098 13.6923 77.9557 13.6391 77.8543 13.6994C77.7732 13.7476 77.5158 14.0353 77.3953 14.17L77.395 14.1703C77.3649 14.204 77.3433 14.2281 77.3353 14.2364C77.3248 14.2472 77.2948 14.2812 77.2557 14.3255L77.2557 14.3256L77.2557 14.3256C77.146 14.4498 76.9653 14.6546 76.9447 14.6549C76.9325 14.655 76.9459 14.6033 76.9648 14.5296L76.9648 14.5296C76.9894 14.4342 77.0234 14.3021 77.0237 14.1984C77.0243 14.1332 77.0243 14.0285 76.9766 13.973C76.9654 13.96 76.9505 13.9508 76.9339 13.9464C76.9173 13.9421 76.8998 13.9428 76.8837 13.9486C76.8675 13.9543 76.8535 13.9648 76.8434 13.9786C76.8332 13.9925 76.8275 14.009 76.827 14.0261C76.8281 14.0787 76.821 14.1311 76.8058 14.1814C76.7894 14.215 76.7676 14.2803 76.7448 14.3488L76.7448 14.3488C76.7351 14.3778 76.7252 14.4074 76.7155 14.4354C76.6828 14.5295 76.6309 14.6869 76.6081 14.7639C76.5882 14.8305 76.5804 15.1177 76.5945 15.2598C76.6091 15.3891 76.6111 15.5196 76.6003 15.6493L76.5936 15.6902L75.1058 18.9681C75.1058 18.9681 72.0708 18.5453 71.8764 18.3838C71.682 18.2222 70.1419 19.1591 70.1616 19.4335C70.2233 20.2909 73.1096 20.3824 73.9877 20.3235C74.3204 20.3012 74.6965 20.3037 75.0374 20.3059L75.0374 20.3059L75.0374 20.3059C75.5963 20.3096 76.0607 20.3126 76.084 20.2048L77.4382 15.8455Z" fill="url(#paint9_linear_1552_48276)" fill-opacity="0.8" style="mix-blend-mode:color-burn"/>
<path d="M77.4382 15.8455C77.5081 15.717 77.6032 15.609 77.6942 15.5057L77.6942 15.5056C77.7706 15.4189 77.844 15.3355 77.8971 15.2462C77.9454 15.1648 78.0317 15.0635 78.1169 14.9634C78.2538 14.8027 78.3878 14.6452 78.3575 14.5791C78.3558 14.5716 78.3527 14.5646 78.3482 14.5584C78.3437 14.5522 78.338 14.547 78.3315 14.543C78.325 14.5391 78.3177 14.5365 78.3101 14.5355C78.3026 14.5344 78.2949 14.5349 78.2875 14.5369C78.2475 14.5452 78.1169 14.6842 78.0079 14.8003L78.0079 14.8003C77.9287 14.8847 77.8608 14.957 77.8475 14.958C77.8158 14.9604 77.8389 14.9108 77.8389 14.9108C77.8389 14.9108 78.2913 14.3868 78.3065 14.2736C78.319 14.1782 78.2399 14.1525 78.185 14.1816C78.1608 14.1945 78.0768 14.2991 77.9872 14.4109L77.9872 14.4109C77.8738 14.5523 77.7512 14.7052 77.729 14.6977C77.6892 14.6842 77.7508 14.6091 77.7508 14.6091C77.7508 14.6091 78.2521 14.017 78.2437 13.8914C78.2363 13.7878 78.1471 13.7992 78.066 13.8739C78.0346 13.9029 77.9501 14.0082 77.8552 14.1265C77.7055 14.313 77.53 14.5317 77.4961 14.5339C77.4406 14.5375 77.5012 14.4555 77.5012 14.4555C77.5012 14.4555 77.9786 13.8146 77.9931 13.7578C78.0098 13.6923 77.9557 13.6391 77.8543 13.6994C77.7732 13.7476 77.5158 14.0353 77.3953 14.17L77.395 14.1703C77.3649 14.204 77.3433 14.2281 77.3353 14.2364C77.3248 14.2472 77.2948 14.2812 77.2557 14.3255L77.2557 14.3256L77.2557 14.3256C77.146 14.4498 76.9653 14.6546 76.9447 14.6549C76.9325 14.655 76.9459 14.6033 76.9648 14.5296L76.9648 14.5296C76.9894 14.4342 77.0234 14.3021 77.0237 14.1984C77.0243 14.1332 77.0243 14.0285 76.9766 13.973C76.9654 13.96 76.9505 13.9508 76.9339 13.9464C76.9173 13.9421 76.8998 13.9428 76.8837 13.9486C76.8675 13.9543 76.8535 13.9648 76.8434 13.9786C76.8332 13.9925 76.8275 14.009 76.827 14.0261C76.8281 14.0787 76.821 14.1311 76.8058 14.1814C76.7894 14.215 76.7676 14.2803 76.7448 14.3488L76.7448 14.3488C76.7351 14.3778 76.7252 14.4074 76.7155 14.4354C76.6828 14.5295 76.6309 14.6869 76.6081 14.7639C76.5882 14.8305 76.5804 15.1177 76.5945 15.2598C76.6091 15.3891 76.6111 15.5196 76.6003 15.6493L76.5936 15.6902L75.1058 18.9681C75.1058 18.9681 72.0708 18.5453 71.8764 18.3838C71.682 18.2222 70.1419 19.1591 70.1616 19.4335C70.2233 20.2909 73.1096 20.3824 73.9877 20.3235C74.3204 20.3012 74.6965 20.3037 75.0374 20.3059L75.0374 20.3059L75.0374 20.3059C75.5963 20.3096 76.0607 20.3126 76.084 20.2048L77.4382 15.8455Z" fill="#2F3941" fill-opacity="0.15" style="mix-blend-mode:multiply"/>
<path d="M64.6078 20.0146L64.5141 18.0478C64.5141 18.0478 65.6612 17.9601 66.4259 18.0014C67.4287 18.0556 67.8129 17.5876 67.7809 17.6984C68.1481 17.9596 68.6883 19.1155 68.3282 19.3487C67.0823 20.1566 64.6078 20.0146 64.6078 20.0146Z" fill="url(#paint10_linear_1552_48276)"/>
<path d="M70.0388 17.6097L70.3144 17.9977C70.4305 18.0876 70.4253 17.9497 71.2204 18.1562C72.4915 18.4863 73.8658 18.5133 73.8658 18.5133L73.7483 20.5539C73.7483 20.5539 72.1339 20.4618 71.3885 20.5522C71.8848 23.1285 71.1802 26.4582 70.8893 26.8253C70.8893 26.8253 66.2983 27.8388 65.4534 25.8745C65.0706 24.9845 66.1999 19.7001 66.9129 18.6882C66.9966 18.5693 67.0595 18.4763 67.1101 18.4012C67.2213 18.2367 67.2742 18.1584 67.3614 18.0831L67.4404 17.4855C68.2479 17.8356 68.9083 17.9878 69.3113 17.9055C69.3307 17.8994 69.3514 17.8942 69.3733 17.8899C69.4394 17.8769 69.4998 17.8666 69.555 17.8572C69.81 17.8135 69.9539 17.7889 70.0388 17.6097Z" fill="url(#paint11_linear_1552_48276)"/>
<defs>
<filter id="filter0_d_1552_48276" x="81.0923" y="38.0427" width="36.0741" height="36.0734" filterUnits="userSpaceOnUse" color-interpolation-filters="sRGB">
<feFlood flood-opacity="0" result="BackgroundImageFix"/>
<feColorMatrix in="SourceAlpha" type="matrix" values="0 0 0 0 0 0 0 0 0 0 0 0 0 0 0 0 0 0 127 0" result="hardAlpha"/>
<feOffset dy="4.04466"/>
<feGaussianBlur stdDeviation="4.04466"/>
<feColorMatrix type="matrix" values="0 0 0 0 0.184314 0 0 0 0 0.223529 0 0 0 0 0.254902 0 0 0 0.15 0"/>
<feBlend mode="normal" in2="BackgroundImageFix" result="effect1_dropShadow_1552_48276"/>
<feBlend mode="normal" in="SourceGraphic" in2="effect1_dropShadow_1552_48276" result="shape"/>
</filter>
<filter id="filter1_d_1552_48276" x="0.506836" y="28.8673" width="48.1323" height="41.0222" filterUnits="userSpaceOnUse" color-interpolation-filters="sRGB">
<feFlood flood-opacity="0" result="BackgroundImageFix"/>
<feColorMatrix in="SourceAlpha" type="matrix" values="0 0 0 0 0 0 0 0 0 0 0 0 0 0 0 0 0 0 127 0" result="hardAlpha"/>
<feOffset dy="4"/>
<feGaussianBlur stdDeviation="4"/>
<feColorMatrix type="matrix" values="0 0 0 0 0.184314 0 0 0 0 0.223529 0 0 0 0 0.254902 0 0 0 0.15 0"/>
<feBlend mode="normal" in2="BackgroundImageFix" result="effect1_dropShadow_1552_48276"/>
<feBlend mode="normal" in="SourceGraphic" in2="effect1_dropShadow_1552_48276" result="shape"/>
</filter>
<filter id="filter2_d_1552_48276" x="10.634" y="25.4878" width="86.2065" height="85.7082" filterUnits="userSpaceOnUse" color-interpolation-filters="sRGB">
<feFlood flood-opacity="0" result="BackgroundImageFix"/>
<feColorMatrix in="SourceAlpha" type="matrix" values="0 0 0 0 0 0 0 0 0 0 0 0 0 0 0 0 0 0 127 0" result="hardAlpha"/>
<feOffset dy="3.35705"/>
<feGaussianBlur stdDeviation="3.35705"/>
<feColorMatrix type="matrix" values="0 0 0 0 0.184314 0 0 0 0 0.223529 0 0 0 0 0.254902 0 0 0 0.15 0"/>
<feBlend mode="normal" in2="BackgroundImageFix" result="effect1_dropShadow_1552_48276"/>
<feBlend mode="normal" in="SourceGraphic" in2="effect1_dropShadow_1552_48276" result="shape"/>
</filter>
<filter id="filter3_d_1552_48276" x="23.0873" y="32.4644" width="66.5989" height="61.4085" filterUnits="userSpaceOnUse" color-interpolation-filters="sRGB">
<feFlood flood-opacity="0" result="BackgroundImageFix"/>
<feColorMatrix in="SourceAlpha" type="matrix" values="0 0 0 0 0 0 0 0 0 0 0 0 0 0 0 0 0 0 127 0" result="hardAlpha"/>
<feOffset dy="3.77619"/>
<feGaussianBlur stdDeviation="3.77619"/>
<feColorMatrix type="matrix" values="0 0 0 0 0.184314 0 0 0 0 0.223529 0 0 0 0 0.254902 0 0 0 0.15 0"/>
<feBlend mode="normal" in2="BackgroundImageFix" result="effect1_dropShadow_1552_48276"/>
<feBlend mode="normal" in="SourceGraphic" in2="effect1_dropShadow_1552_48276" result="shape"/>
</filter>
<linearGradient id="paint0_linear_1552_48276" x1="24.0928" y1="27" x2="103.181" y2="28.1188" gradientUnits="userSpaceOnUse">
<stop stop-color="#001825"/>
<stop offset="1" stop-color="#003A57"/>
</linearGradient>
<linearGradient id="paint1_linear_1552_48276" x1="82.0663" y1="112.643" x2="49.6277" y2="56.467" gradientUnits="userSpaceOnUse">
<stop stop-color="white" stop-opacity="0"/>
<stop offset="1" stop-color="white" stop-opacity="0.8"/>
</linearGradient>
<linearGradient id="paint2_linear_1552_48276" x1="48.1584" y1="72.0883" x2="100.999" y2="89.8737" gradientUnits="userSpaceOnUse">
<stop offset="0.213542" stop-color="#323444"/>
<stop offset="0.6875" stop-color="#2F3941" stop-opacity="0.291667"/>
<stop offset="1" stop-color="#2F3941" stop-opacity="0"/>
</linearGradient>
<linearGradient id="paint3_linear_1552_48276" x1="25.1584" y1="85.0883" x2="77.9986" y2="102.874" gradientUnits="userSpaceOnUse">
<stop offset="0.213542" stop-color="#323444"/>
<stop offset="0.6875" stop-color="#2F3941" stop-opacity="0.291667"/>
<stop offset="1" stop-color="#2F3941" stop-opacity="0"/>
</linearGradient>
<linearGradient id="paint4_linear_1552_48276" x1="49.2744" y1="34.71" x2="49.6641" y2="32.7559" gradientUnits="userSpaceOnUse">
<stop offset="0.213542" stop-color="#323444"/>
<stop offset="0.6875" stop-color="#2F3941" stop-opacity="0.291667"/>
<stop offset="1" stop-color="#2F3941" stop-opacity="0"/>
</linearGradient>
<linearGradient id="paint5_linear_1552_48276" x1="59.8685" y1="44.2812" x2="60.5908" y2="42.1097" gradientUnits="userSpaceOnUse">
<stop offset="0.213542" stop-color="#323444"/>
<stop offset="0.6875" stop-color="#2F3941" stop-opacity="0.291667"/>
<stop offset="1" stop-color="#2F3941" stop-opacity="0"/>
</linearGradient>
<linearGradient id="paint6_linear_1552_48276" x1="67.0227" y1="11.0661" x2="71.0175" y2="19.8138" gradientUnits="userSpaceOnUse">
<stop offset="0.213542" stop-color="#323444"/>
<stop offset="0.6875" stop-color="#2F3941" stop-opacity="0.291667"/>
<stop offset="1" stop-color="#2F3941" stop-opacity="0"/>
</linearGradient>
<linearGradient id="paint7_linear_1552_48276" x1="68.4248" y1="11.9058" x2="72.6377" y2="12.3188" gradientUnits="userSpaceOnUse">
<stop stop-color="#001825"/>
<stop offset="1" stop-color="#003A57"/>
</linearGradient>
<linearGradient id="paint8_linear_1552_48276" x1="66.5423" y1="16.0509" x2="63.3775" y2="22.1613" gradientUnits="userSpaceOnUse">
<stop offset="0.213542" stop-color="#323444"/>
<stop offset="0.6875" stop-color="#2F3941" stop-opacity="0.291667"/>
<stop offset="1" stop-color="#2F3941" stop-opacity="0"/>
</linearGradient>
<linearGradient id="paint9_linear_1552_48276" x1="70.9913" y1="19.8828" x2="71.336" y2="14.333" gradientUnits="userSpaceOnUse">
<stop offset="0.213542" stop-color="#323444"/>
<stop offset="0.6875" stop-color="#2F3941" stop-opacity="0.291667"/>
<stop offset="1" stop-color="#2F3941" stop-opacity="0"/>
</linearGradient>
<linearGradient id="paint10_linear_1552_48276" x1="68.3853" y1="20.2188" x2="68.4996" y2="17.6852" gradientUnits="userSpaceOnUse">
<stop stop-color="#001825"/>
<stop offset="1" stop-color="#003A57"/>
</linearGradient>
<linearGradient id="paint11_linear_1552_48276" x1="65.1875" y1="17.5402" x2="73.9608" y2="17.439" gradientUnits="userSpaceOnUse">
<stop stop-color="#001825"/>
<stop offset="1" stop-color="#003A57"/>
</linearGradient>
</defs>
</svg>
