<svg width="26" height="26" viewBox="0 0 26 26" fill="none" xmlns="http://www.w3.org/2000/svg">
	<linearGradient id="unguessServicesGradient">
		<stop class="stop1" offset="11.98%" stopColor="#70c38a" />
		<stop class="stop3" offset="100%" stopColor="#001825" />
	</linearGradient>
	<path fill="url(#unguessServicesGradient)" fill-rule="evenodd" clip-rule="evenodd"
		d="M9.57143 15.4286V17.7143H16.4286V15.4286H21V5.14286C21 4.51429 20.4857 4 19.8571 4H6.14286C5.51429 4 5 4.51429 5 5.14286V15.4286H9.57143ZM9 7.42857H17C17.32 7.42857 17.5714 7.68 17.5714 8C17.5714 8.32 17.32 8.57143 17 8.57143H9C8.68 8.57143 8.42857 8.32 8.42857 8C8.42857 7.68 8.68 7.42857 9 7.42857ZM9 9.71429H17C17.32 9.71429 17.5714 9.96571 17.5714 10.2857C17.5714 10.6057 17.32 10.8571 17 10.8571H9C8.68 10.8571 8.42857 10.6057 8.42857 10.2857C8.42857 9.96571 8.68 9.71429 9 9.71429ZM9 12H17C17.32 12 17.5714 12.2514 17.5714 12.5714C17.5714 12.8914 17.32 13.1429 17 13.1429H9C8.68 13.1429 8.42857 12.8914 8.42857 12.5714C8.42857 12.2514 8.68 12 9 12ZM17.5714 16.5714V17.7143C17.5714 18.3429 17.0571 18.8571 16.4286 18.8571H9.57143C8.94286 18.8571 8.42857 18.3429 8.42857 17.7143V16.5714H5V21.1429C5 21.7714 5.51429 22.2857 6.14286 22.2857H19.8571C20.4857 22.2857 21 21.7714 21 21.1429V16.5714H17.5714Z"/>
</svg>