<svg width="26" height="26" viewBox="0 0 26 26" fill="none" xmlns="http://www.w3.org/2000/svg">
<path opacity="0.3" d="M17 12H12V17H17V12Z" fill="url(#paint0_linear_2183_17321)"/>
<path opacity="0.3" d="M10 12H5.00001V17H10V12Z" fill="url(#paint1_linear_2183_17321)"/>
<path opacity="0.3" d="M17 5H5.00001V10H17V5Z" fill="url(#paint2_linear_2183_17321)"/>
<path d="M21 7V21H7.00002V23H21C22.1 23 23 22.1 23 21V7H21Z" fill="url(#paint3_linear_2183_17321)"/>
<path d="M19 17V5C19 3.9 18.1 3 17 3H5C3.9 3 3 3.9 3 5V17C3 18.1 3.9 19 5 19H17C18.1 19 19 18.1 19 17ZM5 5H17V10H5V5ZM10 17H5V12H10V17ZM12 12H17V17H12V12Z" fill="url(#paint4_linear_2183_17321)"/>
<defs>
<linearGradient id="paint0_linear_2183_17321" x1="16.625" y1="16.625" x2="11.5553" y2="16.5533" gradientUnits="userSpaceOnUse">
<stop offset="0.119792" stop-color="#003A57"/>
<stop offset="1" stop-color="#00B280"/>
</linearGradient>
<linearGradient id="paint1_linear_2183_17321" x1="9.625" y1="16.625" x2="4.55529" y2="16.5533" gradientUnits="userSpaceOnUse">
<stop offset="0.119792" stop-color="#003A57"/>
<stop offset="1" stop-color="#00B280"/>
</linearGradient>
<linearGradient id="paint2_linear_2183_17321" x1="16.1" y1="9.625" x2="3.94427" y2="9.21231" gradientUnits="userSpaceOnUse">
<stop offset="0.119792" stop-color="#003A57"/>
<stop offset="1" stop-color="#00B280"/>
</linearGradient>
<linearGradient id="paint3_linear_2183_17321" x1="21.8" y1="21.8" x2="5.57693" y2="21.5705" gradientUnits="userSpaceOnUse">
<stop offset="0.119792" stop-color="#003A57"/>
<stop offset="1" stop-color="#00B280"/>
</linearGradient>
<linearGradient id="paint4_linear_2183_17321" x1="17.8" y1="17.8" x2="1.57692" y2="17.5705" gradientUnits="userSpaceOnUse">
<stop offset="0.119792" stop-color="#003A57"/>
<stop offset="1" stop-color="#00B280"/>
</linearGradient>
</defs>
</svg>
