<svg width="156" height="194" viewBox="0 0 156 194" fill="none" xmlns="http://www.w3.org/2000/svg">
<path d="M11.8428 193.334C11.8428 193.334 11.8428 167.471 42.4683 158.368C73.0938 149.257 65.8059 101.822 104.088 109.122C142.37 116.423 123.775 164.951 138.726 175.529C153.677 186.114 150.394 193.334 150.394 193.334H11.8428Z" fill="#E6E6E6"/>
<g clip-path="url(#clip0_1_18591)">
<path d="M127.057 193.569L143.201 105.02C134.756 103.57 127.036 179.799 127.036 179.799C127.036 179.799 132.629 89 124.074 89C124.067 89 124.06 89 124.053 89L125.897 193.549L127.057 193.569Z" fill="#1466A9" fill-opacity="0.35"/>
<path d="M130.268 193.624L150.894 135.24C145.549 134.981 138.637 157.81 135.419 169.646C134.335 173.919 133.624 176.572 133.624 176.572C133.624 176.572 134.3 173.782 135.419 169.646C139.749 152.546 149.969 109.368 143.857 105.273L127.761 193.576L130.275 193.617L130.268 193.624Z" fill="#1466A9" fill-opacity="0.35"/>
<path d="M135.412 169.652C134.287 173.782 133.617 176.579 133.617 176.579C133.617 176.579 134.335 173.926 135.412 169.652Z" fill="#A0ABE9"/>
<path d="M133.285 193.679C133.285 193.679 158.952 139.343 151.716 135.473C151.667 135.446 151.612 135.432 151.564 135.411L130.993 193.644L133.285 193.685V193.679Z" fill="#1466A9" fill-opacity="0.35"/>
<path d="M122.43 193.487L123.625 193.508L101.99 116.725C95.2369 119.412 122.43 193.487 122.43 193.487Z" fill="#1466A9" fill-opacity="0.35"/>
<path d="M125.206 193.535L123.362 89.2325C115.912 94.2237 122.423 179.799 122.423 179.799C122.423 179.799 109.752 118.318 102.681 116.677L124.336 193.528L125.199 193.542L125.206 193.535Z" fill="#1466A9" fill-opacity="0.35"/>
<path d="M124.343 193.521L102.688 116.67C102.46 116.616 102.239 116.623 102.025 116.698C102.011 116.698 101.997 116.711 101.984 116.718L123.618 193.501L124.336 193.515L124.343 193.521Z" fill="#C2C8CC"/>
<path d="M125.897 193.549L124.053 89C123.811 89 123.583 89.082 123.369 89.2325L125.206 193.535L125.897 193.549Z" fill="#C2C8CC"/>
<path d="M127.754 193.583L143.85 105.28C143.733 105.204 143.616 105.136 143.484 105.088C143.388 105.054 143.291 105.033 143.194 105.02L127.05 193.569L127.747 193.583H127.754Z" fill="#C2C8CC"/>
<path d="M130.993 193.638L151.564 135.405C151.343 135.309 151.115 135.254 150.887 135.24L130.261 193.624L130.986 193.638H130.993Z" fill="#C2C8CC"/>
<path d="M97.0254 182.534C97.2533 183.628 97.4121 184.223 97.4121 184.223C97.4121 184.223 97.2947 183.607 97.0254 182.534Z" fill="#637ABE"/>
</g>
<path d="M8.13146 37.8509C7.98263 45.7921 22.8795 51.6736 52.4941 63.3656C87.352 77.1291 131.34 94.4966 145.653 78.0395C156.187 65.9272 149.224 37.119 133.728 21.475C96.8089 -15.7931 8.49178 18.6579 8.13146 37.8509Z" fill="url(#paint0_linear_1_18591)"/>
<path d="M143.941 73.4887C143.986 73.4527 143.98 73.3976 143.966 73.2609C143.942 73.0165 143.917 72.7719 143.901 72.527C143.899 72.4884 143.931 72.4318 143.965 72.4097C144.164 72.2784 144.37 72.1591 144.568 72.0256C144.629 71.9846 144.667 71.9729 144.734 72.0133C145.003 72.1743 145.276 72.328 145.545 72.4826C145.761 72.2986 146.163 71.7233 146.238 71.4881C146.009 71.2951 145.779 71.0944 145.541 70.9029C145.467 70.8433 145.454 70.8005 145.481 70.7048C145.546 70.4831 145.591 70.2544 145.63 70.0262C145.647 69.9337 145.668 69.8781 145.769 69.8531C146.033 69.7884 146.293 69.7077 146.555 69.6384C146.626 69.6198 146.659 69.5873 146.646 69.5141C146.584 69.1697 146.522 68.8253 146.461 68.481C146.445 68.3964 146.38 68.4157 146.328 68.4193C146.065 68.4376 145.801 68.4546 145.539 68.4819C145.441 68.492 145.392 68.4632 145.343 68.3743C145.213 68.1396 145.068 67.9133 144.918 67.666L145.404 66.7955C145.114 66.5081 144.785 66.2836 144.409 66.1042L143.781 66.8515C143.469 66.7887 143.182 66.7239 142.891 66.6763C142.807 66.6625 142.779 66.6323 142.759 66.5571C142.69 66.2961 142.612 66.0372 142.541 65.7769C142.525 65.7206 142.508 65.6823 142.44 65.6845C142.095 65.6956 141.755 65.7358 141.427 65.8502C141.354 65.8757 141.339 65.9141 141.345 65.9831C141.369 66.2598 141.388 66.5371 141.413 66.8138C141.419 66.8807 141.408 66.916 141.343 66.9554C141.12 67.0923 140.902 67.239 140.689 67.3911C140.634 67.43 140.602 67.4228 140.552 67.3946C140.28 67.2393 140.007 67.0862 139.727 66.9278C139.453 67.2219 139.22 67.537 139.046 67.9059L139.825 68.5702L139.614 69.5492C139.384 69.6141 139.119 69.6864 138.856 69.7634C138.64 69.8269 138.651 69.7849 138.67 70.0273C138.672 70.0504 138.666 70.0739 138.663 70.0974L138.778 70.7157C138.795 70.7598 138.819 70.8027 138.827 70.8484C138.848 70.9672 138.9 71.013 139.03 70.9981C139.299 70.967 139.571 70.9529 139.842 70.9383C139.878 70.9365 139.93 70.9634 139.95 70.9934C140.084 71.1891 140.201 71.3969 140.344 71.5848C140.414 71.6768 140.408 71.7334 140.356 71.8235C140.207 72.079 140.069 72.3411 139.912 72.626L140.893 73.3223C140.943 73.2654 140.972 73.2332 140.999 73.2001C141.171 72.9949 141.346 72.7914 141.514 72.5832C141.562 72.5241 141.604 72.5201 141.676 72.5371C141.924 72.5953 142.176 72.6375 142.425 72.6941C142.464 72.7028 142.511 72.749 142.524 72.7876C142.59 72.9989 142.645 73.2139 142.707 73.4266C142.757 73.5986 142.776 73.6624 142.852 73.686L143.941 73.4887ZM143.199 72.0957C142.644 72.2215 142.062 72.1497 141.551 71.8923C141.04 71.635 140.633 71.2082 140.397 70.6845C140.162 70.1609 140.114 69.5729 140.261 69.0207C140.408 68.4685 140.741 67.9862 141.203 67.6561C141.666 67.326 142.229 67.1684 142.798 67.2103C143.366 67.2522 143.904 67.4908 144.319 67.8857C144.735 68.2805 145.003 68.8071 145.078 69.3756C145.153 69.9442 145.029 70.5195 144.729 71.0037C144.559 71.2791 144.336 71.5174 144.074 71.7049C143.811 71.8923 143.514 72.0252 143.199 72.0957Z" fill="#C57F12"/>
<g style="mix-blend-mode:hard-light" opacity="0.6">
<path d="M111.574 44.4333L112.096 42.8518L113.674 43.3827L113.153 44.9641L111.574 44.4333Z" fill="#E6EBEE"/>
<path d="M111.574 44.4333L112.096 42.8518L113.674 43.3827L113.153 44.9641L111.574 44.4333Z" fill="url(#paint1_linear_1_18591)"/>
</g>
<g style="mix-blend-mode:hard-light" opacity="0.6">
<path d="M125.269 74.6149L125.79 73.0335L127.368 73.5643L126.847 75.1457L125.269 74.6149Z" fill="#E6EBEE"/>
<path d="M125.269 74.6149L125.79 73.0335L127.368 73.5643L126.847 75.1457L125.269 74.6149Z" fill="url(#paint2_linear_1_18591)"/>
</g>
<g style="mix-blend-mode:hard-light" opacity="0.6">
<path d="M22.3075 31.5477L22.8291 29.9663L24.4074 30.4971L23.8858 32.0786L22.3075 31.5477Z" fill="#E6EBEE"/>
<path d="M22.3075 31.5477L22.8291 29.9663L24.4074 30.4971L23.8858 32.0786L22.3075 31.5477Z" fill="url(#paint3_linear_1_18591)"/>
</g>
<path d="M0 193H156" stroke="#6C757D" stroke-width="0.5"/>
<g style="mix-blend-mode:multiply" opacity="0.5">
<path fill-rule="evenodd" clip-rule="evenodd" d="M121.409 185.745C121.525 185.78 121.631 185.839 121.721 185.918C121.812 185.998 121.884 186.096 121.934 186.205C121.983 186.315 122.009 186.434 122.009 186.555C122.009 186.675 121.983 186.794 121.933 186.903C121.687 187.486 121.112 187.4 120.602 187.303C119.056 187.078 117.486 187.067 115.937 187.271C112.662 187.65 109.59 188.707 106.423 189.447C103.312 190.306 100.021 190.256 96.9385 189.301C93.9995 188.291 91.1936 186.956 88.2471 185.92C85.66 185.022 82.9473 184.065 80.1585 184.597C77.4959 185.097 75.1725 186.662 72.687 187.685C67.5793 189.708 62.0509 190.434 56.5945 189.8C54.0367 189.622 51.5133 189.109 49.0891 188.274C47.7001 187.755 45.8255 187.063 44.9914 185.726C44.6097 185.108 44.5801 184.127 45.3126 183.745C46.0452 183.362 46.9367 183.895 47.5933 184.119C50.442 185.057 53.3984 185.628 56.3913 185.819C59.2827 186.105 62.1991 186.003 65.0636 185.517C67.6848 184.969 70.2183 184.063 72.5928 182.825C75.0579 181.597 77.5391 180.31 80.3143 180.027C83.0894 179.744 85.8462 180.599 88.4408 181.658C91.1864 182.747 93.8126 184.048 96.4363 185.363C98.8654 186.689 101.617 187.308 104.379 187.151C110.083 186.803 115.667 184.653 121.409 185.745Z" fill="#E6EBEE"/>
<path fill-rule="evenodd" clip-rule="evenodd" d="M121.409 185.745C121.525 185.78 121.631 185.839 121.721 185.918C121.812 185.998 121.884 186.096 121.934 186.205C121.983 186.315 122.009 186.434 122.009 186.555C122.009 186.675 121.983 186.794 121.933 186.903C121.687 187.486 121.112 187.4 120.602 187.303C119.056 187.078 117.486 187.067 115.937 187.271C112.662 187.65 109.59 188.707 106.423 189.447C103.312 190.306 100.021 190.256 96.9385 189.301C93.9995 188.291 91.1936 186.956 88.2471 185.92C85.66 185.022 82.9473 184.065 80.1585 184.597C77.4959 185.097 75.1725 186.662 72.687 187.685C67.5793 189.708 62.0509 190.434 56.5945 189.8C54.0367 189.622 51.5133 189.109 49.0891 188.274C47.7001 187.755 45.8255 187.063 44.9914 185.726C44.6097 185.108 44.5801 184.127 45.3126 183.745C46.0452 183.362 46.9367 183.895 47.5933 184.119C50.442 185.057 53.3984 185.628 56.3913 185.819C59.2827 186.105 62.1991 186.003 65.0636 185.517C67.6848 184.969 70.2183 184.063 72.5928 182.825C75.0579 181.597 77.5391 180.31 80.3143 180.027C83.0894 179.744 85.8462 180.599 88.4408 181.658C91.1864 182.747 93.8126 184.048 96.4363 185.363C98.8654 186.689 101.617 187.308 104.379 187.151C110.083 186.803 115.667 184.653 121.409 185.745Z" fill="url(#paint4_linear_1_18591)" fill-opacity="0.8" style="mix-blend-mode:color-burn"/>
<path fill-rule="evenodd" clip-rule="evenodd" d="M121.409 185.745C121.525 185.78 121.631 185.839 121.721 185.918C121.812 185.998 121.884 186.096 121.934 186.205C121.983 186.315 122.009 186.434 122.009 186.555C122.009 186.675 121.983 186.794 121.933 186.903C121.687 187.486 121.112 187.4 120.602 187.303C119.056 187.078 117.486 187.067 115.937 187.271C112.662 187.65 109.59 188.707 106.423 189.447C103.312 190.306 100.021 190.256 96.9385 189.301C93.9995 188.291 91.1936 186.956 88.2471 185.92C85.66 185.022 82.9473 184.065 80.1585 184.597C77.4959 185.097 75.1725 186.662 72.687 187.685C67.5793 189.708 62.0509 190.434 56.5945 189.8C54.0367 189.622 51.5133 189.109 49.0891 188.274C47.7001 187.755 45.8255 187.063 44.9914 185.726C44.6097 185.108 44.5801 184.127 45.3126 183.745C46.0452 183.362 46.9367 183.895 47.5933 184.119C50.442 185.057 53.3984 185.628 56.3913 185.819C59.2827 186.105 62.1991 186.003 65.0636 185.517C67.6848 184.969 70.2183 184.063 72.5928 182.825C75.0579 181.597 77.5391 180.31 80.3143 180.027C83.0894 179.744 85.8462 180.599 88.4408 181.658C91.1864 182.747 93.8126 184.048 96.4363 185.363C98.8654 186.689 101.617 187.308 104.379 187.151C110.083 186.803 115.667 184.653 121.409 185.745Z" fill="#2F3941" fill-opacity="0.15" style="mix-blend-mode:multiply"/>
</g>
<g style="mix-blend-mode:multiply" opacity="0.5">
<path fill-rule="evenodd" clip-rule="evenodd" d="M107.92 174.243C107.989 174.264 108.053 174.3 108.108 174.348C108.162 174.395 108.206 174.454 108.236 174.52C108.266 174.586 108.281 174.658 108.281 174.73C108.281 174.803 108.265 174.874 108.235 174.94C108.087 175.29 107.741 175.239 107.434 175.18C106.504 175.045 105.559 175.038 104.627 175.161C102.656 175.389 100.807 176.024 98.9012 176.469C97.0295 176.986 95.0487 176.956 93.1937 176.382C91.425 175.774 89.7365 174.971 87.9633 174.349C86.4064 173.808 84.7739 173.233 83.0956 173.553C81.4932 173.854 80.0951 174.795 78.5993 175.41C75.5255 176.626 72.1985 177.063 68.9149 176.681C67.3757 176.575 65.8571 176.266 64.3983 175.764C63.5624 175.452 62.4343 175.036 61.9323 174.232C61.7026 173.861 61.6848 173.271 62.1256 173.041C62.5664 172.811 63.103 173.131 63.4981 173.265C65.2124 173.83 66.9916 174.173 68.7927 174.288C70.5327 174.46 72.2878 174.398 74.0116 174.106C75.589 173.777 77.1136 173.232 78.5426 172.487C80.0261 171.749 81.5193 170.976 83.1893 170.805C84.8594 170.635 86.5184 171.149 88.0798 171.786C89.7321 172.441 91.3125 173.223 92.8915 174.014C94.3533 174.811 96.0091 175.183 97.6715 175.089C101.104 174.879 104.465 173.587 107.92 174.243Z" fill="#E6EBEE"/>
<path fill-rule="evenodd" clip-rule="evenodd" d="M107.92 174.243C107.989 174.264 108.053 174.3 108.108 174.348C108.162 174.395 108.206 174.454 108.236 174.52C108.266 174.586 108.281 174.658 108.281 174.73C108.281 174.803 108.265 174.874 108.235 174.94C108.087 175.29 107.741 175.239 107.434 175.18C106.504 175.045 105.559 175.038 104.627 175.161C102.656 175.389 100.807 176.024 98.9012 176.469C97.0295 176.986 95.0487 176.956 93.1937 176.382C91.425 175.774 89.7365 174.971 87.9633 174.349C86.4064 173.808 84.7739 173.233 83.0956 173.553C81.4932 173.854 80.0951 174.795 78.5993 175.41C75.5255 176.626 72.1985 177.063 68.9149 176.681C67.3757 176.575 65.8571 176.266 64.3983 175.764C63.5624 175.452 62.4343 175.036 61.9323 174.232C61.7026 173.861 61.6848 173.271 62.1256 173.041C62.5664 172.811 63.103 173.131 63.4981 173.265C65.2124 173.83 66.9916 174.173 68.7927 174.288C70.5327 174.46 72.2878 174.398 74.0116 174.106C75.589 173.777 77.1136 173.232 78.5426 172.487C80.0261 171.749 81.5193 170.976 83.1893 170.805C84.8594 170.635 86.5184 171.149 88.0798 171.786C89.7321 172.441 91.3125 173.223 92.8915 174.014C94.3533 174.811 96.0091 175.183 97.6715 175.089C101.104 174.879 104.465 173.587 107.92 174.243Z" fill="url(#paint5_linear_1_18591)" fill-opacity="0.8" style="mix-blend-mode:color-burn"/>
<path fill-rule="evenodd" clip-rule="evenodd" d="M107.92 174.243C107.989 174.264 108.053 174.3 108.108 174.348C108.162 174.395 108.206 174.454 108.236 174.52C108.266 174.586 108.281 174.658 108.281 174.73C108.281 174.803 108.265 174.874 108.235 174.94C108.087 175.29 107.741 175.239 107.434 175.18C106.504 175.045 105.559 175.038 104.627 175.161C102.656 175.389 100.807 176.024 98.9012 176.469C97.0295 176.986 95.0487 176.956 93.1937 176.382C91.425 175.774 89.7365 174.971 87.9633 174.349C86.4064 173.808 84.7739 173.233 83.0956 173.553C81.4932 173.854 80.0951 174.795 78.5993 175.41C75.5255 176.626 72.1985 177.063 68.9149 176.681C67.3757 176.575 65.8571 176.266 64.3983 175.764C63.5624 175.452 62.4343 175.036 61.9323 174.232C61.7026 173.861 61.6848 173.271 62.1256 173.041C62.5664 172.811 63.103 173.131 63.4981 173.265C65.2124 173.83 66.9916 174.173 68.7927 174.288C70.5327 174.46 72.2878 174.398 74.0116 174.106C75.589 173.777 77.1136 173.232 78.5426 172.487C80.0261 171.749 81.5193 170.976 83.1893 170.805C84.8594 170.635 86.5184 171.149 88.0798 171.786C89.7321 172.441 91.3125 173.223 92.8915 174.014C94.3533 174.811 96.0091 175.183 97.6715 175.089C101.104 174.879 104.465 173.587 107.92 174.243Z" fill="#2F3941" fill-opacity="0.15" style="mix-blend-mode:multiply"/>
</g>
<path d="M41.0631 123.238L45.3514 190.417H41.0116L29.7354 134.154L23.1079 190.417H19.0403L18.8122 123.238H41.0631Z" fill="#E6EBEE"/>
<path d="M41.0631 123.238L45.3514 190.417H41.0116L29.7354 134.154L23.1079 190.417H19.0403L18.8122 123.238H41.0631Z" fill="url(#paint6_linear_1_18591)" fill-opacity="0.8"/>
<path d="M41.0631 123.238L45.3514 190.417H41.0116L29.7354 134.154L23.1079 190.417H19.0403L18.8122 123.238H41.0631Z" fill="#2F3941" fill-opacity="0.15"/>
<path d="M66.1237 103.327L66.1826 103.805L69.0439 127.461H13.8103L19.1211 104.106L27.8817 75.449L48.198 79.1121L48.6246 79.1857L49.0365 79.0974L75.9067 73.4483L66.2782 102.863L66.1237 103.327Z" fill="#E3F2F9"/>
<path d="M11.074 129.645L17.0027 103.547L26.3517 72.9555L48.5805 76.9643L79.158 70.5281L68.3525 103.547L71.5081 129.645H11.074ZM49.0366 79.0974L48.6173 79.1857L48.198 79.1121L27.8817 75.449L19.1211 104.106L13.8103 127.461H69.0439L66.1826 103.812L66.1237 103.334L66.2709 102.871L75.9068 73.4483L49.0439 79.1048L49.0366 79.0974Z" fill="white"/>
<path d="M29.7722 92.2566C31.6699 92.2566 33.2146 90.7119 33.2146 88.8142V83.0768H26.3297V88.8142C26.3297 90.7119 27.8744 92.2566 29.7722 92.2566Z" fill="#E6EBEE"/>
<path d="M29.7722 92.2566C31.6699 92.2566 33.2146 90.7119 33.2146 88.8142V83.0768H26.3297V88.8142C26.3297 90.7119 27.8744 92.2566 29.7722 92.2566Z" fill="#2F3941" fill-opacity="0.15"/>
<path d="M29.7722 92.2566C31.6699 92.2566 33.2146 90.7119 33.2146 88.8142V83.0768H26.3297V88.8142C26.3297 90.7119 27.8744 92.2566 29.7722 92.2566Z" fill="url(#paint7_linear_1_18591)" fill-opacity="0.8"/>
<g style="mix-blend-mode:multiply" opacity="0.7">
<path d="M17.9074 100.605L44.2995 102.179L68.3525 103.547L71.5081 129.645H11.074L17.9074 100.605Z" fill="#E0EEFB"/>
</g>
<path d="M44.4319 92.6023C46.2782 93.5512 47.7199 95.0443 48.8012 97.1039C60.2025 90.0131 69.5956 91.4254 69.9855 91.4989L69.5662 92.8009C69.4706 92.7862 60.3422 91.1753 49.272 98.0969C49.5735 98.781 49.8457 99.5092 50.0737 100.304C52.8394 109.756 66.874 110.991 67.0138 111.006L67.1756 112.109C66.6754 112.073 57.0175 111.227 51.7876 105.497C49.9119 106.931 42.2694 113.838 47.0211 127.468H45.8516C40.9821 113.485 48.9557 106.276 51.0888 104.651C50.1914 103.489 49.4706 102.157 49.0219 100.613C47.9994 97.1186 46.3297 94.8163 43.917 93.5806C40.504 91.8226 35.5537 92.1757 28.3525 94.6986L27.9921 93.6688C35.4948 91.0429 40.7173 90.7119 44.4172 92.6096L44.4319 92.6023Z" fill="#4CA4DE"/>
<path d="M67.97 118.582C67.97 118.582 63.4757 114.081 58.6651 117.199C53.8545 120.311 52.6629 118.141 50.5224 120.281C47.6537 123.15 50.3312 127.461 50.3312 127.461H69.0439L67.97 118.582Z" fill="#4CA4DE"/>
<path d="M27.3962 96.4713L20.5187 110.594C20.0553 111.55 19.18 112.242 18.1428 112.47C15.8332 112.985 13.6338 111.109 13.8986 108.755C14.7004 101.591 20.96 91.9182 20.96 91.9182L27.3962 96.4713Z" fill="#F3A9B8"/>
<path d="M41.5633 122.562C41.5633 122.562 41.5706 122.429 41.6147 122.201" stroke="#2E3154" stroke-width="0.5" stroke-miterlimit="10"/>
<path d="M41.7459 121.389C42.3434 119.075 44.5194 114.106 52.1464 113.386C58.6153 112.771 61.7944 107.479 56.668 99.2009C51.7333 91.2384 49.9556 92.792 49.8229 86.1566" stroke="#2E3154" stroke-width="0.5" stroke-miterlimit="10"/>
<path d="M49.8309 89.079C49.8309 88.9613 49.8309 88.8362 49.8309 88.7112" stroke="#2E3154" stroke-width="0.5" stroke-miterlimit="10"/>
<path d="M51.4371 85.0808C51.4371 85.9561 50.7236 86.6696 49.8483 86.6696C48.973 86.6696 48.2595 85.9561 48.2595 85.0808C48.2595 84.2055 48.973 83.492 49.8483 83.492C50.7236 83.492 51.4371 84.2055 51.4371 85.0808Z" fill="#A81897"/>
<path d="M32.4863 69.6749C32.4863 69.6749 37.5985 70.6458 37.5985 78.8988C37.5985 87.1518 33.0895 86.909 29.8824 84.8495C26.6754 82.7826 25.1748 77.6851 27.3742 72.9555C29.5808 68.2185 32.4863 69.6749 32.4863 69.6749Z" fill="#E6EBEE"/>
<path d="M32.4863 69.6749C32.4863 69.6749 37.5985 70.6458 37.5985 78.8988C37.5985 87.1518 33.0895 86.909 29.8824 84.8495C26.6754 82.7826 25.1748 77.6851 27.3742 72.9555C29.5808 68.2185 32.4863 69.6749 32.4863 69.6749Z" fill="url(#paint8_linear_1_18591)" fill-opacity="0.8"/>
<path d="M32.4863 69.6749C32.4863 69.6749 37.5985 70.6458 37.5985 78.8988C37.5985 87.1518 33.0895 86.909 29.8824 84.8495C26.6754 82.7826 25.1748 77.6851 27.3742 72.9555C29.5808 68.2185 32.4863 69.6749 32.4863 69.6749Z" fill="#2F3941" fill-opacity="0.15"/>
<path d="M30.2576 87.6667C30.2576 87.6667 38.0104 87.1592 39.3933 95.8314C40.5187 102.908 38.1281 105.739 38.3267 111.72C38.4223 114.573 41.0557 119.811 41.0557 123.231H18.8048C18.8048 123.231 19.43 119.664 21.2395 111.72C21.7103 109.653 20.629 107.188 19.8052 104.437C15.8699 91.3666 24.1156 87.6667 30.2502 87.6667H30.2576Z" fill="#C72A1C"/>
<path d="M32.729 77.7734C32.729 77.7734 38.0251 78.2662 38.5988 72.0213C39.1799 65.7764 31.0299 63.864 25.9986 68.9026C24.6084 64.1582 17.4734 65.4307 18.7827 71.911C15.8184 76.192 18.9813 77.3468 20.6363 77.3468C20.6363 84.0551 24.9541 86.4825 28.654 85.3276C32.3539 84.1728 32.729 77.7808 32.729 77.7808V77.7734Z" fill="#C57F12"/>
<path d="M39.0917 93.9116L46.8004 106.909L63.689 104.445L64.145 106.938C64.145 106.938 54.3914 113.117 45.0277 112.109C39.7022 111.536 34.8327 102.062 32.6775 97.2363C31.9714 95.6475 32.4863 93.7792 33.9133 92.7862C35.6345 91.5872 38.0177 92.1021 39.0917 93.9116Z" fill="#E6EBEE"/>
<path d="M39.0917 93.9116L46.8004 106.909L63.689 104.445L64.145 106.938C64.145 106.938 54.3914 113.117 45.0277 112.109C39.7022 111.536 34.8327 102.062 32.6775 97.2363C31.9714 95.6475 32.4863 93.7792 33.9133 92.7862C35.6345 91.5872 38.0177 92.1021 39.0917 93.9116Z" fill="url(#paint9_linear_1_18591)" fill-opacity="0.8"/>
<path d="M39.0917 93.9116L46.8004 106.909L63.689 104.445L64.145 106.938C64.145 106.938 54.3914 113.117 45.0277 112.109C39.7022 111.536 34.8327 102.062 32.6775 97.2363C31.9714 95.6475 32.4863 93.7792 33.9133 92.7862C35.6345 91.5872 38.0177 92.1021 39.0917 93.9116Z" fill="#2F3941" fill-opacity="0.15"/>
<path d="M32.7291 77.7734C32.7291 77.7734 30.9049 77.5822 30.9049 79.4873C30.9049 81.3924 33.2513 81.591 33.2513 81.591L32.7291 77.7734Z" fill="#A9B0B5"/>
<path d="M40.6218 120.281C40.6218 120.281 44.8071 128.674 44.8071 142.392C38.9815 145.188 30.9123 144.459 30.9123 144.459L29.7795 137.177L29.1543 144.548C29.1543 144.548 21.8722 146.284 15.5611 142.642C15.1639 128.682 19.3934 120.289 19.3934 120.289C19.3934 120.289 27.3375 123.062 40.6291 120.289L40.6218 120.281Z" fill="#003A57"/>
<path d="M46.1237 191.189V181.841H37.8044L39.4595 193.477H51.8022C51.8022 193.477 50.5591 191.182 46.1237 191.182V191.189Z" fill="#003A57"/>
<path d="M16.7527 191.189V181.841H25.0719L23.4389 193.477H11.0741C11.0741 193.477 12.3172 191.182 16.7527 191.182V191.189Z" fill="#003A57"/>
<path d="M28.6834 90.6089C28.6834 90.6089 35.3256 102.26 35.3256 115.14C35.3256 128.02 8.54363 127.828 8.54363 115.14C8.54363 102.451 13.6337 90.6089 13.6337 90.6089H28.6834Z" fill="#2B8473"/>
<path d="M31.0152 95.7137H13.494C10.9858 95.7137 8.94089 93.6615 8.94089 91.1606C8.94089 88.6523 10.9931 86.6075 13.494 86.6075H30.7945C32.935 86.6075 34.6857 88.3581 34.6857 90.4986V92.0506C34.6857 94.0661 33.0306 95.7211 31.0152 95.7211V95.7137Z" fill="#206E6A"/>
<path d="M34.6343 107.667C34.6343 107.667 40.5261 120.046 31.8906 120.046C23.2551 120.046 27.1315 107.667 27.1315 107.667H34.6343Z" fill="#206E6A"/>
<path d="M21.8721 107.667C21.8721 107.667 27.1829 120.046 17.7161 120.046C8.2494 120.046 6.51347 119.612 6.51347 113.978C6.51347 108.343 8.94084 107.667 8.94084 107.667H21.8721Z" fill="#206E6A"/>
<path d="M34.9358 91.1606C34.9358 93.6248 33.4279 95.6255 31.5595 95.6255C29.6912 95.6255 28.1833 93.6248 28.1833 91.1606C28.1833 88.6965 29.6912 86.6958 31.5595 86.6958C33.4279 86.6958 34.9358 88.6965 34.9358 91.1606Z" fill="#0C4D5E"/>
<path d="M26.2708 86.6075C26.2708 86.6075 22.1369 91.5431 26.2708 95.7211H24.167C24.167 95.7211 19.8051 91.1312 24.2774 86.6075" fill="#2B8473"/>
<path d="M16.2671 86.6075C16.2671 86.6075 12.1332 91.5431 16.2671 95.7211H14.1634C14.1634 95.7211 9.80147 91.1312 14.2737 86.6075" fill="#2B8473"/>
<path d="M62.9461 104.798C62.9461 104.798 65.3881 101.716 65.9619 101.915C66.5356 102.12 65.3881 103.643 65.3881 103.643C65.3881 103.643 68.7791 103.136 69.2499 103.136C69.7206 103.136 69.3823 104.048 68.5731 104.254C69.3013 104.982 68.404 106.725 65.9325 106.931C63.461 107.137 62.7475 106.725 62.7475 106.725L62.9534 104.791L62.9461 104.798Z" fill="#A9B0B5"/>
<g opacity="0.8" clip-path="url(#clip1_1_18591)">
<path d="M27 43.9997H70C70 43.9997 68.4938 39.6678 62.047 41.0071C57.5285 31.3952 47.2078 28.5212 41.1888 37.1019C30.4402 35.6382 27 43.9997 27 43.9997Z" fill="white"/>
</g>
<g opacity="0.8" clip-path="url(#clip2_1_18591)">
<path d="M120 20.9999H95C95 20.9999 95.8757 18.473 99.6239 19.2542C102.251 13.6473 108.251 11.9708 111.751 16.9762C118 16.1224 120 20.9999 120 20.9999Z" fill="white"/>
</g>
<g filter="url(#filter0_d_1_18591)">
<path d="M116.19 106.604L88.092 106.473C87.2878 106.471 86.4919 106.311 85.75 106C85.0081 105.69 84.3347 105.236 83.7687 104.665C83.2026 104.094 82.755 103.416 82.4515 102.672C82.148 101.927 81.9946 101.13 82.0001 100.325L82.2982 30.078C82.3025 29.2752 82.4649 28.481 82.7762 27.741C83.0876 27.001 83.5417 26.3296 84.1126 25.7651C84.6836 25.2007 85.3601 24.7543 86.1037 24.4514C86.8472 24.1486 87.6431 23.9952 88.446 24.0001L116.544 24.1259C118.165 24.132 119.717 24.7808 120.86 25.9298C122.003 27.0789 122.643 28.6343 122.641 30.255L122.342 100.507C122.34 101.312 122.179 102.108 121.868 102.85C121.557 103.592 121.103 104.266 120.532 104.832C119.96 105.399 119.282 105.847 118.537 106.151C117.792 106.455 116.995 106.609 116.19 106.604Z" fill="#336179"/>
<path d="M116.507 26.5708H111.058C110.881 26.5733 110.706 26.6106 110.543 26.6808C110.38 26.751 110.233 26.8526 110.11 26.9799C109.986 27.1071 109.889 27.2574 109.824 27.4222C109.759 27.5869 109.727 27.763 109.73 27.9401V28.9275C109.734 29.285 109.597 29.6296 109.349 29.8868C109.1 30.1439 108.761 30.2929 108.403 30.3014L97.7796 30.2502C97.6012 30.246 97.4254 30.2064 97.2625 30.1336C97.0995 30.0609 96.9527 29.9565 96.8304 29.8264C96.7082 29.6964 96.6131 29.5434 96.5506 29.3763C96.488 29.2092 96.4593 29.0313 96.4662 28.853V27.8563C96.4724 27.6781 96.4433 27.5005 96.3805 27.3337C96.3177 27.1668 96.2226 27.014 96.1005 26.8841C95.9784 26.7543 95.8318 26.6498 95.6691 26.5769C95.5065 26.5039 95.331 26.4639 95.1528 26.4591H93.234H88.4648C87.9027 26.456 87.3455 26.5637 86.8251 26.7759C86.3046 26.9882 85.831 27.3009 85.4314 27.6962C85.0318 28.0915 84.714 28.5616 84.4961 29.0797C84.2781 29.5979 84.1644 30.1538 84.1613 30.7159L83.8679 99.2867C83.8655 100.422 84.3139 101.512 85.1147 102.318C85.9155 103.123 87.0032 103.577 88.1388 103.581L116.181 103.711C117.316 103.716 118.407 103.271 119.215 102.473C120.022 101.675 120.48 100.59 120.489 99.4544L120.778 30.8836C120.782 30.3195 120.675 29.7602 120.462 29.2378C120.25 28.7153 119.936 28.2401 119.539 27.8393C119.142 27.4385 118.67 27.1201 118.15 26.9024C117.629 26.6847 117.071 26.572 116.507 26.5708Z" fill="white"/>
<path d="M115.059 36.5189C115.059 36.5888 109.134 36.64 101.832 36.64C94.5287 36.64 88.5999 36.5888 88.5999 36.5189C88.5999 36.4491 94.5241 36.3978 101.832 36.3978C109.139 36.3978 115.059 36.4397 115.059 36.5189Z" fill="#336179"/>
</g>
<path d="M89.1992 59.872V58.668L93.9032 51.92H95.8352V58.486H97.1372V59.872H95.8352V62H94.2672V59.872H89.1992ZM94.3372 53.544L91.0332 58.486H94.3372V53.544ZM98.8556 56.764C98.8556 55.1493 99.1263 53.8893 99.6676 52.984C100.218 52.0693 101.161 51.612 102.496 51.612C103.83 51.612 104.768 52.0693 105.31 52.984C105.86 53.8893 106.136 55.1493 106.136 56.764C106.136 58.3973 105.86 59.676 105.31 60.6C104.768 61.5147 103.83 61.972 102.496 61.972C101.161 61.972 100.218 61.5147 99.6676 60.6C99.1263 59.676 98.8556 58.3973 98.8556 56.764ZM104.568 56.764C104.568 56.008 104.516 55.3687 104.414 54.846C104.32 54.3233 104.124 53.8987 103.826 53.572C103.527 53.236 103.084 53.068 102.496 53.068C101.908 53.068 101.464 53.236 101.166 53.572C100.867 53.8987 100.666 54.3233 100.564 54.846C100.47 55.3687 100.424 56.008 100.424 56.764C100.424 57.548 100.47 58.206 100.564 58.738C100.657 59.27 100.853 59.6993 101.152 60.026C101.46 60.3527 101.908 60.516 102.496 60.516C103.084 60.516 103.527 60.3527 103.826 60.026C104.134 59.6993 104.334 59.27 104.428 58.738C104.521 58.206 104.568 57.548 104.568 56.764ZM108.024 59.872V58.668L112.728 51.92H114.66V58.486H115.962V59.872H114.66V62H113.092V59.872H108.024ZM113.162 53.544L109.858 58.486H113.162V53.544Z" fill="#2B8473"/>
<path d="M105.621 85.9507L105.621 87.0874L105.607 87.0874C105.508 88.7355 104.598 89.6732 103.078 89.6732C101.458 89.6732 100.492 88.7355 100.393 87.0874L100.379 87.0874L100.379 85.9507L98.0769 85.9507L98.0769 87.0874L98.0769 87.1016C98.2048 89.9716 100.137 91.8044 103.064 91.8044C105.962 91.8044 107.795 90.0142 107.923 87.1016L107.923 85.9507L105.621 85.9507Z" fill="#003A57"/>
<path d="M100.407 80.1538L98.0909 80.1538L98.0909 82.4698L100.407 82.4698L100.407 80.1538Z" fill="#70C38A"/>
<path d="M107.909 80.1538L105.564 80.1538L105.564 82.4982L107.909 82.4982L107.909 80.1538Z" fill="#003A57"/>
<defs>
<filter id="filter0_d_1_18591" x="67.7886" y="14.5257" width="69.0634" height="111.027" filterUnits="userSpaceOnUse" color-interpolation-filters="sRGB">
<feFlood flood-opacity="0" result="BackgroundImageFix"/>
<feColorMatrix in="SourceAlpha" type="matrix" values="0 0 0 0 0 0 0 0 0 0 0 0 0 0 0 0 0 0 127 0" result="hardAlpha"/>
<feOffset dy="4.73713"/>
<feGaussianBlur stdDeviation="7.1057"/>
<feColorMatrix type="matrix" values="0 0 0 0 0 0 0 0 0 0 0 0 0 0 0 0 0 0 0.176 0"/>
<feBlend mode="normal" in2="BackgroundImageFix" result="effect1_dropShadow_1_18591"/>
<feBlend mode="normal" in="SourceGraphic" in2="effect1_dropShadow_1_18591" result="shape"/>
</filter>
<linearGradient id="paint0_linear_1_18591" x1="3.93494" y1="31.0655" x2="116.439" y2="-22.9426" gradientUnits="userSpaceOnUse">
<stop stop-color="#001825"/>
<stop offset="1" stop-color="#003A57"/>
</linearGradient>
<linearGradient id="paint1_linear_1_18591" x1="113.85" y1="43.8927" x2="112.054" y2="44.9574" gradientUnits="userSpaceOnUse">
<stop stop-color="white" stop-opacity="0"/>
<stop offset="1" stop-color="white" stop-opacity="0.8"/>
</linearGradient>
<linearGradient id="paint2_linear_1_18591" x1="127.544" y1="74.0744" x2="125.748" y2="75.1391" gradientUnits="userSpaceOnUse">
<stop stop-color="white" stop-opacity="0"/>
<stop offset="1" stop-color="white" stop-opacity="0.8"/>
</linearGradient>
<linearGradient id="paint3_linear_1_18591" x1="24.5827" y1="31.0072" x2="22.7872" y2="32.0719" gradientUnits="userSpaceOnUse">
<stop stop-color="white" stop-opacity="0"/>
<stop offset="1" stop-color="white" stop-opacity="0.8"/>
</linearGradient>
<linearGradient id="paint4_linear_1_18591" x1="55.6856" y1="182.966" x2="106.44" y2="200.04" gradientUnits="userSpaceOnUse">
<stop offset="0.213542" stop-color="#323444"/>
<stop offset="0.6875" stop-color="#2F3941" stop-opacity="0.291667"/>
<stop offset="1" stop-color="#2F3941" stop-opacity="0"/>
</linearGradient>
<linearGradient id="paint5_linear_1_18591" x1="68.368" y1="172.572" x2="98.9064" y2="182.854" gradientUnits="userSpaceOnUse">
<stop offset="0.213542" stop-color="#323444"/>
<stop offset="0.6875" stop-color="#2F3941" stop-opacity="0.291667"/>
<stop offset="1" stop-color="#2F3941" stop-opacity="0"/>
</linearGradient>
<linearGradient id="paint6_linear_1_18591" x1="32.0818" y1="123.238" x2="32.0818" y2="190.417" gradientUnits="userSpaceOnUse">
<stop stop-color="#323444"/>
<stop offset="0.723958" stop-color="#2F3941" stop-opacity="0.2917"/>
<stop offset="0.994792" stop-color="#2F3941" stop-opacity="0"/>
</linearGradient>
<linearGradient id="paint7_linear_1_18591" x1="29.7722" y1="92.2566" x2="29.7722" y2="83.0768" gradientUnits="userSpaceOnUse">
<stop stop-color="#2F3941" stop-opacity="0"/>
<stop offset="0.265625" stop-color="#2F3941" stop-opacity="0.2917"/>
<stop offset="0.78125" stop-color="#323244"/>
</linearGradient>
<linearGradient id="paint8_linear_1_18591" x1="31.9661" y1="69.4637" x2="31.9661" y2="86.0582" gradientUnits="userSpaceOnUse">
<stop offset="0.244792" stop-color="#323444"/>
<stop offset="0.723958" stop-color="#2F3941" stop-opacity="0.2917"/>
<stop offset="0.994792" stop-color="#2F3941" stop-opacity="0"/>
</linearGradient>
<linearGradient id="paint9_linear_1_18591" x1="48.2542" y1="92.1379" x2="48.2542" y2="112.22" gradientUnits="userSpaceOnUse">
<stop stop-color="#323444"/>
<stop offset="0.723958" stop-color="#2F3941" stop-opacity="0.2917"/>
<stop offset="0.994792" stop-color="#2F3941" stop-opacity="0"/>
</linearGradient>
<clipPath id="clip0_1_18591">
<rect width="152" height="105" fill="white" transform="translate(1 89)"/>
</clipPath>
<clipPath id="clip1_1_18591">
<rect width="43" height="12" fill="white" transform="translate(27 32)"/>
</clipPath>
<clipPath id="clip2_1_18591">
<rect width="25" height="7" fill="white" transform="matrix(-1 0 0 1 120 14)"/>
</clipPath>
</defs>
</svg>
