<svg width="529" height="653" viewBox="0 0 529 653" fill="none" xmlns="http://www.w3.org/2000/svg">
<path d="M67.6092 28.7177C54.1966 54.1448 93.0964 97.2444 170.429 182.924C261.451 283.779 376.317 411.047 449.682 380.998C503.678 358.883 527.92 254.509 502.963 178.886C443.501 -1.27318 100.028 -32.7353 67.6092 28.7177Z" fill="url(#paint0_linear_1_27352)"/>
<path d="M451.52 363.521C451.726 363.478 451.796 363.29 451.974 362.826C452.292 361.996 452.61 361.166 452.956 360.348C453.011 360.219 453.209 360.089 453.354 360.071C454.215 359.968 455.082 359.918 455.942 359.805C456.208 359.772 456.35 359.795 456.503 360.034C457.116 360.99 457.754 361.928 458.376 362.862C459.379 362.617 461.625 361.408 462.25 360.768C461.821 359.775 461.399 358.754 460.937 357.751C460.793 357.438 460.819 357.278 461.065 357.014C461.636 356.401 462.153 355.734 462.654 355.061C462.857 354.788 463.017 354.643 463.389 354.726C464.352 354.944 465.328 355.103 466.295 355.303C466.555 355.357 466.716 355.306 466.793 355.048C467.153 353.835 467.512 352.622 467.871 351.409C467.959 351.111 467.715 351.068 467.54 350.995C466.655 350.629 465.769 350.258 464.871 349.922C464.535 349.796 464.422 349.623 464.408 349.257C464.368 348.288 464.264 347.322 464.18 346.281L467.179 344.253C466.701 342.855 465.996 341.597 465.064 340.409L461.806 341.81C460.893 341.102 460.062 340.428 459.195 339.804C458.944 339.624 458.901 339.48 458.959 339.205C459.157 338.249 459.326 337.287 459.519 336.33C459.56 336.124 459.567 335.972 459.341 335.868C458.199 335.346 457.029 334.927 455.775 334.766C455.495 334.73 455.386 334.831 455.293 335.064C454.92 335.997 454.53 336.923 454.161 337.858C454.072 338.085 453.977 338.18 453.703 338.203C452.754 338.284 451.806 338.406 450.864 338.553C450.623 338.59 450.529 338.514 450.415 338.344C449.782 337.401 449.142 336.465 448.489 335.5C447.117 336.007 445.846 336.648 444.679 337.56L446.134 340.968L443.852 343.79C442.999 343.628 442.02 343.434 441.037 343.256C440.231 343.112 440.335 342.994 440.004 343.81C439.973 343.887 439.915 343.954 439.867 344.025L439.235 346.209C439.218 346.379 439.227 346.557 439.178 346.717C439.051 347.134 439.148 347.367 439.593 347.528C440.521 347.864 441.428 348.258 442.334 348.649C442.453 348.701 442.578 348.872 442.596 349.002C442.712 349.85 442.755 350.711 442.915 351.55C442.993 351.961 442.883 352.135 442.565 352.341C441.665 352.926 440.789 353.55 439.814 354.217L441.873 358.054C442.127 357.951 442.274 357.893 442.418 357.831C443.312 357.446 444.21 357.07 445.097 356.669C445.348 356.555 445.491 356.61 445.699 356.782C446.412 357.372 447.164 357.916 447.881 358.501C447.993 358.592 448.072 358.818 448.049 358.963C447.921 359.753 447.749 360.536 447.605 361.324C447.488 361.962 447.447 362.199 447.657 362.398L451.52 363.521ZM451.372 357.818C449.363 357.328 447.586 356.154 446.342 354.496C445.099 352.839 444.467 350.8 444.554 348.726C444.64 346.653 445.44 344.675 446.818 343.128C448.195 341.58 450.064 340.56 452.107 340.242C454.15 339.923 456.24 340.324 458.02 341.379C459.801 342.433 461.163 344.074 461.873 346.022C462.583 347.971 462.598 350.106 461.916 352.065C461.233 354.023 459.895 355.684 458.13 356.763C457.129 357.378 456.016 357.789 454.856 357.97C453.696 358.151 452.512 358.099 451.372 357.818Z" fill="#C57F12"/>
<g style="mix-blend-mode:hard-light" opacity="0.6">
<path d="M393.5 217.268L397.772 213L402.043 217.268L397.772 221.536L393.5 217.268Z" fill="#E6EBEE"/>
<path d="M393.5 217.268L397.772 213L402.043 217.268L397.772 221.536L393.5 217.268Z" fill="url(#paint1_linear_1_27352)"/>
</g>
<g style="mix-blend-mode:hard-light" opacity="0.6">
<path d="M385 325.9L389.272 321.632L393.543 325.9L389.272 330.168L385 325.9Z" fill="#E6EBEE"/>
<path d="M385 325.9L389.272 321.632L393.543 325.9L389.272 330.168L385 325.9Z" fill="url(#paint2_linear_1_27352)"/>
</g>
<g style="mix-blend-mode:hard-light" opacity="0.6">
<path d="M124 31.2681L128.272 27L132.543 31.2681L128.272 35.5362L124 31.2681Z" fill="#E6EBEE"/>
<path d="M124 31.2681L128.272 27L132.543 31.2681L128.272 35.5362L124 31.2681Z" fill="url(#paint3_linear_1_27352)"/>
</g>
<path d="M0 652.5H490.5" stroke="#6C757D"/>
<g filter="url(#filter0_d_1_27352)">
<g clip-path="url(#clip0_1_27352)">
<path fill-rule="evenodd" clip-rule="evenodd" d="M485.947 71C487.349 71 488.624 71.7609 489.544 73.0064C490.441 74.2211 491 75.8981 491 77.7525V273.463C491 273.955 491 274.538 491 275.163C491 277.953 488.738 280.215 485.948 280.215H223.053C220.262 280.215 218 277.952 218 275.162C218 274.538 218 273.954 218 273.463V77.7525C218 75.8981 218.559 74.2211 219.456 73.0064C220.376 71.7602 221.651 71 223.053 71H485.947Z" fill="#E6EBEE"/>
<path fill-rule="evenodd" clip-rule="evenodd" d="M485.947 71C487.349 71 488.624 71.7609 489.544 73.0064C490.441 74.2211 491 75.8981 491 77.7525V273.463C491 273.955 491 274.538 491 275.163C491 277.953 488.738 280.215 485.948 280.215H223.053C220.262 280.215 218 277.952 218 275.162C218 274.538 218 273.954 218 273.463V77.7525C218 75.8981 218.559 74.2211 219.456 73.0064C220.376 71.7602 221.651 71 223.053 71H485.947Z" fill="url(#paint4_linear_1_27352)"/>
<path opacity="0.3" fill-rule="evenodd" clip-rule="evenodd" d="M218 71H491V86.6632H218V71Z" fill="#C6C3B3"/>
<path d="M450.29 83.103C452.495 83.103 454.282 81.5092 454.282 79.5432C454.282 77.5772 452.495 75.9834 450.29 75.9834C448.086 75.9834 446.299 77.5772 446.299 79.5432C446.299 81.5092 448.086 83.103 450.29 83.103Z" fill="#70C38A"/>
<path d="M479.028 83.103C481.232 83.103 483.019 81.5092 483.019 79.5432C483.019 77.5771 481.232 75.9834 479.028 75.9834C476.823 75.9834 475.036 77.5771 475.036 79.5432C475.036 81.5092 476.823 83.103 479.028 83.103Z" fill="url(#paint5_linear_1_27352)"/>
<path d="M464.659 83.103C466.863 83.103 468.65 81.5092 468.65 79.5432C468.65 77.5771 466.863 75.9834 464.659 75.9834C462.454 75.9834 460.667 77.5771 460.667 79.5432C460.667 81.5092 462.454 83.103 464.659 83.103Z" fill="#C57F12"/>
<path d="M435.546 75.0953H224.81C223.928 75.0953 223.213 75.7328 223.213 76.5192V82.2149C223.213 83.0013 223.928 83.6389 224.81 83.6389H435.546C436.428 83.6389 437.143 83.0013 437.143 82.2149V76.5192C437.143 75.7328 436.428 75.0953 435.546 75.0953Z" fill="white"/>
</g>
</g>
<g filter="url(#filter1_d_1_27352)">
<g clip-path="url(#clip1_1_27352)">
<rect width="248.152" height="149.322" rx="7.21242" transform="matrix(0.996205 0.0870351 -0.0872766 0.996184 237.836 96.514)" fill="white"/>
<path d="M269.13 129.174L269.13 131.021L269.107 131.021C268.945 133.699 267.468 135.223 264.997 135.223C262.365 135.223 260.795 133.699 260.633 131.021L260.61 131.021L260.61 129.174L256.87 129.174L256.87 131.021L256.87 131.044C257.078 135.708 260.218 138.686 264.974 138.686C269.684 138.686 272.662 135.777 272.87 131.044L272.87 129.174L269.13 129.174Z" fill="#003A57"/>
<path d="M260.656 119.754L256.893 119.754L256.893 123.518L260.656 123.518L260.656 119.754Z" fill="#70C38A"/>
<path d="M272.847 119.754L269.037 119.754L269.037 123.564L272.847 123.564L272.847 119.754Z" fill="#003A57"/>
<rect width="45.9792" height="14.4248" rx="7.21242" transform="matrix(0.996205 0.0870351 -0.0872766 0.996184 248.666 152.834)" fill="#BBDDF2"/>
<rect width="213.328" height="7.16814" rx="3.58407" transform="matrix(0.996205 0.0870351 -0.0872766 0.996184 246.147 181.574)" fill="#E6EBEE"/>
<rect width="63.4089" height="7.21242" rx="3.60621" transform="matrix(0.996205 0.0870351 -0.0872766 0.996184 244.642 198.756)" fill="#E9EBED"/>
<rect width="0.901552" height="5.73451" transform="matrix(0.996205 0.0870351 -0.0872766 0.996184 314.931 205.638)" fill="#D8DCDE"/>
<rect width="63.4089" height="7.21242" rx="3.60621" transform="matrix(0.996205 0.0870351 -0.0872766 0.996184 323.079 205.608)" fill="#E9EBED"/>
<rect width="63.4089" height="7.21242" rx="3.60621" transform="matrix(0.996205 0.0870351 -0.0872766 0.996184 393.432 211.755)" fill="#E9EBED"/>
<rect width="72.1242" height="7.21242" rx="3.60621" transform="matrix(0.996205 0.0870351 -0.0872766 0.996184 242.883 218.838)" fill="#E9EBED"/>
<rect width="0.901552" height="5.73451" transform="matrix(0.996205 0.0870351 -0.0872766 0.996184 321.854 226.479)" fill="#D8DCDE"/>
<rect width="58.6583" height="7.21242" rx="3.60621" transform="matrix(0.996205 0.0870351 -0.0872766 0.996184 330.001 226.449)" fill="#E9EBED"/>
<rect width="58.6583" height="7.21242" rx="3.60621" transform="matrix(0.996205 0.0870351 -0.0872766 0.996184 395.622 232.182)" fill="#E9EBED"/>
<g clip-path="url(#clip2_1_27352)" filter="url(#filter2_d_1_27352)">
<path fill-rule="evenodd" clip-rule="evenodd" d="M410.667 139C410.667 131.636 416.636 125.667 424 125.667L425.273 125.667C426.536 125.667 427.615 126.425 427.706 127.684C427.733 128.059 427.75 128.496 427.75 129C427.75 129.504 427.733 129.941 427.706 130.316C427.615 131.575 426.536 132.333 425.273 132.333L424 132.333C420.318 132.333 417.333 135.318 417.333 139C417.333 142.682 420.318 145.667 424 145.667L425.273 145.667C426.536 145.667 427.615 146.425 427.706 147.684C427.733 148.059 427.75 148.496 427.75 149C427.75 149.504 427.733 149.941 427.706 150.316C427.615 151.575 426.536 152.333 425.273 152.333L424 152.333C416.636 152.333 410.667 146.364 410.667 139Z" fill="#1466A9" stroke="white" stroke-width="1.6"/>
<path fill-rule="evenodd" clip-rule="evenodd" d="M447.333 139C447.333 146.364 441.364 152.333 434 152.333L432.727 152.333C431.464 152.333 430.385 151.575 430.294 150.316C430.267 149.941 430.25 149.504 430.25 149C430.25 148.496 430.267 148.059 430.294 147.684C430.385 146.425 431.464 145.667 432.727 145.667L434 145.667C437.682 145.667 440.667 142.682 440.667 139C440.667 135.318 437.682 132.333 434 132.333L432.727 132.333C431.464 132.333 430.385 131.575 430.294 130.316C430.267 129.941 430.25 129.504 430.25 129C430.25 128.496 430.267 128.059 430.294 127.684C430.385 126.425 431.464 125.667 432.727 125.667L434 125.667C441.364 125.667 447.333 131.636 447.333 139Z" fill="#1466A9" stroke="white" stroke-width="1.6"/>
<g filter="url(#filter3_d_1_27352)">
<path fill-rule="evenodd" clip-rule="evenodd" d="M420.667 139C420.667 137.159 422.159 135.667 424 135.667L434 135.667C435.841 135.667 437.333 137.159 437.333 139C437.333 140.841 435.841 142.333 434 142.333L424 142.333C422.159 142.333 420.667 140.841 420.667 139Z" fill="white"/>
</g>
</g>
</g>
</g>
<path d="M246.398 249.214L246.398 249.214C249.668 245.887 252.932 242.57 256.279 239.346C260.361 235.414 266.57 234.702 271.518 237.662L271.98 236.89L271.518 237.662C272.604 238.312 273.545 238.991 274.232 239.906L274.232 239.906C274.939 240.848 274.825 242.265 273.967 243.104L273.967 243.104C273.091 243.96 271.692 244.05 270.754 243.337C270.573 243.199 270.401 243.052 270.207 242.885C270.17 242.853 270.132 242.821 270.094 242.788C269.861 242.59 269.597 242.369 269.305 242.17L269.305 242.169C266.299 240.118 262.229 240.466 259.635 243.035C256.373 246.266 253.124 249.512 249.893 252.775C246.902 255.795 246.994 260.629 250.01 263.631L250.01 263.631C252.962 266.567 257.81 266.565 260.785 263.626L260.785 263.626C261.775 262.649 262.76 261.66 263.743 260.675C264.344 260.074 264.943 259.474 265.541 258.877L265.541 258.877C266.442 257.978 267.631 257.821 268.617 258.374C270.048 259.178 270.342 261.088 269.192 262.266L269.192 262.266C267.354 264.15 265.515 266.01 263.594 267.769L263.594 267.769C261.734 269.472 259.47 270.416 256.922 270.713L256.922 270.713C253.571 271.104 250.529 270.32 247.844 268.307L247.844 268.307C244.76 265.996 243.084 262.896 242.758 259.032C242.741 258.831 242.734 258.644 242.726 258.452C242.722 258.364 242.718 258.274 242.713 258.181C242.77 254.654 243.978 251.676 246.398 249.214Z" fill="#E34F32" stroke="white" stroke-width="1.8"/>
<path d="M281.161 219.074C281.335 219.061 281.506 219.048 281.677 219.032C285.672 219.16 288.86 220.552 291.372 223.42C295.297 227.903 295.546 234.516 291.967 239.315L291.966 239.315C291.596 239.812 291.183 240.288 290.742 240.732C287.524 243.966 284.295 247.191 281.064 250.415C276.804 254.665 269.751 255.223 264.901 251.677C264.184 251.153 263.518 250.578 262.986 249.943L262.986 249.943C262.273 249.09 262.356 247.67 263.233 246.778L263.233 246.778C264.074 245.922 265.488 245.81 266.433 246.517L266.434 246.517C266.59 246.634 266.745 246.766 266.922 246.922C266.937 246.934 266.951 246.947 266.966 246.96C267.126 247.1 267.308 247.259 267.5 247.408L267.5 247.408C270.536 249.771 274.87 249.528 277.605 246.81L277.605 246.809C280.844 243.591 284.075 240.364 287.293 237.124L287.293 237.123C290.26 234.134 290.242 229.294 287.286 226.32C284.309 223.326 279.473 223.26 276.456 226.217C275.487 227.167 274.522 228.136 273.561 229.101C272.92 229.744 272.282 230.386 271.645 231.018L271.645 231.018C270.781 231.877 269.599 232.04 268.614 231.506L268.614 231.506C267.181 230.731 266.86 228.811 268.003 227.626L268.003 227.626C269.814 225.748 271.661 223.908 273.567 222.141L273.567 222.141C275.322 220.514 277.47 219.59 279.888 219.208L279.888 219.208C280.329 219.138 280.75 219.106 281.161 219.074Z" fill="#E34F32" stroke="white" stroke-width="1.8"/>
<g style="mix-blend-mode:multiply" opacity="0.5">
<path fill-rule="evenodd" clip-rule="evenodd" d="M484.069 456.367C484.458 456.484 484.817 456.684 485.123 456.952C485.428 457.221 485.673 457.551 485.84 457.922C486.008 458.292 486.094 458.694 486.093 459.101C486.093 459.508 486.005 459.91 485.836 460.28C485.006 462.246 483.066 461.958 481.342 461.628C476.119 460.867 470.817 460.832 465.584 461.522C454.523 462.801 444.147 466.371 433.45 468.87C422.945 471.773 411.828 471.602 401.417 468.377C391.49 464.965 382.013 460.456 372.061 456.959C363.323 453.923 354.161 450.694 344.741 452.488C335.748 454.178 327.901 459.463 319.505 462.92C302.254 469.751 283.581 472.204 265.152 470.062C256.513 469.463 247.99 467.73 239.802 464.909C235.111 463.155 228.779 460.817 225.962 456.303C224.673 454.216 224.572 450.903 227.047 449.611C229.521 448.319 232.532 450.118 234.75 450.873C244.371 454.042 254.357 455.973 264.466 456.618C274.232 457.582 284.082 457.238 293.757 455.596C302.61 453.746 311.167 450.686 319.188 446.503C327.513 442.357 335.894 438.011 345.267 437.055C354.64 436.098 363.952 438.985 372.715 442.563C381.989 446.241 390.859 450.634 399.721 455.076C407.925 459.554 417.218 461.646 426.549 461.114C445.814 459.939 464.675 452.679 484.069 456.367Z" fill="#E6EBEE"/>
<path fill-rule="evenodd" clip-rule="evenodd" d="M484.069 456.367C484.458 456.484 484.817 456.684 485.123 456.952C485.428 457.221 485.673 457.551 485.84 457.922C486.008 458.292 486.094 458.694 486.093 459.101C486.093 459.508 486.005 459.91 485.836 460.28C485.006 462.246 483.066 461.958 481.342 461.628C476.119 460.867 470.817 460.832 465.584 461.522C454.523 462.801 444.147 466.371 433.45 468.87C422.945 471.773 411.828 471.602 401.417 468.377C391.49 464.965 382.013 460.456 372.061 456.959C363.323 453.923 354.161 450.694 344.741 452.488C335.748 454.178 327.901 459.463 319.505 462.92C302.254 469.751 283.581 472.204 265.152 470.062C256.513 469.463 247.99 467.73 239.802 464.909C235.111 463.155 228.779 460.817 225.962 456.303C224.673 454.216 224.572 450.903 227.047 449.611C229.521 448.319 232.532 450.118 234.75 450.873C244.371 454.042 254.357 455.973 264.466 456.618C274.232 457.582 284.082 457.238 293.757 455.596C302.61 453.746 311.167 450.686 319.188 446.503C327.513 442.357 335.894 438.011 345.267 437.055C354.64 436.098 363.952 438.985 372.715 442.563C381.989 446.241 390.859 450.634 399.721 455.076C407.925 459.554 417.218 461.646 426.549 461.114C445.814 459.939 464.675 452.679 484.069 456.367Z" fill="url(#paint6_linear_1_27352)" fill-opacity="0.8" style="mix-blend-mode:color-burn"/>
<path fill-rule="evenodd" clip-rule="evenodd" d="M484.069 456.367C484.458 456.484 484.817 456.684 485.123 456.952C485.428 457.221 485.673 457.551 485.84 457.922C486.008 458.292 486.094 458.694 486.093 459.101C486.093 459.508 486.005 459.91 485.836 460.28C485.006 462.246 483.066 461.958 481.342 461.628C476.119 460.867 470.817 460.832 465.584 461.522C454.523 462.801 444.147 466.371 433.45 468.87C422.945 471.773 411.828 471.602 401.417 468.377C391.49 464.965 382.013 460.456 372.061 456.959C363.323 453.923 354.161 450.694 344.741 452.488C335.748 454.178 327.901 459.463 319.505 462.92C302.254 469.751 283.581 472.204 265.152 470.062C256.513 469.463 247.99 467.73 239.802 464.909C235.111 463.155 228.779 460.817 225.962 456.303C224.673 454.216 224.572 450.903 227.047 449.611C229.521 448.319 232.532 450.118 234.75 450.873C244.371 454.042 254.357 455.973 264.466 456.618C274.232 457.582 284.082 457.238 293.757 455.596C302.61 453.746 311.167 450.686 319.188 446.503C327.513 442.357 335.894 438.011 345.267 437.055C354.64 436.098 363.952 438.985 372.715 442.563C381.989 446.241 390.859 450.634 399.721 455.076C407.925 459.554 417.218 461.646 426.549 461.114C445.814 459.939 464.675 452.679 484.069 456.367Z" fill="#2F3941" fill-opacity="0.15" style="mix-blend-mode:multiply"/>
</g>
<g style="mix-blend-mode:multiply" opacity="0.5">
<path fill-rule="evenodd" clip-rule="evenodd" d="M460.508 410.519C460.742 410.59 460.958 410.71 461.142 410.871C461.326 411.033 461.473 411.231 461.574 411.454C461.674 411.677 461.726 411.919 461.726 412.163C461.726 412.408 461.673 412.649 461.571 412.872C461.072 414.054 459.904 413.881 458.867 413.682C455.724 413.225 452.533 413.204 449.384 413.619C442.727 414.388 436.483 416.535 430.046 418.037C423.724 419.782 417.034 419.68 410.768 417.741C404.794 415.689 399.091 412.978 393.102 410.875C387.844 409.05 382.33 407.108 376.661 408.187C371.249 409.203 366.527 412.381 361.475 414.46C351.093 418.567 339.856 420.042 328.765 418.754C323.566 418.394 318.437 417.352 313.51 415.655C310.686 414.601 306.876 413.195 305.181 410.481C304.405 409.226 304.345 407.234 305.834 406.457C307.323 405.68 309.135 406.762 310.469 407.216C316.259 409.122 322.269 410.282 328.352 410.67C334.229 411.25 340.157 411.043 345.979 410.056C351.307 408.943 356.457 407.103 361.283 404.588C366.294 402.095 371.337 399.482 376.978 398.907C382.619 398.332 388.222 400.068 393.496 402.22C399.076 404.43 404.414 407.072 409.747 409.743C414.685 412.436 420.277 413.693 425.892 413.374C437.486 412.667 448.836 408.302 460.508 410.519Z" fill="#E6EBEE"/>
<path fill-rule="evenodd" clip-rule="evenodd" d="M460.508 410.519C460.742 410.59 460.958 410.71 461.142 410.871C461.326 411.033 461.473 411.231 461.574 411.454C461.674 411.677 461.726 411.919 461.726 412.163C461.726 412.408 461.673 412.649 461.571 412.872C461.072 414.054 459.904 413.881 458.867 413.682C455.724 413.225 452.533 413.204 449.384 413.619C442.727 414.388 436.483 416.535 430.046 418.037C423.724 419.782 417.034 419.68 410.768 417.741C404.794 415.689 399.091 412.978 393.102 410.875C387.844 409.05 382.33 407.108 376.661 408.187C371.249 409.203 366.527 412.381 361.475 414.46C351.093 418.567 339.856 420.042 328.765 418.754C323.566 418.394 318.437 417.352 313.51 415.655C310.686 414.601 306.876 413.195 305.181 410.481C304.405 409.226 304.345 407.234 305.834 406.457C307.323 405.68 309.135 406.762 310.469 407.216C316.259 409.122 322.269 410.282 328.352 410.67C334.229 411.25 340.157 411.043 345.979 410.056C351.307 408.943 356.457 407.103 361.283 404.588C366.294 402.095 371.337 399.482 376.978 398.907C382.619 398.332 388.222 400.068 393.496 402.22C399.076 404.43 404.414 407.072 409.747 409.743C414.685 412.436 420.277 413.693 425.892 413.374C437.486 412.667 448.836 408.302 460.508 410.519Z" fill="url(#paint7_linear_1_27352)" fill-opacity="0.8" style="mix-blend-mode:color-burn"/>
<path fill-rule="evenodd" clip-rule="evenodd" d="M460.508 410.519C460.742 410.59 460.958 410.71 461.142 410.871C461.326 411.033 461.473 411.231 461.574 411.454C461.674 411.677 461.726 411.919 461.726 412.163C461.726 412.408 461.673 412.649 461.571 412.872C461.072 414.054 459.904 413.881 458.867 413.682C455.724 413.225 452.533 413.204 449.384 413.619C442.727 414.388 436.483 416.535 430.046 418.037C423.724 419.782 417.034 419.68 410.768 417.741C404.794 415.689 399.091 412.978 393.102 410.875C387.844 409.05 382.33 407.108 376.661 408.187C371.249 409.203 366.527 412.381 361.475 414.46C351.093 418.567 339.856 420.042 328.765 418.754C323.566 418.394 318.437 417.352 313.51 415.655C310.686 414.601 306.876 413.195 305.181 410.481C304.405 409.226 304.345 407.234 305.834 406.457C307.323 405.68 309.135 406.762 310.469 407.216C316.259 409.122 322.269 410.282 328.352 410.67C334.229 411.25 340.157 411.043 345.979 410.056C351.307 408.943 356.457 407.103 361.283 404.588C366.294 402.095 371.337 399.482 376.978 398.907C382.619 398.332 388.222 400.068 393.496 402.22C399.076 404.43 404.414 407.072 409.747 409.743C414.685 412.436 420.277 413.693 425.892 413.374C437.486 412.667 448.836 408.302 460.508 410.519Z" fill="#2F3941" fill-opacity="0.15" style="mix-blend-mode:multiply"/>
</g>
<path d="M313.605 581.328C315.479 575.97 330.26 583.255 336.259 592.142C340.257 598.057 342.697 604.371 343.831 612.853C343.695 603.175 343.536 592.775 343.385 582.961C342.168 580.516 339.403 574.872 337.408 570.401C330.758 555.486 314.95 549.932 309.487 540.518C302.331 528.176 302.369 509.671 308.467 502.996C313.764 497.194 331.287 536.439 333.267 540.819C340.06 555.9 342.032 567.09 343.31 577.934C343.166 568.716 343.022 560.257 342.909 553.725C342.539 532.428 342.07 525.58 341.859 523.473C341.126 522.442 340.264 521.245 339.758 520.598C335.519 515.157 326.104 508.685 321.396 500.776C314.527 489.232 315.638 475.415 320.451 470.268C325.492 464.887 334.393 477.605 339.123 490.202C343.854 502.8 341.828 514.856 343.158 525.324C343.438 527.378 343.718 535.167 343.99 545.981C345.425 534.347 348.282 526.558 353.579 519.296C360.092 510.363 365.714 499.489 371.079 500.889C376.444 502.296 373.558 516.685 369.311 526.791C365.533 535.792 346.884 544.762 344.133 552.002C344.458 566.654 344.745 585.219 344.949 602.505C346.423 593.58 345.41 592.827 351.433 579.154C355.014 571.026 369.696 561.002 371.45 566.586C373.165 572.065 370.543 582.721 364.996 590.118C360.523 596.078 350.601 596.071 348.304 599.773C347.768 600.639 346 603.942 344.987 605.846C345.229 626.948 345.335 645.581 345.214 651.932L344.254 652C344.299 650.359 344.186 639.628 343.997 625.42C341.587 617.857 325.371 613.447 320.361 605.59C315.117 597.365 311.346 587.763 313.598 581.336L313.605 581.328Z" fill="#E6E6E6"/>
<path fill-rule="evenodd" clip-rule="evenodd" d="M378.363 625.426H414.293L403.809 652.902H388.489L378.363 625.426Z" fill="#C57F12"/>
<path fill-rule="evenodd" clip-rule="evenodd" d="M382.484 500.124C384.295 499.844 386.146 500.039 387.859 500.689C391.389 502.189 392.413 506.373 392.36 509.78C392.307 513.442 391.531 517.44 394.311 520.37C395.59 521.721 397.188 522.762 398.441 524.139C399.77 525.613 400.843 527.298 401.618 529.126C403.057 532.453 403.754 536.371 402.448 539.866C401.292 542.947 398.388 545.718 399.015 549.222C399.668 552.867 403.348 555.665 405.652 558.383C408.299 561.454 410.656 565.39 411.044 569.424C411.424 573.289 409.747 577.199 407.161 580.129C401.998 585.963 394.24 588.832 386.42 588.814C383.093 588.814 379.36 588.655 376.465 586.872C375.678 586.364 375.032 585.666 374.585 584.842C374.107 584.118 373.489 583.497 372.767 583.015C371.216 581.82 370.02 580.224 369.307 578.4C366.474 571.339 368.743 562.681 372.714 556.432C373.65 554.958 374.426 553.538 373.967 551.772C373.363 549.95 372.469 548.236 371.32 546.698C370.215 545.185 369.215 543.599 368.328 541.949C367.544 540.207 367.24 538.288 367.445 536.389C367.814 532.759 369.227 529.313 371.514 526.469C373.658 523.654 376.174 520.953 376.183 517.264C376.183 513.345 373.535 509.868 374.682 505.887C375.1 504.147 376.123 502.611 377.568 501.554C379.081 500.72 380.76 500.232 382.484 500.124Z" fill="white" stroke="#68737D" stroke-width="1.16037" stroke-miterlimit="10"/>
<path fill-rule="evenodd" clip-rule="evenodd" d="M381.32 506.382C381.34 506.255 381.386 506.134 381.457 506.027C381.528 505.92 381.621 505.83 381.73 505.763C381.84 505.696 381.962 505.653 382.09 505.638C382.217 505.623 382.346 505.636 382.468 505.676C383.112 505.852 383.103 506.461 383.086 507C383.054 508.64 383.25 510.276 383.668 511.863C384.489 515.199 386.016 518.27 387.198 521.474C388.522 524.603 388.902 528.051 388.293 531.394C387.631 534.589 386.581 537.695 385.892 540.899C385.292 543.715 384.648 546.689 385.566 549.495C386.484 552.302 388.408 554.411 389.811 556.856C392.627 561.891 394.144 567.548 394.224 573.316C394.371 576.006 394.164 578.703 393.606 581.339C393.244 582.848 392.723 584.869 391.47 585.946C391.328 586.084 391.159 586.192 390.974 586.264C390.789 586.336 390.592 586.37 390.393 586.365C390.195 586.359 390 586.313 389.82 586.231C389.639 586.148 389.477 586.03 389.343 585.884C388.866 585.213 389.281 584.172 389.431 583.457C390.045 580.367 390.256 577.21 390.058 574.066C389.974 571.019 389.481 567.997 388.593 565.082C387.664 562.426 386.376 559.911 384.762 557.606C383.147 555.206 381.462 552.796 380.791 549.954C380.12 547.113 380.667 544.112 381.409 541.279C382.185 538.278 383.174 535.366 384.268 532.453C385.334 529.75 385.618 526.802 385.089 523.945C383.933 518.023 380.923 512.507 381.32 506.382Z" fill="#4CA4DE"/>
<path fill-rule="evenodd" clip-rule="evenodd" d="M429.799 517.824C432.067 518.439 434.135 519.634 435.8 521.292C439.163 524.911 438.13 530.383 436.277 534.381C434.273 538.688 431.255 543.013 432.958 547.955C433.744 550.223 435.059 552.28 435.8 554.565C436.581 557.003 436.95 559.553 436.895 562.111C436.815 566.798 435.571 571.82 432.191 575.244C429.207 578.289 424.336 580.063 423.224 584.52C422.059 589.18 424.901 594.396 426.163 598.809C427.592 603.804 428.325 609.7 426.657 614.695C425.051 619.461 421.008 623.212 416.437 625.33C407.293 629.549 396.685 628.86 387.515 624.809C383.623 623.044 379.289 620.935 376.871 617.334C376.215 616.321 375.826 615.158 375.741 613.954C375.56 612.855 375.164 611.802 374.576 610.856C373.386 608.627 372.824 606.116 372.952 603.592C373.341 593.805 380.595 584.705 388.556 579.392C390.436 578.13 392.086 576.85 392.492 574.529C392.898 572.208 392.404 569.534 392.025 567.124C391.525 564.761 391.186 562.367 391.01 559.958C390.998 557.483 391.637 555.048 392.863 552.897C395.209 548.794 398.682 545.449 402.871 543.26C406.87 541.044 411.247 539.165 413.206 534.796C415.28 530.171 414.089 524.69 417.46 520.569C418.869 518.734 420.878 517.453 423.135 516.95C425.333 516.58 427.716 517.197 429.799 517.824Z" fill="white" stroke="#68737D" stroke-width="1.16037" stroke-miterlimit="10"/>
<path fill-rule="evenodd" clip-rule="evenodd" d="M425.272 525.475C425.362 525.338 425.481 525.223 425.619 525.136C425.758 525.049 425.914 524.993 426.076 524.971C426.238 524.95 426.403 524.963 426.56 525.01C426.716 525.057 426.861 525.137 426.984 525.245C427.646 525.792 427.311 526.507 426.984 527.134C426.087 529.06 425.461 531.1 425.122 533.197C424.336 537.61 424.513 542.023 424.239 546.436C424.144 550.822 422.793 555.088 420.347 558.73C417.885 562.163 415.052 565.296 412.554 568.73C410.374 571.748 408.071 574.908 407.673 578.747C407.285 582.409 408.415 586.046 408.777 589.682C409.415 597.123 408.202 604.605 405.246 611.464C404.017 614.725 402.364 617.811 400.33 620.643C399.112 622.249 397.48 624.42 395.414 624.985C394.461 625.241 393.173 624.897 392.961 623.793C392.749 622.69 393.79 621.737 394.338 620.969C396.671 617.625 398.569 613.998 399.986 610.175C401.486 606.521 402.492 602.684 402.978 598.764C403.288 595.136 403.098 591.483 402.413 587.908C401.778 584.219 401.072 580.485 401.787 576.761C402.501 573.037 404.69 569.78 407.082 566.814C409.571 563.664 412.289 560.751 415.025 557.847C417.699 555.201 419.579 551.86 420.453 548.201C422.227 540.637 421.609 532.526 425.272 525.475Z" fill="#4CA4DE"/>
<path fill-rule="evenodd" clip-rule="evenodd" d="M361.249 547.719C363.033 547.771 364.782 548.223 366.368 549.042C367.954 549.861 369.335 551.025 370.41 552.45C373.058 555.698 373.552 559.661 374.611 563.535C375.07 565.522 376.13 567.319 377.647 568.681C379.095 569.863 380.93 570.102 382.669 570.684C384.382 571.263 385.938 572.23 387.215 573.51C388.491 574.79 389.455 576.348 390.03 578.062C391.38 582.228 389.95 586.429 390.197 590.648C390.427 594.522 394.248 596.941 397.32 598.803C400.391 600.665 403.083 602.333 404.001 605.925C404.972 609.711 405.289 613.93 403.948 617.672C401.715 623.903 395.184 626.648 388.865 627.072C383.137 627.451 375.926 626.851 371.619 622.659C370.422 621.413 369.501 619.929 368.917 618.303C368.333 616.678 368.099 614.947 368.23 613.224C368.337 611.067 368.689 608.929 369.28 606.852C369.754 605.394 370.112 603.901 370.348 602.386C370.754 598.326 367.003 597.55 363.808 596.438C359.957 595.091 356.787 592.286 354.983 588.627C353.035 585.241 352.496 581.224 353.482 577.445C354.049 575.495 355.064 573.706 356.448 572.22C357.057 571.558 357.913 571.011 358.469 570.313C358.674 569.978 358.801 569.6 358.839 569.209C358.878 568.818 358.826 568.423 358.689 568.054C357.869 564.524 355.318 561.629 354.409 558.125C353.588 554.957 354.074 551.011 356.968 548.973C358.239 548.139 359.729 547.702 361.249 547.719Z" fill="white" stroke="#68737D" stroke-width="1.16037" stroke-miterlimit="10"/>
<path fill-rule="evenodd" clip-rule="evenodd" d="M366.271 556.882C370.181 561.047 371.24 566.696 371.566 572.168C371.734 575.239 371.566 578.478 372.449 581.453C373.217 584.003 375.026 585.954 376.862 587.789C380.613 591.496 384.805 595.265 385.899 600.631C386.544 603.773 386.102 607.029 386.994 610.145C387.854 613.017 389.197 615.721 390.965 618.141C392.36 620.065 394.178 621.539 395.705 623.331C396.173 623.878 396.834 624.69 396.64 625.458C396.42 626.34 395.264 626.649 394.452 626.508C392.536 626.181 390.921 624.354 389.686 623.031C387.87 621.124 386.312 618.988 385.052 616.676C383.602 614.107 382.588 611.316 382.051 608.415C381.548 605.397 381.795 602.237 380.657 599.351C378.742 594.479 374.091 591.602 370.719 587.798C366.536 583.068 367.189 577.207 367.586 571.347C367.824 568.143 368.054 564.525 366.439 561.639C365.821 560.527 364.444 559.485 364.179 558.214C363.914 556.943 365.3 555.849 366.271 556.882Z" fill="#4CA4DE"/>
<g clip-path="url(#clip3_1_27352)">
<path d="M87.9073 348.761L99.1592 352.409L90.1112 363.104C90.1112 363.104 85.8483 359.486 83.5283 355.419C82.5568 353.726 83.1223 351.555 84.8043 350.571L87.9073 348.761Z" fill="#CAD0D4"/>
<path d="M104.335 361.194L97.593 369.371L90.111 363.104L99.159 352.409L104.335 361.194Z" fill="#CAD0D4"/>
<path d="M84.2822 261.416C81.5272 268.942 79.0042 276.468 76.6263 284.096C74.2628 291.738 72.0153 299.379 70.1013 307.412L69.4198 310.495L69.1008 312.101L68.9413 312.912L68.8978 313.114L68.8543 313.418L68.7673 314.026C68.3613 317.297 68.7093 319.873 69.1588 322.261C70.1013 326.994 71.6383 331.003 73.3348 334.896C76.7857 342.625 80.9182 349.572 85.7467 356.316L93.2721 352.163C90.6042 344.955 87.9797 337.53 86.0077 330.366C85.0652 326.806 84.2387 323.202 84.0067 320.105C83.8907 318.585 83.9777 317.167 84.1807 316.515L84.8042 314.258L85.6162 311.58C87.8927 304.329 90.4882 296.876 93.0546 289.48C95.6066 282.07 98.1876 274.587 100.653 267.162L84.2822 261.431V261.416Z" fill="#E6EBEE"/>
<path d="M84.2822 261.416C81.5272 268.942 79.0042 276.468 76.6263 284.096C74.2628 291.738 72.0153 299.379 70.1013 307.412L69.4198 310.495L69.1008 312.101L68.9413 312.912L68.8978 313.114L68.8543 313.418L68.7673 314.026C68.3613 317.297 68.7093 319.873 69.1588 322.261C70.1013 326.994 71.6383 331.003 73.3348 334.896C76.7857 342.625 80.9182 349.572 85.7467 356.316L93.2721 352.163C90.6042 344.955 87.9797 337.53 86.0077 330.366C85.0652 326.806 84.2387 323.202 84.0067 320.105C83.8907 318.585 83.9777 317.167 84.1807 316.515L84.8042 314.258L85.6162 311.58C87.8927 304.329 90.4882 296.876 93.0546 289.48C95.6066 282.07 98.1876 274.587 100.653 267.162L84.2822 261.431V261.416Z" fill="url(#paint8_linear_1_27352)" fill-opacity="0.8"/>
<path d="M84.2822 261.416C81.5272 268.942 79.0042 276.468 76.6263 284.096C74.2628 291.738 72.0153 299.379 70.1013 307.412L69.4198 310.495L69.1008 312.101L68.9413 312.912L68.8978 313.114L68.8543 313.418L68.7673 314.026C68.3613 317.297 68.7093 319.873 69.1588 322.261C70.1013 326.994 71.6383 331.003 73.3348 334.896C76.7857 342.625 80.9182 349.572 85.7467 356.316L93.2721 352.163C90.6042 344.955 87.9797 337.53 86.0077 330.366C85.0652 326.806 84.2387 323.202 84.0067 320.105C83.8907 318.585 83.9777 317.167 84.1807 316.515L84.8042 314.258L85.6162 311.58C87.8927 304.329 90.4882 296.876 93.0546 289.48C95.6066 282.07 98.1876 274.587 100.653 267.162L84.2822 261.431V261.416Z" fill="#2F3941" fill-opacity="0.15"/>
<path d="M146.893 216.637C146.704 217.534 147.023 218.388 147.603 218.533C148.183 218.677 148.821 218.07 149.01 217.172C149.198 216.275 148.879 215.421 148.299 215.276C147.719 215.132 147.081 215.739 146.893 216.637Z" fill="#263238"/>
<path d="M146.951 218.374C146.951 218.374 147.879 224.09 149.59 227.173C147.69 228.259 145.138 226.898 145.138 226.898L146.951 218.374Z" fill="#6B6F77"/>
<path d="M149.285 211.166C149.459 211.166 149.619 211.079 149.735 210.934C149.909 210.688 149.851 210.355 149.604 210.182C149.517 210.124 147.429 208.691 144.689 209.82C144.413 209.936 144.283 210.254 144.399 210.529C144.515 210.804 144.834 210.934 145.109 210.819C147.299 209.921 148.966 211.065 148.981 211.079C149.082 211.151 149.184 211.18 149.285 211.18V211.166Z" fill="#263238"/>
<path d="M115.819 219.502C114.804 230.01 116.298 240.184 113.949 249.317C113.949 249.317 116.559 257.798 132.117 257.798C149.227 257.798 139.962 249.317 139.962 249.317C130.537 247.088 130.508 240.17 131.885 233.686L115.805 219.502H115.819Z" fill="#E6EBEE"/>
<path d="M115.819 219.502C114.804 230.01 116.298 240.184 113.949 249.317C113.949 249.317 116.559 257.798 132.117 257.798C149.227 257.798 139.962 249.317 139.962 249.317C130.537 247.088 130.508 240.17 131.885 233.686L115.805 219.502H115.819Z" fill="url(#paint9_linear_1_27352)" fill-opacity="0.8"/>
<path d="M115.819 219.502C114.804 230.01 116.298 240.184 113.949 249.317C113.949 249.317 116.559 257.798 132.117 257.798C149.227 257.798 139.962 249.317 139.962 249.317C130.537 247.088 130.508 240.17 131.885 233.686L115.805 219.502H115.819Z" fill="#2F3941" fill-opacity="0.15"/>
<path d="M110.629 252.226C109.295 249.549 108.41 245.742 111.165 244.787C114.196 243.73 130.392 243.383 136.264 245.366C142.137 247.349 140.701 252.791 140.701 252.791L110.614 252.226H110.629Z" fill="#206E6A"/>
<path d="M75.6693 633.389C74.5383 633.128 73.3783 632.607 72.5953 632.202C72.4938 632.144 72.4213 632.043 72.4358 631.913C72.4503 631.783 72.5228 631.696 72.6388 631.652C73.1463 631.479 77.6413 630.002 78.8303 631.001C79.0188 631.16 79.2218 631.45 79.1348 631.927C79.0188 632.578 78.6998 633.042 78.1778 633.302C77.5108 633.635 76.6118 633.592 75.6838 633.375L75.6693 633.389ZM73.5233 632C75.4953 632.897 77.1048 633.201 77.9023 632.796C78.2503 632.622 78.4678 632.304 78.5403 631.84C78.5838 631.609 78.5113 631.522 78.4388 631.464C77.8298 630.943 75.3358 631.464 73.5233 632Z" fill="#C72A1C"/>
<path d="M72.6534 632.231C72.6534 632.231 72.5519 632.188 72.5084 632.144C72.4359 632.072 72.4069 631.956 72.4359 631.855C72.4794 631.71 73.6104 628.28 75.2924 627.455C75.7274 627.238 76.1769 627.209 76.6119 627.368C77.2789 627.614 77.3659 628.077 77.3514 628.338C77.2934 629.756 74.2194 631.84 72.7984 632.231C72.7549 632.231 72.6969 632.231 72.6534 632.231ZM76.2784 627.889C76.0464 627.831 75.7999 627.86 75.5534 627.991C74.4659 628.512 73.5959 630.465 73.2189 631.45C74.6979 630.798 76.7279 629.148 76.7569 628.309C76.7569 628.237 76.7569 628.048 76.4089 627.918C76.4089 627.918 76.3219 627.889 76.2784 627.875V627.889Z" fill="#C72A1C"/>
<path d="M154.882 642.218C153.722 642.218 152.475 641.972 151.605 641.769C151.489 641.74 151.402 641.653 151.388 641.523C151.373 641.393 151.417 641.291 151.518 641.219C151.968 640.93 156.013 638.455 157.391 639.164C157.608 639.28 157.869 639.511 157.898 640.003C157.942 640.669 157.739 641.19 157.289 641.566C156.724 642.044 155.839 642.203 154.882 642.203V642.218ZM152.475 641.349C154.592 641.769 156.231 641.697 156.912 641.118C157.217 640.872 157.347 640.51 157.318 640.047C157.304 639.815 157.217 639.743 157.13 639.699C156.405 639.337 154.114 640.394 152.475 641.349Z" fill="#C72A1C"/>
<path d="M151.678 641.783C151.678 641.783 151.562 641.769 151.518 641.74C151.431 641.682 151.373 641.581 151.388 641.465C151.388 641.306 151.692 637.716 153.157 636.53C153.534 636.226 153.954 636.095 154.418 636.153C155.129 636.24 155.317 636.674 155.361 636.935C155.622 638.324 153.128 641.06 151.823 641.769C151.779 641.798 151.736 641.798 151.678 641.798V641.783ZM154.201 636.718C153.954 636.718 153.737 636.805 153.519 636.978C152.591 637.731 152.185 639.844 152.04 640.886C153.331 639.916 154.926 637.847 154.766 637.022C154.766 636.949 154.723 636.776 154.331 636.718C154.331 636.718 154.244 636.718 154.201 636.718Z" fill="#C72A1C"/>
<path d="M138.207 641.335H149.662L149.778 614.878H138.323L138.207 641.335Z" fill="#E6EBEE"/>
<path d="M138.207 641.335H149.662L149.778 614.878H138.323L138.207 641.335Z" fill="url(#paint10_linear_1_27352)" fill-opacity="0.8"/>
<path d="M138.207 641.335H149.662L149.778 614.878H138.323L138.207 641.335Z" fill="#2F3941" fill-opacity="0.15"/>
<path d="M58.4724 631.536L69.4923 633.563L77.3948 607.526L66.3749 605.514L58.4724 631.536Z" fill="#E6EBEE"/>
<path d="M58.4724 631.536L69.4923 633.563L77.3948 607.526L66.3749 605.514L58.4724 631.536Z" fill="url(#paint11_linear_1_27352)" fill-opacity="0.8"/>
<path d="M58.4724 631.536L69.4923 633.563L77.3948 607.526L66.3749 605.514L58.4724 631.536Z" fill="#2F3941" fill-opacity="0.15"/>
<path d="M71.5804 630.625L59.067 627.672C58.6175 627.571 58.1535 627.788 57.965 628.208L53.8035 637.659C53.3685 638.643 53.992 639.815 55.036 640.032C59.415 640.987 61.59 641.233 67.0999 642.536C70.4784 643.332 77.3949 645.329 82.0638 646.444C86.6313 647.529 88.2698 643.028 86.4283 642.16C78.2214 638.237 75.4954 634.88 73.2334 631.739C72.8274 631.175 72.2329 630.784 71.5659 630.625H71.5804Z" fill="#003A57"/>
<path d="M149.532 640.003H137.033C136.569 640.003 136.177 640.322 136.09 640.785L134.22 650.945C134.031 652.001 134.872 653 135.945 652.971C140.455 652.899 146.951 652.624 152.62 652.624C159.247 652.624 161.61 652.986 169.382 652.986C174.08 652.986 175.197 648.238 173.225 647.819C164.191 645.865 160.247 645.648 152.33 640.886C151.475 640.365 150.532 640.003 149.532 640.003Z" fill="#003A57"/>
<path d="M88.4292 252.269C77.7428 259.767 74.5383 279.103 74.5383 279.103L98.7531 291.361C98.7531 291.361 104.901 279.464 107.598 267.379C110.15 255.946 96.0416 246.929 88.4437 252.269H88.4292Z" fill="#C72A1C"/>
<path opacity="0.2" d="M100.536 264.601L90.9955 287.41L98.7385 291.361C98.7385 291.361 102.117 284.805 105.002 276.411L100.536 264.586V264.601Z" fill="black"/>
<path d="M159.638 302.448C159.551 315.198 158.783 331.061 156.883 350.744H95.6647C94.9107 341.771 98.6661 299.452 89.5602 257.089C88.8787 253.934 90.9957 250.866 94.1857 250.374C98.0861 249.766 103.422 249.071 108.642 248.825C116.443 248.449 127.767 248.203 134.655 248.825C138.41 249.158 142.079 249.766 145.095 250.345C150.315 251.358 154.476 255.251 155.854 260.389C157.173 265.295 158.522 272.836 159.203 284.197C159.522 289.436 159.682 295.472 159.638 302.433V302.448Z" fill="#C72A1C"/>
<path opacity="0.2" d="M140.324 278.466C144.37 281.433 152.113 282.793 159.16 283.401C159.044 281.534 158.899 279.768 158.739 278.104C156.84 277.105 155.013 276.194 153.287 275.354L140.324 278.466Z" fill="black"/>
<g opacity="0.2">
<path d="M149.778 614.878L149.72 629.583H138.265L138.323 614.878H149.778Z" fill="#E6EBEE"/>
<path d="M149.778 614.878L149.72 629.583H138.265L138.323 614.878H149.778Z" fill="url(#paint12_linear_1_27352)" fill-opacity="0.8"/>
<path d="M149.778 614.878L149.72 629.583H138.265L138.323 614.878H149.778Z" fill="#2F3941" fill-opacity="0.15"/>
<path d="M66.3749 605.514L77.3948 607.526L73.3058 620.957L62.2859 618.93L66.3749 605.514Z" fill="#E6EBEE"/>
<path d="M66.3749 605.514L77.3948 607.526L73.3058 620.957L62.2859 618.93L66.3749 605.514Z" fill="url(#paint13_linear_1_27352)" fill-opacity="0.8"/>
<path d="M66.3749 605.514L77.3948 607.526L73.3058 620.957L62.2859 618.93L66.3749 605.514Z" fill="#2F3941" fill-opacity="0.15"/>
</g>
<path d="M117.458 207.2C115.776 218.446 114.239 224.93 118.574 232.007C125.114 242.659 139.759 241.009 144.718 230.618C149.198 221.254 151.185 204.436 141.354 197.315C131.682 190.296 119.125 195.955 117.443 207.2H117.458Z" fill="#E6EBEE"/>
<path d="M117.458 207.2C115.776 218.446 114.239 224.93 118.574 232.007C125.114 242.659 139.759 241.009 144.718 230.618C149.198 221.254 151.185 204.436 141.354 197.315C131.682 190.296 119.125 195.955 117.443 207.2H117.458Z" fill="#2F3941" fill-opacity="0.15"/>
<path d="M117.458 207.2C115.776 218.446 114.239 224.93 118.574 232.007C125.114 242.659 139.759 241.009 144.718 230.618C149.198 221.254 151.185 204.436 141.354 197.315C131.682 190.296 119.125 195.955 117.443 207.2H117.458Z" fill="url(#paint14_linear_1_27352)" fill-opacity="0.8"/>
<path d="M140.861 215.407C145.095 213.554 144.703 206.867 143.413 204.06C148.328 205.753 155.433 206.708 156.709 201.729C157.985 196.751 153.635 195.13 156.303 190.875C158.957 186.62 150.503 181.945 146.559 187.893C142.615 193.842 132.871 191.222 126.578 185.476C121.996 181.293 115.297 186.677 117.965 192.148C117.965 192.148 104.191 191.265 106.931 200.586C109.671 209.907 113.543 210.254 112.644 216.883C112.049 221.369 111.513 230.502 116.907 231.79C123.432 233.339 139.701 227.578 140.861 215.392V215.407Z" fill="#101030"/>
<g opacity="0.2">
<path d="M140.948 227.593C142.195 228.49 143.485 229.445 144.805 230.459C144.776 230.516 144.761 230.56 144.732 230.618C143.369 233.469 141.267 235.669 138.802 237.145C137.975 236.349 137.526 233.672 135.974 233.715C131.378 233.831 122.489 231.92 121.01 226.739L140.933 227.593H140.948Z" fill="#E6EBEE"/>
<path d="M140.948 227.593C142.195 228.49 143.485 229.445 144.805 230.459C144.776 230.516 144.761 230.56 144.732 230.618C143.369 233.469 141.267 235.669 138.802 237.145C137.975 236.349 137.526 233.672 135.974 233.715C131.378 233.831 122.489 231.92 121.01 226.739L140.933 227.593H140.948Z" fill="url(#paint15_linear_1_27352)" fill-opacity="0.8"/>
<path d="M140.948 227.593C142.195 228.49 143.485 229.445 144.805 230.459C144.776 230.516 144.761 230.56 144.732 230.618C143.369 233.469 141.267 235.669 138.802 237.145C137.975 236.349 137.526 233.672 135.974 233.715C131.378 233.831 122.489 231.92 121.01 226.739L140.933 227.593H140.948Z" fill="#2F3941" fill-opacity="0.15"/>
</g>
<path d="M137.381 215.247C137.062 218.128 137.598 220.834 138.468 222.6C139.788 225.248 141.832 223.555 142.644 220.298C143.369 217.36 143.558 212.454 141.673 211.007C139.817 209.588 137.743 211.948 137.381 215.247Z" fill="#E6EBEE"/>
<path d="M137.381 215.247C137.062 218.128 137.598 220.834 138.468 222.6C139.788 225.248 141.832 223.555 142.644 220.298C143.369 217.36 143.558 212.454 141.673 211.007C139.817 209.588 137.743 211.948 137.381 215.247Z" fill="url(#paint16_linear_1_27352)" fill-opacity="0.8"/>
<path d="M137.381 215.247C137.062 218.128 137.598 220.834 138.468 222.6C139.788 225.248 141.832 223.555 142.644 220.298C143.369 217.36 143.558 212.454 141.673 211.007C139.817 209.588 137.743 211.948 137.381 215.247Z" fill="#2F3941" fill-opacity="0.15"/>
<path d="M135.162 350.744C135.162 350.744 125.549 438.046 119.691 470.755C113.267 506.576 80.0047 618.988 80.0047 618.988L59.5019 614.632C59.5019 614.632 82.3972 509.456 85.4857 473.997C88.8352 435.513 95.6646 350.744 95.6646 350.744H135.162Z" fill="#407BFF"/>
<path d="M135.162 350.744C135.162 350.744 125.549 438.046 119.691 470.755C113.267 506.576 80.0047 618.988 80.0047 618.988L59.5019 614.632C59.5019 614.632 82.3972 509.456 85.4857 473.997C87.6027 449.605 90.9957 408.521 95.6646 350.744H135.162Z" fill="#206E6A"/>
<path d="M84.5868 612.085C84.6738 612.099 81.0923 619.553 81.0923 619.553L58.023 614.646L59.676 607.67L84.5868 612.085Z" fill="#0C4D5E"/>
<path opacity="0.2" d="M128.159 381.847C113.253 384.785 117.009 440.694 119.923 469.438C123.461 449.118 128.29 410.012 131.552 382.252C130.537 381.76 129.406 381.601 128.159 381.847Z" fill="black"/>
<path d="M156.883 350.744C156.883 350.744 161.77 436.15 161.871 470.987C161.973 507.227 153.882 625.863 153.882 625.863H134.495C134.495 625.863 129.275 509.34 127.042 473.751C124.606 434.949 116.646 350.73 116.646 350.73H156.883V350.744Z" fill="#407BFF"/>
<path d="M156.883 350.744C156.883 350.744 161.77 436.15 161.871 470.987C161.973 507.227 153.882 625.863 153.882 625.863H134.495C134.495 625.863 129.275 509.34 127.042 473.751C124.606 434.949 116.646 350.73 116.646 350.73H156.883V350.744Z" fill="#206E6A"/>
<path d="M157.304 618.163C157.391 618.163 156.521 626.196 156.521 626.196H132.929L132.016 619.032L157.304 618.163Z" fill="#0C4D5E"/>
<path d="M132.625 270.187C134.945 270.419 136.902 270.535 139.019 270.592C141.107 270.665 143.181 270.694 145.269 270.679C149.43 270.636 153.606 270.419 157.811 269.956C162.016 269.507 166.236 268.827 170.484 267.785C174.733 266.757 179.025 265.339 183.273 263.255L183.752 263.023C187.507 261.185 189.044 256.655 187.203 252.921C187 252.516 186.739 252.096 186.478 251.748C184.491 249.085 182.577 247.233 180.605 245.482C178.648 243.745 176.69 242.196 174.718 240.72C170.774 237.753 166.743 235.133 162.698 232.586C158.623 230.068 154.52 227.694 150.358 225.422C146.168 223.193 142.006 220.993 137.656 218.967C135.496 217.968 132.929 218.909 131.914 221.066C131.045 222.933 131.624 225.104 133.205 226.305L133.248 226.348C136.902 229.142 140.643 231.906 144.283 234.743C147.951 237.55 151.591 240.373 155.143 243.238C158.71 246.075 162.19 248.999 165.482 251.937C167.12 253.413 168.701 254.904 170.107 256.409C171.499 257.885 172.819 259.419 173.529 260.577L176.748 249.056C173.79 250.2 170.47 251.025 167.004 251.647C163.524 252.255 159.914 252.646 156.26 252.892C152.591 253.123 148.879 253.239 145.153 253.254C143.282 253.254 141.412 253.254 139.556 253.196C137.729 253.123 135.757 253.066 134.133 252.979H133.93C129.145 252.704 125.056 256.351 124.781 261.127C124.52 265.773 128 269.767 132.596 270.231L132.625 270.187Z" fill="#E6EBEE"/>
<path d="M132.625 270.187C134.945 270.419 136.902 270.535 139.019 270.592C141.107 270.665 143.181 270.694 145.269 270.679C149.43 270.636 153.606 270.419 157.811 269.956C162.016 269.507 166.236 268.827 170.484 267.785C174.733 266.757 179.025 265.339 183.273 263.255L183.752 263.023C187.507 261.185 189.044 256.655 187.203 252.921C187 252.516 186.739 252.096 186.478 251.748C184.491 249.085 182.577 247.233 180.605 245.482C178.648 243.745 176.69 242.196 174.718 240.72C170.774 237.753 166.743 235.133 162.698 232.586C158.623 230.068 154.52 227.694 150.358 225.422C146.168 223.193 142.006 220.993 137.656 218.967C135.496 217.968 132.929 218.909 131.914 221.066C131.045 222.933 131.624 225.104 133.205 226.305L133.248 226.348C136.902 229.142 140.643 231.906 144.283 234.743C147.951 237.55 151.591 240.373 155.143 243.238C158.71 246.075 162.19 248.999 165.482 251.937C167.12 253.413 168.701 254.904 170.107 256.409C171.499 257.885 172.819 259.419 173.529 260.577L176.748 249.056C173.79 250.2 170.47 251.025 167.004 251.647C163.524 252.255 159.914 252.646 156.26 252.892C152.591 253.123 148.879 253.239 145.153 253.254C143.282 253.254 141.412 253.254 139.556 253.196C137.729 253.123 135.757 253.066 134.133 252.979H133.93C129.145 252.704 125.056 256.351 124.781 261.127C124.52 265.773 128 269.767 132.596 270.231L132.625 270.187Z" fill="#2F3941" fill-opacity="0.15"/>
<path d="M132.625 270.187C134.945 270.419 136.902 270.535 139.019 270.592C141.107 270.665 143.181 270.694 145.269 270.679C149.43 270.636 153.606 270.419 157.811 269.956C162.016 269.507 166.236 268.827 170.484 267.785C174.733 266.757 179.025 265.339 183.273 263.255L183.752 263.023C187.507 261.185 189.044 256.655 187.203 252.921C187 252.516 186.739 252.096 186.478 251.748C184.491 249.085 182.577 247.233 180.605 245.482C178.648 243.745 176.69 242.196 174.718 240.72C170.774 237.753 166.743 235.133 162.698 232.586C158.623 230.068 154.52 227.694 150.358 225.422C146.168 223.193 142.006 220.993 137.656 218.967C135.496 217.968 132.929 218.909 131.914 221.066C131.045 222.933 131.624 225.104 133.205 226.305L133.248 226.348C136.902 229.142 140.643 231.906 144.283 234.743C147.951 237.55 151.591 240.373 155.143 243.238C158.71 246.075 162.19 248.999 165.482 251.937C167.12 253.413 168.701 254.904 170.107 256.409C171.499 257.885 172.819 259.419 173.529 260.577L176.748 249.056C173.79 250.2 170.47 251.025 167.004 251.647C163.524 252.255 159.914 252.646 156.26 252.892C152.591 253.123 148.879 253.239 145.153 253.254C143.282 253.254 141.412 253.254 139.556 253.196C137.729 253.123 135.757 253.066 134.133 252.979H133.93C129.145 252.704 125.056 256.351 124.781 261.127C124.52 265.773 128 269.767 132.596 270.231L132.625 270.187Z" fill="url(#paint17_linear_1_27352)" fill-opacity="0.8"/>
<path d="M124.505 216.608L131.784 218.214C131.784 218.214 141.484 217.013 143.703 224.308L137.961 229.199L129.087 230.603C127.68 230.82 126.245 230.603 124.969 229.938L122.707 228.765C121.663 228.23 120.967 227.202 120.866 226.03L120.329 220.284C120.112 217.968 122.229 216.101 124.505 216.608Z" fill="#BABFC3"/>
<path d="M138.657 278.639C150.851 282.012 164.757 277.8 164.757 277.8L159.638 250.547C159.638 250.547 147.516 249.491 139.962 249.331C120.488 248.926 116.675 272.561 138.657 278.654V278.639Z" fill="#C72A1C"/>
</g>
<defs>
<filter id="filter0_d_1_27352" x="180.206" y="52.1028" width="348.589" height="284.804" filterUnits="userSpaceOnUse" color-interpolation-filters="sRGB">
<feFlood flood-opacity="0" result="BackgroundImageFix"/>
<feColorMatrix in="SourceAlpha" type="matrix" values="0 0 0 0 0 0 0 0 0 0 0 0 0 0 0 0 0 0 127 0" result="hardAlpha"/>
<feOffset dy="18.8972"/>
<feGaussianBlur stdDeviation="18.8972"/>
<feColorMatrix type="matrix" values="0 0 0 0 0.184314 0 0 0 0 0.223529 0 0 0 0 0.254902 0 0 0 0.15 0"/>
<feBlend mode="normal" in2="BackgroundImageFix" result="effect1_dropShadow_1_27352"/>
<feBlend mode="normal" in="SourceGraphic" in2="effect1_dropShadow_1_27352" result="shape"/>
</filter>
<filter id="filter1_d_1_27352" x="199.56" y="89.3016" width="310.73" height="220.837" filterUnits="userSpaceOnUse" color-interpolation-filters="sRGB">
<feFlood flood-opacity="0" result="BackgroundImageFix"/>
<feColorMatrix in="SourceAlpha" type="matrix" values="0 0 0 0 0 0 0 0 0 0 0 0 0 0 0 0 0 0 127 0" result="hardAlpha"/>
<feOffset dy="18.031"/>
<feGaussianBlur stdDeviation="12.6217"/>
<feColorMatrix type="matrix" values="0 0 0 0 0.184314 0 0 0 0 0.223529 0 0 0 0 0.254902 0 0 0 0.15 0"/>
<feBlend mode="normal" in2="BackgroundImageFix" result="effect1_dropShadow_1_27352"/>
<feBlend mode="normal" in="SourceGraphic" in2="effect1_dropShadow_1_27352" result="shape"/>
</filter>
<filter id="filter2_d_1_27352" x="401" y="115" width="56" height="56" filterUnits="userSpaceOnUse" color-interpolation-filters="sRGB">
<feFlood flood-opacity="0" result="BackgroundImageFix"/>
<feColorMatrix in="SourceAlpha" type="matrix" values="0 0 0 0 0 0 0 0 0 0 0 0 0 0 0 0 0 0 127 0" result="hardAlpha"/>
<feOffset dy="4"/>
<feGaussianBlur stdDeviation="4"/>
<feColorMatrix type="matrix" values="0 0 0 0 0.184314 0 0 0 0 0.223529 0 0 0 0 0.254902 0 0 0 0.15 0"/>
<feBlend mode="normal" in2="BackgroundImageFix" result="effect1_dropShadow_1_27352"/>
<feBlend mode="normal" in="SourceGraphic" in2="effect1_dropShadow_1_27352" result="shape"/>
</filter>
<filter id="filter3_d_1_27352" x="414" y="132.333" width="30.0001" height="20" filterUnits="userSpaceOnUse" color-interpolation-filters="sRGB">
<feFlood flood-opacity="0" result="BackgroundImageFix"/>
<feColorMatrix in="SourceAlpha" type="matrix" values="0 0 0 0 0 0 0 0 0 0 0 0 0 0 0 0 0 0 127 0" result="hardAlpha"/>
<feOffset dy="3.33333"/>
<feGaussianBlur stdDeviation="3.33333"/>
<feColorMatrix type="matrix" values="0 0 0 0 0.184314 0 0 0 0 0.223529 0 0 0 0 0.254902 0 0 0 0.15 0"/>
<feBlend mode="normal" in2="BackgroundImageFix" result="effect1_dropShadow_1_27352"/>
<feBlend mode="normal" in="SourceGraphic" in2="effect1_dropShadow_1_27352" result="shape"/>
</filter>
<linearGradient id="paint0_linear_1_27352" x1="65" y1="0" x2="519.014" y2="7.46072" gradientUnits="userSpaceOnUse">
<stop stop-color="#001825"/>
<stop offset="1" stop-color="#003A57"/>
</linearGradient>
<linearGradient id="paint1_linear_1_27352" x1="401.784" y1="219.2" x2="394.208" y2="219.745" gradientUnits="userSpaceOnUse">
<stop stop-color="white" stop-opacity="0"/>
<stop offset="1" stop-color="white" stop-opacity="0.8"/>
</linearGradient>
<linearGradient id="paint2_linear_1_27352" x1="393.284" y1="327.833" x2="385.708" y2="328.378" gradientUnits="userSpaceOnUse">
<stop stop-color="white" stop-opacity="0"/>
<stop offset="1" stop-color="white" stop-opacity="0.8"/>
</linearGradient>
<linearGradient id="paint3_linear_1_27352" x1="132.284" y1="33.2002" x2="124.708" y2="33.7453" gradientUnits="userSpaceOnUse">
<stop stop-color="white" stop-opacity="0"/>
<stop offset="1" stop-color="white" stop-opacity="0.8"/>
</linearGradient>
<linearGradient id="paint4_linear_1_27352" x1="420.905" y1="321.209" x2="221.475" y2="95.881" gradientUnits="userSpaceOnUse">
<stop stop-color="white" stop-opacity="0"/>
<stop offset="1" stop-color="white" stop-opacity="0.8"/>
</linearGradient>
<linearGradient id="paint5_linear_1_27352" x1="475.036" y1="75.9834" x2="483.13" y2="76.1117" gradientUnits="userSpaceOnUse">
<stop stop-color="#001825"/>
<stop offset="1" stop-color="#003A57"/>
</linearGradient>
<linearGradient id="paint6_linear_1_27352" x1="262.082" y1="446.98" x2="433.509" y2="504.649" gradientUnits="userSpaceOnUse">
<stop offset="0.213542" stop-color="#323444"/>
<stop offset="0.6875" stop-color="#2F3941" stop-opacity="0.291667"/>
<stop offset="1" stop-color="#2F3941" stop-opacity="0"/>
</linearGradient>
<linearGradient id="paint7_linear_1_27352" x1="326.918" y1="404.875" x2="430.063" y2="439.604" gradientUnits="userSpaceOnUse">
<stop offset="0.213542" stop-color="#323444"/>
<stop offset="0.6875" stop-color="#2F3941" stop-opacity="0.291667"/>
<stop offset="1" stop-color="#2F3941" stop-opacity="0"/>
</linearGradient>
<linearGradient id="paint8_linear_1_27352" x1="84.6201" y1="261.416" x2="84.6201" y2="356.316" gradientUnits="userSpaceOnUse">
<stop offset="0.244792" stop-color="#323444"/>
<stop offset="0.723958" stop-color="#2F3941" stop-opacity="0.2917"/>
<stop offset="0.994792" stop-color="#2F3941" stop-opacity="0"/>
</linearGradient>
<linearGradient id="paint9_linear_1_27352" x1="128.208" y1="219.502" x2="128.208" y2="257.798" gradientUnits="userSpaceOnUse">
<stop offset="0.244792" stop-color="#323444"/>
<stop offset="0.723958" stop-color="#2F3941" stop-opacity="0.2917"/>
<stop offset="0.994792" stop-color="#2F3941" stop-opacity="0"/>
</linearGradient>
<linearGradient id="paint10_linear_1_27352" x1="143.993" y1="614.878" x2="143.993" y2="641.335" gradientUnits="userSpaceOnUse">
<stop offset="0.244792" stop-color="#323444"/>
<stop offset="0.723958" stop-color="#2F3941" stop-opacity="0.2917"/>
<stop offset="0.994792" stop-color="#2F3941" stop-opacity="0"/>
</linearGradient>
<linearGradient id="paint11_linear_1_27352" x1="67.9336" y1="605.514" x2="67.9336" y2="633.563" gradientUnits="userSpaceOnUse">
<stop offset="0.244792" stop-color="#323444"/>
<stop offset="0.723958" stop-color="#2F3941" stop-opacity="0.2917"/>
<stop offset="0.994792" stop-color="#2F3941" stop-opacity="0"/>
</linearGradient>
<linearGradient id="paint12_linear_1_27352" x1="144.022" y1="614.878" x2="144.022" y2="629.583" gradientUnits="userSpaceOnUse">
<stop offset="0.244792" stop-color="#323444"/>
<stop offset="0.723958" stop-color="#2F3941" stop-opacity="0.2917"/>
<stop offset="0.994792" stop-color="#2F3941" stop-opacity="0"/>
</linearGradient>
<linearGradient id="paint13_linear_1_27352" x1="69.8403" y1="605.514" x2="69.8403" y2="620.957" gradientUnits="userSpaceOnUse">
<stop offset="0.244792" stop-color="#323444"/>
<stop offset="0.723958" stop-color="#2F3941" stop-opacity="0.2917"/>
<stop offset="0.994792" stop-color="#2F3941" stop-opacity="0"/>
</linearGradient>
<linearGradient id="paint14_linear_1_27352" x1="132.086" y1="194.229" x2="132.086" y2="239.245" gradientUnits="userSpaceOnUse">
<stop stop-color="#2F3941" stop-opacity="0"/>
<stop offset="0.265625" stop-color="#2F3941" stop-opacity="0.2917"/>
<stop offset="0.78125" stop-color="#323244"/>
</linearGradient>
<linearGradient id="paint15_linear_1_27352" x1="132.908" y1="226.739" x2="132.908" y2="237.145" gradientUnits="userSpaceOnUse">
<stop offset="0.244792" stop-color="#323444"/>
<stop offset="0.723958" stop-color="#2F3941" stop-opacity="0.2917"/>
<stop offset="0.994792" stop-color="#2F3941" stop-opacity="0"/>
</linearGradient>
<linearGradient id="paint16_linear_1_27352" x1="140.224" y1="210.586" x2="140.224" y2="223.905" gradientUnits="userSpaceOnUse">
<stop offset="0.244792" stop-color="#323444"/>
<stop offset="0.723958" stop-color="#2F3941" stop-opacity="0.2917"/>
<stop offset="0.994792" stop-color="#2F3941" stop-opacity="0"/>
</linearGradient>
<linearGradient id="paint17_linear_1_27352" x1="156.374" y1="218.568" x2="156.374" y2="270.683" gradientUnits="userSpaceOnUse">
<stop stop-color="#2F3941" stop-opacity="0"/>
<stop offset="0.265625" stop-color="#2F3941" stop-opacity="0.2917"/>
<stop offset="0.78125" stop-color="#323244"/>
</linearGradient>
<clipPath id="clip0_1_27352">
<rect x="218" y="71" width="273" height="209.215" rx="8" fill="white"/>
</clipPath>
<clipPath id="clip1_1_27352">
<rect width="248.152" height="149.322" rx="7.21242" transform="matrix(0.996205 0.0870351 -0.0872766 0.996184 237.836 96.514)" fill="white"/>
</clipPath>
<clipPath id="clip2_1_27352">
<rect width="40" height="40" fill="white" transform="translate(409 119)"/>
</clipPath>
<clipPath id="clip3_1_27352">
<rect width="147" height="469" fill="white" transform="matrix(-1 0 0 1 188 184)"/>
</clipPath>
</defs>
</svg>
