<svg width="509" height="653" viewBox="0 0 509 653" fill="none" xmlns="http://www.w3.org/2000/svg">
<path d="M67.1951 28.7177C53.8844 54.1448 92.4888 97.2444 169.234 182.924C259.565 283.779 373.559 411.047 446.367 380.998C499.954 358.883 524.011 254.509 499.244 178.886C440.233 -1.27318 99.3674 -32.7353 67.1951 28.7177Z" fill="url(#paint0_linear_1_27778)"/>
<path d="M448.192 363.521C448.396 363.478 448.466 363.29 448.642 362.826C448.958 361.996 449.273 361.166 449.617 360.348C449.671 360.219 449.867 360.089 450.011 360.071C450.865 359.968 451.726 359.918 452.58 359.805C452.844 359.772 452.985 359.795 453.137 360.034C453.745 360.99 454.378 361.928 454.996 362.862C455.99 362.617 458.22 361.408 458.84 360.768C458.415 359.775 457.995 358.754 457.537 357.751C457.394 357.438 457.419 357.278 457.664 357.014C458.231 356.401 458.744 355.734 459.241 355.061C459.443 354.788 459.601 354.643 459.97 354.726C460.926 354.944 461.894 355.103 462.854 355.303C463.112 355.357 463.272 355.306 463.348 355.048C463.706 353.835 464.062 352.622 464.418 351.409C464.506 351.111 464.264 351.068 464.09 350.995C463.211 350.629 462.332 350.258 461.441 349.922C461.108 349.796 460.995 349.623 460.982 349.257C460.941 348.288 460.839 347.322 460.755 346.281L463.731 344.253C463.257 342.855 462.557 341.597 461.632 340.409L458.399 341.81C457.493 341.102 456.669 340.428 455.808 339.804C455.559 339.624 455.517 339.48 455.574 339.205C455.771 338.249 455.939 337.287 456.129 336.33C456.171 336.124 456.177 335.972 455.953 335.868C454.82 335.346 453.658 334.927 452.414 334.766C452.136 334.73 452.028 334.831 451.936 335.064C451.566 335.997 451.178 336.923 450.812 337.858C450.724 338.085 450.63 338.18 450.358 338.203C449.416 338.284 448.475 338.406 447.54 338.553C447.301 338.59 447.208 338.514 447.095 338.344C446.466 337.401 445.832 336.465 445.183 335.5C443.822 336.007 442.56 336.648 441.403 337.56L442.847 340.968L440.581 343.79C439.735 343.628 438.764 343.434 437.788 343.256C436.988 343.112 437.092 342.994 436.763 343.81C436.732 343.887 436.674 343.954 436.626 344.025L436 346.209C435.983 346.379 435.991 346.557 435.943 346.717C435.817 347.134 435.913 347.367 436.355 347.528C437.276 347.864 438.176 348.258 439.076 348.649C439.193 348.701 439.317 348.872 439.335 349.002C439.45 349.85 439.493 350.711 439.651 351.55C439.729 351.961 439.62 352.135 439.305 352.341C438.411 352.926 437.542 353.55 436.575 354.217L438.618 358.054C438.87 357.951 439.016 357.893 439.158 357.831C440.045 357.446 440.937 357.07 441.817 356.669C442.067 356.555 442.208 356.61 442.415 356.782C443.123 357.372 443.868 357.916 444.58 358.501C444.691 358.592 444.77 358.818 444.747 358.963C444.62 359.753 444.449 360.536 444.306 361.324C444.19 361.962 444.15 362.199 444.357 362.398L448.192 363.521ZM448.045 357.818C446.051 357.328 444.287 356.154 443.053 354.496C441.819 352.839 441.192 350.8 441.278 348.726C441.364 346.653 442.158 344.675 443.525 343.128C444.892 341.58 446.747 340.56 448.774 340.242C450.801 339.923 452.875 340.324 454.642 341.379C456.41 342.433 457.761 344.074 458.466 346.022C459.171 347.971 459.186 350.106 458.508 352.065C457.831 354.023 456.503 355.684 454.751 356.763C453.758 357.378 452.653 357.789 451.502 357.97C450.351 358.151 449.176 358.099 448.045 357.818Z" fill="#C57F12"/>
<g style="mix-blend-mode:hard-light" opacity="0.6">
<path d="M390.612 217.268L394.851 213L399.09 217.268L394.851 221.536L390.612 217.268Z" fill="#E6EBEE"/>
<path d="M390.612 217.268L394.851 213L399.09 217.268L394.851 221.536L390.612 217.268Z" fill="url(#paint1_linear_1_27778)"/>
</g>
<g style="mix-blend-mode:hard-light" opacity="0.6">
<path d="M382.176 325.9L386.416 321.632L390.655 325.9L386.416 330.168L382.176 325.9Z" fill="#E6EBEE"/>
<path d="M382.176 325.9L386.416 321.632L390.655 325.9L386.416 330.168L382.176 325.9Z" fill="url(#paint2_linear_1_27778)"/>
</g>
<g style="mix-blend-mode:hard-light" opacity="0.6">
<path d="M123.158 31.2681L127.397 27L131.636 31.2681L127.397 35.5362L123.158 31.2681Z" fill="#E6EBEE"/>
<path d="M123.158 31.2681L127.397 27L131.636 31.2681L127.397 35.5362L123.158 31.2681Z" fill="url(#paint3_linear_1_27778)"/>
</g>
<path d="M0.0991211 652.5H490.599" stroke="#6C757D"/>
<defs>
<linearGradient id="paint0_linear_1_27778" x1="64.6057" y1="0" x2="515.175" y2="7.3479" gradientUnits="userSpaceOnUse">
<stop stop-color="#001825"/>
<stop offset="1" stop-color="#003A57"/>
</linearGradient>
<linearGradient id="paint1_linear_1_27778" x1="398.833" y1="219.2" x2="391.314" y2="219.737" gradientUnits="userSpaceOnUse">
<stop stop-color="white" stop-opacity="0"/>
<stop offset="1" stop-color="white" stop-opacity="0.8"/>
</linearGradient>
<linearGradient id="paint2_linear_1_27778" x1="390.397" y1="327.833" x2="382.878" y2="328.369" gradientUnits="userSpaceOnUse">
<stop stop-color="white" stop-opacity="0"/>
<stop offset="1" stop-color="white" stop-opacity="0.8"/>
</linearGradient>
<linearGradient id="paint3_linear_1_27778" x1="131.379" y1="33.2002" x2="123.86" y2="33.7371" gradientUnits="userSpaceOnUse">
<stop stop-color="white" stop-opacity="0"/>
<stop offset="1" stop-color="white" stop-opacity="0.8"/>
</linearGradient>
</defs>
</svg>
