<svg width="149" height="180" viewBox="0 0 149 180" fill="none" xmlns="http://www.w3.org/2000/svg">
<path d="M36.6584 7.24674C33.2738 13.6631 43.09 24.539 62.6044 46.1598C85.5732 71.6098 114.559 103.725 133.072 96.1425C146.698 90.5619 152.815 64.2238 146.517 45.1407C131.512 -0.321279 44.839 -8.26055 36.6584 7.24674Z" fill="url(#paint0_linear_1_27937)"/>
<path d="M133.536 91.7322C133.588 91.7213 133.606 91.674 133.65 91.5568C133.731 91.3474 133.811 91.1379 133.898 90.9316C133.912 90.8991 133.962 90.8662 133.999 90.8618C134.216 90.8358 134.435 90.823 134.652 90.7947C134.719 90.7863 134.755 90.7921 134.793 90.8525C134.948 91.0935 135.109 91.3303 135.266 91.566C135.519 91.504 136.086 91.1991 136.244 91.0376C136.135 90.787 136.029 90.5293 135.912 90.2761C135.876 90.1973 135.882 90.1569 135.944 90.0902C136.089 89.9357 136.219 89.7674 136.346 89.5975C136.397 89.5286 136.437 89.4919 136.531 89.513C136.774 89.5678 137.02 89.608 137.264 89.6585C137.33 89.6721 137.37 89.6592 137.39 89.5941C137.481 89.2881 137.571 88.982 137.662 88.6759C137.684 88.6007 137.623 88.5898 137.579 88.5715C137.355 88.4791 137.132 88.3854 136.905 88.3006C136.82 88.2688 136.791 88.2252 136.788 88.1328C136.778 87.8884 136.752 87.6446 136.73 87.3819L137.487 86.8702C137.367 86.5172 137.189 86.1998 136.954 85.9L136.131 86.2536C135.901 86.075 135.691 85.9048 135.473 85.7475C135.409 85.7019 135.398 85.6658 135.413 85.5962C135.463 85.3551 135.506 85.1122 135.554 84.8709C135.565 84.8187 135.566 84.7804 135.509 84.7543C135.221 84.6225 134.926 84.5167 134.609 84.4761C134.539 84.467 134.511 84.4925 134.488 84.5513C134.394 84.7867 134.295 85.0205 134.202 85.2564C134.18 85.3135 134.156 85.3376 134.087 85.3435C133.847 85.3639 133.608 85.3947 133.37 85.4317C133.309 85.4411 133.286 85.422 133.257 85.379C133.097 85.1412 132.936 84.9049 132.771 84.6615C132.425 84.7893 132.104 84.9511 131.81 85.1812L132.177 86.0411L131.601 86.7532C131.386 86.7123 131.139 86.6634 130.891 86.6187C130.687 86.5823 130.713 86.5525 130.63 86.7582C130.622 86.7779 130.607 86.7946 130.595 86.8125L130.436 87.3638C130.431 87.4066 130.434 87.4515 130.421 87.492C130.389 87.5972 130.414 87.656 130.526 87.6966C130.76 87.7813 130.989 87.8807 131.218 87.9795C131.248 87.9925 131.279 88.0356 131.284 88.0685C131.313 88.2826 131.324 88.4998 131.364 88.7115C131.384 88.8151 131.356 88.859 131.276 88.9112C131.049 89.0588 130.828 89.2162 130.582 89.3846L131.101 90.3528C131.166 90.3266 131.203 90.3122 131.239 90.2964C131.465 90.1993 131.691 90.1043 131.915 90.0033C131.978 89.9746 132.015 89.9884 132.067 90.0318C132.247 90.1807 132.437 90.3179 132.618 90.4655C132.646 90.4884 132.666 90.5455 132.66 90.582C132.628 90.7814 132.584 90.9791 132.548 91.1779C132.519 91.3388 132.508 91.3986 132.561 91.4489L133.536 91.7322ZM133.499 90.2931C132.992 90.1695 132.543 89.8733 132.229 89.455C131.916 89.0366 131.756 88.5221 131.778 87.999C131.8 87.4759 132.002 86.9765 132.349 86.5861C132.697 86.1957 133.169 85.9383 133.684 85.8578C134.199 85.7774 134.727 85.8788 135.176 86.1448C135.626 86.4108 135.969 86.8249 136.148 87.3166C136.328 87.8083 136.331 88.3472 136.159 88.8414C135.987 89.3356 135.649 89.7546 135.204 90.0269C134.951 90.1822 134.67 90.2858 134.378 90.3315C134.085 90.3772 133.786 90.3641 133.499 90.2931Z" fill="#C57F12"/>
<g style="mix-blend-mode:hard-light" opacity="0.6">
<path d="M118.895 54.8262L119.973 53.7492L121.051 54.8262L119.973 55.9033L118.895 54.8262Z" fill="#E6EBEE"/>
<path d="M118.895 54.8262L119.973 53.7492L121.051 54.8262L119.973 55.9033L118.895 54.8262Z" fill="url(#paint1_linear_1_27937)"/>
</g>
<g style="mix-blend-mode:hard-light" opacity="0.6">
<path d="M116.75 82.239L117.828 81.1619L118.906 82.239L117.828 83.316L116.75 82.239Z" fill="#E6EBEE"/>
<path d="M116.75 82.239L117.828 81.1619L118.906 82.239L117.828 83.316L116.75 82.239Z" fill="url(#paint2_linear_1_27937)"/>
</g>
<g style="mix-blend-mode:hard-light" opacity="0.6">
<path d="M50.8882 7.8903L51.9661 6.81328L53.0441 7.8903L51.9661 8.96733L50.8882 7.8903Z" fill="#E6EBEE"/>
<path d="M50.8882 7.8903L51.9661 6.81328L53.0441 7.8903L51.9661 8.96733L50.8882 7.8903Z" fill="url(#paint3_linear_1_27937)"/>
</g>
<path d="M0 179.186H145.223" stroke="#6C757D" stroke-width="0.296071"/>
<g clip-path="url(#clip0_1_27937)">
<path d="M28.0403 86.8851L31.4082 87.9894L28.7 91.2278C28.7 91.2278 27.424 90.1322 26.7296 88.9009C26.4388 88.3882 26.608 87.7309 27.1115 87.4329L28.0403 86.8851Z" fill="#CAD0D4"/>
<path d="M32.9575 90.6493L30.9394 93.1252L28.6999 91.2277L31.4081 87.9894L32.9575 90.6493Z" fill="#CAD0D4"/>
<path d="M26.9552 60.4395C26.1306 62.7182 25.3754 64.9969 24.6637 67.3062C23.9562 69.6199 23.2835 71.9336 22.7106 74.3657L22.5066 75.299L22.4112 75.7854L22.3634 76.0308L22.3504 76.0922L22.3374 76.1842L22.3113 76.3682C22.1898 77.3586 22.294 78.1386 22.4285 78.8616C22.7106 80.2946 23.1707 81.5084 23.6785 82.6871C24.7114 85.0272 25.9483 87.1305 27.3936 89.1726L29.6461 87.9149C28.8475 85.7327 28.062 83.4847 27.4717 81.3156C27.1896 80.2376 26.9422 79.1465 26.8728 78.2087C26.8381 77.7486 26.8641 77.3191 26.9249 77.122L27.1115 76.4384L27.3545 75.6277C28.0359 73.4323 28.8128 71.1755 29.581 68.9363C30.3449 66.6927 31.1174 64.4272 31.8552 62.1792L26.9552 60.4439V60.4395Z" fill="#E6EBEE"/>
<path d="M26.9552 60.4395C26.1306 62.7182 25.3754 64.9969 24.6637 67.3062C23.9562 69.6199 23.2835 71.9336 22.7106 74.3657L22.5066 75.299L22.4112 75.7854L22.3634 76.0308L22.3504 76.0922L22.3374 76.1842L22.3113 76.3682C22.1898 77.3586 22.294 78.1386 22.4285 78.8616C22.7106 80.2946 23.1707 81.5084 23.6785 82.6871C24.7114 85.0272 25.9483 87.1305 27.3936 89.1726L29.6461 87.9149C28.8475 85.7327 28.062 83.4847 27.4717 81.3156C27.1896 80.2376 26.9422 79.1465 26.8728 78.2087C26.8381 77.7486 26.8641 77.3191 26.9249 77.122L27.1115 76.4384L27.3545 75.6277C28.0359 73.4323 28.8128 71.1755 29.581 68.9363C30.3449 66.6927 31.1174 64.4272 31.8552 62.1792L26.9552 60.4439V60.4395Z" fill="url(#paint4_linear_1_27937)" fill-opacity="0.8"/>
<path d="M26.9552 60.4395C26.1306 62.7182 25.3754 64.9969 24.6637 67.3062C23.9562 69.6199 23.2835 71.9336 22.7106 74.3657L22.5066 75.299L22.4112 75.7854L22.3634 76.0308L22.3504 76.0922L22.3374 76.1842L22.3113 76.3682C22.1898 77.3586 22.294 78.1386 22.4285 78.8616C22.7106 80.2946 23.1707 81.5084 23.6785 82.6871C24.7114 85.0272 25.9483 87.1305 27.3936 89.1726L29.6461 87.9149C28.8475 85.7327 28.062 83.4847 27.4717 81.3156C27.1896 80.2376 26.9422 79.1465 26.8728 78.2087C26.8381 77.7486 26.8641 77.3191 26.9249 77.122L27.1115 76.4384L27.3545 75.6277C28.0359 73.4323 28.8128 71.1755 29.581 68.9363C30.3449 66.6927 31.1174 64.4272 31.8552 62.1792L26.9552 60.4439V60.4395Z" fill="#2F3941" fill-opacity="0.15"/>
<path d="M45.6958 46.8815C45.6394 47.1532 45.7349 47.4117 45.9085 47.4555C46.0821 47.4994 46.2731 47.3153 46.3295 47.0436C46.3859 46.7719 46.2904 46.5134 46.1168 46.4696C45.9432 46.4258 45.7522 46.6098 45.6958 46.8815Z" fill="#263238"/>
<path d="M45.7133 47.4073C45.7133 47.4073 45.991 49.1383 46.5032 50.0716C45.9346 50.4003 45.1708 49.9884 45.1708 49.9884L45.7133 47.4073Z" fill="#6B6F77"/>
<path d="M46.4119 45.2251C46.4639 45.2251 46.5117 45.1988 46.5464 45.155C46.5985 45.0805 46.5811 44.9797 46.5073 44.9271C46.4813 44.9096 45.8563 44.4758 45.036 44.8176C44.9536 44.8526 44.9145 44.949 44.9492 45.0323C44.984 45.1155 45.0794 45.155 45.1619 45.1199C45.8173 44.8482 46.3164 45.1944 46.3207 45.1988C46.3511 45.2207 46.3815 45.2295 46.4119 45.2295V45.2251Z" fill="#263238"/>
<path d="M36.3949 47.7491C36.091 50.9305 36.5381 54.0111 35.835 56.7761C35.835 56.7761 36.6162 59.344 41.2731 59.344C46.3945 59.344 43.6211 56.7761 43.6211 56.7761C40.8001 56.1013 40.7914 54.0067 41.2037 52.0435L36.3905 47.7491H36.3949Z" fill="#E6EBEE"/>
<path d="M36.3949 47.7491C36.091 50.9305 36.5381 54.0111 35.835 56.7761C35.835 56.7761 36.6162 59.344 41.2731 59.344C46.3945 59.344 43.6211 56.7761 43.6211 56.7761C40.8001 56.1013 40.7914 54.0067 41.2037 52.0435L36.3905 47.7491H36.3949Z" fill="url(#paint5_linear_1_27937)" fill-opacity="0.8"/>
<path d="M36.3949 47.7491C36.091 50.9305 36.5381 54.0111 35.835 56.7761C35.835 56.7761 36.6162 59.344 41.2731 59.344C46.3945 59.344 43.6211 56.7761 43.6211 56.7761C40.8001 56.1013 40.7914 54.0067 41.2037 52.0435L36.3905 47.7491H36.3949Z" fill="#2F3941" fill-opacity="0.15"/>
<path d="M34.8412 57.6569C34.4419 56.8463 34.1772 55.6938 35.0018 55.4046C35.9089 55.0847 40.7568 54.9795 42.5145 55.5799C44.2723 56.1802 43.8426 57.8278 43.8426 57.8278L34.8369 57.6569H34.8412Z" fill="#206E6A"/>
<path d="M24.3772 173.062C24.0386 172.983 23.6914 172.826 23.4571 172.703C23.4267 172.685 23.405 172.655 23.4093 172.615C23.4137 172.576 23.4354 172.55 23.4701 172.536C23.622 172.484 24.9674 172.037 25.3233 172.339C25.3797 172.387 25.4405 172.475 25.4144 172.62C25.3797 172.817 25.2842 172.957 25.128 173.036C24.9284 173.137 24.6593 173.124 24.3815 173.058L24.3772 173.062ZM23.7348 172.642C24.3251 172.913 24.8068 173.005 25.0455 172.883C25.1497 172.83 25.2148 172.734 25.2365 172.593C25.2495 172.523 25.2278 172.497 25.2061 172.48C25.0238 172.322 24.2773 172.48 23.7348 172.642Z" fill="#C72A1C"/>
<path d="M23.4745 172.712C23.4745 172.712 23.4441 172.699 23.4311 172.686C23.4094 172.664 23.4007 172.629 23.4094 172.598C23.4224 172.554 23.7609 171.515 24.2644 171.266C24.3946 171.2 24.5291 171.191 24.6593 171.239C24.859 171.314 24.885 171.454 24.8807 171.533C24.8633 171.962 23.9432 172.593 23.5179 172.712C23.5049 172.712 23.4875 172.712 23.4745 172.712ZM24.5595 171.397C24.4901 171.38 24.4163 171.388 24.3425 171.428C24.017 171.586 23.7566 172.177 23.6437 172.475C24.0864 172.278 24.6941 171.778 24.7027 171.524C24.7027 171.502 24.7027 171.445 24.5986 171.406C24.5986 171.406 24.5725 171.397 24.5595 171.393V171.397Z" fill="#C72A1C"/>
<path d="M48.0872 175.735C47.74 175.735 47.3668 175.661 47.1064 175.6C47.0716 175.591 47.0456 175.564 47.0413 175.525C47.0369 175.486 47.0499 175.455 47.0803 175.433C47.2149 175.345 48.4258 174.596 48.8381 174.811C48.9032 174.846 48.9813 174.916 48.99 175.065C49.003 175.267 48.9422 175.424 48.8077 175.538C48.6384 175.683 48.3737 175.731 48.0872 175.731V175.735ZM47.3668 175.472C48.0004 175.6 48.4909 175.578 48.6948 175.402C48.786 175.328 48.8251 175.218 48.8164 175.078C48.812 175.008 48.786 174.986 48.76 174.973C48.5429 174.863 47.8572 175.183 47.3668 175.472Z" fill="#C72A1C"/>
<path d="M47.128 175.604C47.128 175.604 47.0933 175.6 47.0803 175.591C47.0542 175.573 47.0369 175.543 47.0412 175.508C47.0412 175.459 47.1324 174.373 47.5707 174.013C47.6835 173.921 47.8094 173.882 47.9483 173.899C48.161 173.926 48.2174 174.057 48.2304 174.136C48.3085 174.557 47.562 175.385 47.1714 175.6C47.1584 175.608 47.1454 175.608 47.128 175.608V175.604ZM47.8832 174.07C47.8094 174.07 47.7443 174.097 47.6792 174.149C47.4014 174.377 47.2799 175.017 47.2365 175.332C47.6228 175.039 48.1002 174.412 48.0525 174.162C48.0525 174.14 48.0394 174.088 47.9223 174.07C47.9223 174.07 47.8962 174.07 47.8832 174.07Z" fill="#C72A1C"/>
<path d="M43.0962 175.468H46.5248L46.5596 167.458H43.1309L43.0962 175.468Z" fill="#E6EBEE"/>
<path d="M43.0962 175.468H46.5248L46.5596 167.458H43.1309L43.0962 175.468Z" fill="url(#paint6_linear_1_27937)" fill-opacity="0.8"/>
<path d="M43.0962 175.468H46.5248L46.5596 167.458H43.1309L43.0962 175.468Z" fill="#2F3941" fill-opacity="0.15"/>
<path d="M19.2297 172.501L22.5282 173.115L24.8936 165.232L21.5951 164.623L19.2297 172.501Z" fill="#E6EBEE"/>
<path d="M19.2297 172.501L22.5282 173.115L24.8936 165.232L21.5951 164.623L19.2297 172.501Z" fill="url(#paint7_linear_1_27937)" fill-opacity="0.8"/>
<path d="M19.2297 172.501L22.5282 173.115L24.8936 165.232L21.5951 164.623L19.2297 172.501Z" fill="#2F3941" fill-opacity="0.15"/>
<path d="M23.1534 172.225L19.4079 171.331C19.2733 171.301 19.1345 171.366 19.078 171.494L17.8324 174.355C17.7022 174.653 17.8889 175.008 18.2013 175.074C19.5121 175.363 20.1631 175.437 21.8123 175.832C22.8236 176.073 24.8938 176.678 26.2913 177.015C27.6584 177.344 28.1489 175.981 27.5977 175.718C25.1412 174.53 24.3252 173.514 23.6482 172.563C23.5267 172.392 23.3487 172.274 23.1491 172.225H23.1534Z" fill="#003A57"/>
<path d="M46.4857 175.065H42.7445C42.6056 175.065 42.4885 175.161 42.4624 175.302L41.9026 178.378C41.8461 178.698 42.0979 179 42.419 178.991C43.7688 178.969 45.7132 178.886 47.4101 178.886C49.3936 178.886 50.101 178.996 52.4273 178.996C53.8335 178.996 54.1677 177.558 53.5774 177.431C50.8736 176.84 49.693 176.774 47.3233 175.332C47.0673 175.174 46.7852 175.065 46.4857 175.065Z" fill="#003A57"/>
<path d="M28.1964 57.6701C24.9977 59.94 24.0386 65.7944 24.0386 65.7944L31.2865 69.506C31.2865 69.506 33.1267 65.9039 33.934 62.2449C34.6979 58.7831 30.4749 56.0531 28.2007 57.6701H28.1964Z" fill="#C72A1C"/>
<path opacity="0.2" d="M31.8205 61.4036L28.9647 68.3097L31.2823 69.506C31.2823 69.506 32.2935 67.5209 33.1572 64.9793L31.8205 61.3992V61.4036Z" fill="black"/>
<path d="M49.5108 72.8626C49.4848 76.7232 49.2548 81.5259 48.6862 87.4855H30.3623C30.1366 84.7686 31.2607 71.9555 28.5351 59.1293C28.3311 58.174 28.9648 57.245 29.9196 57.096C31.0871 56.912 32.6842 56.7017 34.2467 56.6272C36.5817 56.5132 39.9713 56.4387 42.0328 56.6272C43.1569 56.7279 44.255 56.912 45.1577 57.0873C46.7201 57.394 47.9658 58.5728 48.3781 60.1284C48.773 61.6139 49.1766 63.897 49.3806 67.3369C49.4761 68.9232 49.5239 70.7505 49.5108 72.8582V72.8626Z" fill="#C72A1C"/>
<path opacity="0.2" d="M43.7296 65.6016C44.9405 66.4999 47.2581 66.9118 49.3674 67.0959C49.3327 66.5306 49.2893 65.996 49.2416 65.492C48.673 65.1897 48.1262 64.9136 47.6097 64.6594L43.7296 65.6016Z" fill="black"/>
<g opacity="0.2">
<path d="M46.5596 167.458L46.5422 171.91H43.1135L43.1309 167.458H46.5596Z" fill="#E6EBEE"/>
<path d="M46.5596 167.458L46.5422 171.91H43.1135L43.1309 167.458H46.5596Z" fill="url(#paint8_linear_1_27937)" fill-opacity="0.8"/>
<path d="M46.5596 167.458L46.5422 171.91H43.1135L43.1309 167.458H46.5596Z" fill="#2F3941" fill-opacity="0.15"/>
<path d="M21.5953 164.623L24.8938 165.232L23.6699 169.298L20.3714 168.685L21.5953 164.623Z" fill="#E6EBEE"/>
<path d="M21.5953 164.623L24.8938 165.232L23.6699 169.298L20.3714 168.685L21.5953 164.623Z" fill="url(#paint9_linear_1_27937)" fill-opacity="0.8"/>
<path d="M21.5953 164.623L24.8938 165.232L23.6699 169.298L20.3714 168.685L21.5953 164.623Z" fill="#2F3941" fill-opacity="0.15"/>
</g>
<path d="M36.8853 44.0244C36.3818 47.4293 35.9218 49.3924 37.2195 51.5352C39.1769 54.7604 43.5604 54.2609 45.0447 51.1146C46.3858 48.2794 46.9804 43.1874 44.0378 41.0315C41.1429 38.9062 37.3844 40.6196 36.8809 44.0244H36.8853Z" fill="#E6EBEE"/>
<path d="M36.8853 44.0244C36.3818 47.4293 35.9218 49.3924 37.2195 51.5352C39.1769 54.7604 43.5604 54.2609 45.0447 51.1146C46.3858 48.2794 46.9804 43.1874 44.0378 41.0315C41.1429 38.9062 37.3844 40.6196 36.8809 44.0244H36.8853Z" fill="#2F3941" fill-opacity="0.15"/>
<path d="M36.8853 44.0244C36.3818 47.4293 35.9218 49.3924 37.2195 51.5352C39.1769 54.7604 43.5604 54.2609 45.0447 51.1146C46.3858 48.2794 46.9804 43.1874 44.0378 41.0315C41.1429 38.9062 37.3844 40.6196 36.8809 44.0244H36.8853Z" fill="url(#paint10_linear_1_27937)" fill-opacity="0.8"/>
<path d="M43.8904 46.509C45.1577 45.9481 45.0405 43.9236 44.6542 43.0735C46.1255 43.5862 48.2522 43.8754 48.6341 42.368C49.0161 40.8606 47.714 40.3698 48.5126 39.0815C49.3068 37.7931 46.7766 36.3777 45.596 38.1788C44.4155 39.9798 41.499 39.1866 39.6154 37.447C38.2439 36.1806 36.2388 37.8107 37.0374 39.4671C37.0374 39.4671 32.9143 39.1998 33.7345 42.0218C34.5548 44.8438 35.7136 44.949 35.4445 46.956C35.2666 48.3144 35.106 51.0795 36.7205 51.4695C38.6736 51.9384 43.5432 50.1943 43.8904 46.5046V46.509Z" fill="#101030"/>
<g opacity="0.2">
<path d="M43.9163 50.1987C44.2896 50.4704 44.6759 50.7596 45.0708 51.0663C45.0621 51.0839 45.0578 51.097 45.0491 51.1145C44.6411 51.9778 44.0118 52.6439 43.274 53.0908C43.0266 52.8498 42.8921 52.0392 42.4277 52.0523C41.0519 52.0874 38.3914 51.5089 37.9487 49.9402L43.912 50.1987H43.9163Z" fill="#E6EBEE"/>
<path d="M43.9163 50.1987C44.2896 50.4704 44.6759 50.7596 45.0708 51.0663C45.0621 51.0839 45.0578 51.097 45.0491 51.1145C44.6411 51.9778 44.0118 52.6439 43.274 53.0908C43.0266 52.8498 42.8921 52.0392 42.4277 52.0523C41.0519 52.0874 38.3914 51.5089 37.9487 49.9402L43.912 50.1987H43.9163Z" fill="url(#paint11_linear_1_27937)" fill-opacity="0.8"/>
<path d="M43.9163 50.1987C44.2896 50.4704 44.6759 50.7596 45.0708 51.0663C45.0621 51.0839 45.0578 51.097 45.0491 51.1145C44.6411 51.9778 44.0118 52.6439 43.274 53.0908C43.0266 52.8498 42.8921 52.0392 42.4277 52.0523C41.0519 52.0874 38.3914 51.5089 37.9487 49.9402L43.912 50.1987H43.9163Z" fill="#2F3941" fill-opacity="0.15"/>
</g>
<path d="M42.8488 46.4608C42.7533 47.3329 42.9139 48.1523 43.1743 48.6869C43.5692 49.4888 44.1812 48.9761 44.4242 47.9902C44.6413 47.1006 44.6977 45.6151 44.1335 45.1769C43.5779 44.7474 42.9573 45.4617 42.8488 46.4608Z" fill="#E6EBEE"/>
<path d="M42.8488 46.4608C42.7533 47.3329 42.9139 48.1523 43.1743 48.6869C43.5692 49.4888 44.1812 48.9761 44.4242 47.9902C44.6413 47.1006 44.6977 45.6151 44.1335 45.1769C43.5779 44.7474 42.9573 45.4617 42.8488 46.4608Z" fill="url(#paint12_linear_1_27937)" fill-opacity="0.8"/>
<path d="M42.8488 46.4608C42.7533 47.3329 42.9139 48.1523 43.1743 48.6869C43.5692 49.4888 44.1812 48.9761 44.4242 47.9902C44.6413 47.1006 44.6977 45.6151 44.1335 45.1769C43.5779 44.7474 42.9573 45.4617 42.8488 46.4608Z" fill="#2F3941" fill-opacity="0.15"/>
<path d="M42.1846 87.4855C42.1846 87.4855 39.3071 113.918 37.5537 123.821C35.631 134.667 25.6748 168.702 25.6748 168.702L19.5379 167.383C19.5379 167.383 26.3909 135.539 27.3154 124.803C28.3179 113.151 30.3621 87.4855 30.3621 87.4855H42.1846Z" fill="#407BFF"/>
<path d="M42.1846 87.4855C42.1846 87.4855 39.3071 113.918 37.5537 123.821C35.631 134.667 25.6748 168.702 25.6748 168.702L19.5379 167.383C19.5379 167.383 26.3909 135.539 27.3154 124.803C27.949 117.418 28.9646 104.979 30.3621 87.4855H42.1846Z" fill="#206E6A"/>
<path d="M27.0464 166.612C27.0724 166.616 26.0004 168.873 26.0004 168.873L19.0953 167.388L19.5901 165.275L27.0464 166.612Z" fill="#0C4D5E"/>
<path opacity="0.2" d="M40.0884 96.9025C35.6268 97.792 36.7509 114.72 37.6232 123.423C38.6822 117.27 40.1275 105.43 41.104 97.0252C40.8002 96.8762 40.4617 96.828 40.0884 96.9025Z" fill="black"/>
<path d="M48.6862 87.4855C48.6862 87.4855 50.1488 113.344 50.1792 123.891C50.2095 134.864 47.7878 170.784 47.7878 170.784H41.985C41.985 170.784 40.4226 135.504 39.7542 124.728C39.0251 112.98 36.6424 87.4811 36.6424 87.4811H48.6862V87.4855Z" fill="#407BFF"/>
<path d="M48.6862 87.4855C48.6862 87.4855 50.1488 113.344 50.1792 123.891C50.2095 134.864 47.7878 170.784 47.7878 170.784H41.985C41.985 170.784 40.4226 135.504 39.7542 124.728C39.0251 112.98 36.6424 87.4811 36.6424 87.4811H48.6862V87.4855Z" fill="#206E6A"/>
<path d="M48.8119 168.452C48.8379 168.452 48.5775 170.884 48.5775 170.884H41.5162L41.2427 168.715L48.8119 168.452Z" fill="#0C4D5E"/>
<path d="M41.4251 63.0951C42.1195 63.1652 42.7054 63.2002 43.3391 63.2177C43.964 63.2397 44.5847 63.2484 45.2097 63.244C46.4553 63.2309 47.7052 63.1652 48.9638 63.0249C50.2225 62.8891 51.4854 62.6831 52.7571 62.3676C54.0287 62.0565 55.3134 61.6271 56.5851 60.9961L56.7283 60.9259C57.8524 60.3694 58.3124 58.9978 57.7612 57.8673C57.7005 57.7446 57.6224 57.6175 57.5442 57.5123C56.9496 56.706 56.3767 56.1451 55.7865 55.6149C55.2006 55.0891 54.6147 54.6202 54.0244 54.1732C52.8439 53.2749 51.6373 52.4817 50.4265 51.7105C49.2069 50.948 47.9786 50.2294 46.733 49.5414C45.4787 48.8666 44.2331 48.2005 42.9311 47.587C42.2844 47.2846 41.5162 47.5695 41.2124 48.2224C40.952 48.7877 41.1256 49.445 41.5987 49.8087L41.6117 49.8219C42.7054 50.6676 43.8252 51.5046 44.9145 52.3634C46.0126 53.2136 47.1019 54.068 48.1653 54.9357C49.2329 55.7946 50.2746 56.6797 51.2598 57.5693C51.7502 58.0163 52.2233 58.4676 52.6443 58.9233C53.0609 59.3703 53.4559 59.8348 53.6685 60.1854L54.632 56.6973C53.7466 57.0435 52.7528 57.2932 51.7155 57.4817C50.6738 57.6657 49.5932 57.784 48.4995 57.8585C47.4014 57.9286 46.2903 57.9637 45.1749 57.9681C44.6151 57.9681 44.0552 57.9681 43.4997 57.9505C42.9528 57.9286 42.3625 57.9111 41.8764 57.8848H41.8157C40.3835 57.8015 39.1595 58.9058 39.0771 60.3519C38.999 61.7585 40.0406 62.968 41.4164 63.1082L41.4251 63.0951Z" fill="#E6EBEE"/>
<path d="M41.4251 63.0951C42.1195 63.1652 42.7054 63.2002 43.3391 63.2177C43.964 63.2397 44.5847 63.2484 45.2097 63.244C46.4553 63.2309 47.7052 63.1652 48.9638 63.0249C50.2225 62.8891 51.4854 62.6831 52.7571 62.3676C54.0287 62.0565 55.3134 61.6271 56.5851 60.9961L56.7283 60.9259C57.8524 60.3694 58.3124 58.9978 57.7612 57.8673C57.7005 57.7446 57.6224 57.6175 57.5442 57.5123C56.9496 56.706 56.3767 56.1451 55.7865 55.6149C55.2006 55.0891 54.6147 54.6202 54.0244 54.1732C52.8439 53.2749 51.6373 52.4817 50.4265 51.7105C49.2069 50.948 47.9786 50.2294 46.733 49.5414C45.4787 48.8666 44.2331 48.2005 42.9311 47.587C42.2844 47.2846 41.5162 47.5695 41.2124 48.2224C40.952 48.7877 41.1256 49.445 41.5987 49.8087L41.6117 49.8219C42.7054 50.6676 43.8252 51.5046 44.9145 52.3634C46.0126 53.2136 47.1019 54.068 48.1653 54.9357C49.2329 55.7946 50.2746 56.6797 51.2598 57.5693C51.7502 58.0163 52.2233 58.4676 52.6443 58.9233C53.0609 59.3703 53.4559 59.8348 53.6685 60.1854L54.632 56.6973C53.7466 57.0435 52.7528 57.2932 51.7155 57.4817C50.6738 57.6657 49.5932 57.784 48.4995 57.8585C47.4014 57.9286 46.2903 57.9637 45.1749 57.9681C44.6151 57.9681 44.0552 57.9681 43.4997 57.9505C42.9528 57.9286 42.3625 57.9111 41.8764 57.8848H41.8157C40.3835 57.8015 39.1595 58.9058 39.0771 60.3519C38.999 61.7585 40.0406 62.968 41.4164 63.1082L41.4251 63.0951Z" fill="#2F3941" fill-opacity="0.15"/>
<path d="M41.4251 63.0951C42.1195 63.1652 42.7054 63.2002 43.3391 63.2177C43.964 63.2397 44.5847 63.2484 45.2097 63.244C46.4553 63.2309 47.7052 63.1652 48.9638 63.0249C50.2225 62.8891 51.4854 62.6831 52.7571 62.3676C54.0287 62.0565 55.3134 61.6271 56.5851 60.9961L56.7283 60.9259C57.8524 60.3694 58.3124 58.9978 57.7612 57.8673C57.7005 57.7446 57.6224 57.6175 57.5442 57.5123C56.9496 56.706 56.3767 56.1451 55.7865 55.6149C55.2006 55.0891 54.6147 54.6202 54.0244 54.1732C52.8439 53.2749 51.6373 52.4817 50.4265 51.7105C49.2069 50.948 47.9786 50.2294 46.733 49.5414C45.4787 48.8666 44.2331 48.2005 42.9311 47.587C42.2844 47.2846 41.5162 47.5695 41.2124 48.2224C40.952 48.7877 41.1256 49.445 41.5987 49.8087L41.6117 49.8219C42.7054 50.6676 43.8252 51.5046 44.9145 52.3634C46.0126 53.2136 47.1019 54.068 48.1653 54.9357C49.2329 55.7946 50.2746 56.6797 51.2598 57.5693C51.7502 58.0163 52.2233 58.4676 52.6443 58.9233C53.0609 59.3703 53.4559 59.8348 53.6685 60.1854L54.632 56.6973C53.7466 57.0435 52.7528 57.2932 51.7155 57.4817C50.6738 57.6657 49.5932 57.784 48.4995 57.8585C47.4014 57.9286 46.2903 57.9637 45.1749 57.9681C44.6151 57.9681 44.0552 57.9681 43.4997 57.9505C42.9528 57.9286 42.3625 57.9111 41.8764 57.8848H41.8157C40.3835 57.8015 39.1595 58.9058 39.0771 60.3519C38.999 61.7585 40.0406 62.968 41.4164 63.1082L41.4251 63.0951Z" fill="url(#paint13_linear_1_27937)" fill-opacity="0.8"/>
<path d="M38.9947 46.8727L41.1734 47.3591C41.1734 47.3591 44.0769 46.9954 44.741 49.204L43.0223 50.6851L40.3661 51.1102C39.9451 51.1759 39.5155 51.1102 39.1335 50.9086L38.4565 50.5536C38.144 50.3915 37.9357 50.0804 37.9053 49.7254L37.7447 47.9858C37.6796 47.2846 38.3133 46.7194 38.9947 46.8727Z" fill="#BABFC3"/>
<path d="M43.2305 65.6542C46.8806 66.6752 51.0427 65.4 51.0427 65.4L49.5107 57.1486C49.5107 57.1486 45.8823 56.8287 43.6211 56.7805C37.7924 56.6578 36.6509 63.8137 43.2305 65.6585V65.6542Z" fill="#C72A1C"/>
</g>
<defs>
<linearGradient id="paint0_linear_1_27937" x1="36" y1="0" x2="150.568" y2="1.88267" gradientUnits="userSpaceOnUse">
<stop stop-color="#001825"/>
<stop offset="1" stop-color="#003A57"/>
</linearGradient>
<linearGradient id="paint1_linear_1_27937" x1="120.985" y1="55.3138" x2="119.074" y2="55.4514" gradientUnits="userSpaceOnUse">
<stop stop-color="white" stop-opacity="0"/>
<stop offset="1" stop-color="white" stop-opacity="0.8"/>
</linearGradient>
<linearGradient id="paint2_linear_1_27937" x1="118.84" y1="82.7265" x2="116.929" y2="82.8641" gradientUnits="userSpaceOnUse">
<stop stop-color="white" stop-opacity="0"/>
<stop offset="1" stop-color="white" stop-opacity="0.8"/>
</linearGradient>
<linearGradient id="paint3_linear_1_27937" x1="52.9785" y1="8.37788" x2="51.0668" y2="8.51541" gradientUnits="userSpaceOnUse">
<stop stop-color="white" stop-opacity="0"/>
<stop offset="1" stop-color="white" stop-opacity="0.8"/>
</linearGradient>
<linearGradient id="paint4_linear_1_27937" x1="27.0564" y1="60.4395" x2="27.0564" y2="89.1726" gradientUnits="userSpaceOnUse">
<stop offset="0.244792" stop-color="#323444"/>
<stop offset="0.723958" stop-color="#2F3941" stop-opacity="0.2917"/>
<stop offset="0.994792" stop-color="#2F3941" stop-opacity="0"/>
</linearGradient>
<linearGradient id="paint5_linear_1_27937" x1="40.1029" y1="47.7491" x2="40.1029" y2="59.344" gradientUnits="userSpaceOnUse">
<stop offset="0.244792" stop-color="#323444"/>
<stop offset="0.723958" stop-color="#2F3941" stop-opacity="0.2917"/>
<stop offset="0.994792" stop-color="#2F3941" stop-opacity="0"/>
</linearGradient>
<linearGradient id="paint6_linear_1_27937" x1="44.8279" y1="167.458" x2="44.8279" y2="175.468" gradientUnits="userSpaceOnUse">
<stop offset="0.244792" stop-color="#323444"/>
<stop offset="0.723958" stop-color="#2F3941" stop-opacity="0.2917"/>
<stop offset="0.994792" stop-color="#2F3941" stop-opacity="0"/>
</linearGradient>
<linearGradient id="paint7_linear_1_27937" x1="22.0616" y1="164.623" x2="22.0616" y2="173.115" gradientUnits="userSpaceOnUse">
<stop offset="0.244792" stop-color="#323444"/>
<stop offset="0.723958" stop-color="#2F3941" stop-opacity="0.2917"/>
<stop offset="0.994792" stop-color="#2F3941" stop-opacity="0"/>
</linearGradient>
<linearGradient id="paint8_linear_1_27937" x1="44.8365" y1="167.458" x2="44.8365" y2="171.91" gradientUnits="userSpaceOnUse">
<stop offset="0.244792" stop-color="#323444"/>
<stop offset="0.723958" stop-color="#2F3941" stop-opacity="0.2917"/>
<stop offset="0.994792" stop-color="#2F3941" stop-opacity="0"/>
</linearGradient>
<linearGradient id="paint9_linear_1_27937" x1="22.6326" y1="164.623" x2="22.6326" y2="169.298" gradientUnits="userSpaceOnUse">
<stop offset="0.244792" stop-color="#323444"/>
<stop offset="0.723958" stop-color="#2F3941" stop-opacity="0.2917"/>
<stop offset="0.994792" stop-color="#2F3941" stop-opacity="0"/>
</linearGradient>
<linearGradient id="paint10_linear_1_27937" x1="41.2637" y1="40.0971" x2="41.2637" y2="53.7266" gradientUnits="userSpaceOnUse">
<stop stop-color="#2F3941" stop-opacity="0"/>
<stop offset="0.265625" stop-color="#2F3941" stop-opacity="0.2917"/>
<stop offset="0.78125" stop-color="#323244"/>
</linearGradient>
<linearGradient id="paint11_linear_1_27937" x1="41.5097" y1="49.9402" x2="41.5097" y2="53.0908" gradientUnits="userSpaceOnUse">
<stop offset="0.244792" stop-color="#323444"/>
<stop offset="0.723958" stop-color="#2F3941" stop-opacity="0.2917"/>
<stop offset="0.994792" stop-color="#2F3941" stop-opacity="0"/>
</linearGradient>
<linearGradient id="paint12_linear_1_27937" x1="43.6998" y1="45.0496" x2="43.6998" y2="49.082" gradientUnits="userSpaceOnUse">
<stop offset="0.244792" stop-color="#323444"/>
<stop offset="0.723958" stop-color="#2F3941" stop-opacity="0.2917"/>
<stop offset="0.994792" stop-color="#2F3941" stop-opacity="0"/>
</linearGradient>
<linearGradient id="paint13_linear_1_27937" x1="48.5336" y1="47.4662" x2="48.5336" y2="63.2451" gradientUnits="userSpaceOnUse">
<stop stop-color="#2F3941" stop-opacity="0"/>
<stop offset="0.265625" stop-color="#2F3941" stop-opacity="0.2917"/>
<stop offset="0.78125" stop-color="#323244"/>
</linearGradient>
<clipPath id="clip0_1_27937">
<rect width="44" height="142" fill="white" transform="matrix(-1 0 0 1 58 37)"/>
</clipPath>
</defs>
</svg>
