<svg width="525" height="654" viewBox="0 0 525 654" fill="none" xmlns="http://www.w3.org/2000/svg">
<path d="M39.7955 653C39.7955 653 39.7955 565.646 142.45 534.898C245.105 504.128 220.676 343.911 348.994 368.569C477.312 393.226 414.983 557.133 465.098 592.862C515.213 628.614 504.211 653 504.211 653H39.7955Z" fill="#E6E6E6"/>
<g clip-path="url(#clip0_4_29393)">
<path d="M454.974 651.839L497.991 413.177C475.489 409.27 454.919 614.725 454.919 614.725C454.919 614.725 469.822 370 447.025 370C447.007 370 446.989 370 446.97 370L451.883 651.784L454.974 651.839Z" fill="#1466A9" fill-opacity="0.35"/>
<path d="M463.529 651.986L518.487 494.629C504.247 493.929 485.829 555.46 477.255 587.359C474.366 598.877 472.471 606.027 472.471 606.027C472.471 606.027 474.274 598.508 477.255 587.359C488.791 541.271 516.022 424.897 499.739 413.859L456.851 651.857L463.548 651.968L463.529 651.986Z" fill="#1466A9" fill-opacity="0.35"/>
<path d="M477.237 587.378C474.238 598.508 472.453 606.045 472.453 606.045C472.453 606.045 474.366 598.895 477.237 587.378Z" fill="#A0ABE9"/>
<path d="M471.57 652.134C471.57 652.134 539.959 505.686 520.677 495.256C520.548 495.182 520.401 495.145 520.272 495.09L465.461 652.042L471.57 652.152V652.134Z" fill="#1466A9" fill-opacity="0.35"/>
<path d="M442.647 651.618L445.83 651.673L388.185 444.726C370.191 451.968 442.647 651.618 442.647 651.618Z" fill="#1466A9" fill-opacity="0.35"/>
<path d="M450.043 651.747L445.13 370.627C425.278 384.079 442.628 614.725 442.628 614.725C442.628 614.725 408.866 449.02 390.025 444.597L447.725 651.728L450.025 651.765L450.043 651.747Z" fill="#1466A9" fill-opacity="0.35"/>
<path d="M447.743 651.71L390.044 444.578C389.436 444.431 388.848 444.449 388.277 444.652C388.241 444.652 388.204 444.689 388.167 444.707L445.811 651.655L447.725 651.692L447.743 651.71Z" fill="#C2C8CC"/>
<path d="M451.883 651.784L446.97 370C446.326 370 445.719 370.221 445.149 370.627L450.043 651.747L451.883 651.784Z" fill="#C2C8CC"/>
<path d="M456.832 651.876L499.72 413.877C499.408 413.675 499.095 413.49 498.745 413.361C498.488 413.269 498.23 413.214 497.972 413.177L454.955 651.839L456.814 651.876H456.832Z" fill="#C2C8CC"/>
<path d="M465.461 652.023L520.272 495.071C519.683 494.813 519.076 494.666 518.469 494.629L463.511 651.986L465.443 652.023H465.461Z" fill="#C2C8CC"/>
<path d="M374.956 622.096C375.564 625.045 375.987 626.648 375.987 626.648C375.987 626.648 375.674 624.989 374.956 622.096Z" fill="#637ABE"/>
</g>
<path d="M27.2047 127.24C25.8358 153.857 77.1166 171.95 179.062 207.919C299.056 250.261 450.482 303.689 502.118 247.02C540.122 205.311 518.943 109.566 466.619 58.8356C341.96 -62.0159 30.5155 62.912 27.2047 127.24Z" fill="url(#paint0_linear_4_29393)"/>
<path d="M496.64 231.961C496.802 231.835 496.787 231.651 496.753 231.195C496.694 230.379 496.634 229.562 496.604 228.744C496.6 228.615 496.719 228.422 496.838 228.344C497.545 227.883 498.279 227.461 498.981 226.992C499.199 226.848 499.332 226.805 499.562 226.933C500.481 227.443 501.417 227.929 502.336 228.418C503.108 227.778 504.573 225.808 504.857 225.012C504.082 224.39 503.301 223.742 502.493 223.127C502.242 222.935 502.199 222.793 502.306 222.47C502.555 221.72 502.735 220.949 502.898 220.18C502.964 219.869 503.044 219.68 503.401 219.585C504.326 219.34 505.24 219.042 506.162 218.781C506.409 218.712 506.529 218.599 506.492 218.355C506.314 217.208 506.135 216.062 505.956 214.915C505.912 214.633 505.682 214.705 505.501 214.723C504.582 214.812 503.662 214.898 502.745 215.017C502.402 215.062 502.233 214.971 502.073 214.678C501.645 213.906 501.165 213.164 500.67 212.351L502.456 209.383C501.474 208.452 500.352 207.735 499.061 207.175L496.795 209.746C495.714 209.569 494.718 209.383 493.712 209.255C493.42 209.218 493.325 209.12 493.264 208.87C493.05 208.003 492.807 207.144 492.587 206.28C492.539 206.093 492.483 205.967 492.245 205.981C491.041 206.056 489.853 206.227 488.697 206.646C488.439 206.739 488.385 206.869 488.399 207.1C488.453 208.024 488.488 208.951 488.546 209.875C488.56 210.098 488.516 210.218 488.288 210.357C487.495 210.839 486.72 211.354 485.96 211.887C485.765 212.023 485.653 212.002 485.485 211.913C484.553 211.422 483.617 210.939 482.658 210.439C481.671 211.453 480.825 212.534 480.179 213.789L482.825 215.93L481.982 219.232C481.175 219.474 480.245 219.745 479.319 220.031C478.559 220.267 478.602 220.125 478.644 220.935C478.648 221.012 478.625 221.092 478.611 221.171L478.947 223.229C479.001 223.375 479.08 223.516 479.103 223.669C479.161 224.064 479.34 224.212 479.792 224.148C480.735 224.015 481.683 223.938 482.63 223.86C482.754 223.85 482.932 223.935 483 224.033C483.445 224.674 483.831 225.357 484.309 225.971C484.543 226.272 484.518 226.462 484.326 226.77C483.78 227.642 483.27 228.534 482.693 229.506L486.037 231.732C486.216 231.536 486.321 231.425 486.42 231.311C487.042 230.606 487.67 229.905 488.28 229.189C488.453 228.986 488.599 228.968 488.849 229.018C489.709 229.186 490.582 229.3 491.443 229.463C491.576 229.488 491.738 229.637 491.776 229.765C491.984 230.466 492.152 231.18 492.346 231.886C492.503 232.457 492.563 232.668 492.826 232.739L496.64 231.961ZM494.202 227.375C492.257 227.856 490.236 227.678 488.483 226.871C486.731 226.065 485.355 224.679 484.591 222.95C483.827 221.222 483.722 219.257 484.293 217.392C484.865 215.526 486.078 213.875 487.725 212.719C489.372 211.563 491.352 210.975 493.328 211.054C495.303 211.133 497.152 211.874 498.559 213.152C499.965 214.429 500.843 216.164 501.042 218.061C501.242 219.957 500.75 221.898 499.652 223.552C499.031 224.493 498.229 225.315 497.294 225.971C496.358 226.628 495.308 227.105 494.202 227.375Z" fill="#C57F12"/>
<g style="mix-blend-mode:hard-light" opacity="0.6">
<path d="M386.964 138.128L388.951 132.774L394.394 134.382L392.407 139.736L386.964 138.128Z" fill="#E6EBEE"/>
<path d="M386.964 138.128L388.951 132.774L394.394 134.382L392.407 139.736L386.964 138.128Z" fill="url(#paint1_linear_4_29393)"/>
</g>
<g style="mix-blend-mode:hard-light" opacity="0.6">
<path d="M439.38 229.996L441.367 224.643L446.81 226.25L444.823 231.604L439.38 229.996Z" fill="#E6EBEE"/>
<path d="M439.38 229.996L441.367 224.643L446.81 226.25L444.823 231.604L439.38 229.996Z" fill="url(#paint2_linear_4_29393)"/>
</g>
<g style="mix-blend-mode:hard-light" opacity="0.6">
<path d="M77.2784 104.597L79.2652 99.2437L84.7083 100.852L82.7215 106.205L77.2784 104.597Z" fill="#E6EBEE"/>
<path d="M77.2784 104.597L79.2652 99.2437L84.7083 100.852L82.7215 106.205L77.2784 104.597Z" fill="url(#paint3_linear_4_29393)"/>
</g>
<path d="M0.0991211 652.5H490.599" stroke="#6C757D"/>
<g style="mix-blend-mode:multiply" opacity="0.5">
<path fill-rule="evenodd" clip-rule="evenodd" d="M407.055 627.367C407.441 627.484 407.798 627.684 408.101 627.952C408.404 628.221 408.647 628.551 408.813 628.922C408.979 629.292 409.065 629.694 409.064 630.101C409.063 630.508 408.976 630.91 408.809 631.28C407.985 633.246 406.06 632.958 404.348 632.628C399.165 631.867 393.903 631.832 388.711 632.522C377.733 633.801 367.436 637.371 356.821 639.87C346.395 642.773 335.363 642.602 325.03 639.377C315.179 635.965 305.774 631.456 295.897 627.959C287.226 624.923 278.133 621.694 268.785 623.488C259.86 625.178 252.072 630.463 243.741 633.92C226.62 640.751 208.089 643.204 189.8 641.062C181.226 640.463 172.768 638.73 164.642 635.909C159.987 634.155 153.703 631.817 150.907 627.303C149.628 625.216 149.528 621.903 151.984 620.611C154.439 619.319 157.428 621.118 159.629 621.873C169.177 625.042 179.087 626.973 189.119 627.618C198.811 628.582 208.586 628.238 218.188 626.596C226.974 624.746 235.466 621.686 243.425 617.503C251.688 613.357 260.005 609.011 269.307 608.055C278.609 607.098 287.85 609.985 296.546 613.563C305.75 617.241 314.552 621.634 323.347 626.076C331.489 630.554 340.712 632.646 349.971 632.114C369.09 630.939 387.808 623.679 407.055 627.367Z" fill="#E6EBEE"/>
<path fill-rule="evenodd" clip-rule="evenodd" d="M407.055 627.367C407.441 627.484 407.798 627.684 408.101 627.952C408.404 628.221 408.647 628.551 408.813 628.922C408.979 629.292 409.065 629.694 409.064 630.101C409.063 630.508 408.976 630.91 408.809 631.28C407.985 633.246 406.06 632.958 404.348 632.628C399.165 631.867 393.903 631.832 388.711 632.522C377.733 633.801 367.436 637.371 356.821 639.87C346.395 642.773 335.363 642.602 325.03 639.377C315.179 635.965 305.774 631.456 295.897 627.959C287.226 624.923 278.133 621.694 268.785 623.488C259.86 625.178 252.072 630.463 243.741 633.92C226.62 640.751 208.089 643.204 189.8 641.062C181.226 640.463 172.768 638.73 164.642 635.909C159.987 634.155 153.703 631.817 150.907 627.303C149.628 625.216 149.528 621.903 151.984 620.611C154.439 619.319 157.428 621.118 159.629 621.873C169.177 625.042 179.087 626.973 189.119 627.618C198.811 628.582 208.586 628.238 218.188 626.596C226.974 624.746 235.466 621.686 243.425 617.503C251.688 613.357 260.005 609.011 269.307 608.055C278.609 607.098 287.85 609.985 296.546 613.563C305.75 617.241 314.552 621.634 323.347 626.076C331.489 630.554 340.712 632.646 349.971 632.114C369.09 630.939 387.808 623.679 407.055 627.367Z" fill="url(#paint4_linear_4_29393)" fill-opacity="0.8" style="mix-blend-mode:color-burn"/>
<path fill-rule="evenodd" clip-rule="evenodd" d="M407.055 627.367C407.441 627.484 407.798 627.684 408.101 627.952C408.404 628.221 408.647 628.551 408.813 628.922C408.979 629.292 409.065 629.694 409.064 630.101C409.063 630.508 408.976 630.91 408.809 631.28C407.985 633.246 406.06 632.958 404.348 632.628C399.165 631.867 393.903 631.832 388.711 632.522C377.733 633.801 367.436 637.371 356.821 639.87C346.395 642.773 335.363 642.602 325.03 639.377C315.179 635.965 305.774 631.456 295.897 627.959C287.226 624.923 278.133 621.694 268.785 623.488C259.86 625.178 252.072 630.463 243.741 633.92C226.62 640.751 208.089 643.204 189.8 641.062C181.226 640.463 172.768 638.73 164.642 635.909C159.987 634.155 153.703 631.817 150.907 627.303C149.628 625.216 149.528 621.903 151.984 620.611C154.439 619.319 157.428 621.118 159.629 621.873C169.177 625.042 179.087 626.973 189.119 627.618C198.811 628.582 208.586 628.238 218.188 626.596C226.974 624.746 235.466 621.686 243.425 617.503C251.688 613.357 260.005 609.011 269.307 608.055C278.609 607.098 287.85 609.985 296.546 613.563C305.75 617.241 314.552 621.634 323.347 626.076C331.489 630.554 340.712 632.646 349.971 632.114C369.09 630.939 387.808 623.679 407.055 627.367Z" fill="#2F3941" fill-opacity="0.15" style="mix-blend-mode:multiply"/>
</g>
<g style="mix-blend-mode:multiply" opacity="0.5">
<path fill-rule="evenodd" clip-rule="evenodd" d="M361.84 588.519C362.072 588.59 362.287 588.71 362.469 588.871C362.651 589.033 362.798 589.231 362.898 589.454C362.998 589.677 363.049 589.919 363.049 590.163C363.048 590.408 362.996 590.649 362.895 590.872C362.4 592.054 361.241 591.881 360.211 591.682C357.092 591.225 353.925 591.204 350.8 591.619C344.194 592.388 337.997 594.535 331.609 596.037C325.335 597.782 318.696 597.68 312.478 595.741C306.549 593.689 300.889 590.978 294.946 588.875C289.727 587.05 284.255 585.108 278.63 586.187C273.259 587.203 268.572 590.381 263.558 592.46C253.255 596.567 242.103 598.042 231.097 596.754C225.938 596.394 220.847 595.352 215.957 593.655C213.156 592.601 209.374 591.195 207.692 588.481C206.922 587.226 206.862 585.234 208.34 584.457C209.817 583.68 211.616 584.762 212.94 585.216C218.686 587.122 224.65 588.282 230.687 588.67C236.52 589.25 242.403 589.043 248.181 588.056C253.468 586.943 258.579 585.103 263.368 582.588C268.341 580.095 273.346 577.482 278.944 576.907C284.542 576.332 290.103 578.068 295.336 580.22C300.875 582.43 306.172 585.072 311.465 587.743C316.365 590.436 321.915 591.693 327.487 591.374C338.993 590.667 350.257 586.302 361.84 588.519Z" fill="#E6EBEE"/>
<path fill-rule="evenodd" clip-rule="evenodd" d="M361.84 588.519C362.072 588.59 362.287 588.71 362.469 588.871C362.651 589.033 362.798 589.231 362.898 589.454C362.998 589.677 363.049 589.919 363.049 590.163C363.048 590.408 362.996 590.649 362.895 590.872C362.4 592.054 361.241 591.881 360.211 591.682C357.092 591.225 353.925 591.204 350.8 591.619C344.194 592.388 337.997 594.535 331.609 596.037C325.335 597.782 318.696 597.68 312.478 595.741C306.549 593.689 300.889 590.978 294.946 588.875C289.727 587.05 284.255 585.108 278.63 586.187C273.259 587.203 268.572 590.381 263.558 592.46C253.255 596.567 242.103 598.042 231.097 596.754C225.938 596.394 220.847 595.352 215.957 593.655C213.156 592.601 209.374 591.195 207.692 588.481C206.922 587.226 206.862 585.234 208.34 584.457C209.817 583.68 211.616 584.762 212.94 585.216C218.686 587.122 224.65 588.282 230.687 588.67C236.52 589.25 242.403 589.043 248.181 588.056C253.468 586.943 258.579 585.103 263.368 582.588C268.341 580.095 273.346 577.482 278.944 576.907C284.542 576.332 290.103 578.068 295.336 580.22C300.875 582.43 306.172 585.072 311.465 587.743C316.365 590.436 321.915 591.693 327.487 591.374C338.993 590.667 350.257 586.302 361.84 588.519Z" fill="url(#paint5_linear_4_29393)" fill-opacity="0.8" style="mix-blend-mode:color-burn"/>
<path fill-rule="evenodd" clip-rule="evenodd" d="M361.84 588.519C362.072 588.59 362.287 588.71 362.469 588.871C362.651 589.033 362.798 589.231 362.898 589.454C362.998 589.677 363.049 589.919 363.049 590.163C363.048 590.408 362.996 590.649 362.895 590.872C362.4 592.054 361.241 591.881 360.211 591.682C357.092 591.225 353.925 591.204 350.8 591.619C344.194 592.388 337.997 594.535 331.609 596.037C325.335 597.782 318.696 597.68 312.478 595.741C306.549 593.689 300.889 590.978 294.946 588.875C289.727 587.05 284.255 585.108 278.63 586.187C273.259 587.203 268.572 590.381 263.558 592.46C253.255 596.567 242.103 598.042 231.097 596.754C225.938 596.394 220.847 595.352 215.957 593.655C213.156 592.601 209.374 591.195 207.692 588.481C206.922 587.226 206.862 585.234 208.34 584.457C209.817 583.68 211.616 584.762 212.94 585.216C218.686 587.122 224.65 588.282 230.687 588.67C236.52 589.25 242.403 589.043 248.181 588.056C253.468 586.943 258.579 585.103 263.368 582.588C268.341 580.095 273.346 577.482 278.944 576.907C284.542 576.332 290.103 578.068 295.336 580.22C300.875 582.43 306.172 585.072 311.465 587.743C316.365 590.436 321.915 591.693 327.487 591.374C338.993 590.667 350.257 586.302 361.84 588.519Z" fill="#2F3941" fill-opacity="0.15" style="mix-blend-mode:multiply"/>
</g>
<path d="M137.74 416.246L152.114 643.147H137.567L99.7699 453.115L77.5552 643.147H63.9207L63.1563 416.246H137.74Z" fill="#E6EBEE"/>
<path d="M137.74 416.246L152.114 643.147H137.567L99.7699 453.115L77.5552 643.147H63.9207L63.1563 416.246H137.74Z" fill="url(#paint6_linear_4_29393)" fill-opacity="0.8"/>
<path d="M137.74 416.246L152.114 643.147H137.567L99.7699 453.115L77.5552 643.147H63.9207L63.1563 416.246H137.74Z" fill="#2F3941" fill-opacity="0.15"/>
<path d="M221.741 348.993L221.938 350.608L231.53 430.507H46.3904L64.1918 351.627L93.5566 254.834L161.655 267.207L163.086 267.455L164.466 267.157L254.533 248.077L222.259 347.428L221.741 348.993Z" fill="#E3F2F9"/>
<path d="M37.2186 437.885L57.091 349.739L88.4283 246.412L162.938 259.952L265.431 238.214L229.212 349.739L239.789 437.885H37.2186ZM164.466 267.157L163.061 267.455L161.656 267.207L93.5567 254.834L64.1918 351.627L46.3905 430.507H231.53L221.939 350.633L221.741 349.018L222.234 347.453L254.533 248.077L164.491 267.182L164.466 267.157Z" fill="white"/>
<path d="M99.8931 311.603C106.254 311.603 111.432 306.386 111.432 299.976V280.598H88.3543V299.976C88.3543 306.386 93.532 311.603 99.8931 311.603Z" fill="#E6EBEE"/>
<path d="M99.8931 311.603C106.254 311.603 111.432 306.386 111.432 299.976V280.598H88.3543V299.976C88.3543 306.386 93.532 311.603 99.8931 311.603Z" fill="#2F3941" fill-opacity="0.15"/>
<path d="M99.8931 311.603C106.254 311.603 111.432 306.386 111.432 299.976V280.598H88.3543V299.976C88.3543 306.386 93.532 311.603 99.8931 311.603Z" fill="url(#paint7_linear_4_29393)" fill-opacity="0.8"/>
<g style="mix-blend-mode:multiply" opacity="0.7">
<path d="M60.1237 339.801L148.588 345.118L229.212 349.739L239.789 437.885H37.2186L60.1237 339.801Z" fill="#E0EEFB"/>
</g>
<path d="M149.032 312.771C155.22 315.976 160.053 321.019 163.677 327.975C201.894 304.026 233.379 308.796 234.685 309.044L233.28 313.441C232.96 313.392 202.362 307.951 165.255 331.329C166.266 333.64 167.178 336.099 167.943 338.782C177.213 370.707 224.256 374.881 224.725 374.931L225.267 378.657C223.59 378.533 191.218 375.676 173.687 356.322C167.4 361.167 141.783 384.496 157.711 430.532H153.79C137.468 383.303 164.195 358.956 171.345 353.465C168.337 349.54 165.921 345.043 164.417 339.826C160.99 328.025 155.393 320.249 147.306 316.075C135.866 310.137 119.273 311.33 95.1347 319.851L93.9265 316.373C119.075 307.504 136.581 306.386 148.983 312.796L149.032 312.771Z" fill="#4CA4DE"/>
<path d="M227.93 400.52C227.93 400.52 212.865 385.315 196.74 395.849C180.616 406.358 176.621 399.029 169.447 406.259C159.831 415.948 168.806 430.507 168.806 430.507H231.53L227.93 400.52Z" fill="#4CA4DE"/>
<path d="M91.9294 325.839L68.8764 373.539C67.3231 376.769 64.3891 379.104 60.9126 379.875C53.1708 381.614 45.7987 375.278 46.6863 367.328C49.3738 343.13 70.3557 310.46 70.3557 310.46L91.9294 325.839Z" fill="#F3A9B8"/>
<path d="M139.416 413.961C139.416 413.961 139.441 413.514 139.589 412.743" stroke="#2E3154" stroke-width="0.5" stroke-miterlimit="10"/>
<path d="M140.029 410C142.031 402.183 149.325 385.402 174.89 382.969C196.574 380.892 207.23 363.018 190.046 335.058C173.506 308.164 167.547 313.412 167.102 291" stroke="#2E3154" stroke-width="0.5" stroke-miterlimit="10"/>
<path d="M167.129 300.87C167.129 300.473 167.129 300.051 167.129 299.628" stroke="#2E3154" stroke-width="0.5" stroke-miterlimit="10"/>
<path d="M172.513 287.366C172.513 290.323 170.121 292.733 167.187 292.733C164.253 292.733 161.862 290.323 161.862 287.366C161.862 284.41 164.253 282 167.187 282C170.121 282 172.513 284.41 172.513 287.366Z" fill="#A81897"/>
<path d="M108.991 235.332C108.991 235.332 126.127 238.611 126.127 266.486C126.127 294.361 111.013 293.541 100.263 286.585C89.5131 279.604 84.4834 262.387 91.8554 246.412C99.2521 230.413 108.991 235.332 108.991 235.332Z" fill="#E6EBEE"/>
<path d="M108.991 235.332C108.991 235.332 126.127 238.611 126.127 266.486C126.127 294.361 111.013 293.541 100.263 286.585C89.5131 279.604 84.4834 262.387 91.8554 246.412C99.2521 230.413 108.991 235.332 108.991 235.332Z" fill="url(#paint8_linear_4_29393)" fill-opacity="0.8"/>
<path d="M108.991 235.332C108.991 235.332 126.127 238.611 126.127 266.486C126.127 294.361 111.013 293.541 100.263 286.585C89.5131 279.604 84.4834 262.387 91.8554 246.412C99.2521 230.413 108.991 235.332 108.991 235.332Z" fill="#2F3941" fill-opacity="0.15"/>
<path d="M101.52 296.1C101.52 296.1 127.507 294.386 132.143 323.677C135.915 347.577 127.902 357.142 128.568 377.34C128.888 386.98 137.715 404.669 137.715 416.221H63.1316C63.1316 416.221 65.2274 404.172 71.2927 377.34C72.8706 370.359 69.2462 362.037 66.4848 352.745C53.294 308.597 80.933 296.1 101.496 296.1H101.52Z" fill="#C72A1C"/>
<path d="M109.805 262.685C109.805 262.685 127.557 264.35 129.48 243.257C131.428 222.164 104.109 215.705 87.2448 232.723C82.5849 216.699 58.6689 220.997 63.0576 242.884C53.1214 257.344 63.7233 261.244 69.2708 261.244C69.2708 283.902 83.7437 292.101 96.1455 288.2C108.547 284.299 109.805 262.71 109.805 262.71V262.685Z" fill="#C57F12"/>
<path d="M131.132 317.193L156.971 361.092L213.58 352.77L215.109 361.192C215.109 361.192 182.416 382.061 151.029 378.657C133.178 376.719 116.856 344.72 109.632 328.422C107.265 323.056 108.991 316.746 113.774 313.392C119.544 309.342 127.532 311.081 131.132 317.193Z" fill="#E6EBEE"/>
<path d="M131.132 317.193L156.971 361.092L213.58 352.77L215.109 361.192C215.109 361.192 182.416 382.061 151.029 378.657C133.178 376.719 116.856 344.72 109.632 328.422C107.265 323.056 108.991 316.746 113.774 313.392C119.544 309.342 127.532 311.081 131.132 317.193Z" fill="url(#paint9_linear_4_29393)" fill-opacity="0.8"/>
<path d="M131.132 317.193L156.971 361.092L213.58 352.77L215.109 361.192C215.109 361.192 182.416 382.061 151.029 378.657C133.178 376.719 116.856 344.72 109.632 328.422C107.265 323.056 108.991 316.746 113.774 313.392C119.544 309.342 127.532 311.081 131.132 317.193Z" fill="#2F3941" fill-opacity="0.15"/>
<path d="M109.805 262.685C109.805 262.685 103.69 262.039 103.69 268.474C103.69 274.908 111.555 275.579 111.555 275.579L109.805 262.685Z" fill="#A9B0B5"/>
<path d="M136.26 406.259C136.26 406.259 150.289 434.606 150.289 480.94C130.762 490.381 103.715 487.921 103.715 487.921L99.9179 463.326L97.8221 488.22C97.8221 488.22 73.4131 494.083 52.2586 481.785C50.9271 434.631 65.1041 406.284 65.1041 406.284C65.1041 406.284 91.7322 415.65 136.285 406.284L136.26 406.259Z" fill="#003A57"/>
<path d="M154.703 645.756V614.179H126.817L132.365 653.482H173.737C173.737 653.482 169.57 645.731 154.703 645.731V645.756Z" fill="#003A57"/>
<path d="M56.2527 645.756V614.179H84.1382L78.6647 653.482H37.2186C37.2186 653.482 41.3854 645.731 56.2527 645.731V645.756Z" fill="#003A57"/>
<path d="M96.2441 306.038C96.2441 306.038 118.508 345.391 118.508 388.893C118.508 432.395 28.737 431.749 28.737 388.893C28.737 346.037 45.7987 306.038 45.7987 306.038H96.2441Z" fill="#2B8473"/>
<path d="M104.06 323.28H45.3303C36.9228 323.28 30.0685 316.348 30.0685 307.901C30.0685 299.429 36.9474 292.523 45.3303 292.523H103.32C110.495 292.523 116.363 298.436 116.363 305.665V310.907C116.363 317.715 110.816 323.305 104.06 323.305V323.28Z" fill="#206E6A"/>
<path d="M116.191 363.651C116.191 363.651 135.94 405.464 106.994 405.464C78.0483 405.464 91.0418 363.651 91.0418 363.651H116.191Z" fill="#206E6A"/>
<path d="M73.413 363.651C73.413 363.651 91.2143 405.464 59.4825 405.464C27.7508 405.464 21.932 403.998 21.932 384.968C21.932 365.937 30.0684 363.651 30.0684 363.651H73.413Z" fill="#206E6A"/>
<path d="M117.201 307.901C117.201 316.224 112.147 322.982 105.884 322.982C99.622 322.982 94.5675 316.224 94.5675 307.901C94.5675 299.579 99.622 292.821 105.884 292.821C112.147 292.821 117.201 299.579 117.201 307.901Z" fill="#0C4D5E"/>
<path d="M88.1571 292.523C88.1571 292.523 74.3006 309.193 88.1571 323.305H81.1056C81.1056 323.305 66.4848 307.802 81.4754 292.523" fill="#2B8473"/>
<path d="M54.6254 292.523C54.6254 292.523 40.7689 309.193 54.6254 323.305H47.5739C47.5739 323.305 32.9531 307.802 47.9437 292.523" fill="#2B8473"/>
<path d="M211.09 353.962C211.09 353.962 219.276 343.553 221.199 344.223C223.122 344.919 219.276 350.062 219.276 350.062C219.276 350.062 230.642 348.347 232.22 348.347C233.798 348.347 232.664 351.428 229.952 352.124C232.392 354.583 229.384 360.471 221.1 361.167C212.816 361.863 210.424 360.471 210.424 360.471L211.115 353.937L211.09 353.962Z" fill="#A9B0B5"/>
<g opacity="0.8" clip-path="url(#clip1_4_29393)">
<path d="M55.0991 132H204.099C204.099 132 198.88 116.478 176.541 121.277C160.884 86.8341 125.121 76.5353 104.265 107.283C67.0199 102.038 55.0991 132 55.0991 132Z" fill="white"/>
</g>
<g opacity="0.8" clip-path="url(#clip2_4_29393)">
<path d="M444.099 47.0001H361.099C361.099 47.0001 364.006 38.6974 376.45 41.2643C385.172 22.8416 405.093 17.3329 416.711 33.7794C437.459 30.9739 444.099 47.0001 444.099 47.0001Z" fill="white"/>
</g>
<g filter="url(#filter0_d_4_29393)">
<g clip-path="url(#clip3_4_29393)">
<path fill-rule="evenodd" clip-rule="evenodd" d="M419.026 63C420.091 63 421.06 63.5825 421.759 64.536C422.441 65.4659 422.865 66.7498 422.865 68.1695V217.999C422.865 218.383 422.865 218.841 422.865 219.33C422.865 221.449 421.147 223.168 419.027 223.168H219.291C217.171 223.168 215.452 221.449 215.452 219.329C215.452 218.84 215.452 218.383 215.452 217.999V68.1695C215.452 66.7498 215.876 65.4659 216.558 64.536C217.257 63.582 218.226 63 219.291 63H419.026Z" fill="#E6EBEE"/>
<path fill-rule="evenodd" clip-rule="evenodd" d="M419.026 63C420.091 63 421.06 63.5825 421.759 64.536C422.441 65.4659 422.865 66.7498 422.865 68.1695V217.999C422.865 218.383 422.865 218.841 422.865 219.33C422.865 221.449 421.147 223.168 419.027 223.168H219.291C217.171 223.168 215.452 221.449 215.452 219.329C215.452 218.84 215.452 218.383 215.452 217.999V68.1695C215.452 66.7498 215.876 65.4659 216.558 64.536C217.257 63.582 218.226 63 219.291 63H419.026Z" fill="url(#paint10_linear_4_29393)"/>
<path opacity="0.3" fill-rule="evenodd" clip-rule="evenodd" d="M215.452 63H422.865V74.9912H215.452V63Z" fill="#C6C3B3"/>
<path d="M391.936 72.2657C393.611 72.2657 394.968 71.0455 394.968 69.5404C394.968 68.0353 393.611 66.8151 391.936 66.8151C390.261 66.8151 388.903 68.0353 388.903 69.5404C388.903 71.0455 390.261 72.2657 391.936 72.2657Z" fill="#70C38A"/>
<path d="M413.769 72.2657C415.444 72.2657 416.802 71.0455 416.802 69.5404C416.802 68.0352 415.444 66.8151 413.769 66.8151C412.094 66.8151 410.737 68.0352 410.737 69.5404C410.737 71.0455 412.094 72.2657 413.769 72.2657Z" fill="url(#paint11_linear_4_29393)"/>
<path d="M402.852 72.2657C404.527 72.2657 405.885 71.0455 405.885 69.5404C405.885 68.0352 404.527 66.8151 402.852 66.8151C401.178 66.8151 399.82 68.0352 399.82 69.5404C399.82 71.0455 401.178 72.2657 402.852 72.2657Z" fill="#C57F12"/>
<path d="M380.734 66.1352H220.625C219.956 66.1352 219.412 66.6233 219.412 67.2253V71.5858C219.412 72.1878 219.956 72.6759 220.625 72.6759H380.734C381.404 72.6759 381.947 72.1878 381.947 71.5858V67.2253C381.947 66.6233 381.404 66.1352 380.734 66.1352Z" fill="white"/>
<path d="M245.314 158.84V151.96L272.194 113.4H283.234V150.92H290.674V158.84H283.234V171H274.274V158.84H245.314ZM274.674 122.68L255.794 150.92H274.674V122.68ZM298.627 141.08C298.627 131.853 300.173 124.653 303.267 119.48C306.413 114.253 311.8 111.64 319.427 111.64C327.053 111.64 332.413 114.253 335.507 119.48C338.653 124.653 340.227 131.853 340.227 141.08C340.227 150.413 338.653 157.72 335.507 163C332.413 168.227 327.053 170.84 319.427 170.84C311.8 170.84 306.413 168.227 303.267 163C300.173 157.72 298.627 150.413 298.627 141.08ZM331.267 141.08C331.267 136.76 330.973 133.107 330.387 130.12C329.853 127.133 328.733 124.707 327.027 122.84C325.32 120.92 322.787 119.96 319.427 119.96C316.067 119.96 313.533 120.92 311.827 122.84C310.12 124.707 308.973 127.133 308.387 130.12C307.853 133.107 307.587 136.76 307.587 141.08C307.587 145.56 307.853 149.32 308.387 152.36C308.92 155.4 310.04 157.853 311.747 159.72C313.507 161.587 316.067 162.52 319.427 162.52C322.787 162.52 325.32 161.587 327.027 159.72C328.787 157.853 329.933 155.4 330.467 152.36C331 149.32 331.267 145.56 331.267 141.08ZM349.153 158.84V151.96L376.033 113.4H387.073V150.92H394.513V158.84H387.073V171H378.113V158.84H349.153ZM378.513 122.68L359.633 150.92H378.513V122.68Z" fill="#2B8473"/>
</g>
</g>
<defs>
<filter id="filter0_d_4_29393" x="177.657" y="44.1028" width="283.002" height="235.757" filterUnits="userSpaceOnUse" color-interpolation-filters="sRGB">
<feFlood flood-opacity="0" result="BackgroundImageFix"/>
<feColorMatrix in="SourceAlpha" type="matrix" values="0 0 0 0 0 0 0 0 0 0 0 0 0 0 0 0 0 0 127 0" result="hardAlpha"/>
<feOffset dy="18.8972"/>
<feGaussianBlur stdDeviation="18.8972"/>
<feColorMatrix type="matrix" values="0 0 0 0 0.184314 0 0 0 0 0.223529 0 0 0 0 0.254902 0 0 0 0.15 0"/>
<feBlend mode="normal" in2="BackgroundImageFix" result="effect1_dropShadow_4_29393"/>
<feBlend mode="normal" in="SourceGraphic" in2="effect1_dropShadow_4_29393" result="shape"/>
</filter>
<linearGradient id="paint0_linear_4_29393" x1="13.3078" y1="104.965" x2="412.744" y2="-84.6805" gradientUnits="userSpaceOnUse">
<stop stop-color="#001825"/>
<stop offset="1" stop-color="#003A57"/>
</linearGradient>
<linearGradient id="paint1_linear_4_29393" x1="394.951" y1="136.072" x2="388.597" y2="139.86" gradientUnits="userSpaceOnUse">
<stop stop-color="white" stop-opacity="0"/>
<stop offset="1" stop-color="white" stop-opacity="0.8"/>
</linearGradient>
<linearGradient id="paint2_linear_4_29393" x1="447.367" y1="227.94" x2="441.013" y2="231.729" gradientUnits="userSpaceOnUse">
<stop stop-color="white" stop-opacity="0"/>
<stop offset="1" stop-color="white" stop-opacity="0.8"/>
</linearGradient>
<linearGradient id="paint3_linear_4_29393" x1="85.2647" y1="102.541" x2="78.9108" y2="106.33" gradientUnits="userSpaceOnUse">
<stop stop-color="white" stop-opacity="0"/>
<stop offset="1" stop-color="white" stop-opacity="0.8"/>
</linearGradient>
<linearGradient id="paint4_linear_4_29393" x1="186.753" y1="617.98" x2="357.141" y2="674.864" gradientUnits="userSpaceOnUse">
<stop offset="0.213542" stop-color="#323444"/>
<stop offset="0.6875" stop-color="#2F3941" stop-opacity="0.291667"/>
<stop offset="1" stop-color="#2F3941" stop-opacity="0"/>
</linearGradient>
<linearGradient id="paint5_linear_4_29393" x1="229.264" y1="582.875" x2="331.784" y2="617.131" gradientUnits="userSpaceOnUse">
<stop offset="0.213542" stop-color="#323444"/>
<stop offset="0.6875" stop-color="#2F3941" stop-opacity="0.291667"/>
<stop offset="1" stop-color="#2F3941" stop-opacity="0"/>
</linearGradient>
<linearGradient id="paint6_linear_4_29393" x1="107.635" y1="416.246" x2="107.635" y2="643.147" gradientUnits="userSpaceOnUse">
<stop stop-color="#323444"/>
<stop offset="0.723958" stop-color="#2F3941" stop-opacity="0.2917"/>
<stop offset="0.994792" stop-color="#2F3941" stop-opacity="0"/>
</linearGradient>
<linearGradient id="paint7_linear_4_29393" x1="99.8931" y1="311.603" x2="99.8931" y2="280.598" gradientUnits="userSpaceOnUse">
<stop stop-color="#2F3941" stop-opacity="0"/>
<stop offset="0.265625" stop-color="#2F3941" stop-opacity="0.2917"/>
<stop offset="0.78125" stop-color="#323244"/>
</linearGradient>
<linearGradient id="paint8_linear_4_29393" x1="107.247" y1="234.619" x2="107.247" y2="290.667" gradientUnits="userSpaceOnUse">
<stop offset="0.244792" stop-color="#323444"/>
<stop offset="0.723958" stop-color="#2F3941" stop-opacity="0.2917"/>
<stop offset="0.994792" stop-color="#2F3941" stop-opacity="0"/>
</linearGradient>
<linearGradient id="paint9_linear_4_29393" x1="161.844" y1="311.202" x2="161.844" y2="379.032" gradientUnits="userSpaceOnUse">
<stop stop-color="#323444"/>
<stop offset="0.723958" stop-color="#2F3941" stop-opacity="0.2917"/>
<stop offset="0.994792" stop-color="#2F3941" stop-opacity="0"/>
</linearGradient>
<linearGradient id="paint10_linear_4_29393" x1="369.61" y1="254.552" x2="216.796" y2="83.204" gradientUnits="userSpaceOnUse">
<stop stop-color="white" stop-opacity="0"/>
<stop offset="1" stop-color="white" stop-opacity="0.8"/>
</linearGradient>
<linearGradient id="paint11_linear_4_29393" x1="410.737" y1="66.8151" x2="416.886" y2="66.9119" gradientUnits="userSpaceOnUse">
<stop stop-color="#001825"/>
<stop offset="1" stop-color="#003A57"/>
</linearGradient>
<clipPath id="clip0_4_29393">
<rect width="405" height="283" fill="white" transform="translate(119.099 370)"/>
</clipPath>
<clipPath id="clip1_4_29393">
<rect width="149" height="43" fill="white" transform="translate(55.0991 89)"/>
</clipPath>
<clipPath id="clip2_4_29393">
<rect width="83" height="23" fill="white" transform="matrix(-1 0 0 1 444.099 24)"/>
</clipPath>
<clipPath id="clip3_4_29393">
<rect x="215.452" y="63" width="207.413" height="160.168" rx="4" fill="white"/>
</clipPath>
</defs>
</svg>
