<svg width="527" height="654" viewBox="0 0 527 654" fill="none" xmlns="http://www.w3.org/2000/svg">
<path d="M40 653C40 653 40 565.646 143.44 534.898C246.88 504.128 222.264 343.911 351.564 368.569C480.864 393.226 418.058 557.133 468.556 592.862C519.054 628.614 507.968 653 507.968 653H40Z" fill="#E6E6E6"/>
<g clip-path="url(#clip0_2_28057)">
<path d="M454.875 651.839L497.892 413.177C475.39 409.27 454.819 614.725 454.819 614.725C454.819 614.725 469.723 370 446.926 370C446.908 370 446.889 370 446.871 370L451.784 651.784L454.875 651.839Z" fill="#1466A9" fill-opacity="0.35"/>
<path d="M463.43 651.986L518.388 494.629C504.147 493.929 485.73 555.46 477.156 587.359C474.267 598.877 472.372 606.027 472.372 606.027C472.372 606.027 474.175 598.508 477.156 587.359C488.692 541.271 515.923 424.897 499.64 413.859L456.751 651.857L463.449 651.968L463.43 651.986Z" fill="#1466A9" fill-opacity="0.35"/>
<path d="M477.137 587.378C474.138 598.508 472.354 606.045 472.354 606.045C472.354 606.045 474.267 598.895 477.137 587.378Z" fill="#A0ABE9"/>
<path d="M471.471 652.134C471.471 652.134 539.86 505.686 520.578 495.256C520.449 495.182 520.302 495.145 520.173 495.09L465.362 652.042L471.471 652.152V652.134Z" fill="#1466A9" fill-opacity="0.35"/>
<path d="M442.547 651.618L445.73 651.673L388.086 444.726C370.092 451.968 442.547 651.618 442.547 651.618Z" fill="#1466A9" fill-opacity="0.35"/>
<path d="M449.944 651.747L445.031 370.627C425.179 384.079 442.529 614.725 442.529 614.725C442.529 614.725 408.767 449.02 389.926 444.597L447.625 651.728L449.925 651.765L449.944 651.747Z" fill="#1466A9" fill-opacity="0.35"/>
<path d="M447.644 651.71L389.945 444.578C389.337 444.431 388.749 444.449 388.178 444.652C388.141 444.652 388.105 444.689 388.068 444.707L445.712 651.655L447.626 651.692L447.644 651.71Z" fill="#C2C8CC"/>
<path d="M451.784 651.784L446.871 370C446.227 370 445.62 370.221 445.05 370.627L449.944 651.747L451.784 651.784Z" fill="#C2C8CC"/>
<path d="M456.733 651.876L499.621 413.877C499.309 413.675 498.996 413.49 498.646 413.361C498.389 413.269 498.131 413.214 497.873 413.177L454.856 651.839L456.715 651.876H456.733Z" fill="#C2C8CC"/>
<path d="M465.362 652.023L520.173 495.071C519.584 494.813 518.977 494.666 518.37 494.629L463.412 651.986L465.344 652.023H465.362Z" fill="#C2C8CC"/>
<path d="M374.857 622.096C375.464 625.045 375.888 626.648 375.888 626.648C375.888 626.648 375.575 624.989 374.857 622.096Z" fill="#637ABE"/>
</g>
<path d="M27.3131 127.24C25.9336 153.857 77.6067 171.95 180.332 207.919C301.244 250.261 453.828 303.689 505.859 247.02C544.154 205.312 522.813 109.566 470.089 58.8356C344.476 -62.0159 30.6491 62.912 27.3131 127.24Z" fill="url(#paint0_linear_2_28057)"/>
<path d="M500.34 231.961C500.503 231.835 500.487 231.651 500.454 231.195C500.394 230.379 500.334 229.562 500.304 228.744C500.299 228.615 500.419 228.422 500.539 228.344C501.251 227.883 501.991 227.461 502.698 226.992C502.918 226.848 503.052 226.805 503.284 226.933C504.21 227.443 505.153 227.929 506.079 228.418C506.857 227.778 508.333 225.808 508.62 225.012C507.839 224.39 507.052 223.742 506.237 223.127C505.984 222.935 505.941 222.793 506.049 222.47C506.3 221.72 506.481 220.949 506.645 220.18C506.712 219.869 506.792 219.68 507.152 219.585C508.084 219.34 509.005 219.042 509.934 218.781C510.184 218.712 510.304 218.599 510.266 218.355C510.087 217.208 509.907 216.062 509.727 214.915C509.682 214.633 509.451 214.705 509.268 214.723C508.343 214.812 507.415 214.898 506.491 215.017C506.145 215.062 505.975 214.971 505.814 214.678C505.383 213.906 504.899 213.163 504.4 212.351L506.2 209.383C505.211 208.452 504.08 207.735 502.779 207.175L500.495 209.746C499.407 209.569 498.403 209.383 497.389 209.255C497.095 209.218 496.999 209.12 496.937 208.87C496.721 208.003 496.477 207.144 496.255 206.28C496.207 206.093 496.151 205.967 495.911 205.981C494.697 206.056 493.501 206.227 492.336 206.646C492.076 206.739 492.022 206.869 492.035 207.1C492.089 208.024 492.125 208.951 492.184 209.875C492.198 210.098 492.154 210.218 491.923 210.357C491.124 210.839 490.343 211.354 489.577 211.887C489.382 212.023 489.268 212.002 489.099 211.913C488.16 211.422 487.217 210.939 486.251 210.439C485.256 211.453 484.403 212.534 483.753 213.789L486.418 215.93L485.569 219.232C484.756 219.474 483.819 219.745 482.885 220.031C482.12 220.267 482.163 220.125 482.206 220.935C482.21 221.012 482.186 221.092 482.173 221.171L482.511 223.229C482.565 223.375 482.645 223.516 482.668 223.669C482.727 224.064 482.907 224.212 483.363 224.148C484.313 224.015 485.268 223.938 486.222 223.86C486.347 223.85 486.527 223.935 486.595 224.033C487.043 224.674 487.432 225.357 487.914 225.971C488.15 226.272 488.125 226.462 487.931 226.77C487.381 227.642 486.868 228.534 486.286 229.506L489.655 231.732C489.836 231.536 489.941 231.425 490.042 231.311C490.668 230.606 491.301 229.905 491.915 229.189C492.089 228.986 492.237 228.968 492.489 229.018C493.355 229.186 494.235 229.3 495.103 229.463C495.237 229.488 495.4 229.637 495.438 229.765C495.648 230.466 495.817 231.18 496.012 231.886C496.17 232.457 496.231 232.668 496.496 232.739L500.34 231.961ZM497.883 227.375C495.923 227.856 493.886 227.678 492.12 226.871C490.354 226.065 488.968 224.679 488.199 222.95C487.429 221.222 487.323 219.257 487.898 217.392C488.474 215.526 489.696 213.875 491.356 212.719C493.016 211.563 495.011 210.975 497.002 211.054C498.992 211.133 500.855 211.874 502.273 213.152C503.69 214.429 504.575 216.164 504.776 218.061C504.976 219.957 504.481 221.898 503.374 223.552C502.749 224.493 501.941 225.315 500.998 225.971C500.056 226.627 498.997 227.105 497.883 227.375Z" fill="#C57F12"/>
<g style="mix-blend-mode:hard-light" opacity="0.6">
<path d="M389.825 138.128L391.827 132.774L397.311 134.382L395.309 139.736L389.825 138.128Z" fill="#E6EBEE"/>
<path d="M389.825 138.128L391.827 132.774L397.311 134.382L395.309 139.736L389.825 138.128Z" fill="url(#paint1_linear_2_28057)"/>
</g>
<g style="mix-blend-mode:hard-light" opacity="0.6">
<path d="M442.642 229.996L444.644 224.643L450.129 226.25L448.127 231.604L442.642 229.996Z" fill="#E6EBEE"/>
<path d="M442.642 229.996L444.644 224.643L450.129 226.25L448.127 231.604L442.642 229.996Z" fill="url(#paint2_linear_2_28057)"/>
</g>
<g style="mix-blend-mode:hard-light" opacity="0.6">
<path d="M77.7698 104.597L79.7718 99.2437L85.2565 100.852L83.2545 106.205L77.7698 104.597Z" fill="#E6EBEE"/>
<path d="M77.7698 104.597L79.7718 99.2437L85.2565 100.852L83.2545 106.205L77.7698 104.597Z" fill="url(#paint3_linear_2_28057)"/>
</g>
<path d="M0 652.5H490.5" stroke="#6C757D"/>
<g style="mix-blend-mode:multiply" opacity="0.5">
<path fill-rule="evenodd" clip-rule="evenodd" d="M410.069 627.367C410.458 627.484 410.817 627.684 411.123 627.952C411.428 628.221 411.673 628.551 411.84 628.922C412.008 629.292 412.094 629.694 412.093 630.101C412.093 630.508 412.005 630.91 411.836 631.28C411.006 633.246 409.066 632.958 407.342 632.628C402.119 631.867 396.817 631.832 391.584 632.522C380.523 633.801 370.147 637.371 359.45 639.87C348.945 642.773 337.828 642.602 327.417 639.377C317.49 635.965 308.013 631.456 298.061 627.959C289.323 624.923 280.161 621.694 270.741 623.488C261.748 625.178 253.901 630.463 245.506 633.92C228.254 640.751 209.581 643.204 191.152 641.062C182.513 640.463 173.99 638.73 165.802 635.909C161.111 634.155 154.779 631.817 151.962 627.303C150.673 625.216 150.573 621.903 153.047 620.611C155.521 619.319 158.532 621.118 160.75 621.873C170.371 625.042 180.357 626.973 190.466 627.618C200.232 628.582 210.082 628.238 219.757 626.596C228.61 624.746 237.167 621.686 245.188 617.503C253.513 613.357 261.894 609.011 271.267 608.055C280.64 607.098 289.952 609.985 298.715 613.564C307.989 617.241 316.859 621.634 325.721 626.076C333.925 630.554 343.218 632.646 352.549 632.114C371.814 630.939 390.675 623.679 410.069 627.367Z" fill="#E6EBEE"/>
<path fill-rule="evenodd" clip-rule="evenodd" d="M410.069 627.367C410.458 627.484 410.817 627.684 411.123 627.952C411.428 628.221 411.673 628.551 411.84 628.922C412.008 629.292 412.094 629.694 412.093 630.101C412.093 630.508 412.005 630.91 411.836 631.28C411.006 633.246 409.066 632.958 407.342 632.628C402.119 631.867 396.817 631.832 391.584 632.522C380.523 633.801 370.147 637.371 359.45 639.87C348.945 642.773 337.828 642.602 327.417 639.377C317.49 635.965 308.013 631.456 298.061 627.959C289.323 624.923 280.161 621.694 270.741 623.488C261.748 625.178 253.901 630.463 245.506 633.92C228.254 640.751 209.581 643.204 191.152 641.062C182.513 640.463 173.99 638.73 165.802 635.909C161.111 634.155 154.779 631.817 151.962 627.303C150.673 625.216 150.573 621.903 153.047 620.611C155.521 619.319 158.532 621.118 160.75 621.873C170.371 625.042 180.357 626.973 190.466 627.618C200.232 628.582 210.082 628.238 219.757 626.596C228.61 624.746 237.167 621.686 245.188 617.503C253.513 613.357 261.894 609.011 271.267 608.055C280.64 607.098 289.952 609.985 298.715 613.564C307.989 617.241 316.859 621.634 325.721 626.076C333.925 630.554 343.218 632.646 352.549 632.114C371.814 630.939 390.675 623.679 410.069 627.367Z" fill="url(#paint4_linear_2_28057)" fill-opacity="0.8" style="mix-blend-mode:color-burn"/>
<path fill-rule="evenodd" clip-rule="evenodd" d="M410.069 627.367C410.458 627.484 410.817 627.684 411.123 627.952C411.428 628.221 411.673 628.551 411.84 628.922C412.008 629.292 412.094 629.694 412.093 630.101C412.093 630.508 412.005 630.91 411.836 631.28C411.006 633.246 409.066 632.958 407.342 632.628C402.119 631.867 396.817 631.832 391.584 632.522C380.523 633.801 370.147 637.371 359.45 639.87C348.945 642.773 337.828 642.602 327.417 639.377C317.49 635.965 308.013 631.456 298.061 627.959C289.323 624.923 280.161 621.694 270.741 623.488C261.748 625.178 253.901 630.463 245.506 633.92C228.254 640.751 209.581 643.204 191.152 641.062C182.513 640.463 173.99 638.73 165.802 635.909C161.111 634.155 154.779 631.817 151.962 627.303C150.673 625.216 150.573 621.903 153.047 620.611C155.521 619.319 158.532 621.118 160.75 621.873C170.371 625.042 180.357 626.973 190.466 627.618C200.232 628.582 210.082 628.238 219.757 626.596C228.61 624.746 237.167 621.686 245.188 617.503C253.513 613.357 261.894 609.011 271.267 608.055C280.64 607.098 289.952 609.985 298.715 613.564C307.989 617.241 316.859 621.634 325.721 626.076C333.925 630.554 343.218 632.646 352.549 632.114C371.814 630.939 390.675 623.679 410.069 627.367Z" fill="#2F3941" fill-opacity="0.15" style="mix-blend-mode:multiply"/>
</g>
<g style="mix-blend-mode:multiply" opacity="0.5">
<path fill-rule="evenodd" clip-rule="evenodd" d="M364.508 588.519C364.742 588.59 364.958 588.71 365.142 588.871C365.326 589.033 365.473 589.231 365.574 589.454C365.674 589.677 365.726 589.919 365.726 590.163C365.726 590.408 365.673 590.649 365.571 590.872C365.072 592.054 363.904 591.881 362.867 591.682C359.724 591.225 356.533 591.204 353.384 591.619C346.727 592.388 340.483 594.535 334.046 596.037C327.724 597.782 321.034 597.68 314.768 595.741C308.794 593.689 303.091 590.978 297.102 588.875C291.844 587.05 286.33 585.108 280.661 586.187C275.249 587.203 270.527 590.381 265.475 592.46C255.093 596.567 243.856 598.042 232.765 596.754C227.566 596.394 222.437 595.352 217.51 593.655C214.686 592.601 210.876 591.195 209.181 588.481C208.405 587.226 208.345 585.234 209.834 584.457C211.323 583.68 213.135 584.762 214.469 585.216C220.259 587.122 226.269 588.282 232.352 588.67C238.229 589.25 244.157 589.043 249.979 588.056C255.307 586.943 260.457 585.103 265.283 582.588C270.294 580.095 275.337 577.482 280.978 576.907C286.619 576.332 292.222 578.068 297.496 580.22C303.076 582.43 308.414 585.072 313.747 587.743C318.685 590.436 324.277 591.693 329.892 591.374C341.486 590.667 352.836 586.302 364.508 588.519Z" fill="#E6EBEE"/>
<path fill-rule="evenodd" clip-rule="evenodd" d="M364.508 588.519C364.742 588.59 364.958 588.71 365.142 588.871C365.326 589.033 365.473 589.231 365.574 589.454C365.674 589.677 365.726 589.919 365.726 590.163C365.726 590.408 365.673 590.649 365.571 590.872C365.072 592.054 363.904 591.881 362.867 591.682C359.724 591.225 356.533 591.204 353.384 591.619C346.727 592.388 340.483 594.535 334.046 596.037C327.724 597.782 321.034 597.68 314.768 595.741C308.794 593.689 303.091 590.978 297.102 588.875C291.844 587.05 286.33 585.108 280.661 586.187C275.249 587.203 270.527 590.381 265.475 592.46C255.093 596.567 243.856 598.042 232.765 596.754C227.566 596.394 222.437 595.352 217.51 593.655C214.686 592.601 210.876 591.195 209.181 588.481C208.405 587.226 208.345 585.234 209.834 584.457C211.323 583.68 213.135 584.762 214.469 585.216C220.259 587.122 226.269 588.282 232.352 588.67C238.229 589.25 244.157 589.043 249.979 588.056C255.307 586.943 260.457 585.103 265.283 582.588C270.294 580.095 275.337 577.482 280.978 576.907C286.619 576.332 292.222 578.068 297.496 580.22C303.076 582.43 308.414 585.072 313.747 587.743C318.685 590.436 324.277 591.693 329.892 591.374C341.486 590.667 352.836 586.302 364.508 588.519Z" fill="url(#paint5_linear_2_28057)" fill-opacity="0.8" style="mix-blend-mode:color-burn"/>
<path fill-rule="evenodd" clip-rule="evenodd" d="M364.508 588.519C364.742 588.59 364.958 588.71 365.142 588.871C365.326 589.033 365.473 589.231 365.574 589.454C365.674 589.677 365.726 589.919 365.726 590.163C365.726 590.408 365.673 590.649 365.571 590.872C365.072 592.054 363.904 591.881 362.867 591.682C359.724 591.225 356.533 591.204 353.384 591.619C346.727 592.388 340.483 594.535 334.046 596.037C327.724 597.782 321.034 597.68 314.768 595.741C308.794 593.689 303.091 590.978 297.102 588.875C291.844 587.05 286.33 585.108 280.661 586.187C275.249 587.203 270.527 590.381 265.475 592.46C255.093 596.567 243.856 598.042 232.765 596.754C227.566 596.394 222.437 595.352 217.51 593.655C214.686 592.601 210.876 591.195 209.181 588.481C208.405 587.226 208.345 585.234 209.834 584.457C211.323 583.68 213.135 584.762 214.469 585.216C220.259 587.122 226.269 588.282 232.352 588.67C238.229 589.25 244.157 589.043 249.979 588.056C255.307 586.943 260.457 585.103 265.283 582.588C270.294 580.095 275.337 577.482 280.978 576.907C286.619 576.332 292.222 578.068 297.496 580.22C303.076 582.43 308.414 585.072 313.747 587.743C318.685 590.436 324.277 591.693 329.892 591.374C341.486 590.667 352.836 586.302 364.508 588.519Z" fill="#2F3941" fill-opacity="0.15" style="mix-blend-mode:multiply"/>
</g>
<path d="M138.693 416.246L153.177 643.147H138.519L100.433 453.115L78.0485 643.147H64.3097L63.5395 416.246H138.693Z" fill="#E6EBEE"/>
<path d="M138.693 416.246L153.177 643.147H138.519L100.433 453.115L78.0485 643.147H64.3097L63.5395 416.246H138.693Z" fill="url(#paint6_linear_2_28057)" fill-opacity="0.8"/>
<path d="M138.693 416.246L153.177 643.147H138.519L100.433 453.115L78.0485 643.147H64.3097L63.5395 416.246H138.693Z" fill="#2F3941" fill-opacity="0.15"/>
<path d="M223.338 348.993L223.536 350.608L233.201 430.507H46.6454L64.5829 351.627L94.1724 254.834L162.792 267.207L164.233 267.455L165.624 267.157L256.38 248.077L223.859 347.428L223.338 348.993Z" fill="#E3F2F9"/>
<path d="M37.4034 437.885L57.4278 349.739L89.0049 246.412L164.084 259.952L267.362 238.214L230.865 349.739L241.524 437.885H37.4034ZM165.624 267.157L164.208 267.455L162.792 267.207L94.1725 254.834L64.583 351.627L46.6454 430.507H233.201L223.536 350.633L223.338 349.018L223.834 347.453L256.38 248.077L165.649 267.182L165.624 267.157Z" fill="white"/>
<path d="M100.557 311.603C106.967 311.603 112.184 306.386 112.184 299.976V280.598H88.9302V299.976C88.9302 306.386 94.1475 311.603 100.557 311.603Z" fill="#E6EBEE"/>
<path d="M100.557 311.603C106.967 311.603 112.184 306.386 112.184 299.976V280.598H88.9302V299.976C88.9302 306.386 94.1475 311.603 100.557 311.603Z" fill="#2F3941" fill-opacity="0.15"/>
<path d="M100.557 311.603C106.967 311.603 112.184 306.386 112.184 299.976V280.598H88.9302V299.976C88.9302 306.386 94.1475 311.603 100.557 311.603Z" fill="url(#paint7_linear_2_28057)" fill-opacity="0.8"/>
<g style="mix-blend-mode:multiply" opacity="0.7">
<path d="M60.4836 339.801L149.625 345.118L230.865 349.739L241.523 437.885H37.4033L60.4836 339.801Z" fill="#E0EEFB"/>
</g>
<path d="M150.072 312.771C156.308 315.976 161.177 321.019 164.829 327.975C203.338 304.026 235.064 308.796 236.381 309.044L234.965 313.441C234.642 313.392 203.81 307.951 166.42 331.329C167.438 333.64 168.357 336.099 169.128 338.782C178.469 370.707 225.872 374.881 226.344 374.931L226.89 378.657C225.201 378.533 192.58 375.676 174.916 356.322C168.581 361.167 142.768 384.496 158.817 430.532H154.867C138.42 383.303 165.351 358.956 172.556 353.465C169.525 349.54 167.09 345.043 165.575 339.826C162.121 328.025 156.482 320.249 148.333 316.075C136.805 310.137 120.085 311.33 95.7625 319.851L94.5452 316.373C119.886 307.504 137.526 306.386 150.022 312.796L150.072 312.771Z" fill="#4CA4DE"/>
<path d="M229.573 400.52C229.573 400.52 214.394 385.315 198.145 395.849C181.897 406.358 177.873 399.029 170.643 406.259C160.954 415.948 169.997 430.507 169.997 430.507H233.201L229.573 400.52Z" fill="#4CA4DE"/>
<path d="M92.5327 325.839L69.3034 373.539C67.7382 376.769 64.7817 379.104 61.2787 379.875C53.4776 381.614 46.0492 375.278 46.9436 367.328C49.6516 343.13 70.794 310.46 70.794 310.46L92.5327 325.839Z" fill="#F3A9B8"/>
<path d="M140.383 413.961C140.383 413.961 140.408 413.514 140.557 412.743" stroke="#2E3154" stroke-width="0.5" stroke-miterlimit="10"/>
<path d="M141 410C143.018 402.183 150.368 385.402 176.128 382.969C197.977 380.892 208.715 363.018 191.4 335.058C174.733 308.164 168.729 313.412 168.28 291" stroke="#2E3154" stroke-width="0.5" stroke-miterlimit="10"/>
<path d="M168.308 300.87C168.308 300.473 168.308 300.051 168.308 299.628" stroke="#2E3154" stroke-width="0.5" stroke-miterlimit="10"/>
<path d="M173.733 287.366C173.733 290.323 171.323 292.733 168.366 292.733C165.41 292.733 163 290.323 163 287.366C163 284.41 165.41 282 168.366 282C171.323 282 173.733 284.41 173.733 287.366Z" fill="#A81897"/>
<path d="M109.725 235.332C109.725 235.332 126.992 238.611 126.992 266.486C126.992 294.361 111.762 293.541 100.93 286.585C90.098 279.604 85.0298 262.387 92.4582 246.412C99.9115 230.413 109.725 235.332 109.725 235.332Z" fill="#E6EBEE"/>
<path d="M109.725 235.332C109.725 235.332 126.992 238.611 126.992 266.486C126.992 294.361 111.762 293.541 100.93 286.585C90.098 279.604 85.0298 262.387 92.4582 246.412C99.9115 230.413 109.725 235.332 109.725 235.332Z" fill="url(#paint8_linear_2_28057)" fill-opacity="0.8"/>
<path d="M109.725 235.332C109.725 235.332 126.992 238.611 126.992 266.486C126.992 294.361 111.762 293.541 100.93 286.585C90.098 279.604 85.0298 262.387 92.4582 246.412C99.9115 230.413 109.725 235.332 109.725 235.332Z" fill="#2F3941" fill-opacity="0.15"/>
<path d="M102.197 296.1C102.197 296.1 128.383 294.386 133.054 323.677C136.855 347.577 128.78 357.142 129.451 377.34C129.774 386.98 138.668 404.669 138.668 416.221H63.5147C63.5147 416.221 65.6264 404.172 71.7381 377.34C73.3281 370.359 69.676 362.037 66.8935 352.745C53.6018 308.597 81.4522 296.1 102.172 296.1H102.197Z" fill="#C72A1C"/>
<path d="M110.545 262.685C110.545 262.685 128.433 264.35 130.37 243.257C132.333 222.164 104.806 215.705 87.8123 232.723C83.1168 216.699 59.0178 220.997 63.4401 242.884C53.4279 257.344 64.1109 261.244 69.7009 261.244C69.7009 283.902 84.2844 292.101 96.7811 288.2C109.278 284.299 110.545 262.71 110.545 262.71V262.685Z" fill="#C57F12"/>
<path d="M132.035 317.193L158.072 361.092L215.114 352.77L216.655 361.192C216.655 361.192 183.711 382.061 152.084 378.657C134.097 376.719 117.65 344.72 110.371 328.422C107.986 323.056 109.725 316.746 114.545 313.392C120.358 309.342 128.408 311.081 132.035 317.193Z" fill="#E6EBEE"/>
<path d="M132.035 317.193L158.072 361.092L215.114 352.77L216.655 361.192C216.655 361.192 183.711 382.061 152.084 378.657C134.097 376.719 117.65 344.72 110.371 328.422C107.986 323.056 109.725 316.746 114.545 313.392C120.358 309.342 128.408 311.081 132.035 317.193Z" fill="url(#paint9_linear_2_28057)" fill-opacity="0.8"/>
<path d="M132.035 317.193L158.072 361.092L215.114 352.77L216.655 361.192C216.655 361.192 183.711 382.061 152.084 378.657C134.097 376.719 117.65 344.72 110.371 328.422C107.986 323.056 109.725 316.746 114.545 313.392C120.358 309.342 128.408 311.081 132.035 317.193Z" fill="#2F3941" fill-opacity="0.15"/>
<path d="M110.545 262.685C110.545 262.685 104.383 262.039 104.383 268.474C104.383 274.908 112.309 275.579 112.309 275.579L110.545 262.685Z" fill="#A9B0B5"/>
<path d="M137.203 406.259C137.203 406.259 151.339 434.606 151.339 480.94C131.662 490.381 104.408 487.921 104.408 487.921L100.582 463.326L98.4706 488.22C98.4706 488.22 73.8748 494.083 52.5585 481.785C51.2169 434.631 65.5023 406.284 65.5023 406.284C65.5023 406.284 92.3341 415.65 137.228 406.284L137.203 406.259Z" fill="#003A57"/>
<path d="M155.786 645.756V614.179H127.687L133.277 653.482H174.966C174.966 653.482 170.767 645.731 155.786 645.731V645.756Z" fill="#003A57"/>
<path d="M56.5831 645.756V614.179H84.6819L79.1665 653.482H37.4033C37.4033 653.482 41.602 645.731 56.5831 645.731V645.756Z" fill="#003A57"/>
<path d="M96.8804 306.038C96.8804 306.038 119.315 345.391 119.315 388.893C119.315 432.395 28.8569 431.749 28.8569 388.893C28.8569 346.037 46.0491 306.038 46.0491 306.038H96.8804Z" fill="#2B8473"/>
<path d="M104.756 323.28H45.5771C37.1052 323.28 30.1985 316.348 30.1985 307.901C30.1985 299.429 37.1301 292.523 45.5771 292.523H104.011C111.24 292.523 117.153 298.436 117.153 305.665V310.907C117.153 317.715 111.563 323.305 104.756 323.305V323.28Z" fill="#206E6A"/>
<path d="M116.98 363.651C116.98 363.651 136.88 405.464 107.713 405.464C78.5455 405.464 91.6384 363.651 91.6384 363.651H116.98Z" fill="#206E6A"/>
<path d="M73.8746 363.651C73.8746 363.651 91.8121 405.464 59.8376 405.464C27.8631 405.464 21.9998 403.998 21.9998 384.968C21.9998 365.937 30.1984 363.651 30.1984 363.651H73.8746Z" fill="#206E6A"/>
<path d="M117.998 307.901C117.998 316.224 112.905 322.982 106.595 322.982C100.284 322.982 95.191 316.224 95.191 307.901C95.191 299.579 100.284 292.821 106.595 292.821C112.905 292.821 117.998 299.579 117.998 307.901Z" fill="#0C4D5E"/>
<path d="M88.7314 292.523C88.7314 292.523 74.769 309.193 88.7314 323.305H81.626C81.626 323.305 66.8934 307.802 81.9987 292.523" fill="#2B8473"/>
<path d="M54.9434 292.523C54.9434 292.523 40.9809 309.193 54.9434 323.305H47.8379C47.8379 323.305 33.1053 307.802 48.2106 292.523" fill="#2B8473"/>
<path d="M212.605 353.962C212.605 353.962 220.853 343.553 222.791 344.223C224.729 344.919 220.853 350.062 220.853 350.062C220.853 350.062 232.306 348.347 233.896 348.347C235.486 348.347 234.344 351.428 231.611 352.124C234.07 354.583 231.039 360.471 222.692 361.167C214.344 361.863 211.934 360.471 211.934 360.471L212.63 353.937L212.605 353.962Z" fill="#A9B0B5"/>
<g opacity="0.8" clip-path="url(#clip1_2_28057)">
<path d="M55 132H204C204 132 198.781 116.478 176.442 121.277C160.785 86.8341 125.022 76.5353 104.166 107.283C66.9208 102.038 55 132 55 132Z" fill="white"/>
</g>
<g opacity="0.8" clip-path="url(#clip2_2_28057)">
<path d="M444 47.0001H361C361 47.0001 363.907 38.6974 376.351 41.2643C385.073 22.8416 404.994 17.3329 416.612 33.7794C437.36 30.9739 444 47.0001 444 47.0001Z" fill="white"/>
</g>
<g filter="url(#filter0_d_2_28057)">
<g clip-path="url(#clip3_2_28057)">
<path fill-rule="evenodd" clip-rule="evenodd" d="M422.132 63C423.205 63 424.181 63.5825 424.885 64.536C425.572 65.4659 426 66.7498 426 68.1695V217.999C426 218.376 426 218.822 426 219.3C426 221.436 424.268 223.168 422.132 223.168H220.868C218.732 223.168 217 221.436 217 219.3C217 218.822 217 218.375 217 217.999V68.1695C217 66.7498 217.428 65.4659 218.115 64.536C218.819 63.582 219.795 63 220.869 63H422.132Z" fill="#E6EBEE"/>
<path fill-rule="evenodd" clip-rule="evenodd" d="M422.132 63C423.205 63 424.181 63.5825 424.885 64.536C425.572 65.4659 426 66.7498 426 68.1695V217.999C426 218.376 426 218.822 426 219.3C426 221.436 424.268 223.168 422.132 223.168H220.868C218.732 223.168 217 221.436 217 219.3C217 218.822 217 218.375 217 217.999V68.1695C217 66.7498 217.428 65.4659 218.115 64.536C218.819 63.582 219.795 63 220.869 63H422.132Z" fill="url(#paint10_linear_2_28057)"/>
<path opacity="0.3" fill-rule="evenodd" clip-rule="evenodd" d="M217 63H426V74.9912H217V63Z" fill="#C6C3B3"/>
<path d="M394.834 72.2657C396.522 72.2657 397.89 71.0455 397.89 69.5404C397.89 68.0353 396.522 66.8151 394.834 66.8151C393.147 66.8151 391.779 68.0353 391.779 69.5404C391.779 71.0455 393.147 72.2657 394.834 72.2657Z" fill="#70C38A"/>
<path d="M416.835 72.2657C418.522 72.2657 419.89 71.0455 419.89 69.5404C419.89 68.0352 418.522 66.8151 416.835 66.8151C415.147 66.8151 413.779 68.0352 413.779 69.5404C413.779 71.0455 415.147 72.2657 416.835 72.2657Z" fill="url(#paint11_linear_2_28057)"/>
<path d="M405.834 72.2657C407.522 72.2657 408.89 71.0455 408.89 69.5404C408.89 68.0352 407.522 66.8151 405.834 66.8151C404.147 66.8151 402.779 68.0352 402.779 69.5404C402.779 71.0455 404.147 72.2657 405.834 72.2657Z" fill="#C57F12"/>
<path d="M383.547 66.1352H222.213C221.538 66.1352 220.991 66.6233 220.991 67.2253V71.5858C220.991 72.1878 221.538 72.6759 222.213 72.6759H383.547C384.222 72.6759 384.769 72.1878 384.769 71.5858V67.2253C384.769 66.6233 384.222 66.1352 383.547 66.1352Z" fill="white"/>
<path d="M247.862 158.84V151.96L274.742 113.4H285.782V150.92H293.222V158.84H285.782V171H276.822V158.84H247.862ZM277.222 122.68L258.342 150.92H277.222V122.68ZM301.175 141.08C301.175 131.853 302.722 124.653 305.815 119.48C308.962 114.253 314.348 111.64 321.975 111.64C329.602 111.64 334.962 114.253 338.055 119.48C341.202 124.653 342.775 131.853 342.775 141.08C342.775 150.413 341.202 157.72 338.055 163C334.962 168.227 329.602 170.84 321.975 170.84C314.348 170.84 308.962 168.227 305.815 163C302.722 157.72 301.175 150.413 301.175 141.08ZM333.815 141.08C333.815 136.76 333.522 133.107 332.935 130.12C332.402 127.133 331.282 124.707 329.575 122.84C327.868 120.92 325.335 119.96 321.975 119.96C318.615 119.96 316.082 120.92 314.375 122.84C312.668 124.707 311.522 127.133 310.935 130.12C310.402 133.107 310.135 136.76 310.135 141.08C310.135 145.56 310.402 149.32 310.935 152.36C311.468 155.4 312.588 157.853 314.295 159.72C316.055 161.587 318.615 162.52 321.975 162.52C325.335 162.52 327.868 161.587 329.575 159.72C331.335 157.853 332.482 155.4 333.015 152.36C333.548 149.32 333.815 145.56 333.815 141.08ZM351.701 158.84V151.96L378.581 113.4H389.621V150.92H397.061V158.84H389.621V171H380.661V158.84H351.701ZM381.061 122.68L362.181 150.92H381.061V122.68Z" fill="#2B8473"/>
<path d="M242.26 96.9199L242.26 98.7669L242.237 98.7669C242.075 101.445 240.597 102.969 238.127 102.969C235.495 102.969 233.925 101.445 233.763 98.7669L233.74 98.7669L233.74 96.9199L230 96.9199L230 98.7669L230 98.79C230.208 103.454 233.348 106.432 238.104 106.432C242.814 106.432 245.792 103.523 246 98.79L246 96.9199L242.26 96.9199Z" fill="#003A57"/>
<path d="M233.786 87.5L230.023 87.5L230.023 91.2633L233.786 91.2633L233.786 87.5Z" fill="#70C38A"/>
<path d="M245.977 87.5L242.167 87.5L242.167 91.3095L245.977 91.3095L245.977 87.5Z" fill="#003A57"/>
</g>
</g>
<defs>
<filter id="filter0_d_2_28057" x="179.206" y="44.1028" width="284.589" height="235.757" filterUnits="userSpaceOnUse" color-interpolation-filters="sRGB">
<feFlood flood-opacity="0" result="BackgroundImageFix"/>
<feColorMatrix in="SourceAlpha" type="matrix" values="0 0 0 0 0 0 0 0 0 0 0 0 0 0 0 0 0 0 127 0" result="hardAlpha"/>
<feOffset dy="18.8972"/>
<feGaussianBlur stdDeviation="18.8972"/>
<feColorMatrix type="matrix" values="0 0 0 0 0.184314 0 0 0 0 0.223529 0 0 0 0 0.254902 0 0 0 0.15 0"/>
<feBlend mode="normal" in2="BackgroundImageFix" result="effect1_dropShadow_2_28057"/>
<feBlend mode="normal" in="SourceGraphic" in2="effect1_dropShadow_2_28057" result="shape"/>
</filter>
<linearGradient id="paint0_linear_2_28057" x1="13.3098" y1="104.965" x2="414.667" y2="-87.0506" gradientUnits="userSpaceOnUse">
<stop stop-color="#001825"/>
<stop offset="1" stop-color="#003A57"/>
</linearGradient>
<linearGradient id="paint1_linear_2_28057" x1="397.872" y1="136.072" x2="391.495" y2="139.903" gradientUnits="userSpaceOnUse">
<stop stop-color="white" stop-opacity="0"/>
<stop offset="1" stop-color="white" stop-opacity="0.8"/>
</linearGradient>
<linearGradient id="paint2_linear_2_28057" x1="450.689" y1="227.94" x2="444.312" y2="231.771" gradientUnits="userSpaceOnUse">
<stop stop-color="white" stop-opacity="0"/>
<stop offset="1" stop-color="white" stop-opacity="0.8"/>
</linearGradient>
<linearGradient id="paint3_linear_2_28057" x1="85.8172" y1="102.541" x2="79.4404" y2="106.373" gradientUnits="userSpaceOnUse">
<stop stop-color="white" stop-opacity="0"/>
<stop offset="1" stop-color="white" stop-opacity="0.8"/>
</linearGradient>
<linearGradient id="paint4_linear_2_28057" x1="188.082" y1="617.98" x2="359.509" y2="675.649" gradientUnits="userSpaceOnUse">
<stop offset="0.213542" stop-color="#323444"/>
<stop offset="0.6875" stop-color="#2F3941" stop-opacity="0.291667"/>
<stop offset="1" stop-color="#2F3941" stop-opacity="0"/>
</linearGradient>
<linearGradient id="paint5_linear_2_28057" x1="230.918" y1="582.875" x2="334.063" y2="617.604" gradientUnits="userSpaceOnUse">
<stop offset="0.213542" stop-color="#323444"/>
<stop offset="0.6875" stop-color="#2F3941" stop-opacity="0.291667"/>
<stop offset="1" stop-color="#2F3941" stop-opacity="0"/>
</linearGradient>
<linearGradient id="paint6_linear_2_28057" x1="108.358" y1="416.246" x2="108.358" y2="643.147" gradientUnits="userSpaceOnUse">
<stop stop-color="#323444"/>
<stop offset="0.723958" stop-color="#2F3941" stop-opacity="0.2917"/>
<stop offset="0.994792" stop-color="#2F3941" stop-opacity="0"/>
</linearGradient>
<linearGradient id="paint7_linear_2_28057" x1="100.557" y1="311.603" x2="100.557" y2="280.598" gradientUnits="userSpaceOnUse">
<stop stop-color="#2F3941" stop-opacity="0"/>
<stop offset="0.265625" stop-color="#2F3941" stop-opacity="0.2917"/>
<stop offset="0.78125" stop-color="#323244"/>
</linearGradient>
<linearGradient id="paint8_linear_2_28057" x1="107.968" y1="234.619" x2="107.968" y2="290.667" gradientUnits="userSpaceOnUse">
<stop offset="0.244792" stop-color="#323444"/>
<stop offset="0.723958" stop-color="#2F3941" stop-opacity="0.2917"/>
<stop offset="0.994792" stop-color="#2F3941" stop-opacity="0"/>
</linearGradient>
<linearGradient id="paint9_linear_2_28057" x1="162.982" y1="311.202" x2="162.982" y2="379.032" gradientUnits="userSpaceOnUse">
<stop stop-color="#323444"/>
<stop offset="0.723958" stop-color="#2F3941" stop-opacity="0.2917"/>
<stop offset="0.994792" stop-color="#2F3941" stop-opacity="0"/>
</linearGradient>
<linearGradient id="paint10_linear_2_28057" x1="372.337" y1="254.552" x2="219.661" y2="82.0481" gradientUnits="userSpaceOnUse">
<stop stop-color="white" stop-opacity="0"/>
<stop offset="1" stop-color="white" stop-opacity="0.8"/>
</linearGradient>
<linearGradient id="paint11_linear_2_28057" x1="413.779" y1="66.8151" x2="419.975" y2="66.9134" gradientUnits="userSpaceOnUse">
<stop stop-color="#001825"/>
<stop offset="1" stop-color="#003A57"/>
</linearGradient>
<clipPath id="clip0_2_28057">
<rect width="405" height="283" fill="white" transform="translate(119 370)"/>
</clipPath>
<clipPath id="clip1_2_28057">
<rect width="149" height="43" fill="white" transform="translate(55 89)"/>
</clipPath>
<clipPath id="clip2_2_28057">
<rect width="83" height="23" fill="white" transform="matrix(-1 0 0 1 444 24)"/>
</clipPath>
<clipPath id="clip3_2_28057">
<rect x="217" y="63" width="209" height="160.168" rx="4" fill="white"/>
</clipPath>
</defs>
</svg>
