<svg width="156" height="181" viewBox="0 0 156 181" fill="none" xmlns="http://www.w3.org/2000/svg">
<path d="M96.0188 156.215C96.6078 154.488 101.253 156.836 103.139 159.702C104.395 161.609 105.162 163.644 105.518 166.379C105.476 163.259 105.426 159.905 105.378 156.742C104.996 155.953 104.127 154.133 103.5 152.692C101.41 147.883 96.4415 146.093 94.7245 143.058C92.4755 139.079 92.4874 133.112 94.4039 130.96C96.0687 129.09 101.576 141.743 102.198 143.155C104.333 148.017 104.953 151.625 105.354 155.121C105.309 152.149 105.264 149.422 105.229 147.316C105.112 140.449 104.965 138.242 104.898 137.562C104.668 137.23 104.397 136.844 104.238 136.635C102.906 134.881 99.9468 132.795 98.4673 130.245C96.3086 126.523 96.6577 122.068 98.1704 120.409C99.7545 118.674 102.552 122.774 104.039 126.836C105.525 130.897 104.889 134.784 105.307 138.159C105.395 138.821 105.483 141.333 105.568 144.819C106.019 141.068 106.917 138.557 108.582 136.216C110.629 133.336 112.396 129.83 114.082 130.281C115.768 130.735 114.861 135.374 113.526 138.632C112.339 141.534 106.478 144.426 105.613 146.76C105.715 151.484 105.806 157.47 105.87 163.043C106.333 160.165 106.015 159.922 107.907 155.514C109.033 152.894 113.647 149.662 114.198 151.462C114.738 153.228 113.913 156.664 112.17 159.049C110.764 160.971 107.646 160.968 106.924 162.162C106.756 162.441 106.2 163.506 105.882 164.12C105.958 170.923 105.991 176.93 105.953 178.978L105.651 179C105.666 178.471 105.63 175.011 105.571 170.431C104.813 167.992 99.7165 166.57 98.1419 164.037C96.4938 161.385 95.3087 158.29 96.0164 156.218L96.0188 156.215Z" fill="#E6E6E6"/>
<path d="M36.6584 7.24674C33.2738 13.6631 43.09 24.539 62.6044 46.1598C85.5732 71.6098 114.559 103.725 133.072 96.1425C146.698 90.5619 152.815 64.2238 146.517 45.1407C131.512 -0.321279 44.839 -8.26055 36.6584 7.24674Z" fill="url(#paint0_linear_1_27590)"/>
<path d="M133.536 91.7322C133.588 91.7213 133.606 91.674 133.651 91.5568C133.731 91.3474 133.811 91.1379 133.899 90.9316C133.912 90.8991 133.962 90.8662 133.999 90.8618C134.216 90.8358 134.435 90.823 134.652 90.7947C134.719 90.7863 134.755 90.7921 134.794 90.8525C134.948 91.0935 135.109 91.3303 135.266 91.566C135.519 91.504 136.086 91.1991 136.244 91.0376C136.136 90.787 136.029 90.5293 135.912 90.2761C135.876 90.1973 135.883 90.1569 135.945 90.0902C136.089 89.9357 136.219 89.7674 136.346 89.5975C136.397 89.5286 136.437 89.4919 136.531 89.513C136.774 89.5678 137.02 89.608 137.264 89.6585C137.33 89.6721 137.371 89.6592 137.39 89.5941C137.481 89.2881 137.572 88.982 137.662 88.6759C137.684 88.6007 137.623 88.5898 137.579 88.5715C137.355 88.4791 137.132 88.3854 136.905 88.3006C136.82 88.2688 136.792 88.2252 136.788 88.1328C136.778 87.8884 136.752 87.6446 136.731 87.3819L137.487 86.8702C137.367 86.5172 137.189 86.1998 136.954 85.9L136.132 86.2536C135.901 86.075 135.692 85.9048 135.473 85.7475C135.409 85.7019 135.399 85.6658 135.413 85.5962C135.463 85.3551 135.506 85.1122 135.554 84.8709C135.565 84.8187 135.567 84.7804 135.51 84.7543C135.221 84.6225 134.926 84.5167 134.61 84.4761C134.539 84.467 134.512 84.4925 134.488 84.5513C134.394 84.7867 134.296 85.0205 134.203 85.2564C134.18 85.3135 134.156 85.3376 134.087 85.3435C133.847 85.3639 133.608 85.3947 133.37 85.4317C133.31 85.4411 133.286 85.422 133.257 85.379C133.097 85.1412 132.936 84.9049 132.771 84.6615C132.425 84.7893 132.104 84.9511 131.81 85.1812L132.177 86.0411L131.601 86.7532C131.386 86.7123 131.139 86.6634 130.891 86.6187C130.687 86.5823 130.714 86.5525 130.63 86.7582C130.622 86.7779 130.608 86.7946 130.595 86.8125L130.436 87.3638C130.432 87.4066 130.434 87.4515 130.422 87.492C130.39 87.5972 130.414 87.656 130.526 87.6966C130.76 87.7813 130.989 87.8807 131.218 87.9795C131.248 87.9925 131.28 88.0356 131.284 88.0685C131.313 88.2826 131.324 88.4998 131.365 88.7115C131.384 88.8151 131.357 88.859 131.276 88.9112C131.049 89.0588 130.828 89.2162 130.582 89.3846L131.102 90.3528C131.166 90.3266 131.203 90.3122 131.239 90.2964C131.465 90.1993 131.691 90.1043 131.915 90.0033C131.979 89.9746 132.015 89.9884 132.067 90.0318C132.247 90.1807 132.437 90.3179 132.618 90.4655C132.646 90.4884 132.666 90.5455 132.66 90.582C132.628 90.7814 132.584 90.9791 132.548 91.1779C132.519 91.3388 132.508 91.3986 132.561 91.4489L133.536 91.7322ZM133.499 90.2931C132.992 90.1695 132.543 89.8733 132.23 89.455C131.916 89.0366 131.756 88.5221 131.778 87.999C131.8 87.4759 132.002 86.9765 132.35 86.5861C132.697 86.1957 133.169 85.9383 133.684 85.8578C134.2 85.7774 134.727 85.8788 135.176 86.1448C135.626 86.4108 135.969 86.8249 136.149 87.3166C136.328 87.8083 136.332 88.3472 136.159 88.8414C135.987 89.3356 135.65 89.7546 135.204 90.0269C134.951 90.1822 134.671 90.2858 134.378 90.3315C134.085 90.3772 133.786 90.3641 133.499 90.2931Z" fill="#C57F12"/>
<g style="mix-blend-mode:hard-light" opacity="0.6">
<path d="M118.895 54.8263L119.973 53.7492L121.051 54.8263L119.973 55.9033L118.895 54.8263Z" fill="#E6EBEE"/>
<path d="M118.895 54.8263L119.973 53.7492L121.051 54.8263L119.973 55.9033L118.895 54.8263Z" fill="url(#paint1_linear_1_27590)"/>
</g>
<g style="mix-blend-mode:hard-light" opacity="0.6">
<path d="M116.75 82.239L117.828 81.1619L118.906 82.239L117.828 83.316L116.75 82.239Z" fill="#E6EBEE"/>
<path d="M116.75 82.239L117.828 81.1619L118.906 82.239L117.828 83.316L116.75 82.239Z" fill="url(#paint2_linear_1_27590)"/>
</g>
<g style="mix-blend-mode:hard-light" opacity="0.6">
<path d="M50.8882 7.8903L51.9661 6.81328L53.0441 7.8903L51.9661 8.96733L50.8882 7.8903Z" fill="#E6EBEE"/>
<path d="M50.8882 7.8903L51.9661 6.81328L53.0441 7.8903L51.9661 8.96733L50.8882 7.8903Z" fill="url(#paint3_linear_1_27590)"/>
</g>
<path d="M0 179.186H145.223" stroke="#6C757D" stroke-width="0.296071"/>
<g clip-path="url(#clip0_1_27590)">
<path d="M28.0403 86.8851L31.4082 87.9894L28.7 91.2277C28.7 91.2277 27.424 90.1322 26.7296 88.9009C26.4388 88.3882 26.608 87.7309 27.1115 87.4329L28.0403 86.8851Z" fill="#CAD0D4"/>
<path d="M32.9575 90.6493L30.9394 93.1252L28.6999 91.2277L31.4081 87.9894L32.9575 90.6493Z" fill="#CAD0D4"/>
<path d="M26.955 60.4395C26.1304 62.7182 25.3752 64.9968 24.6634 67.3062C23.956 69.6199 23.2833 71.9336 22.7104 74.3656L22.5064 75.299L22.4109 75.7854L22.3632 76.0308L22.3501 76.0922L22.3371 76.1842L22.3111 76.3682C22.1896 77.3586 22.2937 78.1386 22.4283 78.8616C22.7104 80.2945 23.1704 81.5084 23.6782 82.6871C24.7112 85.0271 25.9481 87.1305 27.3934 89.1725L29.6459 87.9149C28.8473 85.7327 28.0617 83.4847 27.4715 81.3156C27.1894 80.2376 26.942 79.1464 26.8725 78.2087C26.8378 77.7486 26.8639 77.3191 26.9246 77.1219L27.1112 76.4383L27.3543 75.6277C28.0357 73.4323 28.8126 71.1755 29.5808 68.9363C30.3446 66.6927 31.1172 64.4272 31.855 62.1792L26.955 60.4439V60.4395Z" fill="#E6EBEE"/>
<path d="M26.955 60.4395C26.1304 62.7182 25.3752 64.9968 24.6634 67.3062C23.956 69.6199 23.2833 71.9336 22.7104 74.3656L22.5064 75.299L22.4109 75.7854L22.3632 76.0308L22.3501 76.0922L22.3371 76.1842L22.3111 76.3682C22.1896 77.3586 22.2937 78.1386 22.4283 78.8616C22.7104 80.2945 23.1704 81.5084 23.6782 82.6871C24.7112 85.0271 25.9481 87.1305 27.3934 89.1725L29.6459 87.9149C28.8473 85.7327 28.0617 83.4847 27.4715 81.3156C27.1894 80.2376 26.942 79.1464 26.8725 78.2087C26.8378 77.7486 26.8639 77.3191 26.9246 77.1219L27.1112 76.4383L27.3543 75.6277C28.0357 73.4323 28.8126 71.1755 29.5808 68.9363C30.3446 66.6927 31.1172 64.4272 31.855 62.1792L26.955 60.4439V60.4395Z" fill="url(#paint4_linear_1_27590)" fill-opacity="0.8"/>
<path d="M26.955 60.4395C26.1304 62.7182 25.3752 64.9968 24.6634 67.3062C23.956 69.6199 23.2833 71.9336 22.7104 74.3656L22.5064 75.299L22.4109 75.7854L22.3632 76.0308L22.3501 76.0922L22.3371 76.1842L22.3111 76.3682C22.1896 77.3586 22.2937 78.1386 22.4283 78.8616C22.7104 80.2945 23.1704 81.5084 23.6782 82.6871C24.7112 85.0271 25.9481 87.1305 27.3934 89.1725L29.6459 87.9149C28.8473 85.7327 28.0617 83.4847 27.4715 81.3156C27.1894 80.2376 26.942 79.1464 26.8725 78.2087C26.8378 77.7486 26.8639 77.3191 26.9246 77.1219L27.1112 76.4383L27.3543 75.6277C28.0357 73.4323 28.8126 71.1755 29.5808 68.9363C30.3446 66.6927 31.1172 64.4272 31.855 62.1792L26.955 60.4439V60.4395Z" fill="#2F3941" fill-opacity="0.15"/>
<path d="M45.6958 46.8815C45.6394 47.1532 45.7349 47.4117 45.9085 47.4555C46.0821 47.4994 46.2731 47.3153 46.3295 47.0436C46.3859 46.7719 46.2904 46.5134 46.1168 46.4696C45.9432 46.4258 45.7522 46.6098 45.6958 46.8815Z" fill="#263238"/>
<path d="M45.713 47.4073C45.713 47.4073 45.9908 49.1383 46.5029 50.0716C45.9344 50.4003 45.1705 49.9884 45.1705 49.9884L45.713 47.4073Z" fill="#6B6F77"/>
<path d="M46.4121 45.2251C46.4642 45.2251 46.5119 45.1988 46.5466 45.155C46.5987 45.0805 46.5814 44.9797 46.5076 44.9271C46.4815 44.9096 45.8566 44.4758 45.0363 44.8176C44.9538 44.8526 44.9148 44.949 44.9495 45.0323C44.9842 45.1155 45.0797 45.155 45.1621 45.1199C45.8175 44.8482 46.3166 45.1944 46.321 45.1988C46.3513 45.2207 46.3817 45.2295 46.4121 45.2295V45.2251Z" fill="#263238"/>
<path d="M36.3951 47.7491C36.0913 50.9305 36.5383 54.0111 35.8352 56.7761C35.8352 56.7761 36.6164 59.344 41.2734 59.344C46.3947 59.344 43.6214 56.7761 43.6214 56.7761C40.8003 56.1013 40.7916 54.0067 41.2039 52.0435L36.3908 47.7491H36.3951Z" fill="#E6EBEE"/>
<path d="M36.3951 47.7491C36.0913 50.9305 36.5383 54.0111 35.8352 56.7761C35.8352 56.7761 36.6164 59.344 41.2734 59.344C46.3947 59.344 43.6214 56.7761 43.6214 56.7761C40.8003 56.1013 40.7916 54.0067 41.2039 52.0435L36.3908 47.7491H36.3951Z" fill="url(#paint5_linear_1_27590)" fill-opacity="0.8"/>
<path d="M36.3951 47.7491C36.0913 50.9305 36.5383 54.0111 35.8352 56.7761C35.8352 56.7761 36.6164 59.344 41.2734 59.344C46.3947 59.344 43.6214 56.7761 43.6214 56.7761C40.8003 56.1013 40.7916 54.0067 41.2039 52.0435L36.3908 47.7491H36.3951Z" fill="#2F3941" fill-opacity="0.15"/>
<path d="M34.841 57.6569C34.4417 56.8462 34.1769 55.6938 35.0015 55.4046C35.9086 55.0847 40.7565 54.9795 42.5143 55.5798C44.272 56.1802 43.8423 57.8278 43.8423 57.8278L34.8366 57.6569H34.841Z" fill="#206E6A"/>
<path d="M24.3774 173.062C24.0389 172.983 23.6917 172.826 23.4573 172.703C23.4269 172.685 23.4052 172.655 23.4096 172.615C23.4139 172.576 23.4356 172.55 23.4703 172.536C23.6222 172.484 24.9677 172.037 25.3235 172.339C25.38 172.388 25.4407 172.475 25.4147 172.62C25.38 172.817 25.2845 172.957 25.1282 173.036C24.9286 173.137 24.6595 173.124 24.3817 173.058L24.3774 173.062ZM23.7351 172.642C24.3253 172.913 24.8071 173.005 25.0458 172.883C25.1499 172.83 25.215 172.734 25.2367 172.593C25.2498 172.523 25.2281 172.497 25.2064 172.48C25.0241 172.322 24.2776 172.48 23.7351 172.642Z" fill="#C72A1C"/>
<path d="M23.4742 172.712C23.4742 172.712 23.4439 172.699 23.4308 172.686C23.4091 172.664 23.4005 172.629 23.4091 172.598C23.4222 172.554 23.7607 171.515 24.2641 171.266C24.3943 171.2 24.5289 171.191 24.6591 171.239C24.8587 171.314 24.8848 171.454 24.8804 171.533C24.8631 171.962 23.943 172.593 23.5176 172.712C23.5046 172.712 23.4873 172.712 23.4742 172.712ZM24.5593 171.397C24.4898 171.38 24.416 171.388 24.3423 171.428C24.0168 171.586 23.7563 172.177 23.6435 172.475C24.0862 172.278 24.6938 171.778 24.7025 171.524C24.7025 171.502 24.7025 171.445 24.5983 171.406C24.5983 171.406 24.5723 171.397 24.5593 171.393V171.397Z" fill="#C72A1C"/>
<path d="M48.0872 175.735C47.74 175.735 47.3668 175.661 47.1064 175.6C47.0716 175.591 47.0456 175.564 47.0413 175.525C47.0369 175.486 47.0499 175.455 47.0803 175.433C47.2149 175.345 48.4258 174.596 48.8381 174.811C48.9032 174.846 48.9813 174.916 48.99 175.065C49.003 175.267 48.9422 175.424 48.8077 175.538C48.6384 175.683 48.3737 175.731 48.0872 175.731V175.735ZM47.3668 175.472C48.0004 175.6 48.4909 175.578 48.6948 175.402C48.786 175.328 48.8251 175.218 48.8164 175.078C48.812 175.008 48.786 174.986 48.76 174.973C48.5429 174.863 47.8572 175.183 47.3668 175.472Z" fill="#C72A1C"/>
<path d="M47.1283 175.604C47.1283 175.604 47.0935 175.6 47.0805 175.591C47.0545 175.573 47.0371 175.543 47.0415 175.508C47.0415 175.459 47.1326 174.373 47.5709 174.013C47.6838 173.921 47.8097 173.882 47.9485 173.899C48.1612 173.926 48.2176 174.057 48.2306 174.136C48.3088 174.557 47.5623 175.385 47.1717 175.6C47.1586 175.608 47.1456 175.608 47.1283 175.608V175.604ZM47.8834 174.07C47.8097 174.07 47.7446 174.097 47.6795 174.149C47.4017 174.377 47.2802 175.017 47.2368 175.332C47.623 175.039 48.1004 174.412 48.0527 174.162C48.0527 174.14 48.0397 174.088 47.9225 174.07C47.9225 174.07 47.8965 174.07 47.8834 174.07Z" fill="#C72A1C"/>
<path d="M43.0962 175.468H46.5248L46.5596 167.458H43.1309L43.0962 175.468Z" fill="#E6EBEE"/>
<path d="M43.0962 175.468H46.5248L46.5596 167.458H43.1309L43.0962 175.468Z" fill="url(#paint6_linear_1_27590)" fill-opacity="0.8"/>
<path d="M43.0962 175.468H46.5248L46.5596 167.458H43.1309L43.0962 175.468Z" fill="#2F3941" fill-opacity="0.15"/>
<path d="M19.2297 172.501L22.5282 173.115L24.8936 165.232L21.5951 164.623L19.2297 172.501Z" fill="#E6EBEE"/>
<path d="M19.2297 172.501L22.5282 173.115L24.8936 165.232L21.5951 164.623L19.2297 172.501Z" fill="url(#paint7_linear_1_27590)" fill-opacity="0.8"/>
<path d="M19.2297 172.501L22.5282 173.115L24.8936 165.232L21.5951 164.623L19.2297 172.501Z" fill="#2F3941" fill-opacity="0.15"/>
<path d="M23.1532 172.225L19.4076 171.331C19.2731 171.301 19.1342 171.367 19.0778 171.494L17.8322 174.355C17.702 174.653 17.8886 175.008 18.2011 175.074C19.5118 175.363 20.1628 175.437 21.8121 175.832C22.8233 176.073 24.8935 176.678 26.2911 177.015C27.6582 177.344 28.1486 175.981 27.5974 175.718C25.1409 174.53 24.325 173.514 23.6479 172.563C23.5264 172.392 23.3485 172.274 23.1488 172.225H23.1532Z" fill="#003A57"/>
<path d="M46.4857 175.065H42.7445C42.6056 175.065 42.4885 175.161 42.4624 175.302L41.9026 178.378C41.8461 178.698 42.0979 179 42.419 178.991C43.7688 178.969 45.7132 178.886 47.4101 178.886C49.3936 178.886 50.101 178.996 52.4273 178.996C53.8335 178.996 54.1677 177.558 53.5774 177.431C50.8736 176.84 49.693 176.774 47.3233 175.332C47.0673 175.174 46.7852 175.065 46.4857 175.065Z" fill="#003A57"/>
<path d="M28.1966 57.6701C24.998 59.94 24.0388 65.7944 24.0388 65.7944L31.2868 69.506C31.2868 69.506 33.127 65.9039 33.9342 62.2449C34.6981 58.7831 30.4752 56.0531 28.201 57.6701H28.1966Z" fill="#C72A1C"/>
<path opacity="0.2" d="M31.8205 61.4036L28.9647 68.3097L31.2823 69.506C31.2823 69.506 32.2935 67.5209 33.1572 64.9793L31.8205 61.3992V61.4036Z" fill="black"/>
<path d="M49.5106 72.8626C49.4845 76.7232 49.2545 81.5259 48.686 87.4855H30.362C30.1364 84.7686 31.2604 71.9555 28.5349 59.1293C28.3309 58.174 28.9645 57.245 29.9193 57.096C31.0868 56.912 32.684 56.7016 34.2464 56.6271C36.5814 56.5132 39.971 56.4387 42.0326 56.6271C43.1567 56.7279 44.2547 56.912 45.1575 57.0873C46.7199 57.394 47.9655 58.5728 48.3778 60.1284C48.7728 61.6139 49.1764 63.8969 49.3804 67.3368C49.4759 68.9231 49.5236 70.7505 49.5106 72.8582V72.8626Z" fill="#C72A1C"/>
<path opacity="0.2" d="M43.7299 65.6016C44.9408 66.4999 47.2584 66.9118 49.3677 67.0958C49.333 66.5306 49.2896 65.9959 49.2418 65.492C48.6733 65.1896 48.1264 64.9136 47.6099 64.6594L43.7299 65.6016Z" fill="black"/>
<g opacity="0.2">
<path d="M46.5596 167.458L46.5422 171.91H43.1135L43.1309 167.458H46.5596Z" fill="#E6EBEE"/>
<path d="M46.5596 167.458L46.5422 171.91H43.1135L43.1309 167.458H46.5596Z" fill="url(#paint8_linear_1_27590)" fill-opacity="0.8"/>
<path d="M46.5596 167.458L46.5422 171.91H43.1135L43.1309 167.458H46.5596Z" fill="#2F3941" fill-opacity="0.15"/>
<path d="M21.5951 164.623L24.8936 165.232L23.6696 169.298L20.3712 168.685L21.5951 164.623Z" fill="#E6EBEE"/>
<path d="M21.5951 164.623L24.8936 165.232L23.6696 169.298L20.3712 168.685L21.5951 164.623Z" fill="url(#paint9_linear_1_27590)" fill-opacity="0.8"/>
<path d="M21.5951 164.623L24.8936 165.232L23.6696 169.298L20.3712 168.685L21.5951 164.623Z" fill="#2F3941" fill-opacity="0.15"/>
</g>
<path d="M36.8853 44.0244C36.3818 47.4293 35.9218 49.3924 37.2195 51.5352C39.1769 54.7604 43.5604 54.2609 45.0447 51.1146C46.3858 48.2794 46.9804 43.1875 44.0378 41.0315C41.1429 38.9062 37.3844 40.6196 36.8809 44.0244H36.8853Z" fill="#E6EBEE"/>
<path d="M36.8853 44.0244C36.3818 47.4293 35.9218 49.3924 37.2195 51.5352C39.1769 54.7604 43.5604 54.2609 45.0447 51.1146C46.3858 48.2794 46.9804 43.1875 44.0378 41.0315C41.1429 38.9062 37.3844 40.6196 36.8809 44.0244H36.8853Z" fill="#2F3941" fill-opacity="0.15"/>
<path d="M36.8853 44.0244C36.3818 47.4293 35.9218 49.3924 37.2195 51.5352C39.1769 54.7604 43.5604 54.2609 45.0447 51.1146C46.3858 48.2794 46.9804 43.1875 44.0378 41.0315C41.1429 38.9062 37.3844 40.6196 36.8809 44.0244H36.8853Z" fill="url(#paint10_linear_1_27590)" fill-opacity="0.8"/>
<path d="M43.8904 46.509C45.1577 45.9481 45.0405 43.9236 44.6542 43.0735C46.1255 43.5862 48.2522 43.8754 48.6341 42.368C49.0161 40.8606 47.714 40.3698 48.5126 39.0815C49.3068 37.7932 46.7766 36.3778 45.596 38.1788C44.4155 39.9798 41.499 39.1866 39.6154 37.447C38.2439 36.1806 36.2388 37.8107 37.0374 39.4671C37.0374 39.4671 32.9143 39.1998 33.7345 42.0218C34.5548 44.8439 35.7136 44.949 35.4445 46.956C35.2666 48.3144 35.106 51.0795 36.7205 51.4695C38.6736 51.9384 43.5432 50.1943 43.8904 46.5047V46.509Z" fill="#101030"/>
<g opacity="0.2">
<path d="M43.9163 50.1987C44.2896 50.4704 44.6759 50.7596 45.0708 51.0663C45.0621 51.0839 45.0578 51.097 45.0491 51.1145C44.6411 51.9778 44.0118 52.6439 43.274 53.0908C43.0266 52.8498 42.8921 52.0392 42.4277 52.0523C41.0519 52.0874 38.3914 51.5089 37.9487 49.9402L43.912 50.1987H43.9163Z" fill="#E6EBEE"/>
<path d="M43.9163 50.1987C44.2896 50.4704 44.6759 50.7596 45.0708 51.0663C45.0621 51.0839 45.0578 51.097 45.0491 51.1145C44.6411 51.9778 44.0118 52.6439 43.274 53.0908C43.0266 52.8498 42.8921 52.0392 42.4277 52.0523C41.0519 52.0874 38.3914 51.5089 37.9487 49.9402L43.912 50.1987H43.9163Z" fill="url(#paint11_linear_1_27590)" fill-opacity="0.8"/>
<path d="M43.9163 50.1987C44.2896 50.4704 44.6759 50.7596 45.0708 51.0663C45.0621 51.0839 45.0578 51.097 45.0491 51.1145C44.6411 51.9778 44.0118 52.6439 43.274 53.0908C43.0266 52.8498 42.8921 52.0392 42.4277 52.0523C41.0519 52.0874 38.3914 51.5089 37.9487 49.9402L43.912 50.1987H43.9163Z" fill="#2F3941" fill-opacity="0.15"/>
</g>
<path d="M42.8488 46.4608C42.7533 47.3328 42.9139 48.1523 43.1743 48.6869C43.5692 49.4888 44.1812 48.9761 44.4242 47.9902C44.6413 47.1006 44.6977 45.6151 44.1335 45.1769C43.5779 44.7474 42.9573 45.4617 42.8488 46.4608Z" fill="#E6EBEE"/>
<path d="M42.8488 46.4608C42.7533 47.3328 42.9139 48.1523 43.1743 48.6869C43.5692 49.4888 44.1812 48.9761 44.4242 47.9902C44.6413 47.1006 44.6977 45.6151 44.1335 45.1769C43.5779 44.7474 42.9573 45.4617 42.8488 46.4608Z" fill="url(#paint12_linear_1_27590)" fill-opacity="0.8"/>
<path d="M42.8488 46.4608C42.7533 47.3328 42.9139 48.1523 43.1743 48.6869C43.5692 49.4888 44.1812 48.9761 44.4242 47.9902C44.6413 47.1006 44.6977 45.6151 44.1335 45.1769C43.5779 44.7474 42.9573 45.4617 42.8488 46.4608Z" fill="#2F3941" fill-opacity="0.15"/>
<path d="M42.1846 87.4855C42.1846 87.4855 39.3071 113.918 37.5537 123.821C35.631 134.667 25.6748 168.702 25.6748 168.702L19.5379 167.383C19.5379 167.383 26.3909 135.539 27.3154 124.803C28.3179 113.151 30.3621 87.4855 30.3621 87.4855H42.1846Z" fill="#407BFF"/>
<path d="M42.1846 87.4855C42.1846 87.4855 39.3071 113.918 37.5537 123.821C35.631 134.667 25.6748 168.702 25.6748 168.702L19.5379 167.383C19.5379 167.383 26.3909 135.539 27.3154 124.803C27.949 117.418 28.9646 104.979 30.3621 87.4855H42.1846Z" fill="#206E6A"/>
<path d="M27.0464 166.612C27.0724 166.616 26.0004 168.873 26.0004 168.873L19.0953 167.388L19.5901 165.275L27.0464 166.612Z" fill="#0C4D5E"/>
<path opacity="0.2" d="M40.0884 96.9025C35.6268 97.792 36.7509 114.72 37.6232 123.423C38.6822 117.27 40.1275 105.43 41.104 97.0252C40.8002 96.8762 40.4617 96.828 40.0884 96.9025Z" fill="black"/>
<path d="M48.6859 87.4855C48.6859 87.4855 50.1485 113.344 50.1789 123.891C50.2093 134.864 47.7875 170.784 47.7875 170.784H41.9848C41.9848 170.784 40.4224 135.504 39.754 124.728C39.0248 112.98 36.6421 87.4811 36.6421 87.4811H48.6859V87.4855Z" fill="#407BFF"/>
<path d="M48.6859 87.4855C48.6859 87.4855 50.1485 113.344 50.1789 123.891C50.2093 134.864 47.7875 170.784 47.7875 170.784H41.9848C41.9848 170.784 40.4224 135.504 39.754 124.728C39.0248 112.98 36.6421 87.4811 36.6421 87.4811H48.6859V87.4855Z" fill="#206E6A"/>
<path d="M48.8121 168.452C48.8382 168.452 48.5778 170.884 48.5778 170.884H41.5164L41.243 168.715L48.8121 168.452Z" fill="#0C4D5E"/>
<path d="M41.4251 63.095C42.1195 63.1651 42.7054 63.2002 43.3391 63.2177C43.964 63.2396 44.5847 63.2484 45.2097 63.244C46.4553 63.2309 47.7052 63.1651 48.9638 63.0249C50.2225 62.8891 51.4854 62.6831 52.7571 62.3676C54.0287 62.0565 55.3134 61.6271 56.5851 60.996L56.7283 60.9259C57.8524 60.3694 58.3124 58.9978 57.7612 57.8673C57.7005 57.7446 57.6224 57.6175 57.5442 57.5123C56.9496 56.706 56.3767 56.1451 55.7865 55.6149C55.2006 55.089 54.6147 54.6202 54.0244 54.1732C52.8439 53.2749 51.6373 52.4817 50.4265 51.7105C49.2069 50.948 47.9786 50.2294 46.733 49.5414C45.4787 48.8666 44.2331 48.2005 42.9311 47.587C42.2844 47.2846 41.5162 47.5695 41.2124 48.2224C40.952 48.7877 41.1256 49.445 41.5987 49.8087L41.6117 49.8218C42.7054 50.6676 43.8252 51.5045 44.9145 52.3634C46.0126 53.2135 47.1019 54.068 48.1653 54.9357C49.2329 55.7946 50.2746 56.6797 51.2598 57.5693C51.7502 58.0162 52.2233 58.4676 52.6443 58.9233C53.0609 59.3703 53.4559 59.8348 53.6685 60.1854L54.632 56.6973C53.7466 57.0434 52.7528 57.2932 51.7155 57.4816C50.6738 57.6657 49.5932 57.784 48.4995 57.8585C47.4014 57.9286 46.2903 57.9637 45.1749 57.968C44.6151 57.968 44.0552 57.968 43.4997 57.9505C42.9528 57.9286 42.3625 57.9111 41.8764 57.8848H41.8157C40.3835 57.8015 39.1595 58.9058 39.0771 60.3519C38.999 61.7585 40.0406 62.968 41.4164 63.1082L41.4251 63.095Z" fill="#E6EBEE"/>
<path d="M41.4251 63.095C42.1195 63.1651 42.7054 63.2002 43.3391 63.2177C43.964 63.2396 44.5847 63.2484 45.2097 63.244C46.4553 63.2309 47.7052 63.1651 48.9638 63.0249C50.2225 62.8891 51.4854 62.6831 52.7571 62.3676C54.0287 62.0565 55.3134 61.6271 56.5851 60.996L56.7283 60.9259C57.8524 60.3694 58.3124 58.9978 57.7612 57.8673C57.7005 57.7446 57.6224 57.6175 57.5442 57.5123C56.9496 56.706 56.3767 56.1451 55.7865 55.6149C55.2006 55.089 54.6147 54.6202 54.0244 54.1732C52.8439 53.2749 51.6373 52.4817 50.4265 51.7105C49.2069 50.948 47.9786 50.2294 46.733 49.5414C45.4787 48.8666 44.2331 48.2005 42.9311 47.587C42.2844 47.2846 41.5162 47.5695 41.2124 48.2224C40.952 48.7877 41.1256 49.445 41.5987 49.8087L41.6117 49.8218C42.7054 50.6676 43.8252 51.5045 44.9145 52.3634C46.0126 53.2135 47.1019 54.068 48.1653 54.9357C49.2329 55.7946 50.2746 56.6797 51.2598 57.5693C51.7502 58.0162 52.2233 58.4676 52.6443 58.9233C53.0609 59.3703 53.4559 59.8348 53.6685 60.1854L54.632 56.6973C53.7466 57.0434 52.7528 57.2932 51.7155 57.4816C50.6738 57.6657 49.5932 57.784 48.4995 57.8585C47.4014 57.9286 46.2903 57.9637 45.1749 57.968C44.6151 57.968 44.0552 57.968 43.4997 57.9505C42.9528 57.9286 42.3625 57.9111 41.8764 57.8848H41.8157C40.3835 57.8015 39.1595 58.9058 39.0771 60.3519C38.999 61.7585 40.0406 62.968 41.4164 63.1082L41.4251 63.095Z" fill="#2F3941" fill-opacity="0.15"/>
<path d="M41.4251 63.095C42.1195 63.1651 42.7054 63.2002 43.3391 63.2177C43.964 63.2396 44.5847 63.2484 45.2097 63.244C46.4553 63.2309 47.7052 63.1651 48.9638 63.0249C50.2225 62.8891 51.4854 62.6831 52.7571 62.3676C54.0287 62.0565 55.3134 61.6271 56.5851 60.996L56.7283 60.9259C57.8524 60.3694 58.3124 58.9978 57.7612 57.8673C57.7005 57.7446 57.6224 57.6175 57.5442 57.5123C56.9496 56.706 56.3767 56.1451 55.7865 55.6149C55.2006 55.089 54.6147 54.6202 54.0244 54.1732C52.8439 53.2749 51.6373 52.4817 50.4265 51.7105C49.2069 50.948 47.9786 50.2294 46.733 49.5414C45.4787 48.8666 44.2331 48.2005 42.9311 47.587C42.2844 47.2846 41.5162 47.5695 41.2124 48.2224C40.952 48.7877 41.1256 49.445 41.5987 49.8087L41.6117 49.8218C42.7054 50.6676 43.8252 51.5045 44.9145 52.3634C46.0126 53.2135 47.1019 54.068 48.1653 54.9357C49.2329 55.7946 50.2746 56.6797 51.2598 57.5693C51.7502 58.0162 52.2233 58.4676 52.6443 58.9233C53.0609 59.3703 53.4559 59.8348 53.6685 60.1854L54.632 56.6973C53.7466 57.0434 52.7528 57.2932 51.7155 57.4816C50.6738 57.6657 49.5932 57.784 48.4995 57.8585C47.4014 57.9286 46.2903 57.9637 45.1749 57.968C44.6151 57.968 44.0552 57.968 43.4997 57.9505C42.9528 57.9286 42.3625 57.9111 41.8764 57.8848H41.8157C40.3835 57.8015 39.1595 58.9058 39.0771 60.3519C38.999 61.7585 40.0406 62.968 41.4164 63.1082L41.4251 63.095Z" fill="url(#paint13_linear_1_27590)" fill-opacity="0.8"/>
<path d="M38.9949 46.8727L41.1736 47.3592C41.1736 47.3592 44.0772 46.9954 44.7412 49.204L43.0225 50.6851L40.3664 51.1102C39.9454 51.1759 39.5157 51.1102 39.1338 50.9086L38.4567 50.5537C38.1442 50.3915 37.9359 50.0804 37.9055 49.7255L37.745 47.9858C37.6799 47.2847 38.3135 46.7194 38.9949 46.8727Z" fill="#BABFC3"/>
<path d="M43.2308 65.6542C46.8808 66.6752 51.043 65.4 51.043 65.4L49.5109 57.1486C49.5109 57.1486 45.8826 56.8287 43.6214 56.7805C37.7926 56.6578 36.6512 63.8137 43.2308 65.6585V65.6542Z" fill="#C72A1C"/>
</g>
<path fill-rule="evenodd" clip-rule="evenodd" d="M117.566 171.362H129.702L126.161 180.643H120.986L117.566 171.362Z" fill="#C57F12"/>
<path fill-rule="evenodd" clip-rule="evenodd" d="M118.958 129.042C119.57 128.948 120.195 129.013 120.774 129.233C121.966 129.739 122.312 131.152 122.294 132.303C122.276 133.54 122.014 134.89 122.953 135.88C123.385 136.336 123.925 136.688 124.348 137.153C124.797 137.651 125.159 138.22 125.421 138.837C125.907 139.961 126.142 141.284 125.701 142.465C125.311 143.505 124.33 144.441 124.542 145.625C124.762 146.856 126.005 147.801 126.783 148.719C127.677 149.756 128.473 151.086 128.604 152.448C128.733 153.753 128.166 155.074 127.293 156.064C125.549 158.034 122.929 159.003 120.288 158.997C119.164 158.997 117.903 158.943 116.925 158.341C116.66 158.169 116.441 157.933 116.29 157.655C116.129 157.411 115.92 157.201 115.676 157.038C115.152 156.635 114.749 156.096 114.508 155.479C113.551 153.095 114.317 150.17 115.659 148.06C115.975 147.562 116.237 147.082 116.082 146.486C115.878 145.87 115.576 145.292 115.188 144.772C114.814 144.261 114.477 143.725 114.177 143.168C113.912 142.58 113.81 141.932 113.879 141.29C114.004 140.064 114.481 138.9 115.253 137.94C115.977 136.989 116.827 136.077 116.83 134.831C116.83 133.507 115.936 132.333 116.323 130.988C116.465 130.401 116.81 129.882 117.298 129.525C117.809 129.243 118.376 129.078 118.958 129.042Z" fill="white" stroke="#68737D" stroke-width="0.5" stroke-miterlimit="10"/>
<path fill-rule="evenodd" clip-rule="evenodd" d="M118.565 131.155C118.572 131.113 118.587 131.072 118.611 131.036C118.635 131 118.667 130.969 118.703 130.946C118.74 130.924 118.782 130.909 118.825 130.904C118.868 130.899 118.911 130.903 118.953 130.917C119.17 130.977 119.167 131.182 119.161 131.364C119.151 131.918 119.217 132.471 119.358 133.007C119.635 134.133 120.151 135.171 120.55 136.253C120.997 137.31 121.126 138.474 120.92 139.603C120.696 140.682 120.342 141.732 120.109 142.814C119.906 143.765 119.689 144.769 119.999 145.717C120.309 146.665 120.959 147.377 121.433 148.203C122.384 149.904 122.896 151.814 122.923 153.762C122.973 154.671 122.903 155.582 122.714 156.472C122.592 156.982 122.416 157.664 121.993 158.028C121.945 158.075 121.888 158.111 121.826 158.136C121.763 158.16 121.696 158.171 121.629 158.17C121.562 158.168 121.496 158.152 121.436 158.124C121.375 158.096 121.32 158.057 121.275 158.007C121.114 157.781 121.254 157.429 121.304 157.187C121.512 156.144 121.583 155.078 121.516 154.016C121.488 152.987 121.321 151.966 121.021 150.981C120.708 150.084 120.272 149.235 119.728 148.456C119.182 147.646 118.613 146.832 118.386 145.872C118.16 144.912 118.344 143.899 118.595 142.942C118.857 141.928 119.191 140.945 119.561 139.961C119.921 139.048 120.017 138.052 119.838 137.087C119.447 135.087 118.431 133.224 118.565 131.155Z" fill="#4CA4DE"/>
<path fill-rule="evenodd" clip-rule="evenodd" d="M134.939 135.02C135.705 135.228 136.403 135.632 136.966 136.192C138.101 137.414 137.753 139.262 137.127 140.612C136.45 142.067 135.431 143.527 136.006 145.197C136.271 145.963 136.715 146.657 136.966 147.429C137.229 148.253 137.354 149.114 137.335 149.978C137.309 151.561 136.888 153.257 135.747 154.414C134.739 155.442 133.094 156.041 132.718 157.547C132.325 159.12 133.284 160.882 133.711 162.373C134.194 164.06 134.441 166.051 133.878 167.738C133.335 169.348 131.97 170.615 130.426 171.33C127.338 172.755 123.755 172.522 120.657 171.154C119.343 170.558 117.879 169.846 117.062 168.629C116.841 168.287 116.71 167.894 116.681 167.488C116.62 167.117 116.486 166.761 116.287 166.441C115.885 165.689 115.696 164.841 115.739 163.988C115.87 160.682 118.32 157.609 121.009 155.815C121.644 155.388 122.201 154.956 122.339 154.172C122.476 153.388 122.309 152.485 122.181 151.671C122.012 150.873 121.897 150.064 121.838 149.251C121.834 148.415 122.05 147.592 122.464 146.866C123.256 145.48 124.429 144.35 125.844 143.611C127.194 142.863 128.673 142.228 129.335 140.752C130.035 139.19 129.633 137.339 130.772 135.947C131.247 135.327 131.926 134.895 132.688 134.725C133.43 134.6 134.235 134.808 134.939 135.02Z" fill="white" stroke="#68737D" stroke-width="0.5" stroke-miterlimit="10"/>
<path fill-rule="evenodd" clip-rule="evenodd" d="M133.41 137.604C133.44 137.558 133.48 137.519 133.527 137.49C133.574 137.46 133.627 137.441 133.681 137.434C133.736 137.427 133.792 137.431 133.845 137.447C133.898 137.463 133.946 137.49 133.988 137.527C134.212 137.711 134.098 137.953 133.988 138.164C133.685 138.815 133.474 139.504 133.359 140.212C133.094 141.703 133.153 143.193 133.061 144.684C133.029 146.165 132.573 147.606 131.746 148.836C130.915 149.996 129.958 151.054 129.114 152.213C128.378 153.233 127.6 154.3 127.466 155.597C127.335 156.834 127.716 158.062 127.838 159.29C128.054 161.803 127.644 164.33 126.646 166.647C126.231 167.748 125.673 168.791 124.986 169.747C124.574 170.289 124.023 171.023 123.325 171.213C123.004 171.3 122.568 171.184 122.497 170.811C122.425 170.438 122.777 170.116 122.962 169.857C123.75 168.728 124.391 167.503 124.87 166.211C125.376 164.977 125.716 163.681 125.88 162.357C125.985 161.132 125.921 159.898 125.689 158.691C125.475 157.445 125.236 156.184 125.478 154.926C125.719 153.668 126.458 152.568 127.266 151.566C128.107 150.502 129.025 149.519 129.949 148.538C130.852 147.644 131.487 146.516 131.782 145.28C132.381 142.725 132.173 139.986 133.41 137.604Z" fill="#4CA4DE"/>
<path fill-rule="evenodd" clip-rule="evenodd" d="M111.786 145.117C112.389 145.135 112.979 145.287 113.515 145.564C114.051 145.84 114.517 146.234 114.88 146.715C115.774 147.812 115.941 149.15 116.299 150.459C116.454 151.13 116.812 151.737 117.325 152.197C117.813 152.596 118.433 152.677 119.021 152.873C119.599 153.069 120.125 153.396 120.556 153.828C120.987 154.26 121.313 154.786 121.507 155.365C121.963 156.772 121.48 158.191 121.563 159.616C121.641 160.925 122.932 161.742 123.969 162.371C125.006 162.999 125.915 163.563 126.225 164.776C126.553 166.055 126.661 167.48 126.208 168.744C125.453 170.848 123.248 171.775 121.113 171.918C119.179 172.046 116.743 171.844 115.289 170.428C114.884 170.007 114.573 169.506 114.376 168.957C114.179 168.408 114.1 167.823 114.144 167.241C114.18 166.513 114.299 165.791 114.499 165.089C114.659 164.597 114.779 164.092 114.859 163.581C114.996 162.21 113.73 161.947 112.651 161.572C111.35 161.117 110.279 160.17 109.67 158.934C109.012 157.79 108.83 156.433 109.163 155.157C109.354 154.498 109.697 153.894 110.164 153.392C110.37 153.169 110.659 152.984 110.847 152.748C110.917 152.635 110.959 152.507 110.972 152.375C110.985 152.243 110.968 152.11 110.922 151.985C110.644 150.793 109.783 149.815 109.476 148.632C109.199 147.562 109.363 146.229 110.34 145.54C110.769 145.259 111.273 145.111 111.786 145.117Z" fill="white" stroke="#68737D" stroke-width="0.5" stroke-miterlimit="10"/>
<path fill-rule="evenodd" clip-rule="evenodd" d="M113.482 148.212C114.803 149.619 115.161 151.526 115.271 153.375C115.327 154.412 115.271 155.506 115.569 156.51C115.828 157.372 116.439 158.031 117.059 158.651C118.326 159.903 119.742 161.176 120.112 162.988C120.329 164.049 120.18 165.149 120.481 166.201C120.772 167.171 121.225 168.085 121.823 168.902C122.294 169.552 122.908 170.05 123.423 170.655C123.581 170.84 123.805 171.114 123.739 171.373C123.665 171.671 123.274 171.776 123 171.728C122.353 171.618 121.808 171.001 121.391 170.553C120.777 169.91 120.251 169.188 119.826 168.407C119.336 167.54 118.993 166.597 118.812 165.617C118.642 164.598 118.726 163.53 118.341 162.556C117.694 160.91 116.123 159.939 114.985 158.654C113.572 157.056 113.792 155.077 113.926 153.097C114.007 152.015 114.084 150.793 113.539 149.818C113.33 149.443 112.865 149.091 112.776 148.662C112.686 148.233 113.154 147.863 113.482 148.212Z" fill="#4CA4DE"/>
<g style="mix-blend-mode:multiply" opacity="0.5">
<path fill-rule="evenodd" clip-rule="evenodd" d="M150.556 115.114C150.619 115.133 150.678 115.166 150.728 115.21C150.778 115.254 150.818 115.308 150.845 115.369C150.873 115.429 150.887 115.495 150.887 115.562C150.887 115.628 150.872 115.694 150.845 115.754C150.709 116.076 150.391 116.029 150.109 115.975C149.255 115.851 148.387 115.845 147.531 115.958C145.721 116.167 144.023 116.751 142.273 117.16C140.554 117.635 138.735 117.607 137.031 117.08C135.407 116.521 133.856 115.783 132.227 115.211C130.798 114.714 129.298 114.186 127.757 114.48C126.285 114.756 125.001 115.621 123.628 116.187C120.805 117.304 117.749 117.706 114.734 117.355C113.32 117.257 111.925 116.974 110.586 116.512C109.818 116.225 108.782 115.842 108.321 115.104C108.11 114.762 108.094 114.22 108.498 114.009C108.903 113.797 109.396 114.092 109.759 114.215C111.333 114.734 112.967 115.05 114.621 115.155C116.219 115.313 117.831 115.257 119.414 114.988C120.863 114.685 122.263 114.185 123.576 113.5C124.938 112.822 126.309 112.111 127.843 111.954C129.377 111.798 130.9 112.27 132.334 112.856C133.852 113.457 135.303 114.176 136.753 114.903C138.096 115.636 139.617 115.978 141.143 115.891C144.296 115.699 147.382 114.511 150.556 115.114Z" fill="#E6EBEE"/>
<path fill-rule="evenodd" clip-rule="evenodd" d="M150.556 115.114C150.619 115.133 150.678 115.166 150.728 115.21C150.778 115.254 150.818 115.308 150.845 115.369C150.873 115.429 150.887 115.495 150.887 115.562C150.887 115.628 150.872 115.694 150.845 115.754C150.709 116.076 150.391 116.029 150.109 115.975C149.255 115.851 148.387 115.845 147.531 115.958C145.721 116.167 144.023 116.751 142.273 117.16C140.554 117.635 138.735 117.607 137.031 117.08C135.407 116.521 133.856 115.783 132.227 115.211C130.798 114.714 129.298 114.186 127.757 114.48C126.285 114.756 125.001 115.621 123.628 116.187C120.805 117.304 117.749 117.706 114.734 117.355C113.32 117.257 111.925 116.974 110.586 116.512C109.818 116.225 108.782 115.842 108.321 115.104C108.11 114.762 108.094 114.22 108.498 114.009C108.903 113.797 109.396 114.092 109.759 114.215C111.333 114.734 112.967 115.05 114.621 115.155C116.219 115.313 117.831 115.257 119.414 114.988C120.863 114.685 122.263 114.185 123.576 113.5C124.938 112.822 126.309 112.111 127.843 111.954C129.377 111.798 130.9 112.27 132.334 112.856C133.852 113.457 135.303 114.176 136.753 114.903C138.096 115.636 139.617 115.978 141.143 115.891C144.296 115.699 147.382 114.511 150.556 115.114Z" fill="url(#paint14_linear_1_27590)" fill-opacity="0.8" style="mix-blend-mode:color-burn"/>
<path fill-rule="evenodd" clip-rule="evenodd" d="M150.556 115.114C150.619 115.133 150.678 115.166 150.728 115.21C150.778 115.254 150.818 115.308 150.845 115.369C150.873 115.429 150.887 115.495 150.887 115.562C150.887 115.628 150.872 115.694 150.845 115.754C150.709 116.076 150.391 116.029 150.109 115.975C149.255 115.851 148.387 115.845 147.531 115.958C145.721 116.167 144.023 116.751 142.273 117.16C140.554 117.635 138.735 117.607 137.031 117.08C135.407 116.521 133.856 115.783 132.227 115.211C130.798 114.714 129.298 114.186 127.757 114.48C126.285 114.756 125.001 115.621 123.628 116.187C120.805 117.304 117.749 117.706 114.734 117.355C113.32 117.257 111.925 116.974 110.586 116.512C109.818 116.225 108.782 115.842 108.321 115.104C108.11 114.762 108.094 114.22 108.498 114.009C108.903 113.797 109.396 114.092 109.759 114.215C111.333 114.734 112.967 115.05 114.621 115.155C116.219 115.313 117.831 115.257 119.414 114.988C120.863 114.685 122.263 114.185 123.576 113.5C124.938 112.822 126.309 112.111 127.843 111.954C129.377 111.798 130.9 112.27 132.334 112.856C133.852 113.457 135.303 114.176 136.753 114.903C138.096 115.636 139.617 115.978 141.143 115.891C144.296 115.699 147.382 114.511 150.556 115.114Z" fill="#2F3941" fill-opacity="0.15" style="mix-blend-mode:multiply"/>
</g>
<g style="mix-blend-mode:multiply" opacity="0.5">
<path fill-rule="evenodd" clip-rule="evenodd" d="M146.7 107.612C146.739 107.624 146.774 107.643 146.804 107.67C146.834 107.696 146.858 107.729 146.875 107.765C146.891 107.801 146.9 107.841 146.9 107.881C146.9 107.921 146.891 107.961 146.874 107.997C146.793 108.191 146.602 108.162 146.432 108.13C145.917 108.055 145.395 108.051 144.88 108.119C143.791 108.245 142.769 108.596 141.716 108.842C140.681 109.128 139.587 109.111 138.561 108.794C137.584 108.458 136.651 108.014 135.671 107.67C134.81 107.372 133.908 107.054 132.98 107.23C132.095 107.397 131.322 107.917 130.495 108.257C128.796 108.929 126.958 109.17 125.143 108.96C124.292 108.901 123.453 108.73 122.647 108.452C122.185 108.28 121.561 108.05 121.284 107.606C121.157 107.4 121.147 107.074 121.391 106.947C121.634 106.82 121.931 106.997 122.149 107.072C123.097 107.383 124.08 107.573 125.075 107.637C126.037 107.732 127.007 107.698 127.96 107.536C128.832 107.354 129.674 107.053 130.464 106.642C131.284 106.234 132.109 105.806 133.032 105.712C133.955 105.618 134.872 105.902 135.735 106.254C136.648 106.616 137.522 107.048 138.394 107.485C139.202 107.926 140.117 108.131 141.036 108.079C142.933 107.964 144.79 107.249 146.7 107.612Z" fill="#E6EBEE"/>
<path fill-rule="evenodd" clip-rule="evenodd" d="M146.7 107.612C146.739 107.624 146.774 107.643 146.804 107.67C146.834 107.696 146.858 107.729 146.875 107.765C146.891 107.801 146.9 107.841 146.9 107.881C146.9 107.921 146.891 107.961 146.874 107.997C146.793 108.191 146.602 108.162 146.432 108.13C145.917 108.055 145.395 108.051 144.88 108.119C143.791 108.245 142.769 108.596 141.716 108.842C140.681 109.128 139.587 109.111 138.561 108.794C137.584 108.458 136.651 108.014 135.671 107.67C134.81 107.372 133.908 107.054 132.98 107.23C132.095 107.397 131.322 107.917 130.495 108.257C128.796 108.929 126.958 109.17 125.143 108.96C124.292 108.901 123.453 108.73 122.647 108.452C122.185 108.28 121.561 108.05 121.284 107.606C121.157 107.4 121.147 107.074 121.391 106.947C121.634 106.82 121.931 106.997 122.149 107.072C123.097 107.383 124.08 107.573 125.075 107.637C126.037 107.732 127.007 107.698 127.96 107.536C128.832 107.354 129.674 107.053 130.464 106.642C131.284 106.234 132.109 105.806 133.032 105.712C133.955 105.618 134.872 105.902 135.735 106.254C136.648 106.616 137.522 107.048 138.394 107.485C139.202 107.926 140.117 108.131 141.036 108.079C142.933 107.964 144.79 107.249 146.7 107.612Z" fill="url(#paint15_linear_1_27590)" fill-opacity="0.8" style="mix-blend-mode:color-burn"/>
<path fill-rule="evenodd" clip-rule="evenodd" d="M146.7 107.612C146.739 107.624 146.774 107.643 146.804 107.67C146.834 107.696 146.858 107.729 146.875 107.765C146.891 107.801 146.9 107.841 146.9 107.881C146.9 107.921 146.891 107.961 146.874 107.997C146.793 108.191 146.602 108.162 146.432 108.13C145.917 108.055 145.395 108.051 144.88 108.119C143.791 108.245 142.769 108.596 141.716 108.842C140.681 109.128 139.587 109.111 138.561 108.794C137.584 108.458 136.651 108.014 135.671 107.67C134.81 107.372 133.908 107.054 132.98 107.23C132.095 107.397 131.322 107.917 130.495 108.257C128.796 108.929 126.958 109.17 125.143 108.96C124.292 108.901 123.453 108.73 122.647 108.452C122.185 108.28 121.561 108.05 121.284 107.606C121.157 107.4 121.147 107.074 121.391 106.947C121.634 106.82 121.931 106.997 122.149 107.072C123.097 107.383 124.08 107.573 125.075 107.637C126.037 107.732 127.007 107.698 127.96 107.536C128.832 107.354 129.674 107.053 130.464 106.642C131.284 106.234 132.109 105.806 133.032 105.712C133.955 105.618 134.872 105.902 135.735 106.254C136.648 106.616 137.522 107.048 138.394 107.485C139.202 107.926 140.117 108.131 141.036 108.079C142.933 107.964 144.79 107.249 146.7 107.612Z" fill="#2F3941" fill-opacity="0.15" style="mix-blend-mode:multiply"/>
</g>
<g filter="url(#filter0_d_1_27590)">
<path d="M110.19 102.604L82.092 102.473C81.2878 102.471 80.4919 102.311 79.75 102C79.0081 101.69 78.3347 101.236 77.7687 100.665C77.2026 100.094 76.755 99.4165 76.4515 98.6717C76.148 97.927 75.9946 97.1297 76.0001 96.3255L76.2982 26.078C76.3025 25.2752 76.4649 24.481 76.7762 23.741C77.0876 23.001 77.5417 22.3296 78.1126 21.7651C78.6836 21.2007 79.3601 20.7543 80.1037 20.4514C80.8472 20.1486 81.6431 19.9952 82.446 20.0001L110.544 20.1259C112.165 20.132 113.717 20.7808 114.86 21.9298C116.003 23.0789 116.643 24.6343 116.641 26.255L116.342 96.5071C116.34 97.3118 116.179 98.108 115.868 98.8502C115.557 99.5924 115.103 100.266 114.532 100.832C113.96 101.399 113.282 101.847 112.537 102.151C111.792 102.455 110.995 102.609 110.19 102.604Z" fill="#336179"/>
<path d="M110.507 22.5708H105.058C104.881 22.5733 104.706 22.6106 104.543 22.6808C104.381 22.751 104.233 22.8526 104.11 22.9798C103.987 23.1071 103.89 23.2574 103.825 23.4222C103.76 23.5869 103.728 23.763 103.731 23.9401V24.9275C103.734 25.285 103.597 25.6296 103.349 25.8867C103.1 26.1439 102.761 26.2928 102.403 26.3014L91.7798 26.2502C91.6014 26.246 91.4257 26.2064 91.2627 26.1336C91.0998 26.0609 90.9529 25.9565 90.8307 25.8264C90.7085 25.6964 90.6133 25.5434 90.5508 25.3763C90.4883 25.2091 90.4596 25.0313 90.4664 24.8529V23.8563C90.4726 23.6781 90.4435 23.5005 90.3808 23.3336C90.318 23.1668 90.2228 23.014 90.1007 22.8841C89.9786 22.7542 89.832 22.6498 89.6694 22.5769C89.5067 22.5039 89.3312 22.4639 89.153 22.459H87.2342H82.465C81.903 22.456 81.3458 22.5637 80.8253 22.7759C80.3048 22.9882 79.8313 23.3009 79.4317 23.6962C79.0321 24.0915 78.7142 24.5616 78.4963 25.0797C78.2784 25.5979 78.1646 26.1538 78.1616 26.7159L77.8682 95.2867C77.8657 96.4223 78.3141 97.5125 79.1149 98.3176C79.9157 99.1228 81.0034 99.5771 82.139 99.5808L110.181 99.7112C111.316 99.7162 112.407 99.271 113.215 98.473C114.022 97.6751 114.481 96.5896 114.489 95.4544L114.778 26.8836C114.782 26.3195 114.675 25.7602 114.463 25.2378C114.25 24.7153 113.936 24.24 113.539 23.8393C113.142 23.4385 112.67 23.1201 112.15 22.9024C111.629 22.6847 111.071 22.572 110.507 22.5708Z" fill="white"/>
<path d="M109.058 32.5189C109.058 32.5888 103.134 32.64 95.8313 32.64C88.5285 32.64 82.5996 32.5888 82.5996 32.5189C82.5996 32.4491 88.5238 32.3978 95.8313 32.3978C103.139 32.3978 109.058 32.4397 109.058 32.5189Z" fill="#336179"/>
<path d="M109.058 79.9175C109.058 79.9827 103.134 80.0385 95.8313 80.0385C88.5285 80.0385 82.5996 79.9827 82.5996 79.9175C82.5996 79.8522 88.5238 79.7964 95.8313 79.7964C103.139 79.7964 109.058 79.8476 109.058 79.9175Z" fill="#336179"/>
<path d="M109.058 83.285C109.058 83.3502 103.134 83.4061 95.8313 83.4061C88.5285 83.4061 82.5996 83.3502 82.5996 83.285C82.5996 83.2198 88.5238 83.1639 95.8313 83.1639C103.139 83.1639 109.058 83.2291 109.058 83.285Z" fill="#336179"/>
<path d="M109.058 86.6755C109.058 86.7407 103.134 86.7966 95.8313 86.7966C88.5285 86.7966 82.5996 86.7407 82.5996 86.6755C82.5996 86.6103 88.5238 86.5544 95.8313 86.5544C103.139 86.5544 109.058 86.6057 109.058 86.6755Z" fill="#336179"/>
<path d="M109.058 90.0522C109.058 90.1221 103.134 90.1733 95.8313 90.1733C88.5285 90.1733 82.5996 90.1221 82.5996 90.0522C82.5996 89.9824 88.5238 89.9311 95.8313 89.9311C103.139 89.9311 109.058 89.987 109.058 90.0522Z" fill="#336179"/>
<path d="M109.435 93.8849C109.435 93.9501 103.511 94.006 96.2077 94.006C88.905 94.006 82.9761 93.9501 82.9761 93.8849C82.9761 93.8197 88.9003 93.7638 96.2077 93.7638C103.515 93.7638 109.435 93.815 109.435 93.8849Z" fill="#336179"/>
</g>
<path d="M105.567 54.8996L105.567 54.8996C104.143 56.3481 103.432 58.102 103.4 60.1742C103.403 60.227 103.405 60.2791 103.407 60.3311C103.412 60.4437 103.417 60.5562 103.427 60.6748L103.028 60.7081M105.567 54.8996L119.672 51.6795C119.564 51.5976 119.462 51.5098 119.349 51.4133C119.328 51.3952 119.306 51.3768 119.284 51.3581C119.15 51.2435 119.001 51.1195 118.838 51.008L118.838 51.0078C117.146 49.8532 114.856 50.0496 113.397 51.4948C111.509 53.3638 109.63 55.2416 107.76 57.1293C106.079 58.8277 106.129 61.5486 107.828 63.2396L107.828 63.2397C109.488 64.8914 112.218 64.891 113.892 63.2368L113.611 62.9522L113.892 63.2368C114.464 62.6714 115.034 62.1004 115.602 61.5307C115.95 61.1826 116.297 60.8351 116.643 60.4895L116.643 60.4895C117.2 59.9339 117.946 59.8303 118.567 60.1787C119.463 60.6816 119.649 61.8804 118.927 62.62L118.927 62.62C117.864 63.7102 116.798 64.7887 115.683 65.8088L115.683 65.8088C114.587 66.8131 113.252 67.3686 111.756 67.5429L111.756 67.5429C109.787 67.7723 107.996 67.3114 106.417 66.1278L106.417 66.1278C104.604 64.7692 103.618 62.9434 103.427 60.6745L103.028 60.7081M105.567 54.8996C107.458 52.9749 109.348 51.0546 111.286 49.1878C113.688 46.8748 117.34 46.4563 120.248 48.197L120.453 47.8549M105.567 54.8996L120.453 47.8549M103.028 60.7081C103.229 63.0873 104.27 65.0187 106.177 66.4479C107.841 67.6951 109.735 68.181 111.802 67.9402L103.03 60.1817L103 60.1817M103.028 60.7081C103.017 60.5814 103.012 60.4543 103.007 60.3371C103.005 60.2829 103.003 60.2307 103 60.1817M103 60.1817L103.006 60.1814L103 60.1817ZM120.453 47.8549L120.248 48.197C120.881 48.5753 121.442 48.978 121.853 49.5264L121.853 49.5264M120.453 47.8549L121.853 49.5264M121.853 49.5264C122.3 50.121 122.227 51.0084 121.688 51.5351L121.688 51.5351M121.853 49.5264L121.688 51.5351M121.688 51.5351C121.139 52.0712 120.263 52.1295 119.672 51.6796L121.688 51.5351ZM116.361 60.2062C117.036 59.5332 117.975 59.3878 118.763 59.8299C119.883 60.4587 120.123 61.9674 119.214 62.8993L116.361 60.2062Z" fill="#E34F32" stroke="white" stroke-width="0.8"/>
<path d="M125.763 37.425C125.864 37.4173 125.964 37.4096 126.061 37.4006C128.406 37.4742 130.285 38.2919 131.765 39.9807C134.074 42.6174 134.22 46.5069 132.115 49.3288L132.115 49.329C131.897 49.6216 131.654 49.901 131.395 50.1614C129.533 52.033 127.665 53.8991 125.795 55.7642C123.289 58.2649 119.142 58.5934 116.287 56.5068C115.868 56.2003 115.474 55.8611 115.158 55.4832L115.158 55.4832C114.7 54.9364 114.762 54.0449 115.307 53.4902L115.307 53.4901C115.836 52.9522 116.721 52.881 117.317 53.3267L117.317 53.3269C117.412 53.3977 117.505 53.4772 117.607 53.567C117.616 53.5741 117.624 53.5813 117.632 53.5886C117.725 53.6699 117.828 53.7597 117.936 53.844L117.936 53.8442C119.645 55.174 122.085 55.0368 123.624 53.5073L123.624 53.5072C125.497 51.6451 127.367 49.7783 129.228 47.9037L129.228 47.9037C130.898 46.2216 130.888 43.4968 129.224 41.8233C127.548 40.1374 124.826 40.1012 123.129 41.7646C122.568 42.3141 122.011 42.8737 121.455 43.4313C121.085 43.8035 120.715 44.1749 120.345 44.5418L120.345 44.5418C119.809 45.0747 119.068 45.1802 118.449 44.845L118.449 44.845C117.551 44.3591 117.348 43.1543 118.066 42.4102L118.066 42.4101C119.115 41.3223 120.186 40.2557 121.291 39.2317L121.291 39.2317C122.326 38.2715 123.592 37.7281 125.011 37.5039L125.011 37.5039C125.271 37.4628 125.523 37.4435 125.763 37.425Z" fill="#E34F32" stroke="white" stroke-width="0.8"/>
<path d="M100.26 51.9199V53.7669H100.237C100.075 56.4451 98.5974 57.969 96.127 57.969C93.4949 57.969 91.925 56.4451 91.7633 53.7669H91.7403V51.9199H88V53.7669V53.79C88.2078 58.4538 91.3478 61.4322 96.1039 61.4322C100.814 61.4322 103.792 58.5231 104 53.79V51.9199H100.26Z" fill="#003A57"/>
<path d="M91.7863 42.5H88.0229V46.2633H91.7863V42.5Z" fill="#70C38A"/>
<path d="M103.977 42.5H100.167V46.3095H103.977V42.5Z" fill="#003A57"/>
<defs>
<filter id="filter0_d_1_27590" x="61.7886" y="10.5257" width="69.0634" height="111.027" filterUnits="userSpaceOnUse" color-interpolation-filters="sRGB">
<feFlood flood-opacity="0" result="BackgroundImageFix"/>
<feColorMatrix in="SourceAlpha" type="matrix" values="0 0 0 0 0 0 0 0 0 0 0 0 0 0 0 0 0 0 127 0" result="hardAlpha"/>
<feOffset dy="4.73713"/>
<feGaussianBlur stdDeviation="7.1057"/>
<feColorMatrix type="matrix" values="0 0 0 0 0 0 0 0 0 0 0 0 0 0 0 0 0 0 0.176 0"/>
<feBlend mode="normal" in2="BackgroundImageFix" result="effect1_dropShadow_1_27590"/>
<feBlend mode="normal" in="SourceGraphic" in2="effect1_dropShadow_1_27590" result="shape"/>
</filter>
<linearGradient id="paint0_linear_1_27590" x1="36" y1="0" x2="150.568" y2="1.88267" gradientUnits="userSpaceOnUse">
<stop stop-color="#001825"/>
<stop offset="1" stop-color="#003A57"/>
</linearGradient>
<linearGradient id="paint1_linear_1_27590" x1="120.985" y1="55.3138" x2="119.074" y2="55.4514" gradientUnits="userSpaceOnUse">
<stop stop-color="white" stop-opacity="0"/>
<stop offset="1" stop-color="white" stop-opacity="0.8"/>
</linearGradient>
<linearGradient id="paint2_linear_1_27590" x1="118.84" y1="82.7265" x2="116.929" y2="82.8641" gradientUnits="userSpaceOnUse">
<stop stop-color="white" stop-opacity="0"/>
<stop offset="1" stop-color="white" stop-opacity="0.8"/>
</linearGradient>
<linearGradient id="paint3_linear_1_27590" x1="52.9785" y1="8.37788" x2="51.0668" y2="8.51541" gradientUnits="userSpaceOnUse">
<stop stop-color="white" stop-opacity="0"/>
<stop offset="1" stop-color="white" stop-opacity="0.8"/>
</linearGradient>
<linearGradient id="paint4_linear_1_27590" x1="27.0561" y1="60.4395" x2="27.0561" y2="89.1725" gradientUnits="userSpaceOnUse">
<stop offset="0.244792" stop-color="#323444"/>
<stop offset="0.723958" stop-color="#2F3941" stop-opacity="0.2917"/>
<stop offset="0.994792" stop-color="#2F3941" stop-opacity="0"/>
</linearGradient>
<linearGradient id="paint5_linear_1_27590" x1="40.1032" y1="47.7491" x2="40.1032" y2="59.344" gradientUnits="userSpaceOnUse">
<stop offset="0.244792" stop-color="#323444"/>
<stop offset="0.723958" stop-color="#2F3941" stop-opacity="0.2917"/>
<stop offset="0.994792" stop-color="#2F3941" stop-opacity="0"/>
</linearGradient>
<linearGradient id="paint6_linear_1_27590" x1="44.8279" y1="167.458" x2="44.8279" y2="175.468" gradientUnits="userSpaceOnUse">
<stop offset="0.244792" stop-color="#323444"/>
<stop offset="0.723958" stop-color="#2F3941" stop-opacity="0.2917"/>
<stop offset="0.994792" stop-color="#2F3941" stop-opacity="0"/>
</linearGradient>
<linearGradient id="paint7_linear_1_27590" x1="22.0616" y1="164.623" x2="22.0616" y2="173.115" gradientUnits="userSpaceOnUse">
<stop offset="0.244792" stop-color="#323444"/>
<stop offset="0.723958" stop-color="#2F3941" stop-opacity="0.2917"/>
<stop offset="0.994792" stop-color="#2F3941" stop-opacity="0"/>
</linearGradient>
<linearGradient id="paint8_linear_1_27590" x1="44.8365" y1="167.458" x2="44.8365" y2="171.91" gradientUnits="userSpaceOnUse">
<stop offset="0.244792" stop-color="#323444"/>
<stop offset="0.723958" stop-color="#2F3941" stop-opacity="0.2917"/>
<stop offset="0.994792" stop-color="#2F3941" stop-opacity="0"/>
</linearGradient>
<linearGradient id="paint9_linear_1_27590" x1="22.6324" y1="164.623" x2="22.6324" y2="169.298" gradientUnits="userSpaceOnUse">
<stop offset="0.244792" stop-color="#323444"/>
<stop offset="0.723958" stop-color="#2F3941" stop-opacity="0.2917"/>
<stop offset="0.994792" stop-color="#2F3941" stop-opacity="0"/>
</linearGradient>
<linearGradient id="paint10_linear_1_27590" x1="41.2637" y1="40.0971" x2="41.2637" y2="53.7266" gradientUnits="userSpaceOnUse">
<stop stop-color="#2F3941" stop-opacity="0"/>
<stop offset="0.265625" stop-color="#2F3941" stop-opacity="0.2917"/>
<stop offset="0.78125" stop-color="#323244"/>
</linearGradient>
<linearGradient id="paint11_linear_1_27590" x1="41.5097" y1="49.9402" x2="41.5097" y2="53.0908" gradientUnits="userSpaceOnUse">
<stop offset="0.244792" stop-color="#323444"/>
<stop offset="0.723958" stop-color="#2F3941" stop-opacity="0.2917"/>
<stop offset="0.994792" stop-color="#2F3941" stop-opacity="0"/>
</linearGradient>
<linearGradient id="paint12_linear_1_27590" x1="43.6998" y1="45.0496" x2="43.6998" y2="49.082" gradientUnits="userSpaceOnUse">
<stop offset="0.244792" stop-color="#323444"/>
<stop offset="0.723958" stop-color="#2F3941" stop-opacity="0.2917"/>
<stop offset="0.994792" stop-color="#2F3941" stop-opacity="0"/>
</linearGradient>
<linearGradient id="paint13_linear_1_27590" x1="48.5336" y1="47.4662" x2="48.5336" y2="63.2451" gradientUnits="userSpaceOnUse">
<stop stop-color="#2F3941" stop-opacity="0"/>
<stop offset="0.265625" stop-color="#2F3941" stop-opacity="0.2917"/>
<stop offset="0.78125" stop-color="#323244"/>
</linearGradient>
<linearGradient id="paint14_linear_1_27590" x1="114.231" y1="113.578" x2="142.282" y2="123.015" gradientUnits="userSpaceOnUse">
<stop offset="0.213542" stop-color="#323444"/>
<stop offset="0.6875" stop-color="#2F3941" stop-opacity="0.291667"/>
<stop offset="1" stop-color="#2F3941" stop-opacity="0"/>
</linearGradient>
<linearGradient id="paint15_linear_1_27590" x1="124.841" y1="106.689" x2="141.719" y2="112.371" gradientUnits="userSpaceOnUse">
<stop offset="0.213542" stop-color="#323444"/>
<stop offset="0.6875" stop-color="#2F3941" stop-opacity="0.291667"/>
<stop offset="1" stop-color="#2F3941" stop-opacity="0"/>
</linearGradient>
<clipPath id="clip0_1_27590">
<rect width="44" height="142" fill="white" transform="matrix(-1 0 0 1 58 37)"/>
</clipPath>
</defs>
</svg>
