<svg width="226" height="151" viewBox="0 0 226 151" fill="none" xmlns="http://www.w3.org/2000/svg">
<g clip-path="url(#clip0_470_38023)">
<g filter="url(#filter0_n_470_38023)">
<path d="M75.812 19C47.7493 19 24.9995 41.7498 24.9995 69.8125C24.9996 77.7618 26.8269 85.2841 30.0815 91.9844H196.205C199.533 86.6175 201.456 80.2875 201.457 73.5078C201.457 54.119 189.896 37.9395 170.507 37.9395H157.112C145.102 37.4775 123.433 36.3177 102.146 26.3477C94.4664 21.6848 85.4527 19 75.812 19Z" fill="url(#paint0_linear_470_38023)"/>
</g>
<g style="mix-blend-mode:hard-light" opacity="0.6">
<rect width="1.38564" height="1.38564" transform="matrix(-0.707107 -0.707107 -0.707107 0.707107 74.833 55.3047)" fill="#E6EBEE"/>
<rect width="1.38564" height="1.38564" transform="matrix(-0.707107 -0.707107 -0.707107 0.707107 74.833 55.3047)" fill="url(#paint1_linear_470_38023)"/>
</g>
<g style="mix-blend-mode:hard-light" opacity="0.6">
<rect width="1.38564" height="1.38564" transform="matrix(-0.707107 -0.707107 -0.707107 0.707107 176.457 46.0662)" fill="#E6EBEE"/>
<rect width="1.38564" height="1.38564" transform="matrix(-0.707107 -0.707107 -0.707107 0.707107 176.457 46.0662)" fill="url(#paint2_linear_470_38023)"/>
</g>
<g style="mix-blend-mode:hard-light" opacity="0.6">
<rect width="1.38564" height="1.38564" transform="matrix(-0.707107 -0.707107 -0.707107 0.707107 157.98 49.7615)" fill="#E6EBEE"/>
<rect width="1.38564" height="1.38564" transform="matrix(-0.707107 -0.707107 -0.707107 0.707107 157.98 49.7615)" fill="url(#paint3_linear_470_38023)"/>
</g>
<g style="mix-blend-mode:hard-light" opacity="0.6">
<rect width="1.38564" height="1.38564" transform="matrix(-0.707107 -0.707107 -0.707107 0.707107 85.9185 41.4468)" fill="#E6EBEE"/>
<rect width="1.38564" height="1.38564" transform="matrix(-0.707107 -0.707107 -0.707107 0.707107 85.9185 41.4468)" fill="url(#paint4_linear_470_38023)"/>
</g>
<g style="mix-blend-mode:hard-light" opacity="0.6">
<rect width="1.38564" height="1.38564" transform="matrix(-0.707107 -0.707107 -0.707107 0.707107 55.4316 64.5433)" fill="#E6EBEE"/>
<rect width="1.38564" height="1.38564" transform="matrix(-0.707107 -0.707107 -0.707107 0.707107 55.4316 64.5433)" fill="url(#paint5_linear_470_38023)"/>
</g>
<g style="mix-blend-mode:hard-light" opacity="0.6">
<rect width="1.38564" height="1.38564" transform="matrix(-0.707107 -0.707107 -0.707107 0.707107 46.1934 34.9798)" fill="#E6EBEE"/>
<rect width="1.38564" height="1.38564" transform="matrix(-0.707107 -0.707107 -0.707107 0.707107 46.1934 34.9798)" fill="url(#paint6_linear_470_38023)"/>
</g>
<g style="mix-blend-mode:overlay" opacity="0.5">
<path fill-rule="evenodd" clip-rule="evenodd" d="M32.4554 66.5024C32.3518 66.5337 32.2562 66.5869 32.1748 66.6582C32.0935 66.7296 32.0284 66.8175 31.9838 66.9161C31.9392 67.0147 31.9163 67.1217 31.9164 67.2299C31.9166 67.3381 31.9399 67.4451 31.9848 67.5435C32.2058 68.0668 32.7224 67.9901 33.1814 67.9022C34.5718 67.6999 35.9835 67.6904 37.3765 67.874C40.3214 68.2144 43.0837 69.1644 45.9314 69.8292C48.7282 70.6016 51.6878 70.5562 54.4596 69.6982C57.1024 68.7902 59.6254 67.5904 62.2749 66.6601C64.6012 65.8522 67.0405 64.9929 69.5482 65.4705C71.9424 65.9201 74.0316 67.3264 76.2666 68.2462C80.8595 70.0636 85.8306 70.7164 90.737 70.1465C93.0369 69.987 95.306 69.526 97.4858 68.7753C98.7348 68.3087 100.42 67.6866 101.17 66.4855C101.514 65.9302 101.54 65.0485 100.882 64.7048C100.223 64.3611 99.4212 64.8398 98.8308 65.0407C96.2693 65.8839 93.6109 66.3976 90.9196 66.5692C88.3197 66.8257 85.6973 66.7343 83.1215 66.2974C80.7645 65.805 78.4864 64.9908 76.3512 63.8778C74.1347 62.7746 71.9035 61.6182 69.4082 61.3638C66.9128 61.1093 64.4338 61.8775 62.1008 62.8296C59.6319 63.808 57.2704 64.977 54.9112 66.1589C52.727 67.3505 50.2529 67.907 47.7688 67.7656C42.64 67.453 37.6187 65.5212 32.4554 66.5024Z" fill="white"/>
</g>
<g style="mix-blend-mode:overlay">
<path fill-rule="evenodd" clip-rule="evenodd" d="M146.96 78.9802C146.84 79.0165 146.729 79.0781 146.635 79.1607C146.541 79.2434 146.465 79.3452 146.414 79.4593C146.362 79.5735 146.335 79.6974 146.336 79.8227C146.336 79.948 146.363 80.0718 146.415 80.1858C146.671 80.7918 147.269 80.703 147.8 80.6012C149.41 80.367 151.045 80.356 152.658 80.5685C156.068 80.9627 159.266 82.0627 162.564 82.8324C165.802 83.7269 169.229 83.6743 172.439 82.6808C175.499 81.6295 178.421 80.2401 181.488 79.1628C184.182 78.2274 187.007 77.2324 189.91 77.7854C192.683 78.306 195.102 79.9344 197.69 80.9995C203.008 83.1039 208.764 83.8598 214.445 83.1999C217.109 83.0153 219.736 82.4814 222.26 81.6121C223.706 81.0719 225.658 80.3516 226.527 78.9607C226.924 78.3177 226.955 77.2968 226.192 76.8988C225.43 76.5008 224.501 77.0551 223.818 77.2877C220.852 78.2641 217.773 78.8589 214.657 79.0577C211.647 79.3546 208.61 79.2488 205.627 78.7429C202.898 78.1727 200.26 77.23 197.788 75.9412C195.221 74.6637 192.638 73.3248 189.748 73.0301C186.859 72.7355 183.988 73.625 181.287 74.7275C178.428 75.8604 175.694 77.214 172.962 78.5826C170.433 79.9623 167.568 80.6067 164.691 80.443C158.753 80.081 152.938 77.8441 146.96 78.9802Z" fill="#68737D"/>
</g>
<g style="mix-blend-mode:multiply" opacity="0.5">
<path fill-rule="evenodd" clip-rule="evenodd" d="M140.392 111.713C140.506 111.748 140.612 111.806 140.702 111.885C140.791 111.964 140.863 112.061 140.912 112.17C140.961 112.279 140.987 112.397 140.987 112.516C140.986 112.635 140.961 112.753 140.911 112.862C140.667 113.439 140.097 113.355 139.591 113.258C138.057 113.035 136.499 113.024 134.962 113.227C131.713 113.602 128.665 114.65 125.523 115.384C122.437 116.236 119.172 116.186 116.114 115.239C113.198 114.238 110.414 112.914 107.491 111.887C104.924 110.996 102.233 110.048 99.4659 110.575C96.8242 111.071 94.5192 112.622 92.0532 113.637C86.9857 115.643 81.5008 116.363 76.0874 115.734C73.5498 115.558 71.0463 115.049 68.6412 114.221C67.2631 113.706 65.4033 113.02 64.5757 111.695C64.197 111.082 64.1676 110.109 64.8944 109.73C65.6212 109.351 66.5057 109.879 67.1571 110.101C69.9834 111.031 72.9165 111.598 75.8859 111.787C78.7545 112.07 81.648 111.969 84.4899 111.487C87.0904 110.944 89.604 110.046 91.9598 108.817C94.4055 107.6 96.8671 106.324 99.6204 106.044C102.374 105.763 105.109 106.61 107.683 107.661C110.407 108.74 113.012 110.03 115.616 111.334C118.025 112.649 120.755 113.263 123.496 113.107C129.155 112.762 134.695 110.631 140.392 111.713Z" fill="#E6EBEE"/>
<path fill-rule="evenodd" clip-rule="evenodd" d="M140.392 111.713C140.506 111.748 140.612 111.806 140.702 111.885C140.791 111.964 140.863 112.061 140.912 112.17C140.961 112.279 140.987 112.397 140.987 112.516C140.986 112.635 140.961 112.753 140.911 112.862C140.667 113.439 140.097 113.355 139.591 113.258C138.057 113.035 136.499 113.024 134.962 113.227C131.713 113.602 128.665 114.65 125.523 115.384C122.437 116.236 119.172 116.186 116.114 115.239C113.198 114.238 110.414 112.914 107.491 111.887C104.924 110.996 102.233 110.048 99.4659 110.575C96.8242 111.071 94.5192 112.622 92.0532 113.637C86.9857 115.643 81.5008 116.363 76.0874 115.734C73.5498 115.558 71.0463 115.049 68.6412 114.221C67.2631 113.706 65.4033 113.02 64.5757 111.695C64.197 111.082 64.1676 110.109 64.8944 109.73C65.6212 109.351 66.5057 109.879 67.1571 110.101C69.9834 111.031 72.9165 111.598 75.8859 111.787C78.7545 112.07 81.648 111.969 84.4899 111.487C87.0904 110.944 89.604 110.046 91.9598 108.817C94.4055 107.6 96.8671 106.324 99.6204 106.044C102.374 105.763 105.109 106.61 107.683 107.661C110.407 108.74 113.012 110.03 115.616 111.334C118.025 112.649 120.755 113.263 123.496 113.107C129.155 112.762 134.695 110.631 140.392 111.713Z" fill="url(#paint7_linear_470_38023)" fill-opacity="0.8" style="mix-blend-mode:color-burn"/>
<path fill-rule="evenodd" clip-rule="evenodd" d="M140.392 111.713C140.506 111.748 140.612 111.806 140.702 111.885C140.791 111.964 140.863 112.061 140.912 112.17C140.961 112.279 140.987 112.397 140.987 112.516C140.986 112.635 140.961 112.753 140.911 112.862C140.667 113.439 140.097 113.355 139.591 113.258C138.057 113.035 136.499 113.024 134.962 113.227C131.713 113.602 128.665 114.65 125.523 115.384C122.437 116.236 119.172 116.186 116.114 115.239C113.198 114.238 110.414 112.914 107.491 111.887C104.924 110.996 102.233 110.048 99.4659 110.575C96.8242 111.071 94.5192 112.622 92.0532 113.637C86.9857 115.643 81.5008 116.363 76.0874 115.734C73.5498 115.558 71.0463 115.049 68.6412 114.221C67.2631 113.706 65.4033 113.02 64.5757 111.695C64.197 111.082 64.1676 110.109 64.8944 109.73C65.6212 109.351 66.5057 109.879 67.1571 110.101C69.9834 111.031 72.9165 111.598 75.8859 111.787C78.7545 112.07 81.648 111.969 84.4899 111.487C87.0904 110.944 89.604 110.046 91.9598 108.817C94.4055 107.6 96.8671 106.324 99.6204 106.044C102.374 105.763 105.109 106.61 107.683 107.661C110.407 108.74 113.012 110.03 115.616 111.334C118.025 112.649 120.755 113.263 123.496 113.107C129.155 112.762 134.695 110.631 140.392 111.713Z" fill="#2F3941" fill-opacity="0.15" style="mix-blend-mode:multiply"/>
</g>
<g filter="url(#filter1_d_470_38023)">
<g clip-path="url(#clip1_470_38023)">
<rect x="55.249" y="31.1897" width="78.1739" height="81.9323" rx="2.00446" transform="rotate(-5.2158 55.249 31.1897)" fill="white"/>
<rect x="60.5836" y="40.0118" width="20.0446" height="2.00446" rx="1.00223" transform="rotate(-5.2158 60.5836 40.0118)" fill="#E9EBED"/>
<path fill-rule="evenodd" clip-rule="evenodd" d="M107.462 38.2395L107.382 37.3661C107.376 37.2972 107.315 37.2465 107.246 37.2528C107.177 37.259 107.126 37.32 107.133 37.3889L107.212 38.2622L104.218 38.5356L103.945 35.5413L104.818 35.4616C104.887 35.4553 104.938 35.3944 104.932 35.3254C104.925 35.2565 104.864 35.2058 104.795 35.2121L103.922 35.2918C103.778 35.3049 103.682 35.4203 103.695 35.5641L103.969 38.5583C103.982 38.7021 104.097 38.7982 104.241 38.7851L107.235 38.5117C107.379 38.4986 107.475 38.3832 107.462 38.2395ZM105.482 36.8216C105.438 36.8748 105.445 36.9538 105.498 36.998C105.552 37.0423 105.631 37.0351 105.675 36.9819L106.955 35.4444L107.064 36.6403C107.071 36.7093 107.132 36.76 107.201 36.7537C107.269 36.7474 107.32 36.6865 107.314 36.6176L107.177 35.1206L107.177 35.1205C107.177 35.1202 107.177 35.12 107.177 35.1197C107.176 35.1031 107.171 35.0875 107.163 35.0736C107.156 35.0594 107.146 35.0464 107.133 35.0356C107.12 35.0247 107.105 35.0169 107.09 35.0122C107.074 35.0074 107.058 35.0055 107.041 35.0071L105.544 35.1437C105.475 35.15 105.424 35.211 105.431 35.2799C105.437 35.3488 105.498 35.3996 105.567 35.3933L106.763 35.2841L105.482 36.8216Z" fill="#87929D" stroke="#87929D" stroke-width="0.250557"/>
<path d="M116.954 37.8762C116.79 37.8912 116.645 37.8457 116.52 37.7398C116.395 37.6339 116.325 37.5007 116.31 37.3401C116.308 37.3171 116.308 37.289 116.31 37.2558C116.312 37.2226 116.316 37.1924 116.324 37.1653L114.802 36.4565C114.758 36.52 114.7 36.5732 114.628 36.6161C114.556 36.6591 114.48 36.6841 114.402 36.6913C114.238 36.7063 114.093 36.6616 113.968 36.5574C113.843 36.4531 113.773 36.319 113.758 36.1552C113.743 35.9913 113.787 35.8467 113.892 35.7215C113.996 35.5963 114.13 35.5263 114.294 35.5113C114.373 35.5041 114.449 35.5128 114.524 35.5374C114.599 35.5619 114.667 35.6012 114.728 35.6551L116.098 34.6922C116.086 34.6702 116.076 34.6438 116.068 34.6131C116.061 34.5824 116.056 34.5539 116.053 34.5277C116.038 34.3638 116.083 34.2193 116.187 34.0941C116.291 33.9689 116.426 33.8988 116.589 33.8839C116.753 33.8689 116.898 33.9136 117.023 34.0178C117.148 34.1221 117.218 34.2561 117.233 34.42C117.248 34.5839 117.204 34.7284 117.099 34.8536C116.995 34.9788 116.861 35.0489 116.697 35.0639C116.618 35.071 116.541 35.0649 116.465 35.0454C116.389 35.0259 116.324 34.9906 116.269 34.9393L114.897 35.8678C114.905 35.8934 114.914 35.924 114.922 35.9596C114.93 35.9952 114.936 36.0245 114.938 36.0474C114.94 36.0704 114.94 36.0952 114.937 36.1219C114.935 36.1485 114.931 36.1769 114.927 36.207L116.447 36.8912C116.492 36.8409 116.548 36.7978 116.614 36.762C116.68 36.7262 116.758 36.7043 116.846 36.6962C117.01 36.6812 117.155 36.7259 117.28 36.8301C117.405 36.9344 117.475 37.0684 117.49 37.2323C117.505 37.3962 117.46 37.5408 117.356 37.666C117.252 37.7912 117.118 37.8612 116.954 37.8762ZM116.668 34.7394C116.743 34.7325 116.804 34.7013 116.85 34.6459C116.896 34.5904 116.916 34.525 116.909 34.4496C116.902 34.3742 116.871 34.3135 116.815 34.2673C116.76 34.2211 116.694 34.2015 116.619 34.2084C116.544 34.2153 116.483 34.2464 116.437 34.3019C116.391 34.3573 116.371 34.4227 116.378 34.4981C116.385 34.5735 116.416 34.6343 116.471 34.6804C116.527 34.7266 116.592 34.7463 116.668 34.7394ZM114.372 36.3668C114.447 36.3599 114.508 36.3288 114.554 36.2733C114.6 36.2179 114.62 36.1525 114.613 36.0771C114.606 36.0017 114.575 35.9409 114.52 35.8947C114.464 35.8486 114.399 35.8289 114.323 35.8358C114.248 35.8427 114.187 35.8738 114.141 35.9293C114.095 35.9847 114.075 36.0501 114.082 36.1255C114.089 36.2009 114.12 36.2617 114.176 36.3079C114.231 36.354 114.297 36.3737 114.372 36.3668ZM116.924 37.5517C117 37.5448 117.06 37.5136 117.107 37.4582C117.153 37.4028 117.172 37.3373 117.165 37.262C117.159 37.1866 117.127 37.1258 117.072 37.0796C117.017 37.0335 116.951 37.0138 116.876 37.0207C116.8 37.0276 116.74 37.0587 116.693 37.1142C116.647 37.1696 116.628 37.235 116.634 37.3104C116.641 37.3858 116.673 37.4466 116.728 37.4928C116.783 37.5389 116.849 37.5586 116.924 37.5517Z" fill="#49545C" stroke="#49545C" stroke-width="0.250557"/>
<path fill-rule="evenodd" clip-rule="evenodd" d="M124.326 36.5374C124.38 36.5816 124.459 36.5744 124.503 36.5213L125.556 35.256L126.822 36.3096C126.875 36.3539 126.954 36.3467 126.998 36.2935C127.042 36.2403 127.035 36.1613 126.982 36.117L125.717 35.0635L126.77 33.7983C126.814 33.7451 126.807 33.6661 126.754 33.6218C126.701 33.5776 126.622 33.5848 126.578 33.638L125.524 34.9032L124.259 33.8496C124.206 33.8053 124.127 33.8126 124.082 33.8657C124.038 33.9189 124.045 33.9979 124.099 34.0422L125.364 35.0957L124.31 36.3609C124.266 36.4141 124.273 36.4931 124.326 36.5374Z" fill="#87929D" stroke="#87929D" stroke-width="0.250557"/>
<mask id="mask0_470_38023" style="mask-type:luminance" maskUnits="userSpaceOnUse" x="123" y="33" width="5" height="4">
<path d="M126.518 33.5222C126.609 33.4496 126.741 33.4484 126.834 33.5257L126.87 33.5617C126.932 33.6397 126.942 33.7479 126.895 33.836L126.866 33.8788L125.892 35.0473L127.062 36.0212L127.097 36.0572C127.17 36.1482 127.171 36.2802 127.094 36.3733C127.016 36.4663 126.886 36.4891 126.784 36.434L126.742 36.4054L125.572 35.4315L124.599 36.601C124.522 36.6941 124.391 36.717 124.288 36.6618L124.246 36.6332C124.14 36.5447 124.126 36.3875 124.214 36.2812L125.187 35.1117L124.019 34.1387C123.912 34.0502 123.898 33.892 123.986 33.7857L124.022 33.75C124.113 33.6772 124.246 33.676 124.339 33.7535L125.508 34.7265L126.482 33.5579L126.518 33.5222Z" fill="white" stroke="white" stroke-width="0.250557"/>
</mask>
<g mask="url(#mask0_470_38023)">
</g>
<rect x="61.3125" y="47.9964" width="12.7784" height="4.00892" rx="2.00446" transform="rotate(-5.2158 61.3125 47.9964)" fill="#C57F12"/>
<path d="M63.0491 55.5593L63.1513 56.6792L64.4688 56.5589L64.5154 57.0694L63.1979 57.1897L63.3046 58.3589L64.7868 58.2236L64.8334 58.7342L62.7254 58.9266L62.3767 55.1059L64.4846 54.9135L64.5312 55.424L63.0491 55.5593ZM66.7599 57.014L67.8768 58.4563L67.1687 58.521L66.4217 57.5541L65.9006 58.6367L65.2474 58.6964L66.0887 57.1195L64.9713 55.6717L65.6794 55.607L66.4263 56.5739L66.9475 55.4913L67.6007 55.4317L66.7599 57.014ZM68.7338 55.7766C68.8272 55.6278 68.9611 55.4975 69.1354 55.3857C69.3097 55.2738 69.5121 55.2074 69.7427 55.1863C70.0062 55.1623 70.2519 55.2062 70.4798 55.3183C70.7111 55.4263 70.8997 55.5918 71.0455 55.8146C71.1913 56.0375 71.278 56.3008 71.3058 56.6045C71.3335 56.9083 71.2962 57.1866 71.1938 57.4395C71.0911 57.6887 70.9361 57.8911 70.7289 58.0465C70.525 58.198 70.2913 58.2857 70.0278 58.3098C69.7973 58.3308 69.5881 58.3038 69.4005 58.2287C69.2125 58.1499 69.0554 58.0462 68.9292 57.9174L69.1006 59.7948L68.4748 59.852L68.0674 55.389L68.6932 55.3319L68.7338 55.7766ZM70.669 56.6627C70.6499 56.4541 70.5897 56.2788 70.4881 56.1367C70.3899 55.9907 70.266 55.8858 70.1162 55.822C69.9698 55.7541 69.8161 55.7276 69.6551 55.7423C69.4977 55.7567 69.3513 55.8106 69.2159 55.9041C69.0842 55.9974 68.9815 56.1248 68.9077 56.2865C68.8375 56.4479 68.812 56.6329 68.831 56.8415C68.8501 57.0501 68.9089 57.2293 69.0074 57.3789C69.1093 57.5246 69.2334 57.6314 69.3798 57.6992C69.5299 57.7667 69.6836 57.7932 69.841 57.7789C70.002 57.7642 70.1484 57.7102 70.2801 57.617C70.4151 57.5198 70.5175 57.3887 70.5874 57.2236C70.6608 57.0583 70.688 56.8713 70.669 56.6627ZM73.3804 58.0038C73.095 58.0298 72.8311 57.9893 72.5889 57.8823C72.3463 57.7716 72.1484 57.6051 71.9953 57.3829C71.8418 57.1571 71.7509 56.8886 71.7225 56.5776C71.6944 56.2702 71.7373 55.9913 71.8509 55.7411C71.9646 55.4909 72.1327 55.291 72.3553 55.1415C72.5778 54.9921 72.8336 54.9041 73.1227 54.8778C73.4118 54.8514 73.6793 54.8915 73.9253 54.9982C74.1712 55.1049 74.3727 55.271 74.5298 55.4966C74.6869 55.7221 74.7795 55.9885 74.8076 56.2959C74.8356 56.6034 74.791 56.8823 74.6736 57.1329C74.5563 57.3835 74.3829 57.5857 74.1533 57.7395C73.9272 57.8893 73.6695 57.9774 73.3804 58.0038ZM73.3308 57.4603C73.4918 57.4456 73.6384 57.3935 73.7704 57.3039C73.9061 57.214 74.0109 57.0882 74.0847 56.9265C74.1585 56.7648 74.1853 56.5742 74.1653 56.3546C74.1453 56.135 74.0863 55.954 73.9884 55.8117C73.8902 55.6656 73.7681 55.5606 73.622 55.4964C73.4759 55.4322 73.3224 55.4075 73.1614 55.4222C73.0003 55.4369 72.8538 55.489 72.7217 55.5786C72.5934 55.6678 72.4959 55.7929 72.4294 55.954C72.3626 56.1114 72.3392 56.2999 72.3593 56.5194C72.389 56.8451 72.4944 57.0901 72.6755 57.2544C72.8598 57.4147 73.0783 57.4833 73.3308 57.4603ZM76.6669 57.7037C76.429 57.7255 76.2111 57.7029 76.0131 57.6361C75.8185 57.5653 75.6596 57.4617 75.5364 57.3254C75.4129 57.1854 75.3392 57.0242 75.3151 56.8419L75.9629 56.7827C75.9856 56.9098 76.0558 57.0123 76.1736 57.0901C76.2947 57.1639 76.4395 57.1931 76.6078 57.1778C76.7835 57.1617 76.9159 57.1164 77.005 57.0419C77.0975 56.9633 77.1389 56.871 77.1292 56.7648C77.1188 56.6514 77.0562 56.5722 76.9414 56.5274C76.8303 56.4822 76.6546 56.4373 76.4144 56.3928C76.1818 56.3513 75.9915 56.3078 75.8434 56.2623C75.6954 56.2168 75.5627 56.1384 75.4456 56.0274C75.3321 55.916 75.2663 55.7614 75.2483 55.5638C75.2336 55.4028 75.2678 55.2521 75.3509 55.1116C75.4337 54.9675 75.5594 54.8491 75.7281 54.7562C75.9004 54.6629 76.1018 54.6058 76.3324 54.5848C76.6764 54.5534 76.9607 54.616 77.1853 54.7726C77.4133 54.9252 77.5483 55.1509 77.5903 55.4497L76.9645 55.5068C76.9412 55.3724 76.8764 55.2694 76.7703 55.1979C76.6641 55.1264 76.5269 55.0984 76.3585 55.1138C76.1938 55.1288 76.0704 55.1714 75.9883 55.2417C75.9061 55.3119 75.8697 55.3982 75.8791 55.5007C75.8864 55.5812 75.9219 55.6462 75.9854 55.6958C76.049 55.7453 76.1244 55.7827 76.2116 55.808C76.2984 55.8296 76.4263 55.8567 76.5954 55.8892C76.8203 55.9277 77.0051 55.9717 77.1499 56.0212C77.2979 56.0668 77.4285 56.1434 77.5417 56.2512C77.6549 56.3589 77.7221 56.5096 77.7435 56.7032C77.7592 56.8752 77.7257 57.0333 77.6429 57.1774C77.5601 57.3215 77.4344 57.44 77.2657 57.5328C77.1007 57.6254 76.9011 57.6824 76.6669 57.7037ZM81.1242 55.6474C81.1346 55.7608 81.1366 55.864 81.1303 55.9568L78.8193 56.1678C78.8596 56.4076 78.967 56.5934 79.1414 56.7251C79.3157 56.8568 79.52 56.9119 79.7543 56.8905C80.0909 56.8598 80.316 56.6972 80.4293 56.4027L81.1045 56.3411C81.0384 56.6276 80.8928 56.8715 80.6676 57.0729C80.4458 57.2702 80.1573 57.3851 79.8024 57.4175C79.5133 57.4439 79.2476 57.4036 79.0053 57.2966C78.7664 57.1855 78.5704 57.0189 78.4172 56.7967C78.2674 56.5705 78.1783 56.3019 78.15 55.9908C78.1216 55.6798 78.1589 55.4014 78.2619 55.1559C78.3683 54.9063 78.5291 54.7071 78.7443 54.5583C78.9632 54.4092 79.2208 54.3211 79.5172 54.294C79.8027 54.268 80.0627 54.307 80.2973 54.411C80.5319 54.5151 80.7218 54.6749 80.8669 54.8904C81.0117 55.1023 81.0975 55.3546 81.1242 55.6474ZM80.4529 55.5094C80.4282 55.2792 80.329 55.1019 80.1553 54.9775C79.9816 54.8531 79.7758 54.8018 79.5379 54.8235C79.322 54.8432 79.1435 54.9296 79.0025 55.0827C78.8612 55.2322 78.7865 55.4253 78.7786 55.6622L80.4529 55.5094ZM81.537 55.6706C81.5092 55.3668 81.5469 55.0922 81.6499 54.8466C81.7566 54.6007 81.9121 54.4038 82.1163 54.256C82.3239 54.1042 82.5612 54.0162 82.8284 53.9918C83.026 53.9737 83.224 53.9999 83.4223 54.0704C83.6239 54.1369 83.788 54.2363 83.9145 54.3687L83.7812 52.9085L84.4125 52.8508L84.7833 56.913L84.152 56.9706L84.1104 56.515C84.0213 56.6708 83.8896 56.8046 83.7153 56.9164C83.5447 57.0279 83.3422 57.0944 83.108 57.1158C82.8445 57.1398 82.597 57.096 82.3654 56.9843C82.1371 56.8686 81.9481 56.6977 81.7983 56.4715C81.6518 56.2413 81.5647 55.9743 81.537 55.6706ZM84.0137 55.4556C83.9947 55.247 83.9342 55.0698 83.8323 54.9241C83.7341 54.7781 83.6118 54.6712 83.4654 54.6034C83.319 54.5356 83.1653 54.509 83.0043 54.5237C82.8432 54.5384 82.6969 54.5924 82.5652 54.6856C82.4331 54.7751 82.3302 54.9007 82.2564 55.0625C82.1859 55.2202 82.1602 55.4034 82.1792 55.612C82.1983 55.8206 82.2571 55.9997 82.3556 56.1494C82.4578 56.2987 82.5823 56.4091 82.729 56.4806C82.8791 56.5481 83.0328 56.5746 83.1902 56.5603C83.3512 56.5456 83.4976 56.4916 83.6293 56.3984C83.761 56.3052 83.8619 56.1779 83.9321 56.0165C84.0055 55.8512 84.0327 55.6642 84.0137 55.4556ZM89.2601 55.7184L87.6627 55.8642L87.4594 56.6687L86.8062 56.7284L87.8243 52.7829L88.5489 52.7168L90.2645 56.4127L89.6058 56.4728L89.2601 55.7184ZM89.0379 55.2239L88.2557 53.5074L87.7918 55.3376L89.0379 55.2239ZM93.2821 53.436C93.2999 53.63 93.2708 53.8172 93.195 53.9975C93.1192 54.1779 92.9857 54.3321 92.7945 54.4603C92.6029 54.5848 92.3497 54.6614 92.035 54.6901L91.3433 54.7533L91.4846 56.3013L90.8588 56.3584L90.5105 52.5433L91.828 52.423C92.1208 52.3963 92.3725 52.425 92.5831 52.509C92.7971 52.5891 92.9613 52.7107 93.0758 52.8737C93.194 53.0363 93.2628 53.2238 93.2821 53.436ZM91.9884 54.1796C92.2262 54.1579 92.3989 54.0886 92.5063 53.9718C92.6134 53.8513 92.6579 53.6923 92.6399 53.4947C92.6018 53.0775 92.3467 52.8904 91.8746 52.9335L91.1829 52.9966L91.2967 54.2428L91.9884 54.1796ZM94.4011 52.1881L94.7493 56.0033L94.1235 56.0604L93.7753 52.2452L94.4011 52.1881ZM96.6733 55.8775C96.4355 55.8992 96.2175 55.8766 96.0196 55.8098C95.8249 55.739 95.666 55.6355 95.5428 55.4991C95.4194 55.3591 95.3456 55.1979 95.3216 55.0156L95.9693 54.9565C95.992 55.0835 96.0622 55.186 96.18 55.2638C96.3012 55.3376 96.4459 55.3668 96.6143 55.3515C96.7899 55.3354 96.9223 55.2901 97.0115 55.2156C97.1039 55.137 97.1453 55.0447 97.1356 54.9386C97.1253 54.8251 97.0627 54.7459 96.9479 54.7011C96.8367 54.6559 96.6611 54.611 96.4208 54.5665C96.1883 54.525 95.9979 54.4815 95.8499 54.436C95.7018 54.3905 95.5692 54.3122 95.452 54.2011C95.3385 54.0897 95.2728 53.9351 95.2547 53.7375C95.24 53.5765 95.2742 53.4258 95.3574 53.2853C95.4402 53.1413 95.5659 53.0228 95.7345 52.9299C95.9068 52.8367 96.1083 52.7795 96.3388 52.7585C96.6828 52.7271 96.9671 52.7897 97.1918 52.9463C97.4197 53.0989 97.5547 53.3246 97.5968 53.6234L96.971 53.6805C96.9476 53.5461 96.8829 53.4431 96.7767 53.3717C96.6706 53.3002 96.5333 53.2721 96.365 53.2875C96.2003 53.3025 96.0769 53.3451 95.9947 53.4154C95.9126 53.4856 95.8762 53.5719 95.8855 53.6744C95.8929 53.7549 95.9283 53.82 95.9919 53.8695C96.0554 53.9191 96.1308 53.9565 96.218 53.9817C96.3048 54.0033 96.4328 54.0304 96.6018 54.0629C96.8267 54.1014 97.0116 54.1454 97.1563 54.195C97.3044 54.2405 97.435 54.3171 97.5481 54.4249C97.6613 54.5326 97.7286 54.6833 97.7499 54.8769C97.7656 55.0489 97.7321 55.207 97.6493 55.3511C97.5665 55.4952 97.4408 55.6137 97.2721 55.7066C97.1072 55.7991 96.9076 55.8561 96.6733 55.8775Z" fill="#49545C"/>
<rect x="62.7687" y="63.9479" width="66.3977" height="2.50557" rx="1.25279" transform="rotate(-5.2158 62.7687 63.9479)" fill="#E6EBEE"/>
<rect x="63.2698" y="69.4374" width="20.0446" height="2.00446" rx="1.00223" transform="rotate(-5.2158 63.2698 69.4374)" fill="#E9EBED"/>
<rect x="85.2276" y="67.4327" width="0.250557" height="2.00446" transform="rotate(-5.2158 85.2276 67.4327)" fill="#D8DCDE"/>
<rect x="87.4732" y="67.228" width="20.0446" height="2.00446" rx="1.00223" transform="rotate(-5.2158 87.4732 67.228)" fill="#E9EBED"/>
<rect x="109.431" y="65.2236" width="20.0446" height="2.00446" rx="1.00223" transform="rotate(-5.2158 109.431 65.2236)" fill="#E9EBED"/>
<g filter="url(#filter2_d_470_38023)">
<path d="M69.42 78.9302C69.5689 78.9167 69.7036 78.9345 69.8231 78.9846C69.9448 79.0322 70.0423 79.098 70.1156 79.1805L70.09 78.9004L70.4916 78.8638L70.6703 80.8205C70.6864 80.9974 70.6634 81.1582 70.6015 81.3023C70.5398 81.4487 70.4412 81.5677 70.3066 81.6597C70.1742 81.7516 70.0101 81.8064 69.8146 81.8243C69.5538 81.8481 69.3307 81.8066 69.1471 81.6989C68.964 81.5935 68.8515 81.437 68.8091 81.2296L69.204 81.1936C69.2434 81.2909 69.3143 81.3657 69.4176 81.4173C69.5235 81.471 69.6457 81.4916 69.7831 81.479C69.9435 81.4643 70.068 81.4034 70.1568 81.2969C70.2479 81.1899 70.2856 81.0433 70.2686 80.8571L70.2392 80.5352C70.18 80.6322 70.0947 80.7174 69.9841 80.7909C69.8756 80.8618 69.748 80.9046 69.6015 80.918C69.4339 80.9333 69.2763 80.9047 69.129 80.8337C68.9837 80.7601 68.8631 80.6517 68.7677 80.5078C68.6746 80.3613 68.6193 80.1915 68.6016 79.9983C68.584 79.805 68.6078 79.6302 68.6734 79.474C68.7413 79.3175 68.8405 79.1918 68.9705 79.0977C69.1025 79.0013 69.2525 78.9455 69.42 78.9302ZM67.0519 79.1464C67.2032 79.1326 67.3378 79.1505 67.455 79.2008C67.5745 79.2486 67.6719 79.3144 67.7475 79.3967L67.7219 79.1166L68.1236 79.0799L68.2993 81.0045L67.8976 81.0412L67.8715 80.7553C67.8124 80.852 67.7276 80.936 67.617 81.007C67.506 81.0782 67.3756 81.1212 67.2266 81.1348C67.0612 81.1499 66.9059 81.1212 66.7609 81.0499C66.6157 80.9762 66.4949 80.8678 66.3997 80.7239C66.3066 80.5775 66.2512 80.4076 66.2335 80.2145C66.2159 80.0213 66.2398 79.8463 66.3053 79.6901C66.3732 79.5336 66.4724 79.408 66.6024 79.3139C66.7344 79.2174 66.8843 79.1617 67.0519 79.1464ZM65.8598 79.1071L65.2141 79.1661L65.406 81.2687L65.0073 81.3051L64.8153 79.2025L64.1657 79.2618L64.136 78.937L65.8302 78.7823L65.8598 79.1071ZM67.1672 79.485C67.0649 79.4944 66.972 79.5287 66.8883 79.5879C66.8043 79.6449 66.7384 79.7246 66.6915 79.8275C66.6467 79.9278 66.6308 80.0444 66.643 80.1771C66.6551 80.3097 66.6919 80.4237 66.7546 80.5189C66.8196 80.614 66.8991 80.6841 66.9925 80.7296C67.0878 80.7725 67.1854 80.7894 67.2854 80.7804C67.3879 80.771 67.4815 80.7366 67.5653 80.6773C67.6491 80.618 67.7132 80.5369 67.7579 80.4342C67.8046 80.329 67.8217 80.2101 67.8096 80.0774C67.7975 79.9447 67.7592 79.8316 67.6944 79.7389C67.632 79.6462 67.554 79.5787 67.4611 79.5356C67.3679 79.4924 67.2696 79.4756 67.1672 79.485ZM69.5352 79.2688C69.4328 79.2781 69.3392 79.3125 69.2554 79.3718C69.1715 79.4288 69.1064 79.5086 69.0595 79.6113C69.0147 79.7117 68.9979 79.8283 69.0101 79.961C69.0222 80.0937 69.06 80.2075 69.1227 80.3028C69.1876 80.3976 69.2664 80.4681 69.3596 80.5135C69.4551 80.5565 69.5534 80.5733 69.6535 80.5642C69.7558 80.5548 69.8487 80.5204 69.9324 80.4613C70.0162 80.4019 70.0813 80.3207 70.1259 80.218C70.1726 80.1129 70.1898 79.9939 70.1777 79.8613C70.1656 79.7285 70.1273 79.6154 70.0625 79.5227C70 79.4298 69.9213 79.3627 69.8282 79.3195C69.7351 79.2764 69.6376 79.2595 69.5352 79.2688Z" fill="#003A57"/>
<rect x="64.5355" y="83.3126" width="69.1539" height="7.01561" rx="3.5078" transform="rotate(-5.2158 64.5355 83.3126)" fill="white"/>
<rect x="64.5355" y="83.3126" width="69.1539" height="7.01561" rx="2.00446" transform="rotate(-5.2158 64.5355 83.3126)" fill="#E9EBED"/>
</g>
<path d="M67.3838 102.853C67.6423 102.829 67.8728 102.859 68.0752 102.941C68.2798 103.021 68.4429 103.149 68.5647 103.326C68.6887 103.5 68.7619 103.711 68.7844 103.958C68.807 104.205 68.773 104.424 68.6824 104.615C68.5942 104.806 68.4567 104.96 68.27 105.075C68.0855 105.189 67.8639 105.257 67.6054 105.281L66.8125 105.353L66.5908 102.925L67.3838 102.853ZM67.5758 104.956C67.8599 104.93 68.0706 104.833 68.208 104.666C68.3453 104.498 68.4012 104.274 68.3757 103.995C68.35 103.713 68.2542 103.5 68.0884 103.356C67.9226 103.211 67.6976 103.152 67.4135 103.178L67.0187 103.214L67.181 104.992L67.5758 104.956ZM70.9227 103.96C70.9292 104.032 70.9305 104.098 70.9265 104.157L69.4559 104.291C69.4815 104.444 69.5499 104.562 69.6608 104.646C69.7718 104.729 69.9018 104.764 70.0509 104.751C70.2651 104.731 70.4083 104.628 70.4804 104.44L70.9101 104.401C70.8681 104.584 70.7754 104.739 70.6321 104.867C70.4909 104.993 70.3074 105.066 70.0815 105.086C69.8975 105.103 69.7284 105.077 69.5743 105.009C69.4222 104.939 69.2975 104.833 69.2 104.691C69.1047 104.547 69.048 104.376 69.03 104.178C69.0119 103.98 69.0356 103.803 69.1012 103.647C69.1689 103.488 69.2712 103.361 69.4082 103.267C69.5474 103.172 69.7114 103.116 69.9 103.099C70.0817 103.082 70.2472 103.107 70.3964 103.173C70.5457 103.239 70.6666 103.341 70.7589 103.478C70.8511 103.613 70.9056 103.773 70.9227 103.96ZM70.4955 103.872C70.4798 103.725 70.4166 103.613 70.3061 103.534C70.1955 103.454 70.0646 103.422 69.9132 103.436C69.7758 103.448 69.6622 103.503 69.5725 103.6C69.4825 103.696 69.4351 103.818 69.43 103.969L70.4955 103.872ZM72.0698 104.905C71.9184 104.919 71.7798 104.904 71.6538 104.862C71.5299 104.817 71.4288 104.751 71.3504 104.664C71.2718 104.575 71.2249 104.472 71.2096 104.356L71.6218 104.319C71.6362 104.4 71.6809 104.465 71.7559 104.514C71.833 104.561 71.9251 104.58 72.0322 104.57C72.144 104.56 72.2283 104.531 72.285 104.484C72.3438 104.434 72.3702 104.375 72.364 104.307C72.3574 104.235 72.3176 104.185 72.2445 104.156C72.1738 104.127 72.062 104.099 71.9091 104.071C71.7611 104.044 71.64 104.016 71.5458 103.987C71.4516 103.958 71.3672 103.909 71.2926 103.838C71.2204 103.767 71.1785 103.669 71.1671 103.543C71.1577 103.44 71.1795 103.345 71.2324 103.255C71.2851 103.164 71.3651 103.088 71.4724 103.029C71.582 102.97 71.7102 102.933 71.8569 102.92C72.0758 102.9 72.2568 102.94 72.3997 103.039C72.5448 103.137 72.6307 103.28 72.6574 103.47L72.2592 103.507C72.2444 103.421 72.2032 103.356 72.1356 103.31C72.068 103.265 71.9807 103.247 71.8736 103.257C71.7688 103.266 71.6902 103.293 71.638 103.338C71.5857 103.383 71.5625 103.438 71.5685 103.503C71.5731 103.554 71.5957 103.595 71.6362 103.627C71.6766 103.658 71.7246 103.682 71.78 103.698C71.8353 103.712 71.9167 103.729 72.0243 103.75C72.1674 103.775 72.285 103.803 72.3772 103.834C72.4714 103.863 72.5545 103.912 72.6265 103.98C72.6985 104.049 72.7413 104.145 72.7549 104.268C72.7649 104.378 72.7436 104.478 72.6909 104.57C72.6382 104.661 72.5582 104.737 72.4509 104.796C72.3459 104.855 72.2189 104.891 72.0698 104.905ZM72.9751 103.818C72.9571 103.62 72.9808 103.443 73.0464 103.287C73.1141 103.128 73.2153 103.001 73.3499 102.907C73.4845 102.812 73.6438 102.757 73.8278 102.74C74.0607 102.719 74.2579 102.757 74.4195 102.855C74.5832 102.951 74.7011 103.098 74.7734 103.298L74.3437 103.338C74.3001 103.245 74.2374 103.176 74.1557 103.129C74.0739 103.083 73.9748 103.065 73.8584 103.075C73.6954 103.09 73.5703 103.16 73.4831 103.286C73.398 103.409 73.3649 103.574 73.3839 103.781C73.4028 103.988 73.4653 104.146 73.5714 104.253C73.6799 104.361 73.8156 104.407 73.9786 104.392C74.2092 104.371 74.3524 104.256 74.4085 104.047L74.8382 104.007C74.8001 104.208 74.7096 104.374 74.5665 104.504C74.4232 104.632 74.2374 104.707 74.0092 104.728C73.8252 104.744 73.6585 104.719 73.509 104.65C73.3593 104.579 73.2369 104.473 73.1418 104.331C73.0488 104.187 72.9932 104.016 72.9751 103.818ZM75.5001 102.901C75.5494 102.798 75.6194 102.715 75.7099 102.653C75.8027 102.588 75.9154 102.549 76.0481 102.537L76.0858 102.95L75.9845 102.959C75.8284 102.973 75.7133 103.023 75.639 103.11C75.567 103.196 75.54 103.338 75.5578 103.533L75.6503 104.546L75.2521 104.583L75.0764 102.658L75.4746 102.621L75.5001 102.901ZM76.558 102.265C76.4858 102.272 76.423 102.253 76.3696 102.209C76.3162 102.164 76.2863 102.106 76.2797 102.034C76.2731 101.961 76.292 101.899 76.3365 101.845C76.3809 101.792 76.4392 101.762 76.5114 101.755C76.5813 101.749 76.6429 101.768 76.6963 101.812C76.7496 101.857 76.7796 101.915 76.7862 101.987C76.7928 102.06 76.7739 102.122 76.7294 102.176C76.685 102.229 76.6278 102.259 76.558 102.265ZM76.7769 102.503L76.9526 104.427L76.5543 104.464L76.3786 102.539L76.7769 102.503ZM77.6853 102.705C77.7448 102.61 77.83 102.527 77.9409 102.456C78.0518 102.385 78.1806 102.343 78.3274 102.329C78.495 102.314 78.6514 102.342 78.7965 102.413C78.9436 102.482 79.0636 102.587 79.1564 102.729C79.2492 102.871 79.3044 103.038 79.322 103.232C79.3397 103.425 79.3159 103.602 79.2508 103.763C79.1854 103.922 79.0868 104.05 78.9549 104.149C78.8252 104.246 78.6765 104.302 78.5088 104.317C78.3621 104.33 78.229 104.313 78.1096 104.265C77.9899 104.215 77.89 104.149 77.8097 104.067L77.9188 105.262L77.5205 105.298L77.2613 102.458L77.6595 102.422L77.6853 102.705ZM78.9168 103.269C78.9047 103.136 78.8663 103.024 78.8017 102.934C78.7392 102.841 78.6604 102.774 78.5651 102.734C78.4719 102.691 78.3741 102.674 78.2716 102.683C78.1715 102.692 78.0783 102.727 77.9922 102.786C77.9083 102.845 77.843 102.927 77.796 103.029C77.7514 103.132 77.7351 103.25 77.7472 103.383C77.7593 103.515 77.7967 103.629 77.8594 103.725C77.9243 103.817 78.0033 103.885 78.0964 103.928C78.1919 103.971 78.2898 103.988 78.3899 103.979C78.4924 103.97 78.5855 103.935 78.6693 103.876C78.7553 103.814 78.8205 103.731 78.8649 103.626C78.9116 103.521 78.9289 103.402 78.9168 103.269ZM80.0846 102.528L80.1819 103.594C80.1885 103.666 80.2096 103.717 80.2452 103.746C80.2828 103.773 80.3425 103.783 80.424 103.776L80.6685 103.753L80.6988 104.085L80.3844 104.114C80.2051 104.13 80.0638 104.101 79.9607 104.026C79.8576 103.951 79.7974 103.819 79.7802 103.63L79.6829 102.565L79.4558 102.586L79.4262 102.261L79.6533 102.24L79.6096 101.761L80.0113 101.725L80.055 102.203L80.5231 102.161L80.5527 102.485L80.0846 102.528ZM81.031 101.857C80.9588 101.864 80.896 101.845 80.8427 101.8C80.7893 101.756 80.7593 101.698 80.7527 101.625C80.7461 101.553 80.7651 101.49 80.8095 101.437C80.854 101.384 80.9123 101.354 80.9845 101.347C81.0543 101.341 81.116 101.36 81.1693 101.404C81.2227 101.449 81.2527 101.507 81.2593 101.579C81.2659 101.651 81.2469 101.714 81.2025 101.767C81.158 101.821 81.1009 101.851 81.031 101.857ZM81.2499 102.094L81.4256 104.019L81.0274 104.055L80.8517 102.131L81.2499 102.094ZM82.7478 103.93C82.5662 103.947 82.3983 103.921 82.2441 103.853C82.0897 103.782 81.9638 103.676 81.8664 103.535C81.7687 103.391 81.7109 103.22 81.6928 103.022C81.6749 102.827 81.7022 102.649 81.7745 102.49C81.8469 102.331 81.9539 102.204 82.0955 102.109C82.2371 102.013 82.3999 101.958 82.5838 101.941C82.7678 101.924 82.9381 101.949 83.0945 102.017C83.251 102.085 83.3793 102.191 83.4792 102.335C83.5792 102.478 83.6382 102.648 83.656 102.843C83.6739 103.039 83.6455 103.216 83.5708 103.376C83.4961 103.535 83.3857 103.664 83.2397 103.762C83.0958 103.857 82.9318 103.913 82.7478 103.93ZM82.7162 103.584C82.8187 103.575 82.912 103.542 82.996 103.485C83.0824 103.427 83.149 103.347 83.196 103.244C83.243 103.142 83.2601 103.02 83.2473 102.881C83.2345 102.741 83.197 102.626 83.1347 102.535C83.0723 102.442 82.9945 102.375 82.9016 102.334C82.8086 102.294 82.7109 102.278 82.6084 102.287C82.506 102.297 82.4127 102.33 82.3287 102.387C82.247 102.443 82.185 102.523 82.1427 102.626C82.1001 102.726 82.0853 102.846 82.098 102.985C82.1169 103.193 82.184 103.349 82.2992 103.453C82.4165 103.555 82.5556 103.599 82.7162 103.584ZM84.8918 101.73C85.0432 101.716 85.1812 101.735 85.3057 101.787C85.4325 101.839 85.5353 101.924 85.6141 102.041C85.6929 102.158 85.7403 102.304 85.7563 102.479L85.8599 103.614L85.4651 103.65L85.3669 102.574C85.3512 102.402 85.2961 102.274 85.2016 102.191C85.107 102.106 84.9851 102.07 84.8361 102.084C84.687 102.097 84.5725 102.155 84.4925 102.256C84.4146 102.355 84.3836 102.49 84.3993 102.663L84.4975 103.739L84.0993 103.775L83.9236 101.85L84.3218 101.814L84.3419 102.034C84.3999 101.949 84.4769 101.879 84.573 101.826C84.6714 101.772 84.7777 101.74 84.8918 101.73Z" fill="#68737D"/>
<path d="M86.6065 115.618C87.1577 115.568 87.6461 115.974 87.6964 116.526C87.7465 117.077 87.3398 117.564 86.7888 117.615L68.8234 119.255C68.2725 119.305 67.785 118.899 67.7345 118.348C67.6842 117.797 68.0901 117.309 68.6411 117.258L86.6065 115.618ZM135.148 107.161C135.699 107.111 136.187 107.518 136.237 108.069C136.287 108.62 135.881 109.108 135.33 109.158L68.459 115.262C67.908 115.313 67.4206 114.907 67.3701 114.356C67.3198 113.805 67.7256 113.316 68.2767 113.266L135.148 107.161ZM134.784 103.169C135.335 103.119 135.823 103.525 135.874 104.076C135.924 104.627 135.517 105.116 134.966 105.166L68.0946 111.27C67.5434 111.32 67.0559 110.914 67.0056 110.363C66.9554 109.812 67.3613 109.324 67.9123 109.274L134.784 103.169Z" fill="#E9EBED"/>
</g>
</g>
<path d="M146.26 98.7751L144.816 112.193C144.816 112.193 142.005 107.944 140.102 109.838C138.289 111.645 135.087 124.821 135.087 124.821C135.087 124.821 135.045 129.118 137.329 130.254C144.655 133.904 152.82 127.046 152.82 127.046L151.654 88.64C148.616 91.1966 146.684 94.8277 146.26 98.7751Z" fill="#1466A9"/>
<path d="M153.837 57.754C156.835 56.4652 160.122 56 163.359 56.4073C166.597 56.8146 169.667 58.0793 172.252 60.0704L173.033 60.6671L172.647 66.0655C173.477 65.8869 175.992 65.6175 175.894 68.6681C175.788 71.9397 172.818 71.5324 172.269 71.3516L170.976 89.4473L158.301 88.4366C158.223 86.9455 158.327 81.2296 158.327 81.2296C158.308 81.2265 153.052 80.3998 152.989 75.1378C152.927 69.8725 153.835 57.7844 153.837 57.754Z" fill="#E6EBEE"/>
<path d="M153.837 57.754C156.835 56.4652 160.122 56 163.359 56.4073C166.597 56.8146 169.667 58.0793 172.252 60.0704L173.033 60.6671L172.647 66.0655C173.477 65.8869 175.992 65.6175 175.894 68.6681C175.788 71.9397 172.818 71.5324 172.269 71.3516L170.976 89.4473L158.301 88.4366C158.223 86.9455 158.327 81.2296 158.327 81.2296C158.308 81.2265 153.052 80.3998 152.989 75.1378C152.927 69.8725 153.835 57.7844 153.837 57.754Z" fill="url(#paint8_linear_470_38023)" fill-opacity="0.8" style="mix-blend-mode:color-burn"/>
<path d="M153.837 57.754C156.835 56.4652 160.122 56 163.359 56.4073C166.597 56.8146 169.667 58.0793 172.252 60.0704L173.033 60.6671L172.647 66.0655C173.477 65.8869 175.992 65.6175 175.894 68.6681C175.788 71.9397 172.818 71.5324 172.269 71.3516L170.976 89.4473L158.301 88.4366C158.223 86.9455 158.327 81.2296 158.327 81.2296C158.308 81.2265 153.052 80.3998 152.989 75.1378C152.927 69.8725 153.835 57.7844 153.837 57.754Z" fill="#2F3941" fill-opacity="0.15" style="mix-blend-mode:multiply"/>
<path d="M158.318 81.1557C160.753 81.2017 163.147 80.5218 165.194 79.2026C165.194 79.2026 163.569 82.9954 158.306 82.5213L158.318 81.1557Z" fill="#E6EBEE"/>
<path d="M158.318 81.1557C160.753 81.2017 163.147 80.5218 165.194 79.2026C165.194 79.2026 163.569 82.9954 158.306 82.5213L158.318 81.1557Z" fill="url(#paint9_linear_470_38023)" fill-opacity="0.8" style="mix-blend-mode:color-burn"/>
<path d="M158.318 81.1557C160.753 81.2017 163.147 80.5218 165.194 79.2026C165.194 79.2026 163.569 82.9954 158.306 82.5213L158.318 81.1557Z" fill="#2F3941" fill-opacity="0.15" style="mix-blend-mode:multiply"/>
<path d="M173.152 69.9205C173.17 69.9205 173.215 69.9653 173.319 70.0189C173.466 70.0878 173.634 70.0964 173.788 70.0428C174.175 69.9146 174.515 69.3212 174.554 68.6712C174.57 68.3657 174.519 68.0604 174.405 67.7766C174.375 67.6627 174.318 67.5578 174.239 67.471C174.159 67.3842 174.06 67.3181 173.949 67.2786C173.877 67.2566 173.8 67.2608 173.731 67.2902C173.662 67.3197 173.606 67.3727 173.573 67.4397C173.522 67.5381 173.54 67.6096 173.522 67.6156C173.504 67.6216 173.448 67.553 173.48 67.4039C173.505 67.3162 173.557 67.2388 173.63 67.1832C173.731 67.113 173.856 67.0842 173.978 67.1027C174.127 67.1388 174.265 67.2127 174.377 67.3171C174.489 67.4215 174.573 67.5531 174.62 67.6991C174.761 68.0165 174.824 68.3631 174.804 68.7099C174.757 69.4345 174.363 70.1024 173.838 70.2366C173.741 70.2623 173.638 70.2654 173.539 70.2458C173.44 70.2262 173.346 70.1843 173.266 70.1233C173.158 70.007 173.141 69.9265 173.152 69.9205Z" fill="#547B8E"/>
<path d="M154.999 65.9187C154.997 66.1152 155.073 66.3047 155.208 66.4467C155.344 66.5887 155.53 66.6721 155.727 66.6791C155.823 66.6868 155.919 66.6752 156.01 66.6449C156.102 66.6147 156.186 66.5664 156.258 66.503C156.33 66.4397 156.389 66.3624 156.431 66.2759C156.473 66.1893 156.497 66.0952 156.502 65.9992C156.504 65.8032 156.429 65.6141 156.294 65.4722C156.159 65.3303 155.973 65.2466 155.777 65.2388C155.682 65.2315 155.585 65.2434 155.494 65.2738C155.403 65.3041 155.318 65.3524 155.246 65.4156C155.173 65.4789 155.114 65.556 155.072 65.6424C155.03 65.7287 155.005 65.8227 154.999 65.9187Z" fill="#001825"/>
<path d="M154.835 65.1731C154.928 65.2715 155.5 64.8481 156.309 64.8511C157.117 64.8541 157.713 65.2596 157.799 65.1493C157.841 65.1046 157.746 64.9257 157.501 64.7378C157.151 64.4957 156.734 64.3677 156.309 64.371C155.887 64.3695 155.475 64.5021 155.134 64.7497C154.874 64.9525 154.791 65.1284 154.835 65.1731Z" fill="#001825"/>
<path d="M162.937 66.2168C162.935 66.4129 163.01 66.6019 163.145 66.7438C163.28 66.8858 163.465 66.9695 163.661 66.9772C163.757 66.9845 163.854 66.9726 163.945 66.9423C164.036 66.9119 164.12 66.8637 164.193 66.8004C164.265 66.7371 164.325 66.66 164.367 66.5737C164.409 66.4873 164.434 66.3934 164.44 66.2974C164.44 66.101 164.365 65.912 164.229 65.7702C164.094 65.6283 163.908 65.5447 163.712 65.537C163.616 65.5297 163.52 65.5416 163.429 65.572C163.338 65.6024 163.254 65.6507 163.181 65.714C163.109 65.7773 163.05 65.8544 163.008 65.9407C162.966 66.0271 162.942 66.121 162.937 66.2168Z" fill="#001825"/>
<path d="M162.799 65.3223C162.895 65.4207 163.464 64.9972 164.275 65.0002C165.087 65.0032 165.68 65.4087 165.766 65.2984C165.811 65.2567 165.716 65.0778 165.468 64.8899C165.118 64.6478 164.701 64.5188 164.275 64.5202C163.854 64.5196 163.443 64.6521 163.101 64.8988C162.841 65.1046 162.755 65.2805 162.799 65.3223Z" fill="#001825"/>
<path d="M159.86 71.3335C159.86 71.2888 159.359 71.2023 158.545 71.098C158.336 71.0771 158.142 71.0354 158.106 70.8922C158.09 70.6793 158.138 70.4664 158.244 70.281C158.442 69.78 158.646 69.2542 158.855 68.7036C159.708 66.4613 160.322 64.6155 160.229 64.5827C160.137 64.5499 159.377 66.342 158.527 68.5843C158.324 69.1359 158.127 69.6637 157.93 70.1706C157.798 70.4193 157.76 70.7072 157.823 70.9817C157.853 71.0543 157.899 71.119 157.958 71.1708C158.017 71.2225 158.087 71.2599 158.163 71.2799C158.278 71.3124 158.396 71.3295 158.515 71.3306C159.347 71.3783 159.857 71.3813 159.86 71.3335Z" fill="#001825"/>
<path d="M162.591 62.1497C162.671 62.3703 163.486 62.266 164.431 62.3793C165.376 62.4926 166.151 62.752 166.277 62.5552C166.333 62.4598 166.199 62.257 165.889 62.0393C165.474 61.7809 165.006 61.6199 164.52 61.5682C164.034 61.5166 163.543 61.5757 163.083 61.7412C162.734 61.8724 162.558 62.0423 162.591 62.1497Z" fill="#001825"/>
<path d="M155.134 62.8296C155.277 63.0115 155.834 62.8296 156.505 62.8118C157.176 62.7939 157.746 62.937 157.877 62.7432C157.934 62.6507 157.844 62.4659 157.597 62.2929C157.264 62.0829 156.875 61.977 156.482 61.9887C156.088 62.0004 155.707 62.1291 155.387 62.3585C155.149 62.5494 155.071 62.7372 155.134 62.8296Z" fill="#001825"/>
<path d="M151.269 54.4268C151.232 54.0995 151.278 53.768 151.404 53.4634C151.529 53.1589 151.73 52.8912 151.988 52.6854C152.253 52.4922 152.579 52.3996 152.907 52.4242C153.234 52.4487 153.543 52.5889 153.777 52.8196C153.727 52.5995 153.724 52.3713 153.769 52.15C153.813 51.9287 153.903 51.7192 154.034 51.535C154.164 51.3509 154.332 51.1962 154.526 51.081C154.72 50.9659 154.936 50.8928 155.16 50.8665C156.022 50.8129 156.756 51.4629 157.584 51.6895C158.413 51.9161 159.266 51.7193 160.047 51.4062C160.829 51.0932 161.556 50.6578 162.346 50.3686C164.016 49.7588 165.859 49.8328 167.474 50.5743C169.089 51.3158 170.347 52.6649 170.973 54.3284C172.127 53.9676 173.436 54.555 174.148 55.5211C174.861 56.4873 175.043 57.7814 174.9 58.98C174.789 59.7888 174.589 60.5828 174.304 61.3476C174.304 61.4162 174.304 61.4818 174.304 61.5504C174.247 64.4487 173.919 67.8539 172.681 67.8748C170.526 67.9076 171.041 63.8434 171.041 63.8434C168.394 62.8236 169.381 58.8578 168.719 58.2555C168.057 57.6531 166.673 56.2577 161.133 59.0874C158.98 60.1877 156.12 60.1549 154.558 59.8L154.421 59.7702H154.388C154.373 59.765 154.358 59.7591 154.343 59.7523C153.841 59.6288 153.361 59.4276 152.921 59.156C152.403 58.8571 151.993 58.4006 151.752 57.8529C151.636 57.5789 151.602 57.2769 151.655 56.984C151.708 56.6911 151.846 56.42 152.05 56.204C151.622 55.7006 151.35 55.0828 151.269 54.4268Z" fill="#001825"/>
<path d="M181.346 122.54L181.743 130.027L182.638 140.762H148.755L150.228 124.881L147.342 99.7889C147.592 90.921 150.998 87.2354 157.963 86.3886L157.414 86.4572C158.375 86.3439 157.414 86.4572 157.963 86.3886C162.361 87.7781 167.081 87.7781 171.48 86.3886C173.567 86.4781 175.299 87.1192 177.077 87.4621C182.673 88.5325 187.28 92.8562 188.407 96.6222C189.329 99.7203 195.993 126.592 195.993 126.592H182.727L181.346 122.54Z" fill="#1466A9"/>
<path d="M161.464 73.5606C161.253 73.326 161 73.1333 160.718 72.9926C160.417 72.8663 160.08 72.855 159.771 72.9607C159.588 73.0297 159.421 73.1365 159.282 73.2742C159.143 73.4119 159.034 73.5774 158.964 73.7599C158.926 73.8538 158.901 73.9519 158.887 74.0519C158.889 74.1531 158.88 74.1406 158.942 74.1841C159.032 74.2283 159.125 74.2672 159.219 74.3006L159.514 74.4254C159.885 74.5787 160.218 74.7198 160.496 74.8406C161.052 75.0864 161.389 75.257 161.383 75.2887C161.377 75.3204 161.003 75.2304 160.425 75.0376C160.137 74.9402 159.789 74.8351 159.416 74.6839L159.128 74.578C159.019 74.5408 158.912 74.4979 158.808 74.4494C158.729 74.4114 158.664 74.3485 158.624 74.2704C158.592 74.1942 158.581 74.1103 158.594 74.0284C158.606 73.9008 158.636 73.7756 158.682 73.6561C158.769 73.4313 158.904 73.2286 159.079 73.0625C159.254 72.8965 159.463 72.7714 159.692 72.6961C159.88 72.6382 160.077 72.6185 160.272 72.638C160.468 72.6575 160.657 72.7159 160.83 72.8098C161.06 72.9228 161.255 73.0976 161.391 73.3149C161.465 73.4531 161.481 73.552 161.464 73.5606Z" fill="#001825"/>
<path d="M147.286 121.044L139.306 96.5449L138.585 92.433C138.585 92.433 136.414 83.2609 136.315 82.3545C136.205 81.3049 135.671 81.1081 135.29 81.1617C134.693 81.2691 134.344 82.0563 134.413 82.9508C134.437 83.249 135.009 88.169 135.009 88.169C134.674 87.7364 134.308 87.3279 133.915 86.9465C133.089 86.1056 131.327 85.7537 129.582 86.0072C127.838 86.2607 127.37 86.4753 127.436 87.1582C127.454 87.2865 127.5 87.4091 127.572 87.5169C127.644 87.6248 127.739 87.7152 127.85 87.7814C128.2 88.017 128.625 88.1147 129.043 88.0557C131.843 87.7009 132.758 89.1202 132.758 89.1202L132.854 89.6569C132.854 89.6569 131.017 88.6252 129.717 89.2842C129.524 89.3816 129.352 89.5152 129.21 89.6778C128.828 89.7208 128.463 89.863 128.153 90.0902C127.843 90.3175 127.597 90.6219 127.441 90.9732C127.284 91.3246 127.223 91.7107 127.261 92.0934C127.3 92.476 127.438 92.8418 127.662 93.1546C127.877 93.4528 128.259 93.7212 128.601 93.6108C128.784 93.533 128.943 93.4111 129.067 93.256C129.137 93.1786 129.213 93.1077 129.296 93.0443L129.77 94.5143C129.77 94.5143 131.017 97.7615 131.398 99.2345L135.275 123.903C135.403 124.716 135.692 125.494 136.124 126.194C136.556 126.894 137.123 127.5 137.793 127.979C138.462 128.457 139.219 128.797 140.021 128.979C140.823 129.162 141.654 129.183 142.464 129.041C143.335 128.887 144.164 128.549 144.894 128.048C145.623 127.548 146.237 126.897 146.694 126.139C147.151 125.381 147.44 124.534 147.542 123.655C147.644 122.776 147.557 121.886 147.286 121.044Z" fill="#E6EBEE"/>
<path d="M147.286 121.044L139.306 96.5449L138.585 92.433C138.585 92.433 136.414 83.2609 136.315 82.3545C136.205 81.3049 135.671 81.1081 135.29 81.1617C134.693 81.2691 134.344 82.0563 134.413 82.9508C134.437 83.249 135.009 88.169 135.009 88.169C134.674 87.7364 134.308 87.3279 133.915 86.9465C133.089 86.1056 131.327 85.7537 129.582 86.0072C127.838 86.2607 127.37 86.4753 127.436 87.1582C127.454 87.2865 127.5 87.4091 127.572 87.5169C127.644 87.6248 127.739 87.7152 127.85 87.7814C128.2 88.017 128.625 88.1147 129.043 88.0557C131.843 87.7009 132.758 89.1202 132.758 89.1202L132.854 89.6569C132.854 89.6569 131.017 88.6252 129.717 89.2842C129.524 89.3816 129.352 89.5152 129.21 89.6778C128.828 89.7208 128.463 89.863 128.153 90.0902C127.843 90.3175 127.597 90.6219 127.441 90.9732C127.284 91.3246 127.223 91.7107 127.261 92.0934C127.3 92.476 127.438 92.8418 127.662 93.1546C127.877 93.4528 128.259 93.7212 128.601 93.6108C128.784 93.533 128.943 93.4111 129.067 93.256C129.137 93.1786 129.213 93.1077 129.296 93.0443L129.77 94.5143C129.77 94.5143 131.017 97.7615 131.398 99.2345L135.275 123.903C135.403 124.716 135.692 125.494 136.124 126.194C136.556 126.894 137.123 127.5 137.793 127.979C138.462 128.457 139.219 128.797 140.021 128.979C140.823 129.162 141.654 129.183 142.464 129.041C143.335 128.887 144.164 128.549 144.894 128.048C145.623 127.548 146.237 126.897 146.694 126.139C147.151 125.381 147.44 124.534 147.542 123.655C147.644 122.776 147.557 121.886 147.286 121.044Z" fill="url(#paint10_linear_470_38023)" fill-opacity="0.8" style="mix-blend-mode:color-burn"/>
<path d="M147.286 121.044L139.306 96.5449L138.585 92.433C138.585 92.433 136.414 83.2609 136.315 82.3545C136.205 81.3049 135.671 81.1081 135.29 81.1617C134.693 81.2691 134.344 82.0563 134.413 82.9508C134.437 83.249 135.009 88.169 135.009 88.169C134.674 87.7364 134.308 87.3279 133.915 86.9465C133.089 86.1056 131.327 85.7537 129.582 86.0072C127.838 86.2607 127.37 86.4753 127.436 87.1582C127.454 87.2865 127.5 87.4091 127.572 87.5169C127.644 87.6248 127.739 87.7152 127.85 87.7814C128.2 88.017 128.625 88.1147 129.043 88.0557C131.843 87.7009 132.758 89.1202 132.758 89.1202L132.854 89.6569C132.854 89.6569 131.017 88.6252 129.717 89.2842C129.524 89.3816 129.352 89.5152 129.21 89.6778C128.828 89.7208 128.463 89.863 128.153 90.0902C127.843 90.3175 127.597 90.6219 127.441 90.9732C127.284 91.3246 127.223 91.7107 127.261 92.0934C127.3 92.476 127.438 92.8418 127.662 93.1546C127.877 93.4528 128.259 93.7212 128.601 93.6108C128.784 93.533 128.943 93.4111 129.067 93.256C129.137 93.1786 129.213 93.1077 129.296 93.0443L129.77 94.5143C129.77 94.5143 131.017 97.7615 131.398 99.2345L135.275 123.903C135.403 124.716 135.692 125.494 136.124 126.194C136.556 126.894 137.123 127.5 137.793 127.979C138.462 128.457 139.219 128.797 140.021 128.979C140.823 129.162 141.654 129.183 142.464 129.041C143.335 128.887 144.164 128.549 144.894 128.048C145.623 127.548 146.237 126.897 146.694 126.139C147.151 125.381 147.44 124.534 147.542 123.655C147.644 122.776 147.557 121.886 147.286 121.044Z" fill="#2F3941" fill-opacity="0.15" style="mix-blend-mode:multiply"/>
<path d="M138.188 92.594C138.031 92.4807 137.861 92.3875 137.681 92.3167C137.347 92.1557 136.858 91.935 136.253 91.6637L134.124 90.7334L133.504 90.468C133.27 90.3218 132.988 90.2736 132.719 90.3338C132.637 90.3705 132.568 90.4311 132.521 90.5078C132.475 90.5844 132.452 90.6735 132.457 90.7632C132.465 90.9099 132.507 91.0528 132.579 91.1806C132.713 91.406 132.871 91.616 133.05 91.8068C133.781 92.5702 134.663 92.9995 135.325 93.5452C135.646 93.7886 135.927 94.0791 136.16 94.407C136.372 94.7051 136.518 95.0481 136.685 95.3403C136.797 95.5895 136.961 95.8115 137.167 95.9907C137.373 96.1699 137.616 96.302 137.878 96.3779C138.271 96.4525 138.474 96.3004 138.456 96.2944C138.273 96.3186 138.087 96.3085 137.908 96.2646C137.673 96.175 137.46 96.0375 137.281 95.861C137.102 95.6844 136.962 95.4725 136.87 95.2389C136.718 94.9407 136.572 94.6097 136.363 94.2668C136.124 93.9115 135.832 93.5957 135.495 93.3305C134.816 92.755 133.939 92.3078 133.268 91.5981C133.104 91.4269 132.96 91.2379 132.839 91.0345C132.728 90.8437 132.719 90.6379 132.839 90.6051C132.958 90.5723 133.184 90.6439 133.393 90.7334L134.013 90.9898L136.169 91.8635C136.787 92.105 137.287 92.2988 137.633 92.427C137.81 92.5082 137.996 92.5644 138.188 92.594Z" fill="#547B8E"/>
<path d="M132.919 89.6985C132.852 89.3652 132.707 89.0525 132.495 88.7861C132.253 88.5155 131.93 88.3303 131.574 88.2583C131.13 88.1724 130.675 88.1563 130.226 88.2106C129.762 88.2668 129.294 88.2758 128.828 88.2375C128.436 88.2003 128.061 88.0615 127.739 87.8349C127.631 87.7531 127.543 87.6478 127.481 87.5269C127.42 87.406 127.387 87.2728 127.384 87.1372C127.378 87.0402 127.401 86.9436 127.45 86.8599C127.468 86.8599 127.45 86.9612 127.45 87.1342C127.463 87.2541 127.503 87.3697 127.566 87.4727C127.629 87.5758 127.713 87.6638 127.814 87.7305C128.122 87.9255 128.473 88.0403 128.837 88.0645C129.291 88.0916 129.747 88.0767 130.199 88.0198C130.669 87.9645 131.145 87.9887 131.607 88.0913C131.994 88.1798 132.341 88.3962 132.591 88.7056C132.754 88.9132 132.862 89.1581 132.907 89.4183C132.934 89.5092 132.939 89.6056 132.919 89.6985Z" fill="#547B8E"/>
<path d="M134.392 82.6168C134.459 82.9379 134.499 83.2641 134.511 83.5919C134.574 84.2628 134.651 85.0619 134.738 85.9445C134.824 86.8271 134.926 87.6233 135 88.2942C135.058 88.617 135.087 88.9443 135.087 89.2722C134.976 88.9627 134.901 88.6416 134.863 88.3151C134.759 87.7187 134.639 86.8868 134.544 85.9654C134.449 85.044 134.392 84.2061 134.371 83.6008C134.341 83.2731 134.348 82.943 134.392 82.6168Z" fill="#547B8E"/>
<path d="M131.929 90.924C131.827 90.9088 131.727 90.8818 131.631 90.8435C131.508 90.7945 131.377 90.7731 131.245 90.7809C131.114 90.7886 130.986 90.8253 130.87 90.8882C130.8 90.9361 130.744 91.0015 130.708 91.0779C130.671 91.1543 130.655 91.2391 130.662 91.3236C130.672 91.5373 130.71 91.7487 130.775 91.9527C130.86 92.2083 130.849 92.4865 130.742 92.7339C130.67 92.8626 130.568 92.9724 130.445 93.0543C130.322 93.1361 130.182 93.1878 130.035 93.2051C129.891 93.2198 129.746 93.2052 129.607 93.1622C129.469 93.1191 129.341 93.0485 129.23 92.9546C129.025 92.7871 128.874 92.5632 128.795 92.3105C128.695 91.899 128.656 91.4751 128.679 91.0522C128.684 90.7664 128.739 90.4838 128.843 90.2173C128.876 90.1159 128.935 90.0253 129.016 89.9549C129.016 89.9549 128.968 90.0563 128.914 90.2531C128.844 90.5186 128.812 90.7926 128.819 91.0671C128.815 91.4696 128.865 91.8707 128.968 92.2598C129.035 92.4828 129.173 92.6776 129.362 92.814C129.55 92.9504 129.779 93.0207 130.011 93.0142C130.127 93.0002 130.237 92.9598 130.335 92.8962C130.432 92.8326 130.513 92.7475 130.572 92.6475C130.659 92.441 130.668 92.2103 130.599 91.9974C130.537 91.7771 130.504 91.5495 130.501 91.3206C130.498 91.2115 130.525 91.1038 130.577 91.0081C130.629 90.9124 130.706 90.832 130.799 90.7749C130.931 90.7071 131.078 90.6718 131.227 90.6718C131.375 90.6718 131.522 90.7071 131.654 90.7749C131.842 90.8524 131.947 90.9121 131.929 90.924Z" fill="#547B8E"/>
<path d="M129.299 92.7967C129.299 92.7967 129.347 92.8951 129.299 93.077C129.263 93.2047 129.197 93.3223 129.107 93.4205C129.018 93.5188 128.907 93.5951 128.783 93.6435C128.595 93.7069 128.393 93.7201 128.198 93.682C128.003 93.6438 127.822 93.5555 127.671 93.4259C127.314 93.1071 127.093 92.6629 127.054 92.1854C127.003 91.7153 127.1 91.241 127.331 90.8287C127.522 90.4958 127.799 90.2207 128.133 90.0326C128.353 89.9048 128.595 89.8189 128.846 89.7791C128.937 89.7573 129.032 89.7573 129.123 89.7791C128.802 89.8606 128.492 89.9861 128.205 90.1518C127.871 90.3628 127.604 90.6642 127.434 91.021C127.265 91.3778 127.2 91.7754 127.248 92.1675C127.282 92.5963 127.474 92.9971 127.787 93.2917C127.914 93.4058 128.067 93.4862 128.233 93.5253C128.399 93.5644 128.572 93.5609 128.736 93.5153C128.846 93.4781 128.946 93.4179 129.031 93.3387C129.116 93.2596 129.183 93.1632 129.228 93.0561C129.29 92.8981 129.281 92.7967 129.299 92.7967Z" fill="#547B8E"/>
<path d="M133.036 95.7159C133.183 95.6529 133.347 95.6373 133.504 95.6712C133.913 95.7139 134.297 95.8935 134.592 96.1811L134.434 96.2467C134.431 96.0234 134.444 95.8002 134.473 95.5788C134.619 94.2847 135.227 93.3871 135.263 93.4199C135.299 93.4527 134.807 94.3562 134.667 95.6026C134.641 95.8164 134.626 96.0314 134.622 96.2467V96.4703L134.467 96.3123C134.2 96.0464 133.861 95.8641 133.492 95.7875C133.208 95.7368 133.036 95.7368 133.036 95.7159Z" fill="#547B8E"/>
<path d="M132.042 87.3667C132.09 87.3846 131.938 87.7573 131.527 87.9869C131.115 88.2165 130.721 88.1628 130.73 88.1121C130.739 88.0614 131.076 88.0227 131.431 87.8139C131.786 87.6052 131.992 87.3368 132.042 87.3667Z" fill="#547B8E"/>
<path d="M153.607 87.3635C153.607 87.3635 153.497 87.4828 153.309 87.7124C153.011 88.0358 152.777 88.412 152.617 88.8216C152.57 88.961 152.544 89.1068 152.54 89.254C152.54 89.4111 152.579 89.5657 152.653 89.7042C152.856 90.0103 153.16 90.236 153.512 90.3424C154.394 90.6191 155.316 90.7491 156.24 90.727C156.753 90.727 157.308 90.7568 157.874 90.7896L158.742 90.891C159.04 90.9238 159.338 91.0043 159.636 91.058C160.931 91.3222 162.152 91.8656 163.215 92.6503C163.794 93.0825 164.297 93.6074 164.705 94.2038C164.808 94.3599 164.903 94.5212 164.989 94.6869C165.075 94.8628 165.135 95.0328 165.206 95.2057C165.339 95.5584 165.439 95.9228 165.505 96.2941C165.805 97.8569 165.557 99.4753 164.804 100.877C164.026 102.268 162.775 103.335 161.279 103.886C160.576 104.15 159.835 104.297 159.085 104.321C158.369 104.325 157.656 104.239 156.962 104.065C156.321 103.9 155.669 103.783 155.012 103.716C154.404 103.657 153.791 103.765 153.24 104.029C152.734 104.301 152.284 104.666 151.913 105.105C151.541 105.523 151.225 105.961 150.912 106.376C150.294 107.207 149.638 107.941 148.875 108.326C148.525 108.513 148.136 108.615 147.739 108.624C147.407 108.628 147.078 108.567 146.77 108.445C146.524 108.347 146.299 108.205 146.105 108.025C145.966 107.889 145.853 107.73 145.771 107.553C145.701 107.41 145.666 107.253 145.667 107.094C145.687 107.094 145.693 107.258 145.828 107.527C145.916 107.688 146.031 107.833 146.168 107.956C146.358 108.119 146.576 108.246 146.812 108.332C147.134 108.451 147.478 108.498 147.82 108.471C148.163 108.444 148.495 108.342 148.795 108.174C149.51 107.795 150.133 107.082 150.736 106.247C151.034 105.83 151.356 105.383 151.735 104.947C152.117 104.476 152.587 104.082 153.118 103.787C153.709 103.497 154.368 103.374 155.024 103.43C155.696 103.495 156.363 103.609 157.018 103.772C157.689 103.938 158.379 104.02 159.07 104.014C159.784 103.985 160.488 103.842 161.157 103.591C162.583 103.061 163.774 102.042 164.518 100.716C165.236 99.377 165.474 97.832 165.192 96.3388C165.123 95.9839 165.023 95.6356 164.893 95.2981C164.822 95.1311 164.762 94.9582 164.688 94.8091C164.609 94.6528 164.522 94.5014 164.425 94.3559C164.04 93.7857 163.565 93.2821 163.018 92.865C161.989 92.0984 160.807 91.5633 159.553 91.2965C159.255 91.2399 158.957 91.1594 158.679 91.1266L157.826 91.0162C157.266 90.9775 156.729 90.9536 156.207 90.9357C155.261 90.9438 154.319 90.7937 153.422 90.4914C153.049 90.3619 152.731 90.1082 152.522 89.7728C152.44 89.6115 152.4 89.432 152.405 89.251C152.414 89.0908 152.447 88.9328 152.504 88.7829C152.678 88.3639 152.937 87.9853 153.264 87.6707C153.364 87.5527 153.479 87.4493 153.607 87.3635Z" fill="white"/>
<path d="M176.289 107.247C176.207 107.032 176.159 106.805 176.146 106.576C176.08 105.95 176.121 105.318 176.268 104.706C176.487 103.795 176.881 102.935 177.428 102.175C178.094 101.241 178.946 100.456 179.93 99.8667C180.92 99.2986 181.995 98.8958 183.115 98.674C184.022 98.4866 184.946 98.3917 185.873 98.3907C186.494 98.3839 187.116 98.4147 187.733 98.4831C187.961 98.4924 188.187 98.5325 188.404 98.6024C188.404 98.6561 187.435 98.5487 185.876 98.6024C184.967 98.636 184.062 98.7518 183.174 98.9483C182.09 99.184 181.049 99.5863 180.088 100.141C179.139 100.709 178.313 101.46 177.658 102.351C177.12 103.076 176.722 103.895 176.483 104.766C176.322 105.354 176.249 105.963 176.265 106.573C176.29 106.797 176.298 107.022 176.289 107.247Z" fill="white"/>
<path d="M192.582 112.435C192.491 112.626 192.373 112.803 192.23 112.96C191.875 113.409 191.476 113.822 191.037 114.191C190.384 114.744 189.662 115.21 188.888 115.575C186.978 116.493 184.818 116.754 182.745 116.317C181.906 116.146 181.093 115.866 180.327 115.482C179.811 115.229 179.323 114.924 178.869 114.573C178.693 114.455 178.536 114.312 178.403 114.146C178.439 114.099 179.119 114.692 180.422 115.285C182.113 116.07 183.989 116.368 185.84 116.144C187.69 115.921 189.442 115.186 190.897 114.021C192.015 113.13 192.534 112.39 192.582 112.435Z" fill="white"/>
<path d="M177.605 111.475C177.519 111.522 177.428 111.56 177.333 111.588C177.078 111.692 176.845 111.846 176.65 112.041C176.351 112.359 176.118 112.733 175.965 113.142C175.757 113.687 175.595 114.248 175.482 114.82C175.359 115.524 175.198 116.221 174.998 116.908C174.873 117.298 174.7 117.672 174.483 118.02C174.242 118.385 173.949 118.713 173.612 118.992C172.885 119.571 172.046 119.994 171.149 120.235C170.231 120.51 169.258 120.659 168.28 120.85C166.44 121.153 164.696 121.879 163.185 122.973C162.538 123.457 161.965 124.034 161.485 124.684C161.076 125.258 160.75 125.886 160.516 126.551C160.171 127.517 160.063 128.552 160.2 129.568C160.307 130.287 160.471 130.663 160.438 130.675C160.386 130.591 160.343 130.501 160.313 130.406C160.267 130.296 160.228 130.182 160.197 130.066C160.149 129.91 160.11 129.75 160.08 129.589C159.894 128.551 159.972 127.482 160.307 126.482C160.534 125.79 160.859 125.134 161.273 124.535C161.761 123.857 162.346 123.254 163.009 122.746C164.548 121.611 166.334 120.857 168.221 120.545C169.208 120.352 170.171 120.206 171.062 119.949C171.923 119.723 172.728 119.324 173.43 118.777C173.747 118.522 174.025 118.22 174.253 117.883C174.462 117.556 174.63 117.206 174.754 116.839C174.961 116.16 175.132 115.47 175.267 114.773C175.393 114.189 175.572 113.618 175.801 113.067C175.975 112.645 176.236 112.264 176.567 111.949C176.778 111.751 177.032 111.605 177.309 111.522C177.404 111.49 177.504 111.474 177.605 111.475Z" fill="white"/>
<path d="M169.616 110.231C169.719 110.418 169.773 110.629 169.771 110.843C169.801 111.43 169.633 112.011 169.294 112.491C169.066 112.831 168.759 113.11 168.4 113.306C168.197 113.416 167.979 113.496 167.753 113.541C167.513 113.585 167.268 113.596 167.025 113.571C166.504 113.514 166.008 113.314 165.594 112.992C165.138 112.649 164.813 112.161 164.669 111.609C164.578 111.249 164.573 110.873 164.654 110.512C164.742 110.168 164.905 109.848 165.132 109.575C165.325 109.316 165.544 109.078 165.785 108.863C165.901 108.756 166.028 108.661 166.163 108.579C166.303 108.486 166.464 108.43 166.631 108.415L166.67 108.681L166.524 108.716L166.449 108.46C166.992 108.306 167.57 108.338 168.092 108.55C168.491 108.702 168.847 108.949 169.13 109.268C169.312 109.469 169.455 109.702 169.554 109.954C169.616 110.13 169.631 110.228 169.619 110.231C169.457 109.922 169.257 109.634 169.023 109.375C168.74 109.097 168.399 108.885 168.024 108.755C167.544 108.581 167.021 108.567 166.533 108.716L166.458 108.46L166.605 108.418L166.646 108.687C166.391 108.748 166.158 108.883 165.978 109.074C165.759 109.283 165.559 109.511 165.382 109.757C165.175 110 165.03 110.29 164.961 110.602C164.891 110.914 164.899 111.238 164.982 111.546C165.111 112.03 165.395 112.459 165.79 112.766C166.16 113.055 166.601 113.239 167.067 113.3C167.282 113.325 167.5 113.32 167.714 113.285C167.915 113.248 168.11 113.182 168.292 113.091C168.624 112.921 168.911 112.676 169.13 112.375C169.462 111.937 169.648 111.407 169.664 110.857C169.655 110.455 169.586 110.24 169.616 110.231Z" fill="white"/>
<path d="M150.375 100.508C150.38 100.534 150.38 100.562 150.375 100.588C150.375 100.648 150.375 100.725 150.375 100.821C150.375 101.038 150.348 101.34 150.33 101.715C150.282 102.497 150.238 103.627 150.175 105.022C150.059 107.816 149.942 111.675 149.853 115.942C149.764 120.209 149.707 124.07 149.665 126.864C149.644 128.253 149.626 129.381 149.614 130.177C149.614 130.555 149.6 130.857 149.597 131.071C149.597 131.167 149.597 131.244 149.597 131.307C149.6 131.334 149.6 131.361 149.597 131.387C149.592 131.361 149.592 131.333 149.597 131.307C149.597 131.244 149.597 131.167 149.597 131.071C149.597 130.854 149.597 130.552 149.597 130.177V126.867C149.597 124.07 149.647 120.209 149.74 115.939C149.832 111.669 149.96 107.813 150.106 105.019C150.184 103.624 150.247 102.494 150.312 101.715C150.342 101.334 150.366 101.032 150.384 100.821C150.384 100.725 150.402 100.648 150.408 100.585C150.393 100.561 150.382 100.535 150.375 100.508Z" fill="#001825"/>
<g opacity="0.2">
<path d="M144.676 128.218C146.34 129.014 148.514 127.484 149.364 125.85C149.364 125.85 149.808 122.242 149.748 120.399C149.632 116.988 149.883 113.61 149.766 110.199C149.505 112.241 148.66 114.165 147.333 115.739C146.966 116.171 146.555 116.601 146.418 117.149C146.173 118.133 146.925 119.901 147.408 120.793C148.899 123.518 145.648 128.247 144.784 128.149" fill="#2F3941"/>
</g>
<g opacity="0.2">
<path d="M175.815 105.958C176.358 112.757 176.903 119.557 177.449 126.357C177.465 127.002 177.586 127.639 177.807 128.245C177.92 128.547 178.104 128.818 178.342 129.036C178.58 129.254 178.867 129.412 179.179 129.497C180.145 129.694 181.084 128.862 181.355 127.914C181.627 126.965 181.412 125.955 181.174 124.997C180.768 123.366 180.312 121.75 179.853 120.134C178.523 115.443 177.192 110.752 175.86 106.063" fill="#2F3941"/>
</g>
<path d="M157.125 140.783C157.331 140.447 157.485 140.082 157.581 139.701C157.748 138.964 157.644 137.825 157.072 136.594C156.791 135.976 156.395 135.335 155.995 134.631C155.538 133.884 155.198 133.072 154.987 132.222C154.809 131.258 154.881 130.264 155.196 129.336C155.494 128.376 155.927 127.442 156.275 126.464C156.975 124.636 157.028 122.623 156.425 120.76C156.165 119.954 155.784 119.192 155.294 118.5C154.863 117.899 154.357 117.355 153.789 116.881C152.957 116.196 152.008 115.666 150.989 115.318C150.264 115.077 149.841 115.02 149.847 114.984C149.947 114.978 150.047 114.988 150.145 115.011C150.439 115.054 150.729 115.119 151.013 115.205C152.067 115.51 153.052 116.016 153.914 116.696C154.509 117.17 155.039 117.721 155.491 118.333C156.005 119.042 156.407 119.825 156.684 120.656C157.323 122.578 157.277 124.662 156.553 126.554C156.195 127.55 155.76 128.477 155.473 129.41C155.168 130.289 155.092 131.231 155.253 132.148C155.449 132.973 155.771 133.764 156.207 134.491C156.591 135.198 156.982 135.848 157.259 136.489C157.82 137.768 157.898 138.958 157.683 139.715C157.603 140.005 157.48 140.281 157.316 140.533C157.206 140.711 157.134 140.789 157.125 140.783Z" fill="white"/>
<path d="M185.119 91.7291C185.061 91.9461 184.96 92.149 184.821 92.3255C184.482 92.8304 184.041 93.259 183.527 93.5838C182.76 94.0674 181.887 94.3561 180.983 94.4247C179.884 94.4992 178.781 94.3584 177.736 94.0102C176.671 93.7005 175.697 93.1355 174.9 92.3643C174.558 92.0176 174.278 91.614 174.074 91.1715C173.901 90.7841 173.793 90.3712 173.752 89.949C173.684 89.3375 173.8 88.7197 174.086 88.1748C174.13 88.0907 174.18 88.01 174.235 87.9333C174.273 87.8742 174.317 87.8193 174.366 87.7693C174.441 87.6888 174.486 87.647 174.495 87.656C174.504 87.6649 174.36 87.8528 174.196 88.2285C173.97 88.7634 173.893 89.3501 173.976 89.9251C174.026 90.3201 174.139 90.7045 174.31 91.0642C174.513 91.473 174.783 91.8449 175.109 92.1645C175.88 92.89 176.814 93.4215 177.831 93.715C178.84 94.0525 179.903 94.1971 180.965 94.1414C181.828 94.0906 182.667 93.8362 183.413 93.399C183.916 93.1024 184.361 92.7164 184.725 92.2599C184.847 92.0763 184.979 91.8992 185.119 91.7291Z" fill="white"/>
<path d="M181.037 123.805C181.037 123.805 181.022 123.778 181.004 123.721C180.986 123.664 180.959 123.575 180.926 123.471C180.861 123.241 180.765 122.919 180.643 122.507L179.629 118.95C178.782 115.935 177.619 111.794 176.349 107.202C175.711 104.906 175.106 102.729 174.56 100.728C174.285 99.7873 174.072 98.829 173.925 97.8597C173.8 97.0105 173.8 96.1476 173.925 95.2983C174.103 94.0567 174.698 92.9125 175.613 92.0541C175.867 91.8316 176.149 91.6422 176.451 91.4906L176.692 91.3892C176.718 91.3748 176.746 91.3647 176.776 91.3594C176.367 91.5509 175.989 91.7999 175.651 92.0989C174.767 92.96 174.198 94.093 174.035 95.3162C173.921 96.1549 173.93 97.0058 174.062 97.8418C174.213 98.8043 174.429 99.7556 174.706 100.689C175.261 102.681 175.872 104.864 176.513 107.16C177.78 111.749 178.928 115.903 179.76 118.92C180.169 120.411 180.497 121.637 180.729 122.498C180.837 122.913 180.923 123.241 180.983 123.474C181.01 123.578 181.031 123.661 181.046 123.727C181.046 123.753 181.043 123.779 181.037 123.805Z" fill="#001825"/>
<path d="M168.892 57.7721C168.916 57.5601 168.916 57.3459 168.892 57.1339C168.801 56.5557 168.51 56.0278 168.069 55.643C167.405 55.0824 166.55 54.8012 165.683 54.8588C164.708 54.8588 163.671 55.1868 162.597 55.5476C162.06 55.7235 161.527 55.8935 161.002 56.0098C160.495 56.1218 159.979 56.1847 159.46 56.1977C158.581 56.2206 157.704 56.1059 156.86 55.8577C156.295 55.6874 155.75 55.4554 155.235 55.1659C155.094 55.0903 154.958 55.0067 154.826 54.9155C154.778 54.8873 154.733 54.8532 154.692 54.8141C154.692 54.8141 154.895 54.9274 155.265 55.1123C155.785 55.3779 156.33 55.5907 156.893 55.7474C157.726 55.977 158.59 56.0776 159.454 56.0456C159.964 56.0285 160.471 55.9646 160.969 55.8547C161.485 55.7385 162.01 55.5566 162.549 55.3926C163.62 55.0318 164.678 54.7067 165.68 54.7067C166.577 54.6576 167.456 54.9616 168.131 55.5536C168.581 55.9564 168.869 56.5083 168.942 57.1071C168.978 57.3297 168.96 57.5574 168.892 57.7721Z" fill="white"/>
<path d="M172.995 66.6849C172.995 66.6849 172.965 66.6491 172.923 66.5746C172.881 66.5 172.828 66.3867 172.759 66.2376C172.576 65.8167 172.436 65.378 172.342 64.9286C172.198 64.2588 172.152 63.572 172.204 62.8891C172.304 62.0621 172.462 61.2431 172.676 60.438C172.883 59.6443 172.883 58.8105 172.676 58.0168C172.576 57.6767 172.404 57.3623 172.172 57.0954C171.964 56.8704 171.704 56.7003 171.414 56.6004C170.992 56.4403 170.524 56.4521 170.111 56.6332C169.967 56.7131 169.832 56.8081 169.709 56.9165C169.803 56.7736 169.932 56.6575 170.084 56.5795C170.295 56.4749 170.524 56.4137 170.759 56.3993C170.993 56.385 171.228 56.4179 171.45 56.496C171.761 56.5962 172.042 56.7725 172.267 57.0089C172.516 57.2868 172.702 57.6154 172.813 57.972C173.029 58.7909 173.029 59.652 172.813 60.4708C172.6 61.2696 172.44 62.0814 172.333 62.901C172.276 63.5704 172.31 64.2444 172.434 64.9048C172.518 65.3509 172.641 65.7889 172.801 66.2138C172.929 66.5149 173.007 66.6789 172.995 66.6849Z" fill="white"/>
<path d="M169.398 57.3459C169.392 57.2755 169.392 57.2046 169.398 57.1342C169.398 56.9821 169.398 56.7823 169.422 56.5378C169.455 55.799 169.373 55.0595 169.178 54.3462C169.031 53.8615 168.792 53.4099 168.474 53.0163C168.114 52.5633 167.619 52.2365 167.061 52.083C166.436 51.9381 165.784 51.9649 165.173 52.1605C164.512 52.3691 163.878 52.6564 163.286 53.0163C162.684 53.3791 162.059 53.6999 161.413 53.9764C160.797 54.2168 160.145 54.348 159.484 54.3641C158.888 54.3791 158.293 54.3068 157.719 54.1494C157.221 54.0048 156.741 53.8047 156.287 53.553C155.634 53.1838 155.058 52.6917 154.591 52.1038C154.462 51.9464 154.347 51.7789 154.245 51.6029C154.205 51.5449 154.171 51.4829 154.143 51.418C154.192 51.4688 154.235 51.5248 154.272 51.585C154.382 51.7533 154.503 51.9137 154.635 52.0651C155.114 52.6278 155.691 53.0987 156.338 53.4546C156.787 53.6941 157.261 53.8831 157.751 54.0182C158.316 54.1662 158.898 54.2325 159.481 54.215C160.124 54.1956 160.758 54.0655 161.357 53.8303C161.995 53.5534 162.613 53.2336 163.208 52.8732C163.813 52.5092 164.458 52.2189 165.131 52.0084C165.768 51.8084 166.447 51.7837 167.096 51.9369C167.682 52.1012 168.2 52.4492 168.572 52.9298C168.899 53.338 169.14 53.8074 169.282 54.3104C169.474 55.0343 169.541 55.7854 169.482 56.5318C169.467 56.7972 169.446 57 169.428 57.1282C169.428 57.2017 169.418 57.2749 169.398 57.3459Z" fill="white"/>
<path d="M195.809 129.649C196.064 130.976 196.025 132.343 195.694 133.653C195.363 134.963 194.748 136.185 193.893 137.231C193.037 138.277 191.962 139.123 190.744 139.708C189.526 140.293 188.193 140.603 186.842 140.616L160.853 140.318L160.766 140.345C159.174 140.819 157.481 140.833 155.882 140.384C154.892 140.103 153.958 139.814 153.839 139.68C153.498 139.154 153.193 138.606 152.927 138.04C152.919 138.037 151.898 137.659 151.785 137.279C151.701 136.917 151.65 136.548 151.633 136.177C151.633 136.177 149.014 135.27 148.311 134.915C147.047 134.28 146.913 133.699 147.095 133.278C147.297 132.804 147.786 132.771 148.248 132.979L149.778 133.596C150.199 133.73 150.633 133.816 151.072 133.85L151.669 133.836C152.834 133.806 153.941 133.321 154.752 132.485L154.951 132.282C154.912 132.281 151.097 132.202 150.44 131.841C149.781 131.477 149.399 130.454 149.399 130.454L155.599 130.138C157.171 130.061 158.739 130.369 160.167 131.033C160.778 131.316 161.423 131.609 161.955 131.842L183.83 128.582L183.473 126.596L195.46 126.596L195.809 129.649Z" fill="#E6EBEE"/>
<path d="M195.809 129.649C196.064 130.976 196.025 132.343 195.694 133.653C195.363 134.963 194.748 136.185 193.893 137.231C193.037 138.277 191.962 139.123 190.744 139.708C189.526 140.293 188.193 140.603 186.842 140.616L160.853 140.318L160.766 140.345C159.174 140.819 157.481 140.833 155.882 140.384C154.892 140.103 153.958 139.814 153.839 139.68C153.498 139.154 153.193 138.606 152.927 138.04C152.919 138.037 151.898 137.659 151.785 137.279C151.701 136.917 151.65 136.548 151.633 136.177C151.633 136.177 149.014 135.27 148.311 134.915C147.047 134.28 146.913 133.699 147.095 133.278C147.297 132.804 147.786 132.771 148.248 132.979L149.778 133.596C150.199 133.73 150.633 133.816 151.072 133.85L151.669 133.836C152.834 133.806 153.941 133.321 154.752 132.485L154.951 132.282C154.912 132.281 151.097 132.202 150.44 131.841C149.781 131.477 149.399 130.454 149.399 130.454L155.599 130.138C157.171 130.061 158.739 130.369 160.167 131.033C160.778 131.316 161.423 131.609 161.955 131.842L183.83 128.582L183.473 126.596L195.46 126.596L195.809 129.649Z" fill="url(#paint11_linear_470_38023)" fill-opacity="0.8" style="mix-blend-mode:color-burn"/>
<path d="M195.809 129.649C196.064 130.976 196.025 132.343 195.694 133.653C195.363 134.963 194.748 136.185 193.893 137.231C193.037 138.277 191.962 139.123 190.744 139.708C189.526 140.293 188.193 140.603 186.842 140.616L160.853 140.318L160.766 140.345C159.174 140.819 157.481 140.833 155.882 140.384C154.892 140.103 153.958 139.814 153.839 139.68C153.498 139.154 153.193 138.606 152.927 138.04C152.919 138.037 151.898 137.659 151.785 137.279C151.701 136.917 151.65 136.548 151.633 136.177C151.633 136.177 149.014 135.27 148.311 134.915C147.047 134.28 146.913 133.699 147.095 133.278C147.297 132.804 147.786 132.771 148.248 132.979L149.778 133.596C150.199 133.73 150.633 133.816 151.072 133.85L151.669 133.836C152.834 133.806 153.941 133.321 154.752 132.485L154.951 132.282C154.912 132.281 151.097 132.202 150.44 131.841C149.781 131.477 149.399 130.454 149.399 130.454L155.599 130.138C157.171 130.061 158.739 130.369 160.167 131.033C160.778 131.316 161.423 131.609 161.955 131.842L183.83 128.582L183.473 126.596L195.46 126.596L195.809 129.649Z" fill="#2F3941" fill-opacity="0.15" style="mix-blend-mode:multiply"/>
<path d="M154.651 136.99C153.558 136.962 152.488 136.68 151.523 136.167C151.54 136.125 152.217 136.388 153.079 136.611C153.941 136.835 154.656 136.945 154.651 136.99Z" fill="#547B8E"/>
<path d="M154.433 138.442C154.142 138.505 153.84 138.483 153.562 138.38C153.269 138.327 152.997 138.192 152.778 137.992C153.058 138.051 153.334 138.131 153.604 138.23C153.885 138.281 154.162 138.352 154.433 138.442Z" fill="#547B8E"/>
<path d="M189.714 133.782C189.684 133.782 189.538 133.349 189.18 132.696C188.97 132.314 188.731 131.95 188.464 131.605C188.138 131.184 187.776 130.792 187.382 130.433C186.982 130.08 186.553 129.762 186.1 129.482C185.729 129.254 185.341 129.055 184.94 128.886C184.251 128.602 183.795 128.501 183.804 128.471C183.914 128.48 184.023 128.502 184.129 128.537C184.254 128.561 184.378 128.594 184.499 128.635C184.642 128.68 184.797 128.725 184.982 128.796C185.395 128.952 185.794 129.143 186.174 129.369C186.64 129.647 187.079 129.967 187.486 130.326C187.886 130.69 188.252 131.089 188.581 131.518C188.844 131.873 189.077 132.251 189.275 132.646C189.368 132.81 189.427 132.971 189.49 133.108C189.543 133.224 189.587 133.344 189.624 133.466C189.667 133.567 189.697 133.673 189.714 133.782Z" fill="#547B8E"/>
<path d="M155.566 131.733C155.429 131.922 155.268 132.094 155.088 132.243C154.677 132.632 154.224 132.975 153.738 133.266C153.246 133.552 152.711 133.759 152.154 133.877C151.927 133.939 151.692 133.964 151.457 133.952C151.442 133.895 152.53 133.797 153.657 133.132C154.135 132.845 154.589 132.52 155.014 132.16C155.184 132 155.368 131.857 155.566 131.733Z" fill="#547B8E"/>
<g filter="url(#filter3_d_470_38023)">
<g filter="url(#filter4_d_470_38023)">
<path d="M45.6541 76.1089L62.6979 71.1351C62.8625 71.0871 63.0389 71.1003 63.1945 71.1723L79.3061 78.6318C79.5743 78.756 79.7374 79.0336 79.7153 79.3283L78.7656 91.9964C77.9523 102.844 69.9108 112.42 59.8887 114.242C59.774 114.263 59.6553 114.254 59.5449 114.216C49.9064 110.92 43.3826 100.253 44.1959 89.4047L45.1457 76.7366C45.1677 76.4419 45.3704 76.1917 45.6541 76.1089Z" fill="white"/>
</g>
<g filter="url(#filter5_d_470_38023)">
<path d="M62.9082 74.4792C62.7765 74.4182 62.6273 74.407 62.488 74.4477L48.0663 78.6563C47.8262 78.7263 47.6548 78.938 47.6361 79.1874L46.8325 89.9065C46.1443 99.0855 51.6645 108.112 59.8201 110.901C59.9135 110.933 60.0139 110.94 60.111 110.922C68.5912 109.381 75.3956 101.278 76.0837 92.0995L76.8873 81.3804C76.906 81.131 76.7681 80.8961 76.5411 80.791L62.9082 74.4792ZM59.3652 98.6004C59.1141 98.8172 58.7346 98.7891 58.5182 98.5376L53.315 92.491C53.0989 92.2398 53.1273 91.861 53.3784 91.6448L55.2399 90.043C55.491 89.8269 55.8699 89.8553 56.086 90.1065L58.8885 93.3632C59.1047 93.6144 59.4835 93.6428 59.7347 93.4267L67.1578 87.039C67.409 86.8228 67.7878 86.8512 68.004 87.1024L69.6064 88.9646C69.8223 89.2155 69.7943 89.5938 69.5438 89.8101L59.3652 98.6004Z" fill="#125C98"/>
</g>
</g>
</g>
<defs>
<filter id="filter0_n_470_38023" x="24.9995" y="19" width="176.457" height="72.9844" filterUnits="userSpaceOnUse" color-interpolation-filters="sRGB">
<feFlood flood-opacity="0" result="BackgroundImageFix"/>
<feBlend mode="normal" in="SourceGraphic" in2="BackgroundImageFix" result="shape"/>
<feTurbulence type="fractalNoise" baseFrequency="0.41493773460388184 0.41493773460388184" stitchTiles="stitch" numOctaves="3" result="noise" seed="2646" />
<feColorMatrix in="noise" type="luminanceToAlpha" result="alphaNoise" />
<feComponentTransfer in="alphaNoise" result="coloredNoise1">
<feFuncA type="discrete" tableValues="1 1 1 1 1 1 1 1 1 1 1 1 1 1 1 1 1 1 1 1 1 1 1 1 1 1 1 1 1 1 1 1 1 1 1 1 1 1 1 1 1 1 1 1 1 1 1 1 1 1 1 0 0 0 0 0 0 0 0 0 0 0 0 0 0 0 0 0 0 0 0 0 0 0 0 0 0 0 0 0 0 0 0 0 0 0 0 0 0 0 0 0 0 0 0 0 0 0 0 0 "/>
</feComponentTransfer>
<feComposite operator="in" in2="shape" in="coloredNoise1" result="noise1Clipped" />
<feFlood flood-color="rgba(0, 0, 0, 0.02)" result="color1Flood" />
<feComposite operator="in" in2="noise1Clipped" in="color1Flood" result="color1" />
<feMerge result="effect1_noise_470_38023">
<feMergeNode in="shape" />
<feMergeNode in="color1" />
</feMerge>
</filter>
<filter id="filter1_d_470_38023" x="27.249" y="16.0831" width="141.298" height="144.7" filterUnits="userSpaceOnUse" color-interpolation-filters="sRGB">
<feFlood flood-opacity="0" result="BackgroundImageFix"/>
<feColorMatrix in="SourceAlpha" type="matrix" values="0 0 0 0 0 0 0 0 0 0 0 0 0 0 0 0 0 0 127 0" result="hardAlpha"/>
<feOffset dy="10"/>
<feGaussianBlur stdDeviation="14"/>
<feColorMatrix type="matrix" values="0 0 0 0 0.184314 0 0 0 0 0.223529 0 0 0 0 0.254902 0 0 0 0.35 0"/>
<feBlend mode="normal" in2="BackgroundImageFix" result="effect1_dropShadow_470_38023"/>
<feBlend mode="normal" in="SourceGraphic" in2="effect1_dropShadow_470_38023" result="shape"/>
</filter>
<filter id="filter2_d_470_38023" x="57.1204" y="70.6459" width="83.9359" height="31.68" filterUnits="userSpaceOnUse" color-interpolation-filters="sRGB">
<feFlood flood-opacity="0" result="BackgroundImageFix"/>
<feColorMatrix in="SourceAlpha" type="matrix" values="0 0 0 0 0 0 0 0 0 0 0 0 0 0 0 0 0 0 127 0" result="hardAlpha"/>
<feOffset dy="5.01115"/>
<feGaussianBlur stdDeviation="3.5078"/>
<feColorMatrix type="matrix" values="0 0 0 0 0.929412 0 0 0 0 0.968627 0 0 0 0 1 0 0 0 0.15 0"/>
<feBlend mode="normal" in2="BackgroundImageFix" result="effect1_dropShadow_470_38023"/>
<feBlend mode="normal" in="SourceGraphic" in2="effect1_dropShadow_470_38023" result="shape"/>
</filter>
<filter id="filter4_d_470_38023" x="16.1276" y="63.1068" width="91.5897" height="99.1459" filterUnits="userSpaceOnUse" color-interpolation-filters="sRGB">
<feFlood flood-opacity="0" result="BackgroundImageFix"/>
<feColorMatrix in="SourceAlpha" type="matrix" values="0 0 0 0 0 0 0 0 0 0 0 0 0 0 0 0 0 0 127 0" result="hardAlpha"/>
<feOffset dy="20"/>
<feGaussianBlur stdDeviation="14"/>
<feColorMatrix type="matrix" values="0 0 0 0 0.184314 0 0 0 0 0.223529 0 0 0 0 0.254902 0 0 0 0.15 0"/>
<feBlend mode="normal" in2="BackgroundImageFix" result="effect1_dropShadow_470_38023"/>
<feBlend mode="normal" in="SourceGraphic" in2="effect1_dropShadow_470_38023" result="shape"/>
</filter>
<filter id="filter5_d_470_38023" x="38.7747" y="70.4236" width="46.1144" height="52.5081" filterUnits="userSpaceOnUse" color-interpolation-filters="sRGB">
<feFlood flood-opacity="0" result="BackgroundImageFix"/>
<feColorMatrix in="SourceAlpha" type="matrix" values="0 0 0 0 0 0 0 0 0 0 0 0 0 0 0 0 0 0 127 0" result="hardAlpha"/>
<feOffset dy="4"/>
<feGaussianBlur stdDeviation="4"/>
<feColorMatrix type="matrix" values="0 0 0 0 0.184314 0 0 0 0 0.223529 0 0 0 0 0.254902 0 0 0 0.15 0"/>
<feBlend mode="normal" in2="BackgroundImageFix" result="effect1_dropShadow_470_38023"/>
<feBlend mode="normal" in="SourceGraphic" in2="effect1_dropShadow_470_38023" result="shape"/>
</filter>
<linearGradient id="paint0_linear_470_38023" x1="201.457" y1="19" x2="22.7125" y2="25.1132" gradientUnits="userSpaceOnUse">
<stop stop-color="#E08E0F"/>
<stop offset="0.625" stop-color="#936731"/>
</linearGradient>
<linearGradient id="paint1_linear_470_38023" x1="1.02986" y1="1.65714" x2="-0.287142" y2="0.516778" gradientUnits="userSpaceOnUse">
<stop stop-color="white" stop-opacity="0"/>
<stop offset="1" stop-color="white" stop-opacity="0.8"/>
</linearGradient>
<linearGradient id="paint2_linear_470_38023" x1="1.02986" y1="1.65714" x2="-0.287142" y2="0.516778" gradientUnits="userSpaceOnUse">
<stop stop-color="white" stop-opacity="0"/>
<stop offset="1" stop-color="white" stop-opacity="0.8"/>
</linearGradient>
<linearGradient id="paint3_linear_470_38023" x1="1.02986" y1="1.65714" x2="-0.287142" y2="0.516778" gradientUnits="userSpaceOnUse">
<stop stop-color="white" stop-opacity="0"/>
<stop offset="1" stop-color="white" stop-opacity="0.8"/>
</linearGradient>
<linearGradient id="paint4_linear_470_38023" x1="1.02986" y1="1.65714" x2="-0.287142" y2="0.516778" gradientUnits="userSpaceOnUse">
<stop stop-color="white" stop-opacity="0"/>
<stop offset="1" stop-color="white" stop-opacity="0.8"/>
</linearGradient>
<linearGradient id="paint5_linear_470_38023" x1="1.02986" y1="1.65714" x2="-0.287142" y2="0.516778" gradientUnits="userSpaceOnUse">
<stop stop-color="white" stop-opacity="0"/>
<stop offset="1" stop-color="white" stop-opacity="0.8"/>
</linearGradient>
<linearGradient id="paint6_linear_470_38023" x1="1.02986" y1="1.65714" x2="-0.287142" y2="0.516778" gradientUnits="userSpaceOnUse">
<stop stop-color="white" stop-opacity="0"/>
<stop offset="1" stop-color="white" stop-opacity="0.8"/>
</linearGradient>
<linearGradient id="paint7_linear_470_38023" x1="75.1857" y1="108.958" x2="125.535" y2="125.905" gradientUnits="userSpaceOnUse">
<stop offset="0.213542" stop-color="#323444"/>
<stop offset="0.6875" stop-color="#2F3941" stop-opacity="0.291667"/>
<stop offset="1" stop-color="#2F3941" stop-opacity="0"/>
</linearGradient>
<linearGradient id="paint8_linear_470_38023" x1="176.071" y1="59.4582" x2="172.988" y2="76.0778" gradientUnits="userSpaceOnUse">
<stop offset="0.213542" stop-color="#323444"/>
<stop offset="0.6875" stop-color="#2F3941" stop-opacity="0.291667"/>
<stop offset="1" stop-color="#2F3941" stop-opacity="0"/>
</linearGradient>
<linearGradient id="paint9_linear_470_38023" x1="164.09" y1="78.5714" x2="163.284" y2="83.0989" gradientUnits="userSpaceOnUse">
<stop offset="0.213542" stop-color="#323444"/>
<stop offset="0.6875" stop-color="#2F3941" stop-opacity="0.291667"/>
<stop offset="1" stop-color="#2F3941" stop-opacity="0"/>
</linearGradient>
<linearGradient id="paint10_linear_470_38023" x1="144.323" y1="72.1408" x2="111.339" y2="110.438" gradientUnits="userSpaceOnUse">
<stop offset="0.213542" stop-color="#323444"/>
<stop offset="0.6875" stop-color="#2F3941" stop-opacity="0.291667"/>
<stop offset="1" stop-color="#2F3941" stop-opacity="0"/>
</linearGradient>
<linearGradient id="paint11_linear_470_38023" x1="188.126" y1="123.944" x2="186.083" y2="143.353" gradientUnits="userSpaceOnUse">
<stop offset="0.213542" stop-color="#323444"/>
<stop offset="0.6875" stop-color="#2F3941" stop-opacity="0.291667"/>
<stop offset="1" stop-color="#2F3941" stop-opacity="0"/>
</linearGradient>
<clipPath id="clip0_470_38023">
<rect width="226" height="150.667" fill="white"/>
</clipPath>
<clipPath id="clip1_470_38023">
<rect x="55.249" y="31.1897" width="78.1739" height="81.9323" rx="2.00446" transform="rotate(-5.2158 55.249 31.1897)" fill="white"/>
</clipPath>
</defs>
</svg>
