<svg width="219" height="151" viewBox="0 0 219 151" fill="none" xmlns="http://www.w3.org/2000/svg">
<g clip-path="url(#clip0_232_8086)">
<rect width="226" height="150.667" transform="translate(-3.125)" fill="white"/>
<path fill-rule="evenodd" clip-rule="evenodd" d="M27.1251 91.9847H193.252C196.506 85.2844 198.332 77.7614 198.332 69.8121C198.332 41.7494 175.582 19 147.519 19C137.879 19 128.865 21.685 121.185 26.3479C99.8977 36.318 78.2302 37.4771 66.2201 37.9391H52.8242C33.4354 37.9391 21.875 54.1187 21.875 73.5075C21.875 80.2871 23.7967 86.6178 27.1251 91.9847Z" fill="url(#paint0_linear_232_8086)"/>
<g style="mix-blend-mode:hard-light" opacity="0.6">
<rect x="148.499" y="55.3047" width="1.38564" height="1.38564" transform="rotate(-45 148.499 55.3047)" fill="#E6EBEE"/>
<rect x="148.499" y="55.3047" width="1.38564" height="1.38564" transform="rotate(-45 148.499 55.3047)" fill="url(#paint1_linear_232_8086)"/>
</g>
<g style="mix-blend-mode:hard-light" opacity="0.6">
<rect x="46.875" y="46.0662" width="1.38564" height="1.38564" transform="rotate(-45 46.875 46.0662)" fill="#E6EBEE"/>
<rect x="46.875" y="46.0662" width="1.38564" height="1.38564" transform="rotate(-45 46.875 46.0662)" fill="url(#paint2_linear_232_8086)"/>
</g>
<g style="mix-blend-mode:hard-light" opacity="0.6">
<rect x="65.3516" y="49.7615" width="1.38564" height="1.38564" transform="rotate(-45 65.3516 49.7615)" fill="#E6EBEE"/>
<rect x="65.3516" y="49.7615" width="1.38564" height="1.38564" transform="rotate(-45 65.3516 49.7615)" fill="url(#paint3_linear_232_8086)"/>
</g>
<g style="mix-blend-mode:hard-light" opacity="0.6">
<rect x="137.413" y="41.4468" width="1.38564" height="1.38564" transform="rotate(-45 137.413 41.4468)" fill="#E6EBEE"/>
<rect x="137.413" y="41.4468" width="1.38564" height="1.38564" transform="rotate(-45 137.413 41.4468)" fill="url(#paint4_linear_232_8086)"/>
</g>
<g style="mix-blend-mode:hard-light" opacity="0.6">
<rect x="167.9" y="64.5433" width="1.38564" height="1.38564" transform="rotate(-45 167.9 64.5433)" fill="#E6EBEE"/>
<rect x="167.9" y="64.5433" width="1.38564" height="1.38564" transform="rotate(-45 167.9 64.5433)" fill="url(#paint5_linear_232_8086)"/>
</g>
<g style="mix-blend-mode:hard-light" opacity="0.6">
<rect x="177.138" y="34.9798" width="1.38564" height="1.38564" transform="rotate(-45 177.138 34.9798)" fill="#E6EBEE"/>
<rect x="177.138" y="34.9798" width="1.38564" height="1.38564" transform="rotate(-45 177.138 34.9798)" fill="url(#paint6_linear_232_8086)"/>
</g>
<g style="mix-blend-mode:multiply" opacity="0.5">
<path fill-rule="evenodd" clip-rule="evenodd" d="M190.876 66.5024C190.98 66.5337 191.075 66.5869 191.157 66.6582C191.238 66.7296 191.303 66.8175 191.348 66.9161C191.392 67.0147 191.415 67.1217 191.415 67.2299C191.415 67.3381 191.392 67.4451 191.347 67.5435C191.126 68.0668 190.609 67.9901 190.15 67.9022C188.76 67.6999 187.348 67.6904 185.955 67.874C183.01 68.2144 180.248 69.1644 177.4 69.8292C174.603 70.6016 171.644 70.5562 168.872 69.6982C166.229 68.7902 163.706 67.5904 161.057 66.6601C158.73 65.8522 156.291 64.9929 153.783 65.4705C151.389 65.9201 149.3 67.3264 147.065 68.2462C142.472 70.0636 137.501 70.7164 132.595 70.1465C130.295 69.987 128.026 69.526 125.846 68.7753C124.597 68.3087 122.911 67.6866 122.161 66.4855C121.818 65.9302 121.791 65.0485 122.45 64.7048C123.109 64.3611 123.91 64.8398 124.501 65.0407C127.062 65.8839 129.721 66.3976 132.412 66.5692C135.012 66.8257 137.634 66.7343 140.21 66.2974C142.567 65.805 144.845 64.9908 146.98 63.8778C149.197 62.7746 151.428 61.6182 153.923 61.3638C156.419 61.1093 158.898 61.8775 161.231 62.8296C163.7 63.808 166.061 64.977 168.42 66.1589C170.605 67.3505 173.079 67.907 175.563 67.7656C180.692 67.453 185.713 65.5212 190.876 66.5024Z" fill="#E6EBEE"/>
<path fill-rule="evenodd" clip-rule="evenodd" d="M190.876 66.5024C190.98 66.5337 191.075 66.5869 191.157 66.6582C191.238 66.7296 191.303 66.8175 191.348 66.9161C191.392 67.0147 191.415 67.1217 191.415 67.2299C191.415 67.3381 191.392 67.4451 191.347 67.5435C191.126 68.0668 190.609 67.9901 190.15 67.9022C188.76 67.6999 187.348 67.6904 185.955 67.874C183.01 68.2144 180.248 69.1644 177.4 69.8292C174.603 70.6016 171.644 70.5562 168.872 69.6982C166.229 68.7902 163.706 67.5904 161.057 66.6601C158.73 65.8522 156.291 64.9929 153.783 65.4705C151.389 65.9201 149.3 67.3264 147.065 68.2462C142.472 70.0636 137.501 70.7164 132.595 70.1465C130.295 69.987 128.026 69.526 125.846 68.7753C124.597 68.3087 122.911 67.6866 122.161 66.4855C121.818 65.9302 121.791 65.0485 122.45 64.7048C123.109 64.3611 123.91 64.8398 124.501 65.0407C127.062 65.8839 129.721 66.3976 132.412 66.5692C135.012 66.8257 137.634 66.7343 140.21 66.2974C142.567 65.805 144.845 64.9908 146.98 63.8778C149.197 62.7746 151.428 61.6182 153.923 61.3638C156.419 61.1093 158.898 61.8775 161.231 62.8296C163.7 63.808 166.061 64.977 168.42 66.1589C170.605 67.3505 173.079 67.907 175.563 67.7656C180.692 67.453 185.713 65.5212 190.876 66.5024Z" fill="url(#paint7_linear_232_8086)" fill-opacity="0.8" style="mix-blend-mode:color-burn"/>
<path fill-rule="evenodd" clip-rule="evenodd" d="M190.876 66.5024C190.98 66.5337 191.075 66.5869 191.157 66.6582C191.238 66.7296 191.303 66.8175 191.348 66.9161C191.392 67.0147 191.415 67.1217 191.415 67.2299C191.415 67.3381 191.392 67.4451 191.347 67.5435C191.126 68.0668 190.609 67.9901 190.15 67.9022C188.76 67.6999 187.348 67.6904 185.955 67.874C183.01 68.2144 180.248 69.1644 177.4 69.8292C174.603 70.6016 171.644 70.5562 168.872 69.6982C166.229 68.7902 163.706 67.5904 161.057 66.6601C158.73 65.8522 156.291 64.9929 153.783 65.4705C151.389 65.9201 149.3 67.3264 147.065 68.2462C142.472 70.0636 137.501 70.7164 132.595 70.1465C130.295 69.987 128.026 69.526 125.846 68.7753C124.597 68.3087 122.911 67.6866 122.161 66.4855C121.818 65.9302 121.791 65.0485 122.45 64.7048C123.109 64.3611 123.91 64.8398 124.501 65.0407C127.062 65.8839 129.721 66.3976 132.412 66.5692C135.012 66.8257 137.634 66.7343 140.21 66.2974C142.567 65.805 144.845 64.9908 146.98 63.8778C149.197 62.7746 151.428 61.6182 153.923 61.3638C156.419 61.1093 158.898 61.8775 161.231 62.8296C163.7 63.808 166.061 64.977 168.42 66.1589C170.605 67.3505 173.079 67.907 175.563 67.7656C180.692 67.453 185.713 65.5212 190.876 66.5024Z" fill="#2F3941" fill-opacity="0.15" style="mix-blend-mode:multiply"/>
</g>
<g style="mix-blend-mode:multiply" opacity="0.5">
<path fill-rule="evenodd" clip-rule="evenodd" d="M161.922 128.281C162.036 128.316 162.141 128.375 162.231 128.453C162.321 128.532 162.393 128.629 162.442 128.738C162.491 128.847 162.516 128.965 162.516 129.084C162.516 129.204 162.49 129.321 162.441 129.43C162.197 130.007 161.627 129.923 161.121 129.826C159.586 129.603 158.029 129.592 156.492 129.795C153.243 130.17 150.195 131.218 147.053 131.952C143.967 132.804 140.702 132.754 137.643 131.808C134.728 130.806 131.944 129.482 129.02 128.455C126.454 127.564 123.762 126.616 120.995 127.143C118.354 127.639 116.049 129.191 113.583 130.205C108.515 132.211 103.03 132.931 97.617 132.302C95.0794 132.126 92.5759 131.617 90.1708 130.789C88.7927 130.274 86.9329 129.588 86.1053 128.263C85.7266 127.65 85.6972 126.677 86.424 126.298C87.1508 125.919 88.0353 126.447 88.6867 126.669C91.513 127.599 94.4461 128.166 97.4155 128.355C100.284 128.638 103.178 128.537 106.019 128.055C108.62 127.512 111.134 126.614 113.489 125.386C115.935 124.168 118.397 122.892 121.15 122.612C123.903 122.331 126.638 123.179 129.213 124.229C131.937 125.309 134.542 126.598 137.145 127.902C139.555 129.217 142.285 129.831 145.026 129.675C150.685 129.33 156.225 127.199 161.922 128.281Z" fill="#E6EBEE"/>
<path fill-rule="evenodd" clip-rule="evenodd" d="M161.922 128.281C162.036 128.316 162.141 128.375 162.231 128.453C162.321 128.532 162.393 128.629 162.442 128.738C162.491 128.847 162.516 128.965 162.516 129.084C162.516 129.204 162.49 129.321 162.441 129.43C162.197 130.007 161.627 129.923 161.121 129.826C159.586 129.603 158.029 129.592 156.492 129.795C153.243 130.17 150.195 131.218 147.053 131.952C143.967 132.804 140.702 132.754 137.643 131.808C134.728 130.806 131.944 129.482 129.02 128.455C126.454 127.564 123.762 126.616 120.995 127.143C118.354 127.639 116.049 129.191 113.583 130.205C108.515 132.211 103.03 132.931 97.617 132.302C95.0794 132.126 92.5759 131.617 90.1708 130.789C88.7927 130.274 86.9329 129.588 86.1053 128.263C85.7266 127.65 85.6972 126.677 86.424 126.298C87.1508 125.919 88.0353 126.447 88.6867 126.669C91.513 127.599 94.4461 128.166 97.4155 128.355C100.284 128.638 103.178 128.537 106.019 128.055C108.62 127.512 111.134 126.614 113.489 125.386C115.935 124.168 118.397 122.892 121.15 122.612C123.903 122.331 126.638 123.179 129.213 124.229C131.937 125.309 134.542 126.598 137.145 127.902C139.555 129.217 142.285 129.831 145.026 129.675C150.685 129.33 156.225 127.199 161.922 128.281Z" fill="url(#paint8_linear_232_8086)" fill-opacity="0.8" style="mix-blend-mode:color-burn"/>
<path fill-rule="evenodd" clip-rule="evenodd" d="M161.922 128.281C162.036 128.316 162.141 128.375 162.231 128.453C162.321 128.532 162.393 128.629 162.442 128.738C162.491 128.847 162.516 128.965 162.516 129.084C162.516 129.204 162.49 129.321 162.441 129.43C162.197 130.007 161.627 129.923 161.121 129.826C159.586 129.603 158.029 129.592 156.492 129.795C153.243 130.17 150.195 131.218 147.053 131.952C143.967 132.804 140.702 132.754 137.643 131.808C134.728 130.806 131.944 129.482 129.02 128.455C126.454 127.564 123.762 126.616 120.995 127.143C118.354 127.639 116.049 129.191 113.583 130.205C108.515 132.211 103.03 132.931 97.617 132.302C95.0794 132.126 92.5759 131.617 90.1708 130.789C88.7927 130.274 86.9329 129.588 86.1053 128.263C85.7266 127.65 85.6972 126.677 86.424 126.298C87.1508 125.919 88.0353 126.447 88.6867 126.669C91.513 127.599 94.4461 128.166 97.4155 128.355C100.284 128.638 103.178 128.537 106.019 128.055C108.62 127.512 111.134 126.614 113.489 125.386C115.935 124.168 118.397 122.892 121.15 122.612C123.903 122.331 126.638 123.179 129.213 124.229C131.937 125.309 134.542 126.598 137.145 127.902C139.555 129.217 142.285 129.831 145.026 129.675C150.685 129.33 156.225 127.199 161.922 128.281Z" fill="#2F3941" fill-opacity="0.15" style="mix-blend-mode:multiply"/>
</g>
<g style="mix-blend-mode:multiply" opacity="0.5">
<path fill-rule="evenodd" clip-rule="evenodd" d="M141.922 91.888C142.036 91.9226 142.141 91.9813 142.231 92.06C142.321 92.1388 142.393 92.2358 142.442 92.3446C142.491 92.4534 142.516 92.5714 142.516 92.6908C142.516 92.8102 142.49 92.9282 142.441 93.0368C142.197 93.6142 141.627 93.5296 141.121 93.4326C139.586 93.2094 138.029 93.1989 136.492 93.4014C133.243 93.7771 130.195 94.8252 127.053 95.5586C123.967 96.4109 120.702 96.3608 117.643 95.4142C114.728 94.4124 111.944 93.0885 109.02 92.062C106.454 91.1707 103.762 90.2226 100.995 90.7495C98.3538 91.2456 96.0488 92.7972 93.5828 93.8121C88.5153 95.8173 83.0304 96.5376 77.617 95.9088C75.0794 95.7329 72.5759 95.2242 70.1708 94.3959C68.7927 93.8811 66.9329 93.1947 66.1053 91.8695C65.7266 91.2568 65.6972 90.284 66.424 89.9047C67.1508 89.5255 68.0353 90.0537 68.6867 90.2753C71.513 91.2057 74.4461 91.7724 77.4155 91.9618C80.2841 92.2448 83.1776 92.1439 86.0195 91.6619C88.62 91.1186 91.1336 90.2203 93.4894 88.9923C95.9351 87.775 98.3967 86.4992 101.15 86.2184C103.903 85.9377 106.638 86.7853 109.213 87.8357C111.937 88.9153 114.542 90.2051 117.145 91.5091C119.555 92.8238 122.285 93.4378 125.026 93.2819C130.685 92.9369 136.225 90.8055 141.922 91.888Z" fill="#E6EBEE"/>
<path fill-rule="evenodd" clip-rule="evenodd" d="M141.922 91.888C142.036 91.9226 142.141 91.9813 142.231 92.06C142.321 92.1388 142.393 92.2358 142.442 92.3446C142.491 92.4534 142.516 92.5714 142.516 92.6908C142.516 92.8102 142.49 92.9282 142.441 93.0368C142.197 93.6142 141.627 93.5296 141.121 93.4326C139.586 93.2094 138.029 93.1989 136.492 93.4014C133.243 93.7771 130.195 94.8252 127.053 95.5586C123.967 96.4109 120.702 96.3608 117.643 95.4142C114.728 94.4124 111.944 93.0885 109.02 92.062C106.454 91.1707 103.762 90.2226 100.995 90.7495C98.3538 91.2456 96.0488 92.7972 93.5828 93.8121C88.5153 95.8173 83.0304 96.5376 77.617 95.9088C75.0794 95.7329 72.5759 95.2242 70.1708 94.3959C68.7927 93.8811 66.9329 93.1947 66.1053 91.8695C65.7266 91.2568 65.6972 90.284 66.424 89.9047C67.1508 89.5255 68.0353 90.0537 68.6867 90.2753C71.513 91.2057 74.4461 91.7724 77.4155 91.9618C80.2841 92.2448 83.1776 92.1439 86.0195 91.6619C88.62 91.1186 91.1336 90.2203 93.4894 88.9923C95.9351 87.775 98.3967 86.4992 101.15 86.2184C103.903 85.9377 106.638 86.7853 109.213 87.8357C111.937 88.9153 114.542 90.2051 117.145 91.5091C119.555 92.8238 122.285 93.4378 125.026 93.2819C130.685 92.9369 136.225 90.8055 141.922 91.888Z" fill="url(#paint9_linear_232_8086)" fill-opacity="0.8" style="mix-blend-mode:color-burn"/>
<path fill-rule="evenodd" clip-rule="evenodd" d="M141.922 91.888C142.036 91.9226 142.141 91.9813 142.231 92.06C142.321 92.1388 142.393 92.2358 142.442 92.3446C142.491 92.4534 142.516 92.5714 142.516 92.6908C142.516 92.8102 142.49 92.9282 142.441 93.0368C142.197 93.6142 141.627 93.5296 141.121 93.4326C139.586 93.2094 138.029 93.1989 136.492 93.4014C133.243 93.7771 130.195 94.8252 127.053 95.5586C123.967 96.4109 120.702 96.3608 117.643 95.4142C114.728 94.4124 111.944 93.0885 109.02 92.062C106.454 91.1707 103.762 90.2226 100.995 90.7495C98.3538 91.2456 96.0488 92.7972 93.5828 93.8121C88.5153 95.8173 83.0304 96.5376 77.617 95.9088C75.0794 95.7329 72.5759 95.2242 70.1708 94.3959C68.7927 93.8811 66.9329 93.1947 66.1053 91.8695C65.7266 91.2568 65.6972 90.284 66.424 89.9047C67.1508 89.5255 68.0353 90.0537 68.6867 90.2753C71.513 91.2057 74.4461 91.7724 77.4155 91.9618C80.2841 92.2448 83.1776 92.1439 86.0195 91.6619C88.62 91.1186 91.1336 90.2203 93.4894 88.9923C95.9351 87.775 98.3967 86.4992 101.15 86.2184C103.903 85.9377 106.638 86.7853 109.213 87.8357C111.937 88.9153 114.542 90.2051 117.145 91.5091C119.555 92.8238 122.285 93.4378 125.026 93.2819C130.685 92.9369 136.225 90.8055 141.922 91.888Z" fill="#2F3941" fill-opacity="0.15" style="mix-blend-mode:multiply"/>
</g>
<g style="mix-blend-mode:soft-light">
<path fill-rule="evenodd" clip-rule="evenodd" d="M76.3719 78.9802C76.4918 79.0165 76.6026 79.0781 76.6968 79.1607C76.791 79.2434 76.8664 79.3452 76.918 79.4593C76.9696 79.5735 76.9962 79.6974 76.996 79.8227C76.9958 79.948 76.9687 80.0718 76.9168 80.1858C76.6609 80.7918 76.0627 80.703 75.5312 80.6012C73.9212 80.367 72.2866 80.356 70.6736 80.5685C67.2636 80.9627 64.0651 82.0627 60.7677 82.8324C57.5292 83.7269 54.1021 83.6743 50.8926 82.6808C47.8325 81.6295 44.911 80.2401 41.8431 79.1628C39.1493 78.2274 36.3249 77.2324 33.4211 77.7854C30.6487 78.306 28.2296 79.9344 25.6417 80.9995C20.3235 83.1039 14.5673 83.8598 8.88605 83.1999C6.22285 83.0153 3.59547 82.4814 1.07138 81.6121C-0.374843 81.0719 -2.32667 80.3516 -3.19522 78.9607C-3.5926 78.3177 -3.62346 77.2968 -2.86072 76.8988C-2.09798 76.5008 -1.16969 77.0551 -0.486065 77.2877C2.47997 78.2641 5.55824 78.8589 8.67453 79.0577C11.685 79.3546 14.7217 79.2488 17.7042 78.7429C20.4334 78.1727 23.0713 77.23 25.5437 75.9412C28.1103 74.6637 30.6938 73.3248 33.5833 73.0301C36.4728 72.7355 39.3432 73.625 42.0447 74.7275C44.9034 75.8604 47.6379 77.214 50.3697 78.5826C52.8989 79.9623 55.7637 80.6067 58.6401 80.443C64.5789 80.081 70.3932 77.8441 76.3719 78.9802Z" fill="#E6EBEE"/>
<path fill-rule="evenodd" clip-rule="evenodd" d="M76.3719 78.9802C76.4918 79.0165 76.6026 79.0781 76.6968 79.1607C76.791 79.2434 76.8664 79.3452 76.918 79.4593C76.9696 79.5735 76.9962 79.6974 76.996 79.8227C76.9958 79.948 76.9687 80.0718 76.9168 80.1858C76.6609 80.7918 76.0627 80.703 75.5312 80.6012C73.9212 80.367 72.2866 80.356 70.6736 80.5685C67.2636 80.9627 64.0651 82.0627 60.7677 82.8324C57.5292 83.7269 54.1021 83.6743 50.8926 82.6808C47.8325 81.6295 44.911 80.2401 41.8431 79.1628C39.1493 78.2274 36.3249 77.2324 33.4211 77.7854C30.6487 78.306 28.2296 79.9344 25.6417 80.9995C20.3235 83.1039 14.5673 83.8598 8.88605 83.1999C6.22285 83.0153 3.59547 82.4814 1.07138 81.6121C-0.374843 81.0719 -2.32667 80.3516 -3.19522 78.9607C-3.5926 78.3177 -3.62346 77.2968 -2.86072 76.8988C-2.09798 76.5008 -1.16969 77.0551 -0.486065 77.2877C2.47997 78.2641 5.55824 78.8589 8.67453 79.0577C11.685 79.3546 14.7217 79.2488 17.7042 78.7429C20.4334 78.1727 23.0713 77.23 25.5437 75.9412C28.1103 74.6637 30.6938 73.3248 33.5833 73.0301C36.4728 72.7355 39.3432 73.625 42.0447 74.7275C44.9034 75.8604 47.6379 77.214 50.3697 78.5826C52.8989 79.9623 55.7637 80.6067 58.6401 80.443C64.5789 80.081 70.3932 77.8441 76.3719 78.9802Z" fill="url(#paint10_linear_232_8086)" fill-opacity="0.8" style="mix-blend-mode:color-burn"/>
<path fill-rule="evenodd" clip-rule="evenodd" d="M76.3719 78.9802C76.4918 79.0165 76.6026 79.0781 76.6968 79.1607C76.791 79.2434 76.8664 79.3452 76.918 79.4593C76.9696 79.5735 76.9962 79.6974 76.996 79.8227C76.9958 79.948 76.9687 80.0718 76.9168 80.1858C76.6609 80.7918 76.0627 80.703 75.5312 80.6012C73.9212 80.367 72.2866 80.356 70.6736 80.5685C67.2636 80.9627 64.0651 82.0627 60.7677 82.8324C57.5292 83.7269 54.1021 83.6743 50.8926 82.6808C47.8325 81.6295 44.911 80.2401 41.8431 79.1628C39.1493 78.2274 36.3249 77.2324 33.4211 77.7854C30.6487 78.306 28.2296 79.9344 25.6417 80.9995C20.3235 83.1039 14.5673 83.8598 8.88605 83.1999C6.22285 83.0153 3.59547 82.4814 1.07138 81.6121C-0.374843 81.0719 -2.32667 80.3516 -3.19522 78.9607C-3.5926 78.3177 -3.62346 77.2968 -2.86072 76.8988C-2.09798 76.5008 -1.16969 77.0551 -0.486065 77.2877C2.47997 78.2641 5.55824 78.8589 8.67453 79.0577C11.685 79.3546 14.7217 79.2488 17.7042 78.7429C20.4334 78.1727 23.0713 77.23 25.5437 75.9412C28.1103 74.6637 30.6938 73.3248 33.5833 73.0301C36.4728 72.7355 39.3432 73.625 42.0447 74.7275C44.9034 75.8604 47.6379 77.214 50.3697 78.5826C52.8989 79.9623 55.7637 80.6067 58.6401 80.443C64.5789 80.081 70.3932 77.8441 76.3719 78.9802Z" fill="#2F3941" fill-opacity="0.15" style="mix-blend-mode:multiply"/>
</g>
<path fill-rule="evenodd" clip-rule="evenodd" d="M57.4868 62.4208L65.3125 53.6404L69.7434 62.1869L66.4067 65.9307L57.4868 62.4208Z" fill="#C57F12"/>
<path fill-rule="evenodd" clip-rule="evenodd" d="M27.764 34.1225C28.09 33.6192 28.5409 33.209 29.0727 32.932C30.2083 32.3961 31.4536 33.0571 32.2746 33.812C33.1581 34.6227 33.9659 35.6833 35.2875 35.6421C35.8962 35.6235 36.4986 35.4599 37.1081 35.4535C37.7577 35.4499 38.4034 35.5546 39.0187 35.7631C40.1451 36.1363 41.2546 36.8194 41.8241 37.8998C42.325 38.8532 42.3698 40.1664 43.3626 40.7764C44.3956 41.4107 45.8808 41.1207 47.0468 41.1498C48.3741 41.1717 49.8492 41.4532 50.9194 42.2368C51.9468 42.986 52.537 44.2473 52.6898 45.5175C52.9909 48.0498 52.0022 50.5703 50.2948 52.4774C49.5701 53.2905 48.7181 54.1682 47.652 54.4873C47.3563 54.5688 47.045 54.5747 46.7465 54.5046C46.4654 54.4638 46.1789 54.4795 45.904 54.551C45.274 54.6696 44.6235 54.6144 44.0225 54.3911C41.68 53.5456 40.0583 51.1056 39.3963 48.7741C39.2399 48.2244 39.0618 47.7251 38.5305 47.4528C37.9534 47.2036 37.3399 47.0488 36.7137 46.9946C36.1034 46.9352 35.498 46.834 34.9017 46.6915C34.3054 46.5036 33.77 46.16 33.3507 45.6962C32.5438 44.8153 32.0096 43.7195 31.8126 42.5413C31.5917 41.404 31.4796 40.2011 30.58 39.3954C29.6224 38.542 28.1959 38.4316 27.4731 37.2843C27.1388 36.803 26.9863 36.2185 27.0427 35.6352C27.1686 35.0839 27.4149 34.5673 27.764 34.1225Z" fill="white" stroke="#68737D" stroke-width="0.436309" stroke-miterlimit="10"/>
<path fill-rule="evenodd" clip-rule="evenodd" d="M29.0392 35.7702C29.0124 35.7379 28.993 35.7001 28.9823 35.6595C28.9716 35.619 28.9699 35.5765 28.9773 35.5352C28.9846 35.4939 29.0009 35.4547 29.025 35.4203C29.049 35.3859 29.0803 35.3571 29.1166 35.336C29.3 35.217 29.4469 35.3518 29.5747 35.4734C29.9686 35.8383 30.4113 36.1468 30.8899 36.3902C31.8839 36.9163 32.967 37.2121 34.0075 37.6209C35.0605 37.9791 35.986 38.6371 36.6701 39.5141C37.3067 40.3717 37.8371 41.305 38.4701 42.171C39.0274 42.9308 39.6139 43.7361 40.4997 44.1231C41.3854 44.51 42.32 44.4993 43.223 44.6888C45.0667 45.0972 46.7795 45.9587 48.2065 47.1954C48.896 47.7452 49.5099 48.3835 50.0325 49.0938C50.3225 49.5109 50.703 50.0783 50.6931 50.6191C50.6959 50.684 50.6857 50.7488 50.663 50.8097C50.6403 50.8705 50.6056 50.9262 50.561 50.9735C50.5164 51.0207 50.4628 51.0584 50.4033 51.0846C50.3438 51.1107 50.2797 51.1246 50.2148 51.1255C49.947 51.0958 49.7829 50.7676 49.6409 50.5753C49.0195 49.7522 48.294 49.0133 47.4825 48.3768C46.7197 47.7337 45.8739 47.1959 44.9679 46.778C44.1167 46.4265 43.2213 46.1936 42.3068 46.0859C41.3684 45.9577 40.4124 45.8449 39.5719 45.3898C38.7313 44.9348 38.1172 44.1475 37.5863 43.3493C37.0222 42.5059 36.5257 41.63 36.0524 40.7282C35.6239 39.8791 34.9654 39.1675 34.152 38.6746C32.453 37.6673 30.4495 37.2013 29.0392 35.7702Z" fill="#C72A1C"/>
<path fill-rule="evenodd" clip-rule="evenodd" d="M42.3946 26.4152C43.0388 25.995 43.7815 25.7499 44.5493 25.7041C46.166 25.6705 47.2783 27.1146 47.8516 28.4383C48.4678 29.866 48.8672 31.5455 50.446 32.2057C51.1714 32.5078 51.9603 32.6343 52.6804 32.951C53.4459 33.2912 54.1497 33.7562 54.7628 34.3271C55.8907 35.3672 56.8469 36.7651 56.9475 38.337C57.0418 39.7292 56.4143 41.3061 57.2612 42.5486C58.1463 43.8482 60.0399 44.2898 61.3932 44.9425C62.9253 45.6811 64.5256 46.7862 65.383 48.2818C66.1978 49.7123 66.234 51.5171 65.7559 53.0957C64.7954 56.2489 62.3166 58.6914 59.3294 60.05C58.0503 60.6167 56.591 61.2162 55.1844 61.0229C54.7939 60.9626 54.425 60.8043 54.1123 60.5627C53.8043 60.3676 53.4608 60.2351 53.1015 60.1727C52.2975 59.9782 51.5616 59.5685 50.9728 58.9875C48.6655 56.7609 48.022 53.0061 48.4575 49.9035C48.5585 49.1692 48.6053 48.4872 48.1264 47.8824C47.6476 47.2777 46.8865 46.816 46.215 46.384C45.5287 45.9914 44.8697 45.5528 44.2427 45.0711C43.6352 44.5349 43.1794 43.8484 42.9209 43.0804C42.429 41.6134 42.3682 40.0361 42.7456 38.5355C43.075 37.076 43.5691 35.5968 42.9282 34.1665C42.2498 32.6524 40.6509 31.7498 40.378 30.0282C40.2363 29.2844 40.3608 28.5145 40.7298 27.8533C41.1178 27.2355 41.7878 26.7877 42.3946 26.4152Z" fill="white" stroke="#68737D" stroke-width="0.436309" stroke-miterlimit="10"/>
<path fill-rule="evenodd" clip-rule="evenodd" d="M43.2781 29.1879C43.2645 29.1362 43.262 29.082 43.271 29.0292C43.28 28.9764 43.3002 28.9262 43.3302 28.8818C43.3602 28.8375 43.3994 28.8 43.445 28.772C43.4907 28.7441 43.5418 28.7262 43.5949 28.7195C43.8728 28.677 43.9745 28.9146 44.0565 29.1309C44.3318 29.7695 44.694 30.367 45.1326 30.9066C46.0399 32.0597 47.1567 32.9777 48.1755 34.0057C49.2265 34.9842 49.975 36.2436 50.3322 37.6345C50.6349 38.984 50.7835 40.3587 51.0784 41.7169C51.3413 42.907 51.6117 44.1581 52.4634 45.0913C53.2739 45.984 54.4085 46.4999 55.3759 47.2034C57.3332 48.6681 58.8976 50.5943 59.9299 52.8103C60.4592 53.8211 60.8534 54.8972 61.1023 56.0107C61.2295 56.6582 61.4045 57.5301 61.0927 58.1578C60.9476 58.4465 60.5829 58.6864 60.2671 58.4979C59.9514 58.3094 59.9453 57.8473 59.8768 57.5463C59.568 56.2478 59.095 54.994 58.4694 53.815C57.9032 52.6526 57.1845 51.5709 56.3323 50.5984C55.5134 49.7326 54.5794 48.9835 53.5564 48.3721C52.5165 47.7238 51.4504 47.0833 50.696 46.0974C49.9415 45.1115 49.6224 43.8673 49.4186 42.6369C49.1908 41.3425 49.0711 40.0438 48.9574 38.7428C48.8932 37.5131 48.4861 36.3258 47.7822 35.3154C46.3203 33.2345 44.2036 31.6189 43.2781 29.1879Z" fill="#E34F32"/>
<path fill-rule="evenodd" clip-rule="evenodd" d="M34.7701 49.6781C35.1712 49.2534 35.6627 48.9243 36.2081 48.7151C36.7536 48.506 37.3391 48.4221 37.9214 48.4698C39.2918 48.5301 40.3678 49.2724 41.5453 49.8575C42.1307 50.1781 42.8007 50.3103 43.4639 50.2362C44.0682 50.1401 44.5263 49.7434 45.0473 49.4454C45.5618 49.1529 46.137 48.9834 46.7279 48.9501C47.3188 48.9168 47.9095 49.0207 48.4535 49.2537C49.7656 49.831 50.4809 51.0954 51.5656 51.9538C52.5624 52.7416 53.9857 52.3344 55.1097 51.9895C56.2338 51.6445 57.2277 51.35 58.3054 51.9081C59.4421 52.4955 60.5422 53.3367 61.1645 54.4795C62.2009 56.3823 61.4492 58.5762 60.1763 60.2127C59.0215 61.6951 57.3044 63.3264 55.3419 63.4659C54.7768 63.4872 54.2135 63.389 53.689 63.1776C53.1644 62.9662 52.6905 62.6464 52.2981 62.2392C51.7943 61.7432 51.3486 61.1915 50.9697 60.5946C50.7167 60.1613 50.4295 59.7487 50.111 59.361C49.2073 58.3776 48.2005 59.125 47.2329 59.6636C46.0649 60.3116 44.6892 60.4752 43.4019 60.1191C42.1502 59.8576 41.0514 59.1146 40.3425 58.0503C39.9894 57.4873 39.7733 56.8493 39.7115 56.1876C39.6824 55.8946 39.7352 55.5663 39.6859 55.2785C39.6487 55.1553 39.584 55.0421 39.4967 54.9475C39.4094 54.8529 39.3017 54.7794 39.1818 54.7325C38.1403 54.1642 36.8774 54.157 35.8231 53.616C34.8701 53.1265 34.0117 52.1486 34.144 50.9971C34.2169 50.505 34.4349 50.0458 34.7701 49.6781Z" fill="white" stroke="#68737D" stroke-width="0.436309" stroke-miterlimit="10"/>
<path fill-rule="evenodd" clip-rule="evenodd" d="M38.1024 50.4466C39.972 50.3985 41.583 51.3699 42.9913 52.4819C43.7784 53.1099 44.5334 53.8563 45.4525 54.2885C46.243 54.6563 47.1137 54.639 47.9622 54.5903C49.685 54.481 51.519 54.2773 53.0687 55.1786C53.9768 55.7055 54.6765 56.5226 55.632 56.9834C56.5211 57.3987 57.4744 57.6594 58.4511 57.7544C59.225 57.8327 59.9811 57.7094 60.7515 57.7265C60.9871 57.7314 61.3297 57.7465 61.4751 57.9611C61.6427 58.2073 61.4664 58.5571 61.255 58.7248C60.7581 59.1217 59.9598 59.1185 59.3672 59.1321C58.5058 59.1606 57.6445 59.076 56.8051 58.8803C55.8616 58.6751 54.9586 58.3149 54.1328 57.8144C53.2856 57.2799 52.5674 56.5314 51.6141 56.181C50.0064 55.5879 48.2903 56.0979 46.6264 56.0933C44.5593 56.0853 43.2694 54.6493 41.9238 53.2758C41.1928 52.5198 40.3585 51.6756 39.3015 51.4417C38.8951 51.3505 38.3408 51.4601 37.9725 51.248C37.6043 51.0359 37.6387 50.459 38.1024 50.4466Z" fill="#C72A1C"/>
<g clip-path="url(#clip1_232_8086)" filter="url(#filter0_d_232_8086)">
<g filter="url(#filter1_d_232_8086)">
<g filter="url(#filter2_di_232_8086)">
<path fill-rule="evenodd" clip-rule="evenodd" d="M167.064 32.573C167.674 32.573 168.228 32.9043 168.629 33.4464C169.019 33.9752 169.262 34.7052 169.262 35.5125V120.709C169.262 121.517 169.262 122.894 169.262 123.649C168.507 123.649 167.674 123.649 167.065 123.649H52.7094C52.0997 123.649 51.2662 123.649 50.5117 123.649C50.5119 122.894 50.5117 121.517 50.5117 120.709V35.5125C50.5117 34.7052 50.7547 33.9752 51.1451 33.4464C51.5454 32.904 52.0997 32.573 52.7097 32.573H167.064Z" fill="white"/>
</g>
<path opacity="0.3" fill-rule="evenodd" clip-rule="evenodd" d="M50.5117 32.573H169.262V39.3915H50.5117V32.573Z" fill="#C6C3B3"/>
<path d="M151.554 37.8419C152.513 37.8419 153.29 37.1481 153.29 36.2922C153.29 35.4364 152.513 34.7426 151.554 34.7426C150.595 34.7426 149.818 35.4364 149.818 36.2922C149.818 37.1481 150.595 37.8419 151.554 37.8419Z" fill="#70C38A"/>
<path d="M164.055 37.8419C165.013 37.8419 165.791 37.1481 165.791 36.2923C165.791 35.4364 165.013 34.7426 164.055 34.7426C163.096 34.7426 162.318 35.4364 162.318 36.2923C162.318 37.1481 163.096 37.8419 164.055 37.8419Z" fill="url(#paint11_linear_232_8086)"/>
<path d="M157.804 37.8419C158.763 37.8419 159.54 37.1481 159.54 36.2923C159.54 35.4364 158.763 34.7426 157.804 34.7426C156.845 34.7426 156.068 35.4364 156.068 36.2923C156.068 37.1481 156.845 37.8419 157.804 37.8419Z" fill="#C57F12"/>
<path d="M145.141 34.3559H53.474C53.0905 34.3559 52.7796 34.6334 52.7796 34.9758V37.4552C52.7796 37.7976 53.0905 38.0751 53.474 38.0751H145.141C145.525 38.0751 145.835 37.7976 145.835 37.4552V34.9758C145.835 34.6334 145.525 34.3559 145.141 34.3559Z" fill="white"/>
<path d="M127.941 48.8736H59.1908C57.6567 48.8736 56.413 49.9837 56.413 51.3531V69.639C56.413 71.0084 57.6567 72.1185 59.1908 72.1185H127.941C129.475 72.1185 130.719 71.0084 130.719 69.639V51.3531C130.719 49.9837 129.475 48.8736 127.941 48.8736Z" fill="#E6EBEE"/>
<path d="M127.941 48.8736H59.1908C57.6567 48.8736 56.413 49.9837 56.413 51.3531V69.639C56.413 71.0084 57.6567 72.1185 59.1908 72.1185H127.941C129.475 72.1185 130.719 71.0084 130.719 69.639V51.3531C130.719 49.9837 129.475 48.8736 127.941 48.8736Z" fill="url(#paint12_linear_232_8086)"/>
<path d="M158.497 48.8736H140.094C138.56 48.8736 137.316 49.9837 137.316 51.3531V69.639C137.316 71.0084 138.56 72.1185 140.094 72.1185H158.497C160.031 72.1185 161.275 71.0084 161.275 69.639V51.3531C161.275 49.9837 160.031 48.8736 158.497 48.8736Z" fill="#E6EBEE"/>
<path d="M158.497 48.8736H140.094C138.56 48.8736 137.316 49.9837 137.316 51.3531V69.639C137.316 71.0084 138.56 72.1185 140.094 72.1185H158.497C160.031 72.1185 161.275 71.0084 161.275 69.639V51.3531C161.275 49.9837 160.031 48.8736 158.497 48.8736Z" fill="url(#paint13_linear_232_8086)"/>
<path d="M160.112 41.6303H57.5861C56.9963 41.6303 56.5181 42.0399 56.5181 42.5451V45.7472C56.5181 46.2525 56.9963 46.6621 57.5861 46.6621H160.112C160.701 46.6621 161.18 46.2525 161.18 45.7472V42.5451C161.18 42.0399 160.701 41.6303 160.112 41.6303Z" fill="#E6EBEE"/>
<path fill-rule="evenodd" clip-rule="evenodd" d="M59.5129 42.637C58.8381 42.637 58.208 43.1771 58.208 43.9484C58.208 44.7196 58.8381 45.2597 59.5129 45.2597C59.7168 45.2597 59.9166 45.2104 60.0962 45.1203L60.531 45.541C60.7032 45.7076 60.9673 45.6913 61.1209 45.5047C61.2746 45.3181 61.2596 45.0318 61.0875 44.8652L60.7025 44.4927C60.776 44.3301 60.8178 44.1469 60.8178 43.9484C60.8178 43.1771 60.1876 42.637 59.5129 42.637ZM59.0436 43.9484C59.0436 43.7714 59.2078 43.5429 59.5129 43.5429C59.8179 43.5429 59.9822 43.7714 59.9822 43.9484C59.9822 44.1253 59.8179 44.3538 59.5129 44.3538C59.2078 44.3538 59.0436 44.1253 59.0436 43.9484Z" fill="url(#paint14_linear_232_8086)"/>
</g>
<path d="M186.476 116.955H32.3692C30.4394 116.955 28.875 118.303 28.875 119.966V125.989C28.875 127.652 30.4394 129 32.3692 129H186.476C188.406 129 189.97 127.652 189.97 125.989V119.966C189.97 118.303 188.406 116.955 186.476 116.955Z" fill="#E6EBEE"/>
<path d="M186.476 116.955H32.3692C30.4394 116.955 28.875 118.303 28.875 119.966V125.989C28.875 127.652 30.4394 129 32.3692 129H186.476C188.406 129 189.97 127.652 189.97 125.989V119.966C189.97 118.303 188.406 116.955 186.476 116.955Z" fill="url(#paint15_linear_232_8086)" fill-opacity="0.8" style="mix-blend-mode:color-burn"/>
<path d="M186.476 116.955H32.3692C30.4394 116.955 28.875 118.303 28.875 119.966V125.989C28.875 127.652 30.4394 129 32.3692 129H186.476C188.406 129 189.97 127.652 189.97 125.989V119.966C189.97 118.303 188.406 116.955 186.476 116.955Z" fill="#22716C" fill-opacity="0.4" style="mix-blend-mode:multiply"/>
<path fill-rule="evenodd" clip-rule="evenodd" d="M34.9298 120.299L38.3217 122.552C38.3925 122.598 38.4503 122.661 38.4901 122.733C38.53 122.805 38.5508 122.885 38.5508 122.967C38.5508 123.048 38.53 123.128 38.4901 123.2C38.4503 123.273 38.3925 123.335 38.3217 123.382L34.9298 125.634C34.8488 125.688 34.7536 125.72 34.6547 125.726C34.5557 125.733 34.4568 125.713 34.3688 125.671C34.2807 125.628 34.2069 125.563 34.1553 125.483C34.1038 125.404 34.0766 125.312 34.0766 125.219V120.714C34.0766 120.621 34.1038 120.53 34.1553 120.45C34.2069 120.37 34.2807 120.306 34.3688 120.263C34.4568 120.22 34.5557 120.201 34.6547 120.207C34.7536 120.213 34.8488 120.245 34.9298 120.299Z" fill="white"/>
<path d="M183.279 121.974H43.0935C42.4471 121.974 41.923 122.424 41.923 122.978C41.923 123.532 42.4471 123.982 43.0935 123.982H183.279C183.925 123.982 184.449 123.532 184.449 122.978C184.449 122.424 183.925 121.974 183.279 121.974Z" fill="#E9EBED"/>
<path d="M142.831 121.974H42.8915C42.3566 121.974 41.923 122.424 41.923 122.978C41.923 123.532 42.3566 123.982 42.8915 123.982H142.831C143.366 123.982 143.799 123.532 143.799 122.978C143.799 122.424 143.366 121.974 142.831 121.974Z" fill="#2F3941"/>
<g filter="url(#filter3_di_232_8086)">
<circle cx="56.1488" cy="122.91" r="2.25834" fill="white"/>
</g>
<circle cx="56.1486" cy="122.91" r="1.25463" fill="#C57F12"/>
<g filter="url(#filter4_di_232_8086)">
<circle cx="78.23" cy="122.91" r="2.25834" fill="white"/>
</g>
<circle cx="78.2306" cy="122.91" r="1.25463" fill="#A8262C"/>
<g filter="url(#filter5_di_232_8086)">
<circle cx="109.345" cy="122.91" r="2.25834" fill="white"/>
</g>
<circle cx="109.345" cy="122.91" r="1.25463" fill="#007D5A"/>
<g filter="url(#filter6_d_232_8086)">
<path d="M172.254 82.5214H144.794C141.424 82.5214 138.693 85.253 138.693 88.6225V110.973C138.693 114.342 141.424 117.074 144.794 117.074H172.254C175.624 117.074 178.355 114.342 178.355 110.973V88.6225C178.355 85.253 175.624 82.5214 172.254 82.5214Z" fill="white"/>
<path d="M145.064 116.836L145.064 119.58C145.064 120.028 145.606 120.253 145.923 119.936L149.111 116.747L145.064 116.836Z" fill="white"/>
<path d="M137.742 98.3018L135.252 95.4706C134.579 94.7975 134.348 94.4734 134.483 94.3555C134.663 94.1982 134.586 94.2501 135.984 95.2992C135.984 95.2992 134.002 93.7845 134.689 93.7751C134.81 93.7751 135.147 93.9701 135.507 94.2061C135.016 93.7893 134.878 93.5077 134.974 93.374C135.131 93.1412 136.346 93.9827 136.904 94.3869C136.448 94.0472 135.578 93.3882 135.425 93.1806C135.215 92.8975 135.641 92.921 135.987 93.039C136.375 93.1711 138.522 94.2674 139.158 94.5505C139.209 94.5809 139.266 94.5999 139.325 94.6062C139.384 94.6125 139.443 94.6059 139.5 94.5869C139.556 94.5679 139.607 94.537 139.65 94.4962C139.693 94.4555 139.727 94.4058 139.749 94.3508C139.984 93.3662 140.693 92.726 140.963 92.6426C141.234 92.5593 141.443 92.9053 141.25 93.157C141.068 93.4498 140.927 93.7663 140.831 94.0975C140.744 94.3574 140.701 94.6302 140.704 94.9044C140.704 95.219 140.726 95.4911 140.746 95.7191L143.022 98.8412L139.216 101.043L137.742 98.3018Z" fill="#E6EBEE"/>
<path d="M137.742 98.3018L135.252 95.4706C134.579 94.7975 134.348 94.4734 134.483 94.3555C134.663 94.1982 134.586 94.2501 135.984 95.2992C135.984 95.2992 134.002 93.7845 134.689 93.7751C134.81 93.7751 135.147 93.9701 135.507 94.2061C135.016 93.7893 134.878 93.5077 134.974 93.374C135.131 93.1412 136.346 93.9827 136.904 94.3869C136.448 94.0472 135.578 93.3882 135.425 93.1806C135.215 92.8975 135.641 92.921 135.987 93.039C136.375 93.1711 138.522 94.2674 139.158 94.5505C139.209 94.5809 139.266 94.5999 139.325 94.6062C139.384 94.6125 139.443 94.6059 139.5 94.5869C139.556 94.5679 139.607 94.537 139.65 94.4962C139.693 94.4555 139.727 94.4058 139.749 94.3508C139.984 93.3662 140.693 92.726 140.963 92.6426C141.234 92.5593 141.443 92.9053 141.25 93.157C141.068 93.4498 140.927 93.7663 140.831 94.0975C140.744 94.3574 140.701 94.6302 140.704 94.9044C140.704 95.219 140.726 95.4911 140.746 95.7191L143.022 98.8412L139.216 101.043L137.742 98.3018Z" fill="url(#paint16_linear_232_8086)" fill-opacity="0.8" style="mix-blend-mode:color-burn"/>
<path d="M137.742 98.3018L135.252 95.4706C134.579 94.7975 134.348 94.4734 134.483 94.3555C134.663 94.1982 134.586 94.2501 135.984 95.2992C135.984 95.2992 134.002 93.7845 134.689 93.7751C134.81 93.7751 135.147 93.9701 135.507 94.2061C135.016 93.7893 134.878 93.5077 134.974 93.374C135.131 93.1412 136.346 93.9827 136.904 94.3869C136.448 94.0472 135.578 93.3882 135.425 93.1806C135.215 92.8975 135.641 92.921 135.987 93.039C136.375 93.1711 138.522 94.2674 139.158 94.5505C139.209 94.5809 139.266 94.5999 139.325 94.6062C139.384 94.6125 139.443 94.6059 139.5 94.5869C139.556 94.5679 139.607 94.537 139.65 94.4962C139.693 94.4555 139.727 94.4058 139.749 94.3508C139.984 93.3662 140.693 92.726 140.963 92.6426C141.234 92.5593 141.443 92.9053 141.25 93.157C141.068 93.4498 140.927 93.7663 140.831 94.0975C140.744 94.3574 140.701 94.6302 140.704 94.9044C140.704 95.219 140.726 95.4911 140.746 95.7191L143.022 98.8412L139.216 101.043L137.742 98.3018Z" fill="#2F3941" fill-opacity="0.15" style="mix-blend-mode:multiply"/>
<path d="M136.852 95.7392C136.826 95.7738 136.38 95.4703 135.864 95.0599C135.348 94.6495 134.946 94.2878 134.976 94.2548C135.005 94.2217 135.447 94.5268 135.963 94.9341C136.479 95.3414 136.874 95.703 136.852 95.7392Z" fill="#E6EBEE"/>
<path d="M136.852 95.7392C136.826 95.7738 136.38 95.4703 135.864 95.0599C135.348 94.6495 134.946 94.2878 134.976 94.2548C135.005 94.2217 135.447 94.5268 135.963 94.9341C136.479 95.3414 136.874 95.703 136.852 95.7392Z" fill="url(#paint17_linear_232_8086)" fill-opacity="0.8" style="mix-blend-mode:color-burn"/>
<path d="M136.852 95.7392C136.826 95.7738 136.38 95.4703 135.864 95.0599C135.348 94.6495 134.946 94.2878 134.976 94.2548C135.005 94.2217 135.447 94.5268 135.963 94.9341C136.479 95.3414 136.874 95.703 136.852 95.7392Z" fill="#2F3941" fill-opacity="0.15" style="mix-blend-mode:multiply"/>
<path d="M137.334 95.2419C137.309 95.278 136.82 94.9793 136.241 94.5767C135.662 94.1741 135.212 93.8172 135.238 93.7826C135.263 93.748 135.752 94.0436 136.331 94.4462C136.909 94.8488 137.359 95.2057 137.334 95.2419Z" fill="#E6EBEE"/>
<path d="M137.334 95.2419C137.309 95.278 136.82 94.9793 136.241 94.5767C135.662 94.1741 135.212 93.8172 135.238 93.7826C135.263 93.748 135.752 94.0436 136.331 94.4462C136.909 94.8488 137.359 95.2057 137.334 95.2419Z" fill="url(#paint18_linear_232_8086)" fill-opacity="0.8" style="mix-blend-mode:color-burn"/>
<path d="M137.334 95.2419C137.309 95.278 136.82 94.9793 136.241 94.5767C135.662 94.1741 135.212 93.8172 135.238 93.7826C135.263 93.748 135.752 94.0436 136.331 94.4462C136.909 94.8488 137.359 95.2057 137.334 95.2419Z" fill="#2F3941" fill-opacity="0.15" style="mix-blend-mode:multiply"/>
<path d="M137.685 94.7137C137.66 94.7499 137.192 94.4763 136.64 94.102C136.088 93.7277 135.66 93.3959 135.684 93.3582C135.707 93.3205 136.176 93.5957 136.729 93.9699C137.283 94.3442 137.709 94.6775 137.685 94.7137Z" fill="#E6EBEE"/>
<path d="M137.685 94.7137C137.66 94.7499 137.192 94.4763 136.64 94.102C136.088 93.7277 135.66 93.3959 135.684 93.3582C135.707 93.3205 136.176 93.5957 136.729 93.9699C137.283 94.3442 137.709 94.6775 137.685 94.7137Z" fill="url(#paint19_linear_232_8086)" fill-opacity="0.8" style="mix-blend-mode:color-burn"/>
<path d="M137.685 94.7137C137.66 94.7499 137.192 94.4763 136.64 94.102C136.088 93.7277 135.66 93.3959 135.684 93.3582C135.707 93.3205 136.176 93.5957 136.729 93.9699C137.283 94.3442 137.709 94.6775 137.685 94.7137Z" fill="#2F3941" fill-opacity="0.15" style="mix-blend-mode:multiply"/>
<path d="M140.959 96.1419L150.031 107.646L147.953 112.482C147.953 112.482 145.465 111.932 144.71 110.884C143.955 109.837 137.742 98.3014 137.742 98.3014L140.959 96.1419Z" fill="#E6EBEE"/>
<path d="M140.959 96.1419L150.031 107.646L147.953 112.482C147.953 112.482 145.465 111.932 144.71 110.884C143.955 109.837 137.742 98.3014 137.742 98.3014L140.959 96.1419Z" fill="url(#paint20_linear_232_8086)" fill-opacity="0.8" style="mix-blend-mode:color-burn"/>
<path d="M140.959 96.1419L150.031 107.646L147.953 112.482C147.953 112.482 145.465 111.932 144.71 110.884C143.955 109.837 137.742 98.3014 137.742 98.3014L140.959 96.1419Z" fill="#2F3941" fill-opacity="0.15" style="mix-blend-mode:multiply"/>
<path d="M163.989 80.0486C164.642 80.6148 164.64 81.612 164.565 82.4723C164.489 83.3327 164.431 84.3126 165.027 84.9386C165.519 85.4544 166.411 85.6794 166.524 86.3824C166.551 86.5476 166.526 86.7171 166.453 86.8675C166.379 87.0179 166.261 87.1419 166.114 87.2224C165.968 87.3029 165.8 87.336 165.633 87.3171C165.467 87.2982 165.311 87.2283 165.186 87.1169C165.378 87.6722 165.246 88.3658 164.764 88.7024C164.283 89.039 163.476 88.8314 163.327 88.2636C163.351 88.3584 163.356 88.4572 163.34 88.5538C163.325 88.6505 163.29 88.743 163.237 88.8254C163.184 88.9079 163.115 88.9786 163.034 89.0332C162.953 89.0877 162.861 89.1249 162.765 89.1425C162.668 89.16 162.569 89.1575 162.474 89.1352C162.379 89.1128 162.289 89.071 162.211 89.0125C162.132 88.9539 162.067 88.8798 162.018 88.7948C161.97 88.7098 161.939 88.6157 161.928 88.5184" fill="#263238"/>
<path d="M154.641 85.8556C154.553 86.0662 154.385 86.2334 154.174 86.3203C153.963 86.4071 153.726 86.4066 153.515 86.3188C153.305 86.231 153.137 86.0631 153.051 85.852C152.964 85.641 152.964 85.4041 153.052 85.1934C153.201 84.8663 153.555 84.6303 153.59 84.2717C153.631 83.8392 153.189 83.5293 152.804 83.3406C152.418 83.1519 151.953 82.9065 151.91 82.4724C151.868 82.0383 152.244 81.7284 152.557 81.4485C152.87 81.1685 153.186 80.7344 152.986 80.3616C152.887 80.1697 152.681 80.0612 152.547 79.8898C152.253 79.5154 152.407 78.9193 152.783 78.6315C153.159 78.3437 153.678 78.298 154.147 78.3814C154.615 78.4648 155.056 78.6598 155.512 78.7966C156.268 79.0165 157.062 79.0772 157.842 78.9748C158.623 78.8725 159.374 78.6094 160.048 78.2021" fill="#263238"/>
<path d="M157.425 95.9989C158.238 96.1629 159.082 96.0008 159.777 95.5477C160.471 95.0945 160.959 94.3866 161.136 93.5767L163.368 83.3438C163.507 82.7529 163.526 82.1401 163.425 81.5415C163.323 80.943 163.102 80.371 162.776 79.8592C162.449 79.3474 162.023 78.9063 161.523 78.562C161.023 78.2177 160.459 77.9771 159.865 77.8545L159.632 77.8199C158.495 77.6528 157.337 77.9201 156.388 78.5686C155.439 79.2172 154.77 80.1994 154.512 81.3195C154.015 83.479 153.495 85.8713 153.338 87.0463C153.012 89.4795 155.382 90.2124 155.382 90.2124L154.956 92.2571C154.872 92.6645 154.868 93.0846 154.947 93.4932C155.025 93.9018 155.183 94.2909 155.412 94.6382C155.642 94.9855 155.937 95.284 156.282 95.5167C156.627 95.7494 157.014 95.9117 157.422 95.9942L157.425 95.9989Z" fill="#E6EBEE"/>
<path d="M157.425 95.9989C158.238 96.1629 159.082 96.0008 159.777 95.5477C160.471 95.0945 160.959 94.3866 161.136 93.5767L163.368 83.3438C163.507 82.7529 163.526 82.1401 163.425 81.5415C163.323 80.943 163.102 80.371 162.776 79.8592C162.449 79.3474 162.023 78.9063 161.523 78.562C161.023 78.2177 160.459 77.9771 159.865 77.8545L159.632 77.8199C158.495 77.6528 157.337 77.9201 156.388 78.5686C155.439 79.2172 154.77 80.1994 154.512 81.3195C154.015 83.479 153.495 85.8713 153.338 87.0463C153.012 89.4795 155.382 90.2124 155.382 90.2124L154.956 92.2571C154.872 92.6645 154.868 93.0846 154.947 93.4932C155.025 93.9018 155.183 94.2909 155.412 94.6382C155.642 94.9855 155.937 95.284 156.282 95.5167C156.627 95.7494 157.014 95.9117 157.422 95.9942L157.425 95.9989Z" fill="url(#paint21_linear_232_8086)" fill-opacity="0.8" style="mix-blend-mode:color-burn"/>
<path d="M157.425 95.9989C158.238 96.1629 159.082 96.0008 159.777 95.5477C160.471 95.0945 160.959 94.3866 161.136 93.5767L163.368 83.3438C163.507 82.7529 163.526 82.1401 163.425 81.5415C163.323 80.943 163.102 80.371 162.776 79.8592C162.449 79.3474 162.023 78.9063 161.523 78.562C161.023 78.2177 160.459 77.9771 159.865 77.8545L159.632 77.8199C158.495 77.6528 157.337 77.9201 156.388 78.5686C155.439 79.2172 154.77 80.1994 154.512 81.3195C154.015 83.479 153.495 85.8713 153.338 87.0463C153.012 89.4795 155.382 90.2124 155.382 90.2124L154.956 92.2571C154.872 92.6645 154.868 93.0846 154.947 93.4932C155.025 93.9018 155.183 94.2909 155.412 94.6382C155.642 94.9855 155.937 95.284 156.282 95.5167C156.627 95.7494 157.014 95.9117 157.422 95.9942L157.425 95.9989Z" fill="#2F3941" fill-opacity="0.15" style="mix-blend-mode:multiply"/>
<path d="M154.951 82.9302C154.937 83.0205 154.959 83.1126 155.012 83.1871C155.064 83.2617 155.144 83.3128 155.234 83.3297C155.277 83.3396 155.322 83.3407 155.366 83.3329C155.41 83.3252 155.452 83.3088 155.49 83.2846C155.527 83.2604 155.559 83.229 155.585 83.1922C155.61 83.1554 155.627 83.1139 155.636 83.0702C155.651 82.98 155.63 82.8877 155.577 82.813C155.524 82.7383 155.445 82.6873 155.355 82.6708C155.311 82.6608 155.266 82.6597 155.222 82.6674C155.178 82.6751 155.136 82.6916 155.098 82.7157C155.061 82.7399 155.028 82.7713 155.003 82.8081C154.978 82.8449 154.96 82.8865 154.951 82.9302Z" fill="#263238"/>
<path d="M154.861 82.5843C154.897 82.6362 155.188 82.479 155.563 82.5356C155.937 82.5922 156.181 82.8171 156.228 82.7777C156.251 82.7604 156.218 82.6724 156.113 82.5686C155.968 82.4331 155.784 82.3457 155.588 82.3186C155.394 82.2893 155.196 82.3223 155.022 82.4129C154.894 82.4853 154.844 82.5607 154.861 82.5843Z" fill="#263238"/>
<path d="M158.599 83.5277C158.584 83.6181 158.606 83.7104 158.659 83.785C158.712 83.8596 158.792 83.9106 158.882 83.9271C158.925 83.937 158.97 83.9381 159.014 83.9303C159.058 83.9224 159.1 83.9059 159.138 83.8815C159.176 83.8572 159.208 83.8256 159.233 83.7886C159.258 83.7516 159.275 83.71 159.284 83.6661C159.298 83.576 159.277 83.4838 159.224 83.4095C159.171 83.3351 159.091 83.2844 159.001 83.2683C158.958 83.2581 158.913 83.2568 158.869 83.2645C158.825 83.2721 158.782 83.2885 158.745 83.3127C158.707 83.3369 158.675 83.3684 158.65 83.4054C158.625 83.4423 158.607 83.4839 158.599 83.5277Z" fill="#263238"/>
<path d="M158.52 83.1913C158.556 83.2416 158.847 83.086 159.219 83.1426C159.592 83.1992 159.839 83.424 159.886 83.3847C159.908 83.3674 159.877 83.2794 159.77 83.1756C159.625 83.0401 159.441 82.9527 159.244 82.9256C159.05 82.8963 158.852 82.9293 158.678 83.0199C158.557 83.0875 158.501 83.1677 158.52 83.1913Z" fill="#263238"/>
<path d="M156.76 85.7613C156.76 85.7392 156.538 85.6653 156.17 85.5631C156.076 85.5395 155.989 85.5065 155.983 85.4388C155.99 85.3398 156.026 85.2449 156.087 85.1667C156.212 84.9497 156.341 84.7216 156.475 84.4825C157.018 83.5058 157.419 82.6989 157.386 82.6769C157.353 82.6549 156.875 83.4287 156.332 84.407L155.955 85.0959C155.879 85.2029 155.842 85.333 155.851 85.464C155.861 85.4987 155.878 85.5309 155.902 85.5581C155.925 85.5853 155.955 85.6069 155.988 85.6213C156.038 85.6429 156.091 85.6582 156.145 85.6669C156.345 85.7238 156.552 85.7555 156.76 85.7613Z" fill="#263238"/>
<path d="M158.637 81.7142C158.659 81.8211 159.04 81.8274 159.469 81.9438C159.898 82.0602 160.235 82.2316 160.307 82.1498C160.339 82.1105 160.292 82.0051 160.164 81.8872C159.991 81.7387 159.787 81.6317 159.566 81.5742C159.346 81.5167 159.115 81.5102 158.892 81.5554C158.716 81.5963 158.629 81.6718 158.637 81.7142Z" fill="#263238"/>
<path d="M155.157 81.5241C155.21 81.6185 155.471 81.5681 155.786 81.609C156.1 81.6499 156.349 81.7506 156.415 81.6704C156.448 81.631 156.415 81.5398 156.317 81.4423C156.178 81.3237 156.006 81.2493 155.824 81.2286C155.642 81.2079 155.458 81.2418 155.295 81.326C155.182 81.3967 155.133 81.4785 155.157 81.5241Z" fill="#263238"/>
<path d="M161.123 80.2942L161.134 80.3068C161.477 80.6685 161.666 81.1487 161.663 81.6469V81.6956C161.663 82.4034 161.535 83.1112 161.537 83.8111C161.538 84.511 161.674 85.2566 162.116 85.8071C162.296 86.0351 162.649 86.2239 162.855 86.0194C162.927 85.9324 162.974 85.8266 162.989 85.7143C163.363 84.0612 164.036 82.6456 164.289 80.8966C164.324 80.6625 164.303 80.4234 164.227 80.1991C164.152 79.9748 164.024 79.7718 163.854 79.6069C163.526 79.2923 163.119 78.9526 162.683 79.0863C162.248 79.22 161.611 79.9042 161.247 80.1873" fill="#263238"/>
<path d="M162.389 84.3223C162.433 84.3097 164.13 84.0722 163.833 85.7253C163.535 87.3783 161.945 86.7398 161.945 86.691C161.945 86.6422 162.389 84.3223 162.389 84.3223Z" fill="#E6EBEE"/>
<path d="M162.389 84.3223C162.433 84.3097 164.13 84.0722 163.833 85.7253C163.535 87.3783 161.945 86.7398 161.945 86.691C161.945 86.6422 162.389 84.3223 162.389 84.3223Z" fill="url(#paint22_linear_232_8086)" fill-opacity="0.8" style="mix-blend-mode:color-burn"/>
<path d="M162.389 84.3223C162.433 84.3097 164.13 84.0722 163.833 85.7253C163.535 87.3783 161.945 86.7398 161.945 86.691C161.945 86.6422 162.389 84.3223 162.389 84.3223Z" fill="#2F3941" fill-opacity="0.15" style="mix-blend-mode:multiply"/>
<path d="M162.562 86.1559C162.562 86.1559 162.587 86.1811 162.631 86.2109C162.695 86.2529 162.772 86.2687 162.847 86.255C163.032 86.222 163.229 85.9719 163.29 85.6747C163.322 85.5344 163.322 85.3889 163.29 85.2486C163.284 85.1942 163.264 85.1422 163.233 85.097C163.202 85.0519 163.161 85.0148 163.112 84.9891C163.081 84.9743 163.045 84.971 163.012 84.9799C162.978 84.9888 162.948 85.0094 162.928 85.0379C162.899 85.0787 162.903 85.1149 162.894 85.1149C162.884 85.1149 162.864 85.0819 162.894 85.0158C162.91 84.9767 162.94 84.9444 162.977 84.9246C163.029 84.8983 163.089 84.8933 163.144 84.9105C163.21 84.9367 163.268 84.9794 163.312 85.0344C163.357 85.0895 163.387 85.1551 163.399 85.225C163.442 85.3785 163.448 85.5404 163.416 85.6967C163.345 86.0285 163.119 86.3084 162.869 86.3352C162.822 86.3401 162.775 86.3345 162.73 86.3187C162.686 86.3029 162.646 86.2774 162.612 86.244C162.557 86.1952 162.556 86.1575 162.562 86.1559Z" fill="#263238"/>
<path d="M162.701 79.3518C163.208 78.7463 162.229 77.6295 161.443 77.2505C160.657 76.8714 159.524 77.1136 158.669 77.2646C158.129 77.3606 157.582 77.5242 157.044 77.4219C156.687 77.3326 156.345 77.19 156.031 76.9988C155.716 76.8111 155.366 76.6887 155.002 76.6386C154.819 76.6162 154.634 76.644 154.466 76.7191C154.297 76.7942 154.153 76.9137 154.048 77.0649C153.86 77.3795 153.991 77.8718 154.343 77.974C154.237 77.8934 154.113 77.8397 153.981 77.8177C153.85 77.7956 153.715 77.8057 153.588 77.8472C153.462 77.8887 153.347 77.9603 153.254 78.0559C153.161 78.1514 153.093 78.2681 153.055 78.3959C153.017 78.5237 153.01 78.6588 153.036 78.7896C153.062 78.9204 153.119 79.043 153.203 79.1469C153.286 79.2508 153.394 79.3329 153.516 79.3861C153.638 79.4393 153.771 79.4621 153.904 79.4525C153.695 79.2386 153.289 79.4824 153.275 79.7812C153.261 80.08 153.497 80.3333 153.747 80.4921C154.394 80.8979 155.215 80.9184 155.966 80.7831C156.718 80.6478 157.439 80.3679 158.187 80.2137C158.936 80.0596 160.193 79.767 160.869 80.1241C161.366 80.3852 161.64 81.0678 161.956 80.975C162.106 80.9198 162.24 80.8306 162.35 80.7143C162.459 80.598 162.539 80.4578 162.585 80.305C162.67 79.998 162.706 79.6794 162.69 79.3612" fill="#263238"/>
<path d="M165.937 87.0197C165.968 87.0126 165.997 86.9998 166.023 86.9819C166.101 86.932 166.163 86.8611 166.203 86.7775C166.264 86.6436 166.282 86.4944 166.256 86.3497C166.215 86.1593 166.111 85.9885 165.96 85.8652C165.782 85.7181 165.58 85.6007 165.364 85.5176C165.121 85.429 164.888 85.3162 164.668 85.181C164.437 85.0187 164.26 84.79 164.163 84.5252C164.055 84.24 164.005 83.9363 164.016 83.6318C164.032 83.0026 164.207 82.4128 164.249 81.8576C164.292 81.3024 164.221 80.7818 163.985 80.4216C163.808 80.1319 163.526 79.9209 163.198 79.8318C163.111 79.8096 163.02 79.8006 162.93 79.805C162.898 79.8055 162.867 79.8103 162.837 79.8192C162.956 79.8184 163.075 79.8332 163.191 79.8632C163.502 79.9617 163.767 80.1718 163.933 80.453C164.152 80.8022 164.227 81.3087 164.172 81.8513C164.117 82.3939 163.949 82.9838 163.93 83.6302C163.92 83.9459 163.973 84.2604 164.087 84.555C164.192 84.8348 164.381 85.0757 164.627 85.2455C164.852 85.3811 165.091 85.4938 165.339 85.5821C165.549 85.6601 165.746 85.7705 165.923 85.9093C166.066 86.0229 166.168 86.1812 166.212 86.3591C166.241 86.4945 166.228 86.6355 166.174 86.7633C166.126 86.8727 166.042 86.9629 165.937 87.0197Z" fill="#455A64"/>
<path d="M154.289 77.9349C154.267 77.9184 154.243 77.9051 154.217 77.8956C154.187 77.8811 154.157 77.869 154.126 77.8594C154.082 77.8445 154.037 77.8335 153.992 77.8264C153.843 77.8029 153.69 77.8136 153.546 77.8577C153.401 77.9019 153.269 77.9783 153.158 78.0812C153.046 78.2176 152.963 78.3749 152.912 78.5439C152.861 78.7129 152.844 78.8903 152.863 79.0658C152.884 79.2838 152.948 79.4954 153.053 79.688C153.157 79.8806 153.299 80.0504 153.47 80.1872C153.863 80.5039 154.341 80.6962 154.844 80.7393C155.39 80.7863 155.941 80.7529 156.477 80.6402C157.328 80.4736 158.142 80.1584 158.883 79.7091C159.201 79.5126 159.534 79.3406 159.877 79.1948C160.178 79.073 160.497 79.0074 160.821 79.0013C161.292 78.9911 161.758 79.0993 162.177 79.3159C162.328 79.4006 162.475 79.4935 162.616 79.5943C162.49 79.4706 162.347 79.3647 162.193 79.2797C161.773 79.0459 161.3 78.925 160.82 78.929C160.488 78.9315 160.16 78.9949 159.851 79.1161C159.503 79.2618 159.167 79.4337 158.846 79.6305C158.11 80.0704 157.303 80.3796 156.461 80.5443C155.933 80.6562 155.391 80.6907 154.852 80.6465C154.365 80.6061 153.9 80.4222 153.517 80.118C153.352 79.9878 153.215 79.8259 153.113 79.642C153.012 79.4581 152.948 79.2558 152.925 79.0469C152.906 78.8796 152.92 78.7101 152.967 78.5481C153.013 78.3862 153.091 78.235 153.196 78.1032C153.301 78.0031 153.427 77.9276 153.564 77.8822C153.702 77.8368 153.848 77.8225 153.992 77.8406C154.094 77.8628 154.193 77.8944 154.289 77.9349Z" fill="#455A64"/>
<path d="M155.21 76.5586C155.204 76.6849 155.224 76.8112 155.268 76.9297C155.391 77.2575 155.62 77.5345 155.919 77.7162C156.12 77.8471 156.344 77.9399 156.578 77.9898C156.847 78.0441 157.123 78.0584 157.396 78.0323C157.973 77.9898 158.577 77.7917 159.211 77.6281C159.845 77.4645 160.479 77.378 161.026 77.5243C161.512 77.653 161.944 77.9335 162.259 78.3249C162.476 78.5848 162.637 78.8869 162.731 79.212C162.794 79.4432 162.802 79.5784 162.813 79.5769C162.815 79.5444 162.815 79.5118 162.813 79.4793C162.804 79.3866 162.789 79.2946 162.767 79.2041C162.683 78.8687 162.527 78.5558 162.31 78.2871C161.991 77.8797 161.55 77.5857 161.051 77.4488C160.485 77.2915 159.834 77.3812 159.197 77.5463C158.56 77.7115 157.961 77.9096 157.396 77.9552C157.13 77.9828 156.862 77.9716 156.599 77.9222C156.371 77.876 156.154 77.7897 155.957 77.6674C155.665 77.4955 155.437 77.234 155.306 76.9219C155.264 76.8037 155.232 76.6821 155.21 76.5586Z" fill="#455A64"/>
<path d="M157.113 87.1069C157.009 87.0014 156.886 86.9157 156.751 86.854C156.607 86.799 156.448 86.7999 156.305 86.8563C156.22 86.8918 156.143 86.945 156.079 87.0124C156.016 87.0799 155.967 87.16 155.937 87.2475C155.922 87.2925 155.913 87.3393 155.909 87.3866C155.91 87.4337 155.906 87.4283 155.937 87.4474C155.968 87.4666 156.021 87.4856 156.068 87.4978L156.205 87.5479C156.383 87.6126 156.543 87.6724 156.676 87.7241C156.828 87.7686 156.972 87.837 157.102 87.9266C156.946 87.9151 156.793 87.8807 156.646 87.8245C156.509 87.7849 156.343 87.7324 156.166 87.6769L156.028 87.6317C155.977 87.6173 155.927 87.6 155.879 87.58C155.841 87.5618 155.81 87.5322 155.791 87.4955C155.775 87.4598 155.768 87.4206 155.772 87.3815C155.775 87.3211 155.787 87.2615 155.807 87.2042C155.844 87.0967 155.904 86.9988 155.984 86.9174C156.063 86.836 156.159 86.7732 156.266 86.7333C156.441 86.6721 156.632 86.6824 156.8 86.7619C156.91 86.8112 157.005 86.8903 157.073 86.9903C157.103 87.0524 157.12 87.1032 157.113 87.1069Z" fill="#263238"/>
<path d="M155.387 90.2125C155.387 90.2125 156.973 90.8133 158.516 90.3698C158.516 90.3698 157.352 91.3465 155.229 90.9722L155.387 90.2125Z" fill="#E6EBEE"/>
<path d="M155.387 90.2125C155.387 90.2125 156.973 90.8133 158.516 90.3698C158.516 90.3698 157.352 91.3465 155.229 90.9722L155.387 90.2125Z" fill="url(#paint23_linear_232_8086)" fill-opacity="0.8" style="mix-blend-mode:color-burn"/>
<path d="M155.387 90.2125C155.387 90.2125 156.973 90.8133 158.516 90.3698C158.516 90.3698 157.352 91.3465 155.229 90.9722L155.387 90.2125Z" fill="#2F3941" fill-opacity="0.15" style="mix-blend-mode:multiply"/>
<path d="M157.805 112.763C157.729 112.712 157.656 112.657 157.588 112.596C157.521 112.541 157.431 112.473 157.335 112.401C157.239 112.328 157.123 112.243 156.989 112.157C156.855 112.07 156.717 111.976 156.555 111.886C156.393 111.797 156.221 111.702 156.037 111.608C155.231 111.211 154.363 110.952 153.471 110.84C153.265 110.818 153.07 110.793 152.885 110.789C152.701 110.784 152.53 110.776 152.374 110.778C152.219 110.779 152.075 110.787 151.951 110.792C151.827 110.796 151.72 110.806 151.637 110.815C151.547 110.829 151.456 110.835 151.365 110.834C151.453 110.811 151.543 110.795 151.633 110.784C151.738 110.766 151.843 110.753 151.948 110.746C152.072 110.737 152.214 110.719 152.373 110.719C152.532 110.719 152.703 110.71 152.889 110.719C153.074 110.729 153.272 110.745 153.48 110.763C153.93 110.819 154.375 110.911 154.811 111.037C155.243 111.17 155.664 111.338 156.069 111.539C156.253 111.636 156.431 111.726 156.586 111.827C156.742 111.927 156.89 112.017 157.019 112.108C157.148 112.199 157.261 112.287 157.36 112.363C157.459 112.438 157.541 112.511 157.606 112.571C157.677 112.629 157.744 112.693 157.805 112.763Z" fill="#FAFAFA"/>
<path d="M148.561 104.684L149.851 99.0961C150.345 96.9948 150.93 94.9753 151.913 94.7362V95.3858L151.491 111.352C151.491 111.352 148.863 114.34 145.515 112.682C144.467 112.162 142.556 108.505 142.556 108.505C142.556 108.505 138.11 100.571 138.295 100.211C138.481 99.8511 141.197 96.3499 141.474 96.1754L148.561 104.684Z" fill="#C72A1C"/>
<path d="M161.835 93.1538C164.398 93.6445 167.285 95.1403 168.614 98.9734C169.098 100.373 172.627 110.693 172.627 110.693L166.608 110.567L165.636 108.442L166.108 111.894L166.53 117.074H151.315L151.422 109.656L151.569 94.9028C151.569 94.9028 151.738 94.6795 154.36 93.234C155.987 92.3359 161.835 93.1538 161.835 93.1538Z" fill="#E34F32"/>
<g opacity="0.2">
<path opacity="0.2" d="M163.349 103.022C163.599 106.136 163.885 107.099 164.135 110.213C164.141 110.508 164.194 110.8 164.292 111.078C164.345 111.216 164.429 111.34 164.538 111.44C164.648 111.54 164.779 111.613 164.921 111.652C165.365 111.742 165.941 112.063 166.065 111.629L165.645 108.629C165.555 108.193 165.415 107.768 165.23 107.363C164.297 105.292 163.953 105.17 163.342 103.022" fill="black"/>
</g>
<path d="M154.358 94.8304L154.408 94.5064L154.894 91.3984C154.908 91.3081 154.956 91.2264 155.027 91.1698C155.099 91.1132 155.19 91.0859 155.281 91.0933L161.266 91.5935C161.446 91.6083 161.614 91.694 161.732 91.8319C161.85 91.9698 161.908 92.1487 161.895 92.3296L161.761 94.1352L159.893 96.5731L157.201 96.9931" fill="#E34F32"/>
<path d="M151.352 100.673C151.376 100.673 151.393 103.108 151.393 106.111C151.393 109.113 151.376 111.548 151.352 111.548C151.329 111.548 151.311 109.113 151.311 106.111C151.311 103.108 151.33 100.673 151.352 100.673Z" fill="#263238"/>
<path d="M166.736 111.067C166.736 111.067 166.736 111.056 166.717 111.032C166.699 111.009 166.688 110.969 166.667 110.925L166.485 110.512L165.829 108.985L163.691 103.934C163.276 102.946 162.881 102.006 162.523 101.149C162.341 100.747 162.211 100.324 162.136 99.8903C162.069 99.5111 162.035 99.1271 162.032 98.7422C162.012 98.1843 162.093 97.6275 162.271 97.0985L162.32 96.968L162.375 96.8579C162.401 96.7993 162.432 96.7435 162.469 96.6912L162.535 96.5936C162.543 96.5826 162.551 96.572 162.56 96.5622C162.457 96.7361 162.37 96.9194 162.301 97.1095C162.136 97.6374 162.065 98.1898 162.09 98.7422C162.093 99.5624 162.264 100.373 162.592 101.125L163.767 103.907L165.882 108.967L166.511 110.504L166.68 110.924L166.722 111.034C166.728 111.045 166.733 111.056 166.736 111.067Z" fill="#263238"/>
<path d="M161.776 93.3426C161.753 93.3525 161.729 93.3589 161.704 93.3615L161.495 93.3992C161.312 93.4291 161.048 93.4685 160.723 93.5125C160.068 93.6006 159.162 93.7044 158.157 93.7783C157.687 93.8213 157.214 93.8381 156.742 93.8286C156.352 93.8191 155.966 93.7529 155.595 93.632C155.345 93.5509 155.109 93.4315 154.895 93.2781C154.837 93.2371 154.781 93.1924 154.728 93.1444C154.694 93.1098 154.677 93.0925 154.678 93.0894C154.68 93.0862 154.76 93.1523 154.912 93.2467C155.13 93.3864 155.365 93.4954 155.612 93.5707C155.98 93.6825 156.361 93.7418 156.745 93.7468C157.217 93.7519 157.69 93.733 158.16 93.6902C159.162 93.6163 160.068 93.5235 160.723 93.4496L161.498 93.3615C161.59 93.3487 161.683 93.3424 161.776 93.3426Z" fill="#263238"/>
<path d="M172.556 111.806C172.674 112.414 172.657 113.042 172.506 113.643C172.355 114.244 172.074 114.805 171.682 115.285C171.29 115.765 170.797 116.153 170.239 116.422C169.68 116.691 169.069 116.833 168.449 116.839L156.535 116.707L156.849 112.849L167.051 111.317" fill="#E6EBEE"/>
<path d="M172.556 111.806C172.674 112.414 172.657 113.042 172.506 113.643C172.355 114.244 172.074 114.805 171.682 115.285C171.29 115.765 170.797 116.153 170.239 116.422C169.68 116.691 169.069 116.833 168.449 116.839L156.535 116.707L156.849 112.849L167.051 111.317" fill="url(#paint24_linear_232_8086)" fill-opacity="0.8" style="mix-blend-mode:color-burn"/>
<path d="M172.556 111.806C172.674 112.414 172.657 113.042 172.506 113.643C172.355 114.244 172.074 114.805 171.682 115.285C171.29 115.765 170.797 116.153 170.239 116.422C169.68 116.691 169.069 116.833 168.449 116.839L156.535 116.707L156.849 112.849L167.051 111.317" fill="#2F3941" fill-opacity="0.15" style="mix-blend-mode:multiply"/>
<path d="M157.579 113.017C157.524 113.035 156.837 112.726 156.22 112.442C155.566 112.139 154.848 111.999 154.128 112.036L151.288 112.181C151.288 112.181 151.462 112.652 151.76 112.81C152.057 112.967 153.839 113.017 153.839 113.017L153.748 113.11C153.375 113.494 152.867 113.716 152.332 113.73H152.06C151.858 113.714 151.66 113.675 151.467 113.613L150.767 113.33C150.555 113.236 150.331 113.25 150.239 113.464C150.146 113.678 150.217 113.923 150.795 114.214C151.118 114.372 152.316 114.792 152.316 114.792C152.325 114.962 152.348 115.132 152.387 115.298C152.439 115.473 152.909 115.647 152.909 115.647C153.031 115.906 153.171 116.156 153.328 116.396C153.383 116.459 153.809 116.592 154.264 116.72C154.996 116.925 155.772 116.919 156.502 116.703L157.584 116.379V113.076" fill="#E6EBEE"/>
<path d="M157.579 113.017C157.524 113.035 156.837 112.726 156.22 112.442C155.566 112.139 154.848 111.999 154.128 112.036L151.288 112.181C151.288 112.181 151.462 112.652 151.76 112.81C152.057 112.967 153.839 113.017 153.839 113.017L153.748 113.11C153.375 113.494 152.867 113.716 152.332 113.73H152.06C151.858 113.714 151.66 113.675 151.467 113.613L150.767 113.33C150.555 113.236 150.331 113.25 150.239 113.464C150.146 113.678 150.217 113.923 150.795 114.214C151.118 114.372 152.316 114.792 152.316 114.792C152.325 114.962 152.348 115.132 152.387 115.298C152.439 115.473 152.909 115.647 152.909 115.647C153.031 115.906 153.171 116.156 153.328 116.396C153.383 116.459 153.809 116.592 154.264 116.72C154.996 116.925 155.772 116.919 156.502 116.703L157.584 116.379V113.076" fill="url(#paint25_linear_232_8086)" fill-opacity="0.8" style="mix-blend-mode:color-burn"/>
<path d="M157.579 113.017C157.524 113.035 156.837 112.726 156.22 112.442C155.566 112.139 154.848 111.999 154.128 112.036L151.288 112.181C151.288 112.181 151.462 112.652 151.76 112.81C152.057 112.967 153.839 113.017 153.839 113.017L153.748 113.11C153.375 113.494 152.867 113.716 152.332 113.73H152.06C151.858 113.714 151.66 113.675 151.467 113.613L150.767 113.33C150.555 113.236 150.331 113.25 150.239 113.464C150.146 113.678 150.217 113.923 150.795 114.214C151.118 114.372 152.316 114.792 152.316 114.792C152.325 114.962 152.348 115.132 152.387 115.298C152.439 115.473 152.909 115.647 152.909 115.647C153.031 115.906 153.171 116.156 153.328 116.396C153.383 116.459 153.809 116.592 154.264 116.72C154.996 116.925 155.772 116.919 156.502 116.703L157.584 116.379V113.076" fill="#2F3941" fill-opacity="0.15" style="mix-blend-mode:multiply"/>
<path d="M153.694 115.173C153.194 115.161 152.703 115.031 152.262 114.796C152.262 114.777 152.576 114.897 152.974 114.999C153.372 115.101 153.696 115.15 153.694 115.173Z" fill="#E6EBEE"/>
<path d="M153.694 115.173C153.194 115.161 152.703 115.031 152.262 114.796C152.262 114.777 152.576 114.897 152.974 114.999C153.372 115.101 153.696 115.15 153.694 115.173Z" fill="url(#paint26_linear_232_8086)" fill-opacity="0.8" style="mix-blend-mode:color-burn"/>
<path d="M153.694 115.173C153.194 115.161 152.703 115.031 152.262 114.796C152.262 114.777 152.576 114.897 152.974 114.999C153.372 115.101 153.696 115.15 153.694 115.173Z" fill="#2F3941" fill-opacity="0.15" style="mix-blend-mode:multiply"/>
<path d="M153.592 115.835C153.459 115.863 153.32 115.853 153.193 115.806C153.059 115.781 152.935 115.72 152.834 115.629C152.963 115.655 153.089 115.691 153.211 115.738C153.341 115.761 153.468 115.793 153.592 115.835Z" fill="#E6EBEE"/>
<path d="M153.592 115.835C153.459 115.863 153.32 115.853 153.193 115.806C153.059 115.781 152.935 115.72 152.834 115.629C152.963 115.655 153.089 115.691 153.211 115.738C153.341 115.761 153.468 115.793 153.592 115.835Z" fill="url(#paint27_linear_232_8086)" fill-opacity="0.8" style="mix-blend-mode:color-burn"/>
<path d="M153.592 115.835C153.459 115.863 153.32 115.853 153.193 115.806C153.059 115.781 152.935 115.72 152.834 115.629C152.963 115.655 153.089 115.691 153.211 115.738C153.341 115.761 153.468 115.793 153.592 115.835Z" fill="#2F3941" fill-opacity="0.15" style="mix-blend-mode:multiply"/>
<path d="M154.112 112.761C154.05 112.848 153.976 112.927 153.893 112.995C153.705 113.175 153.497 113.333 153.274 113.467C153.049 113.598 152.804 113.693 152.549 113.747C152.446 113.774 152.34 113.786 152.234 113.782C152.586 113.701 152.925 113.574 153.244 113.406C153.462 113.274 153.67 113.125 153.865 112.961C153.941 112.887 154.024 112.82 154.112 112.761Z" fill="#E6EBEE"/>
<path d="M154.112 112.761C154.05 112.848 153.976 112.927 153.893 112.995C153.705 113.175 153.497 113.333 153.274 113.467C153.049 113.598 152.804 113.693 152.549 113.747C152.446 113.774 152.34 113.786 152.234 113.782C152.586 113.701 152.925 113.574 153.244 113.406C153.462 113.274 153.67 113.125 153.865 112.961C153.941 112.887 154.024 112.82 154.112 112.761Z" fill="url(#paint28_linear_232_8086)" fill-opacity="0.8" style="mix-blend-mode:color-burn"/>
<path d="M154.112 112.761C154.05 112.848 153.976 112.927 153.893 112.995C153.705 113.175 153.497 113.333 153.274 113.467C153.049 113.598 152.804 113.693 152.549 113.747C152.446 113.774 152.34 113.786 152.234 113.782C152.586 113.701 152.925 113.574 153.244 113.406C153.462 113.274 153.67 113.125 153.865 112.961C153.941 112.887 154.024 112.82 154.112 112.761Z" fill="#2F3941" fill-opacity="0.15" style="mix-blend-mode:multiply"/>
<path d="M157.868 112.5L157.579 116.863H168.801C169.563 116.863 170.311 116.656 170.964 116.264C171.703 115.819 172.287 115.158 172.637 114.37C172.987 113.582 173.086 112.706 172.92 111.86C172.759 111.031 172.517 110.22 172.197 109.439L166.553 110.369L166.734 111.07L157.868 112.5Z" fill="#E34F32"/>
<path d="M169.335 110.704C169.297 110.714 169.26 110.723 169.221 110.729L168.893 110.789L167.68 110.99L163.691 111.619L159.698 112.231L158.487 112.407L158.156 112.451C158.118 112.456 158.079 112.46 158.04 112.461C158.077 112.448 158.116 112.439 158.155 112.434L158.482 112.376L159.69 112.173L163.679 111.544L167.68 110.927L168.891 110.751L169.221 110.707C169.259 110.702 169.297 110.701 169.335 110.704Z" fill="#263238"/>
</g>
<g filter="url(#filter7_di_232_8086)">
<circle cx="143.973" cy="122.91" r="2.25834" fill="white"/>
</g>
<circle cx="143.973" cy="122.91" r="1.25463" fill="#C57F12"/>
<path d="M58.494 80.6355C60.1721 82.7664 61.8501 82.7664 63.5281 80.6355C65.2062 78.5047 66.8842 78.5047 68.5622 80.6355C70.2403 82.7664 71.9183 82.7664 73.5963 80.6355C75.2744 78.5047 76.9524 78.5047 78.6304 80.6355C80.3085 82.7664 81.9865 82.7664 83.6646 80.6355C85.3426 78.5047 87.0206 78.5047 88.6987 80.6355" stroke="#E9EBED" stroke-width="1.5934" stroke-linecap="round"/>
<path d="M58.494 88.7103C60.1721 90.8411 61.8501 90.8411 63.5281 88.7103C65.2062 86.5794 66.8842 86.5794 68.5622 88.7103C70.2403 90.8411 71.9183 90.8411 73.5963 88.7103C75.2744 86.5794 76.9524 86.5794 78.6304 88.7103C80.3085 90.8411 81.9865 90.8411 83.6646 88.7103C85.3426 86.5794 86.937 86.4953 88.615 88.6261M88.615 88.7103C90.293 90.8411 91.9711 90.8411 93.6491 88.7103C95.3271 86.5794 97.0052 86.5794 98.6832 88.7103C100.361 90.8411 102.039 90.8411 103.717 88.7103C105.395 86.5794 107.073 86.5794 108.751 88.7103C110.429 90.8411 112.107 90.8411 113.786 88.7103C115.464 86.5794 117.142 86.5794 118.82 88.7103" stroke="#E9EBED" stroke-width="1.5934" stroke-linecap="round"/>
<path d="M58.494 96.6166C60.1721 98.7475 61.8501 98.7475 63.5281 96.6166C65.2062 94.4858 66.8842 94.4858 68.5622 96.6166C70.2403 98.7475 71.9183 98.7475 73.5963 96.6166C75.2744 94.4858 76.9524 94.4858 78.6304 96.6166" stroke="#E9EBED" stroke-width="1.5934" stroke-linecap="round"/>
<g filter="url(#filter8_d_232_8086)">
<path d="M78.0227 103.449L80.9669 95.4946C81.1311 95.0509 80.6413 94.6442 80.2334 94.8853L72.8326 99.2603C72.4843 99.4663 72.5146 99.9789 72.8853 100.148L74.0623 100.687C74.3644 100.825 74.4551 101.21 74.2454 101.464L72.6521 103.393C72.4767 103.605 72.5075 103.92 72.721 104.097L73.3243 104.6C73.5415 104.781 73.8641 104.75 74.04 104.532L75.6232 102.57C75.8298 102.314 76.2256 102.325 76.4227 102.592L77.144 103.568C77.3828 103.891 77.8844 103.823 78.0227 103.449Z" fill="white" stroke="#2F3941" stroke-width="1.00636"/>
</g>
</g>
</g>
<defs>
<filter id="filter0_d_232_8086" x="20.875" y="17" width="177.148" height="124" filterUnits="userSpaceOnUse" color-interpolation-filters="sRGB">
<feFlood flood-opacity="0" result="BackgroundImageFix"/>
<feColorMatrix in="SourceAlpha" type="matrix" values="0 0 0 0 0 0 0 0 0 0 0 0 0 0 0 0 0 0 127 0" result="hardAlpha"/>
<feOffset dy="4"/>
<feGaussianBlur stdDeviation="4"/>
<feColorMatrix type="matrix" values="0 0 0 0 0.184314 0 0 0 0 0.223529 0 0 0 0 0.254902 0 0 0 0.15 0"/>
<feBlend mode="normal" in2="BackgroundImageFix" result="effect1_dropShadow_232_8086"/>
<feBlend mode="normal" in="SourceGraphic" in2="effect1_dropShadow_232_8086" result="shape"/>
</filter>
<filter id="filter1_d_232_8086" x="46.4862" y="30.5603" width="126.801" height="99.1264" filterUnits="userSpaceOnUse" color-interpolation-filters="sRGB">
<feFlood flood-opacity="0" result="BackgroundImageFix"/>
<feColorMatrix in="SourceAlpha" type="matrix" values="0 0 0 0 0 0 0 0 0 0 0 0 0 0 0 0 0 0 127 0" result="hardAlpha"/>
<feOffset dy="2.01272"/>
<feGaussianBlur stdDeviation="2.01272"/>
<feColorMatrix type="matrix" values="0 0 0 0 0.184314 0 0 0 0 0.223529 0 0 0 0 0.254902 0 0 0 0.15 0"/>
<feBlend mode="normal" in2="BackgroundImageFix" result="effect1_dropShadow_232_8086"/>
<feBlend mode="normal" in="SourceGraphic" in2="effect1_dropShadow_232_8086" result="shape"/>
</filter>
<filter id="filter2_di_232_8086" x="27.3654" y="9.42675" width="165.043" height="137.368" filterUnits="userSpaceOnUse" color-interpolation-filters="sRGB">
<feFlood flood-opacity="0" result="BackgroundImageFix"/>
<feColorMatrix in="SourceAlpha" type="matrix" values="0 0 0 0 0 0 0 0 0 0 0 0 0 0 0 0 0 0 127 0" result="hardAlpha"/>
<feOffset/>
<feGaussianBlur stdDeviation="11.5731"/>
<feComposite in2="hardAlpha" operator="out"/>
<feColorMatrix type="matrix" values="0 0 0 0 0 0 0 0 0 0 0 0 0 0 0 0 0 0 0.05 0"/>
<feBlend mode="normal" in2="BackgroundImageFix" result="effect1_dropShadow_232_8086"/>
<feBlend mode="normal" in="SourceGraphic" in2="effect1_dropShadow_232_8086" result="shape"/>
<feColorMatrix in="SourceAlpha" type="matrix" values="0 0 0 0 0 0 0 0 0 0 0 0 0 0 0 0 0 0 127 0" result="hardAlpha"/>
<feOffset dx="-0.578657"/>
<feComposite in2="hardAlpha" operator="arithmetic" k2="-1" k3="1"/>
<feColorMatrix type="matrix" values="0 0 0 0 0.913725 0 0 0 0 0.921569 0 0 0 0 0.929412 0 0 0 1 0"/>
<feBlend mode="normal" in2="shape" result="effect2_innerShadow_232_8086"/>
</filter>
<filter id="filter3_di_232_8086" x="30.7442" y="97.5052" width="50.8092" height="50.8092" filterUnits="userSpaceOnUse" color-interpolation-filters="sRGB">
<feFlood flood-opacity="0" result="BackgroundImageFix"/>
<feColorMatrix in="SourceAlpha" type="matrix" values="0 0 0 0 0 0 0 0 0 0 0 0 0 0 0 0 0 0 127 0" result="hardAlpha"/>
<feOffset/>
<feGaussianBlur stdDeviation="11.5731"/>
<feComposite in2="hardAlpha" operator="out"/>
<feColorMatrix type="matrix" values="0 0 0 0 0 0 0 0 0 0 0 0 0 0 0 0 0 0 0.05 0"/>
<feBlend mode="normal" in2="BackgroundImageFix" result="effect1_dropShadow_232_8086"/>
<feBlend mode="normal" in="SourceGraphic" in2="effect1_dropShadow_232_8086" result="shape"/>
<feColorMatrix in="SourceAlpha" type="matrix" values="0 0 0 0 0 0 0 0 0 0 0 0 0 0 0 0 0 0 127 0" result="hardAlpha"/>
<feOffset dx="-0.578657"/>
<feComposite in2="hardAlpha" operator="arithmetic" k2="-1" k3="1"/>
<feColorMatrix type="matrix" values="0 0 0 0 0.913725 0 0 0 0 0.921569 0 0 0 0 0.929412 0 0 0 1 0"/>
<feBlend mode="normal" in2="shape" result="effect2_innerShadow_232_8086"/>
</filter>
<filter id="filter4_di_232_8086" x="52.8254" y="97.5052" width="50.8092" height="50.8092" filterUnits="userSpaceOnUse" color-interpolation-filters="sRGB">
<feFlood flood-opacity="0" result="BackgroundImageFix"/>
<feColorMatrix in="SourceAlpha" type="matrix" values="0 0 0 0 0 0 0 0 0 0 0 0 0 0 0 0 0 0 127 0" result="hardAlpha"/>
<feOffset/>
<feGaussianBlur stdDeviation="11.5731"/>
<feComposite in2="hardAlpha" operator="out"/>
<feColorMatrix type="matrix" values="0 0 0 0 0 0 0 0 0 0 0 0 0 0 0 0 0 0 0.05 0"/>
<feBlend mode="normal" in2="BackgroundImageFix" result="effect1_dropShadow_232_8086"/>
<feBlend mode="normal" in="SourceGraphic" in2="effect1_dropShadow_232_8086" result="shape"/>
<feColorMatrix in="SourceAlpha" type="matrix" values="0 0 0 0 0 0 0 0 0 0 0 0 0 0 0 0 0 0 127 0" result="hardAlpha"/>
<feOffset dx="-0.578657"/>
<feComposite in2="hardAlpha" operator="arithmetic" k2="-1" k3="1"/>
<feColorMatrix type="matrix" values="0 0 0 0 0.913725 0 0 0 0 0.921569 0 0 0 0 0.929412 0 0 0 1 0"/>
<feBlend mode="normal" in2="shape" result="effect2_innerShadow_232_8086"/>
</filter>
<filter id="filter5_di_232_8086" x="83.9405" y="97.5052" width="50.8092" height="50.8092" filterUnits="userSpaceOnUse" color-interpolation-filters="sRGB">
<feFlood flood-opacity="0" result="BackgroundImageFix"/>
<feColorMatrix in="SourceAlpha" type="matrix" values="0 0 0 0 0 0 0 0 0 0 0 0 0 0 0 0 0 0 127 0" result="hardAlpha"/>
<feOffset/>
<feGaussianBlur stdDeviation="11.5731"/>
<feComposite in2="hardAlpha" operator="out"/>
<feColorMatrix type="matrix" values="0 0 0 0 0 0 0 0 0 0 0 0 0 0 0 0 0 0 0.05 0"/>
<feBlend mode="normal" in2="BackgroundImageFix" result="effect1_dropShadow_232_8086"/>
<feBlend mode="normal" in="SourceGraphic" in2="effect1_dropShadow_232_8086" result="shape"/>
<feColorMatrix in="SourceAlpha" type="matrix" values="0 0 0 0 0 0 0 0 0 0 0 0 0 0 0 0 0 0 127 0" result="hardAlpha"/>
<feOffset dx="-0.578657"/>
<feComposite in2="hardAlpha" operator="arithmetic" k2="-1" k3="1"/>
<feColorMatrix type="matrix" values="0 0 0 0 0.913725 0 0 0 0 0.921569 0 0 0 0 0.929412 0 0 0 1 0"/>
<feBlend mode="normal" in2="shape" result="effect2_innerShadow_232_8086"/>
</filter>
<filter id="filter6_d_232_8086" x="120.357" y="72.5331" width="72.0869" height="71.7034" filterUnits="userSpaceOnUse" color-interpolation-filters="sRGB">
<feFlood flood-opacity="0" result="BackgroundImageFix"/>
<feColorMatrix in="SourceAlpha" type="matrix" values="0 0 0 0 0 0 0 0 0 0 0 0 0 0 0 0 0 0 127 0" result="hardAlpha"/>
<feOffset dy="10.0636"/>
<feGaussianBlur stdDeviation="7.04452"/>
<feColorMatrix type="matrix" values="0 0 0 0 0.184314 0 0 0 0 0.223529 0 0 0 0 0.254902 0 0 0 0.35 0"/>
<feBlend mode="normal" in2="BackgroundImageFix" result="effect1_dropShadow_232_8086"/>
<feBlend mode="normal" in="SourceGraphic" in2="effect1_dropShadow_232_8086" result="shape"/>
</filter>
<filter id="filter7_di_232_8086" x="118.569" y="97.5051" width="50.8092" height="50.8092" filterUnits="userSpaceOnUse" color-interpolation-filters="sRGB">
<feFlood flood-opacity="0" result="BackgroundImageFix"/>
<feColorMatrix in="SourceAlpha" type="matrix" values="0 0 0 0 0 0 0 0 0 0 0 0 0 0 0 0 0 0 127 0" result="hardAlpha"/>
<feOffset/>
<feGaussianBlur stdDeviation="11.5731"/>
<feComposite in2="hardAlpha" operator="out"/>
<feColorMatrix type="matrix" values="0 0 0 0 0 0 0 0 0 0 0 0 0 0 0 0 0 0 0.05 0"/>
<feBlend mode="normal" in2="BackgroundImageFix" result="effect1_dropShadow_232_8086"/>
<feBlend mode="normal" in="SourceGraphic" in2="effect1_dropShadow_232_8086" result="shape"/>
<feColorMatrix in="SourceAlpha" type="matrix" values="0 0 0 0 0 0 0 0 0 0 0 0 0 0 0 0 0 0 127 0" result="hardAlpha"/>
<feOffset dx="-0.578657"/>
<feComposite in2="hardAlpha" operator="arithmetic" k2="-1" k3="1"/>
<feColorMatrix type="matrix" values="0 0 0 0 0.913725 0 0 0 0 0.921569 0 0 0 0 0.929412 0 0 0 1 0"/>
<feBlend mode="normal" in2="shape" result="effect2_innerShadow_232_8086"/>
</filter>
<filter id="filter8_d_232_8086" x="65.639" y="91.4516" width="23.1081" height="19.0827" filterUnits="userSpaceOnUse" color-interpolation-filters="sRGB">
<feFlood flood-opacity="0" result="BackgroundImageFix"/>
<feColorMatrix in="SourceAlpha" type="matrix" values="0 0 0 0 0 0 0 0 0 0 0 0 0 0 0 0 0 0 127 0" result="hardAlpha"/>
<feOffset dx="-2" dy="2"/>
<feGaussianBlur stdDeviation="1.5"/>
<feComposite in2="hardAlpha" operator="out"/>
<feColorMatrix type="matrix" values="0 0 0 0 0 0 0 0 0 0 0 0 0 0 0 0 0 0 0.1 0"/>
<feBlend mode="normal" in2="BackgroundImageFix" result="effect1_dropShadow_232_8086"/>
<feBlend mode="normal" in="SourceGraphic" in2="effect1_dropShadow_232_8086" result="shape"/>
</filter>
<linearGradient id="paint0_linear_232_8086" x1="21.875" y1="19" x2="200.619" y2="25.1131" gradientUnits="userSpaceOnUse">
<stop stop-color="#2B8473"/>
<stop offset="1" stop-color="#206E6A"/>
</linearGradient>
<linearGradient id="paint1_linear_232_8086" x1="149.528" y1="56.9619" x2="148.211" y2="55.8215" gradientUnits="userSpaceOnUse">
<stop stop-color="white" stop-opacity="0"/>
<stop offset="1" stop-color="white" stop-opacity="0.8"/>
</linearGradient>
<linearGradient id="paint2_linear_232_8086" x1="47.9049" y1="47.7234" x2="46.5879" y2="46.583" gradientUnits="userSpaceOnUse">
<stop stop-color="white" stop-opacity="0"/>
<stop offset="1" stop-color="white" stop-opacity="0.8"/>
</linearGradient>
<linearGradient id="paint3_linear_232_8086" x1="66.3814" y1="51.4187" x2="65.0644" y2="50.2783" gradientUnits="userSpaceOnUse">
<stop stop-color="white" stop-opacity="0"/>
<stop offset="1" stop-color="white" stop-opacity="0.8"/>
</linearGradient>
<linearGradient id="paint4_linear_232_8086" x1="138.443" y1="43.104" x2="137.126" y2="41.9636" gradientUnits="userSpaceOnUse">
<stop stop-color="white" stop-opacity="0"/>
<stop offset="1" stop-color="white" stop-opacity="0.8"/>
</linearGradient>
<linearGradient id="paint5_linear_232_8086" x1="168.93" y1="66.2004" x2="167.613" y2="65.06" gradientUnits="userSpaceOnUse">
<stop stop-color="white" stop-opacity="0"/>
<stop offset="1" stop-color="white" stop-opacity="0.8"/>
</linearGradient>
<linearGradient id="paint6_linear_232_8086" x1="178.168" y1="36.6369" x2="176.851" y2="35.4966" gradientUnits="userSpaceOnUse">
<stop stop-color="white" stop-opacity="0"/>
<stop offset="1" stop-color="white" stop-opacity="0.8"/>
</linearGradient>
<linearGradient id="paint7_linear_232_8086" x1="131.777" y1="64.0048" x2="177.411" y2="79.3645" gradientUnits="userSpaceOnUse">
<stop offset="0.213542" stop-color="#323444"/>
<stop offset="0.6875" stop-color="#2F3941" stop-opacity="0.291667"/>
<stop offset="1" stop-color="#2F3941" stop-opacity="0"/>
</linearGradient>
<linearGradient id="paint8_linear_232_8086" x1="96.7153" y1="125.526" x2="147.065" y2="142.473" gradientUnits="userSpaceOnUse">
<stop offset="0.213542" stop-color="#323444"/>
<stop offset="0.6875" stop-color="#2F3941" stop-opacity="0.291667"/>
<stop offset="1" stop-color="#2F3941" stop-opacity="0"/>
</linearGradient>
<linearGradient id="paint9_linear_232_8086" x1="76.7153" y1="89.1324" x2="127.065" y2="106.079" gradientUnits="userSpaceOnUse">
<stop offset="0.213542" stop-color="#323444"/>
<stop offset="0.6875" stop-color="#2F3941" stop-opacity="0.291667"/>
<stop offset="1" stop-color="#2F3941" stop-opacity="0"/>
</linearGradient>
<linearGradient id="paint10_linear_232_8086" x1="7.93966" y1="76.0883" x2="60.7799" y2="93.8737" gradientUnits="userSpaceOnUse">
<stop offset="0.213542" stop-color="#323444"/>
<stop offset="0.6875" stop-color="#2F3941" stop-opacity="0.291667"/>
<stop offset="1" stop-color="#2F3941" stop-opacity="0"/>
</linearGradient>
<linearGradient id="paint11_linear_232_8086" x1="162.318" y1="34.7426" x2="165.839" y2="34.7984" gradientUnits="userSpaceOnUse">
<stop stop-color="#001825"/>
<stop offset="1" stop-color="#003A57"/>
</linearGradient>
<linearGradient id="paint12_linear_232_8086" x1="134.35" y1="76.6732" x2="123.624" y2="34.7733" gradientUnits="userSpaceOnUse">
<stop stop-color="white" stop-opacity="0"/>
<stop offset="1" stop-color="white" stop-opacity="0.8"/>
</linearGradient>
<linearGradient id="paint13_linear_232_8086" x1="134.35" y1="76.6732" x2="123.624" y2="34.7733" gradientUnits="userSpaceOnUse">
<stop stop-color="white" stop-opacity="0"/>
<stop offset="1" stop-color="white" stop-opacity="0.8"/>
</linearGradient>
<linearGradient id="paint14_linear_232_8086" x1="58.208" y1="42.637" x2="61.2691" y2="42.6803" gradientUnits="userSpaceOnUse">
<stop stop-color="#001825"/>
<stop offset="1" stop-color="#003A57"/>
</linearGradient>
<linearGradient id="paint15_linear_232_8086" x1="31.875" y1="117" x2="18.0603" y2="104.903" gradientUnits="userSpaceOnUse">
<stop offset="0.26" stop-color="#424746"/>
<stop offset="0.785" stop-color="#22716B" stop-opacity="0.29"/>
<stop offset="1" stop-color="#22706B" stop-opacity="0"/>
</linearGradient>
<linearGradient id="paint16_linear_232_8086" x1="141.647" y1="91.0496" x2="137.935" y2="101.417" gradientUnits="userSpaceOnUse">
<stop offset="0.213542" stop-color="#323444"/>
<stop offset="0.6875" stop-color="#2F3941" stop-opacity="0.291667"/>
<stop offset="1" stop-color="#2F3941" stop-opacity="0"/>
</linearGradient>
<linearGradient id="paint17_linear_232_8086" x1="136.551" y1="93.9725" x2="135.998" y2="95.8834" gradientUnits="userSpaceOnUse">
<stop offset="0.213542" stop-color="#323444"/>
<stop offset="0.6875" stop-color="#2F3941" stop-opacity="0.291667"/>
<stop offset="1" stop-color="#2F3941" stop-opacity="0"/>
</linearGradient>
<linearGradient id="paint18_linear_232_8086" x1="136.998" y1="93.5046" x2="136.511" y2="95.4172" gradientUnits="userSpaceOnUse">
<stop offset="0.213542" stop-color="#323444"/>
<stop offset="0.6875" stop-color="#2F3941" stop-opacity="0.291667"/>
<stop offset="1" stop-color="#2F3941" stop-opacity="0"/>
</linearGradient>
<linearGradient id="paint19_linear_232_8086" x1="137.365" y1="93.0989" x2="136.922" y2="94.8828" gradientUnits="userSpaceOnUse">
<stop offset="0.213542" stop-color="#323444"/>
<stop offset="0.6875" stop-color="#2F3941" stop-opacity="0.291667"/>
<stop offset="1" stop-color="#2F3941" stop-opacity="0"/>
</linearGradient>
<linearGradient id="paint20_linear_232_8086" x1="148.06" y1="93.0724" x2="139.137" y2="111.459" gradientUnits="userSpaceOnUse">
<stop offset="0.213542" stop-color="#323444"/>
<stop offset="0.6875" stop-color="#2F3941" stop-opacity="0.291667"/>
<stop offset="1" stop-color="#2F3941" stop-opacity="0"/>
</linearGradient>
<linearGradient id="paint21_linear_232_8086" x1="161.856" y1="74.3355" x2="150.196" y2="92.119" gradientUnits="userSpaceOnUse">
<stop offset="0.213542" stop-color="#323444"/>
<stop offset="0.6875" stop-color="#2F3941" stop-opacity="0.291667"/>
<stop offset="1" stop-color="#2F3941" stop-opacity="0"/>
</linearGradient>
<linearGradient id="paint22_linear_232_8086" x1="163.559" y1="83.8248" x2="162.17" y2="86.696" gradientUnits="userSpaceOnUse">
<stop offset="0.213542" stop-color="#323444"/>
<stop offset="0.6875" stop-color="#2F3941" stop-opacity="0.291667"/>
<stop offset="1" stop-color="#2F3941" stop-opacity="0"/>
</linearGradient>
<linearGradient id="paint23_linear_232_8086" x1="157.989" y1="90.0537" x2="157.879" y2="91.2185" gradientUnits="userSpaceOnUse">
<stop offset="0.213542" stop-color="#323444"/>
<stop offset="0.6875" stop-color="#2F3941" stop-opacity="0.291667"/>
<stop offset="1" stop-color="#2F3941" stop-opacity="0"/>
</linearGradient>
<linearGradient id="paint24_linear_232_8086" x1="170.052" y1="110.279" x2="169.106" y2="117.838" gradientUnits="userSpaceOnUse">
<stop offset="0.213542" stop-color="#323444"/>
<stop offset="0.6875" stop-color="#2F3941" stop-opacity="0.291667"/>
<stop offset="1" stop-color="#2F3941" stop-opacity="0"/>
</linearGradient>
<linearGradient id="paint25_linear_232_8086" x1="156.401" y1="111.121" x2="154.877" y2="117.484" gradientUnits="userSpaceOnUse">
<stop offset="0.213542" stop-color="#323444"/>
<stop offset="0.6875" stop-color="#2F3941" stop-opacity="0.291667"/>
<stop offset="1" stop-color="#2F3941" stop-opacity="0"/>
</linearGradient>
<linearGradient id="paint26_linear_232_8086" x1="153.465" y1="114.723" x2="153.414" y2="115.245" gradientUnits="userSpaceOnUse">
<stop offset="0.213542" stop-color="#323444"/>
<stop offset="0.6875" stop-color="#2F3941" stop-opacity="0.291667"/>
<stop offset="1" stop-color="#2F3941" stop-opacity="0"/>
</linearGradient>
<linearGradient id="paint27_linear_232_8086" x1="153.47" y1="115.588" x2="153.438" y2="115.892" gradientUnits="userSpaceOnUse">
<stop offset="0.213542" stop-color="#323444"/>
<stop offset="0.6875" stop-color="#2F3941" stop-opacity="0.291667"/>
<stop offset="1" stop-color="#2F3941" stop-opacity="0"/>
</linearGradient>
<linearGradient id="paint28_linear_232_8086" x1="153.811" y1="112.569" x2="153.54" y2="113.935" gradientUnits="userSpaceOnUse">
<stop offset="0.213542" stop-color="#323444"/>
<stop offset="0.6875" stop-color="#2F3941" stop-opacity="0.291667"/>
<stop offset="1" stop-color="#2F3941" stop-opacity="0"/>
</linearGradient>
<clipPath id="clip0_232_8086">
<rect width="226" height="150.667" fill="white" transform="translate(-3.125)"/>
</clipPath>
<clipPath id="clip1_232_8086">
<rect width="161.148" height="108" fill="white" transform="translate(28.875 21)"/>
</clipPath>
</defs>
</svg>
