<svg width="226" height="151" viewBox="0 0 226 151" fill="none" xmlns="http://www.w3.org/2000/svg">
<rect width="226" height="151" fill="#F5F5F5"/>
<rect x="-20.5" y="-186.5" width="284" height="460.667" rx="4.5" stroke="#9747FF" stroke-dasharray="10 5"/>
<g clip-path="url(#clip0_470_16806)">
<rect width="226" height="150.667" fill="white"/>
<g filter="url(#filter0_n_470_16806)">
<path d="M73.812 19C45.7493 19 22.9995 41.7498 22.9995 69.8125C22.9996 77.9463 24.9152 85.6318 28.313 92.4482C29.1528 92.1488 30.0569 91.9844 30.9995 91.9844H191.457C192.329 91.9844 193.168 92.1256 193.955 92.3838C197.437 86.9328 199.456 80.4562 199.457 73.5078C199.457 54.119 187.896 37.9395 168.507 37.9395H155.112C143.102 37.4775 121.433 36.3177 100.146 26.3477C92.4664 21.6848 83.4527 19 73.812 19Z" fill="url(#paint0_linear_470_16806)"/>
<g style="mix-blend-mode:hard-light" opacity="0.6">
<path d="M51.4722 64.543L52.4517 65.5234L53.4312 64.543L52.4517 63.5635L51.4722 64.543Z" fill="#E6EBEE"/>
<path d="M51.4722 64.543L52.4517 65.5234L53.4312 64.543L52.4517 63.5635L51.4722 64.543Z" fill="url(#paint1_linear_470_16806)"/>
<path d="M70.8735 55.3047L71.853 56.2842L72.8325 55.3047L71.853 54.3252L70.8735 55.3047Z" fill="#E6EBEE"/>
<path d="M70.8735 55.3047L71.853 56.2842L72.8325 55.3047L71.853 54.3252L70.8735 55.3047Z" fill="url(#paint2_linear_470_16806)"/>
<path d="M154.02 49.7617L155 50.7412L155.98 49.7617L155 48.7812L154.02 49.7617Z" fill="#E6EBEE"/>
<path d="M154.02 49.7617L155 50.7412L155.98 49.7617L155 48.7812L154.02 49.7617Z" fill="url(#paint3_linear_470_16806)"/>
<path d="M172.497 46.0664L173.477 47.0459L174.457 46.0664L173.477 45.0859L172.497 46.0664Z" fill="#E6EBEE"/>
<path d="M172.497 46.0664L173.477 47.0459L174.457 46.0664L173.477 45.0859L172.497 46.0664Z" fill="url(#paint4_linear_470_16806)"/>
<path d="M81.9585 41.4473L82.939 42.4268L83.9185 41.4473L82.939 40.4668L81.9585 41.4473Z" fill="#E6EBEE"/>
<path d="M81.9585 41.4473L82.939 42.4268L83.9185 41.4473L82.939 40.4668L81.9585 41.4473Z" fill="url(#paint5_linear_470_16806)"/>
<path d="M42.2339 34.9795L43.2134 35.96L44.1929 34.9795L43.2134 34L42.2339 34.9795Z" fill="#E6EBEE"/>
<path d="M42.2339 34.9795L43.2134 35.96L44.1929 34.9795L43.2134 34L42.2339 34.9795Z" fill="url(#paint6_linear_470_16806)"/>
</g>
<g style="mix-blend-mode:multiply" opacity="0.5">
<path fill-rule="evenodd" clip-rule="evenodd" d="M124.392 114.713C124.506 114.748 124.612 114.806 124.702 114.885C124.791 114.964 124.863 115.061 124.912 115.17C124.961 115.279 124.987 115.397 124.987 115.516C124.986 115.635 124.961 115.753 124.911 115.862C124.667 116.439 124.097 116.355 123.591 116.258C122.057 116.035 120.499 116.024 118.962 116.227C115.713 116.602 112.665 117.65 109.523 118.384C106.437 119.236 103.172 119.186 100.114 118.239C97.1979 117.238 94.4141 115.914 91.4909 114.887C88.9241 113.996 86.2328 113.048 83.4659 113.575C80.8242 114.071 78.5192 115.622 76.0532 116.637C70.9857 118.643 65.5008 119.363 60.0874 118.734C57.5498 118.558 55.0463 118.049 52.6412 117.221C51.2631 116.706 49.4033 116.02 48.5757 114.695C48.197 114.082 48.1676 113.109 48.8944 112.73C49.6212 112.351 50.5057 112.879 51.1571 113.101C53.9834 114.031 56.9165 114.598 59.8859 114.787C62.7545 115.07 65.648 114.969 68.4899 114.487C71.0904 113.944 73.604 113.046 75.9598 111.817C78.4055 110.6 80.8671 109.324 83.6204 109.044C86.3737 108.763 89.1089 109.61 91.683 110.661C94.407 111.74 97.0125 113.03 99.6155 114.334C102.025 115.649 104.755 116.263 107.496 116.107C113.155 115.762 118.695 113.631 124.392 114.713Z" fill="#E6EBEE"/>
<path fill-rule="evenodd" clip-rule="evenodd" d="M124.392 114.713C124.506 114.748 124.612 114.806 124.702 114.885C124.791 114.964 124.863 115.061 124.912 115.17C124.961 115.279 124.987 115.397 124.987 115.516C124.986 115.635 124.961 115.753 124.911 115.862C124.667 116.439 124.097 116.355 123.591 116.258C122.057 116.035 120.499 116.024 118.962 116.227C115.713 116.602 112.665 117.65 109.523 118.384C106.437 119.236 103.172 119.186 100.114 118.239C97.1979 117.238 94.4141 115.914 91.4909 114.887C88.9241 113.996 86.2328 113.048 83.4659 113.575C80.8242 114.071 78.5192 115.622 76.0532 116.637C70.9857 118.643 65.5008 119.363 60.0874 118.734C57.5498 118.558 55.0463 118.049 52.6412 117.221C51.2631 116.706 49.4033 116.02 48.5757 114.695C48.197 114.082 48.1676 113.109 48.8944 112.73C49.6212 112.351 50.5057 112.879 51.1571 113.101C53.9834 114.031 56.9165 114.598 59.8859 114.787C62.7545 115.07 65.648 114.969 68.4899 114.487C71.0904 113.944 73.604 113.046 75.9598 111.817C78.4055 110.6 80.8671 109.324 83.6204 109.044C86.3737 108.763 89.1089 109.61 91.683 110.661C94.407 111.74 97.0125 113.03 99.6155 114.334C102.025 115.649 104.755 116.263 107.496 116.107C113.155 115.762 118.695 113.631 124.392 114.713Z" fill="url(#paint7_linear_470_16806)" fill-opacity="0.8" style="mix-blend-mode:color-burn"/>
<path fill-rule="evenodd" clip-rule="evenodd" d="M124.392 114.713C124.506 114.748 124.612 114.806 124.702 114.885C124.791 114.964 124.863 115.061 124.912 115.17C124.961 115.279 124.987 115.397 124.987 115.516C124.986 115.635 124.961 115.753 124.911 115.862C124.667 116.439 124.097 116.355 123.591 116.258C122.057 116.035 120.499 116.024 118.962 116.227C115.713 116.602 112.665 117.65 109.523 118.384C106.437 119.236 103.172 119.186 100.114 118.239C97.1979 117.238 94.4141 115.914 91.4909 114.887C88.9241 113.996 86.2328 113.048 83.4659 113.575C80.8242 114.071 78.5192 115.622 76.0532 116.637C70.9857 118.643 65.5008 119.363 60.0874 118.734C57.5498 118.558 55.0463 118.049 52.6412 117.221C51.2631 116.706 49.4033 116.02 48.5757 114.695C48.197 114.082 48.1676 113.109 48.8944 112.73C49.6212 112.351 50.5057 112.879 51.1571 113.101C53.9834 114.031 56.9165 114.598 59.8859 114.787C62.7545 115.07 65.648 114.969 68.4899 114.487C71.0904 113.944 73.604 113.046 75.9598 111.817C78.4055 110.6 80.8671 109.324 83.6204 109.044C86.3737 108.763 89.1089 109.61 91.683 110.661C94.407 111.74 97.0125 113.03 99.6155 114.334C102.025 115.649 104.755 116.263 107.496 116.107C113.155 115.762 118.695 113.631 124.392 114.713Z" fill="#2F3941" fill-opacity="0.15" style="mix-blend-mode:multiply"/>
</g>
</g>
<g filter="url(#filter1_d_470_16806)">
<g filter="url(#filter2_di_470_16806)">
<path fill-rule="evenodd" clip-rule="evenodd" d="M136.789 24.3985C137.292 24.3706 137.766 24.6188 138.121 25.0484C138.468 25.4673 138.702 26.0593 138.739 26.7262L142.639 97.1079C142.676 97.7748 142.739 98.9124 142.774 99.536C142.15 99.5705 141.462 99.6087 140.958 99.6366L46.4888 104.872C45.9851 104.9 45.2966 104.938 44.6732 104.972C44.6389 104.349 44.5756 103.211 44.5387 102.544L40.6384 32.1625C40.6015 31.4956 40.7688 30.8814 41.0671 30.4267C41.373 29.9603 41.8157 29.6615 42.3197 29.6336L136.789 24.3985Z" fill="white"/>
</g>
<path d="M68.7706 85.0151C69.7812 84.9592 70.7014 85.5116 71.5225 86.3864L71.6851 86.5661L71.7699 86.6847C71.9353 86.9736 71.8813 87.3483 71.6218 87.577C71.3624 87.8055 70.9838 87.8126 70.718 87.6125L70.6108 87.5137L70.3374 87.2218C69.7178 86.6065 69.2239 86.4249 68.8498 86.4455C68.4758 86.4663 68.005 86.7015 67.4571 87.3814L67.2166 87.7009C66.4681 88.7679 65.5694 89.5045 64.4913 89.5645C63.4804 89.6205 62.5597 89.0683 61.7384 88.1932L61.5749 88.0135C60.8254 87.1633 60.2414 86.9227 59.8139 86.9462C59.4398 86.9671 58.9682 87.2019 58.4202 87.8822L58.1816 88.2015C57.433 89.2688 56.5328 90.0055 55.4544 90.0653C54.4438 90.1211 53.5235 89.5687 52.7024 88.6939L52.5399 88.5142L52.4551 88.3966C52.2897 88.1077 52.3437 87.732 52.6032 87.5033C52.8627 87.2747 53.2422 87.2684 53.5079 87.4688L53.6142 87.5676L53.8875 87.8585C54.5076 88.4743 55.002 88.6565 55.3762 88.6358C55.8037 88.6119 56.3573 88.3075 57.0084 87.3795L57.1501 87.1838C57.8695 86.2234 58.723 85.5732 59.7337 85.5168C60.812 85.4571 61.7881 86.089 62.6501 87.0668L62.9234 87.3578C63.5434 87.9733 64.038 88.1558 64.4121 88.135C64.8396 88.1111 65.3933 87.8067 66.0443 86.8787L66.186 86.6821C66.9056 85.7217 67.7597 85.0711 68.7706 85.0151Z" fill="#E9EBED"/>
<path d="M77.3557 77.3848C78.3601 77.3035 79.2695 77.8477 80.087 78.7191L80.2485 78.8979L80.3333 79.0165C80.3487 79.0433 80.3596 79.0723 80.3712 79.1005C81.0654 79.8472 81.6095 80.0645 82.0147 80.0422C82.4422 80.0184 82.9958 79.714 83.6469 78.7859L83.7896 78.5892C84.5091 77.6289 85.3633 76.9782 86.3741 76.9222C87.4522 76.8627 88.4268 77.4955 89.2887 78.4733L89.562 78.7643C90.1821 79.38 90.6764 79.5612 91.0506 79.5405C91.4782 79.5168 92.0325 79.2136 92.6838 78.2851L92.8255 78.0885C93.5451 77.1282 94.3993 76.4775 95.4101 76.4215C96.4881 76.362 97.4628 76.9948 98.3246 77.9725L98.5979 78.2635C99.2179 78.8792 99.7124 79.0604 100.087 79.0398C100.514 79.0159 101.069 78.7126 101.72 77.7844L101.862 77.5887C102.581 76.6282 103.434 75.9779 104.445 75.9217C105.456 75.8657 106.377 76.4177 107.198 77.293L107.361 77.4718L107.445 77.5894C107.611 77.8783 107.556 78.2539 107.296 78.4828C107.037 78.7112 106.658 78.7178 106.392 78.5172L106.286 78.4184L106.013 78.1274C105.393 77.5119 104.898 77.3305 104.524 77.3512C104.15 77.3721 103.679 77.6072 103.132 78.2871L102.891 78.6076C102.143 79.6744 101.244 80.4104 100.166 80.4702C99.1548 80.5262 98.2342 79.9741 97.4129 79.0989L97.2504 78.9201C96.5008 78.0697 95.9169 77.8284 95.4894 77.8519C95.1152 77.8726 94.6438 78.1076 94.0956 78.7878L93.8561 79.1073C93.1075 80.1745 92.2081 80.9111 91.1299 80.9709C90.119 81.0269 89.1991 80.4746 88.3779 79.5996L88.2144 79.4209C87.4645 78.57 86.8801 78.329 86.4524 78.3527C86.0784 78.3736 85.6076 78.6086 85.0597 79.2886L84.8202 79.608C84.0716 80.6752 83.1721 81.4117 82.0939 81.4717C81.0832 81.5275 80.1631 80.9752 79.342 80.1003L79.1784 79.9206L79.0947 79.804C79.0795 79.7776 79.0693 79.7486 79.0578 79.7209C78.3634 78.9732 77.8451 78.782 77.4709 78.8122C77.1133 78.8415 76.6546 79.0877 76.1025 79.7801L75.8594 80.1055C75.1108 81.1725 74.2112 81.9084 73.1331 81.9682C72.1223 82.0241 71.2023 81.4718 70.3811 80.5969L70.2176 80.4182C69.468 79.5677 68.8842 79.3274 68.4567 79.3509C68.0826 79.3717 67.611 79.6057 67.0629 80.2859L66.8244 80.6053C66.0757 81.6725 65.1755 82.4092 64.0971 82.469C63.0863 82.5248 62.1664 81.9726 61.3452 81.0977L61.1827 80.9189C60.4328 80.0681 59.8483 79.827 59.4207 79.8507C59.0465 79.8714 58.5752 80.1062 58.027 80.7866L57.7874 81.106C57.0388 82.1733 56.1395 82.9099 55.0612 82.9697C54.0504 83.0255 53.1304 82.4733 52.3092 81.5984L52.1467 81.4186L52.062 81.302C51.896 81.013 51.9503 80.6367 52.21 80.4077C52.4696 80.1792 52.8481 80.1737 53.1138 80.3743L53.22 80.472L53.4944 80.764C54.1139 81.3791 54.608 81.5608 54.982 81.5403C55.4096 81.5166 55.9639 81.2123 56.6152 80.2839L56.7578 80.0872C57.4773 79.1271 58.3308 78.4773 59.3415 78.4212C60.4197 78.3616 61.3949 78.9933 62.2569 79.9713L62.5302 80.2622C63.15 80.8777 63.6438 81.0591 64.0179 81.0385C64.4454 81.0148 64.9999 80.7115 65.6511 79.7832L65.7928 79.5865C66.5122 78.6264 67.3658 77.9759 68.3764 77.9196C69.4547 77.8598 70.4308 78.4925 71.2928 79.4705L71.5662 79.7615C72.1862 80.3772 72.6806 80.5585 73.0548 80.5378C73.4822 80.5137 74.0362 80.2101 74.687 79.2824L74.9701 78.9019C75.6461 78.0505 76.4304 77.46 77.3557 77.3848Z" fill="#E9EBED"/>
<path d="M67.9758 70.6728C69.0539 70.6132 70.0284 71.2462 70.8903 72.2239L71.1636 72.5149C71.7836 73.1307 72.278 73.3117 72.6522 73.2911C73.0797 73.2674 73.6334 72.9638 74.2845 72.0358L74.4272 71.8401C75.1468 70.8795 76.0007 70.2291 77.0118 70.173C78.0225 70.1172 78.9425 70.6685 79.7637 71.5434L79.9262 71.7222L80.0119 71.8407C80.1774 72.1295 80.1222 72.5043 79.8629 72.7331C79.6034 72.9618 79.225 72.9689 78.9591 72.7685L78.8519 72.6698L78.5786 72.3788C77.9588 71.7634 77.4651 71.5819 77.091 71.6025C76.7168 71.6232 76.2455 71.858 75.6973 72.5385L75.4577 72.8579C74.7092 73.925 73.8097 74.6617 72.7315 74.7215C71.7206 74.7774 70.8007 74.2244 69.9795 73.3492L69.816 73.1705C69.0662 72.3199 68.4816 72.0796 68.0541 72.1033C67.6801 72.1243 67.21 72.3595 66.6623 73.0392L66.4218 73.3586C65.6733 74.4256 64.7745 75.1612 63.6965 75.2212C62.6854 75.2773 61.7649 74.7253 60.9435 73.85L60.7811 73.6722C60.0314 72.8215 59.4466 72.5794 59.019 72.603C58.6449 72.6238 58.1735 72.8597 57.6254 73.5399L57.3868 73.8593C56.6382 74.9266 55.7379 75.6623 54.6595 75.722C53.5815 75.7816 52.6069 75.1497 51.7451 74.1719L52.2823 73.6991L52.8194 73.2253C53.5689 74.0757 54.1528 74.3161 54.5803 74.2926C55.0079 74.2689 55.5623 73.9656 56.2136 73.0372L56.3562 72.8405C57.0757 71.8804 57.9292 71.2297 58.9398 71.1735C60.018 71.114 60.9934 71.7467 61.8553 72.7246L62.1287 73.0155C62.7486 73.6312 63.2431 73.8125 63.6172 73.7918C64.0447 73.7678 64.5986 73.4642 65.2495 72.5365L65.3912 72.3399C66.1107 71.3795 66.9649 70.7289 67.9758 70.6728Z" fill="#E9EBED"/>
<path d="M51.8084 73.161C52.1051 72.8996 52.5579 72.9286 52.8194 73.2253L51.7451 74.1719C51.4837 73.8752 51.5118 73.4225 51.8084 73.161Z" fill="#E9EBED"/>
<path d="M107.215 36.6556C108.482 36.5856 109.56 37.4459 109.623 38.5771L110.46 53.6828C110.523 54.8139 109.546 55.7881 108.279 55.8585L51.4837 59.0059C50.2164 59.0761 49.1385 58.2156 49.0758 57.0845L48.2387 41.9787C48.176 40.8476 49.1523 39.8733 50.4195 39.803L107.215 36.6556Z" fill="#E9EBED"/>
<path d="M132.457 35.2568C133.724 35.1866 134.803 36.047 134.866 37.1782L135.703 52.284C135.765 53.4152 134.788 54.3895 133.521 54.4598L118.319 55.3022C117.051 55.3724 115.973 54.512 115.911 53.3807L115.074 38.275C115.011 37.1438 115.987 36.1695 117.254 36.0993L132.457 35.2568Z" fill="#E9EBED"/>
<path d="M118.759 26.8749C119.076 26.8574 119.346 27.0723 119.362 27.355L119.475 29.4036C119.491 29.6864 119.246 29.9298 118.929 29.9474L43.2028 34.1438C42.8861 34.1612 42.6168 33.9463 42.601 33.6637L42.4875 31.6151C42.472 31.3324 42.7159 31.0891 43.0325 31.0714L118.759 26.8749Z" fill="#E9EBED"/>
<path d="M124.074 26.9002C124.866 26.8566 125.54 27.3943 125.58 28.101C125.619 28.8078 125.008 29.4166 124.216 29.4607C123.424 29.5046 122.75 28.9669 122.711 28.2599C122.672 27.5531 123.282 26.9441 124.074 26.9002Z" fill="#E9EBED"/>
<path d="M129.238 26.614C130.03 26.5706 130.703 27.1083 130.743 27.8149C130.782 28.5216 130.172 29.1302 129.38 29.1746C128.588 29.2184 127.914 28.6808 127.875 27.9738C127.836 27.2669 128.446 26.6579 129.238 26.614Z" fill="#E9EBED"/>
<path d="M134.401 26.3279C135.193 26.2843 135.867 26.822 135.906 27.5287C135.946 28.2356 135.335 28.8443 134.543 28.8884C133.751 28.9323 133.077 28.3946 133.038 27.6877C132.999 26.9808 133.609 26.3719 134.401 26.3279Z" fill="#E9EBED"/>
<path d="M151.033 97.6025L34.5263 104.059C33.0673 104.14 31.9411 105.224 32.0108 106.482L32.2631 111.035C32.3328 112.292 33.572 113.245 35.0309 113.165L151.537 106.708C152.996 106.627 154.122 105.543 154.053 104.286L153.8 99.7324C153.731 98.4753 152.492 97.5216 151.033 97.6025Z" fill="#5A797C"/>
<path fill-rule="evenodd" clip-rule="evenodd" d="M36.601 106.48L39.2597 108.041C39.3151 108.073 39.3614 108.118 39.3946 108.171C39.4277 108.224 39.4468 108.284 39.4502 108.345C39.4536 108.407 39.4413 108.468 39.4142 108.524C39.387 108.581 39.346 108.63 39.2945 108.668L36.8245 110.514C36.7655 110.558 36.6949 110.586 36.6204 110.595C36.5458 110.604 36.4702 110.593 36.4019 110.564C36.3335 110.536 36.2749 110.49 36.2327 110.432C36.1904 110.374 36.1659 110.306 36.1621 110.235L35.9733 106.83C35.9694 106.759 35.9862 106.689 36.0218 106.627C36.0574 106.564 36.1105 106.512 36.1753 106.476C36.2401 106.44 36.314 106.421 36.3891 106.422C36.4642 106.423 36.5375 106.443 36.601 106.48Z" fill="white"/>
<path d="M148.826 101.531L42.8442 107.404C42.3555 107.431 41.9781 107.793 42.0013 108.212C42.0246 108.631 42.4396 108.949 42.9283 108.922L148.91 103.049C149.399 103.022 149.776 102.66 149.753 102.241C149.73 101.822 149.315 101.504 148.826 101.531Z" fill="#E9EBED"/>
<path d="M118.247 103.226L42.6914 107.413C42.2871 107.435 41.9781 107.793 42.0013 108.212C42.0246 108.631 42.3712 108.953 42.7755 108.93L118.331 104.743C118.735 104.721 119.044 104.363 119.021 103.944C118.998 103.525 118.651 103.203 118.247 103.226Z" fill="#2F3941"/>
<g filter="url(#filter3_di_470_16806)">
<circle cx="52.752" cy="107.565" r="1.70995" transform="rotate(-3.17186 52.752 107.565)" fill="white"/>
</g>
<circle cx="52.7518" cy="107.565" r="0.949973" transform="rotate(-3.17186 52.7518 107.565)" fill="#C57F12"/>
<g filter="url(#filter4_di_470_16806)">
<circle cx="69.4459" cy="106.639" r="1.70995" transform="rotate(-3.17186 69.4459 106.639)" fill="white"/>
</g>
<circle cx="69.4465" cy="106.639" r="0.949973" transform="rotate(-3.17186 69.4465 106.639)" fill="#D22F37"/>
<g filter="url(#filter5_di_470_16806)">
<circle cx="92.9727" cy="105.337" r="1.70995" transform="rotate(-3.17186 92.9727 105.337)" fill="white"/>
</g>
<circle cx="92.9737" cy="105.337" r="0.949973" transform="rotate(-3.17186 92.9737 105.337)" fill="#007D5A"/>
<g filter="url(#filter6_di_470_16806)">
<circle cx="119.149" cy="103.886" r="2.1579" transform="rotate(-3.17186 119.149 103.886)" fill="white"/>
</g>
<circle cx="119.151" cy="103.886" r="1.19884" transform="rotate(-3.17186 119.151 103.886)" fill="#D22F37"/>
</g>
<g filter="url(#filter7_d_470_16806)">
<path d="M82.4291 50.0178L119.353 50.0178C123.884 50.0178 127.557 53.6907 127.557 58.2215V88.2741C127.557 92.8049 123.884 96.4777 119.353 96.4777H82.4291C77.8984 96.4777 74.2255 92.8049 74.2255 88.2741L74.2255 58.2215C74.2255 53.6907 77.8984 50.0178 82.4291 50.0178Z" fill="white"/>
<path d="M118.99 96.1584V99.8473C118.99 100.45 118.261 100.752 117.835 100.326L113.547 96.0386L118.99 96.1584Z" fill="white"/>
</g>
<path d="M118.994 71.2364L122.342 67.4296C123.247 66.5244 123.558 66.0888 123.376 65.9301C123.135 65.7186 123.238 65.7884 121.358 67.1991C121.358 67.1991 124.023 65.1624 123.099 65.1497C122.936 65.1497 122.483 65.412 121.999 65.7292C122.659 65.1688 122.845 64.7902 122.716 64.6104C122.505 64.2974 120.872 65.4289 120.121 65.9724C120.734 65.5156 121.904 64.6295 122.109 64.3503C122.393 63.9696 121.819 64.0013 121.354 64.16C120.832 64.3376 117.945 65.8117 117.09 66.1924C117.022 66.2333 116.945 66.2588 116.866 66.2673C116.787 66.2757 116.707 66.2669 116.631 66.2413C116.555 66.2158 116.486 66.1742 116.428 66.1194C116.37 66.0646 116.325 65.9978 116.295 65.9238C115.98 64.5999 115.026 63.7391 114.663 63.627C114.299 63.5149 114.018 63.9802 114.278 64.3186C114.522 64.7123 114.712 65.1379 114.84 65.5833C114.958 65.9327 115.016 66.2995 115.012 66.6682C115.012 67.0912 114.982 67.4571 114.954 67.7637L111.894 71.9618L117.012 74.9227L118.994 71.2364Z" fill="#E6EBEE"/>
<path d="M118.994 71.2364L122.342 67.4296C123.247 66.5244 123.558 66.0888 123.376 65.9301C123.135 65.7186 123.238 65.7884 121.358 67.1991C121.358 67.1991 124.023 65.1624 123.099 65.1497C122.936 65.1497 122.483 65.412 121.999 65.7292C122.659 65.1688 122.845 64.7902 122.716 64.6104C122.505 64.2974 120.872 65.4289 120.121 65.9724C120.734 65.5156 121.904 64.6295 122.109 64.3503C122.393 63.9696 121.819 64.0013 121.354 64.16C120.832 64.3376 117.945 65.8117 117.09 66.1924C117.022 66.2333 116.945 66.2588 116.866 66.2673C116.787 66.2757 116.707 66.2669 116.631 66.2413C116.555 66.2158 116.486 66.1742 116.428 66.1194C116.37 66.0646 116.325 65.9978 116.295 65.9238C115.98 64.5999 115.026 63.7391 114.663 63.627C114.299 63.5149 114.018 63.9802 114.278 64.3186C114.522 64.7123 114.712 65.1379 114.84 65.5833C114.958 65.9327 115.016 66.2995 115.012 66.6682C115.012 67.0912 114.982 67.4571 114.954 67.7637L111.894 71.9618L117.012 74.9227L118.994 71.2364Z" fill="url(#paint8_linear_470_16806)" fill-opacity="0.8" style="mix-blend-mode:color-burn"/>
<path d="M118.994 71.2364L122.342 67.4296C123.247 66.5244 123.558 66.0888 123.376 65.9301C123.135 65.7186 123.238 65.7884 121.358 67.1991C121.358 67.1991 124.023 65.1624 123.099 65.1497C122.936 65.1497 122.483 65.412 121.999 65.7292C122.659 65.1688 122.845 64.7902 122.716 64.6104C122.505 64.2974 120.872 65.4289 120.121 65.9724C120.734 65.5156 121.904 64.6295 122.109 64.3503C122.393 63.9696 121.819 64.0013 121.354 64.16C120.832 64.3376 117.945 65.8117 117.09 66.1924C117.022 66.2333 116.945 66.2588 116.866 66.2673C116.787 66.2757 116.707 66.2669 116.631 66.2413C116.555 66.2158 116.486 66.1742 116.428 66.1194C116.37 66.0646 116.325 65.9978 116.295 65.9238C115.98 64.5999 115.026 63.7391 114.663 63.627C114.299 63.5149 114.018 63.9802 114.278 64.3186C114.522 64.7123 114.712 65.1379 114.84 65.5833C114.958 65.9327 115.016 66.2995 115.012 66.6682C115.012 67.0912 114.982 67.4571 114.954 67.7637L111.894 71.9618L117.012 74.9227L118.994 71.2364Z" fill="#2F3941" fill-opacity="0.15" style="mix-blend-mode:multiply"/>
<path d="M83.7019 46.6927C82.8242 47.454 82.8263 48.7949 82.9279 49.9517C83.0294 51.1086 83.1076 52.4262 82.3061 53.2679C81.6441 53.9616 80.445 54.264 80.2927 55.2094C80.2566 55.4315 80.2903 55.6593 80.3889 55.8616C80.4876 56.0638 80.6465 56.2305 80.8438 56.3388C81.0411 56.447 81.2671 56.4915 81.4906 56.4661C81.7142 56.4408 81.9245 56.3467 82.0925 56.197C81.8345 56.9436 82.0121 57.8762 82.6593 58.3288C83.3064 58.7814 84.3914 58.5022 84.5923 57.7388C84.5594 57.8662 84.5531 57.9991 84.5739 58.1291C84.5946 58.2591 84.642 58.3834 84.7129 58.4943C84.7838 58.6052 84.8768 58.7003 84.9861 58.7736C85.0954 58.847 85.2187 58.897 85.3482 58.9206C85.4777 58.9442 85.6107 58.9408 85.7388 58.9108C85.867 58.8807 85.9876 58.8245 86.0931 58.7458C86.1985 58.667 86.2867 58.5674 86.3519 58.4531C86.4172 58.3388 86.4582 58.2122 86.4724 58.0814" fill="#263238"/>
<path d="M96.2719 54.501C96.3899 54.7842 96.6157 55.009 96.8995 55.1258C97.1833 55.2426 97.5018 55.2419 97.7851 55.1238C98.0683 55.0057 98.2931 54.78 98.4099 54.4962C98.5267 54.2124 98.526 53.8938 98.4079 53.6106C98.207 53.1707 97.7311 52.8535 97.6846 52.3713C97.6296 51.7897 98.2239 51.373 98.7421 51.1192C99.2602 50.8655 99.8862 50.5355 99.9433 49.9518C100 49.3681 99.495 48.9515 99.0741 48.575C98.6532 48.1986 98.2281 47.6149 98.4967 47.1136C98.63 46.8556 98.907 46.7097 99.0868 46.4792C99.4823 45.9758 99.275 45.1743 98.7695 44.7873C98.2641 44.4002 97.5662 44.3389 96.9359 44.451C96.3057 44.5631 95.7135 44.8253 95.1002 45.0093C94.0835 45.305 93.0166 45.3866 91.9667 45.249C90.9169 45.1114 89.907 44.7576 89.0009 44.2099" fill="#263238"/>
<path d="M93.9225 44.7026C92.6468 43.8305 91.0891 43.471 89.5602 43.6957L89.2477 43.7426C88.4483 43.9074 87.6895 44.2308 87.0172 44.6938C86.3449 45.1568 85.7718 45.7498 85.3327 46.4379C84.8936 47.126 84.5973 47.8958 84.4606 48.7006C84.324 49.5053 84.3505 50.3291 84.5377 51.1235L84.8395 52.5033C84.2635 52.6688 83.696 53.1252 83.9118 54.3256C84.139 55.5892 84.9284 55.8555 85.567 55.8393L87.5387 64.8832C87.7765 65.9722 88.4325 66.9243 89.3659 67.5336C90.2991 68.1428 91.4345 68.3604 92.527 68.1401L92.5319 68.1332C93.0801 68.0223 93.6014 67.8045 94.0651 67.4916C94.5288 67.1787 94.9259 66.7769 95.234 66.31C95.542 65.8432 95.7547 65.3202 95.86 64.7709C95.9653 64.2215 95.9619 63.6565 95.8483 63.1088L95.275 60.3598C95.3024 60.3513 98.4599 59.3595 98.0241 56.102C97.8126 54.5221 97.1123 51.3055 96.444 48.4018C96.0983 46.8956 95.1982 45.5746 93.9225 44.7026Z" fill="#E6EBEE"/>
<path d="M93.9225 44.7026C92.6468 43.8305 91.0891 43.471 89.5602 43.6957L89.2477 43.7426C88.4483 43.9074 87.6895 44.2308 87.0172 44.6938C86.3449 45.1568 85.7718 45.7498 85.3327 46.4379C84.8936 47.126 84.5973 47.8958 84.4606 48.7006C84.324 49.5053 84.3505 50.3291 84.5377 51.1235L84.8395 52.5033C84.2635 52.6688 83.696 53.1252 83.9118 54.3256C84.139 55.5892 84.9284 55.8555 85.567 55.8393L87.5387 64.8832C87.7765 65.9722 88.4325 66.9243 89.3659 67.5336C90.2991 68.1428 91.4345 68.3604 92.527 68.1401L92.5319 68.1332C93.0801 68.0223 93.6014 67.8045 94.0651 67.4916C94.5288 67.1787 94.9259 66.7769 95.234 66.31C95.542 65.8432 95.7547 65.3202 95.86 64.7709C95.9653 64.2215 95.9619 63.6565 95.8483 63.1088L95.275 60.3598C95.3024 60.3513 98.4599 59.3595 98.0241 56.102C97.8126 54.5221 97.1123 51.3055 96.444 48.4018C96.0983 46.8956 95.1982 45.5746 93.9225 44.7026Z" fill="url(#paint9_linear_470_16806)" fill-opacity="0.8" style="mix-blend-mode:color-burn"/>
<path d="M93.9225 44.7026C92.6468 43.8305 91.0891 43.471 89.5602 43.6957L89.2477 43.7426C88.4483 43.9074 87.6895 44.2308 87.0172 44.6938C86.3449 45.1568 85.7718 45.7498 85.3327 46.4379C84.8936 47.126 84.5973 47.8958 84.4606 48.7006C84.324 49.5053 84.3505 50.3291 84.5377 51.1235L84.8395 52.5033C84.2635 52.6688 83.696 53.1252 83.9118 54.3256C84.139 55.5892 84.9284 55.8555 85.567 55.8393L87.5387 64.8832C87.7765 65.9722 88.4325 66.9243 89.3659 67.5336C90.2991 68.1428 91.4345 68.3604 92.527 68.1401L92.5319 68.1332C93.0801 68.0223 93.6014 67.8045 94.0651 67.4916C94.5288 67.1787 94.9259 66.7769 95.234 66.31C95.542 65.8432 95.7547 65.3202 95.86 64.7709C95.9653 64.2215 95.9619 63.6565 95.8483 63.1088L95.275 60.3598C95.3024 60.3513 98.4599 59.3595 98.0241 56.102C97.8126 54.5221 97.1123 51.3055 96.444 48.4018C96.0983 46.8956 95.1982 45.5746 93.9225 44.7026Z" fill="#2F3941" fill-opacity="0.15" style="mix-blend-mode:multiply"/>
<path d="M87.5553 47.023L87.5405 47.0399C87.0798 47.5262 86.8251 48.172 86.8299 48.8418L86.8299 48.9074C86.8299 49.8591 87.0012 50.8108 86.9991 51.7519C86.997 52.6931 86.8151 53.6955 86.2208 54.4357C85.9776 54.7424 85.5039 54.9962 85.2268 54.7212C85.1292 54.6043 85.0669 54.462 85.047 54.3109C84.5437 52.0882 83.6385 50.1848 83.298 47.833C83.2508 47.5182 83.2793 47.1967 83.3812 46.8951C83.4831 46.5935 83.6554 46.3205 83.8838 46.0988C84.3237 45.6758 84.8715 45.219 85.4573 45.3988C86.0432 45.5786 86.8997 46.4985 87.3882 46.8792" fill="#263238"/>
<path d="M85.4332 45.7558C84.7522 44.9416 86.0677 43.44 87.1251 42.9303C88.1826 42.4206 89.7053 42.7463 90.8558 42.9493C91.5812 43.0783 92.3172 43.2983 93.0405 43.1608C93.5205 43.0407 93.9796 42.8489 94.4025 42.5919C94.8265 42.3395 95.2968 42.1748 95.7856 42.1076C96.0315 42.0774 96.2809 42.1147 96.5071 42.2157C96.7333 42.3167 96.9277 42.4775 97.0694 42.6807C97.321 43.1037 97.1455 43.7657 96.6718 43.9031C96.8145 43.7948 96.9815 43.7226 97.1582 43.6929C97.335 43.6632 97.5164 43.6769 97.6867 43.7327C97.8571 43.7885 98.0113 43.8847 98.1363 44.0132C98.2613 44.1418 98.3532 44.2987 98.4042 44.4705C98.4552 44.6423 98.4638 44.824 98.4291 44.9999C98.3945 45.1758 98.3178 45.3406 98.2054 45.4803C98.0931 45.62 97.9486 45.7303 97.7842 45.8019C97.6198 45.8735 97.4406 45.9041 97.2618 45.8911C97.5431 45.6035 98.0887 45.9313 98.1078 46.3332C98.1268 46.735 97.8096 47.0755 97.4733 47.2891C96.6041 47.8347 95.5001 47.8622 94.4892 47.6803C93.4783 47.4985 92.5096 47.122 91.503 46.9147C90.4963 46.7075 88.8065 46.3141 87.8971 46.7942C87.2288 47.1453 86.8608 48.0631 86.4357 47.9384C86.2344 47.8642 86.0531 47.7442 85.9063 47.5878C85.7595 47.4314 85.6511 47.243 85.5897 47.0374C85.4752 46.6247 85.4273 46.1963 85.448 45.7685" fill="#263238"/>
<path d="M81.0827 56.0662C81.0411 56.0567 81.0017 56.0395 80.9664 56.0155C80.8618 55.9483 80.7783 55.853 80.7253 55.7405C80.6433 55.5606 80.6182 55.3599 80.6534 55.1653C80.7083 54.9094 80.8485 54.6797 81.051 54.5139C81.2913 54.3161 81.562 54.1582 81.8525 54.0465C82.1792 53.9273 82.493 53.7757 82.7894 53.5939C83.1 53.3757 83.3368 53.0681 83.4683 52.712C83.6128 52.3286 83.6797 51.9203 83.665 51.5108C83.6438 50.6648 83.4091 49.8717 83.352 49.1252C83.2949 48.3786 83.3901 47.6786 83.7073 47.1943C83.9458 46.8048 84.324 46.5211 84.7647 46.4012C84.8829 46.3714 85.0047 46.3593 85.1264 46.3652C85.1687 46.3659 85.2106 46.3723 85.2512 46.3843C85.0906 46.3832 84.9307 46.4031 84.7753 46.4435C84.3563 46.5759 84.0009 46.8583 83.7771 47.2366C83.4831 47.7061 83.3816 48.3871 83.4556 49.1167C83.5296 49.8463 83.7559 50.6394 83.7813 51.5086C83.7948 51.9331 83.7229 52.356 83.5698 52.7522C83.4283 53.1284 83.1752 53.4524 82.8444 53.6806C82.5409 53.8629 82.2199 54.0145 81.8864 54.1332C81.6035 54.2381 81.3388 54.3865 81.1017 54.5731C80.9085 54.726 80.7716 54.9388 80.7126 55.178C80.674 55.3601 80.6917 55.5497 80.7634 55.7215C80.8288 55.8686 80.9411 55.9898 81.0827 56.0662Z" fill="#455A64"/>
<path d="M96.7444 43.8507C96.7741 43.8285 96.8069 43.8106 96.8417 43.7978C96.8812 43.7783 96.9223 43.7621 96.9644 43.7492C97.0229 43.7291 97.083 43.7143 97.1441 43.7048C97.3447 43.6731 97.5499 43.6875 97.7441 43.7469C97.9383 43.8062 98.1164 43.909 98.265 44.0474C98.4156 44.2308 98.5283 44.4422 98.5965 44.6695C98.6648 44.8968 98.6872 45.1353 98.6626 45.3713C98.6342 45.6644 98.5473 45.9489 98.4071 46.2079C98.2669 46.4669 98.0762 46.6952 97.8463 46.8792C97.3177 47.305 96.6741 47.5635 95.9979 47.6215C95.2635 47.6847 94.5239 47.6398 93.8026 47.4883C92.6589 47.2642 91.5635 46.8404 90.5668 46.2363C90.1396 45.972 89.6927 45.7408 89.2302 45.5447C88.8267 45.381 88.3966 45.2928 87.9613 45.2846C87.3278 45.2709 86.701 45.4163 86.1382 45.7076C85.9348 45.8214 85.7379 45.9464 85.5482 46.0819C85.7176 45.9155 85.909 45.7732 86.1171 45.6589C86.6813 45.3445 87.3175 45.182 87.9634 45.1873C88.4094 45.1907 88.851 45.276 89.2662 45.439C89.7336 45.6348 90.1853 45.866 90.6176 46.1306C91.6073 46.7222 92.6921 47.1379 93.8238 47.3593C94.5345 47.5098 95.2633 47.5561 95.9873 47.4968C96.6428 47.4424 97.2676 47.1951 97.7828 46.7862C98.0044 46.611 98.1889 46.3934 98.3254 46.1461C98.462 45.8988 98.5478 45.6268 98.578 45.3459C98.6039 45.1209 98.585 44.893 98.5226 44.6752C98.4602 44.4575 98.3554 44.2542 98.2143 44.077C98.0733 43.9424 97.9041 43.8409 97.719 43.7798C97.5339 43.7187 97.3375 43.6996 97.1441 43.7238C97.0073 43.7538 96.8735 43.7962 96.7444 43.8507Z" fill="#455A64"/>
<path d="M95.5064 42C95.514 42.1699 95.4874 42.3397 95.4281 42.4991C95.2631 42.9398 94.9548 43.3122 94.5526 43.5566C94.2823 43.7326 93.9819 43.8574 93.6665 43.9245C93.3047 43.9974 92.9341 44.0167 92.5667 43.9817C91.7905 43.9246 90.9784 43.6581 90.1261 43.4381C89.2738 43.2182 88.4215 43.1019 87.6855 43.2985C87.0323 43.4716 86.4514 43.8488 86.0275 44.375C85.7359 44.7246 85.5199 45.1307 85.393 45.5678C85.3084 45.8787 85.2978 46.0606 85.283 46.0585C85.2802 46.0148 85.2802 45.971 85.283 45.9274C85.2946 45.8027 85.3151 45.679 85.3443 45.5572C85.4572 45.1063 85.6672 44.6855 85.9598 44.3243C86.3879 43.7764 86.9812 43.3811 87.6517 43.197C88.4131 42.9855 89.2886 43.1061 90.1452 43.3282C91.0017 43.5502 91.8075 43.8167 92.5667 43.878C92.9244 43.915 93.2856 43.9001 93.639 43.8336C93.9446 43.7714 94.2368 43.6554 94.5018 43.491C94.894 43.2598 95.201 42.9082 95.3774 42.4885C95.434 42.3296 95.4772 42.1662 95.5064 42Z" fill="#455A64"/>
<path d="M86.5988 64.3147C83.1516 64.9746 79.2707 66.9853 77.4835 72.1389C76.9715 73.6184 73.9307 82.5089 72.6525 86.2454C72.2293 87.2856 71.9073 88.3647 71.6925 89.467C71.4696 90.6047 71.6027 91.7836 72.0734 92.843C72.5441 93.9024 73.3298 94.7908 74.3234 95.3879C75.2015 95.9158 76.2071 96.1953 77.2316 96.1946L80.3087 96.1946L80.2853 96.4778L100.743 96.4778L100.635 88.9172C101.304 89.5979 104.54 92.555 108.543 90.5735C109.948 89.8754 112.507 84.984 112.522 84.9563C112.522 84.9563 118.5 74.2883 118.25 73.804C117.999 73.3182 114.35 68.6138 113.977 68.3772L104.446 79.8186L102.712 72.3049C102.127 69.8174 101.448 67.415 100.392 66.6565C100.322 66.5898 99.8186 66.1697 96.6486 64.4221C92.623 66.2024 86.6037 64.3163 86.5988 64.3147ZM80.9835 88.5608L80.0109 88.4045L80.1935 87.6985L81.4875 84.8713L80.9835 88.5608Z" fill="#932127"/>
<path d="M85.6206 54.9048C85.6206 54.9048 85.5867 54.9387 85.5275 54.9788C85.4423 55.0353 85.3384 55.0565 85.2378 55.038C84.9883 54.9936 84.724 54.6574 84.6416 54.2578C84.599 54.0692 84.599 53.8734 84.6416 53.6848C84.6503 53.6117 84.6766 53.5418 84.7182 53.481C84.7598 53.4203 84.8155 53.3705 84.8805 53.3359C84.9229 53.316 84.9709 53.3116 85.0162 53.3236C85.0614 53.3356 85.101 53.3632 85.1279 53.4015C85.1681 53.4564 85.1617 53.5051 85.1744 53.5051C85.1871 53.5051 85.2146 53.4607 85.1744 53.3719C85.1525 53.3192 85.1128 53.2758 85.0624 53.2492C84.993 53.2139 84.9126 53.207 84.8382 53.2302C84.7497 53.2654 84.6717 53.3228 84.6117 53.3969C84.5517 53.4709 84.5118 53.5592 84.4957 53.6531C84.437 53.8596 84.429 54.0772 84.4724 54.2874C84.5676 54.7336 84.8721 55.1099 85.2083 55.1459C85.2712 55.1525 85.3349 55.145 85.3945 55.1238C85.4542 55.1025 85.5083 55.0682 85.5529 55.0232C85.6269 54.9577 85.629 54.9069 85.6206 54.9048Z" fill="#263238"/>
<path d="M95.8549 50.5675C95.8735 50.6889 95.8442 50.8128 95.7732 50.913C95.7022 51.0132 95.595 51.0819 95.4744 51.1046C95.4159 51.1179 95.3553 51.1194 95.2962 51.109C95.2371 51.0986 95.1807 51.0765 95.1303 51.044C95.0799 51.0115 95.0365 50.9693 95.0026 50.9198C94.9687 50.8703 94.9451 50.8145 94.9331 50.7557C94.9133 50.6345 94.9419 50.5103 95.0127 50.4099C95.0834 50.3095 95.1907 50.2409 95.3115 50.2187C95.3702 50.2053 95.4309 50.2038 95.4901 50.2142C95.5493 50.2245 95.6058 50.2466 95.6564 50.2791C95.707 50.3116 95.7506 50.3538 95.7847 50.4033C95.8188 50.4529 95.8427 50.5087 95.8549 50.5675Z" fill="#263238"/>
<path d="M95.9753 50.1023C95.9267 50.1721 95.5355 49.9607 95.0322 50.0368C94.529 50.1129 94.2013 50.4153 94.1378 50.3624C94.1061 50.3392 94.1505 50.2208 94.2922 50.0812C94.4873 49.899 94.734 49.7815 94.9984 49.745C95.2592 49.7056 95.5257 49.7501 95.7596 49.8719C95.9309 49.9691 95.9985 50.0706 95.9753 50.1023Z" fill="#263238"/>
<path d="M90.9499 51.3709C90.969 51.4924 90.9399 51.6165 90.8688 51.7168C90.7977 51.8172 90.6902 51.8858 90.5693 51.908C90.5106 51.9213 90.4499 51.9227 90.3907 51.9122C90.3315 51.9016 90.275 51.8794 90.2246 51.8466C90.1741 51.8139 90.1308 51.7715 90.097 51.7217C90.0632 51.672 90.0398 51.6159 90.028 51.557C90.0089 51.4358 90.0381 51.3119 90.1092 51.2119C90.1803 51.1119 90.2878 51.0438 90.4086 51.022C90.4671 51.0084 90.5277 51.0067 90.5869 51.0169C90.6461 51.0272 90.7026 51.0493 90.7531 51.0818C90.8036 51.1144 90.847 51.1567 90.8808 51.2064C90.9146 51.2561 90.9381 51.312 90.9499 51.3709Z" fill="#263238"/>
<path d="M91.0563 50.9186C91.0076 50.9863 90.6165 50.7769 90.1154 50.8531C89.6142 50.9292 89.2823 51.2315 89.2188 51.1787C89.1892 51.1554 89.2315 51.037 89.3753 50.8975C89.5704 50.7152 89.8171 50.5978 90.0815 50.5613C90.3423 50.5219 90.6088 50.5663 90.8427 50.6881C91.0055 50.7791 91.0816 50.8869 91.0563 50.9186Z" fill="#263238"/>
<path d="M93.4221 54.3742C93.4221 54.3446 93.7203 54.2452 94.2152 54.1077C94.3421 54.076 94.4584 54.0316 94.4668 53.9406C94.4582 53.8074 94.4095 53.6799 94.3273 53.5747C94.1595 53.2829 93.9854 52.9762 93.8049 52.6548C93.0752 51.3414 92.536 50.2565 92.5804 50.2269C92.6248 50.1973 93.2677 51.2378 93.9973 52.5533L94.5049 53.4796C94.6074 53.6234 94.6568 53.7983 94.6445 53.9745C94.6315 54.0212 94.6082 54.0644 94.5764 54.101C94.5446 54.1376 94.505 54.1666 94.4605 54.1859C94.3928 54.215 94.3218 54.2356 94.249 54.2473C93.9797 54.3237 93.7019 54.3664 93.4221 54.3742Z" fill="#263238"/>
<path d="M90.898 48.9324C90.8684 49.0762 90.3567 49.0846 89.7795 49.2411C89.2022 49.3976 88.7497 49.628 88.6525 49.5181C88.6102 49.4652 88.6736 49.3236 88.8449 49.165C89.0772 48.9653 89.3521 48.8214 89.6486 48.7441C89.945 48.6668 90.2552 48.6581 90.5554 48.7188C90.7923 48.7738 90.9086 48.8753 90.898 48.9324Z" fill="#263238"/>
<path d="M95.5776 48.6767C95.5057 48.8036 95.1547 48.7359 94.7318 48.7909C94.3089 48.8459 93.9748 48.9812 93.886 48.8734C93.8416 48.8205 93.886 48.6979 94.0171 48.5668C94.2048 48.4073 94.4358 48.3072 94.6805 48.2793C94.9253 48.2515 95.1728 48.2971 95.3915 48.4103C95.5437 48.5055 95.6093 48.6154 95.5776 48.6767Z" fill="#263238"/>
<path d="M92.9471 56.1836C93.0874 56.0417 93.2524 55.9265 93.4339 55.8435C93.6272 55.7696 93.8412 55.7707 94.0337 55.8466C94.1487 55.8943 94.2523 55.9659 94.3376 56.0565C94.4229 56.1472 94.4879 56.255 94.5285 56.3727C94.5488 56.4332 94.5616 56.496 94.5664 56.5597C94.5649 56.623 94.5708 56.6157 94.5291 56.6415C94.4874 56.6673 94.4154 56.6928 94.3532 56.7092L94.1679 56.7766C93.9288 56.8635 93.7145 56.9439 93.5348 57.0134C93.3306 57.0733 93.1371 57.1653 92.9617 57.2858C93.1717 57.2703 93.3783 57.224 93.5748 57.1485C93.7596 57.0953 93.9829 57.0247 94.2206 56.95L94.4066 56.8893C94.4747 56.8698 94.5416 56.8466 94.6072 56.8197C94.6576 56.7953 94.6989 56.7555 94.7253 56.7061C94.7468 56.6581 94.7558 56.6053 94.7512 56.5529C94.7461 56.4716 94.7303 56.3914 94.704 56.3144C94.6541 56.1699 94.5728 56.0383 94.4661 55.9288C94.3594 55.8194 94.2299 55.7348 94.0867 55.6812C93.8517 55.599 93.5937 55.6128 93.3688 55.7197C93.2203 55.786 93.0931 55.8923 93.0016 56.0268C92.9604 56.1104 92.9378 56.1785 92.9471 56.1836Z" fill="#263238"/>
<path d="M100.694 74.4256C100.662 74.4256 100.638 77.6994 100.638 81.7367C100.638 85.774 100.662 89.0478 100.694 89.0478C100.725 89.032 100.748 85.7642 100.748 81.7367C100.748 77.7124 100.723 74.4467 100.694 74.4256Z" fill="#F6F6F8"/>
<path d="M85.6229 68.8976C85.7619 69.1314 85.879 69.3777 85.972 69.6333C86.1934 70.343 86.2888 71.0861 86.255 71.8287C86.2514 72.9316 86.0216 74.0225 85.5802 75.0331L84.0009 78.7736L81.1563 85.5775L80.3106 87.6437L80.0843 88.2085L80.0266 88.357C80.019 88.371 80.0123 88.3855 80.0074 88.4007C80.0074 88.4007 80.0094 88.3844 80.033 88.3548C80.0584 88.3231 80.0729 88.2698 80.1003 88.2107L80.3459 87.6543L81.2279 85.601L84.1023 78.8099C84.6607 77.4818 85.1909 76.2167 85.6731 75.0641C85.9168 74.5243 86.0924 73.9562 86.1941 73.3727C86.2834 72.8629 86.3293 72.3463 86.3329 71.8287C86.3599 71.0787 86.251 70.3297 86.0115 69.6184L85.9464 69.4433L85.8727 69.2949C85.838 69.2161 85.7953 69.141 85.7457 69.0706L85.657 68.9393C85.6469 68.9245 85.6351 68.9108 85.6229 68.8976Z" fill="#F6F6F8"/>
<path d="M92.3207 91.0233C92.3948 91.0466 93.319 90.6321 94.148 90.2493C95.0275 89.8419 95.9928 89.6546 96.9608 89.7036L100.78 89.8982C100.78 89.8982 100.546 90.5327 100.146 90.7442C99.7461 90.9557 97.35 91.0233 97.35 91.0233L97.4726 91.1481C97.9737 91.6642 98.657 91.9633 99.376 91.9814L99.7419 91.9814C100.013 91.9599 100.28 91.9074 100.539 91.8249L101.48 91.4442C101.766 91.3173 102.066 91.3363 102.191 91.624C102.316 91.9116 102.221 92.2415 101.442 92.6328C101.009 92.8443 99.3972 93.4089 99.3972 93.4089C99.3861 93.6383 99.3543 93.8663 99.302 94.0899C99.2322 94.3247 98.5999 94.5594 98.5999 94.5594C98.4356 94.9074 98.2476 95.2438 98.0373 95.5661C97.9633 95.6507 97.3901 95.8305 96.7789 96.0018C95.7936 96.2776 94.7504 96.2695 93.7695 95.9785L92.3144 95.5429L92.3144 91.1016" fill="#E6EBEE"/>
<path d="M92.3207 91.0233C92.3948 91.0466 93.319 90.6321 94.148 90.2493C95.0275 89.8419 95.9928 89.6546 96.9608 89.7036L100.78 89.8982C100.78 89.8982 100.546 90.5327 100.146 90.7442C99.7461 90.9557 97.35 91.0233 97.35 91.0233L97.4726 91.1481C97.9737 91.6642 98.657 91.9633 99.376 91.9814L99.7419 91.9814C100.013 91.9599 100.28 91.9074 100.539 91.8249L101.48 91.4442C101.766 91.3173 102.066 91.3363 102.191 91.624C102.316 91.9116 102.221 92.2415 101.442 92.6328C101.009 92.8443 99.3972 93.4089 99.3972 93.4089C99.3861 93.6383 99.3543 93.8663 99.302 94.0899C99.2322 94.3247 98.5999 94.5594 98.5999 94.5594C98.4356 94.9074 98.2476 95.2438 98.0373 95.5661C97.9633 95.6507 97.3901 95.8305 96.7789 96.0018C95.7936 96.2776 94.7504 96.2695 93.7695 95.9785L92.3144 95.5429L92.3144 91.1016" fill="url(#paint10_linear_470_16806)" fill-opacity="0.8" style="mix-blend-mode:color-burn"/>
<path d="M92.3207 91.0233C92.3948 91.0466 93.319 90.6321 94.148 90.2493C95.0275 89.8419 95.9928 89.6546 96.9608 89.7036L100.78 89.8982C100.78 89.8982 100.546 90.5327 100.146 90.7442C99.7461 90.9557 97.35 91.0233 97.35 91.0233L97.4726 91.1481C97.9737 91.6642 98.657 91.9633 99.376 91.9814L99.7419 91.9814C100.013 91.9599 100.28 91.9074 100.539 91.8249L101.48 91.4442C101.766 91.3173 102.066 91.3363 102.191 91.624C102.316 91.9116 102.221 92.2415 101.442 92.6328C101.009 92.8443 99.3972 93.4089 99.3972 93.4089C99.3861 93.6383 99.3543 93.8663 99.302 94.0899C99.2322 94.3247 98.5999 94.5594 98.5999 94.5594C98.4356 94.9074 98.2476 95.2438 98.0373 95.5661C97.9633 95.6507 97.3901 95.8305 96.7789 96.0018C95.7936 96.2776 94.7504 96.2695 93.7695 95.9785L92.3144 95.5429L92.3144 91.1016" fill="#2F3941" fill-opacity="0.15" style="mix-blend-mode:multiply"/>
<path d="M97.5443 93.9224C98.2171 93.9053 98.8766 93.7316 99.4705 93.415C99.4705 93.3896 99.0476 93.5503 98.5127 93.6877C97.9777 93.8252 97.5422 93.8907 97.5443 93.9224Z" fill="#D8DCDE"/>
<path d="M97.682 94.8126C97.8612 94.8498 98.0473 94.8359 98.219 94.7725C98.3984 94.7394 98.5653 94.6574 98.7011 94.5356C98.5282 94.5702 98.3585 94.619 98.1936 94.6815C98.02 94.7121 97.8489 94.7559 97.682 94.8126Z" fill="#D8DCDE"/>
<path d="M168.54 86.0928C165.621 86.1458 163 88.96 163.233 91.8887C160.165 92.6376 158.009 96.0125 158.597 99.1123C158.796 100.136 159.252 101.112 159.315 102.149C159.385 103.285 158.967 104.389 158.761 105.504C158.367 107.535 158.577 109.637 159.367 111.55C159.844 112.703 160.736 113.894 161.983 113.929C162.405 113.911 162.817 113.79 163.181 113.575C163.546 113.361 163.852 113.06 164.073 112.699C164.507 111.969 164.793 111.161 164.916 110.32C165.456 107.597 165.613 104.8 166.365 102.129C167.117 99.4574 168.58 96.8237 170.994 95.4688C172.328 94.7166 173.93 94.3616 174.992 93.2578C175.526 92.6552 175.883 91.9155 176.021 91.1221C176.16 90.3288 176.075 89.5125 175.776 88.7646C175.463 88.0234 174.997 87.3558 174.409 86.8066C173.821 86.2575 173.123 85.8387 172.362 85.5771L168.54 86.0928Z" fill="white"/>
<path d="M168.149 63.6875C168.396 64.6533 167.758 65.6761 167.043 66.4141C166.28 67.2012 165.368 67.947 165.128 69.0127C164.929 69.9077 165.26 70.8376 165.179 71.75C165.099 72.6624 164.594 73.5225 164.308 74.4141C163.789 76.0301 163.998 77.7962 164.462 79.4297C164.796 80.787 165.435 82.0507 166.329 83.125C166.779 83.6571 167.337 84.0885 167.967 84.3887C168.596 84.6889 169.282 84.8518 169.979 84.8672C170.176 84.8795 170.374 84.8512 170.559 84.7842C170.745 84.7171 170.916 84.6121 171.059 84.4766C171.254 84.195 171.362 83.862 171.369 83.5195C172.166 76.5065 172.166 69.4252 171.369 62.4121L168.149 63.6875Z" fill="white"/>
<path d="M184.691 66.2573C185.23 66.3156 185.728 66.5741 186.086 66.9817C186.444 67.3892 186.636 67.9163 186.624 68.4586L185.332 97.7161C185.276 101.171 180.226 103.111 176.527 103.024C172.79 102.937 172.671 101.105 172.622 97.8171C172.546 92.3278 172.553 90.2659 172.549 90.2972C172.546 90.3285 167.83 89.5031 166.865 83.3311C166.388 80.2695 166.551 75.247 166.82 71.1405C167.06 67.445 169.519 62.9171 173.201 63.3141L184.691 66.2573Z" fill="#E6EBEE"/>
<path d="M184.691 66.2573C185.23 66.3156 185.728 66.5741 186.086 66.9817C186.444 67.3892 186.636 67.9163 186.624 68.4586L185.332 97.7161C185.276 101.171 180.226 103.111 176.527 103.024C172.79 102.937 172.671 101.105 172.622 97.8171C172.546 92.3278 172.553 90.2659 172.549 90.2972C172.546 90.3285 167.83 89.5031 166.865 83.3311C166.388 80.2695 166.551 75.247 166.82 71.1405C167.06 67.445 169.519 62.9171 173.201 63.3141L184.691 66.2573Z" fill="url(#paint11_linear_470_16806)" fill-opacity="0.8" style="mix-blend-mode:color-burn"/>
<path d="M184.691 66.2573C185.23 66.3156 185.728 66.5741 186.086 66.9817C186.444 67.3892 186.636 67.9163 186.624 68.4586L185.332 97.7161C185.276 101.171 180.226 103.111 176.527 103.024C172.79 102.937 172.671 101.105 172.622 97.8171C172.546 92.3278 172.553 90.2659 172.549 90.2972C172.546 90.3285 167.83 89.5031 166.865 83.3311C166.388 80.2695 166.551 75.247 166.82 71.1405C167.06 67.445 169.519 62.9171 173.201 63.3141L184.691 66.2573Z" fill="#2F3941" fill-opacity="0.15" style="mix-blend-mode:multiply"/>
<path d="M189.798 65.9925C189.832 64.6968 188.638 63.6972 187.433 63.2061C186.227 62.715 184.886 62.5513 183.814 61.8129C182.859 61.172 182.222 60.1723 181.417 59.3747C180.424 58.3672 179.18 57.6423 177.814 57.2743C176.447 56.9063 175.008 56.9086 173.643 57.2809C172.278 57.6532 171.036 58.3821 170.046 59.3928C169.056 60.4035 168.352 61.6595 168.008 63.0319C167.544 64.8744 167.861 67.0548 169.314 68.2808C171 69.7019 173.493 69.385 175.663 68.9426C177.833 68.5003 180.271 68.0649 182.076 69.3362C183.162 70.099 183.789 71.3459 184.455 72.4988C185.12 73.6517 185.952 74.8255 187.21 75.2608C188.467 75.6962 190.177 74.9439 190.226 73.6169" fill="white"/>
<path d="M185.705 89.294C188.84 88.4581 191.522 85.4034 192.615 82.3627C193.709 79.322 193.709 76.0027 193.427 72.7844C193.225 70.4542 192.814 67.9883 191.267 66.2328C188.934 63.5857 186.391 62.2343 182.88 62.3457" fill="white"/>
<path d="M188.994 86.521C188.144 86.6927 187.267 86.66 186.432 86.4256C185.598 86.1912 184.832 85.7619 184.196 85.1729C183.561 84.584 183.074 83.8524 182.777 83.0385C182.48 82.2246 182.381 81.3517 182.487 80.4918C182.679 78.9767 183.494 77.4407 182.968 76.0057C182.271 74.1144 179.621 73.5327 178.917 71.6415C178.51 70.5443 178.875 69.2591 178.412 68.1828C177.977 67.1727 176.911 66.5911 175.873 66.2149C174.835 65.8387 173.728 65.581 172.857 64.9053C171.986 64.2296 171.446 62.9548 172.007 62.0039C176.607 62.5558 181.125 63.6537 185.465 65.2745C186.472 65.6506 187.527 66.1034 188.123 66.9951C188.75 67.9425 188.719 69.1615 188.666 70.297C188.409 75.8281 189.251 81.0073 188.994 86.5384" fill="white"/>
<path d="M175.659 80.8409C175.52 80.8421 175.516 81.7574 174.725 82.4083C173.935 83.059 172.954 82.9588 172.946 83.1046C172.946 83.1638 173.165 83.2856 173.58 83.296C174.12 83.3058 174.647 83.1248 175.067 82.7843C175.469 82.4555 175.727 81.9836 175.788 81.4679C175.826 81.0604 175.722 80.8409 175.659 80.8409Z" fill="#263238"/>
<path d="M173.549 73.1603C173.451 73.1254 172.65 75.0029 171.755 77.34L171.135 79.0011C171 79.2627 170.959 79.5636 171.019 79.8517C171.05 79.9274 171.097 79.9956 171.157 80.0509C171.217 80.1063 171.29 80.1479 171.368 80.172C171.481 80.2032 171.599 80.2197 171.717 80.2208C172.622 80.2835 173.155 80.2901 173.158 80.2413C173.157 80.1925 172.634 80.1017 171.764 79.9904C171.549 79.966 171.344 79.9207 171.305 79.7745C171.29 79.5501 171.34 79.3256 171.451 79.13L172.099 77.4796C172.994 75.131 173.644 73.199 173.549 73.1603Z" fill="#263238"/>
<path d="M176.866 74.3243C176.767 74.3158 176.666 74.327 176.571 74.3575C176.476 74.388 176.388 74.4364 176.312 74.5011C176.236 74.5659 176.175 74.6455 176.13 74.7345C176.085 74.8236 176.058 74.9211 176.051 75.0206C176.049 75.2261 176.128 75.4245 176.269 75.5734C176.411 75.7221 176.605 75.8103 176.81 75.8185C176.91 75.827 177.01 75.8158 177.105 75.7853C177.2 75.7548 177.288 75.7055 177.364 75.6407C177.44 75.5759 177.502 75.4964 177.547 75.4073C177.592 75.3183 177.619 75.2207 177.626 75.1212C177.629 74.9155 177.55 74.7165 177.408 74.5675C177.266 74.4186 177.072 74.3316 176.866 74.3243Z" fill="#263238"/>
<path d="M168.695 74.3243C168.596 74.3158 168.496 74.3271 168.401 74.3575C168.306 74.388 168.218 74.4364 168.142 74.5011C168.067 74.5659 168.004 74.6454 167.959 74.7345C167.914 74.8236 167.888 74.9211 167.881 75.0206C167.879 75.2261 167.957 75.4245 168.098 75.5734C168.24 75.7221 168.434 75.8103 168.639 75.8185C168.739 75.827 168.839 75.8158 168.934 75.7853C169.029 75.7548 169.117 75.7055 169.193 75.6407C169.269 75.576 169.331 75.4964 169.376 75.4073C169.421 75.3183 169.448 75.2207 169.455 75.1212C169.458 74.9155 169.38 74.7165 169.238 74.5675C169.096 74.4184 168.901 74.3316 168.695 74.3243Z" fill="#263238"/>
<path d="M177.776 73.1017C177.333 73.1001 176.901 73.2386 176.543 73.4982C176.299 73.7106 176.209 73.8992 176.24 73.9445C176.338 74.0482 176.937 73.596 177.786 73.5958C178.636 73.5958 179.26 74.0275 179.35 73.923C179.395 73.8773 179.297 73.6895 179.026 73.4913C178.66 73.2355 178.223 73.0996 177.776 73.1017Z" fill="#263238"/>
<path d="M169.438 72.9269C168.996 72.9244 168.565 73.0623 168.206 73.3204C167.945 73.5256 167.854 73.7211 167.902 73.7667C168 73.8712 168.599 73.4181 169.449 73.4181C170.298 73.4181 170.922 73.8497 171.016 73.7462C171.062 73.7009 170.961 73.5121 170.689 73.3136C170.323 73.0583 169.885 72.9231 169.438 72.9269Z" fill="#263238"/>
<path d="M177.922 71.8351C177.411 71.7748 176.894 71.8317 176.409 72.0011C176.03 72.1647 175.845 72.3453 175.893 72.4532C175.977 72.6866 176.827 72.5794 177.823 72.7013C178.819 72.8232 179.627 73.0977 179.76 72.8888C179.818 72.7911 179.679 72.5715 179.355 72.3488C178.923 72.0708 178.432 71.8954 177.922 71.8351Z" fill="#263238"/>
<path d="M169.646 70.4474C169.234 70.4592 168.835 70.5921 168.499 70.8302C168.231 71.0148 168.157 71.2137 168.23 71.3077C168.38 71.4993 168.966 71.3077 169.673 71.3077C170.379 71.3078 170.971 71.4401 171.107 71.2384C171.17 71.1409 171.075 70.9494 170.814 70.7648C170.465 70.5461 170.058 70.4356 169.646 70.4474Z" fill="#263238"/>
<path d="M169.259 88.9385C169.088 88.9502 168.919 88.9771 168.754 89.0186C168.143 89.187 167.597 89.5357 167.186 90.0186C166.9 90.3524 166.69 90.7459 166.576 91.1709C166.451 91.6272 166.413 92.1254 166.315 92.627C166.244 93.1556 165.999 93.646 165.619 94.0205C165.192 94.3997 164.683 94.6752 164.132 94.8252C163.571 95.0063 162.996 95.1248 162.449 95.2676C161.921 95.3969 161.407 95.5809 160.917 95.8174C160.059 96.2101 159.359 96.8818 158.932 97.7227C158.653 98.294 158.562 98.9395 158.674 99.5654C158.707 99.7323 158.759 99.8952 158.83 100.05C158.852 100.103 158.881 100.154 158.914 100.202C158.841 99.9881 158.781 99.7696 158.736 99.5479C158.655 98.94 158.76 98.3217 159.039 97.7754C159.469 96.9734 160.152 96.336 160.982 95.9639C161.468 95.734 161.976 95.553 162.498 95.4238C163.041 95.2845 163.616 95.1695 164.19 94.9814C164.769 94.8238 165.303 94.533 165.748 94.1318C166.147 93.7326 166.404 93.2141 166.482 92.6553C166.576 92.1364 166.608 91.6449 166.723 91.2061C166.826 90.8002 167.017 90.4219 167.283 90.0986C167.673 89.625 168.191 89.273 168.774 89.085C169.189 88.9596 169.436 88.9594 169.436 88.9385C169.377 88.9326 169.318 88.9326 169.259 88.9385Z" fill="#455A64"/>
<path d="M172.559 57.9297C172.475 57.9359 172.392 57.961 172.318 58.0029C172.109 58.0915 171.914 58.2084 171.737 58.3506C171.13 58.8213 170.729 59.5081 170.615 60.2676C170.502 61.0272 170.685 61.802 171.128 62.4297C171.256 62.6166 171.408 62.7864 171.58 62.9346C171.643 62.9875 171.696 63.0239 171.731 63.0469C171.733 63.0882 171.735 63.1296 171.738 63.1709C171.745 63.3101 171.768 63.4483 171.807 63.582C171.807 63.5764 171.784 63.4339 171.773 63.168C171.772 63.1358 171.775 63.1034 171.774 63.0713C171.782 63.0746 171.787 63.0762 171.789 63.0742C171.784 63.0683 171.779 63.0616 171.774 63.0557C171.772 62.6991 171.828 62.3445 171.947 62.0078C172.187 61.3235 172.627 60.7269 173.21 60.2959C173.793 59.8648 174.493 59.6192 175.218 59.5908C176.218 59.5467 177.208 59.8115 178.053 60.3496C179.014 60.9814 179.789 61.8598 180.296 62.8926C180.577 63.4496 180.804 64.0328 180.972 64.6338C181.142 65.2718 181.375 65.8917 181.668 66.4834C181.829 66.7896 182.041 67.0676 182.292 67.3057C182.552 67.5462 182.857 67.7323 183.19 67.8525C183.869 68.0617 184.571 68.1857 185.28 68.2217C185.966 68.2578 186.634 68.4471 187.237 68.7754C187.795 69.1135 188.261 69.583 188.596 70.1426C188.93 70.7022 189.123 71.3353 189.157 71.9863C189.151 72.6038 189.033 73.2156 188.808 73.791C188.587 74.3557 188.464 74.9543 188.443 75.5605C188.467 76.1354 188.614 76.6982 188.875 77.2109C189.363 78.2071 190.055 78.9532 190.599 79.709C191.123 80.3492 191.506 81.0934 191.721 81.8926C191.859 82.5007 191.802 83.1374 191.557 83.7109C191.406 84.0763 191.154 84.3918 190.832 84.6201C190.599 84.7384 190.456 84.7732 190.46 84.7871C190.495 84.7819 190.529 84.7713 190.56 84.7559C190.66 84.7212 190.755 84.6741 190.843 84.6162C191.182 84.3967 191.449 84.0818 191.609 83.7109C191.873 83.1246 191.943 82.469 191.81 81.8398C191.601 81.0228 191.22 80.2593 190.693 79.6006C190.153 78.8483 189.467 78.085 189 77.1133C188.751 76.6196 188.612 76.0778 188.593 75.5254C188.613 74.9388 188.731 74.3594 188.941 73.8115C189.176 73.2194 189.299 72.5891 189.307 71.9521C189.273 71.2704 189.073 70.607 188.724 70.0205C188.374 69.434 187.887 68.9416 187.304 68.5869C186.678 68.2458 185.985 68.0482 185.273 68.0088C184.585 67.975 183.903 67.8586 183.243 67.6611C182.623 67.4264 182.113 66.9678 181.814 66.376C181.53 65.7937 181.303 65.1844 181.139 64.5576C180.962 63.9563 180.729 63.3724 180.442 62.8154C179.919 61.7596 179.121 60.8634 178.133 60.2207C177.26 59.6724 176.24 59.4075 175.211 59.4619C174.358 59.506 173.546 59.8384 172.908 60.4053C172.432 60.8328 172.078 61.379 171.881 61.9873C171.771 62.3144 171.72 62.6579 171.729 63.002C171.556 62.8009 171.39 62.5931 171.235 62.377C170.843 61.765 170.686 61.0316 170.793 60.3125C170.9 59.5933 171.264 58.9372 171.817 58.4658C172.054 58.2729 172.302 58.094 172.559 57.9297Z" fill="#455A64"/>
<path d="M167.489 96.0858L170.397 95.3543C170.08 95.1364 169.849 94.8147 169.743 94.4448C169.638 94.0748 169.665 93.6796 169.819 93.3272C170.003 92.8755 170.308 92.483 170.7 92.1925C171.091 91.902 171.555 91.7246 172.041 91.6797L185.298 90.182C185.529 90.1511 185.765 90.1988 185.966 90.3176C186.168 90.4363 186.324 90.6191 186.409 90.8368C186.996 92.3322 187.016 93.5629 186.468 94.5288H186.531L189.087 95.0374L193.42 133.26L165.04 131.933L167.489 96.0858Z" fill="#F5F5F5"/>
<path d="M173.58 123.539C174.257 123.776 174.958 123.94 175.67 124.026C176.375 124.173 177.093 124.245 177.813 124.239C177.117 124.064 176.411 123.934 175.699 123.849C174.999 123.703 174.292 123.6 173.58 123.539Z" fill="#E0E0E0"/>
<path d="M178.965 118.925C178.967 118.978 179.761 119.232 180.679 119.723C181.599 120.214 182.271 120.729 182.306 120.684C181.868 120.214 181.344 119.832 180.763 119.559C180.211 119.233 179.6 119.018 178.965 118.925Z" fill="#E0E0E0"/>
<path d="M177.284 114.745C177.098 114.944 176.933 115.161 176.792 115.393L175.667 116.995L174.522 118.576C174.348 118.784 174.195 119.009 174.069 119.248C174.276 119.072 174.462 118.872 174.622 118.652C174.943 118.269 175.372 117.723 175.818 117.1C176.264 116.476 176.639 115.894 176.901 115.462C177.056 115.239 177.184 114.998 177.284 114.745Z" fill="#E0E0E0"/>
<path d="M184.994 110.694C184.945 110.664 184.412 111.499 183.574 112.38C182.736 113.259 181.943 113.847 181.975 113.895C183.258 113.128 184.303 112.02 184.994 110.694Z" fill="#E0E0E0"/>
<path d="M172.608 107.382C173.099 107.993 173.638 108.567 174.217 109.096C174.755 109.669 175.337 110.198 175.958 110.68C175.467 110.068 174.929 109.496 174.35 108.967C173.81 108.396 173.227 107.866 172.608 107.382Z" fill="#E0E0E0"/>
<path d="M180.269 103.247C180.068 103.866 179.924 104.503 179.84 105.148C179.699 105.784 179.617 106.431 179.593 107.081C179.793 106.462 179.937 105.825 180.022 105.18C180.167 104.545 180.249 103.898 180.269 103.247Z" fill="#E0E0E0"/>
<path d="M177.721 99.2627C177.257 99.6969 176.835 100.174 176.46 100.688C176.039 101.162 175.664 101.677 175.342 102.224C176.227 101.315 177.024 100.323 177.721 99.2627Z" fill="#E0E0E0"/>
<path d="M182.35 98.374C182.63 98.9541 182.963 99.5066 183.346 100.024C183.677 100.576 184.06 101.096 184.489 101.575C184.209 100.995 183.877 100.442 183.496 99.9238C183.164 99.3725 182.779 98.8537 182.35 98.374Z" fill="#E0E0E0"/>
<path d="M185.335 94.8213C185.155 94.8345 184.977 94.8635 184.802 94.9082C184.454 94.9744 183.963 95.0684 183.35 95.1729C180.155 95.7227 176.904 95.8848 173.67 95.6543C173.05 95.6125 172.549 95.5671 172.201 95.5322C172.022 95.5077 171.841 95.4973 171.66 95.501C171.835 95.5519 172.013 95.5868 172.194 95.6055C172.542 95.6612 173.04 95.7205 173.66 95.7832C176.905 96.0846 180.176 95.9213 183.374 95.2988C183.987 95.1769 184.479 95.0652 184.817 94.9746C184.994 94.9402 185.168 94.8888 185.335 94.8213Z" fill="#E0E0E0"/>
<path d="M181.75 90.7705C181.605 90.9374 181.488 91.1268 181.403 91.3311C181.149 91.803 180.976 92.314 180.89 92.8428C180.806 93.3827 180.88 93.9357 181.103 94.4346C181.181 94.646 181.32 94.8297 181.503 94.9609C181.528 94.9609 181.361 94.7518 181.218 94.3828C181.041 93.8998 180.989 93.3798 181.065 92.8711C181.151 92.3584 181.302 91.8586 181.514 91.3838C181.617 91.1894 181.696 90.9834 181.75 90.7705Z" fill="#E0E0E0"/>
<path d="M176.202 92.0977C175.954 92.4396 175.776 92.8278 175.68 93.2393C175.584 93.6508 175.571 94.0775 175.642 94.4941C175.694 94.4937 175.701 93.9402 175.858 93.2822C176.014 92.6239 176.241 92.1255 176.202 92.0977Z" fill="#E0E0E0"/>
<path d="M152.292 119.332L139.092 96.145L137.5 92.1221C137.5 92.1221 133.383 83.2752 133.097 82.3696C132.766 81.3247 132.185 81.2411 131.809 81.3874C131.223 81.6208 131.035 82.4915 131.293 83.3936C131.384 83.7036 132.982 88.5659 132.982 88.5659C132.552 88.1954 132.096 87.8566 131.617 87.5524C130.603 86.8558 128.747 86.8906 127.026 87.5036C125.306 88.1166 124.881 88.4406 125.086 89.1163C125.132 89.2431 125.205 89.3581 125.301 89.4527C125.397 89.5474 125.513 89.6193 125.64 89.6631C126.045 89.8323 126.499 89.8423 126.911 89.691C129.677 88.7505 130.903 89.9975 130.903 89.9975L131.108 90.5234C131.108 90.5234 129.019 89.8581 127.848 90.7986C127.674 90.9366 127.527 91.1069 127.416 91.3001C127.038 91.4238 126.698 91.6443 126.43 91.9397C126.163 92.2351 125.977 92.5951 125.892 92.9843C125.806 93.3734 125.824 93.7781 125.943 94.1584C126.062 94.5387 126.278 94.8813 126.57 95.1524C126.697 95.2971 126.865 95.3998 127.051 95.4471C127.238 95.4943 127.434 95.4839 127.615 95.4171C127.784 95.3021 127.92 95.1447 128.009 94.9608C128.065 94.8687 128.129 94.7814 128.2 94.6996L128.987 96.0928C128.987 96.0928 130.927 99.123 131.624 100.541L140.715 124.758C141.014 125.555 141.468 126.285 142.052 126.905C142.636 127.524 143.338 128.021 144.116 128.366C144.894 128.712 145.734 128.899 146.585 128.916C147.436 128.933 148.282 128.781 149.074 128.468C149.928 128.13 150.7 127.614 151.337 126.952C151.975 126.291 152.462 125.5 152.767 124.634C153.073 123.768 153.188 122.846 153.106 121.931C153.024 121.016 152.747 120.13 152.292 119.332Z" fill="#E6EBEE"/>
<path d="M152.292 119.332L139.092 96.145L137.5 92.1221C137.5 92.1221 133.383 83.2752 133.097 82.3696C132.766 81.3247 132.185 81.2411 131.809 81.3874C131.223 81.6208 131.035 82.4915 131.293 83.3936C131.384 83.7036 132.982 88.5659 132.982 88.5659C132.552 88.1954 132.096 87.8566 131.617 87.5524C130.603 86.8558 128.747 86.8906 127.026 87.5036C125.306 88.1166 124.881 88.4406 125.086 89.1163C125.132 89.2431 125.205 89.3581 125.301 89.4527C125.397 89.5474 125.513 89.6193 125.64 89.6631C126.045 89.8323 126.499 89.8423 126.911 89.691C129.677 88.7505 130.903 89.9975 130.903 89.9975L131.108 90.5234C131.108 90.5234 129.019 89.8581 127.848 90.7986C127.674 90.9366 127.527 91.1069 127.416 91.3001C127.038 91.4238 126.698 91.6443 126.43 91.9397C126.163 92.2351 125.977 92.5951 125.892 92.9843C125.806 93.3734 125.824 93.7781 125.943 94.1584C126.062 94.5387 126.278 94.8813 126.57 95.1524C126.697 95.2971 126.865 95.3998 127.051 95.4471C127.238 95.4943 127.434 95.4839 127.615 95.4171C127.784 95.3021 127.92 95.1447 128.009 94.9608C128.065 94.8687 128.129 94.7814 128.2 94.6996L128.987 96.0928C128.987 96.0928 130.927 99.123 131.624 100.541L140.715 124.758C141.014 125.555 141.468 126.285 142.052 126.905C142.636 127.524 143.338 128.021 144.116 128.366C144.894 128.712 145.734 128.899 146.585 128.916C147.436 128.933 148.282 128.781 149.074 128.468C149.928 128.13 150.7 127.614 151.337 126.952C151.975 126.291 152.462 125.5 152.767 124.634C153.073 123.768 153.188 122.846 153.106 121.931C153.024 121.016 152.747 120.13 152.292 119.332Z" fill="url(#paint12_linear_470_16806)" fill-opacity="0.8" style="mix-blend-mode:color-burn"/>
<path d="M152.292 119.332L139.092 96.145L137.5 92.1221C137.5 92.1221 133.383 83.2752 133.097 82.3696C132.766 81.3247 132.185 81.2411 131.809 81.3874C131.223 81.6208 131.035 82.4915 131.293 83.3936C131.384 83.7036 132.982 88.5659 132.982 88.5659C132.552 88.1954 132.096 87.8566 131.617 87.5524C130.603 86.8558 128.747 86.8906 127.026 87.5036C125.306 88.1166 124.881 88.4406 125.086 89.1163C125.132 89.2431 125.205 89.3581 125.301 89.4527C125.397 89.5474 125.513 89.6193 125.64 89.6631C126.045 89.8323 126.499 89.8423 126.911 89.691C129.677 88.7505 130.903 89.9975 130.903 89.9975L131.108 90.5234C131.108 90.5234 129.019 89.8581 127.848 90.7986C127.674 90.9366 127.527 91.1069 127.416 91.3001C127.038 91.4238 126.698 91.6443 126.43 91.9397C126.163 92.2351 125.977 92.5951 125.892 92.9843C125.806 93.3734 125.824 93.7781 125.943 94.1584C126.062 94.5387 126.278 94.8813 126.57 95.1524C126.697 95.2971 126.865 95.3998 127.051 95.4471C127.238 95.4943 127.434 95.4839 127.615 95.4171C127.784 95.3021 127.92 95.1447 128.009 94.9608C128.065 94.8687 128.129 94.7814 128.2 94.6996L128.987 96.0928C128.987 96.0928 130.927 99.123 131.624 100.541L140.715 124.758C141.014 125.555 141.468 126.285 142.052 126.905C142.636 127.524 143.338 128.021 144.116 128.366C144.894 128.712 145.734 128.899 146.585 128.916C147.436 128.933 148.282 128.781 149.074 128.468C149.928 128.13 150.7 127.614 151.337 126.952C151.975 126.291 152.462 125.5 152.767 124.634C153.073 123.768 153.188 122.846 153.106 121.931C153.024 121.016 152.747 120.13 152.292 119.332Z" fill="#2F3941" fill-opacity="0.15" style="mix-blend-mode:multiply"/>
<path d="M131.922 91.2061C131.654 91.1079 131.358 91.1174 131.097 91.2334C131.022 91.2887 130.966 91.3656 130.935 91.4531C130.904 91.5404 130.9 91.6349 130.923 91.7246C130.959 91.8721 131.031 92.0089 131.132 92.1221C131.314 92.3235 131.518 92.5033 131.741 92.6582C132.592 93.2482 133.519 93.5094 134.283 93.8867C134.161 94.1507 133.884 95.0514 133.984 96.1621C133.997 96.3274 134.021 96.4918 134.048 96.6553C133.73 96.4998 133.374 96.4342 133.02 96.4688C132.854 96.4687 132.691 96.5184 132.554 96.6113C132.561 96.6357 132.734 96.587 133.023 96.5801C133.413 96.5807 133.795 96.6942 134.121 96.9072L134.313 97.0361L134.271 96.8105C134.229 96.5905 134.201 96.3677 134.184 96.1445C134.151 95.3947 134.197 94.6438 134.318 93.9033C134.35 93.9191 134.381 93.934 134.412 93.9502C134.788 94.1277 135.134 94.3634 135.437 94.6475C135.715 94.9156 135.934 95.2222 136.164 95.4834C136.329 95.7138 136.544 95.905 136.791 96.0439C137.038 96.1829 137.313 96.2665 137.596 96.2881C138.01 96.2881 138.181 96.0826 138.167 96.0791C137.986 96.1412 137.795 96.1706 137.604 96.166C137.347 96.1235 137.101 96.0278 136.883 95.8857C136.665 95.7437 136.478 95.5585 136.335 95.3408C136.112 95.0365 135.874 94.7432 135.621 94.4629C135.305 94.15 134.942 93.8888 134.545 93.6895C133.733 93.2506 132.751 92.9925 131.922 92.4004C131.722 92.2587 131.538 92.0968 131.372 91.917C131.219 91.7464 131.167 91.5407 131.274 91.4814C131.382 91.4222 131.623 91.4503 131.863 91.499L134.928 92.0625C135.603 92.1809 136.151 92.2714 136.53 92.3271C136.726 92.3723 136.928 92.3866 137.129 92.3691C136.947 92.2869 136.755 92.2285 136.559 92.1953C136.186 92.1013 135.642 91.979 134.974 91.8467L132.619 91.3486L131.922 91.2061Z" fill="#2F3941"/>
<path d="M127.353 91.3838C127.255 91.3828 127.158 91.4042 127.07 91.4463C126.823 91.5373 126.594 91.6747 126.397 91.8506C126.099 92.112 125.877 92.4485 125.753 92.8252C125.601 93.2915 125.601 93.7944 125.753 94.2607C125.891 94.7369 126.208 95.1409 126.638 95.3887C126.816 95.4913 127.019 95.5458 127.225 95.5459C127.431 95.5459 127.633 95.4913 127.812 95.3887C127.927 95.3148 128.024 95.2154 128.094 95.0977C128.164 94.9798 128.206 94.8468 128.216 94.71C128.216 94.6965 128.215 94.6834 128.215 94.6709C128.32 94.7171 128.432 94.7482 128.547 94.7598C128.696 94.7747 128.846 94.7582 128.989 94.7129C129.134 94.6646 129.265 94.5837 129.373 94.4756C129.481 94.3673 129.562 94.2349 129.609 94.0898C129.666 93.8161 129.62 93.5313 129.48 93.2891C129.373 93.096 129.29 92.8897 129.233 92.6758C129.21 92.5909 129.209 92.5014 129.23 92.416C129.252 92.3306 129.295 92.2524 129.355 92.1885C129.46 92.1023 129.582 92.0388 129.713 92.0039C129.844 91.9691 129.981 91.9635 130.114 91.9863C130.22 92.0016 130.328 92.0016 130.435 91.9863C130.34 91.9437 130.239 91.9166 130.136 91.9062C129.987 91.8667 129.83 91.8622 129.679 91.8936C129.528 91.925 129.386 91.9912 129.265 92.0869C129.183 92.1647 129.122 92.2624 129.089 92.3701C129.055 92.478 129.05 92.5935 129.073 92.7041C129.127 92.9349 129.208 93.1584 129.316 93.3691C129.431 93.5706 129.47 93.8067 129.425 94.0342C129.386 94.1484 129.321 94.2522 129.235 94.3369C129.149 94.4215 129.044 94.4844 128.93 94.5215C128.696 94.5767 128.451 94.5529 128.231 94.4541C128.012 94.3552 127.831 94.1867 127.718 93.9746C127.532 93.598 127.397 93.1987 127.314 92.7871C127.251 92.5097 127.226 92.2246 127.241 91.9404C127.259 91.7422 127.304 91.6309 127.286 91.6309C127.217 91.7169 127.175 91.8212 127.164 91.9307C127.113 92.2221 127.113 92.5201 127.164 92.8115C127.23 93.2459 127.358 93.6686 127.547 94.0654C127.677 94.3061 127.878 94.5014 128.122 94.626C128.13 94.6303 128.139 94.6335 128.146 94.6377C128.144 94.653 128.143 94.6692 128.14 94.6855C128.116 94.8034 128.068 94.9148 127.998 95.0127C127.928 95.1105 127.839 95.1924 127.735 95.2529C127.579 95.3334 127.404 95.373 127.229 95.3682C127.053 95.3633 126.88 95.3146 126.729 95.2256C126.349 94.9924 126.07 94.626 125.945 94.1982C125.818 93.8104 125.802 93.3944 125.899 92.998C125.997 92.6017 126.203 92.2401 126.495 91.9551C126.753 91.7264 127.042 91.5341 127.353 91.3838Z" fill="#2F3941"/>
<path d="M129.805 88.3506C129.749 88.3297 129.595 88.6534 129.278 88.9355C129.168 89.0336 129.055 89.1078 128.956 89.168C128.653 89.2022 128.354 89.2677 128.063 89.3633C127.618 89.5214 127.158 89.6384 126.691 89.7119C126.316 89.7613 125.935 89.7177 125.58 89.5859C125.466 89.5397 125.363 89.469 125.279 89.3789C125.195 89.2887 125.131 89.1809 125.093 89.0635C125.041 88.8896 125.04 88.7852 125.02 88.7852C124.993 88.882 124.993 88.9842 125.02 89.0811C125.048 89.2188 125.11 89.3479 125.197 89.458C125.285 89.5679 125.397 89.6559 125.524 89.7148C125.896 89.8798 126.305 89.9428 126.709 89.8965C127.19 89.8383 127.664 89.7311 128.123 89.5762C128.572 89.4267 129.043 89.3485 129.517 89.3457C129.893 89.3458 130.26 89.4683 130.562 89.6943C130.831 89.9206 131.043 90.207 131.182 90.5303C131.195 90.5252 131.188 90.4206 131.102 90.2168C131.004 89.9606 130.842 89.734 130.631 89.5586C130.313 89.2974 129.917 89.1502 129.506 89.1406C129.452 89.14 129.398 89.1403 129.345 89.1416C129.367 89.1243 129.392 89.1083 129.414 89.0889C129.782 88.7691 129.86 88.3524 129.805 88.3506Z" fill="#2F3941"/>
<path d="M131.197 83.0459C131.225 83.3858 131.288 83.7222 131.386 84.0488C131.532 84.6722 131.758 85.4904 132.051 86.4131C132.343 87.3361 132.636 88.1443 132.866 88.7295C132.976 89.0521 133.118 89.3629 133.291 89.6562C133.225 89.323 133.128 88.9962 133.002 88.6807C132.786 88.0154 132.518 87.2282 132.246 86.3506C131.974 85.4729 131.73 84.6785 131.524 84.0098C131.443 83.6797 131.334 83.3572 131.197 83.0459Z" fill="#2F3941"/>
<path d="M171.017 138.572L157.207 138.708L159.523 128.687L158.746 130.578C158.03 132.324 156.811 133.818 155.244 134.869C153.676 135.921 151.832 136.482 149.944 136.482C145.577 136.482 142.557 133.232 140.711 129.276C136.392 120.025 132.23 105.128 132.23 105.128L140.648 97.7298C146.743 109.259 152.47 119.269 152.47 119.269C152.47 119.269 154.124 114.243 155.402 109.757C156.681 105.271 156.67 102.916 158.631 100.68C161.651 97.2387 165.946 96.3853 169.944 95.3543L170.094 113.968L171.017 138.572Z" fill="#D22F37"/>
<path d="M186.819 124.727L161.671 129.603L160.449 139.265H199.006C200.062 139.278 201.108 139.071 202.079 138.657C203.05 138.243 203.924 137.631 204.645 136.86C205.366 136.089 205.918 135.176 206.267 134.18C206.615 133.183 206.752 132.125 206.669 131.073C206.115 124.03 205.513 115.358 205.053 111.69C204.705 108.83 203.555 105.873 202.207 103.331C200.26 99.6666 193.771 94.9715 188.083 94.7277L187.007 118.681" fill="#D22F37"/>
<path d="M159.057 130.028C159.081 129.95 159.099 129.869 159.11 129.788C159.137 129.614 159.176 129.384 159.221 129.091C159.319 128.489 159.447 127.618 159.594 126.538C159.886 124.382 160.242 121.394 160.541 118.085C160.841 114.776 161.018 111.774 161.116 109.597C161.165 108.51 161.192 107.629 161.206 107.019C161.206 106.729 161.206 106.497 161.206 106.323C161.214 106.242 161.214 106.16 161.206 106.079C161.188 106.159 161.178 106.241 161.179 106.323L161.133 107.019C161.095 107.646 161.046 108.52 160.983 109.59C160.855 111.763 160.653 114.762 160.357 118.067C160.06 121.373 159.723 124.361 159.461 126.521C159.333 127.587 159.225 128.454 159.148 129.081C159.117 129.37 159.089 129.6 159.068 129.777C159.054 129.86 159.05 129.944 159.057 130.028Z" fill="white"/>
<path d="M181.574 125.925C181.525 125.93 181.574 128.931 181.702 132.63C181.831 136.333 181.964 139.328 182.013 139.324C182.061 139.307 182.013 136.311 181.884 132.623C181.755 128.924 181.622 125.925 181.574 125.925Z" fill="white"/>
<path d="M187.957 124.699C188.54 125.205 189.025 125.814 189.386 126.496C189.766 127.242 190.035 128.039 190.187 128.861C190.367 129.874 190.484 130.896 190.535 131.923C190.579 132.957 190.695 133.987 190.883 135.005C191.054 135.84 191.349 136.645 191.758 137.392C192.031 137.892 192.384 138.345 192.803 138.733C192.917 138.838 193.039 138.935 193.168 139.022C193.255 139.081 193.304 139.112 193.308 139.105C192.715 138.61 192.221 138.007 191.852 137.328C191.466 136.587 191.189 135.794 191.03 134.974C190.844 133.962 190.728 132.939 190.682 131.912C190.637 130.877 190.52 129.846 190.333 128.826C190.171 127.992 189.885 127.186 189.484 126.437C189.21 125.931 188.857 125.473 188.439 125.078C188.329 124.973 188.212 124.876 188.09 124.786C188.05 124.752 188.005 124.723 187.957 124.699Z" fill="white"/>
<path d="M170.839 127.614C170.808 127.632 171.188 128.172 171.644 129.122C171.915 129.677 172.147 130.25 172.34 130.836C172.817 132.272 173.052 133.778 173.036 135.291C173.029 135.908 172.981 136.524 172.894 137.134C172.72 138.172 172.525 138.798 172.56 138.809C172.625 138.669 172.677 138.523 172.713 138.373C172.77 138.202 172.817 138.027 172.856 137.851C172.901 137.645 172.964 137.412 173.002 137.154C173.111 136.54 173.172 135.919 173.187 135.295C173.221 133.762 172.985 132.235 172.49 130.784C172.288 130.193 172.043 129.618 171.755 129.064C171.64 128.823 171.511 128.621 171.407 128.44C171.318 128.282 171.221 128.13 171.115 127.984C171.037 127.851 170.944 127.727 170.839 127.614Z" fill="white"/>
<path d="M153.009 119.945C153.01 120.002 153.019 120.06 153.036 120.115C153.064 120.248 153.103 120.408 153.148 120.603C153.252 121.052 153.395 121.648 153.57 122.39C154.05 124.346 154.294 126.352 154.297 128.366C154.286 130.379 153.783 132.358 152.831 134.131C152.533 134.662 152.183 135.163 151.786 135.625C151.511 135.96 151.337 136.131 151.347 136.145C151.397 136.113 151.443 136.075 151.484 136.032C151.564 135.952 151.696 135.845 151.831 135.685C152.252 135.235 152.621 134.74 152.932 134.208C153.937 132.427 154.472 130.418 154.486 128.373C154.483 126.343 154.217 124.321 153.695 122.359C153.507 121.606 153.347 121 153.218 120.585C153.159 120.394 153.11 120.237 153.072 120.109C153.034 119.981 153.016 119.942 153.009 119.945Z" fill="white"/>
<path d="M192.239 123.944C192.298 123.966 192.36 123.981 192.423 123.988L192.952 124.09L193.336 124.155L193.785 124.267C194.106 124.354 194.482 124.427 194.868 124.573L195.489 124.782C195.704 124.856 195.92 124.956 196.147 125.047C196.629 125.247 197.101 125.472 197.561 125.72C198.608 126.299 199.595 126.983 200.504 127.761C201.403 128.554 202.219 129.435 202.942 130.391C203.255 130.843 203.565 131.268 203.802 131.696C203.924 131.909 204.053 132.107 204.151 132.313L204.444 132.899C204.642 133.267 204.764 133.622 204.896 133.943C204.955 134.096 205.018 134.239 205.067 134.371L205.189 134.74L205.36 135.253C205.376 135.304 205.398 135.353 205.425 135.399C205.421 135.335 205.408 135.272 205.387 135.211C205.352 135.072 205.304 134.901 205.248 134.689L205.144 134.313C205.099 134.177 205.039 134.034 204.984 133.877C204.858 133.521 204.714 133.173 204.551 132.832L204.269 132.236C204.168 132.028 204.04 131.825 203.921 131.61C203.659 131.153 203.372 130.71 203.064 130.282C201.641 128.315 199.786 126.7 197.641 125.563C197.175 125.316 196.696 125.094 196.206 124.898C195.973 124.811 195.757 124.709 195.537 124.64L194.907 124.442C194.545 124.327 194.178 124.232 193.806 124.159C193.642 124.125 193.492 124.086 193.353 124.062L192.963 124.009L192.427 123.944C192.365 123.934 192.301 123.934 192.239 123.944Z" fill="white"/>
<path d="M191.531 124.009C191.531 124.04 191.994 124.148 192.711 124.441C193.13 124.614 193.538 124.814 193.931 125.04C194.406 125.323 194.859 125.642 195.285 125.994C195.7 126.354 196.087 126.745 196.442 127.164C196.734 127.51 197.002 127.875 197.243 128.258C197.653 128.914 197.841 129.36 197.873 129.349C197.852 129.237 197.816 129.127 197.766 129.025C197.647 128.739 197.51 128.461 197.355 128.193C197.122 127.795 196.86 127.415 196.571 127.057C195.856 126.18 194.981 125.446 193.993 124.894C193.593 124.668 193.175 124.476 192.743 124.32C192.453 124.211 192.155 124.123 191.852 124.058C191.748 124.027 191.639 124.01 191.531 124.009Z" fill="white"/>
<path d="M170.368 125.503C170.365 125.474 169.776 125.751 168.804 126.057C168.233 126.236 167.652 126.381 167.063 126.489C165.622 126.756 164.149 126.8 162.695 126.621C162.101 126.548 161.513 126.439 160.933 126.294C159.954 126.044 159.366 125.805 159.352 125.834C159.478 125.914 159.613 125.979 159.755 126.026C159.887 126.081 160.051 126.147 160.246 126.21C160.441 126.273 160.661 126.356 160.909 126.419C161.492 126.582 162.085 126.705 162.685 126.788C163.419 126.883 164.16 126.922 164.9 126.903C165.64 126.876 166.377 126.794 167.105 126.656C167.695 126.537 168.277 126.377 168.846 126.179C169.093 126.102 169.306 126.008 169.494 125.932C169.682 125.855 169.843 125.782 169.975 125.719C170.113 125.661 170.246 125.589 170.368 125.503Z" fill="white"/>
<path d="M152.435 118.955C152.404 118.956 152.47 119.388 152.494 120.084C152.553 121.902 152.132 123.704 151.275 125.309C150.949 125.908 150.696 126.26 150.721 126.283C150.721 126.283 150.801 126.207 150.923 126.054C151.092 125.832 151.247 125.599 151.387 125.358C152.322 123.762 152.752 121.922 152.623 120.077C152.606 119.8 152.569 119.523 152.512 119.251C152.5 119.15 152.473 119.05 152.435 118.955Z" fill="white"/>
<path d="M151.309 117.747C151.174 117.883 151.049 118.027 150.933 118.179C150.599 118.577 150.239 118.952 149.857 119.304C148.601 120.469 147.107 121.348 145.479 121.878C144.573 122.142 143.653 122.358 142.724 122.526C141.961 122.672 141.21 122.88 140.481 123.149C139.988 123.335 139.526 123.594 139.109 123.915C138.995 124.001 138.887 124.095 138.787 124.197C138.7 124.274 138.666 124.312 138.673 124.316C139.229 123.874 139.851 123.522 140.515 123.271C141.242 123.019 141.987 122.825 142.744 122.69C143.685 122.531 144.615 122.318 145.531 122.052C147.184 121.514 148.694 120.606 149.944 119.398C150.321 119.033 150.67 118.641 150.989 118.224C151.103 118.078 151.181 117.956 151.237 117.876C151.292 117.796 151.316 117.751 151.309 117.747Z" fill="white"/>
<path d="M191.865 117.695C192.025 117.785 192.195 117.859 192.37 117.914C192.701 118.043 193.185 118.217 193.787 118.412C195.363 118.918 196.971 119.316 198.601 119.604C199.555 119.771 200.472 119.892 201.308 119.976C202.049 120.071 202.798 120.092 203.543 120.035C204.049 119.994 204.542 119.854 204.992 119.621C205.115 119.558 205.232 119.482 205.341 119.398C205.381 119.37 205.417 119.337 205.449 119.3C205.445 119.302 205.278 119.41 204.965 119.558C204.514 119.762 204.028 119.88 203.534 119.906C202.797 119.945 202.059 119.912 201.328 119.809C200.496 119.715 199.587 119.589 198.636 119.422C197.014 119.134 195.409 118.757 193.829 118.29C193.223 118.109 192.736 117.942 192.398 117.848C192.224 117.784 192.046 117.732 191.865 117.695Z" fill="white"/>
<path d="M189.402 119.471C188.768 119.431 188.133 119.451 187.503 119.53C188.131 119.63 188.767 119.671 189.402 119.653C190.035 119.692 190.671 119.672 191.3 119.593C190.673 119.493 190.037 119.452 189.402 119.471Z" fill="white"/>
<path d="M154.222 113.654C154.226 113.687 154.66 113.836 155.336 114.169C157.113 115.043 158.618 116.385 159.69 118.05C160.099 118.685 160.299 119.11 160.327 119.095C160.308 118.985 160.27 118.879 160.216 118.781C160.094 118.505 159.954 118.236 159.798 117.977C159.287 117.116 158.646 116.338 157.897 115.674C157.15 115.008 156.305 114.46 155.392 114.048C155.117 113.924 154.834 113.817 154.546 113.728C154.442 113.689 154.333 113.665 154.222 113.654Z" fill="white"/>
<path d="M168.614 114.671C167.816 114.647 166.714 114.64 165.495 114.671C164.276 114.702 163.176 114.765 162.361 114.831C161.964 114.863 161.643 114.891 161.42 114.919C161.311 114.926 161.202 114.945 161.097 114.975C161.528 114.997 161.959 114.99 162.389 114.953C163.187 114.922 164.288 114.881 165.503 114.853C166.719 114.825 167.819 114.807 168.617 114.8C169.048 114.814 169.479 114.799 169.909 114.755C169.795 114.728 169.678 114.714 169.561 114.713C169.338 114.713 169.014 114.682 168.614 114.671Z" fill="white"/>
<path d="M144.832 107.868C144.609 107.868 144.348 107.887 144.066 107.925C143.403 107.997 142.745 108.113 142.098 108.273C141.305 108.476 140.526 108.737 139.771 109.053C139.022 109.38 138.298 109.762 137.605 110.195C137.041 110.555 136.502 110.952 135.992 111.383C135.769 111.561 135.587 111.731 135.42 111.899C135.277 112.028 135.142 112.166 135.013 112.31C134.892 112.425 134.783 112.554 134.689 112.693C134.823 112.597 134.948 112.489 135.062 112.369C135.177 112.261 135.316 112.129 135.491 111.983C135.665 111.836 135.839 111.661 136.076 111.494C136.59 111.079 137.13 110.697 137.692 110.349C139.07 109.496 140.568 108.856 142.136 108.447C142.777 108.283 143.427 108.155 144.083 108.068C144.362 108.022 144.616 108.004 144.839 107.984C145.062 107.963 145.257 107.946 145.413 107.939C145.578 107.938 145.743 107.922 145.905 107.893C145.742 107.868 145.577 107.859 145.413 107.868C145.22 107.859 145.026 107.859 144.832 107.868Z" fill="white"/>
<path d="M202.21 107.837C201.515 107.859 200.826 107.976 200.162 108.186C199.355 108.445 198.57 108.77 197.815 109.154C197.01 109.552 196.251 109.941 195.54 110.244C194.915 110.522 194.264 110.739 193.597 110.892C192.976 111.019 192.343 111.078 191.709 111.067C191.713 111.068 191.759 111.084 191.838 111.094C191.964 111.114 192.09 111.128 192.217 111.133C192.684 111.153 193.153 111.114 193.611 111.021C194.291 110.884 194.956 110.677 195.593 110.402C196.314 110.102 197.08 109.704 197.881 109.318C198.631 108.941 199.408 108.62 200.204 108.357C200.851 108.14 201.523 108.007 202.203 107.963C202.834 107.943 203.464 108.014 204.074 108.175C204.036 108.15 203.995 108.131 203.951 108.119C203.839 108.07 203.723 108.03 203.604 107.998C203.15 107.877 202.68 107.822 202.21 107.837Z" fill="white"/>
<path d="M187.388 110.22C188.057 110.424 188.742 110.571 189.436 110.659C190.123 110.809 190.823 110.896 191.526 110.92C190.857 110.716 190.172 110.57 189.478 110.482C188.791 110.332 188.091 110.244 187.388 110.22Z" fill="white"/>
<path d="M158.114 102.425C157.997 102.428 157.88 102.44 157.765 102.46C157.657 102.474 157.611 102.484 157.615 102.491C158.214 102.471 158.813 102.554 159.384 102.738C160 102.954 160.598 103.219 161.171 103.532C161.878 103.924 162.617 104.257 163.379 104.526C164.788 104.977 166.288 105.074 167.743 104.808C168.181 104.728 168.611 104.611 169.029 104.459C169.185 104.41 169.335 104.344 169.478 104.264C169.476 104.23 168.822 104.504 167.737 104.682C166.301 104.906 164.834 104.792 163.45 104.351C162.696 104.084 161.963 103.761 161.258 103.383C160.675 103.074 160.066 102.817 159.437 102.616C159.009 102.481 158.562 102.416 158.114 102.425Z" fill="white"/>
<path d="M197.405 99.0353C194.93 98.6243 192.392 98.8484 190.028 99.6867C189.672 99.812 189.324 99.9553 188.983 100.115C188.852 100.166 188.728 100.233 188.614 100.314C188.614 100.342 189.164 100.101 190.07 99.8088C192.428 99.0473 194.928 98.8263 197.384 99.1613C198.324 99.2902 198.9 99.4358 198.907 99.4045C198.782 99.3443 198.649 99.3008 198.513 99.2756C198.149 99.1748 197.778 99.0946 197.405 99.0353Z" fill="white"/>
<path d="M165.165 96.7052C165.37 96.8416 165.592 96.9488 165.826 97.0226C166.376 97.2381 166.941 97.4128 167.516 97.5451C168.089 97.68 168.671 97.7729 169.257 97.8234C169.499 97.8602 169.746 97.8601 169.989 97.8234C169.984 97.7677 168.882 97.6767 167.551 97.3605C166.222 97.0447 165.193 96.6563 165.165 96.7052Z" fill="white"/>
<path d="M152.81 145.761C152.765 145.916 152.76 146.08 152.794 146.239C152.829 146.397 152.902 146.544 153.008 146.666C153.114 146.788 153.249 146.882 153.401 146.939C153.553 146.995 153.716 147.013 153.876 146.99C154.062 146.964 154.236 146.884 154.377 146.76C154.518 146.637 154.62 146.475 154.67 146.294L154.966 145.2H154.921C154.891 145.358 154.899 145.521 154.944 145.675C154.989 145.829 155.07 145.971 155.181 146.088C155.292 146.204 155.428 146.293 155.58 146.346C155.732 146.4 155.894 146.416 156.053 146.395C156.509 146.395 156.903 145.729 157.035 145.378C157.38 145.411 157.727 145.35 158.039 145.2C158.351 145.05 158.616 144.818 158.805 144.528L160.849 141.337L164.635 138.568L162.344 130.387L154.197 135.66C153.876 135.911 153.827 136.008 153.319 136.486L148.06 141.323C148.655 141.672 149.16 141.654 149.989 141.323C150.818 140.993 154.447 138.537 154.447 138.537L152.81 145.729" fill="#E6EBEE"/>
<path d="M152.81 145.761C152.765 145.916 152.76 146.08 152.794 146.239C152.829 146.397 152.902 146.544 153.008 146.666C153.114 146.788 153.249 146.882 153.401 146.939C153.553 146.995 153.716 147.013 153.876 146.99C154.062 146.964 154.236 146.884 154.377 146.76C154.518 146.637 154.62 146.475 154.67 146.294L154.966 145.2H154.921C154.891 145.358 154.899 145.521 154.944 145.675C154.989 145.829 155.07 145.971 155.181 146.088C155.292 146.204 155.428 146.293 155.58 146.346C155.732 146.4 155.894 146.416 156.053 146.395C156.509 146.395 156.903 145.729 157.035 145.378C157.38 145.411 157.727 145.35 158.039 145.2C158.351 145.05 158.616 144.818 158.805 144.528L160.849 141.337L164.635 138.568L162.344 130.387L154.197 135.66C153.876 135.911 153.827 136.008 153.319 136.486L148.06 141.323C148.655 141.672 149.16 141.654 149.989 141.323C150.818 140.993 154.447 138.537 154.447 138.537L152.81 145.729" fill="url(#paint13_linear_470_16806)" fill-opacity="0.8" style="mix-blend-mode:color-burn"/>
<path d="M152.81 145.761C152.765 145.916 152.76 146.08 152.794 146.239C152.829 146.397 152.902 146.544 153.008 146.666C153.114 146.788 153.249 146.882 153.401 146.939C153.553 146.995 153.716 147.013 153.876 146.99C154.062 146.964 154.236 146.884 154.377 146.76C154.518 146.637 154.62 146.475 154.67 146.294L154.966 145.2H154.921C154.891 145.358 154.899 145.521 154.944 145.675C154.989 145.829 155.07 145.971 155.181 146.088C155.292 146.204 155.428 146.293 155.58 146.346C155.732 146.4 155.894 146.416 156.053 146.395C156.509 146.395 156.903 145.729 157.035 145.378C157.38 145.411 157.727 145.35 158.039 145.2C158.351 145.05 158.616 144.818 158.805 144.528L160.849 141.337L164.635 138.568L162.344 130.387L154.197 135.66C153.876 135.911 153.827 136.008 153.319 136.486L148.06 141.323C148.655 141.672 149.16 141.654 149.989 141.323C150.818 140.993 154.447 138.537 154.447 138.537L152.81 145.729" fill="#2F3941" fill-opacity="0.15" style="mix-blend-mode:multiply"/>
<path d="M159.782 139.031C159.782 139.031 159.688 139.074 159.542 139.175L159.27 139.362C159.141 139.443 159.024 139.542 158.922 139.655C158.801 139.794 158.707 139.953 158.643 140.125C158.581 140.31 158.514 140.498 158.444 140.696L157.999 142.006C157.689 142.939 157.417 143.782 157.229 144.398C157.11 144.725 157.02 145.062 156.961 145.405C157.119 145.095 157.25 144.771 157.351 144.437C157.571 143.831 157.863 142.995 158.173 142.065C158.322 141.602 158.469 141.159 158.605 140.752C158.668 140.55 158.727 140.359 158.786 140.178C158.838 140.018 158.917 139.868 159.019 139.735C159.107 139.626 159.208 139.528 159.319 139.442L159.569 139.23C159.719 139.112 159.789 139.042 159.782 139.031Z" fill="#2F3941"/>
<path d="M158.384 137.301C158.352 137.3 158.319 137.305 158.29 137.317C158.203 137.34 158.119 137.372 158.039 137.412C157.75 137.573 157.499 137.796 157.304 138.063C156.786 138.725 156.367 139.805 155.984 140.985C155.601 142.166 155.323 143.278 155.135 144.075C155.041 144.472 154.971 144.796 154.926 145.022C154.892 145.141 154.876 145.264 154.88 145.388C154.931 145.277 154.97 145.16 154.995 145.04L155.257 144.106C155.48 143.319 155.775 142.229 156.155 141.041C156.535 139.853 156.932 138.794 157.409 138.14C157.587 137.878 157.812 137.652 158.074 137.475C158.265 137.357 158.386 137.322 158.384 137.301Z" fill="#2F3941"/>
</g>
<defs>
<filter id="filter0_n_470_16806" x="22.9995" y="19" width="176.457" height="99.9882" filterUnits="userSpaceOnUse" color-interpolation-filters="sRGB">
<feFlood flood-opacity="0" result="BackgroundImageFix"/>
<feBlend mode="normal" in="SourceGraphic" in2="BackgroundImageFix" result="shape"/>
<feTurbulence type="fractalNoise" baseFrequency="0.41493773460388184 0.41493773460388184" stitchTiles="stitch" numOctaves="3" result="noise" seed="2646" />
<feColorMatrix in="noise" type="luminanceToAlpha" result="alphaNoise" />
<feComponentTransfer in="alphaNoise" result="coloredNoise1">
<feFuncA type="discrete" tableValues="1 1 1 1 1 1 1 1 1 1 1 1 1 1 1 1 1 1 1 1 1 1 1 1 1 1 1 1 1 1 1 1 1 1 1 1 1 1 1 1 1 1 1 1 1 1 1 1 1 1 1 0 0 0 0 0 0 0 0 0 0 0 0 0 0 0 0 0 0 0 0 0 0 0 0 0 0 0 0 0 0 0 0 0 0 0 0 0 0 0 0 0 0 0 0 0 0 0 0 0 "/>
</feComponentTransfer>
<feComposite operator="in" in2="shape" in="coloredNoise1" result="noise1Clipped" />
<feFlood flood-color="rgba(0, 0, 0, 0.02)" result="color1Flood" />
<feComposite operator="in" in2="noise1Clipped" in="color1Flood" result="color1" />
<feMerge result="effect1_noise_470_16806">
<feMergeNode in="shape" />
<feMergeNode in="color1" />
</feMerge>
</filter>
<filter id="filter1_d_470_16806" x="4.00775" y="16.3964" width="178.048" height="144.773" filterUnits="userSpaceOnUse" color-interpolation-filters="sRGB">
<feFlood flood-opacity="0" result="BackgroundImageFix"/>
<feColorMatrix in="SourceAlpha" type="matrix" values="0 0 0 0 0 0 0 0 0 0 0 0 0 0 0 0 0 0 127 0" result="hardAlpha"/>
<feOffset dy="20"/>
<feGaussianBlur stdDeviation="14"/>
<feColorMatrix type="matrix" values="0 0 0 0 0.184314 0 0 0 0 0.223529 0 0 0 0 0.254902 0 0 0 0.15 0"/>
<feBlend mode="normal" in2="BackgroundImageFix" result="effect1_dropShadow_470_16806"/>
<feBlend mode="normal" in="SourceGraphic" in2="effect1_dropShadow_470_16806" result="shape"/>
</filter>
<filter id="filter2_di_470_16806" x="21.4827" y="5.24573" width="140.442" height="118.877" filterUnits="userSpaceOnUse" color-interpolation-filters="sRGB">
<feFlood flood-opacity="0" result="BackgroundImageFix"/>
<feColorMatrix in="SourceAlpha" type="matrix" values="0 0 0 0 0 0 0 0 0 0 0 0 0 0 0 0 0 0 127 0" result="hardAlpha"/>
<feOffset/>
<feGaussianBlur stdDeviation="9.57531"/>
<feComposite in2="hardAlpha" operator="out"/>
<feColorMatrix type="matrix" values="0 0 0 0 0 0 0 0 0 0 0 0 0 0 0 0 0 0 0.05 0"/>
<feBlend mode="normal" in2="BackgroundImageFix" result="effect1_dropShadow_470_16806"/>
<feBlend mode="normal" in="SourceGraphic" in2="effect1_dropShadow_470_16806" result="shape"/>
<feColorMatrix in="SourceAlpha" type="matrix" values="0 0 0 0 0 0 0 0 0 0 0 0 0 0 0 0 0 0 127 0" result="hardAlpha"/>
<feOffset dx="-0.478766"/>
<feComposite in2="hardAlpha" operator="arithmetic" k2="-1" k3="1"/>
<feColorMatrix type="matrix" values="0 0 0 0 0.913725 0 0 0 0 0.921569 0 0 0 0 0.929412 0 0 0 1 0"/>
<feBlend mode="normal" in2="shape" result="effect2_innerShadow_470_16806"/>
</filter>
<filter id="filter3_di_470_16806" x="33.5163" y="88.3289" width="38.4715" height="38.4714" filterUnits="userSpaceOnUse" color-interpolation-filters="sRGB">
<feFlood flood-opacity="0" result="BackgroundImageFix"/>
<feColorMatrix in="SourceAlpha" type="matrix" values="0 0 0 0 0 0 0 0 0 0 0 0 0 0 0 0 0 0 127 0" result="hardAlpha"/>
<feOffset/>
<feGaussianBlur stdDeviation="8.76285"/>
<feComposite in2="hardAlpha" operator="out"/>
<feColorMatrix type="matrix" values="0 0 0 0 0 0 0 0 0 0 0 0 0 0 0 0 0 0 0.05 0"/>
<feBlend mode="normal" in2="BackgroundImageFix" result="effect1_dropShadow_470_16806"/>
<feBlend mode="normal" in="SourceGraphic" in2="effect1_dropShadow_470_16806" result="shape"/>
<feColorMatrix in="SourceAlpha" type="matrix" values="0 0 0 0 0 0 0 0 0 0 0 0 0 0 0 0 0 0 127 0" result="hardAlpha"/>
<feOffset dx="-0.438143"/>
<feComposite in2="hardAlpha" operator="arithmetic" k2="-1" k3="1"/>
<feColorMatrix type="matrix" values="0 0 0 0 0.913725 0 0 0 0 0.921569 0 0 0 0 0.929412 0 0 0 1 0"/>
<feBlend mode="normal" in2="shape" result="effect2_innerShadow_470_16806"/>
</filter>
<filter id="filter4_di_470_16806" x="50.2101" y="87.4036" width="38.4715" height="38.4714" filterUnits="userSpaceOnUse" color-interpolation-filters="sRGB">
<feFlood flood-opacity="0" result="BackgroundImageFix"/>
<feColorMatrix in="SourceAlpha" type="matrix" values="0 0 0 0 0 0 0 0 0 0 0 0 0 0 0 0 0 0 127 0" result="hardAlpha"/>
<feOffset/>
<feGaussianBlur stdDeviation="8.76285"/>
<feComposite in2="hardAlpha" operator="out"/>
<feColorMatrix type="matrix" values="0 0 0 0 0 0 0 0 0 0 0 0 0 0 0 0 0 0 0.05 0"/>
<feBlend mode="normal" in2="BackgroundImageFix" result="effect1_dropShadow_470_16806"/>
<feBlend mode="normal" in="SourceGraphic" in2="effect1_dropShadow_470_16806" result="shape"/>
<feColorMatrix in="SourceAlpha" type="matrix" values="0 0 0 0 0 0 0 0 0 0 0 0 0 0 0 0 0 0 127 0" result="hardAlpha"/>
<feOffset dx="-0.438143"/>
<feComposite in2="hardAlpha" operator="arithmetic" k2="-1" k3="1"/>
<feColorMatrix type="matrix" values="0 0 0 0 0.913725 0 0 0 0 0.921569 0 0 0 0 0.929412 0 0 0 1 0"/>
<feBlend mode="normal" in2="shape" result="effect2_innerShadow_470_16806"/>
</filter>
<filter id="filter5_di_470_16806" x="73.7369" y="86.1008" width="38.4715" height="38.4714" filterUnits="userSpaceOnUse" color-interpolation-filters="sRGB">
<feFlood flood-opacity="0" result="BackgroundImageFix"/>
<feColorMatrix in="SourceAlpha" type="matrix" values="0 0 0 0 0 0 0 0 0 0 0 0 0 0 0 0 0 0 127 0" result="hardAlpha"/>
<feOffset/>
<feGaussianBlur stdDeviation="8.76285"/>
<feComposite in2="hardAlpha" operator="out"/>
<feColorMatrix type="matrix" values="0 0 0 0 0 0 0 0 0 0 0 0 0 0 0 0 0 0 0.05 0"/>
<feBlend mode="normal" in2="BackgroundImageFix" result="effect1_dropShadow_470_16806"/>
<feBlend mode="normal" in="SourceGraphic" in2="effect1_dropShadow_470_16806" result="shape"/>
<feColorMatrix in="SourceAlpha" type="matrix" values="0 0 0 0 0 0 0 0 0 0 0 0 0 0 0 0 0 0 127 0" result="hardAlpha"/>
<feOffset dx="-0.438143"/>
<feComposite in2="hardAlpha" operator="arithmetic" k2="-1" k3="1"/>
<feColorMatrix type="matrix" values="0 0 0 0 0.913725 0 0 0 0 0.921569 0 0 0 0 0.929412 0 0 0 1 0"/>
<feBlend mode="normal" in2="shape" result="effect2_innerShadow_470_16806"/>
</filter>
<filter id="filter6_di_470_16806" x="94.874" y="79.6113" width="48.5497" height="48.5497" filterUnits="userSpaceOnUse" color-interpolation-filters="sRGB">
<feFlood flood-opacity="0" result="BackgroundImageFix"/>
<feColorMatrix in="SourceAlpha" type="matrix" values="0 0 0 0 0 0 0 0 0 0 0 0 0 0 0 0 0 0 127 0" result="hardAlpha"/>
<feOffset/>
<feGaussianBlur stdDeviation="11.0584"/>
<feComposite in2="hardAlpha" operator="out"/>
<feColorMatrix type="matrix" values="0 0 0 0 0 0 0 0 0 0 0 0 0 0 0 0 0 0 0.05 0"/>
<feBlend mode="normal" in2="BackgroundImageFix" result="effect1_dropShadow_470_16806"/>
<feBlend mode="normal" in="SourceGraphic" in2="effect1_dropShadow_470_16806" result="shape"/>
<feColorMatrix in="SourceAlpha" type="matrix" values="0 0 0 0 0 0 0 0 0 0 0 0 0 0 0 0 0 0 127 0" result="hardAlpha"/>
<feOffset dx="-0.552922"/>
<feComposite in2="hardAlpha" operator="arithmetic" k2="-1" k3="1"/>
<feColorMatrix type="matrix" values="0 0 0 0 0.913725 0 0 0 0 0.921569 0 0 0 0 0.929412 0 0 0 1 0"/>
<feBlend mode="normal" in2="shape" result="effect2_innerShadow_470_16806"/>
</filter>
<filter id="filter7_d_470_16806" x="66.2255" y="46.0178" width="69.3312" height="66.5074" filterUnits="userSpaceOnUse" color-interpolation-filters="sRGB">
<feFlood flood-opacity="0" result="BackgroundImageFix"/>
<feColorMatrix in="SourceAlpha" type="matrix" values="0 0 0 0 0 0 0 0 0 0 0 0 0 0 0 0 0 0 127 0" result="hardAlpha"/>
<feOffset dy="4"/>
<feGaussianBlur stdDeviation="4"/>
<feColorMatrix type="matrix" values="0 0 0 0 0.184314 0 0 0 0 0.223529 0 0 0 0 0.254902 0 0 0 0.15 0"/>
<feBlend mode="normal" in2="BackgroundImageFix" result="effect1_dropShadow_470_16806"/>
<feBlend mode="normal" in="SourceGraphic" in2="effect1_dropShadow_470_16806" result="shape"/>
</filter>
<linearGradient id="paint0_linear_470_16806" x1="22.9997" y1="92.4482" x2="201.746" y2="86.3736" gradientUnits="userSpaceOnUse">
<stop stop-color="#0C4D5E"/>
<stop offset="1" stop-color="#2B8473"/>
</linearGradient>
<linearGradient id="paint1_linear_470_16806" x1="140.507" y1="71.7002" x2="125.011" y2="15.4205" gradientUnits="userSpaceOnUse">
<stop stop-color="white" stop-opacity="0"/>
<stop offset="1" stop-color="white" stop-opacity="0.8"/>
</linearGradient>
<linearGradient id="paint2_linear_470_16806" x1="140.507" y1="71.7002" x2="125.011" y2="15.4205" gradientUnits="userSpaceOnUse">
<stop stop-color="white" stop-opacity="0"/>
<stop offset="1" stop-color="white" stop-opacity="0.8"/>
</linearGradient>
<linearGradient id="paint3_linear_470_16806" x1="140.507" y1="71.7002" x2="125.011" y2="15.4205" gradientUnits="userSpaceOnUse">
<stop stop-color="white" stop-opacity="0"/>
<stop offset="1" stop-color="white" stop-opacity="0.8"/>
</linearGradient>
<linearGradient id="paint4_linear_470_16806" x1="140.507" y1="71.7002" x2="125.011" y2="15.4205" gradientUnits="userSpaceOnUse">
<stop stop-color="white" stop-opacity="0"/>
<stop offset="1" stop-color="white" stop-opacity="0.8"/>
</linearGradient>
<linearGradient id="paint5_linear_470_16806" x1="140.507" y1="71.7002" x2="125.011" y2="15.4205" gradientUnits="userSpaceOnUse">
<stop stop-color="white" stop-opacity="0"/>
<stop offset="1" stop-color="white" stop-opacity="0.8"/>
</linearGradient>
<linearGradient id="paint6_linear_470_16806" x1="140.507" y1="71.7002" x2="125.011" y2="15.4205" gradientUnits="userSpaceOnUse">
<stop stop-color="white" stop-opacity="0"/>
<stop offset="1" stop-color="white" stop-opacity="0.8"/>
</linearGradient>
<linearGradient id="paint7_linear_470_16806" x1="137.177" y1="108.269" x2="76.8627" y2="73.4294" gradientUnits="userSpaceOnUse">
<stop offset="0.213542" stop-color="#323444"/>
<stop offset="0.6875" stop-color="#2F3941" stop-opacity="0.291667"/>
<stop offset="1" stop-color="#2F3941" stop-opacity="0"/>
</linearGradient>
<linearGradient id="paint8_linear_470_16806" x1="113.743" y1="61.4849" x2="118.735" y2="75.4253" gradientUnits="userSpaceOnUse">
<stop offset="0.213542" stop-color="#323444"/>
<stop offset="0.6875" stop-color="#2F3941" stop-opacity="0.291667"/>
<stop offset="1" stop-color="#2F3941" stop-opacity="0"/>
</linearGradient>
<linearGradient id="paint9_linear_470_16806" x1="95.7883" y1="39.0105" x2="80.3453" y2="63.4404" gradientUnits="userSpaceOnUse">
<stop offset="0.213542" stop-color="#323444"/>
<stop offset="0.6875" stop-color="#2F3941" stop-opacity="0.291667"/>
<stop offset="1" stop-color="#2F3941" stop-opacity="0"/>
</linearGradient>
<linearGradient id="paint10_linear_470_16806" x1="93.9055" y1="88.4737" x2="95.9535" y2="97.0298" gradientUnits="userSpaceOnUse">
<stop offset="0.213542" stop-color="#323444"/>
<stop offset="0.6875" stop-color="#2F3941" stop-opacity="0.291667"/>
<stop offset="1" stop-color="#2F3941" stop-opacity="0"/>
</linearGradient>
<linearGradient id="paint11_linear_470_16806" x1="169.778" y1="55.8251" x2="196.008" y2="92.1096" gradientUnits="userSpaceOnUse">
<stop offset="0.213542" stop-color="#323444"/>
<stop offset="0.6875" stop-color="#2F3941" stop-opacity="0.291667"/>
<stop offset="1" stop-color="#2F3941" stop-opacity="0"/>
</linearGradient>
<linearGradient id="paint12_linear_470_16806" x1="129.543" y1="72.3929" x2="159.134" y2="120.255" gradientUnits="userSpaceOnUse">
<stop offset="0.213542" stop-color="#323444"/>
<stop offset="0.6875" stop-color="#2F3941" stop-opacity="0.291667"/>
<stop offset="1" stop-color="#2F3941" stop-opacity="0"/>
</linearGradient>
<linearGradient id="paint13_linear_470_16806" x1="150.718" y1="127.266" x2="158.17" y2="147.637" gradientUnits="userSpaceOnUse">
<stop offset="0.213542" stop-color="#323444"/>
<stop offset="0.6875" stop-color="#2F3941" stop-opacity="0.291667"/>
<stop offset="1" stop-color="#2F3941" stop-opacity="0"/>
</linearGradient>
<clipPath id="clip0_470_16806">
<rect width="226" height="150.667" fill="white"/>
</clipPath>
</defs>
</svg>
