<svg width="219" height="143" viewBox="0 0 219 143" fill="none" xmlns="http://www.w3.org/2000/svg">
<g filter="url(#filter0_d_1021_4009)">
<path fill-rule="evenodd" clip-rule="evenodd" d="M105.881 20.3438C107.728 18.0131 110.943 17.2724 113.623 18.5603L166.588 44.0124C168.007 44.3313 169.18 45.4496 169.493 46.9663L181.429 104.866C181.855 106.931 180.526 108.95 178.461 109.375L86.3444 128.366C84.2795 128.791 82.2606 127.463 81.8349 125.398L69.8986 67.4982C69.5553 65.833 70.3531 64.1978 71.7576 63.4037L105.881 20.3438Z" fill="url(#paint0_linear_1021_4009)"/>
<rect x="75.3706" y="45.376" width="79.5269" height="51.4155" transform="rotate(-13.6769 75.3706 45.376)" fill="#F3F3F3"/>
<path d="M94.2548 64.6045L92.6283 62.8279L91.9906 62.9699L92.4443 65.0076L91.6087 65.1937L90.4744 60.0994L92.2336 59.7077C92.6245 59.6207 92.9696 59.6156 93.2688 59.6926C93.5729 59.7685 93.8165 59.9066 93.9996 60.1069C94.1876 60.3061 94.3131 60.5474 94.3762 60.8308C94.4502 61.1631 94.4199 61.4878 94.2854 61.805C94.1547 62.1162 93.8998 62.3653 93.5209 62.5522L95.2517 64.3825L94.2548 64.6045ZM91.8421 62.3029L92.7656 62.0972C93.0784 62.0276 93.2955 61.8972 93.4171 61.706C93.5435 61.5137 93.5774 61.2857 93.5186 61.0218C93.4599 60.7579 93.336 60.5701 93.147 60.4583C92.9569 60.3416 92.703 60.3187 92.3854 60.3894L91.4618 60.595L91.8421 62.3029ZM99.4557 61.2231C99.4895 61.3745 99.5102 61.5135 99.5178 61.6401L96.4319 62.3272C96.5282 62.6442 96.7056 62.8766 96.9641 63.0242C97.2226 63.1718 97.5083 63.2107 97.821 63.1411C98.2706 63.041 98.5463 62.7821 98.6482 62.3645L99.5498 62.1638C99.5103 62.5624 99.356 62.9173 99.0868 63.2285C98.8214 63.5338 98.4517 63.7392 97.9777 63.8448C97.5917 63.9307 97.2257 63.9225 96.8797 63.82C96.5376 63.7115 96.2438 63.5205 95.9982 63.2469C95.7564 62.9674 95.5893 62.6199 95.4968 62.2046C95.4044 61.7892 95.4064 61.4067 95.5029 61.0569C95.6032 60.7012 95.7858 60.4041 96.0507 60.1656C96.3204 59.9261 96.6532 59.7622 97.049 59.6741C97.4302 59.5892 97.7883 59.5967 98.1234 59.6964C98.4585 59.7962 98.7428 59.9791 98.9764 60.245C99.2089 60.5061 99.3687 60.8321 99.4557 61.2231ZM98.5247 61.1534C98.4513 60.8466 98.2864 60.6244 98.03 60.4865C97.7737 60.3487 97.4867 60.3152 97.1691 60.3859C96.8808 60.4501 96.6547 60.5979 96.4908 60.8293C96.3258 61.0558 96.2586 61.3298 96.2891 61.6512L98.5247 61.1534ZM102.216 62.901C101.899 62.9717 101.6 62.9792 101.321 62.9234C101.046 62.8616 100.813 62.7493 100.623 62.5865C100.432 62.4187 100.304 62.2138 100.24 61.9717L101.105 61.7791C101.158 61.9468 101.27 62.073 101.443 62.1577C101.619 62.2363 101.82 62.2506 102.045 62.2006C102.279 62.1484 102.45 62.0641 102.558 61.9479C102.669 61.8257 102.709 61.6937 102.677 61.552C102.644 61.4005 102.545 61.3044 102.383 61.2638C102.224 61.222 101.979 61.192 101.647 61.1737C101.326 61.1581 101.061 61.1324 100.853 61.0966C100.645 61.0609 100.452 60.9781 100.274 60.8484C100.102 60.7177 99.9859 60.5203 99.9272 60.2564C99.8793 60.0414 99.8993 59.8318 99.9872 59.6276C100.074 59.4185 100.223 59.2366 100.435 59.0817C100.652 58.9258 100.914 58.8135 101.222 58.745C101.681 58.6427 102.076 58.6778 102.407 58.8504C102.741 59.0169 102.963 59.2984 103.072 59.6947L102.236 59.8808C102.181 59.7033 102.076 59.5754 101.92 59.4973C101.764 59.4192 101.574 59.4051 101.349 59.4552C101.129 59.5042 100.97 59.5832 100.871 59.6924C100.772 59.8016 100.738 59.9246 100.768 60.0614C100.792 60.1689 100.852 60.2506 100.946 60.3065C101.041 60.3624 101.149 60.3998 101.271 60.4188C101.392 60.4328 101.57 60.4472 101.804 60.4617C102.114 60.4746 102.372 60.5019 102.576 60.5437C102.784 60.5794 102.974 60.6602 103.146 60.7862C103.317 60.9121 103.434 61.104 103.497 61.3619C103.548 61.5915 103.53 61.8109 103.443 62.02C103.357 62.2291 103.207 62.4111 102.996 62.5659C102.789 62.7197 102.529 62.8314 102.216 62.901ZM107.867 59.3502C107.901 59.5017 107.921 59.6407 107.929 59.7672L104.843 60.4543C104.939 60.7714 105.117 61.0037 105.375 61.1513C105.634 61.2989 105.919 61.3379 106.232 61.2683C106.682 61.1682 106.957 60.9093 107.059 60.4917L107.961 60.2909C107.921 60.6895 107.767 61.0444 107.498 61.3557C107.232 61.661 106.863 61.8664 106.389 61.9719C106.003 62.0579 105.637 62.0496 105.291 61.9471C104.949 61.8387 104.655 61.6477 104.409 61.3741C104.168 61.0946 104 60.7471 103.908 60.3317C103.815 59.9164 103.817 59.5338 103.914 59.1841C104.014 58.8284 104.197 58.5313 104.462 58.2928C104.731 58.0532 105.064 57.8894 105.46 57.8012C105.841 57.7164 106.199 57.7238 106.534 57.8236C106.87 57.9234 107.154 58.1062 107.387 58.3722C107.62 58.6333 107.78 58.9593 107.867 59.3502ZM106.936 59.2806C106.862 58.9738 106.697 58.7515 106.441 58.6137C106.185 58.4759 105.898 58.4423 105.58 58.5131C105.292 58.5773 105.066 58.7251 104.902 58.9564C104.737 59.1829 104.67 59.4569 104.7 59.7784L106.936 59.2806ZM109.374 57.7145L109.872 59.9501C109.906 60.1016 109.964 60.2039 110.048 60.2571C110.135 60.3043 110.265 60.3088 110.436 60.2708L110.949 60.1565L111.104 60.8528L110.444 60.9997C110.068 61.0835 109.76 61.0598 109.52 60.9284C109.281 60.7971 109.117 60.5336 109.029 60.1378L108.531 57.9022L108.055 58.0082L107.903 57.3266L108.379 57.2205L108.156 56.2163L108.999 56.0286L109.222 57.0328L110.204 56.8141L110.356 57.4958L109.374 57.7145ZM113.818 56.6326C113.918 56.4154 114.077 56.216 114.293 56.0346C114.509 55.8531 114.771 55.7281 115.079 55.6596C115.43 55.5812 115.77 55.5979 116.098 55.7096C116.429 55.8154 116.712 56.0061 116.948 56.2819C117.184 56.5576 117.347 56.8983 117.437 57.3039C117.528 57.7095 117.526 58.092 117.431 58.4515C117.336 58.8061 117.162 59.1065 116.909 59.3526C116.66 59.5927 116.359 59.7519 116.007 59.8303C115.699 59.8988 115.412 59.8987 115.145 59.8298C114.878 59.7561 114.647 59.6432 114.455 59.4913L115.013 61.9981L114.177 62.1841L112.85 56.225L113.686 56.0389L113.818 56.6326ZM116.587 57.4932C116.525 57.2147 116.413 56.9883 116.251 56.814C116.093 56.6338 115.907 56.5136 115.694 56.4534C115.484 56.3873 115.272 56.3781 115.057 56.426C114.847 56.4728 114.658 56.5712 114.492 56.7211C114.33 56.87 114.213 57.0601 114.142 57.2914C114.075 57.5217 114.073 57.7761 114.135 58.0546C114.197 58.3331 114.307 58.565 114.467 58.7501C114.63 58.9292 114.816 59.0518 115.025 59.118C115.24 59.183 115.452 59.1922 115.662 59.1454C115.877 59.0975 116.066 58.9992 116.228 58.8503C116.393 58.6955 116.509 58.5005 116.574 58.2654C116.645 58.0291 116.649 57.7717 116.587 57.4932ZM117.971 57.1851C117.881 56.7795 117.884 56.4018 117.98 56.0521C118.082 55.7012 118.257 55.4082 118.508 55.173C118.762 54.9318 119.065 54.772 119.416 54.6937C119.734 54.623 120.024 54.625 120.287 54.6998C120.554 54.7687 120.779 54.8802 120.962 55.0343L120.831 54.4479L121.674 54.2602L122.573 58.299L121.73 58.4867L121.597 57.8856C121.497 58.1078 121.34 58.3096 121.124 58.491C120.908 58.6725 120.643 58.798 120.33 58.8676C119.983 58.9449 119.646 58.9277 119.319 58.8159C118.99 58.6993 118.705 58.5013 118.463 58.2217C118.225 57.9362 118.061 57.5906 117.971 57.1851ZM121.28 56.4636C121.218 56.1851 121.105 55.9563 120.942 55.7772C120.784 55.5969 120.6 55.4738 120.391 55.4076C120.181 55.3414 119.969 55.3323 119.754 55.3802C119.539 55.428 119.35 55.5264 119.189 55.6753C119.026 55.8192 118.909 56.0069 118.837 56.2382C118.769 56.4636 118.766 56.7156 118.828 56.9941C118.89 57.2726 119.001 57.5044 119.16 57.6895C119.324 57.8736 119.512 58.0011 119.722 58.0721C119.937 58.1372 120.149 58.1463 120.359 58.0996C120.574 58.0517 120.763 57.9533 120.925 57.8045C121.086 57.6556 121.201 57.4661 121.267 57.2358C121.338 56.9996 121.342 56.7422 121.28 56.4636ZM125.137 57.7973C124.82 57.868 124.521 57.8755 124.242 57.8197C123.967 57.7579 123.734 57.6456 123.544 57.4828C123.353 57.3151 123.225 57.1101 123.161 56.868L124.026 56.6754C124.079 56.8432 124.191 56.9694 124.364 57.054C124.541 57.1327 124.741 57.147 124.966 57.0969C125.201 57.0447 125.372 56.9604 125.479 56.8442C125.59 56.722 125.63 56.59 125.599 56.4483C125.565 56.2968 125.467 56.2007 125.304 56.1601C125.146 56.1183 124.9 56.0883 124.568 56.07C124.247 56.0544 123.982 56.0287 123.774 55.9929C123.566 55.9572 123.373 55.8745 123.196 55.7448C123.023 55.614 122.907 55.4166 122.848 55.1528C122.8 54.9378 122.82 54.7281 122.908 54.5239C122.995 54.3148 123.144 54.1329 123.356 53.978C123.573 53.8221 123.835 53.7099 124.143 53.6413C124.602 53.539 124.997 53.5742 125.328 53.7467C125.662 53.9133 125.884 54.1947 125.993 54.5911L125.157 54.7771C125.102 54.5996 124.997 54.4717 124.841 54.3936C124.685 54.3155 124.495 54.3015 124.27 54.3515C124.05 54.4005 123.891 54.4795 123.792 54.5887C123.693 54.6979 123.659 54.8209 123.69 54.9577C123.714 55.0652 123.773 55.1469 123.867 55.2028C123.962 55.2587 124.07 55.2961 124.192 55.3151C124.313 55.3292 124.491 55.3435 124.725 55.358C125.036 55.3709 125.293 55.3983 125.497 55.44C125.705 55.4757 125.895 55.5566 126.067 55.6825C126.238 55.8084 126.355 56.0003 126.418 56.2582C126.469 56.4878 126.451 56.7072 126.364 56.9163C126.278 57.1254 126.128 57.3074 125.917 57.4622C125.71 57.616 125.45 57.7277 125.137 57.7973ZM129.039 56.9286C128.721 56.9994 128.423 57.0068 128.144 56.951C127.868 56.8892 127.635 56.7769 127.445 56.6141C127.254 56.4464 127.126 56.2415 127.062 55.9993L127.927 55.8067C127.98 55.9745 128.093 56.1007 128.265 56.1853C128.442 56.264 128.643 56.2783 128.867 56.2282C129.102 56.176 129.273 56.0918 129.38 55.9755C129.492 55.8533 129.531 55.7213 129.5 55.5796C129.466 55.4281 129.368 55.3321 129.205 55.2914C129.047 55.2497 128.802 55.2196 128.469 55.2013C128.148 55.1857 127.883 55.16 127.675 55.1243C127.467 55.0885 127.274 55.0058 127.097 54.8761C126.924 54.7453 126.808 54.548 126.75 54.2841C126.702 54.0691 126.722 53.8595 126.81 53.6553C126.896 53.4462 127.046 53.2642 127.257 53.1094C127.474 52.9534 127.736 52.8412 128.044 52.7726C128.503 52.6704 128.898 52.7055 129.229 52.878C129.564 53.0446 129.785 53.326 129.894 53.7224L129.059 53.9084C129.004 53.7309 128.898 53.6031 128.742 53.5249C128.586 53.4468 128.396 53.4328 128.171 53.4828C127.951 53.5318 127.792 53.6109 127.693 53.72C127.595 53.8292 127.56 53.9522 127.591 54.0891C127.615 54.1966 127.674 54.2783 127.769 54.3342C127.863 54.39 127.971 54.4275 128.094 54.4464C128.215 54.4605 128.392 54.4748 128.626 54.4894C128.937 54.5023 129.194 54.5296 129.398 54.5713C129.606 54.6071 129.796 54.6879 129.968 54.8138C130.14 54.9397 130.257 55.1316 130.319 55.3895C130.37 55.6192 130.353 55.8385 130.266 56.0476C130.179 56.2567 130.03 56.4387 129.818 56.5935C129.611 56.7473 129.351 56.859 129.039 56.9286ZM135.984 51.0739L135.63 55.3917L134.75 55.5876L133.273 52.7855L133.123 55.9499L132.244 56.1458L130.084 52.3877L130.934 52.1984L132.5 55.2579L132.634 51.8198L133.507 51.6256L135.047 54.6752L135.163 51.2567L135.984 51.0739ZM139.26 54.6527C138.879 54.7375 138.516 54.7287 138.17 54.6262C137.823 54.5189 137.526 54.3284 137.281 54.0548C137.034 53.7764 136.865 53.4295 136.772 53.0141C136.681 52.6036 136.69 52.2195 136.8 51.8616C136.91 51.5037 137.103 51.2044 137.377 50.9637C137.652 50.7231 137.982 50.5598 138.368 50.4738C138.754 50.3879 139.123 50.3956 139.474 50.497C139.824 50.5984 140.126 50.7877 140.377 51.0651C140.629 51.3425 140.8 51.6864 140.891 52.0969C140.983 52.5073 140.971 52.8921 140.856 53.251C140.741 53.61 140.542 53.9134 140.259 54.1611C139.979 54.4029 139.646 54.5667 139.26 54.6527ZM139.099 53.927C139.314 53.8791 139.503 53.7832 139.665 53.6392C139.833 53.4942 139.953 53.306 140.024 53.0746C140.096 52.8433 140.099 52.581 140.034 52.2878C139.969 51.9946 139.857 51.7604 139.7 51.5851C139.542 51.4048 139.359 51.2841 139.15 51.2228C138.942 51.1616 138.73 51.1549 138.515 51.2027C138.3 51.2506 138.111 51.3465 137.948 51.4905C137.79 51.6334 137.681 51.8194 137.619 52.0486C137.556 52.2729 137.557 52.5316 137.622 52.8248C137.719 53.2597 137.904 53.5724 138.177 53.7629C138.454 53.9474 138.761 54.0021 139.099 53.927ZM142.221 50.3007C142.297 50.0683 142.423 49.8736 142.598 49.7166C142.777 49.5536 143.006 49.4411 143.285 49.3791L143.477 50.244L143.265 50.2913C142.937 50.3642 142.707 50.5028 142.573 50.707C142.444 50.9101 142.425 51.2169 142.516 51.6274L142.989 53.7531L142.154 53.9391L141.254 49.9004L142.09 49.7143L142.221 50.3007ZM144.22 51.3402C144.13 50.9346 144.133 50.557 144.23 50.2072C144.331 49.8564 144.507 49.5634 144.757 49.3282C145.011 49.087 145.317 48.9267 145.673 48.8472C145.937 48.7885 146.209 48.7895 146.489 48.8501C146.773 48.9049 147.012 49.0107 147.206 49.1675L146.772 47.2178L147.615 47.0301L148.823 52.4542L147.98 52.6419L147.845 52.0335C147.751 52.2594 147.597 52.4631 147.38 52.6446C147.169 52.8249 146.907 52.9499 146.595 53.0196C146.243 53.0979 145.901 53.0818 145.568 52.9711C145.24 52.8545 144.955 52.6564 144.713 52.3769C144.475 52.0914 144.311 51.7458 144.22 51.3402ZM147.53 50.6188C147.467 50.3403 147.355 50.1115 147.192 49.9323C147.034 49.7521 146.85 49.6289 146.64 49.5628C146.431 49.4966 146.218 49.4875 146.003 49.5354C145.788 49.5832 145.6 49.6816 145.438 49.8304C145.276 49.9744 145.158 50.1621 145.087 50.3934C145.019 50.6188 145.016 50.8707 145.078 51.1493C145.14 51.4278 145.251 51.6596 145.41 51.8447C145.574 52.0287 145.761 52.1563 145.972 52.2273C146.187 52.2924 146.399 52.3015 146.609 52.2547C146.824 52.2069 147.012 52.1085 147.174 51.9596C147.336 51.8108 147.45 51.6212 147.517 51.391C147.587 51.1547 147.592 50.8974 147.53 50.6188Z" fill="black" fill-opacity="0.5"/>
<path opacity="0.9" d="M24.5885 74.938L24.8531 75.9167L23.2478 76.0906L24.5761 77.0087L23.8609 77.7616L22.8848 76.4885L22.7159 78.0979L21.731 77.8481L22.3281 76.3473L20.8578 77.0227L20.5748 75.9823L22.1693 75.8057L20.8463 74.9117L21.5615 74.1588L22.5697 75.44L22.752 73.8227L23.7477 74.0752L23.1157 75.5785L24.5885 74.938ZM29.9626 76.3011L30.2272 77.2798L28.622 77.4538L29.9502 78.3718L29.235 79.1248L28.259 77.8517L28.09 79.4611L27.1051 79.2112L27.7022 77.7105L26.2319 78.3858L25.9489 77.3455L27.5434 77.1688L26.2204 76.2749L26.9356 75.5219L27.9438 76.8032L28.1261 75.1858L29.1218 75.4383L28.4898 76.9417L29.9626 76.3011ZM35.3368 77.6643L35.6013 78.6429L33.9961 78.8169L35.3243 79.735L34.6091 80.4879L33.6331 79.2148L33.4641 80.8242L32.4792 80.5744L33.0764 79.0736L31.606 79.749L31.323 78.7086L32.9175 78.5319L31.5945 77.638L32.3097 76.8851L33.3179 78.1663L33.5002 76.5489L34.4959 76.8015L33.8639 78.3048L35.3368 77.6643ZM40.7109 79.0274L40.9754 80.0061L39.3702 80.1801L40.6984 81.0981L39.9832 81.8511L39.0072 80.578L38.8382 82.1873L37.8533 81.9375L38.4505 80.4367L36.9802 81.1121L36.6971 80.0718L38.2916 79.8951L36.9686 79.0012L37.6838 78.2482L38.692 79.5295L38.8743 77.9121L39.87 78.1646L39.238 79.668L40.7109 79.0274ZM46.085 80.3906L46.3495 81.3692L44.7443 81.5432L46.0725 82.4612L45.3574 83.2142L44.3813 81.9411L44.2124 83.5505L43.2274 83.3007L43.8246 81.7999L42.3543 82.4753L42.0712 81.4349L43.6657 81.2582L42.3428 80.3643L43.0579 79.6113L44.0661 80.8926L44.2485 79.2752L45.2441 79.5278L44.6121 81.0311L46.085 80.3906ZM51.4591 81.7537L51.7236 82.7324L50.1184 82.9063L51.4466 83.8244L50.7315 84.5773L49.7554 83.3042L49.5865 84.9136L48.6015 84.6638L49.1987 83.163L47.7284 83.8384L47.4453 82.7981L49.0398 82.6214L47.7169 81.7275L48.432 80.9745L49.4402 82.2557L49.6226 80.6384L50.6182 80.8909L49.9862 82.3942L51.4591 81.7537ZM56.8332 83.1168L57.0977 84.0955L55.4925 84.2695L56.8207 85.1875L56.1056 85.9405L55.1295 84.6674L54.9606 86.2768L53.9756 86.0269L54.5728 84.5262L53.1025 85.2015L52.8194 84.1612L54.4139 83.9845L53.091 83.0906L53.8061 82.3376L54.8143 83.6189L54.9967 82.0015L55.9923 82.2541L55.3603 83.7574L56.8332 83.1168ZM62.2073 84.48L62.4718 85.4587L60.8666 85.6326L62.1948 86.5507L61.4797 87.3036L60.5036 86.0305L60.3347 87.6399L59.3497 87.3901L59.9469 85.8893L58.4766 86.5647L58.1935 85.5243L59.788 85.3477L58.4651 84.4537L59.1802 83.7008L60.1884 84.982L60.3708 83.3647L61.3664 83.6172L60.7344 85.1205L62.2073 84.48ZM67.5814 85.8431L67.8459 86.8218L66.2407 86.9958L67.569 87.9138L66.8538 88.6668L65.8777 87.3937L65.7088 89.0031L64.7238 88.7532L65.321 87.2525L63.8507 87.9278L63.5676 86.8875L65.1621 86.7108L63.8392 85.8169L64.5544 85.0639L65.5625 86.3452L65.7449 84.7278L66.7406 84.9803L66.1085 86.4837L67.5814 85.8431Z" fill="#003A57"/>
<path d="M125.375 90.5421L83.6652 128.079C82.9306 128.74 81.7557 128.348 81.5653 127.378L69.6946 66.918C69.5029 65.9419 70.4549 65.1332 71.3871 65.4802L124.356 85.196C126.596 86.0297 127.151 88.9433 125.375 90.5421Z" fill="#FFC67F"/>
<path d="M128.359 88.7259L179.989 107.82C180.926 108.167 181.878 107.348 181.677 106.37L169.372 46.6837C169.171 45.7102 167.982 45.3323 167.256 46.0116L127.289 83.4195C125.561 85.0361 126.14 87.9053 128.359 88.7259Z" fill="#FFC67F"/>
<g filter="url(#filter1_d_1021_4009)">
<path d="M127.48 83.9311L178.66 107.303C179.78 107.815 179.594 109.459 178.389 109.707L84.9514 128.97C83.7407 129.219 82.921 127.771 83.7585 126.861L122.354 84.9649C123.66 83.548 125.728 83.1309 127.48 83.9311Z" fill="#FFB65A"/>
</g>
<g opacity="0.8">
<path fill-rule="evenodd" clip-rule="evenodd" d="M190.014 37.2938C188.782 36.8088 188.178 35.4175 188.663 34.1864C189.148 32.9552 190.539 32.3504 191.77 32.8355C193.001 33.3205 193.606 34.7118 193.121 35.9429C192.636 37.1741 191.245 37.7789 190.014 37.2938ZM194.708 41.7187C196.555 42.4463 198.642 41.5391 199.369 39.6924L199.809 38.5778C201.749 33.6532 199.33 28.0882 194.405 26.1479C189.48 24.2077 183.915 26.6269 181.975 31.5515C180.035 36.4761 182.454 42.0411 187.379 43.9814L190.5 45.211C191.115 45.4535 191.811 45.1511 192.053 44.5355C192.296 43.92 191.993 43.2243 191.378 42.9818L188.257 41.7522C184.564 40.297 182.749 36.1232 184.204 32.4298C185.66 28.7364 189.833 26.9219 193.527 28.3771C197.22 29.8323 199.035 34.0061 197.579 37.6995L197.14 38.8141C196.898 39.4297 196.202 39.7321 195.587 39.4895C194.971 39.247 194.669 38.5514 194.911 37.9358L196.668 33.4774C196.91 32.8619 196.608 32.1662 195.992 31.9237C195.54 31.7457 195.045 31.8613 194.718 32.1788C194.204 31.4961 193.502 30.9424 192.648 30.6063C190.186 29.6362 187.404 30.8458 186.433 33.3081C185.463 35.7704 186.673 38.5529 189.135 39.523C190.302 39.9826 191.54 39.953 192.623 39.5329C192.952 40.4971 193.686 41.3161 194.708 41.7187Z" fill="#003A57"/>
</g>
</g>
<defs>
<filter id="filter0_d_1021_4009" x="11.2926" y="16.6601" width="194.574" height="122.518" filterUnits="userSpaceOnUse" color-interpolation-filters="sRGB">
<feFlood flood-opacity="0" result="BackgroundImageFix"/>
<feColorMatrix in="SourceAlpha" type="matrix" values="0 0 0 0 0 0 0 0 0 0 0 0 0 0 0 0 0 0 127 0" result="hardAlpha"/>
<feOffset dx="-3.18129" dy="4.4538"/>
<feGaussianBlur stdDeviation="2.86316"/>
<feComposite in2="hardAlpha" operator="out"/>
<feColorMatrix type="matrix" values="0 0 0 0 0 0 0 0 0 0 0 0 0 0 0 0 0 0 0.15 0"/>
<feBlend mode="normal" in2="BackgroundImageFix" result="effect1_dropShadow_1021_4009"/>
<feBlend mode="normal" in="SourceGraphic" in2="effect1_dropShadow_1021_4009" result="shape"/>
</filter>
<filter id="filter1_d_1021_4009" x="79.5994" y="81.6195" width="101.078" height="50.5598" filterUnits="userSpaceOnUse" color-interpolation-filters="sRGB">
<feFlood flood-opacity="0" result="BackgroundImageFix"/>
<feColorMatrix in="SourceAlpha" type="matrix" values="0 0 0 0 0 0 0 0 0 0 0 0 0 0 0 0 0 0 127 0" result="hardAlpha"/>
<feOffset dx="-1.27252" dy="0.636258"/>
<feGaussianBlur stdDeviation="1.27252"/>
<feComposite in2="hardAlpha" operator="out"/>
<feColorMatrix type="matrix" values="0 0 0 0 0 0 0 0 0 0 0 0 0 0 0 0 0 0 0.25 0"/>
<feBlend mode="normal" in2="BackgroundImageFix" result="effect1_dropShadow_1021_4009"/>
<feBlend mode="normal" in="SourceGraphic" in2="effect1_dropShadow_1021_4009" result="shape"/>
</filter>
<linearGradient id="paint0_linear_1021_4009" x1="110.614" y1="16.3236" x2="140.68" y2="155.24" gradientUnits="userSpaceOnUse">
<stop stop-color="#EADCC9"/>
<stop offset="1" stop-color="#A59C90"/>
</linearGradient>
</defs>
</svg>
