<svg width="185" height="190" viewBox="0 0 185 190" fill="none" xmlns="http://www.w3.org/2000/svg">
<path d="M49.2757 20.6576C71.0594 13.9379 95.9525 17.2294 117.674 23.8509C138.659 30.2476 155.433 41.4435 165.019 55.9395C174.95 70.9568 178.775 88.0471 170.413 103.603C161.843 119.545 143.557 132.566 120.65 138.478C98.6892 144.145 74.9605 140.255 53.5983 133.748C33.0162 127.478 14.4426 117.828 5.60858 103.435C-3.26281 88.9799 -0.731661 72.7856 7.08701 57.9642C15.2282 42.5315 27.6953 27.3146 49.2757 20.6576Z" fill="#C57F12" fill-opacity="0.08"/>
<g filter="url(#filter0_d_724_17940)">
<path d="M40.5696 79.5938L32.3962 70.2999C30.1864 68.0901 29.4274 67.0265 29.8714 66.6392C30.46 66.1229 30.207 66.2933 34.7971 69.7372C34.7971 69.7372 28.2915 64.765 30.5478 64.734C30.9454 64.734 32.0503 65.3742 33.2327 66.1487C31.6218 64.7804 31.1674 63.8562 31.4823 63.4173C31.9987 62.6532 35.9847 65.4155 37.8176 66.7425C36.3203 65.6272 33.465 63.4638 32.9642 62.7823C32.2723 61.8529 33.6716 61.9303 34.8075 62.3176C36.0828 62.7513 43.1306 66.3501 45.2166 67.2794C45.3838 67.3792 45.5707 67.4416 45.7644 67.4622C45.958 67.4829 46.1539 67.4613 46.3384 67.399C46.5229 67.3366 46.6917 67.2351 46.8332 67.1012C46.9747 66.9674 47.0855 66.8045 47.158 66.6237C47.9273 63.3915 50.2559 61.2901 51.144 61.0164C52.0321 60.7428 52.7188 61.8787 52.0837 62.7048C51.4862 63.666 51.0241 64.705 50.7103 65.7924C50.4226 66.6455 50.2812 67.541 50.292 68.4412C50.292 69.4738 50.3643 70.3671 50.4314 71.1157L57.9027 81.3648L45.4076 88.5933L40.5696 79.5938Z" fill="#E6EBEE"/>
<path d="M40.5696 79.5938L32.3962 70.2999C30.1864 68.0901 29.4274 67.0265 29.8714 66.6392C30.46 66.1229 30.207 66.2933 34.7971 69.7372C34.7971 69.7372 28.2915 64.765 30.5478 64.734C30.9454 64.734 32.0503 65.3742 33.2327 66.1487C31.6218 64.7804 31.1674 63.8562 31.4823 63.4173C31.9987 62.6532 35.9847 65.4155 37.8176 66.7425C36.3203 65.6272 33.465 63.4638 32.9642 62.7823C32.2723 61.8529 33.6716 61.9303 34.8075 62.3176C36.0828 62.7513 43.1306 66.3501 45.2166 67.2794C45.3838 67.3792 45.5707 67.4416 45.7644 67.4622C45.958 67.4829 46.1539 67.4613 46.3384 67.399C46.5229 67.3366 46.6917 67.2351 46.8332 67.1012C46.9747 66.9674 47.0855 66.8045 47.158 66.6237C47.9273 63.3915 50.2559 61.2901 51.144 61.0164C52.0321 60.7428 52.7188 61.8787 52.0837 62.7048C51.4862 63.666 51.0241 64.705 50.7103 65.7924C50.4226 66.6455 50.2812 67.541 50.292 68.4412C50.292 69.4738 50.3643 70.3671 50.4314 71.1157L57.9027 81.3648L45.4076 88.5933L40.5696 79.5938Z" fill="#FFE7C9" style="mix-blend-mode:multiply"/>
<path d="M37.6473 71.1822C37.5647 71.2958 36.0983 70.2993 34.4048 68.9517C32.7112 67.6041 31.3894 66.4165 31.4875 66.3081C31.5857 66.1997 33.0365 67.2013 34.7301 68.5386C36.4236 69.8759 37.7196 71.0634 37.6473 71.1822Z" fill="#E6EBEE"/>
<path d="M37.6473 71.1822C37.5647 71.2958 36.0983 70.2993 34.4048 68.9517C32.7112 67.6041 31.3894 66.4165 31.4875 66.3081C31.5857 66.1997 33.0365 67.2013 34.7301 68.5386C36.4236 69.8759 37.7196 71.0634 37.6473 71.1822Z" fill="#FFE7C9" style="mix-blend-mode:multiply"/>
<path d="M39.2267 69.5505C39.1441 69.6693 37.5383 68.6883 35.6383 67.3665C33.7382 66.0447 32.2615 64.8726 32.3441 64.759C32.4267 64.6454 34.0325 65.6161 35.9326 66.9379C37.8326 68.2597 39.3093 69.4318 39.2267 69.5505Z" fill="#E6EBEE"/>
<path d="M39.2267 69.5505C39.1441 69.6693 37.5383 68.6883 35.6383 67.3665C33.7382 66.0447 32.2615 64.8726 32.3441 64.759C32.4267 64.6454 34.0325 65.6161 35.9326 66.9379C37.8326 68.2597 39.3093 69.4318 39.2267 69.5505Z" fill="#FFE7C9" style="mix-blend-mode:multiply"/>
<path d="M40.3825 67.8159C40.2999 67.9346 38.7612 67.0362 36.9489 65.8073C35.1366 64.5785 33.7322 63.489 33.8097 63.3651C33.8871 63.2412 35.4258 64.1448 37.2433 65.3736C39.0607 66.6025 40.4599 67.6971 40.3825 67.8159Z" fill="#E6EBEE"/>
<path d="M40.3825 67.8159C40.2999 67.9346 38.7612 67.0362 36.9489 65.8073C35.1366 64.5785 33.7322 63.489 33.8097 63.3651C33.8871 63.2412 35.4258 64.1448 37.2433 65.3736C39.0607 66.6025 40.4599 67.6971 40.3825 67.8159Z" fill="#FFE7C9" style="mix-blend-mode:multiply"/>
<path d="M51.1301 72.5037L80.9117 110.268L74.0911 126.145C74.0911 126.145 65.9228 124.337 63.4445 120.899C60.9661 117.46 40.5713 79.5928 40.5713 79.5928L51.1301 72.5037Z" fill="#007D5A" fill-opacity="0.08"/>
<path d="M126.728 19.6738C128.87 21.5326 128.865 24.8061 128.617 27.6304C128.37 30.4547 128.179 33.6714 130.135 35.7264C131.752 37.4199 134.679 38.1582 135.051 40.4662C135.139 41.0085 135.057 41.5647 134.816 42.0585C134.575 42.5522 134.187 42.9592 133.705 43.2235C133.224 43.4878 132.672 43.5965 132.126 43.5345C131.58 43.4725 131.067 43.243 130.657 42.8774C131.287 44.7001 130.853 46.9771 129.273 48.082C127.693 49.1869 125.045 48.5054 124.554 46.6415C124.634 46.9526 124.65 47.277 124.599 47.5944C124.548 47.9117 124.433 48.2152 124.26 48.486C124.086 48.7567 123.859 48.9888 123.592 49.1679C123.326 49.347 123.025 49.4691 122.708 49.5267C122.392 49.5843 122.068 49.5762 121.755 49.5028C121.442 49.4293 121.148 49.2922 120.89 49.1C120.633 48.9077 120.417 48.6645 120.258 48.3854C120.099 48.1063 119.999 47.7974 119.964 47.4779" fill="#263238"/>
<path d="M96.0436 38.7364C95.7553 39.4279 95.2041 39.9766 94.5113 40.2618C93.8185 40.547 93.0408 40.5452 92.3493 40.257C91.6577 39.9687 91.109 39.4176 90.8239 38.7247C90.5387 38.0319 90.5404 37.2542 90.8287 36.5627C91.3192 35.4887 92.4809 34.7142 92.5945 33.537C92.7288 32.1171 91.2779 31.1 90.0129 30.4804C88.7479 29.8608 87.2196 29.0553 87.0802 27.6303C86.9408 26.2052 88.1748 25.1881 89.2023 24.269C90.2298 23.3499 91.2676 21.9249 90.6118 20.7012C90.2865 20.0713 89.6102 19.715 89.1713 19.1522C88.2058 17.9234 88.7118 15.9665 89.9458 15.0216C91.1798 14.0768 92.8837 13.927 94.4223 14.2007C95.9609 14.4743 97.4067 15.1146 98.904 15.5638C101.386 16.2855 103.991 16.4847 106.554 16.1488C109.117 15.8129 111.583 14.9491 113.795 13.6121" fill="#263238"/>
<path d="M105.186 72.0351C107.854 72.5734 110.626 72.0414 112.905 70.5538C115.183 69.0662 116.786 66.7424 117.366 64.0837L124.693 30.4916C125.15 28.5519 125.214 26.5402 124.88 24.5754C124.547 22.6106 123.822 20.7327 122.75 19.0527C121.678 17.3727 120.28 15.9247 118.639 14.7944C116.997 13.6641 115.146 12.8743 113.194 12.4719L112.43 12.3583C108.698 11.8096 104.895 12.6872 101.781 14.8162C98.666 16.9452 96.4678 20.1694 95.6238 23.8465C93.9922 30.9357 92.2832 38.789 91.7668 42.6459C90.698 50.6334 98.4791 53.0395 98.4791 53.0395L97.0798 59.7517C96.8024 61.0891 96.7919 62.4681 97.0491 63.8095C97.3062 65.1509 97.8258 66.4283 98.5781 67.5683C99.3304 68.7082 100.301 69.6883 101.433 70.4522C102.565 71.2161 103.837 71.7488 105.176 72.0196L105.186 72.0351Z" fill="#E6EBEE"/>
<path d="M105.186 72.0351C107.854 72.5734 110.626 72.0414 112.905 70.5538C115.183 69.0662 116.786 66.7424 117.366 64.0837L124.693 30.4916C125.15 28.5519 125.214 26.5402 124.88 24.5754C124.547 22.6106 123.822 20.7327 122.75 19.0527C121.678 17.3727 120.28 15.9247 118.639 14.7944C116.997 13.6641 115.146 12.8743 113.194 12.4719L112.43 12.3583C108.698 11.8096 104.895 12.6872 101.781 14.8162C98.666 16.9452 96.4678 20.1694 95.6238 23.8465C93.9922 30.9357 92.2832 38.789 91.7668 42.6459C90.698 50.6334 98.4791 53.0395 98.4791 53.0395L97.0798 59.7517C96.8024 61.0891 96.7919 62.4681 97.0491 63.8095C97.3062 65.1509 97.8258 66.4283 98.5781 67.5683C99.3304 68.7082 100.301 69.6883 101.433 70.4522C102.565 71.2161 103.837 71.7488 105.176 72.0196L105.186 72.0351Z" fill="#FFE7C9" style="mix-blend-mode:multiply"/>
<path d="M97.0602 29.1341C97.0148 29.4306 97.0864 29.733 97.2598 29.9777C97.4332 30.2224 97.6948 30.3901 97.9895 30.4456C98.1324 30.4781 98.2803 30.4818 98.4245 30.4564C98.5688 30.431 98.7066 30.3771 98.8297 30.2977C98.9528 30.2183 99.0588 30.1152 99.1415 29.9943C99.2243 29.8734 99.282 29.7372 99.3113 29.5937C99.3595 29.2976 99.2897 28.9945 99.1169 28.7493C98.9441 28.5041 98.6821 28.3364 98.3871 28.2822C98.244 28.2496 98.0958 28.2459 97.9512 28.2712C97.8066 28.2966 97.6685 28.3505 97.5449 28.4298C97.4214 28.5091 97.3149 28.6122 97.2316 28.7332C97.1484 28.8541 97.0901 28.9904 97.0602 29.1341Z" fill="#263238"/>
<path d="M96.7667 27.9975C96.8854 28.1679 97.8407 27.6516 99.0695 27.8374C100.298 28.0233 101.099 28.7617 101.254 28.6326C101.331 28.5758 101.223 28.2866 100.877 27.9459C100.4 27.5009 99.7979 27.2141 99.1521 27.1249C98.5153 27.0288 97.8645 27.1372 97.2934 27.4347C96.8751 27.6722 96.7099 27.92 96.7667 27.9975Z" fill="#263238"/>
<path d="M109.034 31.0953C108.987 31.3919 109.058 31.6951 109.232 31.9401C109.405 32.1851 109.668 32.3525 109.963 32.4068C110.106 32.4393 110.254 32.4428 110.399 32.417C110.543 32.3913 110.681 32.3369 110.805 32.257C110.928 32.1771 111.034 32.0734 111.116 31.9519C111.199 31.8304 111.256 31.6937 111.285 31.5497C111.331 31.2537 111.26 30.9512 111.086 30.707C110.913 30.4629 110.65 30.2964 110.355 30.2434C110.212 30.2101 110.064 30.2059 109.92 30.231C109.775 30.256 109.637 30.3099 109.514 30.3894C109.391 30.4689 109.285 30.5723 109.202 30.6936C109.12 30.8148 109.062 30.9515 109.034 31.0953Z" fill="#263238"/>
<path d="M108.775 29.9902C108.894 30.1554 109.849 29.6442 111.073 29.8301C112.297 30.016 113.107 30.7543 113.262 30.6252C113.335 30.5685 113.231 30.2793 112.88 29.9385C112.404 29.4935 111.801 29.2068 111.156 29.1176C110.519 29.0214 109.868 29.1299 109.297 29.4274C108.899 29.6494 108.713 29.9127 108.775 29.9902Z" fill="#263238"/>
<path d="M102.999 38.4274C102.999 38.3551 102.271 38.1125 101.062 37.7768C100.753 37.6994 100.469 37.591 100.448 37.3689C100.469 37.0437 100.588 36.7324 100.789 36.4757C101.198 35.7632 101.623 35.0145 102.064 34.2297C103.845 31.0233 105.162 28.3746 105.054 28.3023C104.945 28.23 103.376 30.7703 101.594 33.9819L100.355 36.2434C100.105 36.5944 99.9843 37.0215 100.014 37.4516C100.046 37.5656 100.103 37.6712 100.18 37.7605C100.258 37.8498 100.355 37.9207 100.463 37.9679C100.629 38.0387 100.802 38.089 100.98 38.1176C101.637 38.3043 102.315 38.4084 102.999 38.4274Z" fill="#263238"/>
<path d="M109.158 25.1412C109.23 25.4923 110.48 25.5129 111.889 25.895C113.299 26.2771 114.404 26.8399 114.641 26.5714C114.744 26.4423 114.59 26.0964 114.171 25.7091C113.604 25.2217 112.933 24.8701 112.209 24.6813C111.485 24.4925 110.728 24.4714 109.994 24.6197C109.416 24.7539 109.132 25.0018 109.158 25.1412Z" fill="#263238"/>
<path d="M97.7359 24.5174C97.9114 24.8272 98.7685 24.662 99.8011 24.7963C100.834 24.9305 101.65 25.261 101.866 24.9976C101.975 24.8685 101.866 24.5691 101.546 24.249C101.088 23.8594 100.524 23.6151 99.9264 23.547C99.3288 23.479 98.7244 23.5903 98.1902 23.8669C97.8185 24.0992 97.6584 24.3677 97.7359 24.5174Z" fill="#263238"/>
<path d="M117.322 20.48L117.358 20.5214C118.483 21.7085 119.105 23.285 119.093 24.9204V25.0805C119.093 27.4039 118.675 29.7274 118.68 32.0251C118.685 34.3227 119.129 36.7701 120.58 38.5772C121.174 39.3259 122.331 39.9455 123.007 39.2743C123.245 38.9887 123.397 38.6413 123.446 38.2726C124.675 32.846 126.885 28.1991 127.716 22.4576C127.831 21.689 127.761 20.904 127.513 20.1677C127.264 19.4314 126.843 18.765 126.286 18.2237C125.212 17.1911 123.874 16.0758 122.444 16.5147C121.014 16.9535 118.923 19.1996 117.73 20.1289" fill="#263238"/>
<path d="M121.478 33.7027C121.622 33.6614 127.193 32.8817 126.217 38.3083C125.242 43.7349 120.021 41.6386 120.021 41.4785C120.021 41.3185 121.478 33.7027 121.478 33.7027Z" fill="#E6EBEE"/>
<path d="M121.478 33.7027C121.622 33.6614 127.193 32.8817 126.217 38.3083C125.242 43.7349 120.021 41.6386 120.021 41.4785C120.021 41.3185 121.478 33.7027 121.478 33.7027Z" fill="#FFE7C9" style="mix-blend-mode:multiply"/>
<path d="M122.043 39.7238C122.043 39.7238 122.126 39.8064 122.271 39.9045C122.479 40.0424 122.732 40.0942 122.978 40.0491C123.587 39.9407 124.233 39.1197 124.434 38.1439C124.538 37.6832 124.538 37.2053 124.434 36.7446C124.413 36.5661 124.348 36.3954 124.247 36.2471C124.145 36.0987 124.009 35.9772 123.851 35.8927C123.747 35.844 123.63 35.8333 123.519 35.8626C123.409 35.8918 123.312 35.9592 123.247 36.0528C123.148 36.187 123.164 36.3058 123.133 36.3058C123.102 36.3058 123.035 36.1973 123.133 35.9805C123.187 35.8519 123.283 35.746 123.407 35.681C123.576 35.5946 123.772 35.578 123.954 35.6345C124.17 35.7206 124.361 35.8607 124.507 36.0416C124.654 36.2224 124.751 36.4378 124.79 36.6672C124.934 37.1714 124.953 37.7028 124.847 38.2162C124.615 39.3056 123.871 40.2247 123.05 40.3124C122.897 40.3287 122.741 40.3102 122.595 40.2584C122.45 40.2066 122.318 40.1227 122.209 40.013C122.028 39.8529 122.023 39.729 122.043 39.7238Z" fill="#263238"/>
<path d="M122.505 17.3875C124.168 15.3997 120.956 11.7338 118.375 10.4894C115.793 9.24509 112.076 10.0402 109.267 10.5359C107.496 10.8509 105.699 11.3878 103.933 11.0522C102.761 10.759 101.64 10.2907 100.608 9.66331C99.573 9.04716 98.4248 8.64509 97.2314 8.48093C96.6311 8.40709 96.0221 8.49836 95.4698 8.74492C94.9176 8.99147 94.443 9.38398 94.0973 9.88017C93.4828 10.9128 93.9114 12.5289 95.068 12.8645C94.7194 12.5999 94.3118 12.4238 93.8803 12.3513C93.4487 12.2788 93.006 12.3121 92.5901 12.4483C92.1742 12.5845 91.7975 12.8196 91.4924 13.1333C91.1873 13.4471 90.9629 13.8301 90.8384 14.2497C90.7139 14.6692 90.693 15.1127 90.7775 15.5421C90.862 15.9714 91.0495 16.3739 91.3237 16.715C91.5979 17.056 91.9508 17.3254 92.3521 17.5001C92.7533 17.6748 93.1909 17.7496 93.6274 17.718C92.9407 17.0158 91.6086 17.8161 91.5621 18.7971C91.5157 19.7781 92.2901 20.6094 93.1111 21.1309C95.2332 22.463 97.9284 22.5301 100.396 22.0861C102.864 21.642 105.229 20.723 107.687 20.217C110.145 19.711 114.27 18.7506 116.49 19.9227C118.122 20.7798 119.02 23.0206 120.058 22.716C120.549 22.535 120.992 22.2419 121.35 21.8601C121.709 21.4783 121.974 21.0183 122.123 20.5165C122.403 19.5088 122.52 18.463 122.469 17.4185" fill="#263238"/>
<path d="M133.124 42.558C133.226 42.5347 133.322 42.4927 133.408 42.434C133.663 42.27 133.867 42.0374 133.997 41.7628C134.197 41.3235 134.258 40.8335 134.172 40.3584C134.038 39.7336 133.696 39.1729 133.201 38.7681C132.615 38.2851 131.954 37.8998 131.245 37.6271C130.447 37.3361 129.681 36.9659 128.957 36.5221C128.199 35.9893 127.621 35.2384 127.3 34.3691C126.947 33.433 126.784 32.4361 126.82 31.4363C126.871 29.371 127.444 27.4348 127.584 25.6122C127.723 23.7896 127.491 22.0805 126.716 20.8982C126.134 19.9472 125.211 19.2546 124.135 18.9619C123.846 18.8893 123.549 18.8597 123.252 18.8742C123.149 18.8758 123.046 18.8914 122.947 18.9206C123.339 18.9181 123.73 18.9667 124.109 19.0652C125.132 19.3886 126 20.078 126.546 21.0014C127.264 22.1477 127.512 23.8102 127.331 25.5915C127.15 27.3729 126.598 29.3091 126.536 31.4312C126.503 32.4675 126.678 33.4999 127.052 34.4672C127.397 35.3856 128.015 36.1765 128.823 36.7338C129.564 37.1788 130.348 37.5489 131.162 37.8388C131.853 38.0948 132.499 38.4572 133.078 38.9127C133.549 39.2859 133.883 39.8054 134.028 40.3894C134.122 40.8341 134.079 41.2968 133.904 41.7164C133.744 42.0754 133.47 42.3714 133.124 42.558Z" fill="#455A64"/>
<path d="M94.8932 12.7351C94.8207 12.6807 94.7407 12.6373 94.6557 12.606C94.5592 12.5584 94.4591 12.5187 94.3562 12.4872C94.2134 12.4383 94.0665 12.402 93.9173 12.3788C93.4276 12.3015 92.9268 12.3367 92.4527 12.4816C91.9786 12.6265 91.5436 12.8774 91.1808 13.2152C90.8132 13.663 90.5382 14.1792 90.3716 14.7341C90.2049 15.2889 90.1501 15.8712 90.2101 16.4474C90.2795 17.1631 90.4916 17.8576 90.8339 18.4899C91.1762 19.1222 91.6418 19.6795 92.2031 20.1288C93.4936 21.1684 95.0648 21.7994 96.7158 21.9411C98.5086 22.0953 100.314 21.9857 102.075 21.6158C104.868 21.0688 107.542 20.0341 109.975 18.5592C111.018 17.914 112.109 17.3496 113.238 16.8708C114.223 16.4711 115.273 16.2558 116.336 16.2357C117.883 16.2023 119.413 16.5573 120.787 17.2684C121.283 17.5463 121.764 17.8514 122.227 18.1823C121.814 17.7761 121.347 17.4286 120.838 17.1496C119.461 16.3821 117.908 15.9854 116.331 15.9982C115.242 16.0065 114.164 16.2148 113.15 16.6127C112.009 17.0908 110.906 17.6553 109.851 18.301C107.435 19.7454 104.786 20.7603 102.024 21.3009C100.289 21.6683 98.5093 21.7814 96.7416 21.6365C95.1412 21.5037 93.6159 20.9001 92.358 19.9016C91.817 19.474 91.3667 18.9427 91.0333 18.339C90.7 17.7353 90.4904 17.0712 90.4167 16.3855C90.3536 15.8361 90.3996 15.2796 90.552 14.748C90.7044 14.2164 90.9602 13.7201 91.3047 13.2875C91.6489 12.9589 92.062 12.7111 92.5139 12.5619C92.9657 12.4128 93.4452 12.3661 93.9173 12.4253C94.2514 12.4984 94.5781 12.6021 94.8932 12.7351Z" fill="#455A64"/>
<path d="M97.9113 8.2168C97.8927 8.63167 97.9577 9.04606 98.1024 9.43532C98.5052 10.5112 99.2581 11.4205 100.24 12.0169C100.9 12.4468 101.633 12.7514 102.403 12.9153C103.287 13.0933 104.191 13.1403 105.088 13.0548C106.983 12.9153 108.966 12.2648 111.047 11.7278C113.127 11.1908 115.208 10.9068 117.005 11.387C118.6 11.8095 120.018 12.7303 121.053 14.0151C121.765 14.8685 122.292 15.86 122.602 16.9272C122.808 17.6862 122.834 18.1302 122.87 18.1251C122.877 18.0185 122.877 17.9115 122.87 17.8049C122.842 17.5006 122.792 17.1986 122.721 16.9014C122.445 15.8005 121.932 14.7731 121.218 13.8912C120.173 12.5536 118.725 11.5886 117.088 11.1392C115.229 10.6229 113.091 10.9172 111 11.4593C108.909 12.0015 106.942 12.652 105.088 12.8018C104.215 12.8921 103.333 12.8556 102.47 12.6933C101.724 12.5415 101.011 12.2583 100.364 11.8569C99.4065 11.2924 98.6569 10.4341 98.2263 9.4095C98.0881 9.02146 97.9827 8.62249 97.9113 8.2168Z" fill="#455A64"/>
<path d="M101.052 44.6484C101.507 44.8234 101.99 44.9143 102.478 44.9169C102.982 44.8872 103.457 44.6699 103.81 44.3076C104.018 44.086 104.176 43.8228 104.275 43.5353C104.374 43.2478 104.411 42.9426 104.383 42.6399C104.367 42.4847 104.333 42.3321 104.28 42.1855C104.212 42.0461 104.233 42.0564 104.114 42.0409C103.996 42.0254 103.81 42.0409 103.655 42.0668L103.175 42.1029C102.555 42.1494 101.997 42.1855 101.527 42.2113C101.013 42.2829 100.49 42.2725 99.9785 42.1803C100.461 42.0041 100.968 41.8997 101.481 41.8705C101.946 41.8034 102.514 41.7363 103.118 41.664L103.593 41.6124C103.764 41.5873 103.936 41.5718 104.109 41.5659C104.246 41.5696 104.378 41.6166 104.486 41.7002C104.582 41.7854 104.655 41.8938 104.698 42.0151C104.768 42.2011 104.813 42.3955 104.832 42.5934C104.866 42.9651 104.817 43.3397 104.69 43.6905C104.562 44.0413 104.359 44.3595 104.094 44.6226C103.653 45.0416 103.065 45.2698 102.457 45.2576C102.06 45.2593 101.67 45.1502 101.331 44.9427C101.156 44.7981 101.037 44.669 101.052 44.6484Z" fill="#263238"/>
<path d="M98.4902 53.0383C98.4902 53.0383 103.695 55.0107 108.76 53.5547C108.76 53.5547 104.939 56.761 97.9688 55.5322L98.4902 53.0383Z" fill="#E6EBEE"/>
<path d="M98.4902 53.0383C98.4902 53.0383 103.695 55.0107 108.76 53.5547C108.76 53.5547 104.939 56.761 97.9688 55.5322L98.4902 53.0383Z" fill="#FFE7C9" style="mix-blend-mode:multiply"/>
<path d="M106.433 127.064C106.182 126.9 105.943 126.717 105.72 126.517C105.498 126.336 105.204 126.114 104.889 125.877C104.574 125.639 104.192 125.36 103.753 125.076C103.314 124.792 102.86 124.482 102.328 124.188C101.796 123.894 101.233 123.584 100.629 123.274C97.9802 121.971 95.1322 121.119 92.2027 120.755C91.5263 120.682 90.886 120.6 90.2819 120.584C89.6778 120.569 89.115 120.543 88.6039 120.548C88.0927 120.553 87.6229 120.579 87.215 120.595C86.8071 120.61 86.456 120.641 86.1823 120.672C85.8868 120.717 85.588 120.738 85.2891 120.734C85.5794 120.659 85.8744 120.604 86.172 120.569C86.5139 120.51 86.8586 120.469 87.2046 120.445C87.6125 120.414 88.0772 120.357 88.5987 120.357C89.1202 120.357 89.683 120.326 90.2922 120.357C90.9015 120.388 91.5521 120.44 92.2336 120.502C93.7111 120.685 95.1717 120.986 96.6017 121.4C98.021 121.836 99.4024 122.387 100.732 123.047C101.336 123.367 101.92 123.662 102.431 123.992C102.942 124.322 103.428 124.617 103.851 124.916C104.274 125.216 104.646 125.505 104.971 125.753C105.297 126 105.565 126.238 105.777 126.434C106.013 126.625 106.232 126.836 106.433 127.064Z" fill="#FAFAFA"/>
<path d="M76.0843 100.547L80.3181 82.2019C81.9394 75.3038 83.8601 68.6742 87.0872 67.8894V70.0218L85.7034 122.434C85.7034 122.434 77.0756 132.244 66.0831 126.802C62.6444 125.093 56.371 113.088 56.371 113.088C56.371 113.088 41.7745 87.045 42.3838 85.8627C42.9931 84.6803 51.91 73.1869 52.8187 72.6138L76.0843 100.547Z" fill="#007D5A" fill-opacity="0.08"/>
<path d="M119.657 62.6936C128.073 64.3046 137.547 69.2148 141.91 81.7976C143.501 86.3929 155.087 120.269 155.087 120.269L135.327 119.856L132.136 112.88L133.685 124.214L135.071 141.216H85.125L85.4761 116.866L85.9563 68.4352C85.9563 68.4352 86.5139 67.702 95.121 62.957C100.46 60.0087 119.657 62.6936 119.657 62.6936Z" fill="#007D5A" fill-opacity="0.08"/>
<g opacity="0.2">
<path opacity="0.2" d="M124.632 95.0881C125.453 105.311 126.393 108.471 127.214 118.694C127.233 119.663 127.407 120.621 127.73 121.534C127.902 121.988 128.179 122.395 128.538 122.723C128.897 123.05 129.327 123.289 129.795 123.419C131.251 123.713 133.141 124.766 133.549 123.341L132.17 113.495C131.874 112.063 131.417 110.668 130.807 109.339C127.745 102.539 126.615 102.141 124.611 95.0881" fill="#007D5A"/>
</g>
<path opacity="0.2" d="M95.1113 68.1983L95.2766 67.1347L96.872 56.9321C96.918 56.6356 97.0745 56.3674 97.3102 56.1816C97.5458 55.9958 97.843 55.906 98.1422 55.9305L117.788 57.5724C118.382 57.6211 118.932 57.9025 119.319 58.3551C119.706 58.8078 119.898 59.395 119.854 59.9888L119.415 65.9162L113.281 73.9192L104.446 75.2978" fill="#006B4D"/>
<path d="M85.2485 87.3804C85.326 87.3804 85.3828 95.3731 85.3828 105.23C85.3828 115.086 85.326 123.079 85.2485 123.079C85.1711 123.079 85.1143 115.086 85.1143 105.23C85.1143 95.3731 85.1762 87.3804 85.2485 87.3804Z" fill="#263238"/>
<path d="M135.748 121.498C135.748 121.498 135.748 121.462 135.686 121.385C135.624 121.307 135.588 121.178 135.521 121.034L134.922 119.676L132.769 114.662L125.752 98.0829C124.389 94.8404 123.093 91.7528 121.916 88.9388C121.321 87.6207 120.894 86.233 120.645 84.8082C120.428 83.5635 120.314 82.3027 120.305 81.0391C120.239 79.2079 120.505 77.38 121.089 75.6435L121.25 75.2149L121.43 74.8535C121.515 74.6612 121.619 74.4779 121.74 74.3062L121.957 73.9861C121.982 73.9497 122.01 73.9152 122.04 73.8828C121.7 74.4538 121.415 75.0553 121.188 75.6796C120.647 77.4123 120.413 79.2259 120.496 81.0391C120.505 83.7317 121.065 86.3939 122.143 88.8614L126 97.9952L132.944 114.605L135.01 119.65L135.562 121.028L135.701 121.39C135.72 121.424 135.736 121.461 135.748 121.498Z" fill="#263238"/>
<path d="M125.779 64.4954C125.598 64.6787 125.407 64.8511 125.206 65.0117C124.625 65.4544 123.992 65.8238 123.321 66.1115C122.258 66.555 121.145 66.8672 120.006 67.0409C118.501 67.2747 116.984 67.4246 115.462 67.4901C113.769 67.5623 111.92 67.5314 109.938 67.5675C107.832 67.5639 105.733 67.8206 103.69 68.3317C101.427 68.8665 99.3782 70.0744 97.8145 71.7962C97.0354 72.7339 96.4777 73.8351 96.1829 75.0181C95.8677 76.2314 95.8891 77.5077 96.2449 78.7098C96.4423 79.303 96.7334 79.8608 97.1071 80.362C97.4834 80.8485 97.9585 81.2497 98.5012 81.5392C99.0277 81.8275 99.6278 81.9533 100.226 81.9007C100.811 81.8406 101.352 81.5644 101.744 81.1262C102.093 80.6652 102.341 80.1361 102.473 79.5731C102.604 79.0101 102.616 78.4258 102.508 77.8578C102.422 77.2969 102.248 76.7532 101.992 76.2469C101.737 75.753 101.43 75.2874 101.078 74.858C99.6976 73.2674 97.8387 72.1677 95.7802 71.7239C93.9966 71.3032 92.1374 71.3244 90.3639 71.7859C88.9052 72.1632 87.5124 72.7604 86.2333 73.5569C85.2594 74.1642 84.3403 74.8552 83.4865 75.6222C82.7791 76.2418 82.2783 76.7787 81.9375 77.1298L81.5554 77.5429C81.5137 77.5923 81.4669 77.6372 81.416 77.6771C82.0239 76.909 82.6976 76.1955 83.4297 75.5447C84.275 74.7627 85.1911 74.0609 86.1662 73.4484C87.4576 72.6269 88.8684 72.0104 90.3484 71.6206C92.151 71.1371 94.0449 71.1052 95.8628 71.5277C97.9745 71.9732 99.8834 73.0953 101.3 74.7237C101.66 75.1546 101.975 75.6218 102.239 76.1178C102.5 76.6497 102.674 77.2196 102.756 77.8062C102.846 78.4044 102.836 79.0135 102.725 79.6082C102.613 80.2272 102.341 80.806 101.935 81.2862C101.501 81.7734 100.9 82.0809 100.252 82.1485C99.6004 82.2104 98.9457 82.0755 98.3721 81.7613C97.7958 81.4535 97.2909 81.0278 96.8903 80.5118C96.4962 79.986 96.1893 79.4002 95.9815 78.7769C95.6105 77.5279 95.5891 76.201 95.9196 74.9406C96.2208 73.7162 96.7984 72.577 97.608 71.6103C99.2098 69.8535 101.304 68.6208 103.618 68.0735C105.684 67.5684 107.805 67.3221 109.933 67.3403C111.92 67.3093 113.769 67.3403 115.452 67.2938C116.968 67.241 118.48 67.1048 119.98 66.8859C121.112 66.7234 122.221 66.4288 123.285 66.0082C123.952 65.7373 124.586 65.3908 125.175 64.9756C125.381 64.8361 125.52 64.7071 125.624 64.6348C125.671 64.5834 125.723 64.5367 125.779 64.4954Z" fill="#FAFAFA"/>
<path d="M142.853 85.9851C142.781 86.0055 142.706 86.0176 142.631 86.0213C142.487 86.0213 142.275 86.0574 141.996 86.0677C141.216 86.0934 140.435 86.0745 139.657 86.0109C138.671 85.9386 137.504 85.7889 136.213 85.6082C134.923 85.4275 133.508 85.2365 132.01 85.159C130.61 85.0828 129.206 85.1887 127.833 85.474C126.711 85.7022 125.633 86.112 124.643 86.6873C123.745 87.2359 122.949 87.9345 122.288 88.7526C122.316 88.6835 122.354 88.6191 122.402 88.5616C122.511 88.3792 122.635 88.2064 122.773 88.0453C123.274 87.4342 123.872 86.9107 124.544 86.4963C125.541 85.8871 126.634 85.4507 127.777 85.2055C129.171 84.901 130.601 84.7864 132.026 84.8647C133.539 84.9421 134.959 85.1487 136.249 85.3397C137.54 85.5307 138.697 85.7011 139.673 85.7941C140.649 85.887 141.449 85.9283 141.996 85.9335C142.283 85.9331 142.569 85.9503 142.853 85.9851Z" fill="#FAFAFA"/>
<path d="M130.444 109.133C129.473 108.907 128.475 108.822 127.48 108.88C126.314 108.959 125.159 109.165 124.037 109.494C122.72 109.85 121.248 110.372 119.596 110.883C117.802 111.491 115.924 111.817 114.03 111.849C111.849 111.848 109.691 111.4 107.69 110.532C105.466 109.592 103.487 108.154 101.907 106.329C101.052 105.375 100.355 104.291 99.8416 103.118C99.2957 101.903 99.0904 100.562 99.2478 99.24C99.4276 97.9069 100.078 96.6819 101.081 95.7858C101.579 95.3513 102.177 95.0462 102.821 94.8977C103.451 94.7642 104.104 94.7822 104.726 94.95C105.348 95.1178 105.921 95.4308 106.399 95.8632C106.865 96.291 107.19 96.8514 107.328 97.469C107.462 98.0736 107.413 98.7042 107.189 99.2813C106.972 99.836 106.643 100.34 106.223 100.763C105.423 101.565 104.455 102.18 103.389 102.565C102.887 102.756 102.368 102.899 101.84 102.994C101.582 103.04 101.323 103.097 101.07 103.133L100.301 103.226C98.4144 103.413 96.5097 103.279 94.668 102.828C93.1492 102.467 91.6854 101.904 90.3154 101.156C89.2794 100.596 88.308 99.9241 87.4188 99.1522L86.9025 98.703L86.4791 98.2745C86.2507 98.0581 86.0369 97.827 85.8389 97.5826L85.4671 97.1385C85.4247 97.0904 85.3867 97.0386 85.3535 96.9836C85.4035 97.0265 85.4501 97.0731 85.4929 97.123L85.8802 97.5464C86.0849 97.7833 86.3039 98.0075 86.5359 98.2177L86.9644 98.6359L87.4808 99.0748C88.3739 99.8254 89.345 100.478 90.3774 101.021C91.7403 101.75 93.1934 102.295 94.699 102.643C96.5223 103.077 98.406 103.199 100.27 103.004L101.024 102.911C101.277 102.87 101.54 102.813 101.788 102.766C102.305 102.673 102.811 102.531 103.301 102.343C104.332 101.967 105.268 101.37 106.043 100.593C106.438 100.193 106.747 99.7169 106.951 99.1935C107.154 98.6616 107.199 98.0825 107.08 97.5258C106.927 96.9571 106.622 96.4411 106.197 96.0335C105.772 95.6258 105.244 95.342 104.669 95.2127C104.081 95.0429 103.459 95.0253 102.862 95.1617C102.265 95.2981 101.713 95.5839 101.256 95.9923C100.3 96.8442 99.6827 98.0116 99.5163 99.2813C99.3683 100.554 99.5644 101.843 100.084 103.014C100.584 104.161 101.26 105.221 102.088 106.159C103.641 107.95 105.584 109.363 107.767 110.289C109.737 111.149 111.861 111.599 114.01 111.611C115.885 111.588 117.745 111.274 119.524 110.682C121.171 110.165 122.622 109.68 123.98 109.334C125.113 109.016 126.279 108.823 127.455 108.761C127.883 108.734 128.312 108.734 128.74 108.761C129.107 108.818 129.422 108.844 129.67 108.9L130.232 109.04C130.307 109.061 130.378 109.092 130.444 109.133Z" fill="#FAFAFA"/>
<path d="M85.0766 103.624C85.0302 103.624 84.7927 103.107 84.2918 102.24C82.9811 100.039 81.0701 98.2565 78.7827 97.1025C77.9049 96.6585 77.3266 96.4622 77.3421 96.4158C77.4871 96.4284 77.6297 96.4614 77.7655 96.5139C78.1413 96.6257 78.5087 96.7638 78.8652 96.9269C80.0482 97.4664 81.1362 98.1934 82.0871 99.08C83.0397 99.9656 83.8404 101.002 84.4571 102.147C84.6523 102.49 84.8248 102.845 84.9734 103.211C85.026 103.343 85.0607 103.482 85.0766 103.624Z" fill="#FAFAFA"/>
<path d="M65.0431 125.721C65.0431 125.721 65.007 125.68 64.9605 125.592C64.914 125.505 64.8366 125.365 64.7488 125.205C64.5629 124.864 64.2944 124.353 63.964 123.692C63.0048 121.827 62.2135 119.879 61.5992 117.873C61.1886 116.48 60.9408 115.044 60.8609 113.593C60.8198 112.783 60.8526 111.971 60.959 111.166C61.0873 110.315 61.2912 109.477 61.5682 108.662C62.1709 106.9 63.2143 105.322 64.5991 104.077C65.3387 103.399 66.2082 102.877 67.1552 102.544C68.1021 102.211 69.1067 102.074 70.1083 102.141C71.1491 102.219 72.1207 102.692 72.8241 103.463C73.1587 103.844 73.4019 104.297 73.5352 104.786C73.6685 105.275 73.6884 105.789 73.5934 106.287C73.4819 106.776 73.2266 107.22 72.8603 107.562C72.5023 107.89 72.0699 108.126 71.6004 108.249C70.6915 108.486 69.7268 108.369 68.9001 107.924C68.1331 107.51 67.4626 106.938 66.9329 106.246C66.425 105.605 66.0064 104.898 65.6885 104.144C65.1297 102.792 64.898 101.328 65.0121 99.8691C65.1164 98.6657 65.468 97.4968 66.0448 96.4355C66.4723 95.6348 67.0189 94.9036 67.6661 94.267C68.0706 93.8632 68.5152 93.5016 68.993 93.1879C69.1531 93.0794 69.2873 93.0123 69.3751 92.9607L69.5093 92.8936C69.5093 92.8936 69.3441 93.0123 69.024 93.2343C68.563 93.5631 68.1327 93.9329 67.7383 94.3393C67.1197 94.9814 66.5979 95.7102 66.1894 96.5027C65.6406 97.5506 65.3121 98.6998 65.2238 99.8794C65.124 101.309 65.3646 102.743 65.926 104.062C66.2395 104.793 66.6493 105.479 67.1446 106.101C67.6582 106.764 68.3056 107.311 69.0446 107.707C69.8163 108.122 70.7168 108.229 71.5643 108.006C71.999 107.905 72.3972 107.685 72.7151 107.372C73.033 107.058 73.2583 106.663 73.3663 106.23C73.4482 105.774 73.4267 105.305 73.3034 104.858C73.1801 104.412 72.9581 103.998 72.6537 103.649C71.9948 102.93 71.086 102.49 70.1134 102.42C69.1487 102.356 68.1811 102.488 67.2688 102.809C66.3566 103.129 65.5187 103.631 64.8056 104.284C63.454 105.499 62.4326 107.038 61.8367 108.755C61.5583 109.552 61.3526 110.373 61.2223 111.208C61.1151 111.998 61.0789 112.796 61.1139 113.593C61.1863 115.028 61.4218 116.45 61.8161 117.832C62.411 119.833 63.1709 121.781 64.0879 123.656L64.8263 125.205C64.9037 125.37 64.9657 125.505 65.0173 125.608C65.0689 125.711 65.0431 125.721 65.0431 125.721Z" fill="#FAFAFA"/>
<path d="M58.6673 80.1411C58.6673 80.1411 58.6931 80.2134 58.7137 80.3528C58.7501 80.5613 58.776 80.7716 58.7912 80.9827C58.8592 81.754 58.8592 82.5297 58.7912 83.301C58.5826 85.8691 57.7042 88.3376 56.2438 90.4603C54.7834 92.583 52.7919 94.2857 50.468 95.3985C49.7725 95.7381 49.0486 96.0163 48.3046 96.2298C48.0465 96.3124 47.8348 96.3485 47.6954 96.3847C47.556 96.4208 47.4785 96.426 47.4785 96.4157C47.7372 96.3041 48.0028 96.2093 48.2736 96.1317C48.9979 95.8805 49.7036 95.5786 50.3854 95.2281C52.6474 94.0855 54.5857 92.3924 56.0221 90.3046C57.4585 88.2168 58.3468 85.8013 58.6053 83.2804C58.6867 82.5191 58.7161 81.7531 58.6931 80.9879C58.6662 80.7065 58.6576 80.4236 58.6673 80.1411Z" fill="#FAFAFA"/>
<path d="M147.371 102.529C146.603 103.011 145.928 103.626 145.378 104.347C144.862 105.013 144.346 105.896 143.762 106.825C143.122 107.866 142.384 108.843 141.557 109.742C140.046 111.375 138.253 112.724 136.265 113.723C135.667 114.026 135.049 114.29 134.417 114.513C134.186 114.604 133.947 114.673 133.704 114.72C133.918 114.598 134.143 114.496 134.375 114.415C134.809 114.224 135.439 113.956 136.177 113.553C138.107 112.516 139.851 111.167 141.341 109.562C142.159 108.676 142.893 107.717 143.535 106.696C144.048 105.843 144.608 105.019 145.213 104.228C145.633 103.698 146.133 103.236 146.695 102.86C146.847 102.759 147.008 102.67 147.175 102.596C147.309 102.545 147.371 102.519 147.371 102.529Z" fill="#FAFAFA"/>
<path d="M119.466 63.3138C119.39 63.3463 119.31 63.3671 119.229 63.3758L118.542 63.4997C117.943 63.5978 117.076 63.7269 116.007 63.8714C113.859 64.1606 110.885 64.5014 107.585 64.744C106.041 64.8852 104.489 64.9403 102.939 64.9093C101.659 64.8781 100.391 64.6606 99.1745 64.2639C98.3533 63.9976 97.5782 63.6057 96.8769 63.1021C96.6856 62.9673 96.5028 62.8207 96.3296 62.6632C96.216 62.5497 96.1592 62.4929 96.1644 62.4825C96.1695 62.4722 96.4329 62.6891 96.9337 62.9989C97.647 63.4574 98.4202 63.8153 99.2314 64.0625C100.437 64.4294 101.689 64.6241 102.949 64.6408C104.5 64.6573 106.051 64.5952 107.596 64.4549C110.885 64.2122 113.859 63.9076 116.007 63.6649L118.552 63.3758C118.855 63.3338 119.16 63.3131 119.466 63.3138Z" fill="#263238"/>
<path d="M154.852 123.925C155.24 125.922 155.185 127.981 154.689 129.954C154.193 131.928 153.269 133.768 151.983 135.345C150.696 136.922 149.079 138.196 147.245 139.078C145.411 139.959 143.405 140.427 141.37 140.447L102.259 140.013L103.291 127.348L136.78 122.319" fill="#007D5A" fill-opacity="0.08"/>
<path d="M105.689 127.901C105.508 127.958 103.252 126.946 101.228 126.011C99.0805 125.016 96.7236 124.559 94.3604 124.679L85.0356 125.154C85.0356 125.154 85.6087 126.703 86.5846 127.219C87.5604 127.735 93.4104 127.901 93.4104 127.901L93.1109 128.205C91.8877 129.465 90.2194 130.196 88.464 130.24H87.5707C86.9094 130.187 86.2563 130.059 85.6242 129.858L83.3266 128.928C82.6295 128.618 81.8963 128.665 81.5917 129.367C81.2871 130.069 81.5194 130.875 83.4195 131.83C84.4779 132.346 88.4123 133.725 88.4123 133.725C88.4393 134.285 88.5171 134.841 88.6447 135.387C88.8151 135.961 90.3589 136.534 90.3589 136.534C90.76 137.383 91.2189 138.204 91.7323 138.991C91.913 139.198 93.3123 139.637 94.8044 140.055C97.21 140.728 99.7568 140.709 102.152 139.998L105.704 138.935V128.092" fill="#E6EBEE"/>
<path d="M105.689 127.901C105.508 127.958 103.252 126.946 101.228 126.011C99.0805 125.016 96.7236 124.559 94.3604 124.679L85.0356 125.154C85.0356 125.154 85.6087 126.703 86.5846 127.219C87.5604 127.735 93.4104 127.901 93.4104 127.901L93.1109 128.205C91.8877 129.465 90.2194 130.196 88.464 130.24H87.5707C86.9094 130.187 86.2563 130.059 85.6242 129.858L83.3266 128.928C82.6295 128.618 81.8963 128.665 81.5917 129.367C81.2871 130.069 81.5194 130.875 83.4195 131.83C84.4779 132.346 88.4123 133.725 88.4123 133.725C88.4393 134.285 88.5171 134.841 88.6447 135.387C88.8151 135.961 90.3589 136.534 90.3589 136.534C90.76 137.383 91.2189 138.204 91.7323 138.991C91.913 139.198 93.3123 139.637 94.8044 140.055C97.21 140.728 99.7568 140.709 102.152 139.998L105.704 138.935V128.092" fill="#FFE7C9" style="mix-blend-mode:multiply"/>
<path d="M92.9352 134.979C91.2922 134.937 89.6817 134.513 88.2314 133.74C88.2314 133.678 89.2641 134.07 90.5704 134.406C91.8767 134.741 92.9403 134.901 92.9352 134.979Z" fill="#E6EBEE"/>
<path d="M92.9352 134.979C91.2922 134.937 89.6817 134.513 88.2314 133.74C88.2314 133.678 89.2641 134.07 90.5704 134.406C91.8767 134.741 92.9403 134.901 92.9352 134.979Z" fill="#FFE7C9" style="mix-blend-mode:multiply"/>
<path d="M92.6039 137.152C92.1662 137.243 91.7118 137.209 91.2925 137.054C90.8543 136.974 90.447 136.773 90.1152 136.476C90.5374 136.56 90.9519 136.68 91.3544 136.832C91.7785 136.907 92.1962 137.014 92.6039 137.152Z" fill="#E6EBEE"/>
<path d="M92.6039 137.152C92.1662 137.243 91.7118 137.209 91.2925 137.054C90.8543 136.974 90.447 136.773 90.1152 136.476C90.5374 136.56 90.9519 136.68 91.3544 136.832C91.7785 136.907 92.1962 137.014 92.6039 137.152Z" fill="#FFE7C9" style="mix-blend-mode:multiply"/>
<path d="M94.3075 127.06C94.1035 127.347 93.8621 127.605 93.5898 127.829C92.9714 128.419 92.2891 128.939 91.5555 129.378C90.8163 129.809 90.0126 130.12 89.1752 130.297C88.8388 130.387 88.4906 130.425 88.1426 130.411C89.2965 130.145 90.4109 129.73 91.4574 129.177C92.1748 128.744 92.8567 128.255 93.4969 127.715C93.7471 127.473 94.0184 127.254 94.3075 127.06Z" fill="#E6EBEE"/>
<path d="M94.3075 127.06C94.1035 127.347 93.8621 127.605 93.5898 127.829C92.9714 128.419 92.2891 128.939 91.5555 129.378C90.8163 129.809 90.0126 130.12 89.1752 130.297C88.8388 130.387 88.4906 130.425 88.1426 130.411C89.2965 130.145 90.4109 129.73 91.4574 129.177C92.1748 128.744 92.8567 128.255 93.4969 127.715C93.7471 127.473 94.0184 127.254 94.3075 127.06Z" fill="#FFE7C9" style="mix-blend-mode:multiply"/>
<path d="M106.638 126.202L105.688 140.525H142.527C145.029 140.527 147.483 139.847 149.627 138.558C152.053 137.1 153.971 134.93 155.12 132.343C156.27 129.756 156.594 126.878 156.05 124.101C155.52 121.381 154.724 118.719 153.675 116.155L135.149 119.206L135.743 121.509L106.638 126.202Z" fill="#007D5A" fill-opacity="0.08"/>
<path d="M144.278 120.306C144.156 120.341 144.032 120.369 143.907 120.389L142.828 120.585L138.847 121.246L125.753 123.311L112.643 125.319L108.668 125.898L107.583 126.042C107.457 126.06 107.329 126.07 107.201 126.073C107.323 126.031 107.45 126.001 107.578 125.985L108.652 125.794L112.617 125.128L125.711 123.063L138.847 121.039L142.822 120.461L143.907 120.316C144.03 120.3 144.154 120.296 144.278 120.306Z" fill="#263238"/>
<path d="M125.421 140.536C125.354 140.536 125.643 139.503 125.68 137.815C125.688 137.356 125.669 136.898 125.623 136.441C125.579 135.921 125.503 135.404 125.396 134.892C125.14 133.714 124.738 132.573 124.198 131.495C123.645 130.422 122.969 129.417 122.184 128.5L121.668 127.896C121.492 127.7 121.301 127.53 121.126 127.354C120.78 126.998 120.413 126.714 120.093 126.44C118.776 125.408 117.842 124.891 117.873 124.845C118.101 124.936 118.321 125.048 118.529 125.18C118.786 125.314 119.034 125.464 119.272 125.63C119.546 125.826 119.886 126.017 120.212 126.296C120.584 126.574 120.939 126.874 121.275 127.194C121.456 127.37 121.657 127.535 121.838 127.71L122.401 128.32C123.21 129.242 123.903 130.26 124.466 131.35C125.013 132.451 125.416 133.617 125.664 134.82C125.77 135.346 125.839 135.88 125.871 136.416C125.904 136.88 125.904 137.346 125.871 137.81C125.861 138.195 125.826 138.58 125.767 138.961C125.739 139.248 125.689 139.533 125.618 139.813C125.573 140.059 125.508 140.301 125.421 140.536Z" fill="#FAFAFA"/>
<path d="M147.85 139.456C147.274 139.453 146.701 139.385 146.141 139.255C145.48 139.103 144.839 138.876 144.23 138.578C143.423 138.177 142.694 137.635 142.077 136.978C141.329 136.172 140.785 135.198 140.492 134.138C140.329 133.549 140.237 132.942 140.219 132.331C140.181 131.685 140.233 131.037 140.374 130.405C140.512 129.732 140.77 129.09 141.138 128.51C141.521 127.895 142.054 127.387 142.687 127.033C143.341 126.652 144.094 126.472 144.85 126.517C145.239 126.544 145.618 126.649 145.965 126.827C146.312 127.004 146.619 127.25 146.869 127.55C147.127 127.845 147.321 128.191 147.438 128.565C147.555 128.939 147.594 129.334 147.55 129.723C147.487 130.102 147.34 130.461 147.12 130.775C146.901 131.09 146.614 131.351 146.28 131.541C145.031 132.195 143.591 132.393 142.212 132.099C140.253 131.793 138.463 130.813 137.151 129.327C135.84 127.841 135.089 125.943 135.03 123.961C134.997 123.386 135.045 122.809 135.174 122.247C135.126 122.815 135.113 123.386 135.133 123.956C135.229 125.51 135.737 127.011 136.604 128.304C137.251 129.253 138.084 130.06 139.054 130.675C140.023 131.29 141.109 131.701 142.243 131.882C143.561 132.165 144.937 131.983 146.136 131.365C146.435 131.196 146.693 130.962 146.892 130.681C147.09 130.4 147.223 130.078 147.282 129.739C147.312 129.386 147.273 129.03 147.165 128.692C147.058 128.354 146.885 128.04 146.656 127.769C146.427 127.498 146.147 127.275 145.832 127.112C145.517 126.95 145.173 126.851 144.819 126.822C144.119 126.774 143.42 126.934 142.811 127.281C142.237 127.624 141.744 128.087 141.365 128.637C140.986 129.188 140.731 129.814 140.616 130.472C140.476 131.085 140.423 131.714 140.456 132.341C140.47 132.933 140.555 133.52 140.709 134.092C140.981 135.124 141.499 136.075 142.217 136.864C142.807 137.512 143.506 138.052 144.282 138.46C144.877 138.764 145.504 139.001 146.151 139.167C147.235 139.41 147.855 139.42 147.85 139.456Z" fill="#FAFAFA"/>
</g>
<g filter="url(#filter1_d_724_17940)">
<path d="M74.9357 39.6471C76.1648 35.8241 76.2092 31.5848 74.7927 27.4984C71.3205 17.4812 60.3853 12.1755 50.3681 15.6476C40.351 19.1198 35.0452 30.0551 38.5174 40.0722C41.9896 50.0894 52.9248 55.3951 62.942 51.9229C66.6654 50.6323 69.7379 48.3105 71.9506 45.388L79.397 45.7071L75.0381 39.5351L74.9357 39.6471Z" fill="#FFF7EE"/>
<g filter="url(#filter2_d_724_17940)">
<path d="M57.6558 40.4922C58.5524 40.3544 59.1676 39.5158 59.0297 38.6191C58.8919 37.7224 58.0533 37.1073 57.1566 37.2451C56.26 37.383 55.6448 38.2216 55.7827 39.1182C55.9205 40.0149 56.7591 40.63 57.6558 40.4922Z" fill="white"/>
<path d="M56.9393 35.8322C53.7543 33.7096 53.2129 26.0902 54.1981 23.8497C55.4295 21.0492 60.3778 30.0809 56.9393 35.8322Z" fill="white"/>
</g>
</g>
<path d="M52.381 35.0718C51.2547 33.573 48.3698 30.8702 45.8405 32.0492C43.3113 33.2282 49.147 34.5555 52.381 35.0718Z" fill="white"/>
<path d="M53.2903 37.1931C51.4993 36.6387 47.5778 36.1395 46.2194 38.5771C44.861 41.0147 50.3673 38.6701 53.2903 37.1931Z" fill="white"/>
<path d="M61.4685 29.4909C62.5327 29.7303 64.8303 29.84 65.5065 28.3638C66.1826 26.8875 63.0962 28.5001 61.4685 29.4909Z" fill="white"/>
<path d="M60.2658 28.8941C61.2685 28.4644 63.1945 27.2068 62.8772 25.6143C62.5598 24.0219 61.0041 27.1374 60.2658 28.8941Z" fill="white"/>
<path d="M72.9396 39.5212C74.1687 35.6981 74.2131 31.4589 72.7966 27.3724C69.3244 17.3552 58.3892 12.0495 48.372 15.5217C38.3549 18.9938 33.0491 29.9291 36.5213 39.9462C39.9935 49.9634 50.9287 55.2691 60.9459 51.797C64.6693 50.5063 67.7419 48.1845 69.9545 45.262L77.4009 45.5811L73.042 39.4091L72.9396 39.5212Z" fill="#FFE7C9"/>
<g filter="url(#filter3_d_724_17940)">
<path d="M55.6597 40.3662C56.5563 40.2284 57.1715 39.3898 57.0336 38.4931C56.8958 37.5965 56.0572 36.9813 55.1605 37.1191C54.2639 37.257 53.6487 38.0956 53.7866 38.9923C53.9244 39.8889 54.763 40.5041 55.6597 40.3662Z" fill="white"/>
<path d="M54.9432 35.7062C51.7582 33.5836 51.2168 25.9642 52.202 23.7238C53.4334 20.9232 58.3817 29.9549 54.9432 35.7062Z" fill="white"/>
</g>
<path d="M50.3849 34.9458C49.2586 33.447 46.3737 30.7442 43.8445 31.9232C41.3152 33.1023 47.1509 34.4295 50.3849 34.9458Z" fill="white"/>
<path d="M51.2942 37.0671C49.5032 36.5127 45.5817 36.0135 44.2233 38.4511C42.8649 40.8887 48.3712 38.5441 51.2942 37.0671Z" fill="white"/>
<path d="M59.4724 29.3649C60.5366 29.6043 62.8342 29.7141 63.5104 28.2378C64.1865 26.7616 61.1001 28.3741 59.4724 29.3649Z" fill="white"/>
<path d="M58.2697 28.7681C59.2724 28.3384 61.1984 27.0808 60.8811 25.4884C60.5637 23.896 59.008 27.0114 58.2697 28.7681Z" fill="white"/>
<defs>
<filter id="filter0_d_724_17940" x="1.75" y="0.216797" width="182.557" height="189" filterUnits="userSpaceOnUse" color-interpolation-filters="sRGB">
<feFlood flood-opacity="0" result="BackgroundImageFix"/>
<feColorMatrix in="SourceAlpha" type="matrix" values="0 0 0 0 0 0 0 0 0 0 0 0 0 0 0 0 0 0 127 0" result="hardAlpha"/>
<feOffset dy="20"/>
<feGaussianBlur stdDeviation="14"/>
<feColorMatrix type="matrix" values="0 0 0 0 0.184314 0 0 0 0 0.223529 0 0 0 0 0.254902 0 0 0 0.15 0"/>
<feBlend mode="normal" in2="BackgroundImageFix" result="effect1_dropShadow_724_17940"/>
<feBlend mode="normal" in="SourceGraphic" in2="effect1_dropShadow_724_17940" result="shape"/>
</filter>
<filter id="filter1_d_724_17940" x="9.45312" y="6.58374" width="97.9434" height="94.4031" filterUnits="userSpaceOnUse" color-interpolation-filters="sRGB">
<feFlood flood-opacity="0" result="BackgroundImageFix"/>
<feColorMatrix in="SourceAlpha" type="matrix" values="0 0 0 0 0 0 0 0 0 0 0 0 0 0 0 0 0 0 127 0" result="hardAlpha"/>
<feOffset dy="20"/>
<feGaussianBlur stdDeviation="14"/>
<feColorMatrix type="matrix" values="0 0 0 0 0.184314 0 0 0 0 0.223529 0 0 0 0 0.254902 0 0 0 0.15 0"/>
<feBlend mode="normal" in2="BackgroundImageFix" result="effect1_dropShadow_724_17940"/>
<feBlend mode="normal" in="SourceGraphic" in2="effect1_dropShadow_724_17940" result="shape"/>
</filter>
<filter id="filter2_d_724_17940" x="45.7529" y="19.3242" width="21.2959" height="33.1873" filterUnits="userSpaceOnUse" color-interpolation-filters="sRGB">
<feFlood flood-opacity="0" result="BackgroundImageFix"/>
<feColorMatrix in="SourceAlpha" type="matrix" values="0 0 0 0 0 0 0 0 0 0 0 0 0 0 0 0 0 0 127 0" result="hardAlpha"/>
<feOffset dy="4"/>
<feGaussianBlur stdDeviation="4"/>
<feColorMatrix type="matrix" values="0 0 0 0 0.184314 0 0 0 0 0.223529 0 0 0 0 0.254902 0 0 0 0.15 0"/>
<feBlend mode="normal" in2="BackgroundImageFix" result="effect1_dropShadow_724_17940"/>
<feBlend mode="normal" in="SourceGraphic" in2="effect1_dropShadow_724_17940" result="shape"/>
</filter>
<filter id="filter3_d_724_17940" x="43.7568" y="19.1982" width="21.2959" height="33.1873" filterUnits="userSpaceOnUse" color-interpolation-filters="sRGB">
<feFlood flood-opacity="0" result="BackgroundImageFix"/>
<feColorMatrix in="SourceAlpha" type="matrix" values="0 0 0 0 0 0 0 0 0 0 0 0 0 0 0 0 0 0 127 0" result="hardAlpha"/>
<feOffset dy="4"/>
<feGaussianBlur stdDeviation="4"/>
<feColorMatrix type="matrix" values="0 0 0 0 0.184314 0 0 0 0 0.223529 0 0 0 0 0.254902 0 0 0 0.15 0"/>
<feBlend mode="normal" in2="BackgroundImageFix" result="effect1_dropShadow_724_17940"/>
<feBlend mode="normal" in="SourceGraphic" in2="effect1_dropShadow_724_17940" result="shape"/>
</filter>
</defs>
</svg>
