<svg width="415" height="264" viewBox="0 0 415 264" fill="none" xmlns="http://www.w3.org/2000/svg">
<path opacity="0.6" fill-rule="evenodd" clip-rule="evenodd" d="M402.954 166.436C403.419 206.264 259.971 212.703 141.897 178.554C23.8236 144.404 -22.0178 67.4863 40.5044 38.3198C103.027 9.15327 402.489 126.607 402.954 166.436Z" fill="#B3E8D9"/>
<g filter="url(#filter0_d_74_9579)">
<rect x="199.893" y="7" width="187.019" height="190.463" rx="6.80223" fill="white"/>
<rect x="200.318" y="7.42514" width="186.168" height="189.612" rx="6.37709" stroke="#E9EBED" stroke-width="0.850279"/>
<rect x="213.498" y="20.6045" width="75.6748" height="6.80223" rx="3.40112" fill="#8AA4B2"/>
<path d="M213.498 46.2291C213.498 42.8777 216.214 40.1609 219.566 40.1609H256.746C260.097 40.1609 262.814 42.8777 262.814 46.2291V83.4089C262.814 86.7603 260.097 89.4771 256.746 89.4771H219.566C216.214 89.4771 213.498 86.7603 213.498 83.4089V46.2291Z" fill="#E6EBEE"/>
<rect x="213.498" y="102.231" width="54.4179" height="6.80223" rx="3.40112" fill="#D8DCDE"/>
<rect x="213.498" y="116.261" width="159.81" height="12.7542" rx="6.37709" fill="#8AA4B2"/>
<rect x="213.498" y="139.644" width="159.81" height="6.80223" rx="3.40112" fill="#C2C8CC"/>
<rect x="213.498" y="156.649" width="105.435" height="6.80223" rx="3.40112" fill="#C2C8CC"/>
<rect x="320.633" y="156.649" width="51.867" height="6.80223" rx="3.40112" fill="#C2C8CC"/>
<rect x="213.498" y="173.655" width="68.0223" height="6.80223" rx="3.40112" fill="#C2C8CC"/>
<rect x="283.22" y="173.655" width="51.867" height="6.80223" rx="3.40112" fill="#C2C8CC"/>
</g>
<g filter="url(#filter1_d_74_9579)">
<path d="M84.9814 114.784H163.082C172.666 114.784 180.435 122.553 180.435 132.136V195.703C180.435 205.287 172.666 213.056 163.082 213.056H84.9814C75.398 213.056 67.6291 205.287 67.6291 195.703V132.136C67.6291 122.553 75.398 114.784 84.9814 114.784Z" fill="white"/>
<path d="M165.507 212.832H148.611L165.887 230.112L165.507 212.832Z" fill="white"/>
<path d="M183.137 159.666L190.218 151.614C192.133 149.699 192.791 148.777 192.406 148.442C191.896 147.995 192.115 148.142 188.138 151.126C188.138 151.126 193.775 146.818 191.82 146.791C191.475 146.791 190.518 147.346 189.494 148.017C190.889 146.832 191.283 146.031 191.01 145.651C190.563 144.989 187.109 147.382 185.521 148.531C186.819 147.565 189.292 145.691 189.726 145.1C190.326 144.295 189.113 144.362 188.129 144.698C187.024 145.073 180.918 148.191 179.111 148.997C178.966 149.083 178.804 149.137 178.636 149.155C178.469 149.173 178.299 149.154 178.139 149.1C177.979 149.046 177.833 148.958 177.71 148.842C177.588 148.726 177.492 148.585 177.429 148.429C176.762 145.628 174.745 143.808 173.975 143.57C173.206 143.333 172.611 144.317 173.161 145.033C173.679 145.866 174.079 146.766 174.351 147.708C174.6 148.447 174.723 149.223 174.714 150.003C174.714 150.898 174.651 151.672 174.593 152.32L168.12 161.2L178.945 167.463L183.137 159.666Z" fill="#E6EBEE"/>
<path d="M183.137 159.666L190.218 151.614C192.133 149.699 192.791 148.777 192.406 148.442C191.896 147.995 192.115 148.142 188.138 151.126C188.138 151.126 193.775 146.818 191.82 146.791C191.475 146.791 190.518 147.346 189.494 148.017C190.889 146.832 191.283 146.031 191.01 145.651C190.563 144.989 187.109 147.382 185.521 148.531C186.819 147.565 189.292 145.691 189.726 145.1C190.326 144.295 189.113 144.362 188.129 144.698C187.024 145.073 180.918 148.191 179.111 148.997C178.966 149.083 178.804 149.137 178.636 149.155C178.469 149.173 178.299 149.154 178.139 149.1C177.979 149.046 177.833 148.958 177.71 148.842C177.588 148.726 177.492 148.585 177.429 148.429C176.762 145.628 174.745 143.808 173.975 143.57C173.206 143.333 172.611 144.317 173.161 145.033C173.679 145.866 174.079 146.766 174.351 147.708C174.6 148.447 174.723 149.223 174.714 150.003C174.714 150.898 174.651 151.672 174.593 152.32L168.12 161.2L178.945 167.463L183.137 159.666Z" fill="url(#paint0_linear_74_9579)" fill-opacity="0.8" style="mix-blend-mode:color-burn"/>
<path d="M183.137 159.666L190.218 151.614C192.133 149.699 192.791 148.777 192.406 148.442C191.896 147.995 192.115 148.142 188.138 151.126C188.138 151.126 193.775 146.818 191.82 146.791C191.475 146.791 190.518 147.346 189.494 148.017C190.889 146.832 191.283 146.031 191.01 145.651C190.563 144.989 187.109 147.382 185.521 148.531C186.819 147.565 189.292 145.691 189.726 145.1C190.326 144.295 189.113 144.362 188.129 144.698C187.024 145.073 180.918 148.191 179.111 148.997C178.966 149.083 178.804 149.137 178.636 149.155C178.469 149.173 178.299 149.154 178.139 149.1C177.979 149.046 177.833 148.958 177.71 148.842C177.588 148.726 177.492 148.585 177.429 148.429C176.762 145.628 174.745 143.808 173.975 143.57C173.206 143.333 172.611 144.317 173.161 145.033C173.679 145.866 174.079 146.766 174.351 147.708C174.6 148.447 174.723 149.223 174.714 150.003C174.714 150.898 174.651 151.672 174.593 152.32L168.12 161.2L178.945 167.463L183.137 159.666Z" fill="#2F3941" fill-opacity="0.15" style="mix-blend-mode:multiply"/>
<path d="M185.668 152.379C185.74 152.477 187.01 151.614 188.477 150.446C189.945 149.279 191.09 148.25 191.005 148.156C190.92 148.062 189.663 148.93 188.196 150.088C186.728 151.247 185.605 152.276 185.668 152.379Z" fill="#E6EBEE"/>
<path d="M185.668 152.379C185.74 152.477 187.01 151.614 188.477 150.446C189.945 149.279 191.09 148.25 191.005 148.156C190.92 148.062 189.663 148.93 188.196 150.088C186.728 151.247 185.605 152.276 185.668 152.379Z" fill="url(#paint1_linear_74_9579)" fill-opacity="0.8" style="mix-blend-mode:color-burn"/>
<path d="M185.668 152.379C185.74 152.477 187.01 151.614 188.477 150.446C189.945 149.279 191.09 148.25 191.005 148.156C190.92 148.062 189.663 148.93 188.196 150.088C186.728 151.247 185.605 152.276 185.668 152.379Z" fill="#2F3941" fill-opacity="0.15" style="mix-blend-mode:multiply"/>
<path d="M184.3 150.965C184.372 151.068 185.763 150.218 187.409 149.073C189.055 147.928 190.335 146.912 190.263 146.814C190.191 146.715 188.8 147.556 187.154 148.702C185.508 149.847 184.228 150.862 184.3 150.965Z" fill="#E6EBEE"/>
<path d="M184.3 150.965C184.372 151.068 185.763 150.218 187.409 149.073C189.055 147.928 190.335 146.912 190.263 146.814C190.191 146.715 188.8 147.556 187.154 148.702C185.508 149.847 184.228 150.862 184.3 150.965Z" fill="url(#paint2_linear_74_9579)" fill-opacity="0.8" style="mix-blend-mode:color-burn"/>
<path d="M184.3 150.965C184.372 151.068 185.763 150.218 187.409 149.073C189.055 147.928 190.335 146.912 190.263 146.814C190.191 146.715 188.8 147.556 187.154 148.702C185.508 149.847 184.228 150.862 184.3 150.965Z" fill="#2F3941" fill-opacity="0.15" style="mix-blend-mode:multiply"/>
<path d="M183.297 149.462C183.369 149.565 184.702 148.786 186.272 147.722C187.842 146.657 189.059 145.713 188.992 145.606C188.925 145.498 187.592 146.281 186.017 147.346C184.443 148.411 183.23 149.359 183.297 149.462Z" fill="#E6EBEE"/>
<path d="M183.297 149.462C183.369 149.565 184.702 148.786 186.272 147.722C187.842 146.657 189.059 145.713 188.992 145.606C188.925 145.498 187.592 146.281 186.017 147.346C184.443 148.411 183.23 149.359 183.297 149.462Z" fill="url(#paint3_linear_74_9579)" fill-opacity="0.8" style="mix-blend-mode:color-burn"/>
<path d="M183.297 149.462C183.369 149.565 184.702 148.786 186.272 147.722C187.842 146.657 189.059 145.713 188.992 145.606C188.925 145.498 187.592 146.281 186.017 147.346C184.443 148.411 183.23 149.359 183.297 149.462Z" fill="#2F3941" fill-opacity="0.15" style="mix-blend-mode:multiply"/>
<path d="M173.988 153.524L148.186 186.242L154.095 199.998C154.095 199.998 161.172 198.432 163.319 195.453C165.467 192.474 183.136 159.666 183.136 159.666L173.988 153.524Z" fill="#E6EBEE"/>
<path d="M173.988 153.524L148.186 186.242L154.095 199.998C154.095 199.998 161.172 198.432 163.319 195.453C165.467 192.474 183.136 159.666 183.136 159.666L173.988 153.524Z" fill="url(#paint4_linear_74_9579)" fill-opacity="0.8" style="mix-blend-mode:color-burn"/>
<path d="M173.988 153.524L148.186 186.242L154.095 199.998C154.095 199.998 161.172 198.432 163.319 195.453C165.467 192.474 183.136 159.666 183.136 159.666L173.988 153.524Z" fill="#2F3941" fill-opacity="0.15" style="mix-blend-mode:multiply"/>
<path d="M108.489 107.752C106.633 109.362 106.637 112.199 106.852 114.646C107.067 117.092 107.232 119.879 105.537 121.66C104.137 123.127 101.6 123.767 101.278 125.766C101.202 126.236 101.273 126.718 101.482 127.146C101.69 127.574 102.027 127.926 102.444 128.155C102.861 128.384 103.339 128.478 103.812 128.425C104.285 128.371 104.73 128.172 105.085 127.855C104.539 129.435 104.915 131.407 106.284 132.365C107.653 133.322 109.948 132.731 110.373 131.117C110.303 131.386 110.29 131.667 110.334 131.942C110.378 132.217 110.478 132.48 110.628 132.715C110.778 132.949 110.974 133.15 111.206 133.305C111.437 133.461 111.698 133.566 111.971 133.616C112.245 133.666 112.527 133.659 112.798 133.596C113.069 133.532 113.324 133.413 113.547 133.247C113.77 133.08 113.956 132.869 114.095 132.627C114.233 132.386 114.319 132.118 114.349 131.841" fill="#263238"/>
<path d="M135.074 124.268C135.324 124.867 135.801 125.342 136.401 125.589C137.002 125.836 137.675 125.835 138.275 125.585C138.874 125.335 139.349 124.858 139.596 124.258C139.843 123.657 139.842 122.984 139.592 122.384C139.167 121.454 138.161 120.783 138.062 119.763C137.946 118.533 139.203 117.652 140.299 117.115C141.395 116.578 142.719 115.88 142.84 114.645C142.961 113.411 141.891 112.53 141.001 111.733C140.111 110.937 139.212 109.702 139.78 108.642C140.062 108.096 140.648 107.788 141.028 107.3C141.865 106.236 141.426 104.54 140.357 103.721C139.288 102.903 137.812 102.773 136.479 103.01C135.146 103.247 133.893 103.802 132.596 104.191C130.445 104.817 128.188 104.989 125.968 104.698C123.747 104.407 121.611 103.659 119.694 102.5" fill="#263238"/>
<path d="M127.153 153.117C124.842 153.583 122.44 153.122 120.466 151.833C118.492 150.544 117.103 148.531 116.601 146.228L110.253 117.124C109.857 115.443 109.801 113.7 110.09 111.998C110.38 110.296 111.007 108.669 111.936 107.213C112.865 105.758 114.076 104.503 115.498 103.524C116.92 102.545 118.524 101.86 120.215 101.512L120.877 101.413C124.111 100.938 127.405 101.698 130.104 103.543C132.802 105.387 134.707 108.181 135.438 111.367C136.852 117.509 138.332 124.313 138.78 127.654C139.706 134.574 132.964 136.659 132.964 136.659L134.176 142.474C134.417 143.633 134.426 144.828 134.203 145.99C133.98 147.152 133.53 148.259 132.878 149.247C132.227 150.234 131.386 151.083 130.405 151.745C129.424 152.407 128.322 152.869 127.162 153.103L127.153 153.117Z" fill="#E6EBEE"/>
<path d="M127.153 153.117C124.842 153.583 122.44 153.122 120.466 151.833C118.492 150.544 117.103 148.531 116.601 146.228L110.253 117.124C109.857 115.443 109.801 113.7 110.09 111.998C110.38 110.296 111.007 108.669 111.936 107.213C112.865 105.758 114.076 104.503 115.498 103.524C116.92 102.545 118.524 101.86 120.215 101.512L120.877 101.413C124.111 100.938 127.405 101.698 130.104 103.543C132.802 105.387 134.707 108.181 135.438 111.367C136.852 117.509 138.332 124.313 138.78 127.654C139.706 134.574 132.964 136.659 132.964 136.659L134.176 142.474C134.417 143.633 134.426 144.828 134.203 145.99C133.98 147.152 133.53 148.259 132.878 149.247C132.227 150.234 131.386 151.083 130.405 151.745C129.424 152.407 128.322 152.869 127.162 153.103L127.153 153.117Z" fill="url(#paint5_linear_74_9579)" fill-opacity="0.8" style="mix-blend-mode:color-burn"/>
<path d="M127.153 153.117C124.842 153.583 122.44 153.122 120.466 151.833C118.492 150.544 117.103 148.531 116.601 146.228L110.253 117.124C109.857 115.443 109.801 113.7 110.09 111.998C110.38 110.296 111.007 108.669 111.936 107.213C112.865 105.758 114.076 104.503 115.498 103.524C116.92 102.545 118.524 101.86 120.215 101.512L120.877 101.413C124.111 100.938 127.405 101.698 130.104 103.543C132.802 105.387 134.707 108.181 135.438 111.367C136.852 117.509 138.332 124.313 138.78 127.654C139.706 134.574 132.964 136.659 132.964 136.659L134.176 142.474C134.417 143.633 134.426 144.828 134.203 145.99C133.98 147.152 133.53 148.259 132.878 149.247C132.227 150.234 131.386 151.083 130.405 151.745C129.424 152.407 128.322 152.869 127.162 153.103L127.153 153.117Z" fill="#2F3941" fill-opacity="0.15" style="mix-blend-mode:multiply"/>
<path d="M134.193 115.947C134.233 116.204 134.171 116.466 134.02 116.678C133.87 116.89 133.643 117.035 133.388 117.083C133.264 117.112 133.136 117.115 133.011 117.093C132.886 117.071 132.767 117.024 132.66 116.955C132.554 116.887 132.462 116.797 132.39 116.692C132.318 116.588 132.268 116.47 132.243 116.345C132.201 116.089 132.262 115.826 132.411 115.614C132.561 115.401 132.788 115.256 133.044 115.209C133.168 115.181 133.296 115.178 133.421 115.2C133.547 115.222 133.666 115.268 133.773 115.337C133.88 115.406 133.973 115.495 134.045 115.6C134.117 115.705 134.167 115.823 134.193 115.947Z" fill="#263238"/>
<path d="M134.449 114.963C134.346 115.111 133.518 114.663 132.454 114.824C131.389 114.985 130.696 115.625 130.561 115.513C130.494 115.464 130.588 115.214 130.888 114.918C131.301 114.533 131.823 114.284 132.382 114.207C132.934 114.124 133.498 114.218 133.993 114.475C134.355 114.681 134.498 114.896 134.449 114.963Z" fill="#263238"/>
<path d="M123.82 117.647C123.86 117.904 123.799 118.167 123.648 118.379C123.498 118.591 123.271 118.736 123.015 118.783C122.891 118.812 122.762 118.815 122.637 118.792C122.512 118.77 122.392 118.723 122.285 118.654C122.179 118.584 122.087 118.495 122.015 118.389C121.944 118.284 121.894 118.166 121.87 118.041C121.829 117.784 121.891 117.522 122.041 117.311C122.192 117.099 122.419 116.955 122.675 116.909C122.798 116.88 122.927 116.877 123.052 116.898C123.177 116.92 123.297 116.967 123.404 117.036C123.51 117.104 123.602 117.194 123.674 117.299C123.745 117.404 123.795 117.523 123.82 117.647Z" fill="#263238"/>
<path d="M124.044 116.69C123.941 116.833 123.114 116.39 122.053 116.551C120.993 116.712 120.291 117.352 120.157 117.24C120.094 117.191 120.184 116.94 120.488 116.645C120.9 116.26 121.422 116.011 121.982 115.934C122.534 115.851 123.097 115.945 123.592 116.202C123.937 116.395 124.098 116.623 124.044 116.69Z" fill="#263238"/>
<path d="M129.049 123.999C129.049 123.937 129.679 123.726 130.726 123.436C130.995 123.369 131.241 123.275 131.259 123.082C131.24 122.801 131.137 122.531 130.963 122.308C130.608 121.691 130.24 121.042 129.858 120.362C128.315 117.585 127.174 115.29 127.268 115.227C127.362 115.164 128.722 117.365 130.265 120.148L131.339 122.107C131.556 122.411 131.66 122.781 131.634 123.154C131.607 123.253 131.558 123.344 131.49 123.422C131.423 123.499 131.339 123.56 131.245 123.601C131.102 123.663 130.952 123.706 130.798 123.731C130.228 123.893 129.641 123.983 129.049 123.999Z" fill="#263238"/>
<path d="M123.712 112.489C123.649 112.794 122.567 112.811 121.345 113.142C120.124 113.473 119.167 113.961 118.961 113.728C118.872 113.617 119.006 113.317 119.368 112.981C119.86 112.559 120.441 112.255 121.068 112.091C121.696 111.927 122.352 111.909 122.987 112.038C123.488 112.154 123.734 112.369 123.712 112.489Z" fill="#263238"/>
<path d="M133.608 111.948C133.456 112.216 132.713 112.073 131.819 112.19C130.924 112.306 130.217 112.592 130.029 112.364C129.935 112.252 130.029 111.993 130.307 111.715C130.704 111.378 131.192 111.166 131.71 111.107C132.228 111.048 132.752 111.145 133.214 111.384C133.536 111.586 133.675 111.818 133.608 111.948Z" fill="#263238"/>
<path d="M116.64 108.45L116.609 108.486C115.635 109.514 115.096 110.88 115.106 112.297V112.436C115.106 114.449 115.468 116.462 115.464 118.452C115.459 120.443 115.075 122.563 113.818 124.129C113.303 124.778 112.301 125.315 111.715 124.733C111.509 124.486 111.377 124.185 111.335 123.865C110.27 119.164 108.356 115.138 107.635 110.163C107.536 109.497 107.596 108.817 107.811 108.179C108.027 107.541 108.391 106.964 108.875 106.495C109.805 105.6 110.964 104.634 112.203 105.014C113.442 105.395 115.254 107.34 116.287 108.146" fill="#263238"/>
<path d="M113.039 119.906C112.913 119.87 108.087 119.195 108.932 123.896C109.777 128.598 114.3 126.782 114.3 126.643C114.3 126.504 113.039 119.906 113.039 119.906Z" fill="#E6EBEE"/>
<path d="M113.039 119.906C112.913 119.87 108.087 119.195 108.932 123.896C109.777 128.598 114.3 126.782 114.3 126.643C114.3 126.504 113.039 119.906 113.039 119.906Z" fill="url(#paint6_linear_74_9579)" fill-opacity="0.8" style="mix-blend-mode:color-burn"/>
<path d="M113.039 119.906C112.913 119.87 108.087 119.195 108.932 123.896C109.777 128.598 114.3 126.782 114.3 126.643C114.3 126.504 113.039 119.906 113.039 119.906Z" fill="#2F3941" fill-opacity="0.15" style="mix-blend-mode:multiply"/>
<path d="M112.547 125.122C112.547 125.122 112.476 125.194 112.351 125.279C112.17 125.398 111.951 125.443 111.738 125.404C111.21 125.31 110.651 124.599 110.476 123.753C110.386 123.354 110.386 122.94 110.476 122.541C110.495 122.386 110.55 122.239 110.638 122.11C110.726 121.981 110.844 121.876 110.982 121.803C111.071 121.761 111.173 121.751 111.269 121.777C111.365 121.802 111.448 121.861 111.505 121.942C111.59 122.058 111.577 122.161 111.604 122.161C111.63 122.161 111.689 122.067 111.604 121.879C111.557 121.768 111.473 121.676 111.367 121.62C111.22 121.545 111.05 121.53 110.892 121.579C110.705 121.654 110.54 121.775 110.413 121.932C110.286 122.089 110.202 122.275 110.168 122.474C110.043 122.911 110.027 123.371 110.118 123.816C110.32 124.76 110.964 125.556 111.675 125.632C111.808 125.646 111.943 125.63 112.069 125.585C112.195 125.54 112.31 125.468 112.404 125.373C112.561 125.234 112.565 125.127 112.547 125.122Z" fill="#263238"/>
<path d="M112.148 105.77C110.708 104.048 113.49 100.872 115.727 99.7938C117.964 98.7157 121.185 99.4047 123.618 99.8341C125.153 100.107 126.709 100.572 128.239 100.281C129.255 100.027 130.226 99.6217 131.12 99.0781C132.017 98.5443 133.012 98.1959 134.046 98.0537C134.566 97.9897 135.093 98.0688 135.572 98.2824C136.05 98.496 136.461 98.8361 136.761 99.266C137.293 100.161 136.922 101.561 135.92 101.852C136.222 101.622 136.575 101.47 136.949 101.407C137.323 101.344 137.707 101.373 138.067 101.491C138.427 101.609 138.754 101.813 139.018 102.084C139.282 102.356 139.477 102.688 139.585 103.052C139.692 103.415 139.71 103.799 139.637 104.171C139.564 104.543 139.402 104.892 139.164 105.188C138.926 105.483 138.621 105.716 138.273 105.868C137.925 106.019 137.546 106.084 137.168 106.057C137.763 105.448 138.917 106.142 138.957 106.992C138.998 107.841 138.327 108.562 137.615 109.013C135.777 110.168 133.442 110.226 131.303 109.841C129.165 109.456 127.116 108.66 124.987 108.222C122.858 107.783 119.284 106.951 117.36 107.967C115.946 108.709 115.168 110.651 114.269 110.387C113.843 110.23 113.46 109.976 113.149 109.645C112.839 109.315 112.609 108.916 112.479 108.481C112.237 107.608 112.136 106.702 112.18 105.797" fill="#263238"/>
<path d="M102.947 127.578C102.859 127.558 102.776 127.522 102.701 127.471C102.48 127.329 102.303 127.127 102.191 126.889C102.018 126.509 101.965 126.084 102.039 125.672C102.155 125.131 102.452 124.645 102.88 124.295C103.389 123.876 103.961 123.542 104.576 123.306C105.267 123.054 105.93 122.733 106.557 122.349C107.214 121.887 107.715 121.236 107.993 120.483C108.299 119.672 108.44 118.809 108.409 117.942C108.365 116.153 107.868 114.476 107.747 112.896C107.627 111.317 107.828 109.837 108.499 108.812C109.003 107.988 109.803 107.388 110.736 107.135C110.985 107.072 111.243 107.046 111.5 107.059C111.59 107.06 111.679 107.074 111.764 107.099C111.425 107.097 111.087 107.139 110.758 107.224C109.872 107.504 109.12 108.102 108.646 108.902C108.025 109.895 107.81 111.335 107.967 112.879C108.123 114.422 108.602 116.099 108.655 117.938C108.684 118.836 108.532 119.73 108.208 120.568C107.909 121.364 107.373 122.049 106.674 122.532C106.032 122.918 105.353 123.238 104.647 123.489C104.049 123.711 103.489 124.025 102.988 124.42C102.579 124.743 102.289 125.193 102.165 125.699C102.083 126.085 102.12 126.485 102.272 126.849C102.41 127.16 102.648 127.416 102.947 127.578Z" fill="#455A64"/>
<path d="M136.072 101.74C136.135 101.693 136.204 101.655 136.278 101.628C136.361 101.587 136.448 101.552 136.537 101.525C136.661 101.483 136.788 101.451 136.917 101.431C137.342 101.364 137.776 101.395 138.186 101.52C138.597 101.646 138.974 101.863 139.288 102.156C139.607 102.544 139.845 102.991 139.989 103.472C140.134 103.952 140.181 104.457 140.129 104.956C140.069 105.576 139.885 106.178 139.589 106.726C139.292 107.274 138.889 107.756 138.402 108.146C137.284 109.046 135.923 109.593 134.493 109.716C132.939 109.849 131.375 109.754 129.849 109.434C127.43 108.96 125.113 108.064 123.005 106.786C122.101 106.227 121.156 105.738 120.178 105.323C119.324 104.977 118.415 104.79 117.494 104.773C116.154 104.744 114.828 105.051 113.638 105.667C113.208 105.908 112.791 106.173 112.39 106.459C112.748 106.107 113.153 105.806 113.593 105.565C114.787 104.9 116.132 104.556 117.498 104.567C118.442 104.574 119.376 104.755 120.254 105.099C121.243 105.514 122.198 106.003 123.112 106.562C125.206 107.813 127.5 108.693 129.894 109.161C131.397 109.48 132.939 109.577 134.47 109.452C135.857 109.337 137.178 108.814 138.268 107.949C138.737 107.578 139.127 107.118 139.416 106.595C139.705 106.072 139.886 105.497 139.95 104.902C140.005 104.426 139.965 103.944 139.833 103.484C139.701 103.023 139.479 102.593 139.181 102.218C138.883 101.934 138.525 101.719 138.133 101.59C137.742 101.461 137.326 101.42 136.917 101.471C136.628 101.535 136.345 101.625 136.072 101.74Z" fill="#455A64"/>
<path d="M133.456 97.8256C133.472 98.185 133.416 98.544 133.291 98.8813C132.942 99.8134 132.289 100.601 131.439 101.118C130.867 101.49 130.232 101.754 129.564 101.896C128.799 102.051 128.015 102.091 127.238 102.017C125.597 101.896 123.879 101.333 122.076 100.867C120.273 100.402 118.47 100.156 116.914 100.572C115.532 100.938 114.303 101.736 113.407 102.849C112.79 103.589 112.333 104.448 112.065 105.372C111.886 106.03 111.863 106.414 111.832 106.41C111.826 106.318 111.826 106.225 111.832 106.133C111.856 105.869 111.9 105.607 111.962 105.35C112.2 104.396 112.645 103.506 113.263 102.742C114.169 101.583 115.424 100.747 116.842 100.357C118.453 99.9102 120.304 100.165 122.116 100.635C123.928 101.105 125.632 101.668 127.238 101.798C127.995 101.876 128.759 101.845 129.506 101.704C130.153 101.572 130.771 101.327 131.331 100.979C132.161 100.49 132.81 99.7466 133.183 98.8589C133.303 98.5227 133.394 98.177 133.456 97.8256Z" fill="#455A64"/>
<path d="M130.735 129.39C130.341 129.541 129.923 129.62 129.5 129.622C129.063 129.597 128.652 129.408 128.346 129.095C128.166 128.903 128.028 128.674 127.943 128.425C127.857 128.176 127.826 127.912 127.85 127.65C127.863 127.515 127.893 127.383 127.939 127.256C127.997 127.135 127.979 127.144 128.082 127.131C128.185 127.117 128.346 127.131 128.48 127.153L128.896 127.184C129.433 127.225 129.916 127.256 130.324 127.278C130.769 127.34 131.222 127.331 131.666 127.252C131.247 127.099 130.808 127.008 130.364 126.983C129.961 126.925 129.469 126.867 128.946 126.804L128.534 126.759C128.386 126.738 128.237 126.724 128.087 126.719C127.968 126.722 127.854 126.763 127.76 126.835C127.677 126.909 127.614 127.003 127.577 127.108C127.516 127.269 127.477 127.438 127.461 127.609C127.431 127.931 127.473 128.256 127.584 128.56C127.694 128.864 127.871 129.14 128.1 129.367C128.482 129.73 128.992 129.928 129.518 129.918C129.862 129.919 130.2 129.825 130.493 129.645C130.646 129.52 130.748 129.408 130.735 129.39Z" fill="#263238"/>
<path d="M132.954 136.659C132.954 136.659 128.445 138.368 124.057 137.106C124.057 137.106 127.367 139.884 133.406 138.82L132.954 136.659Z" fill="#E6EBEE"/>
<path d="M132.954 136.659C132.954 136.659 128.445 138.368 124.057 137.106C124.057 137.106 127.367 139.884 133.406 138.82L132.954 136.659Z" fill="url(#paint7_linear_74_9579)" fill-opacity="0.8" style="mix-blend-mode:color-burn"/>
<path d="M132.954 136.659C132.954 136.659 128.445 138.368 124.057 137.106C124.057 137.106 127.367 139.884 133.406 138.82L132.954 136.659Z" fill="#2F3941" fill-opacity="0.15" style="mix-blend-mode:multiply"/>
<path d="M126.074 200.794C126.291 200.652 126.498 200.493 126.691 200.32C126.883 200.163 127.138 199.971 127.411 199.765C127.684 199.559 128.015 199.318 128.395 199.072C128.776 198.826 129.169 198.557 129.63 198.302C130.091 198.047 130.579 197.779 131.102 197.511C133.397 196.381 135.864 195.643 138.402 195.328C138.988 195.265 139.543 195.193 140.067 195.18C140.59 195.167 141.078 195.144 141.52 195.149C141.963 195.153 142.37 195.175 142.724 195.189C143.077 195.202 143.381 195.229 143.618 195.256C143.874 195.295 144.133 195.313 144.392 195.31C144.141 195.245 143.885 195.197 143.627 195.167C143.331 195.116 143.033 195.08 142.733 195.059C142.379 195.032 141.977 194.983 141.525 194.983C141.073 194.983 140.585 194.956 140.058 194.983C139.53 195.01 138.966 195.055 138.376 195.108C137.096 195.268 135.83 195.528 134.591 195.887C133.361 196.265 132.165 196.742 131.012 197.314C130.489 197.591 129.984 197.846 129.541 198.132C129.098 198.419 128.677 198.674 128.311 198.933C127.944 199.193 127.622 199.443 127.34 199.658C127.058 199.873 126.825 200.078 126.642 200.248C126.438 200.414 126.248 200.597 126.074 200.794Z" fill="#FAFAFA"/>
<path d="M152.366 177.819L148.698 161.925C147.293 155.948 145.629 150.204 142.833 149.525V151.372L144.032 196.781C144.032 196.781 151.507 205.281 161.031 200.566C164.01 199.085 169.445 188.685 169.445 188.685C169.445 188.685 182.091 166.121 181.564 165.096C181.036 164.072 173.31 154.114 172.523 153.618L152.366 177.819Z" fill="#D8DCDE"/>
<path d="M114.618 145.024C107.326 146.42 99.1173 150.674 95.3373 161.576C93.9595 165.557 83.9212 194.907 83.9212 194.907L101.041 194.549L103.805 188.506L102.463 198.325L101.263 213.056H144.536L144.231 191.959L143.815 149.999C143.815 149.999 143.332 149.363 135.875 145.252C131.25 142.698 114.618 145.024 114.618 145.024Z" fill="#D8DCDE"/>
<g opacity="0.2">
<path opacity="0.2" d="M110.305 173.09C109.593 181.948 108.779 184.685 108.068 193.543C108.051 194.381 107.9 195.212 107.621 196.003C107.471 196.396 107.231 196.749 106.921 197.033C106.61 197.316 106.237 197.523 105.831 197.636C104.57 197.891 102.932 198.803 102.579 197.569L103.773 189.038C104.03 187.797 104.426 186.589 104.954 185.437C107.607 179.545 108.587 179.201 110.323 173.09" fill="black"/>
</g>
<path d="M135.881 149.793L135.738 148.871L134.355 140.032C134.316 139.775 134.18 139.543 133.976 139.382C133.772 139.221 133.514 139.143 133.255 139.164L116.234 140.587C115.72 140.629 115.243 140.873 114.908 141.265C114.573 141.657 114.406 142.166 114.444 142.68L114.825 147.816L120.139 154.749L127.793 155.944" fill="#D8DCDE"/>
<path d="M144.428 166.412C144.361 166.412 144.312 173.336 144.312 181.876C144.312 190.416 144.361 197.341 144.428 197.341C144.495 197.341 144.544 190.416 144.544 181.876C144.544 173.336 144.491 166.412 144.428 166.412Z" fill="#263238"/>
<path d="M100.674 195.972C100.674 195.972 100.674 195.94 100.728 195.873C100.781 195.806 100.813 195.694 100.871 195.569L101.39 194.393L103.255 190.049L109.334 175.685C110.515 172.876 111.638 170.2 112.658 167.762C113.174 166.62 113.543 165.418 113.759 164.184C113.947 163.105 114.046 162.013 114.054 160.918C114.111 159.332 113.88 157.748 113.374 156.243L113.235 155.872L113.079 155.559C113.005 155.392 112.915 155.234 112.81 155.085L112.622 154.808C112.601 154.776 112.577 154.746 112.551 154.718C112.845 155.213 113.092 155.734 113.289 156.275C113.757 157.776 113.96 159.347 113.888 160.918C113.881 163.251 113.395 165.558 112.461 167.695L109.12 175.609L103.103 190L101.314 194.37L100.835 195.565L100.714 195.878C100.698 195.908 100.684 195.939 100.674 195.972Z" fill="#263238"/>
<path d="M109.312 146.586C109.469 146.744 109.635 146.894 109.809 147.033C110.312 147.416 110.86 147.736 111.442 147.986C112.363 148.37 113.327 148.64 114.314 148.791C115.618 148.993 116.932 149.123 118.25 149.18C119.718 149.243 121.319 149.216 123.037 149.247C124.861 149.244 126.679 149.466 128.45 149.909C130.411 150.373 132.186 151.419 133.54 152.911C134.215 153.723 134.698 154.677 134.954 155.702C135.227 156.754 135.208 157.859 134.9 158.901C134.729 159.415 134.477 159.898 134.153 160.332C133.827 160.754 133.416 161.101 132.945 161.352C132.489 161.602 131.969 161.711 131.451 161.665C130.945 161.613 130.476 161.374 130.136 160.994C129.834 160.595 129.618 160.137 129.504 159.649C129.39 159.161 129.38 158.655 129.474 158.163C129.548 157.677 129.699 157.206 129.921 156.767C130.142 156.339 130.407 155.936 130.713 155.564C131.909 154.186 133.519 153.233 135.303 152.848C136.848 152.484 138.459 152.502 139.995 152.902C141.259 153.229 142.466 153.746 143.574 154.436C144.418 154.962 145.214 155.561 145.954 156.226C146.567 156.762 147.001 157.228 147.296 157.532L147.627 157.89C147.663 157.933 147.704 157.972 147.748 158.006C147.221 157.341 146.637 156.722 146.003 156.159C145.271 155.481 144.477 154.873 143.632 154.342C142.513 153.631 141.291 153.096 140.009 152.759C138.447 152.34 136.806 152.312 135.231 152.678C133.402 153.064 131.748 154.036 130.521 155.447C130.208 155.821 129.935 156.225 129.707 156.655C129.481 157.116 129.33 157.61 129.259 158.118C129.181 158.636 129.19 159.164 129.286 159.679C129.383 160.215 129.619 160.717 129.971 161.133C130.347 161.555 130.867 161.821 131.429 161.88C131.993 161.934 132.56 161.817 133.057 161.545C133.556 161.278 133.994 160.909 134.341 160.462C134.682 160.006 134.948 159.499 135.128 158.959C135.45 157.877 135.468 156.727 135.182 155.635C134.921 154.574 134.421 153.587 133.719 152.75C132.331 151.228 130.517 150.16 128.512 149.686C126.722 149.248 124.884 149.035 123.041 149.05C121.319 149.024 119.718 149.05 118.259 149.01C116.946 148.964 115.636 148.846 114.336 148.657C113.355 148.516 112.394 148.261 111.473 147.896C110.895 147.661 110.346 147.361 109.836 147.002C109.657 146.881 109.536 146.769 109.447 146.706C109.406 146.662 109.361 146.621 109.312 146.586Z" fill="#FAFAFA"/>
<path d="M94.5187 165.204C94.5814 165.221 94.6459 165.232 94.711 165.235C94.8363 165.235 95.0197 165.266 95.2613 165.275C95.9371 165.298 96.6137 165.281 97.2877 165.226C98.1421 165.163 99.1531 165.034 100.271 164.877C101.39 164.721 102.615 164.555 103.913 164.488C105.126 164.422 106.342 164.514 107.532 164.761C108.504 164.959 109.438 165.314 110.296 165.812C111.074 166.287 111.764 166.893 112.336 167.601C112.312 167.542 112.279 167.486 112.238 167.436C112.143 167.278 112.036 167.128 111.916 166.989C111.482 166.459 110.964 166.006 110.381 165.647C109.517 165.119 108.571 164.741 107.581 164.528C106.373 164.264 105.134 164.165 103.899 164.233C102.589 164.3 101.358 164.479 100.24 164.645C99.1218 164.81 98.1198 164.958 97.2743 165.038C96.4288 165.119 95.7354 165.154 95.2613 165.159C95.0131 165.159 94.765 165.174 94.5187 165.204Z" fill="#FAFAFA"/>
<path d="M105.269 185.258C106.11 185.062 106.975 184.988 107.837 185.039C108.848 185.107 109.848 185.286 110.82 185.571C111.961 185.88 113.236 186.332 114.667 186.774C116.222 187.301 117.849 187.584 119.49 187.611C121.38 187.611 123.249 187.222 124.983 186.47C126.91 185.656 128.624 184.41 129.993 182.829C130.734 182.003 131.338 181.063 131.783 180.046C132.256 178.994 132.433 177.833 132.297 176.687C132.141 175.532 131.578 174.471 130.709 173.694C130.277 173.318 129.76 173.054 129.201 172.925C128.655 172.809 128.09 172.825 127.551 172.97C127.012 173.116 126.515 173.387 126.101 173.761C125.697 174.132 125.416 174.617 125.296 175.153C125.18 175.676 125.223 176.223 125.417 176.723C125.605 177.203 125.89 177.64 126.254 178.007C126.947 178.701 127.786 179.235 128.709 179.568C129.144 179.733 129.594 179.857 130.051 179.939C130.275 179.979 130.499 180.029 130.718 180.06L131.385 180.14C133.019 180.302 134.669 180.186 136.265 179.796C137.581 179.483 138.849 178.995 140.036 178.347C140.934 177.862 141.775 177.28 142.546 176.611L142.993 176.222L143.36 175.85C143.558 175.663 143.743 175.463 143.914 175.251L144.237 174.866C144.273 174.825 144.306 174.78 144.335 174.732C144.292 174.769 144.251 174.81 144.214 174.853L143.879 175.22C143.701 175.425 143.512 175.619 143.311 175.801L142.939 176.164L142.492 176.544C141.718 177.194 140.877 177.76 139.982 178.23C138.802 178.861 137.543 179.334 136.238 179.635C134.658 180.011 133.026 180.117 131.411 179.948L130.758 179.868C130.539 179.832 130.311 179.783 130.096 179.742C129.649 179.661 129.21 179.539 128.785 179.375C127.892 179.05 127.081 178.532 126.41 177.859C126.068 177.513 125.8 177.1 125.623 176.647C125.447 176.186 125.408 175.684 125.511 175.202C125.644 174.709 125.908 174.262 126.276 173.909C126.645 173.556 127.102 173.31 127.6 173.198C128.11 173.051 128.648 173.035 129.166 173.154C129.683 173.272 130.162 173.519 130.557 173.873C131.385 174.611 131.92 175.623 132.064 176.723C132.193 177.825 132.023 178.942 131.572 179.957C131.139 180.95 130.554 181.869 129.837 182.681C128.491 184.234 126.807 185.458 124.916 186.26C123.21 187.005 121.369 187.394 119.508 187.405C117.883 187.385 116.271 187.114 114.73 186.6C113.303 186.153 112.046 185.732 110.87 185.432C109.887 185.156 108.878 184.99 107.859 184.936C107.488 184.913 107.116 184.913 106.745 184.936C106.427 184.985 106.155 185.007 105.94 185.057L105.452 185.177C105.388 185.196 105.326 185.223 105.269 185.258Z" fill="#FAFAFA"/>
<path d="M144.576 180.485C144.616 180.485 144.822 180.038 145.256 179.286C146.391 177.379 148.047 175.835 150.029 174.835C150.789 174.45 151.29 174.28 151.277 174.24C151.151 174.251 151.028 174.28 150.91 174.325C150.584 174.422 150.266 174.541 149.957 174.683C148.932 175.15 147.99 175.78 147.166 176.548C146.34 177.316 145.647 178.213 145.113 179.205C144.943 179.502 144.794 179.81 144.665 180.127C144.62 180.242 144.59 180.362 144.576 180.485Z" fill="#FAFAFA"/>
<path d="M161.932 199.631C161.932 199.631 161.963 199.595 162.004 199.519C162.044 199.443 162.111 199.322 162.187 199.184C162.348 198.888 162.581 198.446 162.867 197.873C163.698 196.257 164.384 194.569 164.916 192.831C165.272 191.624 165.486 190.38 165.555 189.123C165.591 188.421 165.563 187.717 165.47 187.021C165.359 186.283 165.183 185.557 164.943 184.851C164.42 183.325 163.517 181.957 162.317 180.879C161.676 180.291 160.923 179.839 160.102 179.55C159.282 179.262 158.411 179.143 157.544 179.201C156.642 179.269 155.8 179.678 155.191 180.346C154.901 180.677 154.69 181.069 154.575 181.493C154.459 181.917 154.442 182.361 154.524 182.793C154.621 183.217 154.842 183.602 155.159 183.898C155.469 184.182 155.844 184.386 156.251 184.493C157.038 184.698 157.874 184.597 158.59 184.211C159.255 183.853 159.836 183.357 160.295 182.757C160.735 182.202 161.097 181.59 161.373 180.937C161.857 179.765 162.058 178.496 161.959 177.233C161.868 176.19 161.564 175.177 161.064 174.258C160.694 173.564 160.22 172.931 159.66 172.379C159.309 172.029 158.924 171.716 158.51 171.444C158.371 171.35 158.255 171.292 158.179 171.247L158.063 171.189C158.063 171.189 158.206 171.292 158.483 171.484C158.882 171.769 159.255 172.09 159.597 172.442C160.133 172.998 160.585 173.63 160.939 174.316C161.414 175.224 161.699 176.22 161.775 177.242C161.862 178.481 161.653 179.722 161.167 180.865C160.896 181.499 160.54 182.093 160.111 182.632C159.666 183.206 159.105 183.68 158.465 184.023C157.797 184.383 157.016 184.476 156.282 184.283C155.906 184.195 155.561 184.004 155.285 183.733C155.01 183.461 154.814 183.119 154.721 182.744C154.65 182.349 154.669 181.943 154.775 181.555C154.882 181.168 155.075 180.81 155.338 180.507C155.909 179.885 156.697 179.504 157.539 179.443C158.375 179.387 159.213 179.502 160.004 179.78C160.794 180.057 161.52 180.492 162.138 181.058C163.309 182.111 164.194 183.444 164.71 184.931C164.951 185.622 165.129 186.333 165.242 187.056C165.335 187.741 165.367 188.433 165.336 189.123C165.274 190.366 165.069 191.599 164.728 192.796C164.212 194.529 163.554 196.217 162.76 197.842L162.12 199.184C162.053 199.327 161.999 199.443 161.954 199.533C161.91 199.622 161.932 199.631 161.932 199.631Z" fill="#FAFAFA"/>
<path d="M167.456 160.14C167.456 160.14 167.434 160.203 167.416 160.323C167.385 160.504 167.362 160.686 167.349 160.869C167.29 161.537 167.29 162.209 167.349 162.878C167.53 165.103 168.291 167.241 169.556 169.08C170.821 170.919 172.547 172.395 174.56 173.359C175.163 173.653 175.79 173.894 176.434 174.079C176.658 174.151 176.841 174.182 176.962 174.213C177.083 174.244 177.15 174.249 177.15 174.24C176.926 174.143 176.696 174.061 176.461 173.994C175.834 173.776 175.222 173.515 174.632 173.211C172.672 172.221 170.993 170.754 169.748 168.945C168.504 167.137 167.734 165.044 167.51 162.86C167.439 162.2 167.414 161.537 167.434 160.874C167.457 160.63 167.465 160.385 167.456 160.14Z" fill="#FAFAFA"/>
<path d="M90.604 179.536C91.2694 179.953 91.8543 180.487 92.3307 181.111C92.7781 181.688 93.2254 182.453 93.7309 183.258C94.2853 184.16 94.925 185.006 95.641 185.786C96.9507 187.201 98.5037 188.369 100.226 189.235C100.745 189.497 101.28 189.726 101.828 189.919C102.028 189.998 102.234 190.058 102.445 190.098C102.26 189.992 102.065 189.904 101.864 189.834C101.488 189.669 100.942 189.436 100.302 189.087C98.6309 188.189 97.1194 187.02 95.8289 185.629C95.1202 184.862 94.4838 184.031 93.9277 183.147C93.483 182.407 92.9976 181.694 92.4739 181.008C92.11 180.549 91.6769 180.149 91.19 179.823C91.058 179.735 90.9189 179.659 90.774 179.595C90.6577 179.55 90.604 179.528 90.604 179.536Z" fill="#FAFAFA"/>
<path d="M114.78 145.561C114.846 145.589 114.915 145.607 114.986 145.615L115.581 145.722C116.1 145.807 116.851 145.919 117.777 146.044C119.638 146.295 122.215 146.59 125.073 146.8C126.412 146.923 127.756 146.97 129.099 146.943C130.208 146.916 131.306 146.728 132.36 146.384C133.072 146.154 133.744 145.814 134.351 145.378C134.517 145.261 134.675 145.134 134.825 144.997C134.924 144.899 134.973 144.85 134.968 144.841C134.964 144.832 134.736 145.02 134.302 145.288C133.684 145.686 133.014 145.996 132.311 146.21C131.267 146.528 130.182 146.696 129.09 146.711C127.747 146.725 126.403 146.671 125.064 146.55C122.215 146.339 119.638 146.076 117.777 145.865L115.572 145.615C115.31 145.578 115.045 145.56 114.78 145.561Z" fill="#263238"/>
<path d="M84.1233 198.074C83.7866 199.805 83.8347 201.588 84.2643 203.298C84.6938 205.008 85.4943 206.603 86.6089 207.969C87.7235 209.335 89.1249 210.439 90.7139 211.203C92.3028 211.967 94.0403 212.372 95.8033 212.389L129.689 212.013L128.795 201.04L99.7801 196.683" fill="#E6EBEE"/>
<path d="M84.1233 198.074C83.7866 199.805 83.8347 201.588 84.2643 203.298C84.6938 205.008 85.4943 206.603 86.6089 207.969C87.7235 209.335 89.1249 210.439 90.7139 211.203C92.3028 211.967 94.0403 212.372 95.8033 212.389L129.689 212.013L128.795 201.04L99.7801 196.683" fill="url(#paint8_linear_74_9579)" fill-opacity="0.8" style="mix-blend-mode:color-burn"/>
<path d="M84.1233 198.074C83.7866 199.805 83.8347 201.588 84.2643 203.298C84.6938 205.008 85.4943 206.603 86.6089 207.969C87.7235 209.335 89.1249 210.439 90.7139 211.203C92.3028 211.967 94.0403 212.372 95.8033 212.389L129.689 212.013L128.795 201.04L99.7801 196.683" fill="#2F3941" fill-opacity="0.15" style="mix-blend-mode:multiply"/>
<path d="M126.717 201.519C126.874 201.568 128.829 200.691 130.582 199.882C132.443 199.02 134.485 198.624 136.532 198.727L144.611 199.139C144.611 199.139 144.114 200.481 143.269 200.928C142.424 201.376 137.355 201.519 137.355 201.519L137.615 201.783C138.674 202.874 140.12 203.507 141.641 203.545H142.415C142.988 203.5 143.553 203.389 144.101 203.214L146.092 202.409C146.696 202.141 147.331 202.181 147.595 202.789C147.859 203.398 147.657 204.095 146.011 204.923C145.094 205.37 141.685 206.565 141.685 206.565C141.662 207.05 141.595 207.532 141.484 208.005C141.337 208.502 139.999 208.998 139.999 208.998C139.651 209.734 139.254 210.446 138.809 211.128C138.652 211.307 137.44 211.687 136.147 212.049C134.063 212.632 131.857 212.615 129.782 212L126.704 211.078V201.684" fill="#E6EBEE"/>
<path d="M126.717 201.519C126.874 201.568 128.829 200.691 130.582 199.882C132.443 199.02 134.485 198.624 136.532 198.727L144.611 199.139C144.611 199.139 144.114 200.481 143.269 200.928C142.424 201.376 137.355 201.519 137.355 201.519L137.615 201.783C138.674 202.874 140.12 203.507 141.641 203.545H142.415C142.988 203.5 143.553 203.389 144.101 203.214L146.092 202.409C146.696 202.141 147.331 202.181 147.595 202.789C147.859 203.398 147.657 204.095 146.011 204.923C145.094 205.37 141.685 206.565 141.685 206.565C141.662 207.05 141.595 207.532 141.484 208.005C141.337 208.502 139.999 208.998 139.999 208.998C139.651 209.734 139.254 210.446 138.809 211.128C138.652 211.307 137.44 211.687 136.147 212.049C134.063 212.632 131.857 212.615 129.782 212L126.704 211.078V201.684" fill="url(#paint9_linear_74_9579)" fill-opacity="0.8" style="mix-blend-mode:color-burn"/>
<path d="M126.717 201.519C126.874 201.568 128.829 200.691 130.582 199.882C132.443 199.02 134.485 198.624 136.532 198.727L144.611 199.139C144.611 199.139 144.114 200.481 143.269 200.928C142.424 201.376 137.355 201.519 137.355 201.519L137.615 201.783C138.674 202.874 140.12 203.507 141.641 203.545H142.415C142.988 203.5 143.553 203.389 144.101 203.214L146.092 202.409C146.696 202.141 147.331 202.181 147.595 202.789C147.859 203.398 147.657 204.095 146.011 204.923C145.094 205.37 141.685 206.565 141.685 206.565C141.662 207.05 141.595 207.532 141.484 208.005C141.337 208.502 139.999 208.998 139.999 208.998C139.651 209.734 139.254 210.446 138.809 211.128C138.652 211.307 137.44 211.687 136.147 212.049C134.063 212.632 131.857 212.615 129.782 212L126.704 211.078V201.684" fill="#2F3941" fill-opacity="0.15" style="mix-blend-mode:multiply"/>
<path d="M137.767 207.652C139.19 207.616 140.586 207.248 141.842 206.578C141.842 206.524 140.948 206.864 139.816 207.155C138.684 207.446 137.763 207.585 137.767 207.652Z" fill="#E6EBEE"/>
<path d="M137.767 207.652C139.19 207.616 140.586 207.248 141.842 206.578C141.842 206.524 140.948 206.864 139.816 207.155C138.684 207.446 137.763 207.585 137.767 207.652Z" fill="url(#paint10_linear_74_9579)" fill-opacity="0.8" style="mix-blend-mode:color-burn"/>
<path d="M137.767 207.652C139.19 207.616 140.586 207.248 141.842 206.578C141.842 206.524 140.948 206.864 139.816 207.155C138.684 207.446 137.763 207.585 137.767 207.652Z" fill="#2F3941" fill-opacity="0.15" style="mix-blend-mode:multiply"/>
<path d="M138.055 209.535C138.434 209.614 138.828 209.584 139.191 209.45C139.571 209.38 139.924 209.207 140.211 208.949C139.845 209.022 139.486 209.125 139.138 209.258C138.77 209.322 138.408 209.415 138.055 209.535Z" fill="#E6EBEE"/>
<path d="M138.055 209.535C138.434 209.614 138.828 209.584 139.191 209.45C139.571 209.38 139.924 209.207 140.211 208.949C139.845 209.022 139.486 209.125 139.138 209.258C138.77 209.322 138.408 209.415 138.055 209.535Z" fill="url(#paint11_linear_74_9579)" fill-opacity="0.8" style="mix-blend-mode:color-burn"/>
<path d="M138.055 209.535C138.434 209.614 138.828 209.584 139.191 209.45C139.571 209.38 139.924 209.207 140.211 208.949C139.845 209.022 139.486 209.125 139.138 209.258C138.77 209.322 138.408 209.415 138.055 209.535Z" fill="#2F3941" fill-opacity="0.15" style="mix-blend-mode:multiply"/>
<path d="M136.578 200.79C136.755 201.038 136.964 201.263 137.2 201.456C137.736 201.968 138.327 202.418 138.962 202.798C139.603 203.172 140.299 203.441 141.025 203.594C141.316 203.672 141.618 203.706 141.919 203.693C140.919 203.463 139.954 203.104 139.047 202.624C138.426 202.249 137.835 201.826 137.28 201.358C137.063 201.148 136.828 200.958 136.578 200.79Z" fill="#E6EBEE"/>
<path d="M136.578 200.79C136.755 201.038 136.964 201.263 137.2 201.456C137.736 201.968 138.327 202.418 138.962 202.798C139.603 203.172 140.299 203.441 141.025 203.594C141.316 203.672 141.618 203.706 141.919 203.693C140.919 203.463 139.954 203.104 139.047 202.624C138.426 202.249 137.835 201.826 137.28 201.358C137.063 201.148 136.828 200.958 136.578 200.79Z" fill="url(#paint12_linear_74_9579)" fill-opacity="0.8" style="mix-blend-mode:color-burn"/>
<path d="M136.578 200.79C136.755 201.038 136.964 201.263 137.2 201.456C137.736 201.968 138.327 202.418 138.962 202.798C139.603 203.172 140.299 203.441 141.025 203.594C141.316 203.672 141.618 203.706 141.919 203.693C140.919 203.463 139.954 203.104 139.047 202.624C138.426 202.249 137.835 201.826 137.28 201.358C137.063 201.148 136.828 200.958 136.578 200.79Z" fill="#2F3941" fill-opacity="0.15" style="mix-blend-mode:multiply"/>
<path d="M125.895 200.047L126.719 212.456H94.8009C92.6338 212.458 90.5073 211.868 88.65 210.752C86.5479 209.489 84.886 207.609 83.8903 205.367C82.8946 203.126 82.6134 200.633 83.0851 198.226C83.5443 195.87 84.2335 193.564 85.1429 191.342L101.193 193.986L100.679 195.981L125.895 200.047Z" fill="#D8DCDE"/>
<path d="M93.2848 194.938C93.3905 194.969 93.4981 194.993 93.6069 195.01L94.5418 195.18L97.9908 195.753L109.335 197.542L120.693 199.282L124.138 199.783L125.077 199.908C125.187 199.924 125.297 199.933 125.408 199.935C125.302 199.898 125.193 199.873 125.082 199.859L124.151 199.694L120.716 199.117L109.371 197.327L97.9908 195.574L94.5463 195.073L93.6069 194.947C93.5002 194.933 93.3922 194.93 93.2848 194.938Z" fill="#263238"/>
<path d="M109.623 212.465C109.681 212.465 109.43 211.57 109.399 210.108C109.392 209.71 109.409 209.313 109.448 208.918C109.487 208.467 109.552 208.019 109.645 207.576C109.867 206.555 110.215 205.566 110.683 204.632C111.162 203.703 111.747 202.832 112.427 202.038L112.875 201.514C113.027 201.344 113.192 201.197 113.344 201.045C113.644 200.736 113.962 200.49 114.239 200.253C115.38 199.358 116.19 198.911 116.163 198.87C115.965 198.95 115.775 199.047 115.595 199.161C115.372 199.277 115.157 199.407 114.95 199.55C114.713 199.72 114.418 199.886 114.136 200.128C113.814 200.369 113.506 200.629 113.215 200.906C113.058 201.058 112.884 201.201 112.727 201.353L112.24 201.881C111.539 202.681 110.938 203.562 110.45 204.507C109.977 205.46 109.628 206.471 109.412 207.513C109.321 207.969 109.261 208.431 109.233 208.895C109.205 209.297 109.205 209.701 109.233 210.103C109.242 210.437 109.272 210.77 109.323 211.101C109.347 211.35 109.391 211.596 109.453 211.839C109.491 212.052 109.548 212.262 109.623 212.465Z" fill="#FAFAFA"/>
<path d="M90.1893 211.53C90.6878 211.527 91.1845 211.469 91.67 211.356C92.2424 211.224 92.7977 211.028 93.3252 210.77C94.0244 210.422 94.6561 209.952 95.1906 209.383C95.839 208.685 96.3101 207.841 96.5639 206.923C96.7053 206.412 96.7849 205.886 96.801 205.357C96.8334 204.797 96.7882 204.236 96.6668 203.688C96.5471 203.106 96.3228 202.549 96.0047 202.047C95.6728 201.513 95.211 201.073 94.6627 200.767C94.0957 200.437 93.4436 200.281 92.7884 200.32C92.4515 200.343 92.1229 200.434 91.8223 200.588C91.5217 200.742 91.2553 200.955 91.0393 201.215C90.8157 201.47 90.6478 201.77 90.5461 202.094C90.4445 202.418 90.4113 202.76 90.4488 203.098C90.5037 203.426 90.631 203.737 90.8213 204.009C91.0117 204.282 91.2603 204.508 91.5492 204.672C92.632 205.239 93.8788 205.41 95.0743 205.156C96.7711 204.891 98.3221 204.042 99.4585 202.754C100.595 201.467 101.245 199.822 101.297 198.106C101.325 197.607 101.283 197.107 101.171 196.62C101.213 197.113 101.225 197.607 101.207 198.101C101.124 199.447 100.684 200.747 99.9324 201.868C99.3723 202.69 98.6501 203.389 97.8101 203.922C96.97 204.455 96.0299 204.811 95.0474 204.968C93.9052 205.213 92.7132 205.055 91.6745 204.52C91.4149 204.374 91.1912 204.171 91.0195 203.927C90.8477 203.684 90.7322 203.405 90.6814 203.111C90.655 202.805 90.6894 202.497 90.7824 202.204C90.8755 201.911 91.0254 201.639 91.2236 201.405C91.4219 201.17 91.6645 200.976 91.9376 200.836C92.2107 200.695 92.509 200.609 92.8152 200.584C93.4218 200.542 94.0271 200.681 94.5554 200.982C95.0524 201.279 95.4796 201.68 95.8076 202.157C96.1357 202.634 96.3571 203.176 96.4565 203.746C96.5776 204.277 96.6243 204.822 96.5952 205.366C96.5829 205.878 96.5093 206.387 96.376 206.882C96.1402 207.776 95.6921 208.601 95.0698 209.285C94.5583 209.846 93.9527 210.314 93.2804 210.667C92.7648 210.93 92.2218 211.136 91.6611 211.28C90.7216 211.49 90.1848 211.499 90.1893 211.53Z" fill="#FAFAFA"/>
</g>
<defs>
<filter id="filter0_d_74_9579" x="176.085" y="0.197767" width="234.634" height="238.078" filterUnits="userSpaceOnUse" color-interpolation-filters="sRGB">
<feFlood flood-opacity="0" result="BackgroundImageFix"/>
<feColorMatrix in="SourceAlpha" type="matrix" values="0 0 0 0 0 0 0 0 0 0 0 0 0 0 0 0 0 0 127 0" result="hardAlpha"/>
<feOffset dy="17.0056"/>
<feGaussianBlur stdDeviation="11.9039"/>
<feColorMatrix type="matrix" values="0 0 0 0 0.184314 0 0 0 0 0.223529 0 0 0 0 0.254902 0 0 0 0.15 0"/>
<feBlend mode="normal" in2="BackgroundImageFix" result="effect1_dropShadow_74_9579"/>
<feBlend mode="normal" in="SourceGraphic" in2="effect1_dropShadow_74_9579" result="shape"/>
</filter>
<filter id="filter1_d_74_9579" x="48.0536" y="92.2326" width="164.033" height="171.438" filterUnits="userSpaceOnUse" color-interpolation-filters="sRGB">
<feFlood flood-opacity="0" result="BackgroundImageFix"/>
<feColorMatrix in="SourceAlpha" type="matrix" values="0 0 0 0 0 0 0 0 0 0 0 0 0 0 0 0 0 0 127 0" result="hardAlpha"/>
<feOffset dy="13.9825"/>
<feGaussianBlur stdDeviation="9.78776"/>
<feColorMatrix type="matrix" values="0 0 0 0 0.184314 0 0 0 0 0.223529 0 0 0 0 0.254902 0 0 0 0.15 0"/>
<feBlend mode="normal" in2="BackgroundImageFix" result="effect1_dropShadow_74_9579"/>
<feBlend mode="normal" in="SourceGraphic" in2="effect1_dropShadow_74_9579" result="shape"/>
</filter>
<linearGradient id="paint0_linear_74_9579" x1="172.031" y1="139.039" x2="182.589" y2="168.526" gradientUnits="userSpaceOnUse">
<stop offset="0.213542" stop-color="#323444"/>
<stop offset="0.6875" stop-color="#2F3941" stop-opacity="0.291667"/>
<stop offset="1" stop-color="#2F3941" stop-opacity="0"/>
</linearGradient>
<linearGradient id="paint1_linear_74_9579" x1="186.522" y1="147.353" x2="188.096" y2="152.789" gradientUnits="userSpaceOnUse">
<stop offset="0.213542" stop-color="#323444"/>
<stop offset="0.6875" stop-color="#2F3941" stop-opacity="0.291667"/>
<stop offset="1" stop-color="#2F3941" stop-opacity="0"/>
</linearGradient>
<linearGradient id="paint2_linear_74_9579" x1="185.254" y1="146.023" x2="186.641" y2="151.464" gradientUnits="userSpaceOnUse">
<stop offset="0.213542" stop-color="#323444"/>
<stop offset="0.6875" stop-color="#2F3941" stop-opacity="0.291667"/>
<stop offset="1" stop-color="#2F3941" stop-opacity="0"/>
</linearGradient>
<linearGradient id="paint3_linear_74_9579" x1="184.209" y1="144.868" x2="185.468" y2="149.943" gradientUnits="userSpaceOnUse">
<stop offset="0.213542" stop-color="#323444"/>
<stop offset="0.6875" stop-color="#2F3941" stop-opacity="0.291667"/>
<stop offset="1" stop-color="#2F3941" stop-opacity="0"/>
</linearGradient>
<linearGradient id="paint4_linear_74_9579" x1="153.79" y1="144.794" x2="179.17" y2="197.087" gradientUnits="userSpaceOnUse">
<stop offset="0.213542" stop-color="#323444"/>
<stop offset="0.6875" stop-color="#2F3941" stop-opacity="0.291667"/>
<stop offset="1" stop-color="#2F3941" stop-opacity="0"/>
</linearGradient>
<linearGradient id="paint5_linear_74_9579" x1="114.552" y1="91.5032" x2="147.714" y2="142.082" gradientUnits="userSpaceOnUse">
<stop offset="0.213542" stop-color="#323444"/>
<stop offset="0.6875" stop-color="#2F3941" stop-opacity="0.291667"/>
<stop offset="1" stop-color="#2F3941" stop-opacity="0"/>
</linearGradient>
<linearGradient id="paint6_linear_74_9579" x1="109.709" y1="118.491" x2="113.662" y2="126.657" gradientUnits="userSpaceOnUse">
<stop offset="0.213542" stop-color="#323444"/>
<stop offset="0.6875" stop-color="#2F3941" stop-opacity="0.291667"/>
<stop offset="1" stop-color="#2F3941" stop-opacity="0"/>
</linearGradient>
<linearGradient id="paint7_linear_74_9579" x1="125.556" y1="136.208" x2="125.867" y2="139.52" gradientUnits="userSpaceOnUse">
<stop offset="0.213542" stop-color="#323444"/>
<stop offset="0.6875" stop-color="#2F3941" stop-opacity="0.291667"/>
<stop offset="1" stop-color="#2F3941" stop-opacity="0"/>
</linearGradient>
<linearGradient id="paint8_linear_74_9579" x1="91.2442" y1="193.733" x2="93.9359" y2="215.231" gradientUnits="userSpaceOnUse">
<stop offset="0.213542" stop-color="#323444"/>
<stop offset="0.6875" stop-color="#2F3941" stop-opacity="0.291667"/>
<stop offset="1" stop-color="#2F3941" stop-opacity="0"/>
</linearGradient>
<linearGradient id="paint9_linear_74_9579" x1="130.069" y1="196.126" x2="134.401" y2="214.224" gradientUnits="userSpaceOnUse">
<stop offset="0.213542" stop-color="#323444"/>
<stop offset="0.6875" stop-color="#2F3941" stop-opacity="0.291667"/>
<stop offset="1" stop-color="#2F3941" stop-opacity="0"/>
</linearGradient>
<linearGradient id="paint10_linear_74_9579" x1="138.421" y1="206.37" x2="138.564" y2="207.856" gradientUnits="userSpaceOnUse">
<stop offset="0.213542" stop-color="#323444"/>
<stop offset="0.6875" stop-color="#2F3941" stop-opacity="0.291667"/>
<stop offset="1" stop-color="#2F3941" stop-opacity="0"/>
</linearGradient>
<linearGradient id="paint11_linear_74_9579" x1="138.401" y1="208.831" x2="138.493" y2="209.696" gradientUnits="userSpaceOnUse">
<stop offset="0.213542" stop-color="#323444"/>
<stop offset="0.6875" stop-color="#2F3941" stop-opacity="0.291667"/>
<stop offset="1" stop-color="#2F3941" stop-opacity="0"/>
</linearGradient>
<linearGradient id="paint12_linear_74_9579" x1="137.434" y1="200.244" x2="138.206" y2="204.13" gradientUnits="userSpaceOnUse">
<stop offset="0.213542" stop-color="#323444"/>
<stop offset="0.6875" stop-color="#2F3941" stop-opacity="0.291667"/>
<stop offset="1" stop-color="#2F3941" stop-opacity="0"/>
</linearGradient>
</defs>
</svg>
