<svg width="354" height="258" viewBox="0 0 354 258" fill="none" xmlns="http://www.w3.org/2000/svg">
<path opacity="0.6" fill-rule="evenodd" clip-rule="evenodd" d="M287.613 192.564C330.499 247.5 197.94 241.064 117.268 228.016C36.5958 214.967 -0.548975 163.185 37.8451 135.42C121.336 80.4925 177.999 155.5 287.613 192.564Z" fill="#B3E8D9"/>
<g filter="url(#filter0_d_65_50778)">
<g clip-path="url(#clip0_65_50778)">
<rect width="146.46" height="177.521" rx="7.21242" transform="matrix(0.965926 0.258819 -0.259053 0.965863 188.486 6.01117)" fill="white"/>
</g>
</g>
<rect width="80.1926" height="7.16814" rx="3.58407" transform="matrix(0.965926 0.258819 -0.259053 0.965863 177.729 80.7744)" fill="#E6EBEE"/>
<rect width="45.9792" height="14.4248" rx="7.21242" transform="matrix(0.965926 0.258819 -0.258907 0.965902 191.468 29.5047)" fill="#FFE7C9"/>
<path d="M189.19 58.2154L188.199 54.4962L187.19 54.226L186.327 57.4482L185.005 57.0942L187.165 49.0386L189.946 49.784C190.565 49.9496 191.057 50.1975 191.424 50.5278C191.799 50.8601 192.042 51.2358 192.153 51.6549C192.272 52.076 192.272 52.5107 192.152 52.9589C192.011 53.4843 191.728 53.922 191.303 54.2719C190.887 54.6162 190.342 54.7807 189.667 54.7654L190.766 58.6378L189.19 58.2154ZM187.473 53.1712L188.934 53.5626C189.428 53.6951 189.832 53.6708 190.146 53.4898C190.467 53.3109 190.684 53.0128 190.795 52.5955C190.907 52.1782 190.871 51.8206 190.685 51.5225C190.502 51.2167 190.16 50.9965 189.657 50.8619L188.197 50.4706L187.473 53.1712ZM199.387 57.3574C199.323 57.5969 199.249 57.8091 199.166 57.994L194.287 56.6865C194.189 57.2068 194.268 57.6671 194.525 58.0673C194.782 58.4675 195.158 58.7338 195.653 58.8664C196.364 59.0569 196.946 58.8939 197.399 58.3776L198.825 58.7596C198.474 59.2951 197.993 59.6839 197.381 59.9259C196.78 60.1622 196.104 60.1799 195.355 59.9791C194.744 59.8155 194.232 59.5333 193.817 59.1324C193.413 58.7258 193.138 58.238 192.992 57.6689C192.856 57.0942 192.876 56.4784 193.052 55.8216C193.229 55.1648 193.514 54.6243 193.909 54.2002C194.315 53.7704 194.793 53.4844 195.345 53.3423C195.904 53.2023 196.496 53.2162 197.122 53.3839C197.725 53.5454 198.227 53.8207 198.628 54.2097C199.029 54.5987 199.296 55.068 199.431 55.6175C199.567 56.1592 199.553 56.7392 199.387 57.3574ZM198.119 56.5705C198.242 56.0816 198.173 55.6448 197.912 55.2601C197.65 54.8753 197.268 54.6157 196.766 54.4811C196.31 54.3589 195.881 54.4012 195.477 54.6079C195.076 54.8068 194.778 55.1453 194.584 55.6232L198.119 56.5705ZM202.877 56.0441C203.18 55.8105 203.552 55.645 203.992 55.5476C204.432 55.4502 204.896 55.4668 205.383 55.5972C205.939 55.7463 206.408 56.021 206.789 56.4214C207.18 56.816 207.441 57.2959 207.571 57.8608C207.701 58.4257 207.68 59.0289 207.509 59.6702C207.337 60.3116 207.051 60.8521 206.651 61.2917C206.254 61.7235 205.785 62.0203 205.245 62.182C204.715 62.338 204.171 62.3415 203.615 62.1924C203.128 62.062 202.721 61.8494 202.394 61.5548C202.069 61.2524 201.827 60.9223 201.666 60.5645L200.603 64.5286L199.282 64.1745L201.808 54.7512L203.129 55.1052L202.877 56.0441ZM206.164 59.31C206.282 58.8695 206.291 58.466 206.19 58.0995C206.1 57.7274 205.925 57.4198 205.667 57.1767C205.419 56.9281 205.125 56.7582 204.785 56.6671C204.453 56.578 204.113 56.5781 203.766 56.6674C203.427 56.7587 203.121 56.9418 202.849 57.2166C202.584 57.4936 202.393 57.8522 202.275 58.2927C202.157 58.7331 202.142 59.1433 202.231 59.5232C202.329 59.8974 202.502 60.2089 202.75 60.4576C203.006 60.7083 203.3 60.8782 203.633 60.9673C203.973 61.0584 204.312 61.0583 204.651 60.9669C205 60.87 205.308 60.6792 205.575 60.3945C205.85 60.1119 206.046 59.7504 206.164 59.31ZM211 64.1714C210.398 64.0099 209.889 63.7287 209.475 63.3278C209.062 62.9191 208.784 62.4303 208.638 61.8612C208.494 61.2844 208.511 60.6676 208.687 60.0108C208.861 59.3617 209.158 58.8243 209.578 58.3987C209.999 57.973 210.493 57.6912 211.06 57.5533C211.627 57.4153 212.216 57.4282 212.826 57.5917C213.437 57.7553 213.953 58.0386 214.375 58.4415C214.797 58.8445 215.084 59.3354 215.235 59.9143C215.386 60.4932 215.375 61.1072 215.201 61.7563C215.027 62.4053 214.726 62.9417 214.297 63.3653C213.869 63.7889 213.363 64.0714 212.778 64.2129C212.203 64.3488 211.611 64.3349 211 64.1714ZM211.308 63.0239C211.648 63.115 211.987 63.1187 212.324 63.0351C212.669 62.9536 212.977 62.7754 213.25 62.5006C213.522 62.2257 213.72 61.8565 213.845 61.3929C213.969 60.9292 213.985 60.5152 213.892 60.1508C213.801 59.7786 213.631 59.472 213.381 59.2311C213.13 58.9901 212.835 58.8241 212.495 58.733C212.155 58.6419 211.817 58.6381 211.48 58.7217C211.15 58.8074 210.857 58.9897 210.6 59.2687C210.345 59.54 210.156 59.9074 210.031 60.3711C209.847 61.0588 209.878 61.6385 210.124 62.1103C210.38 62.5765 210.775 62.881 211.308 63.0239ZM218.741 60.2823C219.021 60.0095 219.343 59.8267 219.708 59.7338C220.082 59.6354 220.49 59.6451 220.93 59.7631L220.563 61.1309L220.227 61.0408C219.709 60.9021 219.28 60.9278 218.939 61.1181C218.606 61.3104 218.353 61.7311 218.179 62.3802L217.278 65.7415L215.956 65.3875L217.668 59.0009L218.989 59.355L218.741 60.2823ZM223.676 61.7661L222.728 65.3013C222.664 65.5408 222.672 65.7292 222.751 65.8663C222.84 65.9978 223.019 66.0998 223.29 66.1723L224.101 66.3897L223.806 67.4908L222.763 67.2113C222.168 67.0519 221.749 66.7906 221.507 66.4276C221.265 66.0645 221.227 65.57 221.395 64.9441L222.343 61.4089L221.589 61.207L221.878 60.1291L222.632 60.331L223.057 58.743L224.39 59.1002L223.965 60.6881L225.518 61.1043L225.229 62.1822L223.676 61.7661ZM233.61 63.1608C234.112 63.2954 234.533 63.5198 234.871 63.834C235.217 64.1503 235.447 64.5433 235.561 65.0129C235.676 65.4824 235.655 66.007 235.5 66.5866L234.49 70.3536L233.18 70.0026L234.137 66.4326C234.29 65.8608 234.264 65.3859 234.059 65.008C233.856 64.6223 233.507 64.3632 233.013 64.2306C232.518 64.0981 232.083 64.1471 231.706 64.3775C231.34 64.6022 231.08 65.0005 230.926 65.5723L229.969 69.1423L228.648 68.7882L230.36 62.4017L231.681 62.7558L231.486 63.486C231.772 63.2812 232.102 63.15 232.473 63.0922C232.853 63.0365 233.232 63.0593 233.61 63.1608ZM239.224 71.7339C238.622 71.5724 238.113 71.2912 237.699 70.8903C237.286 70.4817 237.007 69.9929 236.862 69.4238C236.718 68.847 236.735 68.2302 236.911 67.5734C237.085 66.9243 237.382 66.3869 237.802 65.9612C238.223 65.5356 238.717 65.2538 239.284 65.1158C239.851 64.9779 240.44 64.9907 241.05 65.1543C241.661 65.3179 242.177 65.6011 242.599 66.0041C243.021 66.4071 243.308 66.898 243.459 67.4769C243.61 68.0558 243.599 68.6697 243.425 69.3188C243.251 69.9679 242.95 70.5043 242.521 70.9278C242.093 71.3514 241.587 71.634 241.002 71.7755C240.427 71.9114 239.835 71.8975 239.224 71.7339ZM239.532 70.5865C239.872 70.6776 240.21 70.6813 240.548 70.5977C240.892 70.5162 241.201 70.338 241.474 70.0632C241.746 69.7883 241.944 69.4191 242.069 68.9554C242.193 68.4918 242.209 68.0778 242.116 67.7133C242.025 67.3412 241.855 67.0346 241.605 66.7937C241.354 66.5527 241.059 66.3867 240.719 66.2956C240.379 66.2045 240.041 66.2007 239.704 66.2843C239.374 66.37 239.081 66.5523 238.824 66.8313C238.569 67.1026 238.379 67.47 238.255 67.9336C238.071 68.6214 238.102 69.2011 238.348 69.6729C238.604 70.1391 238.999 70.4436 239.532 70.5865ZM247.145 68.0545L246.197 71.5897C246.133 71.8293 246.14 72.0176 246.22 72.1548C246.309 72.2863 246.488 72.3883 246.759 72.4608L247.57 72.6782L247.275 73.7793L246.232 73.4998C245.637 73.3403 245.218 73.0791 244.976 72.716C244.734 72.3529 244.696 71.8585 244.864 71.2326L245.812 67.6974L245.058 67.4955L245.347 66.4175L246.101 66.6194L246.526 65.0315L247.859 65.3886L247.434 66.9766L248.987 67.3928L248.698 68.4707L247.145 68.0545ZM181.545 68.2424C181.717 67.6011 182 67.0683 182.396 66.6442C182.799 66.2221 183.264 65.9369 183.793 65.7886C184.331 65.6347 184.878 65.6322 185.435 65.7813C185.937 65.9159 186.347 66.1334 186.664 66.4336C186.99 66.7283 187.227 67.0524 187.372 67.4061L187.621 66.4789L188.954 66.836L187.242 73.2226L185.909 72.8654L186.163 71.9149C185.859 72.1563 185.486 72.3256 185.046 72.423C184.606 72.5204 184.138 72.5028 183.644 72.3703C183.095 72.2233 182.63 71.9496 182.249 71.5493C181.869 71.1412 181.612 70.6498 181.476 70.075C181.35 69.4947 181.373 68.8838 181.545 68.2424ZM186.766 69.6663C186.884 69.2259 186.894 68.8185 186.796 68.4443C186.705 68.0721 186.535 67.7617 186.287 67.513C186.039 67.2644 185.745 67.0945 185.405 67.0034C185.065 66.9123 184.726 66.9124 184.386 67.0037C184.049 67.0873 183.744 67.2665 183.472 67.5413C183.209 67.8105 183.019 68.1653 182.901 68.6058C182.783 69.0463 182.768 69.4564 182.857 69.8363C182.953 70.2183 183.124 70.5375 183.37 70.7939C183.626 71.0446 183.92 71.2145 184.253 71.3035C184.593 71.3946 184.932 71.3945 185.271 71.3032C185.611 71.2119 185.913 71.0278 186.177 70.7509C186.452 70.4683 186.648 70.1068 186.766 69.6663ZM192.07 73.249L195.273 68.5293L196.675 68.9051L192.529 74.6394L190.953 74.217L190.242 67.1813L191.656 67.5602L192.07 73.249ZM196.692 72.3011C196.864 71.6597 197.148 71.127 197.543 70.7029C197.946 70.2808 198.412 69.9956 198.94 69.8473C199.478 69.6934 200.025 69.6909 200.582 69.84C201.084 69.9746 201.494 70.192 201.811 70.4923C202.138 70.787 202.374 71.1111 202.519 71.4648L202.768 70.5375L204.101 70.8947L202.389 77.2813L201.056 76.9241L201.311 75.9736C201.006 76.2149 200.633 76.3843 200.193 76.4817C199.753 76.5791 199.285 76.5615 198.791 76.429C198.242 76.282 197.777 76.0083 197.396 75.6079C197.017 75.1999 196.759 74.7085 196.623 74.1337C196.497 73.5533 196.52 72.9425 196.692 72.3011ZM201.913 73.725C202.031 73.2846 202.041 72.8772 201.943 72.503C201.852 72.1308 201.683 71.8204 201.435 71.5717C201.186 71.323 200.892 71.1531 200.552 71.062C200.212 70.9709 199.873 70.971 199.534 71.0624C199.196 71.146 198.892 71.3252 198.619 71.6C198.357 71.8692 198.166 72.224 198.048 72.6645C197.93 73.1049 197.915 73.5151 198.004 73.895C198.1 74.277 198.272 74.5962 198.518 74.8526C198.773 75.1033 199.067 75.2732 199.4 75.3622C199.74 75.4533 200.079 75.4532 200.419 75.3619C200.758 75.2706 201.06 75.0865 201.324 74.8096C201.599 74.527 201.795 74.1655 201.913 73.725ZM207.042 70.7759C206.802 70.7117 206.623 70.5768 206.504 70.371C206.386 70.1652 206.358 69.9426 206.423 69.7031C206.487 69.4635 206.622 69.2843 206.828 69.1656C207.033 69.0468 207.256 69.0195 207.496 69.0836C207.727 69.1458 207.903 69.2797 208.021 69.4855C208.14 69.6912 208.168 69.9139 208.103 70.1534C208.039 70.3929 207.904 70.5721 207.698 70.6909C207.493 70.8097 207.274 70.838 207.042 70.7759ZM207.464 71.796L205.752 78.1825L204.431 77.8284L206.143 71.4419L207.464 71.796ZM211.414 70.5064L209.115 79.0836L207.794 78.7295L210.093 70.1523L211.414 70.5064ZM211.58 76.2903C211.752 75.6489 212.035 75.1162 212.431 74.692C212.834 74.27 213.299 73.9848 213.828 73.8365C214.366 73.6825 214.913 73.6801 215.47 73.8292C215.972 73.9638 216.382 74.1812 216.699 74.4815C217.026 74.7761 217.262 75.1003 217.407 75.454L217.656 74.5267L218.989 74.8839L217.277 81.2704L215.944 80.9133L216.198 79.9628C215.894 80.2041 215.521 80.3735 215.081 80.4708C214.641 80.5682 214.173 80.5507 213.679 80.4181C213.13 80.2711 212.665 79.9975 212.284 79.5971C211.904 79.189 211.647 78.6976 211.511 78.1229C211.385 77.5425 211.408 76.9316 211.58 76.2903ZM216.801 77.7142C216.919 77.2737 216.929 76.8664 216.831 76.4922C216.74 76.12 216.57 75.8096 216.322 75.5609C216.074 75.3122 215.78 75.1423 215.44 75.0512C215.1 74.9601 214.761 74.9602 214.421 75.0515C214.084 75.1351 213.779 75.3143 213.507 75.5892C213.244 75.8584 213.054 76.2132 212.936 76.6537C212.818 77.0941 212.803 77.5043 212.892 77.8842C212.988 78.2661 213.159 78.5853 213.405 78.8417C213.661 79.0925 213.955 79.2624 214.288 79.3514C214.628 79.4425 214.967 79.4424 215.306 79.3511C215.646 79.2598 215.948 79.0756 216.212 78.7987C216.487 78.5162 216.683 78.1546 216.801 77.7142ZM222.097 76.7356C222.404 76.4865 222.777 76.3172 223.215 76.2275C223.663 76.1322 224.126 76.1488 224.606 76.2771C225.17 76.4283 225.643 76.7002 226.027 77.0928C226.41 77.4854 226.666 77.968 226.794 78.5407C226.924 79.1056 226.903 79.7088 226.731 80.3502C226.56 80.9915 226.274 81.532 225.874 81.9716C225.477 82.4035 225.008 82.7002 224.468 82.8619C223.937 83.0179 223.394 83.0214 222.838 82.8723C222.343 82.7398 221.929 82.5252 221.594 82.2285C221.267 81.9338 221.032 81.6058 220.889 81.2444L220.64 82.1717L219.319 81.8176L221.618 73.2404L222.939 73.5945L222.097 76.7356ZM225.387 79.9899C225.505 79.5494 225.514 79.1459 225.413 78.7794C225.322 78.4073 225.148 78.0997 224.89 77.8567C224.642 77.608 224.348 77.4381 224.008 77.347C223.676 77.2579 223.336 77.2581 222.989 77.3473C222.65 77.4386 222.344 77.6217 222.072 77.8966C221.807 78.1735 221.616 78.5322 221.498 78.9726C221.38 79.4131 221.365 79.8232 221.454 80.2031C221.552 80.5774 221.725 80.8888 221.973 81.1375C222.229 81.3882 222.523 81.5581 222.855 81.6472C223.195 81.7383 223.535 81.7382 223.874 81.6469C224.223 81.5499 224.531 81.3591 224.798 81.0744C225.073 80.7918 225.269 80.4303 225.387 79.9899ZM231.101 75.7815L228.802 84.3587L227.481 84.0047L229.78 75.4275L231.101 75.7815ZM237.595 83.1244C237.531 83.364 237.458 83.5762 237.375 83.7611L232.495 82.4535C232.397 82.9739 232.476 83.4342 232.734 83.8343C232.991 84.2345 233.367 84.5009 233.861 84.6334C234.572 84.8239 235.154 84.661 235.607 84.1447L237.033 84.5267C236.682 85.0622 236.201 85.4509 235.59 85.6929C234.988 85.9292 234.312 85.947 233.563 85.7461C232.952 85.5825 232.44 85.3003 232.026 84.8994C231.621 84.4929 231.346 84.005 231.2 83.436C231.065 82.8612 231.085 82.2455 231.261 81.5886C231.437 80.9318 231.723 80.3913 232.118 79.9672C232.523 79.5374 233.001 79.2515 233.553 79.1094C234.112 78.9694 234.705 78.9832 235.331 79.151C235.933 79.3125 236.435 79.5877 236.836 79.9767C237.237 80.3658 237.505 80.835 237.639 81.3845C237.776 81.9263 237.761 82.5062 237.595 83.1244ZM236.328 82.3376C236.45 81.8487 236.381 81.4119 236.12 81.0271C235.859 80.6424 235.477 80.3827 234.975 80.2481C234.519 80.126 234.089 80.1682 233.686 80.3749C233.285 80.5738 232.987 80.9123 232.792 81.3903L236.328 82.3376ZM242.121 79.2933L240.463 84.8744L239.362 84.5794L240.719 78.9175L242.121 79.2933ZM239.279 87.253C239.04 87.1888 238.861 87.0538 238.742 86.8481C238.623 86.6423 238.596 86.4197 238.66 86.1801C238.724 85.9406 238.859 85.7614 239.065 85.6426C239.271 85.5238 239.493 85.4965 239.733 85.5607C239.965 85.6228 240.14 85.7568 240.259 85.9625C240.378 86.1683 240.405 86.3909 240.341 86.6305C240.276 86.87 240.141 87.0492 239.936 87.168C239.73 87.2868 239.511 87.3151 239.279 87.253ZM246.152 80.3733L244.494 85.9544L243.393 85.6594L244.749 79.9975L246.152 80.3733ZM243.31 88.333C243.07 88.2688 242.891 88.1338 242.772 87.9281C242.654 87.7223 242.626 87.4997 242.691 87.2601C242.755 87.0206 242.89 86.8414 243.096 86.7226C243.301 86.6038 243.524 86.5765 243.764 86.6407C243.995 86.7028 244.171 86.8368 244.289 87.0425C244.408 87.2483 244.435 87.4709 244.371 87.7105C244.307 87.95 244.172 88.1292 243.966 88.248C243.761 88.3668 243.542 88.3951 243.31 88.333Z" fill="#49545C"/>
<rect width="31.4533" height="4.61872" rx="2.30936" transform="matrix(0.965926 0.258819 -0.258984 0.965882 173.464 96.6921)" fill="#E9EBED"/>
<rect width="0.901552" height="5.73451" transform="matrix(0.965926 0.258819 -0.258984 0.965882 210.956 106.161)" fill="#D8DCDE"/>
<rect width="29.7143" height="4.61872" rx="2.30936" transform="matrix(0.965926 0.258819 -0.258984 0.965882 218.649 108.8)" fill="#E9EBED"/>
<rect width="35.2523" height="4.61872" rx="2.30936" transform="matrix(0.965926 0.258819 -0.258984 0.965882 254.318 118.357)" fill="#E9EBED"/>
<rect width="31.4533" height="4.61872" rx="2.30936" transform="matrix(0.965926 0.258819 -0.258984 0.965882 168.029 116.977)" fill="#E9EBED"/>
<rect width="0.901552" height="5.73451" transform="matrix(0.965926 0.258819 -0.258984 0.965882 205.521 126.445)" fill="#D8DCDE"/>
<rect width="29.7143" height="4.61872" rx="2.30936" transform="matrix(0.965926 0.258819 -0.258984 0.965882 213.214 129.084)" fill="#E9EBED"/>
<rect width="35.2523" height="4.61872" rx="2.30936" transform="matrix(0.965926 0.258819 -0.258984 0.965882 248.883 138.641)" fill="#E9EBED"/>
<path d="M260.39 187.7C260.6 187.712 260.716 187.549 261.008 187.146C261.53 186.427 262.052 185.708 262.598 185.007C262.684 184.897 262.909 184.822 263.053 184.843C263.911 184.966 264.763 185.142 265.622 185.256C265.888 185.293 266.019 185.352 266.105 185.623C266.449 186.704 266.823 187.775 267.183 188.839C268.214 188.861 270.697 188.275 271.466 187.819C271.309 186.749 271.165 185.653 270.979 184.564C270.921 184.225 270.987 184.077 271.293 183.885C272.003 183.442 272.676 182.931 273.334 182.411C273.6 182.2 273.792 182.1 274.13 182.277C275.004 182.736 275.905 183.143 276.787 183.586C277.025 183.706 277.194 183.698 277.335 183.469C277.996 182.391 278.657 181.312 279.318 180.233C279.48 179.968 279.256 179.863 279.106 179.748C278.345 179.165 277.586 178.577 276.805 178.02C276.513 177.811 276.448 177.615 276.53 177.258C276.741 176.312 276.892 175.352 277.08 174.325L280.501 173.142C280.402 171.667 280.046 170.27 279.453 168.881L275.944 169.391C275.245 168.472 274.617 167.605 273.941 166.778C273.745 166.539 273.741 166.39 273.868 166.138C274.307 165.267 274.72 164.381 275.153 163.507C275.246 163.318 275.292 163.173 275.1 163.014C274.133 162.214 273.111 161.507 271.941 161.026C271.68 160.919 271.549 160.989 271.399 161.19C270.797 161.994 270.18 162.788 269.582 163.596C269.438 163.791 269.321 163.859 269.051 163.811C268.112 163.643 267.166 163.515 266.217 163.413C265.975 163.387 265.904 163.289 265.838 163.095C265.471 162.021 265.095 160.951 264.714 159.85C263.257 159.985 261.863 160.275 260.501 160.854L261.024 164.522L258.089 166.657C257.307 166.28 256.412 165.839 255.508 165.413C254.767 165.065 254.898 164.979 254.368 165.68C254.317 165.747 254.244 165.796 254.179 165.852L253.004 167.799C252.943 167.959 252.905 168.133 252.817 168.275C252.586 168.645 252.619 168.895 253.008 169.166C253.817 169.73 254.591 170.345 255.366 170.958C255.467 171.039 255.544 171.236 255.527 171.366C255.419 172.216 255.238 173.059 255.175 173.91C255.145 174.327 254.993 174.467 254.633 174.584C253.612 174.916 252.604 175.292 251.49 175.684L252.486 179.923C252.758 179.889 252.915 179.872 253.07 179.849C254.033 179.708 254.998 179.577 255.958 179.42C256.231 179.375 256.354 179.465 256.511 179.685C257.047 180.439 257.632 181.159 258.174 181.91C258.258 182.026 258.276 182.266 258.216 182.399C257.888 183.129 257.519 183.841 257.176 184.565C256.899 185.151 256.798 185.369 256.948 185.616L260.39 187.7ZM261.722 182.154C259.909 181.16 258.496 179.566 257.724 177.643C256.952 175.72 256.869 173.587 257.489 171.607C258.109 169.627 259.395 167.923 261.125 166.785C262.856 165.647 264.926 165.146 266.982 165.366C269.037 165.587 270.952 166.516 272.399 167.995C273.846 169.474 274.737 171.412 274.918 173.478C275.1 175.544 274.562 177.61 273.396 179.325C272.23 181.041 270.508 182.298 268.523 182.883C267.397 183.219 266.216 183.327 265.049 183.202C263.881 183.077 262.751 182.72 261.722 182.154Z" fill="#C57F12"/>
<g filter="url(#filter1_d_65_50778)">
<g clip-path="url(#clip1_65_50778)">
<rect width="175.948" height="178" rx="7.21242" transform="matrix(1 0 -0.000290485 1 26.0518 14)" fill="white"/>
</g>
</g>
<rect width="80.1926" height="7.16814" rx="3.58407" transform="matrix(1 0 -0.000242453 1 42.002 89)" fill="#E6EBEE"/>
<rect width="45.9792" height="14.4248" rx="7.21242" transform="matrix(1 0 -9.14677e-05 1 42.0037 35.9213)" fill="#FFE7C9"/>
<path d="M47.2339 64.2434L45.3142 60.9074H44.2702L44.2699 64.2434H42.9019L42.9027 55.9034H45.7827C46.4227 55.9034 46.9627 56.0154 47.4026 56.2394C47.8506 56.4634 48.1826 56.7634 48.3986 57.1394C48.6225 57.5154 48.7345 57.9354 48.7344 58.3994C48.7344 58.9434 48.5743 59.4394 48.2543 59.8874C47.9422 60.3274 47.4582 60.6274 46.8022 60.7874L48.8659 64.2434H47.2339ZM44.2703 59.8154H45.7823C46.2943 59.8154 46.6783 59.6874 46.9343 59.4314C47.1984 59.1754 47.3304 58.8314 47.3304 58.3994C47.3305 57.9674 47.2025 57.6314 46.9465 57.3914C46.6906 57.1434 46.3026 57.0194 45.7826 57.0194H44.2706L44.2703 59.8154ZM56.8616 60.7754C56.8616 61.0234 56.8455 61.2474 56.8135 61.4474H51.7615C51.8015 61.9754 51.9974 62.3994 52.3494 62.7194C52.7014 63.0394 53.1333 63.1994 53.6453 63.1994C54.3813 63.1994 54.9014 62.8914 55.2054 62.2754H56.6814C56.4814 62.8834 56.1173 63.3834 55.5893 63.7754C55.0692 64.1594 54.4212 64.3514 53.6452 64.3514C53.0132 64.3514 52.4452 64.2114 51.9413 63.9314C51.4453 63.6434 51.0533 63.2434 50.7654 62.7314C50.4854 62.2114 50.3455 61.6114 50.3456 60.9314C50.3456 60.2514 50.4817 59.6554 50.7537 59.1434C51.0338 58.6234 51.4218 58.2234 51.9179 57.9434C52.4219 57.6634 52.9979 57.5234 53.6459 57.5234C54.2699 57.5234 54.8259 57.6594 55.3139 57.9314C55.8018 58.2034 56.1818 58.5874 56.4537 59.0834C56.7257 59.5714 56.8616 60.1354 56.8616 60.7754ZM55.4336 60.3434C55.4257 59.8394 55.2457 59.4354 54.8937 59.1314C54.5418 58.8274 54.1058 58.6754 53.5858 58.6754C53.1138 58.6754 52.7098 58.8274 52.3737 59.1314C52.0377 59.4274 51.8377 59.8314 51.7736 60.3434H55.4336ZM59.8934 58.6034C60.1254 58.2994 60.4414 58.0434 60.8415 57.8354C61.2415 57.6274 61.6935 57.5234 62.1975 57.5234C62.7735 57.5234 63.2975 57.6674 63.7694 57.9554C64.2494 58.2354 64.6254 58.6314 64.8973 59.1434C65.1693 59.6554 65.3052 60.2434 65.3052 60.9074C65.3051 61.5714 65.169 62.1674 64.897 62.6954C64.6249 63.2154 64.2489 63.6234 63.7689 63.9194C63.2968 64.2074 62.7728 64.3514 62.1968 64.3514C61.6928 64.3514 61.2448 64.2514 60.8529 64.0514C60.4609 63.8434 60.1409 63.5874 59.8929 63.2834L59.8925 67.3874H58.5245L58.5255 57.6314H59.8935L59.8934 58.6034ZM63.9132 60.9074C63.9132 60.4514 63.8172 60.0594 63.6253 59.7314C63.4413 59.3954 63.1933 59.1434 62.8813 58.9754C62.5774 58.7994 62.2494 58.7114 61.8974 58.7114C61.5534 58.7114 61.2254 58.7994 60.9133 58.9754C60.6093 59.1514 60.3613 59.4074 60.1693 59.7434C59.9852 60.0794 59.8932 60.4754 59.8932 60.9314C59.8931 61.3874 59.9851 61.7874 60.169 62.1314C60.361 62.4674 60.609 62.7234 60.913 62.8994C61.225 63.0754 61.5529 63.1634 61.8969 63.1634C62.2489 63.1634 62.577 63.0754 62.881 62.8994C63.193 62.7154 63.441 62.4514 63.625 62.1074C63.8171 61.7634 63.9131 61.3634 63.9132 60.9074ZM69.843 64.3514C69.219 64.3514 68.655 64.2114 68.151 63.9314C67.6471 63.6434 67.2511 63.2434 66.9631 62.7314C66.6752 62.2114 66.5313 61.6114 66.5313 60.9314C66.5314 60.2594 66.6794 59.6634 66.9755 59.1434C67.2715 58.6234 67.6756 58.2234 68.1876 57.9434C68.6996 57.6634 69.2716 57.5234 69.9036 57.5234C70.5356 57.5234 71.1076 57.6634 71.6196 57.9434C72.1316 58.2234 72.5355 58.6234 72.8315 59.1434C73.1274 59.6634 73.2754 60.2594 73.2753 60.9314C73.2753 61.6034 73.1232 62.1994 72.8191 62.7194C72.5151 63.2394 72.0991 63.6434 71.571 63.9314C71.051 64.2114 70.475 64.3514 69.843 64.3514ZM69.8431 63.1634C70.1951 63.1634 70.5231 63.0794 70.8271 62.9114C71.1391 62.7434 71.3912 62.4914 71.5832 62.1554C71.7752 61.8194 71.8713 61.4114 71.8713 60.9314C71.8714 60.4514 71.7794 60.0474 71.5954 59.7194C71.4115 59.3834 71.1675 59.1314 70.8635 58.9634C70.5595 58.7954 70.2315 58.7114 69.8795 58.7114C69.5275 58.7114 69.1995 58.7954 68.8955 58.9634C68.5995 59.1314 68.3635 59.3834 68.1874 59.7194C68.0114 60.0474 67.9234 60.4514 67.9233 60.9314C67.9232 61.6434 68.1032 62.1954 68.4632 62.5874C68.8311 62.9714 69.2911 63.1634 69.8431 63.1634ZM76.3132 58.5914C76.5133 58.2554 76.7773 57.9954 77.1053 57.8114C77.4413 57.6194 77.8373 57.5234 78.2933 57.5234L78.2932 58.9394H77.9452C77.4092 58.9394 77.0012 59.0754 76.7212 59.3474C76.4491 59.6194 76.3131 60.0914 76.313 60.7634L76.3127 64.2434H74.9447L74.9453 57.6314H76.3133L76.3132 58.5914ZM81.464 58.7474L81.4637 62.4074C81.4637 62.6554 81.5196 62.8354 81.6316 62.9474C81.7516 63.0514 81.9516 63.1034 82.2316 63.1034H83.0716L83.0715 64.2434H81.9915C81.3755 64.2434 80.9035 64.0994 80.5755 63.8114C80.2476 63.5234 80.0836 63.0554 80.0837 62.4074L80.084 58.7474H79.304L79.3041 57.6314H80.0841L80.0843 55.9874H81.4643L81.4641 57.6314H83.0721L83.072 58.7474H81.464ZM91.4209 57.5234C91.9409 57.5234 92.4049 57.6314 92.8128 57.8474C93.2288 58.0634 93.5528 58.3834 93.7848 58.8074C94.0167 59.2314 94.1327 59.7434 94.1326 60.3434L94.1322 64.2434H92.7762L92.7766 60.5474C92.7766 59.9554 92.6287 59.5034 92.3327 59.1914C92.0367 58.8714 91.6328 58.7114 91.1208 58.7114C90.6088 58.7114 90.2007 58.8714 89.8967 59.1914C89.6007 59.5034 89.4526 59.9554 89.4526 60.5474L89.4522 64.2434H88.0842L88.0849 57.6314H89.4529L89.4528 58.3874C89.6768 58.1154 89.9608 57.9034 90.3049 57.7514C90.6569 57.5994 91.0289 57.5234 91.4209 57.5234ZM99.0625 64.3514C98.4385 64.3514 97.8745 64.2114 97.3706 63.9314C96.8666 63.6434 96.4706 63.2434 96.1827 62.7314C95.8947 62.2114 95.7508 61.6114 95.7509 60.9314C95.7509 60.2594 95.899 59.6634 96.195 59.1434C96.4911 58.6234 96.8951 58.2234 97.4072 57.9434C97.9192 57.6634 98.4912 57.5234 99.1232 57.5234C99.7552 57.5234 100.327 57.6634 100.839 57.9434C101.351 58.2234 101.755 58.6234 102.051 59.1434C102.347 59.6634 102.495 60.2594 102.495 60.9314C102.495 61.6034 102.343 62.1994 102.039 62.7194C101.735 63.2394 101.319 63.6434 100.791 63.9314C100.271 64.2114 99.6945 64.3514 99.0625 64.3514ZM99.0626 63.1634C99.4146 63.1634 99.7427 63.0794 100.047 62.9114C100.359 62.7434 100.611 62.4914 100.803 62.1554C100.995 61.8194 101.091 61.4114 101.091 60.9314C101.091 60.4514 100.999 60.0474 100.815 59.7194C100.631 59.3834 100.387 59.1314 100.083 58.9634C99.7791 58.7954 99.4511 58.7114 99.0991 58.7114C98.7471 58.7114 98.4191 58.7954 98.1151 58.9634C97.819 59.1314 97.583 59.3834 97.407 59.7194C97.2309 60.0474 97.1429 60.4514 97.1429 60.9314C97.1428 61.6434 97.3227 62.1954 97.6827 62.5874C98.0507 62.9714 98.5106 63.1634 99.0626 63.1634ZM105.761 58.7474L105.76 62.4074C105.76 62.6554 105.816 62.8354 105.928 62.9474C106.048 63.0514 106.248 63.1034 106.528 63.1034H107.368L107.368 64.2434H106.288C105.672 64.2434 105.2 64.0994 104.872 63.8114C104.544 63.5234 104.38 63.0554 104.38 62.4074L104.381 58.7474H103.601L103.601 57.6314H104.381L104.381 55.9874H105.761L105.761 57.6314H107.369L107.369 58.7474H105.761ZM42.4447 75.9074C42.4448 75.2434 42.5809 74.6554 42.8529 74.1434C43.133 73.6314 43.509 73.2354 43.981 72.9554C44.461 72.6674 44.9891 72.5234 45.5651 72.5234C46.0851 72.5234 46.537 72.6274 46.921 72.8354C47.313 73.0354 47.625 73.2874 47.857 73.5914L47.857 72.6314H49.237L49.2364 79.2434H47.8564L47.8565 78.2594C47.6245 78.5714 47.3084 78.8314 46.9084 79.0394C46.5084 79.2474 46.0524 79.3514 45.5404 79.3514C44.9724 79.3514 44.4524 79.2074 43.9804 78.9194C43.5085 78.6234 43.1325 78.2154 42.8526 77.6954C42.5806 77.1674 42.4447 76.5714 42.4447 75.9074ZM47.8567 75.9314C47.8568 75.4754 47.7608 75.0794 47.5688 74.7434C47.3849 74.4074 47.1409 74.1514 46.8369 73.9754C46.5329 73.7994 46.2049 73.7114 45.8529 73.7114C45.5009 73.7114 45.1729 73.7994 44.8689 73.9754C44.5649 74.1434 44.3169 74.3954 44.1248 74.7314C43.9408 75.0594 43.8488 75.4514 43.8487 75.9074C43.8487 76.3634 43.9406 76.7634 44.1246 77.1074C44.3166 77.4514 44.5646 77.7154 44.8685 77.8994C45.1805 78.0754 45.5085 78.1634 45.8525 78.1634C46.2045 78.1634 46.5325 78.0754 46.8365 77.8994C47.1406 77.7234 47.3846 77.4674 47.5686 77.1314C47.7606 76.7874 47.8567 76.3874 47.8567 75.9314ZM53.9067 78.0194L55.7792 72.6314H57.2312L54.7106 79.2434H53.0786L50.5712 72.6314H52.0352L53.9067 78.0194ZM58.1263 75.9074C58.1264 75.2434 58.2624 74.6554 58.5345 74.1434C58.8145 73.6314 59.1906 73.2354 59.6626 72.9554C60.1426 72.6674 60.6706 72.5234 61.2466 72.5234C61.7666 72.5234 62.2186 72.6274 62.6026 72.8354C62.9946 73.0354 63.3066 73.2874 63.5385 73.5914L63.5386 72.6314H64.9186L64.918 79.2434H63.538L63.5381 78.2594C63.306 78.5714 62.99 78.8314 62.59 79.0394C62.19 79.2474 61.734 79.3514 61.222 79.3514C60.654 79.3514 60.134 79.2074 59.662 78.9194C59.19 78.6234 58.8141 78.2154 58.5341 77.6954C58.2622 77.1674 58.1262 76.5714 58.1263 75.9074ZM63.5383 75.9314C63.5383 75.4754 63.4424 75.0794 63.2504 74.7434C63.0664 74.4074 62.8225 74.1514 62.5185 73.9754C62.2145 73.7994 61.8865 73.7114 61.5345 73.7114C61.1825 73.7114 60.8545 73.7994 60.5505 73.9754C60.2465 74.1434 59.9984 74.3954 59.8064 74.7314C59.6224 75.0594 59.5303 75.4514 59.5303 75.9074C59.5303 76.3634 59.6222 76.7634 59.8062 77.1074C59.9981 77.4514 60.2461 77.7154 60.5501 77.8994C60.8621 78.0754 61.1901 78.1634 61.5341 78.1634C61.8861 78.1634 62.2141 78.0754 62.5181 77.8994C62.8221 77.7234 63.0661 77.4674 63.2502 77.1314C63.4422 76.7874 63.5383 76.3874 63.5383 75.9314ZM67.7289 71.7554C67.4809 71.7554 67.2729 71.6714 67.1049 71.5034C66.9369 71.3354 66.8529 71.1274 66.8529 70.8794C66.853 70.6314 66.937 70.4234 67.105 70.2554C67.273 70.0874 67.481 70.0034 67.729 70.0034C67.969 70.0034 68.173 70.0874 68.341 70.2554C68.509 70.4234 68.593 70.6314 68.5929 70.8794C68.5929 71.1274 68.5089 71.3354 68.3409 71.5034C68.1729 71.6714 67.9689 71.7554 67.7289 71.7554ZM68.4008 72.6314L68.4001 79.2434H67.0321L67.0328 72.6314H68.4008ZM71.8824 70.3634L71.8815 79.2434H70.5135L70.5144 70.3634H71.8824ZM73.5393 75.9074C73.5393 75.2434 73.6754 74.6554 73.9474 74.1434C74.2275 73.6314 74.6035 73.2354 75.0756 72.9554C75.5556 72.6674 76.0836 72.5234 76.6596 72.5234C77.1796 72.5234 77.6316 72.6274 78.0156 72.8354C78.4076 73.0354 78.7195 73.2874 78.9515 73.5914L78.9516 72.6314H80.3316L80.331 79.2434H78.951L78.951 78.2594C78.719 78.5714 78.403 78.8314 78.003 79.0394C77.603 79.2474 77.1469 79.3514 76.6349 79.3514C76.0669 79.3514 75.547 79.2074 75.075 78.9194C74.603 78.6234 74.2271 78.2154 73.9471 77.6954C73.6752 77.1674 73.5392 76.5714 73.5393 75.9074ZM78.9513 75.9314C78.9513 75.4754 78.8554 75.0794 78.6634 74.7434C78.4794 74.4074 78.2354 74.1514 77.9315 73.9754C77.6275 73.7994 77.2995 73.7114 76.9475 73.7114C76.5955 73.7114 76.2675 73.7994 75.9635 73.9754C75.6594 74.1434 75.4114 74.3954 75.2194 74.7314C75.0354 75.0594 74.9433 75.4514 74.9433 75.9074C74.9432 76.3634 75.0352 76.7634 75.2192 77.1074C75.4111 77.4514 75.6591 77.7154 75.9631 77.8994C76.2751 78.0754 76.6031 78.1634 76.9471 78.1634C77.2991 78.1634 77.6271 78.0754 77.9311 77.8994C78.2351 77.7234 78.4791 77.4674 78.6632 77.1314C78.8552 76.7874 78.9512 76.3874 78.9513 75.9314ZM83.8137 73.6154C84.0457 73.2954 84.3617 73.0354 84.7617 72.8354C85.1698 72.6274 85.6218 72.5234 86.1178 72.5234C86.7018 72.5234 87.2297 72.6634 87.7017 72.9434C88.1737 73.2234 88.5457 73.6234 88.8176 74.1434C89.0896 74.6554 89.2255 75.2434 89.2254 75.9074C89.2254 76.5714 89.0893 77.1674 88.8173 77.6954C88.5452 78.2154 88.1692 78.6234 87.6891 78.9194C87.2171 79.2074 86.6931 79.3514 86.1171 79.3514C85.6051 79.3514 85.1491 79.2514 84.7491 79.0514C84.3571 78.8514 84.0452 78.5954 83.8132 78.2834L83.8131 79.2434H82.4451L82.446 70.3634H83.814L83.8137 73.6154ZM87.8334 75.9074C87.8335 75.4514 87.7375 75.0594 87.5455 74.7314C87.3616 74.3954 87.1136 74.1434 86.8016 73.9754C86.4976 73.7994 86.1696 73.7114 85.8176 73.7114C85.4736 73.7114 85.1456 73.7994 84.8336 73.9754C84.5296 74.1514 84.2816 74.4074 84.0895 74.7434C83.9055 75.0794 83.8135 75.4754 83.8134 75.9314C83.8134 76.3874 83.9053 76.7874 84.0893 77.1314C84.2813 77.4674 84.5293 77.7234 84.8332 77.8994C85.1452 78.0754 85.4732 78.1634 85.8172 78.1634C86.1692 78.1634 86.4972 78.0754 86.8012 77.8994C87.1133 77.7154 87.3613 77.4514 87.5453 77.1074C87.7374 76.7634 87.8334 76.3634 87.8334 75.9074ZM92.2641 70.3634L92.2633 79.2434H90.8953L90.8961 70.3634H92.2641ZM100.437 75.7754C100.437 76.0234 100.421 76.2474 100.389 76.4474H95.337C95.3769 76.9754 95.5729 77.3994 95.9248 77.7194C96.2768 78.0394 96.7088 78.1994 97.2208 78.1994C97.9568 78.1994 98.4768 77.8914 98.7809 77.2754H100.257C100.057 77.8834 99.6928 78.3834 99.1647 78.7754C98.6447 79.1594 97.9967 79.3514 97.2207 79.3514C96.5887 79.3514 96.0207 79.2114 95.5167 78.9314C95.0207 78.6434 94.6288 78.2434 94.3408 77.7314C94.0609 77.2114 93.9209 76.6114 93.921 75.9314C93.9211 75.2514 94.0571 74.6554 94.3292 74.1434C94.6092 73.6234 94.9973 73.2234 95.4933 72.9434C95.9973 72.6634 96.5733 72.5234 97.2213 72.5234C97.8453 72.5234 98.4013 72.6594 98.8893 72.9314C99.3773 73.2034 99.7572 73.5874 100.029 74.0834C100.301 74.5714 100.437 75.1354 100.437 75.7754ZM99.0091 75.3434C99.0011 74.8394 98.8211 74.4354 98.4692 74.1314C98.1172 73.8274 97.6812 73.6754 97.1612 73.6754C96.6892 73.6754 96.2852 73.8274 95.9492 74.1314C95.6131 74.4274 95.4131 74.8314 95.3491 75.3434H99.0091ZM103.817 70.9034L103.661 76.7234H102.521L102.365 70.9034H103.817ZM103.132 79.3274C102.884 79.3274 102.676 79.2434 102.508 79.0754C102.34 78.9074 102.256 78.6994 102.256 78.4514C102.256 78.2034 102.34 77.9954 102.508 77.8274C102.676 77.6594 102.884 77.5754 103.132 77.5754C103.372 77.5754 103.576 77.6594 103.744 77.8274C103.912 77.9954 103.996 78.2034 103.996 78.4514C103.996 78.6994 103.912 78.9074 103.744 79.0754C103.576 79.2434 103.372 79.3274 103.132 79.3274ZM107.99 70.9034L107.833 76.7234H106.693L106.538 70.9034H107.99ZM107.305 79.3274C107.057 79.3274 106.849 79.2434 106.681 79.0754C106.513 78.9074 106.429 78.6994 106.429 78.4514C106.429 78.2034 106.513 77.9954 106.681 77.8274C106.849 77.6594 107.057 77.5754 107.305 77.5754C107.545 77.5754 107.749 77.6594 107.917 77.8274C108.085 77.9954 108.169 78.2034 108.169 78.4514C108.169 78.6994 108.085 78.9074 107.917 79.0754C107.749 79.2434 107.545 79.3274 107.305 79.3274Z" fill="#49545C"/>
<rect width="31.4533" height="4.61872" rx="2.30936" transform="matrix(1 0 -0.00017103 1 42.0022 105.479)" fill="#E9EBED"/>
<rect width="0.901552" height="5.73451" transform="matrix(1 0 -0.00017103 1 80.668 104.921)" fill="#D8DCDE"/>
<rect width="29.7143" height="4.61872" rx="2.30936" transform="matrix(1 0 -0.00017103 1 88.7817 105.479)" fill="#E9EBED"/>
<rect width="35.2523" height="4.61872" rx="2.30936" transform="matrix(1 0 -0.00017103 1 125.708 105.479)" fill="#E9EBED"/>
<rect width="31.4533" height="4.61872" rx="2.30936" transform="matrix(1 0 -0.00017103 1 42.0022 126.479)" fill="#E9EBED"/>
<rect width="0.901552" height="5.73451" transform="matrix(1 0 -0.00017103 1 80.668 125.921)" fill="#D8DCDE"/>
<rect width="29.7143" height="4.61872" rx="2.30936" transform="matrix(1 0 -0.00017103 1 88.7817 126.479)" fill="#E9EBED"/>
<rect width="35.2523" height="4.61872" rx="2.30936" transform="matrix(1 0 -0.00017103 1 125.708 126.479)" fill="#E9EBED"/>
<path d="M169.604 175.902C169.81 175.859 169.88 175.671 170.057 175.207C170.374 174.378 170.691 173.548 171.036 172.73C171.091 172.602 171.288 172.472 171.433 172.455C172.294 172.352 173.162 172.302 174.021 172.191C174.288 172.158 174.43 172.182 174.583 172.421C175.197 173.377 175.837 174.316 176.46 175.251C177.462 175.006 179.707 173.8 180.332 173.161C179.902 172.167 179.478 171.146 179.015 170.142C178.871 169.83 178.896 169.669 179.142 169.405C179.712 168.794 180.229 168.127 180.729 167.454C180.932 167.182 181.091 167.036 181.463 167.12C182.426 167.339 183.403 167.499 184.37 167.7C184.63 167.754 184.792 167.703 184.868 167.446C185.227 166.233 185.585 165.021 185.942 163.808C186.03 163.51 185.786 163.467 185.611 163.394C184.725 163.027 183.838 162.655 182.94 162.318C182.604 162.191 182.49 162.018 182.476 161.652C182.434 160.684 182.33 159.717 182.244 158.676L185.241 156.652C184.761 155.252 184.054 153.994 183.121 152.805L179.864 154.202C178.951 153.494 178.119 152.818 177.251 152.194C176.999 152.013 176.956 151.87 177.013 151.594C177.211 150.639 177.379 149.677 177.57 148.72C177.611 148.514 177.618 148.362 177.392 148.258C176.249 147.735 175.078 147.314 173.824 147.152C173.544 147.116 173.435 147.216 173.342 147.449C172.971 148.382 172.581 149.308 172.214 150.242C172.125 150.469 172.03 150.564 171.756 150.587C170.806 150.667 169.859 150.788 168.917 150.933C168.676 150.97 168.582 150.894 168.467 150.724C167.833 149.781 167.193 148.844 166.538 147.878C165.166 148.384 163.896 149.024 162.73 149.934L164.19 153.343L161.91 156.163C161.057 156 160.078 155.805 159.095 155.626C158.288 155.481 158.392 155.363 158.062 156.178C158.031 156.256 157.973 156.322 157.925 156.393L157.296 158.577C157.279 158.747 157.288 158.925 157.239 159.085C157.113 159.502 157.21 159.735 157.655 159.897C158.584 160.233 159.491 160.628 160.399 161.02C160.517 161.072 160.643 161.243 160.661 161.373C160.778 162.222 160.822 163.083 160.982 163.922C161.061 164.332 160.951 164.506 160.634 164.713C159.734 165.297 158.859 165.92 157.885 166.586L159.949 170.425C160.202 170.321 160.35 170.264 160.493 170.202C161.387 169.818 162.284 169.443 163.171 169.043C163.423 168.93 163.566 168.985 163.773 169.157C164.488 169.748 165.24 170.292 165.958 170.878C166.07 170.969 166.15 171.195 166.126 171.34C165.999 172.13 165.828 172.913 165.685 173.701C165.57 174.338 165.529 174.575 165.738 174.775L169.604 175.902ZM169.449 170.199C167.439 169.707 165.66 168.531 164.414 166.872C163.169 165.213 162.534 163.173 162.618 161.1C162.702 159.027 163.5 157.049 164.876 155.504C166.251 153.958 168.12 152.94 170.162 152.623C172.205 152.307 174.296 152.711 176.078 153.767C177.86 154.823 179.224 156.466 179.937 158.415C180.649 160.364 180.667 162.5 179.987 164.457C179.307 166.415 177.97 168.074 176.206 169.151C175.206 169.766 174.093 170.175 172.933 170.355C171.774 170.534 170.589 170.481 169.449 170.199Z" fill="#C57F12"/>
<defs>
<filter id="filter0_d_65_50778" x="117.256" y="-1.20125" width="237.943" height="259.854" filterUnits="userSpaceOnUse" color-interpolation-filters="sRGB">
<feFlood flood-opacity="0" result="BackgroundImageFix"/>
<feColorMatrix in="SourceAlpha" type="matrix" values="0 0 0 0 0 0 0 0 0 0 0 0 0 0 0 0 0 0 127 0" result="hardAlpha"/>
<feOffset dy="18.031"/>
<feGaussianBlur stdDeviation="12.6217"/>
<feColorMatrix type="matrix" values="0 0 0 0 0.184314 0 0 0 0 0.223529 0 0 0 0 0.254902 0 0 0 0.15 0"/>
<feBlend mode="normal" in2="BackgroundImageFix" result="effect1_dropShadow_65_50778"/>
<feBlend mode="normal" in="SourceGraphic" in2="effect1_dropShadow_65_50778" result="shape"/>
</filter>
<filter id="filter1_d_65_50778" x="0.756533" y="6.78758" width="226.487" height="228.487" filterUnits="userSpaceOnUse" color-interpolation-filters="sRGB">
<feFlood flood-opacity="0" result="BackgroundImageFix"/>
<feColorMatrix in="SourceAlpha" type="matrix" values="0 0 0 0 0 0 0 0 0 0 0 0 0 0 0 0 0 0 127 0" result="hardAlpha"/>
<feOffset dy="18.031"/>
<feGaussianBlur stdDeviation="12.6217"/>
<feColorMatrix type="matrix" values="0 0 0 0 0.184314 0 0 0 0 0.223529 0 0 0 0 0.254902 0 0 0 0.15 0"/>
<feBlend mode="normal" in2="BackgroundImageFix" result="effect1_dropShadow_65_50778"/>
<feBlend mode="normal" in="SourceGraphic" in2="effect1_dropShadow_65_50778" result="shape"/>
</filter>
<clipPath id="clip0_65_50778">
<rect width="146.46" height="177.521" rx="7.21242" transform="matrix(0.965926 0.258819 -0.259053 0.965863 188.486 6.01117)" fill="white"/>
</clipPath>
<clipPath id="clip1_65_50778">
<rect width="175.948" height="178" rx="7.21242" transform="matrix(1 0 -0.000290485 1 26.0518 14)" fill="white"/>
</clipPath>
</defs>
</svg>
