<svg width="281" height="215" viewBox="0 0 281 215" fill="none" xmlns="http://www.w3.org/2000/svg">
<g clip-path="url(#clip0_3442_83672)">
<path fill-rule="evenodd" clip-rule="evenodd" d="M251.713 110.887C254.935 151.92 160.743 211.278 87.3657 195.722C20.1216 177.044 15.9805 101.114 48.0683 62.2491C80.1561 23.3837 232.096 6.91033 251.713 110.887Z" fill="#FFF7EE"/>
<g opacity="0.8">
<g filter="url(#filter0_d_3442_83672)">
<path d="M144.664 32.4261L134.911 42.182C134.34 42.7538 133.363 42.4842 133.166 41.7002L129.009 25.1934C128.811 24.4043 129.554 23.7026 130.33 23.9458L143.601 28.1025C145.467 28.6869 146.046 31.0433 144.664 32.4261Z" fill="#FFC67F"/>
<path d="M148.87 30.4432L162.075 35.2783C162.861 35.5661 163.648 34.856 163.442 34.0448L159.081 16.849C158.88 16.0573 157.887 15.7946 157.321 16.3835L147.889 26.1956C146.586 27.5505 147.105 29.797 148.87 30.4432Z" fill="#FFC67F"/>
<g filter="url(#filter1_d_3442_83672)">
<path d="M148.301 28.76L162.909 33.3943C163.898 33.7082 163.869 35.1184 162.867 35.3911L134.269 43.1741C133.249 43.4517 132.513 42.2077 133.247 41.4467L144.577 29.7032C145.538 28.7068 146.981 28.3413 148.301 28.76Z" fill="#FFB65A"/>
</g>
</g>
<path d="M147.187 32.7889L128.86 25.0194C127.946 24.6317 128.042 23.3055 129.003 23.0539L158.083 15.4383C159.02 15.1929 159.755 16.2479 159.2 17.0418L148.447 32.4269C148.165 32.8299 147.64 32.9809 147.187 32.7889Z" fill="#D28523"/>
</g>
<g opacity="0.9">
<g opacity="0.9" filter="url(#filter2_d_3442_83672)">
<path d="M249.134 80.8786L235.443 81.225C234.634 81.2455 234.112 80.377 234.51 79.6728L242.823 64.9367C243.222 64.228 244.244 64.2314 244.639 64.9427L251.343 77.0132C252.293 78.7225 251.088 80.8292 249.134 80.8786Z" fill="#FFC67F"/>
<path d="M253.556 82.3509L259.749 94.8656C260.12 95.6156 261.18 95.6434 261.589 94.9138L270.227 79.5408C270.627 78.8287 270.088 77.9543 269.272 77.9909L255.772 78.5966C253.894 78.6808 252.722 80.6664 253.556 82.3509Z" fill="#FFC67F"/>
<g filter="url(#filter3_d_3442_83672)">
<path d="M254.297 80.7389L261.638 94.0722C262.139 94.9817 261.146 95.9834 260.232 95.4907L234.307 81.51C233.376 81.0081 233.7 79.5991 234.756 79.5536L250.948 78.8561C252.332 78.7965 253.629 79.5261 254.297 80.7389Z" fill="#FFB65A"/>
</g>
</g>
<path opacity="0.9" d="M250.723 82.8669L242.844 64.7157C242.449 63.8046 243.432 62.9099 244.302 63.3897L270.467 77.8248C271.315 78.2926 271.12 79.5636 270.171 79.7565L251.886 83.4725C251.404 83.5705 250.919 83.3179 250.723 82.8669Z" fill="#D28523"/>
</g>
<g filter="url(#filter4_d_3442_83672)">
<path d="M178.978 36.2584L268.719 42.0689C268.719 42.0689 256.52 39.4407 247.798 61.873C239.076 84.3052 228.593 146.015 192.58 148.276C156.568 150.536 148.573 137.63 148.573 137.63L119.974 135.913C119.974 135.913 137.609 127.705 146.614 93.9171C155.619 60.1291 162.195 36.9354 178.978 36.2584Z" fill="#F0F3F5"/>
<path d="M250.597 45.0364C251.21 44.3506 250.779 43.2256 249.89 43.1831L180.358 39.821C180.358 39.821 169.435 39.165 156.688 78.8356C143.941 118.506 138.304 129.883 123.276 137.827L183.434 152.083C183.434 152.083 200.277 152.851 217.668 125.463C234.405 99.1061 236.54 60.7522 250.596 45.0363L250.597 45.0364Z" fill="#076563" fill-opacity="0.57"/>
<path d="M179.33 46.4989L237.971 50.0206C238.445 50.0491 238.897 49.8006 239.148 49.373L239.152 49.3657C239.668 48.4875 239.113 47.3507 238.139 47.2922L179.498 43.7704C179.024 43.742 178.572 43.9904 178.321 44.418L178.316 44.4254C177.801 45.3036 178.356 46.4404 179.33 46.4989Z" fill="url(#paint0_linear_3442_83672)"/>
<path d="M176.742 53.0828L235.384 56.6046C235.857 56.633 236.31 56.3846 236.56 55.957L236.565 55.9497C237.081 55.0714 236.526 53.9347 235.552 53.8762L176.91 50.3544C176.437 50.326 175.984 50.5744 175.734 51.002L175.729 51.0093C175.213 51.8876 175.768 53.0243 176.742 53.0828Z" fill="url(#paint1_linear_3442_83672)"/>
<path d="M194.212 61.0718L232.798 63.1938C233.27 63.22 233.719 62.9714 233.969 62.5459C234.487 61.6645 233.927 60.5253 232.949 60.472L194.363 58.35C193.891 58.3238 193.442 58.5724 193.192 58.9979C192.674 59.8793 193.234 61.0185 194.212 61.0718Z" fill="url(#paint2_linear_3442_83672)"/>
<path d="M229.392 77.1937L229.377 77.3641C229.339 77.8247 229.028 78.1729 228.673 78.152L201.651 76.4535C201.285 76.432 201.008 76.0256 201.036 75.549C201.062 75.0815 201.371 74.718 201.731 74.732L228.766 76.26C229.147 76.2743 229.432 76.7016 229.391 77.1936L229.392 77.1937Z" fill="#80D9C0"/>
<path d="M227.838 83.6751L227.824 83.8455C227.786 84.3061 227.475 84.6543 227.119 84.6335L200.098 82.935C199.731 82.9134 199.455 82.5071 199.482 82.0305C199.508 81.563 199.818 81.1994 200.178 81.2134L227.213 82.7414C227.593 82.7557 227.879 83.1831 227.837 83.6751L227.838 83.6751Z" fill="#80D9C0"/>
<path d="M225.895 90.1751L225.88 90.3455C225.842 90.8061 225.531 91.1543 225.176 91.1335L198.155 89.435C197.788 89.4134 197.512 89.0071 197.539 88.5305C197.565 88.063 197.875 87.6994 198.235 87.7134L225.27 89.2414C225.65 89.2557 225.936 89.6831 225.894 90.1751L225.895 90.1751Z" fill="#80D9C0"/>
</g>
<g filter="url(#filter5_d_3442_83672)">
<path d="M171.614 114.276C172.635 112.858 174.502 112.337 176.109 113.021L207.883 126.542C208.72 126.695 209.434 127.317 209.657 128.196L218.213 161.854C218.518 163.054 217.792 164.274 216.592 164.579L163.042 178.191C161.842 178.496 160.622 177.771 160.316 176.571L151.761 142.912C151.515 141.944 151.939 140.961 152.743 140.458L171.614 114.276Z" fill="url(#paint3_linear_3442_83672)"/>
<path d="M184.968 154.941L161.496 178.086C161.083 178.494 160.383 178.295 160.245 177.731L151.659 142.568C151.521 142.001 152.058 141.501 152.614 141.679L184.227 151.831C185.564 152.26 185.967 153.955 184.968 154.941Z" fill="#FFC67F"/>
<path d="M186.671 153.795L217.481 163.618C218.04 163.796 218.577 163.29 218.433 162.721L209.613 128.024C209.469 127.458 208.761 127.269 208.353 127.687L185.9 150.71C184.93 151.705 185.347 153.373 186.671 153.795Z" fill="#FFC67F"/>
<g filter="url(#filter6_d_3442_83672)">
<path d="M186.026 151.005L216.688 163.35C217.358 163.62 217.293 164.59 216.593 164.768L162.275 178.575C161.571 178.754 161.051 177.926 161.519 177.37L183.046 151.749C183.774 150.882 184.977 150.582 186.026 151.005Z" fill="#FFB65A"/>
</g>
</g>
<g filter="url(#filter7_d_3442_83672)">
<path d="M164.391 106.157L175.288 93.7669C178.234 90.8208 179.246 89.4028 178.654 88.8865C177.869 88.1982 178.206 88.4253 172.087 93.0166C172.087 93.0166 180.76 86.3878 177.752 86.3465C177.222 86.3465 175.749 87.2 174.172 88.2326C176.32 86.4084 176.926 85.1763 176.506 84.5912C175.818 83.5724 170.503 87.2551 168.06 89.0242C170.056 87.5373 173.863 84.6532 174.53 83.7445C175.453 82.5055 173.587 82.6088 172.073 83.125C170.373 83.7032 160.977 88.501 158.196 89.74C157.973 89.8731 157.724 89.9562 157.465 89.9837C157.207 90.0113 156.946 89.9825 156.7 89.8994C156.454 89.8163 156.229 89.6809 156.041 89.5025C155.852 89.324 155.704 89.1068 155.608 88.8658C154.582 84.5568 151.477 81.7552 150.293 81.3904C149.11 81.0256 148.194 82.5399 149.041 83.6413C149.837 84.9228 150.453 86.3079 150.872 87.7576C151.255 88.8948 151.444 90.0887 151.429 91.2888C151.429 92.6655 151.333 93.8564 151.243 94.8545L141.283 108.518L157.941 118.155L164.391 106.157Z" fill="#E6EBEE"/>
<path d="M164.391 106.157L175.288 93.7669C178.234 90.8208 179.246 89.4028 178.654 88.8865C177.869 88.1982 178.206 88.4253 172.087 93.0166C172.087 93.0166 180.76 86.3878 177.752 86.3465C177.222 86.3465 175.749 87.2 174.172 88.2326C176.32 86.4084 176.926 85.1763 176.506 84.5912C175.818 83.5724 170.503 87.2551 168.06 89.0242C170.056 87.5373 173.863 84.6532 174.53 83.7445C175.453 82.5055 173.587 82.6088 172.073 83.125C170.373 83.7032 160.977 88.501 158.196 89.74C157.973 89.8731 157.724 89.9562 157.465 89.9837C157.207 90.0113 156.946 89.9825 156.7 89.8994C156.454 89.8163 156.229 89.6809 156.041 89.5025C155.852 89.324 155.704 89.1068 155.608 88.8658C154.582 84.5568 151.477 81.7552 150.293 81.3904C149.11 81.0256 148.194 82.5399 149.041 83.6413C149.837 84.9228 150.453 86.3079 150.872 87.7576C151.255 88.8948 151.444 90.0887 151.429 91.2888C151.429 92.6655 151.333 93.8564 151.243 94.8545L141.283 108.518L157.941 118.155L164.391 106.157Z" fill="url(#paint4_linear_3442_83672)" fill-opacity="0.8" style="mix-blend-mode:color-burn"/>
<path d="M164.391 106.157L175.288 93.7669C178.234 90.8208 179.246 89.4028 178.654 88.8865C177.869 88.1982 178.206 88.4253 172.087 93.0166C172.087 93.0166 180.76 86.3878 177.752 86.3465C177.222 86.3465 175.749 87.2 174.172 88.2326C176.32 86.4084 176.926 85.1763 176.506 84.5912C175.818 83.5724 170.503 87.2551 168.06 89.0242C170.056 87.5373 173.863 84.6532 174.53 83.7445C175.453 82.5055 173.587 82.6088 172.073 83.125C170.373 83.7032 160.977 88.501 158.196 89.74C157.973 89.8731 157.724 89.9562 157.465 89.9837C157.207 90.0113 156.946 89.9825 156.7 89.8994C156.454 89.8163 156.229 89.6809 156.041 89.5025C155.852 89.324 155.704 89.1068 155.608 88.8658C154.582 84.5568 151.477 81.7552 150.293 81.3904C149.11 81.0256 148.194 82.5399 149.041 83.6413C149.837 84.9228 150.453 86.3079 150.872 87.7576C151.255 88.8948 151.444 90.0887 151.429 91.2888C151.429 92.6655 151.333 93.8564 151.243 94.8545L141.283 108.518L157.941 118.155L164.391 106.157Z" fill="#2F3941" fill-opacity="0.15" style="mix-blend-mode:multiply"/>
<path d="M168.286 94.9443C168.396 95.0957 170.351 93.7672 172.609 91.9706C174.867 90.174 176.629 88.5908 176.498 88.4463C176.367 88.3017 174.433 89.6371 172.175 91.4199C169.917 93.2027 168.19 94.7859 168.286 94.9443Z" fill="#E6EBEE"/>
<path d="M168.286 94.9443C168.396 95.0957 170.351 93.7672 172.609 91.9706C174.867 90.174 176.629 88.5908 176.498 88.4463C176.367 88.3017 174.433 89.6371 172.175 91.4199C169.917 93.2027 168.19 94.7859 168.286 94.9443Z" fill="url(#paint5_linear_3442_83672)" fill-opacity="0.8" style="mix-blend-mode:color-burn"/>
<path d="M168.286 94.9443C168.396 95.0957 170.351 93.7672 172.609 91.9706C174.867 90.174 176.629 88.5908 176.498 88.4463C176.367 88.3017 174.433 89.6371 172.175 91.4199C169.917 93.2027 168.19 94.7859 168.286 94.9443Z" fill="#2F3941" fill-opacity="0.15" style="mix-blend-mode:multiply"/>
<path d="M166.181 92.7686C166.291 92.9269 168.432 91.619 170.965 89.8568C173.498 88.0947 175.467 86.5321 175.356 86.3807C175.246 86.2293 173.106 87.5234 170.572 89.2855C168.039 91.0477 166.071 92.6102 166.181 92.7686Z" fill="#E6EBEE"/>
<path d="M166.181 92.7686C166.291 92.9269 168.432 91.619 170.965 89.8568C173.498 88.0947 175.467 86.5321 175.356 86.3807C175.246 86.2293 173.106 87.5234 170.572 89.2855C168.039 91.0477 166.071 92.6102 166.181 92.7686Z" fill="url(#paint6_linear_3442_83672)" fill-opacity="0.8" style="mix-blend-mode:color-burn"/>
<path d="M166.181 92.7686C166.291 92.9269 168.432 91.619 170.965 89.8568C173.498 88.0947 175.467 86.5321 175.356 86.3807C175.246 86.2293 173.106 87.5234 170.572 89.2855C168.039 91.0477 166.071 92.6102 166.181 92.7686Z" fill="#2F3941" fill-opacity="0.15" style="mix-blend-mode:multiply"/>
<path d="M164.638 90.4565C164.749 90.6149 166.8 89.4171 169.216 87.7789C171.632 86.1406 173.504 84.6882 173.401 84.523C173.298 84.3578 171.247 85.5624 168.824 87.2007C166.401 88.8389 164.535 90.2982 164.638 90.4565Z" fill="#E6EBEE"/>
<path d="M164.638 90.4565C164.749 90.6149 166.8 89.4171 169.216 87.7789C171.632 86.1406 173.504 84.6882 173.401 84.523C173.298 84.3578 171.247 85.5624 168.824 87.2007C166.401 88.8389 164.535 90.2982 164.638 90.4565Z" fill="url(#paint7_linear_3442_83672)" fill-opacity="0.8" style="mix-blend-mode:color-burn"/>
<path d="M164.638 90.4565C164.749 90.6149 166.8 89.4171 169.216 87.7789C171.632 86.1406 173.504 84.6882 173.401 84.523C173.298 84.3578 171.247 85.5624 168.824 87.2007C166.401 88.8389 164.535 90.2982 164.638 90.4565Z" fill="#2F3941" fill-opacity="0.15" style="mix-blend-mode:multiply"/>
<path d="M150.313 96.7065L110.609 147.052L119.702 168.219C119.702 168.219 130.592 165.81 133.896 161.225C137.2 156.641 164.39 106.158 164.39 106.158L150.313 96.7065Z" fill="#E6EBEE"/>
<path d="M150.313 96.7065L110.609 147.052L119.702 168.219C119.702 168.219 130.592 165.81 133.896 161.225C137.2 156.641 164.39 106.158 164.39 106.158L150.313 96.7065Z" fill="url(#paint8_linear_3442_83672)" fill-opacity="0.8" style="mix-blend-mode:color-burn"/>
<path d="M150.313 96.7065L110.609 147.052L119.702 168.219C119.702 168.219 130.592 165.81 133.896 161.225C137.2 156.641 164.39 106.158 164.39 106.158L150.313 96.7065Z" fill="#2F3941" fill-opacity="0.15" style="mix-blend-mode:multiply"/>
<path d="M49.525 26.2749C46.6684 28.753 46.6753 33.1171 47.0057 36.8823C47.3361 40.6476 47.5908 44.936 44.9819 47.6756C42.8274 49.9334 38.9244 50.9178 38.4288 53.9947C38.3114 54.7176 38.4209 55.4592 38.7421 56.1174C39.0633 56.7757 39.5805 57.3182 40.2226 57.6706C40.8646 58.023 41.6001 58.1678 42.3279 58.0852C43.0556 58.0026 43.7399 57.6966 44.2867 57.2092C43.4469 59.6391 44.0251 62.6747 46.1315 64.1478C48.2378 65.6209 51.7691 64.7122 52.423 62.2273C52.316 62.6422 52.2957 63.0746 52.3632 63.4977C52.4307 63.9208 52.5847 64.3254 52.8156 64.6863C53.0465 65.0473 53.3492 65.3567 53.705 65.5955C54.0608 65.8342 54.4619 65.997 54.8834 66.0738C55.3049 66.1507 55.7377 66.1398 56.1548 66.0419C56.572 65.944 56.9644 65.7612 57.3077 65.5049C57.6511 65.2486 57.9379 64.9244 58.1503 64.5523C58.3628 64.1802 58.4963 63.7684 58.5425 63.3424" fill="#121516"/>
<path d="M90.4327 51.6884C90.817 52.6103 91.5518 53.3418 92.4755 53.722C93.3991 54.1022 94.436 54.0998 95.3579 53.7155C96.2798 53.3313 97.0114 52.5965 97.3915 51.6728C97.7717 50.7492 97.7694 49.7124 97.3851 48.7904C96.7312 47.3587 95.1824 46.3261 95.0309 44.7567C94.852 42.8637 96.7862 41.5077 98.4727 40.6817C100.159 39.8557 102.197 38.7818 102.383 36.882C102.568 34.9822 100.923 33.6261 99.5534 32.4009C98.1836 31.1756 96.8 29.2758 97.6742 27.6444C98.1079 26.8046 99.0096 26.3296 99.5947 25.5793C100.882 23.9411 100.207 21.3322 98.5622 20.0725C96.917 18.8129 94.6455 18.6133 92.5942 18.9781C90.5429 19.3429 88.6155 20.1965 86.6193 20.7953C83.3101 21.7575 79.8375 22.0231 76.4205 21.5753C73.0035 21.1274 69.7166 19.9759 66.7672 18.1934" fill="#121516"/>
<path d="M78.2458 96.0801C74.6896 96.7978 70.9937 96.0885 67.9558 94.1053C64.9179 92.1221 62.7815 89.024 62.0076 85.4795L52.2399 40.6956C51.6302 38.1097 51.5453 35.4277 51.9902 32.8083C52.435 30.1889 53.4006 27.6854 54.8298 25.4456C56.259 23.2059 58.1228 21.2755 60.311 19.7686C62.4992 18.2616 64.9673 17.2088 67.5695 16.6723L68.5882 16.5209C73.5645 15.7893 78.6337 16.9593 82.786 19.7976C86.9383 22.636 89.8689 26.9344 90.9941 31.8366C93.1693 41.2876 95.4477 51.7574 96.1361 56.8993C97.561 67.5481 87.1875 70.7558 87.1875 70.7558L89.053 79.7043C89.4228 81.4872 89.4367 83.3257 89.0939 85.114C88.7511 86.9023 88.0584 88.6053 87.0554 90.1251C86.0525 91.6448 84.7591 92.9515 83.2496 93.9699C81.7402 94.9883 80.0444 95.6984 78.2596 96.0594L78.2458 96.0801Z" fill="#E6EBEE"/>
<path d="M78.2458 96.0801C74.6896 96.7978 70.9937 96.0885 67.9558 94.1053C64.9179 92.1221 62.7815 89.024 62.0076 85.4795L52.2399 40.6956C51.6302 38.1097 51.5453 35.4277 51.9902 32.8083C52.435 30.1889 53.4006 27.6854 54.8298 25.4456C56.259 23.2059 58.1228 21.2755 60.311 19.7686C62.4992 18.2616 64.9673 17.2088 67.5695 16.6723L68.5882 16.5209C73.5645 15.7893 78.6337 16.9593 82.786 19.7976C86.9383 22.636 89.8689 26.9344 90.9941 31.8366C93.1693 41.2876 95.4477 51.7574 96.1361 56.8993C97.561 67.5481 87.1875 70.7558 87.1875 70.7558L89.053 79.7043C89.4228 81.4872 89.4367 83.3257 89.0939 85.114C88.7511 86.9023 88.0584 88.6053 87.0554 90.1251C86.0525 91.6448 84.7591 92.9515 83.2496 93.9699C81.7402 94.9883 80.0444 95.6984 78.2596 96.0594L78.2458 96.0801Z" fill="url(#paint9_linear_3442_83672)" fill-opacity="0.8" style="mix-blend-mode:color-burn"/>
<path d="M78.2458 96.0801C74.6896 96.7978 70.9937 96.0885 67.9558 94.1053C64.9179 92.1221 62.7815 89.024 62.0076 85.4795L52.2399 40.6956C51.6302 38.1097 51.5453 35.4277 51.9902 32.8083C52.435 30.1889 53.4006 27.6854 54.8298 25.4456C56.259 23.2059 58.1228 21.2755 60.311 19.7686C62.4992 18.2616 64.9673 17.2088 67.5695 16.6723L68.5882 16.5209C73.5645 15.7893 78.6337 16.9593 82.786 19.7976C86.9383 22.636 89.8689 26.9344 90.9941 31.8366C93.1693 41.2876 95.4477 51.7574 96.1361 56.8993C97.561 67.5481 87.1875 70.7558 87.1875 70.7558L89.053 79.7043C89.4228 81.4872 89.4367 83.3257 89.0939 85.114C88.7511 86.9023 88.0584 88.6053 87.0554 90.1251C86.0525 91.6448 84.7591 92.9515 83.2496 93.9699C81.7402 94.9883 80.0444 95.6984 78.2596 96.0594L78.2458 96.0801Z" fill="#2F3941" fill-opacity="0.15" style="mix-blend-mode:multiply"/>
<path d="M89.078 38.8854C89.1384 39.2806 89.043 39.6838 88.8118 40.01C88.5807 40.3362 88.2319 40.5599 87.839 40.6338C87.6485 40.6772 87.4514 40.6821 87.259 40.6482C87.0667 40.6144 86.8831 40.5424 86.7189 40.4366C86.5548 40.3308 86.4134 40.1933 86.3031 40.0321C86.1929 39.871 86.1159 39.6894 86.0768 39.498C86.0125 39.1033 86.1056 38.6992 86.336 38.3723C86.5663 38.0455 86.9156 37.8219 87.3089 37.7496C87.4997 37.7062 87.6973 37.7012 87.8901 37.735C88.0829 37.7688 88.267 37.8406 88.4317 37.9464C88.5964 38.0521 88.7384 38.1896 88.8494 38.3508C88.9603 38.5121 89.038 38.6938 89.078 38.8854Z" fill="#263238"/>
<path d="M89.4729 37.3704C89.3145 37.5975 88.0411 36.9092 86.4028 37.157C84.7645 37.4048 83.6976 38.3891 83.4911 38.217C83.3878 38.1413 83.5324 37.7558 83.9936 37.3015C84.6287 36.7083 85.4318 36.326 86.2927 36.2071C87.1416 36.0789 88.0093 36.2235 88.7707 36.6201C89.3283 36.9367 89.5486 37.2671 89.4729 37.3704Z" fill="#263238"/>
<path d="M73.1156 41.501C73.1778 41.8964 73.0831 42.3005 72.8517 42.6272C72.6202 42.9538 72.2703 43.177 71.8766 43.2494C71.6857 43.2927 71.488 43.2973 71.2953 43.263C71.1026 43.2287 70.9187 43.1562 70.7545 43.0497C70.5902 42.9432 70.449 42.8049 70.339 42.643C70.2291 42.481 70.1527 42.2987 70.1144 42.1067C70.0523 41.7121 70.1472 41.3088 70.3788 40.9833C70.6104 40.6578 70.9602 40.4359 71.3534 40.3652C71.5439 40.3208 71.7413 40.3152 71.934 40.3486C72.1267 40.3821 72.3107 40.4539 72.4751 40.5599C72.6394 40.6658 72.7809 40.8037 72.8909 40.9654C73.001 41.127 73.0773 41.3092 73.1156 41.501Z" fill="#263238"/>
<path d="M73.4605 40.0276C73.3022 40.2479 72.0287 39.5664 70.3973 39.8142C68.7659 40.062 67.6852 41.0463 67.4787 40.8743C67.3823 40.7985 67.52 40.4131 67.9881 39.9588C68.6232 39.3655 69.4263 38.9832 70.2872 38.8643C71.1361 38.7361 72.0038 38.8807 72.7652 39.2773C73.2953 39.5733 73.5431 39.9243 73.4605 40.0276Z" fill="#263238"/>
<path d="M81.1623 51.2749C81.1623 51.1786 82.1329 50.855 83.7436 50.4076C84.1566 50.3044 84.5352 50.1598 84.5627 49.8638C84.5345 49.4302 84.3761 49.0152 84.1085 48.673C83.5624 47.723 82.9956 46.7249 82.4082 45.6786C80.0334 41.404 78.2781 37.8728 78.4227 37.7764C78.5672 37.6801 80.6598 41.0667 83.0346 45.3482L84.6866 48.3632C85.0203 48.8312 85.1809 49.4006 85.141 49.9739C85.0987 50.126 85.023 50.2668 84.9194 50.3858C84.8158 50.5049 84.6869 50.5994 84.5421 50.6623C84.3217 50.7567 84.0905 50.8238 83.8538 50.8619C82.9772 51.1108 82.0731 51.2495 81.1623 51.2749Z" fill="#263238"/>
<path d="M72.9505 33.5639C72.8541 34.032 71.1883 34.0596 69.3091 34.5689C67.4299 35.0783 65.9568 35.8286 65.6402 35.4707C65.5025 35.2986 65.709 34.8374 66.2666 34.3211C67.0231 33.6712 67.918 33.2026 68.883 32.9509C69.8481 32.6992 70.8578 32.6711 71.8354 32.8687C72.6063 33.0477 72.9849 33.3781 72.9505 33.5639Z" fill="#263238"/>
<path d="M88.1777 32.7313C87.9437 33.1443 86.801 32.924 85.4243 33.103C84.0476 33.2819 82.96 33.7225 82.6709 33.3714C82.5264 33.1993 82.6709 32.8001 83.0977 32.3733C83.7087 31.854 84.4605 31.5283 85.2573 31.4376C86.0541 31.3468 86.8598 31.4953 87.572 31.864C88.0676 32.1737 88.281 32.5316 88.1777 32.7313Z" fill="#263238"/>
<path d="M62.0679 27.3476L62.0197 27.4026C60.5201 28.9854 59.6912 31.0871 59.7068 33.2673V33.4807C59.7068 36.5783 60.2644 39.6759 60.2575 42.739C60.2506 45.8022 59.6586 49.0649 57.7244 51.4741C56.9328 52.4722 55.3909 53.2983 54.4891 52.4034C54.1715 52.0227 53.9686 51.5596 53.904 51.068C52.2658 43.8335 49.3196 37.6384 48.2114 29.9839C48.0577 28.9593 48.1505 27.9127 48.4821 26.9311C48.8137 25.9495 49.3746 25.0611 50.1181 24.3395C51.5499 22.9628 53.3327 21.476 55.2394 22.061C57.1462 22.6461 59.934 25.6405 61.5241 26.8795" fill="#121516"/>
<path d="M76.1074 56.026C76.4221 55.8893 77.2772 58.0115 79.6875 58.7767C82.0977 59.542 84.2726 58.4063 84.4071 58.6969C84.4648 58.8298 84.0698 59.3172 83.1227 59.7202C81.8902 60.2398 80.5132 60.3046 79.2374 59.9031C78.0117 59.5215 76.9831 58.6772 76.37 57.5494C75.9244 56.6956 75.9545 56.0758 76.1074 56.026Z" fill="#001825"/>
<path d="M55.7696 53.003C55.7696 53.003 55.6595 53.1131 55.4668 53.2439C55.1892 53.4277 54.8512 53.4968 54.5237 53.4367C53.7115 53.2921 52.851 52.1976 52.5826 50.8967C52.4441 50.2826 52.4441 49.6453 52.5826 49.0312C52.6111 48.7932 52.6967 48.5657 52.8321 48.3679C52.9676 48.1701 53.1488 48.0081 53.3604 47.8955C53.4983 47.8305 53.6547 47.8162 53.802 47.8553C53.9494 47.8943 54.0782 47.9841 54.1658 48.1088C54.2966 48.2878 54.2759 48.4461 54.3172 48.4461C54.3585 48.4461 54.448 48.3016 54.3172 48.0125C54.2458 47.841 54.1168 47.6998 53.9524 47.6132C53.7266 47.4981 53.4648 47.4759 53.2228 47.5513C52.9345 47.666 52.6805 47.8528 52.4853 48.0939C52.29 48.335 52.1599 48.6222 52.1076 48.928C51.9166 49.6002 51.8906 50.3086 52.0319 50.993C52.3417 52.4454 53.3329 53.6707 54.4274 53.7877C54.6324 53.8094 54.8396 53.7848 55.0338 53.7157C55.228 53.6466 55.4042 53.5348 55.5494 53.3885C55.7903 53.1751 55.7972 53.0099 55.7696 53.003Z" fill="#263238"/>
<path d="M55.1551 23.2255C52.9386 20.5754 57.2202 15.6881 60.6619 14.0292C64.1037 12.3703 69.0598 13.4303 72.8044 14.0911C75.1655 14.511 77.561 15.2269 79.9151 14.7795C81.4774 14.3885 82.9719 13.7643 84.3481 12.9278C85.7281 12.1064 87.2589 11.5704 88.8499 11.3515C89.6502 11.2531 90.4621 11.3748 91.1984 11.7035C91.9346 12.0322 92.5673 12.5554 93.0282 13.217C93.8474 14.5936 93.276 16.7482 91.7341 17.1956C92.1988 16.8428 92.7422 16.6081 93.3175 16.5114C93.8929 16.4148 94.4831 16.4592 95.0376 16.6407C95.592 16.8223 96.0942 17.1357 96.5009 17.5539C96.9077 17.9722 97.2069 18.4829 97.3729 19.0422C97.5389 19.6015 97.5667 20.1928 97.4541 20.7652C97.3414 21.3376 97.0915 21.8742 96.7259 22.3289C96.3603 22.7835 95.8898 23.1427 95.3549 23.3756C94.82 23.6085 94.2365 23.7082 93.6546 23.6661C94.5701 22.7299 96.3461 23.7968 96.408 25.1047C96.47 26.4126 95.4374 27.5208 94.343 28.216C91.5138 29.992 87.9206 30.0815 84.6303 29.4895C81.34 28.8975 78.1873 27.6722 74.9108 26.9977C71.6342 26.3231 66.1343 25.0428 63.1744 26.6053C60.9992 27.748 59.8015 30.7354 58.4179 30.3293C57.7627 30.0879 57.1728 29.6973 56.6949 29.1883C56.217 28.6793 55.8642 28.0659 55.6645 27.3969C55.2916 26.0536 55.1359 24.6593 55.2033 23.2668" fill="#121516"/>
<path d="M40.9985 56.7819C40.8631 56.7509 40.7348 56.6949 40.6199 56.6167C40.2795 56.398 40.0076 56.0879 39.8352 55.7218C39.5683 55.1362 39.4866 54.4829 39.6012 53.8495C39.7798 53.0166 40.2361 52.269 40.8953 51.7294C41.6775 51.0855 42.5584 50.5718 43.5041 50.2082C44.5672 49.8202 45.5888 49.3268 46.5535 48.7351C47.5644 48.0248 48.3351 47.0236 48.7631 45.8647C49.2335 44.6167 49.4511 43.2877 49.4033 41.9549C49.3344 39.2015 48.5704 36.6202 48.3845 34.1903C48.1987 31.7604 48.5084 29.482 49.541 27.9057C50.3172 26.638 51.5483 25.7146 52.9827 25.3244C53.3672 25.2276 53.7638 25.1881 54.1598 25.2074C54.2974 25.2096 54.434 25.2304 54.5659 25.2693C54.0435 25.2659 53.5228 25.3307 53.0171 25.4621C51.6533 25.8932 50.4964 26.8123 49.7681 28.0434C48.8113 29.5715 48.4809 31.788 48.7218 34.1628C48.9627 36.5376 49.6993 39.1189 49.7819 41.948C49.8257 43.3296 49.5916 44.706 49.0936 45.9955C48.633 47.2199 47.8092 48.2743 46.7325 49.0173C45.7445 49.6105 44.6999 50.104 43.6143 50.4904C42.6937 50.8318 41.832 51.3149 41.0605 51.9222C40.4315 52.4197 39.986 53.1123 39.7939 53.8908C39.6683 54.4836 39.7259 55.1006 39.9591 55.6599C40.1719 56.1386 40.5375 56.5332 40.9985 56.7819Z" fill="#455A64"/>
<path d="M91.9708 17.0228C92.0674 16.9504 92.1741 16.8924 92.2874 16.8507C92.416 16.7873 92.5496 16.7344 92.6867 16.6924C92.8771 16.6272 93.0729 16.5788 93.2718 16.5479C93.9246 16.4449 94.5924 16.4917 95.2244 16.6849C95.8565 16.8781 96.4363 17.2126 96.92 17.663C97.4101 18.2599 97.7768 18.9481 97.9989 19.6878C98.2211 20.4275 98.2942 21.2039 98.2141 21.972C98.1217 22.9261 97.8389 23.8521 97.3825 24.695C96.9262 25.538 96.3055 26.2809 95.5571 26.88C93.8367 28.2659 91.742 29.1072 89.5409 29.2961C87.1508 29.5016 84.7435 29.3555 82.3958 28.8624C78.6731 28.1331 75.1081 26.7537 71.864 24.7874C70.4734 23.9272 69.019 23.1747 67.5136 22.5365C66.2004 22.0036 64.8005 21.7166 63.3835 21.6898C61.3216 21.6452 59.2815 22.1185 57.4499 23.0665C56.7879 23.437 56.1467 23.8438 55.5294 24.2849C56.0807 23.7434 56.7038 23.2801 57.3811 22.9082C59.2176 21.8849 61.2882 21.356 63.3904 21.3732C64.8421 21.3843 66.2793 21.6619 67.6307 22.1923C69.1519 22.8298 70.6223 23.5823 72.0292 24.4432C75.2507 26.3688 78.7814 27.7219 82.4647 28.4425C84.7778 28.9324 87.1499 29.0831 89.5065 28.8899C91.6401 28.7129 93.6737 27.9082 95.3506 26.5771C96.0719 26.0069 96.6722 25.2987 97.1166 24.4938C97.561 23.689 97.8405 22.8036 97.9388 21.8894C98.0229 21.157 97.9616 20.4151 97.7584 19.7064C97.5552 18.9977 97.2142 18.336 96.7548 17.7593C96.2959 17.3213 95.7453 16.9908 95.1429 16.792C94.5404 16.5932 93.9012 16.5309 93.2718 16.6098C92.8264 16.7073 92.3909 16.8456 91.9708 17.0228Z" fill="#455A64"/>
<path d="M87.9436 11C87.9684 11.5531 87.8818 12.1055 87.6889 12.6245C87.1518 14.0589 86.1482 15.2711 84.8391 16.0662C83.9595 16.6393 82.9818 17.0453 81.9549 17.264C80.7774 17.5012 79.5713 17.5639 78.3755 17.4498C75.8492 17.264 73.206 16.3966 70.4319 15.6808C67.6579 14.9649 64.8838 14.5863 62.4883 15.2265C60.3622 15.7897 58.4715 17.0173 57.0917 18.7301C56.1427 19.8678 55.4396 21.1897 55.0266 22.6124C54.7513 23.6243 54.7168 24.2163 54.6687 24.2094C54.6594 24.0673 54.6594 23.9247 54.6687 23.7826C54.7064 23.3768 54.7731 22.9743 54.8683 22.578C55.2355 21.1103 55.9192 19.7407 56.8714 18.5649C58.2648 16.7817 60.1959 15.4952 62.3782 14.896C64.8563 14.2077 67.706 14.6001 70.4939 15.3228C73.2817 16.0456 75.9043 16.9129 78.3755 17.1125C79.5397 17.233 80.7152 17.1843 81.8654 16.968C82.8603 16.7655 83.8112 16.388 84.6739 15.8528C85.9502 15.1003 86.9497 13.956 87.5237 12.5901C87.7079 12.0728 87.8484 11.5409 87.9436 11Z" fill="#455A64"/>
<path d="M87.1719 70.7554C87.1719 70.7554 80.2334 73.3849 73.4807 71.4437C73.4807 71.4437 78.5744 75.7184 87.8672 74.0801L87.1719 70.7554Z" fill="#E6EBEE"/>
<path d="M87.1719 70.7554C87.1719 70.7554 80.2334 73.3849 73.4807 71.4437C73.4807 71.4437 78.5744 75.7184 87.8672 74.0801L87.1719 70.7554Z" fill="url(#paint10_linear_3442_83672)" fill-opacity="0.8" style="mix-blend-mode:color-burn"/>
<path d="M87.1719 70.7554C87.1719 70.7554 80.2334 73.3849 73.4807 71.4437C73.4807 71.4437 78.5744 75.7184 87.8672 74.0801L87.1719 70.7554Z" fill="#2F3941" fill-opacity="0.15" style="mix-blend-mode:multiply"/>
<path d="M76.585 169.444C76.9194 169.225 77.2369 168.981 77.5349 168.715C77.8308 168.474 78.2232 168.178 78.6431 167.861C79.063 167.545 79.5724 167.173 80.1575 166.794C80.7426 166.416 81.3483 166.003 82.0573 165.61C82.7663 165.218 83.5167 164.805 84.322 164.392C87.8534 162.654 91.6503 161.519 95.5559 161.033C96.4577 160.936 97.3112 160.826 98.1166 160.806C98.922 160.785 99.6723 160.751 100.354 160.757C101.035 160.764 101.662 160.799 102.205 160.819C102.749 160.84 103.217 160.881 103.582 160.923C103.976 160.983 104.374 161.01 104.773 161.005C104.386 160.906 103.993 160.832 103.596 160.785C103.14 160.707 102.681 160.652 102.219 160.62C101.675 160.578 101.056 160.503 100.361 160.503C99.6654 160.503 98.9151 160.461 98.1028 160.503C97.2906 160.544 96.4232 160.613 95.5146 160.695C93.5449 160.941 91.5977 161.341 89.6912 161.893C87.799 162.475 85.9573 163.209 84.1844 164.089C83.379 164.516 82.6012 164.908 81.9197 165.349C81.2382 165.789 80.5912 166.182 80.0267 166.581C79.4623 166.98 78.9666 167.366 78.533 167.696C78.0993 168.026 77.7414 168.343 77.4591 168.605C77.1448 168.86 76.8524 169.141 76.585 169.444Z" fill="#FAFAFA"/>
<path d="M117.042 134.09L111.397 109.633C109.236 100.437 106.675 91.5985 102.373 90.5522V93.3951L104.218 163.269C104.218 163.269 115.72 176.348 130.375 169.093C134.959 166.814 143.323 150.81 143.323 150.81C143.323 150.81 162.783 116.09 161.97 114.514C161.158 112.937 149.27 97.6147 148.059 96.8506L117.042 134.09Z" fill="#006B4D"/>
<path d="M58.956 83.6279C47.7359 85.7756 35.1046 92.3218 29.2881 109.097C27.168 115.223 11.7213 160.386 11.7213 160.386L38.0646 159.835L42.3186 150.535L40.2535 165.645L38.0646 187.075L104.525 175.934V155.849L103.885 91.2824C103.885 91.2824 103.141 90.3049 91.6665 83.979C84.5489 80.0485 58.956 83.6279 58.956 83.6279Z" fill="#007D5A"/>
<g opacity="0.2">
<path opacity="0.2" d="M52.3196 126.814C51.2252 140.444 49.9724 144.656 48.8779 158.286C48.8518 159.576 48.6194 160.854 48.1895 162.072C47.9597 162.677 47.5907 163.22 47.1124 163.656C46.6341 164.093 46.0599 164.41 45.4361 164.584C43.495 164.976 40.9756 166.381 40.4318 164.481L42.2697 151.354C42.6648 149.444 43.2744 147.586 44.0869 145.813C48.1689 136.747 49.6764 136.217 52.3472 126.814" fill="black"/>
</g>
<path d="M91.6738 90.9654L91.4536 89.5474L89.3265 75.9456C89.2653 75.5503 89.0566 75.1928 88.7424 74.945C88.4283 74.6973 88.032 74.5777 87.6332 74.6102L61.4414 76.7992C60.6503 76.8642 59.9169 77.2393 59.4011 77.8427C58.8854 78.4462 58.629 79.229 58.688 80.0207L59.2731 87.9229L67.4507 98.5923L79.2284 100.43" fill="#007D5A"/>
<path d="M104.826 116.538C104.723 116.538 104.647 127.193 104.647 140.334C104.647 153.474 104.723 164.13 104.826 164.13C104.929 164.13 105.005 153.474 105.005 140.334C105.005 127.193 104.922 116.538 104.826 116.538Z" fill="#263238"/>
<path d="M37.4994 162.023C37.4994 162.023 37.4994 161.975 37.582 161.872C37.6646 161.769 37.7128 161.597 37.8023 161.404L38.6008 159.593L41.4713 152.91L50.8259 130.807C52.6432 126.484 54.3709 122.368 55.9404 118.616C56.7338 116.859 57.3027 115.009 57.6337 113.109C57.9243 111.45 58.0762 109.769 58.088 108.084C58.1757 105.643 57.8212 103.206 57.0418 100.891L56.8284 100.32L56.5874 99.838C56.4743 99.5817 56.3359 99.3373 56.1744 99.1084L55.8853 98.6816C55.852 98.6331 55.8152 98.5871 55.7752 98.5439C56.2279 99.3051 56.6082 100.107 56.911 100.939C57.6314 103.249 57.9435 105.667 57.8333 108.084C57.8217 111.674 57.0743 115.223 55.6375 118.513L50.4955 130.69L41.2372 152.834L38.4838 159.559L37.7472 161.397L37.5614 161.879C37.5363 161.925 37.5155 161.973 37.4994 162.023Z" fill="#263238"/>
<path d="M50.7924 86.0303C51.0331 86.2747 51.2883 86.5046 51.5564 86.7186C52.3304 87.3088 53.1743 87.8013 54.0689 88.1848C55.4861 88.7762 56.9701 89.1923 58.4881 89.4238C60.4946 89.7355 62.5169 89.9355 64.5456 90.0227C66.8034 90.1191 69.2677 90.0778 71.911 90.126C74.7187 90.1212 77.5163 90.4634 80.2401 91.1447C83.2578 91.8578 85.9888 93.4681 88.0735 95.7635C89.1121 97.0136 89.8556 98.4818 90.2487 100.059C90.6689 101.676 90.6403 103.378 90.1661 104.98C89.9029 105.771 89.5148 106.515 89.0165 107.183C88.5149 107.832 87.8814 108.367 87.158 108.753C86.4561 109.137 85.656 109.305 84.8589 109.234C84.0792 109.154 83.3575 108.786 82.8351 108.202C82.3698 107.587 82.0387 106.882 81.8632 106.131C81.6877 105.381 81.6718 104.602 81.8164 103.845C81.9308 103.097 82.1631 102.372 82.5047 101.697C82.8444 101.039 83.2528 100.418 83.7231 99.8454C85.563 97.7249 88.0412 96.2588 90.7856 95.6671C93.1633 95.1062 95.6421 95.1346 98.0064 95.7497C99.9512 96.2528 101.808 97.049 103.513 98.1108C104.812 98.9204 106.037 99.8417 107.175 100.864C108.118 101.69 108.786 102.406 109.24 102.874L109.75 103.425C109.805 103.491 109.868 103.551 109.936 103.604C109.125 102.58 108.227 101.629 107.251 100.761C106.124 99.7184 104.903 98.7828 103.603 97.9662C101.881 96.871 100 96.049 98.027 95.5295C95.6239 94.8849 93.099 94.8423 90.6755 95.4056C87.8601 95.9994 85.3153 97.4954 83.4271 99.6664C82.9461 100.241 82.5263 100.864 82.1743 101.525C81.827 102.234 81.5947 102.994 81.486 103.776C81.3656 104.573 81.3796 105.385 81.5273 106.178C81.6756 107.004 82.0388 107.775 82.5804 108.415C83.1591 109.065 83.9593 109.475 84.8245 109.565C85.6925 109.647 86.5653 109.468 87.3301 109.049C88.0984 108.638 88.7715 108.071 89.3056 107.383C89.831 106.682 90.2401 105.901 90.5171 105.07C91.0118 103.405 91.0404 101.636 90.5997 99.9556C90.1981 98.3232 89.4281 96.8045 88.3488 95.5157C86.2133 93.1735 83.4208 91.5302 80.3364 90.8005C77.5816 90.1271 74.7537 89.7988 71.9179 89.8231C69.2677 89.7818 66.8034 89.8231 64.5594 89.7611C62.5387 89.6907 60.5233 89.5091 58.5225 89.2173C57.0134 89.0006 55.5349 88.6079 54.1171 88.0471C53.2275 87.6859 52.3822 87.224 51.5977 86.6705C51.3224 86.4846 51.1365 86.3125 50.9989 86.2161C50.9362 86.1476 50.8671 86.0854 50.7924 86.0303Z" fill="#FAFAFA"/>
<path d="M28.0273 114.679C28.1238 114.707 28.2231 114.723 28.3233 114.728C28.516 114.728 28.7983 114.776 29.17 114.789C30.21 114.824 31.2511 114.798 32.2882 114.714C33.6029 114.617 35.1586 114.418 36.8795 114.177C38.6003 113.936 40.4864 113.681 42.4827 113.578C44.3493 113.476 46.2212 113.618 48.0514 113.998C49.548 114.302 50.9848 114.849 52.3055 115.616C53.5017 116.347 54.5634 117.278 55.4443 118.369C55.4071 118.277 55.356 118.191 55.2929 118.114C55.1476 117.871 54.9819 117.641 54.7973 117.426C54.1303 116.611 53.3324 115.913 52.4362 115.361C51.107 114.549 49.6501 113.967 48.1272 113.64C46.2679 113.234 44.3623 113.081 42.462 113.186C40.4452 113.289 38.5522 113.564 36.8313 113.819C35.1104 114.074 33.5685 114.301 32.2675 114.425C30.9666 114.549 29.8996 114.604 29.17 114.611C28.788 114.61 28.4064 114.633 28.0273 114.679Z" fill="#FAFAFA"/>
<path d="M44.5699 145.538C45.8639 145.237 47.1946 145.123 48.521 145.201C50.0767 145.306 51.6162 145.581 53.1123 146.02C54.8676 146.495 56.8294 147.19 59.0321 147.871C61.424 148.682 63.9273 149.117 66.4525 149.159C69.3606 149.158 72.2376 148.561 74.9055 147.403C77.8703 146.15 80.5079 144.233 82.615 141.8C83.755 140.529 84.6845 139.083 85.3684 137.519C86.0963 135.899 86.3699 134.112 86.16 132.349C85.9203 130.572 85.0537 128.939 83.7164 127.744C83.0522 127.165 82.2555 126.758 81.3967 126.56C80.5564 126.382 79.6859 126.406 78.8566 126.63C78.0274 126.854 77.2631 127.271 76.6264 127.847C76.0044 128.418 75.5719 129.165 75.3873 129.988C75.2092 130.794 75.2739 131.635 75.5732 132.404C75.8627 133.144 76.3008 133.816 76.8604 134.38C77.9279 135.449 79.2183 136.269 80.6395 136.782C81.3086 137.036 81.9999 137.228 82.7045 137.353C83.0487 137.415 83.3929 137.491 83.7301 137.539L84.7558 137.663C87.2711 137.912 89.8104 137.733 92.2657 137.133C94.2906 136.651 96.242 135.901 98.0685 134.903C99.4497 134.157 100.745 133.261 101.93 132.232L102.619 131.633L103.183 131.062C103.487 130.774 103.773 130.465 104.037 130.14L104.532 129.548C104.589 129.483 104.639 129.414 104.684 129.341C104.617 129.398 104.555 129.46 104.498 129.527L103.981 130.091C103.709 130.407 103.417 130.706 103.107 130.986L102.536 131.544L101.848 132.129C100.657 133.13 99.3623 134 97.9859 134.724C96.1689 135.695 94.2317 136.422 92.2244 136.885C89.7936 137.464 87.2823 137.627 84.7971 137.367L83.7921 137.243C83.4548 137.188 83.1038 137.113 82.7734 137.051C82.0849 136.926 81.4096 136.737 80.7565 136.486C79.3819 135.985 78.1341 135.189 77.1014 134.153C76.5748 133.62 76.1626 132.985 75.8899 132.287C75.6198 131.578 75.5601 130.806 75.7178 130.064C75.9218 129.306 76.3291 128.618 76.8957 128.074C77.4622 127.531 78.1664 127.153 78.9324 126.98C79.7167 126.754 80.5457 126.73 81.3416 126.912C82.1375 127.094 82.8741 127.475 83.4823 128.019C84.7569 129.155 85.5803 130.712 85.8021 132.404C85.9995 134.101 85.738 135.82 85.0449 137.381C84.3787 138.909 83.4775 140.324 82.3741 141.573C80.3027 143.962 77.7128 145.845 74.8022 147.08C72.1765 148.226 69.3449 148.825 66.4801 148.842C63.9802 148.811 61.5003 148.393 59.1285 147.603C56.9326 146.915 54.9983 146.268 53.188 145.806C51.6767 145.382 50.123 145.125 48.5554 145.042C47.9846 145.007 47.4122 145.007 46.8414 145.042C46.3527 145.118 45.9328 145.152 45.6024 145.228L44.8521 145.414C44.7527 145.442 44.6577 145.484 44.5699 145.538Z" fill="#FAFAFA"/>
<path d="M105.054 138.192C105.116 138.192 105.432 137.504 106.1 136.348C107.848 133.413 110.395 131.037 113.445 129.499C114.615 128.907 115.386 128.645 115.365 128.583C115.172 128.6 114.982 128.644 114.801 128.714C114.3 128.863 113.81 129.047 113.335 129.264C111.758 129.984 110.307 130.953 109.039 132.135C107.769 133.316 106.702 134.697 105.88 136.224C105.62 136.681 105.39 137.154 105.191 137.642C105.121 137.818 105.075 138.003 105.054 138.192Z" fill="#FAFAFA"/>
<path d="M131.762 167.654C131.762 167.654 131.81 167.599 131.872 167.482C131.934 167.365 132.037 167.179 132.154 166.966C132.402 166.512 132.76 165.83 133.201 164.949C134.479 162.462 135.534 159.866 136.353 157.191C136.901 155.334 137.231 153.419 137.338 151.485C137.392 150.405 137.349 149.322 137.207 148.25C137.036 147.115 136.764 145.998 136.394 144.911C135.591 142.563 134.2 140.458 132.354 138.799C131.368 137.894 130.209 137.199 128.946 136.755C127.684 136.311 126.344 136.129 125.009 136.217C123.622 136.321 122.326 136.952 121.388 137.98C120.942 138.488 120.618 139.091 120.44 139.744C120.263 140.396 120.236 141.081 120.363 141.745C120.511 142.397 120.852 142.989 121.34 143.445C121.817 143.882 122.394 144.196 123.02 144.361C124.232 144.676 125.518 144.521 126.62 143.927C127.642 143.375 128.536 142.613 129.242 141.69C129.92 140.835 130.478 139.893 130.901 138.888C131.646 137.086 131.955 135.133 131.803 133.189C131.664 131.584 131.195 130.026 130.426 128.611C129.857 127.544 129.128 126.569 128.265 125.72C127.726 125.182 127.133 124.7 126.496 124.282C126.283 124.137 126.104 124.047 125.987 123.979L125.808 123.889C125.808 123.889 126.028 124.047 126.455 124.343C127.069 124.782 127.643 125.275 128.169 125.817C128.993 126.673 129.689 127.644 130.234 128.701C130.965 130.098 131.403 131.63 131.521 133.203C131.654 135.109 131.333 137.02 130.585 138.778C130.167 139.753 129.621 140.667 128.96 141.497C128.275 142.381 127.412 143.11 126.427 143.638C125.398 144.192 124.198 144.334 123.068 144.037C122.488 143.902 121.958 143.609 121.534 143.191C121.11 142.773 120.81 142.247 120.666 141.669C120.556 141.061 120.585 140.436 120.749 139.84C120.914 139.245 121.21 138.694 121.616 138.227C122.494 137.269 123.706 136.683 125.002 136.589C126.288 136.504 127.578 136.681 128.795 137.108C130.011 137.535 131.128 138.204 132.078 139.074C133.88 140.695 135.242 142.746 136.037 145.035C136.408 146.098 136.682 147.192 136.856 148.305C136.999 149.358 137.047 150.423 137 151.485C136.904 153.398 136.59 155.294 136.064 157.136C135.271 159.804 134.258 162.401 133.035 164.901L132.051 166.966C131.948 167.186 131.865 167.365 131.796 167.503C131.727 167.641 131.762 167.654 131.762 167.654Z" fill="#FAFAFA"/>
<path d="M140.264 106.887C140.264 106.887 140.229 106.983 140.202 107.169C140.153 107.447 140.119 107.727 140.098 108.009C140.008 109.037 140.008 110.071 140.098 111.099C140.377 114.523 141.548 117.814 143.495 120.644C145.442 123.474 148.097 125.744 151.195 127.227C152.122 127.68 153.087 128.051 154.079 128.336C154.423 128.446 154.705 128.494 154.891 128.542C155.077 128.59 155.18 128.597 155.18 128.583C154.835 128.435 154.481 128.308 154.12 128.205C153.155 127.87 152.214 127.467 151.305 127C148.289 125.477 145.705 123.22 143.79 120.436C141.875 117.653 140.691 114.433 140.346 111.072C140.238 110.057 140.199 109.036 140.229 108.016C140.265 107.64 140.276 107.263 140.264 106.887Z" fill="#FAFAFA"/>
<path d="M22.0044 136.733C23.0284 137.375 23.9284 138.196 24.6614 139.156C25.3498 140.044 26.0381 141.221 26.816 142.461C27.6691 143.848 28.6534 145.15 29.7553 146.35C31.7705 148.527 34.1603 150.324 36.8109 151.657C37.6087 152.061 38.4318 152.413 39.2752 152.71C39.5827 152.831 39.9007 152.923 40.2251 152.985C39.9401 152.822 39.6405 152.686 39.3302 152.579C38.752 152.325 37.9122 151.967 36.9279 151.43C34.3559 150.047 32.0301 148.249 30.0443 146.109C28.9539 144.928 27.9746 143.649 27.1189 142.288C26.4345 141.151 25.6876 140.053 24.8817 138.998C24.3218 138.291 23.6553 137.676 22.9061 137.174C22.7031 137.039 22.4889 136.922 22.266 136.823C22.087 136.754 22.0044 136.72 22.0044 136.733Z" fill="#FAFAFA"/>
<path d="M59.2058 84.4534C59.3066 84.4967 59.4133 84.5245 59.5224 84.536L60.4379 84.7012C61.2364 84.832 62.3928 85.0041 63.8177 85.1969C66.6812 85.5823 70.6461 86.0366 75.0447 86.3602C77.1041 86.5483 79.1723 86.6219 81.2399 86.5804C82.9455 86.5388 84.6359 86.249 86.258 85.72C87.3529 85.365 88.3862 84.8426 89.3211 84.1712C89.5762 83.9915 89.8199 83.7961 90.0508 83.5861C90.2022 83.4347 90.2779 83.359 90.2711 83.3452C90.2642 83.3314 89.9131 83.6205 89.2454 84.0335C88.2945 84.6449 87.2636 85.122 86.1822 85.4515C84.5747 85.9407 82.9062 86.2002 81.2261 86.2225C79.1582 86.2445 77.0905 86.1618 75.031 85.9747C70.6462 85.6512 66.6812 85.245 63.8177 84.9215L60.4241 84.536C60.0204 84.48 59.6133 84.4524 59.2058 84.4534Z" fill="#263238"/>
<path d="M12.0315 165.259C11.5134 167.922 11.5875 170.666 12.2484 173.297C12.9094 175.929 14.1411 178.382 15.8562 180.484C17.5713 182.586 19.7278 184.285 22.1729 185.461C24.6179 186.636 27.2915 187.259 30.0043 187.286L82.147 186.708L80.7703 169.823L36.1238 163.118" fill="#E6EBEE"/>
<path d="M12.0315 165.259C11.5134 167.922 11.5875 170.666 12.2484 173.297C12.9094 175.929 14.1411 178.382 15.8562 180.484C17.5713 182.586 19.7278 184.285 22.1729 185.461C24.6179 186.636 27.2915 187.259 30.0043 187.286L82.147 186.708L80.7703 169.823L36.1238 163.118" fill="url(#paint11_linear_3442_83672)" fill-opacity="0.8" style="mix-blend-mode:color-burn"/>
<path d="M12.0315 165.259C11.5134 167.922 11.5875 170.666 12.2484 173.297C12.9094 175.929 14.1411 178.382 15.8562 180.484C17.5713 182.586 19.7278 184.285 22.1729 185.461C24.6179 186.636 27.2915 187.259 30.0043 187.286L82.147 186.708L80.7703 169.823L36.1238 163.118" fill="#2F3941" fill-opacity="0.15" style="mix-blend-mode:multiply"/>
<path d="M76.2096 170.977C76.4552 171.036 79.3621 169.48 81.9672 168.05C84.7304 166.528 87.8225 165.701 90.9766 165.641L103.422 165.408C103.422 165.408 102.804 167.521 101.554 168.299C100.304 169.076 92.5389 169.838 92.5389 169.838L92.9654 170.215C94.7091 171.778 96.9955 172.594 99.3343 172.49L100.522 172.407C101.397 172.276 102.254 172.045 103.076 171.718L106.045 170.269C106.943 169.793 107.923 169.786 108.393 170.692C108.863 171.598 108.629 172.691 106.191 174.137C104.831 174.922 99.7262 177.12 99.7262 177.12C99.7423 177.868 99.6905 178.615 99.5714 179.353C99.3979 180.131 97.3979 181.036 97.3979 181.036C96.9432 182.204 96.4091 183.338 95.7993 184.432C95.5781 184.724 93.7579 185.437 91.8121 186.132C88.6753 187.25 85.2863 187.46 82.0354 186.738L77.2123 185.653L76.2067 171.232" fill="#E6EBEE"/>
<path d="M76.2096 170.977C76.4552 171.036 79.3621 169.48 81.9672 168.05C84.7304 166.528 87.8225 165.701 90.9766 165.641L103.422 165.408C103.422 165.408 102.804 167.521 101.554 168.299C100.304 169.076 92.5389 169.838 92.5389 169.838L92.9654 170.215C94.7091 171.778 96.9955 172.594 99.3343 172.49L100.522 172.407C101.397 172.276 102.254 172.045 103.076 171.718L106.045 170.269C106.943 169.793 107.923 169.786 108.393 170.692C108.863 171.598 108.629 172.691 106.191 174.137C104.831 174.922 99.7262 177.12 99.7262 177.12C99.7423 177.868 99.6905 178.615 99.5714 179.353C99.3979 180.131 97.3979 181.036 97.3979 181.036C96.9432 182.204 96.4091 183.338 95.7993 184.432C95.5781 184.724 93.7579 185.437 91.8121 186.132C88.6753 187.25 85.2863 187.46 82.0354 186.738L77.2123 185.653L76.2067 171.232" fill="url(#paint12_linear_3442_83672)" fill-opacity="0.8" style="mix-blend-mode:color-burn"/>
<path d="M76.2096 170.977C76.4552 171.036 79.3621 169.48 81.9672 168.05C84.7304 166.528 87.8225 165.701 90.9766 165.641L103.422 165.408C103.422 165.408 102.804 167.521 101.554 168.299C100.304 169.076 92.5389 169.838 92.5389 169.838L92.9654 170.215C94.7091 171.778 96.9955 172.594 99.3343 172.49L100.522 172.407C101.397 172.276 102.254 172.045 103.076 171.718L106.045 170.269C106.943 169.793 107.923 169.786 108.393 170.692C108.863 171.598 108.629 172.691 106.191 174.137C104.831 174.922 99.7262 177.12 99.7262 177.12C99.7423 177.868 99.6905 178.615 99.5714 179.353C99.3979 180.131 97.3979 181.036 97.3979 181.036C96.9432 182.204 96.4091 183.338 95.7993 184.432C95.5781 184.724 93.7579 185.437 91.8121 186.132C88.6753 187.25 85.2863 187.46 82.0354 186.738L77.2123 185.653L76.2067 171.232" fill="#2F3941" fill-opacity="0.15" style="mix-blend-mode:multiply"/>
<path d="M93.8447 179.443C96.0258 179.235 98.1284 178.521 99.9855 177.358C99.9797 177.276 98.6427 177.894 96.9366 178.461C95.2304 179.029 93.8307 179.34 93.8447 179.443Z" fill="#E6EBEE"/>
<path d="M93.8447 179.443C96.0258 179.235 98.1284 178.521 99.9855 177.358C99.9797 177.276 98.6427 177.894 96.9366 178.461C95.2304 179.029 93.8307 179.34 93.8447 179.443Z" fill="url(#paint13_linear_3442_83672)" fill-opacity="0.8" style="mix-blend-mode:color-burn"/>
<path d="M93.8447 179.443C96.0258 179.235 98.1284 178.521 99.9855 177.358C99.9797 177.276 98.6427 177.894 96.9366 178.461C95.2304 179.029 93.8307 179.34 93.8447 179.443Z" fill="#2F3941" fill-opacity="0.15" style="mix-blend-mode:multiply"/>
<path d="M94.4878 182.302C95.0783 182.382 95.6795 182.295 96.2229 182.05C96.7981 181.902 97.3212 181.598 97.7349 181.172C97.1812 181.323 96.641 181.52 96.1199 181.761C95.5628 181.899 95.0171 182.08 94.4878 182.302Z" fill="#E6EBEE"/>
<path d="M94.4878 182.302C95.0783 182.382 95.6795 182.295 96.2229 182.05C96.7981 181.902 97.3212 181.598 97.7349 181.172C97.1812 181.323 96.641 181.52 96.1199 181.761C95.5628 181.899 95.0171 182.08 94.4878 182.302Z" fill="url(#paint14_linear_3442_83672)" fill-opacity="0.8" style="mix-blend-mode:color-burn"/>
<path d="M94.4878 182.302C95.0783 182.382 95.6795 182.295 96.2229 182.05C96.7981 181.902 97.3212 181.598 97.7349 181.172C97.1812 181.323 96.641 181.52 96.1199 181.761C95.5628 181.899 95.0171 182.08 94.4878 182.302Z" fill="#2F3941" fill-opacity="0.15" style="mix-blend-mode:multiply"/>
<path d="M91.2834 169.037C91.5814 169.4 91.9263 169.721 92.3092 169.993C93.1864 170.721 94.1421 171.349 95.1584 171.865C96.1816 172.37 97.2792 172.708 98.4093 172.866C98.8651 172.955 99.3318 172.973 99.7932 172.921C98.2339 172.676 96.7134 172.227 95.2702 171.588C94.2761 171.079 93.3238 170.493 92.4223 169.834C92.067 169.535 91.6859 169.268 91.2834 169.037Z" fill="#E6EBEE"/>
<path d="M91.2834 169.037C91.5814 169.4 91.9263 169.721 92.3092 169.993C93.1864 170.721 94.1421 171.349 95.1584 171.865C96.1816 172.37 97.2792 172.708 98.4093 172.866C98.8651 172.955 99.3318 172.973 99.7932 172.921C98.2339 172.676 96.7134 172.227 95.2702 171.588C94.2761 171.079 93.3238 170.493 92.4223 169.834C92.067 169.535 91.6859 169.268 91.2834 169.037Z" fill="url(#paint15_linear_3442_83672)" fill-opacity="0.8" style="mix-blend-mode:color-burn"/>
<path d="M91.2834 169.037C91.5814 169.4 91.9263 169.721 92.3092 169.993C93.1864 170.721 94.1421 171.349 95.1584 171.865C96.1816 172.37 97.2792 172.708 98.4093 172.866C98.8651 172.955 99.3318 172.973 99.7932 172.921C98.2339 172.676 96.7134 172.227 95.2702 171.588C94.2761 171.079 93.3238 170.493 92.4223 169.834C92.067 169.535 91.6859 169.268 91.2834 169.037Z" fill="#2F3941" fill-opacity="0.15" style="mix-blend-mode:multiply"/>
<path d="M76.3101 168.294L77.5767 187.388H28.4628C25.1281 187.391 21.8559 186.484 18.9979 184.766C15.7634 182.822 13.206 179.929 11.6739 176.481C10.1417 173.032 9.70909 169.195 10.4349 165.492C11.1414 161.866 12.202 158.318 13.6013 154.898L38.2993 158.967L37.5077 162.037L76.3101 168.294Z" fill="#007D5A"/>
<path d="M26.129 160.433C26.2917 160.48 26.4573 160.517 26.6247 160.543L28.0633 160.805L33.3705 161.686L50.8271 164.439L68.3044 167.117L73.6047 167.888L75.0502 168.081C75.2191 168.104 75.3891 168.118 75.5596 168.122C75.3967 168.065 75.2283 168.026 75.0571 168.005L73.6253 167.75L68.3388 166.862L50.8822 164.109L33.3705 161.41L28.0702 160.639L26.6247 160.447C26.4604 160.425 26.2943 160.42 26.129 160.433Z" fill="#263238"/>
<path d="M51.2688 187.404C51.3583 187.404 50.9728 186.027 50.9246 183.776C50.9141 183.165 50.9394 182.553 51.0003 181.945C51.0594 181.251 51.1606 180.562 51.3032 179.88C51.6441 178.31 52.1806 176.788 52.9002 175.351C53.637 173.92 54.5379 172.58 55.5848 171.358L56.2731 170.553C56.5072 170.291 56.7619 170.064 56.9959 169.83C57.4571 169.355 57.9458 168.977 58.3726 168.612C60.1279 167.235 61.3738 166.547 61.3325 166.485C61.0279 166.607 60.7353 166.757 60.4583 166.932C60.1157 167.111 59.7846 167.311 59.4671 167.531C59.1022 167.793 58.6479 168.047 58.2143 168.419C57.7186 168.79 57.2451 169.19 56.7963 169.617C56.5554 169.851 56.2869 170.071 56.046 170.305L55.2956 171.117C54.2175 172.348 53.2929 173.705 52.5422 175.158C51.8134 176.625 51.2767 178.18 50.9453 179.784C50.8042 180.485 50.7122 181.196 50.6699 181.911C50.6259 182.529 50.6259 183.151 50.6699 183.769C50.6832 184.283 50.7292 184.796 50.8076 185.304C50.8454 185.687 50.9121 186.067 51.0072 186.44C51.0666 186.768 51.1541 187.091 51.2688 187.404Z" fill="#FAFAFA"/>
<path d="M21.3651 185.965C22.1322 185.96 22.8964 185.87 23.6435 185.696C24.5242 185.494 25.3788 185.192 26.1904 184.794C27.2664 184.259 28.2384 183.537 29.0609 182.661C30.0587 181.586 30.7835 180.288 31.1741 178.875C31.3917 178.089 31.5142 177.28 31.539 176.465C31.5888 175.604 31.5192 174.74 31.3324 173.898C31.1483 173.001 30.8032 172.145 30.3137 171.372C29.8029 170.551 29.0924 169.874 28.2486 169.403C27.3761 168.894 26.3727 168.655 25.3644 168.715C24.8461 168.75 24.3404 168.891 23.8778 169.128C23.4153 169.364 23.0054 169.692 22.673 170.091C22.329 170.485 22.0705 170.946 21.9141 171.445C21.7577 171.944 21.7067 172.47 21.7643 172.989C21.8489 173.494 22.0447 173.973 22.3376 174.392C22.6305 174.811 23.0131 175.16 23.4577 175.412C25.1238 176.285 27.0424 176.548 28.8819 176.156C31.493 175.749 33.8795 174.442 35.6282 172.46C37.3769 170.479 38.3775 167.949 38.4569 165.307C38.5009 164.54 38.4359 163.771 38.2641 163.022C38.3277 163.78 38.3461 164.541 38.3192 165.3C38.1909 167.372 37.5138 169.373 36.3574 171.096C35.4956 172.362 34.3843 173.438 33.0917 174.258C31.7991 175.078 30.3524 175.626 28.8406 175.867C27.083 176.244 25.2488 176.001 23.6504 175.178C23.251 174.952 22.9068 174.641 22.6425 174.266C22.3782 173.891 22.2005 173.462 22.1223 173.01C22.0817 172.539 22.1345 172.064 22.2777 171.614C22.4209 171.163 22.6516 170.745 22.9567 170.384C23.2617 170.022 23.635 169.725 24.0553 169.508C24.4756 169.291 24.9345 169.16 25.4057 169.121C26.3391 169.057 27.2705 169.27 28.0834 169.733C28.8483 170.19 29.5055 170.807 30.0104 171.541C30.5153 172.275 30.8559 173.11 31.0089 173.987C31.1953 174.804 31.2671 175.643 31.2223 176.479C31.2033 177.268 31.0901 178.051 30.885 178.813C30.5221 180.189 29.8326 181.457 28.875 182.509C28.0879 183.373 27.1561 184.093 26.1216 184.636C25.3282 185.041 24.4926 185.358 23.6298 185.579C22.1842 185.903 21.3582 185.916 21.3651 185.965Z" fill="#FAFAFA"/>
</g>
</g>
<defs>
<filter id="filter0_d_3442_83672" x="125.43" y="14.6501" width="40.2873" height="32.7799" filterUnits="userSpaceOnUse" color-interpolation-filters="sRGB">
<feFlood flood-opacity="0" result="BackgroundImageFix"/>
<feColorMatrix in="SourceAlpha" type="matrix" values="0 0 0 0 0 0 0 0 0 0 0 0 0 0 0 0 0 0 127 0" result="hardAlpha"/>
<feOffset dx="-0.732599" dy="1.40166"/>
<feGaussianBlur stdDeviation="1.40726"/>
<feComposite in2="hardAlpha" operator="out"/>
<feColorMatrix type="matrix" values="0 0 0 0 0 0 0 0 0 0 0 0 0 0 0 0 0 0 0.15 0"/>
<feBlend mode="normal" in2="BackgroundImageFix" result="effect1_dropShadow_3442_83672"/>
<feBlend mode="normal" in="SourceGraphic" in2="effect1_dropShadow_3442_83672" result="shape"/>
</filter>
<filter id="filter1_d_3442_83672" x="131.389" y="27.5483" width="32.7671" height="16.7066" filterUnits="userSpaceOnUse" color-interpolation-filters="sRGB">
<feFlood flood-opacity="0" result="BackgroundImageFix"/>
<feColorMatrix in="SourceAlpha" type="matrix" values="0 0 0 0 0 0 0 0 0 0 0 0 0 0 0 0 0 0 127 0" result="hardAlpha"/>
<feOffset dx="-0.52052"/>
<feGaussianBlur stdDeviation="0.52052"/>
<feComposite in2="hardAlpha" operator="out"/>
<feColorMatrix type="matrix" values="0 0 0 0 0 0 0 0 0 0 0 0 0 0 0 0 0 0 0.12 0"/>
<feBlend mode="normal" in2="BackgroundImageFix" result="effect1_dropShadow_3442_83672"/>
<feBlend mode="normal" in="SourceGraphic" in2="effect1_dropShadow_3442_83672" result="shape"/>
</filter>
<filter id="filter2_d_3442_83672" x="226.472" y="60.3767" width="45.9724" height="40.5827" filterUnits="userSpaceOnUse" color-interpolation-filters="sRGB">
<feFlood flood-opacity="0" result="BackgroundImageFix"/>
<feColorMatrix in="SourceAlpha" type="matrix" values="0 0 0 0 0 0 0 0 0 0 0 0 0 0 0 0 0 0 127 0" result="hardAlpha"/>
<feOffset dx="-2.6026" dy="0.654106"/>
<feGaussianBlur stdDeviation="2.34234"/>
<feComposite in2="hardAlpha" operator="out"/>
<feColorMatrix type="matrix" values="0 0 0 0 0 0 0 0 0 0 0 0 0 0 0 0 0 0 0.15 0"/>
<feBlend mode="normal" in2="BackgroundImageFix" result="effect1_dropShadow_3442_83672"/>
<feBlend mode="normal" in="SourceGraphic" in2="effect1_dropShadow_3442_83672" result="shape"/>
</filter>
<filter id="filter3_d_3442_83672" x="232.197" y="77.8115" width="30.0962" height="18.8501" filterUnits="userSpaceOnUse" color-interpolation-filters="sRGB">
<feFlood flood-opacity="0" result="BackgroundImageFix"/>
<feColorMatrix in="SourceAlpha" type="matrix" values="0 0 0 0 0 0 0 0 0 0 0 0 0 0 0 0 0 0 127 0" result="hardAlpha"/>
<feOffset dx="-0.52052"/>
<feGaussianBlur stdDeviation="0.52052"/>
<feComposite in2="hardAlpha" operator="out"/>
<feColorMatrix type="matrix" values="0 0 0 0 0 0 0 0 0 0 0 0 0 0 0 0 0 0 0.12 0"/>
<feBlend mode="normal" in2="BackgroundImageFix" result="effect1_dropShadow_3442_83672"/>
<feBlend mode="normal" in="SourceGraphic" in2="effect1_dropShadow_3442_83672" result="shape"/>
</filter>
<filter id="filter4_d_3442_83672" x="116.274" y="34.053" width="156.146" height="123.227" filterUnits="userSpaceOnUse" color-interpolation-filters="sRGB">
<feFlood flood-opacity="0" result="BackgroundImageFix"/>
<feColorMatrix in="SourceAlpha" type="matrix" values="0 0 0 0 0 0 0 0 0 0 0 0 0 0 0 0 0 0 127 0" result="hardAlpha"/>
<feOffset dy="1.4951"/>
<feGaussianBlur stdDeviation="1.85019"/>
<feComposite in2="hardAlpha" operator="out"/>
<feColorMatrix type="matrix" values="0 0 0 0 0 0 0 0 0 0 0 0 0 0 0 0 0 0 0.25 0"/>
<feBlend mode="normal" in2="BackgroundImageFix" result="effect1_dropShadow_3442_83672"/>
<feBlend mode="normal" in="SourceGraphic" in2="effect1_dropShadow_3442_83672" result="shape"/>
</filter>
<filter id="filter5_d_3442_83672" x="146.404" y="111.975" width="73.5473" height="72.6054" filterUnits="userSpaceOnUse" color-interpolation-filters="sRGB">
<feFlood flood-opacity="0" result="BackgroundImageFix"/>
<feColorMatrix in="SourceAlpha" type="matrix" values="0 0 0 0 0 0 0 0 0 0 0 0 0 0 0 0 0 0 127 0" result="hardAlpha"/>
<feOffset dx="-1.86888" dy="2.61643"/>
<feGaussianBlur stdDeviation="1.68199"/>
<feComposite in2="hardAlpha" operator="out"/>
<feColorMatrix type="matrix" values="0 0 0 0 0 0 0 0 0 0 0 0 0 0 0 0 0 0 0.15 0"/>
<feBlend mode="normal" in2="BackgroundImageFix" result="effect1_dropShadow_3442_83672"/>
<feBlend mode="normal" in="SourceGraphic" in2="effect1_dropShadow_3442_83672" result="shape"/>
</filter>
<filter id="filter6_d_3442_83672" x="159.098" y="149.694" width="58.8056" height="30.7749" filterUnits="userSpaceOnUse" color-interpolation-filters="sRGB">
<feFlood flood-opacity="0" result="BackgroundImageFix"/>
<feColorMatrix in="SourceAlpha" type="matrix" values="0 0 0 0 0 0 0 0 0 0 0 0 0 0 0 0 0 0 127 0" result="hardAlpha"/>
<feOffset dx="-0.74755" dy="0.373775"/>
<feGaussianBlur stdDeviation="0.74755"/>
<feComposite in2="hardAlpha" operator="out"/>
<feColorMatrix type="matrix" values="0 0 0 0 0 0 0 0 0 0 0 0 0 0 0 0 0 0 0.25 0"/>
<feBlend mode="normal" in2="BackgroundImageFix" result="effect1_dropShadow_3442_83672"/>
<feBlend mode="normal" in="SourceGraphic" in2="effect1_dropShadow_3442_83672" result="shape"/>
</filter>
<filter id="filter7_d_3442_83672" x="-3.61637" y="4.07326" width="189.359" height="197.039" filterUnits="userSpaceOnUse" color-interpolation-filters="sRGB">
<feFlood flood-opacity="0" result="BackgroundImageFix"/>
<feColorMatrix in="SourceAlpha" type="matrix" values="0 0 0 0 0 0 0 0 0 0 0 0 0 0 0 0 0 0 127 0" result="hardAlpha"/>
<feOffset dx="-3.39071" dy="3.39071"/>
<feGaussianBlur stdDeviation="5.15873"/>
<feColorMatrix type="matrix" values="0 0 0 0 0.184314 0 0 0 0 0.223529 0 0 0 0 0.254902 0 0 0 0.25 0"/>
<feBlend mode="normal" in2="BackgroundImageFix" result="effect1_dropShadow_3442_83672"/>
<feBlend mode="normal" in="SourceGraphic" in2="effect1_dropShadow_3442_83672" result="shape"/>
</filter>
<linearGradient id="paint0_linear_3442_83672" x1="239.346" y1="48.734" x2="178.122" y2="45.0571" gradientUnits="userSpaceOnUse">
<stop stop-color="#DAE3FE"/>
<stop offset="1" stop-color="#E9EFFD"/>
</linearGradient>
<linearGradient id="paint1_linear_3442_83672" x1="236.759" y1="55.319" x2="175.535" y2="51.6422" gradientUnits="userSpaceOnUse">
<stop stop-color="#DAE3FE"/>
<stop offset="1" stop-color="#E9EFFD"/>
</linearGradient>
<linearGradient id="paint2_linear_3442_83672" x1="234.158" y1="62.0072" x2="193.004" y2="59.5356" gradientUnits="userSpaceOnUse">
<stop stop-color="#DAE3FE"/>
<stop offset="1" stop-color="#E9EFFD"/>
</linearGradient>
<linearGradient id="paint3_linear_3442_83672" x1="174.283" y1="111.789" x2="195.649" y2="192.507" gradientUnits="userSpaceOnUse">
<stop stop-color="#EADCC9"/>
<stop offset="1" stop-color="#A59C90"/>
</linearGradient>
<linearGradient id="paint4_linear_3442_83672" x1="147.301" y1="74.4183" x2="163.548" y2="119.791" gradientUnits="userSpaceOnUse">
<stop offset="0.213542" stop-color="#323444"/>
<stop offset="0.6875" stop-color="#2F3941" stop-opacity="0.291667"/>
<stop offset="1" stop-color="#2F3941" stop-opacity="0"/>
</linearGradient>
<linearGradient id="paint5_linear_3442_83672" x1="169.601" y1="87.2107" x2="172.022" y2="95.5752" gradientUnits="userSpaceOnUse">
<stop offset="0.213542" stop-color="#323444"/>
<stop offset="0.6875" stop-color="#2F3941" stop-opacity="0.291667"/>
<stop offset="1" stop-color="#2F3941" stop-opacity="0"/>
</linearGradient>
<linearGradient id="paint6_linear_3442_83672" x1="167.649" y1="85.164" x2="169.783" y2="93.5359" gradientUnits="userSpaceOnUse">
<stop offset="0.213542" stop-color="#323444"/>
<stop offset="0.6875" stop-color="#2F3941" stop-opacity="0.291667"/>
<stop offset="1" stop-color="#2F3941" stop-opacity="0"/>
</linearGradient>
<linearGradient id="paint7_linear_3442_83672" x1="166.041" y1="83.3877" x2="167.979" y2="91.1968" gradientUnits="userSpaceOnUse">
<stop offset="0.213542" stop-color="#323444"/>
<stop offset="0.6875" stop-color="#2F3941" stop-opacity="0.291667"/>
<stop offset="1" stop-color="#2F3941" stop-opacity="0"/>
</linearGradient>
<linearGradient id="paint8_linear_3442_83672" x1="119.233" y1="83.273" x2="158.287" y2="163.741" gradientUnits="userSpaceOnUse">
<stop offset="0.213542" stop-color="#323444"/>
<stop offset="0.6875" stop-color="#2F3941" stop-opacity="0.291667"/>
<stop offset="1" stop-color="#2F3941" stop-opacity="0"/>
</linearGradient>
<linearGradient id="paint9_linear_3442_83672" x1="58.8552" y1="1.27166" x2="109.883" y2="79.1002" gradientUnits="userSpaceOnUse">
<stop offset="0.213542" stop-color="#323444"/>
<stop offset="0.6875" stop-color="#2F3941" stop-opacity="0.291667"/>
<stop offset="1" stop-color="#2F3941" stop-opacity="0"/>
</linearGradient>
<linearGradient id="paint10_linear_3442_83672" x1="75.7876" y1="70.0606" x2="76.2659" y2="75.1579" gradientUnits="userSpaceOnUse">
<stop offset="0.213542" stop-color="#323444"/>
<stop offset="0.6875" stop-color="#2F3941" stop-opacity="0.291667"/>
<stop offset="1" stop-color="#2F3941" stop-opacity="0"/>
</linearGradient>
<linearGradient id="paint11_linear_3442_83672" x1="22.989" y1="158.578" x2="27.1308" y2="191.66" gradientUnits="userSpaceOnUse">
<stop offset="0.213542" stop-color="#323444"/>
<stop offset="0.6875" stop-color="#2F3941" stop-opacity="0.291667"/>
<stop offset="1" stop-color="#2F3941" stop-opacity="0"/>
</linearGradient>
<linearGradient id="paint12_linear_3442_83672" x1="80.7776" y1="162.34" x2="89.3646" y2="189.657" gradientUnits="userSpaceOnUse">
<stop offset="0.213542" stop-color="#323444"/>
<stop offset="0.6875" stop-color="#2F3941" stop-opacity="0.291667"/>
<stop offset="1" stop-color="#2F3941" stop-opacity="0"/>
</linearGradient>
<linearGradient id="paint13_linear_3442_83672" x1="94.7106" y1="177.405" x2="95.0903" y2="179.671" gradientUnits="userSpaceOnUse">
<stop offset="0.213542" stop-color="#323444"/>
<stop offset="0.6875" stop-color="#2F3941" stop-opacity="0.291667"/>
<stop offset="1" stop-color="#2F3941" stop-opacity="0"/>
</linearGradient>
<linearGradient id="paint14_linear_3442_83672" x1="94.9431" y1="181.184" x2="95.1771" y2="182.502" gradientUnits="userSpaceOnUse">
<stop offset="0.213542" stop-color="#323444"/>
<stop offset="0.6875" stop-color="#2F3941" stop-opacity="0.291667"/>
<stop offset="1" stop-color="#2F3941" stop-opacity="0"/>
</linearGradient>
<linearGradient id="paint15_linear_3442_83672" x1="92.5397" y1="168.107" x2="94.1405" y2="173.991" gradientUnits="userSpaceOnUse">
<stop offset="0.213542" stop-color="#323444"/>
<stop offset="0.6875" stop-color="#2F3941" stop-opacity="0.291667"/>
<stop offset="1" stop-color="#2F3941" stop-opacity="0"/>
</linearGradient>
<clipPath id="clip0_3442_83672">
<rect width="281" height="215" fill="white"/>
</clipPath>
</defs>
</svg>
