<svg viewBox="0 0 503 300" fill="none" xmlns="http://www.w3.org/2000/svg">
    <g opacity="0.6">
        <path fill-rule="evenodd" clip-rule="evenodd" d="M477.795 237.681C484.646 284.022 318.496 314.248 175.487 293.154C32.4785 272.059 -33.1272 189.683 35.1142 145.79C103.356 101.897 470.944 191.34 477.795 237.681Z" fill="#D7F9E5" />
    </g>
    <g filter="url(#filter0_d_1245_25988)">
        <path d="M8 56C8 51.5817 11.5817 48 16 48H225C229.418 48 233 51.5817 233 56V227C233 231.418 229.418 235 225 235H16C11.5817 235 8 231.418 8 227V56Z" fill="white" />
        <rect x="24" y="72" width="64" height="8" rx="4" fill="#87929D" />
        <rect x="24" y="114" width="108" height="8" rx="4" fill="#87929D" />
        <rect x="24" y="134.5" width="193" height="15" rx="7.5" fill="#547B8E" />
        <rect x="24" y="170" width="193" height="1" fill="#D8DCDE" />
        <rect x="24" y="187" width="145" height="32" rx="16" fill="#F8F9F9" />
        <g opacity="0.3">
            <path opacity="0.3" d="M40 215C46.6274 215 52 209.627 52 203C52 196.373 46.6274 191 40 191C33.3726 191 28 196.373 28 203C28 209.627 33.3726 215 40 215Z" fill="#547B8E" />
        </g>
        <path d="M40.4871 194.197C36.6802 194.197 33.5991 197.278 33.5991 201.085C33.5991 201.26 33.5991 201.435 33.6245 201.586C33.2987 202.186 32.8232 203.013 32.2469 203.514C31.8213 203.89 31.9211 204.291 31.971 204.441C32.0962 204.766 32.4465 205.041 33.0228 205.242C33.2233 205.317 33.4484 205.367 33.649 205.417L33.6744 207.846C33.6744 208.798 34.4757 209.625 35.4532 209.625L36.9306 209.15L37.0812 210.026C37.181 210.603 37.682 211.028 38.2837 211.028C38.359 211.028 38.4344 211.028 38.5087 211.003L43.1425 210.177C43.8186 210.052 44.2442 209.426 44.1444 208.749L43.8186 207.121C45.9975 205.919 47.3751 203.589 47.3751 201.084C47.3751 197.303 44.2697 194.196 40.487 194.196L40.4871 194.197Z" fill="#547B8E" stroke="#547B8E" />
        <path fill-rule="evenodd" clip-rule="evenodd" d="M34.3933 201.768V201.122H36.0675V201.768H34.3933Z" fill="#E6EBEE" />
        <path fill-rule="evenodd" clip-rule="evenodd" d="M35.2994 204.606L34.9861 204.047L36.4349 203.184L36.7482 203.744L35.2994 204.606Z" fill="#E6EBEE" />
        <path fill-rule="evenodd" clip-rule="evenodd" d="M36.436 199.704L34.9872 198.843L35.3005 198.283L36.7493 199.145L36.436 199.704Z" fill="#E6EBEE" />
        <path fill-rule="evenodd" clip-rule="evenodd" d="M44.6807 198.283L44.994 198.843L43.5452 199.704L43.2319 199.145L44.6807 198.283Z" fill="#E6EBEE" />
        <path fill-rule="evenodd" clip-rule="evenodd" d="M39.677 195.68H40.305V197.405H39.677V195.68Z" fill="#E6EBEE" />
        <path fill-rule="evenodd" clip-rule="evenodd" d="M37.4638 196.291L38.3016 197.783L37.7586 198.105L36.9222 196.613L37.4638 196.291Z" fill="#E6EBEE" />
        <path fill-rule="evenodd" clip-rule="evenodd" d="M41.3025 203.998V205.623H40.7312L40.7326 206.25H39.2484L39.247 205.623H38.6786V203.998C37.8053 203.506 37.2496 202.552 37.2496 201.525C37.2496 199.97 38.4801 198.702 39.9898 198.702C41.5024 198.702 42.7329 199.97 42.7329 201.525C42.7315 202.551 42.1743 203.504 41.3025 203.998H41.3025Z" fill="#E6EBEE" />
        <path fill-rule="evenodd" clip-rule="evenodd" d="M42.2242 198.107L41.6813 197.784L42.5177 196.292L43.0606 196.615L42.2242 198.107Z" fill="#E6EBEE" />
        <path fill-rule="evenodd" clip-rule="evenodd" d="M44.6807 204.607L43.2319 203.744L43.5452 203.185L44.994 204.047L44.6807 204.607Z" fill="#E6EBEE" />
        <path fill-rule="evenodd" clip-rule="evenodd" d="M45.5865 201.768H43.9124V201.122H45.5865V201.768Z" fill="#E6EBEE" />
        <rect x="56" y="199" width="89" height="8" rx="4" fill="#8AA4B2" />
        <circle cx="201" cy="203" r="16" fill="#F8F9F9" />
        <path d="M209.695 196.739C210.015 196.42 210.015 195.901 209.695 195.582C209.376 195.262 208.858 195.262 208.538 195.582L200.88 203.24L199.085 200.96C198.805 200.605 198.291 200.544 197.936 200.823C197.581 201.103 197.52 201.617 197.799 201.972L200.164 204.976C200.309 205.16 200.525 205.273 200.759 205.287C200.992 205.301 201.22 205.214 201.386 205.049L209.695 196.739Z" fill="#27DD70" />
        <path d="M192 203C192 198.029 196.029 194 201 194C202.36 194 203.652 194.302 204.81 194.844C205.219 195.036 205.396 195.523 205.205 195.932C205.013 196.341 204.526 196.518 204.117 196.326C203.171 195.884 202.116 195.636 201 195.636C196.933 195.636 193.636 198.933 193.636 203C193.636 207.067 196.933 210.364 201 210.364C205.067 210.364 208.364 207.067 208.364 203C208.364 202.363 208.283 201.746 208.132 201.158C208.019 200.721 208.283 200.275 208.72 200.162C209.158 200.05 209.604 200.313 209.716 200.751C209.902 201.47 210 202.224 210 203C210 207.971 205.971 212 201 212C196.029 212 192 207.971 192 203Z" fill="#27DD70" />
        <path d="M209.695 196.739C210.015 196.42 210.015 195.901 209.695 195.582C209.376 195.262 208.858 195.262 208.538 195.582L200.88 203.24L199.085 200.96C198.805 200.605 198.291 200.544 197.936 200.823C197.581 201.103 197.52 201.617 197.799 201.972L200.164 204.976C200.309 205.16 200.525 205.273 200.759 205.287C200.992 205.301 201.22 205.214 201.386 205.049L209.695 196.739Z" fill="#158944" />
        <path d="M16 49H225V47H16V49ZM232 56V227H234V56H232ZM225 234H16V236H225V234ZM9 227V56H7V227H9ZM16 234C12.134 234 9 230.866 9 227H7C7 231.971 11.0294 236 16 236V234ZM232 227C232 230.866 228.866 234 225 234V236C229.971 236 234 231.971 234 227H232ZM225 49C228.866 49 232 52.134 232 56H234C234 51.0294 229.971 47 225 47V49ZM16 47C11.0294 47 7 51.0294 7 56H9C9 52.134 12.134 49 16 49V47Z" fill="#E9EBED" />
    </g>
    <g filter="url(#filter1_d_1245_25988)">
        <path d="M253 72C253 67.5817 256.582 64 261 64H470C474.418 64 478 67.5817 478 72V243C478 247.418 474.418 251 470 251H261C256.582 251 253 247.418 253 243V72Z" fill="white" />
        <rect x="269" y="88" width="64" height="8" rx="4" fill="#87929D" />
        <rect x="269" y="130" width="108" height="8" rx="4" fill="#87929D" />
        <rect x="269" y="150.5" width="193" height="15" rx="7.5" fill="#547B8E" />
        <rect x="269" y="186" width="193" height="1" fill="#D8DCDE" />
        <rect x="269" y="203" width="145" height="32" rx="16" fill="#F8F9F9" />
        <g opacity="0.3">
            <path opacity="0.3" d="M285 231C291.627 231 297 225.627 297 219C297 212.373 291.627 207 285 207C278.373 207 273 212.373 273 219C273 225.627 278.373 231 285 231Z" fill="#547B8E" />
        </g>
        <path d="M285.487 210.197C281.68 210.197 278.599 213.278 278.599 217.085C278.599 217.26 278.599 217.435 278.625 217.586C278.299 218.186 277.823 219.013 277.247 219.514C276.821 219.89 276.921 220.291 276.971 220.441C277.096 220.766 277.446 221.041 278.023 221.242C278.223 221.317 278.448 221.367 278.649 221.417L278.674 223.846C278.674 224.798 279.476 225.625 280.453 225.625L281.931 225.15L282.081 226.026C282.181 226.603 282.682 227.028 283.284 227.028C283.359 227.028 283.434 227.028 283.509 227.003L288.143 226.177C288.819 226.052 289.244 225.426 289.144 224.75L288.819 223.121C290.998 221.919 292.375 219.589 292.375 217.084C292.375 213.303 289.27 210.196 285.487 210.196L285.487 210.197Z" fill="#547B8E" stroke="#547B8E" />
        <path fill-rule="evenodd" clip-rule="evenodd" d="M279.393 217.768V217.121H281.067V217.768H279.393Z" fill="#E6EBEE" />
        <path fill-rule="evenodd" clip-rule="evenodd" d="M280.299 220.606L279.986 220.047L281.435 219.184L281.748 219.744L280.299 220.606Z" fill="#E6EBEE" />
        <path fill-rule="evenodd" clip-rule="evenodd" d="M281.436 215.704L279.987 214.843L280.3 214.283L281.749 215.145L281.436 215.704Z" fill="#E6EBEE" />
        <path fill-rule="evenodd" clip-rule="evenodd" d="M289.681 214.283L289.994 214.843L288.545 215.704L288.232 215.145L289.681 214.283Z" fill="#E6EBEE" />
        <path fill-rule="evenodd" clip-rule="evenodd" d="M284.677 211.68H285.305V213.405H284.677V211.68Z" fill="#E6EBEE" />
        <path fill-rule="evenodd" clip-rule="evenodd" d="M282.464 212.291L283.302 213.783L282.759 214.105L281.922 212.613L282.464 212.291Z" fill="#E6EBEE" />
        <path fill-rule="evenodd" clip-rule="evenodd" d="M286.303 219.998V221.623H285.731L285.733 222.25H284.248L284.247 221.623H283.679V219.998C282.805 219.506 282.25 218.552 282.25 217.525C282.25 215.97 283.48 214.702 284.99 214.702C286.502 214.702 287.733 215.97 287.733 217.525C287.731 218.551 287.174 219.504 286.303 219.998H286.303Z" fill="#E6EBEE" />
        <path fill-rule="evenodd" clip-rule="evenodd" d="M287.224 214.107L286.681 213.784L287.518 212.292L288.061 212.615L287.224 214.107Z" fill="#E6EBEE" />
        <path fill-rule="evenodd" clip-rule="evenodd" d="M289.681 220.607L288.232 219.744L288.545 219.185L289.994 220.047L289.681 220.607Z" fill="#E6EBEE" />
        <path fill-rule="evenodd" clip-rule="evenodd" d="M290.587 217.768H288.912V217.122H290.587V217.768Z" fill="#E6EBEE" />
        <rect x="301" y="215" width="89" height="8" rx="4" fill="#8AA4B2" />
        <circle cx="446" cy="219" r="16" fill="#F8F9F9" />
        <path d="M454.695 212.739C455.015 212.42 455.015 211.901 454.695 211.582C454.376 211.262 453.858 211.262 453.538 211.582L445.88 219.24L444.085 216.96C443.805 216.605 443.291 216.544 442.936 216.823C442.581 217.103 442.52 217.617 442.799 217.972L445.164 220.976C445.309 221.16 445.525 221.273 445.759 221.287C445.992 221.301 446.22 221.214 446.386 221.049L454.695 212.739Z" fill="#27DD70" />
        <path d="M437 219C437 214.029 441.029 210 446 210C447.36 210 448.652 210.302 449.81 210.844C450.219 211.036 450.396 211.523 450.205 211.932C450.013 212.341 449.526 212.518 449.117 212.326C448.171 211.884 447.116 211.636 446 211.636C441.933 211.636 438.636 214.933 438.636 219C438.636 223.067 441.933 226.364 446 226.364C450.067 226.364 453.364 223.067 453.364 219C453.364 218.363 453.283 217.746 453.132 217.158C453.019 216.721 453.283 216.275 453.72 216.162C454.158 216.05 454.604 216.313 454.716 216.751C454.902 217.47 455 218.224 455 219C455 223.971 450.971 228 446 228C441.029 228 437 223.971 437 219Z" fill="#27DD70" />
        <path d="M454.695 212.739C455.015 212.42 455.015 211.901 454.695 211.582C454.376 211.262 453.858 211.262 453.538 211.582L445.88 219.24L444.085 216.96C443.805 216.605 443.291 216.544 442.936 216.823C442.581 217.103 442.52 217.617 442.799 217.972L445.164 220.976C445.309 221.16 445.525 221.273 445.759 221.287C445.992 221.301 446.22 221.214 446.386 221.049L454.695 212.739Z" fill="#158944" />
        <path d="M261 65H470V63H261V65ZM477 72V243H479V72H477ZM470 250H261V252H470V250ZM254 243V72H252V243H254ZM261 250C257.134 250 254 246.866 254 243H252C252 247.971 256.029 252 261 252V250ZM477 243C477 246.866 473.866 250 470 250V252C474.971 252 479 247.971 479 243H477ZM470 65C473.866 65 477 68.134 477 72H479C479 67.0294 474.971 63 470 63V65ZM261 63C256.029 63 252 67.0294 252 72H254C254 68.134 257.134 65 261 65V63Z" fill="#E9EBED" />
    </g>
    <defs>
        <filter id="filter0_d_1245_25988" x="0" y="44" width="258" height="203" filterUnits="userSpaceOnUse" color-interpolation-filters="sRGB">
            <feFlood flood-opacity="0" result="BackgroundImageFix" />
            <feColorMatrix in="SourceAlpha" type="matrix" values="0 0 0 0 0 0 0 0 0 0 0 0 0 0 0 0 0 0 127 0" result="hardAlpha" />
            <feOffset dy="4" />
            <feGaussianBlur stdDeviation="4" />
            <feColorMatrix type="matrix" values="0 0 0 0 0.184314 0 0 0 0 0.223529 0 0 0 0 0.254902 0 0 0 0.15 0" />
            <feBlend mode="normal" in2="BackgroundImageFix" result="effect1_dropShadow_1245_25988" />
            <feBlend mode="normal" in="SourceGraphic" in2="effect1_dropShadow_1245_25988" result="shape" />
        </filter>
        <filter id="filter1_d_1245_25988" x="245" y="60" width="258" height="203" filterUnits="userSpaceOnUse" color-interpolation-filters="sRGB">
            <feFlood flood-opacity="0" result="BackgroundImageFix" />
            <feColorMatrix in="SourceAlpha" type="matrix" values="0 0 0 0 0 0 0 0 0 0 0 0 0 0 0 0 0 0 127 0" result="hardAlpha" />
            <feOffset dy="4" />
            <feGaussianBlur stdDeviation="4" />
            <feColorMatrix type="matrix" values="0 0 0 0 0.184314 0 0 0 0 0.223529 0 0 0 0 0.254902 0 0 0 0.15 0" />
            <feBlend mode="normal" in2="BackgroundImageFix" result="effect1_dropShadow_1245_25988" />
            <feBlend mode="normal" in="SourceGraphic" in2="effect1_dropShadow_1245_25988" result="shape" />
        </filter>
    </defs>
</svg>
    