<svg width="376" height="240" viewBox="0 0 392 240" fill="none" xmlns="http://www.w3.org/2000/svg">
<g opacity="0.6" clip-path="url(#clip0_182_14780)">
<path fill-rule="evenodd" clip-rule="evenodd" d="M383.836 190.145C389.317 227.217 256.397 251.399 141.99 234.523C27.5828 217.647 -24.9018 151.747 29.6914 116.632C84.2846 81.5176 378.355 153.072 383.836 190.145Z" fill="#D3ECDB"/>
</g>
<g filter="url(#filter0_d_182_14780)">
<rect x="8" y="38.4" width="180" height="149.6" rx="8" fill="white"/>
<rect x="24" y="62.4" width="64" height="8" rx="4" fill="#87929D"/>
<rect x="24" y="132" width="108" height="8" rx="4" fill="#87929D"/>
<rect x="24" y="152.5" width="148" height="15" rx="7.5" fill="#D4772C"/>
<rect x="8.5" y="38.9" width="179" height="148.6" rx="7.5" stroke="#E9EBED"/>
</g>
<g filter="url(#filter1_d_182_14780)">
<rect x="204" y="51.2" width="180" height="149.6" rx="8" fill="white"/>
<rect x="220" y="75.2" width="64" height="8" rx="4" fill="#87929D"/>
<rect x="220" y="144.8" width="108" height="8" rx="4" fill="#87929D"/>
<rect x="220" y="165.3" width="148" height="15" rx="7.5" fill="#003A57"/>
<rect x="204.5" y="51.7" width="179" height="148.6" rx="7.5" stroke="#E9EBED"/>
</g>
<defs>
<filter id="filter0_d_182_14780" x="0" y="34.4" width="258" height="165.6" filterUnits="userSpaceOnUse" color-interpolation-filters="sRGB">
<feFlood flood-opacity="0" result="BackgroundImageFix"/>
<feColorMatrix in="SourceAlpha" type="matrix" values="0 0 0 0 0 0 0 0 0 0 0 0 0 0 0 0 0 0 127 0" result="hardAlpha"/>
<feOffset dy="4"/>
<feGaussianBlur stdDeviation="4"/>
<feColorMatrix type="matrix" values="0 0 0 0 0.184314 0 0 0 0 0.223529 0 0 0 0 0.254902 0 0 0 0.15 0"/>
<feBlend mode="normal" in2="BackgroundImageFix" result="effect1_dropShadow_182_14780"/>
<feBlend mode="normal" in="SourceGraphic" in2="effect1_dropShadow_182_14780" result="shape"/>
</filter>
<filter id="filter1_d_182_14780" x="196" y="47.2" width="258" height="165.6" filterUnits="userSpaceOnUse" color-interpolation-filters="sRGB">
<feFlood flood-opacity="0" result="BackgroundImageFix"/>
<feColorMatrix in="SourceAlpha" type="matrix" values="0 0 0 0 0 0 0 0 0 0 0 0 0 0 0 0 0 0 127 0" result="hardAlpha"/>
<feOffset dy="4"/>
<feGaussianBlur stdDeviation="4"/>
<feColorMatrix type="matrix" values="0 0 0 0 0.184314 0 0 0 0 0.223529 0 0 0 0 0.254902 0 0 0 0.15 0"/>
<feBlend mode="normal" in2="BackgroundImageFix" result="effect1_dropShadow_182_14780"/>
<feBlend mode="normal" in="SourceGraphic" in2="effect1_dropShadow_182_14780" result="shape"/>
</filter>
<clipPath id="clip0_182_14780">
<rect width="376" height="132.8" fill="white" transform="translate(8 107.2)"/>
</clipPath>
</defs>
</svg>
