<svg width="252" height="200" viewBox="0 0 252 200" fill="none" xmlns="http://www.w3.org/2000/svg">
<g clip-path="url(#clip0_827_34424)">
<g opacity="0.2">
<path d="M25.3208 152.962C16.2088 139.606 13.326 122.861 17.9385 107.379C19.7288 101.343 22.5434 95.6569 26.2599 90.5685C37.3155 75.4589 56.3894 66.488 75.178 67.6493C86.2217 68.3248 97.5329 72.2059 108.059 68.8344C121.73 64.4378 128.774 49.6956 134.272 36.4348C139.77 23.1739 150.528 9.33829 163.914 4.07068C176.396 -0.835479 196.082 -0.847326 204.475 2.41752C236.489 14.8607 239.217 57.0667 232.667 80.0392C226.117 103.012 217.266 118.097 203.423 137.473C184.028 164.617 150.356 180.983 117.421 186.713C86.0374 192.17 51.563 182.352 30.1234 159.053C28.3761 157.142 26.771 155.106 25.3208 152.962Z" fill="#E6EBEE"/>
<path d="M25.3208 152.962C16.2088 139.606 13.326 122.861 17.9385 107.379C19.7288 101.343 22.5434 95.6569 26.2599 90.5685C37.3155 75.4589 56.3894 66.488 75.178 67.6493C86.2217 68.3248 97.5329 72.2059 108.059 68.8344C121.73 64.4378 128.774 49.6956 134.272 36.4348C139.77 23.1739 150.528 9.33829 163.914 4.07068C176.396 -0.835479 196.082 -0.847326 204.475 2.41752C236.489 14.8607 239.217 57.0667 232.667 80.0392C226.117 103.012 217.266 118.097 203.423 137.473C184.028 164.617 150.356 180.983 117.421 186.713C86.0374 192.17 51.563 182.352 30.1234 159.053C28.3761 157.142 26.771 155.106 25.3208 152.962Z" fill="url(#paint0_linear_827_34424)" fill-opacity="0.8" style="mix-blend-mode:color-burn"/>
<path d="M25.3208 152.962C16.2088 139.606 13.326 122.861 17.9385 107.379C19.7288 101.343 22.5434 95.6569 26.2599 90.5685C37.3155 75.4589 56.3894 66.488 75.178 67.6493C86.2217 68.3248 97.5329 72.2059 108.059 68.8344C121.73 64.4378 128.774 49.6956 134.272 36.4348C139.77 23.1739 150.528 9.33829 163.914 4.07068C176.396 -0.835479 196.082 -0.847326 204.475 2.41752C236.489 14.8607 239.217 57.0667 232.667 80.0392C226.117 103.012 217.266 118.097 203.423 137.473C184.028 164.617 150.356 180.983 117.421 186.713C86.0374 192.17 51.563 182.352 30.1234 159.053C28.3761 157.142 26.771 155.106 25.3208 152.962Z" fill="#2F3941" fill-opacity="0.15" style="mix-blend-mode:multiply"/>
</g>
<path d="M251.2 199.864C251.2 199.952 194.959 200.018 125.606 200.018C56.2528 200.018 0 199.952 0 199.864C0 199.775 56.2231 199.709 125.606 199.709C194.989 199.709 251.2 199.781 251.2 199.864Z" fill="#001825"/>
<path d="M28.9483 174.53C29.7804 174.53 22.5809 193.929 20.7249 198.884C20.5192 199.433 20.3789 199.916 20.3789 199.916L70.7852 200L70.1915 152.965C70.1936 152.934 70.1936 152.903 70.1915 152.872L65.984 119.231C65.9632 119.068 65.8949 118.914 65.7876 118.79C65.6803 118.666 65.5388 118.576 65.3809 118.532C63.3846 117.993 56.1897 116.132 50.6872 115.926C44.2403 115.687 34.9089 116.971 34.9089 116.971C34.9089 116.971 26.5266 117.806 21.8983 119.493C21.7194 119.557 21.5681 119.681 21.4701 119.845C21.3721 120.008 21.3334 120.2 21.3607 120.389L28.9483 174.53Z" fill="#2B8473"/>
<path d="M52.2254 153.668C52.1612 153.881 52.0766 154.086 51.9729 154.283C51.87 154.52 51.7513 154.75 51.6176 154.972C51.456 155.273 51.2781 155.566 51.0847 155.848C50.8578 156.198 50.6112 156.535 50.346 156.856C50.0546 157.231 49.7424 157.59 49.411 157.93C48.6409 158.708 47.7952 159.407 46.8865 160.016C45.9646 160.607 44.9876 161.106 43.9693 161.507C43.5018 161.671 43.0343 161.84 42.6088 161.947C42.2091 162.061 41.8033 162.152 41.3933 162.219C41.0579 162.284 40.7192 162.331 40.3788 162.36C40.1217 162.395 39.8623 162.413 39.6028 162.412C39.3837 162.436 39.1627 162.436 38.9436 162.412C38.9436 162.36 39.8786 162.365 41.3606 162.065C41.7628 161.985 42.1607 161.885 42.5527 161.765C42.9828 161.652 43.4223 161.479 43.8851 161.296C44.8845 160.891 45.8439 160.394 46.7509 159.81C47.6472 159.211 48.4847 158.528 49.2521 157.77C49.5933 157.409 49.93 157.077 50.1871 156.725C50.4556 156.414 50.7068 156.088 50.9398 155.75C51.8187 154.517 52.1786 153.645 52.2254 153.668Z" fill="#001825"/>
<g opacity="0.2">
<path d="M22.0898 195.204C24.452 196.175 27.0241 196.518 29.5573 196.2C32.0904 195.882 34.4989 194.914 36.5498 193.39C38.3683 192.068 39.8924 190.338 41.8559 189.236C44.5768 187.717 47.8166 187.572 50.9255 187.361C55.0816 187.061 59.2752 186.55 63.1835 185.097C63.999 184.858 64.7384 184.41 65.3293 183.798C65.867 183.146 66.0493 182.12 65.521 181.454C64.9927 180.788 63.9876 180.742 63.1227 180.77C50.0887 181.154 38.1767 182.199 25.4886 185.223" fill="#2F3941"/>
</g>
<path d="M36.1385 67.5314C40.1684 63.4154 46.5265 60.9682 51.7906 63.3122C55.3343 64.8686 57.7373 68.2018 60.8462 70.5036C63.1089 72.1819 65.9046 73.4805 67.092 76.0401C68.1392 78.295 67.6343 80.925 67.3819 83.4002C67.1294 85.8755 67.3071 88.7305 69.2192 90.3197C70.2196 91.1495 71.5567 91.4823 72.674 92.1293C74.9508 93.4372 76.3019 95.9828 76.7881 98.5659C77.2743 101.149 77.0125 103.812 76.7507 106.432L65.8999 108.504L64.1187 105.499L63.5063 110.211L49.6588 111.463L36.1385 67.5314Z" fill="#001825"/>
<path d="M34.3481 72.0222V75.046L33.4925 120.43C33.4177 125.69 38.4387 130.167 44.0581 130.205C49.729 130.242 52.0431 125.986 52.2067 120.655C52.375 115.081 52.6742 109.212 52.6742 109.212C52.6742 109.212 59.8691 108.218 61.6129 98.8985C62.4778 94.2574 62.4544 86.6112 62.2347 80.3528C62.1882 79.0173 61.8728 77.7051 61.3074 76.4951C60.742 75.2851 59.9383 74.2024 58.9446 73.312C57.951 72.4216 56.788 71.742 55.5256 71.3141C54.2632 70.8862 52.9276 70.7188 51.599 70.8221L34.3481 72.0222Z" fill="#E6EBEE"/>
<path d="M34.3481 72.0222V75.046L33.4925 120.43C33.4177 125.69 38.4387 130.167 44.0581 130.205C49.729 130.242 52.0431 125.986 52.2067 120.655C52.375 115.081 52.6742 109.212 52.6742 109.212C52.6742 109.212 59.8691 108.218 61.6129 98.8985C62.4778 94.2574 62.4544 86.6112 62.2347 80.3528C62.1882 79.0173 61.8728 77.7051 61.3074 76.4951C60.742 75.2851 59.9383 74.2024 58.9446 73.312C57.951 72.4216 56.788 71.742 55.5256 71.3141C54.2632 70.8862 52.9276 70.7188 51.599 70.8221L34.3481 72.0222Z" fill="url(#paint1_linear_827_34424)" fill-opacity="0.8" style="mix-blend-mode:color-burn"/>
<path d="M34.3481 72.0222V75.046L33.4925 120.43C33.4177 125.69 38.4387 130.167 44.0581 130.205C49.729 130.242 52.0431 125.986 52.2067 120.655C52.375 115.081 52.6742 109.212 52.6742 109.212C52.6742 109.212 59.8691 108.218 61.6129 98.8985C62.4778 94.2574 62.4544 86.6112 62.2347 80.3528C62.1882 79.0173 61.8728 77.7051 61.3074 76.4951C60.742 75.2851 59.9383 74.2024 58.9446 73.312C57.951 72.4216 56.788 71.742 55.5256 71.3141C54.2632 70.8862 52.9276 70.7188 51.599 70.8221L34.3481 72.0222Z" fill="#2F3941" fill-opacity="0.15" style="mix-blend-mode:multiply"/>
<path d="M59.7288 86.3677C59.7239 86.6806 59.5968 86.9792 59.3748 87.1992C59.1527 87.4192 58.8535 87.5432 58.5414 87.5443C58.3886 87.5525 58.2358 87.53 58.0919 87.478C57.948 87.426 57.816 87.3456 57.7035 87.2417C57.5911 87.1377 57.5006 87.0121 57.4374 86.8725C57.3741 86.7329 57.3394 86.5819 57.3352 86.4286C57.3413 86.1156 57.4686 85.8172 57.6902 85.5967C57.9119 85.3762 58.2105 85.2508 58.5227 85.2472C58.6758 85.239 58.829 85.2618 58.9732 85.314C59.1174 85.3663 59.2496 85.4471 59.3621 85.5516C59.4746 85.6561 59.565 85.7821 59.628 85.9223C59.691 86.0625 59.7253 86.214 59.7288 86.3677Z" fill="#001825"/>
<path d="M60.4349 84.2673C60.2806 84.4221 59.3923 83.7188 58.0974 83.6907C56.8024 83.6626 55.844 84.2767 55.7084 84.1126C55.643 84.0423 55.8019 83.7657 56.2227 83.4751C56.79 83.1 57.4605 82.9131 58.1394 82.9406C58.817 82.9518 59.4729 83.182 60.0095 83.597C60.3835 83.9111 60.5097 84.197 60.4349 84.2673Z" fill="#001825"/>
<path d="M47.0219 86.3677C47.0158 86.6803 46.8883 86.9781 46.6666 87.1979C46.4448 87.4177 46.1462 87.542 45.8345 87.5443C45.6817 87.5525 45.5289 87.53 45.385 87.478C45.2411 87.426 45.1091 87.3456 44.9966 87.2417C44.8842 87.1377 44.7937 87.0121 44.7304 86.8725C44.6672 86.7329 44.6324 86.5819 44.6283 86.4286C44.6343 86.1156 44.7617 85.8172 44.9833 85.5967C45.205 85.3762 45.5036 85.2508 45.8158 85.2472C45.9689 85.239 46.1221 85.2618 46.2663 85.314C46.4105 85.3663 46.5427 85.4471 46.6552 85.5516C46.7677 85.6561 46.8581 85.7821 46.9211 85.9223C46.9841 86.0625 47.0184 86.214 47.0219 86.3677Z" fill="#001825"/>
<path d="M47.7465 84.1596C47.5923 84.3097 46.704 83.6111 45.409 83.5783C44.114 83.5455 43.1556 84.169 43.0201 84.0049C42.9546 83.9346 43.1136 83.6533 43.5343 83.3674C44.1019 82.9924 44.7718 82.804 45.4511 82.8283C46.1284 82.8407 46.7839 83.0707 47.3211 83.4846C47.6951 83.8033 47.8213 84.0893 47.7465 84.1596Z" fill="#001825"/>
<path d="M52.1646 93.8965C52.1646 93.8215 52.9687 93.7043 54.2684 93.573C54.6003 93.5496 54.9135 93.4933 54.9743 93.2683C55.0126 92.9282 54.9457 92.5845 54.7826 92.2838C54.4975 91.4728 54.1936 90.629 53.8757 89.7382C52.6228 86.1238 51.7252 83.1751 51.8701 83.1C52.015 83.025 53.151 85.9457 54.404 89.5648C54.7078 90.4555 54.9977 91.304 55.2688 92.1197C55.4677 92.5223 55.5158 92.9831 55.4044 93.4183C55.3537 93.5339 55.2771 93.6363 55.1807 93.7176C55.0842 93.7989 54.9704 93.8569 54.8481 93.8871C54.6647 93.9328 54.476 93.9533 54.2871 93.948C52.9781 93.9715 52.1693 93.9527 52.1646 93.8965Z" fill="#001825"/>
<path d="M52.6367 109.212C48.2333 109.159 43.9313 107.88 40.2104 105.518C40.2104 105.518 43.0669 112.039 52.4497 111.42L52.6367 109.212Z" fill="#E6EBEE"/>
<path d="M52.6367 109.212C48.2333 109.159 43.9313 107.88 40.2104 105.518C40.2104 105.518 43.0669 112.039 52.4497 111.42L52.6367 109.212Z" fill="url(#paint2_linear_827_34424)" fill-opacity="0.8" style="mix-blend-mode:color-burn"/>
<path d="M52.6367 109.212C48.2333 109.159 43.9313 107.88 40.2104 105.518C40.2104 105.518 43.0669 112.039 52.4497 111.42L52.6367 109.212Z" fill="#2F3941" fill-opacity="0.15" style="mix-blend-mode:multiply"/>
<path d="M48.3452 94.6701C48.5555 94.6701 48.5181 96.0765 49.6869 97.0985C50.8557 98.1205 52.3564 98.0126 52.361 98.2095C52.361 98.2986 52.0197 98.4768 51.3886 98.4721C50.5685 98.4632 49.7781 98.1625 49.1586 97.6235C48.5624 97.1081 48.1901 96.3799 48.1208 95.5936C48.0787 95.003 48.247 94.6607 48.3452 94.6701Z" fill="#001825"/>
<path d="M48.158 80.3955C48.0178 80.7424 46.7555 80.5408 45.2174 80.6814C43.6794 80.8221 42.4638 81.2018 42.2722 80.883C42.188 80.7283 42.4077 80.4142 42.9126 80.0767C43.5831 79.6784 44.3351 79.438 45.1118 79.3739C45.8885 79.3097 46.6696 79.4234 47.396 79.7063C47.943 79.9454 48.2141 80.2314 48.158 80.3955Z" fill="#001825"/>
<path d="M60.4814 81.6565C60.1962 81.9425 59.1256 81.605 57.8213 81.5534C56.517 81.5018 55.4183 81.6847 55.1705 81.3706C55.063 81.2206 55.2453 80.9299 55.7362 80.6674C56.411 80.3368 57.1611 80.1912 57.9101 80.2455C58.6562 80.2701 59.3823 80.4934 60.0139 80.8924C60.4627 81.2065 60.6076 81.5159 60.4814 81.6565Z" fill="#001825"/>
<path d="M24.7033 118.635C24.7033 118.635 9.66838 122.17 6.75115 136.45C5.40941 143.013 3.53472 180.737 12.2958 186.611C23.6047 194.177 38.0085 187.296 38.0085 187.296L36.1385 169.05H26.7884L25.5308 149.06C25.8955 150.621 24.7033 118.635 24.7033 118.635Z" fill="#2B8473"/>
<path d="M78.1857 181.426C81.1348 181.123 83.8571 179.702 85.7958 177.452C87.7345 175.203 88.7432 172.297 88.6157 169.327L82.4727 143.154C82.4727 143.154 78.4896 120.698 65.8997 118.673L70.1914 152.895L69.7799 160.11C69.7799 160.11 69.9763 164.882 70.4578 173.827L78.1857 181.426Z" fill="#2B8473"/>
<path d="M79.8129 165.051C79.0536 165.079 78.2974 165.162 77.5501 165.3C75.7461 165.667 74.0933 166.568 72.805 167.887C71.5167 169.206 70.652 170.881 70.3225 172.697C70.2003 173.451 70.1331 174.212 70.1215 174.976C70.0723 174.773 70.0488 174.565 70.0514 174.357C70.0263 173.791 70.0608 173.223 70.1542 172.664C70.4531 170.799 71.3242 169.073 72.6463 167.727C73.9684 166.381 75.676 165.482 77.5314 165.154C78.088 165.051 78.6533 165.004 79.2191 165.014C79.4178 165.002 79.6172 165.014 79.8129 165.051Z" fill="#001825"/>
<path d="M41.0239 66.4859C42.7163 68.7642 43.5204 70.5129 44.5349 74.568C45.0351 76.551 43.4222 77.9527 41.8234 79.1669C41.6515 79.2979 41.4494 79.3833 41.2359 79.4154C41.0224 79.4475 40.8043 79.4251 40.6017 79.3504C40.399 79.2757 40.2184 79.151 40.0765 78.9878C39.9346 78.8246 39.836 78.6283 39.7897 78.4168C39.7897 78.4168 40.3414 84.6284 38.102 87.413C37.0548 88.721 37.0081 90.3946 37.2558 91.8057C37.5368 93.2409 38.2327 94.5615 39.2568 95.603C41.8561 98.3407 42.576 102.808 40.7855 106.165C40.2668 106.99 39.7908 107.841 39.3596 108.715C39.1416 109.237 39.041 109.8 39.0651 110.365C39.0925 110.697 38.9934 111.027 38.7877 111.288C38.582 111.549 38.2851 111.722 37.9571 111.772C30.2636 112.888 22.4685 113.122 14.7221 112.47C14.4558 112.449 14.2029 112.344 13.9991 112.171C13.7952 111.998 13.6508 111.765 13.5861 111.505C12.9783 108.898 13.9928 106.085 15.2878 103.741C16.7371 101.093 18.5603 98.5517 19.0793 95.5748C19.5468 92.762 18.7847 89.7524 19.9067 87.1365C21.3093 83.9346 25.0493 82.4203 26.9193 79.481C28.6911 76.7104 28.5462 73.0772 30.1311 70.1988C32.1694 66.4952 37.1764 64.7888 41.0379 66.4812" fill="#001825"/>
<path d="M41.4541 69.9222C44.3947 71.4411 45.7551 75.0461 48.6116 76.7151C51.2109 78.234 54.4554 77.8355 57.4334 77.3854C57.3259 76.7244 57.2137 76.0587 57.1015 75.3977C57.3694 75.9961 57.7432 76.5409 58.2048 77.0057C58.4392 77.2351 58.7313 77.3963 59.0499 77.4723C59.3685 77.5483 59.7018 77.5361 60.014 77.437C61.0145 77.0338 61.1454 75.6556 60.8929 74.6242C60.4358 72.9456 59.5382 71.4207 58.2936 70.2081C56.0699 67.945 53.1081 66.5603 49.9498 66.3072C46.7916 66.0541 43.648 66.9496 41.0941 68.8299" fill="#001825"/>
<path d="M69.0228 136.656C69.0444 136.778 69.0538 136.902 69.0509 137.026C69.0509 137.289 69.0509 137.64 69.0836 138.081C69.0836 139.019 69.149 140.326 69.2192 141.963C69.3547 145.244 69.6586 149.763 70.0279 154.756C70.3973 159.749 70.6731 164.277 70.7619 167.559C70.8087 169.2 70.832 170.526 70.818 171.445C70.818 171.886 70.818 172.238 70.818 172.5C70.8292 172.623 70.8292 172.747 70.818 172.87C70.7965 172.748 70.7871 172.624 70.79 172.5C70.79 172.238 70.79 171.886 70.7572 171.445C70.7572 170.508 70.6918 169.204 70.6217 167.564C70.4908 164.282 70.1822 159.768 69.8176 154.77C69.4529 149.773 69.1677 145.254 69.0789 141.972C69.0322 140.331 69.0135 139 69.0228 138.081C69.0228 137.64 69.0228 137.289 69.0228 137.026C69.0147 136.903 69.0147 136.779 69.0228 136.656Z" fill="#001825"/>
<path d="M26.8024 169.055C26.7811 168.969 26.7701 168.881 26.7696 168.792C26.7696 168.591 26.7416 168.323 26.7182 168.037C26.6808 167.348 26.6294 166.415 26.5686 165.271C26.433 162.927 26.2273 159.707 25.9842 156.139C25.7411 152.572 25.5167 149.379 25.3531 147.012C25.2783 145.873 25.2175 144.935 25.1708 144.246C25.1708 143.941 25.1427 143.693 25.1334 143.496C25.1222 143.407 25.1222 143.317 25.1334 143.229C25.1562 143.314 25.1703 143.402 25.1754 143.491C25.1754 143.688 25.2269 143.936 25.2596 144.241C25.325 144.926 25.4139 145.858 25.5214 147.002C25.7271 149.346 25.9889 152.558 26.2226 156.125C26.4564 159.693 26.6434 162.923 26.7322 165.262C26.7743 166.434 26.807 167.381 26.8117 168.033V168.787C26.8206 168.877 26.8175 168.966 26.8024 169.055Z" fill="#001825"/>
<path d="M26.8026 169.055C26.8026 169.097 26.3351 169.12 25.5778 169.369C24.6195 169.687 23.7681 170.266 23.1184 171.04C22.4688 171.815 22.0465 172.755 21.8985 173.757C21.7816 174.526 21.8424 175.013 21.8003 175.018C21.7582 175.023 21.7536 174.901 21.7255 174.68C21.6908 174.369 21.6908 174.054 21.7255 173.743C21.8349 172.692 22.2549 171.698 22.9317 170.888C23.6163 170.086 24.5198 169.503 25.531 169.209C25.8363 169.124 26.1497 169.07 26.466 169.05C26.6811 169.027 26.8026 169.036 26.8026 169.055Z" fill="#001825"/>
<path d="M37.9852 187.3C37.9557 187.206 37.9368 187.108 37.9291 187.01C37.901 186.794 37.8683 186.517 37.8216 186.175C37.7374 185.42 37.6206 184.384 37.4756 183.109C37.1998 180.493 36.8258 176.926 36.4144 172.988C36.2788 171.619 36.1432 170.292 36.0217 169.064L36.1386 169.172L28.6585 169.125L26.4846 169.092H25.9049C25.8381 169.1 25.7706 169.1 25.7039 169.092C25.7694 169.075 25.8371 169.067 25.9049 169.069H26.4846L28.6585 169.036L36.1386 168.994H36.2414V169.101L36.6435 173.021C37.0268 176.963 37.3728 180.521 37.6299 183.156C37.7421 184.431 37.8356 185.472 37.901 186.227C37.9291 186.569 37.9478 186.85 37.9665 187.066C37.9792 187.143 37.9855 187.222 37.9852 187.3Z" fill="#001825"/>
<path d="M37.9851 187.3C37.8695 187.35 37.7508 187.392 37.6298 187.427L36.606 187.755C35.7131 188.036 34.4181 188.43 32.8005 188.861C30.9072 189.38 28.9836 189.781 27.0409 190.062C24.6464 190.386 22.213 190.27 19.86 189.719C18.6407 189.455 17.4385 189.117 16.2602 188.707C15.6945 188.5 15.1382 188.294 14.6006 188.069C14.3341 187.957 14.0676 187.849 13.8152 187.713L13.4318 187.521L13.0718 187.291C12.1929 186.695 11.4294 185.943 10.8185 185.074C10.281 184.325 9.81161 183.529 9.41595 182.697C8.86041 181.493 8.3917 180.25 8.01343 178.979C7.87318 178.51 7.77033 178.182 7.70955 177.943C7.67144 177.822 7.64176 177.698 7.62073 177.573C7.67662 177.687 7.722 177.806 7.7563 177.929L8.10226 178.951C8.51704 180.203 9.01047 181.428 9.57957 182.617C9.97821 183.438 10.4475 184.222 10.9821 184.961C11.5855 185.805 12.3362 186.532 13.1981 187.108L13.544 187.328L13.9133 187.516C14.1564 187.647 14.4229 187.75 14.6894 187.863C15.2224 188.083 15.774 188.289 16.3397 188.486C17.5089 188.893 18.7016 189.228 19.9114 189.49C22.238 190.034 24.6432 190.157 27.0128 189.851C28.9483 189.58 30.8667 189.198 32.7584 188.707C34.376 188.294 35.6757 187.924 36.578 187.675L37.6158 187.389C37.7356 187.347 37.8593 187.317 37.9851 187.3Z" fill="#001825"/>
<path d="M30.0517 77.5921C30.5008 76.4857 30.6103 75.27 30.3663 74.1007C30.1223 72.9315 29.5358 71.8619 28.6819 71.0289C27.8042 70.2246 26.7296 69.668 25.5675 69.416C24.4053 69.164 23.1974 69.2255 22.0667 69.5944C21.0368 69.9053 20.1317 70.5355 19.4814 71.3946C18.336 72.9791 18.5464 75.3137 19.7432 76.8748C20.3693 77.6304 21.149 78.2432 22.0302 78.6725C22.9114 79.1018 23.8737 79.3376 24.853 79.3641C26.8154 79.4034 28.7615 78.9997 30.5472 78.1828" fill="#001825"/>
<path d="M45.5961 151.943C48.8686 154.648 56.5637 161.052 56.5637 161.052L60.8694 160.283L47.8167 149.271C47.4784 148.987 47.0451 148.843 46.6048 148.869C46.1644 148.894 45.7503 149.086 45.4465 149.407C45.2816 149.579 45.1539 149.783 45.0716 150.007C44.9893 150.231 44.954 150.47 44.9681 150.708C44.9821 150.946 45.0452 151.179 45.1533 151.391C45.2613 151.604 45.4121 151.792 45.5961 151.943Z" fill="#336179"/>
<path d="M45.2737 150.537L43.5813 149.004C43.4222 148.859 43.325 148.658 43.3102 148.443C43.2954 148.228 43.3641 148.016 43.5019 147.851C43.5743 147.766 43.663 147.696 43.7626 147.646C43.8623 147.597 43.9709 147.567 44.0821 147.56C44.1933 147.553 44.3047 147.569 44.4098 147.606C44.515 147.643 44.6116 147.7 44.694 147.776L46.3256 149.276L45.2737 150.537Z" fill="#336179"/>
<path d="M50.2946 151.362C50.008 151.84 49.6536 152.275 49.2427 152.651C48.8886 153.081 48.4764 153.46 48.0178 153.776C48.305 153.297 48.6592 152.861 49.0697 152.482C49.4214 152.051 49.8341 151.674 50.2946 151.362Z" fill="#001825"/>
<path d="M50.4159 156.753C49.9554 156.511 49.5186 156.225 49.1116 155.9C48.3355 155.338 47.2836 154.522 46.1756 153.556C45.6082 153.132 45.1393 152.59 44.8012 151.967C44.5619 151.421 44.5468 150.803 44.7591 150.246C44.9009 149.877 45.1401 149.553 45.451 149.309C45.6707 149.145 45.8157 149.093 45.8203 149.107C45.825 149.121 45.7035 149.201 45.5118 149.384C45.2401 149.642 45.0375 149.964 44.9227 150.321C44.7493 150.836 44.7794 151.398 45.0069 151.892C45.3443 152.477 45.7978 152.985 46.3393 153.387C47.4379 154.348 48.4664 155.183 49.2191 155.778C49.6379 156.078 50.0376 156.404 50.4159 156.753Z" fill="#001825"/>
<path d="M66.8159 166.945C66.8949 167.074 66.9996 167.186 67.1235 167.273C67.2474 167.36 67.3877 167.42 67.5359 167.451C67.6841 167.481 67.8369 167.48 67.9849 167.449C68.1329 167.418 68.2728 167.356 68.3961 167.268C68.6361 167.077 68.8195 166.823 68.9266 166.535C69.0337 166.247 69.0604 165.935 69.0038 165.632C68.8815 165.027 68.6152 164.461 68.2278 163.982C67.5448 163.096 66.7946 162.263 65.9838 161.493L63.506 163.584L66.8159 166.945Z" fill="#E6EBEE"/>
<path d="M66.8159 166.945C66.8949 167.074 66.9996 167.186 67.1235 167.273C67.2474 167.36 67.3877 167.42 67.5359 167.451C67.6841 167.481 67.8369 167.48 67.9849 167.449C68.1329 167.418 68.2728 167.356 68.3961 167.268C68.6361 167.077 68.8195 166.823 68.9266 166.535C69.0337 166.247 69.0604 165.935 69.0038 165.632C68.8815 165.027 68.6152 164.461 68.2278 163.982C67.5448 163.096 66.7946 162.263 65.9838 161.493L63.506 163.584L66.8159 166.945Z" fill="url(#paint3_linear_827_34424)" fill-opacity="0.8" style="mix-blend-mode:color-burn"/>
<path d="M66.8159 166.945C66.8949 167.074 66.9996 167.186 67.1235 167.273C67.2474 167.36 67.3877 167.42 67.5359 167.451C67.6841 167.481 67.8369 167.48 67.9849 167.449C68.1329 167.418 68.2728 167.356 68.3961 167.268C68.6361 167.077 68.8195 166.823 68.9266 166.535C69.0337 166.247 69.0604 165.935 69.0038 165.632C68.8815 165.027 68.6152 164.461 68.2278 163.982C67.5448 163.096 66.7946 162.263 65.9838 161.493L63.506 163.584L66.8159 166.945Z" fill="#2F3941" fill-opacity="0.15" style="mix-blend-mode:multiply"/>
<path d="M36.2833 170.513C39.3876 169.472 42.6788 170.175 45.7783 169.13C46.8425 168.849 47.8395 168.356 48.7096 167.681C49.696 166.804 50.1963 165.515 50.9817 164.456C53.3192 161.287 57.7091 160.63 61.6267 160.237C62.5352 160.09 63.4622 160.103 64.3663 160.274C64.8183 160.365 65.2391 160.572 65.5879 160.874C65.9368 161.177 66.202 161.564 66.3579 161.999C66.6103 162.885 66.04 163.992 65.1237 164.085C65.9839 164.123 66.5823 164.995 66.7412 165.843C66.9002 166.692 66.7412 167.564 66.8721 168.417C67.0311 169.617 67.6856 170.738 67.6482 171.947C67.5968 173.602 66.2457 174.966 64.7029 175.604C63.1602 176.241 61.4912 176.326 59.8596 176.541C51.8185 177.676 45.7409 182.247 37.985 185.702" fill="#E6EBEE"/>
<path d="M36.2833 170.513C39.3876 169.472 42.6788 170.175 45.7783 169.13C46.8425 168.849 47.8395 168.356 48.7096 167.681C49.696 166.804 50.1963 165.515 50.9817 164.456C53.3192 161.287 57.7091 160.63 61.6267 160.237C62.5352 160.09 63.4622 160.103 64.3663 160.274C64.8183 160.365 65.2391 160.572 65.5879 160.874C65.9368 161.177 66.202 161.564 66.3579 161.999C66.6103 162.885 66.04 163.992 65.1237 164.085C65.9839 164.123 66.5823 164.995 66.7412 165.843C66.9002 166.692 66.7412 167.564 66.8721 168.417C67.0311 169.617 67.6856 170.738 67.6482 171.947C67.5968 173.602 66.2457 174.966 64.7029 175.604C63.1602 176.241 61.4912 176.326 59.8596 176.541C51.8185 177.676 45.7409 182.247 37.985 185.702" fill="url(#paint4_linear_827_34424)" fill-opacity="0.8" style="mix-blend-mode:color-burn"/>
<path d="M36.2833 170.513C39.3876 169.472 42.6788 170.175 45.7783 169.13C46.8425 168.849 47.8395 168.356 48.7096 167.681C49.696 166.804 50.1963 165.515 50.9817 164.456C53.3192 161.287 57.7091 160.63 61.6267 160.237C62.5352 160.09 63.4622 160.103 64.3663 160.274C64.8183 160.365 65.2391 160.572 65.5879 160.874C65.9368 161.177 66.202 161.564 66.3579 161.999C66.6103 162.885 66.04 163.992 65.1237 164.085C65.9839 164.123 66.5823 164.995 66.7412 165.843C66.9002 166.692 66.7412 167.564 66.8721 168.417C67.0311 169.617 67.6856 170.738 67.6482 171.947C67.5968 173.602 66.2457 174.966 64.7029 175.604C63.1602 176.241 61.4912 176.326 59.8596 176.541C51.8185 177.676 45.7409 182.247 37.985 185.702" fill="#2F3941" fill-opacity="0.15" style="mix-blend-mode:multiply"/>
<path d="M65.8998 164.216C65.8998 164.296 64.3757 164.17 62.5384 164.455C60.7011 164.741 59.2659 165.295 59.2659 165.224C59.5457 165.039 59.8513 164.897 60.1728 164.802C60.9318 164.532 61.7144 164.335 62.5104 164.212C63.3068 164.091 64.1133 164.048 64.918 164.085C65.2499 164.081 65.5806 164.125 65.8998 164.216Z" fill="#547B8E"/>
<path d="M66.9936 169.102C66.9936 169.177 65.7174 168.914 64.1419 168.961C62.5664 169.008 61.3135 169.317 61.2994 169.242C63.1345 168.59 65.1288 168.541 66.9936 169.102Z" fill="#547B8E"/>
<path d="M66.7318 167.657C66.6898 167.657 66.7318 167.292 66.6617 166.72C66.5719 165.977 66.3144 165.266 65.909 164.638C65.8118 164.487 65.7056 164.341 65.5911 164.202L65.521 164.113L65.5958 164.038C65.8091 163.821 65.9766 163.563 66.0882 163.279C66.1999 162.996 66.2534 162.693 66.2456 162.388C66.2456 161.919 66.1054 161.657 66.1381 161.643C66.3051 161.852 66.3973 162.111 66.3999 162.379C66.4357 162.712 66.3972 163.05 66.2873 163.367C66.1774 163.684 65.9987 163.972 65.7641 164.212V164.048C65.8868 164.197 66.0008 164.354 66.1054 164.516C66.5324 165.175 66.7805 165.935 66.8253 166.72C66.8624 167.035 66.8305 167.355 66.7318 167.657Z" fill="#547B8E"/>
<path d="M66.8207 166.678L70.8973 170.513L71.4162 172.791L67.6482 171.938C67.1059 170.016 66.7085 168.183 66.8207 166.678Z" fill="#336179"/>
<path d="M61.2998 171.562C61.2156 171.712 39.2897 182.551 39.2897 182.551V184.895L61.6644 173.222L89.4202 172.186V170.536L61.2998 171.562Z" fill="#F6F6F8"/>
<path d="M39.2897 185.219C39.4439 185.116 63.4971 182.941 63.4971 182.941L89.4202 172.158L61.6644 173.208L39.2897 184.881V185.219Z" fill="#001825"/>
<path d="M62.3189 179.448C62.1272 178.182 63.3334 177.104 64.5629 176.762C65.7924 176.42 67.1061 176.56 68.3497 176.293C69.1388 176.075 69.9107 175.8 70.6592 175.468C74.4927 173.996 78.7002 173.916 82.8143 173.86C83.0533 174.419 83.0907 175.044 82.92 175.627C82.7494 176.211 82.3814 176.716 81.8793 177.057C82.2191 178.066 82.1741 179.165 81.753 180.142C81.329 181.11 80.7494 182.001 80.0373 182.781C79.4998 183.495 78.8076 184.077 78.013 184.483C77.1817 184.788 76.2982 184.925 75.4137 184.886C72.6554 184.942 69.7008 184.947 67.424 183.395C65.6522 182.186 64.4273 180.114 62.375 179.504H62.8425" fill="#E6EBEE"/>
<path d="M62.3189 179.448C62.1272 178.182 63.3334 177.104 64.5629 176.762C65.7924 176.42 67.1061 176.56 68.3497 176.293C69.1388 176.075 69.9107 175.8 70.6592 175.468C74.4927 173.996 78.7002 173.916 82.8143 173.86C83.0533 174.419 83.0907 175.044 82.92 175.627C82.7494 176.211 82.3814 176.716 81.8793 177.057C82.2191 178.066 82.1741 179.165 81.753 180.142C81.329 181.11 80.7494 182.001 80.0373 182.781C79.4998 183.495 78.8076 184.077 78.013 184.483C77.1817 184.788 76.2982 184.925 75.4137 184.886C72.6554 184.942 69.7008 184.947 67.424 183.395C65.6522 182.186 64.4273 180.114 62.375 179.504H62.8425" fill="url(#paint5_linear_827_34424)" fill-opacity="0.8" style="mix-blend-mode:color-burn"/>
<path d="M62.3189 179.448C62.1272 178.182 63.3334 177.104 64.5629 176.762C65.7924 176.42 67.1061 176.56 68.3497 176.293C69.1388 176.075 69.9107 175.8 70.6592 175.468C74.4927 173.996 78.7002 173.916 82.8143 173.86C83.0533 174.419 83.0907 175.044 82.92 175.627C82.7494 176.211 82.3814 176.716 81.8793 177.057C82.2191 178.066 82.1741 179.165 81.753 180.142C81.329 181.11 80.7494 182.001 80.0373 182.781C79.4998 183.495 78.8076 184.077 78.013 184.483C77.1817 184.788 76.2982 184.925 75.4137 184.886C72.6554 184.942 69.7008 184.947 67.424 183.395C65.6522 182.186 64.4273 180.114 62.375 179.504H62.8425" fill="#2F3941" fill-opacity="0.15" style="mix-blend-mode:multiply"/>
<path d="M80.6917 177.915C80.5199 177.954 80.344 177.971 80.1681 177.966L78.7281 178.013C77.5126 178.041 75.8343 178.06 73.983 178.07H71.3649C70.9732 178.075 70.5831 178.017 70.2102 177.896C69.8772 177.778 69.5862 177.565 69.3734 177.282C69.284 177.165 69.219 177.032 69.1821 176.889C69.1451 176.746 69.137 176.598 69.1583 176.452C69.1933 176.235 69.2946 176.033 69.4482 175.876C69.5054 175.808 69.5773 175.754 69.6583 175.719C69.7392 175.683 69.8273 175.666 69.9157 175.669C69.7558 175.725 69.6115 175.818 69.4949 175.941C69.345 176.112 69.2624 176.332 69.2624 176.56C69.2624 176.788 69.345 177.008 69.4949 177.179C69.693 177.424 69.9577 177.607 70.257 177.704C70.612 177.808 70.9812 177.856 71.3509 177.845H73.9643C75.8343 177.845 77.4939 177.845 78.7094 177.845L80.1494 177.873C80.3312 177.863 80.5135 177.877 80.6917 177.915Z" fill="#547B8E"/>
<path d="M79.2798 180.231C79.0642 180.293 78.8436 180.335 78.6206 180.358C78.1905 180.428 77.5687 180.517 76.7974 180.592C75.8887 180.683 74.9743 180.704 74.0625 180.653C72.9487 180.562 71.8446 180.377 70.7619 180.1C68.8074 179.621 66.8037 179.374 64.7918 179.364C64.0205 179.364 63.3893 179.392 62.9639 179.415C62.7384 179.435 62.5115 179.435 62.286 179.415C62.5047 179.356 62.7286 179.318 62.9545 179.303C63.5628 179.227 64.1744 179.184 64.7872 179.171C66.8165 179.129 68.8425 179.355 70.8133 179.842C71.8879 180.116 72.982 180.308 74.0858 180.414C74.9871 180.476 75.8914 180.476 76.7927 180.414C77.5641 180.362 78.1952 180.297 78.616 180.259C78.8357 180.227 79.0581 180.218 79.2798 180.231Z" fill="#547B8E"/>
<path d="M76.9937 182.706C76.8251 182.758 76.6509 182.789 76.4748 182.8C76.1429 182.847 75.6567 182.907 75.0723 182.959C73.5018 183.124 71.9162 183.072 70.3599 182.804C68.5132 182.453 67.0873 181.506 65.9793 181.07C65.3817 180.826 64.7638 180.636 64.1327 180.503C64.3075 180.481 64.4848 180.49 64.6563 180.531C65.1368 180.603 65.6074 180.73 66.0588 180.91C67.2042 181.318 68.6301 182.223 70.4253 182.565C71.9692 182.827 73.5388 182.901 75.1003 182.786L76.5029 182.706C76.666 182.688 76.8306 182.688 76.9937 182.706Z" fill="#547B8E"/>
<g opacity="0.2">
<path d="M70.7758 170.119C70.9554 168.4 71.4167 166.723 72.1409 165.154C72.8735 163.586 74.1144 162.314 75.6612 161.544C76.4382 161.172 77.297 161.004 78.1566 161.057C79.0163 161.109 79.8484 161.38 80.5746 161.845C81.0132 162.128 81.3556 162.538 81.5564 163.021C81.6545 163.262 81.6842 163.525 81.6421 163.782C81.6 164.038 81.4878 164.278 81.318 164.474C80.8037 165.028 79.9155 164.943 79.1768 164.906C77.4528 164.858 75.7514 165.308 74.2741 166.2C72.7968 167.092 71.6055 168.39 70.8412 169.941" fill="#2F3941"/>
</g>
<g opacity="0.2">
<path d="M30.1777 168.694C32.0478 165.332 31.3746 161.118 29.9487 157.555C28.5228 153.992 26.3956 150.711 25.3063 147.026C25.1014 154.5 26.1847 161.954 28.5088 169.059" fill="#2F3941"/>
</g>
<path d="M33.4691 117.28C33.4691 117.28 35.7365 122.639 43.9178 122.297C52.0991 121.954 52.3609 115.593 52.3609 115.593L57.8354 121.429L52.6367 132.17L45.6522 137.397L36.1385 133.477L28.2985 127.383L33.4691 117.28Z" fill="#2B8473"/>
<g opacity="0.5">
<path d="M14.3108 140.186C14.3949 140.289 13.329 141.292 11.9219 142.422C10.5147 143.552 9.31317 144.381 9.22902 144.274C9.14487 144.166 10.2108 143.172 11.6133 142.042C13.0158 140.912 14.2266 140.078 14.3108 140.186Z" fill="#F6F6F8"/>
</g>
<path d="M18.1581 134.406C18.1161 134.528 16.8257 134.162 15.4279 133.295C14.0301 132.427 13.1184 131.448 13.2073 131.354C13.2961 131.26 14.3246 132.052 15.6804 132.882C17.0361 133.712 18.1955 134.274 18.1581 134.406Z" fill="#F6F6F8"/>
<path d="M25.1708 135.034C25.283 135.118 24.2358 136.623 23.0717 138.536C21.9076 140.449 21.0053 142.042 20.8838 141.982C20.7622 141.921 21.4588 140.214 22.6603 138.278C23.8618 136.342 25.0726 134.95 25.1708 135.034Z" fill="#F6F6F8"/>
<path d="M19.1682 151.324C19.0747 151.409 17.9948 150.302 17.0504 148.666C16.106 147.03 15.6759 145.544 15.7975 145.502C15.919 145.46 16.5408 146.829 17.4711 148.418C18.4015 150.007 19.2757 151.231 19.1682 151.324Z" fill="#F6F6F8"/>
<path d="M12.8942 159.205C12.7633 159.205 12.4875 158.033 12.2865 156.542C12.0854 155.052 12.0293 153.828 12.1602 153.809C12.2911 153.791 12.567 154.986 12.768 156.477C12.969 157.968 13.0158 159.186 12.8942 159.205Z" fill="#F6F6F8"/>
<g opacity="0.5">
<path d="M18.8033 161.352C18.6864 161.286 19.2708 160.03 20.145 158.539C21.0193 157.048 21.7907 155.909 21.9075 155.975C22.0244 156.04 21.44 157.302 20.5658 158.788C19.6916 160.274 18.9202 161.404 18.8033 161.352Z" fill="#F6F6F8"/>
</g>
<path d="M11.9403 169.514C11.8422 169.603 10.7996 168.576 9.78513 167.095C8.77065 165.614 8.19562 164.282 8.30782 164.212C8.42002 164.142 9.19141 165.365 10.1778 166.818C11.1643 168.272 12.0432 169.425 11.9403 169.514Z" fill="#F6F6F8"/>
<path d="M21.2673 168.168C21.3608 168.262 20.2855 169.504 18.869 170.939C17.4525 172.373 16.2229 173.466 16.1248 173.372C16.0266 173.278 17.1018 172.036 18.523 170.597C19.9443 169.157 21.1691 168.074 21.2673 168.168Z" fill="#F6F6F8"/>
<g opacity="0.5">
<path d="M15.9656 185.012C15.8768 185.106 14.839 184.244 13.8946 182.884C12.9502 181.525 12.4921 180.259 12.6043 180.207C12.7165 180.156 13.3757 181.295 14.2966 182.603C15.2176 183.911 16.0638 184.914 15.9656 185.012Z" fill="#F6F6F8"/>
</g>
<path d="M27.9993 181.604C28.0648 181.721 26.9147 182.504 25.4327 183.353C23.9507 184.201 22.6885 184.797 22.6277 184.679C22.5669 184.562 23.7123 183.779 25.1943 182.931C26.6763 182.082 27.9339 181.487 27.9993 181.604Z" fill="#F6F6F8"/>
<path d="M32.6884 177.723C32.6043 177.821 31.515 176.987 30.5239 175.622C29.5328 174.258 29.07 172.964 29.1915 172.917C29.3131 172.871 29.9582 174.024 30.9166 175.336C31.875 176.649 32.7866 177.619 32.6884 177.723Z" fill="#F6F6F8"/>
<path d="M40.9586 150.724C41.0428 150.832 39.8039 151.901 38.1957 153.106C36.5875 154.311 35.2223 155.201 35.1382 155.094C35.054 154.986 36.2976 153.922 37.9058 152.717C39.514 151.512 40.8791 150.621 40.9586 150.724Z" fill="#F6F6F8"/>
<path d="M32.244 150.153C32.1085 150.153 32.1318 148.854 32.2908 147.283C32.4497 145.713 32.6882 144.471 32.8237 144.471C32.9593 144.471 32.9359 145.769 32.777 147.34C32.618 148.91 32.3749 150.176 32.244 150.153Z" fill="#F6F6F8"/>
<g opacity="0.5">
<path d="M40.2806 139.178C40.2058 139.286 38.7565 138.39 37.167 137.026C35.5775 135.662 34.4648 134.373 34.5583 134.284C34.6518 134.195 35.9094 135.31 37.4849 136.656C39.0604 138.001 40.3601 139.066 40.2806 139.178Z" fill="#F6F6F8"/>
</g>
<path d="M34.245 125.48C34.3479 125.569 33.31 126.947 31.9636 128.56C30.6172 130.172 29.411 131.405 29.3082 131.321C29.2053 131.237 30.2432 129.854 31.5896 128.241C32.936 126.628 34.1422 125.395 34.245 125.48Z" fill="#F6F6F8"/>
<g opacity="0.5">
<path d="M27.3306 124.012C27.2558 124.134 26.2133 123.595 24.8528 123.141C23.4924 122.686 22.3657 122.465 22.3657 122.325C22.3657 122.184 23.5999 122.194 25.0211 122.676C26.4424 123.159 27.4007 123.9 27.3306 124.012Z" fill="#F6F6F8"/>
</g>
<path d="M44.904 130.327C44.7778 130.29 44.9975 129.151 45.3996 127.782C45.8016 126.413 46.2317 125.335 46.3346 125.372C46.4374 125.41 46.2457 126.549 45.8671 127.918C45.4884 129.287 45.0349 130.369 44.904 130.327Z" fill="#F6F6F8"/>
<path d="M49.1071 141.119C48.9715 141.119 48.9248 139.993 49.0042 138.625C49.0837 137.256 49.2567 136.154 49.3876 136.159C49.5185 136.163 49.5699 137.284 49.4905 138.653C49.411 140.022 49.238 141.128 49.1071 141.119Z" fill="#F6F6F8"/>
<path d="M56.0262 149.215C55.942 149.323 54.9182 148.638 53.7401 147.686C52.5619 146.735 51.6737 145.882 51.7578 145.778C51.842 145.675 52.8658 146.355 54.0439 147.307C55.222 148.258 56.0963 149.112 56.0262 149.215Z" fill="#F6F6F8"/>
<path d="M63.3707 137.912C63.4595 138.011 62.5479 138.967 61.3324 140.041C60.1169 141.114 59.0603 141.916 58.9948 141.803C58.9294 141.691 59.8177 140.749 61.0332 139.675C62.2487 138.601 63.2819 137.809 63.3707 137.912Z" fill="#F6F6F8"/>
<g opacity="0.5">
<path d="M59.9905 132.573C59.9157 132.685 58.761 132.048 57.5175 131.011C56.2739 129.975 55.4324 128.953 55.5259 128.864C55.6194 128.775 56.6011 129.619 57.826 130.632C59.0509 131.644 60.0654 132.46 59.9905 132.573Z" fill="#F6F6F8"/>
</g>
<path d="M68.4898 123.056C68.5973 123.131 68.0223 124.102 67.0312 125.039C66.04 125.977 65.0349 126.492 64.9648 126.38C64.8947 126.267 65.7362 125.592 66.6946 124.688C67.6529 123.783 68.3776 122.962 68.4898 123.056Z" fill="#F6F6F8"/>
<g opacity="0.5">
<path d="M62.6459 122.165C62.6459 122.296 61.1359 122.189 59.3734 121.734C57.6109 121.279 56.2271 120.67 56.2739 120.543C56.3206 120.417 57.7371 120.82 59.495 121.26C61.2528 121.701 62.6646 122.025 62.6459 122.165Z" fill="#F6F6F8"/>
</g>
<g opacity="0.5">
<path d="M73.5014 137.317C73.3752 137.289 73.665 135.442 74.3335 133.276C75.0021 131.11 75.7735 129.413 75.895 129.46C76.0166 129.507 75.4556 131.255 74.801 133.417C74.1465 135.578 73.637 137.345 73.5014 137.317Z" fill="#F6F6F8"/>
</g>
<path d="M75.9089 147.658C75.8107 147.747 74.656 146.683 73.3282 145.272C72.0005 143.861 70.9907 142.647 71.1076 142.553C71.2245 142.459 72.3558 143.528 73.6836 144.939C75.0113 146.35 76.007 147.565 75.9089 147.658Z" fill="#F6F6F8"/>
<g opacity="0.5">
<path d="M79.6351 153.514C79.4995 153.514 79.4154 151.976 79.4481 150.082C79.4808 148.188 79.6164 146.66 79.752 146.66C79.8876 146.66 79.967 148.197 79.9343 150.091C79.9016 151.985 79.766 153.518 79.6351 153.514Z" fill="#F6F6F8"/>
</g>
<path d="M75.8529 163.162C75.7454 163.237 74.7449 162.009 73.8193 160.293C72.8936 158.577 72.4168 157.063 72.5336 157.011C72.6505 156.96 73.3331 158.371 74.2494 160.054C75.1657 161.737 75.9651 163.082 75.8529 163.162Z" fill="#F6F6F8"/>
<path d="M85.507 164.924C85.6052 165.018 84.9554 165.806 84.0624 166.682C83.1695 167.559 82.3654 168.187 82.2719 168.089C82.1784 167.99 82.8282 167.203 83.7212 166.326C84.6141 165.449 85.4135 164.826 85.507 164.924Z" fill="#F6F6F8"/>
<g opacity="0.5">
<path d="M62.0008 153.931C61.8792 153.893 62.3093 152.356 63.4033 150.752C64.4972 149.149 65.7829 148.197 65.8624 148.301C65.9418 148.404 64.8619 149.482 63.8053 151.034C62.7488 152.585 62.1317 153.982 62.0008 153.931Z" fill="#F6F6F8"/>
</g>
<path d="M34.7407 166.79C34.6098 166.757 34.8389 165.384 35.2503 163.677C35.6617 161.971 36.1105 160.644 36.2414 160.677C36.3723 160.71 36.1385 162.107 35.7271 163.794C35.3157 165.482 34.8669 166.823 34.7407 166.79Z" fill="#F6F6F8"/>
<path d="M46.2086 167.939C46.1338 168.051 44.9697 167.418 43.6093 166.532C42.2488 165.646 41.2016 164.831 41.2718 164.718C41.3419 164.606 42.506 165.234 43.8711 166.125C45.2362 167.015 46.2974 167.826 46.2086 167.939Z" fill="#F6F6F8"/>
<path d="M45.6476 159.632C45.5354 159.707 44.9884 159.083 44.4227 158.226C43.8571 157.368 43.4877 156.636 43.6046 156.561C43.7215 156.486 44.2638 157.11 44.8295 157.968C45.3952 158.826 45.7411 159.557 45.6476 159.632Z" fill="#F6F6F8"/>
<path d="M50.7106 161.526C50.7854 161.633 50.2946 162.112 49.612 162.594C48.9294 163.077 48.3123 163.377 48.2329 163.27C48.1534 163.162 48.6489 162.679 49.3315 162.196C50.014 161.713 50.6312 161.404 50.7106 161.526Z" fill="#F6F6F8"/>
<g opacity="0.5">
<path d="M37.4896 195.228C37.354 195.185 37.5738 194.121 37.7654 192.809C37.9571 191.496 38.0646 190.413 38.2049 190.413C38.3452 190.413 38.448 191.524 38.247 192.879C38.0459 194.234 37.6112 195.27 37.4896 195.228Z" fill="#F6F6F8"/>
</g>
<g opacity="0.5">
<path d="M49.1397 191.407C49.0228 191.472 48.1345 190.127 47.1574 188.407C46.1804 186.686 45.4791 185.228 45.596 185.162C45.7129 185.097 46.6011 186.438 47.5782 188.163C48.5553 189.888 49.2565 191.355 49.1397 191.407Z" fill="#F6F6F8"/>
</g>
<g opacity="0.5">
<path d="M61.4959 186.199C61.6034 186.278 60.4346 187.994 58.8825 190.029C57.3304 192.063 55.984 193.643 55.8765 193.563C55.7689 193.484 56.9424 191.768 58.4945 189.733C60.0466 187.699 61.393 186.114 61.4959 186.199Z" fill="#F6F6F8"/>
</g>
<g opacity="0.5">
<path d="M64.9788 196.151C64.9788 196.282 63.45 196.62 61.5239 196.896C59.5978 197.173 58.0176 197.295 57.9989 197.163C57.9802 197.032 59.523 196.695 61.4538 196.413C63.3846 196.132 64.9601 196.015 64.9788 196.151Z" fill="#F6F6F8"/>
</g>
<path d="M65.5165 191.135C65.3809 191.102 65.5165 190.104 65.5492 188.875C65.582 187.647 65.5492 186.639 65.7129 186.62C65.8765 186.602 66.0962 187.614 66.0354 188.894C65.9747 190.174 65.6427 191.168 65.5165 191.135Z" fill="#F6F6F8"/>
<path d="M48.8312 196.976C48.7844 197.093 47.5175 196.676 46.1991 195.72C44.8808 194.763 44.0766 193.704 44.1748 193.624C44.273 193.545 45.208 194.412 46.4843 195.321C47.7606 196.231 48.8873 196.845 48.8312 196.976Z" fill="#F6F6F8"/>
<path d="M29.0042 196.236C28.8733 196.203 29.0042 195.129 29.3501 193.845C29.6961 192.56 30.042 191.538 30.173 191.571C30.3039 191.604 30.1449 192.673 29.8223 193.962C29.4997 195.251 29.1351 196.268 29.0042 196.236Z" fill="#F6F6F8"/>
<path d="M26.8493 77.6574C26.8773 77.6199 27.4103 78.0793 28.3874 78.595C28.9615 78.9054 29.5604 79.1672 30.1779 79.3779C30.9391 79.6243 31.7217 79.7986 32.5154 79.8983C33.3092 79.983 34.1092 79.9908 34.9044 79.9217C35.5559 79.862 36.2006 79.7427 36.8305 79.5654C37.9058 79.2654 38.5229 78.9419 38.5463 78.9841C38.4148 79.0836 38.272 79.1671 38.1208 79.2326C37.9517 79.3236 37.7768 79.4035 37.5972 79.4717C37.362 79.5718 37.1217 79.6594 36.8773 79.7342C36.2425 79.9356 35.5895 80.0738 34.9278 80.1467C34.1165 80.2311 33.2987 80.2311 32.4874 80.1467C31.6786 80.0462 30.8826 79.8608 30.1125 79.5936C29.485 79.3717 28.8807 79.0891 28.3079 78.7497C28.0601 78.6138 27.8404 78.4591 27.6674 78.3325C27.5038 78.2243 27.3477 78.1053 27.1999 77.9762C26.9662 77.7887 26.8353 77.6715 26.8493 77.6574Z" fill="#336179"/>
<path d="M38.9249 83.0533C38.7613 83.1237 38.5904 83.1756 38.4153 83.208C38.0834 83.2924 37.6018 83.4049 37.0128 83.508C35.4328 83.8178 33.809 83.8273 32.2255 83.5362C30.629 83.2266 29.1765 82.4037 28.0881 81.1922C27.7693 80.8189 27.5049 80.4022 27.3027 79.9545C27.2204 79.7957 27.1636 79.6248 27.1344 79.4482C27.4304 80.0331 27.7945 80.5807 28.219 81.0797C29.3086 82.2278 30.7263 83.0091 32.2769 83.3158C33.8341 83.5963 35.4275 83.6106 36.9894 83.358C37.5925 83.2736 38.0787 83.1893 38.3919 83.133C38.5658 83.0856 38.7447 83.0589 38.9249 83.0533Z" fill="#336179"/>
<path d="M22.2769 111.744C22.2546 111.724 22.2342 111.702 22.2161 111.678C22.1834 111.632 22.1226 111.566 22.0572 111.468C21.8759 111.181 21.7506 110.863 21.6878 110.53C21.5941 109.91 21.6371 109.276 21.814 108.674C21.9909 108.073 22.2974 107.517 22.7117 107.047C23.2815 106.403 23.9413 105.846 24.6705 105.392C25.4372 104.886 26.2974 104.421 27.1436 103.85C28.0401 103.281 28.8064 102.528 29.3923 101.642C29.6852 101.171 29.8763 100.644 29.9533 100.094C30.0261 99.5249 29.996 98.9469 29.8645 98.388C29.5576 97.2812 29.162 96.201 28.6817 95.158C28.2269 94.1624 27.959 93.0913 27.8916 91.9983C27.836 90.1363 28.4002 88.3088 29.4952 86.804C30.2065 85.7833 31.1505 84.9475 32.2488 84.3663L32.7724 84.1131L33.1744 83.9725C33.2834 83.9296 33.3961 83.8966 33.511 83.874C33.4093 83.9313 33.3029 83.9799 33.1931 84.0193L32.8051 84.1834L32.2955 84.4507C31.2336 85.0534 30.3237 85.8921 29.6354 86.9025C28.5883 88.3859 28.0546 90.1725 28.116 91.9889C28.1874 93.0537 28.4537 94.0962 28.9014 95.0643C29.3911 96.1232 29.793 97.2207 30.1029 98.3458C30.2373 98.9329 30.2673 99.5391 30.1917 100.137C30.1117 100.72 29.9093 101.279 29.598 101.777C28.9884 102.692 28.1916 103.465 27.2605 104.046C26.4003 104.618 25.5354 105.078 24.7734 105.575C24.0548 106.01 23.4029 106.546 22.8379 107.169C22.4325 107.619 22.1277 108.151 21.9439 108.729C21.7601 109.307 21.7015 109.918 21.772 110.521C21.857 110.958 22.0287 111.374 22.2769 111.744Z" fill="#336179"/>
<path d="M34.7313 111.912C34.6352 111.872 34.5442 111.82 34.4601 111.758C34.2167 111.582 34.0115 111.359 33.857 111.101C33.6162 110.689 33.4723 110.227 33.4363 109.751C33.3866 109.119 33.4564 108.483 33.642 107.876C34.0207 106.502 35.1661 105.251 36.0263 103.657C36.4947 102.845 36.7385 101.923 36.7322 100.985C36.6845 99.9785 36.4281 98.9934 35.9795 98.0922C35.0913 96.217 33.7261 94.7074 32.7818 93.1417C32.3178 92.4096 31.9472 91.6221 31.6785 90.7977C31.4521 90.0674 31.3742 89.299 31.4494 88.5381C31.5218 87.4243 32.009 86.3784 32.8145 85.6081C33.0399 85.4163 33.2919 85.2584 33.5625 85.1393C33.6551 85.0943 33.7523 85.0598 33.8524 85.0361C33.4995 85.2113 33.1711 85.4319 32.8753 85.6924C32.1247 86.4668 31.6795 87.4878 31.6224 88.5662C31.5601 89.304 31.646 90.0468 31.8748 90.7508C32.1414 91.562 32.5107 92.3355 32.9735 93.0526C33.441 93.8167 34.0207 94.5809 34.5957 95.3966C35.2094 96.2222 35.7461 97.1025 36.1992 98.0265C36.6667 98.9584 36.9298 99.9798 36.9706 101.022C36.9722 101.998 36.7158 102.958 36.2273 103.802C35.3297 105.401 34.1843 106.615 33.8056 107.946C33.6199 108.529 33.5407 109.14 33.5719 109.751C33.5975 110.21 33.7219 110.658 33.9365 111.064C34.1389 111.4 34.4097 111.689 34.7313 111.912Z" fill="#336179"/>
<path d="M53.1788 76.72C53.1788 76.72 53.1134 76.72 53.0012 76.6449C52.8391 76.5569 52.6829 76.4582 52.5337 76.3496C51.9987 75.9341 51.544 75.4241 51.1919 74.8448C50.6805 73.9886 50.2471 73.088 49.8969 72.1539C49.6819 71.6382 49.4294 71.0991 49.1676 70.5693C48.8747 70.022 48.5303 69.504 48.1391 69.0223C46.7434 67.3232 44.8544 66.1024 42.7348 65.5297C41.8529 65.3167 40.9528 65.188 40.0466 65.1453C40.289 65.1046 40.5351 65.0905 40.7806 65.1031C41.4531 65.1203 42.122 65.2067 42.7769 65.361C44.956 65.8976 46.903 67.1279 48.3261 68.8676C48.7298 69.362 49.0852 69.8942 49.3874 70.4568C49.6725 71.0006 49.8969 71.5491 50.1073 72.0695C50.4468 72.9964 50.8595 73.8947 51.3415 74.7557C51.6763 75.3267 52.101 75.8396 52.5991 76.2746C52.9591 76.5793 53.1929 76.7012 53.1788 76.72Z" fill="#336179"/>
<path d="M59.7006 76.6825C59.6156 76.6857 59.5305 76.6762 59.4482 76.6544C59.2089 76.6171 58.974 76.5559 58.7469 76.4715C57.9062 76.1595 57.1446 75.6648 56.5169 75.023C55.5947 74.0732 54.8166 72.9928 54.2075 71.8164C53.4735 70.5272 52.7629 69.0458 51.6642 67.7566C50.6173 66.5517 49.2351 65.6881 47.6951 65.2766C46.4364 64.9414 45.1405 64.7665 43.8382 64.7563C42.7209 64.7328 41.8186 64.7563 41.1921 64.8031L40.4722 64.8313C40.3884 64.8427 40.3035 64.8427 40.2197 64.8313C40.2999 64.8055 40.3833 64.7913 40.4675 64.7891L41.1875 64.7141C41.8092 64.6625 42.7162 64.5875 43.8382 64.5922C45.159 64.5743 46.4764 64.732 47.7559 65.061C49.3447 65.4727 50.7713 66.3588 51.8466 67.6019C52.9779 68.9286 53.6839 70.4147 54.3991 71.7132C54.9919 72.8764 55.7458 73.9497 56.6385 74.9011C57.2402 75.5417 57.9698 76.048 58.7797 76.3872C59.3594 76.6122 59.7053 76.6544 59.7006 76.6825Z" fill="#336179"/>
<path d="M70.7387 107.107C70.7153 107.107 70.8602 106.774 71.0145 106.17C71.2387 105.307 71.3332 104.416 71.295 103.526C71.2505 102.205 70.9119 100.91 70.3039 99.7377C69.9415 99.0498 69.4921 98.4117 68.9668 97.8391C68.4245 97.2343 67.8027 96.6624 67.181 96.0623C66.5532 95.4853 65.9731 94.8582 65.4465 94.1871C64.9627 93.5581 64.5445 92.8811 64.1983 92.1666C63.6159 90.9539 63.2428 89.6509 63.095 88.3131C62.992 87.4138 63.0014 86.5051 63.123 85.6081C63.1497 85.365 63.1919 85.1239 63.2492 84.8862C63.2615 84.8006 63.2851 84.717 63.3194 84.6377C63.3427 84.6377 63.2679 84.9893 63.2165 85.6222C63.1316 86.5102 63.1473 87.4051 63.2633 88.2896C63.4382 89.6019 63.8217 90.8776 64.3993 92.0682C64.7446 92.7653 65.1581 93.4264 65.6335 94.0418C66.1565 94.6956 66.7285 95.3084 67.3446 95.8748C67.971 96.4749 68.5928 97.0515 69.1445 97.6703C69.6802 98.2593 70.1361 98.9166 70.5002 99.6252C71.1138 100.83 71.4448 102.159 71.468 103.512C71.4904 104.417 71.3689 105.321 71.108 106.188C71.0399 106.424 70.954 106.655 70.8509 106.878C70.8253 106.959 70.7874 107.037 70.7387 107.107Z" fill="#336179"/>
<path d="M19.5235 76.312C19.5224 76.1537 19.5428 75.996 19.5843 75.8432C19.6788 75.4357 19.8282 75.043 20.0284 74.6759C20.3625 74.053 20.8243 73.508 21.3833 73.0767C21.9424 72.6454 22.586 72.3375 23.2721 72.1732C23.9582 72.009 24.6711 71.9921 25.3642 72.1237C26.0572 72.2552 26.7147 72.5323 27.2934 72.9366C27.6436 73.1699 27.9585 73.4525 28.2284 73.7758C28.3364 73.8885 28.4249 74.0184 28.4902 74.1602C28.0949 73.759 27.6611 73.3979 27.1952 73.082C26.6297 72.713 25.9953 72.4634 25.3305 72.3483C24.6657 72.2332 23.9844 72.2551 23.3283 72.4126C22.6722 72.57 22.055 72.8598 21.5141 73.2642C20.9733 73.6687 20.5203 74.1793 20.1827 74.765C19.9136 75.2581 19.6929 75.7762 19.5235 76.312Z" fill="#336179"/>
<path d="M24.0534 78.2858C24.0501 77.9269 24.0941 77.569 24.1843 77.2216C24.3281 76.3519 24.7119 75.5399 25.2923 74.8777C25.6102 74.5584 26.0085 74.3314 26.4447 74.2208C26.881 74.1102 27.339 74.1201 27.7701 74.2495C28.0291 74.3435 28.2583 74.5054 28.4339 74.7183C28.5508 74.8683 28.5835 74.9714 28.5742 74.9761C28.3359 74.7284 28.0428 74.5405 27.7186 74.4276C27.32 74.3324 26.9037 74.341 26.5093 74.4526C26.1149 74.5642 25.7555 74.775 25.4653 75.0652C24.9178 75.701 24.5355 76.4628 24.3526 77.2826C24.2836 77.6254 24.1834 77.9613 24.0534 78.2858Z" fill="#336179"/>
<path d="M29.9956 71.4175C29.5268 72.2393 29.1159 73.093 28.7661 73.9724C28.4956 74.8783 28.2833 75.8006 28.1302 76.7337C28.0269 74.7832 28.6994 72.8713 30.0003 71.4175H29.9956Z" fill="#2B8473"/>
<path d="M220 83.1996C220 83.5161 219.906 83.8254 219.73 84.0885C219.555 84.3516 219.305 84.5567 219.012 84.6778C218.72 84.7989 218.398 84.8306 218.088 84.7689C217.778 84.7071 217.493 84.5547 217.269 84.331C217.045 84.1072 216.893 83.8221 216.831 83.5118C216.769 83.2014 216.801 82.8797 216.922 82.5873C217.043 82.295 217.248 82.0451 217.511 81.8693C217.774 81.6934 218.084 81.5996 218.4 81.5996C218.61 81.5996 218.818 81.641 219.012 81.7214C219.207 81.8018 219.383 81.9197 219.531 82.0682C219.68 82.2168 219.798 82.3932 219.878 82.5873C219.959 82.7814 220 82.9895 220 83.1996Z" fill="#336179"/>
<path d="M223.2 84.7996C222.316 84.7996 221.6 84.0833 221.6 83.1996C221.6 82.3159 222.316 81.5996 223.2 81.5996C224.084 81.5996 224.8 82.3159 224.8 83.1996C224.8 84.0833 224.084 84.7996 223.2 84.7996Z" fill="#336179"/>
<path d="M229.386 82.4006C229.544 82.6747 229.617 82.9895 229.597 83.3052C229.576 83.6209 229.462 83.9233 229.269 84.1743C229.076 84.4252 228.813 84.6133 228.514 84.7149C228.214 84.8165 227.891 84.8269 227.586 84.745C227.28 84.663 227.006 84.4923 226.797 84.2544C226.588 84.0165 226.455 83.7221 226.414 83.4084C226.372 83.0947 226.425 82.7758 226.565 82.4921C226.705 82.2083 226.926 81.9724 227.2 81.8141C227.382 81.709 227.583 81.6407 227.791 81.6133C228 81.5859 228.212 81.5998 228.415 81.6542C228.618 81.7087 228.808 81.8027 228.975 81.9307C229.141 82.0588 229.281 82.2185 229.386 82.4006Z" fill="#336179"/>
<path d="M223.215 68.8195C223.297 68.8099 223.38 68.8099 223.463 68.8195L224.189 68.8392C224.347 68.8392 224.527 68.8392 224.724 68.8628L225.364 68.9534L226.111 69.0598L226.948 69.2685C228.378 69.6329 229.74 70.2289 230.979 71.033C232.821 72.2077 234.37 73.7891 235.508 75.6562C236.646 77.5234 237.342 79.6267 237.545 81.8053C237.602 82.4601 237.615 83.118 237.584 83.7746C237.56 84.1094 237.584 84.4442 237.521 84.779L237.368 85.7912C237.112 87.1831 236.654 88.5299 236.008 89.7889C235.316 91.104 234.439 92.3125 233.403 93.3771C232.299 94.4667 231.034 95.3781 229.651 96.079C228.223 96.8106 226.677 97.2839 225.085 97.4772C224.681 97.5384 224.272 97.5739 223.863 97.5835C223.454 97.6052 223.043 97.6052 222.633 97.5835C221.802 97.5503 220.976 97.4462 220.162 97.2724C218.416 96.8979 216.755 96.2021 215.262 95.2203H215.412L210.406 97.2369L210.107 97.3551L210.194 97.0479C210.697 95.2046 211.192 93.4125 211.663 91.6795L211.691 91.8134C210.331 90.0088 209.415 87.9075 209.019 85.6809C208.827 84.6424 208.761 83.5844 208.822 82.53C208.833 82.0242 208.881 81.5199 208.968 81.0215C209.003 80.7733 209.043 80.5291 209.078 80.2849C209.113 80.0407 209.2 79.8123 209.255 79.576C210.093 76.2765 212.073 73.3827 214.842 71.4111C215.864 70.6749 216.983 70.0838 218.166 69.6545L218.913 69.3867L219.624 69.2055L220.276 69.044C220.484 69.0007 220.669 68.981 220.873 68.9534C221.266 68.9022 221.584 68.8392 221.875 68.8234L222.614 68.7998H223.062C223.164 68.7998 223.215 68.7998 223.215 68.7998H223.062L222.614 68.8353L221.883 68.8825C221.596 68.9062 221.266 68.981 220.889 69.0361C218.171 69.505 215.647 70.7552 213.624 72.6346C211.602 74.5141 210.167 76.9419 209.494 79.6232C209.439 79.8556 209.369 80.0841 209.325 80.3204C209.282 80.5567 209.255 80.8009 209.215 81.0412C209.136 81.5323 209.093 82.0286 209.086 82.526C209.028 83.5558 209.096 84.5887 209.286 85.6021C209.684 87.7927 210.592 89.8585 211.934 91.6322L211.978 91.6913L211.958 91.7661C211.486 93.4991 211.001 95.2886 210.5 97.1345L210.288 96.9455L215.29 94.9249L215.368 94.8934L215.443 94.9407C216.906 95.9081 218.535 96.5946 220.248 96.9652C221.043 97.1357 221.85 97.2385 222.661 97.2724C223.063 97.2882 223.466 97.2803 223.867 97.2488C224.262 97.241 224.656 97.2082 225.046 97.1503C226.605 96.9585 228.118 96.4946 229.517 95.7796C232.197 94.4508 234.381 92.296 235.749 89.6314C236.39 88.4026 236.848 87.0863 237.109 85.7242C237.16 85.3894 237.211 85.0625 237.258 84.7317C237.305 84.4008 237.301 84.0739 237.329 83.747C237.36 83.105 237.349 82.4617 237.297 81.821C237.106 79.6781 236.43 77.607 235.322 75.7645C234.214 73.9221 232.702 72.3566 230.9 71.1866C229.678 70.3756 228.332 69.7678 226.916 69.3867L226.091 69.1661L225.349 69.044L224.716 68.9377C224.519 68.9377 224.343 68.914 224.186 68.8983L223.463 68.8471C223.379 68.8448 223.297 68.8355 223.215 68.8195Z" fill="#336179"/>
<path d="M107 129.778C107 129.938 107.047 130.094 107.136 130.226C107.224 130.359 107.35 130.462 107.497 130.523C107.644 130.584 107.805 130.6 107.961 130.569C108.117 130.538 108.26 130.461 108.373 130.349C108.485 130.236 108.562 130.092 108.593 129.936C108.624 129.779 108.608 129.617 108.547 129.47C108.486 129.323 108.383 129.197 108.251 129.108C108.119 129.019 107.963 128.972 107.804 128.972C107.699 128.972 107.594 128.993 107.497 129.034C107.399 129.074 107.31 129.133 107.236 129.208C107.161 129.283 107.102 129.372 107.061 129.47C107.021 129.568 107 129.673 107 129.778Z" fill="#336179"/>
<path d="M104.583 130.585C105.027 130.585 105.387 130.224 105.387 129.778C105.387 129.333 105.027 128.972 104.583 128.972C104.139 128.972 103.779 129.333 103.779 129.778C103.779 130.224 104.139 130.585 104.583 130.585Z" fill="#336179"/>
<path d="M100.568 129.374C100.489 129.512 100.452 129.671 100.462 129.83C100.473 129.989 100.53 130.141 100.627 130.268C100.724 130.394 100.856 130.489 101.006 130.54C101.157 130.591 101.319 130.597 101.473 130.555C101.626 130.514 101.764 130.428 101.869 130.308C101.974 130.188 102.041 130.04 102.062 129.882C102.083 129.724 102.056 129.563 101.986 129.42C101.915 129.277 101.804 129.158 101.667 129.078C101.575 129.025 101.474 128.991 101.37 128.977C101.265 128.963 101.158 128.97 101.056 128.998C100.954 129.025 100.859 129.073 100.775 129.137C100.691 129.202 100.621 129.282 100.568 129.374Z" fill="#336179"/>
<path d="M104.534 120.355C104.48 120.348 104.425 120.348 104.371 120.355L103.893 120.368C103.789 120.368 103.67 120.368 103.541 120.383L103.12 120.443L102.629 120.513L102.078 120.65C101.137 120.89 100.241 121.282 99.4253 121.812C98.2136 122.585 97.1944 123.626 96.4456 124.855C95.6968 126.084 95.2383 127.468 95.1052 128.902C95.0678 129.333 95.0591 129.766 95.0793 130.198C95.0949 130.419 95.0793 130.639 95.1207 130.86L95.2215 131.526C95.3902 132.442 95.6915 133.328 96.1161 134.157C96.5715 135.023 97.1488 135.818 97.8301 136.519C98.5565 137.236 99.3894 137.836 100.299 138.297C101.239 138.779 102.256 139.09 103.303 139.218C103.57 139.258 103.838 139.281 104.107 139.288C104.377 139.302 104.647 139.302 104.917 139.288C105.463 139.266 106.007 139.197 106.543 139.083C107.691 138.836 108.784 138.378 109.767 137.732H109.668L112.962 139.06L113.159 139.137L113.102 138.935C112.771 137.722 112.445 136.542 112.135 135.402L112.117 135.49C113.012 134.302 113.614 132.919 113.875 131.453C114.001 130.77 114.045 130.073 114.004 129.379C113.997 129.046 113.965 128.714 113.908 128.386C113.885 128.223 113.859 128.062 113.836 127.901C113.813 127.741 113.756 127.59 113.72 127.435C113.168 125.263 111.865 123.358 110.043 122.061C109.371 121.576 108.635 121.187 107.856 120.904L107.365 120.728L106.897 120.609L106.468 120.503C106.331 120.474 106.209 120.461 106.075 120.443C105.816 120.409 105.607 120.368 105.415 120.357L104.929 120.342H104.635C104.568 120.342 104.534 120.342 104.534 120.342H104.635L104.929 120.365L105.41 120.396C105.599 120.412 105.816 120.461 106.064 120.497C107.853 120.806 109.513 121.629 110.844 122.866C112.175 124.103 113.119 125.701 113.562 127.466C113.598 127.619 113.645 127.769 113.673 127.925C113.701 128.08 113.72 128.241 113.745 128.399C113.798 128.723 113.826 129.049 113.831 129.377C113.869 130.054 113.824 130.734 113.699 131.401C113.437 132.843 112.84 134.203 111.956 135.37L111.928 135.409L111.941 135.459C112.251 136.599 112.571 137.777 112.9 138.992L113.04 138.868L109.749 137.538L109.697 137.517L109.648 137.548C108.685 138.185 107.613 138.637 106.486 138.881C105.963 138.993 105.432 139.061 104.898 139.083C104.634 139.093 104.369 139.088 104.105 139.067C103.845 139.062 103.586 139.041 103.329 139.003C102.303 138.876 101.308 138.571 100.387 138.1C98.6239 137.226 97.1868 135.807 96.2867 134.053C95.8647 133.245 95.5633 132.378 95.3922 131.482C95.3586 131.261 95.325 131.046 95.2939 130.828C95.2629 130.611 95.2655 130.395 95.2474 130.18C95.227 129.758 95.2339 129.334 95.2681 128.913C95.3941 127.502 95.8385 126.139 96.5677 124.926C97.297 123.713 98.2918 122.683 99.477 121.913C100.282 121.379 101.167 120.979 102.099 120.728L102.641 120.583L103.13 120.503L103.546 120.433C103.676 120.433 103.792 120.417 103.895 120.407L104.371 120.373C104.426 120.371 104.48 120.365 104.534 120.355Z" fill="#336179"/>
<g clip-path="url(#clip1_827_34424)" filter="url(#filter0_d_827_34424)">
<path fill-rule="evenodd" clip-rule="evenodd" d="M200.801 92.7998C201.245 92.7998 201.648 93.0384 201.939 93.4289C202.223 93.8098 202.4 94.3356 202.4 94.9171V156.283C202.4 156.433 202.4 156.611 202.4 156.801C202.4 157.684 201.684 158.4 200.801 158.4H117.599C116.716 158.4 116 157.684 116 156.801C116 156.61 116 156.433 116 156.283V94.9171C116 94.3356 116.177 93.8098 116.461 93.4289C116.752 93.0382 117.155 92.7998 117.599 92.7998H200.801Z" fill="#E6EBEE"/>
<path fill-rule="evenodd" clip-rule="evenodd" d="M200.801 92.7998C201.245 92.7998 201.648 93.0384 201.939 93.4289C202.223 93.8098 202.4 94.3356 202.4 94.9171V156.283C202.4 156.433 202.4 156.611 202.4 156.801C202.4 157.684 201.684 158.4 200.801 158.4H117.599C116.716 158.4 116 157.684 116 156.801C116 156.61 116 156.433 116 156.283V94.9171C116 94.3356 116.177 93.8098 116.461 93.4289C116.752 93.0382 117.155 92.7998 117.599 92.7998H200.801Z" fill="url(#paint6_linear_827_34424)"/>
<path opacity="0.3" fill-rule="evenodd" clip-rule="evenodd" d="M116 92.7998H202.4V97.711H116V92.7998Z" fill="#C6C3B3"/>
<path d="M189.516 96.5947C190.214 96.5947 190.779 96.095 190.779 95.4785C190.779 94.862 190.214 94.3623 189.516 94.3623C188.818 94.3623 188.253 94.862 188.253 95.4785C188.253 96.095 188.818 96.5947 189.516 96.5947Z" fill="#70C38A"/>
<path d="M198.611 96.5947C199.309 96.5947 199.874 96.095 199.874 95.4785C199.874 94.862 199.309 94.3623 198.611 94.3623C197.913 94.3623 197.348 94.862 197.348 95.4785C197.348 96.095 197.913 96.5947 198.611 96.5947Z" fill="url(#paint7_linear_827_34424)"/>
<path d="M194.063 96.5947C194.761 96.5947 195.327 96.095 195.327 95.4785C195.327 94.862 194.761 94.3623 194.063 94.3623C193.366 94.3623 192.8 94.862 192.8 95.4785C192.8 96.095 193.366 96.5947 194.063 96.5947Z" fill="#C57F12"/>
<path d="M184.85 94.084H118.155C117.876 94.084 117.65 94.2839 117.65 94.5305V96.3164C117.65 96.5629 117.876 96.7628 118.155 96.7628H184.85C185.129 96.7628 185.355 96.5629 185.355 96.3164V94.5305C185.355 94.2839 185.129 94.084 184.85 94.084Z" fill="white"/>
<rect x="138.4" y="112" width="54.8257" height="4.18628" rx="2.09314" fill="#E6EBEE"/>
<rect x="157.6" y="124.8" width="35.2" height="4.8" rx="2.4" fill="#E6EBEE"/>
<rect x="138.4" y="118.4" width="54.4" height="3.2" rx="1.6" fill="#E6EBEE"/>
<rect x="157.6" y="131.2" width="35.2" height="3.2" rx="1.6" fill="#E6EBEE"/>
<path d="M122.4 108.766C122.416 108.847 122.489 108.875 122.669 108.946C122.992 109.073 123.314 109.201 123.632 109.339C123.682 109.361 123.732 109.439 123.738 109.495C123.774 109.831 123.791 110.17 123.831 110.506C123.843 110.61 123.833 110.665 123.739 110.724C123.364 110.959 122.996 111.204 122.629 111.443C122.721 111.834 123.183 112.716 123.43 112.962C123.819 112.799 124.219 112.638 124.612 112.462C124.734 112.407 124.797 112.418 124.899 112.515C125.135 112.74 125.393 112.945 125.654 113.143C125.759 113.223 125.815 113.286 125.781 113.431C125.693 113.805 125.627 114.185 125.545 114.562C125.522 114.663 125.542 114.726 125.642 114.757C126.113 114.902 126.585 115.047 127.057 115.192C127.172 115.228 127.19 115.133 127.219 115.065C127.366 114.721 127.514 114.377 127.649 114.028C127.699 113.898 127.767 113.854 127.91 113.851C128.288 113.839 128.665 113.802 129.072 113.774L129.85 114.952C130.398 114.771 130.891 114.501 131.358 114.142L130.825 112.866C131.105 112.513 131.371 112.192 131.618 111.856C131.689 111.759 131.745 111.743 131.853 111.766C132.225 111.848 132.599 111.918 132.971 111.997C133.052 112.014 133.111 112.017 133.152 111.929C133.361 111.486 133.529 111.031 133.597 110.543C133.612 110.434 133.573 110.391 133.483 110.354C133.12 110.205 132.761 110.049 132.397 109.901C132.309 109.865 132.273 109.828 132.265 109.721C132.237 109.35 132.193 108.98 132.14 108.612C132.126 108.518 132.156 108.482 132.223 108.438C132.593 108.195 132.961 107.949 133.34 107.698C133.148 107.161 132.903 106.663 132.553 106.204L131.218 106.758L130.126 105.856C130.193 105.524 130.273 105.143 130.346 104.761C130.405 104.447 130.451 104.488 130.134 104.356C130.104 104.343 130.079 104.32 130.051 104.301L129.202 104.046C129.135 104.038 129.066 104.041 129.004 104.021C128.842 103.97 128.75 104.007 128.686 104.18C128.551 104.54 128.394 104.893 128.237 105.244C128.217 105.29 128.15 105.339 128.099 105.345C127.767 105.387 127.431 105.4 127.104 105.459C126.943 105.488 126.876 105.444 126.797 105.319C126.572 104.966 126.332 104.622 126.076 104.239L124.571 105.026C124.611 105.126 124.632 105.183 124.656 105.239C124.803 105.59 124.946 105.941 125.098 106.289C125.142 106.388 125.12 106.443 125.052 106.523C124.819 106.799 124.604 107.09 124.373 107.367C124.337 107.41 124.248 107.441 124.192 107.431C123.884 107.378 123.579 107.307 123.273 107.248C123.025 107.2 122.932 107.183 122.854 107.264L122.4 108.766ZM124.625 108.732C124.824 107.95 125.289 107.262 125.941 106.784C126.592 106.305 127.39 106.067 128.198 106.11C129.006 106.152 129.775 106.472 130.372 107.016C130.97 107.559 131.36 108.292 131.476 109.09C131.592 109.888 131.427 110.701 131.009 111.392C130.59 112.082 129.945 112.606 129.182 112.875C128.419 113.144 127.586 113.141 126.825 112.867C126.064 112.593 125.422 112.064 125.009 111.371C124.773 110.978 124.617 110.543 124.551 110.09C124.485 109.637 124.51 109.175 124.625 108.732Z" fill="#C57F12"/>
<path d="M124 117.923C124.009 117.969 124.051 117.985 124.154 118.026C124.338 118.099 124.522 118.171 124.704 118.251C124.732 118.263 124.761 118.307 124.764 118.34C124.785 118.532 124.795 118.725 124.818 118.917C124.824 118.977 124.819 119.008 124.765 119.042C124.551 119.176 124.34 119.316 124.131 119.453C124.183 119.677 124.447 120.18 124.588 120.321C124.811 120.228 125.039 120.136 125.264 120.035C125.334 120.004 125.37 120.01 125.428 120.065C125.563 120.194 125.71 120.311 125.859 120.424C125.92 120.47 125.952 120.506 125.932 120.589C125.881 120.803 125.844 121.02 125.797 121.235C125.784 121.293 125.795 121.329 125.852 121.346C126.122 121.43 126.391 121.512 126.661 121.595C126.727 121.616 126.737 121.561 126.754 121.523C126.838 121.326 126.922 121.13 126.999 120.93C127.028 120.856 127.067 120.831 127.149 120.829C127.365 120.822 127.58 120.801 127.812 120.785L128.257 121.458C128.57 121.354 128.852 121.2 129.119 120.995L128.814 120.266C128.974 120.064 129.126 119.881 129.267 119.689C129.308 119.633 129.34 119.624 129.401 119.638C129.614 119.684 129.828 119.724 130.041 119.769C130.087 119.779 130.121 119.781 130.144 119.731C130.263 119.477 130.359 119.218 130.398 118.938C130.407 118.876 130.385 118.852 130.333 118.83C130.126 118.745 129.92 118.656 129.713 118.572C129.663 118.551 129.642 118.53 129.637 118.469C129.621 118.257 129.596 118.046 129.566 117.835C129.558 117.781 129.575 117.761 129.613 117.736C129.825 117.597 130.035 117.456 130.251 117.313C130.142 117.006 130.002 116.721 129.801 116.459L129.039 116.776L128.415 116.26C128.453 116.071 128.499 115.853 128.54 115.634C128.574 115.455 128.601 115.479 128.42 115.403C128.402 115.396 128.388 115.383 128.372 115.372L127.887 115.226C127.849 115.222 127.809 115.223 127.774 115.212C127.681 115.183 127.629 115.204 127.592 115.302C127.515 115.508 127.425 115.71 127.336 115.911C127.324 115.937 127.285 115.965 127.256 115.968C127.067 115.992 126.875 116 126.688 116.033C126.596 116.05 126.558 116.025 126.512 115.954C126.384 115.752 126.247 115.555 126.101 115.336L125.241 115.786C125.263 115.843 125.276 115.876 125.289 115.908C125.373 116.108 125.455 116.309 125.542 116.508C125.567 116.564 125.554 116.596 125.515 116.642C125.382 116.799 125.259 116.965 125.127 117.124C125.107 117.149 125.056 117.166 125.024 117.16C124.848 117.13 124.674 117.09 124.499 117.056C124.357 117.028 124.304 117.019 124.259 117.065L124 117.923ZM125.271 117.903C125.385 117.457 125.651 117.064 126.023 116.79C126.396 116.517 126.851 116.381 127.313 116.405C127.775 116.429 128.214 116.612 128.556 116.923C128.897 117.233 129.12 117.652 129.186 118.108C129.253 118.564 129.158 119.029 128.919 119.423C128.68 119.818 128.311 120.117 127.875 120.271C127.439 120.425 126.964 120.423 126.529 120.267C126.094 120.11 125.727 119.808 125.491 119.412C125.356 119.187 125.267 118.938 125.229 118.68C125.192 118.421 125.206 118.157 125.271 117.903Z" fill="#C57F12"/>
</g>
<path d="M127.432 66.5213C127.422 66.8856 127.521 67.2447 127.716 67.5531C127.91 67.8616 128.193 68.1055 128.527 68.2541C128.86 68.4026 129.231 68.4492 129.591 68.3878C129.952 68.3264 130.286 68.1599 130.551 67.9093C130.817 67.6587 131.001 67.3352 131.082 66.9798C131.163 66.6244 131.137 66.253 131.006 65.9126C130.875 65.5723 130.646 65.2781 130.348 65.0675C130.049 64.8569 129.695 64.7391 129.33 64.7292C129.087 64.7227 128.845 64.7638 128.619 64.8503C128.392 64.9368 128.185 65.067 128.008 65.2334C127.832 65.3998 127.691 65.5992 127.592 65.8202C127.493 66.0411 127.438 66.2794 127.432 66.5213Z" fill="#336179"/>
<path d="M121.827 68.2128C122.847 68.2404 123.697 67.4381 123.724 66.4207C123.752 65.4033 122.947 64.5562 121.926 64.5286C120.906 64.5009 120.056 65.3032 120.029 66.3206C120.001 67.338 120.806 68.1851 121.827 68.2128Z" fill="#336179"/>
<path d="M112.674 65.197C112.483 65.5076 112.389 65.8678 112.403 66.2319C112.417 66.596 112.54 66.9477 112.754 67.2426C112.969 67.5375 113.267 67.7624 113.61 67.8887C113.953 68.015 114.325 68.0372 114.681 67.9524C115.036 67.8676 115.359 67.6796 115.607 67.4122C115.855 67.1448 116.018 66.8101 116.076 66.4502C116.133 66.0904 116.082 65.7216 115.93 65.3905C115.777 65.0594 115.529 64.7809 115.218 64.5901C115.011 64.4634 114.781 64.3785 114.541 64.3404C114.301 64.3023 114.056 64.3117 113.82 64.368C113.583 64.4244 113.361 64.5266 113.164 64.6688C112.968 64.8111 112.801 64.9905 112.674 65.197Z" fill="#336179"/>
<path d="M122.347 44.8371C122.223 44.8193 122.097 44.8158 121.973 44.8269L120.873 44.8268C120.635 44.8203 120.362 44.8129 120.063 44.8404L119.091 44.9504L117.958 45.0798L116.684 45.3594C114.506 45.8488 112.422 46.6893 110.516 47.8479C107.683 49.539 105.277 51.8538 103.48 54.615C101.683 57.3762 100.543 60.5108 100.149 63.7788C100.036 64.7612 99.9892 65.7501 100.009 66.7387C100.031 67.2432 99.9817 67.7457 100.063 68.2517L100.254 69.7802C100.584 71.8839 101.222 73.9281 102.147 75.8479C103.14 77.854 104.417 79.7072 105.94 81.3506C107.565 83.0344 109.442 84.457 111.504 85.5675C113.634 86.7263 115.952 87.5014 118.351 87.8573C118.961 87.9658 119.577 88.0359 120.195 88.0672C120.813 88.1166 121.434 88.1334 122.055 88.1176C123.313 88.1017 124.567 87.979 125.805 87.7509C128.46 87.2592 131 86.2809 133.297 84.8656L133.072 84.8595L140.559 88.0972L141.006 88.2871L140.888 87.8216C140.202 85.029 139.527 82.3136 138.884 79.6881L138.837 79.8884C140.967 77.2302 142.437 74.1077 143.127 70.7755C143.46 69.2216 143.603 67.6332 143.553 66.045C143.558 65.284 143.505 64.5236 143.394 63.7705C143.351 63.3959 143.302 63.0271 143.258 62.6584C143.215 62.2897 143.093 61.9426 143.02 61.585C141.887 56.5887 139.01 52.1559 134.903 49.0775C133.388 47.9284 131.72 46.9936 129.948 46.2996L128.83 45.8662L127.762 45.5646L126.782 45.2951C126.469 45.2214 126.191 45.1842 125.883 45.1344C125.291 45.0413 124.812 44.9335 124.373 44.8979L123.257 44.8321L122.579 44.8137C122.425 44.8095 122.348 44.8075 122.348 44.8075L122.579 44.8137L123.255 44.8854L124.359 44.9864C124.791 45.0337 125.287 45.1597 125.856 45.2581C129.947 46.0746 133.712 48.058 136.695 50.9672C139.677 53.8765 141.748 57.5864 142.655 61.6462C142.729 61.998 142.827 62.3444 142.882 62.7016C142.938 63.0587 142.97 63.4271 143.019 63.79C143.119 64.5318 143.164 65.2799 143.155 66.0283C143.2 67.5792 143.056 69.1298 142.727 70.6461C142.035 73.9241 140.579 76.9936 138.476 79.606L138.408 79.693L138.435 79.8064C139.078 82.4319 139.739 85.1429 140.421 87.9393L140.749 87.6637L133.268 84.4203L133.15 84.3697L133.036 84.4377C130.784 85.8326 128.292 86.7982 125.686 87.2854C124.479 87.5093 123.254 87.6308 122.026 87.6486C121.417 87.6558 120.808 87.6275 120.203 87.5636C119.606 87.5359 119.012 87.4703 118.424 87.3673C116.075 87.0149 113.805 86.2553 111.718 85.1229C107.72 83.0148 104.505 79.6848 102.545 75.6216C101.625 73.7475 100.986 71.7491 100.648 69.6902C100.585 69.1846 100.521 68.6909 100.463 68.1914C100.405 67.6919 100.425 67.2005 100.396 66.7077C100.376 65.741 100.418 64.7739 100.522 63.8126C100.899 60.5978 102.005 57.5109 103.756 54.7855C105.507 52.0601 107.857 49.7677 110.628 48.0821C112.511 46.9125 114.57 46.0535 116.727 45.5384L117.983 45.2405L119.111 45.0873L120.072 44.9533C120.369 44.9613 120.638 44.933 120.876 44.9158L121.971 44.8684C122.097 44.8683 122.223 44.8579 122.347 44.8371Z" fill="#336179"/>
</g>
<defs>
<filter id="filter0_d_827_34424" x="78.2056" y="73.9026" width="161.989" height="141.189" filterUnits="userSpaceOnUse" color-interpolation-filters="sRGB">
<feFlood flood-opacity="0" result="BackgroundImageFix"/>
<feColorMatrix in="SourceAlpha" type="matrix" values="0 0 0 0 0 0 0 0 0 0 0 0 0 0 0 0 0 0 127 0" result="hardAlpha"/>
<feOffset dy="18.8972"/>
<feGaussianBlur stdDeviation="18.8972"/>
<feColorMatrix type="matrix" values="0 0 0 0 0.184314 0 0 0 0 0.223529 0 0 0 0 0.254902 0 0 0 0.15 0"/>
<feBlend mode="normal" in2="BackgroundImageFix" result="effect1_dropShadow_827_34424"/>
<feBlend mode="normal" in="SourceGraphic" in2="effect1_dropShadow_827_34424" result="shape"/>
</filter>
<linearGradient id="paint0_linear_827_34424" x1="200.304" y1="-35.1748" x2="125.92" y2="203.02" gradientUnits="userSpaceOnUse">
<stop offset="0.213542" stop-color="#323444"/>
<stop offset="0.6875" stop-color="#2F3941" stop-opacity="0.291667"/>
<stop offset="1" stop-color="#2F3941" stop-opacity="0"/>
</linearGradient>
<linearGradient id="paint1_linear_827_34424" x1="57.7339" y1="59.6319" x2="18.0699" y2="112.441" gradientUnits="userSpaceOnUse">
<stop offset="0.213542" stop-color="#323444"/>
<stop offset="0.6875" stop-color="#2F3941" stop-opacity="0.291667"/>
<stop offset="1" stop-color="#2F3941" stop-opacity="0"/>
</linearGradient>
<linearGradient id="paint2_linear_827_34424" x1="50.6441" y1="104.402" x2="49.2442" y2="112.42" gradientUnits="userSpaceOnUse">
<stop offset="0.213542" stop-color="#323444"/>
<stop offset="0.6875" stop-color="#2F3941" stop-opacity="0.291667"/>
<stop offset="1" stop-color="#2F3941" stop-opacity="0"/>
</linearGradient>
<linearGradient id="paint3_linear_827_34424" x1="68.1465" y1="160.369" x2="65.3058" y2="167.562" gradientUnits="userSpaceOnUse">
<stop offset="0.213542" stop-color="#323444"/>
<stop offset="0.6875" stop-color="#2F3941" stop-opacity="0.291667"/>
<stop offset="1" stop-color="#2F3941" stop-opacity="0"/>
</linearGradient>
<linearGradient id="paint4_linear_827_34424" x1="62.62" y1="155.333" x2="52.9053" y2="187.987" gradientUnits="userSpaceOnUse">
<stop offset="0.213542" stop-color="#323444"/>
<stop offset="0.6875" stop-color="#2F3941" stop-opacity="0.291667"/>
<stop offset="1" stop-color="#2F3941" stop-opacity="0"/>
</linearGradient>
<linearGradient id="paint5_linear_827_34424" x1="79.7018" y1="171.785" x2="76.825" y2="186.579" gradientUnits="userSpaceOnUse">
<stop offset="0.213542" stop-color="#323444"/>
<stop offset="0.6875" stop-color="#2F3941" stop-opacity="0.291667"/>
<stop offset="1" stop-color="#2F3941" stop-opacity="0"/>
</linearGradient>
<linearGradient id="paint6_linear_827_34424" x1="180.216" y1="171.254" x2="117.758" y2="100.025" gradientUnits="userSpaceOnUse">
<stop stop-color="white" stop-opacity="0"/>
<stop offset="1" stop-color="white" stop-opacity="0.8"/>
</linearGradient>
<linearGradient id="paint7_linear_827_34424" x1="197.348" y1="94.3623" x2="199.909" y2="94.4033" gradientUnits="userSpaceOnUse">
<stop stop-color="#001825"/>
<stop offset="1" stop-color="#003A57"/>
</linearGradient>
<clipPath id="clip0_827_34424">
<rect width="251.2" height="200" fill="white"/>
</clipPath>
<clipPath id="clip1_827_34424">
<rect width="86.4" height="65.6" fill="white" transform="translate(116 92.7998)"/>
</clipPath>
</defs>
</svg>
