<svg width="269" height="232" viewBox="0 0 269 232" fill="none" xmlns="http://www.w3.org/2000/svg">
<path d="M7.12403 67.3861C8.50532 49.6656 17.1953 34.9136 31.1591 27.6345C36.5966 24.7899 42.6374 23.0964 49.0193 22.6274C67.9858 21.2523 89.4377 31.3696 103.978 48.6393C112.529 58.7851 119.185 71.5063 129.983 78.2437C144.018 86.9803 159.474 82.367 172.694 77.4851C185.915 72.6032 203.799 71.899 218.176 79.75C231.578 87.0754 247.623 104.273 252.308 113.993C270.184 151.063 244.584 184.28 224.105 195.336C203.625 206.393 186.471 209.678 162.421 211.734C128.728 214.611 90.5096 197.137 59.9028 172.538C30.7394 149.095 9.12783 111.791 7.02102 76.0333C6.85764 73.11 6.89207 70.2199 7.12403 67.3861Z" fill="#007D5A" fill-opacity="0.08"/>
<g clip-path="url(#clip0_24_7271)">
<path fill-rule="evenodd" clip-rule="evenodd" d="M177.86 170.96L67.2134 170.96C62.7547 170.96 59.024 167.775 58.2051 163.407L50.6527 117.911C50.2887 115.181 51.0167 112.542 52.7455 110.449C54.4744 108.357 57.0222 107.265 59.661 107.265L185.413 107.265C188.052 107.265 190.599 108.448 192.328 110.449C194.057 112.542 194.785 115.181 194.33 117.82L186.778 163.316C186.05 167.775 182.319 170.96 177.86 170.96ZM186.232 98.1655L186.232 79.9669C186.232 74.9623 182.137 70.8677 177.132 70.8677L131.636 70.8677L131.636 66.318C131.636 58.7656 125.54 52.6691 117.987 52.6691L72.4909 52.6691C64.9385 52.6691 58.842 58.7656 58.842 66.318L58.842 98.1655L186.232 98.1655Z" fill="#336179"/>
</g>
<g opacity="0.8">
<path opacity="0.8" d="M44.1075 110.728C44.0595 110.64 44.0385 110.539 44.0471 110.439C44.1064 109.74 44.1788 109.033 44.2637 108.336C44.272 108.268 44.2938 108.202 44.3276 108.142C44.3615 108.082 44.4068 108.029 44.461 107.987C44.5152 107.945 44.5773 107.913 44.6436 107.895C44.7099 107.876 44.7792 107.871 44.8475 107.879C44.9158 107.888 44.9818 107.909 45.0417 107.943C45.1016 107.977 45.1543 108.022 45.1967 108.076C45.2391 108.131 45.2704 108.193 45.2888 108.259C45.3073 108.325 45.3125 108.395 45.3041 108.463C45.2204 109.147 45.1469 109.842 45.0888 110.528C45.0859 110.645 45.0435 110.757 44.9687 110.846C44.8939 110.935 44.7911 110.997 44.6769 111.02C44.5628 111.043 44.4442 111.027 44.3403 110.974C44.2365 110.922 44.1537 110.835 44.1053 110.729L44.1075 110.728Z" fill="#D1E0E8"/>
<path opacity="0.8" d="M45.6274 101.731C45.5648 101.616 45.5486 101.481 45.5823 101.354C45.9323 99.9586 46.3603 98.5424 46.8297 97.1641C46.8746 97.0326 46.9699 96.9242 47.0947 96.8628C47.2195 96.8015 47.3635 96.7922 47.4951 96.837C47.6266 96.8818 47.735 96.977 47.7962 97.1018C47.8575 97.2265 47.8668 97.3704 47.8219 97.502C47.3605 98.8542 46.9494 100.239 46.5987 101.613C46.5828 101.681 46.5534 101.744 46.5124 101.8C46.4714 101.856 46.4195 101.903 46.36 101.938C46.3004 101.974 46.2343 101.996 46.1657 102.006C46.097 102.015 46.0272 102.01 45.9605 101.992C45.89 101.974 45.8241 101.941 45.7669 101.896C45.7096 101.851 45.6621 101.795 45.6274 101.731ZM49.5502 91.0739C49.5107 91.0012 49.4892 90.92 49.4877 90.8372C49.4861 90.7544 49.5046 90.6725 49.5415 90.5984C50.1841 89.2947 50.8767 87.9936 51.611 86.7453C51.6458 86.6861 51.692 86.6344 51.7468 86.593C51.8016 86.5516 51.8641 86.5214 51.9306 86.5041C51.997 86.4869 52.0663 86.4829 52.1343 86.4923C52.2023 86.5018 52.2678 86.5246 52.327 86.5594C52.3862 86.5942 52.438 86.6403 52.4794 86.6951C52.5207 86.7499 52.5509 86.8123 52.5681 86.8787C52.5854 86.9452 52.5893 87.0144 52.5798 87.0824C52.5703 87.1504 52.5475 87.2159 52.5127 87.2751C51.7927 88.5024 51.109 89.7739 50.4843 91.0574C50.4551 91.1202 50.4135 91.1764 50.3621 91.2228C50.3107 91.2692 50.2504 91.3047 50.185 91.3273C50.1195 91.3499 50.0502 91.359 49.9811 91.3542C49.9121 91.3494 49.8447 91.3307 49.783 91.2993C49.682 91.2526 49.5987 91.1745 49.5458 91.0766L49.5502 91.0739ZM55.5453 81.4309C55.4965 81.3423 55.4748 81.2412 55.4832 81.1404C55.4915 81.0395 55.5293 80.9433 55.592 80.8638C56.4794 79.7117 57.4272 78.5889 58.4034 77.5121C58.4498 77.461 58.5058 77.4196 58.5682 77.3901C58.6306 77.3607 58.6982 77.3439 58.7671 77.3406C58.836 77.3372 58.9049 77.3475 58.9698 77.3708C59.0347 77.3941 59.0944 77.43 59.1455 77.4764C59.1965 77.5227 59.2379 77.5787 59.2673 77.6411C59.2967 77.7034 59.3135 77.771 59.3168 77.8399C59.3201 77.9088 59.3098 77.9776 59.2864 78.0426C59.2631 78.1075 59.2272 78.1672 59.1808 78.2182C58.2211 79.2728 57.2926 80.3777 56.4225 81.504C56.3708 81.5748 56.3018 81.6312 56.2221 81.6679C56.1425 81.7046 56.0547 81.7204 55.9673 81.7138C55.8798 81.7071 55.7956 81.6783 55.7224 81.6299C55.6493 81.5816 55.5897 81.5153 55.5493 81.4375L55.5453 81.4309ZM63.3869 73.217C63.3293 73.1121 63.31 72.9904 63.3325 72.8727C63.355 72.7551 63.4177 72.649 63.51 72.5725C64.6128 71.6324 65.7717 70.7242 66.9493 69.871C67.062 69.7895 67.2024 69.7561 67.3396 69.778C67.4769 69.8 67.5998 69.8756 67.6813 69.9882C67.7628 70.1008 67.7961 70.2412 67.7741 70.3784C67.752 70.5157 67.6763 70.6386 67.5636 70.7201C66.4088 71.5562 65.2673 72.4386 64.1891 73.3696C64.1373 73.4153 64.0767 73.4501 64.0112 73.472C63.9456 73.4938 63.8763 73.5022 63.8074 73.4968C63.7385 73.4913 63.6714 73.472 63.6101 73.44C63.5489 73.4081 63.4947 73.3641 63.4508 73.3108C63.424 73.2837 63.4011 73.253 63.3825 73.2197L63.3869 73.217ZM72.7393 66.7906C72.7058 66.7307 72.6846 66.6647 72.677 66.5965C72.6694 66.5283 72.6755 66.4592 72.695 66.3934C72.7145 66.3276 72.7469 66.2663 72.7904 66.2132C72.8339 66.1601 72.8875 66.1162 72.9482 66.0841L73.384 65.8486C74.5222 65.2405 75.6846 64.6719 76.8687 64.1383C76.9945 64.082 77.1375 64.0779 77.2662 64.127C77.3949 64.1761 77.4989 64.2743 77.5551 64.4C77.6114 64.5258 77.6154 64.6687 77.5662 64.7975C77.5171 64.9262 77.4187 65.0301 77.293 65.0864C76.1409 65.6033 74.9908 66.1673 73.8759 66.7641L73.4489 66.9942C73.3888 67.0286 73.3223 67.0505 73.2535 67.0587C73.1847 67.0669 73.1149 67.0611 73.0484 67.0417C72.9819 67.0222 72.92 66.9896 72.8664 66.9457C72.8129 66.9018 72.7687 66.8476 72.7366 66.7862L72.7393 66.7906ZM83.2091 62.397L83.1696 62.3034C83.1482 62.2375 83.1404 62.168 83.1465 62.099C83.1527 62.03 83.1727 61.963 83.2054 61.9019C83.2381 61.8408 83.2827 61.7869 83.3367 61.7435C83.3907 61.7 83.4529 61.6679 83.5196 61.6491C84.9077 61.2256 86.3304 60.8533 87.7536 60.5504C87.8208 60.5353 87.8903 60.5337 87.9582 60.5455C88.026 60.5573 88.0909 60.5824 88.149 60.6192C88.2072 60.6561 88.2575 60.7041 88.2971 60.7604C88.3367 60.8168 88.3648 60.8803 88.3798 60.9475C88.3948 61.0147 88.3964 61.0842 88.3846 61.1521C88.3727 61.2199 88.3476 61.2848 88.3107 61.3429C88.2738 61.4011 88.2257 61.4514 88.1694 61.491C88.113 61.5306 88.0494 61.5587 87.9822 61.5738C86.5896 61.8821 85.1928 62.2474 83.8293 62.6618C83.7115 62.6989 83.5842 62.6924 83.4708 62.6436C83.3573 62.5947 83.2652 62.5067 83.2113 62.3956L83.2091 62.397ZM94.351 60.2172C94.3169 60.1559 94.2966 60.0879 94.2917 60.0179C94.2843 59.9491 94.2909 59.8796 94.311 59.8134C94.3312 59.7473 94.3644 59.6858 94.4088 59.6328C94.4532 59.5797 94.5078 59.5362 94.5694 59.5046C94.631 59.4731 94.6983 59.4544 94.7673 59.4494C96.2027 59.3234 97.6801 59.241 99.1309 59.2235C99.1998 59.2227 99.2681 59.2355 99.3321 59.2611C99.396 59.2868 99.4542 59.3248 99.5034 59.3729C99.5526 59.4211 99.5919 59.4784 99.6189 59.5417C99.6459 59.6051 99.6602 59.6731 99.661 59.7419C99.6617 59.8108 99.6489 59.8791 99.6232 59.943C99.5975 60.007 99.5595 60.0652 99.5113 60.1144C99.4631 60.1636 99.4057 60.2029 99.3424 60.23C99.279 60.257 99.2109 60.2713 99.1421 60.2721C97.7191 60.2906 96.2777 60.3629 94.8601 60.4931C94.7575 60.5028 94.6544 60.4817 94.5641 60.4322C94.4737 60.3828 94.4003 60.3074 94.3532 60.2159L94.351 60.2172ZM105.699 60.3599C105.649 60.2656 105.628 60.1583 105.64 60.0519C105.647 59.9831 105.667 59.9163 105.701 59.8557C105.734 59.795 105.779 59.7416 105.834 59.6988C105.888 59.656 105.95 59.6245 106.017 59.6063C106.084 59.5881 106.154 59.5836 106.222 59.5929C107.663 59.7601 109.116 59.9863 110.535 60.2605C110.671 60.2872 110.792 60.3672 110.87 60.4829C110.948 60.5985 110.976 60.7403 110.95 60.8772C110.923 61.014 110.843 61.1346 110.727 61.2125C110.611 61.2904 110.47 61.3191 110.333 61.2924C108.937 61.0161 107.513 60.7931 106.098 60.6283C106.015 60.6188 105.936 60.5893 105.866 60.5423C105.797 60.4953 105.741 60.4322 105.702 60.3585L105.699 60.3599ZM116.775 62.8274C116.741 62.7642 116.721 62.695 116.715 62.6238C116.709 62.5526 116.718 62.481 116.74 62.4132C116.76 62.3461 116.793 62.2838 116.837 62.2299C116.882 62.176 116.937 62.1317 116.999 62.0997C117.061 62.0676 117.128 62.0485 117.198 62.0435C117.268 62.0386 117.338 62.0478 117.404 62.0706C118.779 62.5292 120.153 63.0491 121.491 63.6149C121.554 63.6416 121.612 63.6805 121.66 63.7294C121.709 63.7783 121.747 63.8362 121.773 63.8998C121.798 63.9635 121.812 64.0316 121.811 64.1003C121.811 64.1691 121.797 64.237 121.77 64.3004C121.743 64.3637 121.704 64.4212 121.655 64.4695C121.607 64.5178 121.549 64.556 121.485 64.5819C121.421 64.6079 121.353 64.621 121.284 64.6206C121.216 64.6202 121.148 64.6063 121.084 64.5796C119.771 64.0253 118.419 63.5162 117.07 63.0657C116.946 63.0242 116.842 62.9389 116.777 62.826L116.775 62.8274ZM127.122 67.4951C127.058 67.395 127.03 67.2758 127.044 67.1577C127.058 67.0396 127.112 66.9299 127.198 66.8472C127.283 66.7646 127.395 66.714 127.513 66.7042C127.632 66.6944 127.75 66.7258 127.848 66.7933C129.109 67.5279 130.349 68.3118 131.543 69.1334C131.657 69.2123 131.736 69.3336 131.761 69.4704C131.786 69.6072 131.755 69.7485 131.676 69.863C131.597 69.9775 131.476 70.056 131.339 70.0811C131.202 70.1062 131.061 70.076 130.946 69.997C129.784 69.2015 128.557 68.4188 127.319 67.6971C127.236 67.6488 127.169 67.5784 127.124 67.4938L127.122 67.4951ZM136.305 74.1663C136.22 74.0581 136.182 73.9207 136.198 73.7843C136.215 73.6479 136.285 73.5236 136.393 73.4388C136.501 73.354 136.639 73.3156 136.775 73.3322C136.912 73.3487 137.036 73.4187 137.121 73.5269C138.199 74.4952 139.257 75.5185 140.256 76.5748C140.304 76.6248 140.341 76.6838 140.366 76.7483C140.39 76.8128 140.402 76.8816 140.4 76.9506C140.399 77.0197 140.383 77.0877 140.355 77.1509C140.327 77.214 140.287 77.271 140.237 77.3186C140.187 77.3662 140.128 77.4035 140.063 77.4283C139.998 77.4531 139.93 77.4649 139.861 77.4632C139.792 77.4614 139.723 77.4461 139.66 77.418C139.597 77.3899 139.54 77.3497 139.493 77.2996C138.508 76.2675 137.473 75.2606 136.414 74.3102C136.371 74.2682 136.334 74.2191 136.307 74.165L136.305 74.1663Z" fill="#D1E0E8"/>
<path opacity="0.8" d="M143.944 82.6039C143.871 82.4859 143.848 82.3438 143.88 82.2089C143.912 82.0741 143.997 81.9574 144.115 81.8846C144.233 81.8118 144.375 81.7889 144.51 81.8208C144.645 81.8528 144.761 81.937 144.834 82.055C145.249 82.6248 145.658 83.2044 146.048 83.7833C146.126 83.8985 146.155 84.04 146.128 84.1765C146.102 84.3131 146.022 84.4336 145.907 84.5115C145.792 84.5894 145.65 84.6184 145.514 84.592C145.377 84.5656 145.257 84.4861 145.179 84.3708C144.795 83.8028 144.395 83.2328 143.992 82.6828L143.944 82.6039Z" fill="#D1E0E8"/>
<path opacity="0.8" d="M153.477 126.663C153.42 126.554 153.402 126.428 153.427 126.307C153.568 125.633 153.699 124.947 153.809 124.257C153.833 124.121 153.911 124.001 154.024 123.923C154.137 123.844 154.276 123.814 154.412 123.838C154.547 123.863 154.667 123.94 154.746 124.053C154.824 124.166 154.855 124.305 154.83 124.441C154.712 125.133 154.58 125.832 154.434 126.518C154.422 126.586 154.395 126.65 154.357 126.708C154.318 126.766 154.268 126.815 154.211 126.853C154.153 126.891 154.088 126.917 154.019 126.929C153.951 126.941 153.881 126.94 153.814 126.924C153.743 126.907 153.676 126.874 153.618 126.829C153.56 126.784 153.512 126.728 153.477 126.663Z" fill="#D1E0E8"/>
<path opacity="0.8" d="M57.3582 151.523C57.281 151.41 57.2518 151.271 57.277 151.137C57.3023 151.002 57.3799 150.883 57.4928 150.806C57.6057 150.729 57.7446 150.7 57.879 150.725C58.0135 150.75 58.1323 150.828 58.2095 150.94C59.125 152.003 60.0915 153.04 61.0869 154.026C61.1877 154.125 61.2452 154.259 61.2469 154.4C61.2486 154.54 61.1942 154.676 61.0958 154.777C60.9975 154.878 60.8631 154.935 60.7223 154.937C60.5815 154.939 60.4458 154.885 60.345 154.786C59.3317 153.781 58.3447 152.72 57.4112 151.638C57.388 151.603 57.3702 151.564 57.3582 151.523ZM65.4737 159.197C65.4036 159.092 65.3747 158.964 65.3925 158.839C65.4103 158.714 65.4735 158.6 65.5701 158.518C65.6667 158.436 65.79 158.393 65.9164 158.396C66.0428 158.4 66.1636 158.45 66.2556 158.536C67.3652 159.388 68.5252 160.21 69.7 160.976C69.7576 161.014 69.8073 161.063 69.8461 161.12C69.8849 161.176 69.9121 161.24 69.9261 161.308C69.9402 161.375 69.9408 161.445 69.928 161.513C69.9151 161.58 69.8891 161.645 69.8513 161.702C69.8135 161.76 69.7648 161.81 69.7078 161.849C69.6509 161.887 69.5868 161.915 69.5194 161.929C69.4519 161.943 69.3823 161.943 69.3146 161.931C69.2469 161.918 69.1824 161.892 69.1247 161.854C67.9317 161.078 66.7467 160.236 65.6171 159.366C65.5573 159.321 65.5083 159.263 65.4737 159.197ZM74.9699 165.076C74.9309 165.001 74.911 164.918 74.9117 164.834C74.9125 164.749 74.934 164.666 74.9743 164.592C75.0035 164.529 75.045 164.473 75.0964 164.427C75.1478 164.38 75.2081 164.345 75.2736 164.322C75.339 164.3 75.4083 164.291 75.4774 164.295C75.5464 164.3 75.6138 164.319 75.6755 164.35C75.9444 164.487 76.2176 164.621 76.4787 164.735C77.4804 165.206 78.5095 165.648 79.537 166.058C79.6662 166.11 79.7697 166.21 79.8246 166.338C79.8796 166.466 79.8815 166.61 79.83 166.74C79.7784 166.869 79.6777 166.972 79.5499 167.027C79.422 167.082 79.2776 167.084 79.1484 167.033C78.1019 166.617 77.0531 166.162 76.0324 165.685L75.2082 165.286C75.1099 165.241 75.027 165.168 74.9699 165.076ZM85.4497 168.948C85.386 168.832 85.3693 168.696 85.4032 168.568C85.4193 168.501 85.4489 168.438 85.4901 168.382C85.5313 168.326 85.5834 168.28 85.6431 168.244C85.7028 168.209 85.7689 168.186 85.8376 168.178C85.9063 168.169 85.976 168.174 86.0427 168.192C87.3981 168.545 88.7847 168.845 90.1618 169.091C90.2291 169.103 90.2932 169.129 90.3506 169.166C90.4079 169.203 90.4574 169.251 90.4962 169.307C90.535 169.364 90.5623 169.427 90.5765 169.494C90.5908 169.561 90.5918 169.63 90.5794 169.697C90.567 169.764 90.5415 169.828 90.5043 169.886C90.4671 169.943 90.419 169.992 90.3627 170.031C90.3064 170.07 90.243 170.097 90.1761 170.112C90.1093 170.126 90.0403 170.127 89.973 170.115C88.5689 169.864 87.1562 169.556 85.776 169.197C85.7074 169.18 85.643 169.15 85.5868 169.107C85.5307 169.064 85.484 169.01 85.4497 168.948ZM96.4778 170.637C96.4356 170.555 96.4155 170.463 96.4194 170.371C96.4217 170.302 96.438 170.234 96.4671 170.171C96.4963 170.108 96.5378 170.052 96.5891 170.006C96.6405 169.959 96.7006 169.924 96.766 169.901C96.8314 169.879 96.9006 169.869 96.9696 169.874C98.368 169.943 99.7843 169.953 101.188 169.919C101.327 169.914 101.462 169.964 101.563 170.058C101.665 170.152 101.725 170.283 101.73 170.421C101.735 170.56 101.685 170.695 101.591 170.796C101.496 170.898 101.365 170.958 101.227 170.963C99.799 171.003 98.3508 170.985 96.9267 170.914C96.8348 170.91 96.7455 170.882 96.6681 170.833C96.5907 170.783 96.528 170.714 96.4865 170.632L96.4778 170.637ZM107.624 170.064C107.597 170.011 107.578 169.954 107.568 169.895C107.557 169.827 107.559 169.757 107.575 169.69C107.591 169.623 107.62 169.559 107.661 169.503C107.702 169.447 107.754 169.4 107.813 169.365C107.873 169.33 107.939 169.307 108.008 169.298C109.39 169.086 110.785 168.816 112.153 168.496C112.288 168.465 112.431 168.488 112.549 168.562C112.667 168.635 112.75 168.753 112.782 168.888C112.813 169.024 112.789 169.166 112.716 169.284C112.642 169.402 112.525 169.486 112.389 169.518C110.997 169.841 109.576 170.118 108.166 170.334C108.06 170.348 107.952 170.329 107.858 170.278C107.763 170.228 107.687 170.15 107.639 170.054L107.624 170.064ZM118.44 167.262C118.425 167.243 118.412 167.223 118.402 167.201C118.377 167.137 118.365 167.068 118.368 166.999C118.37 166.93 118.386 166.862 118.415 166.8C118.443 166.737 118.485 166.681 118.535 166.635C118.586 166.588 118.646 166.552 118.711 166.529C120.027 166.042 121.338 165.499 122.615 164.915C122.677 164.885 122.745 164.868 122.813 164.865C122.882 164.861 122.951 164.872 123.016 164.896C123.08 164.92 123.14 164.956 123.19 165.004C123.24 165.051 123.28 165.108 123.308 165.171C123.339 165.233 123.356 165.301 123.359 165.37C123.363 165.439 123.352 165.509 123.328 165.574C123.304 165.639 123.267 165.698 123.22 165.749C123.172 165.799 123.115 165.84 123.051 165.867C121.753 166.462 120.426 167.009 119.075 167.512C118.958 167.55 118.831 167.545 118.717 167.497C118.603 167.45 118.51 167.363 118.455 167.253L118.44 167.262ZM128.478 162.355C128.414 162.239 128.397 162.103 128.431 161.975C128.465 161.847 128.547 161.737 128.659 161.668C129.852 160.933 131.028 160.135 132.159 159.305C132.271 159.222 132.412 159.188 132.549 159.21C132.686 159.231 132.81 159.306 132.892 159.418C132.974 159.53 133.008 159.671 132.986 159.808C132.965 159.945 132.89 160.069 132.778 160.151C131.625 160.995 130.424 161.805 129.212 162.559C129.095 162.63 128.955 162.653 128.822 162.621C128.689 162.59 128.575 162.507 128.503 162.391L128.478 162.355ZM137.329 155.538C137.274 155.437 137.254 155.321 137.273 155.207C137.292 155.094 137.348 154.99 137.433 154.912C138.452 153.948 139.444 152.931 140.381 151.884C140.427 151.833 140.483 151.792 140.545 151.763C140.608 151.733 140.675 151.716 140.744 151.713C140.813 151.71 140.881 151.72 140.946 151.743C141.011 151.766 141.07 151.802 141.121 151.848C141.172 151.894 141.214 151.95 141.243 152.012C141.272 152.075 141.289 152.142 141.293 152.211C141.296 152.279 141.286 152.348 141.262 152.413C141.239 152.478 141.203 152.537 141.157 152.588C140.2 153.647 139.187 154.683 138.144 155.656C138.094 155.705 138.035 155.743 137.971 155.768C137.906 155.794 137.837 155.806 137.768 155.804C137.699 155.802 137.631 155.786 137.568 155.757C137.505 155.728 137.448 155.687 137.402 155.636C137.379 155.602 137.36 155.566 137.345 155.529L137.329 155.538ZM144.624 147.075C144.577 146.99 144.556 146.893 144.562 146.796C144.568 146.7 144.602 146.606 144.658 146.528C145.461 145.376 146.236 144.179 146.94 142.974C146.975 142.914 147.021 142.862 147.076 142.821C147.131 142.78 147.193 142.749 147.26 142.732C147.327 142.715 147.396 142.711 147.464 142.721C147.532 142.73 147.598 142.753 147.657 142.788C147.717 142.823 147.768 142.869 147.81 142.924C147.851 142.979 147.881 143.042 147.899 143.108C147.916 143.175 147.92 143.244 147.91 143.313C147.9 143.381 147.878 143.446 147.843 143.506C147.116 144.737 146.326 145.953 145.518 147.126C145.479 147.184 145.429 147.233 145.371 147.271C145.313 147.308 145.248 147.334 145.18 147.346C145.112 147.359 145.042 147.357 144.974 147.341C144.907 147.326 144.843 147.297 144.787 147.256C144.724 147.204 144.674 147.139 144.639 147.066L144.624 147.075ZM150.068 137.315C150.031 137.246 150.01 137.168 150.007 137.09C150.004 137.011 150.019 136.932 150.051 136.86C150.61 135.572 151.124 134.247 151.583 132.924C151.628 132.793 151.724 132.686 151.849 132.625C151.974 132.564 152.118 132.556 152.249 132.601C152.38 132.647 152.488 132.742 152.548 132.867C152.609 132.992 152.617 133.136 152.572 133.267C152.108 134.615 151.581 135.965 151.013 137.277C150.987 137.341 150.948 137.399 150.898 137.448C150.849 137.497 150.79 137.535 150.725 137.56C150.661 137.586 150.592 137.598 150.522 137.596C150.453 137.594 150.385 137.578 150.322 137.549C150.217 137.497 150.133 137.411 150.084 137.306L150.068 137.315Z" fill="#D1E0E8"/>
<path opacity="0.8" d="M52.0384 144.22C51.9695 144.099 51.9515 143.956 51.9882 143.822C52.025 143.688 52.1135 143.574 52.2344 143.505C52.3552 143.436 52.4985 143.418 52.6326 143.454C52.7667 143.491 52.8808 143.58 52.9497 143.7C53.3091 144.283 53.6753 144.877 54.0547 145.438C54.1317 145.554 54.1596 145.696 54.1321 145.832C54.1047 145.968 54.0241 146.088 53.9083 146.165C53.7925 146.242 53.6508 146.27 53.5145 146.243C53.3782 146.216 53.2583 146.135 53.1813 146.019C52.7913 145.431 52.4096 144.832 52.0443 144.234L52.0384 144.22Z" fill="#D1E0E8"/>
<path d="M60.9481 132.529C60.9911 132.66 61.074 132.775 61.1854 132.857C61.2967 132.939 61.431 132.984 61.5693 132.987L69.6547 133.118C71.6379 136.392 74.1426 139.32 77.07 141.786L75.9536 149.791C75.9338 149.928 75.9576 150.069 76.0217 150.192C76.0857 150.315 76.1868 150.415 76.3108 150.478L84.9574 154.867C85.0805 154.929 85.22 154.952 85.3567 154.932C85.4933 154.912 85.6202 154.849 85.7198 154.753L91.5304 149.135C95.2502 150.043 99.0936 150.338 102.909 150.009L107.791 156.453C107.875 156.565 107.992 156.647 108.126 156.687C108.26 156.728 108.403 156.724 108.535 156.678L117.759 153.67C117.89 153.626 118.005 153.543 118.087 153.432C118.169 153.321 118.214 153.186 118.217 153.048L118.339 144.967C121.615 142.982 124.546 140.476 127.015 137.548L135.019 138.661C135.157 138.68 135.297 138.656 135.42 138.591C135.543 138.527 135.643 138.426 135.706 138.302L140.102 129.654C140.165 129.531 140.188 129.391 140.167 129.255C140.146 129.118 140.083 128.992 139.987 128.893L134.37 123.087C135.28 119.367 135.578 115.524 135.252 111.709L141.698 106.827C141.81 106.742 141.892 106.625 141.933 106.491C141.974 106.357 141.971 106.214 141.926 106.082L138.929 96.8841C138.887 96.7524 138.804 96.6374 138.692 96.5553C138.581 96.4732 138.446 96.4281 138.308 96.4264L130.225 96.2935C128.239 93.0201 125.733 90.0921 122.806 87.6243L123.924 79.6219C123.943 79.4844 123.919 79.3441 123.855 79.221C123.79 79.0979 123.689 78.9982 123.564 78.9362L114.919 74.5441C114.795 74.4817 114.655 74.4593 114.518 74.4803C114.381 74.5012 114.255 74.5643 114.155 74.6608L108.345 80.2794C104.625 79.37 100.781 79.0741 96.9646 79.4032L92.0842 72.9613C91.9998 72.8498 91.8823 72.7678 91.7485 72.7271C91.6146 72.6863 91.4714 72.6888 91.339 72.7343L82.1165 75.7447C81.985 75.7877 81.8701 75.8707 81.788 75.9821C81.7058 76.0934 81.6605 76.2277 81.6583 76.366L81.5213 84.4471C78.2466 86.4334 75.3172 88.9396 72.8482 91.8672L64.8421 90.7553C64.7045 90.7356 64.5641 90.7597 64.441 90.8243C64.3178 90.8888 64.2181 90.9905 64.156 91.1148L59.7604 99.7593C59.6981 99.883 59.6756 100.023 59.696 100.16C59.7165 100.297 59.7789 100.424 59.8746 100.524L65.4917 106.33C64.5802 110.048 64.2824 113.89 64.6102 117.704L58.1619 122.588C58.05 122.672 57.9679 122.789 57.9274 122.923C57.8869 123.057 57.8901 123.2 57.9366 123.331L60.9481 132.529Z" fill="#80D9C0"/>
<path opacity="0.5" d="M91.6411 119.123C90.4812 116.947 90.2221 114.402 90.9197 112.036C91.6173 109.671 93.2157 107.673 95.3712 106.472C97.5266 105.272 100.067 104.965 102.445 105.618C104.824 106.271 106.85 107.831 108.089 109.963C109.328 112.095 109.679 114.628 109.069 117.018C108.458 119.408 106.934 121.463 104.824 122.741C102.713 124.019 100.186 124.419 97.7854 123.853C95.3847 123.288 93.3024 121.802 91.9866 119.717C91.8641 119.524 91.7482 119.326 91.6411 119.123ZM106.843 111.022C106.226 109.865 105.329 108.881 104.233 108.162C103.137 107.442 101.878 107.01 100.57 106.904C99.2632 106.798 97.9503 107.022 96.752 107.556C95.5538 108.089 94.5088 108.915 93.713 109.958C92.9172 111.001 92.3961 112.226 92.1976 113.522C91.9991 114.819 92.1296 116.144 92.577 117.376C93.0244 118.608 93.7744 119.708 94.7582 120.575C95.7419 121.441 96.9279 122.047 98.207 122.335C99.6692 122.667 101.196 122.571 102.606 122.059C104.015 121.547 105.248 120.642 106.158 119.45C107.068 118.258 107.616 116.83 107.738 115.336C107.859 113.841 107.548 112.344 106.843 111.022Z" fill="white"/>
<path opacity="0.5" d="M84.8475 133.388L85.8423 132.17C87.092 133.184 88.4454 134.062 89.8799 134.792C94.3309 137.05 99.405 137.771 104.311 136.844C109.217 135.917 113.679 133.392 117.001 129.665C120.323 125.937 122.318 121.216 122.675 116.238C123.033 111.259 121.732 106.304 118.976 102.143C116.22 97.9828 112.164 94.8519 107.441 93.2386C102.717 91.6254 97.5917 91.6206 92.8635 93.225C88.1352 94.8293 84.0702 97.9527 81.3023 102.108C78.5344 106.263 77.2194 111.217 77.5622 116.196L75.9945 116.303C75.6283 110.978 77.0351 105.681 79.9956 101.237C82.956 96.7937 87.3037 93.4537 92.3606 91.7382C97.4174 90.0227 102.899 90.0282 107.951 91.7538C113.002 93.4794 117.34 96.8281 120.287 101.278C123.234 105.727 124.624 111.027 124.242 116.352C123.859 121.676 121.725 126.725 118.172 130.711C114.619 134.698 109.848 137.397 104.601 138.389C99.354 139.38 93.9274 138.608 89.1673 136.193L88.7251 135.967L88.6998 135.955C87.6068 135.368 86.56 134.699 85.5685 133.954L85.5364 133.931L85.494 133.897L85.3848 133.813C85.1881 133.656 85.0183 133.528 84.8475 133.388Z" fill="white"/>
<path d="M154.622 95.923L159.143 95.639C160.397 97.3789 161.927 98.9028 163.672 100.151L163.404 104.668C163.399 104.745 163.418 104.822 163.459 104.888C163.5 104.954 163.56 105.006 163.631 105.036L168.655 107.104C168.727 107.133 168.806 107.14 168.881 107.122C168.957 107.105 169.025 107.065 169.077 107.007L172.073 103.611C174.192 103.954 176.353 103.949 178.471 103.597L181.47 106.989C181.521 107.047 181.59 107.087 181.665 107.104C181.741 107.121 181.82 107.114 181.891 107.083L186.909 104.993C186.98 104.964 187.041 104.913 187.082 104.847C187.123 104.782 187.143 104.705 187.138 104.628L186.855 100.106C188.597 98.8524 190.122 97.3232 191.371 95.5786L195.892 95.8426C195.969 95.8473 196.046 95.828 196.112 95.7873C196.178 95.7466 196.23 95.6866 196.26 95.6155L198.331 90.5914C198.36 90.5198 198.367 90.4408 198.349 90.3655C198.331 90.2901 198.291 90.2222 198.232 90.1713L194.837 87.1779C195.182 85.06 195.179 82.9002 194.828 80.7837L198.213 77.7737C198.271 77.7218 198.311 77.6534 198.329 77.5777C198.346 77.5021 198.339 77.423 198.31 77.3512L196.223 72.338C196.194 72.2659 196.142 72.2049 196.076 72.1637C196.01 72.1225 195.932 72.1032 195.855 72.1085L191.333 72.3926C190.079 70.6526 188.55 69.1287 186.805 67.8809L187.073 63.3635C187.077 63.2862 187.058 63.2094 187.017 63.1435C186.977 63.0776 186.917 63.0259 186.846 62.9954L181.821 60.928C181.75 60.898 181.671 60.8912 181.595 60.9085C181.519 60.9258 181.451 60.9664 181.4 61.0246L178.404 64.4206C176.285 64.0778 174.124 64.0824 172.006 64.4342L169.006 61.0424C168.955 60.9844 168.887 60.9441 168.811 60.9272C168.735 60.9103 168.656 60.9177 168.585 60.9483L163.567 63.0383C163.496 63.0678 163.436 63.1188 163.395 63.1842C163.354 63.2497 163.334 63.3263 163.339 63.4033L163.622 67.9257C161.88 69.1796 160.355 70.7087 159.105 72.4529L154.584 72.1889C154.507 72.1842 154.43 72.2036 154.364 72.2442C154.298 72.2849 154.247 72.3449 154.216 72.416L152.146 77.4402C152.116 77.5118 152.11 77.5907 152.127 77.6661C152.145 77.7414 152.186 77.8093 152.244 77.8602L155.639 80.8536C155.295 82.9716 155.298 85.1312 155.648 87.2478L152.256 90.2469C152.199 90.2987 152.158 90.3672 152.141 90.4428C152.124 90.5185 152.13 90.5976 152.16 90.6694L154.247 95.6825C154.276 95.7571 154.328 95.8206 154.395 95.8638C154.462 95.907 154.542 95.9277 154.622 95.923Z" fill="#92C9EB"/>
<path opacity="0.5" d="M170.287 86.6412C169.599 85.3556 169.437 83.8534 169.833 82.4499C170.23 81.0464 171.155 79.8508 172.414 79.1141C173.673 78.3774 175.169 78.1568 176.586 78.4987C178.004 78.8406 179.234 79.7185 180.018 80.9479C180.802 82.1773 181.078 83.6627 180.79 85.0922C180.502 86.5218 179.67 87.7844 178.471 88.615C177.272 89.4455 175.798 89.7794 174.358 89.5466C172.918 89.3138 171.625 88.5323 170.749 87.3663C170.577 87.1367 170.423 86.8943 170.287 86.6412ZM178.809 82.1062C178.356 81.2591 177.617 80.601 176.723 80.2502C175.829 79.8993 174.839 79.8787 173.93 80.192C173.022 80.5053 172.255 81.1321 171.767 81.9597C171.279 82.7873 171.102 83.7615 171.268 84.7075C171.434 85.6534 171.932 86.509 172.672 87.1208C173.412 87.7325 174.347 88.0602 175.307 88.0451C176.268 88.0299 177.192 87.6729 177.913 87.0381C178.634 86.4034 179.106 85.5325 179.243 84.5818C179.365 83.7313 179.213 82.8641 178.809 82.1062Z" fill="white"/>
<path opacity="0.8" d="M146.287 90.3577C146.264 90.3149 146.248 90.2688 146.239 90.221C146.089 89.5269 145.976 88.8134 145.867 88.1214C145.856 88.0528 145.859 87.9827 145.876 87.9153C145.892 87.8479 145.922 87.7845 145.964 87.729C146.006 87.6736 146.059 87.6271 146.119 87.5925C146.179 87.5579 146.246 87.5358 146.315 87.5276C146.383 87.5183 146.452 87.5227 146.518 87.5405C146.585 87.5583 146.647 87.5892 146.701 87.6313C146.755 87.6734 146.8 87.7259 146.834 87.7857C146.867 87.8456 146.889 87.9115 146.896 87.9797C146.992 88.6555 147.111 89.3384 147.243 90.0133C147.291 90.1441 147.285 90.2886 147.226 90.4152C147.168 90.5417 147.062 90.6398 146.931 90.688C146.8 90.7362 146.655 90.7304 146.529 90.6721C146.402 90.6137 146.304 90.5074 146.256 90.3767L146.287 90.3577Z" fill="#D1E0E8"/>
<path opacity="0.8" d="M145.732 81.9967C145.686 81.9083 145.666 81.8089 145.673 81.7095C145.729 81.0698 145.801 80.4206 145.884 79.7647C145.967 79.1088 146.099 78.4404 146.239 77.7886C146.268 77.6528 146.35 77.5341 146.466 77.4585C146.583 77.3829 146.725 77.3567 146.861 77.3856C146.996 77.4146 147.115 77.4963 147.191 77.6128C147.266 77.7293 147.292 77.871 147.263 78.0068C147.129 78.6373 147.016 79.2786 146.925 79.9121C146.835 80.5456 146.765 81.1599 146.715 81.7805C146.715 81.8985 146.674 82.0128 146.599 82.1043C146.525 82.1958 146.421 82.2589 146.305 82.283C146.19 82.3072 146.07 82.2909 145.965 82.2369C145.86 82.1829 145.776 82.0946 145.729 81.9866L145.732 81.9967ZM148.272 72.1679C148.233 72.0969 148.211 72.0178 148.209 71.9369C148.206 71.8559 148.222 71.7755 148.257 71.7022C148.805 70.5018 149.433 69.3389 150.135 68.2212C150.209 68.1035 150.327 68.0202 150.463 67.9896C150.599 67.9589 150.741 67.9834 150.859 68.0576C150.976 68.1319 151.06 68.2498 151.09 68.3855C151.121 68.5212 151.096 68.6635 151.022 68.7812C150.344 69.8584 149.738 70.9796 149.209 72.1373C149.181 72.2006 149.141 72.2576 149.091 72.3051C149.041 72.3526 148.982 72.3895 148.917 72.4136C148.852 72.4377 148.783 72.4486 148.714 72.4455C148.645 72.4425 148.577 72.4256 148.515 72.3958C148.413 72.3467 148.329 72.2652 148.278 72.1638L148.272 72.1679ZM154.036 63.8102C153.982 63.712 153.962 63.5987 153.978 63.4877C153.994 63.3768 154.046 63.2741 154.126 63.1953C155.054 62.256 156.043 61.3794 157.087 60.5712C157.141 60.5295 157.202 60.4988 157.268 60.4809C157.333 60.4629 157.402 60.4581 157.469 60.4666C157.537 60.4751 157.602 60.4968 157.661 60.5305C157.72 60.5642 157.772 60.6092 157.814 60.6629C157.855 60.7166 157.886 60.7781 157.904 60.8437C157.922 60.9093 157.927 60.9777 157.918 61.0452C157.91 61.1127 157.888 61.1778 157.854 61.2369C157.82 61.296 157.775 61.3479 157.722 61.3896C156.716 62.1707 155.763 63.0163 154.867 63.9209C154.82 63.971 154.762 64.011 154.699 64.0385C154.636 64.066 154.567 64.0804 154.498 64.081C154.429 64.0816 154.36 64.0683 154.297 64.0418C154.233 64.0153 154.175 63.9763 154.127 63.927C154.093 63.8907 154.065 63.85 154.043 63.8062L154.036 63.8102ZM162.316 57.9305L162.302 57.9086C162.271 57.8466 162.253 57.779 162.249 57.7098C162.245 57.6407 162.255 57.5714 162.279 57.5062C162.302 57.441 162.338 57.3811 162.385 57.3302C162.432 57.2793 162.489 57.2384 162.552 57.21C163.744 56.6445 164.972 56.159 166.229 55.7565C166.294 55.7359 166.364 55.7283 166.432 55.7344C166.501 55.7404 166.568 55.7599 166.629 55.7917C166.69 55.8236 166.744 55.8672 166.788 55.9199C166.832 55.9727 166.866 56.0337 166.886 56.0994C166.907 56.1651 166.915 56.2343 166.909 56.3029C166.902 56.3715 166.883 56.4383 166.851 56.4994C166.819 56.5605 166.776 56.6147 166.723 56.6589C166.67 56.7032 166.609 56.7366 166.543 56.7573C165.331 57.1455 164.146 57.6145 162.996 58.161C162.876 58.2165 162.738 58.2232 162.612 58.1794C162.486 58.1357 162.383 58.0451 162.322 57.9264L162.316 57.9305ZM172.119 55.2484C172.085 55.1873 172.064 55.12 172.057 55.0505C172.05 54.9817 172.056 54.912 172.076 54.8457C172.096 54.7793 172.129 54.7177 172.173 54.6644C172.218 54.6111 172.272 54.5673 172.334 54.5356C172.395 54.5039 172.463 54.4849 172.532 54.4798C173.846 54.36 175.166 54.3276 176.485 54.3831C176.554 54.3859 176.621 54.4023 176.683 54.4313C176.746 54.4603 176.802 54.5012 176.848 54.5519C176.895 54.6025 176.931 54.6618 176.955 54.7264C176.978 54.791 176.989 54.8596 176.986 54.9284C176.983 54.9971 176.967 55.0646 176.938 55.127C176.909 55.1894 176.868 55.2454 176.817 55.292C176.766 55.3385 176.707 55.3747 176.642 55.3983C176.578 55.422 176.509 55.4326 176.44 55.4298C175.169 55.3765 173.895 55.408 172.628 55.5243C172.525 55.5346 172.422 55.5139 172.331 55.4647C172.24 55.4155 172.166 55.3402 172.119 55.2484ZM182.235 56.0909C182.164 55.9745 182.142 55.8347 182.173 55.7021C182.19 55.6348 182.219 55.5714 182.26 55.5157C182.302 55.4601 182.354 55.4133 182.413 55.3781C182.473 55.343 182.539 55.3203 182.608 55.3113C182.676 55.3024 182.746 55.3073 182.813 55.3259C184.089 55.6621 185.34 56.0824 186.56 56.5839C186.689 56.6366 186.791 56.7382 186.845 56.8663C186.898 56.9945 186.898 57.1386 186.846 57.267C186.793 57.3954 186.691 57.4977 186.563 57.5512C186.435 57.6047 186.29 57.6051 186.162 57.5524C184.992 57.0679 183.79 56.6621 182.565 56.3376C182.494 56.3212 182.428 56.2899 182.37 56.2459C182.312 56.2018 182.264 56.146 182.229 56.0821L182.235 56.0909Z" fill="#D1E0E8"/>
<path opacity="0.8" d="M191.468 60.3535C191.422 60.2686 191.4 60.1724 191.406 60.0758C191.412 59.9792 191.444 59.8861 191.501 59.8073C191.539 59.7497 191.589 59.7006 191.647 59.6627C191.705 59.6248 191.77 59.599 191.838 59.5869C191.907 59.5747 191.977 59.5765 192.044 59.592C192.112 59.6075 192.175 59.6365 192.231 59.6772C192.812 60.0842 193.384 60.5152 193.931 60.961C193.984 61.0045 194.029 61.0581 194.061 61.1188C194.094 61.1794 194.115 61.2459 194.122 61.3145C194.129 61.383 194.122 61.4523 194.102 61.5183C194.082 61.5844 194.05 61.6459 194.006 61.6993C193.963 61.7528 193.909 61.7971 193.848 61.8299C193.788 61.8626 193.721 61.8831 193.653 61.8902C193.584 61.8972 193.515 61.8907 193.449 61.8709C193.383 61.8512 193.321 61.8187 193.268 61.7752C192.741 61.3472 192.189 60.9284 191.627 60.537C191.56 60.4894 191.506 60.4264 191.468 60.3535Z" fill="#D1E0E8"/>
<path opacity="0.8" d="M203.884 82.6546C203.847 82.5873 203.826 82.5126 203.821 82.436C203.785 81.7537 203.724 81.0655 203.638 80.3865C203.629 80.3181 203.634 80.2487 203.653 80.1823C203.671 80.1158 203.702 80.0536 203.744 79.9992C203.83 79.8892 203.955 79.8176 204.093 79.8002C204.232 79.7828 204.371 79.8209 204.481 79.9063C204.591 79.9916 204.662 80.1172 204.68 80.2553C204.768 80.9572 204.831 81.674 204.87 82.3792C204.89 82.5043 204.863 82.6324 204.795 82.7391C204.727 82.8458 204.622 82.9237 204.5 82.9578C204.378 82.9919 204.247 82.9798 204.134 82.9239C204.02 82.868 203.931 82.7721 203.884 82.6546Z" fill="#D1E0E8"/>
<path opacity="0.8" d="M163.339 111.04C163.282 110.945 163.257 110.834 163.268 110.723C163.279 110.613 163.325 110.509 163.4 110.427C163.475 110.345 163.575 110.289 163.684 110.268C163.793 110.247 163.906 110.263 164.006 110.311C165.366 110.887 166.769 111.357 168.202 111.716C168.336 111.75 168.452 111.836 168.524 111.956C168.595 112.075 168.616 112.218 168.582 112.353C168.548 112.488 168.462 112.604 168.342 112.675C168.223 112.746 168.08 112.767 167.945 112.734C166.463 112.358 165.012 111.868 163.605 111.27C163.492 111.227 163.398 111.145 163.339 111.04ZM174.847 113.374C174.801 113.295 174.778 113.205 174.779 113.114C174.78 113.023 174.805 112.933 174.851 112.855C174.898 112.776 174.965 112.712 175.045 112.668C175.125 112.624 175.215 112.602 175.307 112.604C176.782 112.602 178.255 112.486 179.712 112.255C179.85 112.233 179.991 112.268 180.103 112.35C180.216 112.432 180.291 112.555 180.312 112.693C180.334 112.83 180.3 112.971 180.217 113.083C180.135 113.196 180.012 113.271 179.874 113.293C178.364 113.531 176.837 113.651 175.308 113.652C175.213 113.654 175.119 113.629 175.036 113.581C174.954 113.532 174.887 113.462 174.842 113.377L174.847 113.374ZM186.34 110.984L186.317 110.947C186.288 110.884 186.273 110.816 186.271 110.746C186.27 110.677 186.282 110.608 186.307 110.544C186.333 110.48 186.371 110.421 186.42 110.372C186.469 110.323 186.527 110.284 186.591 110.257C187.308 109.948 188.008 109.611 188.704 109.239C189.309 108.914 189.915 108.562 190.498 108.193C190.617 108.12 190.76 108.096 190.895 108.129C191.031 108.161 191.148 108.245 191.221 108.364C191.295 108.482 191.318 108.625 191.285 108.761C191.253 108.896 191.168 109.014 191.05 109.087C190.44 109.463 189.817 109.831 189.189 110.167C188.477 110.549 187.74 110.904 186.993 111.219C186.874 111.27 186.741 111.274 186.619 111.231C186.497 111.188 186.396 111.101 186.335 110.987L186.34 110.984ZM195.961 104.247C195.907 104.15 195.887 104.039 195.902 103.93C195.916 103.82 195.966 103.719 196.043 103.639C197.057 102.569 197.986 101.421 198.823 100.207C198.902 100.093 199.023 100.014 199.16 99.9882C199.297 99.9628 199.438 99.9927 199.553 100.071C199.668 100.15 199.747 100.271 199.772 100.408C199.798 100.545 199.768 100.687 199.689 100.802C198.819 102.06 197.855 103.251 196.803 104.362C196.757 104.413 196.7 104.454 196.637 104.483C196.574 104.512 196.506 104.528 196.436 104.529C196.367 104.531 196.298 104.519 196.234 104.493C196.169 104.468 196.111 104.43 196.062 104.381C196.019 104.344 195.983 104.3 195.956 104.25L195.961 104.247ZM202.148 94.2676C202.112 94.2027 202.091 94.1308 202.085 94.0568C202.08 93.9829 202.091 93.9087 202.117 93.8392C202.623 92.4541 203.022 91.0321 203.31 89.5859C203.337 89.4491 203.417 89.3285 203.532 89.2506C203.648 89.1728 203.79 89.144 203.927 89.1707C204.064 89.1974 204.184 89.2773 204.262 89.393C204.34 89.5086 204.369 89.6505 204.342 89.7873C204.043 91.2914 203.628 92.7704 203.103 94.2112C203.071 94.3091 203.011 94.3954 202.93 94.4589C202.849 94.5224 202.751 94.5603 202.648 94.5676C202.546 94.5749 202.443 94.5513 202.354 94.4999C202.265 94.4485 202.194 94.3716 202.149 94.2791L202.148 94.2676Z" fill="#B3E8D9"/>
<path opacity="0.8" d="M155.396 106.013C155.311 105.904 155.273 105.767 155.289 105.631C155.306 105.494 155.376 105.37 155.484 105.285C155.592 105.2 155.73 105.162 155.866 105.178C156.003 105.195 156.127 105.265 156.212 105.373C156.72 105.828 157.253 106.271 157.794 106.687C157.904 106.772 157.976 106.897 157.994 107.034C158.011 107.172 157.974 107.311 157.889 107.421C157.805 107.531 157.68 107.603 157.542 107.621C157.404 107.639 157.265 107.601 157.155 107.516C156.589 107.089 156.041 106.628 155.511 106.156C155.465 106.115 155.426 106.066 155.396 106.013Z" fill="#D1E0E8"/>
<path opacity="0.5" d="M161.598 86.0129C161.145 82.9798 161.71 79.8818 163.203 77.202C164.696 74.5222 167.034 72.4112 169.852 71.1982C172.67 69.9853 175.81 69.7386 178.782 70.4967C181.754 71.2548 184.391 72.975 186.282 75.389C188.172 77.8031 189.211 80.7752 189.234 83.8419C189.258 86.9086 188.266 89.8975 186.413 92.3424C184.559 94.7873 181.949 96.5507 178.989 97.3577C176.029 98.1646 172.886 97.9698 170.05 96.8035C169.191 96.4497 168.37 96.012 167.598 95.4968L167.562 95.4733L167.447 95.3957L168.339 94.0987C169.062 94.5957 169.836 95.0148 170.648 95.349C173.533 96.5318 176.759 96.5789 179.679 95.481C182.599 94.383 184.995 92.2212 186.387 89.4301C186.513 89.1737 186.633 88.9121 186.743 88.6444C187.467 86.8888 187.775 84.9899 187.644 83.096C187.512 81.2022 186.945 79.3645 185.986 77.7262C185.028 76.088 183.703 74.6935 182.116 73.6515C180.53 72.6096 178.723 71.9483 176.838 71.7193C174.953 71.4903 173.041 71.6997 171.249 72.3312C169.458 72.9628 167.837 73.9994 166.512 75.3602C165.187 76.721 164.195 78.3692 163.612 80.1763C163.029 81.9834 162.871 83.9005 163.151 85.7781L161.598 86.0129Z" fill="white"/>
</g>
<g clip-path="url(#clip1_24_7271)">
<path fill-rule="evenodd" clip-rule="evenodd" d="M182.228 172.415L71.5808 172.415C67.1221 172.415 63.3915 169.231 62.5725 164.863L55.0201 119.367C54.6562 116.637 55.3841 113.998 57.113 111.905C58.8418 109.812 61.3896 108.721 64.0284 108.721L189.78 108.721C192.419 108.721 194.967 109.903 196.696 111.905C198.425 113.998 199.152 116.637 198.698 119.276L191.145 164.772C190.417 169.231 186.686 172.415 182.228 172.415ZM190.599 99.6213L190.599 81.4228C190.599 76.4182 186.505 72.3235 181.5 72.3235L136.004 72.3235L136.004 67.7739C136.004 60.2215 129.907 54.125 122.355 54.125L76.8584 54.125C69.306 54.125 63.2095 60.2215 63.2095 67.7739L63.2095 99.6213L190.599 99.6213Z" fill="#336179"/>
</g>
<path d="M214.37 175.845C214.619 175.806 214.715 175.586 214.958 175.04C215.392 174.064 215.826 173.088 216.294 172.129C216.367 171.977 216.613 171.834 216.788 171.822C217.827 171.753 218.872 171.747 219.91 171.666C220.232 171.643 220.401 171.68 220.569 171.977C221.244 173.162 221.951 174.328 222.638 175.488C223.857 175.257 226.629 173.949 227.419 173.221C226.968 172.002 226.525 170.75 226.034 169.516C225.882 169.133 225.922 168.942 226.234 168.64C226.959 167.942 227.621 167.174 228.265 166.398C228.526 166.083 228.727 165.918 229.167 166.042C230.309 166.364 231.47 166.617 232.618 166.918C232.927 166.999 233.124 166.948 233.232 166.644C233.741 165.211 234.249 163.778 234.756 162.345C234.88 161.993 234.591 161.926 234.385 161.828C233.346 161.332 232.307 160.831 231.25 160.371C230.855 160.198 230.73 159.984 230.737 159.544C230.749 158.379 230.686 157.213 230.651 155.958L234.378 153.715C233.892 152.006 233.126 150.452 232.083 148.968L228.085 150.443C227.034 149.536 226.08 148.674 225.079 147.871C224.789 147.639 224.747 147.464 224.833 147.137C225.132 146.003 225.396 144.859 225.687 143.723C225.75 143.478 225.767 143.296 225.502 143.158C224.165 142.459 222.788 141.882 221.293 141.609C220.959 141.548 220.822 141.662 220.696 141.936C220.19 143.032 219.663 144.119 219.161 145.218C219.04 145.484 218.92 145.592 218.59 145.603C217.445 145.64 216.3 145.726 215.16 145.843C214.869 145.872 214.761 145.775 214.635 145.564C213.935 144.393 213.227 143.229 212.504 142.03C210.826 142.551 209.259 143.24 207.802 144.26L209.333 148.442L206.415 151.684C205.402 151.435 204.24 151.141 203.072 150.866C202.113 150.642 202.246 150.507 201.797 151.464C201.754 151.556 201.681 151.631 201.618 151.713L200.722 154.295C200.691 154.498 200.69 154.712 200.621 154.901C200.443 155.393 200.544 155.679 201.068 155.901C202.16 156.362 203.224 156.892 204.287 157.419C204.426 157.488 204.566 157.701 204.579 157.859C204.664 158.884 204.661 159.92 204.8 160.936C204.868 161.434 204.725 161.636 204.331 161.864C203.213 162.509 202.123 163.202 200.911 163.941L203.139 168.675C203.45 168.567 203.63 168.508 203.807 168.442C204.904 168.037 206.005 167.642 207.095 167.217C207.404 167.097 207.572 167.172 207.81 167.391C208.629 168.144 209.496 168.844 210.32 169.592C210.448 169.707 210.53 169.984 210.492 170.156C210.289 171.096 210.033 172.025 209.81 172.962C209.63 173.719 209.566 174.001 209.804 174.254L214.37 175.845ZM214.553 168.992C212.173 168.278 210.114 166.757 208.727 164.689C207.34 162.621 206.71 160.134 206.945 157.652C207.18 155.17 208.266 152.846 210.016 151.077C211.767 149.307 214.074 148.201 216.546 147.948C219.017 147.694 221.499 148.309 223.57 149.686C225.64 151.064 227.17 153.119 227.899 155.502C228.628 157.885 228.511 160.449 227.568 162.756C226.626 165.063 224.915 166.97 222.728 168.154C221.488 168.829 220.127 169.251 218.724 169.395C217.32 169.539 215.903 169.402 214.553 168.992Z" fill="#80D9C0"/>
<path d="M239.025 186.27C239.178 186.246 239.237 186.11 239.386 185.775C239.653 185.176 239.919 184.576 240.207 183.987C240.252 183.894 240.403 183.806 240.51 183.798C241.149 183.756 241.79 183.752 242.428 183.703C242.626 183.689 242.73 183.711 242.833 183.893C243.247 184.621 243.682 185.338 244.104 186.05C244.852 185.908 246.555 185.105 247.041 184.657C246.763 183.909 246.491 183.14 246.19 182.382C246.096 182.147 246.121 182.029 246.313 181.844C246.758 181.415 247.165 180.943 247.56 180.467C247.72 180.273 247.844 180.172 248.114 180.248C248.816 180.446 249.529 180.601 250.234 180.786C250.423 180.836 250.544 180.805 250.611 180.618C250.923 179.738 251.235 178.858 251.547 177.977C251.624 177.761 251.446 177.72 251.319 177.66C250.681 177.355 250.043 177.047 249.394 176.765C249.151 176.659 249.074 176.527 249.078 176.257C249.086 175.541 249.047 174.825 249.026 174.054L251.315 172.676C251.017 171.627 250.546 170.672 249.905 169.76L247.449 170.666C246.804 170.109 246.218 169.58 245.603 169.087C245.425 168.944 245.399 168.837 245.452 168.636C245.636 167.939 245.798 167.236 245.976 166.539C246.015 166.388 246.026 166.277 245.863 166.191C245.042 165.762 244.196 165.408 243.277 165.24C243.073 165.203 242.988 165.273 242.911 165.441C242.6 166.114 242.276 166.782 241.968 167.457C241.894 167.62 241.82 167.687 241.617 167.693C240.914 167.716 240.211 167.769 239.511 167.841C239.332 167.859 239.265 167.799 239.188 167.669C238.758 166.95 238.323 166.235 237.879 165.499C236.848 165.819 235.886 166.242 234.991 166.869L235.931 169.437L234.139 171.428C233.516 171.276 232.803 171.095 232.085 170.926C231.496 170.789 231.578 170.706 231.302 171.294C231.276 171.35 231.231 171.396 231.192 171.447L230.642 173.033C230.623 173.157 230.622 173.288 230.58 173.405C230.47 173.707 230.533 173.883 230.855 174.019C231.525 174.302 232.179 174.628 232.832 174.951C232.917 174.994 233.003 175.125 233.011 175.221C233.063 175.851 233.062 176.488 233.147 177.112C233.188 177.418 233.101 177.542 232.859 177.682C232.172 178.078 231.502 178.504 230.758 178.958L232.126 181.866C232.318 181.799 232.428 181.763 232.537 181.722C233.21 181.473 233.887 181.231 234.556 180.97C234.746 180.896 234.849 180.942 234.996 181.077C235.499 181.539 236.031 181.969 236.538 182.428C236.616 182.499 236.666 182.669 236.643 182.775C236.518 183.353 236.361 183.923 236.224 184.498C236.114 184.964 236.074 185.137 236.221 185.292L239.025 186.27ZM239.137 182.06C237.676 181.621 236.411 180.687 235.559 179.417C234.707 178.147 234.32 176.619 234.464 175.094C234.609 173.57 235.275 172.143 236.351 171.056C237.426 169.969 238.844 169.29 240.362 169.134C241.88 168.978 243.404 169.355 244.676 170.202C245.948 171.048 246.887 172.31 247.335 173.774C247.783 175.238 247.711 176.812 247.132 178.229C246.553 179.647 245.502 180.818 244.159 181.545C243.397 181.96 242.561 182.219 241.699 182.308C240.837 182.396 239.967 182.312 239.137 182.06Z" fill="#80D9C0"/>
<path opacity="0.8" d="M40.9532 129.606C40.9945 129.478 41.0761 129.368 41.1801 129.301C41.2841 129.233 41.4018 129.213 41.5075 129.245C41.6132 129.277 41.6982 129.358 41.7437 129.471C41.7893 129.584 41.7916 129.72 41.7503 129.847C41.4492 131.188 41.1893 132.548 40.978 133.897C40.9577 134.033 40.8924 134.16 40.7967 134.251C40.7009 134.343 40.5825 134.39 40.4674 134.384C40.3524 134.378 40.2501 134.318 40.1831 134.217C40.1162 134.117 40.09 133.984 40.1103 133.849C40.3264 132.475 40.5929 131.084 40.8988 129.718C40.9124 129.679 40.9308 129.641 40.9532 129.606ZM39.4812 140.369C39.5206 140.252 39.5944 140.149 39.6886 140.082C39.7827 140.015 39.8907 139.987 39.9918 140.005C40.0929 140.022 40.1801 140.083 40.2369 140.176C40.2936 140.27 40.3159 140.389 40.2995 140.51C40.2333 141.856 40.2121 143.218 40.2351 144.556C40.2361 144.621 40.2259 144.688 40.205 144.753C40.1841 144.817 40.1529 144.878 40.1132 144.931C40.0735 144.984 40.0261 145.029 39.9737 145.063C39.9213 145.097 39.8648 145.12 39.8077 145.13C39.7505 145.139 39.6937 145.136 39.6404 145.12C39.5872 145.103 39.5386 145.075 39.4974 145.035C39.4563 144.995 39.4233 144.946 39.4005 144.889C39.3776 144.832 39.3653 144.768 39.3643 144.703C39.3395 143.345 39.3634 141.952 39.4325 140.581C39.4352 140.509 39.4519 140.437 39.4812 140.369ZM39.8851 150.979C39.9182 150.903 39.9659 150.836 40.0241 150.782C40.0823 150.729 40.1492 150.691 40.2188 150.673C40.2755 150.654 40.3335 150.648 40.3893 150.655C40.4451 150.663 40.4976 150.683 40.5437 150.716C40.5897 150.749 40.6284 150.793 40.6574 150.846C40.6863 150.899 40.705 150.959 40.7122 151.024C40.7441 151.305 40.7799 151.588 40.8235 151.849C40.9683 152.873 41.1458 153.898 41.3447 154.901C41.3698 155.027 41.3491 155.166 41.2871 155.288C41.2252 155.409 41.127 155.503 41.0143 155.548C40.9016 155.594 40.7836 155.588 40.6862 155.531C40.5887 155.474 40.5199 155.371 40.4948 155.245C40.2914 154.224 40.1131 153.177 39.9637 152.135L39.8525 151.285C39.8374 151.186 39.8488 151.079 39.8851 150.979ZM42.1248 161.014C42.1745 160.894 42.26 160.795 42.3635 160.737C42.4172 160.706 42.4745 160.687 42.5319 160.681C42.5893 160.675 42.6457 160.682 42.6977 160.703C42.7496 160.724 42.7962 160.757 42.8344 160.8C42.8726 160.844 42.9018 160.898 42.9202 160.958C43.3114 162.161 43.7531 163.353 44.2279 164.503C44.2508 164.559 44.2633 164.622 44.2647 164.687C44.266 164.752 44.2561 164.819 44.2356 164.883C44.2152 164.947 44.1845 165.007 44.1453 165.06C44.1061 165.113 44.0593 165.158 44.0074 165.192C43.9555 165.226 43.8996 165.249 43.8429 165.259C43.7861 165.269 43.7297 165.265 43.6768 165.25C43.6239 165.234 43.5756 165.206 43.5345 165.167C43.4935 165.128 43.4605 165.078 43.4376 165.022C42.9533 163.85 42.5049 162.634 42.1062 161.409C42.0858 161.348 42.0769 161.282 42.0801 161.214C42.0833 161.146 42.0985 161.078 42.1248 161.014ZM46.1177 170.047C46.1545 169.964 46.208 169.89 46.2732 169.834C46.3217 169.792 46.3758 169.76 46.4325 169.741C46.4891 169.722 46.547 169.716 46.6028 169.723C46.6585 169.73 46.711 169.751 46.757 169.784C46.8031 169.816 46.8417 169.86 46.8707 169.913C47.4765 170.966 48.1313 171.993 48.8107 172.984C48.8789 173.08 48.9076 173.209 48.8904 173.343C48.8732 173.476 48.8115 173.603 48.719 173.696C48.6264 173.788 48.5106 173.838 48.3969 173.835C48.2832 173.832 48.181 173.776 48.1128 173.68C47.4184 172.675 46.7539 171.62 46.1378 170.547C46.0972 170.479 46.0746 170.397 46.0725 170.309C46.0703 170.222 46.0886 170.132 46.1255 170.05L46.1177 170.047ZM51.7173 177.717C51.7413 177.663 51.7715 177.614 51.807 177.569C51.8483 177.517 51.8972 177.474 51.9509 177.442C52.0045 177.41 52.0617 177.391 52.1192 177.385C52.1766 177.379 52.233 177.386 52.2851 177.406C52.3371 177.427 52.3837 177.46 52.4221 177.503C53.213 178.365 54.0499 179.198 54.908 179.979C54.9928 180.056 55.0431 180.174 55.0478 180.306C55.0525 180.438 55.0111 180.574 54.9329 180.683C54.8546 180.793 54.7459 180.867 54.6305 180.889C54.5152 180.912 54.4027 180.881 54.3179 180.803C53.4457 180.006 52.5919 179.159 51.785 178.281C51.726 178.213 51.6891 178.123 51.6794 178.023C51.6698 177.922 51.6878 177.817 51.731 177.722L51.7173 177.717ZM58.6909 183.722C58.6971 183.7 58.7053 183.677 58.7153 183.656C58.7478 183.597 58.7893 183.544 58.8376 183.502C58.8858 183.459 58.9398 183.428 58.9962 183.408C59.0526 183.389 59.1103 183.383 59.166 183.39C59.2217 183.397 59.2741 183.417 59.3202 183.449C60.269 184.085 61.2538 184.684 62.2511 185.23C62.3006 185.256 62.3438 185.294 62.3781 185.341C62.4125 185.389 62.4374 185.445 62.4512 185.507C62.4651 185.569 62.4676 185.635 62.4587 185.702C62.4499 185.768 62.4297 185.834 62.3995 185.894C62.3709 185.956 62.3325 186.012 62.2865 186.059C62.2406 186.105 62.1882 186.142 62.1323 186.166C62.0765 186.191 62.0183 186.202 61.9615 186.2C61.9046 186.198 61.8502 186.183 61.8014 186.155C60.7875 185.599 59.7926 184.992 58.8164 184.34C58.7354 184.28 58.6797 184.185 58.6591 184.073C58.6386 183.96 58.6547 183.838 58.7045 183.727L58.6909 183.722ZM66.7453 187.819C66.795 187.699 66.8804 187.6 66.9839 187.543C67.0874 187.485 67.201 187.474 67.3011 187.511C68.3626 187.9 69.4587 188.237 70.5567 188.521C70.6654 188.55 70.7544 188.629 70.804 188.742C70.8535 188.855 70.8597 188.992 70.821 189.123C70.7824 189.254 70.7021 189.368 70.5979 189.44C70.4937 189.513 70.374 189.538 70.2653 189.509C69.1478 189.218 68.0311 188.871 66.9483 188.479C66.8448 188.441 66.7639 188.354 66.7234 188.239C66.683 188.123 66.6862 187.987 66.7324 187.861L66.7453 187.819ZM75.5547 189.839C75.5981 189.735 75.6688 189.646 75.7555 189.587C75.8422 189.528 75.9399 189.502 76.0329 189.513C77.1697 189.631 78.3304 189.695 79.4861 189.701C79.5426 189.702 79.5971 189.715 79.6463 189.742C79.6956 189.768 79.7386 189.805 79.773 189.853C79.8075 189.9 79.8326 189.956 79.8469 190.018C79.8613 190.079 79.8646 190.145 79.8567 190.212C79.8488 190.278 79.8298 190.343 79.8009 190.404C79.7719 190.465 79.7336 190.521 79.688 190.567C79.6424 190.613 79.5905 190.65 79.5352 190.675C79.4799 190.699 79.4224 190.712 79.3658 190.711C78.1926 190.699 77.0086 190.631 75.8541 190.502C75.7977 190.497 75.7441 190.479 75.6966 190.449C75.6491 190.419 75.6086 190.377 75.5775 190.326C75.5465 190.274 75.5255 190.215 75.5159 190.151C75.5063 190.087 75.5082 190.02 75.5215 189.954C75.5342 189.916 75.5499 189.879 75.5683 189.844L75.5547 189.839ZM84.7661 189.682C84.8028 189.594 84.8591 189.517 84.9284 189.459C84.9977 189.402 85.0772 189.366 85.1577 189.357C86.3225 189.199 87.5056 188.991 88.6606 188.727C88.7176 188.714 88.7748 188.714 88.8289 188.728C88.883 188.741 88.9329 188.767 88.9759 188.804C89.0188 188.841 89.054 188.888 89.0792 188.943C89.1045 188.999 89.1194 189.061 89.1231 189.126C89.1269 189.191 89.1194 189.258 89.101 189.323C89.0827 189.388 89.0538 189.45 89.0162 189.505C88.9785 189.56 88.9328 189.607 88.8816 189.644C88.8303 189.68 88.7746 189.706 88.7176 189.719C87.5338 189.983 86.3305 190.191 85.1488 190.359C85.0912 190.368 85.0342 190.364 84.9811 190.346C84.9281 190.329 84.88 190.298 84.8398 190.257C84.7996 190.215 84.7681 190.164 84.7472 190.105C84.7263 190.046 84.7164 189.982 84.7182 189.916C84.7246 189.837 84.7456 189.759 84.7797 189.687L84.7661 189.682ZM94.0028 187.362C94.0329 187.29 94.0759 187.225 94.1286 187.173C94.1814 187.12 94.2423 187.081 94.3068 187.058C95.451 186.636 96.5998 186.16 97.7212 185.643C97.8324 185.592 97.951 185.592 98.0509 185.644C98.1508 185.695 98.2239 185.793 98.254 185.917C98.2841 186.04 98.2687 186.179 98.2114 186.303C98.154 186.427 98.0593 186.525 97.9481 186.576C96.807 187.104 95.6354 187.588 94.4704 188.018C94.414 188.04 94.3559 188.049 94.2993 188.045C94.2428 188.04 94.1892 188.022 94.1416 187.992C94.094 187.962 94.0534 187.92 94.0223 187.869C93.9912 187.817 93.9702 187.758 93.9607 187.694C93.9473 187.585 93.967 187.47 94.0165 187.367L94.0028 187.362Z" fill="#B3E8D9"/>
<path opacity="0.8" d="M147.47 176.626C147.422 176.501 147.416 176.364 147.454 176.246C147.492 176.128 147.571 176.038 147.673 175.996C147.775 175.954 147.893 175.964 147.999 176.023C148.106 176.083 148.193 176.186 148.241 176.311C148.851 177.542 149.506 178.763 150.192 179.944C150.261 180.062 150.291 180.202 150.274 180.333C150.257 180.464 150.195 180.576 150.102 180.643C150.008 180.711 149.891 180.729 149.776 180.693C149.66 180.657 149.557 180.571 149.487 180.452C148.79 179.249 148.121 178.001 147.499 176.748C147.484 176.708 147.475 176.667 147.47 176.626ZM153.105 185.914C153.061 185.798 153.054 185.672 153.085 185.56C153.115 185.449 153.182 185.359 153.272 185.309C153.361 185.259 153.467 185.251 153.57 185.288C153.673 185.325 153.765 185.403 153.829 185.508C154.625 186.595 155.466 187.666 156.326 188.691C156.369 188.742 156.403 188.8 156.427 188.863C156.452 188.926 156.465 188.993 156.468 189.059C156.471 189.126 156.462 189.191 156.443 189.25C156.424 189.31 156.394 189.363 156.356 189.406C156.318 189.45 156.271 189.483 156.22 189.504C156.168 189.525 156.112 189.533 156.055 189.528C155.998 189.523 155.941 189.505 155.888 189.475C155.834 189.445 155.785 189.404 155.743 189.354C154.869 188.315 154.01 187.218 153.2 186.109C153.157 186.051 153.124 185.985 153.105 185.914ZM160.1 193.902C160.078 193.822 160.072 193.739 160.084 193.661C160.095 193.583 160.124 193.512 160.166 193.453C160.198 193.403 160.239 193.362 160.287 193.332C160.335 193.303 160.389 193.286 160.446 193.282C160.502 193.279 160.56 193.289 160.616 193.311C160.671 193.334 160.724 193.37 160.77 193.415C160.972 193.614 161.178 193.811 161.377 193.986C162.134 194.69 162.917 195.375 163.703 196.029C163.802 196.111 163.874 196.232 163.902 196.365C163.93 196.499 163.913 196.633 163.854 196.74C163.796 196.846 163.7 196.915 163.588 196.933C163.477 196.95 163.358 196.913 163.26 196.831C162.459 196.166 161.661 195.465 160.889 194.75L160.267 194.16C160.193 194.092 160.135 194.002 160.1 193.902ZM168.159 200.286C168.122 200.162 168.126 200.031 168.17 199.921C168.192 199.863 168.224 199.812 168.265 199.771C168.306 199.73 168.355 199.701 168.408 199.684C168.461 199.667 168.518 199.664 168.576 199.673C168.633 199.683 168.689 199.707 168.741 199.742C169.803 200.43 170.897 201.078 171.99 201.672C172.043 201.701 172.092 201.742 172.134 201.792C172.176 201.842 172.21 201.9 172.235 201.962C172.259 202.025 172.273 202.091 172.276 202.157C172.279 202.223 172.271 202.287 172.252 202.346C172.233 202.405 172.204 202.458 172.166 202.502C172.129 202.545 172.083 202.578 172.032 202.599C171.981 202.62 171.926 202.629 171.869 202.624C171.813 202.62 171.756 202.602 171.703 202.573C170.588 201.967 169.474 201.305 168.393 200.605C168.339 200.571 168.291 200.525 168.25 200.47C168.21 200.415 168.179 200.353 168.159 200.286ZM176.949 204.788C176.925 204.701 176.921 204.61 176.936 204.525C176.947 204.462 176.969 204.403 177.001 204.352C177.033 204.302 177.074 204.261 177.122 204.231C177.17 204.202 177.223 204.185 177.28 204.181C177.336 204.178 177.394 204.188 177.45 204.21C178.583 204.647 179.739 205.032 180.89 205.374C181.004 205.406 181.108 205.488 181.178 205.603C181.249 205.717 181.281 205.855 181.267 205.985C181.254 206.115 181.195 206.227 181.105 206.296C181.015 206.365 180.9 206.386 180.786 206.354C179.615 206.011 178.434 205.61 177.28 205.165C177.205 205.137 177.136 205.087 177.079 205.021C177.022 204.954 176.98 204.873 176.957 204.786L176.949 204.788ZM186.129 207.22C186.114 207.164 186.106 207.106 186.105 207.049C186.105 206.982 186.115 206.918 186.137 206.86C186.159 206.801 186.191 206.75 186.232 206.709C186.273 206.668 186.321 206.638 186.374 206.622C186.427 206.605 186.484 206.601 186.542 206.611C187.699 206.782 188.873 206.902 190.032 206.968C190.146 206.975 190.26 207.035 190.347 207.135C190.433 207.234 190.487 207.366 190.495 207.5C190.503 207.634 190.465 207.76 190.39 207.85C190.314 207.94 190.207 207.987 190.092 207.98C188.913 207.91 187.716 207.79 186.536 207.616C186.448 207.6 186.363 207.553 186.292 207.482C186.221 207.41 186.169 207.317 186.142 207.215L186.129 207.22ZM195.328 207.494C195.318 207.472 195.311 207.45 195.305 207.427C195.293 207.361 195.292 207.294 195.303 207.23C195.314 207.167 195.336 207.108 195.367 207.058C195.399 207.007 195.44 206.966 195.487 206.936C195.535 206.907 195.589 206.889 195.645 206.885C196.782 206.782 197.924 206.627 199.043 206.423C199.098 206.412 199.155 206.414 199.212 206.43C199.268 206.445 199.323 206.473 199.373 206.513C199.423 206.552 199.466 206.602 199.501 206.659C199.536 206.716 199.562 206.78 199.576 206.846C199.593 206.912 199.598 206.979 199.592 207.045C199.586 207.11 199.568 207.171 199.54 207.225C199.512 207.279 199.474 207.325 199.429 207.359C199.383 207.393 199.331 207.416 199.276 207.425C198.139 207.632 196.983 207.786 195.814 207.895C195.714 207.899 195.611 207.861 195.524 207.786C195.437 207.712 195.372 207.606 195.342 207.489L195.328 207.494ZM204.165 205.604C204.128 205.48 204.132 205.349 204.176 205.239C204.22 205.13 204.301 205.049 204.402 205.015C205.472 204.649 206.536 204.22 207.567 203.75C207.67 203.703 207.789 203.709 207.898 203.765C208.008 203.822 208.099 203.924 208.151 204.05C208.204 204.176 208.213 204.316 208.178 204.438C208.143 204.56 208.066 204.654 207.963 204.701C206.912 205.178 205.825 205.611 204.738 205.989C204.633 206.025 204.516 206.008 204.412 205.944C204.307 205.879 204.224 205.772 204.18 205.645L204.165 205.604ZM212.28 201.626C212.248 201.517 212.247 201.404 212.277 201.303C212.307 201.203 212.367 201.121 212.446 201.071C213.403 200.447 214.345 199.766 215.247 199.043C215.291 199.008 215.342 198.984 215.397 198.973C215.451 198.963 215.509 198.965 215.565 198.98C215.622 198.995 215.677 199.023 215.727 199.062C215.776 199.101 215.821 199.15 215.856 199.206C215.892 199.263 215.918 199.325 215.934 199.391C215.95 199.457 215.955 199.524 215.949 199.588C215.943 199.653 215.925 199.714 215.898 199.768C215.871 199.822 215.834 199.868 215.789 199.903C214.87 200.632 213.908 201.326 212.93 201.952C212.883 201.984 212.83 202.004 212.774 202.01C212.718 202.017 212.66 202.01 212.604 201.989C212.548 201.969 212.494 201.936 212.446 201.893C212.398 201.849 212.358 201.796 212.326 201.736C212.312 201.698 212.301 201.66 212.294 201.621L212.28 201.626ZM219.337 195.703C219.31 195.612 219.305 195.516 219.322 195.428C219.34 195.34 219.379 195.262 219.436 195.204C220.241 194.348 221.029 193.441 221.76 192.509C221.796 192.463 221.841 192.427 221.891 192.403C221.942 192.379 221.997 192.368 222.053 192.37C222.11 192.371 222.167 192.386 222.222 192.413C222.276 192.44 222.327 192.479 222.371 192.527C222.415 192.575 222.451 192.632 222.478 192.694C222.504 192.756 222.521 192.822 222.526 192.889C222.532 192.955 222.526 193.021 222.509 193.082C222.492 193.142 222.465 193.197 222.429 193.243C221.676 194.194 220.872 195.114 220.06 195.988C220.021 196.031 219.974 196.064 219.922 196.084C219.869 196.103 219.813 196.11 219.756 196.103C219.698 196.096 219.641 196.076 219.588 196.044C219.535 196.011 219.487 195.967 219.446 195.915C219.402 195.85 219.369 195.776 219.35 195.699L219.337 195.703ZM225.05 188.084C225.029 188.009 225.021 187.932 225.029 187.858C225.037 187.784 225.059 187.715 225.095 187.656C225.718 186.608 226.311 185.515 226.857 184.407C226.911 184.298 227.003 184.223 227.113 184.2C227.223 184.177 227.341 184.207 227.443 184.284C227.544 184.361 227.62 184.479 227.653 184.611C227.686 184.743 227.674 184.879 227.62 184.989C227.066 186.118 226.461 187.232 225.827 188.3C225.797 188.352 225.758 188.396 225.711 188.428C225.664 188.46 225.611 188.48 225.555 188.486C225.499 188.493 225.441 188.486 225.385 188.465C225.328 188.445 225.274 188.412 225.227 188.368C225.148 188.293 225.091 188.19 225.064 188.079L225.05 188.084Z" fill="#B3E8D9"/>
<path opacity="0.8" d="M210.432 140.09C210.322 140.166 210.19 140.204 210.066 140.195C209.942 140.186 209.837 140.131 209.772 140.041C209.707 139.952 209.689 139.835 209.721 139.718C209.754 139.6 209.834 139.491 209.944 139.415C210.997 138.532 212.028 137.607 213.014 136.663C213.113 136.567 213.242 136.506 213.373 136.491C213.505 136.477 213.628 136.511 213.716 136.585C213.803 136.66 213.848 136.77 213.84 136.891C213.833 137.011 213.773 137.132 213.675 137.228C212.67 138.189 211.615 139.133 210.543 140.034C210.508 140.057 210.471 140.076 210.432 140.09ZM218.13 132.424C218.027 132.494 217.906 132.531 217.79 132.527C217.675 132.524 217.572 132.48 217.502 132.405C217.433 132.33 217.4 132.228 217.412 132.12C217.423 132.011 217.478 131.903 217.565 131.816C218.433 130.786 219.276 129.716 220.069 128.639C220.108 128.586 220.157 128.539 220.212 128.5C220.268 128.462 220.33 128.432 220.393 128.414C220.457 128.396 220.522 128.389 220.585 128.394C220.647 128.398 220.706 128.415 220.757 128.442C220.808 128.469 220.851 128.506 220.884 128.551C220.916 128.596 220.937 128.648 220.946 128.705C220.955 128.761 220.951 128.821 220.934 128.88C220.918 128.939 220.89 128.997 220.851 129.05C220.047 130.144 219.183 131.237 218.297 132.286C218.251 132.341 218.194 132.389 218.13 132.424ZM224.243 123.743C224.171 123.784 224.092 123.808 224.013 123.816C223.934 123.823 223.858 123.812 223.792 123.785C223.735 123.765 223.685 123.735 223.645 123.695C223.605 123.656 223.576 123.607 223.56 123.553C223.543 123.499 223.539 123.441 223.548 123.381C223.557 123.322 223.579 123.262 223.612 123.206C223.757 122.963 223.9 122.717 224.024 122.483C224.53 121.581 225.01 120.658 225.461 119.74C225.517 119.624 225.618 119.526 225.741 119.467C225.864 119.408 225.999 119.393 226.116 119.426C226.233 119.458 226.323 119.534 226.366 119.639C226.409 119.743 226.401 119.867 226.345 119.982C225.887 120.917 225.394 121.858 224.881 122.777L224.454 123.52C224.406 123.608 224.332 123.686 224.243 123.743ZM228.548 114.406C228.435 114.472 228.307 114.499 228.19 114.481C228.128 114.474 228.071 114.454 228.022 114.424C227.973 114.394 227.932 114.354 227.903 114.306C227.875 114.258 227.858 114.204 227.854 114.146C227.85 114.088 227.859 114.027 227.881 113.969C228.3 112.775 228.671 111.559 228.991 110.357C229.007 110.298 229.035 110.241 229.074 110.188C229.112 110.135 229.16 110.089 229.215 110.05C229.27 110.012 229.331 109.982 229.395 109.964C229.458 109.945 229.523 109.938 229.584 109.943C229.646 109.947 229.705 109.963 229.756 109.989C229.807 110.016 229.85 110.052 229.882 110.097C229.915 110.142 229.936 110.194 229.945 110.249C229.954 110.305 229.95 110.364 229.934 110.423C229.608 111.649 229.228 112.888 228.802 114.104C228.781 114.164 228.748 114.222 228.705 114.274C228.661 114.326 228.607 114.371 228.548 114.406ZM230.851 104.803C230.771 104.846 230.684 104.872 230.598 104.877C230.534 104.882 230.471 104.874 230.415 104.855C230.358 104.836 230.308 104.806 230.269 104.766C230.229 104.726 230.2 104.678 230.183 104.624C230.166 104.57 230.162 104.512 230.171 104.452C230.328 103.248 230.43 102.034 230.491 100.834C230.495 100.716 230.55 100.596 230.645 100.5C230.74 100.404 230.866 100.341 230.995 100.324C231.125 100.307 231.247 100.337 231.336 100.408C231.424 100.48 231.472 100.586 231.467 100.704C231.411 101.924 231.299 103.166 231.138 104.392C231.129 104.471 231.097 104.55 231.046 104.621C230.994 104.692 230.925 104.752 230.846 104.796L230.851 104.803ZM231.05 95.3083C230.998 95.3361 230.944 95.3574 230.889 95.3714C230.824 95.3878 230.759 95.3924 230.697 95.3851C230.636 95.3777 230.578 95.3584 230.529 95.3285C230.479 95.2985 230.439 95.2585 230.41 95.2107C230.381 95.163 230.364 95.1085 230.36 95.0506C230.254 93.8858 230.093 92.7162 229.885 91.5747C229.864 91.4615 229.896 91.3373 229.972 91.2294C230.048 91.1215 230.164 91.0387 230.292 90.9992C230.421 90.9597 230.552 90.9668 230.657 91.019C230.763 91.0711 230.833 91.1639 230.854 91.2771C231.064 92.4398 231.229 93.631 231.338 94.8188C231.344 94.9083 231.318 95.0024 231.265 95.0879C231.212 95.1734 231.134 95.2462 231.042 95.296L231.05 95.3083ZM229.147 86.3038C229.128 86.3181 229.108 86.3309 229.087 86.3419C229.026 86.3692 228.961 86.3856 228.897 86.3901C228.833 86.3947 228.77 86.3873 228.714 86.3684C228.657 86.3496 228.608 86.3195 228.567 86.2802C228.527 86.2409 228.498 86.193 228.481 86.1395C228.112 85.0581 227.692 83.985 227.231 82.9458C227.207 82.8953 227.196 82.839 227.197 82.7803C227.199 82.7216 227.213 82.6617 227.24 82.6041C227.266 82.5465 227.304 82.4923 227.352 82.4449C227.399 82.3975 227.455 82.3577 227.515 82.328C227.575 82.2962 227.64 82.275 227.705 82.2657C227.77 82.2563 227.834 82.2589 227.893 82.2735C227.952 82.288 228.005 82.3141 228.049 82.3501C228.093 82.3862 228.127 82.4316 228.149 82.4835C228.618 83.5398 229.041 84.6261 229.422 85.7366C229.45 85.8334 229.437 85.9427 229.385 86.0445C229.333 86.1464 229.246 86.234 229.139 86.2915L229.147 86.3038ZM225.227 78.1617C225.115 78.227 224.987 78.2539 224.87 78.2368C224.753 78.2197 224.656 78.1599 224.598 78.0698C223.99 77.1165 223.323 76.1836 222.623 75.292C222.553 75.2034 222.531 75.0864 222.56 74.9667C222.589 74.847 222.667 74.7344 222.777 74.6537C222.887 74.573 223.02 74.5307 223.147 74.5363C223.274 74.5418 223.384 74.5947 223.453 74.6833C224.165 75.5924 224.843 76.5459 225.466 77.514C225.525 77.607 225.537 77.7248 225.499 77.8416C225.461 77.9584 225.376 78.0645 225.263 78.1367L225.227 78.1617ZM219.448 71.2131C219.35 71.2698 219.24 71.2976 219.135 71.2921C219.03 71.2865 218.937 71.2479 218.87 71.1824C218.037 70.3995 217.153 69.6444 216.238 68.9389C216.194 68.904 216.159 68.86 216.135 68.8094C216.112 68.7588 216.101 68.7026 216.102 68.6441C216.103 68.5855 216.117 68.5257 216.143 68.468C216.169 68.4104 216.207 68.356 216.253 68.3081C216.3 68.2601 216.354 68.2195 216.414 68.1886C216.474 68.1576 216.538 68.137 216.603 68.1277C216.667 68.1185 216.731 68.1209 216.79 68.1348C216.848 68.1487 216.902 68.1738 216.946 68.2087C217.872 68.9299 218.772 69.7016 219.612 70.5047C219.654 70.5426 219.685 70.5893 219.705 70.6422C219.724 70.6951 219.731 70.753 219.725 70.8126C219.718 70.8721 219.699 70.9319 219.668 70.9886C219.637 71.0452 219.595 71.0974 219.544 71.1422C219.511 71.1644 219.476 71.1841 219.44 71.2009L219.448 71.2131ZM212.029 65.7516C211.946 65.7993 211.854 65.8267 211.764 65.8304C211.674 65.8342 211.589 65.8142 211.52 65.7729C210.498 65.1921 209.431 64.6399 208.353 64.1494C208.299 64.125 208.254 64.0901 208.219 64.0468C208.184 64.0036 208.16 63.9528 208.148 63.8973C208.137 63.8418 208.137 63.7827 208.151 63.7234C208.164 63.6642 208.19 63.6058 208.227 63.5518C208.263 63.4977 208.31 63.4491 208.364 63.4085C208.418 63.3679 208.478 63.3363 208.541 63.3153C208.605 63.2944 208.67 63.2846 208.733 63.2865C208.796 63.2884 208.856 63.302 208.909 63.3264C210.01 63.8343 211.093 64.3982 212.135 64.9813C212.186 65.009 212.229 65.0471 212.26 65.0933C212.292 65.1395 212.311 65.1929 212.318 65.2502C212.325 65.3075 212.319 65.3676 212.3 65.4269C212.281 65.4862 212.25 65.5434 212.208 65.5952C212.155 65.6536 212.092 65.7028 212.021 65.7394L212.029 65.7516ZM203.277 61.9953C203.209 62.034 203.136 62.0593 203.062 62.0692C202.988 62.0791 202.916 62.0734 202.851 62.0525C201.685 61.6939 200.483 61.3761 199.278 61.1066C199.159 61.0798 199.064 61.0078 199.016 60.9064C198.968 60.805 198.969 60.6826 199.02 60.566C199.071 60.4494 199.168 60.3482 199.288 60.2848C199.409 60.2213 199.544 60.2007 199.663 60.2275C200.891 60.4997 202.116 60.8251 203.303 61.1896C203.361 61.2062 203.413 61.2343 203.455 61.2721C203.498 61.31 203.529 61.3568 203.549 61.4098C203.568 61.4627 203.575 61.5208 203.569 61.5804C203.562 61.64 203.543 61.7 203.512 61.7567C203.457 61.8511 203.371 61.9309 203.269 61.9831L203.277 61.9953Z" fill="#B3E8D9"/>
<defs>
<clipPath id="clip0_24_7271">
<rect width="145.588" height="53.8676" fill="white" transform="translate(49.7427 50.4853)"/>
</clipPath>
<clipPath id="clip1_24_7271">
<rect width="145.588" height="78.6177" fill="white" transform="translate(54.1101 101.441)"/>
</clipPath>
</defs>
</svg>
