<svg width="527" height="382" viewBox="0 0 527 382" fill="none" xmlns="http://www.w3.org/2000/svg">
<g clip-path="url(#clip0_436_7602)">
<path d="M18.3137 112.679C25.2356 80.2063 46.1404 53.0304 75.8873 39.4377C87.473 34.1262 100.001 30.9109 112.927 29.9314C151.339 27.0544 192.051 45.1732 217.209 76.5192C232.008 94.9344 242.397 118.101 262.505 130.233C288.645 145.964 320.765 137.225 348.458 128.035C376.151 118.846 412.233 117.218 439.267 131.321C464.468 144.48 492.665 175.665 499.797 193.375C527.021 260.912 467.835 322.218 424.118 342.851C380.402 363.484 345.182 369.824 296.403 374.042C228.065 379.95 155.402 348.678 99.6941 304.215C46.6137 261.842 11.9438 193.948 16.0828 128.514C16.4389 123.165 17.1846 117.872 18.3137 112.679Z" fill="#007D5A" fill-opacity="0.08"/>
<g filter="url(#filter0_d_436_7602)">
<g filter="url(#filter1_di_436_7602)">
<path fill-rule="evenodd" clip-rule="evenodd" d="M453.495 55.3662C455.489 55.3662 457.301 56.3886 458.61 58.062C459.887 59.6941 460.681 61.9474 460.681 64.4391V327.402C460.681 329.894 460.681 334.144 460.681 336.474C458.213 336.474 455.489 336.474 453.496 336.474H79.6052C77.6117 336.474 74.8865 336.474 72.4195 336.474C72.4203 334.144 72.4195 329.894 72.4195 327.402V64.4391C72.4195 61.9474 71.978 58.3781 73.2545 56.746C74.5632 55.0717 77.6117 55.3662 79.6061 55.3662H453.495Z" fill="white"/>
</g>
<path opacity="0.3" fill-rule="evenodd" clip-rule="evenodd" d="M72.4189 57.7315C72.4189 56.2075 73.6544 54.9721 75.1784 54.9721H456.34C457.864 54.9721 459.1 56.2076 459.1 57.7316V71.923C459.1 73.447 457.864 74.6824 456.34 74.6824H75.1784C73.6544 74.6824 72.4189 73.447 72.4189 71.923V57.7315Z" fill="#C6C3B3"/>
<path d="M412.487 69.3677C414.648 69.3677 416.4 67.7335 416.4 65.7177C416.4 63.7019 414.648 62.0677 412.487 62.0677C410.325 62.0677 408.573 63.7019 408.573 65.7177C408.573 67.7335 410.325 69.3677 412.487 69.3677Z" fill="#70C38A"/>
<path d="M440.663 69.3677C442.825 69.3677 444.577 67.7335 444.577 65.7177C444.577 63.7019 442.825 62.0677 440.663 62.0677C438.502 62.0677 436.75 63.7019 436.75 65.7177C436.75 67.7335 438.502 69.3677 440.663 69.3677Z" fill="url(#paint0_linear_436_7602)"/>
<path d="M426.575 69.3677C428.737 69.3677 430.489 67.7335 430.489 65.7177C430.489 63.7019 428.737 62.0677 426.575 62.0677C424.414 62.0677 422.662 63.7019 422.662 65.7177C422.662 67.7335 424.414 69.3677 426.575 69.3677Z" fill="#C57F12"/>
<path d="M381.668 60.491H82.2052C80.9522 60.491 79.9365 61.1675 79.9365 62.0021V68.0466C79.9365 68.8812 80.9522 69.5577 82.2052 69.5577H381.668C382.921 69.5577 383.936 68.8812 383.936 68.0466V62.0021C383.936 61.1675 382.921 60.491 381.668 60.491Z" fill="white"/>
<rect width="384.503" height="212.565" rx="2.80538" transform="matrix(0.999997 0.00237393 -0.00266382 0.999996 74.5605 122.339)" fill="#F8F9F9"/>
<mask id="path-9-inside-1_436_7602" fill="white">
<path d="M72.5518 74.4463L157.65 74.6483L156.956 335.1L71.858 334.898L72.5518 74.4463Z"/>
</mask>
<path d="M72.5518 74.4463L157.65 74.6483L156.956 335.1L71.858 334.898L72.5518 74.4463Z" fill="white"/>
<path d="M157.256 74.6474L156.562 335.099L157.351 335.101L158.044 74.6492L157.256 74.6474Z" fill="#D8DCDE" mask="url(#path-9-inside-1_436_7602)"/>
<rect width="3.93085" height="3.88113" rx="1.94057" transform="matrix(0.999985 -0.00556232 0.00624152 0.999981 175.149 109.364)" fill="#80D9C0"/>
<path d="M181.831 110.544C181.831 110.226 181.904 109.94 182.051 109.688C182.2 109.435 182.401 109.239 182.654 109.098C182.91 108.955 183.189 108.883 183.492 108.883C183.838 108.883 184.145 108.969 184.414 109.141C184.685 109.31 184.882 109.55 185.004 109.862L184.363 109.862C184.278 109.69 184.161 109.562 184.012 109.478C183.862 109.394 183.689 109.351 183.492 109.351C183.277 109.351 183.085 109.4 182.916 109.496C182.748 109.593 182.615 109.732 182.519 109.913C182.425 110.094 182.378 110.304 182.379 110.544C182.379 110.785 182.425 110.995 182.519 111.176C182.616 111.357 182.749 111.498 182.917 111.598C183.086 111.694 183.278 111.743 183.493 111.743C183.689 111.743 183.863 111.701 184.012 111.617C184.162 111.532 184.279 111.405 184.363 111.233L185.004 111.233C184.883 111.545 184.686 111.785 184.415 111.954C184.147 112.122 183.839 112.206 183.493 112.206C183.187 112.206 182.908 112.136 182.655 111.995C182.402 111.852 182.201 111.653 182.051 111.401C181.904 111.148 181.831 110.862 181.831 110.544ZM186.673 112.221C186.43 112.221 186.21 112.166 186.013 112.057C185.816 111.945 185.662 111.789 185.55 111.589C185.437 111.386 185.381 111.152 185.381 110.887C185.381 110.625 185.438 110.392 185.554 110.19C185.669 109.987 185.827 109.831 186.026 109.722C186.226 109.613 186.449 109.558 186.695 109.558C186.942 109.558 187.165 109.613 187.365 109.722C187.565 109.832 187.722 109.988 187.838 110.19C187.953 110.393 188.011 110.626 188.011 110.888C188.011 111.15 187.952 111.382 187.833 111.585C187.715 111.788 187.553 111.945 187.347 112.058C187.144 112.167 186.919 112.221 186.673 112.221ZM186.673 111.758C186.81 111.758 186.938 111.725 187.057 111.66C187.178 111.594 187.276 111.496 187.351 111.365C187.426 111.234 187.464 111.075 187.463 110.888C187.463 110.7 187.427 110.543 187.356 110.415C187.284 110.284 187.189 110.186 187.07 110.12C186.951 110.054 186.824 110.022 186.686 110.022C186.549 110.022 186.421 110.054 186.303 110.12C186.187 110.185 186.095 110.283 186.027 110.415C185.958 110.542 185.924 110.7 185.924 110.887C185.924 111.165 185.994 111.38 186.135 111.533C186.278 111.683 186.458 111.758 186.673 111.758ZM191.585 109.56C191.788 109.56 191.969 109.602 192.128 109.686C192.29 109.771 192.417 109.896 192.507 110.061C192.601 110.226 192.648 110.426 192.648 110.66L192.648 112.181L192.119 112.181L192.119 110.739C192.119 110.509 192.061 110.332 191.946 110.211C191.83 110.086 191.672 110.023 191.473 110.023C191.273 110.023 191.114 110.085 190.995 110.21C190.88 110.332 190.822 110.508 190.822 110.739L190.823 112.18L190.294 112.18L190.294 110.739C190.294 110.508 190.236 110.332 190.12 110.21C190.005 110.085 189.847 110.023 189.648 110.023C189.448 110.023 189.289 110.085 189.17 110.21C189.055 110.331 188.997 110.508 188.997 110.738L188.998 112.18L188.464 112.18L188.463 109.601L188.997 109.601L188.997 109.896C189.084 109.79 189.195 109.707 189.329 109.648C189.463 109.589 189.607 109.559 189.76 109.559C189.966 109.559 190.15 109.603 190.312 109.691C190.474 109.778 190.599 109.904 190.687 110.07C190.764 109.914 190.886 109.791 191.051 109.7C191.217 109.607 191.395 109.56 191.585 109.56ZM193.785 109.982C193.876 109.863 193.999 109.763 194.155 109.682C194.311 109.601 194.487 109.561 194.684 109.561C194.908 109.561 195.113 109.617 195.297 109.73C195.484 109.839 195.631 109.993 195.737 110.193C195.843 110.393 195.896 110.622 195.896 110.881C195.896 111.14 195.843 111.372 195.737 111.578C195.631 111.781 195.485 111.94 195.298 112.056C195.114 112.168 194.909 112.224 194.685 112.224C194.488 112.224 194.313 112.185 194.16 112.107C194.007 112.026 193.883 111.926 193.786 111.807L193.786 113.408L193.253 113.407L193.252 109.603L193.785 109.603L193.785 109.982ZM195.353 110.881C195.353 110.703 195.316 110.55 195.241 110.422C195.169 110.291 195.072 110.193 194.951 110.127C194.832 110.059 194.704 110.024 194.567 110.024C194.433 110.024 194.305 110.058 194.183 110.127C194.065 110.196 193.968 110.295 193.893 110.426C193.821 110.557 193.785 110.712 193.786 110.89C193.786 111.068 193.822 111.224 193.893 111.358C193.968 111.489 194.065 111.589 194.184 111.657C194.305 111.726 194.433 111.76 194.567 111.761C194.705 111.761 194.833 111.726 194.951 111.658C195.073 111.586 195.17 111.483 195.241 111.349C195.316 111.215 195.353 111.059 195.353 110.881ZM196.882 108.719L196.883 112.182L196.35 112.182L196.348 108.719L196.882 108.719ZM199.872 110.831C199.872 110.928 199.866 111.015 199.853 111.093L197.883 111.092C197.899 111.298 197.975 111.464 198.112 111.589C198.25 111.713 198.418 111.776 198.618 111.776C198.905 111.776 199.108 111.656 199.226 111.416L199.802 111.416C199.724 111.653 199.582 111.848 199.376 112.001C199.173 112.15 198.921 112.225 198.618 112.225C198.372 112.225 198.15 112.17 197.953 112.061C197.76 111.949 197.607 111.793 197.495 111.593C197.385 111.39 197.331 111.156 197.331 110.891C197.331 110.626 197.384 110.393 197.49 110.194C197.599 109.991 197.75 109.835 197.943 109.726C198.14 109.617 198.364 109.562 198.617 109.562C198.861 109.562 199.077 109.615 199.268 109.722C199.458 109.828 199.606 109.978 199.713 110.171C199.819 110.361 199.872 110.581 199.872 110.831ZM199.315 110.662C199.312 110.466 199.241 110.308 199.104 110.19C198.967 110.071 198.797 110.012 198.594 110.011C198.41 110.011 198.252 110.071 198.121 110.189C197.99 110.305 197.912 110.462 197.887 110.662L199.315 110.662ZM200.944 110.04L200.945 111.468C200.945 111.564 200.967 111.635 201.011 111.678C201.057 111.719 201.135 111.739 201.245 111.739L201.572 111.739L201.572 112.184L201.151 112.184C200.911 112.184 200.727 112.128 200.599 112.015C200.471 111.903 200.407 111.72 200.407 111.468L200.406 110.04L200.102 110.04L200.102 109.605L200.406 109.605L200.406 108.964L200.944 108.964L200.944 109.605L201.571 109.605L201.572 110.041L200.944 110.04ZM204.352 110.832C204.352 110.929 204.346 111.016 204.334 111.094L202.363 111.094C202.379 111.3 202.456 111.465 202.593 111.59C202.73 111.715 202.899 111.777 203.098 111.777C203.385 111.777 203.588 111.657 203.707 111.417L204.282 111.417C204.204 111.654 204.063 111.849 203.857 112.002C203.654 112.152 203.401 112.227 203.099 112.227C202.852 112.227 202.631 112.172 202.434 112.063C202.24 111.95 202.088 111.794 201.975 111.594C201.866 111.392 201.811 111.158 201.811 110.892C201.811 110.627 201.864 110.395 201.97 110.195C202.079 109.992 202.23 109.836 202.424 109.727C202.62 109.618 202.845 109.564 203.098 109.564C203.341 109.564 203.558 109.617 203.748 109.723C203.939 109.829 204.087 109.979 204.193 110.172C204.299 110.363 204.352 110.583 204.352 110.832ZM203.795 110.664C203.792 110.467 203.722 110.31 203.585 110.191C203.447 110.072 203.277 110.013 203.074 110.013C202.89 110.013 202.733 110.072 202.602 110.191C202.471 110.306 202.393 110.464 202.368 110.663L203.795 110.664ZM204.625 110.884C204.625 110.625 204.678 110.396 204.784 110.196C204.893 109.996 205.039 109.842 205.224 109.733C205.411 109.621 205.618 109.565 205.846 109.565C206.014 109.565 206.18 109.602 206.342 109.677C206.507 109.749 206.639 109.846 206.735 109.967L206.735 108.722L207.273 108.723L207.274 112.186L206.736 112.186L206.736 111.797C206.649 111.922 206.527 112.025 206.371 112.106C206.218 112.187 206.042 112.228 205.842 112.228C205.618 112.227 205.412 112.171 205.224 112.059C205.04 111.943 204.894 111.784 204.784 111.581C204.678 111.375 204.625 111.143 204.625 110.884ZM206.736 110.894C206.736 110.716 206.698 110.562 206.623 110.431C206.551 110.3 206.456 110.2 206.338 110.131C206.219 110.062 206.091 110.028 205.954 110.028C205.816 110.028 205.689 110.062 205.57 110.131C205.451 110.196 205.355 110.295 205.28 110.426C205.208 110.553 205.172 110.706 205.172 110.884C205.173 111.062 205.208 111.218 205.28 111.352C205.355 111.486 205.452 111.589 205.571 111.661C205.692 111.73 205.82 111.764 205.954 111.764C206.092 111.764 206.22 111.73 206.338 111.661C206.457 111.593 206.552 111.493 206.623 111.362C206.698 111.228 206.736 111.072 206.736 110.894ZM211.17 109.234L209.602 109.234L209.602 110.165C209.668 110.078 209.764 110.004 209.892 109.945C210.023 109.886 210.162 109.856 210.309 109.856C210.571 109.856 210.783 109.913 210.945 110.025C211.111 110.137 211.228 110.279 211.297 110.451C211.368 110.623 211.404 110.804 211.404 110.994C211.404 111.225 211.359 111.431 211.269 111.612C211.182 111.789 211.049 111.93 210.871 112.033C210.697 112.136 210.481 112.187 210.225 112.187C209.885 112.187 209.612 112.102 209.406 111.934C209.2 111.765 209.077 111.542 209.036 111.265L209.556 111.265C209.59 111.411 209.667 111.528 209.785 111.616C209.904 111.7 210.052 111.742 210.23 111.742C210.451 111.742 210.617 111.675 210.726 111.541C210.838 111.407 210.894 111.229 210.894 111.008C210.894 110.783 210.838 110.611 210.726 110.493C210.613 110.371 210.448 110.31 210.229 110.31C210.077 110.31 209.947 110.349 209.841 110.427C209.738 110.502 209.663 110.605 209.617 110.736L209.111 110.736L209.11 108.765L211.17 108.766L211.17 109.234Z" fill="#68737D"/>
<rect width="3.93085" height="3.88113" rx="1.94057" transform="matrix(0.999985 -0.00556232 0.00624152 0.999981 219.093 109.12)" fill="#FFD7A4"/>
<path d="M226.485 108.684L226.486 111.936L225.953 111.936L225.952 108.683L226.485 108.684ZM228.412 109.316C228.615 109.316 228.796 109.358 228.955 109.443C229.117 109.527 229.244 109.652 229.334 109.817C229.425 109.983 229.47 110.182 229.47 110.416L229.471 111.937L228.942 111.937L228.941 110.496C228.941 110.265 228.884 110.088 228.768 109.967C228.653 109.842 228.495 109.779 228.295 109.779C228.096 109.779 227.937 109.842 227.818 109.966C227.703 110.088 227.645 110.264 227.645 110.495L227.646 111.937L227.112 111.937L227.111 109.358L227.645 109.358L227.645 109.653C227.732 109.547 227.843 109.464 227.977 109.405C228.114 109.346 228.259 109.316 228.412 109.316ZM231.75 109.738C231.841 109.62 231.964 109.52 232.12 109.439C232.276 109.358 232.452 109.317 232.649 109.317C232.874 109.318 233.078 109.374 233.262 109.486C233.449 109.595 233.596 109.75 233.702 109.95C233.808 110.149 233.861 110.379 233.861 110.638C233.862 110.897 233.809 111.129 233.703 111.335C233.597 111.538 233.45 111.697 233.263 111.812C233.079 111.924 232.874 111.981 232.65 111.98C232.453 111.98 232.279 111.941 232.126 111.863C231.973 111.782 231.848 111.682 231.751 111.564L231.752 113.164L231.218 113.164L231.217 109.359L231.75 109.359L231.75 109.738ZM233.319 110.637C233.319 110.46 233.281 110.307 233.206 110.179C233.134 110.048 233.038 109.949 232.916 109.884C232.797 109.815 232.669 109.781 232.532 109.781C232.398 109.781 232.27 109.815 232.148 109.884C232.03 109.952 231.933 110.052 231.858 110.183C231.787 110.314 231.751 110.468 231.751 110.646C231.751 110.824 231.787 110.98 231.859 111.114C231.933 111.245 232.03 111.345 232.149 111.414C232.271 111.483 232.398 111.517 232.533 111.517C232.67 111.517 232.798 111.483 232.916 111.414C233.038 111.343 233.135 111.24 233.206 111.105C233.281 110.971 233.319 110.815 233.319 110.637ZM234.848 109.735C234.926 109.604 235.028 109.502 235.156 109.431C235.287 109.356 235.442 109.318 235.62 109.318L235.62 109.871L235.484 109.871C235.275 109.871 235.116 109.924 235.007 110.03C234.901 110.136 234.848 110.32 234.848 110.582L234.848 111.939L234.315 111.939L234.314 109.36L234.847 109.36L234.848 109.735ZM237.155 111.982C236.912 111.982 236.692 111.927 236.495 111.818C236.298 111.706 236.144 111.549 236.031 111.35C235.919 111.147 235.863 110.913 235.863 110.648C235.863 110.386 235.92 110.153 236.036 109.95C236.151 109.748 236.309 109.592 236.508 109.483C236.708 109.373 236.931 109.319 237.177 109.319C237.424 109.319 237.647 109.374 237.847 109.483C238.046 109.592 238.204 109.748 238.32 109.951C238.435 110.154 238.493 110.386 238.493 110.649C238.493 110.911 238.434 111.143 238.315 111.346C238.197 111.549 238.035 111.706 237.829 111.818C237.626 111.927 237.401 111.982 237.155 111.982ZM237.155 111.519C237.292 111.519 237.42 111.486 237.538 111.42C237.66 111.355 237.758 111.257 237.833 111.126C237.908 110.995 237.945 110.836 237.945 110.648C237.945 110.461 237.909 110.304 237.838 110.176C237.766 110.045 237.671 109.946 237.552 109.881C237.433 109.815 237.305 109.782 237.168 109.782C237.031 109.782 236.903 109.815 236.784 109.88C236.669 109.946 236.577 110.044 236.508 110.175C236.44 110.303 236.406 110.461 236.406 110.648C236.406 110.926 236.476 111.141 236.616 111.294C236.76 111.444 236.939 111.519 237.155 111.519ZM239.984 109.32C240.184 109.32 240.36 109.361 240.513 109.442C240.669 109.52 240.791 109.618 240.878 109.737L240.878 109.362L241.416 109.362L241.417 111.983C241.417 112.22 241.367 112.431 241.268 112.615C241.168 112.802 241.023 112.949 240.833 113.055C240.645 113.161 240.421 113.214 240.159 113.214C239.809 113.214 239.519 113.131 239.288 112.965C239.057 112.803 238.926 112.582 238.895 112.301L239.424 112.301C239.464 112.435 239.55 112.543 239.681 112.624C239.815 112.708 239.974 112.75 240.159 112.75C240.374 112.751 240.547 112.685 240.678 112.554C240.812 112.423 240.879 112.233 240.879 111.983L240.879 111.553C240.788 111.674 240.665 111.777 240.509 111.861C240.356 111.942 240.182 111.983 239.985 111.983C239.76 111.983 239.555 111.927 239.367 111.814C239.183 111.699 239.036 111.54 238.927 111.337C238.821 111.131 238.768 110.898 238.768 110.639C238.768 110.38 238.821 110.151 238.927 109.951C239.036 109.752 239.182 109.597 239.366 109.488C239.554 109.376 239.76 109.32 239.984 109.32ZM240.879 110.649C240.878 110.472 240.841 110.317 240.766 110.186C240.694 110.055 240.599 109.955 240.48 109.886C240.362 109.818 240.234 109.783 240.097 109.783C239.959 109.783 239.831 109.818 239.713 109.886C239.594 109.952 239.498 110.05 239.423 110.181C239.351 110.309 239.315 110.462 239.315 110.639C239.315 110.817 239.351 110.973 239.423 111.108C239.498 111.242 239.595 111.345 239.713 111.416C239.835 111.485 239.963 111.52 240.097 111.52C240.235 111.52 240.362 111.485 240.481 111.417C240.6 111.348 240.695 111.248 240.766 111.117C240.841 110.983 240.879 110.827 240.879 110.649ZM242.576 109.737C242.654 109.606 242.757 109.505 242.885 109.433C243.016 109.358 243.17 109.321 243.348 109.321L243.348 109.873L243.213 109.873C243.004 109.873 242.844 109.926 242.735 110.032C242.629 110.138 242.576 110.322 242.576 110.584L242.577 111.942L242.043 111.941L242.042 109.363L242.576 109.363L242.576 109.737ZM246.128 110.59C246.128 110.687 246.122 110.774 246.109 110.852L244.139 110.852C244.154 111.058 244.231 111.223 244.368 111.348C244.506 111.473 244.674 111.535 244.874 111.535C245.161 111.535 245.364 111.415 245.482 111.175L246.058 111.175C245.98 111.412 245.838 111.607 245.632 111.76C245.429 111.91 245.177 111.985 244.874 111.984C244.627 111.984 244.406 111.93 244.209 111.82C244.016 111.708 243.863 111.552 243.75 111.352C243.641 111.149 243.587 110.915 243.586 110.65C243.586 110.385 243.639 110.153 243.745 109.953C243.854 109.75 244.006 109.594 244.199 109.485C244.396 109.376 244.62 109.321 244.873 109.322C245.116 109.322 245.333 109.375 245.524 109.481C245.714 109.587 245.862 109.737 245.968 109.93C246.075 110.121 246.128 110.341 246.128 110.59ZM245.571 110.422C245.568 110.225 245.497 110.067 245.36 109.949C245.223 109.83 245.053 109.771 244.85 109.771C244.666 109.771 244.508 109.83 244.377 109.948C244.246 110.064 244.168 110.221 244.143 110.421L245.571 110.422ZM247.515 111.985C247.312 111.985 247.129 111.949 246.967 111.878C246.808 111.803 246.681 111.703 246.588 111.578C246.494 111.45 246.444 111.308 246.438 111.152L246.99 111.152C247 111.261 247.051 111.353 247.145 111.428C247.241 111.5 247.362 111.536 247.505 111.536C247.655 111.536 247.77 111.508 247.851 111.452C247.936 111.393 247.978 111.318 247.978 111.227C247.978 111.131 247.931 111.059 247.837 111.012C247.747 110.965 247.602 110.914 247.402 110.857C247.208 110.804 247.051 110.753 246.929 110.703C246.807 110.653 246.701 110.576 246.611 110.473C246.523 110.37 246.48 110.235 246.48 110.066C246.48 109.929 246.52 109.804 246.601 109.692C246.682 109.576 246.798 109.486 246.947 109.42C247.1 109.355 247.275 109.322 247.472 109.322C247.765 109.322 248 109.397 248.178 109.547C248.359 109.694 248.456 109.895 248.469 110.151L247.935 110.151C247.926 110.035 247.879 109.943 247.795 109.875C247.71 109.806 247.597 109.772 247.453 109.772C247.313 109.772 247.205 109.798 247.13 109.851C247.055 109.904 247.018 109.974 247.018 110.062C247.018 110.13 247.043 110.188 247.093 110.235C247.143 110.282 247.204 110.319 247.275 110.347C247.347 110.372 247.453 110.405 247.594 110.446C247.781 110.496 247.934 110.547 248.052 110.6C248.174 110.65 248.279 110.725 248.366 110.825C248.453 110.925 248.499 111.057 248.502 111.223C248.502 111.369 248.461 111.501 248.38 111.616C248.299 111.731 248.184 111.822 248.034 111.887C247.887 111.953 247.714 111.985 247.515 111.985ZM249.94 111.986C249.737 111.986 249.555 111.95 249.392 111.878C249.233 111.803 249.107 111.704 249.013 111.579C248.919 111.451 248.869 111.309 248.863 111.153L249.415 111.153C249.425 111.262 249.476 111.354 249.57 111.429C249.667 111.501 249.787 111.537 249.93 111.537C250.08 111.537 250.196 111.509 250.277 111.453C250.361 111.393 250.403 111.319 250.403 111.228C250.403 111.131 250.356 111.06 250.262 111.013C250.172 110.966 250.027 110.914 249.827 110.858C249.634 110.805 249.476 110.754 249.354 110.704C249.233 110.654 249.127 110.577 249.036 110.474C248.949 110.371 248.905 110.235 248.905 110.067C248.905 109.93 248.945 109.805 249.026 109.693C249.108 109.577 249.223 109.487 249.373 109.421C249.526 109.356 249.7 109.323 249.897 109.323C250.19 109.323 250.426 109.398 250.604 109.548C250.785 109.695 250.881 109.896 250.894 110.152L250.36 110.152C250.351 110.036 250.304 109.944 250.22 109.876C250.136 109.807 250.022 109.773 249.878 109.772C249.738 109.772 249.63 109.799 249.555 109.852C249.481 109.905 249.443 109.975 249.443 110.062C249.443 110.131 249.468 110.189 249.518 110.236C249.568 110.282 249.629 110.32 249.701 110.348C249.772 110.373 249.879 110.406 250.019 110.446C250.206 110.496 250.359 110.548 250.478 110.601C250.599 110.651 250.704 110.726 250.791 110.826C250.879 110.926 250.924 111.058 250.927 111.224C250.927 111.37 250.887 111.501 250.806 111.617C250.725 111.732 250.609 111.823 250.459 111.888C250.313 111.954 250.14 111.986 249.94 111.986ZM252.795 111.22C253.094 110.961 253.33 110.749 253.501 110.583C253.676 110.415 253.821 110.24 253.936 110.059C254.052 109.878 254.109 109.697 254.109 109.516C254.109 109.329 254.064 109.183 253.973 109.076C253.886 108.97 253.747 108.917 253.557 108.917C253.373 108.917 253.229 108.976 253.126 109.095C253.026 109.21 252.973 109.366 252.967 109.563L252.452 109.563C252.462 109.207 252.568 108.936 252.77 108.748C252.976 108.558 253.237 108.463 253.552 108.463C253.892 108.463 254.157 108.557 254.348 108.744C254.541 108.932 254.638 109.181 254.638 109.493C254.638 109.718 254.58 109.935 254.465 110.144C254.353 110.35 254.217 110.535 254.058 110.7C253.902 110.863 253.702 111.051 253.459 111.267L253.249 111.454L254.732 111.454L254.732 111.899L252.458 111.898L252.458 111.51L252.795 111.22Z" fill="#68737D"/>
<rect width="3.93085" height="3.88113" rx="1.94057" transform="matrix(0.999985 -0.00556232 0.00624152 0.999981 262.035 108.881)" fill="#92C9EB"/>
<path d="M269.427 108.459L269.429 111.712L268.895 111.712L268.894 108.459L269.427 108.459ZM271.355 109.092C271.557 109.092 271.738 109.134 271.898 109.218C272.06 109.303 272.186 109.428 272.277 109.593C272.367 109.758 272.413 109.958 272.413 110.192L272.413 111.713L271.884 111.713L271.884 110.271C271.884 110.041 271.826 109.864 271.71 109.743C271.595 109.618 271.437 109.555 271.238 109.555C271.038 109.555 270.879 109.617 270.76 109.742C270.645 109.864 270.587 110.04 270.587 110.271L270.588 111.713L270.054 111.712L270.054 109.134L270.587 109.134L270.587 109.429C270.674 109.323 270.785 109.24 270.919 109.181C271.057 109.121 271.202 109.092 271.355 109.092ZM272.841 110.422C272.841 110.156 272.894 109.924 273 109.724C273.109 109.521 273.258 109.366 273.449 109.256C273.639 109.147 273.857 109.093 274.104 109.093C274.416 109.093 274.673 109.168 274.876 109.318C275.082 109.464 275.221 109.675 275.293 109.95L274.717 109.949C274.67 109.822 274.596 109.722 274.493 109.65C274.39 109.578 274.26 109.542 274.104 109.542C273.886 109.542 273.711 109.62 273.58 109.776C273.452 109.929 273.388 110.144 273.388 110.422C273.388 110.699 273.452 110.916 273.58 111.072C273.712 111.228 273.886 111.306 274.105 111.306C274.414 111.307 274.618 111.171 274.718 110.9L275.293 110.9C275.219 111.162 275.078 111.371 274.872 111.527C274.666 111.68 274.411 111.756 274.105 111.756C273.858 111.756 273.64 111.701 273.45 111.592C273.259 111.479 273.109 111.323 273 111.124C272.894 110.921 272.841 110.687 272.841 110.422ZM276.869 111.757C276.626 111.757 276.406 111.702 276.209 111.593C276.013 111.48 275.858 111.324 275.746 111.125C275.633 110.922 275.577 110.688 275.577 110.422C275.577 110.16 275.635 109.928 275.75 109.725C275.865 109.522 276.023 109.366 276.222 109.257C276.422 109.148 276.645 109.094 276.892 109.094C277.138 109.094 277.361 109.148 277.561 109.258C277.761 109.367 277.918 109.523 278.034 109.726C278.149 109.929 278.207 110.161 278.207 110.423C278.207 110.685 278.148 110.918 278.03 111.121C277.911 111.323 277.749 111.481 277.543 111.593C277.34 111.702 277.116 111.757 276.869 111.757ZM276.869 111.293C277.006 111.293 277.134 111.261 277.253 111.195C277.374 111.13 277.473 111.031 277.547 110.9C277.622 110.769 277.66 110.61 277.66 110.423C277.66 110.236 277.624 110.078 277.552 109.95C277.48 109.819 277.385 109.721 277.266 109.655C277.148 109.59 277.02 109.557 276.882 109.557C276.745 109.557 276.617 109.59 276.499 109.655C276.383 109.721 276.291 109.819 276.223 109.95C276.154 110.078 276.12 110.235 276.12 110.423C276.12 110.7 276.19 110.916 276.331 111.069C276.474 111.218 276.654 111.293 276.869 111.293ZM281.781 109.095C281.984 109.095 282.165 109.138 282.324 109.222C282.486 109.306 282.613 109.431 282.703 109.596C282.797 109.762 282.844 109.962 282.844 110.196L282.844 111.717L282.316 111.716L282.315 110.275C282.315 110.044 282.257 109.868 282.142 109.746C282.026 109.621 281.869 109.559 281.669 109.559C281.469 109.559 281.31 109.621 281.192 109.746C281.076 109.867 281.019 110.044 281.019 110.274L281.019 111.716L280.49 111.716L280.49 110.274C280.49 110.043 280.432 109.867 280.316 109.745C280.201 109.621 280.043 109.558 279.844 109.558C279.644 109.558 279.485 109.62 279.366 109.745C279.251 109.867 279.193 110.043 279.193 110.274L279.194 111.715L278.66 111.715L278.659 109.136L279.193 109.137L279.193 109.431C279.28 109.325 279.391 109.243 279.525 109.184C279.659 109.124 279.803 109.095 279.956 109.095C280.162 109.095 280.346 109.139 280.508 109.226C280.67 109.313 280.795 109.44 280.883 109.605C280.961 109.449 281.082 109.326 281.248 109.236C281.413 109.142 281.591 109.095 281.781 109.095ZM283.719 108.796C283.622 108.796 283.541 108.764 283.476 108.698C283.41 108.633 283.377 108.551 283.377 108.455C283.377 108.358 283.41 108.277 283.475 108.211C283.541 108.146 283.622 108.113 283.719 108.113C283.812 108.113 283.892 108.146 283.958 108.212C284.023 108.277 284.056 108.358 284.056 108.455C284.056 108.552 284.023 108.633 283.958 108.698C283.892 108.764 283.813 108.796 283.719 108.796ZM283.981 109.138L283.982 111.717L283.449 111.717L283.448 109.138L283.981 109.138ZM285.908 109.097C286.111 109.097 286.292 109.139 286.451 109.223C286.613 109.308 286.74 109.432 286.83 109.598C286.921 109.763 286.966 109.963 286.966 110.197L286.967 111.718L286.438 111.718L286.437 110.276C286.437 110.045 286.379 109.869 286.264 109.747C286.148 109.623 285.991 109.56 285.791 109.56C285.592 109.56 285.432 109.622 285.314 109.747C285.199 109.869 285.141 110.045 285.141 110.276L285.141 111.717L284.608 111.717L284.607 109.138L285.141 109.139L285.141 109.433C285.228 109.327 285.339 109.245 285.473 109.185C285.61 109.126 285.755 109.097 285.908 109.097ZM288.611 109.098C288.81 109.098 288.987 109.138 289.139 109.219C289.296 109.298 289.417 109.396 289.505 109.514L289.505 109.14L290.043 109.14L290.044 111.761C290.044 111.998 289.994 112.209 289.894 112.393C289.794 112.58 289.649 112.727 289.459 112.833C289.272 112.939 289.047 112.992 288.785 112.991C288.436 112.991 288.145 112.909 287.915 112.743C287.684 112.581 287.552 112.359 287.521 112.078L288.05 112.079C288.091 112.213 288.176 112.32 288.308 112.402C288.442 112.486 288.601 112.528 288.785 112.528C289 112.528 289.173 112.463 289.304 112.332C289.439 112.201 289.506 112.01 289.505 111.761L289.505 111.33C289.415 111.452 289.292 111.555 289.136 111.639C288.983 111.72 288.808 111.761 288.612 111.761C288.387 111.76 288.181 111.704 287.994 111.592C287.81 111.476 287.663 111.317 287.554 111.114C287.447 110.908 287.394 110.676 287.394 110.417C287.394 110.158 287.447 109.929 287.553 109.729C287.662 109.529 287.809 109.375 287.993 109.266C288.18 109.154 288.386 109.098 288.611 109.098ZM289.505 110.427C289.505 110.249 289.467 110.095 289.392 109.964C289.321 109.833 289.225 109.733 289.107 109.664C288.988 109.595 288.86 109.561 288.723 109.561C288.586 109.561 288.458 109.595 288.339 109.664C288.221 109.729 288.124 109.828 288.049 109.959C287.978 110.086 287.942 110.239 287.942 110.417C287.942 110.595 287.978 110.751 288.05 110.885C288.125 111.019 288.221 111.122 288.34 111.194C288.462 111.263 288.59 111.297 288.724 111.297C288.861 111.297 288.989 111.263 289.107 111.194C289.226 111.126 289.321 111.026 289.393 110.895C289.468 110.761 289.505 110.605 289.505 110.427ZM291.669 108.794L291.669 108.308L292.643 108.308L292.644 111.72L292.106 111.72L292.105 108.795L291.669 108.794Z" fill="#68737D"/>
<rect width="0.485142" height="10.1825" transform="matrix(0.999985 -0.00556232 0.00624152 0.999981 299.959 105.519)" fill="#D8DCDE"/>
<rect width="3.93085" height="3.88113" rx="1.94057" transform="matrix(0.999985 -0.00556232 0.00624152 0.999981 306.881 108.632)" fill="#547B8E"/>
<path d="M315.654 108.202L315.654 108.637L314.273 108.636L314.274 109.596L315.35 109.596L315.35 110.031L314.274 110.031L314.274 111.454L313.741 111.454L313.74 108.201L315.654 108.202ZM318.409 108.877L318.41 111.455L317.877 111.455L317.876 111.151C317.792 111.257 317.682 111.341 317.544 111.403C317.41 111.463 317.267 111.492 317.114 111.492C316.911 111.492 316.728 111.45 316.566 111.366C316.407 111.281 316.281 111.157 316.187 110.991C316.096 110.826 316.051 110.626 316.051 110.392L316.05 108.876L316.579 108.876L316.58 110.313C316.58 110.544 316.638 110.721 316.753 110.846C316.869 110.968 317.026 111.029 317.226 111.029C317.426 111.029 317.583 110.968 317.699 110.847C317.817 110.722 317.876 110.544 317.876 110.313L317.876 108.876L318.409 108.877ZM320.34 108.835C320.542 108.835 320.723 108.877 320.882 108.962C321.045 109.046 321.171 109.171 321.262 109.336C321.352 109.501 321.398 109.701 321.398 109.935L321.398 111.456L320.869 111.456L320.869 110.015C320.869 109.784 320.811 109.607 320.695 109.486C320.58 109.361 320.422 109.298 320.223 109.298C320.023 109.298 319.864 109.361 319.745 109.485C319.63 109.607 319.572 109.783 319.572 110.014L319.573 111.456L319.039 111.455L319.038 108.877L319.572 108.877L319.572 109.172C319.659 109.066 319.77 108.983 319.904 108.924C320.042 108.865 320.187 108.835 320.34 108.835ZM321.826 110.165C321.826 109.899 321.879 109.667 321.985 109.467C322.094 109.265 322.243 109.109 322.434 109C322.624 108.89 322.842 108.836 323.089 108.836C323.401 108.836 323.658 108.911 323.861 109.061C324.067 109.208 324.206 109.418 324.278 109.693L323.702 109.693C323.655 109.565 323.58 109.465 323.477 109.393C323.375 109.321 323.245 109.285 323.089 109.285C322.871 109.285 322.696 109.363 322.565 109.519C322.437 109.672 322.373 109.887 322.373 110.165C322.373 110.443 322.437 110.659 322.565 110.815C322.696 110.971 322.871 111.05 323.09 111.05C323.399 111.05 323.603 110.914 323.703 110.643L324.278 110.643C324.203 110.905 324.063 111.114 323.857 111.27C323.651 111.423 323.396 111.499 323.09 111.499C322.843 111.499 322.625 111.444 322.434 111.335C322.244 111.223 322.094 111.066 321.985 110.867C321.879 110.664 321.826 110.43 321.826 110.165ZM325.357 109.314L325.358 110.741C325.358 110.838 325.38 110.908 325.423 110.952C325.47 110.993 325.548 111.013 325.657 111.013L325.985 111.013L325.985 111.458L325.564 111.458C325.324 111.458 325.14 111.401 325.012 111.289C324.884 111.177 324.82 110.994 324.819 110.741L324.819 109.314L324.515 109.314L324.515 108.879L324.819 108.879L324.819 108.237L325.357 108.238L325.357 108.879L325.984 108.879L325.984 109.314L325.357 109.314ZM326.673 108.538C326.576 108.538 326.495 108.505 326.429 108.439C326.364 108.374 326.331 108.293 326.331 108.196C326.331 108.099 326.363 108.018 326.429 107.953C326.494 107.887 326.576 107.854 326.672 107.854C326.766 107.854 326.845 107.887 326.911 107.953C326.977 108.018 327.009 108.099 327.009 108.196C327.009 108.293 326.977 108.374 326.911 108.439C326.846 108.505 326.766 108.538 326.673 108.538ZM326.935 108.879L326.936 111.458L326.402 111.458L326.401 108.879L326.935 108.879ZM328.68 111.501C328.437 111.501 328.217 111.446 328.02 111.337C327.823 111.224 327.669 111.068 327.557 110.869C327.444 110.666 327.388 110.432 327.388 110.167C327.388 109.904 327.445 109.672 327.561 109.469C327.676 109.266 327.834 109.111 328.033 109.001C328.233 108.892 328.456 108.838 328.702 108.838C328.949 108.838 329.172 108.893 329.372 109.002C329.572 109.111 329.729 109.267 329.845 109.47C329.96 109.673 330.018 109.905 330.018 110.167C330.018 110.429 329.959 110.662 329.84 110.865C329.722 111.067 329.56 111.225 329.354 111.337C329.151 111.446 328.926 111.501 328.68 111.501ZM328.68 111.037C328.817 111.037 328.945 111.005 329.064 110.939C329.185 110.874 329.283 110.776 329.358 110.645C329.433 110.514 329.471 110.354 329.47 110.167C329.47 109.98 329.434 109.822 329.363 109.694C329.291 109.563 329.196 109.465 329.077 109.4C328.958 109.334 328.831 109.301 328.693 109.301C328.556 109.301 328.428 109.334 328.31 109.399C328.194 109.465 328.102 109.563 328.034 109.694C327.965 109.822 327.931 109.979 327.931 110.167C327.931 110.444 328.001 110.66 328.142 110.813C328.285 110.962 328.465 111.037 328.68 111.037ZM331.771 108.839C331.974 108.839 332.155 108.881 332.314 108.965C332.477 109.05 332.603 109.174 332.694 109.34C332.784 109.505 332.829 109.705 332.829 109.939L332.83 111.46L332.301 111.46L332.301 110.018C332.301 109.787 332.243 109.611 332.127 109.489C332.012 109.365 331.854 109.302 331.655 109.302C331.455 109.302 331.296 109.364 331.177 109.489C331.062 109.611 331.004 109.787 331.004 110.018L331.005 111.459L330.471 111.459L330.47 108.88L331.004 108.881L331.004 109.176C331.091 109.069 331.202 108.987 331.336 108.928C331.473 108.868 331.618 108.839 331.771 108.839ZM333.258 110.159C333.257 109.9 333.31 109.671 333.416 109.471C333.526 109.272 333.672 109.117 333.856 109.008C334.043 108.896 334.249 108.84 334.474 108.84C334.677 108.84 334.853 108.88 335.003 108.962C335.156 109.04 335.277 109.138 335.368 109.257L335.368 108.882L335.906 108.882L335.907 111.461L335.369 111.461L335.369 111.077C335.278 111.199 335.155 111.3 334.999 111.381C334.843 111.462 334.665 111.503 334.465 111.503C334.244 111.503 334.041 111.446 333.857 111.334C333.673 111.218 333.526 111.059 333.417 110.856C333.311 110.651 333.258 110.418 333.258 110.159ZM335.368 110.169C335.368 109.991 335.331 109.837 335.256 109.706C335.184 109.575 335.089 109.475 334.97 109.406C334.852 109.337 334.724 109.303 334.586 109.303C334.449 109.303 334.321 109.337 334.203 109.406C334.084 109.471 333.987 109.57 333.913 109.701C333.841 109.829 333.805 109.981 333.805 110.159C333.805 110.337 333.841 110.493 333.913 110.627C333.988 110.761 334.085 110.864 334.203 110.936C334.325 111.005 334.453 111.039 334.587 111.039C334.724 111.039 334.852 111.005 334.971 110.937C335.089 110.868 335.184 110.768 335.256 110.637C335.331 110.503 335.368 110.347 335.368 110.169ZM337.065 107.998L337.067 111.461L336.533 111.461L336.532 107.998L337.065 107.998ZM338.753 108.893C338.772 108.602 338.882 108.376 339.085 108.214C339.291 108.052 339.553 107.971 339.871 107.971C340.09 107.971 340.278 108.01 340.437 108.088C340.597 108.166 340.717 108.272 340.798 108.407C340.879 108.541 340.92 108.692 340.92 108.861C340.92 109.054 340.868 109.219 340.766 109.357C340.663 109.494 340.539 109.586 340.396 109.633L340.396 109.651C340.58 109.708 340.724 109.811 340.827 109.96C340.93 110.107 340.981 110.296 340.981 110.527C340.981 110.711 340.939 110.875 340.855 111.018C340.771 111.162 340.646 111.275 340.481 111.36C340.315 111.441 340.117 111.481 339.886 111.481C339.549 111.481 339.272 111.395 339.053 111.223C338.838 111.049 338.722 110.799 338.707 110.474L339.221 110.475C339.234 110.64 339.298 110.776 339.413 110.882C339.529 110.985 339.685 111.036 339.882 111.036C340.072 111.037 340.219 110.985 340.321 110.882C340.424 110.776 340.476 110.64 340.476 110.475C340.476 110.257 340.405 110.102 340.265 110.012C340.128 109.918 339.915 109.871 339.628 109.871L339.507 109.871L339.507 109.431L339.633 109.431C339.886 109.428 340.078 109.386 340.209 109.305C340.343 109.224 340.41 109.096 340.41 108.921C340.41 108.771 340.361 108.653 340.264 108.565C340.168 108.475 340.03 108.43 339.853 108.43C339.678 108.43 339.542 108.475 339.445 108.565C339.349 108.653 339.291 108.762 339.272 108.893L338.753 108.893Z" fill="#68737D"/>
<rect width="3.93085" height="3.88113" rx="1.94057" transform="matrix(0.999985 -0.00556232 0.00624152 0.999981 347.824 108.404)" fill="#006B4D" fill-opacity="0.51"/>
<path d="M355.217 108.407L355.217 109.362L356.34 109.362L356.34 109.797L355.217 109.797L355.218 110.794L356.481 110.794L356.481 111.229L354.684 111.229L354.683 107.972L356.48 107.972L356.48 108.407L355.217 108.407ZM358.168 109.924L359.001 111.23L358.398 111.23L357.84 110.355L357.317 111.23L356.76 111.23L357.592 109.962L356.759 108.651L357.362 108.651L357.92 109.526L358.444 108.651L359 108.652L358.168 109.924ZM359.857 109.031C359.948 108.912 360.071 108.813 360.227 108.732C360.383 108.65 360.559 108.61 360.756 108.61C360.98 108.61 361.185 108.666 361.369 108.779C361.556 108.888 361.703 109.042 361.809 109.242C361.915 109.442 361.968 109.671 361.968 109.93C361.968 110.189 361.916 110.422 361.809 110.627C361.703 110.83 361.557 110.989 361.37 111.105C361.186 111.217 360.981 111.273 360.757 111.273C360.56 111.273 360.385 111.234 360.232 111.156C360.08 111.075 359.955 110.975 359.858 110.856L359.859 112.457L359.325 112.457L359.324 108.652L359.857 108.652L359.857 109.031ZM361.425 109.93C361.425 109.752 361.388 109.599 361.313 109.471C361.241 109.34 361.144 109.242 361.023 109.176C360.904 109.108 360.776 109.073 360.639 109.073C360.505 109.073 360.377 109.108 360.255 109.176C360.137 109.245 360.04 109.345 359.965 109.476C359.893 109.607 359.858 109.761 359.858 109.939C359.858 110.117 359.894 110.273 359.965 110.407C360.04 110.538 360.137 110.638 360.256 110.707C360.377 110.775 360.505 110.81 360.64 110.81C360.777 110.81 360.905 110.775 361.023 110.707C361.145 110.635 361.242 110.532 361.313 110.398C361.388 110.264 361.426 110.108 361.425 109.93ZM364.785 109.88C364.785 109.976 364.779 110.064 364.766 110.142L362.796 110.141C362.811 110.347 362.888 110.512 363.025 110.637C363.163 110.762 363.331 110.825 363.531 110.825C363.818 110.825 364.021 110.705 364.139 110.464L364.715 110.465C364.637 110.702 364.495 110.897 364.289 111.049C364.086 111.199 363.834 111.274 363.531 111.274C363.284 111.274 363.063 111.219 362.866 111.11C362.673 110.997 362.52 110.841 362.407 110.642C362.298 110.439 362.244 110.205 362.243 109.94C362.243 109.674 362.296 109.442 362.402 109.242C362.511 109.04 362.663 108.884 362.856 108.774C363.053 108.665 363.277 108.611 363.53 108.611C363.773 108.611 363.99 108.664 364.181 108.77C364.371 108.876 364.519 109.026 364.625 109.22C364.732 109.41 364.785 109.63 364.785 109.88ZM364.228 109.711C364.225 109.514 364.154 109.357 364.017 109.238C363.88 109.12 363.71 109.06 363.507 109.06C363.323 109.06 363.165 109.119 363.034 109.238C362.903 109.353 362.825 109.511 362.8 109.71L364.228 109.711ZM365.768 109.028C365.846 108.897 365.949 108.796 366.077 108.724C366.208 108.649 366.363 108.612 366.54 108.612L366.541 109.164L366.405 109.164C366.196 109.164 366.037 109.217 365.928 109.323C365.821 109.429 365.769 109.613 365.769 109.875L365.769 111.233L365.236 111.232L365.235 108.654L365.768 108.654L365.768 109.028ZM367.227 108.313C367.131 108.313 367.05 108.28 366.984 108.214C366.918 108.149 366.886 108.068 366.886 107.971C366.886 107.874 366.918 107.793 366.984 107.728C367.049 107.662 367.13 107.629 367.227 107.629C367.321 107.629 367.4 107.662 367.466 107.728C367.531 107.793 367.564 107.874 367.564 107.971C367.564 108.068 367.532 108.149 367.466 108.214C367.401 108.28 367.321 108.313 367.227 108.313ZM367.49 108.654L367.491 111.233L366.957 111.233L366.956 108.654L367.49 108.654ZM370.479 109.882C370.479 109.978 370.473 110.066 370.461 110.144L368.49 110.143C368.506 110.349 368.583 110.514 368.72 110.639C368.857 110.764 369.026 110.826 369.225 110.826C369.512 110.827 369.715 110.707 369.834 110.466L370.409 110.467C370.331 110.704 370.189 110.899 369.984 111.051C369.781 111.201 369.528 111.276 369.226 111.276C368.979 111.276 368.757 111.221 368.561 111.112C368.367 110.999 368.214 110.843 368.102 110.644C367.993 110.441 367.938 110.207 367.938 109.942C367.938 109.676 367.991 109.444 368.097 109.244C368.206 109.041 368.357 108.886 368.551 108.776C368.747 108.667 368.972 108.613 369.225 108.613C369.468 108.613 369.685 108.666 369.875 108.772C370.066 108.878 370.214 109.028 370.32 109.222C370.426 109.412 370.479 109.632 370.479 109.882ZM369.922 109.713C369.919 109.516 369.849 109.359 369.712 109.24C369.574 109.121 369.404 109.062 369.201 109.062C369.017 109.062 368.86 109.121 368.729 109.24C368.598 109.355 368.52 109.513 368.495 109.712L369.922 109.713ZM372.23 108.614C372.433 108.614 372.614 108.656 372.773 108.74C372.935 108.825 373.062 108.949 373.152 109.115C373.243 109.28 373.288 109.48 373.288 109.714L373.289 111.235L372.76 111.235L372.76 109.793C372.759 109.562 372.702 109.386 372.586 109.264C372.471 109.14 372.313 109.077 372.113 109.077C371.914 109.077 371.755 109.139 371.636 109.264C371.521 109.386 371.463 109.562 371.463 109.793L371.464 111.234L370.93 111.234L370.929 108.655L371.463 108.656L371.463 108.951C371.55 108.844 371.661 108.762 371.795 108.703C371.932 108.643 372.077 108.614 372.23 108.614ZM374.516 109.092L374.517 110.519C374.517 110.616 374.539 110.686 374.583 110.73C374.629 110.771 374.707 110.791 374.817 110.791L375.144 110.791L375.144 111.236L374.723 111.235C374.483 111.235 374.299 111.179 374.171 111.067C374.043 110.954 373.979 110.772 373.979 110.519L373.978 109.092L373.674 109.092L373.674 108.656L373.978 108.656L373.978 108.015L374.516 108.015L374.516 108.657L375.143 108.657L375.144 109.092L374.516 109.092ZM375.832 108.315C375.735 108.315 375.654 108.283 375.588 108.217C375.523 108.152 375.49 108.07 375.49 107.974C375.49 107.877 375.523 107.796 375.588 107.73C375.654 107.665 375.735 107.632 375.832 107.632C375.925 107.632 376.005 107.665 376.07 107.731C376.136 107.796 376.169 107.877 376.169 107.974C376.169 108.071 376.136 108.152 376.07 108.217C376.005 108.283 375.925 108.315 375.832 108.315ZM376.094 108.657L376.095 111.236L375.561 111.236L375.56 108.657L376.094 108.657ZM376.542 109.935C376.542 109.676 376.595 109.447 376.701 109.247C376.81 109.047 376.957 108.893 377.141 108.784C377.328 108.672 377.534 108.616 377.759 108.616C377.962 108.616 378.138 108.656 378.288 108.737C378.441 108.816 378.562 108.914 378.653 109.032L378.653 108.658L379.191 108.658L379.192 111.237L378.654 111.237L378.653 110.853C378.563 110.975 378.44 111.076 378.284 111.157C378.128 111.238 377.95 111.279 377.75 111.279C377.529 111.279 377.326 111.222 377.142 111.11C376.958 110.994 376.811 110.835 376.702 110.632C376.596 110.426 376.542 110.194 376.542 109.935ZM378.653 109.945C378.653 109.767 378.616 109.613 378.541 109.482C378.469 109.351 378.374 109.251 378.255 109.182C378.136 109.113 378.009 109.079 377.871 109.079C377.734 109.079 377.606 109.113 377.487 109.182C377.369 109.247 377.272 109.346 377.197 109.477C377.126 109.604 377.09 109.757 377.09 109.935C377.09 110.113 377.126 110.269 377.198 110.403C377.273 110.537 377.369 110.64 377.488 110.712C377.61 110.781 377.738 110.815 377.872 110.815C378.009 110.815 378.137 110.781 378.256 110.712C378.374 110.644 378.469 110.544 378.541 110.413C378.616 110.279 378.653 110.123 378.653 109.945ZM380.35 107.774L380.351 111.237L379.818 111.237L379.817 107.774L380.35 107.774Z" fill="#68737D"/>
<rect width="246.061" height="0.510967" rx="0.255484" transform="matrix(1 0.000885967 -0.000994155 0.999999 176.399 148.87)" fill="#D8DCDE"/>
<rect x="177.23" y="162.196" width="61.4962" height="11.9285" rx="5.96426" fill="white"/>
<rect x="177.23" y="162.196" width="61.4962" height="11.9285" rx="3.40815" fill="#E9EBED"/>
<g clip-path="url(#clip1_436_7602)">
<path fill-rule="evenodd" clip-rule="evenodd" d="M230.499 167.142C230.591 167.069 230.725 167.084 230.799 167.175C230.864 167.257 230.86 167.372 230.793 167.448L230.765 167.475L228.635 169.179C228.569 169.232 228.478 169.24 228.404 169.202L228.369 169.179L226.239 167.475C226.147 167.401 226.132 167.267 226.206 167.175C226.271 167.094 226.384 167.073 226.473 167.121L226.505 167.142L228.502 168.739L230.499 167.142Z" fill="#68737D" stroke="#68737D" stroke-width="0.426019"/>
</g>
<rect x="245.428" y="162.196" width="61.4962" height="11.9285" rx="5.96426" fill="white"/>
<rect x="245.428" y="162.196" width="61.4962" height="11.9285" rx="3.40815" fill="#E9EBED"/>
<g clip-path="url(#clip2_436_7602)">
<path fill-rule="evenodd" clip-rule="evenodd" d="M298.697 167.142C298.788 167.069 298.922 167.084 298.996 167.175C299.061 167.257 299.057 167.372 298.99 167.448L298.963 167.475L296.833 169.179C296.766 169.232 296.675 169.24 296.602 169.202L296.566 169.179L294.436 167.475C294.345 167.401 294.33 167.267 294.403 167.175C294.468 167.094 294.582 167.073 294.67 167.121L294.703 167.142L296.7 168.739L298.697 167.142Z" fill="#68737D" stroke="#68737D" stroke-width="0.426019"/>
</g>
<rect x="313.626" y="162.196" width="61.4962" height="11.9285" rx="5.96426" fill="white"/>
<rect x="313.626" y="162.196" width="61.4962" height="11.9285" rx="3.40815" fill="#E9EBED"/>
<g clip-path="url(#clip3_436_7602)">
<path fill-rule="evenodd" clip-rule="evenodd" d="M366.895 167.142C366.987 167.069 367.121 167.084 367.194 167.175C367.26 167.257 367.255 167.372 367.189 167.448L367.161 167.475L365.031 169.179C364.964 169.232 364.873 169.24 364.8 169.202L364.765 169.179L362.635 167.475C362.543 167.401 362.528 167.267 362.601 167.175C362.667 167.094 362.78 167.073 362.869 167.121L362.901 167.142L364.898 168.739L366.895 167.142Z" fill="#68737D" stroke="#68737D" stroke-width="0.426019"/>
</g>
</g>
<circle cx="84.6393" cy="92.381" r="2.75944" fill="#B0C2CB"/>
<rect x="89.9404" y="90.4405" width="51.9534" height="3.8185" rx="1.90925" transform="rotate(-0.337597 89.9404 90.4405)" fill="#D8DCDE"/>
<circle cx="84.6393" cy="112.477" r="2.75944" fill="#B0C2CB"/>
<rect x="89.9404" y="110.537" width="51.9534" height="3.8185" rx="1.90925" transform="rotate(-0.337597 89.9404 110.537)" fill="#D8DCDE"/>
<circle cx="84.6393" cy="132.574" r="2.75944" fill="#B0C2CB"/>
<rect x="89.9404" y="130.633" width="51.9534" height="3.8185" rx="1.90925" transform="rotate(-0.337597 89.9404 130.633)" fill="#D8DCDE"/>
<path d="M183.675 92.2816C183.675 92.6865 183.579 93.0685 183.388 93.4275C183.197 93.7866 182.892 94.0807 182.472 94.3099C182.051 94.5315 181.513 94.6422 180.856 94.6422L179.412 94.6422L179.412 97.8738L178.106 97.8738L178.106 89.9094L180.856 89.9094C181.467 89.9094 181.983 90.0164 182.403 90.2303C182.831 90.4366 183.148 90.7192 183.354 91.0783C183.568 91.4374 183.675 91.8385 183.675 92.2816ZM180.856 93.5765C181.352 93.5765 181.723 93.4657 181.967 93.2442C182.212 93.015 182.334 92.6941 182.334 92.2816C182.334 91.4106 181.841 90.9752 180.856 90.9752L179.412 90.9752L179.412 93.5765L180.856 93.5765ZM186.158 92.4764C186.349 92.1555 186.601 91.9072 186.914 91.7315C187.235 91.5482 187.613 91.4565 188.048 91.4565L188.048 92.8087L187.716 92.8087C187.204 92.8087 186.815 92.9386 186.547 93.1983C186.287 93.4581 186.158 93.9088 186.158 94.5506L186.158 97.8738L184.851 97.8738L184.851 91.5596L186.158 91.5596L186.158 92.4764ZM191.918 97.977C191.323 97.977 190.784 97.8433 190.303 97.5759C189.821 97.3009 189.443 96.9189 189.168 96.4299C188.893 95.9334 188.756 95.3604 188.756 94.711C188.756 94.0693 188.897 93.5001 189.18 93.0035C189.462 92.5069 189.848 92.125 190.337 91.8576C190.826 91.5902 191.372 91.4565 191.976 91.4565C192.579 91.4565 193.126 91.5902 193.614 91.8576C194.103 92.125 194.489 92.5069 194.772 93.0035C195.055 93.5001 195.196 94.0693 195.196 94.711C195.196 95.3527 195.051 95.9219 194.76 96.4185C194.47 96.9151 194.073 97.3009 193.569 97.5759C193.072 97.8433 192.522 97.977 191.918 97.977ZM191.918 96.8425C192.255 96.8425 192.568 96.7623 192.858 96.6018C193.156 96.4414 193.397 96.2007 193.58 95.8799C193.763 95.559 193.855 95.1694 193.855 94.711C193.855 94.2526 193.767 93.8668 193.592 93.5536C193.416 93.2327 193.183 92.9921 192.893 92.8316C192.602 92.6712 192.289 92.591 191.953 92.591C191.617 92.591 191.303 92.6712 191.013 92.8316C190.73 92.9921 190.505 93.2327 190.337 93.5536C190.169 93.8668 190.085 94.2526 190.085 94.711C190.085 95.3909 190.257 95.9181 190.601 96.2924C190.952 96.6591 191.391 96.8425 191.918 96.8425ZM197.082 90.7231C196.845 90.7231 196.647 90.6428 196.486 90.4824C196.326 90.322 196.246 90.1233 196.246 89.8865C196.246 89.6497 196.326 89.4511 196.486 89.2906C196.647 89.1302 196.845 89.05 197.082 89.05C197.312 89.05 197.506 89.1302 197.667 89.2906C197.827 89.4511 197.907 89.6497 197.907 89.8865C197.907 90.1233 197.827 90.322 197.667 90.4824C197.506 90.6428 197.312 90.7231 197.082 90.7231ZM197.724 99.1115C197.724 99.7303 197.567 100.177 197.254 100.452C196.949 100.735 196.502 100.876 195.913 100.876L195.237 100.876L195.237 99.7761L195.684 99.7761C195.952 99.7761 196.139 99.7227 196.246 99.6157C196.36 99.5164 196.418 99.3483 196.418 99.1115L196.418 91.5596L197.724 91.5596L197.724 99.1115ZM205.157 94.562C205.157 94.7989 205.141 95.0128 205.111 95.2038L200.286 95.2038C200.325 95.708 200.512 96.1129 200.848 96.4185C201.184 96.7241 201.597 96.8769 202.085 96.8769C202.788 96.8769 203.285 96.5827 203.575 95.9945L204.985 95.9945C204.794 96.5751 204.446 97.0526 203.942 97.4269C203.445 97.7936 202.827 97.977 202.085 97.977C201.482 97.977 200.94 97.8433 200.458 97.5759C199.985 97.3009 199.61 96.9189 199.335 96.4299C199.068 95.9334 198.934 95.3604 198.934 94.711C198.934 94.0616 199.064 93.4925 199.324 93.0035C199.591 92.5069 199.962 92.125 200.435 91.8576C200.917 91.5902 201.467 91.4565 202.085 91.4565C202.681 91.4565 203.212 91.5864 203.678 91.8461C204.144 92.1059 204.507 92.4726 204.767 92.9462C205.027 93.4122 205.157 93.9508 205.157 94.562ZM203.793 94.1495C203.785 93.6682 203.613 93.2824 203.277 92.9921C202.941 92.7018 202.525 92.5566 202.028 92.5566C201.577 92.5566 201.192 92.7018 200.871 92.9921C200.55 93.2747 200.359 93.6605 200.298 94.1495L203.793 94.1495ZM205.937 94.711C205.937 94.0616 206.067 93.4925 206.327 93.0035C206.594 92.5069 206.961 92.125 207.427 91.8576C207.893 91.5902 208.428 91.4565 209.031 91.4565C209.795 91.4565 210.425 91.6398 210.922 92.0065C211.426 92.3656 211.766 92.8813 211.942 93.5536L210.532 93.5536C210.418 93.2404 210.234 92.9959 209.982 92.8202C209.73 92.6445 209.413 92.5566 209.031 92.5566C208.496 92.5566 208.069 92.7476 207.748 93.1296C207.435 93.5039 207.278 94.0311 207.278 94.711C207.278 95.3909 207.435 95.9219 207.748 96.3039C208.069 96.6859 208.496 96.8769 209.031 96.8769C209.788 96.8769 210.288 96.5445 210.532 95.8799L211.942 95.8799C211.759 96.5216 211.415 97.0335 210.911 97.4155C210.406 97.7898 209.78 97.977 209.031 97.977C208.428 97.977 207.893 97.8433 207.427 97.5759C206.961 97.3009 206.594 96.9189 206.327 96.4299C206.067 95.9334 205.937 95.3604 205.937 94.711ZM214.698 92.6254L214.698 96.1205C214.698 96.3574 214.752 96.5292 214.859 96.6362C214.973 96.7355 215.164 96.7852 215.432 96.7852L216.234 96.7852L216.234 97.8738L215.203 97.8738C214.614 97.8738 214.164 97.7363 213.85 97.4613C213.537 97.1863 213.38 96.7393 213.38 96.1205L213.38 92.6254L212.636 92.6254L212.636 91.5596L213.38 91.5596L213.38 89.9897L214.698 89.9897L214.698 91.5596L216.234 91.5596L216.234 92.6254L214.698 92.6254ZM219.66 97.977C219.164 97.977 218.717 97.8891 218.319 97.7134C217.93 97.5301 217.62 97.2856 217.391 96.98C217.162 96.6668 217.04 96.3192 217.025 95.9372L218.377 95.9372C218.4 96.2046 218.526 96.4299 218.755 96.6133C218.992 96.789 219.286 96.8769 219.637 96.8769C220.004 96.8769 220.287 96.8081 220.485 96.6706C220.692 96.5254 220.795 96.3421 220.795 96.1205C220.795 95.8837 220.68 95.708 220.451 95.5934C220.229 95.4788 219.874 95.3527 219.385 95.2152C218.912 95.0853 218.526 94.9593 218.228 94.8371C217.93 94.7148 217.67 94.5276 217.449 94.2755C217.235 94.0234 217.128 93.6911 217.128 93.2785C217.128 92.9424 217.227 92.6368 217.426 92.3618C217.624 92.0791 217.907 91.8576 218.274 91.6971C218.648 91.5367 219.076 91.4565 219.557 91.4565C220.275 91.4565 220.852 91.6398 221.288 92.0065C221.731 92.3656 221.967 92.8584 221.998 93.4848L220.692 93.4848C220.669 93.2022 220.554 92.9768 220.348 92.8087C220.142 92.6406 219.863 92.5566 219.511 92.5566C219.167 92.5566 218.904 92.6215 218.721 92.7514C218.537 92.8813 218.446 93.0532 218.446 93.2671C218.446 93.4352 218.507 93.5765 218.629 93.6911C218.751 93.8057 218.9 93.8974 219.076 93.9661C219.252 94.0272 219.511 94.1075 219.855 94.2068C220.313 94.329 220.688 94.4551 220.978 94.5849C221.276 94.7072 221.532 94.8905 221.746 95.135C221.96 95.3795 222.071 95.7042 222.078 96.1091C222.078 96.4681 221.979 96.789 221.78 97.0717C221.582 97.3543 221.299 97.5759 220.932 97.7363C220.573 97.8968 220.149 97.977 219.66 97.977Z" fill="#68737D"/>
<circle cx="156.944" cy="85.1289" r="4.13917" fill="#B0C2CB"/>
<rect x="186.329" y="192.156" width="32.9371" height="4.15656" rx="2.07828" transform="rotate(0.252408 186.329 192.156)" fill="#C2C8CC"/>
<rect x="175.687" y="134.602" width="36.2346" height="4.15656" rx="2.07828" transform="rotate(0.252408 175.687 134.602)" fill="#C2C8CC"/>
<g filter="url(#filter2_d_436_7602)">
<path d="M58.5631 105.68C60.6266 102.936 61.8495 99.5237 61.8495 95.8258C61.8495 86.7612 54.5011 79.4128 45.4365 79.4128C36.3718 79.4128 29.0234 86.7612 29.0234 95.8258C29.0234 104.89 36.3718 112.239 45.4365 112.239C48.8059 112.239 51.9382 111.223 54.5441 109.482L60.4703 111.825L58.6772 105.618L58.5631 105.68Z" fill="#0E4776"/>
<g filter="url(#filter3_d_436_7602)">
<path d="M49.9238 95.832C49.9238 96.1098 50.0062 96.3813 50.1605 96.6123C50.3148 96.8432 50.5342 97.0232 50.7908 97.1295C51.0474 97.2358 51.3298 97.2636 51.6023 97.2094C51.8747 97.1552 52.125 97.0215 52.3214 96.8251C52.5178 96.6287 52.6515 96.3784 52.7057 96.106C52.7599 95.8335 52.7321 95.5512 52.6258 95.2945C52.5195 95.0379 52.3395 94.8186 52.1085 94.6642C51.8776 94.5099 51.606 94.4276 51.3283 94.4276C50.9558 94.4276 50.5986 94.5755 50.3352 94.8389C50.0718 95.1023 49.9238 95.4595 49.9238 95.832Z" fill="white"/>
</g>
<g filter="url(#filter4_d_436_7602)">
<path d="M45.7062 97.2364C46.4819 97.2364 47.1106 96.6076 47.1106 95.832C47.1106 95.0563 46.4819 94.4276 45.7062 94.4276C44.9305 94.4276 44.3018 95.0563 44.3018 95.832C44.3018 96.6076 44.9305 97.2364 45.7062 97.2364Z" fill="white"/>
</g>
<g filter="url(#filter5_d_436_7602)">
<path d="M38.6972 95.1297C38.5582 95.3702 38.4937 95.6466 38.5118 95.9238C38.5298 96.201 38.6297 96.4666 38.7988 96.6871C38.9678 96.9075 39.1984 97.0729 39.4615 97.1622C39.7245 97.2516 40.0082 97.2609 40.2765 97.1891C40.5449 97.1172 40.7859 96.9674 40.9691 96.7585C41.1523 96.5497 41.2694 96.2912 41.3057 96.0158C41.3419 95.7403 41.2957 95.4603 41.1728 95.2112C41.0499 94.962 40.8559 94.7549 40.6153 94.6161C40.4558 94.5234 40.2795 94.4631 40.0966 94.4388C39.9137 94.4144 39.7277 94.4264 39.5495 94.4742C39.3713 94.5219 39.2042 94.6044 39.058 94.7169C38.9117 94.8294 38.7891 94.9697 38.6972 95.1297Z" fill="white"/>
</g>
</g>
<rect x="177.54" y="187.327" width="245.788" height="108.604" rx="4.43482" fill="white" stroke="#D8DCDE" stroke-width="0.591309"/>
<rect x="177.54" y="200.73" width="245.788" height="24.6379" fill="white" stroke="#D8DCDE" stroke-width="0.591309"/>
<rect x="177.54" y="224.382" width="245.788" height="24.6379" fill="white" stroke="#D8DCDE" stroke-width="0.591309"/>
<rect x="177.54" y="248.823" width="245.788" height="24.6379" fill="white" stroke="#D8DCDE" stroke-width="0.591309"/>
<rect x="186.383" y="205.057" width="22.4438" height="15.858" rx="2.07828" transform="rotate(0.252408 186.383 205.057)" fill="#C2C8CC"/>
<rect x="216.729" y="204.77" width="33.9416" height="4.15656" rx="2.07828" transform="rotate(0.252408 216.729 204.77)" fill="#B0C2CB"/>
<rect x="216.723" y="211.836" width="18.8074" height="2.90249" rx="1.45124" transform="rotate(0.252408 216.723 211.836)" fill="#E9EBED"/>
<rect x="216.726" y="217.581" width="23.9323" height="3.61462" rx="1.80731" transform="rotate(0.252408 216.726 217.581)" fill="#E9EBED"/>
<path d="M245.389 217.581V220.734" stroke="#D8DCDE" stroke-width="0.394206" stroke-linecap="round"/>
<rect x="250.135" y="217.581" width="23.9323" height="3.61462" rx="1.80731" transform="rotate(0.252408 250.135 217.581)" fill="#E9EBED"/>
<path d="M278.797 217.581V220.734" stroke="#D8DCDE" stroke-width="0.394206" stroke-linecap="round"/>
<rect x="283.544" y="217.581" width="23.9323" height="3.61462" rx="1.80731" transform="rotate(0.252408 283.544 217.581)" fill="#B3E8D9"/>
<rect x="312.222" y="217.581" width="23.9323" height="3.61462" rx="1.80731" transform="rotate(0.252408 312.222 217.581)" fill="#FFD7A4"/>
<rect x="340.9" y="217.581" width="23.9323" height="3.61462" rx="1.80731" transform="rotate(0.252408 340.9 217.581)" fill="#92C9EB"/>
<rect x="186.383" y="229.498" width="22.4438" height="15.858" rx="2.07828" transform="rotate(0.252408 186.383 229.498)" fill="#C2C8CC"/>
<rect x="216.729" y="229.211" width="33.9416" height="4.15656" rx="2.07828" transform="rotate(0.252408 216.729 229.211)" fill="#B0C2CB"/>
<rect x="216.723" y="236.277" width="18.8074" height="2.90249" rx="1.45124" transform="rotate(0.252408 216.723 236.277)" fill="#E9EBED"/>
<rect x="216.726" y="242.021" width="23.9323" height="3.61462" rx="1.80731" transform="rotate(0.252408 216.726 242.021)" fill="#E9EBED"/>
<path d="M245.389 242.021V245.175" stroke="#D8DCDE" stroke-width="0.394206" stroke-linecap="round"/>
<rect x="250.135" y="242.021" width="23.9323" height="3.61462" rx="1.80731" transform="rotate(0.252408 250.135 242.021)" fill="#E9EBED"/>
<path d="M278.797 242.021V245.175" stroke="#D8DCDE" stroke-width="0.394206" stroke-linecap="round"/>
<rect x="283.544" y="242.021" width="23.9323" height="3.61462" rx="1.80731" transform="rotate(0.252408 283.544 242.021)" fill="#B3E8D9"/>
<rect x="186.383" y="253.15" width="22.4438" height="15.858" rx="2.07828" transform="rotate(0.252408 186.383 253.15)" fill="#C2C8CC"/>
<rect x="216.729" y="252.864" width="33.9416" height="4.15656" rx="2.07828" transform="rotate(0.252408 216.729 252.864)" fill="#B0C2CB"/>
<rect x="216.723" y="259.929" width="18.8074" height="2.90249" rx="1.45124" transform="rotate(0.252408 216.723 259.929)" fill="#E9EBED"/>
<rect x="216.726" y="265.674" width="23.9323" height="3.61462" rx="1.80731" transform="rotate(0.252408 216.726 265.674)" fill="#E9EBED"/>
<path d="M245.389 265.674V268.828" stroke="#D8DCDE" stroke-width="0.394206" stroke-linecap="round"/>
<rect x="250.135" y="265.674" width="23.9323" height="3.61462" rx="1.80731" transform="rotate(0.252408 250.135 265.674)" fill="#E9EBED"/>
<path d="M278.797 265.674V268.828" stroke="#D8DCDE" stroke-width="0.394206" stroke-linecap="round"/>
<rect x="283.544" y="265.674" width="23.9323" height="3.61462" rx="1.80731" transform="rotate(0.252408 283.544 265.674)" fill="#FFD7A4"/>
<rect x="312.222" y="265.674" width="23.9323" height="3.61462" rx="1.80731" transform="rotate(0.252408 312.222 265.674)" fill="#F2C1C3"/>
<rect x="340.9" y="265.674" width="23.9323" height="3.61462" rx="1.80731" transform="rotate(0.252408 340.9 265.674)" fill="#92C9EB"/>
<rect x="186.383" y="276.408" width="22.4438" height="15.858" rx="2.07828" transform="rotate(0.252408 186.383 276.408)" fill="#C2C8CC"/>
<rect x="216.729" y="276.122" width="33.9416" height="4.15656" rx="2.07828" transform="rotate(0.252408 216.729 276.122)" fill="#B0C2CB"/>
<rect x="216.723" y="283.187" width="18.8074" height="2.90249" rx="1.45124" transform="rotate(0.252408 216.723 283.187)" fill="#E9EBED"/>
<rect x="216.726" y="288.932" width="23.9323" height="3.61462" rx="1.80731" transform="rotate(0.252408 216.726 288.932)" fill="#E9EBED"/>
<path d="M245.389 288.932V292.086" stroke="#D8DCDE" stroke-width="0.394206" stroke-linecap="round"/>
<rect x="250.135" y="288.932" width="23.9323" height="3.61462" rx="1.80731" transform="rotate(0.252408 250.135 288.932)" fill="#E9EBED"/>
<path d="M278.797 288.932V292.086" stroke="#D8DCDE" stroke-width="0.394206" stroke-linecap="round"/>
<rect x="283.544" y="288.932" width="23.9323" height="3.61462" rx="1.80731" transform="rotate(0.252408 283.544 288.932)" fill="#E9EBED"/>
<path d="M107.632 184.887C108.96 183.808 119.229 188.315 119.099 189.882C118.969 191.449 126.264 206.651 126.264 206.651L138.871 196.602C138.983 196.239 140.179 192.331 140.237 191.632C140.297 190.898 142.429 189.617 143.416 189.803C144.404 189.989 142.572 191.234 142.451 191.46C142.122 192.08 143.392 192.313 143.392 192.313C143.392 192.313 146.99 191.16 147.068 189.985C147.147 188.809 149.608 192.04 149.308 192.49C149.008 192.94 143.141 197.668 142.295 198.695C142.295 198.695 125.987 217.332 124.829 217.82C123.81 218.248 120.178 211.825 116.746 207.56C113.313 203.296 103.483 188.261 107.632 184.887Z" fill="#E6EBEE"/>
<path d="M107.632 184.887C108.96 183.808 119.229 188.315 119.099 189.882C118.969 191.449 126.264 206.651 126.264 206.651L138.871 196.602C138.983 196.239 140.179 192.331 140.237 191.632C140.297 190.898 142.429 189.617 143.416 189.803C144.404 189.989 142.572 191.234 142.451 191.46C142.122 192.08 143.392 192.313 143.392 192.313C143.392 192.313 146.99 191.16 147.068 189.985C147.147 188.809 149.608 192.04 149.308 192.49C149.008 192.94 143.141 197.668 142.295 198.695C142.295 198.695 125.987 217.332 124.829 217.82C123.81 218.248 120.178 211.825 116.746 207.56C113.313 203.296 103.483 188.261 107.632 184.887Z" fill="url(#paint1_linear_436_7602)" fill-opacity="0.8" style="mix-blend-mode:color-burn"/>
<path d="M107.632 184.887C108.96 183.808 119.229 188.315 119.099 189.882C118.969 191.449 126.264 206.651 126.264 206.651L138.871 196.602C138.983 196.239 140.179 192.331 140.237 191.632C140.297 190.898 142.429 189.617 143.416 189.803C144.404 189.989 142.572 191.234 142.451 191.46C142.122 192.08 143.392 192.313 143.392 192.313C143.392 192.313 146.99 191.16 147.068 189.985C147.147 188.809 149.608 192.04 149.308 192.49C149.008 192.94 143.141 197.668 142.295 198.695C142.295 198.695 125.987 217.332 124.829 217.82C123.81 218.248 120.178 211.825 116.746 207.56C113.313 203.296 103.483 188.261 107.632 184.887Z" fill="#2F3941" fill-opacity="0.15" style="mix-blend-mode:multiply"/>
<path d="M74.7296 321.919C74.7296 321.919 72.4904 324.106 72.4367 324.907C72.3829 325.709 72.2396 334.309 73.1532 335.106C74.0668 335.903 76.756 336.476 75.8917 337.381C75.2401 338.052 70.2154 337.916 66.8858 337.732C65.914 337.679 64.6959 329.928 64.3108 328.778C63.7532 327.123 62.3941 323.405 62.9024 322.243C63.1487 321.681 64.3332 320.526 66.0036 319.447C67.7591 318.314 69.4385 315.789 69.4385 315.789L74.7296 321.919Z" fill="#E6EBEE"/>
<path d="M74.7296 321.919C74.7296 321.919 72.4904 324.106 72.4367 324.907C72.3829 325.709 72.2396 334.309 73.1532 335.106C74.0668 335.903 76.756 336.476 75.8917 337.381C75.2401 338.052 70.2154 337.916 66.8858 337.732C65.914 337.679 64.6959 329.928 64.3108 328.778C63.7532 327.123 62.3941 323.405 62.9024 322.243C63.1487 321.681 64.3332 320.526 66.0036 319.447C67.7591 318.314 69.4385 315.789 69.4385 315.789L74.7296 321.919Z" fill="url(#paint2_linear_436_7602)" fill-opacity="0.8" style="mix-blend-mode:color-burn"/>
<path d="M74.7296 321.919C74.7296 321.919 72.4904 324.106 72.4367 324.907C72.3829 325.709 72.2396 334.309 73.1532 335.106C74.0668 335.903 76.756 336.476 75.8917 337.381C75.2401 338.052 70.2154 337.916 66.8858 337.732C65.914 337.679 64.6959 329.928 64.3108 328.778C63.7532 327.123 62.3941 323.405 62.9024 322.243C63.1487 321.681 64.3332 320.526 66.0036 319.447C67.7591 318.314 69.4385 315.789 69.4385 315.789L74.7296 321.919Z" fill="#2F3941" fill-opacity="0.15" style="mix-blend-mode:multiply"/>
<path d="M97.9394 327.007C97.9394 327.007 95.9241 332.671 95.9241 332.686C95.7741 333.582 95.1875 335.8 95.1875 336.615C95.1875 339.68 109.01 334.014 105.913 332.655C105.633 332.534 104.753 331.551 104.661 330.508C104.518 328.901 105.826 326.886 105.826 326.886L97.9394 327.007Z" fill="#E6EBEE"/>
<path d="M97.9394 327.007C97.9394 327.007 95.9241 332.671 95.9241 332.686C95.7741 333.582 95.1875 335.8 95.1875 336.615C95.1875 339.68 109.01 334.014 105.913 332.655C105.633 332.534 104.753 331.551 104.661 330.508C104.518 328.901 105.826 326.886 105.826 326.886L97.9394 327.007Z" fill="url(#paint3_linear_436_7602)" fill-opacity="0.8" style="mix-blend-mode:color-burn"/>
<path d="M97.9394 327.007C97.9394 327.007 95.9241 332.671 95.9241 332.686C95.7741 333.582 95.1875 335.8 95.1875 336.615C95.1875 339.68 109.01 334.014 105.913 332.655C105.633 332.534 104.753 331.551 104.661 330.508C104.518 328.901 105.826 326.886 105.826 326.886L97.9394 327.007Z" fill="#2F3941" fill-opacity="0.15" style="mix-blend-mode:multiply"/>
<path d="M119.628 221.558C119.628 221.558 120.636 231.711 120.636 231.856C120.636 248.281 123.892 280.361 123.274 283.451C121.762 290.981 105.501 329.401 105.501 329.401L96.7128 328.351L106.146 281.931L103.952 263.842L97.9868 227.245L119.628 221.558Z" fill="#0E4776"/>
<path d="M90.1258 230.539L88.4598 240.165L83.9479 279.769L66.7646 318.478C66.7646 318.478 69.1829 324.11 72.7477 324.9L100.094 285.155L117.083 234.304L116.485 223.006L90.1258 230.539Z" fill="#0E4776"/>
<path d="M123.13 197.385L110.944 198.628C110.944 198.628 110.385 188.639 110.385 183.875C110.385 178.095 110.877 170.649 111.576 170.81C113.535 171.258 116.175 172.341 117.745 174.499C123.181 181.968 123.13 197.385 123.13 197.385Z" fill="#BBDDF2"/>
<path d="M66.1092 319.401C66.1092 319.401 71.275 333.939 73.2947 334.64C73.8321 334.828 76.4094 335.311 76.8953 336.431C77.0408 336.773 76.8953 337.92 76.8953 337.92H66.1294C66.1294 337.92 64.768 331.512 64.2306 328.698C64.2306 328.698 61.3801 321.821 61.6981 321.197C62.0161 320.572 66.1092 319.401 66.1092 319.401Z" fill="#2F3941"/>
<path d="M94.409 337.629L95.992 332.63C95.992 332.63 99.3171 334.036 100.979 333.801C102.64 333.566 105.887 332.63 105.887 332.63C112.521 334.813 117.956 335.872 116.966 337.629H94.409Z" fill="#2F3941"/>
<path fill-rule="evenodd" clip-rule="evenodd" d="M106.75 160.629C106.85 160.661 106.949 160.694 107.046 160.726C109.461 161.521 111.188 162.089 112.258 161.484C113.39 160.844 113.518 158.133 113.657 155.192C113.696 154.372 113.735 153.533 113.798 152.716C113.834 152.238 114.296 151.955 114.748 151.676C115.239 151.375 115.718 151.08 115.632 150.553C114.87 145.87 111.056 141.45 108.835 139.081C104.327 134.272 88.2288 135.963 90.4305 147.294C91.1947 151.226 93.7344 154.238 96.8763 156.409L96.984 157.295C96.8144 157.293 96.7204 157.293 96.7204 157.293C96.7204 157.293 96.744 175.017 97.7306 176.549C98.7587 178.145 105.463 175.346 108.523 173.959C108.948 173.767 109.29 173.424 109.489 172.991C109.688 172.558 109.731 172.063 109.609 171.595C108.876 168.759 107.403 163.064 106.75 160.629Z" fill="#E6EBEE"/>
<path fill-rule="evenodd" clip-rule="evenodd" d="M106.75 160.629C106.85 160.661 106.949 160.694 107.046 160.726C109.461 161.521 111.188 162.089 112.258 161.484C113.39 160.844 113.518 158.133 113.657 155.192C113.696 154.372 113.735 153.533 113.798 152.716C113.834 152.238 114.296 151.955 114.748 151.676C115.239 151.375 115.718 151.08 115.632 150.553C114.87 145.87 111.056 141.45 108.835 139.081C104.327 134.272 88.2288 135.963 90.4305 147.294C91.1947 151.226 93.7344 154.238 96.8763 156.409L96.984 157.295C96.8144 157.293 96.7204 157.293 96.7204 157.293C96.7204 157.293 96.744 175.017 97.7306 176.549C98.7587 178.145 105.463 175.346 108.523 173.959C108.948 173.767 109.29 173.424 109.489 172.991C109.688 172.558 109.731 172.063 109.609 171.595C108.876 168.759 107.403 163.064 106.75 160.629Z" fill="url(#paint4_linear_436_7602)" fill-opacity="0.8" style="mix-blend-mode:color-burn"/>
<path fill-rule="evenodd" clip-rule="evenodd" d="M106.75 160.629C106.85 160.661 106.949 160.694 107.046 160.726C109.461 161.521 111.188 162.089 112.258 161.484C113.39 160.844 113.518 158.133 113.657 155.192C113.696 154.372 113.735 153.533 113.798 152.716C113.834 152.238 114.296 151.955 114.748 151.676C115.239 151.375 115.718 151.08 115.632 150.553C114.87 145.87 111.056 141.45 108.835 139.081C104.327 134.272 88.2288 135.963 90.4305 147.294C91.1947 151.226 93.7344 154.238 96.8763 156.409L96.984 157.295C96.8144 157.293 96.7204 157.293 96.7204 157.293C96.7204 157.293 96.744 175.017 97.7306 176.549C98.7587 178.145 105.463 175.346 108.523 173.959C108.948 173.767 109.29 173.424 109.489 172.991C109.688 172.558 109.731 172.063 109.609 171.595C108.876 168.759 107.403 163.064 106.75 160.629Z" fill="#2F3941" fill-opacity="0.15" style="mix-blend-mode:multiply"/>
<path d="M104.641 144.277C105.642 144.381 106.645 144.097 107.443 143.482C106.984 144.478 105.554 144.877 104.641 144.277Z" fill="#2F3941"/>
<path d="M101.434 152.288C102.216 151.465 103.747 151.918 103.551 153.16C103.359 152.801 103.05 152.518 102.677 152.359C102.266 152.263 101.841 152.237 101.422 152.283L101.434 152.288Z" fill="#2F3941"/>
<path d="M101.441 152.268C100.53 152.183 99.4239 150.481 99.9935 149.731C100.033 150.17 100.193 150.655 100.446 151.107C100.752 151.545 101.091 151.943 101.449 152.283L101.441 152.268Z" fill="#2F3941"/>
<path fill-rule="evenodd" clip-rule="evenodd" d="M108.082 136.592C108.584 138.234 104.73 140.881 99.3789 142.623C100.399 144.305 101.224 146.222 101.741 148.149C101.795 148.35 101.844 148.55 101.89 148.751C101.009 147.812 99.9259 147.407 99.1478 147.828C98.1055 148.394 98.005 150.229 98.9236 151.928C99.7563 153.468 101.141 154.367 102.169 154.1C101.695 157.604 99.8727 160.347 97.1486 161.077C92.9973 162.189 83.6824 161.622 82.9551 160.981C81.422 155.259 86.6062 140.056 90.6871 137.576C92.1979 136.207 94.1759 134.945 96.4645 134.245C102.133 132.511 107.561 134.887 108.082 136.592Z" fill="#101030"/>
<path fill-rule="evenodd" clip-rule="evenodd" d="M96.0008 168.463L95.8228 171.094C95.2135 171.493 94.6261 171.912 94.0601 172.35C92.2932 171.997 90.3381 171.951 88.1803 172.484C87.3766 172.716 87.0216 176.218 86.922 180.485C71.0749 206.992 89.9069 260.263 92.206 263.024C93.9089 265.492 119.795 248.544 128.172 242.382L128.172 242.382L128.186 242.372L128.19 242.369C128.741 241.963 129.205 241.622 129.568 241.356L129.831 241.164C134.608 237.667 132.925 234.834 129.486 229.046C128.883 228.032 128.227 226.926 127.542 225.711L127.454 225.18C125.038 210.536 120.134 180.808 115.603 174.698C115.064 173.971 114.659 173.401 114.332 172.942L114.332 172.942C113.616 171.936 113.276 171.458 112.723 171.003L112.141 167.298C107.172 169.597 103.088 170.643 100.57 170.192C100.448 170.157 100.319 170.128 100.182 170.105C99.7688 170.034 99.3915 169.979 99.0468 169.928C97.4547 169.695 96.5562 169.564 96.0008 168.463Z" fill="#6AB4E2"/>
<g filter="url(#filter6_d_436_7602)">
<g filter="url(#filter7_d_436_7602)">
<path d="M139.843 183.584C138.907 182.543 138.037 181.472 137.233 180.383L118.319 197.365C117.155 198.407 117.448 200.629 118.972 202.321C120.497 204.014 122.671 204.546 123.836 203.501L142.748 186.519C141.757 185.606 140.778 184.627 139.843 183.584Z" fill="#849DAB"/>
</g>
<path opacity="0.71" d="M140.216 183.241C123.283 164.398 124.93 135.314 143.894 118.28C162.858 101.247 191.958 102.714 208.891 121.557C225.824 140.4 224.177 169.484 205.213 186.518C186.249 203.552 157.149 202.085 140.216 183.241Z" fill="white"/>
<g filter="url(#filter8_d_436_7602)">
<path d="M209.215 190.997C187.774 210.25 154.875 208.586 135.736 187.281C116.598 165.975 118.463 133.098 139.904 113.844C161.345 94.5902 194.244 96.252 213.385 117.558C232.525 138.864 230.638 171.742 209.215 190.997ZM205.215 186.543C224.181 169.512 225.831 140.428 208.902 121.583C191.974 102.738 162.872 101.266 143.906 118.297C124.941 135.329 123.288 164.41 140.219 183.258C157.149 202.105 186.238 203.572 205.206 186.543L205.215 186.543Z" fill="#547B8D"/>
</g>
<g filter="url(#filter9_d_436_7602)">
<path d="M207.099 188.653C186.958 206.738 156.057 205.175 138.08 185.163C120.102 165.152 121.854 134.269 141.996 116.182C162.137 98.0949 193.037 99.6597 211.015 119.671C228.993 139.683 227.24 170.568 207.099 188.653ZM205.202 186.541C224.167 169.51 225.818 140.426 208.889 121.581C191.961 102.736 162.859 101.264 143.893 118.296C124.927 135.327 123.275 164.408 140.205 183.256C157.136 202.103 186.234 203.57 205.202 186.541Z" fill="#496B7B"/>
</g>
<path d="M110.016 194.161L110.016 194.161L55.4316 242.819C55.4305 242.82 55.4294 242.82 55.4283 242.821C54.4494 243.69 53.6509 244.742 53.0784 245.918L55.4211 247.058L53.0784 245.918C52.5052 247.096 52.1698 248.375 52.0912 249.682C52.0126 250.99 52.1924 252.3 52.6204 253.538C53.0483 254.776 53.7158 255.917 54.5849 256.897L110.016 194.161ZM110.016 194.161L110.022 194.156C112.001 192.401 114.596 191.505 117.236 191.664C119.876 191.822 122.345 193.023 124.101 195.002L124.101 195.002L126.804 198.05L126.804 198.05C128.559 200.029 129.455 202.624 129.297 205.264C129.138 207.903 127.938 210.371 125.961 212.125C125.96 212.126 125.959 212.127 125.958 212.128L71.3729 260.784L71.3677 260.789C70.3876 261.658 69.2458 262.325 68.0076 262.753C66.7694 263.181 65.459 263.36 64.1514 263.282C62.8437 263.203 61.5644 262.868 60.3864 262.295C59.2085 261.722 58.1549 260.923 57.2859 259.943C57.2859 259.942 57.2858 259.942 57.2857 259.942L54.5853 256.897L110.016 194.161Z" fill="#547B8E" stroke="#547B8E" stroke-width="5.21075"/>
</g>
<path d="M65.6729 233.035C65.6618 232.933 65.6618 232.829 65.6729 232.726C65.9999 229.409 68.7563 201.546 69.2198 200.362C69.6385 199.292 81.9964 181.62 81.9964 181.62L88.0713 189.903L76.1858 205.755C75.9193 206.762 71.6314 225.569 71.6314 225.569C71.6314 225.569 70.7513 228.999 70.3595 231.052C70.5386 231.547 70.7155 232.014 70.87 232.395C71.2287 233.121 71.6577 233.81 72.1508 234.452C72.6815 235.164 73.5615 236.72 73.669 237.139C73.7944 237.622 74.0228 238.627 74.1504 239.234C74.2781 239.841 74.455 240.548 74.4841 240.877C74.5646 241.194 74.6946 241.496 74.8692 241.773C74.9212 241.866 74.9439 241.972 74.9344 242.079C74.9249 242.185 74.8836 242.286 74.816 242.368C74.7483 242.451 74.6574 242.511 74.555 242.541C74.4527 242.571 74.3437 242.569 74.2422 242.536C73.8101 242.393 73.4742 241.835 73.2682 241.486C72.6815 240.503 72.3725 238.708 72.2247 238.8C72.0769 238.892 71.5664 241.934 71.4858 242.283C71.4052 242.632 70.7894 246.163 70.4424 246.81C70.0953 247.457 69.6362 247.347 69.5153 246.944C69.4101 246.595 69.8982 241.647 69.8982 241.647C69.8982 241.647 69.9587 241.016 69.6743 241.213C69.3899 241.41 68.9466 245.901 68.754 246.559C68.5615 247.217 68.1226 247.564 67.7509 247.036C67.3031 246.393 68.0756 241.63 68.0756 241.63C68.0756 241.63 68.1629 241.032 67.9076 241.088C67.6524 241.144 67.3322 244.97 67.1329 245.301C66.9336 245.632 66.4298 245.749 66.1902 245.2C65.9081 244.549 66.638 240.304 66.638 240.304C66.638 240.304 66.6022 239.966 66.441 240.08C66.2797 240.195 65.7692 243.438 65.4468 243.736C65.414 243.77 65.3745 243.798 65.3308 243.816C65.2872 243.835 65.2401 243.845 65.1926 243.845C65.1451 243.845 65.0981 243.835 65.0544 243.816C65.0108 243.798 64.9713 243.77 64.9385 243.736C64.3317 243.322 65.2609 240.237 65.2519 238.704C65.243 237.17 65.9528 235.446 65.7424 233.62C65.7356 233.494 65.6976 233.212 65.6729 233.035Z" fill="#E6EBEE"/>
<path d="M65.6729 233.035C65.6618 232.933 65.6618 232.829 65.6729 232.726C65.9999 229.409 68.7563 201.546 69.2198 200.362C69.6385 199.292 81.9964 181.62 81.9964 181.62L88.0713 189.903L76.1858 205.755C75.9193 206.762 71.6314 225.569 71.6314 225.569C71.6314 225.569 70.7513 228.999 70.3595 231.052C70.5386 231.547 70.7155 232.014 70.87 232.395C71.2287 233.121 71.6577 233.81 72.1508 234.452C72.6815 235.164 73.5615 236.72 73.669 237.139C73.7944 237.622 74.0228 238.627 74.1504 239.234C74.2781 239.841 74.455 240.548 74.4841 240.877C74.5646 241.194 74.6946 241.496 74.8692 241.773C74.9212 241.866 74.9439 241.972 74.9344 242.079C74.9249 242.185 74.8836 242.286 74.816 242.368C74.7483 242.451 74.6574 242.511 74.555 242.541C74.4527 242.571 74.3437 242.569 74.2422 242.536C73.8101 242.393 73.4742 241.835 73.2682 241.486C72.6815 240.503 72.3725 238.708 72.2247 238.8C72.0769 238.892 71.5664 241.934 71.4858 242.283C71.4052 242.632 70.7894 246.163 70.4424 246.81C70.0953 247.457 69.6362 247.347 69.5153 246.944C69.4101 246.595 69.8982 241.647 69.8982 241.647C69.8982 241.647 69.9587 241.016 69.6743 241.213C69.3899 241.41 68.9466 245.901 68.754 246.559C68.5615 247.217 68.1226 247.564 67.7509 247.036C67.3031 246.393 68.0756 241.63 68.0756 241.63C68.0756 241.63 68.1629 241.032 67.9076 241.088C67.6524 241.144 67.3322 244.97 67.1329 245.301C66.9336 245.632 66.4298 245.749 66.1902 245.2C65.9081 244.549 66.638 240.304 66.638 240.304C66.638 240.304 66.6022 239.966 66.441 240.08C66.2797 240.195 65.7692 243.438 65.4468 243.736C65.414 243.77 65.3745 243.798 65.3308 243.816C65.2872 243.835 65.2401 243.845 65.1926 243.845C65.1451 243.845 65.0981 243.835 65.0544 243.816C65.0108 243.798 64.9713 243.77 64.9385 243.736C64.3317 243.322 65.2609 240.237 65.2519 238.704C65.243 237.17 65.9528 235.446 65.7424 233.62C65.7356 233.494 65.6976 233.212 65.6729 233.035Z" fill="url(#paint5_linear_436_7602)" fill-opacity="0.8" style="mix-blend-mode:color-burn"/>
<path d="M65.6729 233.035C65.6618 232.933 65.6618 232.829 65.6729 232.726C65.9999 229.409 68.7563 201.546 69.2198 200.362C69.6385 199.292 81.9964 181.62 81.9964 181.62L88.0713 189.903L76.1858 205.755C75.9193 206.762 71.6314 225.569 71.6314 225.569C71.6314 225.569 70.7513 228.999 70.3595 231.052C70.5386 231.547 70.7155 232.014 70.87 232.395C71.2287 233.121 71.6577 233.81 72.1508 234.452C72.6815 235.164 73.5615 236.72 73.669 237.139C73.7944 237.622 74.0228 238.627 74.1504 239.234C74.2781 239.841 74.455 240.548 74.4841 240.877C74.5646 241.194 74.6946 241.496 74.8692 241.773C74.9212 241.866 74.9439 241.972 74.9344 242.079C74.9249 242.185 74.8836 242.286 74.816 242.368C74.7483 242.451 74.6574 242.511 74.555 242.541C74.4527 242.571 74.3437 242.569 74.2422 242.536C73.8101 242.393 73.4742 241.835 73.2682 241.486C72.6815 240.503 72.3725 238.708 72.2247 238.8C72.0769 238.892 71.5664 241.934 71.4858 242.283C71.4052 242.632 70.7894 246.163 70.4424 246.81C70.0953 247.457 69.6362 247.347 69.5153 246.944C69.4101 246.595 69.8982 241.647 69.8982 241.647C69.8982 241.647 69.9587 241.016 69.6743 241.213C69.3899 241.41 68.9466 245.901 68.754 246.559C68.5615 247.217 68.1226 247.564 67.7509 247.036C67.3031 246.393 68.0756 241.63 68.0756 241.63C68.0756 241.63 68.1629 241.032 67.9076 241.088C67.6524 241.144 67.3322 244.97 67.1329 245.301C66.9336 245.632 66.4298 245.749 66.1902 245.2C65.9081 244.549 66.638 240.304 66.638 240.304C66.638 240.304 66.6022 239.966 66.441 240.08C66.2797 240.195 65.7692 243.438 65.4468 243.736C65.414 243.77 65.3745 243.798 65.3308 243.816C65.2872 243.835 65.2401 243.845 65.1926 243.845C65.1451 243.845 65.0981 243.835 65.0544 243.816C65.0108 243.798 64.9713 243.77 64.9385 243.736C64.3317 243.322 65.2609 240.237 65.2519 238.704C65.243 237.17 65.9528 235.446 65.7424 233.62C65.7356 233.494 65.6976 233.212 65.6729 233.035Z" fill="#2F3941" fill-opacity="0.15" style="mix-blend-mode:multiply"/>
<path d="M72.3352 192.815L82.8927 199.9C82.8927 199.9 88.8466 191.04 92.0396 187.906C96.041 183.959 90.582 171.866 88.0092 172.548C82.2389 174.071 72.3352 192.815 72.3352 192.815Z" fill="#BBDDF2"/>
</g>
<defs>
<filter id="filter0_d_436_7602" x="59.4337" y="48.7598" width="413.673" height="306.351" filterUnits="userSpaceOnUse" color-interpolation-filters="sRGB">
<feFlood flood-opacity="0" result="BackgroundImageFix"/>
<feColorMatrix in="SourceAlpha" type="matrix" values="0 0 0 0 0 0 0 0 0 0 0 0 0 0 0 0 0 0 127 0" result="hardAlpha"/>
<feOffset dy="6.21233"/>
<feGaussianBlur stdDeviation="6.21233"/>
<feColorMatrix type="matrix" values="0 0 0 0 0.184314 0 0 0 0 0.223529 0 0 0 0 0.254902 0 0 0 0.15 0"/>
<feBlend mode="normal" in2="BackgroundImageFix" result="effect1_dropShadow_436_7602"/>
<feBlend mode="normal" in="SourceGraphic" in2="effect1_dropShadow_436_7602" result="shape"/>
</filter>
<filter id="filter1_di_436_7602" x="0.903938" y="-16.0955" width="531.219" height="424.011" filterUnits="userSpaceOnUse" color-interpolation-filters="sRGB">
<feFlood flood-opacity="0" result="BackgroundImageFix"/>
<feColorMatrix in="SourceAlpha" type="matrix" values="0 0 0 0 0 0 0 0 0 0 0 0 0 0 0 0 0 0 127 0" result="hardAlpha"/>
<feOffset/>
<feGaussianBlur stdDeviation="35.7209"/>
<feComposite in2="hardAlpha" operator="out"/>
<feColorMatrix type="matrix" values="0 0 0 0 0 0 0 0 0 0 0 0 0 0 0 0 0 0 0.05 0"/>
<feBlend mode="normal" in2="BackgroundImageFix" result="effect1_dropShadow_436_7602"/>
<feBlend mode="normal" in="SourceGraphic" in2="effect1_dropShadow_436_7602" result="shape"/>
<feColorMatrix in="SourceAlpha" type="matrix" values="0 0 0 0 0 0 0 0 0 0 0 0 0 0 0 0 0 0 127 0" result="hardAlpha"/>
<feOffset dx="-1.78604"/>
<feComposite in2="hardAlpha" operator="arithmetic" k2="-1" k3="1"/>
<feColorMatrix type="matrix" values="0 0 0 0 0.913725 0 0 0 0 0.921569 0 0 0 0 0.929412 0 0 0 1 0"/>
<feBlend mode="normal" in2="shape" result="effect2_innerShadow_436_7602"/>
</filter>
<filter id="filter2_d_436_7602" x="17.9857" y="76.2592" width="54.9017" height="54.9014" filterUnits="userSpaceOnUse" color-interpolation-filters="sRGB">
<feFlood flood-opacity="0" result="BackgroundImageFix"/>
<feColorMatrix in="SourceAlpha" type="matrix" values="0 0 0 0 0 0 0 0 0 0 0 0 0 0 0 0 0 0 127 0" result="hardAlpha"/>
<feOffset dy="7.88413"/>
<feGaussianBlur stdDeviation="5.51889"/>
<feColorMatrix type="matrix" values="0 0 0 0 0.184314 0 0 0 0 0.223529 0 0 0 0 0.254902 0 0 0 0.15 0"/>
<feBlend mode="normal" in2="BackgroundImageFix" result="effect1_dropShadow_436_7602"/>
<feBlend mode="normal" in="SourceGraphic" in2="effect1_dropShadow_436_7602" result="shape"/>
</filter>
<filter id="filter3_d_436_7602" x="46.7702" y="92.8507" width="9.11589" height="9.1162" filterUnits="userSpaceOnUse" color-interpolation-filters="sRGB">
<feFlood flood-opacity="0" result="BackgroundImageFix"/>
<feColorMatrix in="SourceAlpha" type="matrix" values="0 0 0 0 0 0 0 0 0 0 0 0 0 0 0 0 0 0 127 0" result="hardAlpha"/>
<feOffset dy="1.57683"/>
<feGaussianBlur stdDeviation="1.57683"/>
<feColorMatrix type="matrix" values="0 0 0 0 0.184314 0 0 0 0 0.223529 0 0 0 0 0.254902 0 0 0 0.15 0"/>
<feBlend mode="normal" in2="BackgroundImageFix" result="effect1_dropShadow_436_7602"/>
<feBlend mode="normal" in="SourceGraphic" in2="effect1_dropShadow_436_7602" result="shape"/>
</filter>
<filter id="filter4_d_436_7602" x="41.1481" y="92.8507" width="9.11589" height="9.1162" filterUnits="userSpaceOnUse" color-interpolation-filters="sRGB">
<feFlood flood-opacity="0" result="BackgroundImageFix"/>
<feColorMatrix in="SourceAlpha" type="matrix" values="0 0 0 0 0 0 0 0 0 0 0 0 0 0 0 0 0 0 127 0" result="hardAlpha"/>
<feOffset dy="1.57683"/>
<feGaussianBlur stdDeviation="1.57683"/>
<feColorMatrix type="matrix" values="0 0 0 0 0.184314 0 0 0 0 0.223529 0 0 0 0 0.254902 0 0 0 0.15 0"/>
<feBlend mode="normal" in2="BackgroundImageFix" result="effect1_dropShadow_436_7602"/>
<feBlend mode="normal" in="SourceGraphic" in2="effect1_dropShadow_436_7602" result="shape"/>
</filter>
<filter id="filter5_d_436_7602" x="35.3551" y="92.8497" width="9.11589" height="9.11766" filterUnits="userSpaceOnUse" color-interpolation-filters="sRGB">
<feFlood flood-opacity="0" result="BackgroundImageFix"/>
<feColorMatrix in="SourceAlpha" type="matrix" values="0 0 0 0 0 0 0 0 0 0 0 0 0 0 0 0 0 0 127 0" result="hardAlpha"/>
<feOffset dy="1.57683"/>
<feGaussianBlur stdDeviation="1.57683"/>
<feColorMatrix type="matrix" values="0 0 0 0 0.184314 0 0 0 0 0.223529 0 0 0 0 0.254902 0 0 0 0.15 0"/>
<feBlend mode="normal" in2="BackgroundImageFix" result="effect1_dropShadow_436_7602"/>
<feBlend mode="normal" in="SourceGraphic" in2="effect1_dropShadow_436_7602" result="shape"/>
</filter>
<filter id="filter6_d_436_7602" x="26.9069" y="89.1438" width="222.25" height="210.603" filterUnits="userSpaceOnUse" color-interpolation-filters="sRGB">
<feFlood flood-opacity="0" result="BackgroundImageFix"/>
<feColorMatrix in="SourceAlpha" type="matrix" values="0 0 0 0 0 0 0 0 0 0 0 0 0 0 0 0 0 0 127 0" result="hardAlpha"/>
<feOffset dy="11.2804"/>
<feGaussianBlur stdDeviation="11.2804"/>
<feColorMatrix type="matrix" values="0 0 0 0 0.184314 0 0 0 0 0.223529 0 0 0 0 0.254902 0 0 0 0.15 0"/>
<feBlend mode="normal" in2="BackgroundImageFix" result="effect1_dropShadow_436_7602"/>
<feBlend mode="normal" in="SourceGraphic" in2="effect1_dropShadow_436_7602" result="shape"/>
</filter>
<filter id="filter7_d_436_7602" x="96.7635" y="169.961" width="66.8276" height="65.34" filterUnits="userSpaceOnUse" color-interpolation-filters="sRGB">
<feFlood flood-opacity="0" result="BackgroundImageFix"/>
<feColorMatrix in="SourceAlpha" type="matrix" values="0 0 0 0 0 0 0 0 0 0 0 0 0 0 0 0 0 0 127 0" result="hardAlpha"/>
<feOffset dy="10.4215"/>
<feGaussianBlur stdDeviation="10.4215"/>
<feColorMatrix type="matrix" values="0 0 0 0 0.184314 0 0 0 0 0.223529 0 0 0 0 0.254902 0 0 0 0.15 0"/>
<feBlend mode="normal" in2="BackgroundImageFix" result="effect1_dropShadow_436_7602"/>
<feBlend mode="normal" in="SourceGraphic" in2="effect1_dropShadow_436_7602" result="shape"/>
</filter>
<filter id="filter8_d_436_7602" x="101.676" y="90.0028" width="145.763" height="145.677" filterUnits="userSpaceOnUse" color-interpolation-filters="sRGB">
<feFlood flood-opacity="0" result="BackgroundImageFix"/>
<feColorMatrix in="SourceAlpha" type="matrix" values="0 0 0 0 0 0 0 0 0 0 0 0 0 0 0 0 0 0 127 0" result="hardAlpha"/>
<feOffset dy="10.4215"/>
<feGaussianBlur stdDeviation="10.4215"/>
<feColorMatrix type="matrix" values="0 0 0 0 0.184314 0 0 0 0 0.223529 0 0 0 0 0.254902 0 0 0 0.15 0"/>
<feBlend mode="normal" in2="BackgroundImageFix" result="effect1_dropShadow_436_7602"/>
<feBlend mode="normal" in="SourceGraphic" in2="effect1_dropShadow_436_7602" result="shape"/>
</filter>
<filter id="filter9_d_436_7602" x="104.821" y="93.1553" width="139.453" height="139.366" filterUnits="userSpaceOnUse" color-interpolation-filters="sRGB">
<feFlood flood-opacity="0" result="BackgroundImageFix"/>
<feColorMatrix in="SourceAlpha" type="matrix" values="0 0 0 0 0 0 0 0 0 0 0 0 0 0 0 0 0 0 127 0" result="hardAlpha"/>
<feOffset dy="10.4215"/>
<feGaussianBlur stdDeviation="10.4215"/>
<feColorMatrix type="matrix" values="0 0 0 0 0.184314 0 0 0 0 0.223529 0 0 0 0 0.254902 0 0 0 0.15 0"/>
<feBlend mode="normal" in2="BackgroundImageFix" result="effect1_dropShadow_436_7602"/>
<feBlend mode="normal" in="SourceGraphic" in2="effect1_dropShadow_436_7602" result="shape"/>
</filter>
<linearGradient id="paint0_linear_436_7602" x1="436.75" y1="62.0677" x2="444.686" y2="62.1881" gradientUnits="userSpaceOnUse">
<stop stop-color="#001825"/>
<stop offset="1" stop-color="#003A57"/>
</linearGradient>
<linearGradient id="paint1_linear_436_7602" x1="145.533" y1="212.85" x2="140.154" y2="184.359" gradientUnits="userSpaceOnUse">
<stop offset="0.213542" stop-color="#323444"/>
<stop offset="0.6875" stop-color="#2F3941" stop-opacity="0.291667"/>
<stop offset="1" stop-color="#2F3941" stop-opacity="0"/>
</linearGradient>
<linearGradient id="paint2_linear_436_7602" x1="74.8798" y1="334.553" x2="68.027" y2="317.647" gradientUnits="userSpaceOnUse">
<stop offset="0.213542" stop-color="#323444"/>
<stop offset="0.6875" stop-color="#2F3941" stop-opacity="0.291667"/>
<stop offset="1" stop-color="#2F3941" stop-opacity="0"/>
</linearGradient>
<linearGradient id="paint3_linear_436_7602" x1="105.371" y1="335.911" x2="103.291" y2="326.925" gradientUnits="userSpaceOnUse">
<stop offset="0.213542" stop-color="#323444"/>
<stop offset="0.6875" stop-color="#2F3941" stop-opacity="0.291667"/>
<stop offset="1" stop-color="#2F3941" stop-opacity="0"/>
</linearGradient>
<linearGradient id="paint4_linear_436_7602" x1="117.064" y1="128.765" x2="88.9807" y2="181.587" gradientUnits="userSpaceOnUse">
<stop offset="0.213542" stop-color="#323444"/>
<stop offset="0.6875" stop-color="#2F3941" stop-opacity="0.291667"/>
<stop offset="1" stop-color="#2F3941" stop-opacity="0"/>
</linearGradient>
<linearGradient id="paint5_linear_436_7602" x1="67.3036" y1="156.757" x2="96.6321" y2="207.368" gradientUnits="userSpaceOnUse">
<stop offset="0.213542" stop-color="#323444"/>
<stop offset="0.6875" stop-color="#2F3941" stop-opacity="0.291667"/>
<stop offset="1" stop-color="#2F3941" stop-opacity="0"/>
</linearGradient>
<clipPath id="clip0_436_7602">
<rect width="527" height="382" fill="white"/>
</clipPath>
<clipPath id="clip1_436_7602">
<rect width="6.8163" height="8.52037" fill="white" transform="translate(225.094 163.9)"/>
</clipPath>
<clipPath id="clip2_436_7602">
<rect width="6.8163" height="8.52037" fill="white" transform="translate(293.291 163.9)"/>
</clipPath>
<clipPath id="clip3_436_7602">
<rect width="6.8163" height="8.52037" fill="white" transform="translate(361.489 163.9)"/>
</clipPath>
</defs>
</svg>
