<svg width="503" height="300" viewBox="0 0 503 300" fill="none" xmlns="http://www.w3.org/2000/svg">
<g opacity="0.6" clip-path="url(#clip0_118_12595)">
<path fill-rule="evenodd" clip-rule="evenodd" d="M477.795 237.681C484.646 284.022 318.496 314.248 175.487 293.154C32.4785 272.059 -33.1272 189.683 35.1142 145.79C103.356 101.897 470.944 191.34 477.795 237.681Z" fill="#D3ECDB"/>
</g>
<g filter="url(#filter0_d_118_12595)">
<rect x="8" y="48" width="225" height="187" rx="8" fill="white"/>
<rect x="24" y="72" width="64" height="8" rx="4" fill="#87929D"/>
<rect x="24" y="179" width="108" height="8" rx="4" fill="#87929D"/>
<rect x="24" y="199.5" width="193" height="15" rx="7.5" fill="#D4772C"/>
<rect x="8.5" y="48.5" width="224" height="186" rx="7.5" stroke="#E9EBED"/>
</g>
<g filter="url(#filter1_d_118_12595)">
<rect x="253" y="64" width="225" height="187" rx="8" fill="white"/>
<rect x="269" y="88" width="64" height="8" rx="4" fill="#87929D"/>
<rect x="269" y="195" width="108" height="8" rx="4" fill="#87929D"/>
<rect x="269" y="215.5" width="193" height="15" rx="7.5" fill="#003A57"/>
<rect x="253.5" y="64.5" width="224" height="186" rx="7.5" stroke="#E9EBED"/>
</g>
<defs>
<filter id="filter0_d_118_12595" x="0" y="44" width="258" height="203" filterUnits="userSpaceOnUse" color-interpolation-filters="sRGB">
<feFlood flood-opacity="0" result="BackgroundImageFix"/>
<feColorMatrix in="SourceAlpha" type="matrix" values="0 0 0 0 0 0 0 0 0 0 0 0 0 0 0 0 0 0 127 0" result="hardAlpha"/>
<feOffset dy="4"/>
<feGaussianBlur stdDeviation="4"/>
<feColorMatrix type="matrix" values="0 0 0 0 0.184314 0 0 0 0 0.223529 0 0 0 0 0.254902 0 0 0 0.15 0"/>
<feBlend mode="normal" in2="BackgroundImageFix" result="effect1_dropShadow_118_12595"/>
<feBlend mode="normal" in="SourceGraphic" in2="effect1_dropShadow_118_12595" result="shape"/>
</filter>
<filter id="filter1_d_118_12595" x="245" y="60" width="258" height="203" filterUnits="userSpaceOnUse" color-interpolation-filters="sRGB">
<feFlood flood-opacity="0" result="BackgroundImageFix"/>
<feColorMatrix in="SourceAlpha" type="matrix" values="0 0 0 0 0 0 0 0 0 0 0 0 0 0 0 0 0 0 127 0" result="hardAlpha"/>
<feOffset dy="4"/>
<feGaussianBlur stdDeviation="4"/>
<feColorMatrix type="matrix" values="0 0 0 0 0.184314 0 0 0 0 0.223529 0 0 0 0 0.254902 0 0 0 0.15 0"/>
<feBlend mode="normal" in2="BackgroundImageFix" result="effect1_dropShadow_118_12595"/>
<feBlend mode="normal" in="SourceGraphic" in2="effect1_dropShadow_118_12595" result="shape"/>
</filter>
<clipPath id="clip0_118_12595">
<rect width="470" height="166" fill="white" transform="translate(8 134)"/>
</clipPath>
</defs>
</svg>
