<svg width="940" height="614" viewBox="0 0 940 614" fill="none" xmlns="http://www.w3.org/2000/svg">
<path fill-rule="evenodd" clip-rule="evenodd" d="M151.057 439.248H880.621C894.914 409.848 902.931 376.838 902.931 341.958C902.931 218.822 803.024 119 679.783 119C637.444 119 597.859 130.781 564.133 151.242C470.646 194.989 375.491 200.076 322.747 202.102H263.917C178.769 202.102 128 273.097 128 358.173C128 387.921 136.439 415.699 151.057 439.248Z" fill="url(#paint0_linear_321_30479)"/>
<g style="mix-blend-mode:hard-light" opacity="0.6">
<path d="M225.5 257.636L229.772 253.368L234.043 257.636L229.772 261.904L225.5 257.636Z" fill="#E6EBEE"/>
<path d="M225.5 257.636L229.772 253.368L234.043 257.636L229.772 261.904L225.5 257.636Z" fill="url(#paint1_linear_321_30479)"/>
</g>
<g style="mix-blend-mode:hard-light" opacity="0.6">
<path d="M767 296.268L771.272 292L775.543 296.268L771.272 300.536L767 296.268Z" fill="#E6EBEE"/>
<path d="M767 296.268L771.272 292L775.543 296.268L771.272 300.536L767 296.268Z" fill="url(#paint2_linear_321_30479)"/>
</g>
<g style="mix-blend-mode:multiply" opacity="0.5">
<path fill-rule="evenodd" clip-rule="evenodd" d="M871.507 491.519C871.742 491.59 871.958 491.71 872.142 491.871C872.326 492.033 872.473 492.231 872.573 492.454C872.674 492.677 872.726 492.919 872.726 493.163C872.725 493.408 872.673 493.649 872.571 493.872C872.072 495.054 870.904 494.881 869.866 494.682C866.723 494.225 863.532 494.204 860.384 494.619C853.727 495.388 847.483 497.535 841.046 499.037C834.724 500.782 828.033 500.68 821.768 498.741C815.794 496.689 810.091 493.978 804.102 491.875C798.843 490.05 793.33 488.108 787.661 489.187C782.249 490.203 777.526 493.381 772.474 495.46C762.092 499.567 750.855 501.042 739.765 499.754C734.566 499.394 729.437 498.352 724.509 496.655C721.686 495.601 717.876 494.195 716.18 491.481C715.405 490.226 715.344 488.234 716.833 487.457C718.322 486.68 720.134 487.762 721.469 488.216C727.259 490.122 733.268 491.282 739.352 491.67C745.229 492.25 751.157 492.043 756.979 491.056C762.307 489.943 767.456 488.103 772.283 485.588C777.293 483.095 782.337 480.482 787.978 479.907C793.618 479.332 799.222 481.068 804.495 483.22C810.076 485.43 815.414 488.072 820.747 490.743C825.685 493.436 831.277 494.693 836.892 494.374C848.486 493.667 859.836 489.302 871.507 491.519Z" fill="#E6EBEE"/>
<path fill-rule="evenodd" clip-rule="evenodd" d="M871.507 491.519C871.742 491.59 871.958 491.71 872.142 491.871C872.326 492.033 872.473 492.231 872.573 492.454C872.674 492.677 872.726 492.919 872.726 493.163C872.725 493.408 872.673 493.649 872.571 493.872C872.072 495.054 870.904 494.881 869.866 494.682C866.723 494.225 863.532 494.204 860.384 494.619C853.727 495.388 847.483 497.535 841.046 499.037C834.724 500.782 828.033 500.68 821.768 498.741C815.794 496.689 810.091 493.978 804.102 491.875C798.843 490.05 793.33 488.108 787.661 489.187C782.249 490.203 777.526 493.381 772.474 495.46C762.092 499.567 750.855 501.042 739.765 499.754C734.566 499.394 729.437 498.352 724.509 496.655C721.686 495.601 717.876 494.195 716.18 491.481C715.405 490.226 715.344 488.234 716.833 487.457C718.322 486.68 720.134 487.762 721.469 488.216C727.259 490.122 733.268 491.282 739.352 491.67C745.229 492.25 751.157 492.043 756.979 491.056C762.307 489.943 767.456 488.103 772.283 485.588C777.293 483.095 782.337 480.482 787.978 479.907C793.618 479.332 799.222 481.068 804.495 483.22C810.076 485.43 815.414 488.072 820.747 490.743C825.685 493.436 831.277 494.693 836.892 494.374C848.486 493.667 859.836 489.302 871.507 491.519Z" fill="url(#paint3_linear_321_30479)" fill-opacity="0.8" style="mix-blend-mode:color-burn"/>
<path fill-rule="evenodd" clip-rule="evenodd" d="M871.507 491.519C871.742 491.59 871.958 491.71 872.142 491.871C872.326 492.033 872.473 492.231 872.573 492.454C872.674 492.677 872.726 492.919 872.726 493.163C872.725 493.408 872.673 493.649 872.571 493.872C872.072 495.054 870.904 494.881 869.866 494.682C866.723 494.225 863.532 494.204 860.384 494.619C853.727 495.388 847.483 497.535 841.046 499.037C834.724 500.782 828.033 500.68 821.768 498.741C815.794 496.689 810.091 493.978 804.102 491.875C798.843 490.05 793.33 488.108 787.661 489.187C782.249 490.203 777.526 493.381 772.474 495.46C762.092 499.567 750.855 501.042 739.765 499.754C734.566 499.394 729.437 498.352 724.509 496.655C721.686 495.601 717.876 494.195 716.18 491.481C715.405 490.226 715.344 488.234 716.833 487.457C718.322 486.68 720.134 487.762 721.469 488.216C727.259 490.122 733.268 491.282 739.352 491.67C745.229 492.25 751.157 492.043 756.979 491.056C762.307 489.943 767.456 488.103 772.283 485.588C777.293 483.095 782.337 480.482 787.978 479.907C793.618 479.332 799.222 481.068 804.495 483.22C810.076 485.43 815.414 488.072 820.747 490.743C825.685 493.436 831.277 494.693 836.892 494.374C848.486 493.667 859.836 489.302 871.507 491.519Z" fill="#2F3941" fill-opacity="0.15" style="mix-blend-mode:multiply"/>
</g>
<g style="mix-blend-mode:multiply" opacity="0.5">
<path fill-rule="evenodd" clip-rule="evenodd" d="M913.069 537.367C913.458 537.484 913.817 537.684 914.123 537.952C914.428 538.221 914.673 538.551 914.84 538.922C915.008 539.292 915.094 539.694 915.093 540.101C915.093 540.508 915.005 540.91 914.836 541.28C914.006 543.246 912.066 542.958 910.342 542.628C905.119 541.867 899.817 541.832 894.584 542.522C883.523 543.801 873.147 547.371 862.45 549.87C851.945 552.773 840.828 552.602 830.417 549.377C820.49 545.965 811.013 541.456 801.061 537.959C792.323 534.923 783.161 531.694 773.741 533.488C764.748 535.178 756.901 540.463 748.505 543.92C731.254 550.751 712.581 553.204 694.152 551.062C685.513 550.463 676.99 548.73 668.802 545.909C664.111 544.155 657.779 541.817 654.962 537.303C653.673 535.216 653.572 531.903 656.047 530.611C658.521 529.319 661.532 531.118 663.75 531.873C673.371 535.042 683.357 536.973 693.466 537.618C703.232 538.582 713.082 538.238 722.757 536.596C731.61 534.746 740.167 531.686 748.188 527.503C756.513 523.357 764.894 519.011 774.267 518.055C783.64 517.098 792.952 519.985 801.715 523.563C810.989 527.241 819.859 531.634 828.721 536.076C836.925 540.554 846.218 542.646 855.549 542.114C874.814 540.939 893.675 533.679 913.069 537.367Z" fill="#E6EBEE"/>
<path fill-rule="evenodd" clip-rule="evenodd" d="M913.069 537.367C913.458 537.484 913.817 537.684 914.123 537.952C914.428 538.221 914.673 538.551 914.84 538.922C915.008 539.292 915.094 539.694 915.093 540.101C915.093 540.508 915.005 540.91 914.836 541.28C914.006 543.246 912.066 542.958 910.342 542.628C905.119 541.867 899.817 541.832 894.584 542.522C883.523 543.801 873.147 547.371 862.45 549.87C851.945 552.773 840.828 552.602 830.417 549.377C820.49 545.965 811.013 541.456 801.061 537.959C792.323 534.923 783.161 531.694 773.741 533.488C764.748 535.178 756.901 540.463 748.505 543.92C731.254 550.751 712.581 553.204 694.152 551.062C685.513 550.463 676.99 548.73 668.802 545.909C664.111 544.155 657.779 541.817 654.962 537.303C653.673 535.216 653.572 531.903 656.047 530.611C658.521 529.319 661.532 531.118 663.75 531.873C673.371 535.042 683.357 536.973 693.466 537.618C703.232 538.582 713.082 538.238 722.757 536.596C731.61 534.746 740.167 531.686 748.188 527.503C756.513 523.357 764.894 519.011 774.267 518.055C783.64 517.098 792.952 519.985 801.715 523.563C810.989 527.241 819.859 531.634 828.721 536.076C836.925 540.554 846.218 542.646 855.549 542.114C874.814 540.939 893.675 533.679 913.069 537.367Z" fill="url(#paint4_linear_321_30479)" fill-opacity="0.8" style="mix-blend-mode:color-burn"/>
<path fill-rule="evenodd" clip-rule="evenodd" d="M913.069 537.367C913.458 537.484 913.817 537.684 914.123 537.952C914.428 538.221 914.673 538.551 914.84 538.922C915.008 539.292 915.094 539.694 915.093 540.101C915.093 540.508 915.005 540.91 914.836 541.28C914.006 543.246 912.066 542.958 910.342 542.628C905.119 541.867 899.817 541.832 894.584 542.522C883.523 543.801 873.147 547.371 862.45 549.87C851.945 552.773 840.828 552.602 830.417 549.377C820.49 545.965 811.013 541.456 801.061 537.959C792.323 534.923 783.161 531.694 773.741 533.488C764.748 535.178 756.901 540.463 748.505 543.92C731.254 550.751 712.581 553.204 694.152 551.062C685.513 550.463 676.99 548.73 668.802 545.909C664.111 544.155 657.779 541.817 654.962 537.303C653.673 535.216 653.572 531.903 656.047 530.611C658.521 529.319 661.532 531.118 663.75 531.873C673.371 535.042 683.357 536.973 693.466 537.618C703.232 538.582 713.082 538.238 722.757 536.596C731.61 534.746 740.167 531.686 748.188 527.503C756.513 523.357 764.894 519.011 774.267 518.055C783.64 517.098 792.952 519.985 801.715 523.563C810.989 527.241 819.859 531.634 828.721 536.076C836.925 540.554 846.218 542.646 855.549 542.114C874.814 540.939 893.675 533.679 913.069 537.367Z" fill="#2F3941" fill-opacity="0.15" style="mix-blend-mode:multiply"/>
</g>
<g filter="url(#filter0_d_321_30479)">
<g clip-path="url(#clip0_321_30479)">
<path fill-rule="evenodd" clip-rule="evenodd" d="M769.728 113C772.3 113 774.639 114.397 776.327 116.685C777.975 118.916 779 121.996 779 125.402V484.841C779 485.746 779 486.82 779 487.97C779 493.09 774.849 497.242 769.729 497.242H287.272C282.152 497.242 278.001 493.089 278 487.968C278 486.819 278 485.745 278 484.841V125.402C278 121.996 279.025 118.916 280.673 116.685C282.361 114.396 284.7 113 287.273 113H769.728Z" fill="#E6EBEE"/>
<path fill-rule="evenodd" clip-rule="evenodd" d="M769.728 113C772.3 113 774.639 114.397 776.327 116.685C777.975 118.916 779 121.996 779 125.402V484.841C779 485.746 779 486.82 779 487.97C779 493.09 774.849 497.242 769.729 497.242H287.272C282.152 497.242 278.001 493.089 278 487.968C278 486.819 278 485.745 278 484.841V125.402C278 121.996 279.025 118.916 280.673 116.685C282.361 114.396 284.7 113 287.273 113H769.728Z" fill="url(#paint5_linear_321_30479)"/>
<path opacity="0.3" fill-rule="evenodd" clip-rule="evenodd" d="M278 113H779V141.767H278V113Z" fill="#C6C3B3"/>
<path d="M704.291 135.228C708.336 135.228 711.616 132.301 711.616 128.69C711.616 125.08 708.336 122.152 704.291 122.152C700.246 122.152 696.967 125.08 696.967 128.69C696.967 132.301 700.246 135.228 704.291 135.228Z" fill="#70C38A"/>
<path d="M757.029 135.228C761.074 135.228 764.353 132.301 764.353 128.69C764.353 125.079 761.074 122.152 757.029 122.152C752.984 122.152 749.704 125.079 749.704 128.69C749.704 132.301 752.984 135.228 757.029 135.228Z" fill="url(#paint6_linear_321_30479)"/>
<path d="M730.66 135.228C734.705 135.228 737.984 132.301 737.984 128.69C737.984 125.079 734.705 122.152 730.66 122.152C726.614 122.152 723.335 125.079 723.335 128.69C723.335 132.301 726.614 135.228 730.66 135.228Z" fill="#F4AC1A"/>
<path d="M677.234 120.521H290.497C288.879 120.521 287.567 121.692 287.567 123.137V133.597C287.567 135.041 288.879 136.212 290.497 136.212H677.234C678.852 136.212 680.163 135.041 680.163 133.597V123.137C680.163 121.692 678.852 120.521 677.234 120.521Z" fill="white"/>
</g>
</g>
<path d="M401.305 97.2922L385.081 99.3896C376.148 95.204 367.499 92.4942 359.436 93.3393C351.336 94.1844 346.681 102.666 348.681 108.376C350.439 113.398 365.013 118.548 371.3 118.67C377.587 118.79 387.139 117.342 390.645 114.231C390.651 114.228 390.654 114.221 390.657 114.215H401.302V97.2953L401.305 97.2922Z" fill="#E6EBEE"/>
<path d="M401.305 97.2922L385.081 99.3896C376.148 95.204 367.499 92.4942 359.436 93.3393C351.336 94.1844 346.681 102.666 348.681 108.376C350.439 113.398 365.013 118.548 371.3 118.67C377.587 118.79 387.139 117.342 390.645 114.231C390.651 114.228 390.654 114.221 390.657 114.215H401.302V97.2953L401.305 97.2922Z" fill="url(#paint7_linear_321_30479)" fill-opacity="0.8"/>
<path d="M401.305 97.2922L385.081 99.3896C376.148 95.204 367.499 92.4942 359.436 93.3393C351.336 94.1844 346.681 102.666 348.681 108.376C350.439 113.398 365.013 118.548 371.3 118.67C377.587 118.79 387.139 117.342 390.645 114.231C390.651 114.228 390.654 114.221 390.657 114.215H401.302V97.2953L401.305 97.2922Z" fill="#2F3941" fill-opacity="0.15"/>
<path d="M385.081 99.3927C385.081 99.3927 379.881 99.855 378.876 99.8795C375.235 99.9683 371.585 100.167 371.585 100.167C371.585 100.167 369.315 92.8035 365.98 94.313C361.081 96.5298 366.682 99.9683 366.682 99.9683C366.682 99.9683 357.972 98.517 357.124 98.468C356.273 98.419 363.641 113.958 355.78 118.68C347.918 123.401 339.16 120.912 338.067 108.673C336.973 96.4349 349.511 84.6956 361.053 85.0936C372.595 85.4917 385.084 99.3958 385.084 99.3958L385.081 99.3927Z" fill="#101030"/>
<mask id="mask0_321_30479" style="mask-type:luminance" maskUnits="userSpaceOnUse" x="338" y="85" width="48" height="36">
<path d="M385.081 99.3927C385.081 99.3927 379.881 99.855 378.876 99.8795C375.235 99.9683 371.585 100.167 371.585 100.167C371.585 100.167 369.315 92.8035 365.98 94.313C361.081 96.5298 366.682 99.9683 366.682 99.9683C366.682 99.9683 357.972 98.517 357.124 98.468C356.273 98.419 363.641 113.958 355.78 118.68C347.918 123.401 339.16 120.912 338.067 108.673C336.973 96.4349 349.511 84.6956 361.053 85.0936C372.595 85.4917 385.084 99.3958 385.084 99.3958L385.081 99.3927Z" fill="white"/>
</mask>
<g mask="url(#mask0_321_30479)">
<path d="M349.094 120.912C349.094 120.912 355.078 115.899 354.784 110.36C354.487 104.821 352.702 96.1471 353.581 95.5714C354.46 94.9958 363.678 98.6732 363.678 98.6732C363.678 98.6732 361.981 96.1838 364.936 94.9101C364.936 94.9101 369.622 100.039 369.291 100.575C368.96 101.113 358.196 100.036 358.196 100.036C358.196 100.036 362.419 110.403 359.396 116.53C356.374 122.657 349.098 120.909 349.098 120.909" fill="#101030"/>
</g>
<path d="M384.741 114.344C384.741 114.344 382.263 113.634 382.263 109.332C382.263 105.03 382.263 108.903 382.263 108.903C382.263 108.903 384.781 113.48 384.741 114.344Z" fill="#2F3941"/>
<path d="M364.596 109.096C364.596 109.096 374.478 114.469 375.403 113.897C376.328 113.324 374.653 107.299 374.653 107.299C374.653 107.299 375.722 107.228 375.973 108.19C376.224 109.151 377.614 114.822 375.973 114.929C374.331 115.036 366.198 111.031 364.593 109.093L364.596 109.096Z" fill="#2F3941"/>
<path d="M669.06 132.789C669.06 132.789 680.032 130.183 680.305 130.685C680.581 131.187 682.133 136.215 681.539 138.043C680.945 139.871 670.156 143.803 670.156 143.803L669.06 132.786V132.789Z" fill="#E57492"/>
<path d="M677.607 99.4294C677.607 99.4294 573.682 90.9051 552.098 86.3735C530.514 81.8449 512.535 91.6889 512.535 91.6889V113.777C512.535 113.777 568.384 161.35 593.425 161.978C618.469 162.603 670.848 148.625 671.268 146.329C671.684 144.032 671.268 130.471 669.182 129.635C667.097 128.799 597.81 136.729 596.558 135.269C595.743 134.32 584.014 122.544 573.718 113.777H677.61V99.4294H677.607Z" fill="#2B8473"/>
<mask id="mask1_321_30479" style="mask-type:luminance" maskUnits="userSpaceOnUse" x="512" y="85" width="166" height="77">
<path d="M677.607 99.4294C677.607 99.4294 573.682 90.9051 552.098 86.3735C530.514 81.8449 512.535 91.6889 512.535 91.6889V113.777C512.535 113.777 568.384 161.35 593.425 161.978C618.469 162.603 670.848 148.625 671.268 146.329C671.684 144.032 671.268 130.471 669.182 129.635C667.097 128.799 597.81 136.729 596.558 135.269C595.743 134.32 584.014 122.544 573.718 113.777H677.61V99.4294H677.607Z" fill="white"/>
</mask>
<g mask="url(#mask1_321_30479)">
<path d="M598.529 149.443C598.162 149.443 597.868 149.43 597.635 149.403C597.577 149.397 597.519 149.387 597.458 149.378C597.191 149.332 597.014 149.078 597.059 148.815C597.105 148.548 597.36 148.371 597.623 148.417C597.663 148.423 597.703 148.429 597.739 148.435C598.049 148.469 598.532 148.475 599.148 148.457C599.421 148.447 599.644 148.659 599.65 148.928C599.659 149.198 599.448 149.424 599.179 149.43C598.943 149.436 598.725 149.443 598.526 149.443H598.529ZM600.799 149.345C600.544 149.345 600.33 149.149 600.312 148.891C600.293 148.622 600.495 148.389 600.765 148.371C601.261 148.337 601.8 148.291 602.385 148.239C602.651 148.215 602.89 148.414 602.915 148.683C602.939 148.953 602.74 149.188 602.471 149.213C601.88 149.265 601.335 149.311 600.832 149.345C600.82 149.345 600.808 149.345 600.799 149.345ZM604.054 149.06C603.806 149.06 603.595 148.873 603.57 148.622C603.543 148.352 603.739 148.114 604.008 148.086C604.526 148.034 605.065 147.976 605.628 147.915C605.894 147.887 606.136 148.08 606.167 148.346C606.195 148.616 606.002 148.855 605.735 148.885C605.169 148.946 604.627 149.005 604.109 149.057C604.094 149.057 604.075 149.057 604.06 149.057L604.054 149.06ZM595.997 148.876C595.932 148.876 595.868 148.864 595.807 148.836C595.366 148.649 594.858 148.414 594.297 148.132C594.055 148.013 593.957 147.719 594.08 147.477C594.199 147.235 594.493 147.14 594.735 147.259C595.277 147.532 595.767 147.758 596.19 147.939C596.438 148.043 596.554 148.331 596.45 148.579C596.37 148.766 596.19 148.876 596 148.876H595.997ZM607.3 148.708C607.055 148.708 606.844 148.524 606.816 148.276C606.786 148.01 606.979 147.765 607.245 147.734C607.769 147.673 608.308 147.611 608.862 147.544C609.128 147.51 609.373 147.703 609.404 147.97C609.435 148.236 609.245 148.481 608.978 148.512C608.424 148.579 607.882 148.643 607.355 148.702C607.337 148.702 607.318 148.705 607.3 148.705V148.708ZM610.54 148.319C610.298 148.319 610.087 148.138 610.056 147.89C610.023 147.624 610.212 147.379 610.482 147.345C611.009 147.281 611.548 147.213 612.099 147.143C612.365 147.109 612.61 147.299 612.644 147.566C612.678 147.832 612.488 148.077 612.221 148.111C611.67 148.181 611.131 148.248 610.601 148.313C610.58 148.313 610.562 148.316 610.54 148.316V148.319ZM613.774 147.909C613.532 147.909 613.324 147.728 613.29 147.483C613.256 147.217 613.443 146.972 613.713 146.935C614.243 146.864 614.782 146.794 615.33 146.724C615.596 146.69 615.841 146.877 615.878 147.143C615.915 147.409 615.725 147.654 615.458 147.691C614.91 147.765 614.371 147.835 613.841 147.902C613.82 147.902 613.799 147.905 613.777 147.905L613.774 147.909ZM617.008 147.48C616.766 147.48 616.558 147.302 616.524 147.057C616.487 146.791 616.677 146.546 616.944 146.509L618.557 146.292C618.824 146.252 619.072 146.442 619.109 146.708C619.145 146.975 618.959 147.223 618.689 147.256L617.072 147.474C617.051 147.474 617.029 147.477 617.008 147.477V147.48ZM593.069 147.425C592.99 147.425 592.91 147.406 592.836 147.367C592.383 147.119 591.902 146.852 591.4 146.567C591.167 146.433 591.085 146.136 591.216 145.903C591.348 145.67 591.648 145.588 591.881 145.719C592.377 146.001 592.849 146.264 593.299 146.509C593.535 146.638 593.623 146.935 593.495 147.171C593.406 147.333 593.238 147.425 593.066 147.425H593.069ZM620.239 147.039C620 147.039 619.789 146.861 619.755 146.616C619.718 146.35 619.905 146.102 620.171 146.065L621.785 145.842C622.052 145.805 622.3 145.992 622.336 146.258C622.373 146.525 622.186 146.773 621.92 146.809L620.306 147.033C620.285 147.036 620.26 147.039 620.239 147.039ZM623.466 146.589C623.228 146.589 623.019 146.411 622.983 146.169C622.946 145.903 623.133 145.655 623.399 145.618L625.013 145.389C625.276 145.349 625.527 145.536 625.564 145.802C625.601 146.068 625.417 146.316 625.151 146.353L623.537 146.583C623.512 146.586 623.491 146.589 623.47 146.589H623.466ZM626.694 146.13C626.455 146.13 626.247 145.955 626.21 145.71C626.174 145.444 626.357 145.196 626.624 145.159L628.235 144.926C628.504 144.889 628.749 145.073 628.789 145.34C628.829 145.606 628.642 145.854 628.376 145.894L626.762 146.126C626.737 146.13 626.716 146.133 626.691 146.133L626.694 146.13ZM590.23 145.814C590.148 145.814 590.062 145.793 589.982 145.747C589.529 145.48 589.06 145.199 588.577 144.908C588.347 144.77 588.27 144.47 588.411 144.237C588.552 144.008 588.852 143.931 589.082 144.072C589.563 144.36 590.028 144.638 590.478 144.905C590.711 145.043 590.788 145.34 590.653 145.572C590.561 145.725 590.399 145.814 590.23 145.814ZM629.919 145.664C629.68 145.664 629.472 145.49 629.435 145.245C629.395 144.978 629.582 144.73 629.849 144.69L631.459 144.455C631.729 144.415 631.974 144.599 632.014 144.868C632.053 145.134 631.87 145.382 631.6 145.422L629.986 145.658C629.962 145.661 629.937 145.664 629.916 145.664H629.919ZM633.144 145.193C632.905 145.193 632.697 145.018 632.66 144.776C632.62 144.51 632.804 144.262 633.073 144.222L634.684 143.983C634.95 143.943 635.199 144.127 635.238 144.393C635.278 144.66 635.094 144.908 634.828 144.948L633.214 145.186C633.19 145.19 633.165 145.193 633.144 145.193ZM636.375 144.715C636.136 144.715 635.927 144.54 635.891 144.299C635.851 144.032 636.035 143.784 636.301 143.744L637.915 143.502C638.184 143.463 638.429 143.646 638.469 143.913C638.509 144.179 638.325 144.427 638.059 144.467L636.445 144.709C636.42 144.712 636.396 144.715 636.371 144.715H636.375ZM639.596 144.231C639.357 144.231 639.149 144.057 639.115 143.815C639.076 143.548 639.259 143.3 639.526 143.261L641.137 143.019C641.403 142.979 641.651 143.163 641.691 143.429C641.731 143.695 641.547 143.943 641.28 143.983L639.67 144.225C639.645 144.228 639.621 144.231 639.596 144.231ZM587.434 144.13C587.349 144.13 587.26 144.106 587.18 144.057C586.727 143.778 586.264 143.49 585.793 143.196C585.563 143.052 585.496 142.752 585.637 142.523C585.778 142.293 586.081 142.226 586.31 142.366C586.782 142.66 587.241 142.945 587.695 143.224C587.924 143.365 587.995 143.665 587.854 143.894C587.762 144.044 587.603 144.127 587.437 144.127L587.434 144.13ZM642.818 143.744C642.582 143.744 642.374 143.57 642.337 143.328C642.297 143.062 642.481 142.813 642.747 142.771L644.358 142.526C644.625 142.486 644.873 142.67 644.916 142.936C644.955 143.202 644.772 143.45 644.505 143.493L642.894 143.738C642.87 143.741 642.845 143.744 642.821 143.744H642.818ZM646.039 143.254C645.804 143.254 645.595 143.083 645.559 142.841C645.519 142.575 645.699 142.327 645.966 142.284L647.577 142.036C647.846 141.996 648.091 142.177 648.134 142.443C648.174 142.709 647.993 142.957 647.727 143L646.116 143.248C646.091 143.251 646.067 143.254 646.042 143.254H646.039ZM649.261 142.758C649.025 142.758 648.817 142.587 648.78 142.345C648.74 142.079 648.921 141.831 649.188 141.788L650.798 141.54C651.065 141.5 651.313 141.681 651.356 141.947C651.396 142.213 651.215 142.461 650.948 142.504L649.338 142.752C649.313 142.755 649.289 142.758 649.264 142.758H649.261ZM584.666 142.4C584.577 142.4 584.485 142.376 584.406 142.324C583.952 142.039 583.493 141.745 583.028 141.448C582.801 141.301 582.734 141.001 582.881 140.774C583.028 140.548 583.328 140.48 583.554 140.627C584.02 140.924 584.476 141.215 584.926 141.5C585.153 141.644 585.223 141.947 585.076 142.174C584.984 142.321 584.825 142.4 584.663 142.4H584.666ZM652.483 142.259C652.247 142.259 652.039 142.088 652.002 141.846C651.962 141.58 652.143 141.332 652.409 141.289L654.02 141.038C654.29 140.995 654.538 141.178 654.577 141.445C654.62 141.711 654.437 141.962 654.17 142.002L652.559 142.253C652.535 142.256 652.507 142.259 652.483 142.259ZM655.704 141.757C655.469 141.757 655.26 141.586 655.224 141.344C655.181 141.077 655.364 140.826 655.631 140.787L657.242 140.535C657.508 140.496 657.759 140.676 657.799 140.943C657.842 141.209 657.658 141.46 657.392 141.5L655.781 141.751C655.756 141.754 655.729 141.757 655.704 141.757ZM658.926 141.252C658.69 141.252 658.482 141.08 658.445 140.839C658.402 140.572 658.586 140.321 658.852 140.281L660.463 140.027C660.733 139.984 660.981 140.168 661.021 140.434C661.064 140.701 660.88 140.952 660.613 140.992L659.003 141.246C658.978 141.249 658.95 141.252 658.926 141.252ZM662.148 140.744C661.912 140.744 661.704 140.572 661.667 140.33C661.624 140.064 661.808 139.813 662.074 139.773L663.685 139.519C663.948 139.476 664.202 139.657 664.242 139.926C664.285 140.193 664.101 140.444 663.835 140.483L662.224 140.738C662.2 140.741 662.172 140.744 662.148 140.744ZM581.919 140.64C581.827 140.64 581.735 140.615 581.656 140.56C581.205 140.269 580.749 139.972 580.287 139.672C580.06 139.525 579.996 139.222 580.143 138.995C580.29 138.769 580.593 138.704 580.82 138.854C581.279 139.155 581.735 139.448 582.185 139.739C582.412 139.886 582.476 140.186 582.329 140.413C582.237 140.557 582.078 140.636 581.919 140.636V140.64ZM665.369 140.232C665.133 140.232 664.925 140.061 664.888 139.822C664.846 139.556 665.026 139.305 665.293 139.262L666.904 139.004C667.17 138.959 667.421 139.142 667.464 139.409C667.507 139.675 667.326 139.926 667.06 139.969L665.446 140.226C665.421 140.229 665.394 140.232 665.369 140.232ZM668.594 139.718C668.358 139.718 668.15 139.546 668.113 139.308C668.07 139.041 668.251 138.79 668.517 138.747L670.131 138.49C670.395 138.447 670.649 138.628 670.692 138.894C670.735 139.161 670.554 139.412 670.287 139.455L668.674 139.712C668.649 139.715 668.622 139.718 668.597 139.718H668.594ZM671.825 139.2C671.589 139.2 671.381 139.029 671.344 138.79C671.301 138.524 671.482 138.273 671.748 138.23L673.377 137.967C673.644 137.924 673.895 138.104 673.938 138.371C673.981 138.637 673.8 138.888 673.534 138.931L671.904 139.194C671.877 139.197 671.852 139.2 671.825 139.2ZM579.184 138.861C579.092 138.861 579.001 138.836 578.918 138.781C578.468 138.487 578.014 138.187 577.555 137.884C577.331 137.734 577.267 137.434 577.417 137.207C577.564 136.981 577.867 136.919 578.094 137.069C578.55 137.372 579.004 137.67 579.454 137.963C579.68 138.11 579.742 138.414 579.595 138.64C579.5 138.784 579.343 138.861 579.187 138.861H579.184ZM576.465 137.063C576.373 137.063 576.278 137.036 576.195 136.981C575.745 136.681 575.292 136.38 574.839 136.077C574.615 135.927 574.554 135.624 574.704 135.401C574.854 135.177 575.157 135.116 575.381 135.266C575.834 135.569 576.287 135.869 576.734 136.169C576.958 136.319 577.019 136.622 576.872 136.846C576.777 136.987 576.624 137.063 576.465 137.063ZM573.755 135.254C573.663 135.254 573.568 135.226 573.482 135.171L572.128 134.262C571.905 134.112 571.847 133.808 571.997 133.585C572.147 133.361 572.45 133.3 572.674 133.453L574.024 134.363C574.248 134.513 574.309 134.816 574.156 135.039C574.061 135.18 573.908 135.257 573.748 135.257L573.755 135.254ZM571.054 133.432C570.959 133.432 570.864 133.404 570.781 133.349L569.43 132.434C569.207 132.281 569.149 131.977 569.302 131.757C569.455 131.533 569.758 131.475 569.979 131.628L571.326 132.541C571.55 132.691 571.608 132.994 571.458 133.218C571.363 133.358 571.21 133.432 571.054 133.432ZM568.359 131.601C568.264 131.601 568.169 131.573 568.083 131.515L566.739 130.597C566.515 130.443 566.46 130.14 566.61 129.917C566.763 129.693 567.066 129.638 567.29 129.788L568.631 130.704C568.855 130.857 568.913 131.16 568.76 131.383C568.665 131.521 568.512 131.598 568.356 131.598L568.359 131.601ZM565.67 129.764C565.575 129.764 565.48 129.736 565.394 129.678L564.047 128.753C563.826 128.6 563.768 128.297 563.921 128.073C564.074 127.85 564.378 127.795 564.601 127.948L565.945 128.873C566.169 129.026 566.224 129.329 566.071 129.552C565.976 129.69 565.823 129.764 565.667 129.764H565.67ZM562.981 127.914C562.886 127.914 562.788 127.887 562.705 127.829L561.364 126.904C561.144 126.751 561.085 126.448 561.239 126.224C561.392 126.001 561.698 125.949 561.918 126.102L563.26 127.026C563.48 127.179 563.538 127.483 563.385 127.706C563.29 127.844 563.137 127.917 562.984 127.917L562.981 127.914ZM560.301 126.062C560.207 126.062 560.109 126.034 560.023 125.976L558.685 125.048C558.464 124.895 558.409 124.589 558.562 124.369C558.715 124.148 559.021 124.093 559.242 124.246L560.58 125.174C560.801 125.327 560.856 125.633 560.703 125.854C560.608 125.991 560.455 126.065 560.301 126.065V126.062ZM557.625 124.203C557.53 124.203 557.432 124.176 557.346 124.114L556.008 123.184C555.788 123.031 555.732 122.724 555.886 122.504C556.039 122.283 556.345 122.228 556.565 122.381L557.904 123.312C558.124 123.465 558.179 123.772 558.026 123.992C557.931 124.13 557.778 124.2 557.625 124.2V124.203ZM554.951 122.339C554.854 122.339 554.759 122.311 554.673 122.25L553.347 121.322C553.126 121.169 553.068 120.86 553.221 120.639C553.377 120.419 553.674 120.361 553.898 120.517L555.233 121.451C555.454 121.604 555.509 121.91 555.353 122.13C555.258 122.265 555.108 122.339 554.951 122.339ZM552.281 120.471C552.183 120.471 552.085 120.443 552.002 120.382L550.667 119.445C550.447 119.289 550.395 118.986 550.548 118.765C550.704 118.545 551.007 118.493 551.228 118.646L552.563 119.583C552.783 119.739 552.838 120.042 552.682 120.263C552.587 120.397 552.437 120.471 552.281 120.471ZM549.614 118.597C549.516 118.597 549.418 118.569 549.332 118.508L548 117.571C547.779 117.415 547.727 117.112 547.88 116.891C548.037 116.671 548.34 116.619 548.56 116.772L549.892 117.709C550.113 117.865 550.165 118.168 550.012 118.389C549.917 118.523 549.767 118.597 549.611 118.597H549.614ZM546.946 116.72C546.848 116.72 546.75 116.692 546.665 116.631L545.333 115.691C545.112 115.535 545.06 115.232 545.216 115.011C545.372 114.791 545.675 114.739 545.896 114.895L547.228 115.835C547.449 115.991 547.501 116.294 547.344 116.515C547.25 116.65 547.1 116.723 546.946 116.723V116.72ZM544.282 114.84C544.184 114.84 544.086 114.812 544 114.751L542.668 113.811C542.448 113.655 542.396 113.352 542.552 113.131C542.708 112.911 543.011 112.859 543.232 113.015L544.564 113.955C544.784 114.111 544.836 114.414 544.68 114.635C544.585 114.77 544.435 114.84 544.282 114.84ZM541.618 112.957C541.52 112.957 541.422 112.929 541.336 112.868L540.004 111.925C539.783 111.769 539.731 111.466 539.888 111.245C540.044 111.025 540.35 110.973 540.567 111.129L541.9 112.072C542.12 112.228 542.172 112.531 542.016 112.752C541.921 112.886 541.771 112.957 541.618 112.957ZM538.954 111.071C538.856 111.071 538.758 111.04 538.672 110.982L537.34 110.039C537.119 109.883 537.067 109.58 537.223 109.359C537.379 109.139 537.686 109.087 537.903 109.243L539.235 110.186C539.456 110.342 539.508 110.645 539.352 110.866C539.257 111 539.107 111.071 538.954 111.071ZM536.286 109.185C536.188 109.185 536.09 109.157 536.004 109.096L534.669 108.153C534.449 107.997 534.397 107.693 534.55 107.473C534.706 107.253 535.009 107.201 535.23 107.354L536.565 108.297C536.785 108.453 536.837 108.756 536.681 108.976C536.586 109.111 536.436 109.182 536.283 109.182L536.286 109.185ZM533.61 107.302C533.512 107.302 533.417 107.274 533.331 107.213C532.718 106.787 532.265 106.472 531.987 106.288C531.763 106.138 531.702 105.835 531.849 105.611C531.999 105.388 532.302 105.327 532.526 105.474C532.807 105.66 533.27 105.979 533.888 106.411C534.109 106.564 534.164 106.87 534.008 107.09C533.913 107.225 533.763 107.298 533.607 107.298L533.61 107.302Z" fill="#206E6A"/>
<path d="M516.206 88.7924C516.206 88.7924 517.122 117.951 516.663 118.407C516.203 118.863 511.058 115.091 511.058 115.091C511.058 115.091 510.458 91.839 510.945 90.3937C511.429 88.9485 516.206 88.7924 516.206 88.7924Z" fill="#206E6A"/>
<path d="M573.715 113.781C573.715 113.781 551.375 95.3877 547.933 94.4967C547.933 94.4967 570.493 99.5948 587.958 104.564C605.42 109.534 679.352 108.514 679.352 108.514V115.906L573.715 113.778" fill="#206E6A"/>
</g>
<g filter="url(#filter1_d_321_30479)">
<g clip-path="url(#clip1_321_30479)">
<rect width="339.657" height="204.384" rx="7.21242" transform="matrix(0.996205 0.0870351 -0.0872766 0.996184 389.814 189)" fill="white"/>
<rect width="45.9792" height="14.4248" rx="7.21242" transform="matrix(0.996205 0.0870351 -0.0872766 0.996184 403.069 223.643)" fill="#FFE7C9"/>
<path d="M407.168 265.936C405.891 265.824 404.738 265.425 403.71 264.738C402.696 264.039 401.919 263.128 401.381 262.006C400.856 260.872 400.653 259.633 400.77 258.289C400.888 256.946 401.303 255.767 402.016 254.754C402.742 253.743 403.664 252.987 404.783 252.488C405.916 251.976 407.122 251.776 408.399 251.888C409.69 252 410.843 252.406 411.856 253.106C412.885 253.793 413.662 254.697 414.187 255.818C414.713 256.939 414.917 258.171 414.799 259.515C414.681 260.858 414.266 262.043 413.552 263.069C412.839 264.082 411.916 264.844 410.783 265.356C409.664 265.855 408.459 266.049 407.168 265.936ZM407.34 263.98C408.249 264.059 409.077 263.926 409.824 263.58C410.572 263.22 411.177 262.676 411.639 261.946C412.116 261.205 412.399 260.327 412.487 259.313C412.576 258.299 412.45 257.392 412.109 256.592C411.78 255.793 411.278 255.159 410.603 254.688C409.927 254.218 409.135 253.943 408.226 253.864C407.317 253.784 406.489 253.917 405.742 254.264C404.995 254.61 404.384 255.147 403.909 255.875C403.446 256.605 403.171 257.477 403.082 258.491C402.993 259.505 403.112 260.418 403.439 261.23C403.781 262.03 404.289 262.671 404.963 263.155C405.639 263.625 406.431 263.9 407.34 263.98ZM427.175 257.829C427.114 258.527 426.892 259.171 426.508 259.761C426.125 260.352 425.553 260.813 424.794 261.145C424.036 261.463 423.091 261.573 421.958 261.474L419.468 261.257L418.98 266.829L416.728 266.632L417.931 252.9L422.673 253.314C423.727 253.406 424.6 253.668 425.292 254.1C425.998 254.52 426.502 255.055 426.804 255.706C427.118 256.357 427.242 257.065 427.175 257.829ZM422.119 259.637C422.975 259.711 423.631 259.576 424.086 259.231C424.542 258.873 424.801 258.338 424.863 257.627C424.995 256.125 424.211 255.3 422.512 255.151L420.022 254.934L419.629 259.419L422.119 259.637ZM433.308 268.22C432.386 268.139 431.57 267.908 430.86 267.528C430.151 267.134 429.612 266.622 429.242 265.993C428.872 265.363 428.722 264.653 428.791 263.863L431.202 264.074C431.203 264.671 431.391 265.179 431.765 265.596C432.154 266.015 432.723 266.257 433.474 266.323C434.251 266.391 434.873 266.259 435.34 265.928C435.808 265.584 436.068 265.116 436.12 264.523C436.161 264.062 436.055 263.675 435.804 263.361C435.566 263.048 435.25 262.795 434.855 262.601C434.474 262.408 433.936 262.189 433.24 261.942C432.365 261.627 431.655 261.326 431.109 261.039C430.578 260.741 430.137 260.317 429.787 259.769C429.437 259.221 429.3 258.519 429.375 257.662C429.444 256.872 429.702 256.198 430.149 255.639C430.596 255.081 431.189 254.675 431.928 254.421C432.667 254.167 433.504 254.081 434.44 254.163C435.77 254.279 436.827 254.71 437.612 255.455C438.41 256.189 438.805 257.139 438.795 258.306L436.306 258.089C436.31 257.585 436.11 257.136 435.707 256.742C435.303 256.349 434.746 256.121 434.035 256.059C433.389 256.002 432.848 256.121 432.411 256.414C431.973 256.708 431.728 257.164 431.673 257.784C431.637 258.205 431.731 258.565 431.957 258.864C432.198 259.15 432.508 259.39 432.89 259.582C433.271 259.775 433.796 259.993 434.465 260.237C435.352 260.567 436.068 260.882 436.612 261.182C437.17 261.482 437.623 261.914 437.972 262.475C438.336 263.024 438.479 263.734 438.403 264.603C438.342 265.301 438.093 265.943 437.657 266.529C437.234 267.116 436.643 267.569 435.885 267.887C435.142 268.194 434.282 268.305 433.308 268.22ZM445.065 255.27L443.968 264.831L442.091 264.667L442.674 255.061L445.065 255.27ZM442.723 269.042C442.315 269.007 441.984 268.838 441.732 268.538C441.48 268.237 441.371 267.882 441.407 267.474C441.443 267.065 441.611 266.735 441.912 266.483C442.213 266.23 442.567 266.122 442.976 266.157C443.371 266.192 443.695 266.36 443.947 266.66C444.2 266.961 444.308 267.316 444.272 267.724C444.236 268.132 444.068 268.463 443.767 268.715C443.466 268.968 443.118 269.077 442.723 269.042Z" fill="#49545C"/>
<rect width="304.773" height="7.16814" rx="3.58407" transform="matrix(0.996205 0.0870351 -0.0872766 0.996184 398.282 278.283)" fill="#E6EBEE"/>
<rect width="72.1242" height="7.21242" rx="3.60621" transform="matrix(0.996205 0.0870351 -0.0872766 0.996184 396.777 295.465)" fill="#E9EBED"/>
<rect width="0.901552" height="5.73451" transform="matrix(0.996205 0.0870351 -0.0872766 0.996184 475.748 303.106)" fill="#D8DCDE"/>
<rect width="72.1242" height="7.21242" rx="3.60621" transform="matrix(0.996205 0.0870351 -0.0872766 0.996184 483.895 303.076)" fill="#E9EBED"/>
<rect width="72.1242" height="7.21242" rx="3.60621" transform="matrix(0.996205 0.0870351 -0.0872766 0.996184 562.931 309.981)" fill="#E9EBED"/>
<rect width="72.1242" height="7.21242" rx="3.60621" transform="matrix(0.996205 0.0870351 -0.0872766 0.996184 395.017 315.547)" fill="#E9EBED"/>
<rect width="0.901552" height="5.73451" transform="matrix(0.996205 0.0870351 -0.0872766 0.996184 473.988 323.189)" fill="#D8DCDE"/>
<rect width="72.1242" height="7.21242" rx="3.60621" transform="matrix(0.996205 0.0870351 -0.0872766 0.996184 482.136 323.159)" fill="#E9EBED"/>
<rect width="72.1242" height="7.21242" rx="3.60621" transform="matrix(0.996205 0.0870351 -0.0872766 0.996184 561.171 330.064)" fill="#E9EBED"/>
</g>
</g>
<path d="M679.901 130.624C679.901 130.624 681.677 127.789 684.999 127.326C688.322 126.864 689.4 127.326 689.4 127.326C689.4 127.326 698.318 151.485 696.698 151.996C695.081 152.507 691.421 152.593 690.313 151.571C689.207 150.548 680.81 138.87 680.81 138.87C680.81 138.87 681.352 132.553 679.897 130.624H679.901Z" fill="#101030"/>
<mask id="mask2_321_30479" style="mask-type:luminance" maskUnits="userSpaceOnUse" x="679" y="127" width="18" height="26">
<path d="M679.901 130.624C679.901 130.624 681.677 127.789 684.999 127.326C688.322 126.864 689.4 127.326 689.4 127.326C689.4 127.326 698.318 151.485 696.698 151.996C695.081 152.507 691.421 152.593 690.313 151.571C689.207 150.548 680.81 138.87 680.81 138.87C680.81 138.87 681.352 132.553 679.897 130.624H679.901Z" fill="white"/>
</mask>
<g mask="url(#mask2_321_30479)">
<path d="M682.406 142.085C682.406 142.085 684.776 139.384 685.915 139.445C686.623 139.482 686.926 139.969 687.054 140.333C687.134 140.56 687.079 140.814 686.923 140.995C686.258 141.754 684.329 143.91 683.906 143.806C683.395 143.677 682.406 142.085 682.406 142.085Z" fill="#101030"/>
<path d="M684.792 145.585C684.792 145.585 687.162 142.884 688.301 142.945C689.008 142.982 689.312 143.469 689.44 143.833C689.52 144.06 689.465 144.314 689.309 144.495C688.644 145.254 686.715 147.409 686.292 147.305C685.781 147.177 684.792 145.585 684.792 145.585Z" fill="#101030"/>
<path d="M686.981 126.729C686.981 126.729 695.347 151.763 695.289 152.811C695.289 152.811 698.079 152.636 698.079 151.938C698.079 151.24 691.222 126.846 690.353 126.729C689.483 126.613 686.984 126.729 686.984 126.729H686.981Z" fill="#101030"/>
</g>
<path d="M677.607 104.405C677.607 104.405 687.879 105.832 688.072 106.346C688.265 106.861 688.301 113.79 688.301 113.79L677.607 113.808V104.402V104.405Z" fill="#E57492"/>
<path d="M687.646 106.141C687.646 106.141 688.856 103.104 692.387 102.911C695.921 102.718 704.186 107.115 704.921 107.424C705.659 107.733 715.612 110.412 715.786 110.501C717.915 111.579 716.019 114.12 716.019 114.12L688.295 113.793L687.643 106.141H687.646Z" fill="#101030"/>
<mask id="mask3_321_30479" style="mask-type:luminance" maskUnits="userSpaceOnUse" x="687" y="102" width="30" height="13">
<path d="M687.646 106.141C687.646 106.141 688.856 103.104 692.387 102.911C695.921 102.718 704.186 107.115 704.921 107.424C705.659 107.733 715.612 110.412 715.786 110.501C717.915 111.579 716.019 114.12 716.019 114.12L688.295 113.793L687.643 106.141H687.646Z" fill="white"/>
</mask>
<g mask="url(#mask3_321_30479)">
<path d="M690.479 102.905C690.816 103.217 702.735 108.882 704.505 109.108C706.275 109.338 717.18 112.271 717.18 112.271C717.18 112.271 717.768 110.78 716.8 110.22C715.83 109.659 705.298 107.145 704.459 106.677C703.62 106.212 693.462 102.112 692.623 102.249C691.784 102.39 690.479 102.899 690.479 102.899V102.905Z" fill="#101030"/>
<path d="M693.49 114.353C693.707 113.566 694.488 109.769 695.079 109.638C695.673 109.506 697.112 109.901 697.069 110.119C697.027 110.336 696.72 114.485 695.759 114.485C694.797 114.485 693.49 114.353 693.49 114.353Z" fill="#101030"/>
<path d="M699.134 115.446C699.351 114.659 700.132 110.863 700.723 110.731C701.314 110.599 702.756 110.994 702.714 111.212C702.671 111.429 702.364 115.578 701.403 115.578C700.441 115.578 699.134 115.446 699.134 115.446Z" fill="#101030"/>
</g>
<path d="M421.741 211.167C421.741 211.167 419.319 214.425 418.516 216.039C417.717 217.653 417.457 225.714 417.625 225.687C417.793 225.659 419.585 225.564 419.955 224.499L421.937 217.692C421.937 217.692 422.072 224.992 421.83 225.509C421.588 226.027 417.383 234.404 417.754 234.671C418.124 234.937 419.717 235.908 420.957 233.819C422.197 231.731 425.131 226.327 425.492 225.463C425.854 224.6 419.747 236.854 419.992 236.952C420.237 237.05 421.802 237.861 422.421 237.062C423.039 236.263 428.506 227.564 428.686 226.866C428.867 226.165 425.281 235.2 425.468 235.197C425.655 235.194 426.371 236.122 427.348 234.888C428.325 233.654 431.611 227.031 431.767 226.682C431.923 226.333 431.874 222.114 431.874 222.114C431.874 222.114 432.692 227.071 432.502 227.717C432.312 228.363 430.806 232.117 431.504 232.249C432.034 232.35 432.955 231.33 433.681 230.001C434.407 228.672 435.329 226.679 435.258 224.787C435.188 222.894 431.703 212.303 431.703 212.303L421.738 211.177L421.741 211.167Z" fill="#CAD0D4"/>
<mask id="mask4_321_30479" style="mask-type:luminance" maskUnits="userSpaceOnUse" x="417" y="211" width="19" height="27">
<path d="M421.741 211.167C421.741 211.167 419.319 214.425 418.516 216.039C417.717 217.653 417.457 225.714 417.625 225.687C417.793 225.659 419.585 225.564 419.955 224.499L421.937 217.692C421.937 217.692 422.072 224.992 421.83 225.509C421.588 226.027 417.383 234.404 417.754 234.671C418.124 234.937 419.717 235.908 420.957 233.819C422.197 231.731 425.131 226.327 425.492 225.463C425.854 224.6 419.747 236.854 419.992 236.952C420.237 237.05 421.802 237.861 422.421 237.062C423.039 236.263 428.506 227.564 428.686 226.866C428.867 226.165 425.281 235.2 425.468 235.197C425.655 235.194 426.371 236.122 427.348 234.888C428.325 233.654 431.611 227.031 431.767 226.682C431.923 226.333 431.874 222.114 431.874 222.114C431.874 222.114 432.692 227.071 432.502 227.717C432.312 228.363 430.806 232.117 431.504 232.249C432.034 232.35 432.955 231.33 433.681 230.001C434.407 228.672 435.329 226.679 435.258 224.787C435.188 222.894 431.703 212.303 431.703 212.303L421.738 211.177L421.741 211.167Z" fill="white"/>
</mask>
<g mask="url(#mask4_321_30479)">
<path d="M416.691 218.865C416.844 219.416 424.27 215.298 434.388 216.878C434.388 216.878 433.026 210.736 431.923 210.181C430.821 209.63 422.136 209.63 420.813 210.255C419.487 210.88 415.993 216.324 416.691 218.862V218.865Z" fill="#CAD0D4"/>
</g>
<path d="M512.534 90.2682C512.534 89.6191 512.069 89.0618 511.429 88.9485L458.789 79.4842C414.633 75.7089 401.305 95.2499 401.305 95.2499V114.225L406.471 114.203C410.296 125.37 421.177 157.373 422.286 163.187C423.633 170.254 414.945 212.809 415.845 213.375C416.746 213.938 436.247 216.339 438.048 216.039C439.849 215.739 448.849 168.873 448.249 163.209C447.789 158.861 446.442 129.038 443.128 114.059L512.534 113.784V90.2713V90.2682Z" fill="#E34F32"/>
<path d="M443.128 114.056C443.128 114.056 441.815 107.096 435.975 102.268C435.975 102.268 467.177 108.508 476.236 109.111C485.294 109.714 512.535 107.32 512.535 107.32V113.781L443.128 114.056Z" fill="#C72A1C"/>
<path d="M598.521 387.888C598.727 387.845 598.797 387.658 598.974 387.193C599.292 386.364 599.61 385.533 599.957 384.715C600.011 384.587 600.209 384.457 600.354 384.439C601.215 384.336 602.083 384.285 602.942 384.173C603.208 384.14 603.351 384.163 603.504 384.402C604.116 385.357 604.755 386.296 605.377 387.23C606.379 386.984 608.626 385.776 609.251 385.136C608.822 384.143 608.399 383.122 607.938 382.118C607.794 381.806 607.819 381.645 608.065 381.381C608.637 380.769 609.154 380.102 609.655 379.429C609.858 379.156 610.017 379.01 610.389 379.094C611.352 379.311 612.328 379.47 613.295 379.67C613.555 379.724 613.717 379.673 613.793 379.416C614.153 378.203 614.513 376.99 614.872 375.777C614.96 375.479 614.716 375.435 614.541 375.363C613.655 374.997 612.77 374.625 611.872 374.289C611.536 374.163 611.422 373.991 611.409 373.624C611.368 372.656 611.265 371.69 611.18 370.649L614.179 368.621C613.701 367.222 612.996 365.964 612.064 364.776L608.807 366.177C607.894 365.47 607.063 364.795 606.196 364.172C605.944 363.991 605.902 363.848 605.959 363.572C606.158 362.617 606.327 361.654 606.519 360.698C606.561 360.491 606.567 360.34 606.341 360.236C605.2 359.714 604.029 359.294 602.775 359.133C602.495 359.098 602.386 359.199 602.293 359.431C601.921 360.365 601.53 361.291 601.162 362.226C601.073 362.452 600.978 362.548 600.704 362.571C599.754 362.652 598.806 362.774 597.864 362.92C597.623 362.958 597.529 362.882 597.415 362.712C596.782 361.769 596.143 360.833 595.489 359.868C594.118 360.375 592.846 361.016 591.68 361.928L593.135 365.335L590.852 368.157C589.999 367.995 589.021 367.802 588.038 367.624C587.231 367.48 587.336 367.362 587.005 368.177C586.973 368.255 586.915 368.321 586.867 368.392L586.236 370.577C586.218 370.747 586.227 370.925 586.178 371.085C586.051 371.502 586.148 371.735 586.593 371.896C587.521 372.231 588.428 372.625 589.335 373.017C589.453 373.068 589.579 373.239 589.596 373.37C589.712 374.218 589.755 375.079 589.915 375.918C589.993 376.328 589.883 376.502 589.566 376.709C588.666 377.294 587.789 377.918 586.815 378.585L588.873 382.422C589.127 382.318 589.275 382.261 589.418 382.199C590.312 381.814 591.21 381.437 592.097 381.037C592.349 380.923 592.492 380.978 592.699 381.15C593.413 381.74 594.164 382.284 594.882 382.869C594.993 382.959 595.073 383.186 595.05 383.33C594.921 384.12 594.749 384.904 594.605 385.692C594.489 386.329 594.448 386.566 594.657 386.766L598.521 387.888ZM598.373 382.186C596.364 381.696 594.586 380.522 593.343 378.864C592.1 377.206 591.467 375.167 591.554 373.094C591.641 371.021 592.441 369.042 593.818 367.495C595.196 365.948 597.065 364.928 599.108 364.609C601.15 364.29 603.24 364.692 605.021 365.746C606.802 366.8 608.163 368.441 608.873 370.39C609.584 372.339 609.599 374.474 608.916 376.433C608.234 378.391 606.896 380.051 605.13 381.13C604.129 381.746 603.017 382.156 601.857 382.337C600.697 382.519 599.513 382.467 598.373 382.186Z" fill="#F4AC1A"/>
<path fill-rule="evenodd" clip-rule="evenodd" d="M261.089 456.304H316.464L300.305 498.65H276.695L261.089 456.304Z" fill="#F4AC1A"/>
<path fill-rule="evenodd" clip-rule="evenodd" d="M267.44 263.191C270.23 262.76 273.085 263.06 275.724 264.062C281.165 266.374 282.743 272.822 282.661 278.072C282.579 283.717 281.382 289.879 285.667 294.394C287.639 296.476 290.101 298.081 292.033 300.202C294.08 302.475 295.735 305.072 296.93 307.888C299.147 313.016 300.221 319.055 298.208 324.441C296.426 329.188 291.951 333.459 292.917 338.859C293.923 344.477 299.596 348.789 303.146 352.978C307.226 357.712 310.858 363.778 311.456 369.994C312.041 375.952 309.457 381.978 305.472 386.494C297.514 395.485 285.558 399.905 273.507 399.878C268.379 399.878 262.625 399.633 258.164 396.886C256.951 396.102 255.955 395.026 255.267 393.757C254.529 392.641 253.577 391.684 252.465 390.941C250.074 389.099 248.23 386.639 247.133 383.828C242.766 372.946 246.262 359.602 252.383 349.972C253.825 347.701 255.022 345.511 254.314 342.79C253.383 339.981 252.005 337.34 250.234 334.969C248.531 332.638 246.99 330.193 245.623 327.651C244.415 324.967 243.946 322.009 244.263 319.082C244.831 313.487 247.009 308.177 250.533 303.793C253.838 299.454 257.715 295.292 257.729 289.607C257.729 283.567 253.648 278.208 255.416 272.074C256.061 269.391 257.637 267.024 259.864 265.395C262.196 264.11 264.783 263.358 267.44 263.191Z" fill="white" stroke="#68737D" stroke-width="1.16037" stroke-miterlimit="10"/>
<path fill-rule="evenodd" clip-rule="evenodd" d="M265.647 272.835C265.676 272.64 265.748 272.453 265.857 272.289C265.967 272.124 266.11 271.985 266.279 271.881C266.447 271.778 266.636 271.712 266.832 271.689C267.028 271.666 267.227 271.686 267.415 271.747C268.408 272.019 268.394 272.958 268.367 273.788C268.319 276.315 268.621 278.837 269.265 281.282C270.53 286.424 272.883 291.157 274.706 296.095C276.745 300.918 277.331 306.232 276.392 311.384C275.372 316.307 273.753 321.095 272.693 326.033C271.768 330.372 270.775 334.956 272.189 339.281C273.604 343.607 276.569 346.858 278.732 350.625C283.072 358.385 285.41 367.103 285.533 375.993C285.76 380.138 285.44 384.296 284.581 388.357C284.023 390.683 283.22 393.798 281.289 395.458C281.07 395.671 280.81 395.838 280.525 395.949C280.24 396.06 279.935 396.112 279.63 396.103C279.324 396.094 279.023 396.024 278.745 395.897C278.467 395.77 278.217 395.588 278.011 395.362C277.276 394.329 277.916 392.724 278.147 391.622C279.093 386.86 279.418 381.995 279.113 377.149C278.983 372.453 278.224 367.796 276.855 363.302C275.424 359.21 273.438 355.333 270.951 351.782C268.462 348.082 265.864 344.368 264.831 339.989C263.797 335.609 264.64 330.984 265.783 326.618C266.98 321.993 268.503 317.504 270.19 313.016C271.832 308.85 272.27 304.306 271.455 299.903C269.673 290.776 265.035 282.275 265.647 272.835Z" fill="#C72A1C"/>
<path fill-rule="evenodd" clip-rule="evenodd" d="M340.36 290.47C343.856 291.418 347.043 293.26 349.61 295.815C354.792 301.392 353.201 309.826 350.344 315.987C347.257 322.625 342.605 329.29 345.23 336.907C346.44 340.403 348.467 343.572 349.61 347.095C350.812 350.851 351.382 354.781 351.296 358.725C351.174 365.947 349.256 373.687 344.046 378.965C339.449 383.657 331.941 386.391 330.227 393.26C328.431 400.442 332.811 408.481 334.756 415.282C336.96 422.981 338.089 432.067 335.518 439.766C333.042 447.111 326.813 452.891 319.767 456.156C305.675 462.658 289.326 461.597 275.193 455.353C269.195 452.633 262.516 449.382 258.789 443.833C257.778 442.271 257.179 440.479 257.048 438.623C256.769 436.929 256.159 435.307 255.253 433.849C253.418 430.414 252.552 426.544 252.75 422.654C253.348 407.57 264.529 393.546 276.798 385.357C279.695 383.412 282.239 381.44 282.865 377.863C283.49 374.285 282.729 370.164 282.144 366.451C281.373 362.809 280.851 359.119 280.58 355.406C280.561 351.591 281.546 347.838 283.436 344.524C287.051 338.2 292.404 333.045 298.861 329.671C305.022 326.257 311.769 323.36 314.789 316.627C317.985 309.499 316.149 301.052 321.345 294.7C323.515 291.872 326.611 289.898 330.091 289.123C333.478 288.552 337.15 289.504 340.36 290.47Z" fill="white" stroke="#68737D" stroke-width="1.16037" stroke-miterlimit="10"/>
<path fill-rule="evenodd" clip-rule="evenodd" d="M333.384 302.261C333.523 302.051 333.706 301.873 333.919 301.739C334.133 301.605 334.373 301.519 334.623 301.485C334.873 301.452 335.127 301.472 335.368 301.545C335.61 301.618 335.833 301.741 336.023 301.907C337.043 302.751 336.526 303.853 336.023 304.818C334.641 307.786 333.675 310.931 333.153 314.163C331.942 320.964 332.214 327.765 331.792 334.566C331.645 341.325 329.563 347.901 325.794 353.513C321.999 358.805 317.633 363.633 313.783 368.925C310.424 373.576 306.873 378.446 306.261 384.363C305.663 390.008 307.404 395.612 307.962 401.216C308.945 412.683 307.076 424.216 302.521 434.785C300.626 439.812 298.079 444.568 294.945 448.932C293.067 451.407 290.551 454.753 287.368 455.624C285.899 456.018 283.913 455.488 283.587 453.787C283.26 452.087 284.865 450.618 285.709 449.435C289.305 444.282 292.23 438.692 294.414 432.8C296.726 427.168 298.277 421.254 299.025 415.212C299.503 409.622 299.21 403.992 298.155 398.482C297.175 392.796 296.087 387.042 297.189 381.302C298.291 375.562 301.664 370.543 305.35 365.973C309.186 361.117 313.375 356.628 317.592 352.153C321.713 348.075 324.611 342.925 325.957 337.286C328.691 325.629 327.739 313.129 333.384 302.261Z" fill="#E34F32"/>
<path fill-rule="evenodd" clip-rule="evenodd" d="M234.713 336.544C237.462 336.624 240.159 337.32 242.603 338.582C245.047 339.844 247.175 341.639 248.832 343.835C252.913 348.841 253.674 354.948 255.307 360.919C256.013 363.981 257.647 366.75 259.986 368.849C262.216 370.672 265.046 371.039 267.725 371.937C270.365 372.829 272.763 374.319 274.731 376.292C276.699 378.265 278.184 380.666 279.069 383.308C281.15 389.728 278.947 396.203 279.328 402.704C279.681 408.676 285.571 412.403 290.305 415.273C295.038 418.143 299.187 420.714 300.601 426.25C302.098 432.085 302.587 438.587 300.52 444.354C297.078 453.957 287.013 458.187 277.274 458.84C268.446 459.425 257.333 458.5 250.695 452.039C248.85 450.12 247.431 447.832 246.531 445.327C245.631 442.821 245.27 440.153 245.472 437.498C245.637 434.174 246.18 430.879 247.091 427.678C247.822 425.431 248.372 423.13 248.737 420.795C249.362 414.538 243.582 413.341 238.658 411.627C232.721 409.552 227.837 405.23 225.056 399.59C222.054 394.371 221.223 388.181 222.743 382.356C223.616 379.351 225.182 376.593 227.314 374.304C228.252 373.283 229.572 372.44 230.428 371.365C230.745 370.849 230.941 370.267 230.999 369.664C231.058 369.06 230.979 368.452 230.769 367.883C229.504 362.443 225.573 357.981 224.172 352.581C222.907 347.698 223.655 341.618 228.116 338.476C230.074 337.19 232.371 336.518 234.713 336.544Z" fill="white" stroke="#68737D" stroke-width="1.16037" stroke-miterlimit="10"/>
<path fill-rule="evenodd" clip-rule="evenodd" d="M242.453 350.665C248.479 357.085 250.111 365.79 250.614 374.223C250.872 378.957 250.614 383.949 251.974 388.533C253.158 392.464 255.946 395.47 258.775 398.299C264.556 404.012 271.017 409.82 272.704 418.09C273.697 422.932 273.017 427.951 274.39 432.753C275.716 437.179 277.786 441.346 280.511 445.076C282.66 448.041 285.462 450.313 287.816 453.074C288.536 453.918 289.557 455.169 289.257 456.352C288.917 457.712 287.135 458.189 285.884 457.971C282.932 457.468 280.443 454.652 278.539 452.612C275.74 449.674 273.339 446.381 271.398 442.818C269.164 438.859 267.601 434.557 266.773 430.087C265.998 425.435 266.379 420.565 264.624 416.118C261.672 408.609 254.504 404.175 249.308 398.313C242.861 391.022 243.867 381.99 244.48 372.958C244.847 368.021 245.2 362.444 242.711 357.996C241.759 356.282 239.637 354.677 239.229 352.719C238.821 350.76 240.957 349.073 242.453 350.665Z" fill="#C72A1C"/>
<path d="M654.691 436.545L654.691 436.545C655.27 438.352 654.275 440.287 652.468 440.866L652.468 440.866C650.66 441.445 648.726 440.449 648.147 438.643L648.147 438.643L646.538 433.622C644.129 433.956 641.596 433.578 639.27 432.381L638.449 431.959L638.871 431.137L647.635 414.106C647.637 414.103 647.637 414.101 647.637 414.1C647.637 414.098 647.637 414.096 647.636 414.093C647.635 414.089 647.634 414.087 647.633 414.086C647.633 414.086 647.632 414.085 647.631 414.084C647.63 414.084 647.629 414.083 647.627 414.082L645.952 413.22C645.948 413.218 645.947 413.218 645.946 413.218C645.945 413.218 645.944 413.218 645.943 413.218C645.941 413.218 645.94 413.218 645.938 413.219C645.935 413.22 645.933 413.221 645.932 413.222C645.931 413.223 645.93 413.224 645.928 413.228L637.164 430.259L636.741 431.08L635.92 430.657C633.594 429.46 631.814 427.619 630.686 425.465L625.665 427.074L625.665 427.074C623.858 427.653 621.924 426.657 621.345 424.85L621.345 424.85C620.766 423.043 621.761 421.109 623.568 420.53L623.568 420.53L629.335 418.682C629.472 417.157 629.9 415.633 630.642 414.19L630.794 413.895L627.753 412.33C626.114 411.487 625.361 409.473 626.181 407.765L654.691 436.545ZM654.691 436.545L652.843 430.778C654.003 429.78 654.995 428.547 655.737 427.104L655.889 426.808M654.691 436.545L655.889 426.808M655.889 426.808L658.93 428.373C660.569 429.217 662.646 428.659 663.559 426.999C664.494 425.297 663.836 423.17 662.121 422.287L659.033 420.698L660.546 417.76L665.11 416.297L665.11 416.297C666.917 415.718 667.913 413.783 667.334 411.976L667.334 411.976C666.754 410.169 664.82 409.174 663.013 409.753L663.013 409.753L657.603 411.487L642.265 403.595L640.531 398.184L640.531 398.184C639.952 396.377 638.018 395.382 636.211 395.961L636.211 395.961C634.404 396.54 633.408 398.474 633.987 400.281L633.987 400.281L635.45 404.846L633.938 407.785L630.851 406.196C629.135 405.313 627.022 406.015 626.181 407.765L655.889 426.808ZM642.666 400.603L642.243 401.424L643.065 401.847L658.7 409.892L659.521 410.315L659.944 409.493C662.399 404.722 660.522 398.864 655.75 396.409C650.979 393.954 645.121 395.832 642.666 400.603Z" fill="#E34F32" stroke="white" stroke-width="1.84771"/>
<path d="M853.52 333.888C853.726 333.845 853.796 333.658 853.974 333.193C854.292 332.364 854.61 331.533 854.956 330.715C855.011 330.587 855.209 330.457 855.354 330.439C856.215 330.336 857.082 330.285 857.942 330.173C858.208 330.14 858.35 330.163 858.503 330.402C859.116 331.357 859.754 332.296 860.376 333.23C861.379 332.984 863.625 331.776 864.25 331.136C863.821 330.143 863.399 329.122 862.937 328.118C862.793 327.806 862.819 327.645 863.065 327.381C863.636 326.769 864.153 326.102 864.654 325.429C864.857 325.156 865.017 325.01 865.389 325.094C866.352 325.311 867.328 325.47 868.295 325.67C868.555 325.724 868.716 325.673 868.793 325.416C869.153 324.203 869.512 322.99 869.871 321.777C869.959 321.479 869.715 321.435 869.54 321.363C868.655 320.997 867.769 320.625 866.871 320.289C866.535 320.163 866.422 319.991 866.408 319.624C866.368 318.656 866.264 317.69 866.18 316.649L869.179 314.621C868.701 313.222 867.996 311.964 867.064 310.776L863.806 312.177C862.893 311.47 862.062 310.795 861.195 310.172C860.944 309.991 860.901 309.848 860.959 309.572C861.157 308.617 861.326 307.654 861.519 306.698C861.56 306.491 861.567 306.34 861.341 306.236C860.199 305.714 859.029 305.294 857.775 305.133C857.495 305.098 857.386 305.199 857.293 305.431C856.92 306.365 856.53 307.291 856.161 308.226C856.072 308.452 855.977 308.548 855.703 308.571C854.754 308.652 853.806 308.774 852.864 308.92C852.623 308.958 852.529 308.882 852.415 308.712C851.782 307.769 851.142 306.833 850.489 305.868C849.117 306.375 847.846 307.016 846.679 307.928L848.134 311.335L845.852 314.157C844.999 313.995 844.02 313.802 843.037 313.624C842.231 313.48 842.335 313.362 842.004 314.177C841.973 314.255 841.915 314.321 841.867 314.392L841.235 316.577C841.218 316.747 841.227 316.925 841.178 317.085C841.051 317.502 841.148 317.735 841.593 317.896C842.521 318.231 843.428 318.625 844.334 319.017C844.453 319.068 844.578 319.239 844.596 319.37C844.712 320.218 844.755 321.079 844.915 321.918C844.993 322.328 844.883 322.502 844.565 322.709C843.665 323.294 842.789 323.918 841.814 324.585L843.873 328.422C844.127 328.318 844.274 328.261 844.418 328.199C845.312 327.814 846.21 327.437 847.097 327.037C847.348 326.923 847.491 326.978 847.699 327.15C848.412 327.74 849.164 328.284 849.881 328.869C849.993 328.959 850.072 329.186 850.049 329.33C849.921 330.12 849.749 330.904 849.605 331.692C849.488 332.329 849.447 332.566 849.657 332.766L853.52 333.888ZM853.372 328.186C851.363 327.696 849.586 326.522 848.342 324.864C847.099 323.206 846.467 321.167 846.554 319.094C846.64 317.021 847.44 315.042 848.818 313.495C850.195 311.948 852.064 310.928 854.107 310.609C856.15 310.29 858.24 310.692 860.02 311.746C861.801 312.8 863.163 314.441 863.873 316.39C864.583 318.339 864.598 320.474 863.916 322.433C863.233 324.391 861.895 326.051 860.13 327.13C859.129 327.746 858.016 328.156 856.856 328.337C855.696 328.519 854.512 328.467 853.372 328.186Z" fill="#F4AC1A"/>
<g style="mix-blend-mode:hard-light" opacity="0.6">
<path d="M795.5 187.636L799.772 183.368L804.043 187.636L799.772 191.904L795.5 187.636Z" fill="#E6EBEE"/>
<path d="M795.5 187.636L799.772 183.368L804.043 187.636L799.772 191.904L795.5 187.636Z" fill="url(#paint8_linear_321_30479)"/>
</g>
<g style="mix-blend-mode:hard-light" opacity="0.6">
<path d="M787 296.268L791.272 292L795.543 296.268L791.272 300.536L787 296.268Z" fill="#E6EBEE"/>
<path d="M787 296.268L791.272 292L795.543 296.268L791.272 300.536L787 296.268Z" fill="url(#paint9_linear_321_30479)"/>
</g>
<defs>
<filter id="filter0_d_321_30479" x="240.206" y="94.1028" width="576.589" height="459.83" filterUnits="userSpaceOnUse" color-interpolation-filters="sRGB">
<feFlood flood-opacity="0" result="BackgroundImageFix"/>
<feColorMatrix in="SourceAlpha" type="matrix" values="0 0 0 0 0 0 0 0 0 0 0 0 0 0 0 0 0 0 127 0" result="hardAlpha"/>
<feOffset dy="18.8972"/>
<feGaussianBlur stdDeviation="18.8972"/>
<feColorMatrix type="matrix" values="0 0 0 0 0.184314 0 0 0 0 0.223529 0 0 0 0 0.254902 0 0 0 0.15 0"/>
<feBlend mode="normal" in2="BackgroundImageFix" result="effect1_dropShadow_321_30479"/>
<feBlend mode="normal" in="SourceGraphic" in2="effect1_dropShadow_321_30479" result="shape"/>
</filter>
<filter id="filter1_d_321_30479" x="346.733" y="181.788" width="406.693" height="283.653" filterUnits="userSpaceOnUse" color-interpolation-filters="sRGB">
<feFlood flood-opacity="0" result="BackgroundImageFix"/>
<feColorMatrix in="SourceAlpha" type="matrix" values="0 0 0 0 0 0 0 0 0 0 0 0 0 0 0 0 0 0 127 0" result="hardAlpha"/>
<feOffset dy="18.031"/>
<feGaussianBlur stdDeviation="12.6217"/>
<feColorMatrix type="matrix" values="0 0 0 0 0.184314 0 0 0 0 0.223529 0 0 0 0 0.254902 0 0 0 0.15 0"/>
<feBlend mode="normal" in2="BackgroundImageFix" result="effect1_dropShadow_321_30479"/>
<feBlend mode="normal" in="SourceGraphic" in2="effect1_dropShadow_321_30479" result="shape"/>
</filter>
<linearGradient id="paint0_linear_321_30479" x1="128" y1="119" x2="912.973" y2="145.869" gradientUnits="userSpaceOnUse">
<stop stop-color="#001825"/>
<stop offset="1" stop-color="#003A57"/>
</linearGradient>
<linearGradient id="paint1_linear_321_30479" x1="233.784" y1="259.568" x2="226.208" y2="260.113" gradientUnits="userSpaceOnUse">
<stop stop-color="white" stop-opacity="0"/>
<stop offset="1" stop-color="white" stop-opacity="0.8"/>
</linearGradient>
<linearGradient id="paint2_linear_321_30479" x1="775.284" y1="298.2" x2="767.708" y2="298.745" gradientUnits="userSpaceOnUse">
<stop stop-color="white" stop-opacity="0"/>
<stop offset="1" stop-color="white" stop-opacity="0.8"/>
</linearGradient>
<linearGradient id="paint3_linear_321_30479" x1="737.917" y1="485.875" x2="841.063" y2="520.604" gradientUnits="userSpaceOnUse">
<stop offset="0.213542" stop-color="#323444"/>
<stop offset="0.6875" stop-color="#2F3941" stop-opacity="0.291667"/>
<stop offset="1" stop-color="#2F3941" stop-opacity="0"/>
</linearGradient>
<linearGradient id="paint4_linear_321_30479" x1="691.082" y1="527.98" x2="862.509" y2="585.649" gradientUnits="userSpaceOnUse">
<stop offset="0.213542" stop-color="#323444"/>
<stop offset="0.6875" stop-color="#2F3941" stop-opacity="0.291667"/>
<stop offset="1" stop-color="#2F3941" stop-opacity="0"/>
</linearGradient>
<linearGradient id="paint5_linear_321_30479" x1="650.363" y1="572.531" x2="284.06" y2="158.978" gradientUnits="userSpaceOnUse">
<stop stop-color="white" stop-opacity="0"/>
<stop offset="1" stop-color="white" stop-opacity="0.8"/>
</linearGradient>
<linearGradient id="paint6_linear_321_30479" x1="749.704" y1="122.152" x2="764.557" y2="122.388" gradientUnits="userSpaceOnUse">
<stop stop-color="#001825"/>
<stop offset="1" stop-color="#003A57"/>
</linearGradient>
<linearGradient id="paint7_linear_321_30479" x1="374.762" y1="93.1849" x2="374.762" y2="118.677" gradientUnits="userSpaceOnUse">
<stop stop-color="#323444"/>
<stop offset="1" stop-opacity="0"/>
</linearGradient>
<linearGradient id="paint8_linear_321_30479" x1="803.784" y1="189.568" x2="796.208" y2="190.113" gradientUnits="userSpaceOnUse">
<stop stop-color="white" stop-opacity="0"/>
<stop offset="1" stop-color="white" stop-opacity="0.8"/>
</linearGradient>
<linearGradient id="paint9_linear_321_30479" x1="795.284" y1="298.2" x2="787.708" y2="298.745" gradientUnits="userSpaceOnUse">
<stop stop-color="white" stop-opacity="0"/>
<stop offset="1" stop-color="white" stop-opacity="0.8"/>
</linearGradient>
<clipPath id="clip0_321_30479">
<rect x="278" y="113" width="501" height="384.242" rx="18.9" fill="white"/>
</clipPath>
<clipPath id="clip1_321_30479">
<rect width="339.657" height="204.384" rx="7.21242" transform="matrix(0.996205 0.0870351 -0.0872766 0.996184 389.814 189)" fill="white"/>
</clipPath>
</defs>
</svg>
