<svg width="262" height="150" viewBox="0 0 262 150" fill="none" xmlns="http://www.w3.org/2000/svg">
<g filter="url(#filter0_d_229_3466)">
<rect x="19.7215" y="40.3656" width="125.522" height="86.7311" rx="5.20574" transform="rotate(-18.844 19.7215 40.3656)" fill="url(#paint0_linear_229_3466)" shape-rendering="crispEdges"/>
</g>
<path d="M50.7999 112.978L99.2837 96.1481" stroke="white" stroke-width="2.00221" stroke-linecap="round"/>
<path d="M99.2798 96.1368L155.89 76.0086" stroke="white" stroke-width="0.800883" stroke-linecap="round"/>
<ellipse cx="99.0697" cy="96.0132" rx="1.7211" ry="2.05612" transform="rotate(-19.5733 99.0697 96.0132)" fill="white"/>
<g filter="url(#filter1_d_229_3466)">
<rect x="61.9185" y="16.8823" width="157.373" height="108.52" rx="5.20574" fill="url(#paint1_linear_229_3466)"/>
</g>
<circle cx="140.805" cy="67.338" r="25.6283" fill="url(#paint2_linear_229_3466)"/>
<path d="M133.197 78.1872V59.2511C133.197 57.3657 135.269 56.2149 136.87 57.2117L152.627 67.0252C154.166 67.9836 154.129 70.2357 152.561 71.144L136.804 80.2665C135.202 81.1938 133.197 80.038 133.197 78.1872Z" fill="white"/>
<path d="M68.726 112.988L134.398 113.389" stroke="white" stroke-width="2.00221" stroke-linecap="round"/>
<path d="M134.398 113.389H211.283" stroke="white" stroke-width="0.800883" stroke-linecap="round"/>
<circle cx="134.198" cy="113.189" r="2.20243" fill="white"/>
<path d="M62.1187 91.3644L137.402 17.0825H166.434L77.1353 126.803H62.1187V91.3644Z" fill="url(#paint3_linear_229_3466)" fill-opacity="0.15"/>
<path d="M133.397 126.803L205.677 17.0825H220.093L187.457 126.803H147.213H133.397Z" fill="url(#paint4_linear_229_3466)" fill-opacity="0.45"/>
<path d="M205.907 145.105L167.431 79.3746C166.522 77.8223 167.059 75.8267 168.625 74.9405L215.686 48.2985C217.21 47.4355 219.144 47.9476 220.042 49.4516L258.341 113.617C259.249 115.138 258.759 117.106 257.245 118.025L234.527 131.812L210.341 146.245C208.803 147.163 206.812 146.651 205.907 145.105Z" fill="#003A57"/>
<path d="M167.519 79.1626L206.111 145.083C207.02 146.634 209.026 147.135 210.557 146.191L258.241 116.8" stroke="#001825" stroke-width="0.800883" stroke-linecap="round" stroke-linejoin="round"/>
<path d="M208.414 140.473L171.695 79.1339C171.387 78.6196 171.559 77.9528 172.078 77.6522L216.53 51.892C217.038 51.5976 217.688 51.7654 217.99 52.2688L254.849 113.686C255.159 114.202 254.985 114.871 254.464 115.171L209.872 140.853C209.364 141.145 208.715 140.976 208.414 140.473Z" fill="url(#paint5_linear_229_3466)"/>
<path d="M200.519 127.862L171.687 79.132C171.383 78.6179 171.556 77.9545 172.073 77.655L216.519 51.898C217.031 51.6013 217.687 51.7744 217.986 52.2853L250.237 107.435C250.542 107.955 250.363 108.622 249.836 108.916C237.658 115.709 214.5 129.416 209 132.603C204.959 134.945 201.804 129.732 200.519 127.862Z" fill="#FFF7EE"/>
<path d="M251.03 108.146L208.352 132.78C210.728 130.919 208.992 126.113 207.478 123.254C207.207 122.741 207.348 122.103 207.838 121.791C221.301 113.216 245.785 98.9219 251.263 95.535C251.819 95.1908 252.577 95.3908 252.858 95.9819C256.348 103.326 253.184 106.898 251.03 108.146Z" fill="url(#paint6_linear_229_3466)"/>
<path d="M221.616 65.6313L183.832 88.1208C183.527 88.3025 183.144 88.2898 182.837 88.0868L182.832 88.0834C182.2 87.667 182.193 86.7088 182.821 86.3352L220.605 63.8457C220.91 63.664 221.292 63.6767 221.6 63.8797L221.605 63.8831C222.237 64.2995 222.243 65.2578 221.616 65.6313Z" fill="url(#paint7_linear_229_3466)"/>
<path d="M215.298 86.6655L191.461 100.853C191.269 100.968 190.99 100.894 190.736 100.659L190.732 100.655C190.209 100.173 190.055 99.3028 190.451 99.0671L214.288 84.8793C214.48 84.7647 214.759 84.8391 215.013 85.0738L215.017 85.0778C215.54 85.5595 215.694 86.4299 215.298 86.6655Z" fill="url(#paint8_linear_229_3466)"/>
<path d="M226.072 71.6539L188.288 94.1434C187.983 94.3251 187.6 94.3124 187.293 94.1094L187.288 94.106C186.656 93.6896 186.649 92.7313 187.277 92.3578L225.061 69.8683C225.366 69.6866 225.748 69.6993 226.056 69.9023L226.061 69.9057C226.693 70.3221 226.699 71.2804 226.072 71.6539Z" fill="url(#paint9_linear_229_3466)"/>
<path d="M214.891 79.2876L236.835 34.9637C237.078 34.4743 237.667 34.2681 238.161 34.4997L242.886 36.711C243.396 36.9499 243.61 37.5617 243.36 38.0666L221.325 82.5527C221.077 83.0546 220.466 83.2562 219.967 83.0009L215.333 80.6273C214.844 80.3768 214.647 79.7799 214.891 79.2876Z" fill="#2B8473"/>
<path d="M214.475 86.9794L214.618 79.5686C214.621 79.4181 214.78 79.3223 214.914 79.3903L221.218 82.5818C221.355 82.6511 221.37 82.841 221.245 82.9302L215.108 87.313C214.84 87.5044 214.468 87.3086 214.475 86.9794Z" fill="#FFD7A4"/>
<path d="M214.477 86.9762L214.504 85.774C214.51 85.491 214.801 85.3037 215.061 85.4145L216.099 85.8558C216.387 85.9782 216.429 86.3683 216.175 86.5501L215.11 87.3109C214.842 87.5027 214.47 87.3059 214.477 86.9762Z" fill="#2B8473"/>
<circle cx="181.464" cy="75.3782" r="1.30535" transform="rotate(-3.52775 181.464 75.3782)" fill="#0C0C0C"/>
<path d="M181.446 75.322C182.584 73.2109 182.184 68.1641 178.082 67.3658C176.294 67.0179 173.417 67.846 172.896 72.2532" stroke="#001825" stroke-width="1.20132" stroke-linecap="round"/>
<circle cx="192.381" cy="68.602" r="1.30535" transform="rotate(-3.52775 192.381 68.602)" fill="#0C0C0C"/>
<path d="M192.642 68.2549C193.627 66.0684 192.871 61.0627 188.722 60.5574C186.914 60.3372 184.103 61.3674 183.897 65.8004" stroke="#001825" stroke-width="1.20132" stroke-linecap="round"/>
<circle cx="203.325" cy="62.26" r="1.30535" transform="rotate(-3.52775 203.325 62.26)" fill="#0C0C0C"/>
<path d="M203.582 61.9172C204.569 59.7316 203.818 54.7252 199.669 54.2161C197.861 53.9942 195.049 55.0217 194.839 59.4545" stroke="#001825" stroke-width="1.20132" stroke-linecap="round"/>
<circle cx="213.426" cy="56.406" r="1.30535" transform="rotate(-3.52775 213.426 56.406)" fill="#0C0C0C"/>
<path d="M213.685 56.0621C214.671 53.8764 213.919 48.8701 209.77 48.3618C207.962 48.1403 205.151 49.1684 204.941 53.6013" stroke="#001825" stroke-width="1.20132" stroke-linecap="round"/>
<g filter="url(#filter2_d_229_3466)">
<g filter="url(#filter3_d_229_3466)">
<path d="M42.381 62.4237C41.9873 61.9867 41.6215 61.5367 41.2833 61.0794L33.3407 68.2229C32.8519 68.6614 32.9757 69.5949 33.6171 70.3057C34.2586 71.0165 35.1724 71.2394 35.6613 70.7999L43.6029 63.6563C43.1863 63.273 42.7746 62.8616 42.381 62.4237Z" fill="#C57F12"/>
</g>
<path opacity="0.8" d="M42.5384 62.2797C35.4156 54.3669 36.097 42.1438 44.0605 34.9786C52.0239 27.8133 64.2538 28.4193 71.3766 36.332C78.4994 44.2448 77.818 56.4679 69.8546 63.6331C61.8911 70.7984 49.6613 70.1924 42.5384 62.2797Z" fill="#FFF7EE" fill-opacity="0.7"/>
<g filter="url(#filter4_d_229_3466)">
<path d="M71.5372 65.5136C62.5337 73.6128 48.7072 72.9254 40.6566 63.9786C32.6059 55.0317 33.3777 41.2146 42.3812 33.1154C51.3847 25.0163 65.2113 25.7027 73.2629 34.6496C81.3144 43.5965 80.5332 57.4142 71.5372 65.5136ZM69.8545 63.6435C77.8186 56.4792 78.5016 44.2563 71.3806 36.3427C64.2596 28.4292 52.029 27.8213 44.0649 34.9856C36.1008 42.1499 35.4169 54.3719 42.5388 62.2864C49.6606 70.2009 61.8857 70.8067 69.8507 63.6434L69.8545 63.6435Z" fill="#00293E"/>
<path d="M72.6135 35.2336C64.8881 26.6493 51.6137 25.9853 42.9652 33.7651C34.317 41.5448 33.5817 54.8096 41.3059 63.3939C49.0302 71.9781 62.3036 72.6437 70.9522 64.8643C79.594 57.0838 80.3385 43.8176 72.6135 35.2336ZM43.4803 34.3365C51.7993 26.8529 64.5829 27.4822 72.0301 35.7581C79.4772 44.0341 78.758 56.8094 70.439 64.2931L70.1741 64.5314L70.1634 64.531C61.8393 71.7598 49.2571 71.0583 41.8893 62.8705C34.4415 54.5935 35.1616 41.8201 43.4803 34.3365Z" stroke="#001825" stroke-width="1.74741"/>
</g>
<g filter="url(#filter5_d_229_3466)">
<mask id="path-36-inside-1_229_3466" fill="white">
<path d="M70.6477 64.53C62.1898 72.1373 49.2035 71.4919 41.6411 63.0886C34.0787 54.6852 34.8039 41.7061 43.2618 34.0978C51.7197 26.4895 64.706 27.1358 72.2684 35.5392C79.8308 43.9425 79.1055 56.9226 70.6477 64.53ZM69.8495 63.6433C77.8136 56.479 78.4966 44.2561 71.3756 36.3425C64.2547 28.429 52.024 27.8211 44.0599 34.9854C36.0958 42.1497 35.4119 54.3716 42.5338 62.2862C49.6557 70.2007 61.8845 70.8066 69.8495 63.6433Z"/>
</mask>
<path d="M70.6477 64.53C62.1898 72.1373 49.2035 71.4919 41.6411 63.0886C34.0787 54.6852 34.8039 41.7061 43.2618 34.0978C51.7197 26.4895 64.706 27.1358 72.2684 35.5392C79.8308 43.9425 79.1055 56.9226 70.6477 64.53ZM69.8495 63.6433C77.8136 56.479 78.4966 44.2561 71.3756 36.3425C64.2547 28.429 52.024 27.8211 44.0599 34.9854C36.0958 42.1497 35.4119 54.3716 42.5338 62.2862C49.6557 70.2007 61.8845 70.8066 69.8495 63.6433Z" fill="#FFC67F"/>
<path d="M69.8495 63.6433M69.8495 63.6433M70.6477 64.53L71.8162 65.8292C62.6486 74.0749 48.5569 73.3856 40.3422 64.2575L41.6411 63.0886L42.94 61.9197C49.8501 69.5982 61.731 70.1997 69.4791 63.2308L70.6477 64.53ZM41.6411 63.0886L40.3422 64.2575C32.1273 55.1291 32.9253 41.0456 42.0931 32.7986L43.2618 34.0978L44.4304 35.3969C36.6825 42.3665 36.0301 54.2414 42.94 61.9197L41.6411 63.0886ZM43.2618 34.0978L42.0931 32.7986C51.2609 24.5517 65.3527 25.2422 73.5673 34.3703L72.2684 35.5392L70.9695 36.7081C64.0593 29.0294 52.1784 28.4272 44.4304 35.3969L43.2618 34.0978ZM72.2684 35.5392L73.5673 34.3703C81.7821 43.4986 80.9842 57.5831 71.8162 65.8292L70.6477 64.53L69.4791 63.2308C77.2269 56.2621 77.8794 44.3864 70.9695 36.7081L72.2684 35.5392ZM69.8495 63.6433L68.6809 62.3442C75.935 55.8186 76.5453 44.6999 70.0767 37.5114L71.3756 36.3425L72.6746 35.1737C80.448 43.8122 79.6923 57.1394 71.0182 64.9424L69.8495 63.6433ZM71.3756 36.3425L70.0767 37.5114C63.608 30.3227 52.4828 29.7587 45.2285 36.2845L44.0599 34.9854L42.8912 33.6863C51.5652 25.8834 64.9013 26.5353 72.6746 35.1737L71.3756 36.3425ZM44.0599 34.9854L45.2285 36.2845C37.9743 42.8102 37.3633 53.9279 43.8327 61.1173L42.5338 62.2862L41.2348 63.455C33.4605 54.8154 34.2172 41.4892 42.8912 33.6863L44.0599 34.9854ZM42.5338 62.2862L43.8327 61.1173C50.3021 68.3068 61.4256 68.8692 68.681 62.3441L69.8495 63.6433L71.018 64.9426C62.3434 72.744 49.0092 72.0946 41.2348 63.455L42.5338 62.2862ZM69.8495 63.6433" fill="#003A57" mask="url(#path-36-inside-1_229_3466)"/>
</g>
<path d="M32.8752 65.9753C31.8716 65.9159 30.8845 66.2325 30.1043 66.8588L29.9504 66.9884L29.9484 66.9903L7.02677 87.4587L6.88144 87.5945C6.55041 87.9188 6.27706 88.2979 6.07417 88.7157C5.84222 89.1934 5.70686 89.7126 5.67546 90.2427C5.64411 90.7727 5.71713 91.304 5.89103 91.8055C6.06493 92.3071 6.33594 92.7696 6.68858 93.1665L7.82473 94.4454C8.17737 94.8425 8.60496 95.1662 9.08272 95.3981C9.56051 95.6299 10.0795 95.7654 10.6097 95.7968C11.1397 95.8282 11.6708 95.755 12.1725 95.5812C12.6743 95.4074 13.1374 95.1363 13.5344 94.7837L13.5365 94.7818L36.4601 74.3125L36.4601 74.3115C37.2605 73.5997 37.7459 72.5997 37.8094 71.5304C37.8728 70.4601 37.5082 69.4083 36.7962 68.6066L35.6592 67.3266L35.6592 67.3256C34.947 66.5242 33.9454 66.0388 32.8752 65.9753Z" fill="#00293E" stroke="#00293E" stroke-width="1.89409"/>
</g>
<defs>
<filter id="filter0_d_229_3466" x="19.5208" y="1.22388" width="147.209" height="123.027" filterUnits="userSpaceOnUse" color-interpolation-filters="sRGB">
<feFlood flood-opacity="0" result="BackgroundImageFix"/>
<feColorMatrix in="SourceAlpha" type="matrix" values="0 0 0 0 0 0 0 0 0 0 0 0 0 0 0 0 0 0 127 0" result="hardAlpha"/>
<feOffset dy="1.60177"/>
<feGaussianBlur stdDeviation="0.800883"/>
<feComposite in2="hardAlpha" operator="out"/>
<feColorMatrix type="matrix" values="0 0 0 0 0 0 0 0 0 0 0 0 0 0 0 0 0 0 0.25 0"/>
<feBlend mode="normal" in2="BackgroundImageFix" result="effect1_dropShadow_229_3466"/>
<feBlend mode="normal" in="SourceGraphic" in2="effect1_dropShadow_229_3466" result="shape"/>
</filter>
<filter id="filter1_d_229_3466" x="60.3167" y="16.8823" width="160.577" height="111.723" filterUnits="userSpaceOnUse" color-interpolation-filters="sRGB">
<feFlood flood-opacity="0" result="BackgroundImageFix"/>
<feColorMatrix in="SourceAlpha" type="matrix" values="0 0 0 0 0 0 0 0 0 0 0 0 0 0 0 0 0 0 127 0" result="hardAlpha"/>
<feOffset dy="1.60177"/>
<feGaussianBlur stdDeviation="0.800883"/>
<feComposite in2="hardAlpha" operator="out"/>
<feColorMatrix type="matrix" values="0 0 0 0 0 0 0 0 0 0 0 0 0 0 0 0 0 0 0.25 0"/>
<feBlend mode="normal" in2="BackgroundImageFix" result="effect1_dropShadow_229_3466"/>
<feBlend mode="normal" in="SourceGraphic" in2="effect1_dropShadow_229_3466" result="shape"/>
</filter>
<filter id="filter2_d_229_3466" x="2.38419e-06" y="27.4631" width="83.5486" height="79.5711" filterUnits="userSpaceOnUse" color-interpolation-filters="sRGB">
<feFlood flood-opacity="0" result="BackgroundImageFix"/>
<feColorMatrix in="SourceAlpha" type="matrix" values="0 0 0 0 0 0 0 0 0 0 0 0 0 0 0 0 0 0 127 0" result="hardAlpha"/>
<feOffset dy="5.56213"/>
<feGaussianBlur stdDeviation="2.3606"/>
<feColorMatrix type="matrix" values="0 0 0 0 0.184314 0 0 0 0 0.223529 0 0 0 0 0.254902 0 0 0 0.18 0"/>
<feBlend mode="normal" in2="BackgroundImageFix" result="effect1_dropShadow_229_3466"/>
<feBlend mode="normal" in="SourceGraphic" in2="effect1_dropShadow_229_3466" result="shape"/>
</filter>
<filter id="filter3_d_229_3466" x="19.0626" y="54.0897" width="38.5195" height="37.9045" filterUnits="userSpaceOnUse" color-interpolation-filters="sRGB">
<feFlood flood-opacity="0" result="BackgroundImageFix"/>
<feColorMatrix in="SourceAlpha" type="matrix" values="0 0 0 0 0 0 0 0 0 0 0 0 0 0 0 0 0 0 127 0" result="hardAlpha"/>
<feOffset dy="6.98962"/>
<feGaussianBlur stdDeviation="6.98962"/>
<feColorMatrix type="matrix" values="0 0 0 0 0.184314 0 0 0 0 0.223529 0 0 0 0 0.254902 0 0 0 0.15 0"/>
<feBlend mode="normal" in2="BackgroundImageFix" result="effect1_dropShadow_229_3466"/>
<feBlend mode="normal" in="SourceGraphic" in2="effect1_dropShadow_229_3466" result="shape"/>
</filter>
<filter id="filter4_d_229_3466" x="21.1101" y="20.4735" width="71.6965" height="71.6609" filterUnits="userSpaceOnUse" color-interpolation-filters="sRGB">
<feFlood flood-opacity="0" result="BackgroundImageFix"/>
<feColorMatrix in="SourceAlpha" type="matrix" values="0 0 0 0 0 0 0 0 0 0 0 0 0 0 0 0 0 0 127 0" result="hardAlpha"/>
<feOffset dy="6.98962"/>
<feGaussianBlur stdDeviation="6.98962"/>
<feColorMatrix type="matrix" values="0 0 0 0 0.184314 0 0 0 0 0.223529 0 0 0 0 0.254902 0 0 0 0.15 0"/>
<feBlend mode="normal" in2="BackgroundImageFix" result="effect1_dropShadow_229_3466"/>
<feBlend mode="normal" in="SourceGraphic" in2="effect1_dropShadow_229_3466" result="shape"/>
</filter>
<filter id="filter5_d_229_3466" x="22.4324" y="21.799" width="69.0446" height="69.0087" filterUnits="userSpaceOnUse" color-interpolation-filters="sRGB">
<feFlood flood-opacity="0" result="BackgroundImageFix"/>
<feColorMatrix in="SourceAlpha" type="matrix" values="0 0 0 0 0 0 0 0 0 0 0 0 0 0 0 0 0 0 127 0" result="hardAlpha"/>
<feOffset dy="6.98962"/>
<feGaussianBlur stdDeviation="6.98962"/>
<feColorMatrix type="matrix" values="0 0 0 0 0.184314 0 0 0 0 0.223529 0 0 0 0 0.254902 0 0 0 0.15 0"/>
<feBlend mode="normal" in2="BackgroundImageFix" result="effect1_dropShadow_229_3466"/>
<feBlend mode="normal" in="SourceGraphic" in2="effect1_dropShadow_229_3466" result="shape"/>
</filter>
<linearGradient id="paint0_linear_229_3466" x1="-16.986" y1="105.877" x2="269.003" y2="26.2962" gradientUnits="userSpaceOnUse">
<stop stop-color="#427795" stop-opacity="0.8"/>
<stop offset="1" stop-color="#7092A8" stop-opacity="0.16"/>
</linearGradient>
<linearGradient id="paint1_linear_229_3466" x1="256.533" y1="-5.33162" x2="26.6796" y2="117.393" gradientUnits="userSpaceOnUse">
<stop stop-color="#E0F7FF"/>
<stop offset="1" stop-color="#94AFBF"/>
</linearGradient>
<linearGradient id="paint2_linear_229_3466" x1="106.968" y1="53.7335" x2="153.853" y2="40.7922" gradientUnits="userSpaceOnUse">
<stop stop-color="#8A0C49"/>
<stop offset="1" stop-color="#EF5F8B"/>
</linearGradient>
<linearGradient id="paint3_linear_229_3466" x1="173.041" y1="-17.5557" x2="47.9031" y2="127.004" gradientUnits="userSpaceOnUse">
<stop stop-color="white"/>
<stop offset="1" stop-color="white" stop-opacity="0.16"/>
</linearGradient>
<linearGradient id="paint4_linear_229_3466" x1="236.111" y1="-17.5557" x2="110.973" y2="127.004" gradientUnits="userSpaceOnUse">
<stop stop-color="white" stop-opacity="0.6"/>
<stop offset="1" stop-color="white" stop-opacity="0"/>
</linearGradient>
<linearGradient id="paint5_linear_229_3466" x1="-14.1413" y1="58.6301" x2="252.749" y2="116.723" gradientUnits="userSpaceOnUse">
<stop stop-color="#A49D8B"/>
<stop offset="1" stop-color="#ECF6FD"/>
</linearGradient>
<linearGradient id="paint6_linear_229_3466" x1="263.462" y1="103.094" x2="155.336" y2="94.6092" gradientUnits="userSpaceOnUse">
<stop stop-color="#E5EDF2"/>
<stop offset="1" stop-color="#7DA7E4"/>
</linearGradient>
<linearGradient id="paint7_linear_229_3466" x1="182.495" y1="87.7232" x2="222.466" y2="65.1713" gradientUnits="userSpaceOnUse">
<stop stop-color="#2B8473"/>
<stop offset="1" stop-color="#003A57" stop-opacity="0.3"/>
</linearGradient>
<linearGradient id="paint8_linear_229_3466" x1="190.431" y1="100.273" x2="215.648" y2="86.0455" gradientUnits="userSpaceOnUse">
<stop stop-color="#2B8473"/>
<stop offset="1" stop-color="#003A57" stop-opacity="0.3"/>
</linearGradient>
<linearGradient id="paint9_linear_229_3466" x1="186.951" y1="93.7458" x2="226.922" y2="71.1939" gradientUnits="userSpaceOnUse">
<stop stop-color="#2B8473"/>
<stop offset="1" stop-color="#003A57" stop-opacity="0.28"/>
</linearGradient>
</defs>
</svg>
