<svg width="24" height="24" viewBox="0 0 24 24" fill="none" xmlns="http://www.w3.org/2000/svg">
<g clip-path="url(#clip0_10_35679)">
<path d="M7.83649 2.47905C10.212 1.4295 12.9266 1.94361 15.2953 2.97782C17.5837 3.97693 19.4129 5.72561 20.4582 7.98974C21.5411 10.3353 21.9583 13.0047 21.0464 15.4343C20.1119 17.9243 18.1178 19.9581 15.6198 20.8814C13.225 21.7666 10.6374 21.159 8.30787 20.1427C6.06341 19.1634 4.03798 17.6562 3.07463 15.408C2.10721 13.1503 2.38323 10.6209 3.23585 8.30599C4.12364 5.89555 5.48316 3.51881 7.83649 2.47905Z" fill="#1466A9" fill-opacity="0.08"/>
<g clip-path="url(#clip1_10_35679)">
<path d="M12.9347 15.3826C12.9347 15.1182 12.7204 14.9039 12.456 14.9039H10.7409C10.4765 14.9039 10.2622 15.1182 10.2622 15.3826V15.5778C10.2622 15.6179 10.2677 15.6571 10.2777 15.6954C10.2622 15.7811 10.2896 15.8905 10.3643 16.0099L10.8658 16.4431C10.916 16.485 10.9606 16.5224 10.9953 16.5506C10.9999 16.5543 11.0053 16.5579 11.0117 16.5616L11.794 17.1998C11.8487 17.2445 11.929 17.2363 11.9737 17.1816C12.0183 17.1269 12.0101 17.0467 11.9554 17.002L11.5342 16.6582C11.8104 16.6655 12.104 16.63 12.2007 16.5506C12.3803 16.4038 12.8317 16.0099 12.8317 16.0099C12.9064 15.8905 12.9338 15.7811 12.9192 15.6954C12.9283 15.658 12.9347 15.6188 12.9347 15.5787V15.3835V15.3826Z" fill="#4CA4DE"/>
<path d="M14.2393 7.14978C13.8491 6.72032 12.9847 6 11.5914 6C11.5185 6 11.4437 6.00182 11.3699 6.00638C10.2575 6.06839 9.47514 6.64647 9.10768 6.98566C8.37733 7.65948 7.77645 8.95242 8.08008 10.3229C8.25059 11.0906 8.6837 11.769 9.40676 12.3963C9.48517 12.4647 9.57088 12.5285 9.65385 12.5914C9.86995 12.7537 10.0943 12.9224 10.2137 13.175C10.2411 13.2324 10.2575 13.3272 10.2739 13.4184C10.304 13.5871 10.335 13.7622 10.4407 13.8406C10.4426 13.8415 10.4435 13.8424 10.4453 13.8433H12.7376C12.8306 13.7129 12.8743 13.5598 12.9163 13.4102C12.9455 13.3072 12.9728 13.2105 13.0138 13.1303C13.1351 12.8978 13.3394 12.7355 13.5564 12.5632C13.6056 12.5239 13.6558 12.4838 13.7059 12.4428C14.6925 11.6267 15.194 10.6703 15.1958 9.59797C15.1976 8.69711 14.8575 7.82725 14.2393 7.14887V7.14978ZM12.1166 6.78141C12.0747 6.91363 11.9197 6.98475 11.7619 6.96286C10.0523 7.06316 9.0776 8.03697 8.9773 9.74751C8.99918 9.90525 8.92806 10.0603 8.79585 10.1022C8.66364 10.1441 8.51045 10.0338 8.48128 9.84507C8.53598 7.78622 9.80065 6.52155 11.8595 6.46684C12.0482 6.49602 12.1586 6.6492 12.1166 6.78141Z" fill="#4CA4DE"/>
<path d="M12.9312 14.3736C12.9312 14.2888 12.8629 14.2205 12.7781 14.2205H10.4183C10.3335 14.2205 10.2651 14.2888 10.2651 14.3736C10.2651 14.4584 10.3335 14.5268 10.4183 14.5268H12.7781C12.8629 14.5268 12.9312 14.4584 12.9312 14.3736Z" fill="#4CA4DE"/>
</g>
</g>
<defs>
<clipPath id="clip0_10_35679">
<rect width="24" height="24" fill="white"/>
</clipPath>
<clipPath id="clip1_10_35679">
<rect width="7.19594" height="11.3109" fill="white" transform="translate(8 6)"/>
</clipPath>
</defs>
</svg>
