<svg width="202" height="118" viewBox="0 0 202 118" fill="none" xmlns="http://www.w3.org/2000/svg">
<rect width="201.312" height="117.127" fill="white"/>
<g filter="url(#filter0_d_1013_3867)">
<path fill-rule="evenodd" clip-rule="evenodd" d="M38.3928 38.9655C39.168 37.8901 40.5846 37.4947 41.8045 38.0137L65.9208 48.2764C66.5548 48.3927 67.095 48.8644 67.2642 49.53L73.7574 75.0741C73.9889 75.9851 73.438 76.9115 72.527 77.1431L31.8878 87.4734C30.9769 87.7048 30.0503 87.1539 29.8188 86.243L23.3256 60.6989C23.1391 59.9651 23.461 59.2218 24.0691 58.8393L38.3928 38.9655Z" fill="url(#paint0_linear_1013_3867)"/>
<rect x="25.313" y="50.7334" width="35.4555" height="22.9226" transform="rotate(-16.2905 25.313 50.7334)" fill="#F3F3F3"/>
<path d="M48.5269 69.8275L30.714 87.3931C30.4003 87.7025 29.8691 87.5517 29.7646 87.1237L23.2486 60.4381C23.1434 60.0073 23.551 59.6278 23.9732 59.7634L47.9646 67.4673C48.9792 67.793 49.2856 69.0794 48.5269 69.8275Z" fill="#FFC67F"/>
<path d="M49.8188 68.9578L73.2012 76.4122C73.6255 76.5475 74.033 76.1636 73.9233 75.732L67.2299 49.3998C67.1207 48.9703 66.5833 48.8262 66.2739 49.1435L49.2342 66.6163C48.4979 67.3714 48.814 68.6375 49.8188 68.9578Z" fill="#FFC67F"/>
<g filter="url(#filter1_d_1013_3867)">
<path d="M49.3298 66.8407L72.5989 76.2095C73.1078 76.4144 73.0585 77.1504 72.5268 77.2856L31.3045 87.764C30.7704 87.8998 30.3759 87.2712 30.7304 86.8492L47.0679 67.4053C47.6204 66.7477 48.5331 66.5199 49.3298 66.8407Z" fill="#FFB65A"/>
</g>
</g>
<path d="M36.3839 56.8408L36.2951 56.5133L36.9501 56.3357L37.5724 58.6314L37.2103 58.7295L36.6768 56.7614L36.3839 56.8408ZM38.5254 56.0777L38.7354 56.2912L38.3475 56.5688L38.8225 56.6124L38.7476 56.9099L38.3118 56.7238L38.5017 57.1625L38.212 57.241L38.148 56.7682L37.8676 57.1552L37.6438 56.9285L38.0286 56.6518L37.5585 56.6136L37.6333 56.3161L38.0786 56.4997L37.891 56.057L38.1839 55.9776L38.2392 56.4562L38.5254 56.0777ZM40.1061 55.6492L40.3161 55.8628L39.9282 56.1403L40.4032 56.184L40.3283 56.4814L39.8925 56.2953L40.0824 56.734L39.7927 56.8126L39.7288 56.3397L39.4483 56.7268L39.2246 56.5001L39.6093 56.2234L39.1392 56.1851L39.2141 55.8877L39.6594 56.0712L39.4718 55.6285L39.7646 55.5491L39.82 56.0277L40.1061 55.6492ZM41.6869 55.2208L41.8969 55.4343L41.509 55.7118L41.984 55.7555L41.9091 56.053L41.4733 55.8669L41.6632 56.3055L41.3735 56.3841L41.3095 55.9112L41.0291 56.2983L40.8054 56.0716L41.1901 55.7949L40.72 55.7567L40.7949 55.4592L41.2401 55.6427L41.0525 55.2L41.3454 55.1206L41.4007 55.5992L41.6869 55.2208ZM43.2676 54.7923L43.4776 55.0058L43.0898 55.2833L43.5647 55.327L43.4898 55.6245L43.054 55.4384L43.2439 55.8771L42.9542 55.9556L42.8903 55.4828L42.6098 55.8698L42.3861 55.6431L42.7708 55.3664L42.3007 55.3282L42.3756 55.0307L42.8209 55.2142L42.6333 54.7715L42.9261 54.6922L42.9815 55.1707L43.2676 54.7923ZM44.8484 54.3638L45.0584 54.5773L44.6705 54.8548L45.1455 54.8985L45.0706 55.196L44.6348 55.0099L44.8247 55.4486L44.535 55.5271L44.471 55.0543L44.1906 55.4413L43.9669 55.2146L44.3516 54.9379L43.8815 54.8997L43.9564 54.6022L44.4016 54.7857L44.214 54.3431L44.5069 54.2637L44.5622 54.7422L44.8484 54.3638ZM46.4292 53.9353L46.6391 54.1488L46.2513 54.4263L46.7262 54.47L46.6514 54.7675L46.2155 54.5814L46.4054 55.0201L46.1157 55.0986L46.0518 54.6258L45.7713 55.0128L45.5476 54.7861L45.9324 54.5094L45.4623 54.4712L45.5371 54.1737L45.9824 54.3573L45.7948 53.9146L46.0876 53.8352L46.143 54.3137L46.4292 53.9353ZM48.0099 53.5068L48.2199 53.7203L47.832 53.9979L48.307 54.0415L48.2321 54.339L47.7963 54.1529L47.9862 54.5916L47.6965 54.6701L47.6325 54.1973L47.3521 54.5843L47.1284 54.3576L47.5131 54.0809L47.043 54.0427L47.1179 53.7452L47.5631 53.9288L47.3755 53.4861L47.6684 53.4067L47.7237 53.8852L48.0099 53.5068ZM48.6498 53.7728C48.6095 53.5741 48.6428 53.4017 48.7496 53.2556C48.8586 53.1089 49.0202 53.0065 49.2343 52.9484C49.3813 52.9086 49.5154 52.9004 49.6367 52.9239C49.758 52.9473 49.8582 52.9968 49.9372 53.0723C50.0163 53.1477 50.0712 53.2422 50.1019 53.3555C50.1372 53.4857 50.1327 53.6064 50.0884 53.7175C50.0442 53.8287 49.9781 53.9131 49.89 53.9707L49.8934 53.9833C50.0275 53.9875 50.1429 54.0306 50.2395 54.1126C50.3355 54.1925 50.4046 54.3102 50.4467 54.4655C50.4803 54.5894 50.4818 54.7073 50.4513 54.8192C50.4208 54.9311 50.3576 55.0305 50.2617 55.1174C50.1652 55.2021 50.0393 55.2655 49.884 55.3077C49.6572 55.3691 49.4547 55.362 49.2765 55.2864C49.0997 55.2081 48.9765 55.0612 48.9069 54.8457L49.2533 54.7518C49.2918 54.8608 49.3596 54.9405 49.4566 54.9908C49.5531 55.039 49.6675 55.0452 49.7997 55.0094C49.9278 54.9746 50.0171 54.9133 50.0676 54.8252C50.1175 54.735 50.1274 54.6343 50.0972 54.5231C50.0574 54.3761 49.982 54.285 49.871 54.2497C49.7616 54.2118 49.6103 54.219 49.4171 54.2713L49.3352 54.2935L49.255 53.9975L49.34 53.9745C49.5095 53.9263 49.6309 53.8629 49.7043 53.7844C49.7798 53.7054 49.8016 53.6071 49.7697 53.4895C49.7424 53.3887 49.6882 53.3178 49.6072 53.2766C49.5256 53.2334 49.425 53.228 49.3054 53.2604C49.1878 53.2923 49.1047 53.3475 49.0561 53.426C49.007 53.5025 48.9881 53.5865 48.9994 53.678L48.6498 53.7728ZM50.5135 53.2676C50.4732 53.069 50.5065 52.8966 50.6133 52.7504C50.7223 52.6037 50.8838 52.5013 51.098 52.4432C51.2449 52.4034 51.3791 52.3952 51.5004 52.4187C51.6217 52.4421 51.7218 52.4916 51.8009 52.5671C51.8799 52.6426 51.9348 52.737 51.9656 52.8504C52.0008 52.9805 51.9964 53.1012 51.9521 53.2123C51.9079 53.3235 51.8417 53.4079 51.7537 53.4656L51.7571 53.4782C51.8912 53.4824 52.0066 53.5255 52.1032 53.6075C52.1992 53.6874 52.2683 53.805 52.3104 53.9603C52.344 54.0842 52.3455 54.2021 52.315 54.314C52.2845 54.426 52.2213 54.5254 52.1254 54.6122C52.0289 54.6969 51.903 54.7604 51.7476 54.8025C51.5209 54.8639 51.3184 54.8569 51.1401 54.7812C50.9634 54.7029 50.8402 54.556 50.7705 54.3405L51.1169 54.2466C51.1555 54.3556 51.2233 54.4353 51.3203 54.4856C51.4168 54.5338 51.5311 54.54 51.6634 54.5042C51.7915 54.4695 51.8807 54.4081 51.9312 54.32C51.9812 54.2299 51.991 54.1291 51.9609 54.0179C51.9211 53.8709 51.8456 53.7798 51.7347 53.7445C51.6252 53.7066 51.4739 53.7138 51.2808 53.7662L51.1989 53.7883L51.1187 53.4923L51.2037 53.4693C51.3732 53.4211 51.4946 53.3578 51.568 53.2793C51.6435 53.2002 51.6653 53.1019 51.6334 52.9843C51.6061 52.8836 51.5519 52.8126 51.4709 52.7715C51.3893 52.7282 51.2887 52.7228 51.169 52.7553C51.0515 52.7871 50.9684 52.8423 50.9198 52.9209C50.8707 52.9973 50.8518 53.0813 50.8631 53.1729L50.5135 53.2676ZM52.6783 54.0229L52.6049 53.752L53.2515 51.9474L53.6861 51.8296L54.0864 53.3065L54.3793 53.2271L54.4638 53.5389L54.1709 53.6183L54.3007 54.0969L53.948 54.1925L53.8182 53.7139L52.6783 54.0229ZM53.4482 52.2862L53.0063 53.5993L53.7495 53.3978L53.4482 52.2862Z" fill="black" fill-opacity="0.5"/>
<g opacity="0.94" filter="url(#filter2_d_1013_3867)">
<path d="M152.827 93.8547L132.729 89.6669C132.154 89.5482 131.599 89.3327 131.098 89.0327C130.596 88.7327 130.156 88.3542 129.805 87.9188C129.453 87.4835 129.197 86.9999 129.049 86.4958C128.902 85.9918 128.867 85.4772 128.946 84.9816L135.754 41.6644C135.832 41.1695 136.023 40.7031 136.315 40.2918C136.608 39.8805 136.996 39.5324 137.457 39.2675C137.919 39.0025 138.445 38.8259 139.006 38.7476C139.566 38.6694 140.15 38.6911 140.724 38.8115L160.823 42.9965C161.982 43.2372 163.032 43.8645 163.742 44.7408C164.452 45.6171 164.765 46.6709 164.611 47.6709L157.803 90.991C157.726 91.4873 157.536 91.9552 157.244 92.3679C156.952 92.7806 156.563 93.13 156.101 93.396C155.639 93.6621 155.112 93.8395 154.55 93.9182C153.988 93.9969 153.403 93.9754 152.827 93.8547Z" fill="#17405C"/>
<path d="M160.585 44.4845L156.681 43.6875C156.553 43.6631 156.425 43.6606 156.301 43.6801C156.178 43.6997 156.063 43.7409 155.963 43.8015C155.863 43.862 155.779 43.9406 155.717 44.0329C155.655 44.1251 155.615 44.2292 155.601 44.339L155.508 44.9488C155.477 45.1702 155.347 45.3629 155.144 45.4854C154.942 45.6079 154.685 45.6502 154.428 45.6032L146.821 44.0177C146.693 43.9891 146.571 43.9389 146.461 43.8701C146.351 43.8014 146.256 43.7154 146.18 43.6172C146.105 43.5191 146.051 43.4106 146.022 43.2983C145.993 43.1859 145.989 43.0719 146.011 42.9627L146.105 42.3472C146.126 42.2381 146.122 42.1241 146.092 42.0119C146.063 41.8997 146.009 41.7914 145.934 41.6933C145.859 41.5952 145.763 41.5093 145.654 41.4405C145.544 41.3716 145.422 41.3212 145.295 41.2922L143.92 41.0115L140.503 40.314C140.1 40.2299 139.691 40.2149 139.298 40.2699C138.905 40.3248 138.536 40.4487 138.213 40.6344C137.89 40.82 137.618 41.0639 137.413 41.352C137.208 41.6401 137.074 41.9669 137.019 42.3136L130.365 84.6194C130.256 85.3204 130.475 86.0592 130.973 86.6736C131.471 87.288 132.208 87.7277 133.021 87.8961L153.102 92.0781C153.915 92.2472 154.738 92.1318 155.392 91.7571C156.046 91.3824 156.476 90.7791 156.589 90.0792L163.24 47.7727C163.296 47.425 163.272 47.0639 163.168 46.7101C163.065 46.3564 162.885 46.0169 162.638 45.7114C162.392 45.4058 162.083 45.1401 161.731 44.9296C161.378 44.719 160.989 44.5678 160.585 44.4845Z" fill="white"/>
<path d="M137.008 67.1008L137.061 66.7611L137.736 66.8867L137.367 69.2675L136.994 69.1981L137.31 67.1569L137.008 67.1008ZM139.289 67.3439L139.395 67.6323L138.924 67.7162L139.343 67.9654L139.152 68.2055L138.828 67.8427L138.823 68.3289L138.525 68.2734L138.659 67.8113L138.243 68.0429L138.13 67.7363L138.597 67.6519L138.181 67.4098L138.372 67.1697L138.706 67.5343L138.715 67.0454L139.016 67.1016L138.871 67.5651L139.289 67.3439ZM140.917 67.647L141.023 67.9354L140.553 68.0193L140.971 68.2686L140.781 68.5086L140.456 68.1458L140.451 68.632L140.153 68.5765L140.288 68.1144L139.871 68.346L139.759 68.0395L140.226 67.955L139.809 67.7129L140 67.4728L140.334 67.8374L140.343 67.3485L140.644 67.4047L140.499 67.8682L140.917 67.647ZM142.546 67.9501L142.651 68.2385L142.181 68.3224L142.6 68.5717L142.409 68.8117L142.085 68.4489L142.08 68.9351L141.781 68.8796L141.916 68.4175L141.5 68.6491L141.387 68.3426L141.854 68.2581L141.438 68.016L141.628 67.776L141.962 68.1405L141.971 67.6516L142.273 67.7078L142.128 68.1713L142.546 67.9501ZM144.174 68.2532L144.279 68.5417L143.809 68.6255L144.228 68.8748L144.037 69.1148L143.713 68.752L143.708 69.2383L143.409 69.1827L143.544 68.7206L143.128 68.9523L143.015 68.6457L143.482 68.5612L143.066 68.3191L143.256 68.0791L143.591 68.4436L143.599 67.9548L143.901 68.0109L143.756 68.4744L144.174 68.2532ZM145.802 68.5563L145.908 68.8448L145.438 68.9286L145.856 69.1779L145.666 69.4179L145.341 69.0551L145.336 69.5414L145.038 69.4858L145.173 69.0237L144.756 69.2554L144.644 68.9488L145.111 68.8644L144.694 68.6222L144.885 68.3822L145.219 68.7468L145.228 68.2579L145.529 68.314L145.384 68.7776L145.802 68.5563ZM147.431 68.8594L147.536 69.1479L147.066 69.2317L147.485 69.481L147.294 69.721L146.97 69.3583L146.964 69.8445L146.666 69.7889L146.801 69.3269L146.385 69.5585L146.272 69.2519L146.739 69.1675L146.322 68.9253L146.513 68.6853L146.847 69.0499L146.856 68.561L147.158 68.6171L147.013 69.0807L147.431 68.8594ZM149.059 69.1626L149.164 69.451L148.694 69.5348L149.113 69.7841L148.922 70.0241L148.598 69.6614L148.593 70.1476L148.294 70.092L148.429 69.63L148.013 69.8616L147.9 69.555L148.367 69.4706L147.951 69.2284L148.141 68.9884L148.475 69.353L148.484 68.8641L148.786 68.9202L148.641 69.3838L149.059 69.1626ZM151.111 69.7058L150.024 69.5035L149.923 70.1534C149.978 70.1009 150.053 70.0622 150.148 70.0373C150.245 70.0129 150.345 70.0101 150.446 70.029C150.628 70.0628 150.769 70.1294 150.869 70.2287C150.972 70.3284 151.038 70.4426 151.067 70.5712C151.098 70.7002 151.103 70.8311 151.083 70.9639C151.058 71.125 151.004 71.2629 150.922 71.3775C150.842 71.4903 150.735 71.5712 150.601 71.6201C150.469 71.6694 150.314 71.6775 150.136 71.6445C149.901 71.6006 149.721 71.5066 149.596 71.3625C149.472 71.2184 149.41 71.0468 149.412 70.8478L149.772 70.9148C149.78 71.0216 149.82 71.1131 149.893 71.1893C149.966 71.2634 150.064 71.3119 150.188 71.3349C150.341 71.3635 150.463 71.338 150.553 71.2585C150.646 71.1793 150.704 71.0625 150.728 70.9079C150.752 70.7511 150.731 70.6241 150.666 70.5269C150.602 70.4275 150.494 70.3637 150.342 70.3355C150.236 70.3158 150.142 70.3263 150.06 70.3671C149.981 70.406 149.918 70.4682 149.871 70.5536L149.521 70.4884L149.734 69.1135L151.161 69.3792L151.111 69.7058ZM151.615 71.399C151.851 71.257 152.037 71.1393 152.174 71.046C152.313 70.951 152.432 70.8478 152.532 70.7364C152.632 70.625 152.691 70.5062 152.711 70.3799C152.731 70.2493 152.715 70.1411 152.664 70.0554C152.615 69.9701 152.524 69.9152 152.393 69.8907C152.265 69.8669 152.159 69.8898 152.075 69.9592C151.993 70.0269 151.94 70.1289 151.914 70.2653L151.557 70.1988C151.602 69.9518 151.705 69.7761 151.866 69.6716C152.029 69.5654 152.22 69.5326 152.438 69.5733C152.674 69.6171 152.848 69.7167 152.959 69.8719C153.073 70.0275 153.113 70.2141 153.08 70.4318C153.055 70.5886 152.992 70.7325 152.889 70.8635C152.789 70.9927 152.675 71.1047 152.547 71.1996C152.422 71.2926 152.263 71.3986 152.071 71.5174L151.905 71.6209L152.933 71.8123L152.885 72.1226L151.308 71.8291L151.35 71.558L151.615 71.399ZM153.481 71.7464C153.717 71.6043 153.903 71.4866 154.04 71.3934C154.179 71.2984 154.298 71.1952 154.398 71.0838C154.497 70.9724 154.557 70.8536 154.577 70.7273C154.597 70.5966 154.581 70.4885 154.53 70.4028C154.481 70.3175 154.39 70.2626 154.258 70.238C154.131 70.2142 154.025 70.2371 153.941 70.3065C153.859 70.3742 153.806 70.4762 153.78 70.6126L153.423 70.5462C153.468 70.2992 153.571 70.1235 153.732 70.019C153.895 69.9127 154.086 69.88 154.304 69.9206C154.54 69.9645 154.714 70.064 154.825 70.2192C154.939 70.3748 154.979 70.5615 154.946 70.7792C154.921 70.9359 154.858 71.0798 154.755 71.2108C154.655 71.34 154.541 71.452 154.413 71.5469C154.287 71.64 154.129 71.7459 153.937 71.8648L153.77 71.9682L154.799 72.1596L154.751 72.4699L153.174 72.1764L153.216 71.9054L153.481 71.7464Z" fill="black" fill-opacity="0.5"/>
</g>
<ellipse opacity="0.88" cx="147.509" cy="57.1465" rx="3.49803" ry="3.49803" fill="url(#paint1_linear_1013_3867)"/>
<path d="M69.5009 78.9799C64.5665 70.9373 65.0973 60.9134 67.6688 51.8816C70.1531 43.1563 75.5595 35.7198 83.2032 30.8547C91.1217 25.8147 100.53 23.0144 109.721 25.1158C119.141 27.2695 127.434 33.4599 131.973 42.005C136.325 50.1971 135.396 59.8093 132.87 68.6912C130.436 77.2487 125.994 85.2745 118.368 89.8365C110.71 94.4178 101.468 94.6543 92.7187 92.7104C83.608 90.6863 74.3892 86.9474 69.5009 78.9799Z" fill="#E3F2F9"/>
<g filter="url(#filter3_d_1013_3867)">
<path d="M78.5057 45.6784C78.749 45.4656 100.48 32.6513 100.842 32.5066C101.212 32.3591 101.779 32.3758 102.183 32.5463C102.658 32.7466 124.187 45.4383 124.455 45.6759C125.004 46.1625 125.029 46.327 125.067 49.7945C125.146 56.9767 124.718 61.0286 123.412 65.4537C121.629 71.4921 118.392 76.9291 113.957 81.3309C110.84 84.4255 107.331 86.8127 103.441 88.4848C101.724 89.2231 101.439 89.2539 100.338 88.8198C96.1897 87.1837 92.4368 84.7098 89.0531 81.3807C83.1667 75.5894 79.4475 68.0242 78.2649 59.4366C78.0032 57.5364 77.8542 53.7036 77.8941 49.9025C77.9319 46.3173 77.9546 46.1599 78.5057 45.6784Z" fill="url(#paint2_linear_1013_3867)"/>
<path d="M101.59 33.7686C101.612 33.773 101.629 33.7786 101.641 33.7822C101.665 33.7961 101.727 33.831 101.845 33.8975C102.023 33.9985 102.275 34.1426 102.591 34.3252C103.222 34.6901 104.102 35.202 105.146 35.8125C107.233 37.0331 109.975 38.6445 112.712 40.2578C115.449 41.8712 118.179 43.4857 120.24 44.7109C121.271 45.3237 122.134 45.8388 122.746 46.207C123.052 46.3913 123.293 46.5371 123.46 46.6396C123.518 46.6755 123.565 46.7056 123.602 46.7285C123.606 46.7503 123.614 46.7786 123.619 46.8154C123.681 47.2349 123.7 48.0221 123.72 49.8096C123.798 56.9234 123.372 60.8267 122.119 65.0723C120.4 70.8949 117.28 76.1333 113.008 80.374C110.193 83.1678 107.057 85.3554 103.604 86.9385L102.909 87.2471C102.005 87.6356 101.698 87.7321 101.514 87.752C101.437 87.7602 101.353 87.7718 100.832 87.5664C96.8629 86.001 93.2611 83.6303 89.998 80.4199C84.335 74.8484 80.7437 67.5612 79.5996 59.2529C79.352 57.4547 79.2024 53.7028 79.2422 49.917C79.2617 48.0709 79.2779 47.2537 79.3408 46.8193C79.3461 46.7826 79.353 46.7539 79.3574 46.7314C79.3937 46.7089 79.44 46.6808 79.4961 46.6465C79.6638 46.5439 79.9059 46.3977 80.2139 46.2129C80.8293 45.8435 81.6975 45.3263 82.7354 44.71C84.8108 43.4774 87.56 41.8512 90.3135 40.2275C93.0669 38.6039 95.8236 36.9828 97.9141 35.7588C98.9595 35.1467 99.8372 34.6346 100.464 34.2715C100.777 34.0898 101.026 33.9468 101.2 33.8477C101.265 33.8111 101.317 33.7814 101.357 33.7588C101.383 33.7555 101.419 33.7527 101.46 33.7539C101.506 33.7553 101.551 33.7608 101.59 33.7686ZM123.667 46.7686C123.672 46.7718 123.674 46.7732 123.675 46.7734C123.674 46.7732 123.672 46.7731 123.67 46.7715C123.668 46.7703 123.666 46.7682 123.662 46.7656C123.664 46.7667 123.666 46.7676 123.667 46.7686Z" stroke="white" stroke-width="2.69545"/>
</g>
<path d="M119.63 48.3114L115.063 45.7018C114.764 45.5308 114.414 45.8745 114.563 46.1848C118.84 55.0386 115.869 67.3602 112.659 74.2949C112.486 74.6696 113.075 75.0817 113.327 74.7546C120.619 65.2866 120.135 55.2107 120.144 49.2005C120.144 48.8332 119.949 48.4936 119.63 48.3114Z" fill="white" fill-opacity="0.34"/>
<defs>
<filter id="filter0_d_1013_3867" x="19.2607" y="37.2198" width="55.8154" height="55.102" filterUnits="userSpaceOnUse" color-interpolation-filters="sRGB">
<feFlood flood-opacity="0" result="BackgroundImageFix"/>
<feColorMatrix in="SourceAlpha" type="matrix" values="0 0 0 0 0 0 0 0 0 0 0 0 0 0 0 0 0 0 127 0" result="hardAlpha"/>
<feOffset dx="-1.41831" dy="1.98564"/>
<feGaussianBlur stdDeviation="1.27648"/>
<feComposite in2="hardAlpha" operator="out"/>
<feColorMatrix type="matrix" values="0 0 0 0 0 0 0 0 0 0 0 0 0 0 0 0 0 0 0.15 0"/>
<feBlend mode="normal" in2="BackgroundImageFix" result="effect1_dropShadow_1013_3867"/>
<feBlend mode="normal" in="SourceGraphic" in2="effect1_dropShadow_1013_3867" result="shape"/>
</filter>
<filter id="filter1_d_1013_3867" x="28.8932" y="65.8463" width="44.6287" height="23.3552" filterUnits="userSpaceOnUse" color-interpolation-filters="sRGB">
<feFlood flood-opacity="0" result="BackgroundImageFix"/>
<feColorMatrix in="SourceAlpha" type="matrix" values="0 0 0 0 0 0 0 0 0 0 0 0 0 0 0 0 0 0 127 0" result="hardAlpha"/>
<feOffset dx="-0.567326" dy="0.283663"/>
<feGaussianBlur stdDeviation="0.567326"/>
<feComposite in2="hardAlpha" operator="out"/>
<feColorMatrix type="matrix" values="0 0 0 0 0 0 0 0 0 0 0 0 0 0 0 0 0 0 0.25 0"/>
<feBlend mode="normal" in2="BackgroundImageFix" result="effect1_dropShadow_1013_3867"/>
<feBlend mode="normal" in="SourceGraphic" in2="effect1_dropShadow_1013_3867" result="shape"/>
</filter>
<filter id="filter2_d_1013_3867" x="125.905" y="36.8612" width="43.7446" height="63.2637" filterUnits="userSpaceOnUse" color-interpolation-filters="sRGB">
<feFlood flood-opacity="0" result="BackgroundImageFix"/>
<feColorMatrix in="SourceAlpha" type="matrix" values="0 0 0 0 0 0 0 0 0 0 0 0 0 0 0 0 0 0 127 0" result="hardAlpha"/>
<feOffset dx="1" dy="2.16"/>
<feGaussianBlur stdDeviation="2"/>
<feColorMatrix type="matrix" values="0 0 0 0 0 0 0 0 0 0 0 0 0 0 0 0 0 0 0.16 0"/>
<feBlend mode="normal" in2="BackgroundImageFix" result="effect1_dropShadow_1013_3867"/>
<feBlend mode="normal" in="SourceGraphic" in2="effect1_dropShadow_1013_3867" result="shape"/>
</filter>
<filter id="filter3_d_1013_3867" x="73.2669" y="30.6735" width="56.43" height="65.9378" filterUnits="userSpaceOnUse" color-interpolation-filters="sRGB">
<feFlood flood-opacity="0" result="BackgroundImageFix"/>
<feColorMatrix in="SourceAlpha" type="matrix" values="0 0 0 0 0 0 0 0 0 0 0 0 0 0 0 0 0 0 127 0" result="hardAlpha"/>
<feOffset dy="2.88798"/>
<feGaussianBlur stdDeviation="2.31039"/>
<feComposite in2="hardAlpha" operator="out"/>
<feColorMatrix type="matrix" values="0 0 0 0 0.172549 0 0 0 0 0.215686 0 0 0 0 0.254902 0 0 0 0.15 0"/>
<feBlend mode="normal" in2="BackgroundImageFix" result="effect1_dropShadow_1013_3867"/>
<feBlend mode="normal" in="SourceGraphic" in2="effect1_dropShadow_1013_3867" result="shape"/>
</filter>
<linearGradient id="paint0_linear_1013_3867" x1="40.4186" y1="37.0789" x2="56.6334" y2="98.3382" gradientUnits="userSpaceOnUse">
<stop stop-color="#EADCC9"/>
<stop offset="1" stop-color="#A59C90"/>
</linearGradient>
<linearGradient id="paint1_linear_1013_3867" x1="151.961" y1="53.6484" x2="138.128" y2="63.0295" gradientUnits="userSpaceOnUse">
<stop stop-color="#003A57"/>
<stop offset="1" stop-color="#9AC5DA"/>
</linearGradient>
<linearGradient id="paint2_linear_1013_3867" x1="121.907" y1="47.0206" x2="86.6915" y2="81.0032" gradientUnits="userSpaceOnUse">
<stop stop-color="#6DB696"/>
<stop offset="1" stop-color="#085143"/>
</linearGradient>
</defs>
</svg>
