<svg width="251" height="200" viewBox="0 0 251 200" fill="none" xmlns="http://www.w3.org/2000/svg">
<g opacity="0.2">
<path d="M25.2416 152.814C16.1581 139.458 13.2843 122.714 17.8824 107.231C19.6672 101.195 22.4729 95.509 26.1778 90.4205C37.1989 75.311 56.2133 66.34 74.9432 67.5014C85.9524 68.1769 97.2283 72.058 107.722 68.6865C121.35 64.2899 128.372 49.5477 133.853 36.2868C139.334 23.026 150.058 9.19034 163.402 3.92274C175.845 -0.983429 195.47 -0.995276 203.837 2.26958C235.75 14.7127 238.47 56.9188 231.94 79.8913C225.411 102.864 216.588 117.95 202.788 137.325C183.454 164.469 149.887 180.835 117.054 186.565C85.7687 192.022 51.4019 182.204 30.0293 158.905C28.2875 156.994 26.6874 154.958 25.2416 152.814Z" fill="#E6EBEE"/>
<path d="M25.2416 152.814C16.1581 139.458 13.2843 122.714 17.8824 107.231C19.6672 101.195 22.4729 95.509 26.1778 90.4205C37.1989 75.311 56.2133 66.34 74.9432 67.5014C85.9524 68.1769 97.2283 72.058 107.722 68.6865C121.35 64.2899 128.372 49.5477 133.853 36.2868C139.334 23.026 150.058 9.19034 163.402 3.92274C175.845 -0.983429 195.47 -0.995276 203.837 2.26958C235.75 14.7127 238.47 56.9188 231.94 79.8913C225.411 102.864 216.588 117.95 202.788 137.325C183.454 164.469 149.887 180.835 117.054 186.565C85.7687 192.022 51.4019 182.204 30.0293 158.905C28.2875 156.994 26.6874 154.958 25.2416 152.814Z" fill="url(#paint0_linear_187_24451)" fill-opacity="0.8" style="mix-blend-mode:color-burn"/>
<path d="M25.2416 152.814C16.1581 139.458 13.2843 122.714 17.8824 107.231C19.6672 101.195 22.4729 95.509 26.1778 90.4205C37.1989 75.311 56.2133 66.34 74.9432 67.5014C85.9524 68.1769 97.2283 72.058 107.722 68.6865C121.35 64.2899 128.372 49.5477 133.853 36.2868C139.334 23.026 150.058 9.19034 163.402 3.92274C175.845 -0.983429 195.47 -0.995276 203.837 2.26958C235.75 14.7127 238.47 56.9188 231.94 79.8913C225.411 102.864 216.588 117.95 202.788 137.325C183.454 164.469 149.887 180.835 117.054 186.565C85.7687 192.022 51.4019 182.204 30.0293 158.905C28.2875 156.994 26.6874 154.958 25.2416 152.814Z" fill="#2F3941" fill-opacity="0.15" style="mix-blend-mode:multiply"/>
</g>
<path d="M250.416 199.715C250.416 199.804 194.35 199.869 125.214 199.869C56.0772 199.869 0 199.804 0 199.715C0 199.627 56.0476 199.561 125.214 199.561C194.38 199.561 250.416 199.632 250.416 199.715Z" fill="#001825"/>
<path d="M149.238 116.371L146.371 143.035C146.371 143.035 140.783 134.591 137.003 138.354C133.4 141.944 127.036 168.128 127.036 168.128C127.036 168.128 126.953 176.667 131.492 178.924C146.051 186.177 162.274 172.549 162.274 172.549L159.957 96.2305C153.922 101.311 150.081 108.526 149.238 116.371Z" fill="#206E6A"/>
<path fill-rule="evenodd" clip-rule="evenodd" d="M173.165 95.827L198.353 97.8357L200.924 61.8801C202.025 62.24 207.915 63.0369 208.124 56.5415C208.32 50.4829 203.327 51.0147 201.675 51.3696L202.442 40.6445L200.889 39.4594C195.752 35.5026 189.652 32.9895 183.218 32.1801C176.785 31.3707 170.252 32.2943 164.295 34.8555C164.295 34.8555 162.487 58.9241 162.612 69.4001C162.736 79.876 173.218 81.5055 173.218 81.5055C173.218 81.5055 173.011 92.8643 173.165 95.827Z" fill="#E6EBEE"/>
<path fill-rule="evenodd" clip-rule="evenodd" d="M173.165 95.827L198.353 97.8357L200.924 61.8801C202.025 62.24 207.915 63.0369 208.124 56.5415C208.32 50.4829 203.327 51.0147 201.675 51.3696L202.442 40.6445L200.889 39.4594C195.752 35.5026 189.652 32.9895 183.218 32.1801C176.785 31.3707 170.252 32.2943 164.295 34.8555C164.295 34.8555 162.487 58.9241 162.612 69.4001C162.736 79.876 173.218 81.5055 173.218 81.5055C173.218 81.5055 173.011 92.8643 173.165 95.827Z" fill="url(#paint1_linear_187_24451)" fill-opacity="0.8" style="mix-blend-mode:color-burn"/>
<path fill-rule="evenodd" clip-rule="evenodd" d="M173.165 95.827L198.353 97.8357L200.924 61.8801C202.025 62.24 207.915 63.0369 208.124 56.5415C208.32 50.4829 203.327 51.0147 201.675 51.3696L202.442 40.6445L200.889 39.4594C195.752 35.5026 189.652 32.9895 183.218 32.1801C176.785 31.3707 170.252 32.2943 164.295 34.8555C164.295 34.8555 162.487 58.9241 162.612 69.4001C162.736 79.876 173.218 81.5055 173.218 81.5055C173.218 81.5055 173.011 92.8643 173.165 95.827Z" fill="#2F3941" fill-opacity="0.15" style="mix-blend-mode:multiply"/>
<path d="M173.201 81.3575C178.04 81.4489 182.796 80.0978 186.864 77.4764C186.864 77.4764 183.635 85.0134 173.177 84.0713L173.201 81.3575Z" fill="#E6EBEE"/>
<path d="M173.201 81.3575C178.04 81.4489 182.796 80.0978 186.864 77.4764C186.864 77.4764 183.635 85.0134 173.177 84.0713L173.201 81.3575Z" fill="url(#paint2_linear_187_24451)" fill-opacity="0.8" style="mix-blend-mode:color-burn"/>
<path d="M173.201 81.3575C178.04 81.4489 182.796 80.0978 186.864 77.4764C186.864 77.4764 183.635 85.0134 173.177 84.0713L173.201 81.3575Z" fill="#2F3941" fill-opacity="0.15" style="mix-blend-mode:multiply"/>
<path d="M202.68 59.0316C202.716 59.0316 202.805 59.1204 203.012 59.2271C203.304 59.364 203.638 59.381 203.943 59.2745C204.713 59.0197 205.388 57.8406 205.465 56.5489C205.497 55.9418 205.396 55.3352 205.169 54.7713C205.11 54.5449 204.997 54.3364 204.839 54.1639C204.681 53.9914 204.483 53.8602 204.262 53.7817C204.12 53.738 203.967 53.7462 203.831 53.8048C203.694 53.8634 203.582 53.9686 203.516 54.1017C203.415 54.2972 203.451 54.4394 203.415 54.4513C203.38 54.4631 203.267 54.3269 203.332 54.0306C203.381 53.8564 203.485 53.7026 203.628 53.5921C203.831 53.4525 204.079 53.3953 204.322 53.4321C204.618 53.5039 204.891 53.6506 205.114 53.8582C205.337 54.0657 205.503 54.3271 205.596 54.6172C205.876 55.2479 206.002 55.9366 205.963 56.6259C205.868 58.0657 205.086 59.393 204.043 59.6596C203.849 59.7107 203.646 59.7169 203.449 59.6779C203.251 59.6389 203.066 59.5557 202.906 59.4345C202.692 59.2034 202.657 59.0434 202.68 59.0316Z" fill="#547B8E"/>
<path d="M166.607 51.0792C166.603 51.4698 166.752 51.8462 167.022 52.1284C167.292 52.4106 167.662 52.5763 168.052 52.5902C168.243 52.6055 168.434 52.5824 168.616 52.5224C168.797 52.4623 168.965 52.3664 169.108 52.2404C169.252 52.1145 169.369 51.9609 169.452 51.789C169.535 51.617 169.583 51.43 169.593 51.2392C169.596 50.8496 169.448 50.474 169.179 50.192C168.91 49.91 168.542 49.7436 168.153 49.7283C167.962 49.7138 167.771 49.7374 167.589 49.7977C167.408 49.858 167.241 49.9538 167.097 50.0796C166.953 50.2054 166.835 50.3585 166.751 50.5301C166.667 50.7018 166.618 50.8884 166.607 51.0792Z" fill="#001825"/>
<path d="M166.281 49.5978C166.465 49.7933 167.602 48.9519 169.208 48.9579C170.814 48.9638 171.999 49.7696 172.171 49.5504C172.254 49.4615 172.064 49.106 171.578 48.7327C170.882 48.2517 170.054 47.9972 169.208 48.0039C168.37 48.0008 167.552 48.2643 166.873 48.7564C166.358 49.1593 166.192 49.5089 166.281 49.5978Z" fill="#001825"/>
<path d="M182.379 51.6717C182.376 52.0612 182.524 52.4368 182.793 52.7189C183.062 53.0009 183.43 53.1672 183.819 53.1826C184.01 53.1971 184.201 53.1735 184.383 53.1132C184.564 53.0529 184.732 52.957 184.876 52.8313C185.02 52.7055 185.137 52.5524 185.221 52.3807C185.305 52.2091 185.355 52.0225 185.366 51.8317C185.368 51.4415 185.218 51.0659 184.948 50.7841C184.678 50.5022 184.31 50.336 183.92 50.3207C183.73 50.3062 183.538 50.3299 183.357 50.3902C183.176 50.4506 183.009 50.5466 182.866 50.6724C182.722 50.7982 182.605 50.9514 182.522 51.123C182.438 51.2946 182.39 51.4811 182.379 51.6717Z" fill="#001825"/>
<path d="M182.107 49.8939C182.297 50.0894 183.429 49.248 185.04 49.254C186.652 49.2599 187.831 50.0657 188.003 49.8465C188.092 49.7635 187.902 49.408 187.41 49.0347C186.714 48.5537 185.887 48.2973 185.04 48.3C184.202 48.2989 183.385 48.5622 182.706 49.0525C182.19 49.4613 182.018 49.8109 182.107 49.8939Z" fill="#001825"/>
<path d="M176.264 61.8395C176.264 61.7506 175.268 61.5788 173.651 61.3714C173.236 61.3299 172.851 61.2469 172.78 60.9625C172.747 60.5395 172.842 60.1164 173.052 59.7478C173.447 58.7524 173.852 57.7076 174.267 56.6133C175.962 52.1575 177.182 48.4897 176.999 48.4246C176.815 48.3594 175.304 51.9205 173.615 56.3763C173.212 57.4725 172.821 58.5213 172.43 59.5286C172.168 60.0228 172.092 60.5949 172.217 61.1403C172.276 61.2846 172.368 61.4132 172.485 61.516C172.602 61.6189 172.742 61.6931 172.892 61.7328C173.12 61.7975 173.355 61.8313 173.592 61.8335C175.245 61.9284 176.258 61.9343 176.264 61.8395Z" fill="#001825"/>
<path d="M181.692 43.5897C181.852 44.0282 183.47 43.8208 185.348 44.0459C187.227 44.2711 188.767 44.7866 189.016 44.3955C189.129 44.2059 188.862 43.803 188.246 43.3704C187.421 42.857 186.492 42.5369 185.526 42.4343C184.56 42.3317 183.584 42.4491 182.67 42.7779C181.977 43.0386 181.627 43.3764 181.692 43.5897Z" fill="#001825"/>
<path d="M166.872 44.9403C167.157 45.3018 168.265 44.9403 169.598 44.9048C170.931 44.8692 172.063 45.1536 172.324 44.7685C172.436 44.5848 172.258 44.2174 171.767 43.8738C171.105 43.4564 170.333 43.2459 169.551 43.2692C168.769 43.2924 168.012 43.5483 167.376 44.0041C166.902 44.3833 166.748 44.7566 166.872 44.9403Z" fill="#001825"/>
<path d="M159.193 28.2429C159.119 27.5924 159.211 26.9337 159.461 26.3285C159.711 25.7233 160.11 25.1914 160.621 24.7825C161.149 24.3985 161.797 24.2145 162.448 24.2633C163.099 24.3122 163.711 24.5907 164.176 25.0492C164.078 24.6116 164.072 24.1583 164.16 23.7185C164.248 23.2788 164.428 22.8624 164.687 22.4964C164.946 22.1305 165.279 21.8231 165.665 21.5943C166.051 21.3654 166.48 21.2202 166.926 21.1681C168.638 21.0614 170.096 22.3531 171.743 22.8035C173.39 23.2538 175.085 22.8627 176.637 22.2405C178.19 21.6184 179.635 20.7533 181.206 20.1785C184.523 18.9669 188.185 19.1138 191.395 20.5873C194.605 22.0608 197.104 24.7417 198.348 28.0474C200.641 27.3304 203.242 28.4977 204.658 30.4175C206.074 32.3373 206.436 34.9089 206.151 37.2909C205.931 38.8979 205.533 40.4758 204.966 41.9956C204.966 42.1318 204.966 42.2622 204.966 42.3985C204.854 48.1579 204.202 54.9246 201.743 54.9661C197.459 55.0313 198.484 46.955 198.484 46.955C193.222 44.9286 195.184 37.0479 193.868 35.851C192.553 34.6541 189.803 31.881 178.794 37.5042C174.516 39.6906 168.834 39.6254 165.729 38.9203L165.456 38.8611H165.391C165.361 38.8508 165.331 38.8389 165.302 38.8255C164.304 38.58 163.35 38.1801 162.476 37.6405C161.446 37.0465 160.632 36.1394 160.153 35.0511C159.922 34.5065 159.855 33.9064 159.961 33.3244C160.066 32.7424 160.339 32.2037 160.746 31.7744C159.894 30.7741 159.355 29.5464 159.193 28.2429Z" fill="#001825"/>
<path d="M218.962 163.595L219.75 178.473L221.528 199.804H154.198L157.126 168.246L151.39 118.385C151.888 100.763 158.654 93.439 172.496 91.7562L171.406 91.8925C173.314 91.6673 171.406 91.8925 172.496 91.7562C181.236 94.5173 190.615 94.5173 199.355 91.7562C203.503 91.934 206.946 93.2079 210.477 93.8893C221.599 96.0165 230.754 104.608 232.993 112.092C234.824 118.248 248.067 171.647 248.067 171.647H221.706L218.962 163.595Z" fill="#206E6A"/>
<path d="M176.277 69.6369C176.902 69.679 177.529 69.6026 178.125 69.4118C178.729 69.1739 179.225 68.7227 179.518 68.1437C179.683 67.7915 179.772 67.4084 179.779 67.0194C179.787 66.6304 179.712 66.2443 179.559 65.8862C179.482 65.7011 179.383 65.526 179.263 65.3648C179.121 65.2226 179.151 65.2285 179.002 65.2522C178.813 65.3143 178.627 65.3875 178.445 65.4714L177.853 65.7025C177.112 65.9988 176.443 66.2595 175.88 66.4728C174.748 66.8935 174.031 67.1187 173.996 67.0653C173.96 67.012 174.618 66.6209 175.708 66.0936C176.253 65.8329 176.893 65.501 177.634 65.1989L178.191 64.95C178.397 64.852 178.609 64.765 178.825 64.6893C178.99 64.6337 179.169 64.6337 179.334 64.6893C179.487 64.7524 179.618 64.8571 179.713 64.9915C179.873 65.19 180.004 65.4092 180.105 65.6433C180.293 66.0836 180.381 66.5603 180.362 67.0388C180.344 67.5173 180.219 67.9858 179.998 68.4104C179.811 68.753 179.557 69.0548 179.252 69.298C178.947 69.5412 178.596 69.7209 178.22 69.8265C177.736 69.9852 177.217 70.0057 176.721 69.8858C176.425 69.791 176.265 69.6725 176.277 69.6369Z" fill="#001825"/>
<path d="M151.277 160.62L135.42 111.938L133.987 103.767C133.987 103.767 129.673 85.5407 129.477 83.7394C129.258 81.6537 128.198 81.2626 127.439 81.3693C126.254 81.5826 125.561 83.1469 125.697 84.9245C125.744 85.517 126.882 95.2938 126.882 95.2938C126.215 94.4341 125.488 93.6223 124.708 92.8644C123.066 91.1934 119.564 90.4943 116.098 90.9979C112.632 91.5016 111.701 91.9282 111.832 93.2851C111.868 93.54 111.96 93.7836 112.103 93.998C112.245 94.2123 112.434 94.3919 112.655 94.5235C113.351 94.9916 114.195 95.1858 115.026 95.0686C120.589 94.3635 122.408 97.1839 122.408 97.1839L122.598 98.2505C122.598 98.2505 118.948 96.2003 116.365 97.5098C115.982 97.7033 115.64 97.9689 115.357 98.292C114.598 98.3775 113.874 98.66 113.257 99.1115C112.641 99.5631 112.153 100.168 111.842 100.866C111.531 101.564 111.408 102.332 111.486 103.092C111.563 103.852 111.837 104.579 112.282 105.201C112.709 105.793 113.467 106.327 114.149 106.107C114.51 105.953 114.828 105.71 115.073 105.402C115.212 105.249 115.365 105.108 115.529 104.982L116.471 107.903C116.471 107.903 118.948 114.356 119.707 117.283L127.409 166.303C127.664 167.917 128.238 169.465 129.097 170.855C129.956 172.246 131.083 173.451 132.413 174.401C133.743 175.352 135.248 176.028 136.842 176.39C138.436 176.753 140.085 176.794 141.695 176.512C143.427 176.207 145.073 175.535 146.523 174.54C147.973 173.546 149.193 172.252 150.101 170.746C151.009 169.24 151.584 167.557 151.787 165.811C151.989 164.064 151.815 162.294 151.277 160.62Z" fill="#E6EBEE"/>
<path d="M151.277 160.62L135.42 111.938L133.987 103.767C133.987 103.767 129.673 85.5407 129.477 83.7394C129.258 81.6537 128.198 81.2626 127.439 81.3693C126.254 81.5826 125.561 83.1469 125.697 84.9245C125.744 85.517 126.882 95.2938 126.882 95.2938C126.215 94.4341 125.488 93.6223 124.708 92.8644C123.066 91.1934 119.564 90.4943 116.098 90.9979C112.632 91.5016 111.701 91.9282 111.832 93.2851C111.868 93.54 111.96 93.7836 112.103 93.998C112.245 94.2123 112.434 94.3919 112.655 94.5235C113.351 94.9916 114.195 95.1858 115.026 95.0686C120.589 94.3635 122.408 97.1839 122.408 97.1839L122.598 98.2505C122.598 98.2505 118.948 96.2003 116.365 97.5098C115.982 97.7033 115.64 97.9689 115.357 98.292C114.598 98.3775 113.874 98.66 113.257 99.1115C112.641 99.5631 112.153 100.168 111.842 100.866C111.531 101.564 111.408 102.332 111.486 103.092C111.563 103.852 111.837 104.579 112.282 105.201C112.709 105.793 113.467 106.327 114.149 106.107C114.51 105.953 114.828 105.71 115.073 105.402C115.212 105.249 115.365 105.108 115.529 104.982L116.471 107.903C116.471 107.903 118.948 114.356 119.707 117.283L127.409 166.303C127.664 167.917 128.238 169.465 129.097 170.855C129.956 172.246 131.083 173.451 132.413 174.401C133.743 175.352 135.248 176.028 136.842 176.39C138.436 176.753 140.085 176.794 141.695 176.512C143.427 176.207 145.073 175.535 146.523 174.54C147.973 173.546 149.193 172.252 150.101 170.746C151.009 169.24 151.584 167.557 151.787 165.811C151.989 164.064 151.815 162.294 151.277 160.62Z" fill="url(#paint3_linear_187_24451)" fill-opacity="0.8" style="mix-blend-mode:color-burn"/>
<path d="M151.277 160.62L135.42 111.938L133.987 103.767C133.987 103.767 129.673 85.5407 129.477 83.7394C129.258 81.6537 128.198 81.2626 127.439 81.3693C126.254 81.5826 125.561 83.1469 125.697 84.9245C125.744 85.517 126.882 95.2938 126.882 95.2938C126.215 94.4341 125.488 93.6223 124.708 92.8644C123.066 91.1934 119.564 90.4943 116.098 90.9979C112.632 91.5016 111.701 91.9282 111.832 93.2851C111.868 93.54 111.96 93.7836 112.103 93.998C112.245 94.2123 112.434 94.3919 112.655 94.5235C113.351 94.9916 114.195 95.1858 115.026 95.0686C120.589 94.3635 122.408 97.1839 122.408 97.1839L122.598 98.2505C122.598 98.2505 118.948 96.2003 116.365 97.5098C115.982 97.7033 115.64 97.9689 115.357 98.292C114.598 98.3775 113.874 98.66 113.257 99.1115C112.641 99.5631 112.153 100.168 111.842 100.866C111.531 101.564 111.408 102.332 111.486 103.092C111.563 103.852 111.837 104.579 112.282 105.201C112.709 105.793 113.467 106.327 114.149 106.107C114.51 105.953 114.828 105.71 115.073 105.402C115.212 105.249 115.365 105.108 115.529 104.982L116.471 107.903C116.471 107.903 118.948 114.356 119.707 117.283L127.409 166.303C127.664 167.917 128.238 169.465 129.097 170.855C129.956 172.246 131.083 173.451 132.413 174.401C133.743 175.352 135.248 176.028 136.842 176.39C138.436 176.753 140.085 176.794 141.695 176.512C143.427 176.207 145.073 175.535 146.523 174.54C147.973 173.546 149.193 172.252 150.101 170.746C151.009 169.24 151.584 167.557 151.787 165.811C151.989 164.064 151.815 162.294 151.277 160.62Z" fill="#2F3941" fill-opacity="0.15" style="mix-blend-mode:multiply"/>
<path d="M133.2 104.087C132.888 103.862 132.55 103.676 132.192 103.536C131.529 103.216 130.557 102.777 129.354 102.238L125.123 100.389L123.891 99.862C123.427 99.5715 122.867 99.4757 122.332 99.5954C122.17 99.6682 122.032 99.7888 121.939 99.9411C121.846 100.093 121.802 100.27 121.811 100.449C121.827 100.74 121.91 101.024 122.054 101.278C122.32 101.726 122.634 102.143 122.99 102.523C124.442 104.039 126.196 104.893 127.511 105.977C128.148 106.461 128.707 107.038 129.17 107.689C129.591 108.282 129.881 108.963 130.213 109.544C130.435 110.039 130.761 110.48 131.171 110.836C131.58 111.193 132.062 111.455 132.583 111.606C133.365 111.754 133.768 111.452 133.733 111.44C133.369 111.488 132.999 111.468 132.643 111.381C132.176 111.203 131.752 110.93 131.397 110.579C131.042 110.228 130.764 109.807 130.581 109.343C130.278 108.75 129.988 108.092 129.573 107.411C129.099 106.705 128.517 106.077 127.849 105.55C126.498 104.407 124.756 103.518 123.423 102.108C123.097 101.768 122.811 101.392 122.57 100.988C122.35 100.609 122.333 100.2 122.57 100.135C122.807 100.069 123.257 100.212 123.672 100.389L124.904 100.899L129.188 102.635C130.415 103.115 131.41 103.5 132.097 103.755C132.448 103.916 132.819 104.028 133.2 104.087Z" fill="#547B8E"/>
<path d="M122.73 98.3338C122.596 97.6714 122.308 97.05 121.888 96.5206C121.407 95.9828 120.765 95.6149 120.057 95.4718C119.175 95.301 118.271 95.269 117.379 95.377C116.457 95.4887 115.526 95.5065 114.6 95.4304C113.822 95.3565 113.076 95.0808 112.437 94.6304C112.222 94.4679 112.047 94.2586 111.925 94.0184C111.803 93.7782 111.737 93.5134 111.732 93.2439C111.719 93.0513 111.765 92.8593 111.863 92.6929C111.898 92.6929 111.863 92.8943 111.863 93.238C111.889 93.4763 111.968 93.706 112.092 93.9107C112.217 94.1155 112.386 94.2903 112.585 94.4231C113.197 94.8104 113.896 95.0385 114.618 95.0867C115.521 95.1406 116.428 95.1108 117.326 94.9978C118.259 94.888 119.205 94.936 120.122 95.14C120.893 95.3159 121.581 95.7458 122.078 96.3606C122.401 96.7732 122.617 97.2599 122.706 97.7768C122.761 97.9574 122.769 98.1491 122.73 98.3338Z" fill="#547B8E"/>
<path d="M125.658 84.2611C125.792 84.899 125.871 85.5472 125.895 86.1987C126.02 87.5318 126.174 89.1198 126.346 90.8737C126.518 92.6276 126.719 94.2097 126.867 95.5429C126.981 96.1844 127.039 96.8348 127.039 97.4864C126.819 96.8713 126.67 96.2331 126.595 95.5844C126.387 94.3993 126.15 92.7461 125.961 90.9152C125.771 89.0843 125.658 87.4193 125.617 86.2164C125.558 85.5651 125.572 84.9093 125.658 84.2611Z" fill="#547B8E"/>
<path d="M120.763 100.769C120.56 100.738 120.361 100.685 120.171 100.609C119.928 100.511 119.667 100.469 119.405 100.484C119.144 100.499 118.89 100.572 118.66 100.697C118.521 100.793 118.409 100.923 118.337 101.074C118.264 101.226 118.232 101.395 118.245 101.563C118.266 101.987 118.342 102.407 118.47 102.813C118.64 103.321 118.617 103.873 118.405 104.365C118.261 104.621 118.059 104.839 117.815 105.002C117.571 105.164 117.292 105.267 117.001 105.301C116.714 105.331 116.425 105.302 116.15 105.216C115.875 105.131 115.62 104.99 115.401 104.804C114.994 104.471 114.693 104.026 114.536 103.524C114.337 102.706 114.259 101.864 114.305 101.023C114.315 100.455 114.425 99.8937 114.631 99.3642C114.696 99.1628 114.815 98.9827 114.974 98.8428C114.974 98.8428 114.879 99.0442 114.773 99.4353C114.634 99.9629 114.57 100.507 114.583 101.053C114.576 101.853 114.676 102.65 114.879 103.423C115.012 103.866 115.287 104.253 115.662 104.524C116.037 104.795 116.491 104.935 116.953 104.922C117.182 104.894 117.402 104.814 117.595 104.688C117.788 104.561 117.95 104.392 118.067 104.193C118.239 103.783 118.258 103.325 118.121 102.902C117.997 102.464 117.931 102.012 117.925 101.557C117.921 101.34 117.973 101.126 118.077 100.936C118.181 100.745 118.333 100.586 118.518 100.472C118.781 100.338 119.072 100.267 119.368 100.267C119.664 100.267 119.955 100.338 120.218 100.472C120.591 100.626 120.799 100.745 120.763 100.769Z" fill="#547B8E"/>
<path d="M115.536 104.49C115.536 104.49 115.631 104.686 115.536 105.047C115.463 105.301 115.333 105.534 115.155 105.73C114.978 105.925 114.757 106.077 114.511 106.173C114.137 106.299 113.736 106.325 113.349 106.249C112.961 106.173 112.6 105.998 112.301 105.74C111.591 105.107 111.151 104.224 111.075 103.275C110.973 102.341 111.166 101.399 111.626 100.579C112.004 99.9178 112.555 99.3711 113.22 98.9972C113.656 98.7434 114.137 98.5726 114.636 98.4936C114.817 98.4503 115.006 98.4503 115.187 98.4936C114.547 98.6556 113.933 98.9048 113.362 99.2342C112.698 99.6535 112.167 100.252 111.831 100.961C111.494 101.671 111.365 102.461 111.46 103.24C111.527 104.092 111.909 104.888 112.532 105.474C112.783 105.7 113.088 105.86 113.417 105.938C113.747 106.015 114.09 106.009 114.416 105.918C114.635 105.844 114.835 105.724 115.004 105.567C115.172 105.41 115.305 105.218 115.394 105.006C115.519 104.691 115.501 104.49 115.536 104.49Z" fill="#547B8E"/>
<path d="M122.96 110.291C123.254 110.166 123.579 110.135 123.891 110.202C124.705 110.287 125.467 110.644 126.053 111.215L125.739 111.346C125.734 110.902 125.76 110.458 125.816 110.018C126.107 107.447 127.316 105.663 127.387 105.728C127.458 105.794 126.48 107.589 126.202 110.066C126.15 110.491 126.12 110.918 126.113 111.346V111.79L125.805 111.476C125.274 110.948 124.6 110.585 123.867 110.433C123.304 110.332 122.96 110.332 122.96 110.291Z" fill="#547B8E"/>
<path d="M120.986 93.7C121.081 93.7356 120.779 94.4762 119.961 94.9325C119.144 95.3887 118.361 95.2821 118.379 95.1813C118.397 95.0806 119.067 95.0036 119.772 94.5888C120.477 94.174 120.886 93.6407 120.986 93.7Z" fill="#547B8E"/>
<path d="M163.839 93.6938C163.839 93.6938 163.62 93.9309 163.246 94.3871C162.655 95.0298 162.189 95.7773 161.872 96.5913C161.777 96.8683 161.725 97.158 161.718 97.4505C161.718 97.7627 161.796 98.0699 161.943 98.3452C162.347 98.9534 162.95 99.4018 163.649 99.6132C165.403 100.163 167.234 100.421 169.071 100.378C170.09 100.378 171.192 100.437 172.318 100.502L174.042 100.703C174.635 100.769 175.227 100.929 175.82 101.035C178.392 101.56 180.819 102.64 182.93 104.199C184.081 105.058 185.082 106.101 185.893 107.287C186.097 107.597 186.285 107.917 186.456 108.246C186.628 108.596 186.746 108.934 186.888 109.277C187.153 109.978 187.351 110.702 187.481 111.44C188.077 114.546 187.586 117.762 186.089 120.547C184.542 123.312 182.058 125.432 179.085 126.526C177.688 127.05 176.215 127.342 174.724 127.391C173.302 127.399 171.884 127.228 170.505 126.882C169.232 126.554 167.937 126.322 166.63 126.188C165.422 126.072 164.205 126.287 163.11 126.81C162.104 127.351 161.209 128.076 160.473 128.949C159.733 129.779 159.105 130.65 158.482 131.474C157.256 133.127 155.952 134.584 154.435 135.349C153.74 135.721 152.967 135.924 152.178 135.941C151.519 135.949 150.865 135.828 150.252 135.586C149.764 135.391 149.316 135.108 148.931 134.75C148.654 134.481 148.429 134.164 148.267 133.814C148.129 133.53 148.058 133.218 148.06 132.902C148.101 132.902 148.113 133.228 148.38 133.761C148.556 134.081 148.784 134.37 149.055 134.614C149.434 134.938 149.867 135.191 150.335 135.361C150.975 135.597 151.66 135.692 152.34 135.638C153.02 135.583 153.681 135.382 154.276 135.047C155.698 134.294 156.936 132.878 158.133 131.219C158.725 130.389 159.365 129.501 160.118 128.635C160.879 127.698 161.812 126.916 162.867 126.33C164.041 125.754 165.35 125.508 166.654 125.619C167.99 125.749 169.315 125.977 170.618 126.301C171.951 126.631 173.321 126.792 174.694 126.781C176.113 126.723 177.513 126.439 178.842 125.939C181.675 124.888 184.042 122.863 185.52 120.227C186.948 117.566 187.421 114.496 186.859 111.529C186.722 110.824 186.524 110.132 186.266 109.461C186.124 109.129 186.006 108.786 185.857 108.489C185.702 108.179 185.528 107.878 185.336 107.589C184.571 106.456 183.626 105.455 182.539 104.626C180.496 103.103 178.147 102.039 175.654 101.509C175.062 101.397 174.469 101.237 173.918 101.172L172.223 100.952C171.109 100.875 170.043 100.828 169.006 100.792C167.125 100.808 165.254 100.51 163.472 99.9095C162.729 99.652 162.098 99.148 161.682 98.4815C161.519 98.1609 161.439 97.8042 161.451 97.4446C161.467 97.1262 161.533 96.8123 161.647 96.5143C161.993 95.6817 162.508 94.9294 163.158 94.3042C163.355 94.0698 163.584 93.8644 163.839 93.6938Z" fill="#0C4D5E"/>
<path d="M208.913 133.204C208.75 132.777 208.655 132.327 208.629 131.871C208.497 130.628 208.579 129.371 208.872 128.156C209.306 126.345 210.089 124.636 211.177 123.125C212.5 121.27 214.193 119.709 216.148 118.539C218.114 117.41 220.252 116.609 222.476 116.169C224.279 115.796 226.116 115.608 227.957 115.606C229.192 115.592 230.427 115.653 231.654 115.789C232.108 115.808 232.556 115.888 232.988 116.026C232.988 116.133 231.062 115.92 227.963 116.026C226.156 116.093 224.36 116.323 222.595 116.714C220.44 117.182 218.371 117.982 216.462 119.084C214.576 120.212 212.935 121.704 211.633 123.475C210.564 124.916 209.773 126.544 209.298 128.274C208.978 129.443 208.832 130.653 208.866 131.865C208.915 132.309 208.931 132.757 208.913 133.204Z" fill="#0C4D5E"/>
<path d="M241.29 143.514C241.11 143.894 240.874 144.245 240.591 144.557C239.886 145.45 239.091 146.27 238.221 147.004C236.923 148.103 235.487 149.028 233.949 149.753C230.154 151.578 225.863 152.097 221.742 151.229C220.075 150.889 218.459 150.332 216.937 149.569C215.913 149.066 214.942 148.461 214.04 147.762C213.69 147.529 213.378 147.243 213.115 146.915C213.186 146.82 214.537 147.999 217.127 149.178C220.486 150.738 224.215 151.329 227.892 150.885C231.57 150.442 235.05 148.98 237.942 146.666C240.164 144.894 241.195 143.425 241.29 143.514Z" fill="#0C4D5E"/>
<path d="M211.525 141.606C211.354 141.701 211.174 141.777 210.986 141.832C210.478 142.038 210.017 142.344 209.629 142.732C209.035 143.364 208.572 144.107 208.266 144.919C207.853 146.002 207.532 147.118 207.306 148.255C207.063 149.654 206.742 151.038 206.347 152.402C206.097 153.179 205.753 153.921 205.322 154.613C204.844 155.339 204.261 155.99 203.591 156.544C202.146 157.694 200.48 158.535 198.697 159.015C196.872 159.56 194.94 159.856 192.997 160.236C189.34 160.838 185.873 162.282 182.87 164.455C181.585 165.418 180.447 166.564 179.493 167.856C178.68 168.996 178.032 170.244 177.567 171.565C176.883 173.485 176.668 175.541 176.939 177.561C177.153 178.989 177.478 179.736 177.413 179.76C177.308 179.593 177.225 179.414 177.164 179.226C177.073 179.006 176.996 178.781 176.933 178.551C176.838 178.24 176.761 177.923 176.702 177.603C176.331 175.54 176.486 173.416 177.153 171.429C177.603 170.053 178.25 168.75 179.072 167.559C180.042 166.212 181.203 165.014 182.521 164.004C185.579 161.748 189.129 160.25 192.878 159.631C194.84 159.246 196.753 158.956 198.525 158.446C200.235 157.997 201.836 157.205 203.23 156.118C203.86 155.609 204.411 155.01 204.865 154.34C205.28 153.692 205.614 152.995 205.861 152.266C206.272 150.916 206.612 149.545 206.88 148.16C207.131 147.001 207.486 145.866 207.941 144.771C208.288 143.932 208.807 143.175 209.463 142.549C209.883 142.155 210.388 141.865 210.939 141.701C211.128 141.637 211.326 141.605 211.525 141.606Z" fill="#0C4D5E"/>
<path d="M195.651 139.136C195.856 139.508 195.962 139.926 195.959 140.35C196.018 141.518 195.684 142.671 195.011 143.627C194.558 144.301 193.948 144.856 193.234 145.245C192.831 145.465 192.397 145.622 191.948 145.713C191.471 145.801 190.984 145.821 190.502 145.772C189.466 145.659 188.481 145.261 187.658 144.622C186.753 143.939 186.106 142.97 185.821 141.873C185.64 141.159 185.629 140.412 185.791 139.693C185.966 139.01 186.29 138.375 186.739 137.832C187.123 137.318 187.558 136.843 188.037 136.416C188.268 136.203 188.52 136.015 188.79 135.853C189.067 135.668 189.387 135.556 189.72 135.527L189.797 136.054L189.507 136.126L189.358 135.616C190.436 135.31 191.585 135.373 192.623 135.794C193.415 136.097 194.122 136.587 194.685 137.222C195.046 137.622 195.331 138.083 195.527 138.585C195.651 138.934 195.681 139.13 195.657 139.136C195.335 138.521 194.937 137.95 194.472 137.435C193.911 136.881 193.232 136.46 192.487 136.203C191.534 135.856 190.494 135.829 189.524 136.126L189.376 135.616L189.667 135.533L189.749 136.066C189.241 136.188 188.78 136.456 188.422 136.837C187.985 137.251 187.589 137.705 187.237 138.194C186.826 138.677 186.539 139.253 186.4 139.873C186.262 140.492 186.277 141.136 186.443 141.749C186.698 142.711 187.262 143.562 188.049 144.172C188.784 144.746 189.66 145.112 190.585 145.233C191.013 145.283 191.446 145.273 191.871 145.203C192.27 145.13 192.657 145 193.02 144.818C193.679 144.48 194.249 143.993 194.685 143.396C195.344 142.526 195.715 141.471 195.746 140.38C195.728 139.58 195.592 139.153 195.651 139.136Z" fill="#0C4D5E"/>
<path d="M157.418 119.813C157.428 119.866 157.428 119.92 157.418 119.973C157.418 120.091 157.418 120.245 157.418 120.435C157.418 120.868 157.364 121.466 157.329 122.213C157.234 123.765 157.145 126.011 157.021 128.784C156.789 134.336 156.558 142.003 156.381 150.482C156.203 158.961 156.09 166.635 156.007 172.187C155.966 174.948 155.93 177.188 155.907 178.77C155.907 179.522 155.877 180.121 155.871 180.547C155.871 180.737 155.871 180.891 155.871 181.015C155.879 181.069 155.879 181.122 155.871 181.175C155.862 181.122 155.862 181.068 155.871 181.015C155.871 180.891 155.871 180.737 155.871 180.547C155.871 180.115 155.871 179.516 155.871 178.77V172.193C155.871 166.635 155.972 158.961 156.155 150.476C156.339 141.991 156.594 134.33 156.884 128.778C157.038 126.005 157.163 123.759 157.293 122.213C157.352 121.454 157.4 120.856 157.435 120.435C157.435 120.245 157.471 120.091 157.483 119.967C157.455 119.919 157.433 119.867 157.418 119.813Z" fill="#001825"/>
<g opacity="0.2">
<path d="M146.094 174.876C149.4 176.458 153.719 173.418 155.408 170.171C155.408 170.171 156.291 163.002 156.172 159.34C155.941 152.561 156.439 145.848 156.208 139.069C155.689 143.128 154.01 146.95 151.373 150.079C150.644 150.938 149.826 151.791 149.554 152.881C149.068 154.837 150.561 158.35 151.521 160.122C154.484 165.538 148.025 174.935 146.307 174.74" fill="#2F3941"/>
</g>
<g opacity="0.2">
<path d="M207.969 130.645C209.047 144.154 210.13 157.666 211.216 171.18C211.248 172.46 211.488 173.727 211.927 174.93C212.152 175.531 212.516 176.07 212.99 176.503C213.464 176.936 214.034 177.25 214.653 177.419C216.572 177.81 218.439 176.157 218.978 174.273C219.517 172.388 219.091 170.38 218.617 168.478C217.811 165.237 216.904 162.025 215.992 158.814C213.349 149.491 210.704 140.17 208.058 130.852" fill="#2F3941"/>
</g>
<path d="M170.832 199.846C171.242 199.179 171.547 198.454 171.739 197.695C172.071 196.231 171.863 193.968 170.726 191.521C170.169 190.294 169.381 189.02 168.587 187.622C167.679 186.138 167.004 184.523 166.584 182.834C166.23 180.918 166.373 178.944 166.999 177.099C167.591 175.191 168.45 173.336 169.144 171.393C170.535 167.759 170.64 163.759 169.44 160.057C168.924 158.455 168.166 156.941 167.194 155.566C166.336 154.372 165.331 153.291 164.202 152.349C162.55 150.987 160.665 149.935 158.638 149.244C157.198 148.764 156.357 148.651 156.369 148.58C156.568 148.568 156.768 148.586 156.961 148.633C157.545 148.718 158.121 148.847 158.686 149.019C160.781 149.624 162.739 150.63 164.451 151.981C165.633 152.924 166.687 154.018 167.585 155.234C168.606 156.643 169.406 158.199 169.956 159.85C171.226 163.67 171.134 167.811 169.695 171.57C168.984 173.549 168.119 175.392 167.55 177.247C166.943 178.993 166.792 180.865 167.111 182.686C167.501 184.327 168.141 185.897 169.007 187.343C169.772 188.748 170.548 190.04 171.099 191.313C172.213 193.855 172.367 196.22 171.941 197.725C171.782 198.3 171.537 198.848 171.212 199.348C170.992 199.704 170.85 199.858 170.832 199.846Z" fill="#0C4D5E"/>
<path d="M226.458 102.369C226.343 102.8 226.141 103.203 225.865 103.554C225.191 104.557 224.316 105.409 223.294 106.054C221.771 107.015 220.035 107.589 218.239 107.725C216.055 107.873 213.864 107.594 211.787 106.902C209.67 106.286 207.736 105.163 206.152 103.631C205.471 102.942 204.916 102.14 204.511 101.261C204.167 100.491 203.951 99.6705 203.871 98.8314C203.735 97.6163 203.967 96.3886 204.534 95.3058C204.621 95.1387 204.72 94.9783 204.83 94.8259C204.906 94.7085 204.993 94.5993 205.091 94.5C205.239 94.34 205.328 94.2571 205.346 94.2748C205.364 94.2926 205.079 94.6659 204.753 95.4125C204.303 96.4754 204.151 97.6412 204.315 98.784C204.416 99.5688 204.64 100.333 204.979 101.047C205.382 101.86 205.919 102.599 206.567 103.234C208.1 104.676 209.954 105.732 211.976 106.315C213.981 106.986 216.093 107.273 218.204 107.162C219.919 107.061 221.586 106.556 223.069 105.687C224.068 105.098 224.952 104.331 225.676 103.424C225.918 103.059 226.179 102.707 226.458 102.369Z" fill="#0C4D5E"/>
<path d="M218.347 166.108C218.347 166.108 218.317 166.054 218.282 165.942C218.246 165.829 218.193 165.651 218.128 165.444C217.997 164.988 217.808 164.348 217.565 163.53L215.55 156.461C213.867 150.471 211.556 142.24 209.032 133.115C207.764 128.553 206.561 124.227 205.477 120.251C204.93 118.382 204.508 116.477 204.215 114.551C203.966 112.864 203.966 111.149 204.215 109.461C204.568 106.994 205.751 104.72 207.569 103.015C208.074 102.572 208.633 102.196 209.234 101.895L209.714 101.693C209.765 101.665 209.821 101.645 209.879 101.634C209.069 102.015 208.316 102.51 207.646 103.104C205.889 104.815 204.758 107.066 204.434 109.497C204.207 111.164 204.225 112.854 204.487 114.516C204.788 116.428 205.216 118.319 205.767 120.174C206.869 124.133 208.084 128.47 209.358 133.032C211.876 142.151 214.158 150.405 215.811 156.402C216.623 159.365 217.274 161.8 217.736 163.512C217.95 164.336 218.122 164.988 218.24 165.45C218.293 165.657 218.335 165.823 218.365 165.953C218.365 166.005 218.359 166.057 218.347 166.108Z" fill="#001825"/>
<path d="M194.212 34.8905C194.261 34.4692 194.261 34.0438 194.212 33.6225C194.032 32.4734 193.453 31.4245 192.577 30.6598C191.259 29.5457 189.559 28.987 187.837 29.1015C185.899 29.1015 183.837 29.7533 181.704 30.4702C180.638 30.8198 179.577 31.1576 178.534 31.3887C177.527 31.6111 176.501 31.7361 175.471 31.762C173.724 31.8075 171.98 31.5796 170.304 31.0865C169.18 30.7481 168.097 30.2871 167.075 29.7118C166.795 29.5615 166.524 29.3953 166.263 29.2141C166.166 29.158 166.076 29.0904 165.996 29.0126C165.996 29.0126 166.399 29.2378 167.134 29.6051C168.167 30.133 169.251 30.5558 170.369 30.8672C172.025 31.3235 173.742 31.5233 175.459 31.4598C176.472 31.4259 177.479 31.2989 178.469 31.0805C179.494 30.8495 180.537 30.488 181.609 30.1621C183.736 29.4452 185.84 28.7993 187.831 28.7993C189.612 28.7017 191.361 29.3058 192.702 30.4821C193.594 31.2825 194.167 32.3792 194.313 33.5692C194.383 34.0114 194.349 34.464 194.212 34.8905Z" fill="#336179"/>
<path d="M202.366 52.6021C202.366 52.6021 202.307 52.531 202.224 52.3828C202.141 52.2347 202.034 52.0096 201.898 51.7133C201.533 50.8768 201.256 50.0052 201.068 49.1121C200.784 47.7811 200.692 46.4162 200.796 45.0591C200.994 43.4158 201.307 41.7883 201.732 40.1885C202.145 38.6113 202.145 36.9545 201.732 35.3772C201.535 34.7014 201.194 34.0766 200.731 33.5463C200.318 33.0992 199.801 32.7612 199.226 32.5627C198.387 32.2446 197.458 32.268 196.636 32.6278C196.351 32.7866 196.082 32.9753 195.836 33.1907C196.023 32.9068 196.28 32.6761 196.583 32.5212C197.001 32.3133 197.457 32.1916 197.923 32.1631C198.389 32.1346 198.856 32.1999 199.297 32.3553C199.914 32.5543 200.473 32.9047 200.92 33.3744C201.416 33.9267 201.785 34.5796 202.005 35.2883C202.435 36.9154 202.435 38.6266 202.005 40.2537C201.582 41.841 201.264 43.4541 201.051 45.0829C200.939 46.4132 201.006 47.7525 201.252 49.0647C201.419 49.9512 201.663 50.8216 201.981 51.6659C202.236 52.2643 202.39 52.5902 202.366 52.6021Z" fill="#336179"/>
<path d="M195.221 34.0435C195.208 33.9036 195.208 33.7628 195.221 33.6228C195.221 33.3207 195.221 32.9237 195.269 32.4378C195.334 30.9696 195.17 29.5002 194.783 28.0827C194.492 27.1197 194.017 26.2222 193.384 25.44C192.668 24.5398 191.685 23.8903 190.576 23.5854C189.334 23.2974 188.038 23.3507 186.825 23.7394C185.511 24.1539 184.252 24.7248 183.074 25.44C181.879 26.161 180.636 26.7985 179.353 27.3479C178.13 27.8255 176.832 28.0862 175.519 28.1182C174.336 28.1482 173.154 28.0045 172.012 27.6916C171.022 27.4043 170.068 27.0068 169.168 26.5065C167.869 25.7729 166.724 24.7951 165.796 23.6268C165.541 23.314 165.311 22.9811 165.109 22.6314C165.029 22.516 164.962 22.393 164.907 22.264C165.004 22.365 165.089 22.4762 165.162 22.5958C165.38 22.9303 165.622 23.249 165.885 23.5498C166.836 24.6681 167.982 25.6038 169.268 26.311C170.16 26.787 171.102 27.1626 172.077 27.4309C173.198 27.725 174.355 27.8567 175.514 27.822C176.791 27.7835 178.051 27.5249 179.241 27.0576C180.509 26.5073 181.738 25.8718 182.92 25.1556C184.121 24.4324 185.404 23.8555 186.742 23.4372C188.007 23.0397 189.356 22.9906 190.647 23.295C191.811 23.6215 192.839 24.3132 193.58 25.2681C194.228 26.0792 194.708 27.0121 194.99 28.0116C195.37 29.4501 195.505 30.9426 195.387 32.4259C195.357 32.9533 195.316 33.3562 195.28 33.611C195.279 33.7571 195.259 33.9024 195.221 34.0435Z" fill="#336179"/>
<path d="M178.246 198.922L178.068 198.975C174.905 199.919 171.539 199.946 168.362 199.052C166.395 198.495 164.54 197.921 164.303 197.654C163.626 196.61 163.02 195.521 162.49 194.395C162.49 194.395 160.446 193.643 160.22 192.884C160.053 192.164 159.952 191.43 159.918 190.692C159.918 190.692 154.716 188.891 153.317 188.185C150.805 186.923 150.538 185.768 150.9 184.932C151.303 183.99 152.275 183.925 153.193 184.34L156.233 185.566C157.068 185.832 157.931 186.001 158.804 186.07L159.989 186.04C162.304 185.982 164.504 185.018 166.116 183.356L166.513 182.953C166.513 182.953 158.858 182.799 157.548 182.076C156.239 181.354 155.48 179.321 155.48 179.321L167.799 178.693C170.924 178.542 174.039 179.152 176.877 180.471C178.091 181.034 179.371 181.617 180.427 182.079L223.9 175.6L223.189 171.654H247.009L247.702 177.721C248.21 180.358 248.133 183.075 247.475 185.678C246.817 188.282 245.595 190.709 243.895 192.788C242.195 194.868 240.059 196.548 237.638 197.71C235.217 198.872 232.57 199.488 229.885 199.514L178.246 198.922Z" fill="#E6EBEE"/>
<path d="M178.246 198.922L178.068 198.975C174.905 199.919 171.539 199.946 168.362 199.052C166.395 198.495 164.54 197.921 164.303 197.654C163.626 196.61 163.02 195.521 162.49 194.395C162.49 194.395 160.446 193.643 160.22 192.884C160.053 192.164 159.952 191.43 159.918 190.692C159.918 190.692 154.716 188.891 153.317 188.185C150.805 186.923 150.538 185.768 150.9 184.932C151.303 183.99 152.275 183.925 153.193 184.34L156.233 185.566C157.068 185.832 157.931 186.001 158.804 186.07L159.989 186.04C162.304 185.982 164.504 185.018 166.116 183.356L166.513 182.953C166.513 182.953 158.858 182.799 157.548 182.076C156.239 181.354 155.48 179.321 155.48 179.321L167.799 178.693C170.924 178.542 174.039 179.152 176.877 180.471C178.091 181.034 179.371 181.617 180.427 182.079L223.9 175.6L223.189 171.654H247.009L247.702 177.721C248.21 180.358 248.133 183.075 247.475 185.678C246.817 188.282 245.595 190.709 243.895 192.788C242.195 194.868 240.059 196.548 237.638 197.71C235.217 198.872 232.57 199.488 229.885 199.514L178.246 198.922Z" fill="url(#paint4_linear_187_24451)" fill-opacity="0.8" style="mix-blend-mode:color-burn"/>
<path d="M178.246 198.922L178.068 198.975C174.905 199.919 171.539 199.946 168.362 199.052C166.395 198.495 164.54 197.921 164.303 197.654C163.626 196.61 163.02 195.521 162.49 194.395C162.49 194.395 160.446 193.643 160.22 192.884C160.053 192.164 159.952 191.43 159.918 190.692C159.918 190.692 154.716 188.891 153.317 188.185C150.805 186.923 150.538 185.768 150.9 184.932C151.303 183.99 152.275 183.925 153.193 184.34L156.233 185.566C157.068 185.832 157.931 186.001 158.804 186.07L159.989 186.04C162.304 185.982 164.504 185.018 166.116 183.356L166.513 182.953C166.513 182.953 158.858 182.799 157.548 182.076C156.239 181.354 155.48 179.321 155.48 179.321L167.799 178.693C170.924 178.542 174.039 179.152 176.877 180.471C178.091 181.034 179.371 181.617 180.427 182.079L223.9 175.6L223.189 171.654H247.009L247.702 177.721C248.21 180.358 248.133 183.075 247.475 185.678C246.817 188.282 245.595 190.709 243.895 192.788C242.195 194.868 240.059 196.548 237.638 197.71C235.217 198.872 232.57 199.488 229.885 199.514L178.246 198.922Z" fill="#2F3941" fill-opacity="0.15" style="mix-blend-mode:multiply"/>
<path d="M165.914 192.309C163.744 192.252 161.616 191.692 159.699 190.674C159.734 190.591 161.079 191.112 162.792 191.557C164.504 192.001 165.926 192.22 165.914 192.309Z" fill="#547B8E"/>
<path d="M165.481 195.195C164.904 195.32 164.304 195.276 163.751 195.07C163.169 194.965 162.629 194.698 162.192 194.3C162.75 194.418 163.299 194.577 163.834 194.774C164.392 194.875 164.943 195.016 165.481 195.195Z" fill="#547B8E"/>
<path d="M235.59 185.933C235.531 185.933 235.241 185.074 234.53 183.776C234.113 183.017 233.637 182.292 233.107 181.608C232.459 180.771 231.739 179.992 230.957 179.279C230.162 178.578 229.31 177.946 228.409 177.389C227.671 176.936 226.901 176.54 226.104 176.204C224.735 175.641 223.828 175.439 223.846 175.38C224.066 175.398 224.283 175.442 224.492 175.51C224.741 175.559 224.986 175.625 225.227 175.706C225.511 175.795 225.819 175.884 226.187 176.026C227.008 176.336 227.801 176.716 228.557 177.164C229.482 177.716 230.355 178.353 231.164 179.066C231.958 179.79 232.685 180.583 233.339 181.436C233.863 182.141 234.325 182.89 234.719 183.675C234.903 184.001 235.021 184.321 235.146 184.594C235.25 184.825 235.339 185.062 235.412 185.305C235.498 185.506 235.557 185.717 235.59 185.933Z" fill="#547B8E"/>
<path d="M167.732 181.863C167.46 182.239 167.141 182.579 166.784 182.876C165.966 183.649 165.066 184.33 164.1 184.908C163.122 185.478 162.06 185.888 160.954 186.123C160.502 186.246 160.034 186.296 159.567 186.271C159.538 186.159 161.7 185.963 163.94 184.642C164.89 184.072 165.791 183.426 166.636 182.71C166.973 182.393 167.34 182.109 167.732 181.863Z" fill="#547B8E"/>
<path d="M40.2605 167.808C41.3152 167.808 32.1902 192.327 29.8379 198.59C29.5772 199.283 29.3994 199.894 29.3994 199.894L93.2862 200L92.5337 140.552C92.5363 140.512 92.5363 140.473 92.5337 140.433L87.2009 97.9131C87.1746 97.707 87.088 97.5133 86.952 97.3562C86.8161 97.1991 86.6367 97.0857 86.4365 97.0302C83.9064 96.3488 74.7873 93.9965 67.8133 93.7357C59.6422 93.4335 47.8153 95.0571 47.8153 95.0571C47.8153 95.0571 37.1912 96.1118 31.3251 98.2449C31.0984 98.3259 30.9066 98.4828 30.7824 98.6891C30.6582 98.8954 30.6092 99.1383 30.6437 99.3767L40.2605 167.808Z" fill="#E34F32"/>
<path d="M69.7635 141.441C69.6821 141.709 69.575 141.969 69.4436 142.217C69.3131 142.517 69.1626 142.808 68.9932 143.088C68.7884 143.469 68.5629 143.839 68.3177 144.196C68.0302 144.638 67.7176 145.063 67.3815 145.47C67.0121 145.944 66.6165 146.397 66.1965 146.827C65.2204 147.81 64.1485 148.693 62.9968 149.463C61.8283 150.21 60.59 150.841 59.2994 151.348C58.7069 151.555 58.1143 151.768 57.5751 151.905C57.0685 152.048 56.5542 152.163 56.0345 152.248C55.6094 152.33 55.1802 152.39 54.7488 152.426C54.4228 152.471 54.0941 152.493 53.7652 152.491C53.4875 152.522 53.2073 152.522 52.9297 152.491C52.9297 152.426 54.1148 152.432 55.9931 152.053C56.5029 151.952 57.0072 151.826 57.504 151.674C58.0492 151.531 58.6061 151.312 59.1927 151.081C60.4594 150.569 61.6754 149.941 62.825 149.203C63.961 148.446 65.0224 147.583 65.995 146.625C66.4276 146.169 66.8542 145.748 67.1801 145.304C67.5204 144.911 67.8388 144.499 68.134 144.071C69.248 142.513 69.7043 141.411 69.7635 141.441Z" fill="#001825"/>
<g opacity="0.2">
<path d="M31.5686 193.939C34.5625 195.166 37.8225 195.6 41.0331 195.198C44.2437 194.796 47.2963 193.573 49.8956 191.646C52.2006 189.975 54.1322 187.789 56.6208 186.396C60.0694 184.476 64.1756 184.293 68.116 184.026C73.3836 183.647 78.6986 183.001 83.6521 181.164C84.6857 180.862 85.6229 180.296 86.3719 179.523C87.0533 178.699 87.2844 177.402 86.6148 176.56C85.9452 175.719 84.6713 175.659 83.5751 175.695C67.0553 176.181 51.9576 177.502 35.8763 181.324" fill="#2F3941"/>
</g>
<path d="M49.3743 32.5686C54.4819 27.3661 62.5403 24.2731 69.2122 27.2358C73.7036 29.203 76.7492 33.4159 80.6896 36.3252C83.5574 38.4465 87.1008 40.0878 88.6058 43.323C89.9331 46.1731 89.2931 49.4972 88.9732 52.6258C88.6532 55.7543 88.8784 59.3629 91.3018 61.3715C92.5698 62.4203 94.2645 62.841 95.6806 63.6587C98.5663 65.3119 100.279 68.5293 100.895 71.7942C101.511 75.059 101.179 78.4246 100.848 81.7369L87.0948 84.3559L84.8373 80.5577L84.0611 86.5127L66.5103 88.0947L49.3743 32.5686Z" fill="#001825"/>
<path d="M47.1066 38.2449V42.0667L46.0223 99.4298C45.9275 106.078 52.2913 111.737 59.4135 111.784C66.6009 111.831 69.534 106.451 69.7413 99.7142C69.9547 92.669 70.3339 85.2505 70.3339 85.2505C70.3339 85.2505 79.4529 83.9943 81.6631 72.2148C82.7593 66.3487 82.7296 56.6845 82.4511 48.7742C82.3923 47.0863 81.9925 45.4277 81.2758 43.8984C80.5592 42.369 79.5406 41.0005 78.2812 39.8751C77.0219 38.7497 75.5478 37.8907 73.9478 37.3499C72.3478 36.809 70.6549 36.5975 68.971 36.728L47.1066 38.2449Z" fill="#E6EBEE"/>
<path d="M47.1066 38.2449V42.0667L46.0223 99.4298C45.9275 106.078 52.2913 111.737 59.4135 111.784C66.6009 111.831 69.534 106.451 69.7413 99.7142C69.9547 92.669 70.3339 85.2505 70.3339 85.2505C70.3339 85.2505 79.4529 83.9943 81.6631 72.2148C82.7593 66.3487 82.7296 56.6845 82.4511 48.7742C82.3923 47.0863 81.9925 45.4277 81.2758 43.8984C80.5592 42.369 79.5406 41.0005 78.2812 39.8751C77.0219 38.7497 75.5478 37.8907 73.9478 37.3499C72.3478 36.809 70.6549 36.5975 68.971 36.728L47.1066 38.2449Z" fill="url(#paint5_linear_187_24451)" fill-opacity="0.8" style="mix-blend-mode:color-burn"/>
<path d="M47.1066 38.2449V42.0667L46.0223 99.4298C45.9275 106.078 52.2913 111.737 59.4135 111.784C66.6009 111.831 69.534 106.451 69.7413 99.7142C69.9547 92.669 70.3339 85.2505 70.3339 85.2505C70.3339 85.2505 79.4529 83.9943 81.6631 72.2148C82.7593 66.3487 82.7296 56.6845 82.4511 48.7742C82.3923 47.0863 81.9925 45.4277 81.2758 43.8984C80.5592 42.369 79.5406 41.0005 78.2812 39.8751C77.0219 38.7497 75.5478 37.8907 73.9478 37.3499C72.3478 36.809 70.6549 36.5975 68.971 36.728L47.1066 38.2449Z" fill="#2F3941" fill-opacity="0.15" style="mix-blend-mode:multiply"/>
<path d="M79.2747 56.3762C79.2685 56.7718 79.1074 57.1492 78.826 57.4273C78.5446 57.7054 78.1653 57.862 77.7697 57.8635C77.5761 57.8738 77.3824 57.8453 77.2001 57.7796C77.0177 57.7139 76.8503 57.6123 76.7078 57.4809C76.5653 57.3494 76.4506 57.1908 76.3704 57.0143C76.2902 56.8378 76.2462 56.647 76.241 56.4533C76.2486 56.0576 76.41 55.6805 76.691 55.4017C76.9719 55.123 77.3503 54.9646 77.746 54.9601C77.9401 54.9497 78.1342 54.9784 78.317 55.0445C78.4998 55.1106 78.6674 55.2127 78.81 55.3447C78.9525 55.4768 79.0671 55.6362 79.147 55.8133C79.2268 55.9905 79.2702 56.1819 79.2747 56.3762Z" fill="#001825"/>
<path d="M80.1694 53.7215C79.9738 53.9171 78.848 53.0283 77.2067 52.9927C75.5654 52.9572 74.3507 53.7334 74.1789 53.526C74.0959 53.4371 74.2974 53.0875 74.8307 52.7202C75.5497 52.2462 76.3995 52.0099 77.2601 52.0447C78.1188 52.0587 78.9501 52.3497 79.6302 52.8742C80.1042 53.2712 80.2642 53.6327 80.1694 53.7215Z" fill="#001825"/>
<path d="M63.168 56.3762C63.1603 56.7713 62.9987 57.1478 62.7177 57.4256C62.4366 57.7034 62.0582 57.8605 61.663 57.8635C61.4694 57.8738 61.2757 57.8453 61.0934 57.7796C60.911 57.7139 60.7436 57.6123 60.6011 57.4809C60.4586 57.3494 60.3439 57.1908 60.2637 57.0143C60.1836 56.8378 60.1395 56.647 60.1343 56.4533C60.142 56.0576 60.3034 55.6805 60.5843 55.4017C60.8652 55.123 61.2436 54.9646 61.6393 54.9601C61.8334 54.9497 62.0275 54.9784 62.2103 55.0445C62.3931 55.1106 62.5607 55.2127 62.7033 55.3447C62.8458 55.4768 62.9604 55.6362 63.0403 55.8133C63.1201 55.9905 63.1636 56.1819 63.168 56.3762Z" fill="#001825"/>
<path d="M64.0854 53.586C63.8899 53.7756 62.7641 52.8927 61.1227 52.8512C59.4814 52.8097 58.2667 53.5978 58.0949 53.3904C58.012 53.3015 58.2134 52.946 58.7467 52.5846C59.4661 52.1107 60.3152 51.8725 61.1761 51.9032C62.0345 51.9189 62.8653 52.2097 63.5462 52.7327C64.0202 53.1356 64.1802 53.4971 64.0854 53.586Z" fill="#001825"/>
<path d="M69.6872 65.8926C69.6872 65.7978 70.7063 65.6496 72.3536 65.4837C72.7743 65.4541 73.1713 65.383 73.2483 65.0986C73.2968 64.6687 73.212 64.2343 73.0054 63.8543C72.6439 62.8292 72.2588 61.7626 71.8558 60.6368C70.2679 56.0684 69.1302 52.3414 69.3139 52.2466C69.4976 52.1518 70.9374 55.8432 72.5254 60.4176C72.9106 61.5434 73.2779 62.6159 73.6216 63.6469C73.8736 64.1557 73.9346 64.7382 73.7934 65.2882C73.7291 65.4343 73.6321 65.5638 73.5098 65.6665C73.3876 65.7692 73.2434 65.8425 73.0883 65.8807C72.8559 65.9384 72.6167 65.9643 72.3773 65.9578C70.7182 65.9874 69.6931 65.9637 69.6872 65.8926Z" fill="#001825"/>
<path d="M70.2849 85.2505C64.7039 85.1832 59.2513 83.5667 54.5354 80.5814C54.5354 80.5814 58.1558 88.8235 70.0479 88.0413L70.2849 85.2505Z" fill="#E6EBEE"/>
<path d="M70.2849 85.2505C64.7039 85.1832 59.2513 83.5667 54.5354 80.5814C54.5354 80.5814 58.1558 88.8235 70.0479 88.0413L70.2849 85.2505Z" fill="url(#paint6_linear_187_24451)" fill-opacity="0.8" style="mix-blend-mode:color-burn"/>
<path d="M70.2849 85.2505C64.7039 85.1832 59.2513 83.5667 54.5354 80.5814C54.5354 80.5814 58.1558 88.8235 70.0479 88.0413L70.2849 85.2505Z" fill="#2F3941" fill-opacity="0.15" style="mix-blend-mode:multiply"/>
<path d="M64.846 66.8699C65.1127 66.8699 65.0653 68.6475 66.5466 69.9392C68.0279 71.2309 69.93 71.0946 69.9359 71.3435C69.9359 71.4561 69.5033 71.6812 68.7034 71.6753C67.6639 71.6641 66.6622 71.284 65.877 70.6028C65.1214 69.9513 64.6495 69.031 64.5616 68.0372C64.5083 67.2906 64.7216 66.858 64.846 66.8699Z" fill="#001825"/>
<path d="M64.6087 48.8274C64.4309 49.2659 62.8311 49.0111 60.8816 49.1889C58.9322 49.3666 57.3916 49.8466 57.1487 49.4437C57.042 49.2481 57.3205 48.8511 57.9604 48.4245C58.8102 47.921 59.7633 47.6173 60.7477 47.5362C61.7321 47.4551 62.7221 47.5988 63.6428 47.9564C64.3361 48.2586 64.6798 48.6201 64.6087 48.8274Z" fill="#001825"/>
<path d="M80.2284 50.4217C79.867 50.7831 78.5101 50.3565 76.8569 50.2913C75.2037 50.2262 73.8113 50.4572 73.4972 50.0603C73.361 49.8706 73.592 49.5033 74.2142 49.1715C75.0695 48.7536 76.0201 48.5696 76.9695 48.6382C77.9151 48.6694 78.8353 48.9516 79.6359 49.4559C80.2047 49.8529 80.3884 50.2439 80.2284 50.4217Z" fill="#001825"/>
<path d="M34.8812 97.1602C34.8812 97.1602 15.8254 101.628 12.128 119.676C10.4274 127.972 8.05137 175.653 19.1554 183.077C33.4888 192.641 51.7447 183.942 51.7447 183.942L49.3745 160.881H37.5239L35.93 135.615C36.3922 137.589 34.8812 97.1602 34.8812 97.1602Z" fill="#E34F32"/>
<path d="M102.666 176.524C106.404 176.141 109.854 174.345 112.311 171.502C114.768 168.659 116.047 164.985 115.885 161.231L108.099 128.15C108.099 128.15 103.051 99.7679 87.094 97.2082L92.5334 140.463L92.012 149.582C92.012 149.582 92.2609 155.614 92.8712 166.92L102.666 176.524Z" fill="#E34F32"/>
<path d="M104.728 155.827C103.766 155.862 102.808 155.967 101.86 156.141C99.5739 156.606 97.4791 157.745 95.8462 159.411C94.2134 161.078 93.1175 163.196 92.6999 165.491C92.545 166.444 92.4599 167.406 92.4451 168.371C92.3828 168.115 92.3529 167.852 92.3562 167.589C92.3245 166.873 92.3682 166.156 92.4866 165.45C92.8654 163.092 93.9694 160.911 95.6451 159.21C97.3209 157.509 99.485 156.372 101.837 155.957C102.542 155.828 103.259 155.768 103.976 155.78C104.228 155.765 104.48 155.781 104.728 155.827Z" fill="#001825"/>
<path d="M55.5671 31.2473C57.7121 34.127 58.7312 36.3372 60.017 41.4626C60.651 43.969 58.6068 45.7407 56.5803 47.2753C56.3625 47.4409 56.1064 47.5489 55.8358 47.5895C55.5652 47.63 55.2887 47.6017 55.0319 47.5073C54.7751 47.4128 54.5462 47.2552 54.3664 47.049C54.1865 46.8428 54.0615 46.5945 54.0028 46.3273C54.0028 46.3273 54.702 54.1783 51.8638 57.698C50.5365 59.3511 50.4773 61.4665 50.7913 63.25C51.1475 65.064 52.0294 66.7331 53.3273 68.0495C56.6218 71.5099 57.5343 77.1567 55.2649 81.3993C54.6074 82.4419 54.0042 83.5178 53.4577 84.6226C53.1813 85.2819 53.0539 85.9941 53.0844 86.7083C53.1192 87.1274 52.9936 87.5441 52.7329 87.8741C52.4722 88.2041 52.0959 88.4228 51.6801 88.4859C41.9291 89.8963 32.0493 90.1925 22.2313 89.3688C21.8937 89.3417 21.5732 89.2093 21.3148 88.9903C21.0565 88.7713 20.8734 88.4767 20.7914 88.1482C20.0211 84.8537 21.3069 81.2985 22.9482 78.3359C24.7851 74.988 27.096 71.7765 27.7537 68.0139C28.3462 64.4588 27.3804 60.6547 28.8024 57.3484C30.58 53.3014 35.3203 51.3875 37.6904 47.6723C39.9361 44.1705 39.7524 39.5783 41.7611 35.9402C44.3446 31.2592 50.6906 29.1024 55.5849 31.2414" fill="#001825"/>
<path d="M56.113 35.5902C59.84 37.51 61.5643 42.0666 65.1847 44.176C68.4791 46.0958 72.5913 45.5921 76.3657 45.0233C76.2294 44.1878 76.0872 43.3464 75.945 42.511C76.2847 43.2673 76.7584 43.9558 77.3434 44.5433C77.6405 44.8332 78.0107 45.0371 78.4145 45.1331C78.8184 45.2291 79.2407 45.2137 79.6365 45.0885C80.9045 44.5789 81.0704 42.8368 80.7505 41.5333C80.171 39.4117 79.0334 37.4842 77.456 35.9516C74.6376 33.0912 70.8837 31.341 66.8808 31.0211C62.8779 30.7012 58.8936 31.833 55.6567 34.2096" fill="#001825"/>
<path d="M91.0534 119.938C91.0807 120.092 91.0926 120.249 91.0889 120.406C91.0889 120.738 91.0889 121.182 91.1304 121.739C91.1304 122.924 91.2133 124.577 91.3022 126.645C91.4741 130.793 91.8592 136.505 92.3273 142.815C92.7954 149.126 93.145 154.85 93.2576 158.997C93.3168 161.071 93.3465 162.748 93.3287 163.909C93.3287 164.466 93.3287 164.911 93.3287 165.243C93.3428 165.398 93.3428 165.555 93.3287 165.711C93.3014 165.556 93.2895 165.399 93.2931 165.243C93.2931 164.911 93.2931 164.466 93.2517 163.909C93.2517 162.724 93.1687 161.077 93.0798 159.003C92.9139 154.856 92.5228 149.149 92.0607 142.833C91.5985 136.517 91.237 130.805 91.1245 126.657C91.0652 124.583 91.0415 122.9 91.0534 121.739C91.0534 121.182 91.0534 120.738 91.0534 120.406C91.0431 120.25 91.0431 120.094 91.0534 119.938Z" fill="#001825"/>
<path d="M37.5417 160.887C37.5147 160.778 37.5008 160.667 37.5002 160.555C37.5002 160.3 37.4647 159.962 37.4351 159.601C37.3876 158.73 37.3225 157.551 37.2454 156.105C37.0736 153.142 36.8129 149.072 36.5048 144.562C36.1967 140.053 35.9122 136.018 35.7049 133.026C35.6101 131.586 35.533 130.401 35.4738 129.53C35.4738 129.145 35.4382 128.831 35.4264 128.582C35.4122 128.47 35.4122 128.356 35.4264 128.244C35.4553 128.353 35.4732 128.464 35.4797 128.576C35.4797 128.825 35.5449 129.139 35.5864 129.524C35.6693 130.389 35.7819 131.568 35.9182 133.014C36.1789 135.977 36.5107 140.036 36.807 144.545C37.1032 149.054 37.3402 153.136 37.4528 156.093C37.5062 157.574 37.5476 158.771 37.5536 159.595V160.549C37.5648 160.662 37.5609 160.775 37.5417 160.887Z" fill="#001825"/>
<path d="M37.5414 160.887C37.5414 160.941 36.9489 160.97 35.989 161.284C34.7744 161.686 33.6953 162.418 32.8719 163.397C32.0486 164.376 31.5133 165.565 31.3257 166.83C31.1776 167.802 31.2546 168.418 31.2013 168.424C31.148 168.43 31.1421 168.276 31.1065 167.998C31.0625 167.604 31.0625 167.206 31.1065 166.813C31.2451 165.484 31.7775 164.228 32.6352 163.204C33.503 162.191 34.6481 161.453 35.9297 161.083C36.3167 160.975 36.7138 160.907 37.1148 160.881C37.3873 160.852 37.5414 160.864 37.5414 160.887Z" fill="#001825"/>
<path d="M51.715 183.948C51.6776 183.829 51.6537 183.706 51.6439 183.581C51.6083 183.308 51.5668 182.959 51.5076 182.526C51.4009 181.572 51.2528 180.263 51.0691 178.651C50.7195 175.345 50.2455 170.836 49.7241 165.858C49.5522 164.128 49.3804 162.451 49.2263 160.899L49.3745 161.035L39.894 160.976L37.1387 160.934H36.404C36.3193 160.944 36.2338 160.944 36.1492 160.934C36.2322 160.912 36.318 160.902 36.404 160.905H37.1387L39.894 160.863L49.3745 160.81H49.5048V160.946L50.0144 165.9C50.5003 170.883 50.9388 175.38 51.2647 178.71C51.4069 180.322 51.5254 181.638 51.6083 182.592C51.6439 183.024 51.6676 183.38 51.6913 183.652C51.7074 183.75 51.7154 183.849 51.715 183.948Z" fill="#001825"/>
<path d="M51.7157 183.948C51.5691 184.011 51.4187 184.064 51.2653 184.108L49.9677 184.523C48.836 184.878 47.1946 185.376 45.1445 185.921C42.7448 186.577 40.3068 187.084 37.8445 187.438C34.8097 187.849 31.7254 187.702 28.7432 187.006C27.1978 186.672 25.6741 186.245 24.1807 185.726C23.4637 185.465 22.7586 185.204 22.0772 184.92C21.7395 184.778 21.4017 184.641 21.0818 184.47L20.5959 184.227L20.1396 183.936C19.0257 183.183 18.058 182.233 17.2836 181.134C16.6024 180.187 16.0075 179.182 15.506 178.13C14.8019 176.608 14.2079 175.037 13.7284 173.431C13.5507 172.838 13.4203 172.423 13.3433 172.121C13.295 171.968 13.2574 171.812 13.2307 171.653C13.3016 171.798 13.3591 171.948 13.4025 172.103L13.841 173.395C14.3667 174.978 14.9921 176.525 15.7134 178.029C16.2187 179.066 16.8135 180.057 17.491 180.991C18.2558 182.058 19.2073 182.978 20.2996 183.705L20.7381 183.984L21.2062 184.221C21.5143 184.387 21.8521 184.517 22.1898 184.659C22.8653 184.938 23.5645 185.198 24.2814 185.447C25.7633 185.961 27.2751 186.385 28.8084 186.715C31.7572 187.404 34.8056 187.558 37.8089 187.172C40.2621 186.83 42.6935 186.347 45.0912 185.726C47.1413 185.204 48.7886 184.736 49.9321 184.422L51.2476 184.061C51.3994 184.007 51.5562 183.97 51.7157 183.948Z" fill="#001825"/>
<path d="M41.6597 45.2844C42.2289 43.8859 42.3677 42.3494 42.0584 40.8716C41.7491 39.3937 41.0058 38.0418 39.9235 36.989C38.8112 35.9723 37.4491 35.2688 35.9762 34.9503C34.5033 34.6318 32.9722 34.7096 31.5392 35.1758C30.2339 35.5687 29.0867 36.3653 28.2625 37.4511C26.8108 39.4539 27.0775 42.4047 28.5943 44.3778C29.3879 45.3328 30.3761 46.1074 31.493 46.65C32.6098 47.1925 33.8295 47.4906 35.0707 47.5242C37.5579 47.5738 40.0244 47.0635 42.2877 46.031" fill="#001825"/>
<path d="M61.362 139.26C65.5097 142.679 75.2628 150.773 75.2628 150.773L80.72 149.801L64.1765 135.883C63.7478 135.524 63.1985 135.342 62.6404 135.374C62.0824 135.406 61.5574 135.649 61.1724 136.055C60.9634 136.272 60.8016 136.53 60.6973 136.813C60.5929 137.096 60.5483 137.398 60.5661 137.699C60.5839 138 60.6638 138.294 60.8008 138.563C60.9377 138.832 61.1288 139.069 61.362 139.26Z" fill="#336179"/>
<path d="M60.9523 137.482L58.8073 135.544C58.6056 135.362 58.4825 135.108 58.4637 134.836C58.4449 134.564 58.532 134.296 58.7066 134.087C58.7984 133.98 58.9108 133.892 59.0371 133.829C59.1634 133.766 59.3011 133.729 59.442 133.72C59.5829 133.711 59.7242 133.731 59.8574 133.777C59.9906 133.824 60.1131 133.897 60.2176 133.992L62.2855 135.888L60.9523 137.482Z" fill="#336179"/>
<path d="M67.3168 138.525C66.9535 139.13 66.5045 139.679 65.9836 140.154C65.5349 140.698 65.0123 141.177 64.4312 141.576C64.7951 140.97 65.2441 140.42 65.7643 139.941C66.2102 139.396 66.7332 138.919 67.3168 138.525Z" fill="#001825"/>
<path d="M67.4715 145.339C66.8878 145.033 66.3343 144.672 65.8184 144.261C64.8348 143.55 63.5016 142.519 62.0973 141.298C61.3781 140.763 60.7838 140.077 60.3552 139.29C60.0519 138.6 60.0328 137.819 60.3019 137.115C60.4817 136.648 60.7847 136.239 61.1788 135.93C61.4573 135.723 61.641 135.658 61.6469 135.675C61.6529 135.693 61.4988 135.794 61.2559 136.025C60.9115 136.351 60.6548 136.759 60.5093 137.21C60.2895 137.861 60.3277 138.571 60.6159 139.195C61.0436 139.934 61.6183 140.577 62.3046 141.085C63.6971 142.3 65.0007 143.355 65.9546 144.107C66.4854 144.486 66.992 144.898 67.4715 145.339Z" fill="#001825"/>
<path d="M88.2569 158.22C88.3571 158.384 88.4898 158.525 88.6467 158.635C88.8037 158.745 88.9817 158.821 89.1695 158.86C89.3573 158.898 89.551 158.897 89.7385 158.858C89.9261 158.818 90.1034 158.74 90.2597 158.629C90.5639 158.387 90.7963 158.067 90.932 157.702C91.0678 157.338 91.1016 156.943 91.0299 156.561C90.8749 155.797 90.5374 155.081 90.0463 154.476C89.1807 153.355 88.2298 152.303 87.2022 151.329L84.0618 153.972L88.2569 158.22Z" fill="#E6EBEE"/>
<path d="M88.2569 158.22C88.3571 158.384 88.4898 158.525 88.6467 158.635C88.8037 158.745 88.9817 158.821 89.1695 158.86C89.3573 158.898 89.551 158.897 89.7385 158.858C89.9261 158.818 90.1034 158.74 90.2597 158.629C90.5639 158.387 90.7963 158.067 90.932 157.702C91.0678 157.338 91.1016 156.943 91.0299 156.561C90.8749 155.797 90.5374 155.081 90.0463 154.476C89.1807 153.355 88.2298 152.303 87.2022 151.329L84.0618 153.972L88.2569 158.22Z" fill="url(#paint7_linear_187_24451)" fill-opacity="0.8" style="mix-blend-mode:color-burn"/>
<path d="M88.2569 158.22C88.3571 158.384 88.4898 158.525 88.6467 158.635C88.8037 158.745 88.9817 158.821 89.1695 158.86C89.3573 158.898 89.551 158.897 89.7385 158.858C89.9261 158.818 90.1034 158.74 90.2597 158.629C90.5639 158.387 90.7963 158.067 90.932 157.702C91.0678 157.338 91.1016 156.943 91.0299 156.561C90.8749 155.797 90.5374 155.081 90.0463 154.476C89.1807 153.355 88.2298 152.303 87.2022 151.329L84.0618 153.972L88.2569 158.22Z" fill="#2F3941" fill-opacity="0.15" style="mix-blend-mode:multiply"/>
<path d="M49.5581 162.73C53.4925 161.415 57.6639 162.303 61.5924 160.982C62.9412 160.628 64.2048 160.005 65.3076 159.151C66.5578 158.043 67.1919 156.414 68.1873 155.075C71.15 151.069 76.7138 150.239 81.6793 149.742C82.8307 149.556 84.0056 149.572 85.1515 149.789C85.7243 149.905 86.2576 150.166 86.6998 150.548C87.142 150.93 87.4782 151.42 87.6757 151.97C87.9957 153.09 87.2728 154.488 86.1114 154.606C87.2017 154.654 87.9601 155.756 88.1616 156.828C88.363 157.901 88.1616 159.003 88.3275 160.081C88.5289 161.598 89.3585 163.014 89.3111 164.543C89.2459 166.635 87.5335 168.359 85.5781 169.165C83.6228 169.971 81.5074 170.077 79.4395 170.35C69.2479 171.784 61.545 177.561 51.7149 181.928" fill="#E6EBEE"/>
<path d="M49.5581 162.73C53.4925 161.415 57.6639 162.303 61.5924 160.982C62.9412 160.628 64.2048 160.005 65.3076 159.151C66.5578 158.043 67.1919 156.414 68.1873 155.075C71.15 151.069 76.7138 150.239 81.6793 149.742C82.8307 149.556 84.0056 149.572 85.1515 149.789C85.7243 149.905 86.2576 150.166 86.6998 150.548C87.142 150.93 87.4782 151.42 87.6757 151.97C87.9957 153.09 87.2728 154.488 86.1114 154.606C87.2017 154.654 87.9601 155.756 88.1616 156.828C88.363 157.901 88.1616 159.003 88.3275 160.081C88.5289 161.598 89.3585 163.014 89.3111 164.543C89.2459 166.635 87.5335 168.359 85.5781 169.165C83.6228 169.971 81.5074 170.077 79.4395 170.35C69.2479 171.784 61.545 177.561 51.7149 181.928" fill="url(#paint8_linear_187_24451)" fill-opacity="0.8" style="mix-blend-mode:color-burn"/>
<path d="M49.5581 162.73C53.4925 161.415 57.6639 162.303 61.5924 160.982C62.9412 160.628 64.2048 160.005 65.3076 159.151C66.5578 158.043 67.1919 156.414 68.1873 155.075C71.15 151.069 76.7138 150.239 81.6793 149.742C82.8307 149.556 84.0056 149.572 85.1515 149.789C85.7243 149.905 86.2576 150.166 86.6998 150.548C87.142 150.93 87.4782 151.42 87.6757 151.97C87.9957 153.09 87.2728 154.488 86.1114 154.606C87.2017 154.654 87.9601 155.756 88.1616 156.828C88.363 157.901 88.1616 159.003 88.3275 160.081C88.5289 161.598 89.3585 163.014 89.3111 164.543C89.2459 166.635 87.5335 168.359 85.5781 169.165C83.6228 169.971 81.5074 170.077 79.4395 170.35C69.2479 171.784 61.545 177.561 51.7149 181.928" fill="#2F3941" fill-opacity="0.15" style="mix-blend-mode:multiply"/>
<path d="M87.0953 154.772C87.0953 154.873 85.1636 154.713 82.835 155.075C80.5063 155.436 78.6873 156.135 78.6873 156.046C79.0419 155.813 79.4293 155.633 79.8368 155.513C80.7987 155.172 81.7907 154.922 82.7994 154.766C83.8089 154.613 84.831 154.56 85.851 154.606C86.2716 154.601 86.6907 154.657 87.0953 154.772Z" fill="#547B8E"/>
<path d="M88.481 160.946C88.481 161.041 86.8633 160.709 84.8665 160.768C82.8697 160.828 81.2817 161.219 81.2639 161.124C83.5897 160.3 86.1174 160.238 88.481 160.946Z" fill="#547B8E"/>
<path d="M88.1501 159.122C88.0968 159.122 88.1501 158.66 88.0613 157.937C87.9474 156.999 87.6211 156.099 87.1073 155.306C86.984 155.114 86.8495 154.93 86.7044 154.755L86.6155 154.642L86.7103 154.548C86.9806 154.273 87.1929 153.947 87.3344 153.589C87.4759 153.23 87.5438 152.847 87.5339 152.462C87.5339 151.869 87.3561 151.537 87.3976 151.52C87.6093 151.784 87.7262 152.111 87.7294 152.45C87.7748 152.872 87.7261 153.298 87.5867 153.699C87.4474 154.099 87.2209 154.464 86.9236 154.767V154.559C87.0791 154.748 87.2236 154.946 87.3561 155.152C87.8973 155.985 88.2118 156.945 88.2686 157.937C88.3156 158.336 88.2752 158.74 88.1501 159.122Z" fill="#547B8E"/>
<path d="M88.2622 157.883L93.4291 162.73L94.0868 165.609L89.311 164.531C88.6236 162.102 88.12 159.785 88.2622 157.883Z" fill="#336179"/>
<path d="M81.2663 164.058C81.1596 164.247 53.3699 177.946 53.3699 177.946V180.909L81.7284 166.155L116.907 164.846V162.76L81.2663 164.058Z" fill="#F6F6F8"/>
<path d="M53.3699 181.318C53.5654 181.187 84.0512 178.438 84.0512 178.438L116.907 164.81L81.7284 166.137L53.3699 180.891V181.318Z" fill="#001825"/>
<path d="M82.5573 174.024C82.3144 172.424 83.8431 171.061 85.4015 170.629C86.9598 170.196 88.6248 170.374 90.201 170.036C91.2011 169.761 92.1795 169.413 93.1281 168.993C97.9868 167.133 103.32 167.032 108.534 166.961C108.837 167.667 108.884 168.457 108.668 169.194C108.452 169.932 107.985 170.571 107.349 171.002C107.78 172.277 107.723 173.666 107.189 174.901C106.651 176.124 105.917 177.251 105.014 178.237C104.333 179.139 103.456 179.874 102.449 180.388C101.395 180.774 100.275 180.947 99.1541 180.897C95.6582 180.968 91.9134 180.974 89.0278 179.013C86.7821 177.484 85.2296 174.865 82.6284 174.095H83.2209" fill="#E6EBEE"/>
<path d="M82.5573 174.024C82.3144 172.424 83.8431 171.061 85.4015 170.629C86.9598 170.196 88.6248 170.374 90.201 170.036C91.2011 169.761 92.1795 169.413 93.1281 168.993C97.9868 167.133 103.32 167.032 108.534 166.961C108.837 167.667 108.884 168.457 108.668 169.194C108.452 169.932 107.985 170.571 107.349 171.002C107.78 172.277 107.723 173.666 107.189 174.901C106.651 176.124 105.917 177.251 105.014 178.237C104.333 179.139 103.456 179.874 102.449 180.388C101.395 180.774 100.275 180.947 99.1541 180.897C95.6582 180.968 91.9134 180.974 89.0278 179.013C86.7821 177.484 85.2296 174.865 82.6284 174.095H83.2209" fill="url(#paint9_linear_187_24451)" fill-opacity="0.8" style="mix-blend-mode:color-burn"/>
<path d="M82.5573 174.024C82.3144 172.424 83.8431 171.061 85.4015 170.629C86.9598 170.196 88.6248 170.374 90.201 170.036C91.2011 169.761 92.1795 169.413 93.1281 168.993C97.9868 167.133 103.32 167.032 108.534 166.961C108.837 167.667 108.884 168.457 108.668 169.194C108.452 169.932 107.985 170.571 107.349 171.002C107.78 172.277 107.723 173.666 107.189 174.901C106.651 176.124 105.917 177.251 105.014 178.237C104.333 179.139 103.456 179.874 102.449 180.388C101.395 180.774 100.275 180.947 99.1541 180.897C95.6582 180.968 91.9134 180.974 89.0278 179.013C86.7821 177.484 85.2296 174.865 82.6284 174.095H83.2209" fill="#2F3941" fill-opacity="0.15" style="mix-blend-mode:multiply"/>
<path d="M105.843 172.086C105.625 172.135 105.402 172.157 105.179 172.151L103.354 172.211C101.813 172.246 99.6863 172.27 97.3398 172.282H94.0216C93.5251 172.289 93.0307 172.215 92.5581 172.063C92.1361 171.914 91.7672 171.644 91.4975 171.286C91.3842 171.139 91.3018 170.97 91.255 170.79C91.2082 170.609 91.1979 170.422 91.2249 170.238C91.2693 169.963 91.3976 169.708 91.5923 169.509C91.6649 169.423 91.7559 169.355 91.8585 169.31C91.9612 169.265 92.0727 169.244 92.1848 169.248C91.9822 169.318 91.7993 169.436 91.6515 169.592C91.4615 169.808 91.3568 170.086 91.3568 170.374C91.3568 170.662 91.4615 170.94 91.6515 171.156C91.9025 171.466 92.238 171.697 92.6173 171.82C93.0673 171.951 93.5352 172.011 94.0039 171.997H97.3161C99.6862 171.997 101.79 171.997 103.33 171.997L105.155 172.033C105.386 172.02 105.617 172.038 105.843 172.086Z" fill="#547B8E"/>
<path d="M104.054 175.014C103.781 175.091 103.501 175.145 103.218 175.174C102.673 175.262 101.885 175.375 100.908 175.47C99.7559 175.585 98.5969 175.611 97.4413 175.547C96.0296 175.432 94.6302 175.198 93.258 174.848C90.7808 174.243 88.2412 173.931 85.6914 173.917C84.7137 173.917 83.9138 173.953 83.3746 173.983C83.0887 174.007 82.8012 174.007 82.5154 173.983C82.7925 173.908 83.0763 173.86 83.3627 173.84C84.1336 173.745 84.9089 173.69 85.6854 173.674C88.2575 173.621 90.8253 173.906 93.3232 174.522C94.6851 174.869 96.0718 175.11 97.4709 175.245C98.6131 175.323 99.7594 175.323 100.902 175.245C101.879 175.179 102.679 175.096 103.213 175.049C103.491 175.009 103.773 174.997 104.054 175.014Z" fill="#547B8E"/>
<path d="M101.157 178.142C100.943 178.207 100.722 178.247 100.499 178.261C100.078 178.32 99.4619 178.397 98.7212 178.462C96.7308 178.671 94.721 178.605 92.7485 178.267C90.408 177.822 88.6008 176.625 87.1965 176.074C86.439 175.767 85.6558 175.527 84.856 175.357C85.0775 175.33 85.3022 175.342 85.5196 175.393C86.1286 175.484 86.725 175.645 87.2972 175.873C88.7489 176.388 90.5561 177.532 92.8314 177.964C94.7882 178.295 96.7776 178.389 98.7568 178.243L100.534 178.142C100.741 178.119 100.95 178.119 101.157 178.142Z" fill="#547B8E"/>
<g opacity="0.2">
<path d="M93.2734 162.233C93.5012 160.06 94.0858 157.94 95.0036 155.958C95.9322 153.976 97.505 152.368 99.4654 151.395C100.45 150.925 101.539 150.712 102.628 150.779C103.718 150.845 104.772 151.188 105.693 151.774C106.249 152.133 106.683 152.651 106.937 153.262C107.062 153.566 107.099 153.899 107.046 154.223C106.992 154.547 106.85 154.85 106.635 155.099C105.983 155.798 104.857 155.691 103.921 155.644C101.736 155.584 99.5798 156.151 97.7074 157.279C95.835 158.407 94.325 160.048 93.3564 162.007" fill="#2F3941"/>
</g>
<g opacity="0.2">
<path d="M41.8197 160.43C44.1898 156.182 43.3366 150.855 41.5294 146.352C39.7222 141.849 37.0261 137.701 35.6455 133.044C35.3857 142.491 36.7588 151.912 39.7044 160.893" fill="#2F3941"/>
</g>
<path d="M45.9919 95.4481C45.9919 95.4481 48.8657 102.221 59.235 101.788C69.6043 101.356 69.9361 93.3149 69.9361 93.3149L76.8746 100.692L70.2857 114.267L61.4333 120.874L49.3752 115.92L39.4385 108.217L45.9919 95.4481Z" fill="#E34F32"/>
<g opacity="0.5">
<path d="M21.7097 124.4C21.8163 124.53 20.4653 125.798 18.6818 127.226C16.8983 128.654 15.3755 129.703 15.2688 129.567C15.1622 129.43 16.5132 128.174 18.2908 126.746C20.0684 125.318 21.603 124.264 21.7097 124.4Z" fill="#F6F6F8"/>
</g>
<path d="M26.5852 117.093C26.5319 117.247 24.8965 116.785 23.1248 115.689C21.3531 114.593 20.1977 113.354 20.3103 113.236C20.4229 113.117 21.7264 114.119 23.4448 115.167C25.1631 116.216 26.6326 116.927 26.5852 117.093Z" fill="#F6F6F8"/>
<path d="M35.4745 117.887C35.6167 117.994 34.2895 119.896 32.8141 122.314C31.3387 124.731 30.1951 126.746 30.041 126.669C29.887 126.592 30.7698 124.435 32.2926 121.988C33.8154 119.541 35.3501 117.781 35.4745 117.887Z" fill="#F6F6F8"/>
<path d="M27.8663 138.478C27.7478 138.585 26.379 137.186 25.1821 135.118C23.9852 133.051 23.4401 131.172 23.5941 131.119C23.7482 131.066 24.5363 132.796 25.7154 134.804C26.8945 136.813 28.0026 138.36 27.8663 138.478Z" fill="#F6F6F8"/>
<path d="M19.9146 148.438C19.7487 148.438 19.3991 146.957 19.1443 145.073C18.8895 143.189 18.8184 141.642 18.9843 141.618C19.1502 141.595 19.4998 143.106 19.7546 144.99C20.0094 146.874 20.0686 148.415 19.9146 148.438Z" fill="#F6F6F8"/>
<g opacity="0.5">
<path d="M27.4036 151.152C27.2555 151.069 27.9961 149.481 29.1042 147.597C30.2122 145.713 31.1899 144.273 31.338 144.356C31.4861 144.439 30.7455 146.032 29.6374 147.911C28.5294 149.789 27.5517 151.217 27.4036 151.152Z" fill="#F6F6F8"/>
</g>
<path d="M18.7053 161.468C18.5809 161.58 17.2595 160.283 15.9737 158.41C14.6879 156.538 13.9591 154.855 14.1013 154.766C14.2435 154.677 15.2212 156.224 16.4715 158.061C17.7217 159.898 18.8357 161.355 18.7053 161.468Z" fill="#F6F6F8"/>
<path d="M30.5255 159.767C30.644 159.886 29.2812 161.456 27.4858 163.269C25.6904 165.082 24.1321 166.463 24.0076 166.345C23.8832 166.226 25.246 164.656 27.0473 162.837C28.8486 161.018 30.4011 159.649 30.5255 159.767Z" fill="#F6F6F8"/>
<g opacity="0.5">
<path d="M23.8085 181.057C23.6959 181.176 22.3805 180.085 21.1836 178.367C19.9867 176.649 19.406 175.049 19.5482 174.984C19.6904 174.919 20.5259 176.358 21.6931 178.012C22.8604 179.665 23.9329 180.933 23.8085 181.057Z" fill="#F6F6F8"/>
</g>
<path d="M39.0579 176.749C39.1409 176.897 37.6833 177.887 35.8049 178.959C33.9266 180.032 32.3268 180.784 32.2498 180.636C32.1727 180.488 33.6244 179.498 35.5028 178.426C37.3811 177.353 38.975 176.601 39.0579 176.749Z" fill="#F6F6F8"/>
<path d="M45.0024 171.843C44.8957 171.967 43.5151 170.913 42.259 169.188C41.0028 167.464 40.4162 165.829 40.5703 165.769C40.7243 165.71 41.542 167.168 42.7567 168.827C43.9714 170.486 45.1268 171.713 45.0024 171.843Z" fill="#F6F6F8"/>
<path d="M55.4835 137.719C55.5901 137.855 54.0199 139.206 51.9816 140.729C49.9433 142.252 48.2131 143.378 48.1064 143.241C47.9998 143.105 49.5759 141.76 51.6142 140.237C53.6525 138.714 55.3827 137.589 55.4835 137.719Z" fill="#F6F6F8"/>
<path d="M44.4402 136.996C44.2684 136.996 44.298 135.355 44.4995 133.37C44.7009 131.385 45.0031 129.815 45.175 129.815C45.3468 129.815 45.3172 131.456 45.1157 133.441C44.9142 135.426 44.6061 137.026 44.4402 136.996Z" fill="#F6F6F8"/>
<g opacity="0.5">
<path d="M54.6265 123.126C54.5317 123.262 52.6948 122.13 50.6802 120.406C48.6656 118.682 47.2554 117.052 47.3739 116.94C47.4924 116.827 49.0863 118.237 51.0831 119.938C53.08 121.638 54.7272 122.983 54.6265 123.126Z" fill="#F6F6F8"/>
</g>
<path d="M46.9748 105.811C47.1052 105.924 45.7897 107.666 44.0832 109.704C42.3767 111.742 40.848 113.301 40.7177 113.194C40.5873 113.087 41.9027 111.339 43.6092 109.301C45.3157 107.263 46.8444 105.704 46.9748 105.811Z" fill="#F6F6F8"/>
<g opacity="0.5">
<path d="M38.2116 103.957C38.1168 104.111 36.7955 103.429 35.0712 102.854C33.3469 102.28 31.9189 102.001 31.9189 101.823C31.9189 101.646 33.4832 101.658 35.2845 102.268C37.0858 102.878 38.3005 103.814 38.2116 103.957Z" fill="#F6F6F8"/>
</g>
<path d="M60.4838 111.938C60.3239 111.891 60.6024 110.451 61.1119 108.721C61.6215 106.991 62.1666 105.628 62.297 105.675C62.4274 105.723 62.1844 107.163 61.7045 108.893C61.2245 110.623 60.6498 111.992 60.4838 111.938Z" fill="#F6F6F8"/>
<path d="M65.8118 125.578C65.64 125.578 65.5808 124.156 65.6815 122.426C65.7822 120.696 66.0015 119.303 66.1674 119.309C66.3333 119.315 66.3985 120.731 66.2977 122.462C66.197 124.192 65.9778 125.59 65.8118 125.578Z" fill="#F6F6F8"/>
<path d="M74.5811 135.812C74.4745 135.948 73.1768 135.083 71.6836 133.88C70.1905 132.677 69.0646 131.599 69.1713 131.468C69.278 131.338 70.5756 132.197 72.0688 133.4C73.562 134.603 74.67 135.681 74.5811 135.812Z" fill="#F6F6F8"/>
<path d="M83.8895 121.525C84.0021 121.65 82.8467 122.859 81.3061 124.215C79.7655 125.572 78.4264 126.586 78.3434 126.443C78.2605 126.301 79.3863 125.11 80.9269 123.753C82.4674 122.396 83.7769 121.395 83.8895 121.525Z" fill="#F6F6F8"/>
<g opacity="0.5">
<path d="M79.6039 114.777C79.5091 114.919 78.0456 114.114 76.4694 112.804C74.8933 111.495 73.8267 110.203 73.9453 110.09C74.0638 109.978 75.3081 111.044 76.8605 112.324C78.413 113.604 79.6987 114.635 79.6039 114.777Z" fill="#F6F6F8"/>
</g>
<path d="M90.3769 102.748C90.5132 102.843 89.7844 104.069 88.5282 105.254C87.2721 106.439 85.9981 107.091 85.9092 106.949C85.8204 106.807 86.8869 105.954 88.1016 104.81C89.3163 103.666 90.2347 102.63 90.3769 102.748Z" fill="#F6F6F8"/>
<g opacity="0.5">
<path d="M82.971 101.622C82.971 101.788 81.0571 101.652 78.8233 101.077C76.5894 100.502 74.8355 99.732 74.8948 99.572C74.954 99.412 76.7494 99.9216 78.9773 100.479C81.2052 101.036 82.9947 101.444 82.971 101.622Z" fill="#F6F6F8"/>
</g>
<g opacity="0.5">
<path d="M96.728 120.773C96.568 120.737 96.9354 118.403 97.7827 115.665C98.63 112.928 99.6077 110.783 99.7617 110.842C99.9158 110.901 99.2048 113.111 98.3752 115.843C97.5457 118.575 96.8998 120.808 96.728 120.773Z" fill="#F6F6F8"/>
</g>
<path d="M99.7811 133.845C99.6566 133.957 98.1931 132.612 96.5103 130.829C94.8275 129.045 93.5476 127.511 93.6958 127.392C93.8439 127.273 95.2778 128.624 96.9606 130.408C98.6434 132.192 99.9055 133.726 99.7811 133.845Z" fill="#F6F6F8"/>
<g opacity="0.5">
<path d="M104.505 141.245C104.333 141.245 104.226 139.301 104.267 136.908C104.309 134.514 104.481 132.582 104.653 132.582C104.824 132.582 104.925 134.526 104.884 136.919C104.842 139.313 104.67 141.251 104.505 141.245Z" fill="#F6F6F8"/>
</g>
<path d="M99.71 153.439C99.5737 153.534 98.3057 151.982 97.1325 149.813C95.9593 147.644 95.3549 145.73 95.503 145.665C95.6511 145.6 96.5162 147.384 97.6776 149.511C98.839 151.638 99.8522 153.339 99.71 153.439Z" fill="#F6F6F8"/>
<path d="M111.944 155.667C112.069 155.785 111.245 156.781 110.114 157.889C108.982 158.997 107.963 159.791 107.844 159.666C107.726 159.542 108.549 158.546 109.681 157.438C110.813 156.33 111.826 155.542 111.944 155.667Z" fill="#F6F6F8"/>
<g opacity="0.5">
<path d="M82.1549 141.772C82.0009 141.724 82.546 139.781 83.9325 137.754C85.319 135.728 86.9485 134.525 87.0492 134.655C87.15 134.786 85.7812 136.149 84.4421 138.11C83.103 140.071 82.3208 141.837 82.1549 141.772Z" fill="#F6F6F8"/>
</g>
<path d="M47.6029 158.026C47.4369 157.984 47.7273 156.248 48.2487 154.091C48.7701 151.934 49.339 150.257 49.5049 150.299C49.6708 150.34 49.3745 152.106 48.8531 154.239C48.3317 156.372 47.7628 158.067 47.6029 158.026Z" fill="#F6F6F8"/>
<path d="M62.1378 159.477C62.043 159.62 60.5676 158.82 58.8433 157.7C57.1191 156.58 55.7918 155.549 55.8807 155.407C55.9696 155.264 57.445 156.058 59.1752 157.184C60.9053 158.31 62.2504 159.335 62.1378 159.477Z" fill="#F6F6F8"/>
<path d="M61.4261 148.978C61.2839 149.073 60.5906 148.285 59.8736 147.2C59.1567 146.116 58.6886 145.192 58.8367 145.097C58.9848 145.002 59.6722 145.79 60.3891 146.874C61.1061 147.959 61.5446 148.883 61.4261 148.978Z" fill="#F6F6F8"/>
<path d="M67.8441 151.371C67.939 151.507 67.3168 152.112 66.4517 152.722C65.5866 153.332 64.8045 153.712 64.7037 153.575C64.603 153.439 65.2311 152.829 66.0962 152.218C66.9613 151.608 67.7434 151.217 67.8441 151.371Z" fill="#F6F6F8"/>
<g opacity="0.5">
<path d="M51.0876 193.968C50.9158 193.914 51.1943 192.569 51.4372 190.91C51.6802 189.251 51.8165 187.882 51.9942 187.882C52.172 187.882 52.3023 189.287 52.0475 190.999C51.7927 192.712 51.2417 194.021 51.0876 193.968Z" fill="#F6F6F8"/>
</g>
<g opacity="0.5">
<path d="M65.8532 189.14C65.7051 189.223 64.5793 187.522 63.3409 185.347C62.1025 183.173 61.2137 181.33 61.3618 181.247C61.51 181.164 62.6358 182.859 63.8742 185.039C65.1126 187.22 66.0014 189.074 65.8532 189.14Z" fill="#F6F6F8"/>
</g>
<g opacity="0.5">
<path d="M81.5137 182.556C81.65 182.657 80.1687 184.826 78.2015 187.397C76.2343 189.969 74.5278 191.966 74.3915 191.865C74.2552 191.764 75.7425 189.595 77.7097 187.024C79.6769 184.452 81.3834 182.449 81.5137 182.556Z" fill="#F6F6F8"/>
</g>
<g opacity="0.5">
<path d="M85.9275 195.135C85.9275 195.301 83.9899 195.728 81.5487 196.077C79.1075 196.427 77.1047 196.581 77.081 196.415C77.0573 196.249 79.0127 195.823 81.4598 195.467C83.907 195.112 85.9038 194.964 85.9275 195.135Z" fill="#F6F6F8"/>
</g>
<path d="M86.6106 188.796C86.4387 188.754 86.6106 187.492 86.652 185.94C86.6935 184.387 86.652 183.114 86.8594 183.09C87.0668 183.066 87.3453 184.346 87.2683 185.964C87.1912 187.581 86.7705 188.837 86.6106 188.796Z" fill="#F6F6F8"/>
<path d="M65.4619 196.179C65.4027 196.327 63.7969 195.799 62.1259 194.591C60.455 193.382 59.4359 192.043 59.5603 191.942C59.6847 191.841 60.8698 192.937 62.4874 194.087C64.105 195.236 65.533 196.013 65.4619 196.179Z" fill="#F6F6F8"/>
<path d="M40.3334 195.243C40.1675 195.201 40.3334 193.844 40.7719 192.221C41.2104 190.597 41.6489 189.306 41.8148 189.347C41.9807 189.388 41.7792 190.739 41.3704 192.369C40.9615 193.998 40.4993 195.284 40.3334 195.243Z" fill="#F6F6F8"/>
<path d="M37.6007 45.3676C37.6362 45.3202 38.3117 45.9009 39.5501 46.5527C40.2778 46.9449 41.0369 47.2759 41.8195 47.5422C42.7843 47.8537 43.7762 48.0739 44.7821 48.1999C45.7881 48.3069 46.8021 48.3169 47.81 48.2295C48.6357 48.154 49.4529 48.0033 50.2512 47.7792C51.614 47.4 52.3962 46.9912 52.4258 47.0445C52.2592 47.1703 52.0782 47.2757 51.8866 47.3585C51.6722 47.4736 51.4505 47.5745 51.223 47.6607C50.9248 47.7872 50.6202 47.898 50.3105 47.9925C49.506 48.2471 48.6784 48.4218 47.8396 48.514C46.8114 48.6206 45.7748 48.6206 44.7466 48.514C43.7215 48.3869 42.7126 48.1526 41.7365 47.8148C40.9413 47.5344 40.1753 47.1772 39.4494 46.7482C39.1353 46.5764 38.8568 46.3808 38.6376 46.2209C38.4303 46.0841 38.2323 45.9337 38.0451 45.7705C37.7488 45.5335 37.5829 45.3854 37.6007 45.3676Z" fill="#336179"/>
<path d="M52.9058 52.1871C52.6985 52.2761 52.4818 52.3417 52.26 52.3826C51.8393 52.4893 51.2289 52.6315 50.4824 52.7619C48.4799 53.1533 46.4217 53.1654 44.4148 52.7974C42.3913 52.4061 40.5504 51.366 39.1709 49.8347C38.7668 49.363 38.4317 48.8363 38.1755 48.2705C38.0712 48.0697 37.9992 47.8537 37.9622 47.6305C38.3373 48.3697 38.7988 49.0619 39.3368 49.6925C40.7178 51.1438 42.5146 52.1312 44.48 52.5189C46.4537 52.8734 48.4731 52.8915 50.4527 52.5722C51.2171 52.4656 51.8333 52.3589 52.2303 52.2878C52.4508 52.228 52.6775 52.1941 52.9058 52.1871Z" fill="#336179"/>
<path d="M31.8064 88.4506C31.7781 88.4255 31.7523 88.3977 31.7293 88.3677C31.6878 88.3084 31.6108 88.2255 31.5279 88.101C31.2982 87.7392 31.1393 87.3371 31.0598 86.916C30.9409 86.1319 30.9955 85.3313 31.2197 84.5706C31.4439 83.81 31.8323 83.1077 32.3574 82.5135C33.0796 81.7 33.9158 80.9954 34.8401 80.4218C35.8119 79.7819 36.9021 79.1953 37.9746 78.4724C39.1108 77.7535 40.0821 76.8024 40.8247 75.6816C41.1958 75.0867 41.4381 74.4206 41.5357 73.7262C41.628 73.0064 41.5899 72.2757 41.4231 71.5694C41.0341 70.1704 40.5328 68.8051 39.924 67.4869C39.3476 66.2285 39.0081 64.8746 38.9227 63.4932C38.8522 61.1398 39.5673 58.8299 40.955 56.9279C41.8566 55.6378 43.0531 54.5815 44.4451 53.8468L45.1087 53.5268L45.6183 53.349C45.7564 53.2948 45.8992 53.2532 46.0449 53.2246C45.9159 53.297 45.7812 53.3584 45.642 53.4083L45.1502 53.6157L44.5043 53.9534C43.1585 54.7152 42.0051 55.7754 41.1328 57.0524C39.8057 58.9274 39.1293 61.1855 39.2071 63.4813C39.2976 64.8271 39.635 66.1447 40.2025 67.3684C40.8232 68.7068 41.3325 70.094 41.7253 71.5161C41.8956 72.2581 41.9337 73.0243 41.8379 73.7795C41.7364 74.5162 41.48 75.2231 41.0854 75.8534C40.3128 77.009 39.3028 77.9867 38.1227 78.7213C37.0325 79.4441 35.9363 80.0248 34.9705 80.6529C34.0598 81.2025 33.2335 81.8811 32.5174 82.6675C32.0036 83.2368 31.6173 83.9093 31.3843 84.6399C31.1513 85.3705 31.077 86.1425 31.1664 86.9041C31.2742 87.4572 31.4918 87.9831 31.8064 88.4506Z" fill="#336179"/>
<path d="M47.5915 88.6634C47.4697 88.6117 47.3544 88.5461 47.2478 88.4678C46.9393 88.2461 46.6793 87.9639 46.4835 87.6383C46.1783 87.1174 45.9959 86.5338 45.9502 85.9318C45.8873 85.1324 45.9757 84.3283 46.2109 83.5617C46.6908 81.8256 48.1425 80.2435 49.2328 78.2289C49.8266 77.2029 50.1355 76.0369 50.1275 74.8514C50.067 73.5798 49.7421 72.3346 49.1735 71.1955C48.0477 68.8254 46.3175 66.9174 45.1206 64.9384C44.5326 64.0131 44.0628 63.0178 43.7223 61.9757C43.4354 61.0527 43.3366 60.0816 43.4319 59.1197C43.5237 57.712 44.1412 56.3901 45.1621 55.4164C45.4478 55.174 45.7671 54.9744 46.1102 54.8239C46.2275 54.7671 46.3507 54.7234 46.4775 54.6935C46.0303 54.9149 45.614 55.1937 45.2391 55.5231C44.2878 56.5018 43.7236 57.7923 43.6512 59.1553C43.5723 60.0878 43.681 61.0267 43.9711 61.9165C44.309 62.9418 44.777 63.9195 45.3636 64.8258C45.9561 65.7916 46.6908 66.7575 47.4197 67.7885C48.1975 68.8319 48.8778 69.9446 49.452 71.1126C50.0446 72.2904 50.3779 73.5814 50.4297 74.8988C50.4318 76.1328 50.1067 77.3452 49.4876 78.4126C48.3499 80.4331 46.8982 81.9678 46.4183 83.6505C46.1829 84.3869 46.0825 85.1597 46.122 85.9318C46.1545 86.5117 46.3122 87.0777 46.5842 87.5909C46.8406 88.0153 47.1839 88.3808 47.5915 88.6634Z" fill="#336179"/>
<path d="M70.9728 44.1819C70.9728 44.1819 70.8899 44.1819 70.7477 44.0871C70.5422 43.9758 70.3442 43.8511 70.1551 43.7138C69.4772 43.1887 68.9008 42.5441 68.4546 41.8118C67.8064 40.7297 67.2571 39.5914 66.8133 38.4107C66.5407 37.7589 66.2207 37.0775 65.8889 36.4079C65.5176 35.7161 65.0811 35.0614 64.5853 34.4526C62.8164 32.305 60.4222 30.762 57.7357 30.0382C56.6179 29.7689 55.4771 29.6062 54.3286 29.5523C54.6359 29.5009 54.9478 29.483 55.2589 29.499C56.1112 29.5207 56.959 29.6299 57.789 29.8249C60.5509 30.5031 63.0187 32.0582 64.8223 34.257C65.334 34.8819 65.7844 35.5546 66.1674 36.2657C66.5288 36.953 66.8133 37.6463 67.0799 38.304C67.5101 39.4756 68.0332 40.6109 68.6442 41.6992C69.0685 42.4209 69.6067 43.0692 70.2381 43.619C70.6943 44.0042 70.9906 44.1582 70.9728 44.1819Z" fill="#336179"/>
<path d="M79.2391 44.1343C79.1313 44.1384 79.0235 44.1264 78.9192 44.0988C78.6159 44.0517 78.3182 43.9743 78.0304 43.8677C76.9647 43.4733 75.9996 42.8481 75.204 42.0368C74.0352 40.8364 73.0489 39.4708 72.2769 37.9839C71.3466 36.3544 70.446 34.482 69.0535 32.8525C67.7266 31.3296 65.9747 30.2381 64.0229 29.718C62.4276 29.2943 60.7852 29.0733 59.1345 29.0603C57.7184 29.0307 56.5748 29.0603 55.7808 29.1196L54.8683 29.1551C54.7621 29.1696 54.6545 29.1696 54.5483 29.1551C54.65 29.1226 54.7557 29.1046 54.8624 29.1018L55.7749 29.007C56.5629 28.9418 57.7125 28.847 59.1345 28.8529C60.8086 28.8304 62.4782 29.0296 64.1 29.4455C66.1137 29.9659 67.9217 31.0859 69.2846 32.657C70.7185 34.3339 71.6133 36.2122 72.5198 37.8535C73.2711 39.3237 74.2267 40.6802 75.3581 41.8827C76.1208 42.6924 77.0454 43.3324 78.0719 43.761C78.8066 44.0455 79.2451 44.0988 79.2391 44.1343Z" fill="#336179"/>
<path d="M93.229 82.5898C93.1994 82.5898 93.3831 82.1691 93.5786 81.4047C93.8628 80.3147 93.9826 79.1883 93.9342 78.0629C93.8778 76.3933 93.4486 74.7574 92.678 73.2752C92.2186 72.4058 91.649 71.5992 90.9833 70.8755C90.296 70.1111 89.5079 69.3882 88.7199 68.6298C87.9242 67.9005 87.189 67.1078 86.5216 66.2596C85.9084 65.4646 85.3783 64.6089 84.9395 63.7058C84.2013 62.173 83.7285 60.5261 83.5411 58.8352C83.4106 57.6985 83.4225 56.55 83.5767 55.4163C83.6105 55.109 83.664 54.8042 83.7367 54.5038C83.7522 54.3956 83.7821 54.29 83.8256 54.1898C83.8552 54.1898 83.7604 54.6342 83.6952 55.4341C83.5876 56.5565 83.6075 57.6876 83.7544 58.8056C83.9762 60.4642 84.4623 62.0766 85.1943 63.5814C85.632 64.4626 86.156 65.2982 86.7586 66.0759C87.4214 66.9023 88.1464 67.6768 88.9273 68.3927C89.7213 69.1512 90.5093 69.88 91.2085 70.6621C91.8875 71.4066 92.4653 72.2374 92.9268 73.133C93.7045 74.6556 94.124 76.3357 94.1534 78.0451C94.1818 79.1899 94.0278 80.332 93.6971 81.4285C93.6109 81.7267 93.5019 82.0179 93.3712 82.2995C93.3388 82.4029 93.2908 82.5008 93.229 82.5898Z" fill="#336179"/>
<path d="M28.3162 43.6664C28.3148 43.4663 28.3407 43.267 28.3932 43.0739C28.513 42.5588 28.7024 42.0625 28.9562 41.5985C29.3797 40.8112 29.9649 40.1224 30.6735 39.5772C31.382 39.0321 32.1978 38.6429 33.0674 38.4353C33.9369 38.2277 34.8405 38.2064 35.7189 38.3727C36.5973 38.539 37.4306 38.8891 38.1641 39.4002C38.608 39.695 39.0071 40.0523 39.3492 40.4608C39.486 40.6032 39.5981 40.7674 39.681 40.9467C39.1799 40.4397 38.6302 39.9832 38.0397 39.5839C37.3229 39.1176 36.5188 38.8021 35.6762 38.6566C34.8336 38.5112 33.9702 38.5388 33.1386 38.7378C32.307 38.9368 31.5247 39.3031 30.8393 39.8143C30.1538 40.3254 29.5796 40.9708 29.1517 41.7111C28.8107 42.3344 28.5309 42.9892 28.3162 43.6664Z" fill="#336179"/>
<path d="M34.0571 46.1616C34.0529 45.7079 34.1087 45.2556 34.223 44.8165C34.4053 43.7172 34.8918 42.6909 35.6273 41.8539C36.0303 41.4503 36.5351 41.1634 37.088 41.0236C37.6409 40.8838 38.2214 40.8963 38.7677 41.0599C39.0961 41.1787 39.3866 41.3833 39.6091 41.6524C39.7573 41.842 39.7987 41.9724 39.7869 41.9783C39.485 41.6652 39.1135 41.4277 38.7026 41.285C38.1973 41.1647 37.6696 41.1755 37.1698 41.3166C36.6699 41.4576 36.2144 41.7242 35.8465 42.0909C35.1526 42.8946 34.6682 43.8574 34.4363 44.8936C34.3488 45.3269 34.2219 45.7513 34.0571 46.1616Z" fill="#336179"/>
<path d="M41.5895 37.4808C40.9953 38.5195 40.4746 39.5986 40.0311 40.7101C39.6884 41.855 39.4193 43.0208 39.2253 44.2001C39.0943 41.7348 39.9467 39.3183 41.5954 37.4808H41.5895Z" fill="#E34F32"/>
<path d="M136.383 51.9263C136.383 52.2907 136.491 52.647 136.694 52.9501C136.896 53.2531 137.184 53.4893 137.521 53.6288C137.858 53.7682 138.228 53.8047 138.586 53.7336C138.943 53.6625 139.271 53.487 139.529 53.2293C139.787 52.9716 139.962 52.6432 140.033 52.2858C140.105 51.9283 140.068 51.5578 139.929 51.2211C139.789 50.8843 139.553 50.5965 139.25 50.3941C138.947 50.1916 138.591 50.0835 138.226 50.0835C137.984 50.0835 137.744 50.1312 137.521 50.2238C137.297 50.3164 137.094 50.4521 136.923 50.6232C136.752 50.7943 136.616 50.9975 136.524 51.2211C136.431 51.4446 136.383 51.6843 136.383 51.9263Z" fill="#336179"/>
<path d="M130.843 53.769C131.861 53.769 132.686 52.944 132.686 51.9263C132.686 50.9085 131.861 50.0835 130.843 50.0835C129.826 50.0835 129 50.9085 129 51.9263C129 52.944 129.826 53.769 130.843 53.769Z" fill="#336179"/>
<path d="M121.639 51.0012C121.457 51.3169 121.373 51.6794 121.397 52.043C121.421 52.4066 121.552 52.7549 121.774 53.0439C121.996 53.3329 122.299 53.5496 122.644 53.6666C122.989 53.7836 123.361 53.7956 123.713 53.7012C124.065 53.6068 124.381 53.4102 124.621 53.1362C124.862 52.8622 125.015 52.5231 125.063 52.1618C125.11 51.8006 125.05 51.4333 124.889 51.1065C124.727 50.7797 124.473 50.5079 124.158 50.3257C123.948 50.2046 123.716 50.126 123.476 50.0944C123.236 50.0628 122.992 50.0788 122.758 50.1415C122.525 50.2043 122.305 50.3125 122.113 50.46C121.921 50.6075 121.76 50.7914 121.639 51.0012Z" fill="#336179"/>
<path d="M130.73 30.3874C130.606 30.3729 130.48 30.3729 130.356 30.3874L129.26 30.417C129.023 30.417 128.751 30.417 128.454 30.4526L127.488 30.5888L126.363 30.7488L125.101 31.0629C122.943 31.611 120.89 32.5077 119.021 33.7174C116.244 35.4846 113.908 37.8637 112.192 40.6726C110.476 43.4815 109.425 46.6457 109.12 49.9232C109.034 50.9083 109.014 51.8981 109.061 52.8858C109.096 53.3895 109.061 53.8931 109.156 54.3968L109.387 55.9196C109.773 58.0136 110.464 60.0397 111.437 61.9338C112.481 63.9122 113.804 65.7302 115.365 67.3317C117.03 68.971 118.939 70.3422 121.024 71.3965C123.177 72.4972 125.508 73.2092 127.909 73.5C128.519 73.592 129.135 73.6455 129.752 73.66C130.37 73.6926 130.989 73.6926 131.607 73.66C132.86 73.61 134.107 73.4534 135.334 73.1919C137.966 72.6285 140.472 71.5817 142.722 70.1048H142.497L150.046 73.1386L150.496 73.3163L150.366 72.8542C149.608 70.0811 148.861 67.3851 148.15 64.7779L148.109 64.9794C150.16 62.2645 151.54 59.1034 152.138 55.7537C152.428 54.1914 152.527 52.5997 152.434 51.0134C152.419 50.2525 152.345 49.4938 152.215 48.744C152.161 48.3707 152.102 48.0034 152.049 47.636C151.996 47.2686 151.865 46.925 151.782 46.5694C150.519 41.6056 147.532 37.2523 143.356 34.2862C141.815 33.1787 140.128 32.2893 138.344 31.6436L137.218 31.2406L136.145 30.9681L135.162 30.7251C134.848 30.6599 134.569 30.6303 134.261 30.5888C133.669 30.5118 133.189 30.417 132.75 30.3933L131.636 30.3578H130.961C130.807 30.3578 130.73 30.3578 130.73 30.3578H130.961L131.636 30.4111L132.738 30.4822C133.171 30.5177 133.669 30.6303 134.237 30.7133C138.336 31.4187 142.142 33.2994 145.193 36.1268C148.243 38.9543 150.407 42.6068 151.421 46.6405C151.504 46.9901 151.61 47.3338 151.676 47.6893C151.741 48.0448 151.782 48.4122 151.842 48.7737C151.961 49.5125 152.026 50.2591 152.037 51.0075C152.124 52.5566 152.022 54.1105 151.735 55.6352C151.134 58.9307 149.766 62.0385 147.741 64.7068L147.676 64.7957L147.706 64.9083C148.417 67.5154 149.149 70.2075 149.904 72.9845L150.224 72.7001L142.681 69.6604L142.562 69.613L142.45 69.6841C140.244 71.1395 137.787 72.1722 135.203 72.7297C134.006 72.9863 132.789 73.1409 131.565 73.1919C130.959 73.2156 130.351 73.2038 129.746 73.1563C129.151 73.1447 128.557 73.0953 127.968 73.0082C125.618 72.7196 123.336 72.0217 121.225 70.9462C117.184 68.9472 113.891 65.7054 111.828 61.6968C110.861 59.8483 110.17 57.8679 109.778 55.8189C109.701 55.3152 109.624 54.8234 109.553 54.3257C109.481 53.8279 109.487 53.3361 109.446 52.8443C109.399 51.8785 109.415 50.9107 109.493 49.9469C109.782 46.7231 110.801 43.6073 112.472 40.8355C114.143 38.0637 116.423 35.7086 119.14 33.9485C120.984 32.7283 123.012 31.8139 125.148 31.2406L126.392 30.9088L127.512 30.7251L128.466 30.5651C128.762 30.5651 129.029 30.5296 129.266 30.5059L130.356 30.4289C130.482 30.4254 130.607 30.4115 130.73 30.3874Z" fill="#336179"/>
<defs>
<linearGradient id="paint0_linear_187_24451" x1="199.678" y1="-35.3227" x2="125.103" y2="202.74" gradientUnits="userSpaceOnUse">
<stop offset="0.213542" stop-color="#323444"/>
<stop offset="0.6875" stop-color="#2F3941" stop-opacity="0.291667"/>
<stop offset="1" stop-color="#2F3941" stop-opacity="0"/>
</linearGradient>
<linearGradient id="paint1_linear_187_24451" x1="208.476" y1="38.2425" x2="202.351" y2="71.2682" gradientUnits="userSpaceOnUse">
<stop offset="0.213542" stop-color="#323444"/>
<stop offset="0.6875" stop-color="#2F3941" stop-opacity="0.291667"/>
<stop offset="1" stop-color="#2F3941" stop-opacity="0"/>
</linearGradient>
<linearGradient id="paint2_linear_187_24451" x1="184.67" y1="76.2223" x2="183.068" y2="85.2191" gradientUnits="userSpaceOnUse">
<stop offset="0.213542" stop-color="#323444"/>
<stop offset="0.6875" stop-color="#2F3941" stop-opacity="0.291667"/>
<stop offset="1" stop-color="#2F3941" stop-opacity="0"/>
</linearGradient>
<linearGradient id="paint3_linear_187_24451" x1="145.389" y1="63.4432" x2="79.8451" y2="139.546" gradientUnits="userSpaceOnUse">
<stop offset="0.213542" stop-color="#323444"/>
<stop offset="0.6875" stop-color="#2F3941" stop-opacity="0.291667"/>
<stop offset="1" stop-color="#2F3941" stop-opacity="0"/>
</linearGradient>
<linearGradient id="paint4_linear_187_24451" x1="232.435" y1="166.385" x2="228.375" y2="204.954" gradientUnits="userSpaceOnUse">
<stop offset="0.213542" stop-color="#323444"/>
<stop offset="0.6875" stop-color="#2F3941" stop-opacity="0.291667"/>
<stop offset="1" stop-color="#2F3941" stop-opacity="0"/>
</linearGradient>
<linearGradient id="paint5_linear_187_24451" x1="76.7466" y1="22.5843" x2="26.6526" y2="89.4641" gradientUnits="userSpaceOnUse">
<stop offset="0.213542" stop-color="#323444"/>
<stop offset="0.6875" stop-color="#2F3941" stop-opacity="0.291667"/>
<stop offset="1" stop-color="#2F3941" stop-opacity="0"/>
</linearGradient>
<linearGradient id="paint6_linear_187_24451" x1="67.7594" y1="79.1702" x2="65.9946" y2="89.3071" gradientUnits="userSpaceOnUse">
<stop offset="0.213542" stop-color="#323444"/>
<stop offset="0.6875" stop-color="#2F3941" stop-opacity="0.291667"/>
<stop offset="1" stop-color="#2F3941" stop-opacity="0"/>
</linearGradient>
<linearGradient id="paint7_linear_187_24451" x1="89.9433" y1="149.909" x2="86.3602" y2="159.007" gradientUnits="userSpaceOnUse">
<stop offset="0.213542" stop-color="#323444"/>
<stop offset="0.6875" stop-color="#2F3941" stop-opacity="0.291667"/>
<stop offset="1" stop-color="#2F3941" stop-opacity="0"/>
</linearGradient>
<linearGradient id="paint8_linear_187_24451" x1="82.9381" y1="143.544" x2="70.6877" y2="184.835" gradientUnits="userSpaceOnUse">
<stop offset="0.213542" stop-color="#323444"/>
<stop offset="0.6875" stop-color="#2F3941" stop-opacity="0.291667"/>
<stop offset="1" stop-color="#2F3941" stop-opacity="0"/>
</linearGradient>
<linearGradient id="paint9_linear_187_24451" x1="104.589" y1="164.339" x2="100.962" y2="183.04" gradientUnits="userSpaceOnUse">
<stop offset="0.213542" stop-color="#323444"/>
<stop offset="0.6875" stop-color="#2F3941" stop-opacity="0.291667"/>
<stop offset="1" stop-color="#2F3941" stop-opacity="0"/>
</linearGradient>
</defs>
</svg>
