<svg width="320" height="255" viewBox="0 0 320 255" fill="none" xmlns="http://www.w3.org/2000/svg">
<g clip-path="url(#clip0_335_22382)">
<rect x="0.5" width="319" height="255" rx="36" fill="#F8F9F9"/>
<g opacity="0.1">
<path fill-rule="evenodd" clip-rule="evenodd" d="M318.038 276.851C311.816 223.732 -22.0437 121.175 -84.0181 171.493C-145.993 221.812 -86.4161 316.265 43.467 340.449C173.35 364.633 324.261 329.977 318.038 276.851Z" fill="#9FD7B1"/>
<path fill-rule="evenodd" clip-rule="evenodd" d="M36.2769 118.671C41.0006 81.6595 294.183 10.2255 341.196 45.2829C388.21 80.3403 376.294 154.101 277.793 170.902C179.292 187.703 31.5593 155.682 36.2769 118.671Z" fill="url(#paint0_linear_335_22382)"/>
</g>
<g filter="url(#filter0_d_335_22382)">
<g filter="url(#filter1_d_335_22382)">
<path d="M175.727 26H283.075C284.638 26 285.703 27.2784 285.419 28.8409L274.588 90.2744C274.304 91.8369 272.813 93.1153 271.25 93.1153H163.901C162.339 93.1153 161.274 91.8369 161.558 90.2744L172.389 28.8409C172.673 27.2784 174.164 26 175.727 26Z" fill="white"/>
<path d="M180.422 34.8113H179.143L178.788 35.486H178.362L179.96 32.5386H180.422L180.954 35.486H180.528L180.422 34.8113ZM180.386 34.5272L180.102 33.0003L179.285 34.4917H180.386V34.5272ZM181.558 33.9946C181.594 33.7105 181.736 33.4619 181.878 33.2133C182.055 32.9648 182.268 32.7872 182.517 32.6807C182.765 32.5386 183.014 32.4676 183.298 32.4676C183.618 32.4676 183.902 32.5386 184.115 32.7162C184.328 32.8582 184.47 33.1068 184.541 33.3909H184.079C184.044 33.2133 183.937 33.0713 183.795 32.9648C183.653 32.8582 183.476 32.8227 183.263 32.8227C183.049 32.8227 182.872 32.8582 182.694 32.9648C182.517 33.0713 182.375 33.2133 182.233 33.3909C182.091 33.5685 182.02 33.7815 181.984 34.0301C181.949 34.2787 181.949 34.4562 182.02 34.6693C182.091 34.8468 182.197 34.9889 182.339 35.0954C182.481 35.2019 182.659 35.2375 182.872 35.2375C183.085 35.2375 183.298 35.2019 183.44 35.0954C183.618 34.9889 183.76 34.8468 183.866 34.6693H184.328C184.15 34.9534 183.937 35.1664 183.689 35.344C183.405 35.486 183.12 35.5571 182.801 35.5571C182.517 35.5571 182.268 35.486 182.091 35.3795C181.878 35.2375 181.736 35.0599 181.665 34.8468C181.523 34.5628 181.487 34.2787 181.558 33.9946ZM188.27 32.5386L187.737 35.486H187.346L187.737 33.2844L186.387 35.486H186.103L185.5 33.2844L185.109 35.486H184.718L185.251 32.5386H185.677L186.352 34.9889L187.879 32.5386H188.27ZM189.264 32.8227L189.086 33.817H190.152L190.081 34.1366H189.015L188.838 35.1664H190.045L190.01 35.486H188.412L188.944 32.5031H190.542L190.471 32.8227H189.264ZM192.637 35.5215C192.424 35.5215 192.282 35.486 192.14 35.415C191.998 35.344 191.892 35.2375 191.821 35.1309C191.75 34.9889 191.75 34.8468 191.75 34.7048H192.176C192.176 34.8468 192.211 34.9534 192.282 35.0599C192.353 35.1664 192.495 35.2019 192.708 35.2019C192.886 35.2019 193.064 35.1664 193.17 35.0599C193.312 34.9534 193.383 34.8468 193.383 34.7048C193.419 34.5983 193.383 34.4917 193.348 34.4207C193.312 34.3497 193.241 34.2787 193.135 34.2432C193.064 34.2076 192.921 34.1721 192.779 34.1366C192.602 34.1011 192.46 34.0301 192.318 33.9946C192.211 33.9591 192.14 33.8525 192.069 33.746C191.998 33.6395 191.998 33.4974 192.034 33.3199C192.069 33.1423 192.14 33.0003 192.247 32.8938C192.353 32.7517 192.495 32.6807 192.637 32.6097C192.815 32.5386 192.992 32.5031 193.17 32.5031C193.454 32.5031 193.667 32.5742 193.809 32.7162C193.951 32.8582 194.022 33.0358 194.022 33.2844H193.596C193.596 33.1778 193.561 33.0713 193.454 33.0003C193.348 32.9293 193.241 32.8582 193.064 32.8582C192.886 32.8582 192.779 32.8938 192.637 33.0003C192.531 33.0713 192.46 33.2133 192.424 33.3554C192.389 33.4619 192.424 33.5685 192.46 33.604C192.495 33.675 192.566 33.7105 192.673 33.746C192.744 33.7815 192.886 33.817 193.028 33.8525C193.206 33.9236 193.348 33.9591 193.49 34.0301C193.596 34.0656 193.703 34.1721 193.738 34.2787C193.809 34.3852 193.809 34.5272 193.774 34.7048C193.738 34.8468 193.703 34.9889 193.596 35.1309C193.49 35.273 193.348 35.3795 193.206 35.4505C193.028 35.486 192.85 35.5215 192.637 35.5215ZM194.91 32.7872C194.839 32.7872 194.768 32.7517 194.733 32.7162C194.697 32.6807 194.661 32.6097 194.697 32.5386C194.733 32.4676 194.733 32.3966 194.804 32.3611C194.875 32.3256 194.946 32.2901 195.017 32.2901C195.088 32.2901 195.159 32.3256 195.194 32.3611C195.23 32.3966 195.265 32.4676 195.23 32.5386C195.194 32.6097 195.194 32.6807 195.123 32.7162C195.017 32.7517 194.981 32.7872 194.91 32.7872ZM195.017 33.1423L194.59 35.486H194.2L194.626 33.1423H195.017ZM196.082 33.4619L195.833 34.8468C195.798 34.9534 195.833 35.0244 195.869 35.0954C195.904 35.1309 195.975 35.1664 196.117 35.1664H196.402L196.366 35.486H196.011C195.798 35.486 195.656 35.4505 195.549 35.344C195.443 35.2375 195.443 35.0954 195.478 34.8468L195.727 33.4619H195.407L195.478 33.1423H195.798L195.904 32.5386H196.259L196.153 33.1423H196.757L196.686 33.4619H196.082ZM199.171 34.2432C199.171 34.3142 199.136 34.3852 199.1 34.4917H197.218C197.183 34.7048 197.254 34.9179 197.36 35.0244C197.467 35.1664 197.644 35.2019 197.857 35.2019C198.035 35.2019 198.177 35.1664 198.284 35.0954C198.426 35.0244 198.497 34.9179 198.568 34.7758H198.994C198.887 34.9889 198.745 35.1664 198.532 35.3085C198.319 35.4505 198.071 35.5215 197.786 35.5215C197.573 35.5215 197.36 35.486 197.218 35.3795C197.076 35.273 196.934 35.1309 196.899 34.9534C196.828 34.7758 196.828 34.5628 196.863 34.3142C196.899 34.0656 197.005 33.8525 197.112 33.675C197.254 33.4974 197.396 33.3554 197.573 33.2489C197.751 33.1423 197.964 33.1068 198.213 33.1068C198.426 33.1068 198.639 33.1423 198.781 33.2489C198.923 33.3554 199.029 33.4619 199.1 33.6395C199.207 33.817 199.207 34.0301 199.171 34.2432ZM198.781 34.1366C198.816 33.9946 198.781 33.8525 198.745 33.746C198.71 33.6395 198.639 33.5685 198.532 33.4974C198.426 33.4264 198.319 33.4264 198.177 33.4264C197.964 33.4264 197.786 33.4974 197.644 33.604C197.502 33.746 197.36 33.8881 197.325 34.1366H198.781Z" fill="#6C757D"/>
<path d="M177.297 42.2334C177.368 41.7362 177.581 41.3101 177.865 40.9195C178.149 40.5288 178.504 40.2448 178.93 40.0317C179.356 39.8186 179.782 39.7121 180.244 39.7121C180.777 39.7121 181.203 39.8541 181.558 40.1027C181.913 40.3513 182.162 40.7064 182.268 41.2035H181.345C181.274 40.955 181.132 40.7419 180.919 40.6354C180.706 40.4933 180.457 40.4578 180.173 40.4578C179.853 40.4578 179.534 40.5288 179.25 40.6709C178.966 40.8129 178.717 41.026 178.539 41.3101C178.362 41.5942 178.22 41.9138 178.149 42.2689C178.078 42.624 178.113 42.9436 178.184 43.2277C178.291 43.5117 178.433 43.7248 178.682 43.8669C178.895 44.0089 179.179 44.0799 179.534 44.0799C179.818 44.0799 180.102 44.0089 180.351 43.9024C180.599 43.7603 180.812 43.5828 180.99 43.3342H181.949C181.664 43.7958 181.309 44.1864 180.848 44.435C180.386 44.6836 179.889 44.8256 179.392 44.8256C178.93 44.8256 178.539 44.7191 178.184 44.506C177.829 44.293 177.581 43.9734 177.439 43.6183C177.261 43.1566 177.226 42.7305 177.297 42.2334ZM182.694 42.7305C182.765 42.3399 182.907 41.9848 183.12 41.7007C183.333 41.3811 183.618 41.168 183.902 40.9905C184.221 40.8129 184.541 40.7419 184.896 40.7419C185.216 40.7419 185.464 40.8129 185.677 40.9195C185.89 41.026 186.032 41.2035 186.139 41.3811L186.245 40.8129H187.062L186.387 44.7191H185.571L185.677 44.1509C185.5 44.3285 185.287 44.506 185.038 44.6126C184.789 44.7191 184.505 44.7901 184.186 44.7901C183.866 44.7901 183.547 44.7191 183.298 44.5416C183.049 44.364 182.872 44.1154 182.765 43.8313C182.659 43.4762 182.659 43.1211 182.694 42.7305ZM185.926 42.766C185.961 42.4819 185.961 42.2689 185.89 42.0558C185.819 41.8427 185.713 41.7007 185.535 41.5942C185.358 41.4876 185.18 41.4521 184.967 41.4521C184.754 41.4521 184.541 41.4876 184.363 41.5942C184.15 41.7007 184.008 41.8427 183.831 42.0558C183.689 42.2334 183.582 42.4819 183.547 42.766C183.511 43.0501 183.511 43.2632 183.582 43.4762C183.653 43.6893 183.795 43.8313 183.937 43.9379C184.115 44.0444 184.292 44.0799 184.505 44.0799C184.718 44.0799 184.931 44.0444 185.109 43.9379C185.322 43.8313 185.464 43.6893 185.606 43.4762C185.748 43.2632 185.855 43.0146 185.926 42.766ZM188.838 41.3811C188.98 41.168 189.157 41.026 189.37 40.9195C189.583 40.8129 189.832 40.7419 190.116 40.7419L189.974 41.5942H189.761C189.441 41.5942 189.193 41.6652 188.98 41.8427C188.802 42.0203 188.66 42.2689 188.589 42.695L188.234 44.7546H187.417L188.092 40.8484H188.909L188.838 41.3811ZM191.678 41.4521L191.288 43.6183C191.252 43.7603 191.288 43.8669 191.323 43.9379C191.394 44.0089 191.501 44.0444 191.678 44.0444H192.176L192.069 44.7191H191.43C191.075 44.7191 190.791 44.6481 190.649 44.4705C190.471 44.293 190.436 44.0089 190.507 43.6538L190.897 41.4876H190.436L190.542 40.8129H191.004L191.181 39.8541H191.998L191.821 40.8129H192.779L192.673 41.4876H191.678V41.4521Z" fill="#003A57"/>
</g>
<g filter="url(#filter2_d_335_22382)">
<path d="M159.221 100.928C159.505 99.3652 160.996 98.0869 162.559 98.0869H269.908C271.47 98.0869 272.535 99.3652 272.251 100.928L260.036 170.174C259.751 171.736 258.26 173.014 256.698 173.014H149.349C147.786 173.014 146.721 171.736 147.005 170.174L159.221 100.928Z" fill="white"/>
<path d="M166.762 108.199H165.484L165.129 108.874H164.703L166.301 105.927H166.762L167.295 108.874H166.869L166.762 108.199ZM166.727 107.915L166.443 106.388L165.626 107.88H166.727V107.915ZM167.899 107.383C167.934 107.099 168.076 106.85 168.218 106.601C168.396 106.353 168.609 106.175 168.858 106.069C169.106 105.927 169.355 105.856 169.639 105.856C169.958 105.856 170.242 105.927 170.455 106.104C170.669 106.246 170.811 106.495 170.882 106.779H170.42C170.384 106.601 170.278 106.459 170.136 106.353C169.994 106.246 169.816 106.211 169.603 106.211C169.39 106.211 169.213 106.246 169.035 106.353C168.858 106.459 168.715 106.601 168.573 106.779C168.431 106.957 168.36 107.17 168.325 107.418C168.289 107.667 168.289 107.844 168.36 108.057C168.431 108.235 168.538 108.377 168.68 108.484C168.822 108.59 169 108.626 169.213 108.626C169.426 108.626 169.639 108.59 169.781 108.484C169.958 108.377 170.1 108.235 170.207 108.057H170.669C170.491 108.341 170.278 108.555 170.029 108.732C169.745 108.874 169.461 108.945 169.142 108.945C168.858 108.945 168.609 108.874 168.431 108.768C168.218 108.626 168.076 108.448 168.005 108.235C167.863 107.951 167.828 107.667 167.899 107.383ZM174.61 105.927L174.078 108.874H173.687L174.078 106.672L172.728 108.874H172.444L171.84 106.672L171.45 108.874H171.059L171.592 105.927H172.018L172.693 108.377L174.22 105.927H174.61ZM175.605 106.211L175.427 107.205H176.492L176.421 107.525H175.356L175.178 108.555H176.386L176.35 108.874H174.752L175.285 105.891H176.883L176.812 106.211H175.605ZM178.978 108.91C178.765 108.91 178.623 108.874 178.481 108.803C178.339 108.732 178.232 108.626 178.161 108.519C178.09 108.377 178.09 108.235 178.09 108.093H178.516C178.516 108.235 178.552 108.341 178.623 108.448C178.694 108.555 178.836 108.59 179.049 108.59C179.227 108.59 179.404 108.555 179.511 108.448C179.653 108.341 179.724 108.235 179.724 108.093C179.759 107.986 179.724 107.88 179.688 107.809C179.653 107.738 179.582 107.667 179.475 107.631C179.404 107.596 179.262 107.56 179.12 107.525C178.943 107.489 178.801 107.418 178.658 107.383C178.552 107.347 178.481 107.241 178.41 107.134C178.339 107.028 178.339 106.886 178.374 106.708C178.41 106.53 178.481 106.388 178.587 106.282C178.694 106.14 178.836 106.069 178.978 105.998C179.156 105.927 179.333 105.891 179.511 105.891C179.795 105.891 180.008 105.962 180.15 106.104C180.292 106.246 180.363 106.424 180.363 106.672H179.937C179.937 106.566 179.901 106.459 179.795 106.388C179.688 106.317 179.582 106.246 179.404 106.246C179.227 106.246 179.12 106.282 178.978 106.388C178.872 106.459 178.801 106.601 178.765 106.743C178.729 106.85 178.765 106.957 178.801 106.992C178.836 107.063 178.907 107.099 179.014 107.134C179.085 107.17 179.227 107.205 179.369 107.241C179.546 107.312 179.688 107.347 179.83 107.418C179.937 107.454 180.043 107.56 180.079 107.667C180.15 107.773 180.15 107.915 180.114 108.093C180.079 108.235 180.043 108.377 179.937 108.519C179.83 108.661 179.688 108.768 179.546 108.839C179.369 108.874 179.191 108.91 178.978 108.91ZM181.251 106.175C181.18 106.175 181.109 106.14 181.073 106.104C181.038 106.069 181.002 105.998 181.038 105.927C181.073 105.856 181.073 105.785 181.144 105.749C181.215 105.714 181.286 105.678 181.357 105.678C181.428 105.678 181.499 105.714 181.535 105.749C181.57 105.785 181.606 105.856 181.57 105.927C181.535 105.998 181.535 106.069 181.464 106.104C181.357 106.14 181.322 106.175 181.251 106.175ZM181.357 106.53L180.931 108.874H180.541L180.967 106.53H181.357ZM182.423 106.85L182.174 108.235C182.139 108.341 182.174 108.412 182.21 108.484C182.245 108.519 182.316 108.555 182.458 108.555H182.742L182.707 108.874H182.352C182.139 108.874 181.996 108.839 181.89 108.732C181.783 108.626 181.783 108.484 181.819 108.235L182.068 106.85H181.748L181.819 106.53H182.139L182.245 105.927H182.6L182.494 106.53H183.097L183.026 106.85H182.423ZM185.512 107.631C185.512 107.702 185.477 107.773 185.441 107.88H183.559C183.523 108.093 183.594 108.306 183.701 108.412C183.808 108.555 183.985 108.59 184.198 108.59C184.376 108.59 184.518 108.555 184.624 108.484C184.766 108.412 184.837 108.306 184.908 108.164H185.334C185.228 108.377 185.086 108.555 184.873 108.697C184.66 108.839 184.411 108.91 184.127 108.91C183.914 108.91 183.701 108.874 183.559 108.768C183.417 108.661 183.275 108.519 183.239 108.341C183.168 108.164 183.168 107.951 183.204 107.702C183.239 107.454 183.346 107.241 183.452 107.063C183.594 106.886 183.737 106.743 183.914 106.637C184.092 106.53 184.305 106.495 184.553 106.495C184.766 106.495 184.979 106.53 185.121 106.637C185.263 106.743 185.37 106.85 185.441 107.028C185.548 107.205 185.548 107.418 185.512 107.631ZM185.121 107.525C185.157 107.383 185.121 107.241 185.086 107.134C185.05 107.028 184.979 106.957 184.873 106.886C184.766 106.815 184.66 106.815 184.518 106.815C184.305 106.815 184.127 106.886 183.985 106.992C183.843 107.134 183.701 107.276 183.665 107.525H185.121Z" fill="#6C757D"/>
<path d="M164.696 117.653C164.27 117.653 163.915 117.547 163.631 117.369C163.312 117.156 163.098 116.907 162.956 116.552C162.814 116.197 162.779 115.807 162.885 115.38C162.992 114.954 163.134 114.564 163.383 114.209C163.631 113.853 163.951 113.605 164.341 113.392C164.732 113.179 165.123 113.108 165.513 113.108C165.939 113.108 166.294 113.214 166.614 113.392C166.934 113.569 167.147 113.853 167.289 114.209C167.431 114.564 167.466 114.954 167.36 115.38C167.289 115.807 167.111 116.197 166.863 116.552C166.614 116.907 166.294 117.156 165.904 117.369C165.513 117.582 165.123 117.653 164.696 117.653ZM164.767 117.156C165.087 117.156 165.371 117.085 165.655 116.943C165.939 116.801 166.152 116.588 166.365 116.339C166.543 116.055 166.685 115.771 166.756 115.416C166.827 115.061 166.792 114.741 166.721 114.493C166.614 114.209 166.472 114.031 166.259 113.889C166.046 113.747 165.762 113.676 165.442 113.676C165.123 113.676 164.839 113.747 164.554 113.889C164.27 114.031 164.057 114.244 163.844 114.493C163.667 114.741 163.525 115.061 163.454 115.416C163.383 115.771 163.418 116.091 163.489 116.339C163.596 116.623 163.738 116.801 163.951 116.943C164.199 117.085 164.483 117.156 164.767 117.156ZM169.881 114.067C170.307 114.067 170.627 114.209 170.84 114.457C171.053 114.706 171.124 115.096 171.053 115.558L170.698 117.618H170.094L170.449 115.629C170.52 115.274 170.485 115.025 170.343 114.848C170.201 114.67 169.988 114.564 169.668 114.564C169.348 114.564 169.1 114.67 168.887 114.848C168.674 115.025 168.532 115.309 168.461 115.7L168.106 117.653H167.537L168.141 114.138H168.709L168.638 114.635C168.78 114.457 168.958 114.315 169.171 114.209C169.419 114.102 169.632 114.067 169.881 114.067ZM172.544 114.777C172.686 114.564 172.899 114.386 173.148 114.28C173.397 114.138 173.681 114.067 173.965 114.067C174.284 114.067 174.533 114.138 174.782 114.28C174.995 114.422 175.172 114.635 175.279 114.919C175.385 115.203 175.385 115.487 175.314 115.842C175.243 116.197 175.137 116.517 174.924 116.801C174.746 117.085 174.497 117.298 174.213 117.44C173.929 117.582 173.645 117.653 173.326 117.653C173.006 117.653 172.757 117.582 172.544 117.44C172.331 117.298 172.189 117.156 172.118 116.943L172.012 117.582H171.444L172.26 112.859H172.828L172.544 114.777ZM174.746 115.842C174.782 115.593 174.782 115.345 174.711 115.167C174.639 114.954 174.533 114.812 174.355 114.706C174.178 114.599 174 114.564 173.787 114.564C173.574 114.564 173.361 114.599 173.148 114.706C172.935 114.812 172.793 114.954 172.651 115.167C172.509 115.38 172.402 115.593 172.367 115.842C172.331 116.091 172.331 116.339 172.402 116.552C172.473 116.765 172.58 116.907 172.757 117.014C172.935 117.12 173.113 117.156 173.326 117.156C173.539 117.156 173.752 117.12 173.965 117.014C174.178 116.907 174.355 116.765 174.462 116.552C174.604 116.339 174.711 116.126 174.746 115.842ZM177.161 117.689C176.841 117.689 176.557 117.618 176.308 117.476C176.06 117.334 175.882 117.12 175.811 116.836C175.705 116.552 175.705 116.233 175.74 115.878C175.811 115.522 175.953 115.203 176.131 114.919C176.344 114.635 176.593 114.422 176.877 114.28C177.161 114.138 177.48 114.067 177.8 114.067C178.12 114.067 178.404 114.138 178.652 114.28C178.901 114.422 179.078 114.635 179.185 114.919C179.291 115.203 179.327 115.522 179.256 115.878C179.185 116.233 179.043 116.552 178.83 116.836C178.617 117.12 178.368 117.334 178.084 117.476C177.8 117.618 177.48 117.689 177.161 117.689ZM177.232 117.156C177.445 117.156 177.658 117.12 177.835 117.014C178.049 116.907 178.226 116.765 178.368 116.588C178.51 116.375 178.617 116.162 178.652 115.878C178.688 115.593 178.688 115.345 178.617 115.167C178.546 114.954 178.404 114.812 178.262 114.741C178.084 114.635 177.906 114.599 177.693 114.599C177.48 114.599 177.267 114.635 177.09 114.741C176.912 114.848 176.735 114.99 176.593 115.167C176.451 115.38 176.344 115.593 176.308 115.878C176.273 116.162 176.273 116.41 176.344 116.588C176.415 116.801 176.522 116.943 176.699 117.014C176.841 117.12 177.019 117.156 177.232 117.156ZM179.646 115.842C179.718 115.487 179.824 115.167 180.037 114.919C180.215 114.635 180.463 114.422 180.747 114.28C181.031 114.138 181.315 114.067 181.635 114.067C181.955 114.067 182.203 114.138 182.416 114.28C182.629 114.422 182.771 114.564 182.842 114.777L182.949 114.138H183.553L182.949 117.653H182.345L182.452 117.014C182.31 117.227 182.097 117.405 181.848 117.511C181.6 117.653 181.315 117.724 181.031 117.724C180.712 117.724 180.463 117.653 180.215 117.511C180.002 117.369 179.824 117.156 179.718 116.872C179.611 116.517 179.611 116.197 179.646 115.842ZM182.629 115.878C182.665 115.629 182.665 115.38 182.594 115.203C182.523 114.99 182.416 114.848 182.239 114.741C182.061 114.635 181.884 114.599 181.671 114.599C181.458 114.599 181.244 114.635 181.031 114.741C180.818 114.848 180.676 114.99 180.534 115.203C180.392 115.416 180.286 115.629 180.25 115.878C180.215 116.162 180.215 116.375 180.286 116.588C180.357 116.801 180.463 116.943 180.641 117.049C180.818 117.156 180.996 117.191 181.209 117.191C181.422 117.191 181.635 117.156 181.848 117.049C182.061 116.943 182.239 116.801 182.345 116.588C182.487 116.339 182.558 116.126 182.629 115.878ZM184.831 114.67C184.973 114.457 185.151 114.315 185.364 114.209C185.577 114.102 185.825 114.031 186.074 114.031L185.967 114.635H185.825C185.186 114.635 184.796 114.99 184.654 115.7L184.298 117.618H183.73L184.334 114.102H184.902L184.831 114.67ZM186.038 115.842C186.109 115.487 186.216 115.167 186.429 114.919C186.607 114.635 186.855 114.422 187.139 114.28C187.423 114.138 187.707 114.067 188.027 114.067C188.311 114.067 188.56 114.138 188.737 114.244C188.95 114.351 189.092 114.528 189.199 114.741L189.518 112.895H190.122L189.27 117.618H188.666L188.773 116.943C188.631 117.156 188.418 117.334 188.169 117.476C187.92 117.618 187.636 117.689 187.352 117.689C187.033 117.689 186.784 117.618 186.536 117.476C186.323 117.334 186.145 117.12 186.038 116.836C186.003 116.517 185.967 116.197 186.038 115.842ZM189.021 115.878C189.057 115.629 189.057 115.38 188.986 115.203C188.915 114.99 188.808 114.848 188.631 114.741C188.453 114.635 188.276 114.599 188.063 114.599C187.849 114.599 187.636 114.635 187.423 114.741C187.21 114.848 187.068 114.99 186.926 115.203C186.784 115.416 186.678 115.629 186.642 115.878C186.607 116.162 186.607 116.375 186.678 116.588C186.749 116.801 186.855 116.943 187.033 117.049C187.21 117.156 187.388 117.191 187.601 117.191C187.814 117.191 188.027 117.156 188.24 117.049C188.453 116.943 188.631 116.801 188.737 116.588C188.879 116.339 188.95 116.126 189.021 115.878ZM191.116 113.534C191.01 113.534 190.903 113.498 190.868 113.427C190.797 113.356 190.797 113.25 190.797 113.143C190.832 113.037 190.868 112.93 190.974 112.859C191.081 112.788 191.152 112.753 191.258 112.753C191.365 112.753 191.436 112.788 191.507 112.859C191.578 112.93 191.578 113.037 191.578 113.143C191.543 113.25 191.507 113.356 191.401 113.427C191.33 113.498 191.223 113.534 191.116 113.534ZM191.294 114.102L190.69 117.618H190.122L190.726 114.102H191.294ZM193.851 114.067C194.277 114.067 194.597 114.209 194.81 114.457C195.023 114.706 195.094 115.096 195.023 115.558L194.668 117.618H194.099L194.454 115.629C194.525 115.274 194.49 115.025 194.348 114.848C194.206 114.67 193.993 114.564 193.673 114.564C193.354 114.564 193.105 114.67 192.892 114.848C192.679 115.025 192.537 115.309 192.466 115.7L192.111 117.653H191.543L192.146 114.138H192.714L192.643 114.635C192.785 114.457 192.963 114.315 193.176 114.209C193.389 114.102 193.602 114.067 193.851 114.067ZM197.508 114.067C197.828 114.067 198.077 114.138 198.254 114.28C198.467 114.422 198.609 114.564 198.68 114.777L198.787 114.138H199.39L198.751 117.724C198.68 118.044 198.574 118.328 198.396 118.576C198.219 118.825 197.97 119.038 197.721 119.18C197.437 119.322 197.153 119.393 196.798 119.393C196.337 119.393 195.981 119.287 195.697 119.074C195.413 118.86 195.307 118.576 195.307 118.186H195.875C195.91 118.399 196.017 118.576 196.194 118.683C196.372 118.825 196.585 118.896 196.869 118.896C197.189 118.896 197.473 118.789 197.686 118.612C197.935 118.399 198.077 118.115 198.148 117.76L198.29 117.014C198.148 117.227 197.935 117.405 197.686 117.511C197.437 117.653 197.153 117.724 196.869 117.724C196.55 117.724 196.301 117.653 196.052 117.511C195.839 117.369 195.662 117.156 195.555 116.872C195.449 116.588 195.449 116.268 195.52 115.913C195.591 115.558 195.697 115.238 195.91 114.99C196.088 114.706 196.337 114.493 196.621 114.351C196.905 114.138 197.224 114.067 197.508 114.067ZM198.503 115.878C198.538 115.629 198.538 115.38 198.467 115.203C198.396 114.99 198.29 114.848 198.112 114.741C197.935 114.635 197.757 114.599 197.544 114.599C197.331 114.599 197.118 114.635 196.905 114.741C196.692 114.848 196.55 114.99 196.408 115.203C196.266 115.416 196.159 115.629 196.123 115.878C196.088 116.162 196.088 116.375 196.159 116.588C196.23 116.801 196.337 116.943 196.514 117.049C196.692 117.156 196.869 117.191 197.082 117.191C197.295 117.191 197.508 117.156 197.721 117.049C197.935 116.943 198.112 116.801 198.219 116.588C198.361 116.339 198.467 116.126 198.503 115.878Z" fill="#003A57"/>
<path fill-rule="evenodd" clip-rule="evenodd" d="M157.977 161.225L158.012 161.012H158.616L158.581 161.225H157.977Z" fill="#E6EBEE"/>
<path fill-rule="evenodd" clip-rule="evenodd" d="M158.119 162.219L158.048 162.006L158.616 161.687L158.687 161.9L158.119 162.219Z" fill="#E6EBEE"/>
<path fill-rule="evenodd" clip-rule="evenodd" d="M158.83 160.479L158.368 160.159L158.51 159.946L158.972 160.266L158.83 160.479Z" fill="#E6EBEE"/>
<path fill-rule="evenodd" clip-rule="evenodd" d="M161.849 159.982L161.92 160.195L161.352 160.515L161.281 160.301L161.849 159.982Z" fill="#E6EBEE"/>
<path fill-rule="evenodd" clip-rule="evenodd" d="M160.215 159.059H160.428L160.321 159.662H160.108L160.215 159.059Z" fill="#E6EBEE"/>
<path fill-rule="evenodd" clip-rule="evenodd" d="M159.398 159.272L159.611 159.804L159.398 159.911L159.185 159.378L159.398 159.272Z" fill="#E6EBEE"/>
<path fill-rule="evenodd" clip-rule="evenodd" d="M160.96 159.911L160.783 159.804L161.173 159.272L161.351 159.378L160.96 159.911Z" fill="#E6EBEE"/>
<path fill-rule="evenodd" clip-rule="evenodd" d="M161.422 162.219L160.96 161.9L161.102 161.687L161.564 162.006L161.422 162.219Z" fill="#E6EBEE"/>
<path fill-rule="evenodd" clip-rule="evenodd" d="M161.92 161.225H161.316L161.352 161.012H161.991L161.92 161.225Z" fill="#E6EBEE"/>
</g>
</g>
</g>
<defs>
<filter id="filter0_d_335_22382" x="125.711" y="19.9293" width="181.001" height="189.51" filterUnits="userSpaceOnUse" color-interpolation-filters="sRGB">
<feFlood flood-opacity="0" result="BackgroundImageFix"/>
<feColorMatrix in="SourceAlpha" type="matrix" values="0 0 0 0 0 0 0 0 0 0 0 0 0 0 0 0 0 0 127 0" result="hardAlpha"/>
<feOffset dy="15.1768"/>
<feGaussianBlur stdDeviation="10.6238"/>
<feColorMatrix type="matrix" values="0 0 0 0 0.184314 0 0 0 0 0.223529 0 0 0 0 0.254902 0 0 0 0.15 0"/>
<feBlend mode="normal" in2="BackgroundImageFix" result="effect1_dropShadow_335_22382"/>
<feBlend mode="normal" in="SourceGraphic" in2="effect1_dropShadow_335_22382" result="shape"/>
</filter>
<filter id="filter1_d_335_22382" x="140.264" y="19.9293" width="166.448" height="109.61" filterUnits="userSpaceOnUse" color-interpolation-filters="sRGB">
<feFlood flood-opacity="0" result="BackgroundImageFix"/>
<feColorMatrix in="SourceAlpha" type="matrix" values="0 0 0 0 0 0 0 0 0 0 0 0 0 0 0 0 0 0 127 0" result="hardAlpha"/>
<feOffset dy="15.1768"/>
<feGaussianBlur stdDeviation="10.6238"/>
<feColorMatrix type="matrix" values="0 0 0 0 0.184314 0 0 0 0 0.223529 0 0 0 0 0.254902 0 0 0 0.15 0"/>
<feBlend mode="normal" in2="BackgroundImageFix" result="effect1_dropShadow_335_22382"/>
<feBlend mode="normal" in="SourceGraphic" in2="effect1_dropShadow_335_22382" result="shape"/>
</filter>
<filter id="filter2_d_335_22382" x="125.711" y="92.0161" width="167.833" height="117.423" filterUnits="userSpaceOnUse" color-interpolation-filters="sRGB">
<feFlood flood-opacity="0" result="BackgroundImageFix"/>
<feColorMatrix in="SourceAlpha" type="matrix" values="0 0 0 0 0 0 0 0 0 0 0 0 0 0 0 0 0 0 127 0" result="hardAlpha"/>
<feOffset dy="15.1768"/>
<feGaussianBlur stdDeviation="10.6238"/>
<feColorMatrix type="matrix" values="0 0 0 0 0.184314 0 0 0 0 0.223529 0 0 0 0 0.254902 0 0 0 0.15 0"/>
<feBlend mode="normal" in2="BackgroundImageFix" result="effect1_dropShadow_335_22382"/>
<feBlend mode="normal" in="SourceGraphic" in2="effect1_dropShadow_335_22382" result="shape"/>
</filter>
<linearGradient id="paint0_linear_335_22382" x1="36.1666" y1="35.8657" x2="372.092" y2="47.1515" gradientUnits="userSpaceOnUse">
<stop stop-color="#001825"/>
<stop offset="1" stop-color="#003A57"/>
</linearGradient>
<clipPath id="clip0_335_22382">
<rect x="0.5" width="319" height="255" rx="36" fill="white"/>
</clipPath>
</defs>
</svg>
