<svg viewBox="0 0 513 664" fill="none" xmlns="http://www.w3.org/2000/svg">
    <path d="M67.6092 29.1748C54.1966 54.6018 93.0964 97.7014 170.429 183.381C261.451 284.236 376.317 411.504 449.682 381.455C503.678 359.34 527.92 254.966 502.963 179.343C443.501 -0.816148 100.028 -32.2783 67.6092 29.1748Z" fill="#E9EFFE" />
    <g opacity="0.8">
        <path opacity="0.8" d="M245.427 485.657C245.202 485.645 244.985 485.567 244.804 485.432C243.541 484.498 242.278 483.528 241.05 482.548C240.93 482.451 240.829 482.332 240.755 482.197C240.68 482.062 240.633 481.914 240.616 481.761C240.599 481.608 240.612 481.452 240.655 481.304C240.698 481.156 240.769 481.018 240.865 480.897C240.962 480.777 241.081 480.677 241.216 480.602C241.35 480.528 241.499 480.481 241.652 480.463C241.805 480.446 241.96 480.459 242.108 480.502C242.256 480.545 242.394 480.617 242.515 480.713C243.72 481.676 244.96 482.634 246.199 483.552C246.418 483.694 246.582 483.906 246.664 484.154C246.746 484.402 246.742 484.67 246.653 484.915C246.563 485.16 246.393 485.367 246.17 485.503C245.948 485.639 245.685 485.696 245.427 485.663V485.657Z" fill="#D1E0E8" />
        <path opacity="0.8" d="M230.059 472.18C229.765 472.163 229.489 472.035 229.286 471.822C227.037 469.514 224.841 467.033 222.765 464.517C222.567 464.277 222.472 463.968 222.502 463.658C222.531 463.348 222.683 463.062 222.923 462.864C223.163 462.666 223.472 462.572 223.782 462.601C224.092 462.631 224.377 462.783 224.575 463.023C226.611 465.492 228.767 467.904 230.976 470.189C231.086 470.299 231.172 470.429 231.23 470.573C231.289 470.717 231.317 470.871 231.314 471.026C231.312 471.181 231.278 471.334 231.215 471.476C231.152 471.617 231.061 471.745 230.947 471.851C230.829 471.963 230.69 472.051 230.537 472.107C230.384 472.164 230.222 472.189 230.059 472.18ZM214.352 452.17C214.166 452.16 213.986 452.106 213.827 452.011C213.667 451.917 213.533 451.785 213.435 451.628C211.705 448.87 210.038 446.02 208.522 443.152C208.45 443.016 208.405 442.867 208.391 442.714C208.376 442.561 208.392 442.406 208.438 442.259C208.483 442.112 208.557 441.976 208.655 441.857C208.753 441.738 208.873 441.64 209.009 441.568C209.145 441.496 209.294 441.452 209.447 441.437C209.6 441.423 209.754 441.439 209.901 441.484C210.048 441.529 210.185 441.603 210.303 441.701C210.422 441.799 210.52 441.92 210.592 442.056C212.085 444.872 213.706 447.67 215.418 450.37C215.504 450.5 215.562 450.645 215.59 450.797C215.618 450.95 215.615 451.107 215.581 451.258C215.547 451.409 215.483 451.552 215.393 451.678C215.302 451.804 215.187 451.911 215.055 451.991C214.847 452.129 214.6 452.196 214.352 452.182V452.17ZM203.015 429.403C202.789 429.392 202.57 429.314 202.388 429.18C202.205 429.045 202.066 428.86 201.988 428.647C200.835 425.601 199.809 422.474 198.903 419.346C198.861 419.198 198.848 419.042 198.865 418.889C198.882 418.735 198.929 418.587 199.004 418.451C199.079 418.316 199.179 418.197 199.3 418.1C199.421 418.004 199.559 417.932 199.708 417.89C199.856 417.847 200.012 417.834 200.165 417.851C200.319 417.868 200.467 417.915 200.602 417.99C200.738 418.065 200.857 418.166 200.953 418.286C201.049 418.407 201.121 418.546 201.164 418.694C202.046 421.764 203.061 424.833 204.185 427.816C204.26 427.998 204.286 428.196 204.262 428.391C204.239 428.586 204.166 428.772 204.05 428.931C203.935 429.09 203.781 429.217 203.603 429.299C203.424 429.382 203.228 429.418 203.032 429.403H203.015ZM196.574 404.795C196.306 404.782 196.051 404.675 195.853 404.494C195.656 404.313 195.527 404.069 195.49 403.803C194.994 400.595 194.625 397.318 194.383 394.069C194.36 393.759 194.461 393.452 194.664 393.216C194.868 392.98 195.156 392.835 195.467 392.812C195.777 392.789 196.084 392.89 196.32 393.093C196.556 393.297 196.701 393.586 196.724 393.896C196.96 397.081 197.3 400.295 197.808 403.445C197.834 403.598 197.829 403.754 197.794 403.905C197.758 404.055 197.693 404.198 197.601 404.322C197.51 404.447 197.394 404.553 197.261 404.632C197.128 404.711 196.981 404.763 196.828 404.784C196.744 404.803 196.659 404.811 196.574 404.807V404.795ZM195.317 379.409C195.163 379.402 195.013 379.365 194.874 379.299C194.735 379.233 194.61 379.141 194.508 379.026C194.405 378.912 194.326 378.778 194.276 378.632C194.226 378.487 194.205 378.333 194.215 378.18L194.279 377.072C194.458 374.187 194.74 371.302 195.115 368.417C195.155 368.111 195.316 367.834 195.561 367.646C195.806 367.458 196.115 367.376 196.421 367.416C196.727 367.457 197.004 367.617 197.192 367.862C197.379 368.107 197.462 368.417 197.421 368.723C197.052 371.527 196.776 374.383 196.603 377.21L196.539 378.295C196.534 378.45 196.498 378.603 196.433 378.743C196.367 378.884 196.274 379.01 196.159 379.114C196.044 379.218 195.909 379.298 195.762 379.349C195.615 379.399 195.46 379.42 195.305 379.409H195.317ZM199.249 354.281L199.025 354.247C198.874 354.21 198.732 354.143 198.608 354.05C198.484 353.958 198.379 353.841 198.301 353.706C198.223 353.572 198.173 353.424 198.154 353.27C198.134 353.116 198.146 352.96 198.188 352.81C199.013 349.666 199.976 346.515 201.072 343.446C201.122 343.3 201.201 343.166 201.303 343.05C201.405 342.935 201.529 342.841 201.668 342.773C201.807 342.706 201.957 342.666 202.111 342.657C202.265 342.647 202.419 342.669 202.565 342.719C202.711 342.769 202.845 342.848 202.961 342.95C203.076 343.053 203.17 343.177 203.238 343.316C203.305 343.454 203.345 343.605 203.354 343.759C203.363 343.913 203.342 344.068 203.292 344.213C202.242 347.231 201.297 350.324 200.483 353.41C200.416 353.679 200.254 353.914 200.027 354.073C199.801 354.231 199.525 354.304 199.249 354.276V354.281ZM208.193 330.476C208.036 330.469 207.883 330.427 207.743 330.355C207.604 330.288 207.479 330.193 207.376 330.077C207.274 329.961 207.196 329.825 207.147 329.678C207.098 329.531 207.079 329.376 207.091 329.222C207.104 329.067 207.147 328.917 207.219 328.779C208.666 325.895 210.246 322.981 211.918 320.194C211.998 320.062 212.102 319.947 212.226 319.855C212.35 319.763 212.491 319.697 212.641 319.66C212.791 319.622 212.946 319.615 213.099 319.638C213.251 319.661 213.398 319.714 213.53 319.793C213.662 319.873 213.777 319.978 213.869 320.102C213.96 320.226 214.027 320.367 214.064 320.516C214.101 320.666 214.109 320.822 214.086 320.974C214.063 321.127 214.01 321.274 213.931 321.406C212.293 324.141 210.736 326.974 209.317 329.83C209.216 330.037 209.054 330.208 208.854 330.322C208.653 330.437 208.423 330.488 208.193 330.47V330.476ZM221.807 309.007C221.568 308.992 221.339 308.906 221.15 308.759C221.027 308.664 220.924 308.546 220.847 308.412C220.771 308.277 220.722 308.128 220.705 307.974C220.687 307.82 220.7 307.664 220.744 307.515C220.788 307.366 220.861 307.228 220.96 307.108C222.972 304.558 225.112 302.054 227.303 299.671C227.515 299.442 227.809 299.306 228.121 299.293C228.433 299.281 228.737 299.393 228.966 299.605C229.196 299.817 229.332 300.111 229.344 300.423C229.357 300.736 229.244 301.04 229.033 301.27C226.865 303.606 224.766 306.058 222.788 308.562C222.672 308.71 222.522 308.826 222.352 308.903C222.181 308.979 221.994 309.013 221.807 309.001V309.007ZM239.533 290.792C239.374 290.781 239.218 290.738 239.075 290.666C238.932 290.594 238.806 290.493 238.703 290.371C238.598 290.254 238.518 290.118 238.467 289.97C238.417 289.822 238.397 289.666 238.409 289.51C238.421 289.354 238.464 289.202 238.536 289.063C238.609 288.924 238.709 288.802 238.83 288.703C241.321 286.62 243.927 284.612 246.58 282.726C246.705 282.636 246.847 282.572 246.997 282.538C247.147 282.503 247.302 282.499 247.454 282.524C247.606 282.549 247.751 282.605 247.881 282.686C248.012 282.768 248.125 282.874 248.214 283C248.304 283.125 248.368 283.267 248.402 283.417C248.437 283.567 248.441 283.722 248.416 283.874C248.391 284.026 248.336 284.172 248.254 284.302C248.172 284.433 248.066 284.546 247.941 284.635C245.34 286.488 242.78 288.467 240.335 290.509C240.11 290.696 239.825 290.794 239.533 290.786V290.792ZM260.598 276.552C260.331 276.557 260.072 276.469 259.863 276.304C259.654 276.138 259.509 275.906 259.452 275.646C259.395 275.385 259.429 275.113 259.55 274.876C259.671 274.638 259.87 274.45 260.113 274.342C262.996 272.802 265.949 271.359 268.919 270.05C269.204 269.924 269.527 269.917 269.817 270.03C270.108 270.143 270.341 270.367 270.467 270.653C270.592 270.938 270.599 271.262 270.486 271.552C270.373 271.843 270.149 272.076 269.864 272.202C266.981 273.483 264.046 274.902 261.215 276.414C261.025 276.514 260.812 276.56 260.598 276.546V276.552ZM284.113 266.888C283.807 266.922 283.5 266.834 283.259 266.642C283.019 266.45 282.864 266.17 282.83 265.864C282.795 265.558 282.884 265.251 283.076 265.01C283.268 264.769 283.547 264.614 283.853 264.58C286.967 263.663 290.162 262.849 293.351 262.186C293.502 262.154 293.658 262.152 293.81 262.181C293.962 262.209 294.107 262.268 294.237 262.352C294.367 262.437 294.478 262.546 294.565 262.674C294.653 262.802 294.714 262.946 294.746 263.097C294.778 263.249 294.779 263.405 294.751 263.557C294.722 263.709 294.664 263.854 294.579 263.984C294.495 264.114 294.386 264.226 294.258 264.313C294.13 264.4 293.986 264.462 293.835 264.493C290.71 265.157 287.573 265.947 284.516 266.847C284.385 266.882 284.248 266.893 284.113 266.882V266.888Z" fill="#D1E0E8" />
        <path opacity="0.8" d="M309.179 262.243C308.869 262.243 308.571 262.12 308.352 261.9C308.132 261.681 308.009 261.383 308.009 261.072C308.009 260.761 308.132 260.464 308.352 260.244C308.571 260.024 308.869 259.901 309.179 259.901C310.754 259.78 312.339 259.682 313.902 259.618C314.213 259.605 314.517 259.716 314.746 259.927C314.975 260.138 315.111 260.432 315.124 260.743C315.137 261.055 315.026 261.358 314.815 261.588C314.605 261.817 314.311 261.953 314 261.966C312.466 262.03 310.909 262.122 309.387 262.243H309.179Z" fill="#D1E0E8" />
        <path opacity="0.8" d="M404.393 295.869C404.117 295.85 403.856 295.736 403.655 295.546C402.536 294.484 401.383 293.428 400.195 292.407C399.966 292.201 399.828 291.913 399.811 291.605C399.794 291.297 399.9 290.995 400.106 290.766C400.312 290.536 400.6 290.398 400.908 290.381C401.215 290.364 401.517 290.47 401.746 290.676C402.929 291.715 404.105 292.788 405.241 293.873C405.356 293.977 405.448 294.104 405.513 294.245C405.577 294.386 405.613 294.539 405.617 294.694C405.621 294.849 405.594 295.003 405.538 295.148C405.481 295.292 405.396 295.424 405.287 295.534C405.169 295.649 405.029 295.738 404.875 295.795C404.721 295.853 404.557 295.878 404.393 295.869Z" fill="#D1E0E8" />
        <path opacity="0.8" d="M338.784 508.355C338.478 508.37 338.179 508.262 337.952 508.056C337.725 507.85 337.59 507.562 337.576 507.256C337.561 506.95 337.669 506.651 337.875 506.424C338.081 506.198 338.368 506.062 338.674 506.048C341.776 505.551 344.89 504.928 347.941 504.19C348.246 504.113 348.57 504.161 348.841 504.324C349.111 504.486 349.306 504.749 349.382 505.055C349.459 505.361 349.41 505.685 349.248 505.956C349.086 506.226 348.823 506.421 348.517 506.498C345.409 507.248 342.226 507.882 339.066 508.39C338.971 508.392 338.876 508.381 338.784 508.355ZM362.956 501.905C362.673 501.915 362.396 501.82 362.179 501.639C361.961 501.458 361.817 501.203 361.775 500.923C361.733 500.643 361.796 500.357 361.951 500.12C362.106 499.883 362.342 499.711 362.616 499.637C365.545 498.524 368.475 497.278 371.317 495.939C371.457 495.874 371.608 495.836 371.762 495.829C371.917 495.822 372.071 495.845 372.216 495.898C372.361 495.95 372.494 496.031 372.608 496.135C372.722 496.239 372.815 496.365 372.88 496.505C372.946 496.644 372.983 496.796 372.99 496.95C372.997 497.104 372.974 497.258 372.921 497.403C372.869 497.549 372.788 497.682 372.684 497.796C372.58 497.91 372.455 498.003 372.315 498.068C369.432 499.43 366.433 500.699 363.446 501.83C363.291 501.891 363.123 501.917 362.956 501.905ZM385.33 490.712C385.141 490.698 384.959 490.638 384.799 490.538C384.639 490.437 384.507 490.299 384.413 490.135C384.327 490.005 384.269 489.86 384.241 489.707C384.213 489.555 384.216 489.398 384.25 489.247C384.284 489.096 384.348 488.953 384.438 488.827C384.529 488.701 384.644 488.594 384.776 488.513C385.353 488.162 385.929 487.798 386.454 487.435C388.53 486.079 390.583 484.636 392.572 483.159C392.822 482.973 393.136 482.894 393.444 482.94C393.752 482.985 394.03 483.151 394.216 483.402C394.401 483.652 394.48 483.966 394.435 484.274C394.389 484.582 394.223 484.86 393.973 485.046C391.949 486.552 389.85 488.017 387.74 489.402L386.01 490.504C385.808 490.639 385.572 490.711 385.33 490.712ZM405.033 475.284C404.737 475.269 404.459 475.141 404.255 474.926C404.145 474.816 404.059 474.685 404.002 474.541C403.944 474.397 403.916 474.243 403.919 474.088C403.922 473.933 403.957 473.78 404.02 473.638C404.084 473.497 404.175 473.369 404.289 473.264C406.555 471.095 408.758 468.804 410.846 466.467C410.948 466.354 411.072 466.261 411.21 466.196C411.349 466.13 411.499 466.092 411.652 466.084C411.804 466.077 411.957 466.099 412.101 466.151C412.246 466.202 412.378 466.281 412.492 466.384C412.606 466.486 412.698 466.611 412.764 466.749C412.829 466.887 412.867 467.037 412.875 467.19C412.883 467.343 412.86 467.496 412.809 467.64C412.757 467.785 412.678 467.917 412.576 468.031C410.448 470.414 408.199 472.745 405.892 474.955C405.779 475.066 405.645 475.152 405.497 475.209C405.349 475.265 405.191 475.291 405.033 475.284ZM421.219 456.244C421.013 456.227 420.814 456.158 420.643 456.042C420.514 455.956 420.403 455.845 420.318 455.716C420.233 455.586 420.174 455.441 420.147 455.289C420.119 455.137 420.121 454.98 420.155 454.829C420.189 454.678 420.253 454.535 420.343 454.409C422.119 451.824 423.803 449.135 425.388 446.418C425.541 446.148 425.795 445.949 426.094 445.867C426.393 445.784 426.713 445.823 426.983 445.976C427.253 446.129 427.451 446.383 427.534 446.683C427.616 446.982 427.577 447.302 427.424 447.572C425.821 450.341 424.085 453.082 422.275 455.713C422.16 455.884 422.002 456.021 421.816 456.111C421.631 456.2 421.425 456.238 421.219 456.221V456.244ZM433.231 434.319C433.098 434.307 432.968 434.276 432.844 434.226C432.7 434.168 432.57 434.082 432.46 433.973C432.35 433.863 432.264 433.732 432.206 433.589C432.148 433.445 432.119 433.291 432.122 433.136C432.124 432.981 432.158 432.828 432.222 432.686C433.444 429.801 434.568 426.824 435.566 423.841C435.665 423.546 435.878 423.302 436.157 423.163C436.436 423.025 436.759 423.003 437.054 423.102C437.349 423.202 437.593 423.415 437.731 423.694C437.869 423.973 437.891 424.296 437.792 424.591C436.771 427.626 435.629 430.661 434.384 433.603C434.285 433.822 434.122 434.004 433.915 434.125C433.708 434.246 433.469 434.299 433.231 434.278V434.319ZM440.606 410.403C440.552 410.409 440.498 410.409 440.444 410.403C440.293 410.375 440.148 410.317 440.019 410.232C439.89 410.147 439.78 410.036 439.694 409.908C439.609 409.779 439.55 409.635 439.522 409.483C439.493 409.331 439.495 409.175 439.528 409.024C440.145 405.943 440.652 402.805 441.038 399.683C441.055 399.53 441.102 399.381 441.177 399.246C441.251 399.111 441.352 398.992 441.474 398.897C441.596 398.802 441.735 398.732 441.884 398.691C442.033 398.651 442.189 398.641 442.341 398.662C442.496 398.678 442.646 398.724 442.782 398.799C442.918 398.874 443.038 398.976 443.134 399.098C443.229 399.22 443.3 399.361 443.34 399.511C443.38 399.661 443.39 399.818 443.368 399.972C442.976 403.145 442.457 406.318 441.828 409.486C441.763 409.754 441.604 409.99 441.38 410.151C441.155 410.312 440.881 410.387 440.606 410.363V410.403ZM443.051 385.496C442.755 385.481 442.476 385.353 442.272 385.138C442.068 384.923 441.955 384.638 441.955 384.342C441.955 381.203 441.817 378.024 441.563 374.891C441.539 374.58 441.639 374.273 441.841 374.036C442.043 373.799 442.331 373.652 442.641 373.627C442.952 373.603 443.259 373.703 443.496 373.905C443.733 374.107 443.88 374.396 443.904 374.706C444.158 377.897 444.291 381.139 444.302 384.336C444.302 384.642 444.181 384.935 443.964 385.152C443.748 385.368 443.455 385.49 443.149 385.49L443.051 385.496ZM440.462 360.605C440.204 360.592 439.959 360.492 439.764 360.323C439.57 360.153 439.438 359.924 439.389 359.67C438.749 356.595 437.976 353.508 437.083 350.491C437.04 350.343 437.027 350.188 437.044 350.034C437.061 349.881 437.108 349.733 437.182 349.598C437.257 349.463 437.357 349.344 437.478 349.247C437.598 349.151 437.736 349.08 437.884 349.037C438.032 348.994 438.187 348.981 438.34 348.998C438.494 349.015 438.642 349.062 438.777 349.137C438.912 349.211 439.031 349.312 439.127 349.432C439.223 349.552 439.294 349.691 439.337 349.839C440.231 352.908 441.015 356.059 441.644 359.191C441.678 359.343 441.682 359.5 441.654 359.652C441.627 359.805 441.569 359.951 441.484 360.081C441.399 360.21 441.288 360.322 441.159 360.408C441.03 360.494 440.885 360.553 440.733 360.582C440.642 360.585 440.551 360.579 440.462 360.565V360.605ZM432.902 336.747C432.685 336.736 432.475 336.663 432.298 336.537C432.12 336.412 431.982 336.239 431.899 336.038C430.647 333.153 429.275 330.268 427.805 327.51C427.733 327.374 427.688 327.224 427.674 327.071C427.66 326.917 427.676 326.763 427.721 326.615C427.767 326.468 427.841 326.331 427.939 326.212C428.038 326.094 428.158 325.995 428.295 325.923C428.431 325.851 428.58 325.807 428.734 325.793C428.887 325.778 429.042 325.795 429.189 325.84C429.336 325.886 429.473 325.96 429.592 326.058C429.71 326.157 429.809 326.277 429.88 326.414C431.374 329.247 432.764 332.184 434.05 335.103C434.114 335.244 434.149 335.397 434.153 335.552C434.157 335.707 434.13 335.862 434.073 336.006C434.016 336.151 433.93 336.282 433.821 336.392C433.712 336.503 433.582 336.59 433.438 336.649C433.266 336.707 433.083 336.727 432.902 336.707V336.747ZM420.695 314.892C420.518 314.882 420.346 314.831 420.192 314.744C420.038 314.657 419.906 314.536 419.807 314.39C418.008 311.811 416.087 309.272 414.104 306.843C413.907 306.602 413.814 306.293 413.846 305.983C413.877 305.674 414.03 305.39 414.271 305.193C414.512 304.996 414.821 304.903 415.13 304.935C415.439 304.966 415.724 305.119 415.92 305.36C417.944 307.83 419.899 310.42 421.733 313.045C421.824 313.171 421.889 313.314 421.924 313.466C421.958 313.617 421.962 313.774 421.935 313.927C421.907 314.081 421.849 314.226 421.764 314.356C421.678 314.486 421.568 314.598 421.438 314.684C421.217 314.823 420.954 314.882 420.695 314.851V314.892Z" fill="#D1E0E8" />
        <path opacity="0.8" d="M318.601 509.913C318.29 509.903 317.996 509.769 317.784 509.541C317.571 509.313 317.458 509.01 317.468 508.699C317.479 508.387 317.613 508.093 317.841 507.88C318.068 507.668 318.371 507.554 318.682 507.565C320.216 507.565 321.779 507.565 323.295 507.501C323.606 507.491 323.909 507.604 324.137 507.817C324.364 508.029 324.498 508.324 324.509 508.635C324.52 508.947 324.406 509.25 324.194 509.477C323.981 509.705 323.687 509.839 323.376 509.85C321.796 509.902 320.205 509.925 318.636 509.919L318.601 509.913Z" fill="#D1E0E8" />
        <path opacity="0.8" d="M306.792 479.178C307.093 479.251 307.409 479.228 307.697 479.112C307.984 478.996 308.228 478.793 308.395 478.532L318.152 463.271C326.725 463.339 335.252 462.006 343.397 459.325L357.345 470.864C357.584 471.064 357.88 471.183 358.19 471.206C358.5 471.229 358.81 471.153 359.075 470.991L377.608 459.665C377.873 459.504 378.08 459.265 378.202 458.981C378.324 458.696 378.354 458.381 378.289 458.078L374.408 440.394C380.513 434.37 385.595 427.389 389.453 419.727L407.478 417.996C407.79 417.968 408.084 417.84 408.319 417.633C408.553 417.425 408.715 417.148 408.781 416.842L413.89 395.72C413.962 395.418 413.939 395.102 413.823 394.815C413.707 394.527 413.505 394.283 413.245 394.116L397.981 384.382C398.049 375.802 396.717 367.268 394.037 359.117L405.569 345.165C405.767 344.925 405.885 344.63 405.907 344.319C405.929 344.009 405.853 343.7 405.691 343.435L394.371 324.885C394.211 324.62 393.972 324.413 393.687 324.292C393.403 324.171 393.087 324.142 392.785 324.21L375.112 328.093C369.089 321.985 362.113 316.899 354.457 313.034L352.727 295.004C352.697 294.692 352.569 294.397 352.362 294.162C352.155 293.927 351.879 293.763 351.573 293.694L330.515 288.594C330.213 288.52 329.897 288.543 329.609 288.659C329.322 288.775 329.078 288.978 328.912 289.24L319.155 304.495C310.579 304.432 302.051 305.767 293.904 308.447L279.961 296.908C279.722 296.708 279.426 296.589 279.116 296.567C278.805 296.546 278.496 296.622 278.231 296.787L259.692 308.107C259.428 308.269 259.221 308.509 259.1 308.795C258.979 309.08 258.95 309.396 259.018 309.699L262.898 327.383C256.791 333.407 251.707 340.388 247.848 348.05L229.828 349.781C229.516 349.811 229.222 349.939 228.987 350.146C228.752 350.353 228.588 350.629 228.519 350.935L223.416 372.058C223.343 372.359 223.366 372.676 223.482 372.963C223.598 373.251 223.801 373.495 224.062 373.662L239.308 383.424C239.245 392.003 240.579 400.535 243.258 408.684L231.725 422.641C231.526 422.88 231.407 423.176 231.385 423.487C231.364 423.798 231.44 424.107 231.604 424.372L242.918 442.916C243.08 443.18 243.32 443.387 243.605 443.509C243.89 443.631 244.206 443.662 244.509 443.596L262.183 439.713C268.201 445.823 275.176 450.908 282.833 454.767L284.563 472.803C284.591 473.115 284.718 473.409 284.926 473.644C285.133 473.878 285.41 474.04 285.716 474.107L306.792 479.178Z" fill="#D1E0E8" />
        <path opacity="0.5" d="M317.316 404.899C311.804 404.552 306.648 402.055 302.957 397.943C299.267 393.832 297.337 388.435 297.582 382.914C297.828 377.394 300.23 372.19 304.27 368.423C308.311 364.656 313.669 362.626 319.19 362.771C324.711 362.916 329.955 365.224 333.793 369.197C337.631 373.171 339.757 378.494 339.713 384.02C339.669 389.546 337.459 394.834 333.558 398.746C329.658 402.658 324.378 404.882 318.855 404.939C318.342 404.945 317.829 404.934 317.316 404.899ZM319.743 366.392C316.813 366.207 313.883 366.762 311.222 368.005C308.562 369.249 306.256 371.141 304.517 373.509C302.779 375.877 301.662 378.643 301.271 381.555C300.88 384.467 301.226 387.431 302.279 390.174C303.331 392.917 305.055 395.352 307.293 397.254C309.531 399.156 312.21 400.465 315.086 401.061C317.961 401.657 320.94 401.52 323.749 400.663C326.558 399.807 329.106 398.257 331.161 396.158C333.511 393.759 335.123 390.736 335.805 387.447C336.487 384.158 336.21 380.742 335.007 377.606C333.804 374.47 331.726 371.746 329.02 369.758C326.314 367.77 323.094 366.601 319.743 366.392Z" fill="white" />
        <path opacity="0.5" d="M336.523 434.625L335.37 431.295C338.772 430.104 342.038 428.557 345.115 426.68C354.654 420.848 361.995 412.023 365.995 401.579C369.995 391.135 370.428 379.66 367.227 368.944C364.025 358.228 357.37 348.874 348.298 342.339C339.227 335.805 328.249 332.458 317.077 332.821C305.905 333.183 295.167 337.235 286.537 344.344C277.908 351.454 271.873 361.22 269.373 372.121C266.873 383.022 268.048 394.445 272.716 404.607C277.384 414.77 285.282 423.101 295.178 428.301L293.541 431.417C282.958 425.854 274.512 416.944 269.52 406.075C264.529 395.206 263.272 382.99 265.947 371.332C268.621 359.674 275.077 349.229 284.306 341.627C293.535 334.024 305.019 329.692 316.967 329.304C328.915 328.917 340.656 332.497 350.357 339.486C360.059 346.475 367.176 356.48 370.599 367.941C374.022 379.401 373.558 391.673 369.28 402.842C365.002 414.011 357.15 423.45 346.949 429.686L345.997 430.263L345.945 430.297C343.542 431.691 341.036 432.901 338.449 433.915L338.368 433.95L338.253 433.99L337.965 434.1C337.434 434.29 336.99 434.463 336.523 434.625Z" fill="white" />
        <path opacity="0.8" d="M347.128 257.547L351.902 248.592C356.694 248.247 361.397 247.122 365.828 245.263L374.126 251.085C374.267 251.185 374.437 251.238 374.61 251.238C374.783 251.238 374.953 251.185 375.094 251.085L384.943 243.936C385.084 243.834 385.189 243.692 385.245 243.527C385.301 243.363 385.304 243.185 385.255 243.019L382.302 233.314C385.447 229.677 387.979 225.551 389.799 221.1L399.792 219.369C399.963 219.339 400.12 219.256 400.241 219.132C400.362 219.008 400.441 218.848 400.466 218.676L402.381 206.652C402.409 206.482 402.382 206.306 402.306 206.151C402.229 205.996 402.106 205.869 401.954 205.787L392.999 201.01C392.657 196.215 391.535 191.509 389.678 187.076L395.496 178.767C395.595 178.626 395.649 178.456 395.649 178.283C395.649 178.109 395.595 177.94 395.496 177.798L388.351 167.943C388.249 167.803 388.106 167.698 387.942 167.643C387.777 167.589 387.6 167.587 387.434 167.638L377.735 170.592C374.104 167.443 369.982 164.91 365.534 163.091L363.775 153.098C363.744 152.927 363.661 152.77 363.537 152.648C363.413 152.526 363.255 152.445 363.083 152.417L351.072 150.502C350.9 150.473 350.723 150.5 350.566 150.577C350.41 150.655 350.282 150.78 350.201 150.934L345.427 159.889C340.635 160.234 335.931 161.359 331.501 163.218L323.203 157.396C323.061 157.297 322.892 157.243 322.719 157.243C322.545 157.243 322.376 157.297 322.234 157.396L312.385 164.545C312.244 164.646 312.138 164.789 312.082 164.954C312.026 165.118 312.023 165.296 312.074 165.463L315.026 175.167C311.881 178.804 309.349 182.93 307.53 187.382L297.537 189.113C297.366 189.142 297.209 189.225 297.088 189.349C296.966 189.474 296.888 189.633 296.862 189.805L294.948 201.829C294.92 202 294.946 202.175 295.023 202.33C295.099 202.485 295.222 202.613 295.375 202.694L304.33 207.472C304.673 212.266 305.795 216.972 307.651 221.405L301.833 229.714C301.733 229.856 301.68 230.025 301.68 230.199C301.68 230.372 301.733 230.541 301.833 230.683L308.977 240.538C309.079 240.678 309.222 240.783 309.387 240.838C309.551 240.893 309.729 240.895 309.894 240.844L319.593 237.89C323.227 241.036 327.348 243.569 331.795 245.39L333.525 255.383C333.556 255.554 333.639 255.712 333.763 255.833C333.887 255.955 334.045 256.036 334.217 256.064L346.228 257.98C346.404 258.012 346.587 257.988 346.748 257.91C346.91 257.832 347.043 257.705 347.128 257.547Z" fill="#D1E0E8" />
        <path opacity="0.5" d="M347.849 216.767C344.589 216.566 341.534 215.11 339.324 212.704C337.114 210.298 335.922 207.128 335.998 203.862C336.074 200.595 337.411 197.484 339.73 195.183C342.049 192.882 345.169 191.569 348.434 191.52C351.699 191.472 354.857 192.69 357.243 194.921C359.63 197.152 361.06 200.22 361.233 203.484C361.407 206.747 360.31 209.95 358.174 212.421C356.037 214.893 353.027 216.44 349.774 216.738C349.134 216.796 348.49 216.806 347.849 216.767ZM349.221 195.188C347.074 195.054 344.95 195.69 343.23 196.983C341.51 198.275 340.306 200.138 339.836 202.238C339.365 204.338 339.658 206.538 340.663 208.441C341.667 210.344 343.316 211.827 345.315 212.623C347.313 213.419 349.53 213.476 351.567 212.783C353.603 212.091 355.327 210.695 356.427 208.846C357.528 206.997 357.933 204.815 357.571 202.694C357.209 200.572 356.103 198.65 354.451 197.271C352.974 196.037 351.141 195.308 349.221 195.188Z" fill="white" />
        <path opacity="0.8" d="M326.72 266.894C326.612 266.887 326.505 266.864 326.403 266.825C324.904 266.294 323.41 265.671 321.963 265.065C321.819 265.005 321.689 264.917 321.58 264.806C321.471 264.695 321.386 264.563 321.329 264.418C321.273 264.273 321.246 264.118 321.251 263.962C321.256 263.807 321.292 263.654 321.358 263.513C321.42 263.372 321.51 263.245 321.621 263.14C321.733 263.035 321.865 262.953 322.009 262.899C322.153 262.845 322.306 262.821 322.46 262.827C322.613 262.833 322.764 262.87 322.903 262.936C324.304 263.547 325.746 264.124 327.187 264.667C327.493 264.729 327.762 264.91 327.935 265.17C328.107 265.43 328.169 265.748 328.107 266.054C328.045 266.36 327.864 266.629 327.604 266.802C327.344 266.974 327.026 267.037 326.72 266.975V266.894Z" fill="#D1E0E8" />
        <path opacity="0.8" d="M310.125 258.124C309.903 258.107 309.689 258.029 309.508 257.899C308.355 257.039 307.201 256.139 306.048 255.21C304.895 254.281 303.776 253.243 302.698 252.21C302.473 251.995 302.343 251.699 302.336 251.388C302.329 251.077 302.446 250.776 302.66 250.551C302.875 250.326 303.171 250.196 303.482 250.189C303.793 250.182 304.093 250.298 304.318 250.513C305.362 251.512 306.452 252.481 307.553 253.398C308.655 254.316 309.744 255.17 310.869 255.995C311.093 256.134 311.263 256.347 311.35 256.597C311.437 256.846 311.435 257.118 311.345 257.367C311.255 257.616 311.083 257.826 310.856 257.963C310.63 258.1 310.364 258.154 310.102 258.118L310.125 258.124ZM294.371 241.726C294.19 241.717 294.014 241.665 293.857 241.575C293.699 241.485 293.566 241.359 293.466 241.207C291.822 238.75 290.343 236.186 289.037 233.533C288.901 233.253 288.881 232.93 288.982 232.635C289.083 232.341 289.297 232.098 289.577 231.961C289.857 231.824 290.179 231.804 290.474 231.905C290.769 232.006 291.011 232.22 291.148 232.501C292.404 235.06 293.83 237.533 295.415 239.903C295.503 240.03 295.565 240.174 295.596 240.325C295.628 240.477 295.629 240.633 295.598 240.785C295.568 240.937 295.508 241.081 295.421 241.209C295.334 241.337 295.222 241.446 295.092 241.53C294.878 241.668 294.625 241.73 294.371 241.709V241.726ZM285.214 220.909C284.963 220.897 284.724 220.803 284.531 220.641C284.338 220.48 284.204 220.26 284.148 220.015C283.447 217.142 282.939 214.226 282.625 211.285C282.609 211.134 282.623 210.981 282.666 210.834C282.709 210.688 282.78 210.552 282.875 210.433C282.971 210.314 283.089 210.216 283.223 210.143C283.356 210.07 283.503 210.024 283.655 210.007C283.806 209.991 283.959 210.005 284.105 210.048C284.252 210.091 284.388 210.162 284.506 210.258C284.625 210.353 284.724 210.471 284.797 210.605C284.87 210.739 284.916 210.886 284.932 211.037C285.239 213.872 285.731 216.684 286.402 219.455C286.442 219.605 286.451 219.761 286.429 219.914C286.406 220.068 286.354 220.215 286.274 220.347C286.193 220.48 286.087 220.595 285.962 220.685C285.836 220.776 285.694 220.84 285.543 220.875C285.435 220.895 285.324 220.901 285.214 220.892V220.909ZM283.738 198.211H283.681C283.526 198.197 283.376 198.152 283.24 198.078C283.103 198.005 282.983 197.904 282.886 197.783C282.789 197.662 282.717 197.522 282.676 197.373C282.634 197.223 282.623 197.067 282.643 196.913C282.966 193.976 283.484 191.063 284.194 188.195C284.232 188.045 284.299 187.905 284.391 187.781C284.483 187.657 284.599 187.553 284.731 187.474C284.864 187.395 285.011 187.343 285.163 187.32C285.316 187.298 285.471 187.306 285.621 187.344C285.771 187.382 285.911 187.449 286.035 187.541C286.159 187.633 286.263 187.749 286.342 187.882C286.421 188.014 286.473 188.161 286.495 188.314C286.517 188.467 286.509 188.622 286.471 188.772C285.787 191.54 285.288 194.35 284.978 197.184C284.942 197.48 284.792 197.751 284.561 197.939C284.33 198.127 284.035 198.218 283.738 198.194V198.211ZM290.15 176.367C289.994 176.36 289.841 176.32 289.701 176.252C289.56 176.185 289.435 176.091 289.332 175.976C289.229 175.86 289.15 175.724 289.101 175.577C289.051 175.43 289.032 175.274 289.044 175.12C289.056 174.965 289.099 174.814 289.17 174.677C290.487 172.03 291.978 169.474 293.633 167.026C293.72 166.898 293.83 166.789 293.959 166.704C294.087 166.619 294.231 166.56 294.383 166.531C294.534 166.502 294.689 166.503 294.84 166.534C294.991 166.565 295.135 166.625 295.262 166.711C295.39 166.798 295.499 166.909 295.584 167.037C295.669 167.166 295.728 167.31 295.757 167.461C295.786 167.613 295.785 167.768 295.754 167.919C295.723 168.07 295.663 168.214 295.577 168.341C293.98 170.703 292.543 173.168 291.275 175.721C291.174 175.929 291.013 176.102 290.812 176.217C290.611 176.332 290.381 176.385 290.15 176.367ZM303.649 158.071C303.344 158.07 303.052 157.948 302.836 157.731C302.727 157.621 302.641 157.49 302.583 157.346C302.525 157.202 302.497 157.048 302.501 156.893C302.504 156.738 302.538 156.585 302.602 156.443C302.666 156.302 302.757 156.175 302.871 156.069C305.012 154.033 307.285 152.14 309.675 150.403C309.927 150.221 310.241 150.145 310.548 150.194C310.855 150.243 311.13 150.411 311.313 150.663C311.496 150.915 311.571 151.229 311.522 151.536C311.474 151.843 311.305 152.119 311.053 152.302C308.754 153.964 306.567 155.778 304.509 157.731C304.394 157.847 304.256 157.937 304.104 157.996C303.952 158.054 303.789 158.08 303.626 158.071H303.649Z" fill="#D1E0E8" />
        <path opacity="0.8" d="M322.632 145.476C322.416 145.465 322.207 145.393 322.029 145.269C321.852 145.144 321.713 144.972 321.629 144.772C321.564 144.631 321.529 144.478 321.525 144.323C321.521 144.168 321.549 144.013 321.606 143.869C321.663 143.725 321.748 143.593 321.857 143.483C321.966 143.372 322.097 143.285 322.24 143.226C323.699 142.597 325.192 142.014 326.686 141.495C326.832 141.444 326.986 141.423 327.14 141.432C327.294 141.441 327.445 141.48 327.584 141.547C327.723 141.614 327.847 141.708 327.95 141.824C328.053 141.939 328.131 142.073 328.182 142.219C328.233 142.365 328.254 142.519 328.246 142.674C328.237 142.828 328.197 142.979 328.13 143.118C328.063 143.257 327.969 143.381 327.854 143.484C327.739 143.587 327.604 143.666 327.458 143.716C326.023 144.218 324.575 144.778 323.168 145.39C322.999 145.461 322.815 145.49 322.632 145.476Z" fill="#D1E0E8" />
        <path opacity="0.8" d="M379.748 148.026C379.576 148.017 379.409 147.97 379.258 147.888C377.914 147.155 376.53 146.463 375.135 145.828C374.994 145.764 374.868 145.673 374.763 145.56C374.657 145.447 374.575 145.315 374.521 145.17C374.412 144.878 374.423 144.554 374.553 144.27C374.682 143.986 374.918 143.766 375.21 143.656C375.502 143.547 375.826 143.558 376.109 143.688C377.551 144.345 378.993 145.066 380.382 145.822C380.645 145.931 380.858 146.132 380.981 146.388C381.104 146.643 381.129 146.935 381.05 147.208C380.972 147.481 380.796 147.715 380.555 147.866C380.315 148.017 380.028 148.074 379.748 148.026Z" fill="#D1E0E8" />
        <path opacity="0.8" d="M386.2 258.701C385.951 258.698 385.71 258.615 385.512 258.464C385.314 258.313 385.17 258.102 385.102 257.863C385.034 257.623 385.045 257.368 385.134 257.135C385.223 256.903 385.384 256.705 385.595 256.572C388.291 254.655 390.836 252.534 393.206 250.225C393.43 250.008 393.73 249.888 394.041 249.892C394.353 249.897 394.65 250.025 394.867 250.248C395.084 250.472 395.204 250.772 395.199 251.084C395.195 251.395 395.067 251.692 394.844 251.91C392.384 254.294 389.745 256.485 386.95 258.464C386.735 258.628 386.47 258.712 386.2 258.701ZM404.18 239.505C403.975 239.498 403.777 239.437 403.604 239.328C403.431 239.219 403.29 239.066 403.195 238.885C403.101 238.703 403.056 238.5 403.066 238.296C403.076 238.092 403.14 237.894 403.251 237.722C404.983 234.908 406.493 231.962 407.766 228.912C407.887 228.624 408.117 228.396 408.406 228.278C408.695 228.16 409.018 228.162 409.306 228.283C409.593 228.404 409.821 228.634 409.939 228.923C410.057 229.212 410.055 229.536 409.935 229.823C408.614 232.983 407.048 236.035 405.252 238.951C405.144 239.136 404.986 239.286 404.796 239.386C404.607 239.486 404.393 239.531 404.18 239.516V239.505ZM413.135 214.782H413.037C412.883 214.762 412.735 214.712 412.601 214.633C412.467 214.555 412.35 214.451 412.258 214.326C412.165 214.202 412.099 214.06 412.062 213.909C412.026 213.759 412.02 213.602 412.045 213.449C412.299 211.718 412.478 209.987 412.587 208.222C412.679 206.687 412.72 205.118 412.702 203.571C412.702 203.259 412.826 202.96 413.047 202.739C413.268 202.518 413.567 202.394 413.879 202.394C414.191 202.394 414.49 202.518 414.711 202.739C414.931 202.96 415.055 203.259 415.055 203.571C415.055 205.175 415.026 206.797 414.928 208.389C414.819 210.195 414.628 212.018 414.352 213.812C414.309 214.099 414.16 214.359 413.935 214.54C413.709 214.722 413.424 214.812 413.135 214.793V214.782ZM411.601 188.518C411.354 188.506 411.118 188.414 410.927 188.258C410.736 188.101 410.6 187.887 410.54 187.647C409.691 184.455 408.596 181.334 407.265 178.312C407.139 178.026 407.131 177.702 407.243 177.411C407.356 177.12 407.579 176.886 407.864 176.759C408.15 176.633 408.473 176.626 408.764 176.738C409.055 176.851 409.289 177.074 409.416 177.36C410.793 180.497 411.929 183.736 412.812 187.047C412.854 187.196 412.866 187.352 412.847 187.506C412.828 187.66 412.777 187.809 412.699 187.943C412.621 188.077 412.517 188.194 412.393 188.287C412.268 188.38 412.127 188.447 411.976 188.483C411.855 188.522 411.728 188.538 411.601 188.53V188.518ZM399.849 164.989C399.683 164.981 399.521 164.937 399.374 164.86C399.227 164.784 399.098 164.676 398.996 164.545C396.95 161.951 394.708 159.519 392.289 157.269C392.06 157.057 391.924 156.763 391.912 156.451C391.899 156.139 392.011 155.834 392.223 155.605C392.435 155.375 392.729 155.239 393.041 155.227C393.353 155.215 393.657 155.327 393.887 155.539C396.402 157.878 398.735 160.406 400.864 163.103C401.014 163.278 401.108 163.494 401.134 163.723C401.16 163.952 401.116 164.183 401.01 164.387C400.903 164.592 400.738 164.759 400.535 164.868C400.332 164.978 400.101 165.024 399.872 165.001L399.849 164.989Z" fill="#D1E0E8" />
        <path opacity="0.8" d="M367.275 267.932C366.969 267.967 366.662 267.878 366.422 267.686C366.181 267.494 366.027 267.214 365.992 266.908C365.958 266.602 366.046 266.295 366.238 266.054C366.43 265.813 366.71 265.659 367.016 265.624C368.48 265.192 369.951 264.695 371.381 264.153C371.672 264.043 371.994 264.053 372.277 264.18C372.56 264.308 372.782 264.543 372.892 264.834C373.002 265.125 372.992 265.447 372.864 265.731C372.737 266.014 372.502 266.235 372.211 266.346C370.729 266.923 369.207 267.425 367.685 267.88C367.552 267.92 367.414 267.938 367.275 267.932Z" fill="#D1E0E8" />
        <path opacity="0.5" d="M336.437 232.593C330.122 229.89 324.879 225.172 321.525 219.174C318.171 213.177 316.895 206.238 317.895 199.439C318.896 192.64 322.118 186.363 327.057 181.588C331.997 176.813 338.377 173.808 345.202 173.041C352.028 172.274 358.915 173.789 364.79 177.349C370.664 180.91 375.197 186.315 377.679 192.723C380.162 199.131 380.455 206.181 378.514 212.773C376.572 219.365 372.505 225.129 366.947 229.166C365.263 230.386 363.463 231.438 361.572 232.304L361.486 232.345L361.203 232.472L359.779 229.246C361.577 228.452 363.285 227.469 364.876 226.315C370.524 222.205 374.407 216.109 375.746 209.252C377.085 202.394 375.781 195.284 372.096 189.349C371.756 188.807 371.398 188.27 371.018 187.745C368.521 184.301 365.263 181.481 361.498 179.505C357.732 177.529 353.562 176.45 349.311 176.351C345.061 176.253 340.845 177.139 336.992 178.939C333.14 180.74 329.756 183.406 327.103 186.731C324.45 190.056 322.601 193.948 321.699 198.106C320.797 202.263 320.868 206.573 321.904 210.699C322.941 214.825 324.917 218.655 327.677 221.891C330.436 225.128 333.906 227.682 337.815 229.356L336.437 232.593Z" fill="white" />
    </g>
    <path d="M0 652.957H490.5" stroke="#6C757D" />
    <g filter="url(#filter0_d_1189_21112)">
        <path d="M429.479 402.457L334.576 402.016C331.86 402.01 329.172 401.467 326.666 400.419C324.16 399.371 321.886 397.839 319.974 395.909C318.062 393.98 316.55 391.692 315.525 389.176C314.5 386.661 313.982 383.968 314 381.252L315.007 143.986C315.022 141.274 315.57 138.592 316.622 136.093C317.673 133.593 319.207 131.325 321.136 129.419C323.064 127.512 325.349 126.005 327.86 124.982C330.372 123.959 333.06 123.441 335.772 123.457L430.675 123.882C436.149 123.903 441.391 126.094 445.251 129.975C449.111 133.856 451.275 139.11 451.266 144.584L450.26 381.865C450.251 384.583 449.707 387.272 448.657 389.779C447.608 392.286 446.074 394.561 444.143 396.474C442.213 398.387 439.924 399.9 437.408 400.927C434.891 401.953 432.197 402.473 429.479 402.457Z" fill="#17405C" />
        <path d="M430.55 132.14H412.145C411.546 132.148 410.956 132.274 410.406 132.512C409.857 132.749 409.359 133.092 408.943 133.522C408.526 133.951 408.199 134.459 407.979 135.015C407.759 135.572 407.651 136.167 407.662 136.765V140.1C407.674 141.307 407.211 142.471 406.372 143.34C405.533 144.208 404.386 144.711 403.178 144.74L367.297 144.567C366.694 144.553 366.1 144.419 365.55 144.174C365 143.928 364.504 143.575 364.091 143.136C363.678 142.697 363.357 142.18 363.146 141.616C362.934 141.051 362.838 140.45 362.861 139.848V136.482C362.882 135.88 362.783 135.28 362.571 134.716C362.359 134.153 362.038 133.637 361.625 133.198C361.213 132.76 360.718 132.407 360.169 132.16C359.619 131.914 359.026 131.779 358.425 131.762H351.944H335.835C333.937 131.752 332.055 132.116 330.297 132.833C328.539 133.55 326.94 134.606 325.59 135.941C324.24 137.276 323.167 138.864 322.431 140.614C321.695 142.364 321.31 144.242 321.3 146.14L320.309 377.743C320.301 381.579 321.815 385.261 324.52 387.98C327.225 390.7 330.899 392.234 334.734 392.247L429.449 392.687C433.283 392.704 436.967 391.2 439.695 388.505C442.422 385.81 443.97 382.144 443.999 378.309L444.975 146.707C444.989 144.802 444.627 142.912 443.909 141.148C443.191 139.383 442.131 137.778 440.791 136.424C439.45 135.071 437.855 133.995 436.098 133.26C434.34 132.525 432.455 132.144 430.55 132.14Z" fill="white" />
        <path d="M425.657 165.741C425.657 165.977 405.648 166.15 380.982 166.15C356.317 166.15 336.292 165.977 336.292 165.741C336.292 165.505 356.301 165.332 380.982 165.332C405.664 165.332 425.657 165.473 425.657 165.741Z" fill="#17405C" />
        <path d="M425.657 325.832C425.657 326.053 405.648 326.241 380.982 326.241C356.317 326.241 336.292 326.053 336.292 325.832C336.292 325.612 356.301 325.423 380.982 325.423C405.664 325.423 425.657 325.596 425.657 325.832Z" fill="#17405C" />
        <path d="M425.657 337.207C425.657 337.427 405.648 337.616 380.982 337.616C356.317 337.616 336.292 337.427 336.292 337.207C336.292 336.986 356.301 336.798 380.982 336.798C405.664 336.798 425.657 337.018 425.657 337.207Z" fill="#17405C" />
        <path d="M425.657 348.658C425.657 348.878 405.648 349.067 380.982 349.067C356.317 349.067 336.292 348.878 336.292 348.658C336.292 348.438 356.301 348.249 380.982 348.249C405.664 348.249 425.657 348.422 425.657 348.658Z" fill="#17405C" />
        <path d="M425.657 360.063C425.657 360.299 405.648 360.472 380.982 360.472C356.317 360.472 336.292 360.299 336.292 360.063C336.292 359.827 356.301 359.654 380.982 359.654C405.664 359.654 425.657 359.843 425.657 360.063Z" fill="#17405C" />
        <path d="M426.93 373.008C426.93 373.229 406.92 373.417 382.255 373.417C357.589 373.417 337.564 373.229 337.564 373.008C337.564 372.788 357.573 372.599 382.255 372.599C406.936 372.599 426.93 372.772 426.93 373.008Z" fill="#17405C" />
    </g>
    <path d="M171.344 346.025C174.098 343.787 195.403 353.136 195.133 356.387C194.864 359.638 209.999 391.179 209.999 391.179L236.153 370.33C236.385 369.577 238.866 361.468 238.987 360.019C239.112 358.496 243.535 355.839 245.583 356.225C247.632 356.61 243.832 359.192 243.581 359.662C242.898 360.948 245.532 361.431 245.532 361.431C245.532 361.431 252.998 359.039 253.16 356.601C253.323 354.163 258.428 360.864 257.806 361.798C257.183 362.732 245.012 372.541 243.256 374.672C243.256 374.672 209.423 413.338 207.021 414.35C204.907 415.237 197.373 401.912 190.251 393.064C183.129 384.217 162.736 353.025 171.344 346.025Z" fill="#B3CBD9" />
    <path d="M103.083 630.342C103.083 630.342 98.4379 634.879 98.3264 636.542C98.2149 638.205 97.9176 656.049 99.813 657.702C101.708 659.355 107.288 660.544 105.494 662.421C104.143 663.814 93.7181 663.531 86.8103 663.15C84.7941 663.038 82.267 646.959 81.4679 644.572C80.3112 641.14 77.4914 633.425 78.5459 631.015C79.0569 629.849 81.5144 627.453 84.98 625.214C88.622 622.864 92.1062 617.625 92.1062 617.625L103.083 630.342Z" fill="#B3CBD9" />
    <path d="M151.243 640.902C151.243 640.902 147.062 652.652 147.062 652.685C146.751 654.542 145.534 659.145 145.534 660.836C145.534 667.194 174.21 655.439 167.785 652.62C167.205 652.369 165.379 650.33 165.189 648.166C164.891 644.831 167.604 640.651 167.604 640.651L151.243 640.902Z" fill="#B3CBD9" />
    <path d="M187.162 424.485C191.921 423.235 196.67 426.535 197.153 431.432C197.713 437.109 198.32 443.304 198.32 443.467C198.32 477.543 205.075 544.099 203.793 550.508C201.158 563.633 176.929 621.986 169.247 640.313C167.87 643.598 164.487 645.549 160.95 645.126L157.308 644.691C152.665 644.137 149.486 639.736 150.417 635.155L168.001 548.624C168.172 547.783 168.207 546.92 168.103 546.068L163.707 509.827L152.501 441.076C151.838 437.007 154.376 433.099 158.364 432.052L187.162 424.485Z" fill="#003A57" />
    <path d="M139.862 439.356C136.91 440.2 134.701 442.659 134.177 445.684L131.578 460.707L122.356 541.653C122.264 542.461 122.049 543.25 121.719 543.994L87.9845 619.987C87.0809 622.023 87.0512 624.351 88.1516 626.287C89.4792 628.623 91.5848 631.79 94.2531 634.015C96.7565 636.103 100.189 634.747 102.037 632.062L155.076 554.976C155.5 554.36 155.836 553.687 156.073 552.977L190.48 449.989C190.798 449.037 190.934 448.033 190.881 447.031L190.251 435.136C189.98 430.003 185.007 426.455 180.064 427.867L139.862 439.356Z" fill="#003A57" />
    <path d="M203.5 371.952L178.22 374.529C178.22 374.529 177.058 353.806 177.058 343.922C177.058 331.93 178.08 316.483 179.53 316.817C183.595 317.746 189.072 319.994 192.328 324.471C203.607 339.965 203.5 371.952 203.5 371.952Z" fill="#70C38A" />
    <path d="M191.078 341.809C191.607 345.464 201.33 444.864 201.33 444.864C155.293 467.097 129.892 448.826 129.892 448.826C129.892 448.826 131.397 379.025 129.594 369.522C128.4 363.238 126.909 321.466 130.988 320.291C136.214 318.786 142.211 317.193 148.743 316.515C154.318 315.934 175.989 315.586 179.868 316.905C179.873 316.914 188.852 326.431 191.078 341.809Z" fill="#44A273" />
    <path d="M85.2028 625.124C85.2028 625.124 95.92 655.285 100.11 656.739C101.225 657.129 106.572 658.132 107.58 660.454C107.882 661.165 107.58 663.543 107.58 663.543H85.2446C85.2446 663.543 82.4202 650.25 81.3052 644.412C81.3052 644.412 75.3915 630.145 76.0511 628.849C76.7108 627.553 85.2028 625.124 85.2028 625.124Z" fill="#44A273" />
    <path d="M143.917 662.935L147.201 652.563C147.201 652.563 154.1 655.48 157.547 654.993C160.994 654.505 167.73 652.563 167.73 652.563C181.494 657.092 192.769 659.289 190.716 662.935H143.917Z" fill="#44A273" />
    <path d="M154.893 297.31L151.93 316.863C151.93 316.863 162.763 340.146 169.234 338.125C174.66 336.43 171.32 315.832 171.32 315.832C171.32 315.832 168.361 304.769 169.248 299.233C170.135 293.696 154.893 297.31 154.893 297.31Z" fill="#B3CBD9" />
    <path d="M152.395 269.647C151.963 269.489 148.944 291.94 154.676 298.085C160.409 304.229 171.586 306.278 175.581 301.415C180.017 296.041 179.794 271.936 170.875 265.592C161.956 259.248 152.395 269.647 152.395 269.647Z" fill="#B3CBD9" />
    <path d="M167.492 253.595C162.492 254.67 157.949 257.266 154.484 261.027C151.353 261.398 147.098 263.126 142.708 270.399C137.305 279.34 141.314 289.246 147.581 294.086C153.848 298.925 153.783 304.559 153.783 304.559L154.786 301.661C155.533 299.462 155.8 297.13 155.571 294.82C155.454 293.404 155.11 292.016 154.554 290.709C153.044 287.458 157.806 285.308 159.139 282.609C160.166 280.529 160.217 275.773 161.833 272.336L163.771 269.712C163.771 269.712 168.23 266.238 172.597 267.218C176.964 268.198 176.337 251.793 167.492 253.595Z" fill="#0E2E35" />
    <path d="M158.852 286.59C158.893 289.325 157.653 291.564 156.064 291.592C154.475 291.62 153.17 289.423 153.123 286.687C153.077 283.952 154.322 281.708 155.911 281.685C157.5 281.662 158.805 283.854 158.852 286.59Z" fill="#B3CBD9" />
    <path d="M84.2956 445.919C84.2724 445.706 84.2724 445.491 84.2956 445.278C84.9739 438.395 90.6925 380.59 91.6542 378.133C92.5229 375.913 118.161 339.25 118.161 339.25L130.765 356.434L106.106 389.321C105.553 391.411 96.6574 430.429 96.6574 430.429C96.6574 430.429 94.8316 437.545 94.0187 441.804C94.3903 442.83 94.7573 443.801 95.0778 444.59C95.822 446.096 96.712 447.526 97.7351 448.859C98.836 450.336 100.662 453.563 100.885 454.432C101.145 455.435 101.619 457.521 101.884 458.779C102.148 460.038 102.515 461.505 102.576 462.188C102.743 462.846 103.012 463.473 103.375 464.046C103.483 464.239 103.53 464.46 103.51 464.681C103.49 464.901 103.405 465.11 103.264 465.281C103.124 465.452 102.935 465.577 102.723 465.639C102.511 465.701 102.284 465.698 102.074 465.63C101.177 465.333 100.481 464.176 100.053 463.451C98.836 461.413 98.195 457.688 97.8884 457.878C97.5818 458.069 96.5226 464.38 96.3554 465.105C96.1881 465.829 94.9106 473.154 94.1906 474.496C93.4705 475.838 92.5181 475.611 92.2673 474.775C92.0489 474.05 93.0616 463.786 93.0616 463.786C93.0616 463.786 93.1871 462.476 92.5971 462.885C92.0071 463.294 91.0874 472.61 90.6879 473.976C90.2883 475.341 89.3778 476.061 88.6067 474.965C87.6776 473.632 89.2803 463.749 89.2803 463.749C89.2803 463.749 89.4614 462.509 88.9318 462.625C88.4023 462.741 87.738 470.678 87.3245 471.366C86.9111 472.053 85.8658 472.295 85.3688 471.157C84.7834 469.805 86.2979 460.999 86.2979 460.999C86.2979 460.999 86.2235 460.298 85.889 460.535C85.5545 460.772 84.4954 467.501 83.8264 468.119C83.7583 468.19 83.6765 468.247 83.5859 468.286C83.4953 468.325 83.3977 468.345 83.2992 468.345C83.2006 468.345 83.1031 468.325 83.0125 468.286C82.9218 468.247 82.84 468.19 82.7719 468.119C81.513 467.26 83.4408 460.86 83.4222 457.678C83.4036 454.497 84.8764 450.921 84.4397 447.131C84.4257 446.871 84.3467 446.286 84.2956 445.919Z" fill="#B3CBD9" />
    <path d="M98.1127 362.472L120.016 377.172C120.016 377.172 132.368 358.789 138.993 352.287C147.294 344.099 135.969 319.009 130.631 320.426C118.66 323.584 98.1127 362.472 98.1127 362.472Z" fill="#44A273" />
    <path d="M170.598 296.666L174.098 295.166" stroke="#E5E5E5" />
    <path d="M335.942 251.307L335.852 251.436V251.593V252.145H336.352V253.249H335.852V254.353H336.352V255.457H335.852V256.561H336.352V257.665H335.852V258.217V258.717H336.352H336.856V258.217H337.864V258.717H338.872V258.217H339.88V258.717H340.888V258.217H341.896V258.717H342.904V258.217H343.912V258.717H344.92V258.217H345.928V258.717H346.936V258.217H347.944V258.717H348.952V258.217H349.96V258.717H350.968V258.217H351.976V258.717H351.98V258.737H352.48V259.777H351.98V260.817H352.48V261.857H351.98V262.897H352.48V263.937H351.98V264.457V264.957H352.48H352.993V264.457H354.019V264.957H355.045V264.457H356.071V264.957H357.097V264.457H358.123V264.957H359.149V264.457H360.175V264.957H360.688H361.188V264.457V263.937H360.688V262.897H361.188V261.857H360.688V260.817H361.188V259.777H360.688V258.737H361.188V258.217H362.164V258.717H363.148V258.217H364.124H364.132V258.717H364.624H365.124V258.217V257.773H364.624V257.717V256.885H365.124V255.997H364.624V255.109H365.124V254.221H364.624V253.333H365.124V252.445H364.624V251.613V251.557H365.124V251.113V250.613H364.624H364.132V251.113H364.124H363.148V250.613H362.164V251.113H361.188V250.631H361.18V250.613H360.688V249.666H361.188V248.702H360.688V247.738H361.188V246.773H360.688V245.809H361.188V244.845H360.688V243.88H361.188V242.916H360.688V241.952H361.188V240.987H360.688V240.023H361.188V239.058H360.688V238.094H361.188V237.13H360.688V236.165H361.188V235.201H360.688V234.237H361.188V233.272H360.688V232.308H361.188V231.344H360.688V230.397V230.379H361.188V229.897V229.397H360.688H360.23V229.897H360.188H359.313V229.397H358.396V229.897H357.479V229.397H356.562V229.897H355.646V229.397H354.729V229.897H353.812V229.397H352.895V229.897H351.978V229.397H351.52H351.259L351.11 229.611L350.819 230.028L351.228 230.314L350.645 231.149L350.235 230.862L349.652 231.697L350.062 231.983L349.478 232.818L349.068 232.531L348.485 233.366L348.895 233.652L348.311 234.487L347.902 234.2L347.318 235.035L347.728 235.321L347.145 236.155L346.735 235.869L346.151 236.703L346.561 236.99L345.978 237.824L345.568 237.538L344.985 238.372L345.394 238.659L344.811 239.493L344.401 239.207L343.818 240.041L344.228 240.328L343.644 241.162L343.235 240.876L342.651 241.71L343.061 241.997L342.478 242.831L342.068 242.545L341.484 243.379L341.894 243.666L341.311 244.5L340.901 244.214L340.318 245.048L340.727 245.335L340.144 246.169L339.734 245.883L339.151 246.717L339.561 247.003L338.977 247.838L338.567 247.551L337.984 248.386L338.394 248.672L337.81 249.507L337.401 249.22L336.817 250.055L337.227 250.341L336.644 251.176L336.234 250.889L335.942 251.307ZM352.878 239.429L353.056 239.547V240.445H352.556V240.468L352.192 240.227L352.72 239.429H352.878ZM351.04 241.969L351.616 241.098L352.033 241.374L352.556 240.583V241.461H353.056V242.477H352.556V243.493H353.056V244.509H352.556V245.525H353.056V246.541H352.556V247.557H353.056V248.573H352.556V249.589H353.056V250.605H352.556V250.613H352.552V251.113H351.544V250.613H350.536V251.113H349.528V250.613H348.52V251.113H347.512V250.613H346.504V251.113H345.591L345.697 250.953L345.496 250.82V250.613H345.323L345.856 249.807L346.273 250.083L346.849 249.212L346.432 248.936L347.008 248.065L347.425 248.341L348.001 247.47L347.584 247.194L348.16 246.323L348.577 246.599L349.153 245.728L348.736 245.452L349.312 244.582L349.729 244.857L350.305 243.987L349.888 243.711L350.464 242.84L350.881 243.116L351.457 242.245L351.04 241.969ZM371.398 233.169L371.396 233.172C371.304 233.31 371.214 233.451 371.125 233.594L371.55 233.857C371.382 234.129 371.221 234.409 371.067 234.698L370.626 234.462C370.47 234.753 370.323 235.052 370.182 235.358L370.637 235.567C370.503 235.857 370.377 236.154 370.257 236.459L369.792 236.277C369.672 236.582 369.559 236.894 369.452 237.212L369.926 237.371C369.825 237.673 369.73 237.982 369.641 238.298L369.16 238.162C369.071 238.476 368.988 238.796 368.911 239.122L369.398 239.237C369.325 239.547 369.257 239.863 369.194 240.185L368.704 240.09C368.642 240.409 368.585 240.733 368.533 241.063L369.027 241.141C368.978 241.456 368.933 241.776 368.894 242.102L368.397 242.041C368.358 242.363 368.323 242.689 368.293 243.021L368.791 243.066C368.762 243.384 368.738 243.706 368.717 244.033L368.218 244.002C368.198 244.325 368.182 244.652 368.17 244.984L368.67 245.002C368.658 245.321 368.651 245.644 368.647 245.972L368.147 245.966C368.145 246.129 368.144 246.292 368.144 246.457C368.144 246.623 368.145 246.788 368.147 246.951L368.647 246.946C368.651 247.275 368.658 247.601 368.67 247.922L368.17 247.94C368.182 248.274 368.198 248.603 368.218 248.928L368.717 248.898C368.737 249.227 368.761 249.552 368.79 249.872L368.292 249.916C368.322 250.25 368.356 250.579 368.395 250.903L368.892 250.843C368.931 251.171 368.975 251.493 369.024 251.811L368.53 251.887C368.582 252.219 368.638 252.546 368.7 252.867L369.191 252.773C369.253 253.098 369.321 253.416 369.394 253.729L368.907 253.842C368.983 254.171 369.066 254.493 369.154 254.809L369.636 254.674C369.725 254.993 369.82 255.304 369.921 255.609L369.446 255.766C369.552 256.088 369.666 256.402 369.785 256.709L370.251 256.528C370.371 256.835 370.498 257.135 370.631 257.427L370.176 257.635C370.317 257.944 370.465 258.245 370.621 258.538L371.063 258.303C371.217 258.594 371.379 258.876 371.549 259.15L371.123 259.413C371.212 259.557 371.303 259.699 371.396 259.838L371.398 259.841C371.495 259.985 371.595 260.125 371.698 260.263L372.099 259.964C372.298 260.231 372.506 260.486 372.725 260.728L372.354 261.064C372.587 261.322 372.831 261.567 373.087 261.799L373.423 261.428C373.667 261.65 373.922 261.859 374.187 262.056L373.889 262.457C374.166 262.663 374.454 262.854 374.753 263.033L375.009 262.603C375.29 262.771 375.58 262.926 375.881 263.069L375.666 263.521C375.974 263.667 376.291 263.8 376.617 263.922L376.791 263.453C377.096 263.566 377.409 263.668 377.732 263.758L377.596 264.24C377.92 264.331 378.252 264.411 378.593 264.48L378.692 263.99C379.009 264.054 379.334 264.109 379.667 264.155L379.6 264.65C379.93 264.695 380.268 264.73 380.612 264.757L380.65 264.258C380.972 264.283 381.302 264.299 381.638 264.307L381.626 264.807C381.793 264.811 381.962 264.813 382.132 264.813C382.302 264.813 382.471 264.811 382.637 264.807L382.625 264.307C382.961 264.299 383.289 264.283 383.61 264.258L383.648 264.757C383.991 264.731 384.328 264.695 384.657 264.651L384.59 264.155C384.922 264.11 385.246 264.056 385.562 263.992L385.661 264.482C386.001 264.413 386.332 264.333 386.654 264.242L386.519 263.761C386.841 263.67 387.153 263.569 387.456 263.456L387.63 263.925C387.956 263.804 388.272 263.67 388.579 263.524L388.364 263.073C388.663 262.93 388.953 262.775 389.232 262.607L389.489 263.036C389.787 262.858 390.073 262.666 390.349 262.46L390.05 262.059C390.314 261.863 390.567 261.653 390.81 261.431L391.147 261.8C391.401 261.568 391.643 261.322 391.874 261.063L391.502 260.73C391.718 260.488 391.925 260.232 392.122 259.965C392.218 259.833 392.313 259.699 392.404 259.561L392.818 259.841C392.819 259.841 392.819 259.841 392.819 259.84C392.913 259.701 393.005 259.561 393.095 259.418L392.671 259.152C392.843 258.878 393.007 258.597 393.164 258.307L393.604 258.544C393.761 258.252 393.912 257.951 394.055 257.643L393.601 257.433C393.736 257.141 393.865 256.841 393.987 256.534L394.451 256.718C394.573 256.411 394.688 256.097 394.796 255.775L394.322 255.616C394.425 255.311 394.522 255 394.612 254.682L395.093 254.818C395.183 254.502 395.267 254.18 395.345 253.851L394.858 253.736C394.932 253.423 395.001 253.105 395.064 252.78L395.555 252.876C395.618 252.554 395.675 252.227 395.728 251.894L395.234 251.816C395.284 251.499 395.329 251.176 395.369 250.848L395.865 250.909C395.905 250.584 395.94 250.255 395.97 249.921L395.472 249.876C395.501 249.556 395.526 249.231 395.547 248.901L396.046 248.932C396.066 248.606 396.082 248.276 396.094 247.942L395.595 247.924C395.606 247.602 395.614 247.276 395.618 246.946L396.118 246.952C396.119 246.788 396.12 246.623 396.12 246.457C396.12 246.292 396.119 246.128 396.118 245.965L395.618 245.971C395.614 245.643 395.606 245.32 395.594 245L396.094 244.982C396.082 244.65 396.066 244.322 396.045 243.999L395.546 244.03C395.525 243.703 395.5 243.38 395.471 243.062L395.969 243.016C395.938 242.684 395.903 242.357 395.863 242.035L395.367 242.097C395.326 241.771 395.281 241.45 395.231 241.135L395.725 241.056C395.672 240.726 395.614 240.401 395.551 240.082L395.061 240.178C394.997 239.856 394.928 239.54 394.854 239.23L395.34 239.113C395.262 238.787 395.177 238.467 395.087 238.153L394.607 238.291C394.516 237.975 394.419 237.666 394.316 237.364L394.79 237.203C394.682 236.884 394.567 236.573 394.445 236.268L393.981 236.453C393.859 236.148 393.731 235.851 393.596 235.561L394.049 235.35C393.906 235.044 393.756 234.746 393.599 234.456L393.159 234.694C393.004 234.407 392.84 234.127 392.67 233.855L393.093 233.589C393.004 233.448 392.913 233.308 392.819 233.17C392.724 233.027 392.626 232.886 392.525 232.749L392.122 233.045C391.925 232.778 391.718 232.522 391.502 232.28L391.874 231.947C391.643 231.688 391.401 231.442 391.147 231.21L390.81 231.579C390.567 231.357 390.314 231.147 390.05 230.951L390.349 230.55C390.073 230.344 389.787 230.152 389.489 229.974L389.232 230.403C388.953 230.235 388.663 230.08 388.364 229.937L388.579 229.486C388.272 229.34 387.956 229.206 387.63 229.085L387.456 229.554C387.153 229.441 386.841 229.34 386.519 229.249L386.654 228.768C386.332 228.677 386.001 228.598 385.661 228.529L385.562 229.019C385.246 228.954 384.922 228.9 384.59 228.855L384.657 228.359C384.328 228.315 383.991 228.279 383.648 228.253L383.61 228.752C383.289 228.727 382.961 228.711 382.625 228.703L382.637 228.203C382.471 228.199 382.302 228.197 382.132 228.197C381.962 228.197 381.793 228.199 381.626 228.203L381.638 228.703C381.302 228.711 380.972 228.727 380.65 228.752L380.612 228.253C380.268 228.28 379.93 228.315 379.6 228.36L379.667 228.856C379.334 228.901 379.009 228.956 378.692 229.02L378.593 228.53C378.252 228.599 377.92 228.679 377.596 228.77L377.732 229.252C377.409 229.342 377.096 229.444 376.791 229.557L376.617 229.088C376.291 229.21 375.974 229.343 375.666 229.489L375.881 229.941C375.58 230.084 375.29 230.239 375.009 230.407L374.753 229.977C374.454 230.156 374.166 230.347 373.889 230.553L374.187 230.954C373.922 231.151 373.667 231.36 373.423 231.582L373.087 231.212C372.831 231.443 372.587 231.688 372.354 231.946L372.725 232.282C372.506 232.524 372.298 232.779 372.099 233.046L371.698 232.747C371.595 232.885 371.495 233.025 371.398 233.169ZM386.036 239.203L386.037 239.206C386.092 239.339 386.144 239.479 386.195 239.623L386.667 239.459C386.766 239.742 386.857 240.044 386.939 240.363L386.455 240.488C386.528 240.769 386.594 241.066 386.654 241.379L387.145 241.285C387.202 241.583 387.253 241.894 387.299 242.217L386.803 242.286C386.845 242.581 386.881 242.887 386.912 243.204L387.41 243.155C387.439 243.459 387.465 243.773 387.485 244.096L386.987 244.128C387.006 244.429 387.021 244.739 387.032 245.058L387.532 245.04C387.543 245.347 387.55 245.662 387.554 245.984L387.054 245.99C387.056 246.144 387.056 246.299 387.056 246.457C387.056 246.609 387.056 246.759 387.054 246.907L387.554 246.911C387.552 247.221 387.546 247.523 387.538 247.818L387.039 247.804C387.03 248.112 387.019 248.41 387.004 248.7L387.504 248.725C387.488 249.036 387.469 249.338 387.447 249.63L386.948 249.592C386.925 249.899 386.897 250.195 386.866 250.479L387.363 250.534C387.329 250.847 387.29 251.147 387.246 251.434L386.752 251.358C386.729 251.507 386.705 251.652 386.68 251.793C386.653 251.945 386.622 252.093 386.588 252.238L387.074 252.352C386.998 252.674 386.907 252.982 386.8 253.275L386.331 253.103C386.225 253.392 386.105 253.663 385.969 253.919L386.41 254.154C386.257 254.442 386.085 254.712 385.894 254.965L385.495 254.664C385.406 254.782 385.313 254.895 385.215 255.004L385.215 255.005C385.124 255.107 385.027 255.202 384.924 255.289L385.249 255.67C385.011 255.873 384.744 256.043 384.45 256.182L384.237 255.73C383.997 255.842 383.732 255.933 383.439 255.999L383.55 256.487C383.256 256.554 382.942 256.597 382.608 256.618L382.577 256.119C382.434 256.128 382.285 256.133 382.132 256.133C381.978 256.133 381.828 256.128 381.683 256.119L381.651 256.618C381.314 256.597 380.997 256.552 380.7 256.485L380.81 255.997C380.515 255.93 380.246 255.839 380.001 255.725L379.79 256.178C379.492 256.04 379.221 255.869 378.977 255.667L379.296 255.282C379.193 255.196 379.094 255.104 379.002 255.004C378.91 254.896 378.821 254.784 378.737 254.668L378.332 254.961C378.148 254.707 377.982 254.436 377.833 254.146L378.278 253.918C378.147 253.662 378.03 253.39 377.927 253.101L377.456 253.268C377.353 252.976 377.264 252.67 377.189 252.35L377.676 252.236C377.643 252.092 377.612 251.944 377.585 251.793C377.559 251.652 377.536 251.507 377.513 251.358L377.019 251.434C376.975 251.147 376.936 250.847 376.902 250.534L377.399 250.479C377.368 250.195 377.34 249.899 377.317 249.592L376.818 249.63C376.796 249.338 376.777 249.036 376.761 248.725L377.26 248.7C377.246 248.41 377.235 248.112 377.226 247.804L376.726 247.818C376.718 247.523 376.713 247.221 376.71 246.911L377.21 246.907C377.209 246.759 377.208 246.609 377.208 246.457C377.208 246.299 377.209 246.144 377.211 245.99L376.711 245.984C376.714 245.662 376.722 245.347 376.733 245.04L377.232 245.058C377.244 244.739 377.259 244.429 377.278 244.128L376.779 244.096C376.8 243.773 376.825 243.459 376.855 243.155L377.353 243.204C377.384 242.887 377.42 242.581 377.461 242.286L376.966 242.217C377.011 241.894 377.063 241.583 377.12 241.285L377.611 241.379C377.671 241.066 377.737 240.769 377.81 240.488L377.326 240.363C377.408 240.044 377.499 239.742 377.598 239.459L378.07 239.623C378.12 239.479 378.173 239.339 378.227 239.206L378.229 239.203C378.281 239.072 378.337 238.948 378.398 238.83L377.953 238.602C378.096 238.322 378.262 238.069 378.45 237.841L378.835 238.161C379.005 237.956 379.196 237.776 379.407 237.622L379.112 237.218C379.352 237.042 379.617 236.894 379.904 236.773L380.098 237.234C380.335 237.135 380.594 237.055 380.876 236.996L380.774 236.507C381.058 236.448 381.359 236.409 381.677 236.39L381.706 236.889C381.844 236.881 381.986 236.877 382.132 236.877C382.279 236.877 382.421 236.881 382.559 236.889L382.588 236.39C382.906 236.409 383.207 236.448 383.491 236.507L383.389 236.996C383.671 237.055 383.93 237.135 384.167 237.234L384.36 236.773C384.648 236.894 384.912 237.042 385.153 237.218L384.858 237.622C385.069 237.776 385.26 237.956 385.43 238.161L385.814 237.841C386.003 238.069 386.169 238.322 386.312 238.602L385.867 238.83C385.928 238.948 385.984 239.072 386.036 239.203ZM399.739 251.307L399.649 251.436V251.593V252.145H400.149V253.249H399.649V254.353H400.149V255.457H399.649V256.561H400.149V257.665H399.649V258.217V258.717H400.149H400.653V258.217H401.661V258.717H402.669V258.217H403.677V258.717H404.685V258.217H405.693V258.717H406.701V258.217H407.709V258.717H408.717V258.217H409.725V258.717H410.733V258.217H411.741V258.717H412.749V258.217H413.757V258.717H414.765V258.217H415.773V258.717H415.777V258.737H416.277V259.777H415.777V260.817H416.277V261.857H415.777V262.897H416.277V263.937H415.777V264.457V264.957H416.277H416.79V264.457H417.816V264.957H418.842V264.457H419.868V264.957H420.894V264.457H421.92V264.957H422.946V264.457H423.972V264.957H424.485H424.985V264.457V263.937H424.485V262.897H424.985V261.857H424.485V260.817H424.985V259.777H424.485V258.737H424.985V258.217H425.961V258.717H426.945V258.217H427.921H427.929V258.717H428.421H428.921V258.217V257.773H428.421V257.717V256.885H428.921V255.997H428.421V255.109H428.921V254.221H428.421V253.333H428.921V252.445H428.421V251.613V251.557H428.921V251.113V250.613H428.421H427.929V251.113H427.921H426.945V250.613H425.961V251.113H424.985V250.631H424.977V250.613H424.485V249.666H424.985V248.702H424.485V247.738H424.985V246.773H424.485V245.809H424.985V244.845H424.485V243.88H424.985V242.916H424.485V241.952H424.985V240.987H424.485V240.023H424.985V239.058H424.485V238.094H424.985V237.13H424.485V236.165H424.985V235.201H424.485V234.237H424.985V233.272H424.485V232.308H424.985V231.344H424.485V230.397V230.379H424.985V229.897V229.397H424.485H424.026V229.897H423.985H423.11V229.397H422.193V229.897H421.276V229.397H420.359V229.897H419.442V229.397H418.526V229.897H417.609V229.397H416.692V229.897H415.775V229.397H415.317H415.056L414.907 229.611L414.615 230.028L415.025 230.314L414.442 231.149L414.032 230.862L413.449 231.697L413.858 231.983L413.275 232.818L412.865 232.531L412.282 233.366L412.692 233.652L412.108 234.487L411.698 234.2L411.115 235.035L411.525 235.321L410.941 236.155L410.532 235.869L409.948 236.703L410.358 236.99L409.775 237.824L409.365 237.538L408.782 238.372L409.191 238.659L408.608 239.493L408.198 239.207L407.615 240.041L408.025 240.328L407.441 241.162L407.031 240.876L406.448 241.71L406.858 241.997L406.274 242.831L405.865 242.545L405.281 243.379L405.691 243.666L405.108 244.5L404.698 244.214L404.114 245.048L404.524 245.335L403.941 246.169L403.531 245.883L402.948 246.717L403.357 247.003L402.774 247.838L402.364 247.551L401.781 248.386L402.191 248.672L401.607 249.507L401.198 249.22L400.614 250.055L401.024 250.341L400.441 251.176L400.031 250.889L399.739 251.307ZM416.675 239.429L416.853 239.547V240.445H416.353V240.468L415.989 240.227L416.517 239.429H416.675ZM415.413 241.098L414.837 241.969L415.254 242.245L414.678 243.116L414.261 242.84L413.685 243.711L414.102 243.987L413.526 244.857L413.109 244.582L412.533 245.452L412.95 245.728L412.374 246.599L411.957 246.323L411.381 247.194L411.798 247.47L411.222 248.341L410.805 248.065L410.229 248.936L410.646 249.212L410.07 250.083L409.653 249.807L409.12 250.613H409.293V250.82L409.494 250.953L409.388 251.113H410.301V250.613H411.309V251.113H412.317V250.613H413.325V251.113H414.333V250.613H415.341V251.113H416.349V250.613H416.353V250.605H416.853V249.589H416.353V248.573H416.853V247.557H416.353V246.541H416.853V245.525H416.353V244.509H416.853V243.493H416.353V242.477H416.853V241.461H416.353V240.583L415.83 241.374L415.413 241.098Z" fill="#C3E8CF" stroke="#003A57" stroke-dasharray="1 1" />
    <defs>
        <filter id="filter0_d_1189_21112" x="266" y="91.457" width="233.266" height="375" filterUnits="userSpaceOnUse" color-interpolation-filters="sRGB">
            <feFlood flood-opacity="0" result="BackgroundImageFix" />
            <feColorMatrix in="SourceAlpha" type="matrix" values="0 0 0 0 0 0 0 0 0 0 0 0 0 0 0 0 0 0 127 0" result="hardAlpha" />
            <feOffset dy="16" />
            <feGaussianBlur stdDeviation="24" />
            <feColorMatrix type="matrix" values="0 0 0 0 0 0 0 0 0 0 0 0 0 0 0 0 0 0 0.176 0" />
            <feBlend mode="normal" in2="BackgroundImageFix" result="effect1_dropShadow_1189_21112" />
            <feBlend mode="normal" in="SourceGraphic" in2="effect1_dropShadow_1189_21112" result="shape" />
        </filter>
    </defs>
</svg>    