<svg width="116" height="116" viewBox="0 0 116 116" fill="none" xmlns="http://www.w3.org/2000/svg">
    <path d="M57.0515 32.4625C64.3146 34.1028 69.6279 39.6726 73.2436 45.7958C76.7367 51.7112 77.8729 58.4886 76.3177 65.0895C74.7067 71.9279 71.0083 78.3705 64.6877 82.1119C58.21 85.9465 50.1039 87.0559 42.7806 84.942C35.7598 82.9155 30.8999 77.3527 27.3428 71.3325C23.9156 65.5321 21.9095 58.9529 23.6244 52.5211C25.3466 46.0622 30.3866 41.0606 36.3718 37.4691C42.6038 33.7294 49.8562 30.8376 57.0515 32.4625Z" fill="#F1F9F3" />
    <path fill-rule="evenodd" clip-rule="evenodd" d="M59.5 1.5C59.5 0.671573 58.8284 0 58 0C57.1716 0 56.5 0.671573 56.5 1.5V13C56.5 13.8284 57.1716 14.5 58 14.5C58.8284 14.5 59.5 13.8284 59.5 13V1.5ZM59.5 102.5C59.5 101.672 58.8284 101 58 101C57.1716 101 56.5 101.672 56.5 102.5V114C56.5 114.828 57.1716 115.5 58 115.5C58.8284 115.5 59.5 114.828 59.5 114V102.5ZM115.75 57.75C115.75 58.5784 115.078 59.25 114.25 59.25H102.75C101.922 59.25 101.25 58.5784 101.25 57.75C101.25 56.9216 101.922 56.25 102.75 56.25H114.25C115.078 56.25 115.75 56.9216 115.75 57.75ZM13.25 59.25C14.0784 59.25 14.75 58.5784 14.75 57.75C14.75 56.9216 14.0784 56.25 13.25 56.25H1.75C0.921573 56.25 0.25 56.9216 0.25 57.75C0.25 58.5784 0.921573 59.25 1.75 59.25H13.25ZM98.8361 16.9147C99.4218 17.5005 99.4218 18.4502 98.8361 19.036L90.7043 27.1677C90.1185 27.7535 89.1688 27.7535 88.583 27.1677C87.9972 26.5819 87.9972 25.6322 88.583 25.0464L96.7147 16.9147C97.3005 16.3289 98.2503 16.3289 98.8361 16.9147ZM27.4181 90.4537C28.0039 89.8679 28.0039 88.9182 27.4181 88.3324C26.8323 87.7466 25.8825 87.7466 25.2968 88.3324L17.165 96.4641C16.5792 97.0499 16.5792 97.9996 17.165 98.5854C17.7508 99.1712 18.7006 99.1712 19.2864 98.5854L27.4181 90.4537ZM98.8358 98.5853C98.25 99.1711 97.3003 99.1711 96.7145 98.5853L88.5828 90.4536C87.997 89.8678 87.997 88.9181 88.5828 88.3323C89.1686 87.7465 90.1183 87.7465 90.7041 88.3323L98.8358 96.464C99.4216 97.0498 99.4216 97.9995 98.8358 98.5853ZM25.2965 27.1676C25.8823 27.7534 26.8321 27.7534 27.4179 27.1676C28.0036 26.5818 28.0036 25.6321 27.4179 25.0463L19.2861 16.9145C18.7003 16.3288 17.7506 16.3288 17.1648 16.9145C16.579 17.5003 16.579 18.4501 17.1648 19.0359L25.2965 27.1676Z" fill="url(#paint0_linear_658_34860)" />
    <path d="M73.995 15.6248L78.1674 4.90845M37.3506 109.743L41.523 99.0264M99.4597 73.5616L110.176 77.734M5.3418 36.9172L16.0582 41.0896M98.7266 39.3195L109.255 34.6921M6.26347 79.9593L16.7914 75.3319M75.7654 98.2931L80.3928 108.821M35.1253 5.83012L39.7526 16.3581" stroke="url(#paint1_linear_658_34860)" stroke-linecap="round" stroke-linejoin="round" />
    <g filter="url(#filter0_d_658_34860)">
        <path fill-rule="evenodd" clip-rule="evenodd" d="M87.9497 38.0503C90.6834 40.7839 90.6834 45.2161 87.9497 47.9497L61.4497 74.4497C58.7161 77.1834 54.2839 77.1834 51.5503 74.4497L38.0503 60.9497C35.3166 58.2161 35.3166 53.7839 38.0503 51.0503C40.7839 48.3166 45.2161 48.3166 47.9497 51.0503L55.0858 58.1863C55.8668 58.9673 57.1332 58.9673 57.9142 58.1863L78.0503 38.0503C80.7839 35.3166 85.2161 35.3166 87.9497 38.0503Z" fill="#70C38A" />
        <path d="M87.2426 38.7574C89.5858 41.1005 89.5858 44.8995 87.2426 47.2426L60.7426 73.7426C58.3995 76.0858 54.6005 76.0858 52.2574 73.7426L38.7574 60.2426C36.4142 57.8995 36.4142 54.1005 38.7574 51.7574C41.1005 49.4142 44.8995 49.4142 47.2426 51.7574L54.3787 58.8934C55.5503 60.065 57.4497 60.065 58.6213 58.8934L78.7574 38.7574C81.1005 36.4142 84.8995 36.4142 87.2426 38.7574Z" stroke="white" stroke-width="2" stroke-linejoin="round" />
    </g>
    <defs>
        <filter id="filter0_d_658_34860" x="28" y="32" width="70" height="56.5" filterUnits="userSpaceOnUse" color-interpolation-filters="sRGB">
            <feFlood flood-opacity="0" result="BackgroundImageFix" />
            <feColorMatrix in="SourceAlpha" type="matrix" values="0 0 0 0 0 0 0 0 0 0 0 0 0 0 0 0 0 0 127 0" result="hardAlpha" />
            <feOffset dy="4" />
            <feGaussianBlur stdDeviation="4" />
            <feColorMatrix type="matrix" values="0 0 0 0 0.184314 0 0 0 0 0.223529 0 0 0 0 0.254902 0 0 0 0.15 0" />
            <feBlend mode="normal" in2="BackgroundImageFix" result="effect1_dropShadow_658_34860" />
            <feBlend mode="normal" in="SourceGraphic" in2="effect1_dropShadow_658_34860" result="shape" />
        </filter>
        <linearGradient id="paint0_linear_658_34860" x1="0.25" y1="0" x2="117.36" y2="1.65661" gradientUnits="userSpaceOnUse">
            <stop offset="0.119792" stop-color="#003A57" />
            <stop offset="1" stop-color="#70C38A" />
        </linearGradient>
        <linearGradient id="paint1_linear_658_34860" x1="5.3418" y1="4.90845" x2="111.638" y2="6.41208" gradientUnits="userSpaceOnUse">
            <stop offset="0.119792" stop-color="#003A57" />
            <stop offset="1" stop-color="#70C38A" />
        </linearGradient>
    </defs>
</svg>
    