<svg width="50%" height="140px" viewBox="0 0 231 211" fill="none" xmlns="http://www.w3.org/2000/svg">
<g opacity="0.2">
<path opacity="0.61" d="M8.44598 156.126C0.37777 142.048 -1.41244 124.9 4.02613 109.471C6.13879 103.456 9.22833 97.8563 13.1607 92.9152C24.8567 78.2441 43.9943 70.2688 62.2369 72.5508C72.9601 73.8848 83.7488 78.4849 94.2146 75.685C107.807 72.0303 115.57 57.496 121.737 44.3727C127.903 31.2497 139.232 17.853 152.6 13.2984C165.065 9.05721 184.254 10.2023 192.236 14.0061C222.682 28.5048 222.771 71.4613 214.987 94.3702C207.204 117.279 197.659 132.055 182.986 150.889C162.429 177.272 128.612 191.888 96.1612 195.763C65.2393 199.451 32.2346 187.469 12.7562 162.585C11.1696 160.544 9.729 158.385 8.44598 156.126Z" fill="#547B8E"/>
</g>
<path d="M149.206 65.4876C159.922 38.8169 177.435 12.5214 186.365 2.27463L193.71 2.70759C213.591 32.3392 227.412 58.1272 228.708 61.158C226.692 63.2749 224.215 72.2133 225.252 71.9822C204.512 76.8313 168.937 74.0027 153.527 71.9822L149.206 65.4876Z" fill="#FFC67F"/>
<path d="M230.194 64.5063L194.168 2.74367C192.211 -0.611062 187.394 -0.671905 185.354 2.63237L166.056 33.8807L149.102 64.6139C147.207 68.0488 149.687 72.2609 153.604 72.2609H225.753C229.725 72.2609 232.199 67.9422 230.194 64.5063Z" fill="#FFC67F"/>
<path d="M189.161 62.858C192.126 62.858 194.53 60.4494 194.53 57.4783C194.53 54.5071 192.126 52.0985 189.161 52.0985C186.196 52.0985 183.792 54.5071 183.792 57.4783C183.792 60.4494 186.196 62.858 189.161 62.858Z" fill="#734A15"/>
<path d="M189.321 18.5439V44.111" stroke="#734A15" stroke-width="3.79931" stroke-linecap="round"/>
<g filter="url(#filter0_d_2_151)">
<g filter="url(#filter1_d_2_151)">
<path d="M95.1993 106.52C94.0203 105.715 92.9027 104.866 91.8487 103.985L76.0928 124.768C75.1225 126.044 75.8935 128.143 77.8138 129.451C79.7341 130.759 82.0726 130.79 83.0425 129.512L98.7962 108.73C97.5885 108.062 96.3786 107.327 95.1993 106.52Z" fill="#336179"/>
</g>
<path opacity="0.8" d="M95.5109 106.102C74.1774 91.534 69.6884 62.8273 85.4843 41.9837C101.28 21.1398 131.38 16.052 152.713 30.6199C174.047 45.1875 178.536 73.8944 162.74 94.7381C146.944 115.582 116.844 120.67 95.5109 106.102Z" fill="white"/>
<g filter="url(#filter2_d_2_151)">
<path d="M167.785 98.2063C149.925 121.768 115.895 127.515 91.7809 111.041C67.667 94.5681 62.5962 62.1168 80.4562 38.5553C98.3162 14.9937 132.346 9.24467 156.462 25.7177C180.579 42.1905 185.627 74.6481 167.785 98.2063ZM162.745 94.7631C178.543 73.9211 174.058 45.2139 152.728 30.6432C131.399 16.0725 101.297 21.1563 85.4987 41.9983C69.7007 62.8403 74.1831 91.5456 95.5152 106.118C116.847 120.69 146.935 115.605 162.736 94.7647L162.745 94.7631Z" fill="#003A57"/>
</g>
<g filter="url(#filter3_d_2_151)">
<path d="M165.123 96.3971C148.345 118.529 116.383 123.926 93.7317 108.454C71.0806 92.9822 66.3179 62.4988 83.0955 40.365C99.8732 18.2314 131.836 12.8357 154.487 28.3079C177.138 43.7799 181.901 74.2654 165.123 96.3971ZM162.733 94.7645C178.531 73.9225 174.046 45.2153 152.716 30.6448C131.387 16.0742 101.284 21.1577 85.4865 41.9997C69.6883 62.8417 74.1707 91.547 95.5028 106.12C116.835 120.692 146.932 115.605 162.733 94.7645Z" fill="#547B8E"/>
</g>
<path d="M73.9338 120.513C71.6861 120.871 69.634 122.015 68.1773 123.73L67.8949 124.08L67.8911 124.085L22.3471 183.72L22.3448 183.72C21.6174 184.668 21.0867 185.743 20.7848 186.887C20.4828 188.033 20.4169 189.221 20.5944 190.386C20.7723 191.549 21.1893 192.662 21.8184 193.657C22.3688 194.53 23.0703 195.296 23.8912 195.928L24.251 196.19L27.6619 198.55C28.6369 199.227 29.7409 199.706 30.9093 199.965C32.0784 200.225 33.2928 200.26 34.4817 200.071C35.6706 199.88 36.8148 199.468 37.8502 198.857C38.8859 198.246 39.7955 197.447 40.5227 196.501L40.5243 196.499L86.073 136.862L86.3366 136.497C87.6161 134.649 88.1578 132.406 87.8213 130.2C87.4622 127.847 86.1382 125.762 84.1673 124.396L80.7533 122.029L80.3777 121.785C78.4774 120.604 76.1812 120.154 73.9338 120.513Z" fill="#003A57" stroke="#003A57" stroke-width="1.5"/>
</g>
<defs>
<filter id="filter0_d_2_151" x="13.2524" y="13.074" width="171.695" height="197.608" filterUnits="userSpaceOnUse" color-interpolation-filters="sRGB">
<feFlood flood-opacity="0" result="BackgroundImageFix"/>
<feColorMatrix in="SourceAlpha" type="matrix" values="0 0 0 0 0 0 0 0 0 0 0 0 0 0 0 0 0 0 127 0" result="hardAlpha"/>
<feOffset dy="3.24727"/>
<feGaussianBlur stdDeviation="3.24727"/>
<feColorMatrix type="matrix" values="0 0 0 0 0.184314 0 0 0 0 0.223529 0 0 0 0 0.254902 0 0 0 0.15 0"/>
<feBlend mode="normal" in2="BackgroundImageFix" result="effect1_dropShadow_2_151"/>
<feBlend mode="normal" in="SourceGraphic" in2="effect1_dropShadow_2_151" result="shape"/>
</filter>
<filter id="filter1_d_2_151" x="69.6735" y="100.985" width="35.1228" height="38.4661" filterUnits="userSpaceOnUse" color-interpolation-filters="sRGB">
<feFlood flood-opacity="0" result="BackgroundImageFix"/>
<feColorMatrix in="SourceAlpha" type="matrix" values="0 0 0 0 0 0 0 0 0 0 0 0 0 0 0 0 0 0 127 0" result="hardAlpha"/>
<feOffset dy="3.00001"/>
<feGaussianBlur stdDeviation="3.00001"/>
<feColorMatrix type="matrix" values="0 0 0 0 0.184314 0 0 0 0 0.223529 0 0 0 0 0.254902 0 0 0 0.15 0"/>
<feBlend mode="normal" in2="BackgroundImageFix" result="effect1_dropShadow_2_151"/>
<feBlend mode="normal" in="SourceGraphic" in2="effect1_dropShadow_2_151" result="shape"/>
</filter>
<filter id="filter2_d_2_151" x="63.7815" y="13.3213" width="120.672" height="116.118" filterUnits="userSpaceOnUse" color-interpolation-filters="sRGB">
<feFlood flood-opacity="0" result="BackgroundImageFix"/>
<feColorMatrix in="SourceAlpha" type="matrix" values="0 0 0 0 0 0 0 0 0 0 0 0 0 0 0 0 0 0 127 0" result="hardAlpha"/>
<feOffset dy="3.00001"/>
<feGaussianBlur stdDeviation="3.00001"/>
<feColorMatrix type="matrix" values="0 0 0 0 0.184314 0 0 0 0 0.223529 0 0 0 0 0.254902 0 0 0 0.15 0"/>
<feBlend mode="normal" in2="BackgroundImageFix" result="effect1_dropShadow_2_151"/>
<feBlend mode="normal" in="SourceGraphic" in2="effect1_dropShadow_2_151" result="shape"/>
</filter>
<filter id="filter3_d_2_151" x="67.0673" y="16.4812" width="114.084" height="109.799" filterUnits="userSpaceOnUse" color-interpolation-filters="sRGB">
<feFlood flood-opacity="0" result="BackgroundImageFix"/>
<feColorMatrix in="SourceAlpha" type="matrix" values="0 0 0 0 0 0 0 0 0 0 0 0 0 0 0 0 0 0 127 0" result="hardAlpha"/>
<feOffset dy="3.00001"/>
<feGaussianBlur stdDeviation="3.00001"/>
<feColorMatrix type="matrix" values="0 0 0 0 0.184314 0 0 0 0 0.223529 0 0 0 0 0.254902 0 0 0 0.15 0"/>
<feBlend mode="normal" in2="BackgroundImageFix" result="effect1_dropShadow_2_151"/>
<feBlend mode="normal" in="SourceGraphic" in2="effect1_dropShadow_2_151" result="shape"/>
</filter>
</defs>
</svg>
