<svg width="153" height="142" viewBox="0 0 153 142" fill="none" xmlns="http://www.w3.org/2000/svg">
<g opacity="0.2">
<path opacity="0.61" d="M14.5209 96.0507C10.1623 87.0634 9.79652 76.4612 13.8029 67.2254C15.3602 63.6243 17.5004 60.3201 20.1308 57.4562C27.9533 48.9541 40.0655 44.8813 51.1874 47.0656C57.7254 48.3451 64.1635 51.6321 70.7203 50.3632C79.237 48.7041 84.6347 40.1169 88.9899 32.3272C93.3452 24.5375 100.887 16.8017 109.304 14.5806C117.152 12.5131 128.905 14.0403 133.651 16.7179C151.755 26.9249 149.968 53.2943 144.198 67.0206C138.429 80.7469 131.925 89.4063 122.093 100.335C108.319 115.645 86.8936 123.163 66.7692 124.147C47.593 125.082 27.8079 116.31 16.8949 100.2C16.0066 98.8793 15.2131 97.4926 14.5209 96.0507Z" fill="#547B8E"/>
</g>
<path d="M87.5972 42.0768C94.0385 26.0774 104.566 10.3032 109.934 4.15625L114.349 4.41598C126.3 22.1915 134.608 37.6614 135.387 39.4795C134.175 40.7493 132.686 46.1114 133.31 45.9727C120.843 48.8817 99.4581 47.1848 90.1945 45.9727L87.5972 42.0768Z" fill="#FFC67F"/>
<path d="M136.265 41.4601L114.641 4.46374C113.458 2.43937 110.545 2.40263 109.311 4.39652L97.7267 23.1159L87.5509 41.5249C86.405 43.5978 87.9043 46.1396 90.2728 46.1396H133.58C135.981 46.1396 137.477 43.5335 136.265 41.4601Z" fill="#FFC67F"/>
<circle cx="111.616" cy="37.2712" r="3.22722" fill="#734A15"/>
<path d="M111.712 13.916V29.2533" stroke="#734A15" stroke-width="4.68" stroke-linecap="round"/>
<g filter="url(#filter0_d_12776_7755)">
<g filter="url(#filter1_d_12776_7755)">
<path d="M63.3709 70.7188C62.6431 70.3329 61.9477 69.9174 61.2867 69.4797L53.5598 82.3865C53.0837 83.1794 53.6595 84.3328 54.8447 84.96C56.03 85.5871 57.3744 85.4567 57.8501 84.6626L65.5758 71.7562C64.8401 71.4504 64.099 71.106 63.3709 70.7188Z" fill="#336179"/>
</g>
<path opacity="0.8" d="M63.5228 70.46C50.3526 63.47 45.9554 47.3099 53.7014 34.3653C61.4475 21.4208 78.4034 16.5937 91.5736 23.5837C104.744 30.5737 109.141 46.7339 101.395 59.6784C93.6489 72.6229 76.693 77.45 63.5228 70.46Z" fill="white"/>
<g filter="url(#filter2_d_12776_7755)">
<path d="M104.511 61.3442C95.7529 75.9768 76.5822 81.4312 61.695 73.5262C46.8078 65.6213 41.8392 47.353 50.5978 32.7203C59.3563 18.0877 78.5267 12.6321 93.4151 20.5367C108.304 28.4412 113.26 46.7146 104.511 61.3442ZM101.4 59.6918C109.147 46.7482 104.752 30.5876 91.5841 23.5957C78.4161 16.6038 61.4582 21.4287 53.7108 34.3723C45.9634 47.316 50.3568 63.4757 63.5264 70.4685C76.6961 77.4612 93.6455 72.6361 101.394 59.6933L101.4 59.6918Z" fill="#003A57"/>
</g>
<g filter="url(#filter3_d_12776_7755)">
<path d="M102.868 60.4768C94.6402 74.2215 76.6345 79.3446 62.6506 71.9202C48.6666 64.4959 43.9997 47.3354 52.2275 33.5895C60.4553 19.8436 78.4613 14.7218 92.4452 22.1461C106.429 29.5704 111.096 46.7322 102.868 60.4768ZM101.393 59.6935C109.14 46.7499 104.745 30.5893 91.5769 23.5974C78.4089 16.6055 61.451 21.4304 53.7036 34.374C45.9563 47.3177 50.3496 63.4774 63.5192 70.4702C76.6889 77.4629 93.6435 72.6363 101.393 59.6935V59.6935Z" fill="#547B8E"/>
</g>
<path d="M52.039 80.0464C50.7624 80.3972 49.649 81.1886 48.9159 82.272L48.7743 82.4926L48.773 82.4951L26.4081 119.553L26.279 119.778C25.9904 120.31 25.7959 120.887 25.707 121.482L25.676 121.737C25.6177 122.334 25.6662 122.935 25.8212 123.513C25.9984 124.174 26.3104 124.791 26.7383 125.327C27.1127 125.795 27.5685 126.192 28.0838 126.504L28.308 126.633L30.4162 127.769C31.0238 128.097 31.6934 128.303 32.3861 128.378C33.0787 128.453 33.7825 128.395 34.4578 128.209C35.1332 128.024 35.7694 127.713 36.3292 127.295C36.8892 126.876 37.364 126.355 37.7242 125.762L37.7258 125.76L60.0913 88.7009L60.091 88.7C60.8176 87.5019 61.0349 86.0779 60.6766 84.742C60.3181 83.4052 59.4181 82.2861 58.1901 81.6238L56.0806 80.4864L55.8483 80.3683C54.6732 79.808 53.316 79.6955 52.039 80.0464Z" fill="#003A57" stroke="#003A57" stroke-width="1.84771"/>
</g>
<defs>
<filter id="filter0_d_12776_7755" x="16.729" y="12.9121" width="100.102" height="128.423" filterUnits="userSpaceOnUse" color-interpolation-filters="sRGB">
<feFlood flood-opacity="0" result="BackgroundImageFix"/>
<feColorMatrix in="SourceAlpha" type="matrix" values="0 0 0 0 0 0 0 0 0 0 0 0 0 0 0 0 0 0 127 0" result="hardAlpha"/>
<feOffset dy="4"/>
<feGaussianBlur stdDeviation="4"/>
<feColorMatrix type="matrix" values="0 0 0 0 0.184314 0 0 0 0 0.223529 0 0 0 0 0.254902 0 0 0 0.15 0"/>
<feBlend mode="normal" in2="BackgroundImageFix" result="effect1_dropShadow_12776_7755"/>
<feBlend mode="normal" in="SourceGraphic" in2="effect1_dropShadow_12776_7755" result="shape"/>
</filter>
<filter id="filter1_d_12776_7755" x="46.0017" y="65.7841" width="26.9648" height="30.6587" filterUnits="userSpaceOnUse" color-interpolation-filters="sRGB">
<feFlood flood-opacity="0" result="BackgroundImageFix"/>
<feColorMatrix in="SourceAlpha" type="matrix" values="0 0 0 0 0 0 0 0 0 0 0 0 0 0 0 0 0 0 127 0" result="hardAlpha"/>
<feOffset dy="3.69543"/>
<feGaussianBlur stdDeviation="3.69543"/>
<feColorMatrix type="matrix" values="0 0 0 0 0.184314 0 0 0 0 0.223529 0 0 0 0 0.254902 0 0 0 0.15 0"/>
<feBlend mode="normal" in2="BackgroundImageFix" result="effect1_dropShadow_12776_7755"/>
<feBlend mode="normal" in="SourceGraphic" in2="effect1_dropShadow_12776_7755" result="shape"/>
</filter>
<filter id="filter2_d_12776_7755" x="38.8831" y="13.2167" width="77.3388" height="75.021" filterUnits="userSpaceOnUse" color-interpolation-filters="sRGB">
<feFlood flood-opacity="0" result="BackgroundImageFix"/>
<feColorMatrix in="SourceAlpha" type="matrix" values="0 0 0 0 0 0 0 0 0 0 0 0 0 0 0 0 0 0 127 0" result="hardAlpha"/>
<feOffset dy="3.69543"/>
<feGaussianBlur stdDeviation="3.69543"/>
<feColorMatrix type="matrix" values="0 0 0 0 0.184314 0 0 0 0 0.223529 0 0 0 0 0.254902 0 0 0 0.15 0"/>
<feBlend mode="normal" in2="BackgroundImageFix" result="effect1_dropShadow_12776_7755"/>
<feBlend mode="normal" in="SourceGraphic" in2="effect1_dropShadow_12776_7755" result="shape"/>
</filter>
<filter id="filter3_d_12776_7755" x="40.7747" y="15.0458" width="73.5468" height="71.3647" filterUnits="userSpaceOnUse" color-interpolation-filters="sRGB">
<feFlood flood-opacity="0" result="BackgroundImageFix"/>
<feColorMatrix in="SourceAlpha" type="matrix" values="0 0 0 0 0 0 0 0 0 0 0 0 0 0 0 0 0 0 127 0" result="hardAlpha"/>
<feOffset dy="3.69543"/>
<feGaussianBlur stdDeviation="3.69543"/>
<feColorMatrix type="matrix" values="0 0 0 0 0.184314 0 0 0 0 0.223529 0 0 0 0 0.254902 0 0 0 0.15 0"/>
<feBlend mode="normal" in2="BackgroundImageFix" result="effect1_dropShadow_12776_7755"/>
<feBlend mode="normal" in="SourceGraphic" in2="effect1_dropShadow_12776_7755" result="shape"/>
</filter>
</defs>
</svg>
