<svg width="471" height="166" viewBox="0 0 471 166" fill="none" xmlns="http://www.w3.org/2000/svg">
<g clip-path="url(#clip0_116_69944)">
<g opacity="0.6" clip-path="url(#clip1_116_69944)">
<path fill-rule="evenodd" clip-rule="evenodd" d="M295.371 103.681C299.671 150.022 195.386 180.248 105.625 159.154C15.8642 138.059 -25.3139 55.6834 17.5185 11.7902C60.3509 -32.1029 291.071 57.3399 295.371 103.681Z" fill="#F1F9F3"/>
</g>
<g style="mix-blend-mode:soft-light">
<path fill-rule="evenodd" clip-rule="evenodd" d="M355.672 108.837C355.792 108.873 355.902 108.935 355.997 109.017C356.091 109.1 356.166 109.202 356.218 109.316C356.269 109.43 356.296 109.554 356.296 109.679C356.296 109.805 356.269 109.929 356.217 110.043C355.961 110.648 355.363 110.56 354.831 110.458C353.221 110.224 351.586 110.213 349.973 110.425C346.563 110.819 343.365 111.919 340.067 112.689C336.829 113.584 333.402 113.531 330.192 112.538C327.132 111.486 324.211 110.097 321.143 109.02C318.449 108.084 315.625 107.089 312.721 107.642C309.949 108.163 307.529 109.791 304.941 110.856C299.623 112.961 293.867 113.716 288.186 113.057C285.523 112.872 282.895 112.338 280.371 111.469C278.925 110.929 276.973 110.208 276.105 108.817C275.707 108.174 275.676 107.153 276.439 106.755C277.202 106.357 278.13 106.912 278.814 107.144C281.78 108.121 284.858 108.716 287.974 108.914C290.985 109.211 294.021 109.105 297.004 108.6C299.733 108.029 302.371 107.087 304.843 105.798C307.41 104.52 309.994 103.181 312.883 102.887C315.773 102.592 318.643 103.482 321.344 104.584C324.203 105.717 326.938 107.071 329.669 108.439C332.199 109.819 335.063 110.463 337.94 110.3C343.879 109.938 349.693 107.701 355.672 108.837Z" fill="#E6EBEE"/>
<path fill-rule="evenodd" clip-rule="evenodd" d="M355.672 108.837C355.792 108.873 355.902 108.935 355.997 109.017C356.091 109.1 356.166 109.202 356.218 109.316C356.269 109.43 356.296 109.554 356.296 109.679C356.296 109.805 356.269 109.929 356.217 110.043C355.961 110.648 355.363 110.56 354.831 110.458C353.221 110.224 351.586 110.213 349.973 110.425C346.563 110.819 343.365 111.919 340.067 112.689C336.829 113.584 333.402 113.531 330.192 112.538C327.132 111.486 324.211 110.097 321.143 109.02C318.449 108.084 315.625 107.089 312.721 107.642C309.949 108.163 307.529 109.791 304.941 110.856C299.623 112.961 293.867 113.716 288.186 113.057C285.523 112.872 282.895 112.338 280.371 111.469C278.925 110.929 276.973 110.208 276.105 108.817C275.707 108.174 275.676 107.153 276.439 106.755C277.202 106.357 278.13 106.912 278.814 107.144C281.78 108.121 284.858 108.716 287.974 108.914C290.985 109.211 294.021 109.105 297.004 108.6C299.733 108.029 302.371 107.087 304.843 105.798C307.41 104.52 309.994 103.181 312.883 102.887C315.773 102.592 318.643 103.482 321.344 104.584C324.203 105.717 326.938 107.071 329.669 108.439C332.199 109.819 335.063 110.463 337.94 110.3C343.879 109.938 349.693 107.701 355.672 108.837Z" fill="url(#paint0_linear_116_69944)" fill-opacity="0.8" style="mix-blend-mode:color-burn"/>
<path fill-rule="evenodd" clip-rule="evenodd" d="M355.672 108.837C355.792 108.873 355.902 108.935 355.997 109.017C356.091 109.1 356.166 109.202 356.218 109.316C356.269 109.43 356.296 109.554 356.296 109.679C356.296 109.805 356.269 109.929 356.217 110.043C355.961 110.648 355.363 110.56 354.831 110.458C353.221 110.224 351.586 110.213 349.973 110.425C346.563 110.819 343.365 111.919 340.067 112.689C336.829 113.584 333.402 113.531 330.192 112.538C327.132 111.486 324.211 110.097 321.143 109.02C318.449 108.084 315.625 107.089 312.721 107.642C309.949 108.163 307.529 109.791 304.941 110.856C299.623 112.961 293.867 113.716 288.186 113.057C285.523 112.872 282.895 112.338 280.371 111.469C278.925 110.929 276.973 110.208 276.105 108.817C275.707 108.174 275.676 107.153 276.439 106.755C277.202 106.357 278.13 106.912 278.814 107.144C281.78 108.121 284.858 108.716 287.974 108.914C290.985 109.211 294.021 109.105 297.004 108.6C299.733 108.029 302.371 107.087 304.843 105.798C307.41 104.52 309.994 103.181 312.883 102.887C315.773 102.592 318.643 103.482 321.344 104.584C324.203 105.717 326.938 107.071 329.669 108.439C332.199 109.819 335.063 110.463 337.94 110.3C343.879 109.938 349.693 107.701 355.672 108.837Z" fill="#2F3941" fill-opacity="0.15" style="mix-blend-mode:multiply"/>
</g>
<g filter="url(#filter0_d_116_69944)">
<circle cx="392.649" cy="145.151" r="10.6619" fill="white"/>
<path d="M390.877 160.863C391.097 160.817 391.171 160.616 391.361 160.121C391.701 159.234 392.041 158.347 392.411 157.473C392.469 157.336 392.68 157.197 392.835 157.178C393.755 157.068 394.682 157.014 395.6 156.894C395.885 156.858 396.037 156.883 396.2 157.138C396.854 158.159 397.537 159.161 398.201 160.159C399.272 159.897 401.672 158.606 402.34 157.922C401.882 156.861 401.43 155.77 400.937 154.698C400.783 154.365 400.811 154.193 401.074 153.911C401.684 153.257 402.237 152.544 402.772 151.825C402.989 151.534 403.159 151.378 403.556 151.467C404.585 151.7 405.628 151.87 406.661 152.083C406.939 152.141 407.111 152.086 407.193 151.811C407.578 150.515 407.962 149.219 408.345 147.924C408.439 147.605 408.179 147.559 407.992 147.482C407.046 147.09 406.1 146.694 405.14 146.335C404.781 146.2 404.66 146.015 404.645 145.624C404.602 144.589 404.492 143.557 404.402 142.445L407.605 140.279C407.095 138.784 406.341 137.44 405.346 136.171L401.865 137.668C400.89 136.912 400.002 136.191 399.076 135.525C398.808 135.332 398.762 135.179 398.823 134.885C399.036 133.864 399.216 132.836 399.422 131.814C399.466 131.593 399.473 131.431 399.232 131.321C398.012 130.763 396.762 130.315 395.422 130.143C395.123 130.104 395.006 130.212 394.907 130.461C394.509 131.458 394.092 132.447 393.698 133.446C393.603 133.688 393.501 133.79 393.209 133.815C392.194 133.902 391.182 134.032 390.175 134.188C389.918 134.228 389.817 134.147 389.696 133.965C389.019 132.958 388.336 131.958 387.638 130.927C386.172 131.469 384.814 132.154 383.568 133.128L385.123 136.768L382.684 139.783C381.772 139.61 380.727 139.403 379.677 139.214C378.815 139.06 378.927 138.934 378.574 139.805C378.54 139.888 378.478 139.958 378.426 140.034L377.752 142.368C377.733 142.55 377.743 142.74 377.69 142.911C377.555 143.356 377.658 143.605 378.134 143.778C379.125 144.136 380.094 144.557 381.063 144.975C381.189 145.03 381.323 145.213 381.342 145.352C381.466 146.258 381.512 147.178 381.683 148.074C381.766 148.513 381.649 148.699 381.309 148.919C380.348 149.544 379.412 150.211 378.371 150.924L380.57 155.023C380.841 154.912 380.998 154.851 381.152 154.784C382.107 154.373 383.066 153.971 384.014 153.543C384.283 153.422 384.435 153.48 384.657 153.664C385.419 154.294 386.222 154.875 386.989 155.5C387.108 155.597 387.193 155.839 387.168 155.993C387.031 156.838 386.848 157.674 386.694 158.516C386.569 159.197 386.525 159.451 386.749 159.664L390.877 160.863ZM390.718 154.77C388.572 154.247 386.673 152.993 385.345 151.222C384.016 149.451 383.341 147.272 383.434 145.058C383.526 142.843 384.381 140.729 385.853 139.076C387.324 137.423 389.321 136.333 391.504 135.993C393.686 135.652 395.919 136.081 397.821 137.207C399.723 138.333 401.178 140.087 401.937 142.169C402.696 144.25 402.712 146.532 401.983 148.624C401.254 150.716 399.824 152.49 397.938 153.643C396.868 154.301 395.68 154.739 394.441 154.933C393.201 155.126 391.936 155.071 390.718 154.77V154.77Z" fill="#F4AC1A"/>
</g>
<g filter="url(#filter1_d_116_69944)">
<circle cx="367.751" cy="123.253" r="7.56649" fill="white"/>
<path d="M366.493 134.403C366.649 134.37 366.702 134.228 366.837 133.876C367.078 133.247 367.319 132.617 367.582 131.997C367.623 131.9 367.773 131.801 367.883 131.788C368.536 131.71 369.194 131.671 369.845 131.586C370.047 131.561 370.155 131.578 370.271 131.76C370.735 132.484 371.22 133.195 371.691 133.903C372.451 133.717 374.154 132.801 374.628 132.316C374.303 131.563 373.983 130.789 373.633 130.028C373.524 129.791 373.543 129.67 373.73 129.469C374.163 129.005 374.555 128.499 374.935 127.989C375.089 127.782 375.21 127.671 375.491 127.735C376.222 127.9 376.962 128.02 377.695 128.172C377.892 128.213 378.014 128.174 378.072 127.979C378.345 127.059 378.618 126.14 378.89 125.22C378.957 124.994 378.772 124.961 378.639 124.906C377.968 124.628 377.296 124.347 376.616 124.092C376.361 123.997 376.275 123.866 376.264 123.588C376.234 122.854 376.155 122.121 376.091 121.332L378.365 119.794C378.003 118.734 377.468 117.78 376.762 116.88L374.292 117.942C373.599 117.405 372.969 116.894 372.312 116.421C372.121 116.284 372.089 116.176 372.133 115.967C372.283 115.242 372.412 114.512 372.557 113.787C372.589 113.631 372.594 113.516 372.422 113.437C371.557 113.041 370.67 112.723 369.719 112.601C369.506 112.574 369.424 112.651 369.353 112.827C369.071 113.535 368.775 114.237 368.495 114.946C368.428 115.117 368.356 115.19 368.148 115.207C367.428 115.269 366.71 115.361 365.995 115.472C365.813 115.501 365.741 115.443 365.655 115.314C365.175 114.599 364.69 113.89 364.195 113.158C363.155 113.542 362.191 114.029 361.306 114.72L362.41 117.303L360.679 119.443C360.032 119.32 359.29 119.173 358.545 119.039C357.933 118.929 358.013 118.84 357.762 119.458C357.738 119.517 357.694 119.567 357.657 119.621L357.179 121.277C357.165 121.406 357.172 121.541 357.135 121.663C357.039 121.979 357.112 122.155 357.45 122.278C358.153 122.532 358.841 122.831 359.528 123.127C359.618 123.166 359.713 123.296 359.727 123.395C359.815 124.038 359.847 124.691 359.968 125.327C360.028 125.638 359.944 125.77 359.703 125.927C359.021 126.37 358.357 126.843 357.618 127.349L359.179 130.258C359.371 130.18 359.483 130.136 359.592 130.089C360.269 129.797 360.95 129.512 361.623 129.208C361.814 129.122 361.922 129.163 362.079 129.294C362.62 129.741 363.19 130.153 363.734 130.597C363.818 130.666 363.879 130.837 363.861 130.947C363.764 131.546 363.634 132.14 363.524 132.737C363.436 133.221 363.405 133.401 363.564 133.552L366.493 134.403ZM366.381 130.079C364.858 129.708 363.51 128.818 362.567 127.561C361.625 126.304 361.145 124.758 361.211 123.186C361.277 121.614 361.883 120.114 362.928 118.941C363.972 117.768 365.389 116.995 366.938 116.753C368.487 116.511 370.071 116.816 371.421 117.615C372.771 118.414 373.804 119.658 374.342 121.136C374.881 122.613 374.892 124.232 374.375 125.717C373.857 127.202 372.843 128.461 371.504 129.279C370.745 129.746 369.902 130.057 369.022 130.194C368.143 130.331 367.245 130.292 366.381 130.079V130.079Z" fill="#F4AC1A"/>
</g>
<g clip-path="url(#clip2_116_69944)">
<path d="M48.5 72.6125C48.5 69.5128 51.0128 67 54.1125 67H267.387C270.487 67 273 69.5128 273 72.6125V95.0625C273 98.1622 270.487 100.675 267.387 100.675H54.1125C51.0128 100.675 48.5 98.1622 48.5 95.0625V72.6125Z" fill="white"/>
<g clip-path="url(#clip3_116_69944)">
<rect x="56.9188" y="75.4188" width="94.0094" height="5.6125" rx="2.80625" fill="#336179"/>
<rect x="156.541" y="75.4186" width="20.3453" height="5.6125" rx="2.80625" fill="#336179"/>
<rect x="230.205" y="75.4188" width="12.2773" height="5.6125" rx="2.80625" fill="#FFC67F"/>
<rect x="250.901" y="75.4186" width="12.2773" height="5.6125" rx="2.80625" fill="#F6F6F8"/>
<rect x="56.9188" y="89.45" width="16.8375" height="5.6125" rx="2.80625" fill="#F6F6F8"/>
<rect x="82.175" y="89.45" width="16.8375" height="5.6125" rx="2.80625" fill="#F6F6F8"/>
<rect x="107.431" y="89.45" width="16.8375" height="5.6125" rx="2.80625" fill="#F6F6F8"/>
</g>
</g>
<g clip-path="url(#clip4_116_69944)">
<path d="M48 110.795C48 107.695 50.5128 105.183 53.6125 105.183H266.887C269.987 105.183 272.5 107.695 272.5 110.795V133.245C272.5 136.345 269.987 138.858 266.887 138.858H53.6125C50.5128 138.858 48 136.345 48 133.245V110.795Z" fill="white"/>
<g clip-path="url(#clip5_116_69944)">
<rect x="56.4187" y="113.602" width="94.0094" height="5.6125" rx="2.80625" fill="#336179"/>
<rect x="156.041" y="113.602" width="20.3453" height="5.6125" rx="2.80625" fill="#336179"/>
<rect x="229.705" y="113.602" width="12.2773" height="5.6125" rx="2.80625" fill="#FFC67F"/>
<rect x="250.401" y="113.602" width="12.2773" height="5.6125" rx="2.80625" fill="#F6F6F8"/>
<rect x="56.4187" y="127.633" width="16.8375" height="5.6125" rx="2.80625" fill="#F6F6F8"/>
<rect x="81.675" y="127.633" width="16.8375" height="5.6125" rx="2.80625" fill="#F6F6F8"/>
<rect x="106.931" y="127.633" width="16.8375" height="5.6125" rx="2.80625" fill="#F6F6F8"/>
</g>
</g>
<g clip-path="url(#clip6_116_69944)">
<path d="M48 149.612C48 146.513 50.5128 144 53.6125 144H266.887C269.987 144 272.5 146.513 272.5 149.613V172.063C272.5 175.162 269.987 177.675 266.887 177.675H53.6125C50.5128 177.675 48 175.162 48 172.063V149.612Z" fill="white"/>
<g clip-path="url(#clip7_116_69944)">
<rect x="56.4187" y="152.419" width="94.0094" height="5.6125" rx="2.80625" fill="#336179"/>
<rect x="156.041" y="152.419" width="20.3453" height="5.6125" rx="2.80625" fill="#336179"/>
<rect x="229.705" y="152.419" width="12.2773" height="5.6125" rx="2.80625" fill="#FFC67F"/>
<rect x="250.401" y="152.419" width="12.2773" height="5.6125" rx="2.80625" fill="#F6F6F8"/>
</g>
</g>
<g filter="url(#filter2_d_116_69944)">
<g clip-path="url(#clip8_116_69944)">
<path d="M80.5 41C80.5 36.5817 84.0817 33 88.5 33H392.5C396.918 33 400.5 36.5817 400.5 41V73C400.5 77.4183 396.918 81 392.5 81H88.5C84.0817 81 80.5 77.4183 80.5 73V41Z" fill="white"/>
<g clip-path="url(#clip9_116_69944)">
<rect x="92.5" y="45" width="134" height="8" rx="4" fill="#003A57"/>
<rect x="234.5" y="45" width="48" height="8" rx="4" fill="#003A57"/>
<rect x="290.5" y="45" width="29" height="8" rx="4" fill="#003A57"/>
<rect x="343.5" y="45" width="17.5" height="8" rx="4" fill="#D22F37"/>
<rect x="373" y="45" width="17.5" height="8" rx="4" fill="#E9EBED"/>
<rect x="92.5" y="65" width="24" height="8" rx="4" fill="#E9EBED"/>
<rect x="128.5" y="65" width="24" height="8" rx="4" fill="#E9EBED"/>
<rect x="164.5" y="65" width="24" height="8" rx="4" fill="#E9EBED"/>
</g>
</g>
</g>
<g filter="url(#filter3_d_116_69944)">
<path d="M18.5778 33.5823C17.7343 33.142 17.4163 32.0922 17.8332 31.237L19.1564 28.5228L18.3716 28.1402C17.2992 27.6174 16.3997 26.8825 15.6978 26.011L11.3034 27.5249C10.3916 27.839 9.39783 27.3545 9.08368 26.4427C8.76958 25.5309 9.25413 24.5371 10.1659 24.223L14.1595 22.8471C13.7668 21.1531 13.9306 19.3186 14.752 17.6337L26.72 23.4684C27.0451 23.6269 27.4371 23.4919 27.5956 23.1668L28.1695 21.9896C28.3279 21.6646 28.1929 21.2726 27.8678 21.1141L15.8999 15.2793C16.7213 13.5945 18.0657 12.3355 19.6421 11.6015L18.2662 7.60787C17.9521 6.69602 18.4367 5.70226 19.3484 5.3881C20.2602 5.07403 21.254 5.55853 21.5682 6.47028L23.0821 10.8646C24.2009 10.8809 25.334 11.1369 26.4064 11.6597L27.1912 12.0423L28.5144 9.32825C28.9313 8.47303 29.9543 8.07699 30.8206 8.47034C31.7195 8.87841 32.0992 9.9445 31.6694 10.826L30.3303 13.5728L33.2117 14.9775L36.6138 13.8055C37.5256 13.4914 38.5193 13.9759 38.8335 14.8877C39.1476 15.7995 38.6631 16.7932 37.7513 17.1074L33.7655 18.4805L28.2778 29.7367L29.6509 33.7224C29.965 34.6343 29.4805 35.628 28.5687 35.9422C27.6569 36.2563 26.6631 35.7718 26.349 34.86L25.177 31.458L22.2956 30.0533L20.9565 32.8C20.5267 33.6815 19.453 34.039 18.5778 33.5823ZM38.8456 27.9838C40.3248 24.9498 39.0643 21.2912 36.0304 19.812L30.6739 30.799C33.7078 32.2782 37.3665 31.0177 38.8456 27.9838Z" fill="#2B8473"/>
<path d="M11.6043 28.3984L11.6043 28.3984C10.2101 28.8786 8.69058 28.1378 8.21022 26.7437L8.2102 26.7436C7.72992 25.3493 8.47082 23.8298 9.86493 23.3495L9.86496 23.3495L13.1094 22.2318C12.8885 20.5774 13.1356 18.841 13.9216 17.2288L14.3265 16.3984L15.1569 16.8033L26.883 22.5201L27.2212 21.8266L15.495 16.1098L14.6646 15.7049L15.0694 14.8745C15.8554 13.2624 17.0712 11.9981 18.5105 11.1532L17.3928 7.90879L17.3928 7.90876C16.9125 6.51449 17.6534 4.99499 19.0475 4.51464L19.0476 4.51462C20.4417 4.03437 21.9613 4.7752 22.4416 6.16933L22.4416 6.16936L23.7528 9.97517C24.7719 10.0669 25.7914 10.3391 26.7655 10.8072L27.6839 8.92339C28.309 7.64136 29.8577 7.01854 31.2025 7.62911L11.6043 28.3984ZM11.6043 28.3984L15.4101 27.0872C16.1101 27.8336 16.9524 28.4691 17.9212 28.9483M11.6043 28.3984L17.9212 28.9483M17.9212 28.9483L17.0028 30.8321C16.3778 32.1142 16.841 33.7179 18.1503 34.4013C19.4879 35.0994 21.1298 34.5526 21.7869 33.2049L22.7211 31.2885L24.4281 32.1208L25.4755 35.1609L25.4755 35.161C25.9559 36.5551 27.4754 37.2959 28.8696 36.8157L28.8697 36.8157C30.2639 36.3353 31.0047 34.8158 30.5244 33.4216L30.5244 33.4215L29.8339 31.4173L30.269 31.6294C33.7616 33.3322 37.9733 31.8812 39.676 28.3886C41.3788 24.896 39.9278 20.6843 36.4352 18.9816L35.902 18.7216L38.0522 17.9809L38.0523 17.9809C39.4465 17.5005 40.1873 15.981 39.707 14.5868L39.707 14.5867C39.2266 13.1926 37.7071 12.4517 36.3129 12.932L36.3129 12.932L33.2726 13.9794L31.5656 13.1472L32.4999 11.2309C33.1569 9.88311 32.5764 8.25283 31.2026 7.62913L17.9212 28.9483ZM34.4283 19.2293L35.4599 18.874L35.1999 19.4072L29.8434 30.3942L29.6313 30.8292L29.2759 29.7976L34.4283 19.2293Z" stroke="white" stroke-width="1.84771"/>
</g>
</g>
<defs>
<filter id="filter0_d_116_69944" x="369.546" y="126.09" width="46.9081" height="46.9067" filterUnits="userSpaceOnUse" color-interpolation-filters="sRGB">
<feFlood flood-opacity="0" result="BackgroundImageFix"/>
<feColorMatrix in="SourceAlpha" type="matrix" values="0 0 0 0 0 0 0 0 0 0 0 0 0 0 0 0 0 0 127 0" result="hardAlpha"/>
<feOffset dy="4.04466"/>
<feGaussianBlur stdDeviation="4.04466"/>
<feColorMatrix type="matrix" values="0 0 0 0 0.184314 0 0 0 0 0.223529 0 0 0 0 0.254902 0 0 0 0.15 0"/>
<feBlend mode="normal" in2="BackgroundImageFix" result="effect1_dropShadow_116_69944"/>
<feBlend mode="normal" in="SourceGraphic" in2="effect1_dropShadow_116_69944" result="shape"/>
</filter>
<filter id="filter1_d_116_69944" x="351.355" y="109.725" width="33.2896" height="33.2886" filterUnits="userSpaceOnUse" color-interpolation-filters="sRGB">
<feFlood flood-opacity="0" result="BackgroundImageFix"/>
<feColorMatrix in="SourceAlpha" type="matrix" values="0 0 0 0 0 0 0 0 0 0 0 0 0 0 0 0 0 0 127 0" result="hardAlpha"/>
<feOffset dy="2.8704"/>
<feGaussianBlur stdDeviation="2.8704"/>
<feColorMatrix type="matrix" values="0 0 0 0 0.184314 0 0 0 0 0.223529 0 0 0 0 0.254902 0 0 0 0.15 0"/>
<feBlend mode="normal" in2="BackgroundImageFix" result="effect1_dropShadow_116_69944"/>
<feBlend mode="normal" in="SourceGraphic" in2="effect1_dropShadow_116_69944" result="shape"/>
</filter>
<filter id="filter2_d_116_69944" x="52.5" y="25" width="376" height="104" filterUnits="userSpaceOnUse" color-interpolation-filters="sRGB">
<feFlood flood-opacity="0" result="BackgroundImageFix"/>
<feColorMatrix in="SourceAlpha" type="matrix" values="0 0 0 0 0 0 0 0 0 0 0 0 0 0 0 0 0 0 127 0" result="hardAlpha"/>
<feOffset dy="20"/>
<feGaussianBlur stdDeviation="14"/>
<feColorMatrix type="matrix" values="0 0 0 0 0.184314 0 0 0 0 0.223529 0 0 0 0 0.254902 0 0 0 0.15 0"/>
<feBlend mode="normal" in2="BackgroundImageFix" result="effect1_dropShadow_116_69944"/>
<feBlend mode="normal" in="SourceGraphic" in2="effect1_dropShadow_116_69944" result="shape"/>
</filter>
<filter id="filter3_d_116_69944" x="-0.860229" y="-0.555786" width="50.1735" height="50.4419" filterUnits="userSpaceOnUse" color-interpolation-filters="sRGB">
<feFlood flood-opacity="0" result="BackgroundImageFix"/>
<feColorMatrix in="SourceAlpha" type="matrix" values="0 0 0 0 0 0 0 0 0 0 0 0 0 0 0 0 0 0 127 0" result="hardAlpha"/>
<feOffset dy="4"/>
<feGaussianBlur stdDeviation="4"/>
<feColorMatrix type="matrix" values="0 0 0 0 0.184314 0 0 0 0 0.223529 0 0 0 0 0.254902 0 0 0 0.15 0"/>
<feBlend mode="normal" in2="BackgroundImageFix" result="effect1_dropShadow_116_69944"/>
<feBlend mode="normal" in="SourceGraphic" in2="effect1_dropShadow_116_69944" result="shape"/>
</filter>
<linearGradient id="paint0_linear_116_69944" x1="287.239" y1="105.945" x2="340.08" y2="123.73" gradientUnits="userSpaceOnUse">
<stop offset="0.213542" stop-color="#323444"/>
<stop offset="0.6875" stop-color="#2F3941" stop-opacity="0.291667"/>
<stop offset="1" stop-color="#2F3941" stop-opacity="0"/>
</linearGradient>
<clipPath id="clip0_116_69944">
<rect width="470" height="166" fill="white" transform="translate(0.5)"/>
</clipPath>
<clipPath id="clip1_116_69944">
<rect width="470" height="166" fill="white" transform="translate(0.5)"/>
</clipPath>
<clipPath id="clip2_116_69944">
<path d="M48.5 72.6125C48.5 69.5128 51.0128 67 54.1125 67H267.387C270.487 67 273 69.5128 273 72.6125V95.0625C273 98.1622 270.487 100.675 267.387 100.675H54.1125C51.0128 100.675 48.5 98.1622 48.5 95.0625V72.6125Z" fill="white"/>
</clipPath>
<clipPath id="clip3_116_69944">
<rect x="48.5" y="67" width="224.5" height="33.675" rx="16.8375" fill="white"/>
</clipPath>
<clipPath id="clip4_116_69944">
<path d="M48 110.795C48 107.695 50.5128 105.183 53.6125 105.183H266.887C269.987 105.183 272.5 107.695 272.5 110.795V133.245C272.5 136.345 269.987 138.858 266.887 138.858H53.6125C50.5128 138.858 48 136.345 48 133.245V110.795Z" fill="white"/>
</clipPath>
<clipPath id="clip5_116_69944">
<rect x="48" y="105.183" width="224.5" height="33.675" rx="16.8375" fill="white"/>
</clipPath>
<clipPath id="clip6_116_69944">
<path d="M48 149.612C48 146.513 50.5128 144 53.6125 144H266.887C269.987 144 272.5 146.513 272.5 149.613V172.063C272.5 175.162 269.987 177.675 266.887 177.675H53.6125C50.5128 177.675 48 175.162 48 172.063V149.612Z" fill="white"/>
</clipPath>
<clipPath id="clip7_116_69944">
<rect x="48" y="144" width="224.5" height="33.675" rx="16.8375" fill="white"/>
</clipPath>
<clipPath id="clip8_116_69944">
<path d="M80.5 41C80.5 36.5817 84.0817 33 88.5 33H392.5C396.918 33 400.5 36.5817 400.5 41V73C400.5 77.4183 396.918 81 392.5 81H88.5C84.0817 81 80.5 77.4183 80.5 73V41Z" fill="white"/>
</clipPath>
<clipPath id="clip9_116_69944">
<rect x="80.5" y="33" width="320" height="48" rx="24" fill="white"/>
</clipPath>
</defs>
</svg>
