<svg width="54" height="54" viewBox="0 0 64 64" fill="none" xmlns="http://www.w3.org/2000/svg">
	<path d="M43.1834 7.53811C36.8101 4.76911 29.5271 6.12547 23.1719 8.85399C17.0324 11.4899 12.1248 16.1034 9.32025 22.0768C6.41481 28.265 5.2956 35.3075 7.74207 41.7175C10.2494 48.2869 15.5993 53.6527 22.3013 56.0886C28.7265 58.4239 35.6688 56.8209 41.9188 54.1395C47.9405 51.5559 53.3746 47.5795 55.9592 41.6482C58.5547 35.6919 57.8142 29.0186 55.5266 22.9111C53.1448 16.5518 49.4973 10.2813 43.1834 7.53811Z" fill="#E3F2F9" />
	<g filter="url(#filter0_d_613_15521)">
		<path fill-rule="evenodd" clip-rule="evenodd" d="M31.1527 48.4926C30.7941 48.4926 30.4201 48.4084 30.0923 48.1536C29.3091 47.5513 29.4675 46.5689 29.5291 46.1976L29.7623 44.764C29.8481 44.1142 29.7865 43.9048 29.7755 43.8767C29.7929 43.9241 29.73 43.9051 29.5876 43.8621C29.4772 43.8287 29.319 43.781 29.1133 43.7385C20.6499 42.6374 14.4437 36.7348 14.4437 29.7159C14.4437 21.8745 22.3395 15.4926 32.0437 15.4926C41.7479 15.4926 49.6437 21.8745 49.6437 29.7159C49.6437 32.8853 48.4051 35.7568 45.8531 38.4965C42.3001 42.5036 34.4175 47.3893 32.4881 48.1774L32.4734 48.1834C32.2333 48.2813 31.7151 48.4926 31.1527 48.4926Z" fill="white" />
		<path d="M30.706 47.364L30.702 47.3609C30.5715 47.2606 30.5096 47.134 30.4846 46.9525C30.4565 46.7487 30.4856 46.5422 30.5156 46.3612L30.5162 46.3581L30.7494 44.9246C30.751 44.9147 30.7524 44.9048 30.7537 44.8949C30.8457 44.1981 30.8122 43.7813 30.7066 43.5118C30.553 43.12 30.1792 42.8791 29.7819 42.8764C29.6665 42.8426 29.5079 42.7989 29.3154 42.7591C29.2912 42.7541 29.2668 42.7501 29.2423 42.7469C21.1148 41.6895 15.4437 36.0843 15.4437 29.7159C15.4437 22.6152 22.6824 16.4926 32.0437 16.4926C41.4051 16.4926 48.6437 22.6152 48.6437 29.7159C48.6437 32.5877 47.534 35.2248 45.1214 37.8149C45.1158 37.8209 45.1103 37.8269 45.1049 37.8331C43.412 39.7423 40.6357 41.9098 37.9963 43.7193C35.3458 45.5364 32.9681 46.9011 32.11 47.2516L32.0962 47.2572L32.0958 47.2574C31.8505 47.3574 31.4975 47.4926 31.1527 47.4926C30.9513 47.4926 30.813 47.4472 30.706 47.364Z" stroke="white" stroke-width="2" stroke-linejoin="round" />
	</g>
	<path d="M30.2569 36.3196C30.1464 36.5866 30.0895 36.8726 30.0895 37.1615C30.0895 37.745 30.3213 38.3046 30.7338 38.7172C31.1464 39.1298 31.706 39.3615 32.2895 39.3615C32.873 39.3615 33.4325 39.1298 33.8451 38.7172C34.2577 38.3046 34.4895 37.745 34.4895 37.1615C34.4895 36.8726 34.4326 36.5866 34.322 36.3196C34.2115 36.0527 34.0494 35.8102 33.8451 35.6059C33.6408 35.4016 33.3983 35.2396 33.1314 35.129C32.8645 35.0185 32.5784 34.9615 32.2895 34.9615C32.0006 34.9615 31.7145 35.0185 31.4476 35.129C31.1807 35.2396 30.9381 35.4016 30.7338 35.6059C30.5296 35.8102 30.3675 36.0527 30.2569 36.3196Z" fill="#1466A9" />
	<path d="M30.3913 23.1269C30.3052 23.3924 30.2758 23.673 30.3051 23.9505L31.0751 31.6659C31.1009 31.969 31.2396 32.2514 31.4637 32.4571C31.6878 32.6629 31.9809 32.7771 32.2851 32.7771C32.5893 32.7771 32.8824 32.6629 33.1065 32.4571C33.3305 32.2514 33.4692 31.969 33.4951 31.6659L34.2651 23.9505C34.2944 23.673 34.265 23.3924 34.1788 23.1269C34.0927 22.8615 33.9517 22.6171 33.765 22.4096C33.5783 22.2022 33.35 22.0363 33.0951 21.9228C32.8401 21.8092 32.5642 21.7505 32.2851 21.7505C32.006 21.7505 31.73 21.8092 31.4751 21.9228C31.2201 22.0363 30.9919 22.2022 30.8052 22.4096C30.6185 22.6171 30.4775 22.8615 30.3913 23.1269Z" fill="#1466A9" />
	<defs>
		<filter id="filter0_d_613_15521" x="6.44373" y="11.4926" width="51.2" height="49" filterUnits="userSpaceOnUse" color-interpolation-filters="sRGB">
			<feFlood flood-opacity="0" result="BackgroundImageFix" />
			<feColorMatrix in="SourceAlpha" type="matrix" values="0 0 0 0 0 0 0 0 0 0 0 0 0 0 0 0 0 0 127 0" result="hardAlpha" />
			<feOffset dy="4" />
			<feGaussianBlur stdDeviation="4" />
			<feColorMatrix type="matrix" values="0 0 0 0 0.184314 0 0 0 0 0.223529 0 0 0 0 0.254902 0 0 0 0.15 0" />
			<feBlend mode="normal" in2="BackgroundImageFix" result="effect1_dropShadow_613_15521" />
			<feBlend mode="normal" in="SourceGraphic" in2="effect1_dropShadow_613_15521" result="shape" />
		</filter>
	</defs>
</svg>
