<svg width="54" height="54" viewBox="0 0 64 64" fill="none" xmlns="http://www.w3.org/2000/svg">
	<path d="M20.8168 7.53811C27.1901 4.76911 34.4731 6.12547 40.8283 8.85399C46.9679 11.4899 51.8754 16.1034 54.68 22.0768C57.5854 28.265 58.7046 35.3075 56.2582 41.7175C53.7509 48.2869 48.4009 53.6527 41.699 56.0886C35.2738 58.4239 28.3315 56.8209 22.0815 54.1395C16.0597 51.5559 10.6256 47.5795 8.04106 41.6482C5.44554 35.6919 6.18608 29.0186 8.4736 22.9111C10.8555 16.5518 14.503 10.2813 20.8168 7.53811Z" fill="#D3ECDB" />
	<path fill-rule="evenodd" clip-rule="evenodd" d="M23.6934 28.3194C26.7198 28.3194 29.1731 25.866 29.1731 22.8397C29.1731 19.8133 26.7198 17.36 23.6934 17.36C20.6671 17.36 18.2137 19.8133 18.2137 22.8397C18.2137 25.866 20.6671 28.3194 23.6934 28.3194ZM29.8964 37.0869H17.4904C17.1397 37.0869 16.8109 36.9116 16.5917 36.6266C16.3953 36.3286 16.3468 35.9568 16.4602 35.6183C17.5508 32.5593 20.4457 30.5152 23.6934 30.5113C26.9374 30.5113 29.8526 32.5716 30.9266 35.6403C31.0362 35.969 30.9924 36.3417 30.7951 36.6485C30.5978 36.9116 30.2471 37.0869 29.8964 37.0869Z" fill="#549268" />
	<g filter="url(#filter0_d_613_15561)">
		<path fill-rule="evenodd" clip-rule="evenodd" d="M43.9371 28.4956C43.9371 32.1272 40.993 35.0713 37.3614 35.0713C33.7298 35.0713 30.7858 32.1272 30.7858 28.4956C30.7858 24.864 33.7298 21.92 37.3614 21.92C40.993 21.92 43.9371 24.864 43.9371 28.4956ZM27.5637 48.2225C27.2569 48.2225 26.95 48.091 26.7527 47.8499C26.5555 47.6088 26.4459 47.302 26.4897 46.9951C27.0596 41.4496 31.7502 37.2631 37.3395 37.2631C42.9288 37.2631 47.5975 41.4496 48.2112 47.017C48.2551 47.3239 48.1455 47.6307 47.9482 47.8718C47.7509 48.1129 47.4222 48.2225 47.1153 48.2225H27.5637Z" fill="white" />
		<path d="M27.0837 47.0799C27.0848 47.0721 27.0857 47.0643 27.0866 47.0564C27.6246 41.821 32.0537 37.8631 37.3395 37.8631C42.6221 37.8631 47.0346 41.8187 47.6148 47.0828C47.6151 47.0851 47.6154 47.0874 47.6157 47.0897C47.6161 47.0938 47.6167 47.0978 47.6173 47.1019C47.6328 47.2107 47.597 47.3536 47.4838 47.4919C47.4346 47.5521 47.3039 47.6225 47.1153 47.6225H27.5637C27.4198 47.6225 27.29 47.5591 27.2171 47.47C27.104 47.3317 27.0681 47.1888 27.0837 47.0799ZM43.3371 28.4956C43.3371 31.7959 40.6617 34.4713 37.3614 34.4713C34.0612 34.4713 31.3858 31.7959 31.3858 28.4956C31.3858 25.1954 34.0612 22.52 37.3614 22.52C40.6617 22.52 43.3371 25.1954 43.3371 28.4956Z" stroke="white" stroke-width="1.2" stroke-linejoin="round" />
	</g>
	<defs>
		<filter id="filter0_d_613_15561" x="21.6801" y="19.52" width="31.3407" height="35.9026" filterUnits="userSpaceOnUse" color-interpolation-filters="sRGB">
			<feFlood flood-opacity="0" result="BackgroundImageFix" />
			<feColorMatrix in="SourceAlpha" type="matrix" values="0 0 0 0 0 0 0 0 0 0 0 0 0 0 0 0 0 0 127 0" result="hardAlpha" />
			<feOffset dy="2.4" />
			<feGaussianBlur stdDeviation="2.4" />
			<feColorMatrix type="matrix" values="0 0 0 0 0.184314 0 0 0 0 0.223529 0 0 0 0 0.254902 0 0 0 0.15 0" />
			<feBlend mode="normal" in2="BackgroundImageFix" result="effect1_dropShadow_613_15561" />
			<feBlend mode="normal" in="SourceGraphic" in2="effect1_dropShadow_613_15561" result="shape" />
		</filter>
	</defs>
</svg>
