<svg width="498" height="232" viewBox="0 0 498 232" fill="none" xmlns="http://www.w3.org/2000/svg">
<path opacity="0.6" fill-rule="evenodd" clip-rule="evenodd" d="M483.121 170.01C483.668 216.851 314.961 224.425 176.096 184.261C37.2315 144.098 -16.6818 53.6369 56.8496 19.3347C130.381 -14.9676 482.573 123.168 483.121 170.01Z" fill="#B3E8D9"/>
<g filter="url(#filter0_d_2_19840)">
<rect x="8.71289" y="4" width="219.95" height="83" rx="8" fill="white"/>
<rect x="9.21289" y="4.5" width="218.95" height="82" rx="7.5" stroke="#E9EBED"/>
<rect x="24.7129" y="20" width="108" height="6" rx="3" fill="#87929D"/>
<rect x="24.7129" y="33" width="187.95" height="1" fill="#D8DCDE"/>
<rect x="26.7129" y="42" width="39" height="2" transform="rotate(90 26.7129 42)" fill="#D8DCDE"/>
<rect x="34.7129" y="50" width="56" height="8" rx="4" fill="#8AA4B2"/>
<rect x="34.7129" y="65.5" width="189" height="11" rx="5.5" fill="#547B8E"/>
</g>
<g filter="url(#filter1_d_2_19840)">
<rect x="244.305" y="20.9999" width="219.95" height="187" rx="8" fill="white"/>
<rect x="244.805" y="21.4999" width="218.95" height="186" rx="7.5" stroke="#E9EBED"/>
<rect x="260.305" y="36.9999" width="28" height="28" rx="14" fill="#F6F6F8"/>
<path d="M275.54 56.5588C275.54 55.8766 274.987 55.3235 274.305 55.3235C273.623 55.3235 273.07 55.8766 273.07 56.5588V60.2647C273.07 60.9469 273.623 61.5 274.305 61.5C274.987 61.5 275.54 60.9469 275.54 60.2647V56.5588Z" fill="#D1820A"/>
<path d="M279.105 54.0547C278.623 53.5723 277.841 53.5723 277.358 54.0547C276.876 54.5371 276.876 55.3193 277.358 55.8017L279.98 58.4236C280.463 58.906 281.245 58.906 281.727 58.4236C282.21 57.9412 282.21 57.159 281.727 56.6766L279.105 54.0547Z" fill="#D1820A"/>
<path d="M279.864 49.7647C279.182 49.7647 278.628 50.3177 278.628 51C278.628 51.6822 279.182 52.2353 279.864 52.2353H283.57C284.252 52.2353 284.805 51.6822 284.805 51C284.805 50.3177 284.252 49.7647 283.57 49.7647H279.864Z" fill="#D1820A"/>
<path d="M271.249 54.0547C271.732 54.5371 271.732 55.3193 271.249 55.8017L268.627 58.4236C268.145 58.906 267.363 58.906 266.88 58.4236C266.398 57.9412 266.398 57.159 266.88 56.6766L269.502 54.0547C269.985 53.5723 270.767 53.5723 271.249 54.0547Z" fill="#D1820A"/>
<path d="M279.105 54.0547C278.623 53.5723 277.841 53.5723 277.358 54.0547C276.876 54.5371 276.876 55.3193 277.358 55.8017L279.98 58.4236C280.463 58.906 281.245 58.906 281.727 58.4236C282.21 57.9412 282.21 57.159 281.727 56.6766L279.105 54.0547Z" fill="#FBE1AC"/>
<path d="M279.864 49.7647C279.182 49.7647 278.628 50.3177 278.628 51C278.628 51.6822 279.182 52.2353 279.864 52.2353H283.57C284.252 52.2353 284.805 51.6822 284.805 51C284.805 50.3177 284.252 49.7647 283.57 49.7647H279.864Z" fill="#FBE1AC"/>
<path d="M274.305 40.5C274.987 40.5 275.54 41.0531 275.54 41.7353V45.4412C275.54 46.1234 274.987 46.6765 274.305 46.6765C273.622 46.6765 273.069 46.1234 273.069 45.4412V41.7353C273.069 41.0531 273.622 40.5 274.305 40.5Z" fill="#F7BF50"/>
<path d="M266.88 43.5763C267.363 43.0939 268.145 43.0939 268.627 43.5763L271.249 46.1982C271.731 46.6806 271.731 47.4628 271.249 47.9452C270.767 48.4276 269.984 48.4276 269.502 47.9452L266.88 45.3233C266.398 44.8409 266.398 44.0587 266.88 43.5763Z" fill="#F7BF50"/>
<path d="M263.805 51C263.805 50.3178 264.358 49.7647 265.04 49.7647H268.746C269.428 49.7647 269.981 50.3178 269.981 51C269.981 51.6822 269.428 52.2353 268.746 52.2353H265.04C264.358 52.2353 263.805 51.6822 263.805 51Z" fill="#F7BF50"/>
<path d="M281.727 45.3233C282.209 44.8409 282.209 44.0587 281.727 43.5763C281.245 43.0939 280.463 43.0939 279.98 43.5763L277.358 46.1982C276.876 46.6806 276.876 47.4628 277.358 47.9452C277.841 48.4276 278.623 48.4276 279.105 47.9452L281.727 45.3233Z" fill="#F7BF50"/>
<rect x="293.305" y="43" width="117" height="16" rx="8" fill="#F6F6F8"/>
<rect x="297.305" y="47" width="89" height="8" rx="4" fill="#8AA4B2"/>
<rect x="260.305" y="94" width="64" height="8" rx="4" fill="#87929D"/>
<rect x="260.305" y="135" width="108" height="8" rx="4" fill="#87929D"/>
<rect x="260.305" y="155.5" width="187.95" height="15" rx="7.5" fill="#547B8E"/>
<rect x="260.305" y="191" width="187.95" height="1" fill="#D8DCDE"/>
</g>
<defs>
<filter id="filter0_d_2_19840" x="0.712891" y="0" width="235.949" height="99" filterUnits="userSpaceOnUse" color-interpolation-filters="sRGB">
<feFlood flood-opacity="0" result="BackgroundImageFix"/>
<feColorMatrix in="SourceAlpha" type="matrix" values="0 0 0 0 0 0 0 0 0 0 0 0 0 0 0 0 0 0 127 0" result="hardAlpha"/>
<feOffset dy="4"/>
<feGaussianBlur stdDeviation="4"/>
<feColorMatrix type="matrix" values="0 0 0 0 0.184314 0 0 0 0 0.223529 0 0 0 0 0.254902 0 0 0 0.15 0"/>
<feBlend mode="normal" in2="BackgroundImageFix" result="effect1_dropShadow_2_19840"/>
<feBlend mode="normal" in="SourceGraphic" in2="effect1_dropShadow_2_19840" result="shape"/>
</filter>
<filter id="filter1_d_2_19840" x="236.305" y="16.9999" width="258" height="203" filterUnits="userSpaceOnUse" color-interpolation-filters="sRGB">
<feFlood flood-opacity="0" result="BackgroundImageFix"/>
<feColorMatrix in="SourceAlpha" type="matrix" values="0 0 0 0 0 0 0 0 0 0 0 0 0 0 0 0 0 0 127 0" result="hardAlpha"/>
<feOffset dy="4"/>
<feGaussianBlur stdDeviation="4"/>
<feColorMatrix type="matrix" values="0 0 0 0 0.184314 0 0 0 0 0.223529 0 0 0 0 0.254902 0 0 0 0.15 0"/>
<feBlend mode="normal" in2="BackgroundImageFix" result="effect1_dropShadow_2_19840"/>
<feBlend mode="normal" in="SourceGraphic" in2="effect1_dropShadow_2_19840" result="shape"/>
</filter>
</defs>
</svg>
