<svg width="24" height="24" viewBox="0 0 24 24" fill="none" xmlns="http://www.w3.org/2000/svg">
	<path d="M18.5545 21.8184H7.41627C6.69627 21.8184 6.10718 21.2293 6.10718 20.5093V5.50929C6.10718 4.78929 6.69627 4.2002 7.41627 4.2002H18.5545C19.2745 4.2002 19.8635 4.78929 19.8635 5.50929V20.5093C19.8635 21.2293 19.2745 21.8184 18.5545 21.8184Z" fill="#BBDDF2" />
	<path d="M13.3727 16.5816H6.93632C6.63087 16.5816 6.39087 16.3416 6.39087 16.0361C6.39087 15.7306 6.63087 15.4906 6.93632 15.4906H13.3727C13.6781 15.4906 13.9181 15.7306 13.9181 16.0361C13.9181 16.3416 13.6672 16.5816 13.3727 16.5816ZM15.5545 11.9779H6.93632C6.63087 11.9779 6.39087 11.7379 6.39087 11.4325C6.39087 11.127 6.63087 10.887 6.93632 10.887H15.5545C15.86 10.887 16.1 11.127 16.1 11.4325C16.1 11.7379 15.8491 11.9779 15.5545 11.9779ZM15.5545 7.36337H6.93632C6.63087 7.36337 6.39087 7.12337 6.39087 6.81792C6.39087 6.51246 6.63087 6.27246 6.93632 6.27246H15.5545C15.86 6.27246 16.1 6.51246 16.1 6.81792C16.1 7.12337 15.8491 7.36337 15.5545 7.36337Z" fill="#1466A9" />
	<path d="M16.8092 20.5093H5.68194C4.65648 20.5093 3.82739 19.6802 3.82739 18.6548V3.81841C3.82739 2.79296 4.65648 1.96387 5.68194 1.96387H16.8092C17.8347 1.96387 18.6638 2.79296 18.6638 3.81841V7.80023C18.6638 8.10569 18.4238 8.34569 18.1183 8.34569C17.8128 8.34569 17.5728 8.10569 17.5728 7.80023V3.81841C17.5728 3.39296 17.2347 3.05478 16.8092 3.05478H5.68194C5.25648 3.05478 4.9183 3.39296 4.9183 3.81841V18.6548C4.9183 19.0802 5.25648 19.4184 5.68194 19.4184H16.8092C17.2347 19.4184 17.5728 19.0802 17.5728 18.6548V15.9275C17.5728 15.6221 17.8128 15.382 18.1183 15.382C18.4238 15.382 18.6638 15.6221 18.6638 15.9275V18.6548C18.6638 19.6802 17.8347 20.5093 16.8092 20.5093Z" fill="#1466A9" />
	<path d="M15.5546 13.68L14.6492 15.4909L16.5692 14.64L15.5546 13.68ZM20.5204 8.4502L21.5447 9.43125L16.6927 14.4971L15.6685 13.5162L20.5204 8.4502Z" fill="#1466A9" />
	<path d="M20.5094 8.45483C20.4489 8.52106 20.4461 8.63495 20.5015 8.77146C20.5569 8.90797 20.6661 9.05591 20.805 9.18273C20.9438 9.30955 21.101 9.40487 21.242 9.44772C21.383 9.49057 21.4961 9.47743 21.5566 9.4112C21.5866 9.37841 21.6027 9.33357 21.604 9.27924C21.6054 9.22492 21.592 9.16216 21.5645 9.09457C21.5371 9.02698 21.4961 8.95587 21.4441 8.88531C21.392 8.81474 21.3298 8.7461 21.2611 8.6833C21.1923 8.62051 21.1183 8.56479 21.0433 8.51932C20.9684 8.47385 20.8938 8.43953 20.824 8.41831C20.7542 8.3971 20.6905 8.3894 20.6366 8.39567C20.5826 8.40193 20.5394 8.42204 20.5094 8.45483Z" fill="#105287" />
</svg>
